<svg xmlns="http://www.w3.org/2000/svg" viewBox="0 0 511.502 188.783">
  <path fill="#919fa1" d="M49.442 1.326 0 52.877 24.447 75.05l17.732-13.288v124.449h52.723V1.326zm413.789 127.392c-24.64 15.925-51.291 18.097-78.75 9.195-13.88-4.498-24.782-14.266-35.255-24.114-16.028-15.07-28.944-32.876-42.717-49.893-14.355-17.739-29.481-34.505-49.028-46.765C241.288 6.986 224.06.564 204.834.34c-30.154-.356-55.344 10.976-74.93 33.9-5.059 5.924-9.21 12.38-12.279 19.36-1.984 4.512-6.73 15.99-7.598 22.3.726-1.351 4.508-10.81 5.226-12.166 1.873-4.24 3.749-6.58 5.974-9.544 3.954-5.263 8.745-9.752 14.897-12.99 26.35-13.867 62.484-8.881 84.705 11.351 19.54 17.79 35.75 38.612 53.589 57.95 16.668 18.068 32.416 37.058 50.955 53.29 17.987 15.747 38.67 24.897 63.21 24.647 42.714-.433 79.796-28.719 90.856-70.087 1.252-4.682 2.7-10.498 2.162-16.896-4.033 11.294-9.368 21.445-18.37 27.264zm-232.4-5.54c-9.996 7.35-20.261 14.244-33.772 10.996-16.88-4.059-28.098-14.325-31.748-31.3-3.408-15.857 1.377-29.586 14.103-40.126 5.729-4.745 12.08-7.508 18.963-8.709 3.544-.62 8.4-.06 12.214.092-12.672-9.379-28.156-13.146-43.473-12.929-26.161.369-42.295 11.056-52.011 35.364-3.913 9.79-7.21 19.998-6.032 30.711 3.733 25.068 15.342 46.01 35.66 61.298 28.514 21.452 59.878 26.052 93.166 12.71 21.055-8.44 37.555-26.374 52.866-42.318l-35.072-39.894c-6.794 7.668-16.574 18.011-24.864 24.106zM438.91 37.693c0-7.09 1.712-13.776 4.728-19.686C422.194 2.481 394.7-3.72 368.608 2.226c-26.018 5.931-46.467 20.995-65.184 39.115-1.95 1.89-4.179 4.744-4.179 4.744l35.73 43.38 3.45-3.488c9.04-9.908 18.415-19.503 30.059-26.478 4.761-2.852 9.697-5.527 15.345-5.706 16.842-.537 29.775 6.675 37.748 21.35 7.909 14.553 6.511 29.112-2.763 42.846-5.036 7.457-12.37 11.924-20.508 15.61 18.328 3.039 36.092 2.064 53.173-5.843 20.175-9.341 30.026-30.269 29.56-46.72-23.379-.661-42.13-19.807-42.13-43.344z"/>
  <path fill="#3390da" d="M479.528 19.507v8.312h-8.367v29.223h-8.795V27.82h-8.557v-8.312zm18.473 29.205c1.423 0 2.532-.429 3.322-1.233.791-.805 1.214-1.876 1.214-3.164 0-1.34-.423-1.413-1.267-2.164-.844-.752-1.95-1.126-3.269-1.126h-5.273v7.687zm-.738-14.498v-.107c1.107 0 2.056-.322 2.795-.965.738-.643 1.107-1.502 1.107-2.52 0-1.073-.369-1.93-1.107-2.574-.739-.643-1.688-.965-2.795-.965h-4.535v7.131zm1.319-14.692.158-.16c1.634 0 3.164.267 4.534.75 1.372.483 2.532 1.18 3.481 2.091a9.705 9.705 0 0 1 2.215 3.218 9.777 9.777 0 0 1 .791 3.914c0 .965.227 2.283-.089 3.088a9.225 9.225 0 0 1-1.16 2.143 7.556 7.556 0 0 1-1.582 1.61c-.58.429-1.107.697-1.581.858v.054c.842.213 1.301.183 2.092.719a8.145 8.145 0 0 1 2.057 1.984c.579.805 1.054 1.717 1.423 2.735.369 1.019.58 2.039.58 3.11 0 1.662-.264 3.163-.79 4.558a9.66 9.66 0 0 1-2.375 3.593c-1.054 1.018-2.372 1.823-4.007 2.413-1.634.59-3.533.857-5.747.857h-14.503V19.522z"/>
</svg>
