<svg xmlns="http://www.w3.org/2000/svg" viewBox="0 0 256 256">
  <g stroke-width="4.129">
    <path fill="#198cff" fill-rule="evenodd" d="M128 28.903c54.73 0 99.097 44.366 99.097 99.097 0 54.73-44.366 99.097-99.097 99.097-54.731 0-99.097-44.366-99.097-99.097 0-54.73 44.366-99.097 99.097-99.097"/>
    <path fill="#fff" fill-rule="evenodd" d="M4.129 128c0-68.414 55.457-123.87 123.87-123.87 68.413 0 123.87 55.457 123.87 123.87 0 68.418-55.457 123.87-123.87 123.87-68.413 0-123.87-55.453-123.87-123.87zm24.774 0c0 54.73 44.366 99.097 99.097 99.097 54.731 0 99.097-44.366 99.097-99.097 0-54.73-44.366-99.097-99.097-99.097-54.731 0-99.097 44.366-99.097 99.097z"/>
    <path d="M0 128c0 70.693 57.311 128 128 128s128-57.307 128-128C256 57.311 198.689 0 128 0S0 57.311 0 128zm4.129 0c0-68.406 55.453-123.87 123.87-123.87 68.418 0 123.87 55.465 123.87 123.87 0 68.406-55.453 123.87-123.87 123.87-68.418 0-123.87-55.465-123.87-123.87zm28.903-.008c0 52.447 42.521 94.959 94.968 94.959s94.968-42.513 94.968-94.959c0-52.443-42.521-94.959-94.968-94.959S33.032 75.55 33.032 127.992zm-4.129.008c0-54.722 44.362-99.097 99.097-99.097 54.735 0 99.097 44.375 99.097 99.097 0 54.722-44.358 99.097-99.097 99.097S28.903 182.722 28.903 128z" opacity=".5"/>
    <path fill-opacity=".1" fill-rule="evenodd" d="M170.61 231.55c37.694-16.066 64.116-53.376 64.116-96.851 0-58.145-47.261-105.28-105.56-105.28-58.298 0-105.55 47.137-105.55 105.28 0 57.972 46.98 104.99 105.04 105.27-.182.004-.355.017-.533.017-61.184 0-110.78-49.47-110.78-110.49 0-61.024 49.598-110.49 110.78-110.49s110.78 49.47 110.78 110.49c0 46.01-28.2 85.433-68.294 102.06zm-44.627 9.67c68.348 0 123.75-55.259 123.75-123.42 0-6.358-.483-12.602-1.412-18.7a123.35 123.35 0 0 1 3.547 29.337c0 68.17-55.407 123.42-123.75 123.42-61.977 0-113.3-45.432-122.34-104.72 13.205 53.995 61.997 94.084 120.2 94.084z"/>
    <path fill="#f2f2f2" fill-rule="evenodd" d="M128 53.677c41.047 0 74.323 33.276 74.323 74.323 0 41.047-33.276 74.323-74.323 74.323-41.047 0-74.323-33.276-74.323-74.323 0-41.047 33.276-74.323 74.323-74.323z"/>
  </g>
  <g stroke-width="4.129">
    <path fill-opacity=".25" d="M128 53.677c-41.047 0-74.323 33.276-74.323 74.323 0 41.047 33.276 74.323 74.323 74.323 41.047 0 74.323-33.276 74.323-74.323 0-41.047-33.276-74.323-74.323-74.323zm0-4.129c43.326 0 78.452 35.126 78.452 78.452 0 43.33-35.126 78.452-78.452 78.452S49.548 171.33 49.548 128c0-43.326 35.126-78.452 78.452-78.452z"/>
    <path fill-opacity=".05" fill-rule="evenodd" d="M161.03 128a33.032 33.032 0 1 1-66.065 0 33.032 33.032 0 0 1 66.065 0z"/>
    <path fill-opacity=".15" d="M156.9 128a28.903 28.903 0 1 0-57.806 0 28.903 28.903 0 0 0 57.806 0zm4.129 0a33.032 33.032 0 1 1-66.065 0 33.032 33.032 0 0 1 66.065 0z"/>
  </g>
  <path fill="#fff" d="M161.03 128a33.032 33.032 0 1 0-66.065 0 33.032 33.032 0 0 0 66.065 0zm4.129 0a37.161 37.161 0 1 1-74.323 0 37.161 37.161 0 0 1 74.323 0z"/>
  <g fill-rule="evenodd" stroke-width="4.129">
    <path fill="#fff" d="M111.48 112.96V78.45h33.032v57.517l-8.258 7.663 8.258 7.664v34.51H111.48v-57.513l8.258-7.668z"/>
    <path fill="#4d4d4d" d="M111.48 108.83V74.32h33.032v57.517l-8.258 7.663 8.258 7.664v34.51H111.48v-57.513l8.258-7.668z"/>
    <path fill="gray" d="M115.61 112.37V82.579h24.774v51.027l-6.194 7.073v4.162l6.194 7.882v28.953H115.61V130.56l6.194-6.924v-4.187z"/>
  </g>
</svg>
