<svg xmlns="http://www.w3.org/2000/svg" viewBox="0 0 512 128">
  <path d="M158.953 0c-35.352 0-64.011 28.654-64.011 64 0 35.346 28.659 64 64.011 64 35.353 0 64.011-28.654 64.011-64-.312-35.216-28.789-63.687-64.011-64zm0 114.56c-27.75.176-50.39-22.173-50.567-49.92-.176-27.745 22.177-50.381 49.928-50.558 27.75-.177 50.39 22.172 50.568 49.918.002 27.675-22.25 50.21-49.929 50.56zM296.513 0c-35.352 0-64.01 28.654-64.01 64 0 35.346 28.658 64 64.01 64 35.353 0 64.012-28.654 64.012-64a63.994 63.994 0 0 0-18.749-45.255A64.017 64.017 0 0 0 296.513 0zm0 114.56c-27.75.176-50.39-22.173-50.566-49.92-.177-27.745 22.176-50.381 49.927-50.558 27.75-.177 50.391 22.172 50.568 49.918a49.723 49.723 0 0 1-14.337 35.77 49.741 49.741 0 0 1-35.592 14.79zM48.853 38.4a43.15 43.15 0 0 0-33.926 8.96V13.44h57.61c1.921 0 3.201-.64 3.201-6.4 0-5.76-2.56-5.76-3.84-5.76H8.526a5.76 5.76 0 0 0-5.76 5.76v56.32c0 3.2 1.92 3.84 5.12 4.48 1.99.92 4.349.395 5.761-1.28A36.425 36.425 0 0 1 45.653 51.2c14.838 1.852 26.62 13.37 28.805 28.16C76.491 97.008 63.924 113 46.293 115.2h-3.84a32.646 32.646 0 0 1-30.086-21.12c-.64-1.92-1.92-3.2-7.041-1.28C.205 94.72-.435 96 .205 97.92c8.67 23.157 34.29 35.11 57.61 26.88 23.162-8.669 35.117-34.283 26.885-57.6a44.806 44.806 0 0 0-35.847-28.8zM404.053.64c-17.548 2.02-30.777 16.9-30.726 34.56v56.96c0 3.2 2.56 3.84 6.401 3.84 3.84 0 6.401-.64 6.401-3.84V35.2c-.232-10.913 7.75-20.268 18.564-21.76a21.062 21.062 0 0 1 16.003 5.12 20.414 20.414 0 0 1 7.04 15.36 25.597 25.597 0 0 1-4.48 12.16 20.165 20.165 0 0 1-17.923 8.32c-2.56 0-4.481 0-5.121 5.76 0 3.84 0 5.76 3.2 6.4a31.498 31.498 0 0 0 18.564-3.84 34.368 34.368 0 0 0 18.563-26.88 33.148 33.148 0 0 0-7.912-24.387A33.16 33.16 0 0 0 409.686 0c-1.832.514-3.734.73-5.633.64zm83.854 33.28 23.045-23.04c.64-.64 2.56-2.56-1.28-7.04a6.401 6.401 0 0 0-4.481-2.56 3.329 3.329 0 0 0-2.56 1.28L479.585 25.6 456.542 1.92C454.622 0 452.702.64 449.5 3.2c-3.2 2.56-3.2 5.12-1.28 7.04l23.043 23.04-23.172 23.68a4.864 4.864 0 0 0-1.28 2.56c.034 1.832 1 3.52 2.56 4.48a10.306 10.306 0 0 0 4.481 2.56 6.786 6.786 0 0 0 3.201-1.28l23.044-23.04 23.044 23.04a3.329 3.329 0 0 0 2.56 1.28 6.401 6.401 0 0 0 4.481-2.56c1.92-2.56 2.56-5.12.64-6.4z"/>
</svg>
