<svg xmlns="http://www.w3.org/2000/svg" viewBox="0 0 240 234">
  <defs>
    <style>
      .cls-2{fill:#f36}
    </style>
  </defs>
  <path d="M42.5 0h155A42.46 42.46 0 0 1 240 42.5v149a42.46 42.46 0 0 1-42.5 42.5h-155A42.46 42.46 0 0 1 0 191.5v-149A42.46 42.46 0 0 1 42.5 0z" style="fill:#49021f"/>
  <path d="M87.2 61.2v102.6c0 1.1-.5 1.6-1.4 1.6H66.2c-.9 0-1.3-.5-1.3-1.6V61.2c0-.9.5-1.3 1.4-1.3h19.5a1.13 1.13 0 0 1 1.3 1 .37.37 0 0 1 .1.3zM144.8 167a49.72 49.72 0 0 1-21.5-4.5 34.86 34.86 0 0 1-15.1-13.6c-3.7-6.1-5.5-13.7-5.5-22.8a41.07 41.07 0 0 1 5.5-21.1 41.53 41.53 0 0 1 15.9-15.5c7-3.9 15.4-5.8 25.3-5.8a17.86 17.86 0 0 1 2.1.1c.9.1 1.9.1 3.1.2V52.4c0-.7.3-1.1 1-1.1h20.3a.9.9 0 0 1 1 .7v95.4c0 1.8.1 3.8.2 6s.3 4.1.4 5.8a1.62 1.62 0 0 1-1 1.6 76.37 76.37 0 0 1-16.3 4.8 87.34 87.34 0 0 1-15.4 1.4zm9.8-20v-44a25.58 25.58 0 0 0-2.7-.5c-1.1-.1-2.2-.2-3.3-.2a24.65 24.65 0 0 0-11.3 2.6 22.42 22.42 0 0 0-8.5 7.4c-2.2 3.2-3.3 7.5-3.3 12.7a27.87 27.87 0 0 0 1.7 10.3 19.54 19.54 0 0 0 4.5 7.1 17.28 17.28 0 0 0 6.8 4 26.18 26.18 0 0 0 8.3 1.3c1.5 0 2.9-.1 4.2-.2a8.52 8.52 0 0 0 3.6-.5z" class="cls-2"/>
</svg>
