<svg xmlns="http://www.w3.org/2000/svg" viewBox="0 0 240 234">
  <defs>
    <style>
      .cls-2{fill:#fff}
    </style>
  </defs>
  <path d="M42.5 0h155A42.46 42.46 0 0 1 240 42.5v149a42.46 42.46 0 0 1-42.5 42.5h-155A42.46 42.46 0 0 1 0 191.5v-149A42.46 42.46 0 0 1 42.5 0z" style="fill:#000b1d"/>
  <path d="M55.1 164.2 55 62c0-1 .3-1.5 1-1.6 1.8-.1 4.6-.2 8.4-.2 3.8 0 7.4-.1 11.8-.2s8.4-.1 12.1-.1c8.8 0 16 .6 21.2 2.6a31.48 31.48 0 0 1 12 7.3 23.45 23.45 0 0 1 5.9 9.3 29.58 29.58 0 0 1 1.4 8.9 25.44 25.44 0 0 1-1.9 9.4 21.9 21.9 0 0 1-3.9 6.8 18.12 18.12 0 0 1-4.3 4 34.66 34.66 0 0 1 6.4 4.4 24.76 24.76 0 0 1 6 8 26 26 0 0 1 2.8 12.2 29.06 29.06 0 0 1-5.6 17.3 34.41 34.41 0 0 1-15.5 11.5 62 62 0 0 1-24.1 4.3H78.1c-3.4 0-6.2 0-9.1-.1-2.9-.1-5.3-.1-7.4-.2-2.1-.1-3.9-.1-5.4-.1-.8 0-1.1-.5-1.1-1.3zm21.7-85.3.1 22.3h10.5c2.9 0 5.7.1 8.5.2a30.52 30.52 0 0 1 6 .6 16.12 16.12 0 0 0 3.5-4.3 12.2 12.2 0 0 0 1.6-6.2 12.57 12.57 0 0 0-2.4-7.4 13 13 0 0 0-6-4.1 31.78 31.78 0 0 0-10.2-1.3h-4.7c-1.4 0-2.3 0-3.4.1s-2.2.1-3.5.1zm.1 41v26.8c1.8.1 3.2.2 5.1.2 1.9 0 4 .1 6.6.1a42.13 42.13 0 0 0 11.7-1.4 15.19 15.19 0 0 0 7.6-4.5 12 12 0 0 0 3.1-7.6 13.26 13.26 0 0 0-2.7-7.6c-1.4-2.1-4-3.9-7.7-4.9a33.92 33.92 0 0 0-4.4-.8 58.28 58.28 0 0 0-5.9-.3zM148.2 85h17.5a2.25 2.25 0 0 1 2.1 1.6 6.31 6.31 0 0 1 .8 2.3c.2 1 .4 2.1.5 3.1.1 1 .2 2.7.2 4a38.58 38.58 0 0 1 10.7-9c4.3-2.4 8.9-3 14.5-3a1.24 1.24 0 0 1 1.4 1.1v19.6c0 .8-.5 1.1-1.6 1.1a39 39 0 0 0-10.2.7 41.15 41.15 0 0 0-8.4 2.7 19 19 0 0 0-5.9 3.7v50.7c0 1-.4 1.4-1.3 1.4h-19a1.38 1.38 0 0 1-1.6-1.2v-55.4c0-2.4 0-4.9-.1-7.5-.1-2.6-.1-5.2-.2-7.8-.1-2.3-.3-4.7-.6-7a.92.92 0 0 1 .7-1.1z" class="cls-2"/>
</svg>
