<svg xmlns="http://www.w3.org/2000/svg" viewBox="0 0 240 234">
  <defs>
    <style>
      .cls-2{fill:#99f}
    </style>
  </defs>
  <path d="M42.5 0h155A42.46 42.46 0 0 1 240 42.5v149a42.46 42.46 0 0 1-42.5 42.5h-155A42.46 42.46 0 0 1 0 191.5v-149A42.46 42.46 0 0 1 42.5 0z" style="fill:#00005b"/>
  <path d="M60.7 165.4H41.5c-.9 0-1.3-.5-1.3-1.4V61.5c0-1 .3-1.4 1-1.4 3.8-.1 7-.2 9.7-.2l7.7-.2c2.5-.1 5-.1 7.7-.1H75c9 0 16.6 1.3 22.7 3.8a30.61 30.61 0 0 1 14.1 11c3.3 4.7 4.9 10.6 4.9 17.6a27.91 27.91 0 0 1-2.6 12 30.37 30.37 0 0 1-7.1 9.6 33.59 33.59 0 0 1-10.5 6.5c1.1 1.4 2.6 3.5 4.5 6.4 1.9 2.9 4.1 6 6.4 9.5 2.3 3.5 4.6 7 6.9 10.6 2.3 3.6 4.4 6.8 6.3 9.8 1.9 3 3.3 5.4 4.3 7.1a1.57 1.57 0 0 1 .4 1.3.56.56 0 0 1-.7.6h-23.4a5.9 5.9 0 0 1-1.4-.2 2.7 2.7 0 0 1-.8-.7c-1.2-1.7-2.7-4-4.4-6.8-1.7-2.8-3.6-5.9-5.6-9.3-2-3.4-4-6.8-6-10.1s-3.7-6.3-5.2-9a9.09 9.09 0 0 0-1.8-2.1 3.61 3.61 0 0 0-2-.6H62v37.5a1.21 1.21 0 0 1-1.3 1.3zm1.3-58h12.6a32 32 0 0 0 10.6-1.5 13.15 13.15 0 0 0 6.8-4.8 12.62 12.62 0 0 0 2.4-8c0-4.9-1.8-8.5-5.5-10.7-3.7-2.2-8.5-3.3-14.5-3.3-2.6 0-5 0-7.2.1s-4 .1-5.2.2zM201.6 86.5v61c0 2.7 0 5.1.1 7.2.1 2.1.2 3.9.3 5.5.1 1.6.3 2.9.4 3.9.1 1-.3 1.3-1.1 1.3H184a1.88 1.88 0 0 1-1.9-1.1c-.2-.8-.4-1.6-.6-2.5a10.55 10.55 0 0 1-.2-2.5 28.46 28.46 0 0 1-11.3 6.2 41.83 41.83 0 0 1-11.1 1.5 33.58 33.58 0 0 1-10.9-1.7 20.84 20.84 0 0 1-8.5-5.5 24.93 24.93 0 0 1-5.6-9.7 45.58 45.58 0 0 1-2-14.2V86.7a1.13 1.13 0 0 1 1-1.3H153a1.13 1.13 0 0 1 1.3 1v47c0 4.4 1 7.9 2.9 10.4s5.2 3.8 9.7 3.8a19.89 19.89 0 0 0 6.8-1.2 21.17 21.17 0 0 0 5.6-3.3V86.5c0-.8.5-1.1 1.4-1.1h19.8a.94.94 0 0 1 1.1.8z" class="cls-2"/>
</svg>
