<svg xmlns="http://www.w3.org/2000/svg" viewBox="0 0 240 234">
  <defs>
    <style>
      .cls-2{fill:#31a8ff}
    </style>
  </defs>
  <path d="M42.5 0h155A42.46 42.46 0 0 1 240 42.5v149a42.46 42.46 0 0 1-42.5 42.5h-155A42.46 42.46 0 0 1 0 191.5v-149A42.46 42.46 0 0 1 42.5 0z" style="fill:#001e36"/>
  <path d="M126 165.4H62.6c-1.1 0-1.6-.6-1.6-1.8V61.4a1.24 1.24 0 0 1 1.1-1.4h20a.94.94 0 0 1 1.1.8v84.3h46.2c1 0 1.3.5 1.1 1.4l-2.9 17.4a1.74 1.74 0 0 1-.6 1.2 1.69 1.69 0 0 1-1 .3zM142 85.4h17.5a2.25 2.25 0 0 1 2.1 1.6 6.31 6.31 0 0 1 .8 2.3c.2 1 .4 2.1.5 3.1.1 1 .2 2.3.2 3.6a37.22 37.22 0 0 1 10.7-8.6 29.85 29.85 0 0 1 14.9-3.6 1.24 1.24 0 0 1 1.4 1.1v19.9c0 .8-.5 1.1-1.6 1.1a40.76 40.76 0 0 0-18.9 3.4 16.77 16.77 0 0 0-5.4 3.7v51c0 1-.4 1.4-1.3 1.4h-19.5a1.38 1.38 0 0 1-1.6-1.2v-55.8c0-2.4 0-4.9-.1-7.5-.1-2.6-.1-5.2-.2-7.8q-.15-3.3-.6-6.6a.92.92 0 0 1 .7-1.1c.1-.1.2-.1.4 0z" class="cls-2"/>
</svg>
