<svg xmlns="http://www.w3.org/2000/svg" viewBox="0 0 240 234">
  <defs>
    <style>
      .cls-2{fill:#99f}
    </style>
  </defs>
  <path d="M42.5 0h155A42.46 42.46 0 0 1 240 42.5v149a42.46 42.46 0 0 1-42.5 42.5h-155A42.46 42.46 0 0 1 0 191.5v-149A42.46 42.46 0 0 1 42.5 0z" style="fill:#00005b"/>
  <path d="M61.6 164.1V61.2c0-.7.3-1.1 1-1.1 1.7 0 3.8 0 6.1-.1s4.9-.1 7.6-.2c2.7-.1 5.6-.1 8.7-.2 3.1-.1 6.1-.1 9.1-.1 8.2 0 15 1 20.6 3.1a35.71 35.71 0 0 1 13.4 8.2 31.84 31.84 0 0 1 7.3 11.4 38.28 38.28 0 0 1 2.3 13q0 12.9-6 21.3a34.26 34.26 0 0 1-16.1 12.2 64.11 64.11 0 0 1-22.5 3.8c-2.4 0-4 0-5-.1s-2.4-.1-4.3-.1V164a1.24 1.24 0 0 1-1.1 1.4h-20c-.8 0-1.1-.4-1.1-1.3zm22.2-84.7v33.3c1.4.1 2.7.2 3.9.2H93a37.18 37.18 0 0 0 11.5-1.6 17.2 17.2 0 0 0 8.2-5.3c2.1-2.5 3.1-5.9 3.1-10.3a16.46 16.46 0 0 0-2.3-8.9 14.5 14.5 0 0 0-7-5.7 29.34 29.34 0 0 0-11.8-2c-2.6 0-4.9 0-6.8.1a32.52 32.52 0 0 0-4.1.2zM146.7 144.6V52.5c0-.9.5-1.3 1.4-1.3h19.5c1 0 1.4.4 1.4 1.3v90.2q0 3.45 1.2 4.8c.8 1 2.2 1.4 4.1 1.4a6.15 6.15 0 0 0 1.4-.1c.3-.1.8-.1 1.4-.2a.9.9 0 0 1 .5.1 1.6 1.6 0 0 1 .2 1v13.8a5.7 5.7 0 0 1-.1 1.3 1.44 1.44 0 0 1-.7.6 19.52 19.52 0 0 1-4 1 41.67 41.67 0 0 1-6.1.4 26.63 26.63 0 0 1-10.4-1.9 14 14 0 0 1-7.2-6.8c-1.7-3-2.6-7.6-2.6-13.5z" class="cls-2"/>
</svg>
