<svg xmlns="http://www.w3.org/2000/svg" viewBox="0 0 240 234"><defs><style>.cls-1{fill:#00005b;}.cls-2{fill:#99f;}</style></defs><title>After Effects</title><g id="Layer_2" data-name="Layer 2"><g id="Layer_1-2" data-name="Layer 1"><g id="Layer_2-2" data-name="Layer 2"><g id="Surfaces"><g id="Video_Audio_Surface" data-name="Video Audio Surface"><g id="Outline_no_shadow" data-name="Outline no shadow"><path class="cls-1" d="M42.5,0h155A42.46,42.46,0,0,1,240,42.5v149A42.46,42.46,0,0,1,197.5,234H42.5A42.46,42.46,0,0,1,0,191.5V42.5A42.46,42.46,0,0,1,42.5,0Z"/></g></g></g><g id="Outlined_Mnemonics_Logos" data-name="Outlined Mnemonics Logos"><g id="Ae"><path class="cls-2" d="M96.4,140H59.2l-7.6,23.6a1.75,1.75,0,0,1-1.9,1.4H30.9c-1.1,0-1.4-.6-1.1-1.8L62,70.9c.3-1,.6-1.9,1-3.1a34.93,34.93,0,0,0,.6-6.5,1,1,0,0,1,.8-1.1H90.3c.7,0,1.2.3,1.3.8l36.5,102.5c.3,1.1,0,1.6-1,1.6H106.2a1.51,1.51,0,0,1-1.6-1.1ZM65,120.1H90.4c-.6-2.1-1.4-4.6-2.3-7.2s-1.8-5.6-2.7-8.6-1.9-6.1-2.9-9.2-1.9-6-2.7-8.9-1.5-5.4-2.2-7.8h-.2A122.78,122.78,0,0,1,74,91.3c-1.5,4.8-3,9.8-4.6,14.8C68.1,111.2,66.5,115.9,65,120.1Z"/><path class="cls-2" d="M187.4,130.8H155.7a22,22,0,0,0,3.1,8.9,15.86,15.86,0,0,0,7.3,6,31.1,31.1,0,0,0,12.8,2.5,60.15,60.15,0,0,0,10.4-1.1,37.55,37.55,0,0,0,8.9-2.3c.5-.4.8-.2.8.8v15.3a5,5,0,0,1-.2,1.2,2.34,2.34,0,0,1-.7.7,42.78,42.78,0,0,1-10,3,67.55,67.55,0,0,1-14.2,1.2c-7.6,0-14-1.2-19.2-3.5a33.67,33.67,0,0,1-12.6-9.5,36.7,36.7,0,0,1-6.9-13.1,51.81,51.81,0,0,1,.4-30.5,40.81,40.81,0,0,1,7.5-13.7,36.24,36.24,0,0,1,12.1-9.5c4.7-2.3,10.3-3.1,16.7-3.1a36.12,36.12,0,0,1,15.5,3.1,27.54,27.54,0,0,1,10.5,8,36.61,36.61,0,0,1,6,11.4,39.33,39.33,0,0,1,1.9,12.2c0,2.4-.1,4.5-.2,6.4s-.3,3.3-.4,4.2a1.49,1.49,0,0,1-1.4,1.3c-.6,0-1.7.1-3.3.2a47.33,47.33,0,0,1-5.8.3C192.4,131.2,190,130.8,187.4,130.8Zm-31.7-14.6h21.1c2.6,0,4.5,0,5.7-.1a4.89,4.89,0,0,0,2.3-.8v-1a11.48,11.48,0,0,0-.6-3.7,13.24,13.24,0,0,0-13-9.2,14.08,14.08,0,0,0-13.3,7.6A20.73,20.73,0,0,0,155.7,116.2Z"/></g></g></g></g></g></svg>