<svg xmlns="http://www.w3.org/2000/svg" viewBox="0 0 240 234">
  <path d="M42.5 0h155A42.46 42.46 0 0 1 240 42.5v149a42.46 42.46 0 0 1-42.5 42.5h-155A42.46 42.46 0 0 1 0 191.5v-149A42.46 42.46 0 0 1 42.5 0z" style="fill:#000b1d"/>
  <path d="M85 169.7a84.83 84.83 0 0 1-16.1-1.55 54.23 54.23 0 0 1-12.23-3.87 2.62 2.62 0 0 1-1.24-2.63v-18.89a1.1 1.1 0 0 1 .46-.93.75.75 0 0 1 .93.15 54.26 54.26 0 0 0 14.09 6.19 53.19 53.19 0 0 0 14.55 2q9.06 0 13-2.79a8.2 8.2 0 0 0 3.87-7 9.61 9.61 0 0 0-1.24-4.8 14.84 14.84 0 0 0-4.49-4.18 45.52 45.52 0 0 0-8.67-4.18l-7.9-3.41A61.29 61.29 0 0 1 64.88 115a23.33 23.33 0 0 1-7.44-10 31.62 31.62 0 0 1-2.17-11.61 29 29 0 0 1 4.18-15.48 28.69 28.69 0 0 1 12.7-11c5.57-2.63 12.7-4 21.06-4a104.86 104.86 0 0 1 14.25.93 37.58 37.58 0 0 1 10.54 2.9 2.1 2.1 0 0 1 1.08 2v18a.83.83 0 0 1-.46.62.75.75 0 0 1-.93-.15 50.78 50.78 0 0 0-11-4 90.55 90.55 0 0 0-13.16-1.08 28.41 28.41 0 0 0-7.74.77 20.59 20.59 0 0 0-5.11 2 8.89 8.89 0 0 0-2.94 2.94 8.25 8.25 0 0 0-.93 3.72A7.38 7.38 0 0 0 78.19 96a16.38 16.38 0 0 0 4.8 4 69.65 69.65 0 0 0 9.14 4.65l5.87 2.19c7 2.94 12.39 5.88 16.26 9.14 3.87 3.26 6.66 6.66 8.21 10.53a31.87 31.87 0 0 1 2.32 12.23 28.17 28.17 0 0 1-5 16.41A32.25 32.25 0 0 1 106.06 166c-5.88 2.48-13 3.72-21.06 3.72zm93.37-17.19v13c0 1.08-.46 1.86-1.24 2-2 .62-4.18 1.08-6.35 1.55a37.6 37.6 0 0 1-7.59.62c-7 0-12.23-1.86-16.26-5.42-3.87-3.56-5.88-9.45-5.88-17.34v-39.15h-9.45c-.93 0-1.24-.46-1.24-1.39v-15.8c0-.93.46-1.24 1.39-1.24h9.45c.15-1.86.15-3.87.46-6.19.15-2.32.31-4.8.62-7.12.15-2.32.46-4.34.62-5.88.15-.31.15-.62.46-.93a3.38 3.38 0 0 1 .77-.62L163 66.27a.69.69 0 0 1 .77 0 1.31 1.31 0 0 1 .31.93c-.15 2.48-.31 5.73-.46 9.91-.15 4.18-.15 8.21-.31 12.23h14.71c.62 0 .93.46.93 1.24v16.1c0 .62-.15.93-.77 1.08h-15v33.91c0 3.56.62 6.19 1.86 7.74 1.24 1.55 3.41 2.32 6.66 2.32a14.17 14.17 0 0 0 2.63-.15c.93 0 1.7-.15 2.63-.15a.73.73 0 0 1 .93.15.94.94 0 0 1 .48.94z" style="fill:#fff"/>
</svg>
