<svg xmlns="http://www.w3.org/2000/svg" viewBox="0 0 240 234"><defs><style>.cls-1{fill:#470137;}.cls-2{fill:#ff61f6;}</style></defs><title>Dreamweaver</title><g id="Layer_2" data-name="Layer 2"><g id="Layer_1-2" data-name="Layer 1"><g id="Layer_2-2" data-name="Layer 2"><g id="Surfaces"><g id="UI_UX_Surface" data-name="UI UX Surface"><g id="Outline_no_shadow" data-name="Outline no shadow"><path class="cls-1" d="M42.5,0h155A42.46,42.46,0,0,1,240,42.5v149A42.46,42.46,0,0,1,197.5,234H42.5A42.46,42.46,0,0,1,0,191.5V42.5A42.46,42.46,0,0,1,42.5,0Z"/></g></g></g><g id="Outlined_Mnemonics_Logos" data-name="Outlined Mnemonics Logos"><g id="Dw"><path class="cls-2" d="M22.8,163.8V61.4a1.2,1.2,0,0,1,1-1.3h.1c1.5-.1,3.8-.2,6.7-.2s6.4-.1,10.4-.2,8.2-.1,12.7-.1c12.2,0,22.4,2.2,30.4,6.6a43.85,43.85,0,0,1,18.1,18.1c4,7.7,6,16.5,6,26.5a61.83,61.83,0,0,1-3.1,20.5,48.72,48.72,0,0,1-8.6,15.4,52.35,52.35,0,0,1-12.3,10.7,54.86,54.86,0,0,1-14.7,6.3,61.38,61.38,0,0,1-15.4,2H42.8c-4,0-7.8,0-11.2-.1s-6.1-.1-7.8-.2C23.1,165.4,22.8,164.8,22.8,163.8ZM43.9,79.4v66.7c1.1,0,2.1,0,3.1.1s1.9.1,2.8.2,2.1.1,3.3.1a37.42,37.42,0,0,0,13.6-2.3,26.84,26.84,0,0,0,10.5-6.8,30.88,30.88,0,0,0,6.7-11.1,47.57,47.57,0,0,0,2.4-15A39.74,39.74,0,0,0,84,97.2,26.08,26.08,0,0,0,66.9,81a42.18,42.18,0,0,0-13.2-1.9c-2,0-3.7,0-5.1.1s-3,.1-4.7.2Z"/><path class="cls-2" d="M197.8,165.4H179.1a1.37,1.37,0,0,1-1.2-.4,3.38,3.38,0,0,1-.6-1.2c-1.9-8-3.5-15.2-4.8-21.3s-2.4-11.4-3.2-15.7-1.5-7.9-2.1-10.9-1-5.5-1.3-7.6h-.1c-1,4.4-1.9,8.7-2.8,12.8s-1.8,8.3-2.8,12.5-2.1,8.8-3.4,13.8-2.6,10.5-4.1,16.4c-.2,1.1-.7,1.6-1.6,1.6H132.4a2.23,2.23,0,0,1-1.4-.3,4.13,4.13,0,0,1-.7-1.1L110.8,86.7c-.3-.9.1-1.3,1.2-1.3h18.9c.9,0,1.4.3,1.5,1,2,8.8,3.7,16.4,5,22.8s2.4,11.8,3.1,16.3,1.4,8.2,1.9,11,.9,5.2,1.2,7h.3c.2-1.6.4-3.1.7-4.7q.6-2.85,1.5-7.5c.6-3.1,1.3-6.7,2.2-10.9s1.9-9,3.1-14.6S154.1,94,156,86.9a3.26,3.26,0,0,1,.4-1.3c.1-.2.5-.3,1.1-.3h19.6c.6,0,.9.4,1,1.1,1.7,7.3,3.1,13.7,4.3,19.2s2.1,10.4,3,14.7,1.5,7.9,1.9,10.9.9,5.6,1.3,7.7a44.61,44.61,0,0,1,.7,5.1h.3c.5-2,.9-4.4,1.3-7.1s.9-5.7,1.6-9.1,1.3-7.1,2.1-11.2,1.7-8.6,2.8-13.7,2.3-10.5,3.7-16.4c.2-.9.6-1.3,1.3-1.3h17.5c.9,0,1.2.5,1,1.4l-21.6,77.1a2.38,2.38,0,0,1-.6,1.1C198.7,165.3,198.3,165.5,197.8,165.4Z"/></g></g></g></g></g></svg>