<svg xmlns="http://www.w3.org/2000/svg" viewBox="0 0 240 234">
  <defs>
    <style>
      .cls-2{fill:#31a8ff}
    </style>
  </defs>
  <path d="M42.5 0h155A42.46 42.46 0 0 1 240 42.5v149a42.46 42.46 0 0 1-42.5 42.5h-155A42.46 42.46 0 0 1 0 191.5v-149A42.46 42.46 0 0 1 42.5 0z" style="fill:#001e36"/>
  <path d="M83.8 71.3a32.5 32.5 0 0 0-12.1-8.2A50 50 0 0 0 53.2 60c-2.7 0-5.4 0-8.2.1-2.8.1-5.4.1-7.8.2-2.4.1-4.8.1-6.9.2-2.1.1-3.8-.2-5.4-.2-.6 0-.9.4-.9 1.1v102.4c0 .9.3 1.5 1 1.5h17.5c.9 0 1.3-.5 1.3-1.4v-31.3c1.7 0 3 0 3.9.1.9.1 2.4.1 4.5.1a52.64 52.64 0 0 0 20.3-3.8A31.18 31.18 0 0 0 87 116.9c3.6-5.6 5.4-12.7 5.4-21.2a44.09 44.09 0 0 0-2-13 33.4 33.4 0 0 0-6.6-11.4zm-13.9 35.1a15.67 15.67 0 0 1-7.4 5.3 30.19 30.19 0 0 1-10.4 1.6h-4.8c-1.1 0-2.2-.1-3.5-.2V79.9c1.2-.1 2.5-.2 3.7-.2 1.8-.1 3.8-.1 6.2-.1a26 26 0 0 1 10.6 2 14.46 14.46 0 0 1 6.3 5.7 17.21 17.21 0 0 1 2.1 8.9c0 4.3-1 7.8-2.8 10.2zM139.1 123.4a60.82 60.82 0 0 0-13.8-7.3c-2.2-1-4.3-2.1-6.4-3.3a9.72 9.72 0 0 1-3-2.7 5.77 5.77 0 0 1-.9-2.6 5 5 0 0 1 .7-2.7 5.07 5.07 0 0 1 2.8-2 16.72 16.72 0 0 1 5.4-.7 38.35 38.35 0 0 1 10.1 1.3 27.42 27.42 0 0 1 8.3 3.4.91.91 0 0 0 1 0 1 1 0 0 0 .4-1V89.5a4.87 4.87 0 0 0-.1-1.2 1.59 1.59 0 0 0-.9-.9 20.76 20.76 0 0 0-7.3-2.3 69.55 69.55 0 0 0-11.2-.9c-6.4 0-11.7 1.2-15.9 3.5a23.13 23.13 0 0 0-9.4 9.2 24.4 24.4 0 0 0-3 12.1 25.52 25.52 0 0 0 2.1 10.2 23.19 23.19 0 0 0 6.8 8.4 49 49 0 0 0 12.8 7.2c4.4 1.8 7.4 3.4 8.8 4.7a5.43 5.43 0 0 1 2.2 4 4.7 4.7 0 0 1-2.4 4.2c-1.6 1-4.1 1.4-7.5 1.4a47.54 47.54 0 0 1-10.6-1.5 35 35 0 0 1-10.8-4.8.92.92 0 0 0-1 .1 1 1 0 0 0-.4.9v17.4a1.84 1.84 0 0 0 1.2 1.7 34.82 34.82 0 0 0 8.9 3.1 55.58 55.58 0 0 0 12.2 1.3c6.5 0 11.9-1.1 16.3-3.2a23 23 0 0 0 10.1-8.9 24.77 24.77 0 0 0 3.5-13.3 24.37 24.37 0 0 0-2.1-10.3 21 21 0 0 0-6.9-8.2zM214.8 70.6a25.37 25.37 0 0 0-6.7-1.7 87.22 87.22 0 0 0-10.2-.6c-9.8 0-18.4 2.1-25.5 6.2A43.05 43.05 0 0 0 155.8 92c-3.9 7.4-5.8 16.2-5.8 26a65.84 65.84 0 0 0 2.2 17.6 46.35 46.35 0 0 0 6.4 13.7 40.09 40.09 0 0 0 9.8 9.9 39 39 0 0 0 12.7 6 55.29 55.29 0 0 0 14.6 2 70.36 70.36 0 0 0 10.3-.7 32 32 0 0 0 8.1-2 2.69 2.69 0 0 0 1.5-2.7v-14.9a1.74 1.74 0 0 0-.5-1.5 1.2 1.2 0 0 0-1.6.1 32.54 32.54 0 0 1-7 1.7 84.42 84.42 0 0 1-8.7.4 29.38 29.38 0 0 1-7.8-1.1 29.91 29.91 0 0 1-7.6-3.2 21.84 21.84 0 0 1-6.3-5.8 30.42 30.42 0 0 1-4.4-8.6 38.45 38.45 0 0 1-1.6-11.7 36.75 36.75 0 0 1 3.3-16 25.11 25.11 0 0 1 9.4-10.5 27.72 27.72 0 0 1 14.6-3.8 49.73 49.73 0 0 1 9.4.8 23.51 23.51 0 0 1 7.2 2.4 1.48 1.48 0 0 0 1.3 0 1.72 1.72 0 0 0 .6-1.5V73a2.9 2.9 0 0 0-1.1-2.4z" class="cls-2"/>
</svg>
