<svg xmlns="http://www.w3.org/2000/svg" viewBox="0 0 240 234">
  <defs>
    <style>
      .cls-2{fill:#ff61f6}
    </style>
  </defs>
  <path d="M42.5 0h155A42.46 42.46 0 0 1 240 42.5v149a42.46 42.46 0 0 1-42.5 42.5h-155A42.46 42.46 0 0 1 0 191.5v-149A42.46 42.46 0 0 1 42.5 0z" style="fill:#470137"/>
  <path d="m126.2 61.5-30 49.5 32 52.5a1.72 1.72 0 0 1 .2 1.2c-.1.4-.5.1-1.1.2h-22.9c-1.6 0-2.7-.1-3.4-1.1-2.1-4.2-4.3-8.3-6.4-12.5-2.1-4.2-4.4-8.3-6.8-12.6-2.4-4.3-4.8-8.6-7.2-13h-.2c-2.1 4.3-4.4 8.6-6.7 12.9-2.3 4.3-4.6 8.6-6.8 12.8-2.2 4.2-4.6 8.5-6.9 12.6-.4 1-1.2 1.1-2.3 1.1h-22c-.4 0-.7.2-.7-.3a1.39 1.39 0 0 1 .2-1.1l31.1-51L36 61.4c-.3-.4-.4-.8-.2-1a1.16 1.16 0 0 1 1-.4h22.7a5.9 5.9 0 0 1 1.4.2 2.84 2.84 0 0 1 1 .9c1.9 4.3 4.1 8.6 6.4 12.9 2.3 4.3 4.7 8.5 7.2 12.7 2.5 4.2 4.6 8.4 6.7 12.7h.2c2.1-4.4 4.3-8.7 6.5-12.9 2.2-4.2 4.5-8.4 6.8-12.6 2.3-4.2 4.5-8.5 6.7-12.6a1.7 1.7 0 0 1 .6-1 1.91 1.91 0 0 1 1.3-.2h21.1a.92.92 0 0 1 1.1.7c.1.1-.1.5-.3.7zM172.4 167a49.72 49.72 0 0 1-21.5-4.5 34.86 34.86 0 0 1-15.1-13.6c-3.7-6.1-5.5-13.7-5.5-22.8a41.07 41.07 0 0 1 5.5-21.1 41.53 41.53 0 0 1 15.9-15.5c7-3.9 15.4-5.8 25.3-5.8a17.86 17.86 0 0 1 2.1.1c.9.1 1.9.1 3.1.2V52.4c0-.7.3-1.1 1-1.1h20.3a.9.9 0 0 1 1 .7v95.4c0 1.8.1 3.8.2 6s.3 4.1.4 5.8a1.62 1.62 0 0 1-1 1.6 76.37 76.37 0 0 1-16.3 4.8 88.21 88.21 0 0 1-15.4 1.4zm9.8-20v-44a25.58 25.58 0 0 0-2.7-.5c-1.1-.1-2.2-.2-3.3-.2a24.65 24.65 0 0 0-11.3 2.6 22.42 22.42 0 0 0-8.5 7.4c-2.2 3.2-3.3 7.5-3.3 12.7a27.87 27.87 0 0 0 1.7 10.3 19.54 19.54 0 0 0 4.5 7.1 17.28 17.28 0 0 0 6.8 4 26.18 26.18 0 0 0 8.3 1.3c1.5 0 2.9-.1 4.2-.2a8.75 8.75 0 0 0 3.6-.5z" class="cls-2"/>
</svg>
