<svg xmlns="http://www.w3.org/2000/svg" viewBox="0 0 240 234"><defs><style>.cls-1{fill:#00005b;}.cls-2{fill:#99f;}</style></defs><title>Animate</title><g id="Layer_2" data-name="Layer 2"><g id="Layer_1-2" data-name="Layer 1"><g id="Layer_2-2" data-name="Layer 2"><g id="Surfaces"><g id="Video_Audio_Surface" data-name="Video Audio Surface"><g id="Outline_no_shadow" data-name="Outline no shadow"><path class="cls-1" d="M42.5,0h155A42.46,42.46,0,0,1,240,42.5v149A42.46,42.46,0,0,1,197.5,234H42.5A42.46,42.46,0,0,1,0,191.5V42.5A42.46,42.46,0,0,1,42.5,0Z"/></g></g></g><g id="Outlined_Mnemonics_Logos" data-name="Outlined Mnemonics Logos"><g id="An"><path class="cls-2" d="M97,140H59.9l-7.6,23.5a1.75,1.75,0,0,1-1.9,1.4h-19c-1.1,0-1.4-.6-1.1-1.8L62.6,70.8c.3-1,.6-1.8,1-3.1a34.93,34.93,0,0,0,.6-6.5,1,1,0,0,1,.8-1.1H91c.8,0,1.2.3,1.3.8l36.4,102.3c.3,1.1,0,1.6-1,1.6H106.8a1.51,1.51,0,0,1-1.6-1.1ZM65.7,120.1H91.1c-.6-2.1-1.4-4.6-2.3-7.2s-1.8-5.6-2.7-8.6-1.9-6.1-2.9-9.2-1.9-6-2.7-8.9-1.5-5.4-2.2-7.8h-.2a122.78,122.78,0,0,1-3.4,12.9c-1.5,4.8-3,9.8-4.6,14.8C68.7,111.2,67.2,115.9,65.7,120.1Z"/><path class="cls-2" d="M140,163.4V104c0-1.8,0-3.9-.1-6.1s-.1-4.4-.2-6.4-.2-3.9-.3-5.1a1,1,0,0,1,.2-1,1.69,1.69,0,0,1,1-.3h16.1a4.15,4.15,0,0,1,1.6.3,1.55,1.55,0,0,1,.8,1.1c.2.6.5,1.4.7,2.2a19.09,19.09,0,0,1,.6,3.3A33.22,33.22,0,0,1,171,85.8a38.37,38.37,0,0,1,12.1-2,29.83,29.83,0,0,1,9.4,1.5,24,24,0,0,1,15.2,14.8c1.6,4.1,2.2,9.5,2.2,16v47.3c0,1-.4,1.4-1.3,1.4l-18.8.2a1.38,1.38,0,0,1-1.6-1.2V118.6a23.43,23.43,0,0,0-1.9-8.7,11,11,0,0,0-10.9-6.8,19.71,19.71,0,0,0-7.6,1.4,21,21,0,0,0-6,3.8v55.2c0,1-.4,1.4-1.3,1.4h-19a1.24,1.24,0,0,1-1.4-1.1C139.9,163.6,139.9,163.5,140,163.4Z"/></g></g></g></g></g></svg>