<svg xmlns="http://www.w3.org/2000/svg" viewBox="0 0 240 234"><defs><style>.cls-1{fill:#00005b;}.cls-2{fill:#99f;}</style></defs><title>Character Animator</title><g id="Layer_2" data-name="Layer 2"><g id="Layer_1-2" data-name="Layer 1"><path class="cls-1" d="M42.5,0h155A42.46,42.46,0,0,1,240,42.5v149A42.46,42.46,0,0,1,197.5,234H42.5A42.46,42.46,0,0,1,0,191.5V42.5A42.46,42.46,0,0,1,42.5,0Z"/><path class="cls-2" d="M114.8,145.3v16.6a2.21,2.21,0,0,1-1.3,2.3,43.73,43.73,0,0,1-9.5,2.2,106.42,106.42,0,0,1-12.6.7,71.14,71.14,0,0,1-17.8-2.2,55.14,55.14,0,0,1-15.4-6.6,45.8,45.8,0,0,1-11.9-10.9,47.47,47.47,0,0,1-7.7-15,63.41,63.41,0,0,1-2.7-19.3c0-10.8,2.4-20.4,7.1-28.6A48.92,48.92,0,0,1,63.1,65.3a65.82,65.82,0,0,1,31.1-7.2c4.2,0,8.3.2,12.5.6a41.75,41.75,0,0,1,8.5,1.9,2.09,2.09,0,0,1,.8,1.9V80.6c0,1-.4,1.3-1.1,1a35.53,35.53,0,0,0-9.6-2.9,77.17,77.17,0,0,0-11.8-.9A37,37,0,0,0,75,82.3a29.88,29.88,0,0,0-11.9,12,37.94,37.94,0,0,0-4.2,18.1,39.55,39.55,0,0,0,2,13.2,29,29,0,0,0,5.6,9.8,28.24,28.24,0,0,0,8,6.6,39.56,39.56,0,0,0,9.6,3.6,41.62,41.62,0,0,0,9.9,1.5,99.4,99.4,0,0,0,10.9-.5,37,37,0,0,0,8.7-2.2c.4-.3.7-.4,1-.2A1.39,1.39,0,0,1,114.8,145.3Z"/><path class="cls-2" d="M151.8,107.3v56.4c0,.9-.4,1.3-1.1,1.3H130.6a1.24,1.24,0,0,1-1.4-1.1V52.4c0-.7.4-1.1,1.3-1.1h20.3a.94.94,0,0,1,1.1.8v.3l.1,38a45.1,45.1,0,0,1,9.3-4.7c3.4-1.2,7.3-1.5,11.8-1.5a32.91,32.91,0,0,1,9.4,1.4,23.48,23.48,0,0,1,8.8,4.7c2.7,2.4,4.6,5.7,6.2,9.8s2.4,9.5,2.4,16v47.4c0,1-.4,1.4-1.3,1.4H179.7a1.38,1.38,0,0,1-1.6-1.2V118.3a20.64,20.64,0,0,0-1.5-8.5,12.18,12.18,0,0,0-4.2-5.1,13.56,13.56,0,0,0-7.4-1.8,24.37,24.37,0,0,0-7.1,1A25.86,25.86,0,0,0,151.8,107.3Z"/></g></g></svg>