<svg xmlns="http://www.w3.org/2000/svg" viewBox="0 0 240 234">
  <defs>
    <style>
      .cls-2{fill:#f36}
    </style>
  </defs>
  <path d="M42.5 0h155A42.46 42.46 0 0 1 240 42.5v149a42.46 42.46 0 0 1-42.5 42.5h-155A42.46 42.46 0 0 1 0 191.5v-149A42.46 42.46 0 0 1 42.5 0z" style="fill:#49021f"/>
  <path d="M96.5 61.2v102.6c0 1.1-.5 1.6-1.4 1.6H75.6c-.9 0-1.3-.5-1.3-1.6V61.2c0-.9.5-1.3 1.4-1.3h19.5a1.13 1.13 0 0 1 1.3 1zM173.3 146.5v16.6a1.49 1.49 0 0 1-.8 1.4 30.83 30.83 0 0 1-8.5 1.9c-3.2.3-6.3.5-9.3.5a47.56 47.56 0 0 1-17.9-3.1 38.29 38.29 0 0 1-13.4-8.7 41 41 0 0 1-8.5-13.2 45.28 45.28 0 0 1-3-16.3 42.34 42.34 0 0 1 5.6-21.7A40 40 0 0 1 133.4 89a50.48 50.48 0 0 1 23.9-5.5 50 50 0 0 1 9.5.6 54.09 54.09 0 0 1 5.5 1.2 1.84 1.84 0 0 1 .8 1.8l-.2 16.6c0 1-.4 1.3-1.3 1.1a34.1 34.1 0 0 0-5.5-1.4 54.88 54.88 0 0 0-8-.6 28.47 28.47 0 0 0-11.9 2.4 19.59 19.59 0 0 0-8.4 7.2 22.75 22.75 0 0 0-3.1 12.2q0 8.4 3.6 13.2a19.56 19.56 0 0 0 9.2 6.8 33.06 33.06 0 0 0 11.2 2 65.07 65.07 0 0 0 7.7-.4 33.33 33.33 0 0 0 5.5-1c1 .2 1.4.5 1.4 1.3z" class="cls-2"/>
</svg>
