<svg xmlns="http://www.w3.org/2000/svg" viewBox="0 0 240 234"><defs><style>.cls-1{fill:#00005b;}.cls-2{fill:#99f;}</style></defs><title>Premiere Pro</title><g id="Layer_2" data-name="Layer 2"><g id="Layer_1-2" data-name="Layer 1"><g id="Layer_2-2" data-name="Layer 2"><g id="Surfaces"><g id="Video_Audio_Surface" data-name="Video Audio Surface"><g id="Outline_no_shadow" data-name="Outline no shadow"><path class="cls-1" d="M42.5,0h155A42.46,42.46,0,0,1,240,42.5v149A42.46,42.46,0,0,1,197.5,234H42.5A42.46,42.46,0,0,1,0,191.5V42.5A42.46,42.46,0,0,1,42.5,0Z"/></g></g></g><g id="Outlined_Mnemonics_Logos" data-name="Outlined Mnemonics Logos"><g id="Pr"><path class="cls-2" d="M57,164.1V61.2c0-.7.3-1.1,1-1.1,1.7,0,3.3,0,5.6-.1s4.9-.1,7.6-.2,5.6-.1,8.7-.2,6.1-.1,9.1-.1c8.2,0,15,1,20.6,3.1A35.71,35.71,0,0,1,123,70.8a31.84,31.84,0,0,1,7.3,11.4,38.28,38.28,0,0,1,2.3,13q0,12.9-6,21.3a34.26,34.26,0,0,1-16.1,12.2c-6.8,2.5-14.3,3.4-22.5,3.4-2.4,0-4,0-5-.1s-2.4-.1-4.3-.1V164a1.24,1.24,0,0,1-1.1,1.4H58.2C57.4,165.4,57,165,57,164.1ZM78.8,79.4V113c1.4.1,2.7.2,3.9.2H88a37.35,37.35,0,0,0,11.5-1.8,17.2,17.2,0,0,0,8.2-5.3c2.1-2.5,3.1-5.9,3.1-10.3a16.46,16.46,0,0,0-2.3-8.9,14.5,14.5,0,0,0-7-5.7,29.34,29.34,0,0,0-11.8-2c-2.6,0-4.9,0-6.8.1a22.9,22.9,0,0,0-4.1.1Z"/><path class="cls-2" d="M146.6,85.2h17.5a2.25,2.25,0,0,1,2.1,1.6,10.15,10.15,0,0,1,.6,2.5c.2,1,.4,2.1.5,3.1s.2,2.3.2,3.6a37.22,37.22,0,0,1,10.7-8.6,31,31,0,0,1,15.2-3.9,1.24,1.24,0,0,1,1.4,1.1v19.9c0,.8-.5,1.1-1.6,1.1a43.48,43.48,0,0,0-10.8,1,41.15,41.15,0,0,0-8.4,2.7,15.55,15.55,0,0,0-5.1,3.7v51c0,1-.4,1.4-1.3,1.4H147.9a1.38,1.38,0,0,1-1.6-1.2V108.4c0-2.4,0-4.9-.1-7.5s-.1-5.2-.2-7.8c0-2.3-.2-4.5-.4-6.8a.92.92,0,0,1,.7-1.1c0-.1.2-.1.3,0Z"/></g></g></g></g></g></svg>