<svg xmlns="http://www.w3.org/2000/svg" viewBox="0 0 240 234"><defs><style>.cls-1{fill:#001e36;}.cls-2{fill:#31a8ff;}</style></defs><title>Lightroom</title><g id="Layer_2" data-name="Layer 2"><g id="Layer_1-2" data-name="Layer 1"><g id="Layer_2-2" data-name="Layer 2"><g id="Surfaces"><g id="Photo_Surface" data-name="Photo Surface"><g id="Outline_no_shadow" data-name="Outline no shadow"><path class="cls-1" d="M42.5,0h155A42.46,42.46,0,0,1,240,42.5v149A42.46,42.46,0,0,1,197.5,234H42.5A42.46,42.46,0,0,1,0,191.5V42.5A42.46,42.46,0,0,1,42.5,0Z"/></g></g></g><g id="Outlined_Mnemonics_Logos" data-name="Outlined Mnemonics Logos"><g id="Lr"><path class="cls-2" d="M126,165.4H62.6c-1.1,0-1.6-.6-1.6-1.8V61.4A1.24,1.24,0,0,1,62.1,60h20a.94.94,0,0,1,1.1.8v84.3h46.2c1,0,1.3.5,1.1,1.4l-2.9,17.4a1.74,1.74,0,0,1-.6,1.2A1.69,1.69,0,0,1,126,165.4Z"/><path class="cls-2" d="M142,85.4h17.5a2.25,2.25,0,0,1,2.1,1.6,6.31,6.31,0,0,1,.8,2.3c.2,1,.4,2.1.5,3.1s.2,2.3.2,3.6a37.22,37.22,0,0,1,10.7-8.6,29.85,29.85,0,0,1,14.9-3.6,1.24,1.24,0,0,1,1.4,1.1v19.9c0,.8-.5,1.1-1.6,1.1a40.76,40.76,0,0,0-18.9,3.4,16.77,16.77,0,0,0-5.4,3.7v51c0,1-.4,1.4-1.3,1.4H143.4a1.38,1.38,0,0,1-1.6-1.2V108.4c0-2.4,0-4.9-.1-7.5s-.1-5.2-.2-7.8q-.15-3.3-.6-6.6a.92.92,0,0,1,.7-1.1c.1-.1.2-.1.4,0Z"/></g></g></g></g></g></svg>