<svg xmlns="http://www.w3.org/2000/svg" viewBox="0 0 240 231.43"><defs><style>.cls-1{fill:#00005b;}.cls-2{fill:#99f;}</style></defs><title>Media Encoder</title><g id="Layer_2" data-name="Layer 2"><g id="Layer_1-2" data-name="Layer 1"><g id="Surfaces"><g id="Video_Audio_Surface" data-name="Video Audio Surface"><g id="Outline_no_shadow" data-name="Outline no shadow"><rect class="cls-1" width="240" height="231.43" rx="42.49" ry="42.49"/></g></g></g><g id="Outlined_Mnemonics_Logos" data-name="Outlined Mnemonics Logos"><g id="Me"><path class="cls-2" d="M194.72,128.49H163.48a24.16,24.16,0,0,0,3.23,9.08,16.31,16.31,0,0,0,7.21,5.95,31.17,31.17,0,0,0,12.86,2.73,43.33,43.33,0,0,0,8.86-.7,42.65,42.65,0,0,0,9.28-2.77q.79-.63.79.79v15.06a2.35,2.35,0,0,1-.24,1.19,2.26,2.26,0,0,1-.71.71,44.45,44.45,0,0,1-10.31,3.41,63.67,63.67,0,0,1-12.84.5A45.24,45.24,0,0,1,162.74,161a33.64,33.64,0,0,1-12.37-9.36,36.66,36.66,0,0,1-6.82-12.92,50.89,50.89,0,0,1-2.06-14.35A50,50,0,0,1,144,108.71a40.75,40.75,0,0,1,7.37-13.48,35.41,35.41,0,0,1,11.89-9.36,37.19,37.19,0,0,1,16.49-3.41,39.69,39.69,0,0,1,16.12,3.18,27.66,27.66,0,0,1,10.39,8.17A36,36,0,0,1,212.09,105a39.85,39.85,0,0,1,1.9,12.05q0,3.49-.24,6.34a27.3,27.3,0,0,1-.61,3.36,1.44,1.44,0,0,1-1.43,1.27c-.63,0-1.72.08-3.25.24s-4.26.1-6.53.15S197.26,128.49,194.72,128.49Zm-31.33-12.6h20.77q3.81,0,5.63-.08a11.17,11.17,0,0,0,2.3-.24v-1a26.72,26.72,0,0,0-.33-5.67,13,13,0,0,0-12.84-9,13.78,13.78,0,0,0-13.08,7.45A33.29,33.29,0,0,0,163.39,115.89Z"/><path class="cls-2" d="M35.58,61.27a1.06,1.06,0,0,1,1.16-1H64.51a1.51,1.51,0,0,1,1.66,1.11c.7,2.75,1.56,4.74,2.56,8.59S70.81,78.14,72,82.79L75.5,97.06q1.81,7.29,3.54,14.19T82,123.94q1.2,5.79,2,9.59h.15q.6-3.33,2.11-8.88t3.47-12.45q2-6.9,4-14.19t4-14.43q2-7.14,3.69-13.24c1.16-4.07,2.08-6.16,2.79-8.91a1.32,1.32,0,0,1,1.36-1.11h27a1.2,1.2,0,0,1,1.35,1s0,.06,0,.09l3.62,99.33a1.06,1.06,0,0,1-.22,1,1.3,1.3,0,0,1-1,.4H116.63a1.18,1.18,0,0,1-.75-.24,1.06,1.06,0,0,1-.3-.87c0-5.39,0-10.36-.08-16.28s-.13-11.87-.23-17.84-.1-11.71,0-17.2.15-10.57.15-15.22,0-8.69.08-12.13.07-6,.08-7.69h-.15q-.91,4-2.41,10.39t-3.54,14.43q-2,8-4.37,16.57t-4.52,17q-2.19,8.41-4.22,15.7c-1.36,4.86-2.48,8.46-3.39,12.16a1.66,1.66,0,0,1-1.66,1.27h-17a1.62,1.62,0,0,1-1.81-1.27c-.9-3.7-1.94-7.3-3.09-12.16s-2.33-9.94-3.54-15.22-2.49-10.7-3.84-16.25-2.64-10.92-3.84-16.1-2.29-10-3.24-14.59S53.11,78,52.31,74.54H52V87.07q0,7.3-.23,16.1t-.45,18.39q-.22,9.6-.53,19.82c-.2,6.82-.45,12.87-.75,19.53,0,.85-.4,1.27-1.2,1.27H31.37a1.81,1.81,0,0,1-1-.24q-.38-.24-.23-1.19Z"/></g></g></g></g></svg>