<svg xmlns="http://www.w3.org/2000/svg" viewBox="0 0 240 234">
  <defs>
    <style>
      .cls-2{fill:#31a8ff}
    </style>
  </defs>
  <path d="M42.5 0h155A42.46 42.46 0 0 1 240 42.5v149a42.46 42.46 0 0 1-42.5 42.5h-155A42.46 42.46 0 0 1 0 191.5v-149A42.46 42.46 0 0 1 42.5 0z" style="fill:#001e36"/>
  <path d="M81 71.4a32.5 32.5 0 0 0-12.1-8.2 50 50 0 0 0-18.5-3.1c-2.7 0-5.4 0-8.2.1-2.8.1-5.4.1-7.8.2-2.4.1-4.8.1-6.9.2-2.1.1-4 .1-5.5.1-.6 0-.9.4-.9 1.1v102.3c0 .9.3 1.3 1 1.3h17.7c.9 0 1.3-.5 1.3-1.4v-31.2c1.7 0 3 0 3.9.1.9.1 2.4.1 4.5.1a52.64 52.64 0 0 0 20.3-3.8 31.18 31.18 0 0 0 14.5-12.1c3.6-5.6 5.4-12.7 5.4-21.2a44.09 44.09 0 0 0-2-13A33.15 33.15 0 0 0 81 71.4zm-13.9 35.1a15.67 15.67 0 0 1-7.4 5.3 30.19 30.19 0 0 1-10.4 1.6h-4.8c-1.1 0-2.2-.1-3.5-.2V80c1.2-.1 2.5-.2 3.7-.2 1.8-.1 3.8-.1 6.2-.1a26 26 0 0 1 10.6 2 14.46 14.46 0 0 1 6.3 5.7 17.21 17.21 0 0 1 2.1 8.9c0 4.3-.9 7.7-2.8 10.2zM136.3 122.9a60.82 60.82 0 0 0-13.8-7.3c-2.2-1-4.3-2.1-6.4-3.3a9.72 9.72 0 0 1-3-2.7 5.77 5.77 0 0 1-.9-2.6 5 5 0 0 1 .7-2.7 5.07 5.07 0 0 1 2.8-2 16.72 16.72 0 0 1 5.4-.7 38.35 38.35 0 0 1 10.1 1.3 26.31 26.31 0 0 1 8.1 3.4.91.91 0 0 0 1 0 1 1 0 0 0 .4-1V89.1a4.87 4.87 0 0 0-.1-1.2 1.59 1.59 0 0 0-.9-.9 19.9 19.9 0 0 0-7-2.3 69.55 69.55 0 0 0-11.2-.9c-6.4 0-11.7 1.2-15.9 3.5a23.13 23.13 0 0 0-9.4 9.2 24.4 24.4 0 0 0-3 12.1 25.52 25.52 0 0 0 2.1 10.2 23.19 23.19 0 0 0 6.8 8.4 49 49 0 0 0 12.8 7.2c4.4 1.8 7.4 3.4 8.8 4.7a5.43 5.43 0 0 1 2.2 4 4.7 4.7 0 0 1-2.4 4.2c-1.6 1-4.1 1.4-7.5 1.4a47.54 47.54 0 0 1-10.6-1.5 32.58 32.58 0 0 1-10.3-4.9.75.75 0 0 0-.8-.1 1 1 0 0 0-.4.9v17.4a2.06 2.06 0 0 0 1 1.9 28 28 0 0 0 8.3 3.2 55.58 55.58 0 0 0 12.2 1.3c6.5 0 11.9-1.1 16.3-3.2a23 23 0 0 0 10.1-8.9 24.77 24.77 0 0 0 3.5-13.3 24.37 24.37 0 0 0-2.1-10.3 20.44 20.44 0 0 0-6.9-8.3z" class="cls-2"/>
  <path d="m218.7 162.7-25.6-46.1L217 73.2a1.38 1.38 0 0 0 .2-1.6 1.35 1.35 0 0 0-1.5-.8h-17a2.15 2.15 0 0 0-1.5.4 2.4 2.4 0 0 0-.7 1.2c-1.7 3.8-3.6 7.1-5.4 10.9-1.8 3.8-3.7 7.6-5.4 11.3-1.6 3.3-3.2 6.8-4.7 10.3-1.5-3.4-3.1-6.8-4.8-10.1-2-3.8-3.9-7.6-5.8-11.4-1.9-3.8-3.6-7.2-5.2-11.2a2.58 2.58 0 0 0-2.5-1.3h-18.3a1.61 1.61 0 0 0-1.3.6 1.35 1.35 0 0 0 .1 1.6l24.2 45-24.8 44.7a1.74 1.74 0 0 0-.3 1.4 1.24 1.24 0 0 0 1.3 1.2h17.7a2.37 2.37 0 0 0 2.4-1.7c1.9-3.8 3.8-7 5.6-10.8 1.8-3.8 3.6-7.6 5.5-11.4 1.6-3.4 3.3-6.9 4.8-10.3 1.7 3.5 3.4 7 5.2 10.5 1.9 3.8 3.8 7.6 5.5 11.3 1.7 3.7 3.5 6.9 5.2 10.6a3.56 3.56 0 0 0 3.3 1.8h18.5a1.41 1.41 0 0 0 1.4-1.1 1.79 1.79 0 0 0 0-1.6z" class="cls-2"/>
</svg>
