<svg xmlns="http://www.w3.org/2000/svg" viewBox="0 0 56 54">
  <path d="M9.9 0h36.2C51.6 0 56 4.4 56 9.9v34.2c0 5.5-4.4 9.9-9.9 9.9H9.9C4.4 54 0 49.6 0 44.1V9.9C0 4.4 4.4 0 9.9 0z" style="fill:#fa0f00"/>
  <g>
    <path d="M45 31.2c-2.6-2.7-9.7-1.6-11.4-1.4-2.5-2.4-4.2-5.3-4.8-6.3.9-2.7 1.5-5.4 1.6-8.3 0-2.5-1-5.2-3.8-5.2-1 0-1.9.6-2.4 1.4-1.2 2.1-.7 6.3 1.2 10.6-1.1 3.1-2.1 6.1-4.9 11.4-2.9 1.2-9 4-9.5 7-.2.9.1 1.8.8 2.5.7.6 1.6.9 2.5.9 3.7 0 7.3-5.1 9.8-9.4 2.1-.7 5.4-1.7 8.7-2.3 3.9 3.4 7.3 3.9 9.1 3.9 2.4 0 3.3-1 3.6-1.9.5-1 .2-2.1-.5-2.9zm-2.5 1.7c-.1.7-1 1.4-2.6 1-1.9-.5-3.6-1.4-5.1-2.6 1.3-.2 4.2-.5 6.3-.1.8.2 1.6.7 1.4 1.7zM25.8 12.3c.2-.3.5-.5.8-.5.9 0 1.1 1.1 1.1 2-.1 2.1-.5 4.2-1.2 6.2-1.5-4-1.2-6.8-.7-7.7zm-.2 19.4c.8-1.6 1.9-4.4 2.3-5.6.9 1.5 2.4 3.3 3.2 4.1 0 .1-3.1.7-5.5 1.5zm-5.9 4c-2.3 3.8-4.7 6.2-6 6.2-.2 0-.4-.1-.6-.2-.3-.2-.4-.5-.3-.9.3-1.4 2.9-3.3 6.9-5.1z" style="fill:#fff"/>
  </g>
</svg>
