<svg xmlns="http://www.w3.org/2000/svg" viewBox="0 0 240 234">
  <defs>
    <style>
      .cls-2{fill:#99f}
    </style>
  </defs>
  <path d="M42.5 0h155A42.46 42.46 0 0 1 240 42.5v149a42.46 42.46 0 0 1-42.5 42.5h-155A42.46 42.46 0 0 1 0 191.51V42.5A42.46 42.46 0 0 1 42.5 0z" style="fill:#00005b"/>
  <path d="M94.26 140H57.1l-7.58 23.59a1.73 1.73 0 0 1-1.87 1.4H28.83c-1.12 0-1.4-.56-1.12-1.78l32.2-92.48a32 32 0 0 1 1-3.28 28.94 28.94 0 0 0 .84-6.37 1 1 0 0 1 .87-1.08h25.93c.66 0 1.22.28 1.31.84l36.32 102.59c.28 1.12 0 1.59-1 1.59h-20.91a1.5 1.5 0 0 1-1.59-1.12zM62.9 120.09h25.37c-.56-2.06-1.4-4.59-2.34-7.21s-1.78-5.62-2.71-8.61c-.93-2.99-1.87-6.08-2.9-9.17-1.03-3.09-1.87-6-2.71-8.89-.84-2.89-1.5-5.43-2.25-7.77h-.19a131.25 131.25 0 0 1-3.37 12.92c-1.5 4.77-3 9.83-4.59 14.79a137.32 137.32 0 0 1-4.31 13.95zM202.84 86.21v61.31c0 2.71 0 5.05.09 7.21s.19 3.93.28 5.52c.09 1.59.28 2.53.37 3.56.09 1.03-.28 1.31-1.12 1.31h-17.12a1.76 1.76 0 0 1-1.87-1.12l-.56-2.53a7.68 7.68 0 0 1-.19-2.06 28.5 28.5 0 0 1-11.33 6.18 40.47 40.47 0 0 1-11.14 1.5 32.54 32.54 0 0 1-10.86-1.68 21.3 21.3 0 0 1-8.52-5.52 24.83 24.83 0 0 1-5.62-9.73 45.47 45.47 0 0 1-2-14.23V86.3a1.15 1.15 0 0 1 1-1.31h19.45A1.15 1.15 0 0 1 155 86v47.27c0 4.4 1 7.86 2.9 10.39 1.9 2.53 5.8 3.84 10.3 3.84a19.14 19.14 0 0 0 6.8-1.2 23.48 23.48 0 0 0 6.27-3.28V86.21c0-.66.47-1.12 1.4-1.12h19.1a1 1 0 0 1 1.12.84.34.34 0 0 0-.05.28z" class="cls-2"/>
</svg>
