<svg xmlns="http://www.w3.org/2000/svg" viewBox="0 0 240 234.01"><defs><style>.cls-1{fill:#00005b;}.cls-2{fill:#99f;}</style></defs><title>Audition</title><g id="Layer_2" data-name="Layer 2"><g id="Layer_1-2" data-name="Layer 1"><path class="cls-1" d="M42.5,0h155A42.46,42.46,0,0,1,240,42.5v149A42.46,42.46,0,0,1,197.5,234H42.5A42.46,42.46,0,0,1,0,191.51V42.5A42.46,42.46,0,0,1,42.5,0Z"/><path class="cls-2" d="M94.26,140H57.1l-7.58,23.59a1.73,1.73,0,0,1-1.87,1.4H28.83c-1.12,0-1.4-.56-1.12-1.78l32.2-92.48a32,32,0,0,1,1-3.28,28.94,28.94,0,0,0,.84-6.37A1,1,0,0,1,62.62,60H88.55c.66,0,1.22.28,1.31.84l36.32,102.59c.28,1.12,0,1.59-1,1.59H104.27a1.5,1.5,0,0,1-1.59-1.12ZM62.9,120.09H88.27c-.56-2.06-1.4-4.59-2.34-7.21s-1.78-5.62-2.71-8.61-1.87-6.08-2.9-9.17-1.87-6-2.71-8.89-1.5-5.43-2.25-7.77h-.19a131.25,131.25,0,0,1-3.37,12.92c-1.5,4.77-3,9.83-4.59,14.79a137.32,137.32,0,0,1-4.31,13.95Z"/><path class="cls-2" d="M202.84,86.21v61.31c0,2.71,0,5.05.09,7.21s.19,3.93.28,5.52.28,2.53.37,3.56-.28,1.31-1.12,1.31H185.34a1.76,1.76,0,0,1-1.87-1.12l-.56-2.53a7.68,7.68,0,0,1-.19-2.06,28.5,28.5,0,0,1-11.33,6.18,40.47,40.47,0,0,1-11.14,1.5,32.54,32.54,0,0,1-10.86-1.68,21.3,21.3,0,0,1-8.52-5.52,24.83,24.83,0,0,1-5.62-9.73,45.47,45.47,0,0,1-2-14.23V86.3a1.15,1.15,0,0,1,1-1.31H153.7A1.15,1.15,0,0,1,155,86v47.27c0,4.4,1,7.86,2.9,10.39s5.8,3.84,10.3,3.84A19.14,19.14,0,0,0,175,146.3a23.48,23.48,0,0,0,6.27-3.28V86.21c0-.66.47-1.12,1.4-1.12h19.1a1,1,0,0,1,1.12.84A.34.34,0,0,0,202.84,86.21Z"/></g></g></svg>