<svg xmlns="http://www.w3.org/2000/svg" viewBox="0 0 240 234">
  <defs>
    <style>
      .cls-2{fill:#31a8ff}
    </style>
  </defs>
  <path d="M42.5 0h155A42.46 42.46 0 0 1 240 42.5v149a42.46 42.46 0 0 1-42.5 42.5h-155A42.46 42.46 0 0 1 0 191.5v-149A42.46 42.46 0 0 1 42.5 0z" style="fill:#001e36"/>
  <path d="M54 164.1V61.2c0-.7.3-1.1 1-1.1 1.7 0 3.3 0 5.6-.1s4.9-.1 7.6-.2c2.7-.1 5.6-.1 8.7-.2 3.1-.1 6.1-.1 9.1-.1 8.2 0 15 1 20.6 3.1a35.71 35.71 0 0 1 13.4 8.2 31.84 31.84 0 0 1 7.3 11.4 38.28 38.28 0 0 1 2.3 13q0 12.9-6 21.3a34.26 34.26 0 0 1-16.1 12.2c-6.8 2.5-14.3 3.4-22.5 3.4-2.4 0-4 0-5-.1s-2.4-.1-4.3-.1V164a1.24 1.24 0 0 1-1.1 1.4H55.2c-.8 0-1.2-.4-1.2-1.3zm21.8-84.7V113c1.4.1 2.7.2 3.9.2H85a37.35 37.35 0 0 0 11.5-1.8 17.2 17.2 0 0 0 8.2-5.3c2.1-2.5 3.1-5.9 3.1-10.3a16.46 16.46 0 0 0-2.3-8.9 14.5 14.5 0 0 0-7-5.7 29.34 29.34 0 0 0-11.8-2c-2.6 0-4.9 0-6.8.1a22.9 22.9 0 0 0-4.1.1zM192 106.9a35.39 35.39 0 0 0-9.6-3.4 52.71 52.71 0 0 0-11.2-1.3 20.13 20.13 0 0 0-6 .7 5.13 5.13 0 0 0-3.1 2 5.3 5.3 0 0 0-.8 2.7 4.45 4.45 0 0 0 1 2.6 11.28 11.28 0 0 0 3.4 2.7c2.3 1.2 4.7 2.3 7.1 3.3a72.43 72.43 0 0 1 15.4 7.3 23.27 23.27 0 0 1 7.9 8.3 21.59 21.59 0 0 1 2.3 10.3 23.27 23.27 0 0 1-3.9 13.3 25.06 25.06 0 0 1-11.2 8.9c-4.9 2.1-10.9 3.2-18.1 3.2a68.88 68.88 0 0 1-13.6-1.3 40.34 40.34 0 0 1-10.2-3.2 2 2 0 0 1-1.1-1.9v-17.4a1.09 1.09 0 0 1 .4-.9.76.76 0 0 1 .9.1 42.81 42.81 0 0 0 12.4 4.9 46.55 46.55 0 0 0 11.8 1.5c3.8 0 6.5-.5 8.3-1.4a4.65 4.65 0 0 0 2.7-4.2c0-1.4-.8-2.7-2.4-4-1.6-1.3-4.9-2.8-9.8-4.7a61.18 61.18 0 0 1-14.2-7.2 25.89 25.89 0 0 1-7.6-8.5 21.46 21.46 0 0 1-2.3-10.2 23.52 23.52 0 0 1 3.4-12.1 24.65 24.65 0 0 1 10.5-9.2c4.7-2.4 10.6-3.5 17.7-3.5a86.21 86.21 0 0 1 12.4.9 35.19 35.19 0 0 1 8.6 2.3 1.76 1.76 0 0 1 1 .9 5 5 0 0 1 .2 1.2v16.3a1.23 1.23 0 0 1-.5 1 2.66 2.66 0 0 1-1.8 0z" class="cls-2"/>
</svg>
