<svg xmlns="http://www.w3.org/2000/svg" viewBox="0 0 240 234">
  <defs>
    <style>
      .cls-2{fill:#3f6}
    </style>
  </defs>
  <path d="M42.5 0h155A42.46 42.46 0 0 1 240 42.5v149a42.46 42.46 0 0 1-42.5 42.5h-155A42.46 42.46 0 0 1 0 191.5v-149A42.46 42.46 0 0 1 42.5 0z" style="fill:#013301"/>
  <path d="M108 140H70.8l-7.6 23.6a1.75 1.75 0 0 1-1.9 1.4H42.5c-1.1 0-1.4-.6-1.1-1.8l32.2-92.4c.3-1 .6-1.9 1-3.1a34.93 34.93 0 0 0 .6-6.5 1 1 0 0 1 .8-1.1h25.9c.8 0 1.2.3 1.3.8l36.5 102.5c.3 1.1 0 1.6-1 1.6h-20.9a1.51 1.51 0 0 1-1.6-1.1zm-31.4-19.9H102c-.6-2.1-1.4-4.6-2.3-7.2-.9-2.6-1.8-5.6-2.7-8.6-.9-3-1.9-6.1-2.9-9.2-1-3.1-1.9-6-2.7-8.9-.8-2.9-1.5-5.4-2.2-7.8H89a122.78 122.78 0 0 1-3.4 12.9c-1.5 4.8-3 9.8-4.6 14.8-1.4 5.1-2.9 9.8-4.4 14zM150.4 85h17.5a2.25 2.25 0 0 1 2.1 1.6 11.22 11.22 0 0 1 .8 2.6c.2 1 .4 2.1.5 3.1.1 1 .2 2.3.2 3.6a37.22 37.22 0 0 1 10.7-8.6 27.67 27.67 0 0 1 14.3-3.6 1.24 1.24 0 0 1 1.4 1.1v19.9c0 .8-.5 1.1-1.6 1.1a37.48 37.48 0 0 0-10 .7 41.15 41.15 0 0 0-8.4 2.7c-2.3 1.1-4.8 2.3-6 3.7v50.7c0 1-.4 1.4-1.3 1.4h-18.8a1.38 1.38 0 0 1-1.6-1.2v-55.4c0-2.4 0-4.9-.1-7.5-.1-2.6-.1-5.2-.2-7.8-.1-2.3-.3-4.7-.6-7a.92.92 0 0 1 .7-1.1z" class="cls-2"/>
</svg>
