<svg xmlns="http://www.w3.org/2000/svg" viewBox="0 0 240 234"><defs><style>.cls-1{fill:#000b1d;}.cls-2{fill:#fff;}</style></defs><title>Fonts</title><g id="Layer_2" data-name="Layer 2"><g id="Layer_1-2" data-name="Layer 1"><g id="Layer_2-2" data-name="Layer 2"><g id="DC_EC_Logo_Surface" data-name="DC EC Logo Surface"><g id="Outline_no_shadow" data-name="Outline no shadow"><path class="cls-1" d="M42.5,0h155A42.46,42.46,0,0,1,240,42.5v149A42.46,42.46,0,0,1,197.5,234H42.5A42.46,42.46,0,0,1,0,191.5V42.5A42.46,42.46,0,0,1,42.5,0Z"/></g></g></g><path class="cls-2" d="M132.27,98c-5.6,18.78-10.28,36.91-15.88,54.62-3.18,10-6.66,19.53-11.05,25.59-4.85,6.81-13.93,13.33-24.83,13.33-7.72,0-15.29-3.63-15.29-11.66,0-5,5.15-9.69,9.24-9.69a4.61,4.61,0,0,1,4.24,2.42c3.79,6.81,7.42,10.75,9.09,10.75s3-2.27,5.75-12.11L113.34,98H99.11c-1.06-3.18.45-7.12,2.27-7.87h14.23c2.73-8.78,5.92-17.61,10.47-25.63,6.81-12.27,17.72-22,32.71-22,11.36,0,16.05,5.45,16.05,12.42-.15,7.42-6.66,11.2-9.69,11.2-2.42,0-3.63-1.82-4.39-4.39-2.57-9.69-5.91-12.57-7.87-12.57s-5,3.63-8.33,11.2c-4.39,9.54-7.29,19.73-10,29.72H151.8c1.06,2.12.15,6.66-2.42,7.87Z"/></g></g></svg>