<svg xmlns="http://www.w3.org/2000/svg" viewBox="0 0 240 234"><defs><style>.cls-1{fill:#300;}.cls-2{fill:#ff9a00;}</style></defs><title>Illustrator</title><g id="Layer_2" data-name="Layer 2"><g id="Layer_1-2" data-name="Layer 1"><g id="Layer_2-2" data-name="Layer 2"><g id="Surfaces"><g id="Drawing_Surface" data-name="Drawing Surface"><g id="Outline_no_shadow" data-name="Outline no shadow"><path class="cls-1" d="M42.5,0h155A42.46,42.46,0,0,1,240,42.5v149A42.46,42.46,0,0,1,197.5,234H42.5A42.46,42.46,0,0,1,0,191.5V42.5A42.46,42.46,0,0,1,42.5,0Z"/></g></g></g><g id="Outlined_Mnemonics_Logos" data-name="Outlined Mnemonics Logos"><g id="Ai"><path class="cls-2" d="M116.3,140.4H79.1l-7.6,23.5a1.75,1.75,0,0,1-1.9,1.4H50.8c-1.1,0-1.4-.6-1.1-1.8L81.9,70.8c.3-1,.6-2.1,1-3.3a34.93,34.93,0,0,0,.6-6.5,1,1,0,0,1,.8-1.1h25.9c.8,0,1.2.3,1.3.8l36.5,103c.3,1.1,0,1.6-1,1.6H126.1a1.51,1.51,0,0,1-1.6-1.1ZM84.9,120.1h25.4c-.6-2.1-1.4-4.6-2.3-7.2s-1.8-5.6-2.7-8.6-1.9-6.1-2.9-9.2-1.9-6-2.7-8.9-1.5-5.4-2.2-7.8h-.2a122.78,122.78,0,0,1-3.4,12.9c-1.5,4.8-3,9.8-4.6,14.8-1.4,5.1-2.9,9.8-4.4,14Z"/><path class="cls-2" d="M169.8,77a12.38,12.38,0,0,1-8.9-3.5,13,13,0,0,1-3.4-9.2,11.77,11.77,0,0,1,3.6-8.9,12.81,12.81,0,0,1,8.9-3.5c3.9,0,6.9,1.2,9.1,3.5a12.63,12.63,0,0,1,3.3,8.9,12.65,12.65,0,0,1-3.5,9.2A11.76,11.76,0,0,1,169.8,77Zm-11.2,86.8v-77c0-1,.4-1.4,1.3-1.4h19.8c.9,0,1.3.5,1.3,1.4v77c0,1.1-.4,1.6-1.3,1.6H160.1A1.4,1.4,0,0,1,158.6,163.8Z"/></g></g></g></g></g></svg>