<svg xmlns="http://www.w3.org/2000/svg" viewBox="0 0 240 234">
  <defs>
    <style>
      .cls-2{fill:#ff61f6}
    </style>
  </defs>
  <path d="M42.5 0h155A42.46 42.46 0 0 1 240 42.5v149a42.46 42.46 0 0 1-42.5 42.5h-155A42.46 42.46 0 0 1 0 191.5v-149A42.46 42.46 0 0 1 42.5 0z" style="fill:#470137"/>
  <path d="M22.8 163.8V61.4a1.2 1.2 0 0 1 1-1.3h.1c1.5-.1 3.8-.2 6.7-.2 2.9 0 6.4-.1 10.4-.2s8.2-.1 12.7-.1c12.2 0 22.4 2.2 30.4 6.6a43.85 43.85 0 0 1 18.1 18.1c4 7.7 6 16.5 6 26.5a61.83 61.83 0 0 1-3.1 20.5 48.72 48.72 0 0 1-8.6 15.4 52.35 52.35 0 0 1-12.3 10.7 54.86 54.86 0 0 1-14.7 6.3 61.38 61.38 0 0 1-15.4 2H42.8c-4 0-7.8 0-11.2-.1-3.4-.1-6.1-.1-7.8-.2-.7 0-1-.6-1-1.6zm21.1-84.4v66.7c1.1 0 2.1 0 3.1.1s1.9.1 2.8.2c.9.1 2.1.1 3.3.1a37.42 37.42 0 0 0 13.6-2.3 26.84 26.84 0 0 0 10.5-6.8 30.88 30.88 0 0 0 6.7-11.1 47.57 47.57 0 0 0 2.4-15A39.74 39.74 0 0 0 84 97.2 26.08 26.08 0 0 0 66.9 81a42.18 42.18 0 0 0-13.2-1.9c-2 0-3.7 0-5.1.1-1.4.1-3 .1-4.7.2zM197.8 165.4h-18.7a1.37 1.37 0 0 1-1.2-.4 3.38 3.38 0 0 1-.6-1.2c-1.9-8-3.5-15.2-4.8-21.3-1.3-6.1-2.4-11.4-3.2-15.7-.8-4.3-1.5-7.9-2.1-10.9-.6-3-1-5.5-1.3-7.6h-.1c-1 4.4-1.9 8.7-2.8 12.8-.9 4.1-1.8 8.3-2.8 12.5-1 4.2-2.1 8.8-3.4 13.8-1.3 5-2.6 10.5-4.1 16.4-.2 1.1-.7 1.6-1.6 1.6h-18.7a2.23 2.23 0 0 1-1.4-.3 4.13 4.13 0 0 1-.7-1.1l-19.5-77.3c-.3-.9.1-1.3 1.2-1.3h18.9c.9 0 1.4.3 1.5 1 2 8.8 3.7 16.4 5 22.8 1.3 6.4 2.4 11.8 3.1 16.3.7 4.5 1.4 8.2 1.9 11 .5 2.8.9 5.2 1.2 7h.3c.2-1.6.4-3.1.7-4.7q.6-2.85 1.5-7.5c.6-3.1 1.3-6.7 2.2-10.9.9-4.2 1.9-9 3.1-14.6 1.2-5.6 2.7-11.8 4.6-18.9a3.26 3.26 0 0 1 .4-1.3c.1-.2.5-.3 1.1-.3h19.6c.6 0 .9.4 1 1.1 1.7 7.3 3.1 13.7 4.3 19.2 1.2 5.5 2.1 10.4 3 14.7.9 4.3 1.5 7.9 1.9 10.9.4 3 .9 5.6 1.3 7.7a44.61 44.61 0 0 1 .7 5.1h.3c.5-2 .9-4.4 1.3-7.1.4-2.7.9-5.7 1.6-9.1.7-3.4 1.3-7.1 2.1-11.2s1.7-8.6 2.8-13.7c1.1-5.1 2.3-10.5 3.7-16.4.2-.9.6-1.3 1.3-1.3h17.5c.9 0 1.2.5 1 1.4l-21.6 77.1a2.38 2.38 0 0 1-.6 1.1c0 .5-.4.7-.9.6z" class="cls-2"/>
</svg>
