<svg xmlns="http://www.w3.org/2000/svg" viewBox="0 0 240 234">
  <defs>
    <style>
      .cls-2{fill:#fff}
    </style>
  </defs>
  <path d="M42.5 0h155A42.46 42.46 0 0 1 240 42.5v149a42.46 42.46 0 0 1-42.5 42.5h-155A42.46 42.46 0 0 1 0 191.5v-149A42.46 42.46 0 0 1 42.5 0z" style="fill:#000b1d"/>
  <path d="M57 163.5V61.2c0-.7.3-1.1 1-1.1 1.7 0 3.8 0 6.1-.1s4.9-.1 7.6-.2c2.7-.1 5.6-.1 8.7-.2 3.1-.1 6.1-.1 9.1-.1 8.2 0 15 1 20.6 3.1a35.71 35.71 0 0 1 13.4 8.2 31.84 31.84 0 0 1 7.3 11.4 38.28 38.28 0 0 1 2.3 13q0 12.9-6 21.3a34.26 34.26 0 0 1-16.1 12.2 64.11 64.11 0 0 1-22.5 3.8c-2.4 0-4 0-5-.1s-2.8.2-4.7.2v31.2a1.24 1.24 0 0 1-1.1 1.4h-.4l-19.2-.3c-.7-.1-1.1-.5-1.1-1.4zm21.8-83.8V113c1.4.1 3.1-.1 4.3-.1h5.3a37.18 37.18 0 0 0 11.5-1.6 17.2 17.2 0 0 0 8.2-5.3c2.1-2.5 3.1-5.9 3.1-10.3a16.46 16.46 0 0 0-2.3-8.9 14.5 14.5 0 0 0-7-5.7 29.34 29.34 0 0 0-11.8-2c-2.6 0-4.9 0-6.8.1a23 23 0 0 0-4.5.5zM154 103.9h-9.9c-.8-.1-1.1-.5-1.1-1.1V86.3a1 1 0 0 1 .8-1.1H154v-2.3a57.32 57.32 0 0 1 .8-10.1 33.29 33.29 0 0 1 2.6-8.1 28.19 28.19 0 0 1 9.2-10.8c4-2.8 9.2-4.2 15.8-4.2 1.6 0 3.1.1 4.7.2a11.8 11.8 0 0 1 3.7.9 1.62 1.62 0 0 1 1.1 1.6v15.9c0 .8-.4 1-1.3.8a19.42 19.42 0 0 0-2.4-.2h-2.4a11.16 11.16 0 0 0-5.1 1.1 6.67 6.67 0 0 0-3.2 3.8 19.84 19.84 0 0 0-1.6 7.2v4.1h13.6a1.74 1.74 0 0 1 1.2.3 1.16 1.16 0 0 1 .2 1v16.4c0 .8-.5 1.1-1.4 1.1h-13.6v59.5a3.55 3.55 0 0 1-.2 1 1.36 1.36 0 0 1-1.2.5h-19.1c-.9 0-1.3-.5-1.3-1.4v-59.6z" class="cls-2"/>
</svg>
