<svg xmlns="http://www.w3.org/2000/svg" viewBox="0 0 240 234"><defs><style>.cls-1{fill:#013301;}.cls-2{fill:#3f6;}</style></defs><title>Dimension</title><g id="Layer_2" data-name="Layer 2"><g id="Layer_1-2" data-name="Layer 1"><g id="Layer_2-2" data-name="Layer 2"><g id="Surfaces"><g id="_3D_Surface" data-name=" 3D Surface"><g id="Outline_no_shadow" data-name="Outline no shadow"><path class="cls-1" d="M42.5,0h155A42.46,42.46,0,0,1,240,42.5v149A42.46,42.46,0,0,1,197.5,234H42.5A42.46,42.46,0,0,1,0,191.5V42.5A42.46,42.46,0,0,1,42.5,0Z"/></g></g></g><g id="Outlined_Mnemonics_Logos" data-name="Outlined Mnemonics Logos"><g id="Dn"><path class="cls-2" d="M35,163.8V61.4a1.21,1.21,0,0,1,1.1-1.3h.1c1.6-.1,4-.2,7.1-.2s6.8-.1,10.9-.2,8.6-.1,13.4-.1c12.9,0,23.6,2.2,32,6.6a45.07,45.07,0,0,1,19.1,18.1,54.4,54.4,0,0,1,6.4,26.5,59.52,59.52,0,0,1-3.3,20.5,48.72,48.72,0,0,1-9,15.4,53.83,53.83,0,0,1-13,10.7,56.75,56.75,0,0,1-15.5,6.3,68.63,68.63,0,0,1-16.3,2H56c-4.2,0-8.2,0-11.8-.1s-6.4-.1-8.2-.2C35.3,165.4,35,164.8,35,163.8ZM57.2,79.4v66.7a31.12,31.12,0,0,1,3.2.1c1,.1,2,.1,3,.2s2.2.1,3.5.1a40.84,40.84,0,0,0,14.3-2.3,28.64,28.64,0,0,0,11-6.8,30.19,30.19,0,0,0,7.1-11.1,42.58,42.58,0,0,0,2.5-15,37.71,37.71,0,0,0-2.4-14.1,25.56,25.56,0,0,0-7-10.1,27.87,27.87,0,0,0-10.9-6,46.66,46.66,0,0,0-13.9-1.9c-2.1,0-3.9,0-5.4.1a42.93,42.93,0,0,0-5,.1Z"/><path class="cls-2" d="M134.8,163.9V104c0-1.8,0-3.9-.1-6.1s-.1-4.4-.2-6.4-.2-3.6-.3-4.8a1,1,0,0,1,.2-1,1.69,1.69,0,0,1,1-.3H152a4.15,4.15,0,0,1,1.6.3,1.55,1.55,0,0,1,.8,1.1c.2.6.5,1.4.7,2.2a15.94,15.94,0,0,1,.6,3,33.22,33.22,0,0,1,10.6-6.2,38.37,38.37,0,0,1,12.1-2,29.83,29.83,0,0,1,9.4,1.5A24,24,0,0,1,203,100.1c1.6,4.1,2.4,9.5,2.4,16v47.8c0,1-.4,1.4-1.3,1.4H184.6a1.38,1.38,0,0,1-1.6-1.2V118a20.84,20.84,0,0,0-1.4-8.2,11,11,0,0,0-10.9-6.8,19.71,19.71,0,0,0-7.6,1.4,21,21,0,0,0-6,3.8v55.7c0,1-.4,1.4-1.3,1.4H136.2a1.24,1.24,0,0,1-1.4-1.1Z"/></g></g></g></g></g></svg>