<svg viewBox="0 0 256 256" xmlns="http://www.w3.org/2000/svg">
 <path d="m0 128c0 103.23 24.767 128 128 128 103.23 0 128-24.767 128-128 0-103.23-24.767-128-128-128-103.23 0-128 24.767-128 128zm51.617 26.584 40.153-91.238c6.7735-15.379 19.803-23.725 36.231-23.725 16.42 0 29.457 8.3466 36.238 23.725l40.145 91.238c1.8245 4.4319 3.3904 10.171 3.3904 15.12 0 22.684-15.903 38.587-38.587 38.587-7.7217 0-13.863-1.9753-20.069-3.965-6.3641-2.0471-12.807-4.1158-21.118-4.1158-8.2173 0-14.818 2.083-21.305 4.1374-6.2779 1.9897-12.448 3.9434-19.882 3.9434-22.684 0-38.587-15.903-38.587-38.587 0-4.9562 1.5659-10.688 3.3903-15.12zm76.383-75.335-39.628 89.679c11.737-5.4734 25.284-8.0808 39.628-8.0808 13.82 0 27.891 2.6074 39.104 8.0808z" clip-rule="evenodd" fill="#1a1a19" fill-rule="evenodd" stroke-width="7.1829"/>
</svg>
