<svg xmlns="http://www.w3.org/2000/svg" fill="none" viewBox="0 0 116.222 35.64">
  <path fill="#1a1a19" fill-rule="evenodd" d="M0 17.82c0 14.372 3.448 17.82 17.82 17.82s17.82-3.448 17.82-17.82S32.192 0 17.82 0 0 3.448 0 17.82zm7.186 3.701 5.59-12.702c.943-2.141 2.757-3.303 5.044-3.303 2.286 0 4.101 1.162 5.045 3.303l5.589 12.702c.254.617.472 1.416.472 2.105 0 3.158-2.214 5.372-5.372 5.372-1.075 0-1.93-.275-2.794-.552-.886-.285-1.783-.573-2.94-.573-1.144 0-2.063.29-2.966.576-.874.277-1.733.549-2.768.549-3.158 0-5.372-2.214-5.372-5.372 0-.69.218-1.488.472-2.105zM17.82 11.033l-5.517 12.485c1.634-.762 3.52-1.125 5.517-1.125 1.924 0 3.883.363 5.444 1.125zm84.036-3.202c-1.238 0-2.131.877-2.131 2.097s.893 2.097 2.131 2.097c1.237 0 2.13-.877 2.13-2.097s-.893-2.096-2.13-2.096zm-38.975 18.01c-3.3 0-5.688-2.44-5.688-6.255 0-3.884 2.388-6.324 5.688-6.324 1.53 0 2.663.516 3.334 1.53V8.381h3.437v17.184h-3.437v-1.22c-.653.997-1.788 1.495-3.334 1.495zm-2.183-6.255c0-2.13 1.152-3.523 2.905-3.523 1.77 0 2.904 1.375 2.904 3.506 0 2.096-1.134 3.454-2.904 3.454-1.753 0-2.905-1.358-2.905-3.437zm14.35-.034c0-2.114 1.15-3.472 2.87-3.472 1.735 0 2.886 1.358 2.886 3.472 0 2.113-1.151 3.47-2.887 3.47-1.718 0-2.87-1.357-2.87-3.47zm37.874 2.732c0 .636-.481 1.014-1.701 1.014-1.375 0-2.234-.722-2.234-1.598h-3.437c.086 2.371 2.337 4.141 5.602 4.141 3.094 0 5.07-1.375 5.07-3.815 0-1.821-1.169-3.093-3.489-3.557l-2.491-.498c-.756-.155-1.203-.533-1.203-1.031 0-.74.756-1.135 1.718-1.135 1.375 0 1.908.636 1.908 1.392h3.265c-.086-2.234-1.839-3.935-5.104-3.935-3.042 0-5.104 1.53-5.104 3.85 0 2.096 1.358 3.041 3.385 3.47l2.475.533c.808.172 1.34.516 1.34 1.169zm-12.768-8.747h3.437v12.03h-3.437zm-10.517 0v1.255c.877-1.014 2.045-1.53 3.489-1.53 2.698 0 4.45 1.753 4.45 4.468v7.836H94.14v-7.114c0-1.46-.825-2.337-2.252-2.337-1.426 0-2.25.876-2.25 2.337v7.114H86.2V13.537zm-11.72-.275c-3.66 0-6.375 2.646-6.375 6.29 0 3.643 2.715 6.29 6.375 6.29 3.678 0 6.393-2.647 6.393-6.29 0-3.643-2.715-6.29-6.393-6.29zm-28.664 2.801c-1.752 0-2.904 1.392-2.904 3.523 0 2.08 1.152 3.437 2.904 3.437 1.77 0 2.905-1.358 2.905-3.454 0-2.131-1.135-3.506-2.905-3.506zm-6.41 3.523c0 3.816 2.39 6.255 5.671 6.255 1.564 0 2.681-.498 3.351-1.495v1.22h3.437V13.537h-3.437v1.255c-.687-1.014-1.821-1.53-3.35-1.53-3.283 0-5.671 2.44-5.671 6.324z" clip-rule="evenodd"/>
</svg>
