<svg xmlns="http://www.w3.org/2000/svg" viewBox="0 0 512 165.642">
  <path fill="#32aa52" d="M72.23 37.647c10.01 0 18.124 8.114 18.124 18.123V128H18.123C8.113 128 0 119.886 0 109.877V89.652c0-10.009 8.114-18.123 18.123-18.123h19.524v28.705a5.178 5.178 0 0 0 5.178 5.178h9.881v-40a5.179 5.179 0 0 0-5.178-5.177H1.294V37.647zm85.886 67.765L158.117 0h37.648v128h-72.23c-10.009 0-18.123-8.114-18.123-18.123V55.77c0-10.009 8.114-18.123 18.123-18.123h19.522v62.587a5.178 5.178 0 0 0 5.178 5.178zm105.412 0V37.647h37.649V147.52c0 10.01-8.114 18.123-18.123 18.123h-70.936v-26.348h51.411V128h-34.583c-10.009 0-18.123-8.114-18.123-18.123v-72.23h37.646v62.587a5.178 5.178 0 0 0 5.178 5.178zm124.937-67.765c10.009 0 18.123 8.114 18.123 18.123v20.225c0 10.01-8.114 18.123-18.123 18.123H368.94V65.414a5.177 5.177 0 0 0-5.178-5.178h-9.88v39.998a5.178 5.178 0 0 0 5.178 5.178h46.233V128h-70.935c-10.009 0-18.123-8.114-18.123-18.123v-72.23zm105.412 0c10.01 0 18.123 8.114 18.123 18.123V128h-37.647V65.413c0-2.848-2.33-5.178-5.178-5.178h-9.881V128h-37.648V37.647z"/>
</svg>
