<svg xmlns="http://www.w3.org/2000/svg" viewBox="0 0 511.996 88.875">
  <path fill="#c4373a" d="M511.996 0H0v88.875h511.996z"/>
  <path fill="#fff" d="M212.318 26.005c2.889 0 5.521.522 7.902 1.559 2.366 1.046 4.402 2.463 6.115 4.243a19.003 19.003 0 0 1 3.93 6.207 20.133 20.133 0 0 1 1.394 7.424c.031.042.031.077 0 .111 0 2.596-.48 5.076-1.417 7.451-.947 2.375-2.258 4.452-3.963 6.234-1.704 1.782-3.755 3.204-6.142 4.272-2.387 1.062-5.029 1.59-7.937 1.59-2.895 0-5.535-.52-7.893-1.571-2.378-1.039-4.407-2.452-6.115-4.232-1.709-1.787-3.014-3.853-3.93-6.206a20.018 20.018 0 0 1-1.396-7.424v-.114c0-2.586.464-5.076 1.41-7.449a19.473 19.473 0 0 1 3.965-6.243c1.713-1.782 3.742-3.195 6.145-4.264 2.389-1.06 5.027-1.588 7.932-1.588zm52.68.106c2.798 0 5.23.38 7.317 1.162 2.086.775 4.093 1.935 6.057 3.48l-2.5 3.297c-1.776-1.442-3.557-2.488-5.354-3.133a16.38 16.38 0 0 0-5.624-.974c-2.501 0-4.471.586-5.922 1.76-1.444 1.168-2.166 2.614-2.166 4.346v.107c0 .897.15 1.695.428 2.396.294.706.819 1.35 1.584 1.95.765.598 1.806 1.132 3.152 1.623 1.334.486 3.053.946 5.154 1.37 4.234.905 7.358 2.191 9.374 3.858 2.007 1.681 3.013 3.953 3.013 6.836v.106c0 1.618-.32 3.091-.973 4.404a10.113 10.113 0 0 1-2.652 3.373c-1.137.94-2.502 1.653-4.098 2.164-1.59.501-3.32.756-5.206.756-3.04 0-5.817-.497-8.34-1.491-2.524-.99-4.917-2.502-7.205-4.558l2.669-3.137c1.993 1.807 4 3.143 6.027 4.026 2.028.883 4.363 1.32 7.017 1.32 2.566 0 4.617-.592 6.149-1.804 1.543-1.207 2.313-2.747 2.313-4.613v-.115c0-.863-.143-1.646-.436-2.347-.294-.698-.792-1.343-1.514-1.916-.728-.577-1.735-1.102-3.028-1.566-1.29-.467-2.93-.924-4.929-1.35-2.167-.47-4.073-1.006-5.684-1.62-1.616-.61-2.957-1.352-4.003-2.214-1.055-.862-1.827-1.872-2.349-3.033-.507-1.145-.759-2.494-.759-4.042v-.105c0-1.479.307-2.842.918-4.109a9.862 9.862 0 0 1 2.61-3.271c1.125-.916 2.448-1.634 3.977-2.16 1.516-.513 3.18-.776 4.983-.776zm-194.044.085v4.586l-10.038 4.426v20.579l10.038 4.473v4.377L32.667 47.408l-4.517-1.922 4.517-2.071zm49.345.455v3.945H97.103V43.38h20.747v3.953H97.103v13.178h23.463v3.938H92.819V26.651zm263.45 0v22.571l21.83-22.571h5.537l-16.29 16.518 17.004 21.28h-5.376l-14.616-18.302-8.088 8.152v10.15h-4.303V26.651zm75.276 0v3.945H435.83V43.38h43.39v3.953h-43.39v13.178h23.47v3.938h-27.754V26.651zm-103.743-.001v37.798h-4.299V26.65zm-39.755-.002c2.138 0 4.075.276 5.839.842 1.75.559 3.252 1.342 4.507 2.373a10.132 10.132 0 0 1 2.866 3.75c.672 1.478 1.024 3.152 1.024 5.026v.108c0 2.044-.404 3.843-1.196 5.377a11.682 11.682 0 0 1-3.236 3.851c-1.354 1.047-2.948 1.834-4.75 2.348-1.819.53-3.729.793-5.772.793h-9.23v13.332h-4.289v-37.8zm-156.937 0c2.352 0 4.45.34 6.284.998 1.822.664 3.332 1.597 4.525 2.784a9.816 9.816 0 0 1 2.177 3.294c.506 1.26.757 2.644.757 4.159v.103c0 1.55-.251 2.94-.757 4.193a9.944 9.944 0 0 1-2.138 3.237c-.925.92-2.022 1.674-3.3 2.27a17.759 17.759 0 0 1-4.126 1.32l11.68 15.44h-5.262l-11.035-14.683H146.54v14.683h-4.3V26.648zm53.61 3.293c-2.167 0-4.166.403-5.993 1.217-1.835.818-3.403 1.921-4.702 3.321a15.88 15.88 0 0 0-3.075 4.915c-.736 1.87-1.107 3.886-1.107 6.044v.111c0 2.157.371 4.186 1.107 6.075.75 1.885 1.79 3.542 3.123 4.938a15.107 15.107 0 0 0 4.756 3.352c1.826.83 3.836 1.236 6.009 1.236 2.172 0 4.179-.393 6-1.207a14.29 14.29 0 0 0 4.695-3.32 15.682 15.682 0 0 0 3.073-4.915c.747-1.874 1.106-3.888 1.106-6.045v-.114c0-2.16-.359-4.185-1.106-6.072a15.135 15.135 0 0 0-3.116-4.938 15.13 15.13 0 0 0-4.76-3.354c-1.837-.828-3.838-1.244-6.01-1.244zM57.053 36.885l-19.386 8.588 19.386 8.636zm258.167-6.292h-9.64V47.17h9.43c1.584 0 3.024-.2 4.3-.593 1.272-.398 2.36-.957 3.294-1.692a7.36 7.36 0 0 0 2.114-2.643c.499-1.02.748-2.143.748-3.364v-.108c0-2.687-.943-4.72-2.814-6.109-1.864-1.384-4.35-2.07-7.432-2.07zm-156.925 0H146.54v15.332h11.701c1.416 0 2.72-.177 3.923-.535 1.193-.363 2.223-.87 3.096-1.542a6.976 6.976 0 0 0 2.043-2.433c.492-.956.734-2.035.734-3.264v-.107c0-2.34-.852-4.162-2.553-5.477-1.71-1.315-4.099-1.974-7.19-1.974z"/>
</svg>
