<svg xmlns="http://www.w3.org/2000/svg" viewBox="0 0 863.49 357.303">
  <path d="m62.777 682.666-22.843 99.666H260.68c-6.548-.572-11.718-2.87-14.798-7.06a14.912 14.912 0 0 1-1.457-2.484 85.913 85.913 0 0 1-.76-1.95c-.656-2.088-.918-4.406-.8-6.875.328-6.883 3.558-15.07 9.154-23.644 5.944-9.112 14.558-18.661 25.224-27.523a162.09 162.09 0 0 1 7.45-5.85 159.164 159.164 0 0 1 9.647-6.547c11.88-7.48 23.732-12.714 34.234-15.372-10.036 3.274-21.31 8.832-32.449 16.398-.4.271-.796.548-1.19.821-6.18 4.283-11.78 8.83-16.666 13.423-15.723 14.784-24.034 30.103-20.257 39.078.27.618.59 1.207.964 1.765 4.06 5.97 14.119 7.002 26.867 3.797a79.253 79.253 0 0 0 2.627-.718c4.072-1.176 8.395-2.763 12.848-4.72 1.07-.474 2.152-.96 3.243-1.478.111-.053.216-.105.328-.165 14.055-6.983 24.857-15.018 27.195-19.846.512-1.05.635-1.946.287-2.648-1.668-3.382-13.342-1.097-27.482 5.028-1.136.493-2.286 1-3.448 1.54.946-.878 1.93-1.76 2.935-2.627a99.584 99.584 0 0 1 5.028-4.064 100.345 100.345 0 0 1 8.313-5.665c12.886-9.721 19.4-18.918 18.04-22.33-.256-.643-.8-1.085-1.642-1.355-2.686-.854-7.589.166-13.545 2.607-4.913 2.015-10.556 5.003-16.276 8.723l-.78.513-.144.082-2.75 1.826 1.58-2.893c2.345-4.292 6.164-8.77 10.92-12.93 3.487-3.042 7.47-5.908 11.76-8.416a74.985 74.985 0 0 1 4.864-2.627 69.9 69.9 0 0 1 4.946-2.175c4.713-1.864 9.89-4.218 13.814-4.526-.357 0-11.7 1.221-11.7 1.221H62.777zm177.934.144c-.644 9.823 1.261 24.212 5.583 40.186a223.02 223.02 0 0 0 2.524 8.662c.571 1.806 1.16 3.585 1.765 5.336-.355.521-.712 1.04-1.047 1.56-5.392 8.263-8.543 16.073-9.338 22.864-2.28-7.632-3.995-15.991-4.967-24.855-.276-2.54-.492-5.051-.636-7.533-1.064-18.023 1.289-34.362 6.116-46.22zm-107.608 12.787c.123-.003.244 0 .37 0h24.28c2.075 0 3.68.389 4.823 1.17 1.136.785 1.562 1.801 1.293 3.037l-2.894 13.074h-8.559l2.812-12.725H133.8l-7.738 34.973-2.791 12.664h21.406l.021-.083 4.29-19.374h-10.057l.964-4.372h18.616l-5.336 24.177a3.42 3.42 0 0 1-.37.965c-.44.801-1.208 1.488-2.278 2.053-1.484.781-3.26 1.17-5.336 1.17h-24.26c-2.075 0-3.68-.389-4.823-1.17-1.136-.782-1.569-1.78-1.293-3.018l10.693-48.334c.276-1.236 1.136-2.252 2.627-3.038.053-.028.112-.034.164-.061 1.361-.682 2.958-1.065 4.803-1.108zm38.052 0h30.56c2.05 0 3.66.389 4.803 1.17 1.15.785 1.59 1.801 1.313 3.037l-5.705 25.778c-.27 1.229-1.15 2.23-2.648 3.017-1.497.79-3.26 1.19-5.316 1.19h-22.207l-4.29 19.355-.697 3.181h-8.374l.636-2.873 11.925-53.855zm42.218 0h8.374l-9.482 42.834-2.073 9.359h20.031c.21 1.536.456 3.045.719 4.535h-30.13l2.38-10.754 10.18-45.974zm-34.85 4.556-5.562 25.08h20.873l5.541-25.08h-20.852zm-44.51 59.194c.083-.003.165 0 .247 0 .972 0 1.821.17 2.504.493.73.341 1.25.849 1.54 1.519.282.65.356 1.388.205 2.196l-.062.308h-2.401l.02-.288c.062-.564-.008-1.008-.225-1.313a1.409 1.409 0 0 0-.103-.123 1.332 1.332 0 0 0-.205-.165c-.336-.211-.862-.328-1.54-.328-.9 0-1.572.157-2.032.472-.446.309-.729.653-.82 1.067-.092.42.059.641.164.76l.02.02c.133.113.595.38 2.032.718 1.3.316 2.162.599 2.648.842.735.374 1.25.86 1.518 1.457.27.591.329 1.283.165 2.032-.165.73-.536 1.401-1.088 2.032a5.504 5.504 0 0 1-2.073 1.478 7.007 7.007 0 0 1-2.668.533c-1.182 0-2.132-.179-2.874-.533a3.31 3.31 0 0 1-1.662-1.704c-.315-.735-.383-1.57-.205-2.483l.061-.288h2.36l-.02.288c-.059.545 0 .985.144 1.313.138.316.4.577.82.78.447.217 1.006.329 1.643.329.571 0 1.093-.096 1.56-.267.46-.164.825-.381 1.087-.657.256-.276.407-.567.472-.882.066-.283.05-.522-.061-.719-.125-.21-.372-.396-.76-.554l-2.011-.595c-1.123-.283-1.88-.552-2.32-.821-.597-.355-1.028-.81-1.251-1.355-.224-.538-.247-1.135-.103-1.785a4.344 4.344 0 0 1 1.006-1.95 5.045 5.045 0 0 1 2.011-1.375 7.065 7.065 0 0 1 2.258-.452zm21.551.041c.13-.01.252 0 .39 0l1.478.164.492.042-.718 1.826-.144.288-1.128-.103c-.334 0-.579.051-.74.164-.01.008-.03.033-.04.041a.722.722 0 0 0-.082.082c-.1.13-.22.362-.308.78 0 0-.043.178-.082.329h1.765l-.452 2.032h-1.724l-1.744 7.82h-2.381s1.547-6.947 1.744-7.82h-1.375l.452-2.032h1.354c.066-.283.164-.637.164-.637.145-.656.296-1.128.493-1.457a3.1 3.1 0 0 1 1.129-1.108c.395-.23.894-.367 1.457-.41zm5.685.103-.78 3.51h1.54l-.452 2.032h-1.539c-.125.564-1.108 4.946-1.108 4.946s-.082.526-.082.677v.041h.02l.246.02 1.13-.082-.124 1.827.02.328-1.62.185c-.644 0-1.117-.105-1.458-.328a1.452 1.452 0 0 1-.657-.944c-.013-.073-.041-.178-.041-.329 0-.295.056-.795.246-1.662 0 0 .863-3.865 1.047-4.68h-1.129l.452-2.032h1.129c.105-.472.472-2.093.472-2.093l1.908-1.006.78-.41zm-75.631.082h9.236l-.513 2.299h-6.753c-.105.466-.526 2.354-.677 3.037h5.85l-.514 2.299h-5.85c-.124.571-1.251 5.644-1.251 5.644h-2.484l2.956-13.279zm12.376 3.243c.093-.011.194 0 .287 0 .591 0 1.137.18 1.663.554l.328.226L99 765.689l-.35-.246a1.5 1.5 0 0 0-.82-.246c-.25 0-.482.088-.719.246-.25.164-.458.382-.615.677a6.49 6.49 0 0 0-.616 1.683l-1.108 5.05H92.39L94.587 763h2.217s-.077.298-.103.41c.105-.079.216-.187.308-.246.318-.19.654-.309.985-.35zm7.06 0c.144-.011.285 0 .431 0 1.34 0 2.354.47 3.017 1.396.414.597.637 1.336.637 2.216 0 .486-.06 1.01-.185 1.58l-.185.719h-6.69a4.53 4.53 0 0 0-.021.41c0 .513.105.916.328 1.211.106.145.23.275.37.37.264.172.606.267 1.005.267a2.37 2.37 0 0 0 1.314-.39c.38-.243.745-.632 1.067-1.17h2.545l-.226.492c-.486.985-1.164 1.754-2.011 2.299-.847.545-1.86.841-2.976.841-1.451 0-2.532-.47-3.202-1.395-.663-.907-.806-2.16-.451-3.736.354-1.602 1.062-2.883 2.093-3.776.924-.801 1.973-1.246 3.14-1.334zm10.693 0c.144-.011.285 0 .431 0 1.34 0 2.354.47 3.017 1.396.414.597.637 1.336.637 2.216 0 .48-.06.995-.185 1.56l-.185.739h-6.69c-.008.092-.015.175-.021.267-.005.034.002.086 0 .123v.02c0 .099.014.196.02.288.033.374.13.687.308.923.034.046.066.103.103.144.3.322.726.492 1.272.492.486 0 .92-.133 1.314-.39.38-.243.745-.63 1.067-1.17h2.566l-.247.493c-.486.985-1.164 1.754-2.011 2.299-.847.545-1.86.841-2.976.841-1.451 0-2.532-.47-3.202-1.395-.433-.591-.636-1.344-.636-2.237a7.419 7.419 0 0 1 .185-1.498c.354-1.597 1.042-2.884 2.073-3.777.924-.801 1.993-1.246 3.16-1.334zm29.124 0c.147-.011.282 0 .431 0 1.366 0 2.416.462 3.1 1.375.676.913.84 2.144.492 3.694-.27 1.209-.658 2.185-1.19 2.894a5.606 5.606 0 0 1-2.012 1.683 5.57 5.57 0 0 1-2.483.595c-1.393 0-2.43-.476-3.1-1.395-.433-.585-.656-1.338-.656-2.237 0-.486.053-1.003.184-1.58.395-1.76 1.2-3.101 2.381-3.962.868-.626 1.826-.988 2.853-1.067zm36.061 0c.173-.01.334 0 .513 0 .828 0 1.478.084 1.97.287.526.21.899.508 1.109.862.203.335.308.747.308 1.252l-.247 1.498-.451 2.032c-.388 1.734-.473 2.384-.493 2.627-.02.329.01.649.103.945l.164.533h-2.422l-.102-.308c-.04-.144-.028-.328-.041-.492-.46.282-.92.533-1.334.677-.611.21-1.245.328-1.889.328-1.116 0-1.943-.29-2.442-.862-.381-.42-.554-.934-.554-1.518 0-.224.03-.455.082-.698.111-.5.314-.962.636-1.375a3.843 3.843 0 0 1 1.108-.985 4.933 4.933 0 0 1 1.335-.534l1.457-.246c1.123-.132 1.961-.295 2.565-.472.013-.066.041-.144.041-.144.096-.423.084-.74-.02-.903-.008-.01-.033-.032-.041-.041-.022-.024-.056-.06-.082-.082-.247-.196-.669-.288-1.232-.288-.637 0-1.108.105-1.436.308-.322.204-.62.576-.883 1.109h-2.483l.225-.493c.296-.683.648-1.25 1.088-1.683.44-.434 1.035-.77 1.724-1.006a6.835 6.835 0 0 1 1.724-.328zm10.406 0c.093-.011.194 0 .287 0 .598 0 1.158.18 1.683.554l.308.226-1.272 2.093-.35-.246a1.45 1.45 0 0 0-.8-.246c-.25 0-.496.088-.739.246-.25.164-.43.382-.595.677a6.737 6.737 0 0 0-.616 1.683l-1.128 5.05h-2.381L187.93 763h2.216s-.055.298-.082.41c.105-.079.21-.187.308-.246a2.42 2.42 0 0 1 .965-.35zm7.04 0c.143-.011.284 0 .43 0 1.34 0 2.36.47 3.018 1.396.42.597.636 1.336.636 2.216 0 .486-.08 1.01-.205 1.58l-.164.719h-6.691c-.013.138-.041.286-.041.41 0 .513.111.916.328 1.211.034.046.086.103.123.144l.082.082c.294.267.693.41 1.19.41a2.37 2.37 0 0 0 1.314-.39c.381-.242.739-.63 1.067-1.17h2.566l-.246.493c-.486.985-1.171 1.754-2.012 2.299-.854.545-1.853.841-2.976.841-1.451 0-2.511-.47-3.18-1.395-.664-.907-.821-2.16-.473-3.736.355-1.602 1.042-2.883 2.073-3.776.93-.801 1.995-1.246 3.16-1.334zM162.44 763h2.442s.301 5.846.308 5.931c.099-.21.175-.385.185-.41l2.688-5.521h2.238s.205 5.775.205 5.808c.065-.118 3.058-5.808 3.058-5.808h2.422l-5.337 9.851h-2.196l-.225-5.644c-.907 1.859-2.75 5.644-2.75 5.644h-2.258l-.78-9.851zm-57.345 1.867c-.565.024-1.08.228-1.56.616-.38.302-.637.717-.841 1.17h4.043c.007-.072.02-.16.02-.226 0-.374-.066-.665-.184-.862-.289-.473-.717-.698-1.355-.698-.038 0-.085-.002-.123 0zm10.693 0c-.565.024-1.08.228-1.56.616-.38.302-.63.717-.84 1.17h4.042c.007-.072.021-.16.021-.226 0-.374-.06-.665-.185-.862a1.66 1.66 0 0 0-.205-.267c-.274-.283-.652-.43-1.15-.43-.038 0-.085-.003-.123 0zm82.713 0a2.654 2.654 0 0 0-1.622.616c-.374.302-.63.717-.841 1.17h4.023c.007-.072.02-.16.02-.226 0-.374-.06-.665-.184-.862-.283-.466-.718-.691-1.355-.698h-.041zm-53.773.041c-.543.065-1.048.313-1.52.74-.564.511-.974 1.316-1.21 2.38a5.437 5.437 0 0 0-.144 1.17c0 .466.09.832.267 1.108.047.071.11.146.164.205.292.31.7.473 1.211.473.663 0 1.248-.248 1.806-.76.565-.519.968-1.332 1.211-2.422.223-.998.192-1.743-.123-2.216-.302-.46-.744-.678-1.355-.678-.103 0-.207-.012-.307 0zm37.087 3.592a15.44 15.44 0 0 1-2.012.39c-.617.092-1.057.189-1.313.287-.224.092-.403.22-.554.39a1.216 1.216 0 0 0-.288.534c-.013.079-.02.16-.02.226v.02c0 .016-.002.047 0 .062.004.03.012.075.02.102.003.01.017.032.02.041.008.018.012.045.021.062.01.017.03.045.041.061.018.024.04.06.062.083.164.183.492.266.965.266.518 0 1.018-.098 1.477-.328a2.874 2.874 0 0 0 1.088-.944c.197-.276.355-.7.493-1.252zM56.45 752.045l55.083-56.872h8.995l-13.3 56.872h-7.399l3.777-16.371H80.514l-15.692 16.37H56.45m29.676-22.228h18.886l3.484-14.276c1.406-5.664 2.76-10.384 4.061-14.16-2.6 3.259-6.04 7.125-10.32 11.6l-16.111 16.836" style="fill:#636" transform="translate(-88.518 -1761.542) scale(2.5964)"/>
  <path d="M242.274 772.004c.266.685.533 1.37.81 2.039.428.91.923 1.78 1.517 2.592 3.21 4.364 8.587 6.754 15.414 7.349h7.343a63.907 63.907 0 0 0 7.276-1.012c4.349-.85 8.96-2.157 13.747-3.903a122.913 122.913 0 0 0 11.137-4.705c8.237-3.95 16.747-9.042 25.095-15.188a166.659 166.659 0 0 0 7.92-6.208 157.763 157.763 0 0 0 6.677-5.877c5.938-5.722 10.42-11.534 12.958-16.636 2.644-5.314 3.172-9.858 1.006-12.72-1.328-1.757-3.55-2.699-6.41-2.92 12.886-9.67 20.396-21.399 17.702-28.794-.855-2.36-2.738-4.12-5.438-5.094-1.2-.432-2.55-.705-4.021-.83h-3.966c-5.538.4-13.59 2.383-20.423 5.73" style="fill:none;stroke:#636;stroke-width:3.28387;stroke-linecap:butt;stroke-linejoin:miter;stroke-miterlimit:4" transform="translate(-88.518 -1761.542) scale(2.5964)"/>
  <g style="fill:#636">
    <path d="M0 357.302h12.721l5.712-23.873h20.668l2.66-10.232H21.008l3.445-15.347h22.083l2.66-11.936H14.324L0 357.302zM57.057 357.302l3.82-16.03c2.012-8.679 6.258-16.37 14.29-16.37.715 0 1.415.359 1.943.444l3.104-12.295c-.717 0-1.501-.085-2.388-.085-5.917 0-10.879 4.16-14.187 10.129h-.341c.494-2.916.92-5.678 1.245-8.424H53.578c-.63 3.547-1.603 10.487-3.086 16.745l-6.241 25.886h12.806zM113.636 345.792c-3.53 1.722-7.554 1.278-12.243 1.278-3.7 0-6.566-.648-8.134-1.91-.819-1.38-1.16-3.53-1.092-4.91 17.274.46 28.17-3.53 28.716-14.444.41-8.236-5.61-12.84-14.358-12.84-15.62 0-25.85 13.778-26.516 27.045-.58 11.578 5.423 17.29 17.803 17.29 4.757 0 11.066-.545 16.233-2.097l-.409-9.412zm-4.672-19.986c-.205 4.059-5.218 4.297-15.092 4.212 1.075-3.564 4.69-6.82 10.607-6.82 2.916 0 4.587 1.108 4.485 2.608zM158.841 345.792c-3.53 1.722-7.554 1.278-12.226 1.278-3.717 0-6.565-.648-8.134-1.91-.818-1.38-1.177-3.53-1.108-4.91 17.29.46 28.17-3.53 28.733-14.444.409-8.236-5.61-12.84-14.358-12.84-15.637 0-25.869 13.778-26.534 27.045-.562 11.578 5.44 17.29 17.803 17.29 4.775 0 11.084-.545 16.25-2.097l-.426-9.412zm-4.655-19.986c-.204 4.059-5.218 4.297-15.108 4.212 1.091-3.564 4.69-6.82 10.606-6.82 2.916 0 4.604 1.108 4.502 2.608zM224.663 357.302c.102-5.406 1.398-13.898 2.745-19.474l5.474-23.157c-3.478-1.176-8.901-1.705-14.12-1.705-21.178 0-31.682 15.688-32.415 30.387-.46 9.225 4.536 13.949 12.311 13.949 5.03 0 10.71-2.439 15.126-9.771h.187c-.34 3.53-.75 6.957-.972 9.77h11.664zm-8.748-24.35c-2.49 10.844-7.571 14.118-11.357 14.118-3.53 0-5.064-2.506-4.86-6.155.41-8.237 6.924-17.718 15.143-17.718 1.33 0 2.37-.238 3.342-.477l-2.268 10.231zM233.002 355.29c2.455 1.91 7.605 1.926 12.976 2.012 11.476.085 20.139-4.928 20.65-14.137.29-6.138-4.467-9.77-9.122-12.209-3.36-1.62-5.048-3.172-4.963-4.98.12-2.438 2.405-2.779 5.764-2.779 3.786 0 6.82.46 8.56.802l3.445-9.243c-1.961-1.176-5.883-1.79-10.914-1.79-11.135 0-19.286 5.883-19.746 14.818-.273 5.525 3.7 9.243 8.509 11.766 3.888 1.996 5.218 3.53 5.116 5.696-.12 2.183-2.064 1.824-5.594 1.824-4.143 0-8.73-.545-11.152-.92l-3.53 9.14zM301.04 357.302l10.316-42.63h-12.635l-10.385 42.63h12.704zm5.917-47.746c4.331 0 8.185-3.581 8.424-9.72.204-4.161-2.49-5.627-6.463-5.627-4.144 0-7.93 2.694-8.15 6.718-.206 4.059 2.489 8.629 6.189 8.629zM325.425 357.302l4.501-19.201c2.337-9.771 7.367-13.198 11.51-13.198 3.275 0 4.23 1.398 4.076 3.427a30.477 30.477 0 0 1-.682 4.894l-5.73 24.078h12.721l6.037-25.255c.46-2.182.972-5.44 1.074-7.417.375-7.69-3.461-10.487-10.521-10.487-5.661 0-11.17 2.626-15.518 8.321h-.17l1.16-7.793h-11.22c-.734 3.65-1.672 8.066-3.002 13.216l-6.957 29.415h12.72zM380.162 357.302h12.721l5.73-23.873h20.65l2.66-10.232h-20.752l3.444-15.347h22.083l2.66-11.936h-34.872l-14.324 61.388zM437.219 357.302l3.82-16.03c2.012-8.679 6.258-16.37 14.29-16.37.716 0 1.415.359 1.943.444l3.104-12.295c-.716 0-1.5-.085-2.387-.085-5.918 0-10.88 4.16-14.188 10.129h-.341c.495-2.916.92-5.678 1.245-8.424H433.74c-.614 3.547-1.603 10.487-3.086 16.745l-6.241 25.886h12.806zM493.798 345.792c-3.53 1.722-7.554 1.278-12.243 1.278-3.7 0-6.565-.648-8.134-1.91-.819-1.38-1.16-3.53-1.092-4.91 17.274.46 28.17-3.53 28.716-14.444.41-8.236-5.61-12.84-14.358-12.84-15.62 0-25.85 13.778-26.516 27.045-.58 11.578 5.44 17.29 17.803 17.29 4.757 0 11.084-.545 16.233-2.097l-.409-9.412zm-4.672-19.986c-.205 4.059-5.218 4.297-15.091 4.212 1.074-3.564 4.689-6.82 10.606-6.82 2.916 0 4.587 1.108 4.485 2.608zM539.004 345.792c-3.53 1.722-7.555 1.278-12.227 1.278-3.717 0-6.565-.648-8.134-1.91-.818-1.38-1.176-3.53-1.108-4.91 17.29.46 28.17-3.53 28.733-14.444.41-8.236-5.61-12.84-14.358-12.84-15.637 0-25.868 13.778-26.533 27.045-.563 11.578 5.44 17.29 17.802 17.29 4.775 0 11.084-.545 16.25-2.097l-.425-9.412zm-4.656-19.986c-.204 4.059-5.218 4.297-15.108 4.212 1.091-3.564 4.69-6.82 10.607-6.82 2.916 0 4.604 1.108 4.501 2.608zM589.546 294.209l-4.791 19.37c-1.74-.715-4.008-.613-5.781-.613-16.336 0-27.897 13.983-28.665 29.125-.511 10.675 5.184 15.21 12.517 15.21 5.132 0 10.538-2.267 14.63-8.133h.17l-.971 8.134h11.561c.529-5.116 1.637-11.204 2.882-16.763l11.067-46.33h-12.619zm-9.958 41.641c-1.995 8.407-6.702 11.22-10.419 11.22-3.7 0-5.764-2.574-5.508-7.162.426-8.492 6.258-16.71 13.847-16.71 2.131 0 3.956.323 4.962.8l-2.882 11.852zM618.552 357.302c14.836 0 26.278-11.238 27.08-26.533.494-10.13-5.816-17.803-17.462-17.803-15.381 0-26.414 12.448-27.182 27.488-.528 10.948 6.531 16.848 17.564 16.848zm1.995-10.232c-4.33 0-6.718-2.762-6.462-6.889.34-6.872 4.587-16.984 11.902-16.984 5.047 0 6.6 3.871 6.395 7.674-.376 7.503-4.946 16.2-11.835 16.2zM661.439 357.302l4.604-19.474c1.927-8.68 6.735-14.63 11.05-14.63 3.103 0 3.956 2.267 3.802 5.234-.085 1.535-.426 3.257-.784 4.963l-5.696 23.907h12.278l4.604-19.56c2.114-8.952 6.65-14.545 10.88-14.545 2.915 0 4.126 2.08 3.99 5.048-.086 1.722-.444 3.615-.887 5.337l-5.525 23.72h12.363l5.951-25.255c.46-2.268.989-5.797 1.074-7.605.375-7.503-3.29-11.476-9.907-11.476-5.661 0-11.17 2.558-15.347 7.946-.154-3.888-2.933-7.946-9.822-7.946-5.576 0-10.897 2.524-15.16 8.236h-.17l1.142-6.53h-10.947c-.716 3.648-1.586 8.065-2.916 13.215l-6.855 29.415h12.278z"/>
  </g>
</svg>
