<svg xmlns="http://www.w3.org/2000/svg" viewBox="0 0 511.219 208.172">
  <path fill="#f79838" d="M155.72 152.485h-20.86l18.07-36.588h.224zm.892 16.62 1.227 14.501h22.978l-7.696-84.44h-34.245l-43.169 84.44h23.425l7.25-14.501zm56.33-22.532h3.459l16.509-22.198h21.082l-22.755 28.333 14.055 30.675h-22.533l-9.147-23.871h-3.235l-5.13 23.871h-19.522l17.848-84.106h19.41zm65.925 12.493c6.358 0 10.597.446 9.37 5.354-1.45 6.358-4.016 7.25-12.159 7.25-3.011 0-8.477 0-7.027-6.358 1.115-5.354 5.131-6.246 9.816-6.246zm5.354 24.317h19.186l7.697-36.81c4.462-20.414-3.57-22.756-23.202-22.756-13.831 0-27.217-.223-31.233 18.294h19.186c1.227-5.355 4.462-6.358 9.147-6.358 8.478 0 8.255 3.569 6.805 8.923l-1.897 9.37h-.892c-.67-6.804-9.147-6.581-14.724-6.581-14.055 0-22.31 4.462-25.321 18.517-3.235 15.059 4.015 18.293 17.4 18.293 6.805 0 15.729-1.45 18.964-9.37h.67zm58.45-59.008L341 132.852h.669c3.793-7.027 11.49-8.923 18.07-8.923 8.478 0 16.621 1.45 15.506 11.489h.892c2.789-8.478 11.49-11.49 18.963-11.49 13.609 0 19.41 5.578 16.397 19.187l-8.7 40.38H383.61l7.25-34.245c.893-6.358 1.896-10.82-5.354-10.82s-10.04 4.908-11.266 11.266l-7.028 33.575h-19.186l7.474-35.695c.892-5.354 1.45-9.146-5.354-9.146-7.92 0-10.374 4.238-11.713 11.266l-7.027 33.575H312.22l12.716-59.12h17.847v.224zm99.166 34.69c6.358 0 10.597.447 9.37 5.355-1.227 6.358-4.016 7.25-12.159 7.25-2.788 0-8.477 0-7.027-6.358 1.115-5.354 4.908-6.246 9.816-6.246zm5.131 24.318h19.186l7.697-36.81c4.462-20.414-3.57-22.756-23.202-22.756-13.832 0-27.217-.223-31.233 18.294h19.186c1.227-5.355 4.462-6.358 9.147-6.358 8.478 0 8.254 3.569 6.804 8.923l-1.896 9.37h-.892c-.67-6.804-9.147-6.581-14.724-6.581-14.055 0-22.31 4.462-25.322 18.517-3.234 15.059 4.016 18.293 17.402 18.293 6.804 0 15.728-1.45 18.963-9.37h.669zm47.408 0H475.19l12.381-59.12h19.186zm16.843-75.183c0 5.912-4.908 10.82-10.82 10.82s-10.82-4.908-10.82-10.82c0-6.135 4.908-10.82 10.82-10.82s10.82 4.685 10.82 10.82z"/>
  <path fill="#0098cc" d="M105.746 203.796c-42.945-13.162-74.067-52.762-74.067-99.388 0-47.408 31.903-87.23 75.518-100.17C111.658 3.013 110.43 0 105.077 0 47.184 0 0 46.627 0 104.073c0 57.447 46.85 104.073 105.077 104.073 5.354.335 5.577-2.677.67-4.35zm-54.1-75.294c-.223-2.789-.446-5.577-.446-8.478 0-45.734 37.034-82.767 82.768-82.767 43.168 0 56.33 19.186 57.67 18.07 1.673-1.45-15.729-39.599-66.37-39.599-45.735 0-82.769 37.034-82.769 82.768 0 10.597 2.12 20.636 5.578 30.006 1.45 4.016 3.792 4.016 3.57 0zm34.468-59.566c21.306-9.37 48.523-9.593 75.071-.446 17.848 6.358 28.11 15.059 29.114 14.724 1.45-.67-10.374-19.186-31.68-27.217-25.767-9.594-53.43-4.685-73.62 11.266-2.231 1.673-1.562 2.9 1.115 1.673z"/>
</svg>
