<svg xmlns="http://www.w3.org/2000/svg" viewBox="0 0 254.94 254.942">
  <path fill="#87c040" d="m88.095 166.855 32.3-32.302-48.503.002h-.116c-26.878 0-48.667 21.79-48.667 48.665 0 26.88 21.787 48.667 48.665 48.667 2.041 0 4.05-.14 6.025-.385-10.623-20.925-7.199-47.154 10.296-64.647"/>
  <path fill="#87c040" d="M127.475 183.16v-45.678l-34.296 34.3-.082.08c-19.006 19.006-19.006 49.82 0 68.825 19.005 19.006 49.819 19.006 68.825 0 1.442-1.442 2.738-2.974 3.963-4.54-22.298-7.294-38.408-28.252-38.41-52.987"/>
  <path fill="#87c040" d="m166.853 166.845-32.3-32.3v48.62c0 26.879 21.79 48.666 48.667 48.666 26.878 0 48.667-21.787 48.667-48.665 0-2.041-.141-4.05-.386-6.025-20.925 10.624-47.154 7.198-64.648-10.296"/>
  <path fill="#87c040" d="M240.685 93.02c-1.442-1.442-2.972-2.738-4.539-3.963-7.293 22.295-28.254 38.408-52.986 38.408h-45.676l34.376 34.378c19.006 19.006 49.821 19.006 68.825 0 19.006-19.006 19.006-49.82 0-68.823"/>
  <path fill="#ed9a2d" d="M183.166 23.055c-2.041 0-4.05.139-6.025.383 10.622 20.928 7.198 47.154-10.297 64.65l-32.297 32.299h48.62c26.875 0 48.664-21.79 48.664-48.667.002-26.878-21.787-48.665-48.665-48.665"/>
  <path fill="#5698c6" d="M161.843 14.253c-19.006-19.004-49.82-19.004-68.825.002-1.44 1.442-2.736 2.972-3.961 4.54 22.295 7.294 38.408 28.253 38.408 52.985v45.678l34.295-34.297.083-.081c19.006-19.006 19.006-49.82 0-68.827"/>
  <path fill="#5698c6" d="m88.135 88.12 1.384 1.445 30.834 30.834h.034V71.776c0-26.878-21.79-48.667-48.667-48.667-26.878 0-48.667 21.787-48.665 48.665 0 2.037.139 4.04.381 6.01 20.94-10.616 47.202-7.16 64.699 10.336"/>
  <path fill="#5698c6" d="M18.936 165.462a56.106 56.106 0 0 1 1.242-3.345c.056-.139.106-.28.164-.415a54.866 54.866 0 0 1 1.606-3.467c.124-.25.253-.498.383-.748a55.713 55.713 0 0 1 1.864-3.317c.07-.116.147-.225.217-.337a54.641 54.641 0 0 1 1.975-2.954c.141-.199.28-.4.425-.597a56.745 56.745 0 0 1 2.313-2.939c.164-.195.33-.383.498-.572a55.446 55.446 0 0 1 2.431-2.646c.075-.075.143-.154.218-.228a55.481 55.481 0 0 1 2.775-2.59 57.477 57.477 0 0 1 3.571-2.895c.133-.097.271-.188.404-.284a56.407 56.407 0 0 1 2.896-1.969c.194-.124.387-.252.584-.375a56.322 56.322 0 0 1 3.266-1.867c.235-.122.47-.24.707-.36a55.303 55.303 0 0 1 3.38-1.599c.057-.023.11-.05.166-.074a55.698 55.698 0 0 1 3.632-1.377c.265-.09.528-.182.796-.269 1.216-.396 2.45-.76 3.701-1.078.19-.045.388-.087.579-.13 1.16-.28 2.333-.52 3.519-.726.222-.037.441-.083.663-.116a55.015 55.015 0 0 1 3.905-.479c.284-.024.57-.043.854-.066a57.378 57.378 0 0 1 4.11-.166l45.678-.002L83.08 93.097c-19.006-19.004-49.822-19.006-68.826 0-19.005 19.006-19.005 49.82 0 68.825a49.393 49.393 0 0 0 4.515 3.994c.051-.153.116-.3.167-.454"/>
  <path fill="#446ba6" d="m83.194 93.097 27.22 27.22H73.826l-2.074.043c-22.28 0-41.063-14.973-46.837-35.404 18.535-10.395 42.428-7.706 58.197 8.06l.08.08M120.368 71.765v38.495l-25.87-25.87L93 82.953C77.245 67.2 74.551 43.33 84.916 24.8c20.457 5.758 35.452 24.554 35.452 46.85v.115M161.992 83.043l-27.22 27.221V73.68l-.043-2.075c0-22.28 14.973-41.065 35.405-46.837 10.394 18.535 7.705 42.428-8.06 58.195l-.082.08"/>
  <path fill="#fff101" d="M183.135 120.285H144.64l25.87-25.87 1.437-1.496c15.754-15.756 39.624-18.45 58.153-8.086-5.757 20.457-24.554 35.452-46.849 35.452h-.116"/>
  <path fill="#45ab47" d="m171.767 161.65-27.22-27.22h36.586l2.075-.043c22.28.002 41.062 14.975 46.836 35.407-18.537 10.392-42.428 7.706-58.196-8.063l-.081-.08M134.665 182.94v-38.494l25.87 25.87 1.499 1.436c15.754 15.756 18.448 39.623 8.083 58.154-20.457-5.758-35.452-24.552-35.452-46.852v-.114M93.298 171.893l27.22-27.221v36.585l.043 2.075c0 22.28-14.973 41.065-35.405 46.84-10.394-18.54-7.706-42.431 8.06-58.198l.082-.08M71.943 134.632h38.495l-25.87 25.87L83.13 162c-15.756 15.756-39.624 18.45-58.155 8.085 5.76-20.459 24.554-35.452 46.851-35.452h.116"/>
</svg>
