<svg xmlns="http://www.w3.org/2000/svg" viewBox="0 0 511.324 126.422">
  <path fill="#5468ff" d="M16.645.002h93.13c9.165 0 16.645 7.443 16.645 16.645v93.135c0 9.165-7.443 16.64-16.646 16.64H16.645C7.48 126.422 0 118.984 0 109.782V16.605C0 7.445 7.438.002 16.645.002"/>
  <path fill="#fff" d="M76.384 28.224V23.89a5.488 5.488 0 0 0-5.489-5.483H58.1a5.488 5.488 0 0 0-5.488 5.483v4.451c0 .495.458.843.958.727a39.997 39.997 0 0 1 11.136-1.57c3.65 0 7.264.495 10.756 1.454a.74.74 0 0 0 .922-.727m-35.066 5.673-2.186-2.186a5.485 5.485 0 0 0-7.759 0L28.76 34.32a5.462 5.462 0 0 0 0 7.748l2.15 2.15c.347.342.848.263 1.153-.08a42.01 42.01 0 0 1 4.188-4.909 39.696 39.696 0 0 1 4.951-4.214c.384-.232.422-.769.116-1.117m23.35 13.764v18.753c0 .537.58.921 1.074.653l16.672-8.628c.38-.19.495-.654.306-1.033-3.456-6.063-9.872-10.203-17.283-10.472-.385 0-.77.306-.77.727m0 45.174c-13.9 0-25.193-11.277-25.193-25.157s11.293-25.153 25.194-25.153c13.906 0 25.195 11.273 25.195 25.153 0 13.88-11.251 25.157-25.195 25.157m0-60.892c-19.743 0-35.756 15.992-35.756 35.735 0 19.748 16.013 35.703 35.756 35.703 19.742 0 35.756-15.992 35.756-35.74S84.447 31.943 64.668 31.943"/>
  <path fill="#5468ff" d="M252.011 100.273c-24.615.115-24.615-19.865-24.615-23.046l-.042-74.846L242.371 0v74.387c0 1.807 0 13.232 9.64 13.27v12.615zm-60.87-12.232c4.607 0 8.027-.269 10.408-.727v-15.26a30.758 30.758 0 0 0-3.614-.732 35.547 35.547 0 0 0-5.22-.385 32.01 32.01 0 0 0-5.031.385c-1.691.232-3.23.69-4.572 1.343-1.344.653-2.46 1.575-3.266 2.76-.843 1.19-1.228 1.88-1.228 3.682 0 3.524 1.228 5.563 3.456 6.9 2.228 1.344 5.262 2.034 9.066 2.034zm-1.307-54.45c4.951 0 9.138.616 12.52 1.843 3.377 1.228 6.106 2.95 8.101 5.136 2.039 2.223 3.419 5.178 4.263 8.323.885 3.145 1.306 6.595 1.306 10.387v38.58c-2.302.495-5.8 1.069-10.482 1.759-4.684.69-9.945 1.037-15.788 1.037-3.877 0-7.448-.384-10.635-1.111-3.23-.727-5.952-1.917-8.26-3.566-2.265-1.649-4.03-3.761-5.336-6.363-1.269-2.613-1.922-6.29-1.922-10.124 0-3.682.727-6.021 2.154-8.555a18.153 18.153 0 0 1 5.874-6.21c2.496-1.612 5.335-2.76 8.601-3.45 3.266-.69 6.685-1.038 10.214-1.038 1.654 0 3.382.116 5.225.306 1.807.194 3.767.542 5.842 1.037v-2.454c0-1.723-.195-3.372-.616-4.904a10.548 10.548 0 0 0-2.155-4.104c-1.037-1.19-2.375-2.112-4.066-2.76-1.691-.653-3.845-1.154-6.416-1.154-3.456 0-6.605.422-9.487.922-2.881.495-5.262 1.075-7.069 1.723l-1.801-12.305c1.88-.653 4.683-1.306 8.296-1.954 3.608-.696 7.49-1.001 11.636-1.001zm296.57 54.028c4.61 0 8.023-.268 10.404-.732l-.002-15.254c-.842-.232-2.033-.5-3.608-.733a35.622 35.622 0 0 0-5.225-.384c-1.649 0-3.34.116-5.03.384-1.686.232-3.224.69-4.567 1.344-1.349.653-2.46 1.575-3.266 2.76-.848 1.19-1.228 1.88-1.228 3.682 0 3.524 1.228 5.562 3.456 6.9 2.265 1.38 5.262 2.033 9.065 2.033zm-1.27-54.407c4.952 0 9.139.61 12.52 1.838 3.377 1.227 6.106 2.95 8.102 5.136 1.996 2.186 3.419 5.178 4.261 8.322.885 3.145 1.307 6.595 1.307 10.393v38.574c-2.302.495-5.8 1.07-10.483 1.765-4.682.69-9.945 1.032-15.786 1.032-3.877 0-7.449-.385-10.634-1.112-3.23-.726-5.953-1.917-8.26-3.566-2.265-1.648-4.03-3.76-5.336-6.363-1.27-2.607-1.922-6.29-1.922-10.124 0-3.682.732-6.02 2.154-8.554a18.153 18.153 0 0 1 5.873-6.21c2.497-1.607 5.336-2.76 8.602-3.45 3.266-.69 6.685-1.033 10.219-1.033 1.649 0 3.377.116 5.22.305 1.844.19 3.766.538 5.837 1.038v-2.455c0-1.727-.19-3.376-.612-4.909a10.51 10.51 0 0 0-2.154-4.103c-1.038-1.19-2.376-2.113-4.066-2.76-1.692-.654-3.846-1.149-6.416-1.149-3.456 0-6.606.422-9.487.917-2.881.5-5.262 1.074-7.069 1.727l-1.801-12.31c1.88-.653 4.682-1.3 8.296-1.954 3.608-.653 7.485-.995 11.636-.995zm-45.089-7.133c5.03 0 9.144-4.066 9.144-9.091 0-5.02-4.072-9.087-9.144-9.087-5.067 0-9.14 4.067-9.14 9.087 0 5.025 4.11 9.091 9.14 9.091zm7.564 74.193h-15.092V35.545l15.091-2.376v67.103zm-26.46 0c-24.614.116-24.614-19.864-24.614-23.045l-.043-74.846L411.51 0v74.387c0 1.807 0 13.232 9.64 13.27zm-48.813-33.127c0-6.485-1.423-11.889-4.187-15.645-2.765-3.798-6.642-5.673-11.599-5.673-4.951 0-8.835 1.875-11.595 5.673-2.765 3.793-4.113 9.16-4.113 15.645 0 6.558 1.386 10.961 4.151 14.76 2.766 3.834 6.642 5.714 11.6 5.714 4.95 0 8.833-1.917 11.598-5.715 2.765-3.835 4.145-8.201 4.145-14.76zm15.36-.037c0 5.062-.727 8.891-2.227 13.074-1.496 4.177-3.609 7.743-6.332 10.698-2.729 2.95-5.994 5.252-9.835 6.864-3.84 1.606-9.756 2.528-12.71 2.528-2.961-.037-8.834-.88-12.638-2.528-3.803-1.65-7.069-3.914-9.792-6.864-2.728-2.955-4.84-6.521-6.378-10.698-1.534-4.183-2.302-8.012-2.302-13.074 0-5.062.69-9.935 2.228-14.075 1.538-4.14 3.687-7.67 6.452-10.62 2.766-2.954 6.068-5.22 9.83-6.826 3.802-1.612 7.99-2.375 12.52-2.375 4.535 0 8.718.8 12.558 2.375 3.845 1.607 7.149 3.872 9.835 6.827 2.723 2.95 4.836 6.479 6.374 10.62 1.612 4.14 2.418 9.012 2.418 14.074zm-113.024 0c0 6.284 1.38 13.263 4.146 16.176 2.765 2.918 6.335 4.372 10.719 4.372 2.381 0 4.646-.342 6.757-.995 2.112-.653 3.8-1.422 5.148-2.339v-37.23c-1.074-.232-5.568-1.154-9.913-1.265-5.452-.158-9.597 2.07-12.515 5.631-2.883 3.571-4.34 9.819-4.34 15.65zm41.745 29.598c0 10.24-2.613 17.714-7.876 22.471-5.257 4.751-13.285 7.132-24.114 7.132-3.956 0-12.174-.769-18.742-2.223l2.418-11.888c5.494 1.148 12.752 1.459 16.555 1.459 6.026 0 10.33-1.228 12.9-3.682 2.576-2.455 3.84-6.095 3.84-10.93V96.59c-1.496.727-3.455 1.46-5.873 2.228-2.418.727-5.22 1.112-8.375 1.112-4.146 0-7.912-.654-11.325-1.96-3.419-1.301-6.38-3.218-8.797-5.752-2.418-2.528-4.34-5.71-5.684-9.508-1.343-3.798-2.038-10.582-2.038-15.565 0-4.678.732-10.546 2.155-14.46 1.458-3.908 3.53-7.285 6.336-10.082 2.767-2.797 6.147-4.946 10.103-6.52 3.956-1.57 8.597-2.566 13.627-2.566 4.883 0 9.376.611 13.754 1.343 4.377.727 8.1 1.49 11.135 2.334v59.512z"/>
</svg>
