<svg xmlns="http://www.w3.org/2000/svg" viewBox="0 0 255.992 126.982">
  <path d="M28.566 111.95c-1.071-.214-2.57-1.07-3.854-1.928-10.92-10.706 3.212-23.126 19.485-30.19V59.488c3.855 2.355 5.996 2.57 5.996 2.782l12.42-12.418-4.07-10.706C94.945 26.511 109.72 21.8 139.27 16.662l-5.353-4.925 8.565-4.925c19.913 6.638 38.756 8.35 35.546 25.053.856-11.35-13.277-15.632-34.69-21.627l-4.068 2.57 7.922 6.637C111.86 25.441 90.02 32.507 63.897 41.5l3.64 9.208-13.061 12.848c2.14.642 24.839 8.137 48.606-8.35l.428-.43c-.64-1.07-2.354-2.355-4.282-4.068 6.853.428 11.349 6.64 10.706 12.848h-3.212c.215-2.14-.213-4.283-.856-5.78-18.415 13.49-39.612 15.416-57.814 8.992v15.846c-8.78 2.998-24.41 12.634-24.41 22.055.64 4.497 2.997 6.21 4.924 7.28"/>
  <path fill="#f60" d="M102.89 107.924c-19.7 9.85-38.543 17.986-67.451 19.058-37.686-.857-43.682-25.91-25.694-52.033C26.66 48.611 53.425 24.63 96.039 9.64 108.457 5.357 126.445.217 144.003.004c25.266-.214 49.679 7.708 47.964 31.69-.856 18.63-27.622 44.753-41.54 63.382-5.996 8.137-7.067 13.49 3.212 13.062 37.257-2.356 71.09-15.417 102.353-28.692-21.2 14.346-131.046 68.734-131.475 31.69.213-4.71 2.356-9.636 5.782-14.99 3.426-5.354 8.35-10.92 13.276-16.487 7.492-8.565 26.122-28.905 32.332-41.112 10.493-23.126-13.06-24.412-33.403-31.477l-8.565 4.924 5.353 4.925c-29.55 4.926-44.324 9.636-80.726 22.27l4.067 10.707-12.42 12.418c-.427-.426-2.14-.426-5.994-2.782v20.342c-16.273 7.066-30.406 19.485-19.272 30.19 1.07.857 2.784 1.928 3.855 1.928 19.914 11.348 74.088-4.07 74.088-4.07"/>
</svg>
