<?xml version="1.0" encoding="UTF-8" standalone="no"?>
<svg xmlns="http://www.w3.org/2000/svg" version="1.1" viewBox="0 0 79.32 66.1">
  <path d="M32.54,40.46,15.19,36.68a3.67,3.67,0,0,1-2.84-3.42V14.57a3.66,3.66,0,0,1,2.84-3.43L32.54,7.37,34.4,0H14.18A12.89,12.89,0,0,0,1.3,12.83V35A12.89,12.89,0,0,0,14.18,47.82H34.4Z" fill="#373c41" />
  <path d="M47.32,40.46l17.35-3.78a3.67,3.67,0,0,0,2.84-3.42V14.57a3.67,3.67,0,0,0-2.84-3.43L47.32,7.37,45.46,0H65.69A12.87,12.87,0,0,1,78.56,12.83V35A12.88,12.88,0,0,1,65.69,47.82H45.45Z" fill="#373c41" />
  <rect height="1.84" width="14.77" y="22.99" x="32.54" fill="#373c41" />
  <path d="M63.17,66.09H62.11a2.4,2.4,0,0,1-2.4-2.4v-3.1a2.39,2.39,0,0,1,2.4-2.4h1.06a2.39,2.39,0,0,1,2.4,2.4v3.1a2.41,2.41,0,0,1-2.4,2.41m-1.06-6.54a1,1,0,0,0-1,1v3.1a1,1,0,0,0,1,1h1.06a1,1,0,0,0,1-1h0v-3.1a1,1,0,0,0-1-1Z" fill="#373c41" />
  <rect height="10.34" width="1.38" y="55.57" x="10.32" fill="#373c41" />
  <rect height="7.55" width="1.38" y="58.36" x="13.31" fill="#373c41" />
  <path d="M14,55.56a.93.93,0,1,0,.92.93.92.92,0,0,0-.92-.93h0" fill="#373c41" />
  <path d="M5.38,55.56H3.7A43.61,43.61,0,0,0,0,65.91H1.43c.25-.94.49-1.8.72-2.59h5c.23.79.47,1.65.71,2.59H9.33A42.93,42.93,0,0,0,5.62,55.56Zm-2.8,6.37a39.74,39.74,0,0,1,2-5H4.8a35.52,35.52,0,0,1,1.94,5Z" fill="#373c41" />
  <rect height="10.35" width="1.38" y="55.55" x="57.06" fill="#373c41" />
  <rect height="10.34" width="1.38" y="55.57" x="16.3" fill="#373c41" />
  <path d="M19.45,66.09a12.3,12.3,0,0,1-2.56-.33l.32-1.34c2.15.52,3.14.24,3.41,0a1.19,1.19,0,0,0,.3-1V61.1H22.3v2.34a2.48,2.48,0,0,1-.82,2.08,3.2,3.2,0,0,1-2,.57" fill="#373c41" />
  <path d="M22.3,63.05H20.92V60.71c0-.39,0-.71-.27-.9s-.95-.5-3.23,0l-.33-1.34c2.14-.53,3.58-.45,4.42.21a2.35,2.35,0,0,1,.79,2Z" fill="#373c41" />
  <path d="M55.41,64.25a8.14,8.14,0,0,1-4.43.27,1.1,1.1,0,0,1-.94-1V58.14a1.1,1.1,0,0,1,.94-1,8.19,8.19,0,0,1,4.47.29l.34-1.34a9.49,9.49,0,0,0-3.12-.51,8.58,8.58,0,0,0-2,.23,2.49,2.49,0,0,0-2,2.36V63.5a2.51,2.51,0,0,0,2,2.37,9.13,9.13,0,0,0,2,.22,9.46,9.46,0,0,0,3.08-.49Z" fill="#373c41" />
  <rect height="7.55" width="1.38" y="58.36" x="71.09" fill="#373c41" />
  <path d="M69.56,66.09a3.2,3.2,0,0,1-2-.57,2.48,2.48,0,0,1-.82-2.08V58.35h1.38v5.09c0,.42,0,.79.3,1s1.06.5,3.19,0l.33,1.34a10.4,10.4,0,0,1-2.35.33" fill="#373c41" />
  <rect height="10.34" width="1.38" y="55.57" x="77.95" fill="#373c41" />
  <path d="M76.45,66.09a3.17,3.17,0,0,1-2-.57,2.42,2.42,0,0,1-.82-2.08V61.1H75v2.34c0,.42,0,.79.3,1s1.06.5,3.2,0l.32,1.34a10.4,10.4,0,0,1-2.35.33" fill="#373c41" />
  <path d="M75,63.06H73.61V60.72a2.37,2.37,0,0,1,.78-2c.83-.66,2.27-.73,4.41-.21l-.32,1.34c-2.28-.55-3-.22-3.24,0a1.15,1.15,0,0,0-.27.9Z" fill="#373c41" />
  <path d="M28.4,58.67c-1.36-1-3.9-.24-4.52-.05L24.22,60c.79-.26,2.67-.67,3.38-.16a.74.74,0,0,1,.27.67v5.44h1.37V60.47a2.08,2.08,0,0,0-.85-1.8" fill="#373c41" />
  <path d="M25.9,66.09a2.36,2.36,0,0,1-2.58-1.8,2.29,2.29,0,0,1,.3-1.8,2.71,2.71,0,0,1,1.9-1.05,6.85,6.85,0,0,1,3.18.19l-.46,1.3a5.62,5.62,0,0,0-2.48-.14,1.51,1.51,0,0,0-1,.48,1,1,0,0,0-.09.74c0,.19.15.7,1.23.7a10.53,10.53,0,0,0,2.3-.26l.44,1.3a11.43,11.43,0,0,1-2.74.35" fill="#373c41" />
  <path d="M43,58.67c-1.36-1-3.91-.24-4.52-.05L38.79,60c.79-.26,2.67-.67,3.38-.16a.7.7,0,0,1,.26.67v5.44h1.38V60.47a2.11,2.11,0,0,0-.85-1.8" fill="#373c41" />
  <path d="M40.48,66.09a2.36,2.36,0,0,1-2.58-1.8,2.29,2.29,0,0,1,.3-1.8,2.71,2.71,0,0,1,1.9-1.05,6.85,6.85,0,0,1,3.18.19l-.46,1.3a5.63,5.63,0,0,0-2.48-.14,1.56,1.56,0,0,0-1,.48,1,1,0,0,0-.08.74c0,.19.14.7,1.23.7a10.53,10.53,0,0,0,2.3-.26l.44,1.3a11.08,11.08,0,0,1-2.75.34" fill="#373c41" />
  <rect height="10.34" width="1.38" y="55.57" x="30.87" fill="#373c41" />
  <path d="M34,66.09a12.3,12.3,0,0,1-2.56-.33l.32-1.34c2.14.52,3.14.24,3.41,0a1.19,1.19,0,0,0,.3-1V61.1h1.37v2.34A2.48,2.48,0,0,1,36,65.52a3.17,3.17,0,0,1-2,.57" fill="#373c41" />
  <path d="M36.86,63.05H35.49V60.71c0-.39,0-.71-.27-.9s-1-.5-3.24,0l-.32-1.34c2.14-.53,3.58-.45,4.41.21a2.31,2.31,0,0,1,.78,2Z" fill="#373c41" />
</svg>
