<svg xmlns="http://www.w3.org/2000/svg" viewBox="0 0 149.369 37.664">
  <path d="M0 0h-71.95c-9.37 0-16.958-7.655-16.958-17.104v-72.559c0-9.443 7.588-17.101 16.958-17.101H0c9.368 0 16.952 7.658 16.952 17.101v72.559C16.952-7.655 9.368 0 0 0" style="fill:#1677ff;fill-opacity:1;fill-rule:nonzero;stroke:none" transform="matrix(.35278 0 0 -.35278 31.365 0)"/>
  <path d="M0 0c-16.469 0-21.338 13.083-13.199 20.241 2.716 2.419 7.679 3.6 10.325 3.865 9.783.975 18.839-2.789 29.526-8.05C19.14 6.173 9.572 0 0 0m58.554 15.064c-4.236 1.431-9.92 3.619-16.251 5.929 3.802 6.666 6.839 14.257 8.835 22.507H30.271v7.58h25.562v4.231H30.271v12.636H19.839c-1.83 0-1.83-1.822-1.83-1.822V55.311H-7.844V51.08h25.853V43.5H-3.336v-4.23h41.398a74.777 74.777 0 0 0-5.963-14.696c-13.433 4.47-27.767 8.093-36.772 5.863-5.759-1.431-9.468-3.985-11.647-6.661C-26.321 11.504-19.148-7.136 1.973-7.136c12.488 0 24.518 7.022 33.842 18.594C49.722 4.716 77.256-6.86 77.256-6.86V9.638s-3.458.278-18.702 5.426" style="fill:#fff;fill-opacity:1;fill-rule:nonzero;stroke:none" transform="matrix(.35278 0 0 -.35278 10.091 28.964)"/>
  <path d="M0 0c0-5.523 4.036-9.241 9.666-9.241 5.63 0 9.666 3.718 9.666 9.241 0 5.417-4.036 9.242-9.666 9.242C4.036 9.242 0 5.417 0 0" style="fill:#1677ff;fill-opacity:1;fill-rule:nonzero;stroke:none" transform="matrix(.35278 0 0 -.35278 81.092 5.514)"/>
  <path d="M58.121 115.077h5.92V87.722h-5.92z" style="fill:#000;fill-opacity:1;fill-rule:nonzero;stroke:none;stroke-width:.352778" transform="translate(13.452 -84.644)"/>
  <path d="m0 0 9.984 34.522h.426L19.864 0zm24.432 48.012H1.912l-25.175-74.887h15.509l4.249 14.659h26.662l4.035-14.659h19.865z" style="fill:#000;fill-opacity:1;fill-rule:nonzero;stroke:none" transform="matrix(.35278 0 0 -.35278 52.575 20.952)"/>
  <path d="M68.089 115.077h5.92V94.992h-5.92z" style="fill:#000;fill-opacity:1;fill-rule:nonzero;stroke:none;stroke-width:.352778" transform="translate(13.452 -84.644)"/>
  <path d="m0 0 .105.106h-15.827l-9.984-34.628h-.531L-37.709.106h-18.803l22.627-57.148-9.454-17.42v-.425h14.765z" style="fill:#000;fill-opacity:1;fill-rule:nonzero;stroke:none" transform="matrix(.35278 0 0 -.35278 149.332 10.385)"/>
  <path d="M0 0c-1.911 0-3.718.212-5.735.85v30.804c3.505 2.443 6.373 3.612 9.984 3.612 6.268 0 11.26-4.993 11.26-15.615C15.509 6.055 8.18 0 0 0m10.623 48.331c-6.161 0-10.941-2.337-16.358-6.798v5.63H-22.52V-27.83h16.785v18.589c3.186-.85 6.16-1.275 9.772-1.275 14.977 0 28.468 11.047 28.468 30.698 0 17.633-9.774 28.149-21.882 28.149" style="fill:#000;fill-opacity:1;fill-rule:nonzero;stroke:none" transform="matrix(.35278 0 0 -.35278 98.442 26.986)"/>
  <path d="M0 0c-4.461-2.443-7.012-3.399-9.984-3.399-4.037 0-6.586 2.655-6.586 6.904 0 1.594.318 3.187 1.592 4.461 2.019 2.019 5.95 3.506 14.978 5.63zm16.783.425v23.793c0 12.96-7.647 20.076-21.137 20.076-8.605 0-14.553-1.486-25.388-4.779l2.973-13.066c9.879 4.462 14.235 6.374 18.803 6.374 5.524 0 7.966-3.93 7.966-9.985v-.425c-19.227-3.612-25.175-5.63-28.893-9.348-2.761-2.762-3.929-6.692-3.929-11.259 0-10.941 8.498-16.784 16.465-16.784 5.948 0 10.727 2.231 17.208 7.118l1.168-5.949h16.783z" style="fill:#000;fill-opacity:1;fill-rule:nonzero;stroke:none" transform="matrix(.35278 0 0 -.35278 122.314 25.562)"/>
</svg>
