<svg xmlns="http://www.w3.org/2000/svg" viewBox="0 0 256 287.644">
  <path fill="#33363b" d="M128.042 254.792 31.85 199.254V88.324l96.112-55.493 96.189 55.536v110.935zM236.344 81.328 127.962 18.751 19.656 81.283v125.01l108.386 62.578 108.302-62.529z"/>
  <path fill="#7ebc59" d="M47.862 97.546c-7.05 12.267-22.77 16.454-35.037 9.402C.558 99.897-3.629 84.178 3.423 71.91c7.051-12.267 22.771-16.453 35.037-9.402 12.267 7.125 16.454 22.77 9.402 35.037M208.138 97.546c-7.052-12.267-2.865-27.912 9.401-35.037 12.268-7.051 27.913-2.865 35.038 9.402 7.051 12.267 2.865 27.912-9.402 35.037-12.266 7.052-27.986 2.865-35.037-9.402M128 287.644c-14.176 0-25.635-11.46-25.635-25.636 0-14.177 11.459-25.635 25.635-25.635 14.177 0 25.635 11.458 25.635 25.635 0 14.104-11.458 25.636-25.635 25.636"/>
  <path fill="#368cbf" d="M120.863 50.259a25.696 25.696 0 0 0 14.296-.006l77.422 134.094a25.463 25.463 0 0 0-4.517 5.75 25.675 25.675 0 0 0-2.694 6.758H50.633a25.704 25.704 0 0 0-2.697-6.758 25.82 25.82 0 0 0-4.51-5.718zm122.239 130.437c-6.285-3.614-13.473-4.27-19.94-2.408l-77.44-134.126a25.551 25.551 0 0 0 7.913-18.527C153.635 11.458 142.177 0 128 0c-14.176 0-25.635 11.458-25.635 25.635a25.55 25.55 0 0 0 7.93 18.542l-77.44 134.125c-6.47-1.879-13.657-1.228-19.956 2.394-12.267 7.125-16.453 22.77-9.402 35.037 7.052 12.266 22.697 16.453 35.037 9.401A25.659 25.659 0 0 0 50.6 209.048h154.794c1.61 6.554 5.772 12.464 12.073 16.086 12.266 7.052 27.986 2.865 35.037-9.401 7.125-12.267 2.938-27.912-9.402-35.037z"/>
</svg>
