<svg xmlns="http://www.w3.org/2000/svg" viewBox="0 0 255.288 255.176">
  <path fill="#c9ebec" d="m157.634 100.015 10.727 23.44V94.62z"/>
  <path fill="#c9ebec" d="m168.36 94.62 26.6 8.816 44.519-44.506zM159.394 153.45l20.38-20.38 12.576 25.038h62.938l-86.927-28.822-8.992 24.19z"/>
  <path fill="#00868c" d="m255.288 123.442-60.328-20.006-26.6-8.816v28.822z"/>
  <path fill="#00b3bb" d="m168.36 129.286 86.928 28.822v-34.666h-86.927v.012z"/>
  <path fill="#c9ebec" d="m151.79 194.86 44.556 44.569-41.073-81.858-23.327 10.69h28.66z"/>
  <path fill="#00868c" d="m192.35 158.108-12.576-25.038-20.38 20.38 61.453 61.465z"/>
  <path fill="#00b3bb" d="m155.273 157.571 41.073 81.858 24.5-24.514-61.452-61.465-.025.025z"/>
  <path fill="#c9ebec" d="m122.156 179.675-25.038 12.562v62.939l28.834-86.915-24.201-9.004.025.037z"/>
  <path fill="#00868c" d="m131.784 255.176 20.005-60.316 8.817-26.6h-28.822z"/>
  <path fill="#00b3bb" d="M97.118 255.176h34.666V168.26h-5.832z"/>
  <path fill="#c9ebec" d="m86.915 160.556-26.599-8.83-44.506 44.52zM97.655 155.161l-10.74-23.44v28.835z"/>
  <path fill="#00868c" d="m97.118 192.237 25.038-12.562-20.38-20.38-61.465 61.452z"/>
  <path fill="#00b3bb" d="m97.655 155.161-10.74 5.395-71.105 35.69 24.5 24.5 61.466-61.452-.025-.037z"/>
  <path fill="#c9ebec" d="M75.501 122.106 62.94 97.068H0l86.915 28.822 9.004-24.202-.025.038z"/>
  <path fill="#00868c" d="M86.915 131.721H0l60.316 20.006 26.6 8.829z"/>
  <path fill="#00b3bb" d="M86.915 125.89 0 97.068v34.653h86.915z"/>
  <path fill="#c9ebec" d="M103.499 60.316 58.942 15.747l41.073 81.845 23.327-10.677H94.67z"/>
  <path fill="#00868c" d="M62.939 97.068 75.5 122.106l20.393-20.38L34.429 40.26z"/>
  <path fill="#00b3bb" d="M100.015 97.592 58.942 15.747 34.43 40.261l61.465 61.465.025-.038z"/>
  <path fill="#c9ebec" d="m133.12 75.501 25.038-12.562V0l-28.822 86.915 24.202 8.991-.038-.025z"/>
  <path fill="#00868c" d="M123.504 0 103.5 60.316l-8.829 26.6h28.834z"/>
  <path fill="#00b3bb" d="M158.158 0h-34.654v86.915h5.832z"/>
  <path fill="#00868c" d="M158.158 62.939 133.12 75.5l20.38 20.38 61.465-61.452z"/>
  <path fill="#00b3bb" d="m157.634 100.015 10.727-5.395 71.118-35.69-24.514-24.501L153.5 95.88l.038.025z"/>
</svg>
