<svg xmlns="http://www.w3.org/2000/svg" viewBox="0 0 256 234.707">
  <path fill="#26bf95" d="M246.774 71.523c-5.923-14.036-14.406-26.621-25.21-37.404C199.51 12.11 170.159 0 138.88 0h-.24c-20.889.041-41.868 6.078-60.669 17.457C60.225 28.198 45.425 43.298 36.3 59.977a2.921 2.921 0 0 0 5.124 2.803c8.638-15.789 22.692-30.111 39.572-40.327C98.89 11.624 118.826 5.879 138.652 5.84h.228c29.718 0 57.608 11.506 78.558 32.413 21.101 21.059 32.721 49.151 32.721 79.101 0 29.786-11.599 57.789-32.66 78.851-21.063 21.062-49.066 32.662-78.853 32.662-19.752 0-39.158-5.232-56.119-15.129a112.196 112.196 0 0 1-39.98-39.78 2.92 2.92 0 1 0-5.029 2.968 118.044 118.044 0 0 0 42.066 41.857c17.853 10.417 38.276 15.924 59.062 15.924 31.346 0 60.816-12.207 82.981-34.372C243.793 178.169 256 148.7 256 117.354c0-15.905-3.104-31.324-9.227-45.831M13.628 84.137h36.866a2.92 2.92 0 0 0 0-5.84H13.627a2.92 2.92 0 1 0 0 5.84m24.335 34.92a2.92 2.92 0 0 0-2.92-2.92H2.92a2.92 2.92 0 1 0 0 5.84h32.122a2.92 2.92 0 0 0 2.92-2.92m12.41 37.84a2.92 2.92 0 0 0-2.92-2.92H8.032a2.92 2.92 0 1 0 0 5.84h39.422a2.92 2.92 0 0 0 2.92-2.92m26.02-61.24a2.919 2.919 0 0 0 2.412-3.358c-2.161-13.068.027-24.69 6.33-33.615 5.54-7.845 14.139-13.399 24.21-15.637 19.883-4.418 43.788 4.577 51.007 30.32a2.919 2.919 0 0 0 4.037 1.861c8.068-3.729 16.286-3.993 23.144-.742 6.988 3.313 12.065 9.894 14.294 18.532a2.92 2.92 0 0 0 2.307 2.144c19.03 3.444 27.039 17.99 26.533 30.877-.27 6.857-2.888 13.34-7.374 18.253-4.982 5.458-12.066 8.804-20.491 9.684h-32.125a2.92 2.92 0 0 0-1.99.784l-48.96 45.587v-43.815a2.92 2.92 0 0 0-2.92-2.92H77.523c-7.846-.594-14.553-3.8-19.4-9.276-4.427-5.004-7.038-11.609-7.35-18.6-.31-6.978 1.728-13.707 5.739-18.946 4.517-5.9 11.392-9.749 19.882-11.133m-31.455 30.34c.67 15.03 11.053 31.907 32.265 33.447.07.005.14.008.21.008h36.472v47.604a2.921 2.921 0 0 0 4.91 2.138l53.03-49.377h31.125c.098 0 .196-.005.294-.015 22.152-2.235 32.666-18.453 33.258-33.534.328-8.37-2.286-16.56-7.362-23.063-5.283-6.766-12.917-11.384-22.161-13.427-2.897-9.475-8.863-16.738-16.946-20.57-7.561-3.583-16.345-3.757-25.035-.552-4.094-11.903-11.807-21.127-22.454-26.797-10.401-5.538-22.641-7.14-34.466-4.513-11.492 2.554-21.335 8.936-27.714 17.97-6.742 9.544-9.392 21.641-7.728 35.125-19.996 4.538-28.353 20.845-27.698 35.555m48.186-15.454c4.629 0 8.396 3.766 8.396 8.395s-3.767 8.396-8.396 8.396c-4.63 0-8.396-3.767-8.396-8.396 0-4.629 3.767-8.395 8.396-8.395m34.044-25.077c4.629 0 8.395 3.766 8.395 8.395 0 4.63-3.766 8.396-8.395 8.396-4.63 0-8.396-3.766-8.396-8.396 0-4.629 3.767-8.395 8.396-8.395m28.354 48.569c0 4.63-3.766 8.396-8.396 8.396-4.63 0-8.395-3.766-8.395-8.396 0-4.629 3.766-8.395 8.395-8.395 4.63 0 8.396 3.766 8.396 8.395m23.824-34.201c4.629 0 8.395 3.766 8.395 8.395s-3.766 8.395-8.395 8.395c-4.63 0-8.396-3.766-8.396-8.395s3.766-8.395 8.396-8.395m-86.222 33.34c7.85 0 14.236-6.386 14.236-14.236 0-2-.417-3.905-1.165-5.634l11.23-9.077a14.181 14.181 0 0 0 11.99 3.691l7.644 16.063a14.19 14.19 0 0 0-4.168 10.054c0 7.85 6.386 14.236 14.235 14.236 7.85 0 14.236-6.386 14.236-14.236 0-2.388-.594-4.64-1.638-6.619l10.568-8.209a14.172 14.172 0 0 0 9.054 3.257c7.849 0 14.235-6.385 14.235-14.235s-6.386-14.236-14.235-14.236c-7.85 0-14.236 6.386-14.236 14.236 0 2.308.555 4.487 1.534 6.417l-10.646 8.268a14.167 14.167 0 0 0-8.872-3.114 14.16 14.16 0 0 0-5.132.961l-7.111-14.945c3.92-2.539 6.52-6.947 6.52-11.955 0-7.849-6.385-14.235-14.235-14.235s-14.236 6.386-14.236 14.235c0 1.976.405 3.859 1.136 5.57l-11.252 9.094a14.177 14.177 0 0 0-9.692-3.822c-7.85 0-14.236 6.385-14.236 14.235s6.386 14.236 14.236 14.236"/>
</svg>
