<svg xmlns="http://www.w3.org/2000/svg" viewBox="0 0 256 255.999">
  <path fill="#1d5fe6" d="M127.963 0c70.949.559 127.791 55.473 128.036 129.303.223 67.678-55.06 128.154-131.254 126.67C55.245 254.618-1.523 198.006.03 124.088 1.403 58.802 54.668.675 127.963 0zm-26.96 147.357c4.551 0 9.104.01 13.655-.005 2.176-.007 3.539.486 3.032 3.214-1.116 5.999-2.03 12.034-3.01 18.055-1.847 11.351-3.688 22.703-5.523 34.055-.176 1.082-.741 2.238.653 2.985 2.372 1.269 8.86-.347 10.201-2.587 17.007-28.38 34.006-56.765 50.995-85.156 3.53-5.905 1.678-9.098-5.246-9.149-7.965-.057-15.931-.057-23.897 0-2.474.014-4.155-.313-3.559-3.55 1.777-9.629 3.4-19.285 5.028-28.942 1.273-7.56 2.492-15.128 3.659-22.706.174-1.13.862-2.53-.98-3.2a9.641 9.641 0 0 0-10.535 3.657 80689.308 80689.308 0 0 0-39.218 65.381c-3.942 6.577-8.003 13.085-11.759 19.768-2.815 5.005-.967 8.105 4.558 8.165 3.981.043 7.965.01 11.948.017z"/>
</svg>
