<svg xmlns="http://www.w3.org/2000/svg" viewBox="0 0 511.595 163.604">
  <path fill="#1d5fe6" d="M81.778 0c45.342.357 81.67 35.451 81.826 82.635.142 43.251-35.188 81.9-83.882 80.952C35.305 162.72-.974 126.542.02 79.302.897 37.58 34.937.432 81.778 0zM64.55 94.173c2.909 0 5.818.007 8.726-.003 1.391-.005 2.262.31 1.938 2.053-.713 3.834-1.297 7.691-1.924 11.54-1.18 7.253-2.357 14.508-3.529 21.763-.112.691-.474 1.43.417 1.907 1.516.811 5.663-.221 6.52-1.652 10.868-18.138 21.732-36.278 32.59-54.422 2.255-3.774 1.072-5.814-3.353-5.847-5.09-.036-10.182-.036-15.273 0-1.58.009-2.655-.2-2.274-2.269 1.136-6.153 2.173-12.325 3.213-18.496a1037.71 1037.71 0 0 0 2.339-14.51c.111-.723.55-1.617-.626-2.047a6.161 6.161 0 0 0-6.733 2.338 51546.811 51546.811 0 0 0-25.063 41.784c-2.52 4.203-5.115 8.362-7.515 12.633-1.8 3.199-.618 5.18 2.912 5.218 2.545.028 5.09.006 7.636.011z"/>
  <path fill="#1d60e6" d="M374.141 98.005c5.112-13.325 10.048-26.168 14.962-39.017 2.781-7.275 5.559-14.552 8.258-21.855a2.952 2.952 0 0 1 3.265-2.154c7.638.065 15.278.085 22.916-.011 2.177-.026 2.755.775 2.751 2.875-.058 29.091-.057 58.183.002 87.274.004 2.072-.646 2.63-2.654 2.59-5.909-.12-11.824-.155-17.73.012-2.396.068-3.107-.62-3.09-3.044.109-15.908.07-31.817.072-47.727a4.59 4.59 0 0 0-.573-2.458c-1.682 4.806-3.376 9.607-5.042 14.418-4.177 12.06-8.392 24.11-12.462 36.208-.709 2.102-1.764 2.679-3.89 2.602-4.722-.171-9.466-.246-14.179.024-2.556.147-3.453-.95-4.179-3.076-4.825-14.129-9.733-28.231-14.622-42.339-.905-2.612-1.838-5.214-2.795-7.918-.963.863-.67 1.822-.67 2.686.002 15.909-.022 31.818.084 47.726.015 2.257-.594 2.958-2.887 2.897-5.998-.158-12.003-.104-18.004-.02-1.687.025-2.422-.333-2.419-2.218.05-29.272.05-58.545.002-87.818-.003-2.056.802-2.694 2.745-2.68 7.638.059 15.278.07 22.916-.01a3.144 3.144 0 0 1 3.404 2.372c7.473 19.34 14.985 38.665 22.534 57.974.293.75.693 1.458 1.285 2.688zm-107.83-62.999c3.544 0 7.094.103 10.632-.04a3.065 3.065 0 0 1 3.384 2.408 18143.598 18143.598 0 0 0 17.189 46.888c4.974 13.5 10 26.982 14.984 40.48 1.074 2.903 1.038 2.92-2.078 2.922-6.363.003-12.73-.098-19.088.058-2.032.049-2.84-.68-3.405-2.504-1.256-4.062-2.812-8.031-4.061-12.095a2.904 2.904 0 0 0-3.308-2.384c-9.726.079-19.453.078-29.18-.003a2.773 2.773 0 0 0-3.095 2.29c-1.347 4.226-2.857 8.4-4.24 12.615-.438 1.329-.978 2.09-2.619 2.067a690.758 690.758 0 0 0-20.18-.011c-2.122.026-2.175-.693-1.528-2.427 5.153-13.82 10.231-27.667 15.33-41.507 5.723-15.541 11.471-31.074 17.128-46.638a2.84 2.84 0 0 1 3.226-2.147c3.634.092 7.272.028 10.908.028zm-.193 58.025c2.907 0 5.817-.062 8.723.024 1.614.048 2.159-.356 1.577-2.03-3.171-9.136-6.28-18.293-9.42-27.44-.186-.54.035-1.464-.897-1.402-.581.04-.701.707-.885 1.24a6947.51 6947.51 0 0 1-9.53 27.706c-.52 1.5-.083 1.957 1.439 1.922 2.996-.069 5.995-.02 8.993-.02zm174.757-11.823c0-14.538.05-29.077-.052-43.615-.016-2.359.596-3.15 3.037-3.108 12.99.219 25.996-.356 38.977.357 14.915.819 27.026 9.78 28.552 26.208 1.02 10.985-1.632 20.323-10.423 27.388-5.888 4.73-12.942 6.387-20.274 6.845-4.618.289-9.27.178-13.902.055-2.036-.055-2.794.345-2.755 2.63.156 8.994.008 17.992.106 26.986.023 2.118-.565 2.818-2.759 2.762-5.995-.15-11.992-.15-17.993.002-2.115.053-2.566-.648-2.555-2.623.075-14.629.04-29.257.04-43.887zm23.224-16.215c0 3.271.064 6.543-.028 9.811-.044 1.539.456 2.089 2.022 2.033 3.086-.11 6.186.095 9.266-.085 9.585-.561 13.336-4.878 12.47-14.16a9.605 9.605 0 0 0-7.538-8.584c-4.936-1.217-9.947-.403-14.918-.652-1.412-.07-1.286.89-1.281 1.825.015 3.271.005 6.542.008 9.812z"/>
</svg>
