<svg xmlns="http://www.w3.org/2000/svg" viewBox="0 0 255.487 297.584">
  <path fill="#e7168e" d="m124.444 131.966 51.6 62.42 1.715-1.715c5.542-5.939 10.821-11.877 15.704-17.816 4.882-5.938 17.815-19.53 22.302-25.733l20.19 36.95c-3.43 4.883-8.05 10.822-13.592 17.42-5.542 6.598-12.14 14.253-20.19 22.698l53.314 65.852h-53.974l-28.637-35.235c-26.13 27.185-53.71 40.777-81.951 40.777-25.47 0-46.98-8.05-64.796-24.414C8.71 256.807 0 236.616 0 212.598c0-28.637 13.593-52.655 41.437-71.394l18.872-12.933c.396 0 .66-.396 1.451-1.055.66-.396 1.452-1.056 2.376-2.112-18.872-20.19-28.637-40.118-28.637-59.649 0-19.53 6.334-35.235 18.871-47.376C67.303 5.94 83.93 0 104.517 0c19.927 0 35.895 5.938 48.828 17.815 12.933 11.877 19.531 26.79 19.531 44.605 0 12.537-3.431 23.754-10.425 33.783-7.39 9.634-19.927 21.907-38.007 35.763zM90.001 156.38l-2.375 1.716c-17.816 12.14-29.957 22.302-36.291 29.56-6.334 7.258-9.37 15.308-9.37 23.754 0 11.877 4.883 22.962 14.253 32.728 9.765 9.37 20.85 14.252 32.727 14.252 16.76 0 35.895-10.821 57.802-32.727zm9.37-54.634 3.43-2.771a445.125 445.125 0 0 0 15.045-11.877c3.827-3.431 6.994-6.335 8.71-8.71 3.827-4.487 5.542-10.161 5.542-17.024 0-7.654-2.375-13.592-7.654-18.475-5.278-4.883-11.877-6.994-20.586-6.994-7.655 0-14.253 2.375-19.927 7.258-5.279 4.487-8.05 10.425-8.05 17.815 0 8.314 3.43 16.76 10.161 25.074l10.821 12.933c.396.264 1.056 1.32 2.508 2.771z"/>
  <path fill-opacity=".1" d="M87.526 2.108C76.045 8.046 77.496 7.65 69.579 17.944c-41.834 55.03-.924 92.64 16.1 112.83L69.447 141.86c-10.03 6.862-20.191 13.725-28.637 22.434-8.578 8.71-15.44 19.267-17.816 31.144-1.979 9.898-1.187 20.323 1.452 29.957 15.044 55.953 62.816 53.182 78.256 64.4-4.75 8.313-15.704 2.507-25.205 4.222-9.502 1.716-11.745-1.055-20.983-3.827-27.581-8.314-47.508-27.977-53.842-56.085-9.634-42.098 11.349-65.852 11.349-65.852s4.619-9.501 21.774-23.622c1.056-.923 27.713-17.947 28.109-19.267.66-1.715-13.065-14.516-15.572-20.19-3.3-7.39-13.065-20.983-13.065-38.007.132-24.81 9.634-56.35 51.6-65.983zm3.035 155.456c3.827-3.563 5.41-4.883 10.162-7.258 19.399 21.774 35.895 42.361 54.106 66.247-4.487 3.167-8.182 9.106-8.182 9.106zm33.256 128.271c18.211-10.293 33.915-25.205 45.264-42.757.66-1.055 1.584-2.375 2.904-2.507 1.32-.132 2.507 1.056 3.43 1.98 13.065 15.044 20.983 25.6 31.937 42.36-5.411 3.036-2.64 2.772-8.842 2.376-3.035-.132-24.546-31.276-26.13-29.956-8.71 7.918-29.428 32.331-48.827 28.636zm106.76-109.532c-10.82 12.801-21.114 25.47-31.54 38.666-.395.528-.923 1.188-1.055 1.98-.132 1.188 2.903 6.994 4.487 8.842 8.182-8.842 16.76-17.948 23.49-26.658 3.167-3.959 9.37-12.8 10.03-13.196-.397-.264-5.147-9.37-5.411-9.634zM98.084 101.214c4.091 4.487 8.182 8.842 12.273 13.329 15.176-8.842 26.262-24.546 29.56-41.833.792-3.96 1.056-8.182.529-12.141-1.584-11.35-11.35-20.455-22.567-22.17 6.73 3.694 10.954 8.181 13.197 14.516 2.375 6.334 1.584 13.988-1.452 20.059-1.715 3.563-4.355 6.466-6.994 9.501-6.73 7.39-13.856 11.877-22.83 19.4z"/>
</svg>
