<svg xmlns="http://www.w3.org/2000/svg" viewBox="0 0 255.275 299.762">
  <path fill="#fff" d="M78.389 0a8.824 8.824 0 0 0-4.19 1.089C69.98 3.427 68.434 8.846 70.77 13.06l9.523 17.196C57.35 44.453 42.147 68.7 42.147 96.375v5.142c-4.407-5.07-10.884-8.271-18.121-8.271C10.766 93.246 0 104.012 0 117.27v74.008c0 13.26 10.767 24.026 24.026 24.026 7.237 0 13.714-3.202 18.12-8.272V217.4c0 13.977 11.437 25.413 25.414 25.413h6.448v32.923c0 13.26 10.767 24.026 24.026 24.026s24.025-10.767 24.025-24.026v-32.923h11.156v32.923c0 13.26 10.767 24.026 24.026 24.026s24.025-10.767 24.025-24.026v-32.923h6.449c13.976 0 25.413-11.436 25.413-25.413v-10.367c4.406 5.07 10.884 8.272 18.121 8.272 13.259 0 24.026-10.767 24.026-24.026v-74.008c0-13.259-10.767-24.025-24.026-24.025-7.237 0-13.715 3.201-18.121 8.271V97c.002-.26 0-.468 0-.625 0-27.67-15.238-51.894-38.174-66.091l9.55-17.223c2.336-4.215.79-9.634-3.428-11.972A8.824 8.824 0 0 0 176.886 0c-3.115-.03-6.172 1.612-7.782 4.517l-9.986 18.04c-9.764-3.604-20.388-5.578-31.48-5.578-11.082 0-21.726 1.954-31.482 5.55L86.171 4.517C84.56 1.612 81.504-.029 78.389 0z"/>
  <path fill="#a4c639" d="M24.026 99.504c-9.894 0-17.767 7.873-17.767 17.767v74.008c0 9.895 7.873 17.768 17.767 17.768 9.894 0 17.768-7.873 17.768-17.768v-74.008c0-9.894-7.874-17.767-17.768-17.767zm207.224 0c-9.895 0-17.768 7.873-17.768 17.767v74.008c0 9.895 7.873 17.768 17.768 17.768 9.894 0 17.767-7.873 17.767-17.768v-74.008c0-9.894-7.873-17.767-17.767-17.767zM98.034 183.96c-9.894 0-17.768 7.873-17.768 17.767v74.009c0 9.894 7.874 17.767 17.768 17.767 9.894 0 17.767-7.873 17.767-17.767v-74.009c0-9.894-7.873-17.767-17.767-17.767zm59.207 0c-9.895 0-17.768 7.873-17.768 17.767v74.009c0 9.894 7.873 17.767 17.768 17.767 9.894 0 17.767-7.873 17.767-17.767v-74.009c0-9.894-7.873-17.767-17.767-17.767z"/>
  <path fill="#a4c639" d="M78.443 6.258a2.47 2.47 0 0 0-1.197.327c-1.267.702-1.683 2.158-.98 3.428l12.517 22.611c-24.08 12.53-40.346 36.341-40.378 63.669H206.87c-.033-27.328-16.298-51.14-40.378-63.669l12.516-22.61c.704-1.27.287-2.727-.98-3.429a2.467 2.467 0 0 0-1.197-.327c-.9-.008-1.751.441-2.231 1.307L161.92 30.42c-10.372-4.6-22.006-7.183-34.283-7.183-12.277 0-23.91 2.582-34.283 7.183L80.674 7.565a2.486 2.486 0 0 0-2.23-1.307zm-30.038 96.293v114.85a19.113 19.113 0 0 0 19.155 19.154h120.155A19.113 19.113 0 0 0 206.87 217.4V102.551z"/>
  <path fill="#fff" d="M91.068 54.065c-3.617 0-6.612 2.994-6.612 6.611 0 3.618 2.995 6.612 6.612 6.612 3.618 0 6.612-2.994 6.612-6.612 0-3.617-2.994-6.611-6.612-6.611zm73.138 0c-3.618 0-6.612 2.994-6.612 6.611 0 3.618 2.994 6.612 6.612 6.612 3.617 0 6.612-2.994 6.612-6.612 0-3.617-2.995-6.611-6.612-6.611z"/>
</svg>
