<svg xmlns="http://www.w3.org/2000/svg" viewBox="0 0 511.488 110.587">
  <g fill="#77c159">
    <path d="M0 69.39c0-5.783.968-11.178 2.904-16.186 1.936-5.007 4.646-9.37 8.131-13.087 3.485-3.717 7.654-6.634 12.507-8.75 4.853-2.117 10.17-3.176 15.952-3.176 4.389 0 8.377.646 11.965 1.936 3.588 1.291 7.06 3.408 10.415 6.35V29.74h19.67v79.299h-19.67V102.3c-3.355 2.943-6.827 5.06-10.415 6.35-3.588 1.291-7.576 1.936-11.965 1.936-5.782 0-11.1-1.058-15.952-3.175-4.853-2.116-9.022-5.033-12.507-8.75-3.485-3.717-6.195-8.08-8.131-13.088C.968 80.567 0 75.172 0 69.39zm42.05 22.69c1.549 0 3.175-.168 4.879-.504 1.703-.336 3.42-.904 5.15-1.704 1.729-.8 3.42-1.871 5.072-3.214 1.652-1.342 3.226-2.994 4.723-4.956V57.076c-1.497-1.961-3.071-3.6-4.723-4.917-1.653-1.316-3.343-2.388-5.073-3.214-1.73-.826-3.446-1.407-5.15-1.742-1.703-.336-3.33-.503-4.878-.504-3.046 0-5.899.568-8.557 1.704-2.66 1.136-4.97 2.724-6.931 4.763-1.962 2.039-3.498 4.44-4.608 7.202-1.11 2.762-1.665 5.769-1.665 9.021 0 3.253.555 6.26 1.665 9.022 1.11 2.762 2.646 5.163 4.608 7.202 1.962 2.04 4.272 3.627 6.93 4.763 2.66 1.135 5.512 1.703 8.558 1.703zM130.714 47.767c-9.32.068-17.416 6.563-17.416 16.202v45.07h-19.67V64.51c.11-18.568 16.19-36.07 36.804-36.32h.55c20.615.25 36.695 17.752 36.805 36.32v44.528h-19.67v-45.07c0-9.639-8.096-16.134-17.417-16.202M177.098 69.39c0-5.783.968-11.178 2.904-16.186 1.936-5.007 4.647-9.37 8.131-13.087 3.485-3.717 7.654-6.634 12.507-8.75 4.853-2.117 10.17-3.176 15.953-3.176 4.388 0 8.389.646 12.003 1.936 3.614 1.291 7.073 3.382 10.377 6.273V5.966h19.67V109.04h-19.67v-6.66c-3.304 2.942-6.763 5.046-10.377 6.311-3.614 1.265-7.615 1.897-12.003 1.897-5.783 0-11.1-1.058-15.953-3.175-4.853-2.116-9.022-5.033-12.507-8.75-3.484-3.717-6.195-8.08-8.13-13.088-1.937-5.007-2.905-10.402-2.905-16.185zm42.05 22.69c1.549 0 3.175-.168 4.879-.504 1.703-.336 3.42-.904 5.15-1.704 1.729-.8 3.42-1.871 5.072-3.214 1.652-1.342 3.226-2.994 4.724-4.956V57.076c-1.498-1.961-3.072-3.6-4.724-4.917-1.652-1.316-3.343-2.388-5.072-3.214-1.73-.826-3.447-1.407-5.15-1.742-1.704-.336-3.33-.503-4.879-.504-3.046 0-5.898.568-8.557 1.704-2.659 1.136-4.97 2.724-6.93 4.763-1.963 2.039-3.499 4.44-4.609 7.202-1.11 2.762-1.664 5.769-1.664 9.021 0 3.253.554 6.26 1.664 9.022 1.11 2.762 2.646 5.163 4.608 7.202 1.962 2.04 4.272 3.627 6.931 4.763 2.659 1.135 5.511 1.703 8.557 1.703zM350.755 92.08c2.943 0 5.718-.556 8.325-1.666a20.48 20.48 0 0 0 6.815-4.685c1.936-2.013 3.459-4.401 4.569-7.163 1.11-2.762 1.665-5.82 1.665-9.177 0-3.304-.568-6.337-1.704-9.099-1.136-2.762-2.685-5.15-4.646-7.163a21.539 21.539 0 0 0-6.815-4.724c-2.581-1.136-5.318-1.703-8.209-1.704-2.942 0-5.717.568-8.325 1.704a20.974 20.974 0 0 0-6.814 4.724c-1.936 2.013-3.472 4.401-4.608 7.163-1.136 2.762-1.704 5.795-1.704 9.1 0 3.355.555 6.414 1.665 9.176 1.11 2.762 2.633 5.15 4.57 7.163a20.478 20.478 0 0 0 6.814 4.685c2.607 1.11 5.408 1.665 8.402 1.665zm0 18.507c-5.73 0-11.125-1.032-16.185-3.097-5.06-2.065-9.486-4.943-13.28-8.635-3.795-3.691-6.79-8.054-8.984-13.087-2.194-5.034-3.29-10.493-3.29-16.379 0-5.73 1.096-11.1 3.29-16.107 2.195-5.008 5.176-9.37 8.945-13.087 3.768-3.718 8.195-6.647 13.28-8.79 5.086-2.142 10.494-3.214 16.224-3.214s11.126 1.072 16.185 3.214c5.06 2.143 9.474 5.072 13.242 8.79 3.77 3.717 6.75 8.08 8.945 13.087 2.194 5.008 3.29 10.377 3.29 16.107 0 5.886-1.096 11.345-3.29 16.379-2.194 5.033-5.189 9.396-8.983 13.087-3.795 3.692-8.209 6.57-13.243 8.635-5.033 2.065-10.415 3.097-16.146 3.097zM411.066 23.53c-1.594 0-3.1-.31-4.52-.933a12.103 12.103 0 0 1-3.734-2.54 12.104 12.104 0 0 1-2.54-3.735 11.127 11.127 0 0 1-.934-4.52c0-1.593.311-3.112.934-4.556a11.988 11.988 0 0 1 2.54-3.772 12.11 12.11 0 0 1 3.735-2.54 11.132 11.132 0 0 1 4.52-.934c1.593 0 3.112.311 4.556.934a11.99 11.99 0 0 1 3.772 2.54 11.99 11.99 0 0 1 2.54 3.772c.623 1.444.934 2.963.934 4.557 0 1.593-.311 3.1-.934 4.52a12.106 12.106 0 0 1-2.54 3.734 11.983 11.983 0 0 1-3.772 2.54 11.388 11.388 0 0 1-4.557.934zM401.23 29.74h19.67v79.299h-19.67zM429.944 69.39c0-5.783.968-11.178 2.904-16.186 1.936-5.007 4.646-9.37 8.131-13.087 3.485-3.717 7.654-6.634 12.507-8.75 4.852-2.117 10.17-3.176 15.952-3.176 4.388 0 8.39.646 12.003 1.936 3.614 1.291 7.073 3.382 10.377 6.273V5.966h19.67V109.04h-19.67v-6.66c-3.304 2.942-6.763 5.046-10.377 6.311-3.614 1.265-7.615 1.897-12.003 1.897-5.782 0-11.1-1.058-15.952-3.175-4.853-2.116-9.022-5.033-12.507-8.75-3.485-3.717-6.195-8.08-8.131-13.088-1.936-5.007-2.904-10.402-2.904-16.185zm42.05 22.69c1.548 0 3.175-.168 4.878-.504 1.704-.336 3.42-.904 5.15-1.704 1.73-.8 3.42-1.871 5.072-3.214 1.652-1.342 3.227-2.994 4.724-4.956V57.076c-1.497-1.961-3.072-3.6-4.724-4.917-1.652-1.316-3.342-2.388-5.072-3.214-1.73-.826-3.446-1.407-5.15-1.742-1.703-.336-3.33-.503-4.878-.504-3.046 0-5.899.568-8.557 1.704-2.66 1.136-4.97 2.724-6.931 4.763-1.962 2.039-3.498 4.44-4.608 7.202-1.11 2.762-1.665 5.769-1.665 9.021 0 3.253.555 6.26 1.665 9.022 1.11 2.762 2.646 5.163 4.608 7.202 1.962 2.04 4.272 3.627 6.93 4.763 2.66 1.135 5.512 1.703 8.558 1.703zM307.14 47.53c-13.18 0-18.994 6.8-18.994 16.439v45.07h-19.67V64.51c.11-18.568 10.836-36.822 38.665-36.822"/>
  </g>
</svg>
