<svg xmlns="http://www.w3.org/2000/svg" viewBox="0 0 256 368.734">
  <path d="M214.9 157.358c15.265 2.348 25.834 9.394 31.705 18.789 5.872 9.394 9.395 25.835 9.395 46.972 0 42.275-12.917 77.505-38.752 104.514-25.835 27.01-58.716 41.1-98.643 41.1-15.266 0-30.532-2.348-45.798-8.22-15.266-5.87-27.009-14.091-37.578-23.485-11.743-10.57-21.137-23.487-27.009-35.23C3.523 288.881 0 275.963 0 263.046c0-14.092 3.523-25.835 9.394-34.055 5.872-8.22 16.44-12.918 29.358-16.44-2.348-5.872-4.697-10.57-5.871-15.267-1.175-3.523-2.349-7.045-2.349-9.394 0-7.046 3.523-15.266 11.743-23.486s15.266-11.743 22.312-11.743c3.523 0 5.872 0 9.395 1.174 3.523 1.174 7.046 2.348 11.743 5.871-10.569-35.229-21.138-64.587-27.01-84.55-5.871-19.963-8.22-32.88-8.22-41.101 0-10.569 2.349-18.789 8.22-24.66C63.414 3.522 71.634 0 81.029 0c15.266 0 35.229 35.23 59.89 106.862 4.697 11.744 7.045 21.138 9.394 28.184 2.349-4.697 4.697-12.918 8.22-22.312C183.192 42.275 204.33 7.046 220.771 7.046c8.22 0 15.266 2.348 21.137 8.22 4.697 5.872 8.22 14.092 8.22 23.486 0 7.046-2.348 21.138-8.22 41.101-7.046 19.964-15.266 45.798-27.009 77.505zM34.054 260.698c2.349 2.348 5.872 7.045 9.395 12.917C54.018 288.88 64.587 297.1 73.982 297.1c3.523 0 5.871-1.174 8.22-3.523 2.348-2.349 3.523-4.697 3.523-5.872 0-2.348-1.175-7.045-4.697-12.917-3.523-5.872-8.22-12.917-14.092-19.963-7.046-8.22-12.918-15.266-16.44-18.79-4.698-3.522-8.22-5.87-10.57-5.87-5.871 0-11.743 3.522-16.44 9.394-4.697 5.871-7.046 14.091-7.046 22.312 0 7.045 1.175 14.091 4.698 23.486 3.523 8.22 8.22 17.614 15.266 25.835 10.568 11.743 22.312 22.312 37.578 29.357 15.266 7.046 30.532 10.57 49.32 10.57 32.881 0 59.89-11.744 82.203-36.404 22.312-24.661 32.88-55.193 32.88-92.771 0-11.743-1.174-19.963-2.348-27.01-1.175-7.045-4.698-11.742-8.22-14.091-7.046-5.872-19.964-10.569-39.927-15.266-19.963-4.697-41.101-7.046-62.239-7.046-5.871 0-10.568 1.174-12.917 3.523s-3.523 5.872-3.523 10.569c0 11.743 5.872 19.963 18.789 24.66 12.917 4.698 34.055 8.22 62.239 8.22h10.568c2.349 0 4.698 1.175 5.872 2.35 1.174 2.348 2.349 4.696 2.349 8.22-2.35 2.348-8.22 5.871-17.615 9.394-9.395 3.523-15.266 7.046-19.963 10.569-10.57 7.046-18.79 16.44-24.661 27.009-5.872 10.569-9.395 19.963-9.395 29.358 0 5.871 1.175 11.743 3.523 19.963 2.349 8.22 3.523 12.917 3.523 14.092v4.697c-7.046 0-12.917-4.697-17.614-12.917-4.698-8.22-5.872-18.79-5.872-32.881v-2.349c-1.174 1.174-2.349 2.349-3.523 2.349s-2.348 1.174-4.697 1.174h-4.697c-1.175 0-2.349-1.174-4.698-1.174 0 2.348 1.175 3.523 1.175 5.871v4.698c0 5.871-2.349 11.743-7.046 16.44-4.697 4.697-10.569 7.046-17.615 7.046-10.569 0-21.137-4.697-32.88-15.266-10.57-10.569-16.44-19.964-16.44-30.532 0-2.349 0-3.523 1.173-4.698 0-5.871 1.175-7.045 2.349-8.22zm76.33 5.87c2.349 0 5.872-1.174 8.22-3.522 2.35-2.349 3.523-5.872 3.523-8.22 0-3.523-2.348-10.57-7.045-22.312-4.698-11.743-10.57-23.486-17.615-34.055-4.697-8.22-10.569-15.266-15.266-18.79-4.697-4.697-9.395-5.87-14.092-5.87-3.523 0-7.046 2.348-11.743 7.045s-5.872 8.22-5.872 12.917c0 3.523 2.349 10.57 5.872 18.79 4.697 8.22 9.394 16.44 16.44 25.834C79.853 247.78 86.9 256 93.945 261.872c7.046 2.348 11.743 4.697 16.44 4.697zm24.66-122.128-28.183-78.679c-7.045-19.963-11.743-34.055-16.44-39.926-3.523-5.872-7.046-9.395-11.743-9.395-3.523 0-5.872 1.175-8.22 3.523-3.523 3.523-4.698 7.046-4.698 11.743 0 8.22 3.523 21.138 9.395 39.927 5.872 18.789 15.266 44.624 27.01 75.156 1.173-2.349 2.348-3.523 4.696-3.523 2.349-1.174 4.698-1.174 7.046-1.174h5.872c3.523 1.174 8.22 1.174 15.266 2.348zm28.184 76.33c-7.046 0-14.091-1.174-21.137-2.348-7.046-1.174-12.918-2.349-18.79-4.697 2.35 5.871 4.698 10.569 7.047 16.44 2.348 5.872 3.523 10.569 4.697 16.44 3.523-4.697 8.22-9.394 12.917-14.091 5.872-4.697 10.57-8.22 15.266-11.743zm34.055-68.11c11.744-30.532 19.964-56.366 27.01-76.33 5.871-19.963 9.394-31.706 9.394-36.403 0-4.698-1.174-8.22-3.523-11.744-2.348-2.348-4.697-3.522-8.22-3.522-4.697 0-9.395 3.522-14.092 11.743-4.697 8.22-10.569 19.963-16.44 37.578l-25.835 72.807z"/>
</svg>
