<svg xmlns="http://www.w3.org/2000/svg" viewBox="0 0 255.615 313.836">
  <g fill="#1a1918">
    <path d="M67.253 313.562c-.542 0-1.126-.137-1.532-.686l-17.384-22.861v23.318h-3.964V284.62c0-1.142.946-2.057 2.028-2.057.63 0 1.17.183 1.575.732l17.34 22.815v-23.227h3.963v28.668c0 1.189-.946 2.012-2.026 2.012M100.042 313.836c-3.962 0-8.107-.823-11.98-2.286l.946-3.292c3.558 1.143 7.431 1.966 11.034 1.966 5 0 7.612-1.783 7.612-4.298 0-2.286-2.027-3.43-9.008-6.721-6.98-3.292-9.727-5.395-9.727-9.511 0-5.166 3.962-7.27 11.438-7.27 3.108 0 7.882.64 10.63 1.464l-.63 3.383c-3.02-.731-6.801-1.234-9.91-1.234-5.268 0-7.43 1.005-7.43 3.52 0 2.469 1.576 3.52 8.962 6.95 7.792 3.613 9.773 5.442 9.773 9.19 0 5.442-5.135 8.14-11.71 8.14M130.534 282.882h4.099v30.451h-4.099zM169.494 299.525h-10.18v10.334h10.18c3.467 0 5.584-2.195 5.584-5.259 0-2.88-2.206-5.075-5.584-5.075m-1.983-13.168h-8.197v9.739h8.197c3.289 0 5.675-2.104 5.675-5.03 0-2.88-2.072-4.71-5.675-4.71m2.028 26.977h-12.25a2.044 2.044 0 0 1-2.073-2.057V284.94c0-1.098.901-2.058 2.073-2.058h10.133c6.215 0 9.908 3.063 9.908 7.865 0 2.605-1.532 5.029-3.874 6.446 3.47 1.052 5.81 3.932 5.81 7.407 0 4.847-4.008 8.733-9.727 8.733M198.948 313.333c-1.124 0-2.025-.96-2.025-2.057v-28.394h4.097v26.748h16.304v3.703zM245.262 313.836c-8.377 0-13.421-3.109-13.421-9.373 0-2.972 1.667-5.807 4.91-7.133-2.613-1.646-3.964-3.978-3.964-6.538 0-5.67 4.37-8.368 12.566-8.368 2.748 0 6.62.32 9.864 1.053l-.451 3.383c-3.422-.55-6.621-.868-9.729-.868-5.314 0-8.152 1.462-8.152 4.983 0 2.79 2.613 4.984 6.081 4.984h7.025c.991 0 1.757.777 1.757 1.737 0 1.006-.766 1.783-1.757 1.783h-7.565c-3.964 0-6.485 1.966-6.485 4.984 0 4.435 4.098 5.761 9.232 5.761 2.793 0 6.575-.365 9.637-1.097l.587 3.337c-2.928.824-6.757 1.372-10.135 1.372M13.874 288.593l7.178 17.984-10.84-8.67zm12.752 22.128-11.04-26.975c-.315-.777-.946-1.19-1.712-1.19a1.84 1.84 0 0 0-1.756 1.19L0 313.333h4.145l4.797-12.198 14.314 11.74c.576.473.991.687 1.532.687 1.08 0 2.027-.823 2.027-2.012 0-.193-.068-.5-.19-.83z"/>
  </g>
  <path fill="#1a1918" d="M255.615 127.566c0 70.455-57.11 127.565-127.567 127.565C57.598 255.13.482 198.02.482 127.566.482 57.116 57.598 0 128.048 0c70.457 0 127.567 57.116 127.567 127.566"/>
  <path fill="#fff" d="m130.196 77.927 33.012 81.476-49.864-39.277zm58.644 100.245L138.062 55.97c-1.45-3.524-4.348-5.389-7.866-5.389-3.524 0-6.634 1.865-8.083 5.39L66.38 190.01h19.065l22.062-55.266 65.84 53.19c2.647 2.141 4.558 3.11 7.041 3.11 4.974 0 9.322-3.729 9.322-9.111 0-.876-.31-2.266-.87-3.762z"/>
</svg>
