<svg xmlns="http://www.w3.org/2000/svg" viewBox="0 0 518.302 110.996">
  <g fill-rule="evenodd">
    <path fill="#0e85cd" d="M154.681 92.72c7.567-.096 13.651-2.877 18.253-8.332 4.602-5.455 6.966-12.99 7.092-22.605-.126-9.513-2.49-16.936-7.092-22.266-4.602-5.33-10.686-8.04-18.253-8.128-7.563.084-13.632 2.78-18.207 8.094-4.576 5.314-6.924 12.747-7.047 22.3.123 9.615 2.471 17.15 7.047 22.605 4.575 5.455 10.644 8.232 18.207 8.331zm0-6.584c-5.346-.096-9.58-2.3-12.706-6.63-3.125-4.328-4.722-10.236-4.791-17.722.069-7.425 1.666-13.23 4.791-17.419 3.125-4.188 7.36-6.32 12.706-6.393 5.346.072 9.581 2.205 12.706 6.393 3.125 4.189 4.722 9.994 4.792 17.42-.07 7.485-1.667 13.393-4.792 17.722-3.125 4.329-7.36 6.539-12.706 6.629zM193.224 87.672c2.029 1.59 4.058 2.827 6.088 3.708 2.029.882 4.058 1.329 6.088 1.342 5.169-.06 9.577-2.133 13.224-6.235 3.647-4.102 5.552-9.9 5.716-17.395-.016-6.891-1.494-12.32-4.431-16.291-2.937-3.971-7.232-5.997-12.886-6.078-2.584.048-5.06.653-7.43 1.816a30.91 30.91 0 0 0-6.55 4.318h-.27l-.632-5.052h-6.133v62.324h7.396V95.337zm.18-5.773v-23c2.151-1.945 4.184-3.421 6.1-4.43 1.914-1.01 3.79-1.517 5.625-1.522 4.111.072 7.073 1.553 8.884 4.453 1.811 2.9 2.698 6.796 2.66 11.692-.07 5.46-1.258 9.713-3.562 12.762-2.303 3.048-5.295 4.596-8.974 4.644-1.462.013-3.115-.332-4.96-1.048-1.846-.715-3.77-1.9-5.773-3.551zM226.777 69.807c.142 7.227 2.18 12.84 6.11 16.832 3.93 3.992 8.899 6.018 14.905 6.076 2.969-.037 5.644-.482 8.027-1.342 2.383-.858 4.517-1.914 6.404-3.168l-2.616-4.87a22.85 22.85 0 0 1-5.118 2.491c-1.797.61-3.728.923-5.795.936-4.245-.047-7.661-1.437-10.248-4.16-2.588-2.722-4.042-6.477-4.363-11.263h29.583a19.2 19.2 0 0 0 .203-1.86c.045-.693.068-1.426.068-2.198-.03-6.342-1.549-11.337-4.555-14.983-3.006-3.648-7.32-5.508-12.943-5.58-5.2.06-9.728 2.12-13.585 6.165-3.857 4.047-5.883 9.688-6.077 16.922zm7.215-3.338c.537-4.445 1.988-7.866 4.352-10.26 2.363-2.393 5.122-3.604 8.275-3.63 3.45.024 6.11 1.22 7.982 3.597 1.871 2.377 2.818 5.808 2.841 10.293zM268.757 91.64h7.396V59.892c2.152-2.216 4.14-3.895 5.964-5.04 1.825-1.144 3.835-1.719 6.032-1.725 2.871-.024 4.975.904 6.313 2.784 1.338 1.882 2 4.862 1.985 8.941v26.787h7.395V63.86c.018-5.607-1.056-9.861-3.224-12.762s-5.543-4.36-10.124-4.375c-2.997.048-5.684.763-8.061 2.142-2.377 1.38-4.59 3.13-6.64 5.254h-.271l-.632-6.314h-6.133z"/>
    <path fill="#555" d="M334.625 92.72c7.567-.096 13.651-2.877 18.253-8.332 4.602-5.455 6.966-12.99 7.092-22.605-.126-9.513-2.49-16.936-7.092-22.266-4.601-5.33-10.686-8.04-18.253-8.128-7.563.084-13.632 2.78-18.207 8.094-4.575 5.314-6.924 12.747-7.046 22.3.122 9.615 2.47 17.15 7.046 22.605 4.575 5.455 10.645 8.232 18.207 8.331zm0-6.584c-5.346-.096-9.58-2.3-12.706-6.63-3.125-4.328-4.722-10.236-4.791-17.722.069-7.425 1.666-13.23 4.791-17.419 3.125-4.188 7.36-6.32 12.706-6.393 5.346.072 9.581 2.205 12.706 6.393 3.125 4.189 4.722 9.994 4.792 17.42-.07 7.485-1.667 13.393-4.792 17.722-3.125 4.329-7.36 6.539-12.706 6.629zM388.533 27.777c-1.003-.416-2.13-.757-3.382-1.026a19.339 19.339 0 0 0-3.923-.417c-4.362.048-7.59 1.35-9.685 3.912-2.095 2.561-3.136 6.097-3.123 10.609V47.8l-5.953.45v5.592h5.953v37.792h7.396V53.842h9.29V47.8h-9.29v-6.945c-.005-2.8.5-4.912 1.51-6.337 1.012-1.423 2.552-2.137 4.623-2.141.815 0 1.642.096 2.48.27.838.18 1.665.451 2.48.812z"/>
    <path fill="#555" d="M410.148 27.777c-1.003-.416-2.13-.757-3.382-1.026a19.339 19.339 0 0 0-3.924-.417c-4.36.048-7.589 1.35-9.684 3.912-2.095 2.561-3.136 6.097-3.123 10.609V47.8h-4.99l-.963 6.052h5.953v37.791h7.396V53.852h9.29V47.81h-9.29v-6.945c-.005-2.8.5-4.913 1.51-6.336 1.011-1.425 2.552-2.139 4.623-2.142.815 0 1.642.096 2.48.27.838.18 1.665.451 2.48.812zM417.782 38.79c1.477-.024 2.694-.472 3.653-1.341.958-.87 1.454-2.016 1.488-3.44-.034-1.462-.53-2.618-1.488-3.472-.959-.853-2.176-1.288-3.653-1.308-1.477.024-2.695.455-3.653 1.308-.958.854-1.454 2.01-1.488 3.472.034 1.424.53 2.57 1.488 3.44.958.869 2.176 1.316 3.653 1.341zm-3.788 52.853h7.396V47.809h-7.396zM425.741 69.807c.13 7.307 2.103 12.94 5.919 16.899 3.816 3.959 8.698 5.962 14.645 6.009a20.088 20.088 0 0 0 7.599-1.522 23.304 23.304 0 0 0 6.652-4.16l-3.337-4.871c-1.314 1.21-2.836 2.24-4.566 3.09-1.73.848-3.636 1.292-5.716 1.329-4.076-.072-7.334-1.617-9.775-4.633-2.44-3.015-3.692-7.063-3.754-12.143.075-5.126 1.368-9.214 3.878-12.266 2.51-3.05 5.787-4.614 9.831-4.69 1.744.024 3.33.385 4.758 1.095 1.428.708 2.788 1.636 4.081 2.784l3.698-4.78c-1.475-1.442-3.26-2.663-5.355-3.664-2.095-1.002-4.58-1.525-7.453-1.568-5.811.048-10.738 2.054-14.78 6.033-4.041 3.978-6.15 9.663-6.324 17.058z"/>
    <path fill="#555" d="M459.811 69.807c.143 7.227 2.18 12.84 6.11 16.832 3.931 3.992 8.9 6.018 14.905 6.076 2.97-.037 5.645-.482 8.028-1.342 2.382-.858 4.517-1.914 6.403-3.168l-2.615-4.87a22.85 22.85 0 0 1-5.119 2.491c-1.796.61-3.728.923-5.795.936-4.244-.047-7.66-1.437-10.248-4.16-2.587-2.722-4.042-6.477-4.363-11.263h29.584c.09-.547.158-1.167.203-1.86.045-.693.067-1.426.067-2.198-.03-6.342-1.548-11.337-4.554-14.983-3.007-3.648-7.321-5.508-12.943-5.58-5.2.06-9.728 2.12-13.585 6.165-3.858 4.047-5.883 9.688-6.077 16.922zm7.215-3.338c.538-4.445 1.988-7.866 4.352-10.26 2.364-2.393 5.122-3.604 8.276-3.63 3.45.024 6.11 1.22 7.982 3.597 1.871 2.377 2.818 5.808 2.84 10.293z"/>
    <g fill="#888">
      <path d="m191.136 19.364 1.79-5.246c.573-1.645 1.113-3.25 1.622-4.814a141.007 141.007 0 0 0 1.492-4.91h.17c.488 1.709.985 3.345 1.494 4.91a244.36 244.36 0 0 0 1.62 4.814l1.792 5.246zm13.818 11.302H207L197.106 2.56h-1.962l-9.894 28.106h1.961l3.327-9.639h11.132zM211.85 28.657c1.07.795 2.12 1.412 3.151 1.85 1.032.438 2.029.66 2.991.666 2.485-.025 4.595-.998 6.328-2.916 1.734-1.918 2.638-4.628 2.714-8.13 0-3.216-.683-5.751-2.047-7.608-1.365-1.856-3.412-2.803-6.142-2.841a8.441 8.441 0 0 0-3.668.944 18.53 18.53 0 0 0-3.284 2.127h-.128l-.17-2.56h-1.621v29.727h1.877v-7.463zm0-1.791V14.71c1.234-1.092 2.403-1.925 3.509-2.5 1.105-.575 2.168-.865 3.187-.869 2.323.052 3.99.887 5.001 2.506 1.011 1.618 1.505 3.712 1.482 6.28-.038 2.816-.708 5.073-2.01 6.77-1.301 1.698-3.006 2.568-5.112 2.613-.796.01-1.71-.191-2.74-.603-1.031-.411-2.137-1.092-3.317-2.042zM229.536 25.543c.046 1.933.636 3.356 1.77 4.27 1.134.915 2.534 1.368 4.201 1.36a8.924 8.924 0 0 0 3.85-.954 18.114 18.114 0 0 0 3.4-2.202h.086l.213 2.644h1.578V17.568c.034-2.25-.439-4.115-1.418-5.592-.98-1.478-2.668-2.244-5.065-2.298-1.681.046-3.18.359-4.5.938-1.318.58-2.349 1.148-3.091 1.706l.853 1.408c.695-.548 1.607-1.074 2.734-1.578 1.128-.505 2.391-.775 3.79-.81 1.961.075 3.276.766 3.946 2.073.67 1.307.961 2.777.874 4.409-4.525.487-7.864 1.336-10.017 2.548-2.153 1.212-3.22 2.936-3.204 5.171zm1.962-.085c-.056-1.614.77-2.928 2.479-3.94s4.635-1.76 8.78-2.244v6.952c-1.243 1.09-2.423 1.916-3.54 2.479-1.115.562-2.253.845-3.411.847-1.206.014-2.217-.301-3.034-.943-.816-.643-1.24-1.693-1.274-3.151zM247.69 20.47c.056 3.413.945 6.045 2.665 7.895 1.72 1.851 3.93 2.788 6.632 2.81 1.3-.015 2.495-.273 3.583-.773a11.287 11.287 0 0 0 2.942-1.957l-.98-1.28a9.837 9.837 0 0 1-2.442 1.654c-.92.444-1.927.675-3.018.693-2.268-.041-4.065-.876-5.39-2.506-1.324-1.63-2.001-3.808-2.03-6.536.047-2.75.762-4.948 2.142-6.595 1.381-1.646 3.14-2.49 5.278-2.532.997.013 1.893.221 2.687.624a8.96 8.96 0 0 1 2.175 1.551l1.11-1.322c-.673-.665-1.494-1.244-2.464-1.738s-2.154-.754-3.55-.778c-2.573.02-4.753.96-6.542 2.82-1.788 1.86-2.721 4.516-2.799 7.97zM266.648 30.665h1.877V15.226c1.228-1.28 2.354-2.24 3.38-2.879a6.151 6.151 0 0 1 3.316-.96c1.65-.004 2.848.518 3.593 1.568.744 1.05 1.11 2.66 1.098 4.83v12.88h1.877V17.53c.006-2.64-.497-4.61-1.51-5.907-1.011-1.297-2.57-1.944-4.675-1.94-1.393.02-2.658.373-3.795 1.055-1.138.682-2.232 1.567-3.284 2.655V0h-1.877zM285.534 20.47c.067 3.376.99 5.997 2.767 7.863 1.778 1.867 4.012 2.814 6.702 2.842 1.473-.022 2.717-.234 3.731-.634 1.015-.401 1.918-.858 2.709-1.37l-.768-1.45a9.847 9.847 0 0 1-2.495 1.332c-.901.327-1.903.494-3.007.501-2.331-.047-4.183-.88-5.555-2.5-1.372-1.62-2.093-3.744-2.164-6.37h14.757c.04-.257.065-.513.074-.769.009-.255.013-.511.011-.767-.023-3.026-.723-5.355-2.1-6.99-1.378-1.634-3.293-2.46-5.747-2.479-2.368.032-4.424.993-6.169 2.885-1.744 1.891-2.66 4.527-2.745 7.906zm1.92-1.237c.26-2.476 1.05-4.411 2.367-5.805 1.316-1.395 2.873-2.104 4.67-2.128 1.855.003 3.316.67 4.382 2 1.066 1.33 1.61 3.308 1.631 5.933z"/>
    </g>
    <text x="409.7" y="980.86" fill="#888" font-family="'Source Sans Pro Light'" font-size="27.388" font-weight="300" letter-spacing="0" text-anchor="middle" transform="translate(-129.978 -1461.625) scale(1.55727)" word-spacing="0"><tspan x="408.78" y="980.86" letter-spacing="-1.825">™</tspan></text>
    <path fill="#0e85cd" d="M55.222.601C24.722.601 0 25.31 0 55.795c0 3.883.406 7.67 1.169 11.327a57.98 57.98 0 0 1 15.228-2.024c8.447 0 16.468 1.806 23.707 5.056 9.473-6.754 21.08-10.728 33.608-10.728 7.843 0 15.324 1.56 22.143 4.385l.105.043a.856.856 0 0 1-.381 1.626c-.017 0-.839-.063-1.232-.089a57.667 57.667 0 0 0-4.119-.15c-19.362 0-36.76 7.111-47.312 21.534-.168.229-.498.694-.503.694a.843.843 0 0 1-.66.32.816.816 0 0 1-.559-.217.37.37 0 0 1-.073-.066c-10.011-9.412-23.198-13.138-38-13.398 7.557 21.482 28.021 36.888 52.097 36.888 30.5 0 55.228-24.715 55.228-55.198C110.447 25.31 85.72.602 55.22.602zm43.236 33.032c-.193-.02-.524-.073-.738-.102a30.864 30.864 0 0 0-1.862-.235c-11.263-1.062-21.742 2.065-28.58 9.987-.287.293-.539.307-.82.015-5.438-6.165-13.18-8.9-22.067-9.742a33.334 33.334 0 0 0-9.254.41.09.09 0 0 0-.039.006c-.028 0-.06.008-.094.008a.573.573 0 0 1-.349-1.025c.055-.031.11-.066.162-.091a33.287 33.287 0 0 1 18.64-3.655A33.32 33.32 0 0 1 66.8 33.397a33.3 33.3 0 0 1 19.888-4.339 33.509 33.509 0 0 1 11.39 3.166c.212.109.434.213.648.33a.534.534 0 0 1 .309.509c0 .316-.204.615-.576.57z"/>
    <path fill="#fff" d="M98.72 32.553c-.215-.116-.436-.22-.649-.33a33.524 33.524 0 0 0-11.39-3.166 33.302 33.302 0 0 0-19.888 4.34 33.33 33.33 0 0 0-13.34-4.189 33.287 33.287 0 0 0-18.641 3.655c-.053.025-.108.06-.162.09a.57.57 0 0 0 .349 1.026c.033 0 .064-.008.094-.008.013-.006.027-.006.039-.006a33.36 33.36 0 0 1 9.254-.41c8.887.842 16.63 3.578 22.066 9.742.282.292.533.278.82-.015 6.838-7.921 17.317-11.049 28.58-9.987.626.06 1.25.139 1.863.235.214.03.544.083.737.103.373.044.577-.255.577-.571a.535.535 0 0 0-.31-.509zM41.195 87.57a.816.816 0 0 0 .56.216.843.843 0 0 0 .66-.319c.003 0 .334-.465.502-.694C53.47 72.35 70.867 65.24 90.23 65.24c1.38 0 2.761.052 4.119.15.392.025 1.214.088 1.231.088a.856.856 0 0 0 .381-1.627l-.105-.042a57.736 57.736 0 0 0-22.142-4.385c-12.53 0-24.131 3.974-33.611 10.73-7.239-3.25-15.26-5.056-23.708-5.056a57.98 57.98 0 0 0-15.227 2.024 54.677 54.677 0 0 0 1.956 6.983c14.802.26 27.989 3.986 38 13.398.02.025.045.05.072.066z"/>
  </g>
</svg>
