<svg xmlns="http://www.w3.org/2000/svg" viewBox="0 0 255.996 255.88">
  <g fill-rule="evenodd" stroke-width="1.58">
    <path fill="#0e85cd" d="M128 .001C57.304.001 0 57.271 0 127.931c0 9 .94 17.78 2.71 26.256a134.392 134.392 0 0 1 35.295-4.692c19.58 0 38.172 4.187 54.95 11.72 21.96-15.657 48.863-24.867 77.9-24.867 18.18 0 35.52 3.618 51.323 10.164.084.032.161.065.244.098a1.985 1.985 0 0 1-.883 3.771c-.04 0-1.944-.147-2.855-.207a133.67 133.67 0 0 0-9.547-.346c-44.879 0-85.206 16.48-109.66 49.912-.39.53-1.156 1.609-1.166 1.609-.357.45-.913.739-1.529.739a1.89 1.89 0 0 1-1.297-.502.863.863 0 0 1-.17-.152c-23.205-21.817-53.77-30.452-88.079-31.054 17.517 49.79 64.95 85.5 120.75 85.5 70.696 0 128.01-57.286 128.01-127.94C255.998 57.273 198.681 0 127.986 0zm100.22 76.564c-.447-.045-1.213-.17-1.71-.237a71.532 71.532 0 0 0-4.315-.545c-26.106-2.461-50.395 4.787-66.247 23.15-.664.679-1.247.71-1.9.034-12.603-14.289-30.549-20.63-51.147-22.582a77.26 77.26 0 0 0-21.45.951c-.027 0-.058 0-.09.014-.066 0-.139.018-.218.018a1.329 1.329 0 0 1-1.327-1.335c0-.428.212-.804.518-1.041.127-.071.253-.152.376-.21a77.156 77.156 0 0 1 43.206-8.473c11.243 1.065 21.703 4.474 30.923 9.708 13.468-7.803 29.42-11.632 46.098-10.057a77.67 77.67 0 0 1 26.4 7.338c.493.253 1.007.495 1.503.765.493.245.715.668.715 1.18 0 .733-.472 1.426-1.335 1.322z"/>
    <path fill="#fff" d="M228.82 74.061c-.496-.27-1.01-.512-1.502-.764a77.701 77.701 0 0 0-26.4-7.338c-16.678-1.575-32.63 2.254-46.098 10.057-9.22-5.233-19.68-8.643-30.923-9.708A77.158 77.158 0 0 0 80.69 74.78c-.124.059-.252.14-.376.21a1.323 1.323 0 0 0-.519 1.041c0 .737.59 1.335 1.327 1.335.078 0 .15-.017.218-.017.032-.014.064-.014.09-.014a77.322 77.322 0 0 1 21.45-.951c20.6 1.95 38.546 8.292 51.147 22.58.654.677 1.237.644 1.9-.034 15.85-18.362 40.139-25.61 66.247-23.149 1.45.14 2.894.32 4.316.545.496.067 1.262.191 1.71.237.863.103 1.336-.59 1.336-1.324-.002-.51-.223-.933-.717-1.178zM95.484 201.581a1.89 1.89 0 0 0 1.297.503c.616 0 1.172-.29 1.53-.74.01 0 .775-1.079 1.165-1.608 24.457-33.43 64.782-49.912 109.66-49.912 3.2 0 6.4.12 9.547.346.91.06 2.813.207 2.854.207a1.993 1.993 0 0 0 1.997-1.987c0-.792-.46-1.462-1.113-1.784l-.244-.098c-15.804-6.546-33.144-10.164-51.324-10.164-29.04 0-55.932 9.21-77.906 24.871-16.777-7.532-35.37-11.719-54.95-11.719a134.392 134.392 0 0 0-35.296 4.692 126.741 126.741 0 0 0 4.534 16.185c34.31.602 64.874 9.239 88.078 31.054a.708.708 0 0 0 .168.155z"/>
  </g>
</svg>
