<svg xmlns="http://www.w3.org/2000/svg" viewBox="0 0 255.31 258.146">
  <defs>
    <linearGradient id="a" x1="168.06" x2="0" y1="84.004" y2="84.004" gradientTransform="scale(1.51934 .65818)" gradientUnits="userSpaceOnUse">
      <stop offset="0%" stop-color="#37BDA6"/>
      <stop offset="100%" stop-color="#8AD3B8"/>
    </linearGradient>
    <linearGradient id="b" x1="237.632" x2="0" y1="158.412" y2="158.412" gradientTransform="scale(1.07452 .93065)" gradientUnits="userSpaceOnUse">
      <stop offset="50%" stop-color="#4BB6AD"/>
      <stop offset="100%" stop-color="#78BBC1"/>
    </linearGradient>
    <linearGradient id="c" x1="168.056" x2="336.112" y1="111.997" y2="111.997" gradientTransform="scale(.75969 1.31633)" gradientUnits="userSpaceOnUse">
      <stop offset="0%" stop-color="#4379A7"/>
      <stop offset="100%" stop-color="#7CC9B8"/>
    </linearGradient>
  </defs>
  <path fill="#13a049" d="M127.693 36.867v73.58l63.847-36.866V0z" opacity=".5"/>
  <path fill="#a2cc39" d="M127.693 36.867 63.847 0v73.734l63.846 36.867z" opacity=".5"/>
  <path fill="url(#a)" d="m191.54 0-63.847 36.867L63.847 0 0 36.867l127.693 73.734L255.31 36.867z" opacity=".9" style="fill:url(#a)"/>
  <path fill="url(#b)" d="M127.693 110.601 0 36.867v73.734l63.847 36.867v73.658l63.846 36.867 63.847-36.867v-73.658l63.77-36.867V36.867z" style="fill:url(#b)"/>
  <path fill="url(#c)" d="M127.693 110.601v147.392l63.847-36.867v-73.658l63.77-36.867V36.867z" style="fill:url(#c)"/>
  <path fill="#231f20" d="M127.693 184.259v73.734l63.847-36.867z" opacity=".05"/>
  <path fill="#231f20" d="M127.693 258.146v-73.734l-63.846 36.867z" opacity=".1"/>
  <path fill="#231f20" d="M63.847 73.734 0 110.601l63.847 36.867 63.846-36.867z" opacity=".05"/>
  <path fill="#231f20" d="m191.54 73.734-63.847 36.867 63.847 36.867 63.77-36.867z" opacity=".05"/>
</svg>
