<svg xmlns="http://www.w3.org/2000/svg" viewBox="0 0 255.996 258.154">
  <defs>
    <linearGradient id="a" x1="199.67" x2="153.092" y1="90.929" y2="184.792" gradientUnits="userSpaceOnUse">
      <stop offset="0%" stop-color="#CC9300"/>
      <stop offset="48%" stop-color="#EA433A"/>
      <stop offset="100%" stop-color="#B327BF"/>
    </linearGradient>
    <linearGradient id="b" x1="121.786" x2="64.367" y1="17.668" y2="96.135" gradientUnits="userSpaceOnUse">
      <stop offset="0%" stop-color="#CC9300"/>
      <stop offset="26%" stop-color="#EA433A"/>
      <stop offset="48%" stop-color="#B327BF"/>
      <stop offset="76%" stop-color="#66F"/>
      <stop offset="100%" stop-color="#00BF9A"/>
    </linearGradient>
    <linearGradient id="c" x1="80.677" x2="152.084" y1="224.257" y2="150.652" gradientTransform="scale(1.00317 .99684)" gradientUnits="userSpaceOnUse">
      <stop offset="0%" stop-color="#B327BF"/>
      <stop offset="48%" stop-color="#66F"/>
      <stop offset="100%" stop-color="#00C09A"/>
    </linearGradient>
  </defs>
  <path d="M122.798 254.854c-33.177 5.447-46.052 3.466-59.422-.99A66.355 66.355 0 0 1 30.694 229.6l-1.485-1.486c-7.428-10.399-12.875-22.283-17.827-52.985L3.459 123.63c-5.447-33.672-3.962-46.547.99-59.917a73.238 73.238 0 0 1 23.77-33.178l1.98-1.485c10.399-7.428 22.283-12.875 52.49-17.827L133.196 3.3c33.178-5.447 46.052-3.466 59.422.99a66.355 66.355 0 0 1 32.683 24.265l1.485 1.98c7.428 10.4 12.875 22.284 17.827 52.985l7.923 51.004c5.447 33.673 3.961 46.547-.99 59.917a70.118 70.118 0 0 1-23.77 33.178l-1.98 1.485c-10.4 7.428-22.284 12.875-52.49 17.827z"/>
  <path fill="url(#a)" d="M179.299 94.86c-20.539 0-37.188 16.65-37.188 37.188 0 20.539 16.65 37.189 37.188 37.189 20.538 0 37.188-16.65 37.188-37.189 0-20.538-16.65-37.188-37.188-37.188zm0 11.983c13.92 0 25.205 11.285 25.205 25.205 0 13.92-11.285 25.205-25.205 25.205-13.92 0-25.205-11.285-25.205-25.205 0-13.92 11.285-25.205 25.205-25.205z" style="fill:url(#a)"/>
  <path fill="url(#b)" d="M115.515 52.062h-56.6a6.016 6.016 0 0 0-6.016 6.016v56.6a6.016 6.016 0 0 0 6.016 6.016h56.6a6.016 6.016 0 0 0 6.016-6.016v-56.6a6.016 6.016 0 0 0-6.016-6.016zm-6.017 12.032v44.567H64.93V64.094z" style="fill:url(#b)" transform="rotate(-9.18 87.215 86.378)"/>
  <path fill="url(#c)" d="m99.322 144.91-23.77 67.345c-1.512 4.286 2.113 8.63 6.6 7.91l67.841-10.894c4.502-.723 6.579-6.01 3.773-9.603l-44.071-56.451c-2.913-3.731-8.798-2.77-10.373 1.693zm7.66 14.304 31.098 39.833-47.87 7.685z" style="fill:url(#c)"/>
</svg>
