<svg xmlns="http://www.w3.org/2000/svg" viewBox="0 0 256 256">
  <path fill="#232e44" d="M127.997 0C198.69 0 256.005 57.304 256 128c0 70.686-57.316 128-128.003 128C57.311 256 0 198.686 0 128 0 57.304 57.31 0 127.997 0zm0 7.127C61.234 7.127 7.134 61.244 7.134 128c0 66.735 54.1 120.868 120.863 120.868 66.738 0 120.87-54.133 120.87-120.868 0-66.756-54.132-120.873-120.87-120.873zM114.22 78.374c9.931 0 17.998 8.066 17.998 18.022 0 .826-.087 1.662-.189 2.493l40.45 11.13c2.206-3.289 5.956-5.45 10.19-5.45 6.813 0 12.301 5.485 12.307 12.271 0 6.776-5.499 12.276-12.306 12.276-4.138 0-7.817-2.08-10.029-5.24l-49.687 26.03a25.432 25.432 0 0 1 2.18 10.304c0 14.173-11.5 25.654-25.65 25.654-14.172 0-25.642-11.48-25.642-25.654 0-14.152 11.47-25.633 25.641-25.633 1.89 0 3.705.204 5.468.586l3.47-21.749c-7.103-2.416-12.21-9.136-12.21-17.018 0-9.956 8.062-18.022 18.009-18.022zm16.678 24.726a17.946 17.946 0 0 1-16.678 11.278c-.535 0-1.024-.02-1.529-.062l-3.541 22.157a25.7 25.7 0 0 1 11.715 9.605l49.947-26.169a12.597 12.597 0 0 1-.403-3.08c0-.963.133-1.885.316-2.773z"/>
</svg>
