<svg xmlns="http://www.w3.org/2000/svg" viewBox="0 0 512 104.474">
  <g fill="#232e44">
    <path d="M52.262 0c28.864 0 52.266 23.386 52.264 52.237 0 28.847-23.402 52.237-52.264 52.237C23.4 104.474 0 81.084 0 52.237 0 23.386 23.4 0 52.262 0zm0 2.909c-27.26 0-49.35 22.085-49.35 49.328 0 27.235 22.09 49.327 49.35 49.327 27.25 0 49.352-22.092 49.352-49.327 0-27.243-22.102-49.328-49.352-49.328zm-5.626 29.076a7.353 7.353 0 0 1 7.349 7.355c0 .337-.036.678-.077 1.017l16.516 4.542a5.009 5.009 0 0 1 4.16-2.224 5.011 5.011 0 0 1 5.025 5.008 5.016 5.016 0 0 1-5.024 5.01 5 5 0 0 1-4.095-2.139L50.202 61.177c.57 1.292.89 2.71.89 4.205 0 5.784-4.695 10.47-10.473 10.47a10.466 10.466 0 0 1-10.47-10.47c0-5.775 4.684-10.46 10.47-10.46.772 0 1.513.082 2.233.238l1.417-8.875c-2.9-.987-4.986-3.729-4.986-6.945a7.353 7.353 0 0 1 7.353-7.355zm6.81 10.09a7.327 7.327 0 0 1-7.434 4.578l-1.446 9.042a10.492 10.492 0 0 1 4.783 3.92l20.394-10.68a5.138 5.138 0 0 1-.164-1.256c0-.394.054-.77.129-1.132zM179.925 35.549c2.692-3.075 8.37-5.949 16.388-4.617 7.008 1.163 10.432 4.542 12.73 9.793 2.63 6.007 3.31 17.687-.635 24.982-3.109 5.749-8.233 9.21-16.012 9.21-8.714 0-12.59-3.378-12.59-3.378v18.617h-4.523V50.252c0-5.561 1.564-11.185 4.642-14.703zm45.987 0c2.692-3.075 8.37-5.949 16.388-4.617 7.01 1.163 10.432 4.542 12.73 9.793 2.63 6.007 3.308 17.687-.637 24.982-3.109 5.749-8.233 9.21-16.012 9.21-8.712 0-12.588-3.378-12.588-3.378v18.617h-4.523V50.252c0-5.561 1.562-11.185 4.642-14.703zm-84.045-4.74c20.639-2.759 21.38 10.432 21.76 13.256.893 6.637 1.27 14.595-.052 19.692-.863 3.344-2.396 8.113-9.138 10.239-9.225 2.909-26.631 1.277-24.147-15.613 2.01-13.663 28.361-10.3 29.414-10.16l.033.005c-.454-9.519-4.02-12.536-8.926-13.303-9.046-1.413-14.325 3.11-14.325 3.11l-2.313-3.876s2.973-2.72 7.694-3.35zm183.197 0c20.64-2.759 21.388 10.432 21.759 13.256.894 6.637 1.269 14.595-.05 19.692-.862 3.344-2.4 8.113-9.14 10.239-9.228 2.909-26.632 1.277-24.145-15.613 1.969-13.384 27.293-10.43 29.316-10.172l.128.017c-.454-9.519-4.018-12.536-8.922-13.303-9.048-1.413-14.326 3.11-14.326 3.11l-2.312-3.876s2.971-2.72 7.692-3.35zm-52.529-15.29v18.698s4.001-3.379 12.715-3.379c7.78 0 13.026 3.46 16.141 9.209 3.945 7.292 3.264 18.97.635 24.984-2.297 5.245-5.787 8.628-12.796 9.795-8.019 1.33-13.759-1.542-16.453-4.62-3.077-3.521-4.767-9.143-4.767-14.704V15.519zm173.4 51.266v8.293h-3.012v-8.293zm15.078-36.188v44.48h-3.012v-44.48zm-78.906 4.267-2.734 2.967-.031-.032c-.464-.46-5.959-5.68-13.563-2.66-3.622 1.433-5.137 5.206-4.403 8.023.878 3.393 4.25 5.626 8.668 6.787 10.03 2.636 12.704 6.343 13.361 11.056.962 6.907-4.477 13.992-12.483 14.023-9.8.044-15.455-6.735-15.455-6.735l3.581-3.017s12.446 11.32 19.539 1.132c2.01-2.89 1.508-8.67-5.593-11.31-8.139-3.025-14.635-4.521-16.018-11.052-2.49-11.772 13.193-18.474 25.131-9.182zm30.379-4.293.401.001c10.68.119 16.988 6.431 17.635 15.99.148 2.192.379 6.693 0 8.794l-32.892-.031v.044c.01.692.265 9.307 7.164 13.525 4.32 2.64 13.574 4.145 22.114-.93l1.994 3.454s-4.31 3.65-13.945 3.604c-18.234-.096-23.518-12.426-21.128-27.74 1.259-8.042 7.623-16.839 19.058-16.71zm79.536.022c11.031 0 19.978 9.897 19.978 22.102 0 12.207-8.947 22.104-19.978 22.104-11.035 0-19.982-9.897-19.982-22.104 0-12.207 8.947-22.102 19.982-22.102zm0 3.397c-9.427 0-17.06 8.452-17.06 18.88 0 10.425 7.637 18.879 17.06 18.879 9.425 0 17.065-8.456 17.063-18.88 0-10.427-7.64-18.879-17.063-18.879zm-205.659.98c-10.164-.688-13.703 4.297-13.703 4.297-.123 8.293-.243 16.49.29 21.23.23 2.039 2.72 11.576 13.6 10.848 10.532-.7 13.174-8.054 13.422-18.544.287-12.04-5.226-17.267-13.609-17.83zM159.757 52.707s-6.751-2.082-16.992 0c-10.047 2.041-9.897 11.027-7.39 14.15 3.94 4.917 13.206 5.435 19.585 2.56 5.892-2.656 5.126-13.6 4.86-16.168l-.03-.27-.032-.272zm183.198 0s-6.75-2.082-16.994 0c-10.043 2.041-9.896 11.027-7.386 14.15 3.934 4.917 13.205 5.435 19.58 2.56 6.691-3.015 4.8-16.71 4.8-16.71zM193.569 34.41c-10.877-.729-13.37 8.81-13.6 10.848-.49 4.365-.43 11.666-.318 19.27l.02 1.306.01.654s3.541 4.981 13.703 4.296c8.382-.561 13.898-5.792 13.609-17.83-.252-10.492-2.89-17.841-13.424-18.544zm45.991 0c-10.875-.729-13.37 8.81-13.598 10.848-.493 4.365-.431 11.666-.32 19.27l.02 1.306.01.654s3.542 4.981 13.701 4.296c8.38-.561 13.898-5.792 13.607-17.83-.252-10.492-2.89-17.841-13.42-18.544zm173.246-.044c-12.943-.123-15.126 15.08-15.128 17.34h29.257s1.446-17.19-14.129-17.34zm48.207-19.6v8.294h-3.012v-8.293z"/>
  </g>
</svg>
