<svg xmlns="http://www.w3.org/2000/svg" viewBox="0 0 256 255.873">
  <path fill="#3bc7f6" d="M127.997 0C57.311 0 0 57.275 0 127.936c0 70.651 57.31 127.937 127.997 127.937S256 198.587 256 127.936C256.005 57.275 198.69 0 127.997 0zm0 248.744c-66.763 0-120.863-54.106-120.863-120.808 0-66.722 54.1-120.812 120.863-120.812 66.738 0 120.87 54.09 120.87 120.812 0 66.702-54.132 120.808-120.87 120.808zm54.672-144.227c-4.235 0-7.985 2.16-10.192 5.447L132.028 98.84c.102-.83.189-1.666.189-2.492 0-9.951-8.067-18.013-17.998-18.013-9.947 0-18.008 8.062-18.008 18.013 0 7.878 5.106 14.594 12.209 17.01l-3.47 21.738a25.68 25.68 0 0 0-5.468-.586c-14.17 0-25.641 11.475-25.641 25.62 0 14.166 11.47 25.642 25.641 25.642 14.15 0 25.652-11.476 25.652-25.641 0-3.664-.785-7.134-2.181-10.299l49.687-26.018c2.212 3.16 5.89 5.238 10.029 5.238 6.807 0 12.306-5.498 12.306-12.27-.005-6.782-5.494-12.265-12.306-12.265zm-61.805 41.488a25.697 25.697 0 0 0-11.715-9.6l3.541-22.145c.505.04.994.06 1.529.06a17.946 17.946 0 0 0 16.678-11.27L170.724 114c-.183.886-.316 1.809-.316 2.772 0 1.06.153 2.084.403 3.077l-49.947 26.156z"/>
</svg>
