<svg xmlns="http://www.w3.org/2000/svg" viewBox="0 0 256 256">
  <defs>
    <linearGradient id="a" x1="53.079" x2="180.217" y1="300.012" y2="300.012" gradientTransform="scale(1.42051 .70397)" gradientUnits="userSpaceOnUse">
      <stop offset="19%" stop-color="#00DAF0"/>
      <stop offset="90%" stop-color="#247CE6"/>
    </linearGradient>
    <linearGradient id="b" x1="310.654" x2="9228.156" y1="-89393.021" y2="-89393.021" gradientTransform="scale(1.0325 .96853)" gradientUnits="userSpaceOnUse">
      <stop offset="19%" stop-color="#00DAF0"/>
      <stop offset="90%" stop-color="#247CE6"/>
    </linearGradient>
    <linearGradient id="c" x1="168.003" x2="40.964" y1="263.707" y2="86.984" gradientTransform="scale(.99844 1.00157)" gradientUnits="userSpaceOnUse">
      <stop offset="9%" stop-color="#1DDF93"/>
      <stop offset="48%" stop-color="#00DAF0"/>
      <stop offset="90%" stop-color="#247CE6"/>
    </linearGradient>
  </defs>
  <path fill="#247ce6" d="M136.4 69.2 120.8 114l95.6 87.2L256 96.4z"/>
  <path fill="url(#a)" d="m75.2 224.8 32.4-58.4L256 205.2 195.6 256z" style="fill:url(#a)"/>
  <path fill="url(#b)" d="m140.4 0-10.8 113.6-94.4 13.6L4.8 39.6z" style="fill:url(#b)"/>
  <path fill="url(#c)" d="M186 82.8 140.4 0 0 151.6V256l255.2-50.8-32-57.2-38-64.8z" style="fill:url(#c)"/>
  <path d="M48 48h160v160H48z"/>
  <path fill="#fff" d="M62.8 178h60v10h-60zM89.2 68.8h13.2l28 66h-15.2l-6-14.8H81.6l-6 14.8H60.8zm15.2 38.8-8.8-21.2-8.8 21.2zm22.4-5.2a34 34 0 0 1 34.8-34.8c12.4 0 20 4 26.4 10.4l-9.2 10.8c-5.2-4.8-10.4-7.6-17.2-7.6-11.2 0-19.2 9.2-19.2 20.8 0 11.6 8 20.8 19.2 20.8 7.6 0 12.4-3.2 17.6-8l9.2 9.6c-6.8 7.2-14.4 12-27.2 12a33.56 33.56 0 0 1-34.4-34z"/>
</svg>
