<svg xmlns="http://www.w3.org/2000/svg" viewBox="0 0 512 105.794">
  <path fill="#fff" d="M162.217 44.594c0-5.405-3.621-8.428-10.453-8.428-3.611 0-7.474 1.004-11.444 2.974-.144.071-.306.155-.487.25a2.862 2.862 0 0 1-3.862-1.188l-.005-.01-1.929-3.672a2.844 2.844 0 0 1 1.201-3.842c.64-.336 1.168-.604 1.583-.806 5.752-2.794 10.73-3.979 17.546-3.979 12.675 0 20.063 6.412 20.155 17.362l.083 28.786a2.852 2.852 0 0 1-2.85 2.856H165.165a2.853 2.853 0 0 1-2.857-2.848v-2.254c-3.415 3.712-8.613 5.637-15.12 5.637-10.289 0-17.193-6.28-17.193-15.22 0-9.184 6.88-14.685 18.629-14.775h13.594zm-11.71 9.42c-6.097 0-8.657 1.627-8.657 5.484 0 3.797 3.07 6.197 8.12 6.197 6.474 0 11.646-3.395 12.247-7.804v-3.876zm57.947-28.032c13.8 0 23.117 10.02 23.117 24.86 0 14.665-9.136 24.501-22.937 24.501-6.813 0-12.276-2.553-15.928-7.341v21.36a2.853 2.853 0 0 1-2.857 2.848h-6.77a2.853 2.853 0 0 1-2.858-2.849V29.188a2.853 2.853 0 0 1 2.858-2.849h6.77a2.853 2.853 0 0 1 2.857 2.849V33.3c3.567-4.76 9.01-7.319 15.748-7.319zm-2.603 38.552c7.665 0 13.056-5.789 13.056-14.05 0-8.184-5.402-13.96-13.056-13.96-7.73 0-13.145 5.762-13.145 13.96 0 8.332 5.373 14.05 13.145 14.05zm59.865-38.552c13.8 0 23.116 10.02 23.116 24.86 0 14.665-9.135 24.501-22.937 24.501-6.813 0-12.276-2.553-15.928-7.341v21.36a2.853 2.853 0 0 1-2.857 2.848h-6.77a2.853 2.853 0 0 1-2.858-2.849V29.188a2.853 2.853 0 0 1 2.858-2.849h6.77a2.853 2.853 0 0 1 2.857 2.849V33.3c3.567-4.76 9.01-7.319 15.749-7.319zm-2.603 38.552c7.665 0 13.055-5.789 13.055-14.05 0-8.184-5.402-13.96-13.055-13.96-7.73 0-13.146 5.762-13.146 13.96 0 8.332 5.373 14.05 13.146 14.05zm66.675-24.046c-2.858-2.303-6.414-3.518-10.54-3.518-7.515 0-12.697 5.552-12.697 13.693 0 8.294 5.16 13.871 12.697 13.871 3.868 0 7.166-.92 9.742-2.721.387-.27.85-.67 1.388-1.194a2.864 2.864 0 0 1 3.818-.163l3.617 2.974a2.842 2.842 0 0 1 .386 4.01l-.05.058c-.782.896-1.46 1.589-2.034 2.078-4.415 3.765-10.405 5.767-17.496 5.767-14.6 0-24.642-10.011-24.642-24.591 0-14.727 10.1-24.77 24.822-24.77 7.845 0 14.434 2.532 18.943 7.193a2.597 2.597 0 0 1-.067 3.68l-.017.017-3.878 3.66a2.864 2.864 0 0 1-3.82.099 8.43 8.43 0 0 0-.172-.143zM352.193 6.26c3.903 0 6.691 2.856 6.691 6.832s-2.788 6.833-6.691 6.833-6.691-2.857-6.691-6.833 2.788-6.832 6.69-6.832zm-3.385 20.08h6.77a2.853 2.853 0 0 1 2.857 2.848v42.86a2.853 2.853 0 0 1-2.857 2.849h-6.77a2.853 2.853 0 0 1-2.858-2.848V29.188a2.853 2.853 0 0 1 2.858-2.849zm41.814-.145c.226-.038.49-.073.788-.105a2.855 2.855 0 0 1 3.169 2.831v6.172a2.853 2.853 0 0 1-2.785 2.848c-.401.01-.738.028-1.01.054-7.774.73-12.541 5.936-12.541 13.47V72.05a2.853 2.853 0 0 1-2.857 2.848h-6.77a2.853 2.853 0 0 1-2.858-2.848V29.188a2.853 2.853 0 0 1 2.857-2.849h6.77a2.853 2.853 0 0 1 2.858 2.849v5.2c2.79-4.52 7.008-7.312 12.379-8.193zm41.44 14.468c-.656-.56-1.215-.983-1.672-1.267-2.564-1.595-5.59-2.426-9.003-2.426-7.514 0-12.696 5.552-12.696 13.693 0 8.294 5.16 13.871 12.696 13.871 3.62 0 6.744-.806 9.242-2.388.52-.33 1.15-.848 1.885-1.556a2.864 2.864 0 0 1 3.804-.15l3.625 2.982a2.842 2.842 0 0 1 .386 4.01l-.057.067c-.91 1.034-1.697 1.822-2.362 2.365-4.382 3.58-10.245 5.48-17.15 5.48-14.6 0-24.644-10.012-24.644-24.592 0-14.727 10.102-24.77 24.823-24.77 7.092 0 13.166 2.069 17.607 5.928.332.288.716.661 1.155 1.12a2.842 2.842 0 0 1-.1 4.028l-.005.005-3.712 3.503a2.864 2.864 0 0 1-3.822.097zm16.886-32.797h6.77a2.853 2.853 0 0 1 2.858 2.849v61.334a2.853 2.853 0 0 1-2.858 2.848h-6.77a2.853 2.853 0 0 1-2.857-2.848V10.715a2.853 2.853 0 0 1 2.857-2.849zM489.75 65.16c3.826 0 7.43-1.15 10.42-3.322.162-.117.348-.262.555-.433a2.864 2.864 0 0 1 3.88.222l2.919 3.026a2.842 2.842 0 0 1-.164 4.105c-1.129.997-2.083 1.748-2.866 2.252-4.403 2.836-9.771 4.334-15.731 4.334-15.04 0-25.092-9.915-25.092-24.591 0-14.695 10.16-24.77 24.822-24.77 15.326 0 23.414 9.003 23.507 24.938.002.375-.005.842-.022 1.402a2.853 2.853 0 0 1-2.856 2.763h-32.587c1.618 6.29 6.567 10.074 13.215 10.074zm10.7-18.651c-.43-6.587-4.963-10.699-11.867-10.699-6.507 0-11.16 4.07-12.354 10.699z"/>
  <path fill="#ff8f34" d="M38.503 75.28c8.1 6.584 9.463 13.58 4.09 20.988-6.622 8.92-18.88 12.16-29.255 7.142l-.087-.042a21.68 21.68 0 0 1-.075-.037C1.512 97.64-3.311 83.608 2.404 71.991l12.934-26.295 7.268-14.775 8.735-17.758C35.585 4.533 44.438-.35 53.5.02c8.754-.033 17.18 4.81 21.289 13.162l28.936 58.828c5.715 11.617.892 25.649-10.772 31.34l-.075.037-.087.042c-11.592 5.606-25.533.905-31.34-10.508-3.01-6.305-1.003-12.257 6.022-17.854h-.002c5.283-4.251 8.662-10.757 8.662-18.048 0-12.807-10.423-23.188-23.28-23.188-12.858 0-23.281 10.381-23.281 23.188 0 7.414 3.493 14.015 8.93 18.26zm14.372-6.109c-6.756 0-12.233-5.454-12.233-12.183s5.477-12.184 12.233-12.184c6.755 0 12.232 5.455 12.232 12.184 0 6.729-5.477 12.183-12.232 12.183z"/>
</svg>
