<svg xmlns="http://www.w3.org/2000/svg" viewBox="0 0 256 255.189">
  <path fill="#ff8f34" d="M92.875 181.583c19.537 15.884 22.826 32.76 9.866 50.629-15.974 21.514-45.54 29.33-70.568 17.226l-.21-.102a59.46 59.46 0 0 1-.181-.088C3.647 235.52-7.986 201.672 5.798 173.65l31.199-63.426 17.531-35.64 21.07-42.833C85.836 10.936 107.19-.845 129.05.047c21.117-.08 41.441 11.604 51.351 31.75l69.8 141.9c13.784 28.022 2.15 61.869-25.984 75.598l-.181.088-.21.102c-27.961 13.522-61.588 2.182-75.597-25.347-7.26-15.21-2.418-29.565 14.527-43.067h-.006c12.744-10.254 20.895-25.946 20.895-43.534 0-30.89-25.142-55.933-56.156-55.933-31.015 0-56.156 25.042-56.156 55.933 0 17.884 8.426 33.807 21.54 44.046zm34.666-14.732c-16.296 0-29.506-13.158-29.506-29.389 0-16.23 13.21-29.388 29.506-29.388 16.295 0 29.505 13.157 29.505 29.388 0 16.23-13.21 29.389-29.505 29.389z"/>
</svg>
