<svg xmlns="http://www.w3.org/2000/svg" viewBox="0 0 256 158.589">
  <path fill="#007f3e" d="M202.47 51.528c-5.463 0-10.015 4.552-10.015 10.014s4.552 10.014 10.014 10.014c18.572 0 33.503 15.113 33.503 33.502 0 18.572-15.113 33.502-33.503 33.502H44.063c-13.292.183-24.035-10.56-24.035-23.852 0-13.291 10.743-23.852 23.853-23.852 5.462 0 10.014-4.552 10.014-10.014S49.343 70.828 43.88 70.828C19.664 70.828 0 90.492 0 114.708c0 24.217 19.664 43.88 43.88 43.88h158.407c29.497 0 53.713-24.033 53.713-53.712 0-29.678-24.034-53.348-53.53-53.348zM41.513 53.53c5.644-5.645 13.291-8.74 21.303-8.74 16.568 0 30.042 13.474 30.042 30.043v32.227h20.029c.728-19.3 16.75-34.777 36.233-34.777 5.462 0 10.014-4.551 10.014-10.014 0-5.462-4.552-10.014-10.014-10.014-13.838 0-26.401 4.916-36.233 13.292v-14.02c2.367-17.662 17.661-31.5 36.05-31.5 9.65 0 18.755 3.824 25.674 10.56 4.005 4.007 10.196 4.007 14.202 0 4.005-4.005 4.005-10.195 0-14.201C178.07 5.827 163.869 0 148.939 0c-24.398 0-45.155 15.477-52.985 37.144-8.921-7.83-20.392-12.564-33.137-12.564-13.474 0-26.037 5.28-35.505 14.749-4.006 4.005-4.006 10.196 0 14.202 4.005 4.005 10.378 4.005 14.202 0z"/>
</svg>
