<svg xmlns="http://www.w3.org/2000/svg" viewBox="0 0 256 187.604">
  <path fill="#00a4d3" d="M244.675 104.605c-7.45-9.238-16.838-15.348-28.46-18.03 3.575-5.513 5.513-11.623 5.513-18.328 0-9.388-3.279-17.434-9.984-24.14-6.706-6.705-14.752-9.984-24.14-9.984-8.493 0-15.795 2.683-22.053 8.196-5.216-12.815-13.56-23.097-25.183-30.845C128.894 3.874 116.228 0 102.37 0 83.446 0 67.353 6.705 54.09 19.967 40.83 33.23 34.124 49.322 34.124 68.247c0 1.192.15 3.129.298 5.662-10.43 4.918-18.775 12.22-25.033 22.054C3.129 105.648 0 116.377 0 127.85c0 16.391 5.811 30.547 17.583 42.17 11.623 11.623 25.779 17.583 42.17 17.583H204.74c14.156 0 26.226-5.066 36.21-15.05 9.984-9.984 15.05-22.053 15.05-36.21-.149-11.771-3.874-22.351-11.325-31.739zm-43.958 83h-21.16l-7.152-22.352H131.13l-7.152 22.351h-21.16l38.147-106.393h21.606l38.147 106.393zm-64.223-39.34h30.547l-15.2-47.98z"/>
</svg>
