<svg xmlns="http://www.w3.org/2000/svg" viewBox="0 0 256 255.999">
  <path fill="#662d91" d="M.295 119.397c24.814 57.004 87.778 66.563 162.925 18.246 34.66 32.08 43.295 70.11 14.374 108.392C162.341 252.451 145.586 256 128 256 57.308 256 0 198.692 0 128c0-2.89.106-5.758.295-8.602zm117.058-24.744c11.206-46.695 42.495-73.48 91.678-65.737 28.67 23.474 46.97 59.14 46.97 99.084 0 50.395-29.127 93.979-71.46 114.857 38.456-54.784 7.03-112.584-67.187-148.204zM128.001 0c27.435 0 52.85 8.635 73.687 23.33-69.951-8.132-102.984 50.175-98.37 130.694-45.452 13.941-82.48 3.669-102.048-44.047C10.03 47.819 63.427 0 128 0z"/>
</svg>
