<svg xmlns="http://www.w3.org/2000/svg" viewBox="0 0 254.997 325.8">
  <path fill="#231f20" d="m88.097 325.8 67.4-10.4-91.9-76s-47.8 6.3-55.5 7.9c-14.1 3-5.5 8.4-5.5 8.4z" opacity=".2"/>
  <path fill="#178faa" d="m59.997 209.4.1.1-3.1 2.7v84.5l1.9 5.1 29.5 23.8 1.1-2.2v-89.3l-1.1-1.7z"/>
  <path fill="#22a9cd" d="M254.997 296.4v-85.3l-2.9-2.9.6-.9-164.3 25v93.3l163.8-25z"/>
  <path d="m56.897 296.6 2 5.3 29.5 23.7v-3.7zM254.897 296.6l-166.5 25.3v3.7l163.8-25z" opacity=".15"/>
  <path fill="#d8aa29" d="M56.997 116.1v.3l2.8 4.1-2.8 2.5v82.6l3.1 3.9-.4.4 28.8 23.2 1.5-1.6v-87.7l-1.5-2.2z"/>
  <path fill="#ffcd18" d="M254.997 204.2v-82.6l-2.9-2.9 1.6-2.3-165.3 25.1v91.6l163.7-24.9z"/>
  <path d="M56.997 204.1v1.5l3.2 4-.5.4 28.8 23.2v-3.7z" opacity=".12"/>
  <g>
    <path fill="#3cd6a3" d="m56.897 26.5 166.6-25.4 31.5 25.4-2.3 2-164.5 25.2-29.3-23.5z"/>
    <path fill="#35b48c" d="m167.997 9.6 32.9-5.1 13.8 11.3-32.9 5.1zM80.697 22.9l32.9-5.1 13.8 11.3-32.9 5.1z"/>
    <path fill="#219972" d="M180.297 18.9c0 2.9 7.7 5.3 17.3 5.3 9.6 0 17.3-2.4 17.3-5.3V5.4h-34.6z"/>
    <path fill="#3cd6a3" d="M180.297 5.3c0 2.9 7.7 5.3 17.3 5.3 9.6 0 17.3-2.4 17.3-5.3s-7.7-5.3-17.3-5.3c-9.5.1-17.3 2.4-17.3 5.3"/>
    <path fill="#219972" d="M93.297 32.3c0 2.9 7.7 5.3 17.3 5.3 9.6 0 17.3-2.4 17.3-5.3V18.8h-34.6z"/>
    <path fill="#3cd6a3" d="M93.297 18.7c0 2.9 7.7 5.3 17.3 5.3 9.6 0 17.3-2.4 17.3-5.3s-7.7-5.3-17.3-5.3c-9.6 0-17.3 2.4-17.3 5.3"/>
    <path fill="#219972" d="M56.997 26.6v89.8l2.7 3.9 28.8 23.2 1-2.2V53.5l-1-1.6z"/>
    <path fill="#35b48c" d="M254.997 114.5v-88l-166.6 25.4v91.6l163.7-24.9z"/>
    <path d="M56.897 114.5v1.9l2.8 4 28.7 23.1v-3.7z" opacity=".15"/>
  </g>
  <path fill="#fff" d="M215.797 245.9c-22.3 3.4-76.2 11.6-85.1 13-11.3 1.7-11.1-10.6-11.1-10.6v-152s-.7-8.4 7.7-9.7c24.9-3.8 87.2-13.3 91.8-14 5.9-.9 6.4 5.1 6.4 5.1v156.4c0 .1.1 10.3-9.7 11.8zm-106.5 45.4c.2 3.5 1.8 12.5 12.9 10.8 4.3-.6 25.5-3.9 51-7.8 25.1-3.8 45.6-6.9 49.8-7.6 11-1.7 12.7-11.1 12.9-14.7V65.2s-.8-14-12.9-12.1c-8.4 1.3-92.4 14.1-100.8 15.4-13.7 2.1-12.9 16-12.9 16v206.2z" opacity=".8"/>
  <path d="m254.997 204.2-166.6 25.3v3.7l163.7-24.9z" opacity=".12"/>
  <path d="m254.997 114.5-166.6 25.3v3.7l163.7-24.9z" opacity=".1"/>
  <path fill="#34b1de" d="M163.997 273.2c0 5.1 3.8 8.7 8.5 8 4.7-.7 8.5-5.4 8.5-10.6 0-5.1-3.8-8.7-8.5-8-4.7.7-8.5 5.4-8.5 10.6"/>
</svg>
