<svg xmlns="http://www.w3.org/2000/svg" viewBox="0 0 256 285.129">
  <path fill="#15637a" d="M126.999 240.93 88.44 37.847c-.87-4.539-4.565-9.275-8.377-10.72L9.983.699C4.628-1.302.21 1.127.21 6.295L0 263.579c-.01 13.6 7.407 23.311 16.277 21.281l104.855-24.125c5.149-1.17 7.685-10.173 5.87-19.805zm-20.705-23.658-80.09 8.51c-6.327.668-11.74-5.6-11.923-13.86L10.163 32.117c-.099-4.158 3.516-6.275 7.975-4.84L77.99 46.736c3.329 1.08 6.5 4.865 7.159 8.54l26.566 149.415c1.144 6.455-1.229 12.104-5.425 12.582zM80.248 79.32l-2.661-16.266c-.355-2.162-2.026-4.295-3.727-4.79l-12.896-3.661c-1.846-.524-3.125.861-2.857 3.1l2.114 16.908c.3 2.427 2.121 4.779 4.062 5.21l13.42 3.011c1.794.414 2.915-1.173 2.543-3.512zm56.16 16.829-1.673-17.36c-.229-2.317-2.031-4.597-4.04-5.187l-15.192-4.3c-2.177-.637-3.863.808-3.746 3.183l.897 18.093c.13 2.58 2.112 5.132 4.415 5.664l15.955 3.587c2.119.477 3.621-1.167 3.382-3.68zm40.512 32.677-1.965-20.473c-.268-2.72-2.215-5.234-4.39-5.65l-16.378-3.13c-2.366-.478-4.189 1.435-4.04 4.267l1.064 21.543c.16 3.115 2.322 5.906 4.827 6.208l17.278 2.12c2.295.257 3.892-1.922 3.605-4.885zm-96.83-4.097-3.085-18.95c-.408-2.502-2.2-4.807-4.028-5.157l-13.722-2.663c-1.976-.37-3.318 1.422-2.999 4.056l2.465 19.842c.373 2.867 2.342 5.419 4.397 5.656l14.352 1.74c1.893.242 3.062-1.813 2.623-4.524zm-22.812 72.468-2.356-24.505c-.317-3.265-2.457-5.995-4.799-6.201l-17.774-1.476c-2.571-.206-4.54 2.358-4.37 5.78l1.285 26.083c.195 3.776 2.59 6.872 5.314 6.86l18.86-.032c2.484-.006 4.185-2.94 3.84-6.51zM255.969 77.299l-1.5-16.968c-.213-2.235-1.567-4.123-3.066-4.284l-11.339-1.018c-1.632-.14-2.878 1.629-2.78 4.013l.83 18.045c.111 2.628 1.654 4.76 3.393 4.758l12.016-.025c1.573-.017 2.669-2.034 2.449-4.52zm-38.833 93.183-3.643-22.345c-.476-2.951-2.413-5.458-4.36-5.606l-14.649-1.228c-2.117-.166-3.543 2.185-3.147 5.301l2.925 23.608c.435 3.402 2.59 6.193 4.817 6.176l15.357-.041c2.028 0 3.229-2.648 2.703-5.865zm.888-60.727-1.673-17.354c-.219-2.329-2.014-4.608-4.032-5.194l-15.185-4.3c-2.183-.631-3.87.796-3.753 3.182l.88 18.093c.147 2.58 2.132 5.142 4.416 5.68l15.967 3.561c2.133.474 3.614-1.16 3.384-3.668zm-41.688 78.875-3.651-22.32c-.48-2.96-2.418-5.483-4.36-5.656l-14.657-1.22c-2.125-.172-3.535 2.194-3.147 5.318l2.94 23.598c.428 3.393 2.6 6.184 4.799 6.184l15.359-.033c2.037-.005 3.235-2.652 2.719-5.87z"/>
</svg>
