<svg xmlns="http://www.w3.org/2000/svg" viewBox="0 0 511.483 90.941">
  <g fill="#21375a">
    <path d="M241.698 29.571c9.928 0 12.665 6.538 12.665 6.538h.17c-.06-.36-.09-.726-.085-1.092V33.43c0-1.603 1.177-2.837 3.432-2.837h2.837a3.12 3.12 0 0 1 3.46 3.447v36.69c0 14.68-11.573 20.211-22.139 20.211-4.27.03-8.508-.74-12.495-2.269a3.007 3.007 0 0 1-1.844-4.524l.638-1.887c.965-2.141 2.213-2.723 4.482-1.971a23.302 23.302 0 0 0 8.638 1.588c6.538 0 12.07-2.765 12.07-10.396v-3.177c.012-.73.068-1.46.17-2.184h-.17c-2.355 4.028-6.043 6.368-11.744 6.368-12.481 0-19.36-9.928-19.36-21.713 0-11.786 6.538-21.204 19.275-21.204zm-160.862 0c11.573 0 19.033 9.134 19.033 22.38 0 13.414-8.168 22.155-19.184 22.377l-.43.004a13.885 13.885 0 0 1-12.325-6.538h-.17c.191 1.22.295 2.452.311 3.687v15.034a3.106 3.106 0 0 1-3.517 3.532h-3.673a3.149 3.149 0 0 1-3.518-3.532V34.04a3.177 3.177 0 0 1 3.518-3.518h2.68c2.27 0 3.447 1.249 3.447 2.936v2c0 .559-.029 1.118-.085 1.674h.156a15.36 15.36 0 0 1 13.757-7.56zm50.619.014c11.573 0 19.033 9.134 19.033 22.38 0 13.414-8.169 22.155-19.184 22.377l-.431.004a13.885 13.885 0 0 1-12.325-6.538h-.17c.178 1.221.263 2.454.255 3.688v15.02a3.12 3.12 0 0 1-3.531 3.53h-3.674a3.149 3.149 0 0 1-3.517-3.53V34.038a3.177 3.177 0 0 1 3.517-3.518h2.68c2.27 0 3.447 1.249 3.447 2.936v2c0 .559-.028 1.118-.085 1.674h.241a15.346 15.346 0 0 1 13.744-7.546zm45.569-16.793a27.665 27.665 0 0 1 15.346 4.54 3.305 3.305 0 0 1 1.092 4.779l-1.504 2.766c-1.262 2.425-3.02 2.085-4.78 1.163a19.558 19.558 0 0 0-10.31-3.262c-5.546 0-9.063 2.68-9.063 6.708 0 11.148 27.756 8.297 27.756 27.245 0 9.645-7.22 17.601-19.7 17.601a31.656 31.656 0 0 1-18.282-6.028 3.106 3.106 0 0 1-.539-4.864l1.844-2.68c1.333-1.845 2.837-1.93 4.85-.752a20.976 20.976 0 0 0 12.127 4.354c5.531 0 8.878-2.837 8.878-6.794 0-11.346-27.741-8.963-27.741-27.5 0-10.482 8.708-17.276 20.026-17.276zm164.421 16.793c11.063 0 17.686 6.198 17.686 17.02v23.203a3.106 3.106 0 0 1-3.517 3.517h-2.836a3.078 3.078 0 0 1-3.433-3.517v-1.73a8.208 8.208 0 0 1 .17-1.844h-.17a15.601 15.601 0 0 1-13.417 8.041c-7.8 0-14.183-5.02-14.183-12.764-.07-12.352 15.008-14.545 24.588-14.593l2.09-.001V45.91c0-5.673-3.602-7.545-7.97-7.545-3.114.08-6.16.918-8.879 2.439-2.015.885-3.573.607-4.585-1.186l-.96-1.82a3.12 3.12 0 0 1 1.418-4.695 30.436 30.436 0 0 1 13.998-3.518zm37.133-14.858c.673.69.99 1.65.863 2.604v41.826c0 4.125 1.654 4.904 3.203 5.103l.144.017a2.737 2.737 0 0 1 2.596 3.02v2.837a3.177 3.177 0 0 1-3.518 3.617l-.49-.004c-5.595-.091-12.501-1.85-12.501-13.74V17.332a3.12 3.12 0 0 1 3.432-3.531h3.688a3.134 3.134 0 0 1 2.583.927zM299.602 29.51l.444.003c9.474 0 14.92 4.936 14.92 16.254v24.04a3.106 3.106 0 0 1-3.517 3.517h-3.603a3.134 3.134 0 0 1-3.517-3.517v-21.8c0-5.19-1.418-8.722-6.709-8.722-7.545 0-12.324 6.298-12.324 14.013v16.509a3.092 3.092 0 0 1-3.447 3.517h-3.687a3.078 3.078 0 0 1-3.433-3.517v-35.77a3.12 3.12 0 0 1 3.433-3.517h3.276a3.106 3.106 0 0 1 3.432 3.518v2.595c-.01.646-.067 1.291-.17 1.93h.17a16.68 16.68 0 0 1 14.732-9.053zm-86.17 1.927a3.12 3.12 0 0 1 .864 2.6v35.77a3.092 3.092 0 0 1-3.446 3.517h-3.688a3.078 3.078 0 0 1-3.432-3.517v-35.77a3.12 3.12 0 0 1 3.432-3.517h3.688a3.12 3.12 0 0 1 2.583.917zM32.133 16.65 50.74 69.31c.837 2.426-.255 4.014-2.837 4.014h-3.871a3.744 3.744 0 0 1-3.943-2.836l-4.184-12.34H15.028l-4.113 12.255a3.73 3.73 0 0 1-3.943 2.921H3.128c-2.61 0-3.701-1.588-2.836-4.014l18.593-52.66a3.801 3.801 0 0 1 3.943-2.837h5.361a3.744 3.744 0 0 1 3.943 2.837zm316.376 38.322v-1.589h-1.772c-5.361 0-14.495.837-14.495 7.205 0 2.85 2.184 5.616 6.453 5.616 5.957 0 9.814-6.041 9.814-11.232zM129.043 38.705c-5.545 0-10.821 4.028-10.821 13.502 0 6.623 3.744 13.162 10.651 13.162 5.858 0 10.722-4.78 10.722-13.247 0-8.141-4.354-13.417-10.552-13.417zm-50.561 0c-5.532 0-10.808 4.028-10.808 13.502 0 6.623 3.688 13.162 10.652 13.162 5.857 0 10.722-4.78 10.722-13.247 0-8.141-4.354-13.417-10.566-13.417zm164.903-.057c-6.623 0-10.24 4.695-10.24 11.744 0 7.715 3.858 13.161 10.737 13.161 5.035-.028 9.9-2.964 9.9-12.495 0-9.814-4.865-12.41-10.397-12.41zM25.594 24.111h-.17l-.8 3.356c-.463 1.888-1.051 4.196-1.555 5.877L17.71 49.27h15.515l-5.29-15.927-.255-.888c-.953-3.411-2.085-8.345-2.085-8.345zm187.87-9.397a3.177 3.177 0 0 1 .903 2.617v2.525a3.106 3.106 0 0 1-3.517 3.432h-3.688a3.05 3.05 0 0 1-3.432-3.432v-2.525a3.12 3.12 0 0 1 3.432-3.531h3.688a3.177 3.177 0 0 1 2.614.914zM498.506 17.785c-7.715 0-13.233 6.794-18.92 14.367C476.055 16.07 472.14 0 459.66 0c-12.48 0-16.41 16.07-19.998 32.167-5.673-7.588-11.19-14.382-18.905-14.382-4.907 0-13.219 3.333-13.219 15.842V56.32c0 12.268 6.553 15.275 10.482 16.31 6.779 1.759 23.103 3.404 41.484 3.404s34.706-1.645 41.485-3.404c3.929-1.035 10.495-4.042 10.495-16.31V33.627c0-12.509-8.31-15.842-13.218-15.842M459.659 7.091c7.475 0 10.325 14.75 14.297 32.45-4.355 5.362-8.978 9.688-14.297 9.688-5.318 0-9.928-4.326-14.296-9.687 3.716-16.552 6.58-32.45 14.296-32.45M414.742 56.39V33.698c0-7.9 4.255-8.75 6.127-8.75 5.446 0 11.347 9.077 16.864 16.367-3.943 16.537-8.113 26.607-17.956 24.536-2.567-.695-4.978-2.326-4.978-9.39m19.317 11.503c4.354-4.737 7.091-12.126 9.261-19.955 4.553 4.78 9.815 8.382 16.339 8.382 6.524 0 11.772-3.603 16.339-8.382 2.113 7.829 4.893 15.218 9.247 19.955-7.616.695-16.778 1.12-25.53 1.12-8.75 0-17.983-.425-25.6-1.12m70.518-11.502c0 7.091-2.411 8.694-4.978 9.389-9.857 2.085-14.013-8-17.956-24.536 5.574-7.29 11.346-16.367 16.864-16.367 1.843 0 6.126.85 6.126 8.75z"/>
  </g>
</svg>
