<svg xmlns="http://www.w3.org/2000/svg" viewBox="0 0 256 256">
  <path fill="#df2637" d="M192.899 238.351C173.869 249.566 151.686 256 128 256 57.308 256 0 198.692 0 128 0 57.308 57.308 0 128 0c70.692 0 128 57.308 128 128 0 32.646-12.221 62.437-32.338 85.048l16.728 39.83z"/>
  <path fill="#fff" d="m194.81 136.117-64.312 71.805-68.683-61.815c-6.244-6.868-9.99-14.985-9.99-24.975-.625-10.615 3.121-20.605 11.238-29.347 8.117-8.741 17.483-13.112 28.098-14.36 10.615-1.25 19.98 1.248 28.098 7.492 25.6 19.98 31.22 38.712 16.858 56.82-3.746-17.483-11.863-29.971-23.727-38.088-11.863-8.742-21.853-7.493-31.22 2.497-9.365 10.615-9.99 19.356-2.497 27.474l48.703 44.331 49.326-54.946c3.747-4.995 4.996-10.615 4.371-16.859-.624-7.492-4.37-13.736-9.99-18.731-6.244-5.62-12.488-8.742-19.98-8.117-6.244 0-11.24 1.873-13.737 5.62l-17.483-14.986c8.117-8.117 18.732-12.488 31.844-12.488 12.488-.624 24.351 3.746 34.341 13.112 8.742 8.117 14.361 19.356 16.234 33.717 2.498 14.361-1.248 24.351-7.492 31.844z"/>
</svg>
