<svg xmlns="http://www.w3.org/2000/svg" viewBox="0 0 256 168.039">
  <defs>
    <radialGradient id="a" cx="123.435" cy="50.851" r="61.655" fx="123.435" fy="50.851" gradientTransform="scale(1.04014 .9614)" gradientUnits="userSpaceOnUse">
      <stop offset="0%" stop-color="#FFB900"/>
      <stop offset="60%" stop-color="#F95D8F"/>
      <stop offset="99.91%" stop-color="#F95353"/>
    </radialGradient>
  </defs>
  <path fill="#283343" d="M24.04 159.631c-8.436 0-15.274-6.989-15.274-15.612 0-8.622 6.838-15.612 15.275-15.612 8.436 0 15.273 6.99 15.273 15.612 0 8.623-6.837 15.612-15.273 15.612zm15.323 1.98c0 1.43 2.45 5.446 5.452 5.446h1.944c.754 0 1.37-.617 1.37-1.37v-42.725h-.007a1.37 1.37 0 0 0-1.363-1.296h-6.024c-.729 0-1.324.577-1.365 1.296h-.006v3.472c-3.692-4.546-9.511-6.433-15.347-6.433C10.752 120.001 0 130.754 0 144.02s10.752 24.019 24.017 24.019c5.836 0 12.196-2.264 15.346-6.433zm23.16-6.118c4.021 2.785 8.411 4.138 12.629 4.138 4.02 0 8.173-2.084 8.173-5.71 0-4.84-9.053-5.594-14.74-7.527-5.69-1.933-10.59-5.93-10.59-12.402 0-9.902 8.824-13.992 17.06-13.992 5.218 0 10.601 1.721 14.092 4.186 1.203.91.47 1.957.47 1.957l-3.332 4.758c-.374.536-1.15.964-1.969.419-2.245-1.484-4.745-2.914-9.262-2.914-5.591 0-8.05 2.321-8.05 5.197 0 3.45 3.933 4.534 8.54 5.71 8.03 2.163 16.79 4.766 16.79 14.609 0 8.725-8.162 14.117-17.182 14.117-6.835 0-12.655-1.949-17.536-5.53-1.016-1.018-.306-1.963-.306-1.963l3.315-4.734c.675-.886 1.525-.576 1.898-.319zm74.99 6.119c0 1.429 2.449 5.445 5.45 5.445h1.945c.754 0 1.371-.617 1.371-1.37v-42.725h-.008a1.372 1.372 0 0 0-1.363-1.296h-6.024c-.73 0-1.324.577-1.364 1.296h-.007v3.472c-3.691-4.546-9.511-6.433-15.346-6.433-13.265 0-24.018 10.753-24.018 24.018s10.753 24.019 24.018 24.019c5.835 0 12.195-2.264 15.345-6.433zm-15.323-1.98c-8.437 0-15.275-6.99-15.275-15.613 0-8.622 6.838-15.612 15.275-15.612 8.435 0 15.274 6.99 15.274 15.612 0 8.623-6.839 15.612-15.274 15.612zm78.063 3.448-.003-22.107c0-12.462-7.861-20.87-20.4-20.87-5.983 0-10.88 3.461-12.613 6.434v-.042l-.01.034c-.004-3.008-2.443-4.76-5.451-4.76h-1.934c-.755 0-1.372.618-1.372 1.372V165.868h.008c.04.719.636 1.296 1.364 1.296h6.024c.092 0 .183-.01.27-.027.04-.008.077-.024.115-.035.046-.014.093-.025.135-.043.054-.021.102-.052.153-.08.024-.014.05-.025.073-.04a1.49 1.49 0 0 0 .169-.133c.009-.01.02-.015.027-.024.06-.057.115-.12.164-.187v-.001c.151-.207.242-.457.257-.726h.008V140.63c0-6.693 5.426-12.119 12.12-12.119 6.694 0 12.12 5.426 12.12 12.12l.005 21.095.002-.007c0 .018.003.038.003.058v4.09h.008c.04.72.635 1.298 1.364 1.298h6.024c.093 0 .182-.011.27-.028.036-.008.069-.022.103-.03.05-.015.1-.028.148-.047.048-.021.094-.049.14-.075.028-.016.058-.028.085-.045.057-.038.108-.082.158-.125.012-.011.027-.021.039-.033.057-.055.107-.114.154-.176l.011-.014a1.362 1.362 0 0 0 .256-.724h.007v-2.787zm46.981-1.468c0 1.429 2.447 5.445 5.45 5.445h1.945c.753 0 1.371-.617 1.371-1.37v-42.725h-.007a1.373 1.373 0 0 0-1.364-1.296h-6.023a1.37 1.37 0 0 0-1.364 1.296h-.007v3.472c-3.694-4.546-9.512-6.433-15.348-6.433-13.264 0-24.017 10.753-24.017 24.018s10.753 24.019 24.017 24.019c5.836 0 12.196-2.264 15.344-6.433zm-15.322-1.98c-8.437 0-15.275-6.99-15.275-15.613 0-8.622 6.838-15.612 15.275-15.612 8.433 0 15.271 6.99 15.271 15.612 0 8.623-6.838 15.612-15.271 15.612z"/>
  <path fill="url(#a)" d="M155.733 47.358c-11.626 0-21.049 9.423-21.049 21.047 0 11.625 9.423 21.05 21.049 21.05 11.624 0 21.047-9.425 21.047-21.05 0-11.624-9.423-21.047-21.047-21.047zm-54.685.001C89.424 47.36 80 56.781 80 68.406c0 11.624 9.424 21.048 21.048 21.048 11.625 0 21.049-9.424 21.049-21.048 0-11.625-9.424-21.047-21.05-21.047zm48.39-26.311c0 11.624-9.423 21.05-21.047 21.05-11.626 0-21.049-9.426-21.049-21.05S116.765 0 128.391 0c11.624 0 21.046 9.424 21.046 21.048z" style="fill:url(#a)"/>
</svg>
