<svg xmlns="http://www.w3.org/2000/svg" viewBox="0 0 255.597 255.597">
  <path fill="#e40046" d="M63.173 0C28.307 0 0 28.305 0 63.17v129.255c0 34.866 28.307 63.172 63.173 63.172h129.254c34.866 0 63.17-28.306 63.17-63.172V63.171C255.597 28.305 227.294 0 192.427 0z"/>
  <path fill="#fff" d="M108.902 127.708h16.517a5.386 5.386 0 1 1 0 10.77H63.227a5.386 5.386 0 1 1 0-10.77h34.01l.05-.118 32.188-77.417a5.386 5.386 0 0 1 4.867-3.315 5.386 5.386 0 0 1 5.084 3.341l61.943 151.042a5.386 5.386 0 1 1-9.964 4.088L134.408 66.355zm-15.069 36.34c-.019.049-.039.097-.06.144l-17.108 41.16a5.386 5.386 0 1 1-9.946-4.136l15.449-37.167H51.84a5.386 5.386 0 1 1 0-10.77h62.199a5.386 5.386 0 1 1 0 10.77z"/>
</svg>
