<svg xmlns="http://www.w3.org/2000/svg" viewBox="0 0 26.458 26.458">
  <path fill="#25344c" d="M2.646 0h21.167a2.62 2.62 0 0 1 2.645 2.646v21.167a2.62 2.62 0 0 1-2.645 2.645H2.646A2.62 2.62 0 0 1 0 23.813V2.646A2.62 2.62 0 0 1 2.646 0z"/>
  <path fill="#fff" d="M4.763 9.154h1.693l2.54 7.197h-1.64l-.477-1.482H4.234l-.477 1.482H2.17zm-.106 4.498h1.852l-.9-2.858zM11.007 14.128c.053.317.158.582.264.74.265.318.688.424 1.27.424.37 0 .635-.053.9-.106.423-.159.635-.423.635-.846a.582.582 0 0 0-.318-.53c-.211-.105-.529-.264-1.005-.317l-.794-.159c-.74-.159-1.27-.37-1.587-.529-.477-.318-.741-.847-.741-1.535 0-.635.212-1.164.688-1.587.476-.423 1.164-.635 2.116-.635.794 0 1.43.212 1.958.582.53.37.847 1.005.847 1.746h-1.429c-.053-.423-.211-.74-.582-.9a2.281 2.281 0 0 0-.9-.158c-.423 0-.74.053-.952.211-.212.16-.37.37-.37.635s.106.424.37.583c.159.105.476.158.953.317l1.27.318c.529.105.952.317 1.27.529.423.317.635.846.635 1.481a2.17 2.17 0 0 1-.741 1.64c-.53.424-1.217.636-2.17.636-.952 0-1.693-.212-2.222-.635-.53-.424-.794-1.006-.794-1.746h1.429zM21.378 9.154h2.17v7.197h-1.43v-6.033l-1.375 6.033H19.26l-1.376-6.033v6.033h-1.429V9.154h2.17l1.482 5.662z"/>
</svg>
