<svg xmlns="http://www.w3.org/2000/svg" viewBox="0 0 254.843 270.207">
  <defs>
    <linearGradient id="a" x1="21.603" x2="117.743" y1="237.817" y2="237.817" gradientTransform="scale(1.76623 .56618)" gradientUnits="userSpaceOnUse">
      <stop offset="0%" stop-color="#F4362C"/>
      <stop offset="78.7%" stop-color="#FF9A09"/>
    </linearGradient>
  </defs>
  <g transform="translate(-.694 -.29)">
    <path fill="#f48e06" d="M192 28.222c3.316 2.698 8.713 2.698 12.029.077l8.79-7.017c3.316-2.622 3.779-2.16 1.08 1.08l-7.248 8.558c-2.7 3.239-2.776 8.637-.078 11.875l7.017 8.56c2.7 3.315 2.16 3.778-1.08 1.079l-8.558-6.94c-3.316-2.699-8.713-2.776-12.106-.154l-10.718 8.173c-3.393 2.545-3.779 2.16-.926-1.002l8.714-9.562c2.853-3.161 3.007-8.404.385-11.72l-7.094-8.868c-2.621-3.315-2.159-3.855 1.157-1.156z"/>
    <path fill="#f48e06" d="M186.602 34.545c4.241-.232 8.02-3.933 8.405-8.097l2.16-22.978c.385-4.241 1.079-4.241 1.541 0l2.545 22.978c.463 4.241 4.318 8.02 8.482 8.482l18.969 1.928c4.24.462 4.24 1.08 0 1.388l-18.97 1.465c-4.24.308-8.018 4.01-8.404 8.25l-2.699 27.528c-.385 4.241-1.08 4.241-1.465 0l-2.544-27.142c-.386-4.241-4.164-7.942-8.405-8.25l-32.154-2.545c-4.241-.309-4.241-.848 0-1.08z"/>
    <circle cx="101.629" cy="16.81" r="10.255" fill="#302c43"/>
    <path fill="#00ac6b" d="M37.86 81.812c-3.007-.077-10.487-.694-14.11-4.318-3.702-3.701-4.396-11.18-4.473-14.265-.154 3.084-.848 10.64-4.472 14.265C11.104 81.195 3.7 81.734.694 81.812c3.007.077 10.41.694 14.11 4.318 3.702 3.701 4.396 11.18 4.473 14.265.154-3.084.848-10.64 4.472-14.265 3.624-3.547 11.104-4.164 14.111-4.318 0 .077 0 .077 0 0"/>
    <path fill="#09a6d1" d="M187.45 242.12c-4.626-.154-15.96-1.079-21.513-6.63-5.629-5.63-6.631-17.119-6.862-21.745h-.155c-.154 4.703-1.233 16.192-6.862 21.744-5.552 5.552-16.887 6.477-21.513 6.631 4.626.155 15.884 1.003 21.513 6.632 5.629 5.629 6.631 17.118 6.862 21.744h.155c.154-4.703 1.233-16.192 6.862-21.744 5.552-5.552 16.887-6.4 21.514-6.632-.077.078 0 .078 0 0"/>
    <circle cx="250.14" cy="184.289" r="5.398" fill="#f4362c"/>
    <circle cx="29.687" cy="216.366" r="5.398" fill="#a39a8b"/>
    <path fill="#302c43" d="M65.542 180.588c.694 1.31 2.005 2.159 3.47 2.159h19.431c2.468 0 4.241-2.236 4.858-3.393l10.872-20.896c.155-.386.849-.771 1.157-.771h51.431c.309 0 .926.385 1.157.77l10.872 20.897c.617 1.157 2.39 3.393 4.858 3.393h19.432c1.465 0 2.775-.848 3.47-2.16.693-1.31.693-2.93-.078-4.163l-52.896-96c-.694-1.31-2.005-2.082-3.393-2.082h-18.275c-1.388 0-2.698.771-3.392 2.082l-52.897 96c-.694 1.234-.77 2.853-.077 4.164zm52.28-48.347 13.262-25.446 13.263 25.446c.154.231.231.617.231.771-.077 0-.154.077-.385.077h-26.14c-.231 0-.386 0-.386-.077-.077-.154.078-.54.155-.771z"/>
    <path fill="#a39a8b" d="M208.655 118.978c.232-.617.926-1.156 1.697-1.31l16.501-2.545c.694-.077 1.31.154 1.542.617.232.462.077 1.08-.462 1.542l-12.26 11.258c-.618.54-1.466.77-2.083.54-.617-.232-.925-.772-.694-1.466.077-.154.077-.308.155-.462.385-1.388.308-2.776-.309-4.01s-1.696-2.236-3.161-2.776c-.077 0-.154-.077-.232-.077-.308-.077-.54-.308-.694-.54-.077-.154-.077-.462 0-.77z"/>
    <path fill="url(#a)" d="M38.94 142.11c6.323-18.505 50.66-34.62 50.66-34.62.154-.078.308-.078.386-.078.694 0 1.31.617 1.31 1.31 0 .54-.308.926-.77 1.158-7.249 3.547-39.634 19.894-43.027 32.385-.54 1.465-.617 2.853.077 4.164 2.776 5.166 17.04 7.325 38.246 5.706 19.894-1.542 44.26-4.318 74.178-13.494 13.88-4.241 27.142-9.022 39.48-14.265l.385-.154 1.62-.617c.54-.232 1.079-.309 1.696-.309a4.692 4.692 0 0 1 4.703 4.55c0 .231.077.54.077.77-.077 1.62-1.233 3.008-2.93 3.702l-1.31.54c-12.415 5.166-25.37 9.793-39.48 14.188-26.68 8.173-51.354 12.646-80.193 14.42-3.855.23-7.48.385-10.872.385-2.468 0-4.858-.078-7.094-.155-.925-.077-1.774-.077-2.699-.154-7.865-.77-29.687-4.164-24.443-19.431z" style="fill:url(#a)"/>
  </g>
</svg>
