<svg xmlns="http://www.w3.org/2000/svg" viewBox="0 0 255.582 255.405">
  <defs>
    <linearGradient id="a" x1="124.102" x2="49.593" y1="121.829" y2="223.461" gradientTransform="scale(.88742 1.12686)" gradientUnits="userSpaceOnUse">
      <stop offset="0%" stop-color="#0052CC"/>
      <stop offset="92.3%" stop-color="#2684FF"/>
    </linearGradient>
  </defs>
  <path fill="url(#a)" d="M75.793 117.95c-3.82-4.08-9.77-3.85-12.367 1.342L.791 244.565a7.488 7.488 0 0 0 6.697 10.838h87.228a7.22 7.22 0 0 0 6.699-4.14c18.808-38.89 7.413-98.018-25.622-133.314z" style="fill:url(#a)"/>
  <path fill="#2681ff" d="M121.756 4.012c-35.033 55.505-32.721 116.978-9.646 163.13l42.06 84.12a7.488 7.488 0 0 0 6.697 4.14h87.227a7.488 7.488 0 0 0 6.697-10.838S137.445 9.837 134.493 3.964c-2.64-5.258-9.344-5.329-12.737.048z"/>
</svg>
