<svg xmlns="http://www.w3.org/2000/svg" viewBox="0 0 512 105.373">
  =
  <path d="M51.81 6.712a2.395 2.395 0 0 1-3 3.734c-6.243-5.015-11.443-6.67-14.65-5.034-3.733 1.904-5.18 8.028-4.427 16.574l.113 1.154c.064.584.137 1.178.22 1.782l.178 1.222c.221 1.428.495 2.907.82 4.43 4.496-.696 9.335-1.151 14.416-1.341a131.17 131.17 0 0 1 6.696-7.951l1.128-1.217c2.822-2.998 5.651-5.682 8.436-8.005l1.11-.91C73.014 2.988 82.47-.24 88.589 3.73c5.328 3.457 6.756 11.287 4.777 21.78a2.395 2.395 0 0 1-4.707-.887c1.658-8.788.566-14.77-2.678-16.875-4.217-2.738-12.052.414-20.888 7.774l-.985.835c-.495.426-.993.865-1.492 1.316l-1.003.92a99.468 99.468 0 0 0-3.038 2.953l-1.02 1.048c-.17.177-.34.355-.51.535l-1.023 1.094-1.024 1.124-1.024 1.153c-.341.39-.682.783-1.023 1.182l-1.022 1.21-.2.242c2.383.013 4.807.082 7.263.21l.954.052 1.895.121c1.572.11 3.127.244 4.662.398l1.832.196.909.106 1.801.227c1.493.197 2.963.415 4.408.653l1.722.296 1.697.314 1.672.333c5.528 1.14 10.61 2.583 15.088 4.274l1.326.515c11.762 4.7 19.01 11.17 18.638 18.321-.308 5.912-5.607 10.792-14.49 14.289a2.395 2.395 0 1 1-1.754-4.457c7.325-2.883 11.276-6.522 11.461-10.081.237-4.557-5.214-9.269-14.289-13.07l-1.13-.461a74.1 74.1 0 0 0-2.363-.893l-1.232-.43a85.833 85.833 0 0 0-1.266-.42l-1.298-.41-1.328-.396-.676-.194-1.374-.379c-.231-.062-.464-.123-.698-.184l-1.417-.36a116.09 116.09 0 0 0-4.415-.995l-1.523-.303-.771-.145-1.56-.28-1.582-.264a133.18 133.18 0 0 0-.8-.126l-1.616-.24c-.542-.076-1.088-.15-1.637-.222l-1.657-.205-1.676-.187c-.843-.09-1.693-.171-2.55-.246l-1.72-.141c-.577-.044-1.156-.084-1.738-.122l-1.753-.101-1.755-.081-1.74-.06a144.193 144.193 0 0 0-5.975-.045l-1.369.025-.538.714c-.334.448-.668.901-1 1.358l-.994 1.384a146.806 146.806 0 0 0-4.362 6.511l-.922 1.478a144.37 144.37 0 0 0-2.813 4.77l.25.601.651 1.538c.11.257.222.514.335.772l.689 1.549.713 1.555.74 1.561.763 1.565.788 1.57.807 1.56.82 1.537.829 1.514.419.749.845 1.48c.283.488.568.973.854 1.454l.862 1.43c.289.472.579.94.87 1.404l.877 1.378.883 1.352a127.56 127.56 0 0 0 2.23 3.258l.898 1.253c.6.826 1.203 1.632 1.806 2.418l.905 1.164.905 1.132.453.554.905 1.084.904 1.052a85.773 85.773 0 0 0 2.697 2.954l.892.915.886.88c.442.43.882.848 1.319 1.25l.87.789c.434.385.865.755 1.293 1.111l.85.693c5.782 4.6 10.905 6.459 14.307 4.724 3.194-1.629 4.718-6.384 4.605-13.127l-.029-1.026a48.477 48.477 0 0 0-.053-1.055l-.079-1.084c-.03-.365-.064-.736-.102-1.11l-.127-1.137a64.65 64.65 0 0 0-.073-.578l-.164-1.176-.188-1.199-.212-1.223c-.187-1.028-.4-2.08-.638-3.153l-.297-1.298-.322-1.318c-.056-.221-.112-.443-.17-.666l-.358-1.345-.382-1.363a110.55 110.55 0 0 0-.2-.688l-.419-1.387-.443-1.403c-.227-.705-.463-1.415-.709-2.13l-.503-1.438-.526-1.45c-.36-.97-.735-1.948-1.126-2.933l-.599-1.481-.623-1.49c-.106-.25-.212-.5-.32-.75l-.659-1.501-.682-1.51a144.64 144.64 0 0 0-.35-.756l-.719-1.518a146.6 146.6 0 0 0-.368-.76 2.395 2.395 0 1 1 4.306-2.099l.794 1.654c.26.55.517 1.1.768 1.649l.742 1.643c.73 1.64 1.42 3.271 2.068 4.888l.636 1.612c.104.268.207.535.308.802l.596 1.596c.097.266.193.53.287.794l.555 1.58c.36 1.048.703 2.088 1.027 3.118l.472 1.538c5.647 18.874 4.922 34.225-3.549 38.544-6.852 3.495-16.567-1.359-26.346-11.596l-1.011-1.079a91.356 91.356 0 0 1-2.022-2.268l-1.01-1.19c-2.687-3.217-5.35-6.814-7.93-10.727l-.964-1.483a150.123 150.123 0 0 1-6.908-11.987l-.437-.85c-.29-.568-.575-1.136-.855-1.703l-.83-1.7a153.024 153.024 0 0 1-1.877-4.063l-.386.767c-.12.24-.237.478-.355.717l-.689 1.427-.662 1.416-.636 1.405c-.104.233-.207.466-.308.698l-.596 1.386-.288.688-.555 1.366-.267.677-.514 1.342-.246.666-.473 1.317-.445 1.3c-.216.645-.42 1.283-.615 1.914l-.375 1.25-.347 1.23c-.056.203-.11.405-.163.607l-.304 1.196c-.242.987-.454 1.95-.636 2.886l-.203 1.11c-1.356 7.859-.472 13.655 2.886 15.835 3.383 2.194 9.656.525 17.396-5.063a2.395 2.395 0 1 1 2.803 3.883c-9.173 6.623-17.282 8.781-22.806 5.197-6.674-4.33-7.143-15.783-2.701-30.03l.46-1.435c.318-.962.658-1.935 1.019-2.92l.557-1.484a114.583 114.583 0 0 1 2.54-6.074l.713-1.548.742-1.559a138.317 138.317 0 0 1 3.044-5.91l-.426-1.099-.62-1.644a125.363 125.363 0 0 1-2.19-6.453l-.474-1.577c-.293-1-.567-1.99-.824-2.968l-.878.181-1.302.287-1.27.3c-.21.052-.418.103-.624.156l-1.222.321-1.188.335c-.39.113-.775.23-1.154.347l-1.118.36c-.366.123-.727.247-1.081.373l-1.044.385C9.372 41.894 5 45.48 4.797 49.385c-.185 3.56 3.367 7.59 10.353 11.217a2.395 2.395 0 1 1-2.207 4.25C4.47 60.454-.294 55.05.014 49.137c.429-8.242 10.833-14.533 26.308-17.71-3.132-14.965-1.538-26.609 5.66-30.28C37.304-1.57 44.256.643 51.81 6.712zm314.056 8.572c23.153 0 38.335 18.459 38.335 39.318v.221c0 20.861-15.4 39.538-38.554 39.538-23.155 0-38.339-18.457-38.339-39.32v-.218c0-20.861 15.402-39.539 38.558-39.539zm77.431.983c1.202 0 2.078.656 2.84 1.64l29.82 43.906 29.82-43.906c.653-.984 1.637-1.64 2.836-1.64h.547c1.528 0 2.84 1.312 2.84 2.84v71.539c0 1.53-1.312 2.842-2.84 2.842-1.53 0-2.84-1.312-2.84-2.842V26.644l-28.07 40.85c-.656.984-1.42 1.42-2.402 1.42-.984 0-1.75-.436-2.403-1.42l-28.07-40.85v64.113a2.706 2.706 0 0 1-2.73 2.731 2.704 2.704 0 0 1-2.732-2.73V19.105c0-1.527 1.31-2.84 2.84-2.84zm-142.416.326c1.419 0 2.622 1.2 2.622 2.622s-1.202 2.622-2.622 2.622h-24.467V90.65c0 1.527-1.31 2.84-2.84 2.84-1.527 0-2.839-1.313-2.839-2.84V21.837h-24.467c-1.419 0-2.62-1.199-2.62-2.622 0-1.42 1.2-2.622 2.62-2.622zm-112.277-.763c1.966 0 3.06 1.093 3.821 2.734l32.55 70.554c.327.657.436 1.203.436 1.75 0 1.418-1.2 2.62-2.732 2.62-1.31 0-2.292-.983-2.838-2.185l-8.956-19.66h-45.11l-8.958 19.77c-.546 1.31-1.418 2.075-2.73 2.075-1.42 0-2.622-1.091-2.622-2.404a4.1 4.1 0 0 1 .44-1.746l32.656-70.774c.765-1.64 1.857-2.734 3.824-2.734zm177.043 4.587c-18.897 0-32.44 15.291-32.44 34.185v.221c0 18.896 13.762 34.404 32.659 34.404 18.894 0 32.437-15.29 32.437-34.186v-.218c0-18.895-13.762-34.406-32.656-34.406zm-177.264 1.859-20.206 44.233h40.304zM64.933 51.259a6.813 6.813 0 1 1-13.318 2.876 6.813 6.813 0 0 1 13.318-2.876zM41.748 34.245l-.103.008c-.44.03-.88.064-1.315.098l-1.558.135-1.535.151-.758.083-1.499.177-.74.095-1.46.202-.579.088.205.765c.32 1.165.668 2.349 1.041 3.55l.462 1.448.24.73.5 1.47c.137.397.277.796.42 1.196a156.207 156.207 0 0 1 2.353-3.791l.517-.803a156.12 156.12 0 0 1 3.809-5.602z"/>
</svg>
