<svg xmlns="http://www.w3.org/2000/svg" viewBox="0 0 255.149 248.668">
  <defs>
    <linearGradient id="a" x1="-69.72" x2="244.284" y1="-47.637" y2="195.371" gradientTransform="scale(.95818 1.04364)" gradientUnits="userSpaceOnUse">
      <stop offset="0%" stop-color="#C06FBB"/>
      <stop offset="100%" stop-color="#6E4D9B"/>
    </linearGradient>
    <linearGradient id="b" x1="209.603" x2="40.504" y1="219.221" y2="21.257" gradientTransform="scale(.96226 1.03922)" gradientUnits="userSpaceOnUse">
      <stop offset="0%" stop-color="#6E4D9B"/>
      <stop offset="14%" stop-color="#77327A"/>
      <stop offset="29%" stop-color="#B31777"/>
      <stop offset="84%" stop-color="#CD0F7E"/>
      <stop offset="100%" stop-color="#ED2C89"/>
    </linearGradient>
    <linearGradient id="c" x1="-37.961" x2="205.88" y1="-156.047" y2="245.473" gradientTransform="scale(1.04293 .95884)" gradientUnits="userSpaceOnUse">
      <stop offset="0%" stop-color="#C06FBB"/>
      <stop offset="100%" stop-color="#6E4D9B"/>
    </linearGradient>
    <linearGradient id="d" x1="-131.951" x2="234.455" y1="-64.777" y2="234.562" gradientTransform="scale(.99898 1.00102)" gradientUnits="userSpaceOnUse">
      <stop offset="0%" stop-color="#C06FBB"/>
      <stop offset="100%" stop-color="#6E4D9B"/>
    </linearGradient>
    <linearGradient id="e" x1="-76.85" x2="264.24" y1="-65.708" y2="235.269" gradientTransform="scale(1.00035 .99965)" gradientUnits="userSpaceOnUse">
      <stop offset="0%" stop-color="#C06FBB"/>
      <stop offset="100%" stop-color="#6E4D9B"/>
    </linearGradient>
    <linearGradient id="f" x1="226.01" x2="56.485" y1="223.797" y2="24.736" gradientTransform="scale(.96254 1.03892)" gradientUnits="userSpaceOnUse">
      <stop offset="0%" stop-color="#6E4D9B"/>
      <stop offset="14%" stop-color="#77327A"/>
      <stop offset="29%" stop-color="#B31777"/>
      <stop offset="84%" stop-color="#CD0F7E"/>
      <stop offset="100%" stop-color="#ED2C89"/>
    </linearGradient>
    <linearGradient id="g" x1="-69.71" x2="244.278" y1="-60.207" y2="232.889" gradientTransform="scale(.95823 1.0436)" gradientUnits="userSpaceOnUse">
      <stop offset="0%" stop-color="#C06FBB"/>
      <stop offset="100%" stop-color="#6E4D9B"/>
    </linearGradient>
    <linearGradient id="h" x1="26.884" x2="205.101" y1="233.006" y2="55.336" gradientTransform="scale(1.12123 .89188)" gradientUnits="userSpaceOnUse">
      <stop offset="0%" stop-color="#6E4D9B"/>
      <stop offset="14%" stop-color="#77327A"/>
      <stop offset="53%" stop-color="#B31777"/>
      <stop offset="79%" stop-color="#CD0F7E"/>
      <stop offset="100%" stop-color="#ED2C89"/>
    </linearGradient>
  </defs>
  <path fill="url(#a)" d="m167.876 46.369-23.68 15.804L119.8 25.615 143.48 9.81l24.395 36.559z" style="fill:url(#a)" transform="translate(-.792 -.326)"/>
  <path fill="url(#b)" d="m187.129 156.2 40.46 60.63-48.198 32.165-40.46-60.632-7.06-10.576 48.2-32.165 7.058 10.577z" style="fill:url(#b)" transform="translate(-.792 -.326)"/>
  <path fill="url(#c)" d="m126.422 196.71 8.908 13.349-36.686 24.482-15.967-23.926 8.015-5.348 28.672-19.134 7.058 10.577z" style="fill:url(#c)" transform="translate(-.792 -.326)"/>
  <path fill="url(#d)" d="m207.172 127.537 10.29-6.867 15.966 23.926-23.683 15.804-8.908-13.348 13.393-8.938-7.058-10.577zm-6.335 19.515-7.058-10.577 13.393-8.938 7.058 10.577-13.393 8.938z" style="fill:url(#d)" transform="translate(-.792 -.326)"/>
  <path fill="url(#e)" d="m41.11 130.967-8.015 5.348L8.698 99.756l36.687-24.482 17.1 25.627-28.671 19.134L62.486 100.9l7.296 10.933-28.673 19.133z" style="fill:url(#e)" transform="translate(-.792 -.326)"/>
  <path fill="url(#f)" d="m130.489 71.322-48.2 32.165-7.295-10.933L34.912 32.49 83.112.326l40.081 60.063z" style="fill:url(#f)" transform="translate(-.792 -.326)"/>
  <path fill="url(#g)" d="m157.59 53.238-13.393 8.937-7.297-10.933-17.1-25.626L143.483 9.81 167.88 46.37l-10.29 6.868z" style="fill:url(#g)" transform="translate(-.792 -.326)"/>
  <path fill="#714896" d="m96.959 215.518-7.06-10.577 28.673-19.134 7.058 10.577-28.671 19.134z"/>
  <path fill="#6f4795" d="m200.045 146.725-7.058-10.577 13.393-8.938 7.058 10.577-13.393 8.938z"/>
  <path fill="#88519f" d="m40.318 130.64-7.296-10.932 28.672-19.134 7.296 10.934-28.672 19.133z"/>
  <path fill="#85509e" d="m143.405 61.848-7.296-10.932 13.394-8.938 7.295 10.933-13.393 8.937z"/>
  <path fill="#8d166a" d="m186.337 155.873-48.198 32.164-7.059-10.576 48.2-32.165 7.057 10.577z"/>
  <path fill="#a70d6f" d="m122.402 60.063 7.295 10.933-48.2 32.165-7.295-10.934 48.2-32.164z"/>
  <path fill="#9e61ad" d="m26.647 51.327 9.097 13.632-13.632 9.098-9.098-13.633z"/>
  <path fill="#8053a3" d="m75.776 214.758 9.098 13.633-13.633 9.097-9.097-13.633z"/>
  <path fill="url(#h)" d="M40.704 228.814.792 168.518 214.089 25.856l41.852 59.333L40.704 228.814z" style="fill:url(#h)" transform="translate(-.792 -.326)"/>
</svg>
