<svg xmlns="http://www.w3.org/2000/svg" viewBox="0 0 255.814 224.691">
  <path fill="#63c4b1" d="M155.828 57.697H99.996l27.962 48.147 27.87-48.147M94.548 60.811l-27.89 48.232h55.845L94.548 60.81M122.502 115.31H66.657l27.889 48.267 27.956-48.266M61.298 118.431l-28.05 48.22h55.927l-27.877-48.22M161.194 60.811l-27.864 48.232h55.835l-27.97-48.232M189.167 115.31h-55.84l27.868 48.267 27.972-48.266M127.957 3.125 99.998 51.428h55.83L127.956 3.125M89.176 172.931H33.249l28.05 48.582 27.877-48.582M194.533 118.431l-27.95 48.22h55.908l-27.958-48.22M222.493 172.931h-55.909l27.95 48.582 27.96-48.582"/>
  <path fill="#fff" d="m127.957 118.431-27.959 48.22h55.83l-27.871-48.22M89.176 57.697H33.249l28.05 48.147 27.877-48.147M0 109.042h55.826L27.876 60.81 0 109.042M27.877 163.578l27.95-48.266H0l27.877 48.266M227.853 60.811l-27.859 48.232h55.818L227.853 60.81M255.814 115.31h-55.82l27.861 48.267 27.959-48.266M189.167 0h-55.84l27.868 48.177L189.167 0M155.828 172.931h-55.92l28.05 48.582 27.87-48.582M161.194 176.04 133.33 224.69h55.835l-27.97-48.652M122.502 0H66.657l27.889 48.177L122.502 0M61.298 3.125l-28.05 48.303h55.927L61.298 3.125M194.533 3.125l-27.95 48.303h55.908L194.533 3.125M222.493 57.697h-55.909l27.95 48.147 27.96-48.147M94.548 176.04l-27.89 48.651h55.845L94.548 176.04"/>
</svg>
