<svg xmlns="http://www.w3.org/2000/svg" viewBox="0 0 256 285.192">
  <defs>
    <linearGradient id="a" x1="0" x2="270.202" y1="135.101" y2="135.101" gradientTransform="scale(.94744 1.05548)" gradientUnits="userSpaceOnUse">
      <stop offset="0%" stop-color="#52F2C9"/>
      <stop offset="9.876%" stop-color="#52F2C9"/>
      <stop offset="100%" stop-color="#8573E2"/>
    </linearGradient>
  </defs>
  <path fill="url(#a)" d="M22.37 285.192c-3.854 0-7.706-1.016-11.214-3.048C4.171 278.096 0 270.859 0 262.786V21.908c0-7.887 4.073-14.96 10.895-18.92 6.822-3.96 14.983-3.985 21.832-.071l155.474 88.847a7.995 7.995 0 0 1-7.933 13.88L24.795 16.799c-2.658-1.518-4.994-.493-5.876.019-.881.512-2.931 2.032-2.931 5.09v240.879c0 3.32 2.226 4.969 3.183 5.523.957.555 3.494 1.668 6.375.015l200.493-114.952h-23.111a7.995 7.995 0 0 1-7.994-7.995v-5.33h-9.992v18.154a7.995 7.995 0 0 1-7.994 7.994h-25.314a7.995 7.995 0 0 1-7.994-7.994v-33.308h-10.242v56.373a7.994 7.994 0 0 1-7.994 7.994h-26.23a7.995 7.995 0 0 1-7.994-7.994V101.41h-9.825v108.583a7.995 7.995 0 0 1-7.995 7.994H46.714a7.994 7.994 0 0 1-7.994-7.994V65.77h-3.331a7.994 7.994 0 1 1 0-15.988h11.325a7.994 7.994 0 0 1 7.994 7.994V202h10.658V93.417a7.994 7.994 0 0 1 7.994-7.994h25.814a7.994 7.994 0 0 1 7.994 7.994v79.855h10.242v-56.373a7.995 7.995 0 0 1 7.994-7.994h26.23a7.994 7.994 0 0 1 7.994 7.994v33.308h9.326v-18.153a7.994 7.994 0 0 1 7.994-7.994h25.98a7.994 7.994 0 0 1 7.994 7.994v5.329h34.144c5.02 0 9.261 3.26 10.552 8.11 1.292 4.852-.767 9.789-5.123 12.285L33.498 282.194c-3.487 1.999-7.308 2.998-11.128 2.998" style="fill:url(#a)"/>
</svg>
