<svg xmlns="http://www.w3.org/2000/svg" viewBox="0 0 256 256">
  <circle cx="128" cy="128" r="114.75" fill="#5d83ac"/>
  <path fill="#f0f0f0" d="M0 128C0 57.308 57.307 0 128 0c70.692 0 128 57.307 128 128 0 70.692-57.308 128-128 128C57.308 256 0 198.692 0 128zM128 25.5C71.39 25.5 25.5 71.39 25.5 128S71.39 230.5 128 230.5 230.5 184.61 230.5 128 184.61 25.5 128 25.5z"/>
  <path fill="#f0f0f0" d="m206.41 166-58.52-84.7c-2.054-2.986-4.55-5.482-7.49-7.49-2.94-2.006-6.604-3.01-10.99-3.01-4.574 0-8.354 1.074-11.34 3.22-2.988 2.148-5.46 4.574-7.42 7.28L50.59 166h34.3l43.96-62.16 16.8 24.78a377.282 377.282 0 0 1 4.97 7.21c1.726 2.568 3.242 4.69 4.55 6.37-2.24-.186-4.878-.28-7.91-.28H114.99L97.49 166z"/>
</svg>
