<svg xmlns="http://www.w3.org/2000/svg" viewBox="0 0 255.249 240.313">
  <g fill="none" fill-rule="evenodd">
    <path fill="#18112e" d="M159.018 182.124c-8.166-.864-11.7 1.335-10.522 6.518 4.633 4.633 5.497 9.973 2.513 16.098-1.571 2.67-2.67 6.36-3.299 11.23 1.1-.393 1.964-1.1 2.592-2.2l-.236 5.34c1.885-.942 3.141-2.512 3.691-4.711 0 0 .079 1.413.157 4.162 2.356-2.199 3.063-5.497 2.199-9.895 10.68-8.166 11.622-17.04 2.905-26.542M172.604 139.405c-6.518 3.612-12.094 10.68-16.884 21.281 6.832-3.298 10.209 1.414 10.13 14.056 8.324 2.827 10.366 10.366 6.125 22.695 10.21 5.497 17.277 14.528 21.124 27.013 16.413-3.769 27.485 1.492 33.218 15.706 27.955-27.092 32.589-57.953 13.82-92.506-27.406 20.732-49.943 17.983-67.533-8.245M133.811 127.547c1.414 8.717-1.1 19.161-7.46 31.333-1.963-8.795-8.795-8.638-20.653.393-8.795-5.89-17.354-2.356-25.678 10.444-12.722-5.733-26.307-5.968-40.835-.786-8.56-18.296-21.673-25.128-39.185-20.338C4.79 102.576 30.233 76.19 76.407 69.28c.707 40.834 19.868 60.31 57.404 58.267"/>
    <path fill="#18112e" d="M70.91 70.3c1.1 3.535 1.65 5.34 1.65 5.34.235-.47.392-.863.628-1.334l.078 1.727c-.235.079-.392.157-.628.236-.864 3.612-1.335 5.418-1.335 5.418 4.555-3.14 9.737-4.162 15.47-2.905 3.298 1.335 4.633.47 3.848-2.67-1.1-3.77-5.654-4.24-13.664-1.492 2.906-2.12 6.36-3.377 10.444-3.691 3.534.393 4.555-.864 2.984-3.612-2.198-3.377-6.989-2.435-14.292 2.905 2.12-2.277 4.869-4.005 8.167-5.104 3.534-.55 4.162-1.963 1.963-4.24-3.298-3.063-8.402.078-15.313 9.423M133.811 127.547c23.087 6.91 37.615 13.115 43.583 18.611-9.502 6.283-12.8 13.586-9.895 22.067 7.696 19.789 2.356 32.51-16.176 38.164-25.679 2.67-39.892-4.947-42.64-22.773-2.043-15.627 6.36-34.316 25.128-56.069M134.047 107.994c27.092-24.186 40.677-36.201 40.677-36.201-6.675-6.754-10.523-20.967-11.308-42.562 1.963-28.113-1.806-35.966-11.23-23.48-27.484 28.349-35.808 50.022-24.971 65.02 9.502 14.45 11.779 26.857 6.832 37.223M209.276 73.05c-11.622 19.16-5.654 28.27 17.904 27.327 2.042-3.534 4.24-5.497 6.597-5.811 13.035.707 20.181-9.11 21.36-29.291.784-24.03-2.514-40.52-9.895-49.55-5.811-7.697-9.58-5.576-11.23 6.438-6.439 33.846-14.684 50.808-24.736 50.886"/>
    <path fill="#ccc9e4" d="M136.717 130.61c8.245 2.513 16.569 5.34 24.422 8.717 3.062 1.335 6.203 2.748 9.109 4.397a58.035 58.035 0 0 1 3.69 2.277c-4.475 3.377-8.245 7.853-9.266 13.507-.55 3.141-.157 6.282.864 9.345v.157c6.675 17.119 3.77 29.605-14.606 35.416-1.649.157-3.377.314-5.104.393-15.078-1.65-22.066-10.994-20.889-27.878 1.65-18.297 6.99-31.254 15.942-38.792a472.192 472.192 0 0 0-4.162-7.54"/>
    <path fill="#18112e" d="M136.56 98.492c-.472 5.89-.629 8.874-.629 8.874s-2.12 1.492-6.439 4.476c.864-4.24 3.22-8.717 7.068-13.35"/>
    <path fill="#2b1f51" d="M196.869 220.367c12.564-2.905 22.694 2.042 30.468 14.842 17.12-18.925 23.951-50.808 11.465-76.565-8.638 19.161-23.872 45.703-41.933 61.723zm-17.198-24.422c9.502 2.277 15.156 9.188 17.12 20.653 16.254-21.752 27.17-40.442 32.745-56.069-16.412 15.784-32.981 27.563-49.865 35.416zm-1.727-5.654c1.099-8.245-1.65-14.45-8.246-18.454 17.433.236 35.338-3.141 53.556-10.13-19.475 16.177-34.552 25.678-45.31 28.584zm-4.79-42.562c-2.985 7.774-4.32 14.842-4.084 21.045a5873.788 5873.788 0 0 0 24.265-4.162c-8.795-4.476-15.548-10.13-20.182-16.883zM40.205 162.414c-6.518-13.978-18.69-20.103-36.358-18.376 5.104-29.84 29.84-59.131 63.215-65.727-11.544 22.066-25.13 55.44-26.857 84.103zm35.495-1.1c-9.11-7.381-19.71-7.852-31.883-1.492 8.403-31.097 17.826-54.812 28.349-71.224-2.749 26.856-1.57 51.121 3.534 72.716zm6.517-2.356c6.91-6.989 14.685-8.795 23.323-5.34-13.035-16.412-23.008-35.887-29.919-58.267-.785 30.076 1.414 51.279 6.596 63.607zm43.348-25.914c-5.105 8.403-10.68 14.764-16.727 18.925-9.345-17.354-13.978-26.07-13.978-26.07 10.837 5.182 21.046 7.538 30.705 7.145z"/>
    <path fill="#ccc9e4" d="M231.97 154.247c-23.322 16.098-43.504 11.386-60.466-14.214 16.962 24.187 37.065 28.977 60.467 14.214M225.217 240.313c26.857-25.993 32.118-55.519 15.863-88.5v2.748c14.606 28.348 11.15 57.404-15.863 85.752M236.525 159.194c1.257-3.298 0-2.591-.235-2.513-.943.236-1.335 2.984-1.335 2.984-4.162 14.528-18.219 35.652-40.835 62.822 21.752-24.657 35.966-45.781 42.405-63.293M227.259 160.843c-19.868 18.768-36.515 27.799-53.242 34.945 17.276-5.34 35.26-17.04 54.106-35.102-.629.079-.864.157-.864.157"/>
    <path fill="#ccc9e4" d="M206.685 166.419c-13.821 2.041-26.7 3.533-38.636 4.319 8.717.314 21.595-1.1 38.636-4.32M.628 149.692c4.555-44.21 28.27-70.36 71.068-78.449l-2.592 1.963C31.882 79.724 7.224 103.754.628 149.692M68.162 80.98c2.199-3.612 2.434-1.806 2.513-1.57.471 1.02-1.728 3.455-1.728 3.455-10.522 14.292-19.946 42.798-28.662 83.868 6.989-38.557 16.333-67.141 27.877-85.752M73.502 90.954c-2.906 32.353.864 54.655 6.596 75.7-7.696-20.181-10.051-45.781-7.067-76.643l.47.943M76.172 81.766c2.041 33.767 21.36 49.55 57.875 47.43-35.102 1.1-54.42-14.684-57.875-47.43"/>
    <path fill="#ccc9e4" d="M83.475 114.512c8.245 14.684 16.412 27.956 24.5 39.892-6.831-8.088-14.998-21.438-24.5-39.892"/>
    <path fill="#fff" d="M236.447 22.32v-.078c.314-2.277.785-5.104 1.727-7.225.236-.47.864-1.727 1.414-1.884.392-.079 1.02.314 1.256.47 1.1.786 2.199 2.043 3.063 3.142 9.423 11.465 9.894 34.08 9.423 48.137-.471 8.324-2.356 20.889-10.444 25.522-2.67 1.492-5.733 1.963-8.795 1.806h-.314c-3.298.471-5.811 3.063-7.539 5.811-5.89.157-16.334-.236-19.396-5.575-1.257-2.12-1.178-4.87-.471-7.696 4.79 3.77 12.328 7.067 22.616 9.894-1.964-6.832-1.807-15.155.47-25.128 4.398-14.92 3.927-31.254 6.99-47.196"/>
    <path fill="#ccc9e2" d="M226.002 98.1c-5.968.157-16.098-.315-19.082-5.576-1.1-1.963-1.178-4.397-.628-6.989 4.79 3.612 12.172 6.832 22.302 9.58-.079-.235-.079-.392-.157-.628.235.079.471.157.628.157-1.256 1.021-2.199 2.2-3.063 3.456zm10.445-75.78v-.078c.314-2.277.785-5.104 1.727-7.225.157-.314.471-1.02.864-1.492.393-.078 1.02.314 1.256.471 1.1.786 2.2 2.12 3.063 3.142 9.423 11.465 9.895 34.08 9.423 48.137-.47 7.696-2.041 19.082-8.795 24.344-.392.235-.706.47-1.1.706-2.669 1.492-5.732 1.964-8.794 1.806h-.393c-1.57.236-2.984.943-4.162 1.885-.235.157-.392.314-.628.471-1.963-6.832-1.806-15.156.471-25.05 4.476-14.842 4.005-31.175 7.068-47.117z"/>
    <path fill="#18112e" d="M191.215 75.484c-1.65-2.278-3.691-4.084-6.204-5.262-3.926-1.727-8.245-1.335-12.25-.078-5.262 1.649-10.366 4.947-14.763 8.167-15.785 10.836-34.71 28.505-24.187 49.236a37.45 37.45 0 0 0 6.989 10.445c17.433 18.532 53.556 20.024 75.858 10.365 11.15-5.183 15.077-13.664 10.444-25.05.785-3.612 1.492-7.146 2.277-10.758v-.157c.864-8.403 1.57-23.166-6.753-28.427-3.77-2.356-8.246-2.12-12.408-1.1-5.654-3.376-12.407-6.596-19.003-7.381"/>
    <path fill="#ccc9e4" d="M135.696 126.684c1.649 3.847 3.926 7.146 6.675 10.051a6101.485 6101.485 0 0 1 14.606 23.401l-2.827-12.486s4.319.786 12.878 2.356c16.491 4.005 35.495 2.278 48.766-3.455 10.601-4.947 13.664-12.564 9.188-22.93 0 0 .785-3.77 2.355-11.386 2.278-21.988-3.533-31.019-17.433-27.014a106.62 106.62 0 0 1-1.806 2.356c.157-.942.55-1.885 1.021-2.827-6.44-3.927-12.172-6.282-17.198-6.99.55 2.592.472 5.498-.235 8.717-.157-3.062-.707-6.046-1.57-8.952-4.006-6.203-9.974-7.852-17.905-4.868-1.178.47-2.356.942-3.534 1.57-2.905 1.414-6.046 3.455-9.423 5.89-1.1.785-2.199 1.492-3.22 2.277-5.575 4.712-10.68 10.601-15.313 17.747h7.696c-11.386 3.141-15.627 12.015-12.721 26.543"/>
    <path fill="#18112e" d="M242.18 151.812c-2.906 1.1-4.398 1.65-4.398 1.65.235-.393.392-.786.55-1.1l-1.179.864c.079.157.079.393.157.55a272.159 272.159 0 0 0-2.905 3.769c-.236-4.712-2.199-8.717-5.89-11.858-2.591-1.492-2.67-2.827-.235-4.005 3.062-1.178 5.654 1.57 7.931 8.403-.078-3.063-1.02-6.047-2.827-8.874-2.042-2.199-1.728-3.455.864-3.926 3.298-.314 5.104 3.377 5.34 11.072.392-2.591.157-5.34-.707-8.167-1.414-2.67-.785-3.848 1.806-3.533 3.69.706 4.162 5.732 1.492 15.155M126.587 191.469c-7.147 4.083-8.717 7.931-4.712 11.465 6.44 1.02 10.287 4.869 11.543 11.543.236 3.063 1.571 6.754 3.927 10.994.707-.942.942-2.041.785-3.298 0 0 .942 1.492 2.906 4.476.942-1.884 1.02-3.848.235-5.968 0 0 .864 1.1 2.592 3.22.628-3.141-.786-6.282-4.084-9.345 1.806-6.125 1.806-10.994-.078-14.842l1.256.628c-.864-2.512-2.67-4.319-5.418-5.418-2.278-1.492-5.262-2.748-8.952-3.455M117.006 186.914c-3.377-5.34-6.204-6.439-8.324-3.298.236 10.287 3.848 17.12 10.837 20.496-3.141-5.497-4.005-11.23-2.513-17.198zm-6.046-11.857a919.2 919.2 0 0 0-.393-9.58c-2.277 5.967-3.377 11.386-3.298 16.176a626.356 626.356 0 0 1 3.69-6.596z"/>
    <path fill="#bebcd7" d="M154.464 176.47c1.1-17.512 4.711-25.757 10.837-24.736 1.335 1.1 2.355 3.612 2.984 7.696a164.6 164.6 0 0 1-1.964-.472c.629 2.984.629 5.34.158 6.99-1.021-.707-1.492-1.021-1.492-1.021-.629 5.575-4.084 9.423-10.523 11.543"/>
    <path fill="#fff" d="M154.464 176.47v-.235c6.046-3.377 9.188-8.324 9.345-13.272.785.629 1.335 1.178 1.649 1.57 0-3.14-.236-5.575-.629-7.145.786.314 1.492.628 1.964.942-.393-2.827-1.178-5.104-2.435-6.753.314 0 .55 0 .864.078 1.335 1.021 2.356 3.613 2.984 7.696a164.6 164.6 0 0 1-1.963-.471c.628 2.984.628 5.34.157 6.989-1.02-.707-1.492-1.021-1.492-1.021-.236 2.356-1.02 4.319-2.277 6.047-1.65 2.12-4.398 4.633-8.167 5.575"/>
    <path fill="#18112e" d="M163.652 150.87c1.963.157 2.905.628 2.748 1.414 1.963 2.355 2.827 5.497 2.591 9.501-.942-1.02-1.413-1.57-1.413-1.57.471 2.356.235 4.79-.55 7.381-.785-1.02-1.178-1.492-1.178-1.492-.314 4.32-3.926 8.874-11.308 10.366 6.518-3.377 9.816-7.696 10.052-12.721.785.628 1.335 1.099 1.649 1.57-.079-3.14-.236-5.575-.628-7.146.785.314 1.492.628 1.963.943-.628-3.848-1.885-6.597-3.926-8.246"/>
    <path fill="#ccc9e4" d="M133.89 78.468a71.361 71.361 0 0 0-5.105-8.952c-1.256-1.807-2.277-3.691-2.984-5.733-6.596-19.082 15.863-44.29 27.799-56.618l.079-.079.078-.078c1.1-1.414 2.513-3.142 3.926-4.241.314-.236 1.178-.785 1.57-.707.394.079.786.943.943 1.257.628 1.492.943 3.455 1.178 5.025.314 2.827.393 5.812.393 8.639-2.356 16.333-3.612 29.447-1.728 39.028 2.592 13.428.628 16.805-6.046 15.077-1.807-.707-4.162 1.02-3.691 5.497 1.413 9.816-7.382 17.119-16.412 1.885z"/>
    <path fill="#bebadd" d="M160.667 24.127c-1.649 13.035-2.355 23.715-.785 31.882 2.592 13.428.628 16.805-6.046 15.077-1.807-.707-4.162 1.02-3.691 5.497 1.413 9.266-6.204 16.255-14.685 4.398 5.968 3.612 9.58 2.59 10.915-2.827-.314-8.953 1.885-13.35 6.44-13.115 3.848.786 5.418-.785 4.711-4.79-.785-12.093.314-24.108 3.141-36.122z"/>
    <path fill="#fff" d="M187.995 74.855c-3.848-3.926-9.11-4.711-15.862-2.277-1.178.471-2.356.942-3.534 1.57-2.906 1.414-6.047 3.456-9.424 5.89-1.099.785-2.198 1.492-3.22 2.278-5.575 4.711-10.679 10.6-15.312 17.747h2.277c8.246-16.648 32.903-32.746 45.075-25.208M148.417 100.063c-12.721 6.36-16.648 22.459-5.968 36.75-12.093-10.6-11.15-33.61 5.968-36.75"/>
    <path fill="#bebadd" d="M225.217 109.722c-13.978 1.02-20.967 1.57-20.967 1.57 5.262-14.37 10.209-20.26 15.078-20.103 5.654.157 7.617 5.497 5.89 18.533M183.44 112.47c-19.474-11.7-31.096-16.648-31.096-16.648 9.973-15.156 21.595-20.967 31.882-18.14 8.245 2.278 8.167 12.957-.786 34.788"/>
    <path fill="#fff" d="M166.321 131.081c-18.454-1.806-23.636-8.795-16.412-18.768-.707-.55-1.649-.236-2.748.864 2.434-5.104 6.832-2.827 3.14-1.335-5.496 9.423 1.179 16.098 16.57 17.354 17.669 1.414 29.212 4.084 35.887 7.146 10.994 5.026 19.318 1.65 18.062-5.34.942 5.262-1.178 8.325-6.44 9.11-3.14.55-7.146-.314-11.857-2.67-9.188-3.69-21.517-4.947-36.202-6.36"/>
    <path fill="#381f59" d="M166.164 129.982c-18.454-1.806-23.636-8.795-16.412-18.768-.707-.55-1.649-.236-2.748.863 2.434-5.104 6.832-2.827 3.14-1.335-5.496 9.424 1.179 16.099 16.57 17.355 17.669 1.414 29.212 4.084 35.887 7.146 10.994 5.026 19.318 1.65 18.062-5.34.942 5.262-1.178 8.324-6.44 9.11-3.14.55-7.146-.315-11.857-2.67-9.188-3.691-21.438-4.948-36.202-6.361M198.832 140.976c-4.398 6.046-12.329 4.24-23.872-5.497 11.307 7.146 19.239 8.952 23.872 5.497"/>
    <path fill="#381f59" d="M161.453 114.433c6.989 3.534 16.412 1.335 21.516-1.727l.393-.236.157-.471c.55-1.57.314-4.005.55-5.576v-.157c.55-5.89.157-13.035-4.555-17.197-2.748-2.434-6.36-3.298-9.973-3.298-8.088 0-13.585 4.79-17.04 11.779l-.079.078v.079c-.707 2.356-1.413 4.555-.707 6.989 1.414 4.79 5.654 7.696 9.738 9.737"/>
    <path fill="#fff" d="M162.16 113.491c-7.618-3.848-10.523-8.874-8.56-15.313 3.298-6.675 8.638-10.915 16.098-10.915 9.973-.079 14.37 6.832 13.114 19.003-.392 2.2-.785 3.77-1.1 4.712-7.695 4.555-14.134 5.261-19.552 2.513"/>
    <path fill="#0f143c" d="M167.264 92.289c-5.104.47-8.795 4.947-8.324 9.973.471 5.104 4.947 8.795 9.973 8.323 5.104-.47 8.795-4.947 8.324-9.973-.393-5.025-4.869-8.716-9.973-8.323"/>
    <path fill="#196097" d="M167.342 93.388c-4.476.393-7.774 4.397-7.381 8.874.392 4.476 4.397 7.774 8.873 7.381 4.476-.393 7.775-4.397 7.382-8.874-.393-4.476-4.398-7.774-8.874-7.381"/>
    <path fill="#fff" d="M171.19 107.68c-.785.078-1.413.785-1.335 1.57.079.786.785 1.414 1.57 1.335.786-.078 1.414-.785 1.336-1.57 0-.785-.707-1.414-1.57-1.335M163.337 90.325c-2.198.629-3.69 2.278-3.298 3.77.393 1.413 2.513 2.12 4.79 1.492 2.2-.629 3.691-2.278 3.299-3.77-.393-1.413-2.592-2.12-4.79-1.492"/>
    <path fill="#381f59" d="M160.51 90.09c-1.256-.157-1.884-.314-1.884-.314 7.774-4.555 15.391-5.262 22.851-1.964-7.774-2.198-14.763-1.492-20.967 2.278"/>
    <path fill="#030204" d="M167.656 96.529c-2.748.236-4.79 2.67-4.554 5.418.235 2.749 2.67 4.79 5.418 4.555 2.749-.236 4.79-2.67 4.555-5.418-.236-2.827-2.67-4.87-5.419-4.555"/>
    <path fill="#ccc9e4" d="M147.867 102.262c4.32 6.753 8.01 10.522 10.916 11.386.078-8.245-3.612-12.015-10.916-11.386"/>
    <path fill="#381f59" d="M147.867 102.262c8.324-4.241 11.466 2.67 10.916 11.386-.471-8.088-4.084-11.858-10.916-11.386"/>
    <path fill="#fff" d="M147.867 102.262c6.675-.629 10.366 3.22 10.916 11.386-1.257-7.46-4.947-11.308-10.916-11.386"/>
    <path fill="#381f59" d="M202.523 97.236c-1.178-6.675-3.691-10.052-7.696-10.13 4.869-1.65 7.853 1.806 8.874 10.208-4.398 9.738-4.162 15.784.863 18.14-2.277-.471-3.455-.707-3.533-.707-2.278-3.533-1.806-9.423 1.492-17.511"/>
    <path fill="#381f59" d="M220.584 121.972c4.633-2.67 4.712-9.816 4.555-14.135-.079-2.67-.629-5.261-2.984-6.675-3.22-2.042-7.382-.942-10.366 1.021-4.398 2.827-7.303 7.774-8.952 12.643l-.079.236v.235c.314 8.245 14.528 8.56 17.826 6.675"/>
    <path fill="#fff" d="M204.015 115.219c5.497-15.863 19.789-17.67 20.26-7.382.314 7.539-1.021 11.858-4.005 12.8-5.89 1.885-14.45 1.57-16.255-5.418"/>
    <path fill="#381f59" d="M223.175 103.36c.472-.392.707-.627.707-.627-1.649-2.827-4.633-4.32-8.716-4.476 3.22.785 5.89 2.434 8.01 5.104"/>
    <path fill="#0f143c" d="M213.517 105.638c-3.848 0-6.99 3.141-6.99 6.99 0 3.847 3.142 6.988 6.99 6.988 3.847 0 6.989-3.141 6.989-6.989a6.954 6.954 0 0 0-6.99-6.989"/>
    <path fill="#196097" d="M213.517 106.423c-3.377 0-6.204 2.749-6.204 6.204 0 3.377 2.748 6.204 6.204 6.204a6.167 6.167 0 0 0 6.203-6.204c0-3.455-2.827-6.204-6.203-6.204"/>
    <path fill="#030204" d="M213.517 108.78a3.77 3.77 0 0 0-3.77 3.769c0 2.041 1.728 3.769 3.77 3.769a3.77 3.77 0 0 0 0-7.539"/>
    <path fill="#fff" d="M216.972 117.182c-.628 0-1.1.47-1.1 1.1 0 .627.472 1.099 1.1 1.099.628 0 1.1-.472 1.1-1.1 0-.628-.472-1.1-1.1-1.1M210.69 105.324c-1.571.785-2.356 2.277-1.807 3.298.55 1.021 2.2 1.178 3.77.314 1.57-.785 2.356-2.277 1.806-3.298-.55-.942-2.199-1.1-3.77-.314"/>
    <path fill="#381f59" d="M217.914 121.265c-.157 1.021-.314 1.57-.314 1.57 2.356-.235 4.398 0 6.125.786-1.649-1.806-3.612-2.513-5.81-2.356"/>
    <path fill="#18112e" d="M199.067 132.102c5.89-2.042 8.796-5.183 8.796-9.423-1.492-9.345-8.796-11.308-21.831-5.811-2.827 1.806-1.492 4.476 3.848 8.088 2.277 1.413 3.376 2.906 3.376 4.555v.157c0 .47.157.785.472 1.02 1.963 1.414 3.769 1.885 5.34 1.414"/>
    <path fill="#18112e" d="M198.753 131.16c5.262-1.885 7.932-4.712 7.932-8.481-1.335-8.403-7.853-10.13-19.632-5.262-2.513 1.57-1.335 4.005 3.455 7.303 2.042 1.257 3.063 2.592 2.984 4.084v.157c0 .393.157.707.393.942 1.884 1.257 3.455 1.728 4.868 1.257"/>
    <path fill="#2b1f51" d="M199.774 115.847c2.827.314 5.105 1.884 5.105 3.69 0 1.728-2.278 2.906-5.105 2.67-2.827-.235-5.104-1.884-5.104-3.69-.079-1.806 2.277-2.984 5.104-2.67"/>
    <path fill="#18112e" d="M191.372 83.336c-.079-5.261-4.32-12.014-4.32-12.014 21.439-7.068 30.862 1.649 33.61 5.025-2.983-.392-5.34-.314-7.145.157 2.827 1.178 4.868 3.063 6.125 5.497-2.2-.863-4.633-1.178-7.303-.942 6.282 4.32 7.224 10.052 2.827 17.12.392-2.2-.707-4.006-3.141-5.498-2.042 6.282-6.047 10.444-11.937 12.486.786-5.497.079-10.444-2.198-14.842-.864 2.356-1.257 3.456-1.257 3.456-3.534-6.91-5.261-10.445-5.261-10.445"/>
    <path fill="#2b1f51" d="M211.946 92.76c5.497-15.706-9.58-25.993-23.872-19.475 15.705-.707 27.249 17.354 11.936 31.96 6.046-2.198 10.051-6.36 11.936-12.485"/>
    <path fill="#2b1f51" d="M188.074 73.285a49.392 49.392 0 0 0-1.1-1.963c21.438-7.068 30.862 1.649 33.61 5.025-9.266-6.125-20.103-7.146-32.51-3.062z"/>
    <path fill="#fff" d="M198.518 151.263c23.715-3.613 32.589-12.8 26.542-27.485 4.084 14.45-4.79 23.558-26.542 27.485"/>
    <path fill="#2b1f51" d="M164.515 55.93c-.078 1.806-.628 1.963-1.57.471-1.806-9.423-1.885-21.595-.314-36.672-.471 15.391.078 27.485 1.884 36.201"/>
  </g>
</svg>
