<svg xmlns="http://www.w3.org/2000/svg" viewBox="0 0 511.619 279.094">
  <path fill="#4b4b77" d="M116.294 5.837c6.218 3.87 10.596 8.628 13.197 14.148 3.87 8.882 8.184 18.526 12.88 28.994 4.694 10.469 9.453 21.064 14.147 31.786 4.695 10.722 9.263 21.19 13.578 31.342 4.314 10.151 8.247 19.478 11.674 27.916 3.426 8.438 6.154 15.607 8.184 21.508 2.03 5.9 3.045 9.834 3.045 11.673 0 3.173-.444 6.218-1.269 9.263-.824 3.046-2.347 5.837-4.568 8.312-2.22 2.474-5.329 4.504-9.263 5.964-3.997 1.459-9.136 2.22-15.417 2.22-6.661 0-12.054-.888-16.242-2.665-4.187-1.776-7.613-3.997-10.405-6.788-2.791-2.792-5.075-5.71-6.915-8.756a148.74 148.74 0 0 0-5.71-8.755c-1.967-2.792-4.187-5.012-6.662-6.789-2.474-1.776-5.9-2.664-10.151-2.664H88.632c-5.202 0-9.262.888-12.371 2.664-3.046 1.777-5.52 3.997-7.487 6.789-1.967 2.792-3.743 5.71-5.393 8.755-1.65 3.046-3.806 5.964-6.408 8.756-2.6 2.791-5.963 5.012-10.15 6.788-4.188 1.777-9.771 2.665-16.814 2.665-10.341 0-17.954-2.284-22.776-6.915C2.41 187.416 0 181.96 0 175.678c0-2.41.952-6.597 2.918-12.625 1.967-6.027 4.568-13.196 7.931-21.508 3.49-8.374 7.296-17.574 11.547-27.788 4.25-10.152 8.755-20.683 13.577-31.469 4.822-10.85 9.644-21.635 14.402-32.484A28963.65 28963.65 0 0 1 64.27 18.59c2.6-5.71 6.915-10.278 12.879-13.577C83.176 1.713 89.838 0 97.26 0c6.471 0 12.816 1.967 19.033 5.837zm224.405.952c4.822 4.377 7.233 9.96 7.233 16.812 0 3.87-.952 8.946-2.919 15.29-1.967 6.282-4.441 13.388-7.486 21.382-3.046 7.93-6.599 16.559-10.532 25.822a3471.382 3471.382 0 0 0-12.055 28.296c-5.52 13.133-10.341 24.934-14.275 35.402-3.997 10.469-8.057 19.351-12.181 26.647-4.188 7.296-8.692 12.943-13.577 16.94-4.886 3.997-10.976 5.964-18.146 5.964-7.423 0-13.577-1.586-18.462-4.886-4.885-3.235-9.327-8.12-13.324-14.719-3.997-6.535-7.867-14.846-11.673-24.807-3.807-9.96-8.248-21.825-13.45-35.529a1046.671 1046.671 0 0 0-11.928-30.39c-4.06-9.897-7.74-19.033-11.103-27.345-3.3-8.31-6.027-15.797-8.185-22.332-2.093-6.535-3.172-11.674-3.172-15.417 0-8.502 2.855-14.593 8.629-18.336 5.71-3.68 12.879-5.52 21.38-5.52 7.74 0 13.832.952 18.146 2.919s8.12 4.504 11.23 7.613c2.22 2.22 4.44 5.457 6.661 9.707 2.22 4.251 4.315 8.946 6.218 14.022 1.967 5.075 3.87 10.214 5.837 15.417 1.967 5.202 3.743 9.96 5.393 14.275 1.65 4.378 3.299 7.867 4.885 10.532 1.586 2.664 2.982 3.997 4.314 3.997 1.46 0 2.982-1.333 4.568-3.997 1.586-2.665 3.172-6.154 4.885-10.405 1.65-4.251 3.363-8.946 5.14-14.022a529.47 529.47 0 0 1 5.52-15.1 147.237 147.237 0 0 1 6.09-13.704c2.094-4.187 4.314-7.36 6.535-9.58 2.03-2.03 3.997-3.743 5.963-5.139a31.122 31.122 0 0 1 6.408-3.49c2.284-.95 4.95-1.585 7.931-2.093 2.982-.444 6.535-.698 10.85-.698 7.549 0 13.83 2.157 18.652 6.472zm94.216-.952c6.217 3.87 10.595 8.628 13.196 14.148 3.87 8.882 8.184 18.526 12.88 28.994 4.694 10.469 9.453 21.064 14.148 31.786 4.694 10.722 9.262 21.19 13.577 31.342 4.314 10.151 8.248 19.478 11.674 27.916 3.426 8.438 6.154 15.607 8.184 21.508 2.03 5.9 3.045 9.834 3.045 11.673 0 3.173-.444 6.218-1.269 9.263-.824 3.046-2.347 5.837-4.568 8.312-2.22 2.474-5.329 4.504-9.263 5.964-3.997 1.459-9.136 2.22-15.417 2.22-6.661 0-12.054-.888-16.242-2.665-4.187-1.776-7.613-3.997-10.404-6.788-2.792-2.792-5.076-5.71-6.916-8.756a148.74 148.74 0 0 0-5.71-8.755c-1.967-2.792-4.187-5.012-6.662-6.789-2.474-1.776-5.9-2.664-10.15-2.664h-17.765c-5.203 0-9.263.888-12.372 2.664-3.046 1.777-5.52 3.997-7.487 6.789-1.966 2.792-3.743 5.71-5.393 8.755-1.65 3.046-3.806 5.964-6.407 8.756-2.602 2.791-5.964 5.012-10.152 6.788-4.187 1.777-9.77 2.665-16.813 2.665-10.341 0-17.954-2.284-22.776-6.915-4.822-4.632-7.233-10.088-7.233-16.37 0-2.41.952-6.597 2.919-12.625 1.966-6.027 4.568-13.196 7.93-21.508 3.3-8.31 7.106-17.574 11.357-27.725 4.25-10.151 8.755-20.683 13.577-31.469 4.822-10.849 9.644-21.634 14.402-32.483a28944.18 28944.18 0 0 1 13.894-31.215c2.602-5.71 6.916-10.278 12.88-13.577 6.027-3.3 12.689-5.013 20.112-5.013 6.661-.063 13.006 1.904 19.224 5.774z"/>
  <path fill="#e0c7c1" d="M96.627 279.094c1.522 0 2.981-.825 3.68-2.22 0-.064 6.027-11.167 11.99-24.3 2.982-6.598 6.028-13.64 8.312-20.175 1.142-3.3 2.093-6.408 2.791-9.263.698-2.919 1.142-5.584 1.142-7.994 0-9.454-3.49-17.892-9.326-23.729-4.885-4.885-11.484-7.867-18.653-7.867-7.17 0-13.767 2.982-18.653 7.867-5.773 5.774-9.326 14.212-9.326 23.729 0 2.474.444 5.139 1.142 7.994 1.205 5.075 3.299 10.849 5.646 16.812 7.17 17.828 17.448 36.862 17.448 36.989.825 1.269 2.22 2.157 3.807 2.157zm318.62 0c1.522 0 2.982-.825 3.68-2.22 0-.064 6.027-11.167 11.99-24.3 2.982-6.598 6.028-13.64 8.312-20.175 1.142-3.3 2.093-6.408 2.791-9.263.698-2.919 1.142-5.584 1.142-7.994 0-9.454-3.49-17.892-9.326-23.729-4.885-4.885-11.484-7.867-18.653-7.867-7.17 0-13.767 2.982-18.653 7.867-5.773 5.774-9.326 14.212-9.326 23.729 0 2.474.444 5.139 1.142 7.994 1.205 5.075 3.3 10.849 5.647 16.812 7.169 17.828 17.447 36.862 17.447 36.989.825 1.269 2.22 2.157 3.807 2.157z"/>
</svg>
