<svg xmlns="http://www.w3.org/2000/svg" viewBox="0 0 256 309.023">
  <path fill="#634b1e" d="m256 136.408-62.152 2.575-40.289-2.57 66.64-6.387L256 136.408"/>
  <path fill="#d9a740" d="M220.055 132.816 256 136.408V64.002l-35.945-17.975-2.76 2.98v80.728l2.76 3.081"/>
  <path fill="#886a2a" d="m153.559 63.96 66.496-17.997v86.853l-66.496 3.597V63.96"/>
  <path fill="#634b1e" d="m0 136.408 62.152 2.575 40.289-2.57-66.45-7.117L0 136.408"/>
  <path fill="#886a2a" d="M35.945 132.816 0 136.301V63.676l35.945-17.945 1.655 3.091v81.281l-1.655 2.713"/>
  <path fill="#d9a740" d="M102.441 63.96 35.945 45.963v86.853l66.496 3.597V63.96"/>
  <g>
    <path fill="#fad791" d="m256 173.852-62.152-2.576-40.289 2.571 66.35 6.707L256 173.852"/>
    <path fill="#d9a740" d="M220.055 177.444 256 173.852v72.405l-35.945 17.975-1.888-4.111v-78.983l1.888-3.694"/>
    <path fill="#886a2a" d="m153.559 246.3 66.496 17.997v-86.853l-66.496-3.597V246.3"/>
  </g>
  <g>
    <path fill="#fad791" d="m0 173.852 62.152-2.576 40.289 2.571-66.931 7.288L0 173.852"/>
    <path fill="#886a2a" d="M35.945 177.444 0 173.852v72.405l35.945 17.975 2.179-3.24v-79.857l-2.179-3.691"/>
    <path fill="#d9a740" d="m102.441 246.3-66.496 17.997v-86.853l66.496-3.597V246.3"/>
  </g>
  <g>
    <path fill="#634b1e" d="m95.553 105.995 32.966-5.781 65.814 9.319 5.669 3.261-31.966 3.498-72.483-10.297"/>
    <path fill="#634b1e" d="m160.447 105.995-32.966-5.781-68.648 10.652-2.835 1.928 31.966 3.498 72.483-10.297"/>
    <path fill="#fad791" d="m95.553 204.265 32.966 5.781 65.648-9.18 5.835-3.4-31.966-3.498-72.483 10.297"/>
    <path fill="#fad791" d="m160.447 204.265-32.966 5.781-69.148-9.847-2.335-2.733 31.966-3.498 72.483 10.297"/>
    <path fill="#d9a740" d="M200.002 112.794V77.007l-33.713-11.025v-46.84L128 0v.001l-1.597 2.543-.291 302.588 1.888 3.891 38.289-19.142v-45.603l33.713-11.025v-35.787l-33.713 5.935v-96.542l33.713 5.935"/>
    <path fill="#886a2a" d="M89.711 19.142v46.84L55.998 77.007v35.787l33.713-5.935v96.542l-33.713-5.935v35.787l33.713 11.025v45.603L128 309.023V0L89.711 19.142"/>
  </g>
</svg>
