<svg xmlns="http://www.w3.org/2000/svg" viewBox="0 0 256 309.76">
  <path fill="#876929" d="M127.25 57.75 24.805 92.011 24 189.875l20.877-4.638V95.393L128 73.64l83.123 21.753v89.844l21.502 4.638.038-98.839L127.25 57.75"/>
  <path fill="#fad791" d="m230.316 186.738-19.193-1.501L128 196.543l-83.123-11.306-19.193 1.501 102.675 20.486 101.957-20.486"/>
  <path fill="#876929" d="M129.434 205.7 128 202.687l-102.311-15.95V92.501L128 61.806l1.009-1.418V1.926L128 0 0 64v154.941l89.714 31.93v39.62l38.372 19.269 1.169-3.316.179-100.744"/>
  <path fill="#d9a741" d="M128 0v61.806l102.311 30.695v94.236L128 202.687v13.625l-.086.017v93.431l38.372-19.269v-39.62L256 218.941V64L128 0"/>
</svg>
