<svg xmlns="http://www.w3.org/2000/svg" viewBox="0 0 256 307.2">
  <path fill="#99bce3" d="m255.179 207.604-127.183-15.812L.822 207.604 128 307.2z"/>
  <path fill="#19486f" d="M127.175 115.404 256 99.596 128 0 0 99.591z"/>
  <path fill="#1f5b99" d="m0 99.596 128-38.155V0L0 63.591zM128 245.757 0 207.608v36L128 307.2zM72.533 115.891l55.467-8 1.31 2.532-.139 87.1-1.17 2.53-55.468-8.125z"/>
  <path fill="#5294cf" d="M256 99.596V63.591L128 0v61.441zM256 243.609v-36l-128 38.149V307.2zM183.467 115.891l-55.467-8v92.162l55.467-8.125z"/>
</svg>
