<svg xmlns="http://www.w3.org/2000/svg" viewBox="0 0 256 309.262">
  <path fill="#9d5025" d="m0 245.262 16.322 8.161L19 248.668V59.333l-2.678-3.494L0 64v181.262"/>
  <path fill="#f68536" d="m47.678 63.57-31.356-7.731v197.584l31.356-7.302V63.57"/>
  <path fill="#6b3a19" d="m143.893 78.604 22.335-11.597 74.309 28.778-19.758 2.577-76.886-19.758"/>
  <path fill="#fbbf93" d="m144.752 230.658 21.906 11.597 74.308-28.778-19.758-2.578-76.456 19.759"/>
  <path fill="#9d5025" d="m150.336 198.872 39.087 5.155 2.244-4.027v-90l-2.244-4.765-39.087 5.154v88.483M35.651 45.96l24.054-12.027L62.333 39v231l-2.628 5.329-24.054-12.027V45.96"/>
  <path fill="#f68536" d="m108.671 259.007-48.966 15.892V33.933l48.966 15.893v209.181"/>
  <path fill="#9d5025" d="M89.772 289.933 128 309.262l4-4.595v-299L128 0 89.772 19.329v270.604M219.919 98.362l19.759-2.577 1.697 2.465V211l-1.697 2.906-19.759-2.577V98.362"/>
  <path fill="#f68536" d="M189.423 105.235v99.221l40.805-49.825-40.805-49.396"/>
  <path fill="#f68536" d="M239.678 55.839 128 0v309.262l128-64V64zm0 158.217-73.45 21.936V73.27l73.45 21.936z"/>
</svg>
