<svg xmlns="http://www.w3.org/2000/svg" viewBox="0 0 256 309.096">
  <path fill="#f68536" d="m42.754 244.495-29.918 6.826V57.565l29.918 6.839v180.091"/>
  <path fill="#f68536" d="m80.082 255.931-37.328 10.608V42.612l37.328 10.595v202.724M127.966 267.681l-47.884 17.524V23.946l47.884 17.516v226.219M256 245.079l-128.034 64.017V0L256 64.017v181.062"/>
  <path fill="#9d5025" d="M102.444 12.763 127.966 0v309.096l-25.522-12.759V12.763M60.325 33.82l19.757-9.878v261.212l-19.757-9.878V33.82M27.016 50.477l15.738-7.869v223.88l-15.738-7.874V50.477M12.836 57.565 0 63.983v181.134l12.836 6.414V57.565"/>
</svg>
