<svg xmlns="http://www.w3.org/2000/svg" viewBox="0 0 256 309.015">
  <path fill="#8c3123" d="m128.004 229.29 107.363 26.04.089-.174.017-201.297-.097-.173-107.372 25.996V229.29"/>
  <path fill="#e05243" d="M235.367 53.686 256 64v181.024l-20.633 10.306V53.686M128.004 229.29 20.633 255.274l-.024-.055-.006-201.488.03-.045 107.371 25.996V229.29"/>
  <path fill="#8c3123" d="M20.633 53.686 0 64v181.024l20.633 10.25V53.686M128.004 309.015l.445-.56L128.086.074 128.004 0 81.173 23.413v262.193l46.831 23.409"/>
  <path fill="#e05243" d="M128.004 309.015V0l46.823 23.413v262.193l-46.823 23.409"/>
</svg>
