<svg xmlns="http://www.w3.org/2000/svg" viewBox="0 0 256 308.702">
  <path fill="#4b612c" d="m255.197 158.817.803-4.307h-20.63l-35.39 102.835 20.163 5.442 1.825-2.319 33.229-101.651"/>
  <path fill="#759c3e" d="M256 154.51v90.505l-35.942 17.982L256 154.51M33.674 259.574.803 158.817 0 154.51h19.919l35.689 102.948-19.743 5.329-2.191-3.213M128.004 217.284l-53.598-70.972L36.461 45.864l91.543 24.825 1.425 3.45.715 136.843-2.14 6.302"/>
  <path fill="#4b612c" d="m128.004 217.284 55.466-72.848 36.073-98.572-91.539 24.825v146.595"/>
  <path fill="#759c3e" d="M256 100.74V63.811l-36.457-17.947-91.539 171.42v91.418l67.713-33.854L256 100.74"/>
  <path fill="#4b612c" d="m128.004 154.51.358-.835.128-153.22-.486-.455L60.51 33.816l67.494 120.694M0 154.51v90.505l35.947 17.982L0 154.51"/>
  <path fill="#759c3e" d="M128.004 154.51V0l67.49 33.816-67.49 120.694"/>
  <path fill="#4b612c" d="M0 100.74V63.811l36.461-17.947 91.543 171.42v91.418l-67.713-33.854L0 100.74"/>
</svg>
