<svg xmlns="http://www.w3.org/2000/svg" viewBox="0 0 256 309.303">
  <path fill="#b6c99c" d="m0 172.669.985.52 15.49 1.762 19.455-1.081.856-.45-17.267-1.502z"/>
  <path fill="#4c612c" d="M128 0 73.948 27.026v173.507L128 210.45l1.85-2.5V4.451z"/>
  <path fill="#769b3f" d="M128 0v217.7l54.053-16.141V27.026z"/>
  <path fill="#b6c99c" d="m219.214 173.42.922.622 19.339 1.074 15.656-1.779.869-.669-19.52-.75z"/>
  <path fill="#4c612c" d="m219.214 209.455 20.27 2.628.543-.998v-35.397l-.543-1.142-20.27-1.126z"/>
  <path fill="#769b3f" d="m36.786 209.455-20.27 2.628-.342-.926v-36.001l.342-.61 20.27-1.126z"/>
  <path fill="#b6c99c" d="m125.748 207.953-89.713-15.765-19.52 1.876.889.891 85.223 17.265.974-.513z"/>
  <path fill="#4c612c" d="M0 190.687v54.428l89.713 44.988v.056L128 309.303l1.6-3.003V187.45l-1.6-3.746-38.287-3.753v28.889l-73.197-14.811v-19.483L0 172.669z"/>
  <path fill="#b6c99c" d="m128 208.328 21.771 3.754 2.804.118 85.285-17.129 1.624-1.007-19.144-1.877z"/>
  <path fill="#769b3f" d="M239.484 174.545v19.483l-73.196 14.811v-30.165L128 182.428v126.874l128-64.188v-72.446z"/>
  <path fill="#b6c99c" d="M166.287 181.678 128 178.675l-38.288 3.003L128 185.431z"/>
</svg>
