<svg xmlns="http://www.w3.org/2000/svg" viewBox="0 0 256 309.101">
  <path fill="#9d5025" d="m73.871 282.05 54.097 27.051 5.284-3.942-2.224-301.561L127.968 0 73.871 27.051V282.05"/>
  <path fill="#f68536" d="m182.065 282.05-54.097 27.051V0l54.097 27.051V282.05"/>
  <path fill="#6b3a19" d="m107.571 112.513-18.984 2.764L0 105.296l.375-.983L14.75 100l1.529.866.346-.866L107 110.563l.571 1.95"/>
  <path fill="#9d5025" d="m0 63.988 16.279-8.144v45.022L0 105.296V63.988"/>
  <path fill="#6b3a19" d="m256 131.063-90.661 4.869-16.975-1.164 3.198-1.33 88.375-5.063L256 131.063"/>
  <path fill="#f68536" d="m107.571 112.513-91.292-11.647V55.844l91.292 21.414v35.255"/>
  <path fill="#9d5025" d="m239.656 82.225-91.292 15.691v36.852l91.292-5.478.531-1.04L240 83.063l-.344-.838"/>
  <path fill="#f68536" d="m256 131.063-16.344-2.125V82.225L256 88.21v42.853"/>
</svg>
