<svg xmlns="http://www.w3.org/2000/svg" viewBox="0 0 256 279.273">
  <defs>
    <linearGradient id="a" x1="59.093" x2="207.88" y1="137.145" y2="109.473" gradientTransform="scale(.93069 1.07447)" gradientUnits="userSpaceOnUse">
      <stop offset="0%" stop-color="#F7962F" stop-opacity=".96"/>
      <stop offset="35.63%" stop-color="#D64626" stop-opacity=".96"/>
      <stop offset="45.19%" stop-color="#D04730" stop-opacity=".966"/>
      <stop offset="61.16%" stop-color="#BF4949" stop-opacity=".976"/>
      <stop offset="81.44%" stop-color="#A44C73" stop-opacity=".989"/>
      <stop offset="100%" stop-color="#87509F"/>
    </linearGradient>
  </defs>
  <path fill="#ad688a" d="m170.422 31.57 46.79 26.778v20.004l11.636 6.283v59.19l-11.636 6.284v21.333l19.394 10.473L256 171.055v-20.946l-19.394-10.473V88.824L256 77.964V57.406l-19.394-10.86-12.554 6.779-53.385-30.553V10.861L153.212 0l-17.454 10.473v21.333l17.454 10.473z"/>
  <path fill="#f58435" d="M23.273 86.73v55l15.515 8.38v21.332l-19.394 10.473L0 171.055v-20.946l11.636-6.284V84.48L0 77.964V57.406l19.394-10.86 13.102 7.074 45.08-25.799v-16.96L96.97 0l19.394 10.473v21.333L96.97 42.28l-14.677-8.22-43.505 24.899v19.394z"/>
  <path fill="#df5343" d="m145.842 250.265 46.803-26.138 15.646 8.988 18.23-10.085.388-21.333-18.23-10.86-18.618 10.472v15.375l-49.592 27.696-12.857-7.386-16.686 9.586-44.933-26.556.334-18.715-18.23-10.473-18.618 10.473v21.333l18.23 10.473 13.01-7.197 48.663 28.76V268.8l18.23 10.473 18.23-10.473z"/>
  <path fill="url(#a)" d="M58.57 91.152v80.678l69.042 39.564 67.879-38.4 1.164-80.679L128 51.975z" style="fill:url(#a)"/>
  <path fill="#fff" d="m127.224 185.794-46.933-27.152.388-54.69L128 77.188l46.545 27.54-.775 54.69zm-42.279-29.867 42.28 24.437 41.502-23.661.776-49.26-41.89-24.437-42.28 23.66z"/>
</svg>
