<svg xmlns="http://www.w3.org/2000/svg" viewBox="0 0 256 308.234">
  <path fill="#fcbf92" d="m255.506 172.086-127.752-5.293L0 172.086l127.754 58.81z"/>
  <path fill="#9d5025" d="M.059 154.017h153.589V12.751L128.147 0 .059 63.881z"/>
  <path fill="#fcbf92" d="m256 217.559-128.055-18.633L.059 217.559l128.162 90.675z"/>
  <path fill="#9d5025" d="m195.723 57.836-19.733-7.893-47.844 13.955v90.119h67.577z"/>
  <path fill="#9d5025" d="m228.223 91.632-14.94-4.481-37.293 6.33v60.536h52.233z"/>
  <path fill="#9d5025" d="M255.506 154.017 256 81.941l-12.826-5.124-29.892 5.443v71.757z"/>
  <path fill="#f68534" d="M153.648 154.017V12.751L128.147 0v154.017zM175.99 154.017h19.733v-96.18l-19.733-7.895zM213.282 154.017h14.941V91.632l-14.94-4.481zM256 81.941l-12.826-5.124v77.2H256zM255.506 199.052v-26.965l-127.752 12.776v46.033zM256 244.114V217.56l-128.246 45.222v45.453z"/>
  <path fill="#9d5025" d="M127.754 262.447.058 217.558v26.833l127.697 63.843zM127.754 184.862 0 172.086v26.965l127.754 31.845z"/>
</svg>
