<svg xmlns="http://www.w3.org/2000/svg" viewBox="0 0 256 298.552">
  <path fill="#876929" d="M60.556 47.602 0 144.01l60.556 96.424 1.056-.753L60.837 47.8l-.281-.198"/>
  <path fill="#d9a741" d="m128.187 223.105-67.631 17.329V47.602l67.631 17.325v158.178"/>
  <path fill="#876929" d="m255.979 71.868-32.6 5.391L148.538 0l-37.207 16.292 4.908 9.153-26.333 10.526v243.428l38.28 19.153.637-.499-.589-250.235 81.142 122.968 46.603-98.918"/>
  <path fill="#d9a741" d="m148.538 0 99.679 49.837-39.417 71.52L148.538 0"/>
  <path fill="#d9a741" d="M255.975 71.868 256 234.596l-127.813 63.956-.017-277.869 80.63 146.291 47.175-95.106"/>
</svg>
