<svg xmlns="http://www.w3.org/2000/svg" viewBox="0 0 254.873 152.413">
  <path fill="#252f3e" d="M71.826 55.354c0 3.136.339 5.68.932 7.544a45.373 45.373 0 0 0 2.713 6.103c.424.678.593 1.357.593 1.95 0 .848-.508 1.695-1.61 2.543l-5.34 3.56c-.764.509-1.527.763-2.205.763-.847 0-1.695-.424-2.543-1.187a26.224 26.224 0 0 1-3.051-3.984c-.848-1.44-1.696-3.051-2.628-5.001-6.612 7.799-14.92 11.698-24.922 11.698-7.12 0-12.8-2.034-16.954-6.103-4.153-4.07-6.273-9.494-6.273-16.276 0-7.205 2.543-13.054 7.714-17.462 5.171-4.408 12.037-6.612 20.769-6.612 2.882 0 5.849.254 8.985.678 3.136.424 6.358 1.102 9.748 1.865v-6.188c0-6.442-1.356-10.935-3.984-13.563-2.712-2.628-7.29-3.9-13.817-3.9-2.967 0-6.019.34-9.155 1.103-3.136.763-6.188 1.695-9.155 2.882-1.356.593-2.373.932-2.967 1.102-.593.17-1.017.254-1.356.254-1.187 0-1.78-.848-1.78-2.628v-4.153c0-1.357.17-2.374.593-2.967.424-.594 1.187-1.187 2.374-1.78 2.966-1.526 6.527-2.798 10.68-3.815C33.341.678 37.75.17 42.411.17c10.088 0 17.462 2.288 22.21 6.866 4.662 4.577 7.035 11.528 7.035 20.853v27.465zM37.41 68.238c2.797 0 5.68-.508 8.731-1.525 3.052-1.018 5.764-2.883 8.053-5.426 1.356-1.61 2.374-3.39 2.882-5.425.509-2.034.848-4.492.848-7.375v-3.56a70.791 70.791 0 0 0-7.799-1.44 63.874 63.874 0 0 0-7.968-.51c-5.68 0-9.833 1.102-12.63 3.391-2.798 2.289-4.154 5.51-4.154 9.749 0 3.984 1.017 6.95 3.136 8.985 2.035 2.12 5.002 3.136 8.9 3.136zm68.069 9.155c-1.526 0-2.543-.254-3.221-.847-.679-.509-1.272-1.696-1.78-3.306L80.556 7.714c-.509-1.695-.763-2.797-.763-3.39 0-1.357.678-2.12 2.034-2.12h8.308c1.61 0 2.712.254 3.306.848.678.508 1.186 1.695 1.695 3.306l14.241 56.116 13.224-56.116c.424-1.696.932-2.798 1.61-3.306.679-.509 1.865-.848 3.391-.848h6.782c1.61 0 2.712.254 3.39.848.679.508 1.272 1.695 1.611 3.306l13.393 56.794 14.665-56.794c.509-1.696 1.102-2.798 1.696-3.306.678-.509 1.78-.848 3.306-.848h7.883c1.356 0 2.12.678 2.12 2.12 0 .423-.085.847-.17 1.355-.085.51-.255 1.187-.594 2.12l-20.429 65.526c-.508 1.695-1.102 2.797-1.78 3.305-.678.51-1.78.848-3.221.848h-7.29c-1.61 0-2.713-.254-3.39-.848-.679-.593-1.272-1.695-1.611-3.39l-13.14-54.676-13.054 54.591c-.424 1.695-.932 2.797-1.61 3.39-.679.594-1.865.848-3.391.848zm108.927 2.29c-4.408 0-8.816-.51-13.054-1.527-4.239-1.017-7.545-2.119-9.749-3.39-1.356-.763-2.288-1.611-2.628-2.374a5.983 5.983 0 0 1-.508-2.373v-4.324c0-1.78.678-2.627 1.95-2.627a4.8 4.8 0 0 1 1.525.254c.509.17 1.272.508 2.12.848a46.109 46.109 0 0 0 9.324 2.966 50.907 50.907 0 0 0 10.087 1.018c5.34 0 9.495-.933 12.377-2.798 2.882-1.865 4.408-4.577 4.408-8.053 0-2.373-.763-4.323-2.29-5.933-1.525-1.611-4.407-3.052-8.56-4.408l-12.292-3.815c-6.188-1.95-10.766-4.832-13.563-8.646-2.797-3.73-4.238-7.884-4.238-12.292 0-3.56.762-6.696 2.288-9.409 1.526-2.713 3.56-5.086 6.104-6.951 2.543-1.95 5.425-3.39 8.816-4.408C209.913.424 213.473 0 217.203 0c1.865 0 3.815.085 5.68.34 1.95.253 3.73.592 5.51.932 1.695.423 3.306.847 4.831 1.356 1.526.508 2.713 1.017 3.56 1.526 1.188.678 2.035 1.356 2.544 2.119.508.678.763 1.61.763 2.797v3.984c0 1.78-.678 2.713-1.95 2.713-.678 0-1.78-.34-3.221-1.017-4.832-2.204-10.257-3.306-16.276-3.306-4.831 0-8.646.763-11.274 2.373-2.628 1.61-3.984 4.07-3.984 7.545 0 2.373.848 4.408 2.543 6.018 1.695 1.61 4.832 3.221 9.325 4.662l12.037 3.815c6.103 1.95 10.511 4.662 13.139 8.138 2.628 3.475 3.9 7.46 3.9 11.867 0 3.645-.764 6.951-2.205 9.833-1.526 2.882-3.56 5.426-6.188 7.46-2.628 2.12-5.764 3.645-9.41 4.747-3.814 1.187-7.798 1.78-12.121 1.78z"/>
  <path fill="#f90" d="M230.427 120.88c-27.889 20.598-68.408 31.533-103.248 31.533-48.826 0-92.82-18.055-126.05-48.063-2.628-2.374-.254-5.595 2.882-3.73 35.942 20.853 80.276 33.483 126.135 33.483 30.94 0 64.933-6.442 96.212-19.666 4.663-2.12 8.647 3.052 4.07 6.442zm11.613-13.224c-3.56-4.578-23.565-2.204-32.635-1.102-2.713.339-3.137-2.035-.679-3.815 15.937-11.19 42.13-7.968 45.182-4.238 3.052 3.814-.848 30.008-15.767 42.553-2.289 1.95-4.493.933-3.475-1.61 3.39-8.392 10.935-27.296 7.374-31.788z"/>
</svg>
