<?xml version="1.0" encoding="UTF-8"?>
<svg width="256" height="256" version="1.1" viewBox="0 0 256 256" xmlns="http://www.w3.org/2000/svg">
 <path d="m72.389 107.15c0 3.1364 0.33907 5.6795 0.93245 7.5444 0.67815 1.8649 1.5258 3.8993 2.7126 6.1033 0.42384 0.67815 0.59338 1.3563 0.59338 1.9497 0 0.84769-0.50861 1.6954-1.6106 2.543l-5.3404 3.5603c-0.76291 0.50861-1.5258 0.76292-2.204 0.76292-0.84768 0-1.6954-0.42384-2.543-1.1868-1.1868-1.2715-2.204-2.6278-3.0517-3.9841-0.84768-1.4411-1.6954-3.0517-2.6278-5.0013-6.6119 7.7987-14.919 11.698-24.922 11.698-7.1205 0-12.8-2.0344-16.954-6.1033-4.1536-4.0689-6.2728-9.494-6.2728-16.275 0-7.2053 2.543-13.054 7.7139-17.462s12.037-6.6119 20.768-6.6119c2.8821 0 5.849 0.2543 8.9854 0.67815 3.1364 0.42384 6.3576 1.102 9.7483 1.8649v-6.1881c0-6.4424-1.3563-10.935-3.9841-13.563-2.7126-2.6278-7.2901-3.8993-13.817-3.8993-2.9669 0-6.0185 0.33907-9.155 1.102-3.1364 0.76291-6.1881 1.6954-9.155 2.8821-1.3563 0.59338-2.3735 0.93245-2.9669 1.102-0.59338 0.16954-1.0172 0.2543-1.3563 0.2543-1.1868 0-1.7801-0.84768-1.7801-2.6278v-4.1536c0-1.3563 0.16954-2.3735 0.59338-2.9669 0.42384-0.59338 1.1868-1.1868 2.3735-1.7801 2.9669-1.5258 6.5272-2.7974 10.681-3.8146 4.1536-1.102 8.5616-1.6106 13.224-1.6106 10.087 0 17.462 2.2887 22.209 6.8662 4.6623 4.5775 7.0358 11.528 7.0358 20.853v27.465zm-34.416 12.885c2.7974 0 5.6795-0.50861 8.7311-1.5258 3.0517-1.0172 5.7642-2.8821 8.053-5.4252 1.3563-1.6106 2.3735-3.3907 2.8821-5.4252s0.84768-4.4927 0.84768-7.3748v-3.5603c-2.4583-0.59338-5.0861-1.102-7.7987-1.4411-2.7126-0.33907-5.3404-0.50861-7.9682-0.50861-5.6795 0-9.8331 1.102-12.63 3.3907-2.7974 2.2887-4.1536 5.5099-4.1536 9.7483 0 3.9841 1.0172 6.951 3.1364 8.9854 2.0344 2.1192 5.0013 3.1364 8.9007 3.1364zm68.069 9.155c-1.5258 0-2.543-0.25431-3.2212-0.84769-0.67814-0.50861-1.2715-1.6954-1.7801-3.306l-19.921-65.526c-0.50861-1.6954-0.76291-2.7974-0.76291-3.3907 0-1.3563 0.67815-2.1192 2.0344-2.1192h8.3073c1.6106 0 2.7126 0.2543 3.306 0.84768 0.67815 0.50861 1.1868 1.6954 1.6954 3.306l14.241 56.117 13.224-56.117c0.42384-1.6954 0.93245-2.7974 1.6106-3.306 0.67814-0.50861 1.8649-0.84768 3.3907-0.84768h6.7814c1.6106 0 2.7126 0.2543 3.3907 0.84768 0.67815 0.50861 1.2715 1.6954 1.6106 3.306l13.393 56.795 14.665-56.795c0.5086-1.6954 1.102-2.7974 1.6954-3.306 0.67815-0.50861 1.7801-0.84768 3.306-0.84768h7.8834c1.3563 0 2.1192 0.67814 2.1192 2.1192 0 0.42384-0.0848 0.84768-0.16954 1.3563-0.0848 0.50861-0.2543 1.1868-0.59337 2.1192l-20.429 65.526c-0.50861 1.6954-1.102 2.7974-1.7801 3.306-0.67814 0.50861-1.7801 0.84768-3.2212 0.84768h-7.2901c-1.6106 0-2.7126-0.2543-3.3907-0.84768-0.67815-0.59337-1.2715-1.6954-1.6106-3.3907l-13.139-54.675-13.054 54.591c-0.42384 1.6954-0.93245 2.7974-1.6106 3.3907-0.67815 0.59338-1.8649 0.84769-3.3907 0.84769zm108.93 2.2887c-4.4079 0-8.8159-0.50861-13.054-1.5258s-7.5444-2.1192-9.7483-3.3907c-1.3563-0.76291-2.2888-1.6106-2.6278-2.3735-0.33907-0.76291-0.50861-1.6106-0.50861-2.3735v-4.3232c0-1.7801 0.67815-2.6278 1.9497-2.6278 0.50861 0 1.0172 0.0848 1.5258 0.2543 0.50861 0.16954 1.2715 0.50861 2.1192 0.84769 2.8821 1.2715 6.0186 2.2887 9.3245 2.9669 3.3907 0.67815 6.6967 1.0172 10.087 1.0172 5.3404 0 9.494-0.93245 12.376-2.7974s4.408-4.5775 4.408-8.053c0-2.3735-0.76291-4.3232-2.2887-5.9338-1.5258-1.6106-4.408-3.0517-8.5616-4.408l-12.291-3.8146c-6.1881-1.9497-10.766-4.8318-13.563-8.6464-2.7974-3.7298-4.2384-7.8834-4.2384-12.291 0-3.5603 0.76292-6.6967 2.2888-9.4093 1.5258-2.7126 3.5603-5.0861 6.1033-6.951 2.543-1.9497 5.4252-3.3907 8.8159-4.4079 3.3907-1.0172 6.951-1.4411 10.681-1.4411 1.8649 0 3.8146 0.08477 5.6795 0.33907 1.9497 0.2543 3.7298 0.59338 5.5099 0.93245 1.6954 0.42384 3.306 0.84768 4.8318 1.3563 1.5258 0.50861 2.7126 1.0172 3.5603 1.5258 1.1868 0.67814 2.0344 1.3563 2.543 2.1192 0.50861 0.67815 0.76291 1.6106 0.76291 2.7974v3.9841c0 1.7801-0.67814 2.7126-1.9497 2.7126-0.67815 0-1.7801-0.33907-3.2212-1.0172-4.8318-2.204-10.257-3.306-16.275-3.306-4.8318 0-8.6464 0.76291-11.274 2.3735-2.6278 1.6106-3.9841 4.0689-3.9841 7.5444 0 2.3735 0.84768 4.4079 2.543 6.0185 1.6954 1.6106 4.8318 3.2212 9.3245 4.6623l12.037 3.8146c6.1033 1.9497 10.511 4.6623 13.139 8.1377 2.6278 3.4755 3.8993 7.4596 3.8993 11.868 0 3.645-0.76291 6.951-2.204 9.8331-1.5258 2.8821-3.5603 5.4252-6.1881 7.4596-2.6278 2.1192-5.7642 3.645-9.4093 4.747-3.8146 1.1868-7.7987 1.7801-12.122 1.7801z" fill="#252f3e"/>
 <path d="m230.99 172.67c-27.889 20.599-68.408 31.534-103.25 31.534-48.826 0-92.821-18.056-126.05-48.064-2.6278-2.3735-0.2543-5.5947 2.8821-3.7298 35.942 20.853 80.275 33.483 126.14 33.483 30.94 0 64.932-6.4424 96.212-19.666 4.6622-2.1192 8.6464 3.0517 4.0689 6.4424zm11.613-13.224c-3.5603-4.5775-23.566-2.204-32.636-1.102-2.7126 0.33907-3.1364-2.0344-0.67815-3.8146 15.936-11.189 42.13-7.9682 45.181-4.2384 3.0517 3.8146-0.84768 30.008-15.767 42.554-2.2888 1.9497-4.4927 0.93245-3.4755-1.6106 3.3907-8.3921 10.935-27.295 7.3748-31.788z" fill="#f90"/>
</svg>
