<svg xmlns="http://www.w3.org/2000/svg" viewBox="0 0 512 147.504">
  <path fill="#0089d6" fill-rule="nonzero" d="M88.1 139.627c24.467-4.322 44.675-7.899 44.907-7.948l.422-.09-23.099-27.475C97.626 89.003 87.231 76.58 87.231 76.51c0-.136 23.852-65.818 23.986-66.052.045-.078 16.277 27.946 39.347 67.931 21.598 37.436 39.406 68.301 39.571 68.59l.301.526-73.41-.009-73.41-.009 44.484-7.858zm281.52-6.645c-11.175-.716-17.674-7.08-19.396-18.99-.458-3.168-.46-3.25-.507-23.818l-.045-19.907h9.891l.039 19.255c.035 17.354.057 19.389.223 20.61.673 4.954 2.014 8.286 4.296 10.677 1.827 1.914 3.965 3.035 6.925 3.63 1.396.28 5.369.28 6.642 0 3-.66 5.406-1.966 7.527-4.086 2.418-2.418 4.207-5.847 5.073-9.726l.292-1.307.032-19.418.033-19.418h10.098v61.051h-9.994v-4.843c0-3.29-.036-4.831-.113-4.806-.062.021-.318.414-.57.873-1.722 3.14-4.591 6.012-7.735 7.743-3.768 2.074-7.548 2.811-12.711 2.48zm113.422-.05c-3.945-.296-8.098-1.652-11.493-3.752-7.155-4.426-11.389-11.721-12.628-21.761-.43-3.474-.481-8.14-.123-11.093.8-6.596 3.392-13.072 7.083-17.694.946-1.186 3.093-3.332 4.278-4.278a26.65 26.65 0 0 1 10.917-5.211c2.316-.507 6.394-.745 8.854-.517 6.18.573 11.844 3.483 15.694 8.063 3.911 4.653 6.06 11.155 6.335 19.16.043 1.255.054 3.455.024 4.89l-.055 2.606-21.645.028-21.645.027v.966c0 2.94.715 6.29 1.95 9.139 1.066 2.457 2.9 5.14 4.403 6.439 3.08 2.662 6.85 4.256 10.974 4.64 1.529.142 5.427-.009 7.17-.276 4.972-.764 9.699-2.714 13.517-5.577.449-.336.879-.65.955-.699.111-.07.138.81.135 4.509l-.003 4.595-1.023.632c-4.319 2.671-9.266 4.386-14.504 5.028-1.564.192-7.3.277-9.17.137zm18.837-38.755c0-4.925-2.075-10.397-5.013-13.214-2.096-2.01-4.63-3.24-7.642-3.706-1.426-.22-4.43-.136-5.932.168-3.176.642-5.804 2.038-8.095 4.303-2.412 2.383-4.22 5.277-5.357 8.575-.41 1.186-.888 3.133-1.036 4.216l-.07.516H501.878zM208.27 131.4c.026-.074 7.376-19.383 16.334-42.909l16.287-42.774H251.358l.434 1.114c1.327 3.402 32.606 84.613 32.606 84.655 0 .028-2.505.05-5.567.05l-5.568-.002-4.508-12.002-4.508-12.003h-36.304l-.158.407c-.087.224-2.013 5.625-4.28 12.002l-4.123 11.594-5.579.002c-4.416.001-5.57-.026-5.533-.134zm52.664-33.031c0-.019-3.034-8.244-6.742-18.277-6.937-18.771-7.325-19.9-7.873-22.914-.257-1.413-.388-1.453-.54-.163-.11.922-.582 2.984-.946 4.128-.181.567-3.305 9.141-6.943 19.053-3.637 9.912-6.613 18.064-6.613 18.115 0 .05 6.673.093 14.828.093 8.156 0 14.829-.016 14.829-.035zm26.832 31.604v-1.563l18.085-24.862 18.085-24.861-16.374-.054-16.374-.055-.029-4.155-.028-4.155h47.366v2.807L320.41 98.07c-9.948 13.748-18.087 25.02-18.087 25.048 0 .028 8.041.052 17.87.052h17.87v8.364h-50.297zm132.712 1.49c-.04-.039-.073-13.824-.073-30.633l.001-30.562h9.885v6.3c0 3.466.043 6.301.094 6.301.052 0 .292-.567.535-1.26 1.111-3.177 3.038-6.146 5.521-8.505 2.237-2.125 4.793-3.396 7.81-3.883.847-.137 1.564-.163 3.259-.118 2.128.055 3.24.21 4.535.634l.407.133v10.26l-1.167-.584c-2.063-1.032-4.099-1.44-6.546-1.314-1.592.083-2.637.288-3.91.765a12.373 12.373 0 0 0-6.23 5.087c-2.148 3.43-3.681 7.837-4.133 11.888-.081.726-.13 6.647-.148 18.319l-.029 17.245h-4.869c-2.678 0-4.902-.032-4.942-.072zM0 131.249c0-.038 10.884-18.932 24.187-41.986l24.187-41.916L76.56 23.69C92.064 10.681 104.789.021 104.84.001c.05-.02-.153.494-.454 1.14-.3.647-14.073 30.19-30.607 65.65L43.72 131.264l-21.86.027C9.838 131.306 0 131.287 0 131.248z"/>
</svg>
