<svg xmlns="http://www.w3.org/2000/svg" viewBox="0 0 511.381 91.186">
  <g fill="#002a41">
    <path d="M103.669 21.89h13.362c6.02 0 10.442 1.023 13.263 3.066 2.821 2.044 4.232 5.132 4.232 9.264 0 2.822-.86 5.171-2.583 7.048-1.721 1.877-4.237 3.083-7.547 3.616v.2c3.887.577 6.748 1.805 8.58 3.682 1.833 1.877 2.75 4.493 2.75 7.848 0 4.487-1.489 7.942-4.466 10.363-2.977 2.422-7.198 3.632-12.663 3.632H103.67zm3.399 21.694h10.73c4.576 0 7.903-.76 9.98-2.283 2.077-1.521 3.116-3.904 3.116-7.147 0-3.244-1.172-5.599-3.516-7.065-2.344-1.466-5.837-2.2-10.48-2.2h-9.83zm0 3V67.61h11.463c9.02 0 13.53-3.665 13.53-10.996 0-6.687-4.755-10.03-14.263-10.03zM169.916 53.415H150.12l-6.798 17.194h-3.765l19.594-48.918h2.166l19.194 48.918h-3.832zm-18.562-3.066h17.429l-6.632-17.562c-.555-1.377-1.222-3.288-2-5.731-.6 2.132-1.254 4.065-1.965 5.798zM208.17 24.257c-6.109 0-10.918 1.955-14.428 5.865-3.51 3.91-5.265 9.263-5.265 16.061 0 6.954 1.655 12.352 4.965 16.196 3.31 3.843 8.042 5.765 14.196 5.765 4.087 0 7.842-.523 11.263-1.567v3c-3.221 1.132-7.242 1.699-12.063 1.699-6.843 0-12.23-2.21-16.162-6.631-3.932-4.421-5.898-10.597-5.898-18.528 0-4.954.938-9.32 2.816-13.096 1.877-3.777 4.576-6.693 8.097-8.748 3.521-2.055 7.615-3.082 12.28-3.082 4.754 0 9.008.888 12.763 2.666l-1.367 3.065c-3.554-1.777-7.286-2.665-11.196-2.665zM262.521 70.61h-4.165L239.66 44.883l-6.498 5.731V70.61h-3.399V21.891h3.4v25.325l5.398-5.398 19.094-19.927h4.332l-19.96 20.593zM269.486 21.89h13.363c6.02 0 10.44 1.023 13.262 3.066 2.822 2.044 4.232 5.132 4.232 9.264 0 2.822-.86 5.171-2.582 7.048-1.722 1.877-4.238 3.083-7.548 3.616v.2c3.888.577 6.748 1.805 8.58 3.682 1.834 1.877 2.75 4.493 2.75 7.848 0 4.487-1.488 7.942-4.465 10.363-2.977 2.422-7.198 3.632-12.663 3.632h-14.93zm3.399 21.694h10.73c4.576 0 7.903-.76 9.98-2.283 2.078-1.521 3.116-3.904 3.116-7.147 0-3.244-1.172-5.599-3.515-7.065-2.344-1.466-5.838-2.2-10.48-2.2h-9.831zm0 3V67.61h11.463c9.02 0 13.53-3.665 13.53-10.996 0-6.687-4.755-10.03-14.263-10.03zM353.228 46.183c0 7.731-1.933 13.846-5.799 18.345-3.865 4.499-9.197 6.748-15.995 6.748-6.776 0-12.096-2.25-15.962-6.748-3.865-4.499-5.798-10.636-5.798-18.411 0-7.753 1.95-13.857 5.848-18.312 3.9-4.454 9.225-6.68 15.979-6.68 6.798 0 12.118 2.237 15.962 6.714 3.843 4.476 5.765 10.591 5.765 18.344zm-39.855 0c0 6.976 1.555 12.369 4.665 16.179 3.11 3.81 7.576 5.715 13.396 5.715 5.865 0 10.347-1.888 13.446-5.665 3.1-3.777 4.649-9.186 4.649-16.229 0-7.02-1.55-12.401-4.649-16.145-3.099-3.743-7.559-5.615-13.38-5.615-5.797 0-10.268 1.889-13.412 5.665-3.143 3.777-4.715 9.142-4.715 16.095zM399.814 70.61h-3.432l-28.859-43.254h-.266c.266 5.154.4 9.041.4 11.663v31.59h-3.266V21.891h3.399l28.825 43.187h.2c-.2-3.999-.3-7.798-.3-11.397v-31.79h3.299zM440.202 70.61h-26.626V21.89h26.626v3.133h-23.227v18.428h21.927v3.132h-21.927v20.894h23.227zM449.799 68.01c0-2.177.889-3.265 2.666-3.265 1.822 0 2.732 1.088 2.732 3.265s-.91 3.266-2.732 3.266c-1.777 0-2.666-1.089-2.666-3.266zM459.563 82.906c-2.044 0-3.721-.3-5.032-.9v-2.932c1.733.444 3.388.666 4.965.666 5.376 0 8.064-2.932 8.064-8.797V21.89h3.4v48.718c0 8.198-3.8 12.297-11.397 12.297zM511.38 58.047c0 4.065-1.493 7.286-4.481 9.663-2.988 2.377-6.96 3.566-11.913 3.566-5.954 0-10.52-.655-13.696-1.966v-3.4c3.51 1.49 7.986 2.234 13.429 2.234 3.999 0 7.17-.917 9.514-2.75 2.344-1.832 3.515-4.237 3.515-7.214 0-1.844-.388-3.371-1.166-4.582-.777-1.21-2.044-2.316-3.799-3.316s-4.332-2.077-7.73-3.232c-4.977-1.71-8.415-3.56-10.314-5.549-1.9-1.988-2.85-4.637-2.85-7.947 0-3.644 1.428-6.615 4.283-8.914 2.854-2.3 6.525-3.45 11.013-3.45 4.576 0 8.875.867 12.896 2.6l-1.233 2.932c-4.043-1.688-7.909-2.532-11.596-2.532-3.6 0-6.465.833-8.598 2.5-2.133 1.665-3.199 3.931-3.199 6.797 0 1.8.328 3.277.983 4.432.655 1.155 1.727 2.194 3.216 3.116 1.488.922 4.043 2.027 7.664 3.316 3.799 1.31 6.654 2.582 8.564 3.815 1.91 1.233 3.305 2.633 4.182 4.199.878 1.566 1.317 3.46 1.317 5.682z"/>
  </g>
  <path fill="#002a41" d="M0 0v49.315L36.707 70.24V56.016L12.15 42.018V20.031L36.707 34.03V20.924z"/>
  <path fill="#0071b5" d="M73.414 0v49.315L36.707 70.24V56.016l24.556-13.998V20.031L36.707 34.03V20.924zM0 91.186V41.87l36.707-20.925V35.17L12.15 49.168v20.868l24.557-13.998v14.223z"/>
  <path fill="#002a41" d="M73.414 91.186V41.87L36.707 20.946V35.17l24.556 13.998v20.868L36.707 56.038v14.223z"/>
</svg>
