<svg xmlns="http://www.w3.org/2000/svg" viewBox="0 0 256 256">
  <path fill="#f99d59" d="M182.564 190.927c-50.831 14.115-101.586-1.981-133.014-35.373-.009.916-.86 3.114-.841 4.152.318 17.691 4.111 51.923 32.552 85.82.662.788 3.959 2.458 4.646 3.244 7.006 2.443 14.281 4.267 21.782 5.467.744-.228 3.814-.382 4.547-.622 39.284-12.87 60.852-43.277 69.84-58.792.624-1.078-.012-2.976.488-3.896"/>
  <path fill="#178dbc" d="M222.555 41.941c-.573-.224-1.769-1.252-2.338-1.467-29.7-11.215-52.817-9.145-69.497-4.313-.232.067-.579.898-.808.966 41.529 30.288 61.09 97.165 32.652 153.8.842-.205 1.553.419 2.48.153 15.586-4.469 43.4-17.884 69.746-58.74.533-.825.639-2.715 1.171-3.562.001-.262.039-.515.039-.778 0-33.183-12.734-63.317-33.445-86.059"/>
  <path fill="#e5d332" d="M82.563 8.453c-28.13 10.701-51.509 30.948-66.112 56.885.007.795-1.006 2.612-.99 3.395 1.028 50.621 20.84 75.867 31.461 85.909.816.771 1.925.314 2.628.912.379-47.009 45.345-109.631 100.362-118.427.081-.393.333-.661-.486-1.335-4.869-4.014-19.315-18.853-61.919-27.171-.997-.194-3.926.009-4.944-.168"/>
  <path fill="#3e7947" d="M149.912 37.127c17.018-4.988 41.973-7.205 72.643 4.814l-.211-.242C198.96 16.111 165.398 0 128 0c-16.025 0-31.299 3.075-45.437 8.453 40.816 7.086 59.932 21.328 67.349 28.674"/>
  <path fill="#e57428" d="M85.907 248.77c-31.97-36.612-36.549-75.698-36.392-92.583 0-.215.035-.443.037-.66l-.002.027c-10.002-8.503-32.595-34.06-33.099-90.216C11.371 75.09 0 100.442 0 128c0 55.863 35.839 103.24 85.744 120.695l.163.075"/>
  <path fill="#4a6f5d" d="M255.961 128.778c-28.404 45.31-58.112 58.429-73.397 62.149-.074.146-.125.296-.198.441-.159.045.158-.044 0 0-7.831 14.42-31.23 49.598-74.677 62.869C114.283 255.333 121.091 256 128 256c70.693 0 128-57.307 128-128 0 .263-.038.516-.039.778"/>
</svg>
