<svg xmlns="http://www.w3.org/2000/svg" viewBox="0 0 255.933 281.881">
  <path fill="#ffc600" d="M133.942 168.588v82.23a31.252 31.252 0 0 0 9.923-3.558l68.042-39.12a32.243 32.243 0 0 0 16.135-27.89v-78.02c0-3.167-.525-6.239-1.435-9.183l-73.95 42.665c-15.205 10.752-18.493 20.931-18.708 32.876"/>
  <path fill="#f6eb61" d="m253.595 77.472-26.988 15.575c.91 2.938 1.428 6.016 1.428 9.17v78.039c0 11.473-6.177 22.164-16.128 27.89l-68.042 39.115a31.293 31.293 0 0 1-9.916 3.563v31.057a38.872 38.872 0 0 0 13.675-4.682l88.36-50.81a39.896 39.896 0 0 0 19.949-34.485V90.568a38.67 38.67 0 0 0-2.338-13.096"/>
  <path fill="#439879" d="M127.744 142.745c4.022-6.568 10.018-12.234 18.634-17.657l74.442-42.954a31.475 31.475 0 0 0-8.913-7.801l-68.042-39.115a32.276 32.276 0 0 0-32.114.014L43.99 74.326c-3.57 2.055-6.561 4.823-9.027 7.976l74.092 42.752c8.664 5.457 14.666 11.123 18.688 17.691"/>
  <path fill="#28cdfb" d="m43.992 74.326 67.759-39.094a32.276 32.276 0 0 1 32.114-.02l68.042 39.127c3.504 2.015 6.468 4.716 8.906 7.795l26.948-15.542a38.932 38.932 0 0 0-11.783-10.51l-88.36-50.809a39.923 39.923 0 0 0-39.707.027L19.907 56.07A39.498 39.498 0 0 0 8.03 66.76l26.927 15.535a31.528 31.528 0 0 1 9.028-7.976"/>
  <path fill="#fdd757" d="m111.75 247.24-67.758-39.094a32.243 32.243 0 0 1-16.101-27.863v-78.087c0-3.072.505-6.063 1.354-8.933L2.243 77.681A38.872 38.872 0 0 0 0 90.528V191.95a39.869 39.869 0 0 0 19.907 34.452l87.997 50.776c4.177 2.398 8.758 3.94 13.635 4.689V250.79a31.192 31.192 0 0 1-9.788-3.55"/>
  <path fill="#ec8b00" d="M102.717 135.631 29.245 93.256c-.85 2.87-1.348 5.861-1.348 8.933v78.087c0 11.466 6.171 22.144 16.101 27.864l67.746 39.1c3.079 1.765 6.393 2.897 9.789 3.537v-82.21c-.216-11.924-3.497-22.103-18.823-32.936"/>
</svg>
