<svg xmlns="http://www.w3.org/2000/svg" viewBox="0 0 255.257 295.32">
  <defs>
    <linearGradient id="a" x1="64.727" x2="64.727" y1="42.452" y2="215.82" gradientTransform="scale(.99637 1.00364)" gradientUnits="userSpaceOnUse">
      <stop offset="0%" stop-color="#0052CC"/>
      <stop offset="100%" stop-color="#2684FF"/>
    </linearGradient>
    <linearGradient id="b" x1="63.517" x2="63.517" y1="42.856" y2="217.877" gradientTransform="scale(1.00587 .99417)" gradientUnits="userSpaceOnUse">
      <stop offset="0%" stop-color="#0052CC"/>
      <stop offset="100%" stop-color="#2684FF"/>
    </linearGradient>
  </defs>
  <path fill="#2684ff" d="M247.206 167.862h-61.4a8.031 8.031 0 0 0-8.032 6.827c-3.487 24.952-24.84 43.512-50.035 43.49l16.625 75.937c60.232-7.87 106.592-57.067 110.873-117.66a8.031 8.031 0 0 0-8.031-8.594zM140.95 165.935l88.346-75.937a8.031 8.031 0 0 0 0-12.047L140.95 1.894a8.031 8.031 0 0 0-13.212 6.104V159.83a8.031 8.031 0 0 0 13.212 6.104z"/>
  <path fill="url(#a)" d="M1.205 184.48c8.45 63.437 62.537 110.83 126.534 110.874v-77.142c-27.809 0-50.37-22.508-50.437-50.316z" style="fill:url(#a)" transform="translate(0 -.033)"/>
  <path fill="url(#b)" d="M0 166.691v1.205h77.302c.066-27.809 22.628-50.317 50.437-50.317l-16.585-75.936C48.145 49.853.767 103.153 0 166.69" style="fill:url(#b)" transform="translate(0 -.033)"/>
</svg>
