<svg xmlns="http://www.w3.org/2000/svg" viewBox="0 0 255 212.525">
  <path fill="#b6deff" d="M127.505 0C58.865 0 5.088 87.33 0 161.09c21.54 37.383 73.482 51.435 127.505 51.435 54.02 0 105.966-14.052 127.495-51.436C249.912 87.33 196.143 0 127.505 0"/>
  <path fill="#6c6" d="M237.065 143.52s-15.16-32.776-30.57-51.898c-15.42-19.13-34.25-39.96-45.385-39.96-11.127 0-42.235 55.078-56.506 55.078-14.274 0-21.692-24.968-39.242-24.968-17.556 0-45.448 60.209-45.448 60.209l-1.889 10.207s9.69 42.961 111.064 42.961c101.378 0 109.48-42.256 109.48-42.256l-1.504-9.374"/>
  <path fill="#17ad49" d="M106.191 130.245c-15.743 0-23.814-15.534-28.19-25.123-3.935-8.638-4.616-22.276-15.782-22.658 1.098-.435 2.154-.692 3.143-.692 17.55 0 24.968 24.968 39.242 24.968 14.27 0 45.379-55.079 56.506-55.079 2.098 0 4.46.74 7.023 2.056-1.897-.25-4.328-.076-6.2 1.803-3.598 3.598-36.251 74.725-55.742 74.725"/>
</svg>
