<svg xmlns="http://www.w3.org/2000/svg" viewBox="0 0 511.66 215.419">
  <path fill="#fff" d="M175.374 43.99 107.371 3.615a25.614 25.614 0 0 0-26.24 0L13.114 43.99A27.126 27.126 0 0 0 0 67.357v80.735a27.126 27.126 0 0 0 13.114 23.353l68.003 40.361a25.627 25.627 0 0 0 26.24 0l68.004-40.36a27.126 27.126 0 0 0 13.127-23.368V67.357a27.126 27.126 0 0 0-13.114-23.367z"/>
  <path fill="#2f3a3e" d="M175.374 43.99 107.371 3.615a25.614 25.614 0 0 0-26.24 0L13.114 43.99A27.126 27.126 0 0 0 0 67.357v80.735a27.126 27.126 0 0 0 13.114 23.353l68.003 40.361a25.627 25.627 0 0 0 26.24 0l68.004-40.36a27.126 27.126 0 0 0 13.127-23.368V67.357a27.126 27.126 0 0 0-13.114-23.367zM83.5 207.68l-68.003-40.36a22.387 22.387 0 0 1-10.785-19.228V67.357a22.373 22.373 0 0 1 10.785-19.228L83.5 7.755a20.97 20.97 0 0 1 21.488 0l67.949 40.374A22.237 22.237 0 0 1 183.38 63.68c-2.26-4.807-7.34-6.128-13.263-2.723l-64.286 39.816c-8.02 4.67-13.93 9.94-13.944 19.608v79.279c0 5.787 2.329 9.532 5.924 10.635-1.177.215-2.371.33-3.568.34A21.068 21.068 0 0 1 83.5 207.68z"/>
  <path fill="#3ab14a" d="m157.55 155.895-16.94 10.13a1.24 1.24 0 0 0-.776 1.104v4.452c0 .545.368.763.817.504l17.198-10.458c.421-.315.623-.846.518-1.361v-3.909c-.014-.503-.409-.721-.817-.462z"/>
  <path fill="#fff" d="M121.492 118.597c.544-.272.994 0 1.007.777l.055 5.91a10.894 10.894 0 0 1 6.509-.79c.422.109.599.68.436 1.361l-1.294 5.188c-.098.392-.3.75-.586 1.035-.1.1-.214.182-.34.245a.776.776 0 0 1-.504.082 8.633 8.633 0 0 0-6.277 1.008 7.884 7.884 0 0 0-4.644 6.985c0 2.724 1.362 3.473 6.114 3.554 6.278.11 9.001 2.846 9.07 9.178a22.509 22.509 0 0 1-8.334 16.98l.109 5.802a2.125 2.125 0 0 1-.994 1.77l-3.432 1.974c-.545.273-.994 0-1.008-.762v-5.706c-2.94 1.226-5.923 1.512-7.83.75-.353-.137-.517-.668-.367-1.28l1.24-5.243c.093-.415.306-.794.612-1.09.097-.093.207-.17.327-.231a.68.68 0 0 1 .558 0 9.532 9.532 0 0 0 7.203-.913 9.423 9.423 0 0 0 5.325-8.17c0-2.941-1.62-4.167-5.447-4.194-4.943 0-9.532-.953-9.627-8.17a21.106 21.106 0 0 1 7.98-16.15l-.246-5.937c-.002-.73.374-1.41.994-1.797z"/>
  <path fill="#2f3a3e" d="M390.646 61.352a40.415 40.415 0 0 1 24.442.34 35.908 35.908 0 0 1 10.894 5.869 29.63 29.63 0 0 1 7.707 9.273 27.003 27.003 0 0 1 3.078 12.255 3.186 3.186 0 0 1-.98 2.356 3.527 3.527 0 0 1-2.452.98h-11.942a3.39 3.39 0 0 1-3.418-2.859 20.262 20.262 0 0 0-1.675-5.923 13.78 13.78 0 0 0-3.09-4.276 13.617 13.617 0 0 0-4.535-2.724 19.908 19.908 0 0 0-11.724-.245 14.42 14.42 0 0 0-4.562 2.152 10.267 10.267 0 0 0-3.01 3.363 9.082 9.082 0 0 0-1.075 4.562 7.421 7.421 0 0 0 1.361 4.466 13.753 13.753 0 0 0 3.977 3.527 30.352 30.352 0 0 0 5.8 2.724 153.31 153.31 0 0 0 6.414 2.042 114.17 114.17 0 0 1 7.095 2.383 62.788 62.788 0 0 1 7.067 3.146 46.067 46.067 0 0 1 6.454 4.085 29.454 29.454 0 0 1 5.447 5.365 24.647 24.647 0 0 1 3.8 6.686 23.844 23.844 0 0 1 1.36 8.17 22.032 22.032 0 0 1-3.213 11.901 27.384 27.384 0 0 1-8.047 8.266 36.358 36.358 0 0 1-10.894 4.834 45.917 45.917 0 0 1-11.874 1.58 44.326 44.326 0 0 1-13.004-1.948 38.59 38.59 0 0 1-11.507-5.692 30.938 30.938 0 0 1-8.415-9.232 25.872 25.872 0 0 1-3.527-12.61c-.023-.89.328-1.749.967-2.369a3.527 3.527 0 0 1 2.465-.994h11.887a3.39 3.39 0 0 1 3.418 2.846 17.253 17.253 0 0 0 1.947 6.087 14.557 14.557 0 0 0 3.69 4.344 15.918 15.918 0 0 0 5.243 2.723 24.728 24.728 0 0 0 12.678.245 15.129 15.129 0 0 0 4.78-2.029 10.744 10.744 0 0 0 3.226-3.295 8.252 8.252 0 0 0 1.144-4.507 8.388 8.388 0 0 0-1.361-4.943 13.263 13.263 0 0 0-4.017-3.759 29.631 29.631 0 0 0-5.924-2.805c-2.36-.826-4.63-1.57-6.808-2.233-3.364-.98-6.74-2.26-10.172-3.704a46.993 46.993 0 0 1-9.845-5.555 29.821 29.821 0 0 1-7.585-8.157 21.188 21.188 0 0 1-3.091-11.452 22.59 22.59 0 0 1 3.05-11.642 27.915 27.915 0 0 1 7.735-8.47 35.023 35.023 0 0 1 10.62-5.147zm-60.95-.437a3.42 3.42 0 0 1 3.282 2.275l28.963 87.026a3.146 3.146 0 0 1-.504 2.928 3.502 3.502 0 0 1-2.723 1.362h-11.56a3.419 3.419 0 0 1-3.296-2.315l-6.482-20.222h-25.464l-6.604 20.235a3.433 3.433 0 0 1-3.282 2.302h-11.629a3.502 3.502 0 0 1-2.723-1.362 3.132 3.132 0 0 1-.49-2.928l29.549-87.04a3.433 3.433 0 0 1 3.268-2.26zm130.131.001a3.364 3.364 0 0 1 3.261 3.268v34.151h30.652V64.184a3.363 3.363 0 0 1 3.445-3.268h11.187a3.364 3.364 0 0 1 3.261 3.268v87.04a3.363 3.363 0 0 1-3.445 3.268h-11.187a3.364 3.364 0 0 1-3.26-3.268v-36.957h-30.653v36.957a3.363 3.363 0 0 1-3.445 3.268h-11.078a3.364 3.364 0 0 1-3.26-3.268v-87.04a3.363 3.363 0 0 1 3.445-3.268zm-213.767-.014c4.026.038 8.034.545 11.942 1.512a34.11 34.11 0 0 1 10.717 4.643 24.742 24.742 0 0 1 7.775 8.28 23.367 23.367 0 0 1 2.874 12.064 20.535 20.535 0 0 1-4.957 13.304 24.143 24.143 0 0 1-4.93 4.357l.872.518a24.797 24.797 0 0 1 6.073 5.27 23.585 23.585 0 0 1 4.017 6.944 24.102 24.102 0 0 1 1.362 8.306 25 25 0 0 1-2.832 12.256 26.934 26.934 0 0 1-7.667 8.878 35.01 35.01 0 0 1-10.784 5.352 43.997 43.997 0 0 1-12.365 1.892h-29.515a3.364 3.364 0 0 1-3.26-3.268V64.17a3.363 3.363 0 0 1 3.444-3.268zm2.914 52.889h-14.978v24.783h14.46a19.064 19.064 0 0 0 5.76-.98 15.946 15.946 0 0 0 4.753-2.52 11.18 11.18 0 0 0 3.091-3.758 10.989 10.989 0 0 0 1.13-5.08c.076-1.8-.265-3.594-.994-5.242a10.812 10.812 0 0 0-2.873-3.745 13.617 13.617 0 0 0-4.466-2.45 20.535 20.535 0 0 0-5.883-1.008zm75.874-21.379-7.57 23.34h14.978zm-78.488-15.51h-12.405V98.05h12.773a20.425 20.425 0 0 0 5.446-.844 14.979 14.979 0 0 0 4.535-2.179 10.69 10.69 0 0 0 3.036-3.322 8.442 8.442 0 0 0 1.035-4.398 9.273 9.273 0 0 0-1.062-4.644 9.014 9.014 0 0 0-2.9-3.09 14.339 14.339 0 0 0-4.603-1.935 27.234 27.234 0 0 0-5.855-.735zM292.494 169.416c.422.554.736 1.182.926 1.852.208.712.314 1.45.313 2.192l-.013 1.648c0 .742-.105 1.48-.313 2.192a5.665 5.665 0 0 1-.913 1.852 4.494 4.494 0 0 1-1.525 1.28 4.616 4.616 0 0 1-2.151.477 4.344 4.344 0 0 1-3.622-1.757 5.692 5.692 0 0 1-.9-1.852 7.803 7.803 0 0 1-.299-2.192v-1.648c0-.497.045-.994.136-1.484a6.81 6.81 0 0 1 .395-1.361c.175-.42.4-.818.668-1.185.257-.36.57-.677.926-.94a4.33 4.33 0 0 1 1.211-.613c.48-.15.982-.223 1.485-.217a4.453 4.453 0 0 1 3.676 1.756zm160.26-1.743a5.732 5.732 0 0 1 1.824.286 4.78 4.78 0 0 1 1.484.804c.418.338.762.76 1.008 1.239.25.494.38 1.04.38 1.593h-2.232a2.955 2.955 0 0 0-.218-.885c-.113-.264-.28-.5-.49-.695a2.138 2.138 0 0 0-.763-.449 3.077 3.077 0 0 0-1.035-.163 3.378 3.378 0 0 0-.926.122c-.266.076-.515.2-.735.368a1.73 1.73 0 0 0-.49.572 1.62 1.62 0 0 0-.177.762c0 .278.086.549.245.776.17.234.382.433.626.586.282.179.584.325.899.436.336.118.69.227 1.062.327.554.154 1.096.35 1.62.585.49.218.949.502 1.362.844.379.314.693.698.926 1.13.236.46.353.97.34 1.485.011.529-.12 1.05-.38 1.511-.255.44-.604.816-1.022 1.103a4.793 4.793 0 0 1-1.484.667 6.813 6.813 0 0 1-1.77.232 6.701 6.701 0 0 1-1.24-.109 5.827 5.827 0 0 1-1.17-.34 5.202 5.202 0 0 1-1.05-.572 4.153 4.153 0 0 1-.843-.79 3.54 3.54 0 0 1-.777-2.22h2.247c.023.355.116.702.273 1.022.143.282.347.529.599.721a2.6 2.6 0 0 0 .871.436c.359.102.73.153 1.103.15.317.003.632-.033.94-.11.272-.067.53-.182.762-.34.213-.144.39-.335.518-.558.125-.243.181-.516.163-.79a1.593 1.593 0 0 0-.204-.803 1.988 1.988 0 0 0-.572-.613 3.935 3.935 0 0 0-.872-.463 9.807 9.807 0 0 0-1.103-.367 12.962 12.962 0 0 1-1.58-.545 6.182 6.182 0 0 1-1.36-.803 3.963 3.963 0 0 1-.995-1.103 2.805 2.805 0 0 1-.381-1.471 2.956 2.956 0 0 1 .381-1.498c.253-.44.596-.82 1.008-1.117a4.793 4.793 0 0 1 1.47-.708 6.2 6.2 0 0 1 1.757-.245zm-68.4-.027a6.025 6.025 0 0 1 1.88.272c.5.173.963.441 1.362.79.399.351.72.783.94 1.267a5.08 5.08 0 0 1 .435 1.66h-2.192a4.006 4.006 0 0 0-.26-.939 2.165 2.165 0 0 0-.476-.708 2.002 2.002 0 0 0-.721-.45 2.9 2.9 0 0 0-1.008-.149c-.427-.013-.85.1-1.212.327a2.723 2.723 0 0 0-.844.899c-.24.422-.405.883-.49 1.361a7.748 7.748 0 0 0-.164 1.553v1.606c.006.518.065 1.034.177 1.54.09.48.265.942.518 1.36.224.367.532.675.898.9a2.56 2.56 0 0 0 1.362.34h.654c.216-.024.43-.065.64-.123a2.9 2.9 0 0 0 .558-.231c.157-.086.296-.201.408-.34v-2.574h-2.45v-1.648h4.643l.068 4.753c-.239.27-.509.513-.804.721-.327.23-.678.421-1.048.572a6.604 6.604 0 0 1-1.253.368 7.45 7.45 0 0 1-1.443.136 4.93 4.93 0 0 1-2.165-.45 4.602 4.602 0 0 1-1.594-1.239 5.515 5.515 0 0 1-.994-1.851 7.64 7.64 0 0 1-.354-2.288v-1.593a7.537 7.537 0 0 1 .34-2.288c.205-.672.533-1.3.968-1.852a4.507 4.507 0 0 1 3.622-1.702zm-84.139.136v8.633c.004.37.059.736.164 1.09.085.31.228.6.422.858.185.237.422.428.694.558.303.14.633.21.967.204.342.006.682-.064.994-.204.28-.127.528-.318.722-.558.2-.255.348-.547.435-.858.104-.354.159-.72.164-1.09v-8.633l2.206.055v8.633c0 .62-.115 1.234-.34 1.81-.21.512-.52.975-.913 1.363-.387.39-.85.695-1.362.898a5.188 5.188 0 0 1-1.865.314 4.997 4.997 0 0 1-1.825-.314 3.963 3.963 0 0 1-2.315-2.3 4.984 4.984 0 0 1-.34-1.826v-8.633zm184.061.082v1.756h-6.468v3.636h5.597v1.689h-5.583v4.085h6.523v1.73h-8.77v-12.896zm-231.83 0v1.756h-6.467v3.636h5.583v1.689h-5.583v4.085h6.522v1.73h-8.756v-12.896zm95.456 0v1.756h-6.468v3.636h5.583v1.689h-5.583v4.085h6.522v1.73h-8.755v-12.896zm-72.688-.041a8.186 8.186 0 0 1 1.825.218c.528.119 1.03.331 1.484.626.42.275.767.65 1.008 1.09.253.482.375 1.022.354 1.566a2.546 2.546 0 0 1-.558 1.634 3.54 3.54 0 0 1-1.485 1.048c.357.093.696.24 1.008.436.283.177.532.403.735.667a2.982 2.982 0 0 1 .627 1.866 3.527 3.527 0 0 1-.354 1.62 3.309 3.309 0 0 1-.98 1.171c-.448.325-.951.565-1.485.708a6.93 6.93 0 0 1-1.852.259l-4.657-.014v-12.895zm123.86.014 4.317 12.895h-2.3l-.9-2.996h-4.235l-.925 2.996h-2.315l4.398-12.895zm16.545 0v1.756h-2.927v9.382h2.927v1.757h-8.06v-1.757h2.872v-9.382h-2.873v-1.756zm-43.874 0 4.317 12.895h-2.301l-.845-2.996h-4.234l-.926 2.996h-2.315l4.398-12.895zm133.447-.014v11.166h6.468v1.73h-8.701v-12.896zm-13.617 0v11.166h6.468v1.73h-8.701v-12.896zm-175.455-.027a7.41 7.41 0 0 1 1.92.259 4.48 4.48 0 0 1 1.525.721c.424.318.765.734.994 1.212a3.84 3.84 0 0 1 .354 1.702c.006.402-.054.802-.177 1.185a3.432 3.432 0 0 1-.504.967c-.219.291-.48.548-.776.762a4.983 4.983 0 0 1-1.008.559l2.874 5.446v.11h-2.383l-2.588-5.053h-2.274v5.025h-2.246v-12.895zm106.907.027 4.398 8.851v-8.851h2.26l-.013 12.895h-2.247l-4.411-8.864v8.864h-2.247v-12.895zm-95.482 0 4.398 8.851v-8.851h2.26v12.895h-2.247l-4.411-8.864v8.864h-2.26v-12.895zm136.238 0v5.447h4.643v-5.447h2.179l-.014 12.895h-2.165v-5.76h-4.63v5.76h-2.178v-12.895zm-237.78 0-.055 1.757h-4.167v11.138h-2.22V169.58h-4.085v-1.757zm5.964 0v5.447h4.616v-5.447h2.179v12.895h-2.18v-5.76h-4.615v5.76h-2.165v-12.895zm56.85 1.634a2.138 2.138 0 0 0-1.252.354 2.52 2.52 0 0 0-.79.912 4.208 4.208 0 0 0-.408 1.28c-.078.478-.118.96-.123 1.444v1.661c.008.484.054.967.136 1.444.07.445.208.876.409 1.28.184.367.455.685.79.925.37.247.808.37 1.252.355.449.015.891-.109 1.267-.355.34-.242.619-.558.817-.925.213-.4.36-.833.436-1.28.084-.477.13-.96.136-1.444l-.014-1.661a8.64 8.64 0 0 0-.136-1.444 4.22 4.22 0 0 0-.436-1.28 2.628 2.628 0 0 0-.817-.912 2.192 2.192 0 0 0-1.266-.354zm-13.14 5.406-2.546.014v4.085h2.437c.328-.001.654-.051.967-.15.273-.09.526-.228.75-.409.211-.169.383-.383.503-.626.122-.26.183-.544.177-.83a2.252 2.252 0 0 0-.163-.872 1.757 1.757 0 0 0-.45-.654 2.084 2.084 0 0 0-.721-.408 3.147 3.147 0 0 0-.954-.15zm85.42-.64v1.702h-7.462v-1.702zm9.722-3.35-1.566 5.052h3.105zm27.275 0-1.566 5.052h3.105zm-81.96-1.348h-2.043l-.014 4.426h2.057c.346.003.69-.048 1.02-.15.293-.094.566-.242.804-.436a1.92 1.92 0 0 0 .531-.68c.13-.292.195-.608.19-.927a2.42 2.42 0 0 0-.176-.953 1.88 1.88 0 0 0-.504-.694 2.233 2.233 0 0 0-.803-.436c-.346-.1-.703-.15-1.062-.15zm-40.879.068h-2.124v3.663h2.138c.317 0 .633-.041.94-.122.269-.07.523-.19.748-.354.209-.151.38-.347.504-.572a1.62 1.62 0 0 0 .19-.776 1.827 1.827 0 0 0-.176-.831 1.539 1.539 0 0 0-.504-.572 2.247 2.247 0 0 0-.763-.327 4.59 4.59 0 0 0-.953-.109z"/>
</svg>
