<svg xmlns="http://www.w3.org/2000/svg" viewBox="0 0 256 256">
  <rect width="256" height="256" fill="#1a293b" rx="13"/>
  <path fill="#fff" d="M88.96 163.847V58.88H105v38.9c6.818-8.773 15.54-13.134 26.268-13.134 10.727 0 19.45 3.91 25.765 11.68 6.317 7.77 9.725 17.494 9.725 29.174s-3.408 21.404-9.725 29.174c-6.316 7.77-15.088 11.68-25.765 11.68-10.677 0-19.45-4.361-26.267-13.134V164.4H88.96zM105 125.45c0 7.77 1.956 13.634 5.816 18.447 4.36 4.862 9.724 7.268 16.993 7.268 6.817 0 12.632-2.406 16.04-7.268 3.91-4.863 5.816-11.179 5.816-18.447 0-7.269-1.955-13.635-5.364-18.447-3.91-4.863-9.224-7.269-16.04-7.269-7.27 0-12.633 2.406-16.543 7.269-4.762 4.862-6.717 10.677-6.717 18.447z"/>
  <path fill="#53b6e4" d="M88.96 182.4h78.08v15.36H88.96z"/>
</svg>
