<svg xmlns="http://www.w3.org/2000/svg" viewBox="0 0 240 234">
  <defs>
    <style>
      .cls-2{fill:#fff}
    </style>
  </defs>
  <path d="M42.5 0h155A42.46 42.46 0 0 1 240 42.5v149a42.46 42.46 0 0 1-42.5 42.5h-155A42.46 42.46 0 0 1 0 191.5v-149A42.46 42.46 0 0 1 42.5 0z" style="fill:#000b1d"/>
  <path d="M42.4 163.9V61.7c0-1 .3-1.5 1-1.6 1.8-.1 4.6-.2 8.4-.2 3.8 0 7.8-.1 12.2-.2 4.4-.1 8.4-.1 12.1-.1 8.8 0 15.8 1 21 2.9a31.48 31.48 0 0 1 12 7.3 22.78 22.78 0 0 1 5.6 9.3 29.58 29.58 0 0 1 1.4 8.9 25.14 25.14 0 0 1-1.6 9.4 21.9 21.9 0 0 1-3.9 6.8 18.12 18.12 0 0 1-4.3 4 34.66 34.66 0 0 1 6.4 4.4 24.76 24.76 0 0 1 6 8 27.92 27.92 0 0 1 2.6 12.4 28.5 28.5 0 0 1-5.4 17.1 34.41 34.41 0 0 1-15.5 11.5c-6.7 2.7-14.7 4.1-24.1 4.1H65.7c-3.4 0-6.5 0-9.3-.1-2.8-.1-5.3-.1-7.4-.2-2.1-.1-3.9-.1-5.4-.1-.8 0-1.2-.5-1.2-1.4zm21.7-85.1v22.4H75c2.9 0 5.7.1 8.5.2a30.52 30.52 0 0 1 6 .6 16.12 16.12 0 0 0 3.5-4.3 14.22 14.22 0 0 0 1.4-6.4 11.4 11.4 0 0 0-2.1-7.1 13 13 0 0 0-6-4.1 31.62 31.62 0 0 0-10.1-1.4h-4.7c-1.4 0-2.7 0-3.8.1-1.1-.1-2.3 0-3.6 0zm0 41.3v26.6c1.8.1 3.6.2 5.5.2s4 .1 6.6.1a42.13 42.13 0 0 0 11.7-1.4 15.19 15.19 0 0 0 7.6-4.5 11.51 11.51 0 0 0 2.6-7.6 13.64 13.64 0 0 0-2.1-7.6c-1.4-2.1-4-3.7-7.7-4.7a33.92 33.92 0 0 0-4.4-.8 58.28 58.28 0 0 0-5.9-.3zM186 131.3h-31.7a20.34 20.34 0 0 0 3.1 8.5 15.86 15.86 0 0 0 7.3 6 30.86 30.86 0 0 0 12.8 2.3 60 60 0 0 0 10.4-.9 44.19 44.19 0 0 0 9.4-2.8c.5-.4.8-.2.8.8v15.3a5 5 0 0 1-.2 1.2 2.34 2.34 0 0 1-.7.7 46.28 46.28 0 0 1-10.5 3.5 67.55 67.55 0 0 1-14.2 1.2c-7.6 0-14-1.2-19.2-3.5a33.67 33.67 0 0 1-12.6-9.5 36.7 36.7 0 0 1-6.9-13.1 51.81 51.81 0 0 1 .4-30.5 40.81 40.81 0 0 1 7.5-13.7 36.24 36.24 0 0 1 12.1-9.5 38.54 38.54 0 0 1 16.7-3.5 36.12 36.12 0 0 1 15.5 3.1 27.53 27.53 0 0 1 10.5 8.3 36.61 36.61 0 0 1 6 11.4 39.33 39.33 0 0 1 1.9 12.2c0 2.4-.1 4.5-.2 6.4-.1 1.9-.3 3.3-.4 4.2a1.49 1.49 0 0 1-1.4 1.3c-.6 0-1.7.1-3.3.2a47.33 47.33 0 0 1-5.8.3c-2.3 0-4.7.1-7.3.1zm-31.7-15.7h21.1c2.6 0 4.5 0 5.7-.1a16.41 16.41 0 0 0 2.3-.2v-1a11.48 11.48 0 0 0-.6-3.7 13.24 13.24 0 0 0-13-9.2 14.08 14.08 0 0 0-13.3 7.6 19.78 19.78 0 0 0-2.2 6.6z" class="cls-2"/>
</svg>
