<svg xmlns="http://www.w3.org/2000/svg" viewBox="0 0 511.937 94.734">
  <g fill="#0a0b09">
    <path d="M42.323 77.153c2.02 0 3.937-.18 5.741-.583 1.83-.402 3.454-1.034 4.824-1.973 1.37-.9 2.503-2.137 3.33-3.711.826-1.558 1.221-3.581 1.221-6.028 0-4.792-1.349-8.195-4.029-10.261-2.687-2.038-6.27-3.051-10.677-3.051h-22.26v25.607zm-1.13-39.583c3.626 0 6.628-.861 9.008-2.61 2.355-1.715 3.499-4.558 3.499-8.456 0-2.161-.381-3.951-1.144-5.339-.788-1.388-1.833-2.475-3.153-3.234-1.31-.791-2.79-1.339-4.51-1.632-1.684-.332-3.453-.459-5.264-.459H20.473v21.73zM43.841 0c4.446 0 8.46.385 12.13 1.18 3.647.773 6.761 2.065 9.392 3.838 2.592 1.769 4.619 4.124 6.07 7.09 1.416 2.924 2.129 6.582 2.129 10.91 0 4.683-1.063 8.592-3.188 11.717-2.14 3.121-5.286 5.681-9.488 7.67 5.723 1.645 9.96 4.544 12.771 8.66 2.825 4.146 4.206 9.11 4.206 14.927 0 4.717-.904 8.774-2.705 12.189-1.822 3.457-4.3 6.26-7.355 8.421-3.08 2.182-6.617 3.782-10.58 4.824A47.21 47.21 0 0 1 45.07 92.99H0V0zM128.3 41.468c-2.2-2.432-5.921-3.75-10.462-3.75-2.956 0-5.403.498-7.359 1.512-1.914 1-3.485 2.246-4.682 3.71-1.194 1.491-2.01 3.062-2.482 4.743-.474 1.638-.756 3.125-.844 4.439h30.091c-.441-4.718-2.055-8.203-4.262-10.654zm-21.25 35.374c2.769 2.705 6.773 4.068 11.96 4.068 3.729 0 6.953-.943 9.657-2.825 2.68-1.875 4.312-3.884 4.944-5.967h16.285c-2.617 8.104-6.589 13.89-12.01 17.373-5.352 3.499-11.885 5.243-19.494 5.243-5.304 0-10.078-.861-14.36-2.55-4.284-1.712-7.864-4.113-10.876-7.241-2.935-3.143-5.212-6.858-6.836-11.219-1.607-4.34-2.42-9.145-2.42-14.353 0-5.035.845-9.739 2.487-14.085 1.68-4.361 4-8.125 7.051-11.282 3.062-3.175 6.688-5.678 10.911-7.507 4.227-1.826 8.884-2.74 14.043-2.74 5.696 0 10.685 1.094 14.961 3.33 4.262 2.2 7.754 5.183 10.501 8.919 2.744 3.732 4.697 7.998 5.918 12.779 1.208 4.777 1.635 9.767 1.286 14.993H102.47c0 5.32 1.8 10.36 4.58 13.064zM177.325 0v35.063h.424c2.348-3.902 5.317-6.737 8.969-8.495 3.644-1.773 7.2-2.649 10.663-2.649 4.94 0 8.987.65 12.147 1.988 3.164 1.363 5.667 3.206 7.5 5.604 1.797 2.387 3.068 5.3 3.813 8.732.731 3.425 1.11 7.204 1.11 11.37V92.99h-18.585V54.97c0-5.544-.865-9.71-2.588-12.436-1.727-2.73-4.791-4.1-9.212-4.1-5 0-8.616 1.515-10.855 4.506-2.28 2.99-3.386 7.913-3.386 14.763V92.99h-18.577V0h18.577M271.554 61.712c-1.15.381-2.426.703-3.74.982a67.86 67.86 0 0 1-4.24.65 78.226 78.226 0 0 0-4.403.638c-1.384.272-2.768.611-4.086 1.053-1.341.437-2.517 1.02-3.485 1.755a8.5 8.5 0 0 0-2.411 2.796c-.594 1.123-.911 2.581-.911 4.304 0 1.646.317 3.034.91 4.174.612 1.13 1.41 2.013 2.458 2.666 1.045.653 2.27 1.112 3.634 1.367 1.384.275 2.814.377 4.28.377 3.636 0 6.44-.603 8.438-1.815 1.988-1.218 3.486-2.673 4.421-4.367.954-1.695 1.53-3.404 1.716-5.128.244-1.733.353-3.132.353-4.18v-6.918c-.801.71-1.744 1.257-2.934 1.646zm-36.401-26.2a21.832 21.832 0 0 1 7.26-6.918c2.952-1.751 6.25-2.983 9.957-3.721a55.014 55.014 0 0 1 11.137-1.116c3.372 0 6.783.233 10.296.713 3.457.477 6.618 1.412 9.485 2.807 2.864 1.402 5.198 3.32 7.005 5.823 1.833 2.44 2.762 5.745 2.762 9.84v35.092c0 3.051.183 5.95.508 8.726.367 2.8 1.317 4.9 2.214 6.278l-18.89-.046c-.555-.805-1.014-2.066-1.23-3.164a26.429 26.429 0 0 1-.455-3.312c-2.942 3.044-6.391 5.183-10.41 6.405a42.01 42.01 0 0 1-12.224 1.815c-3.2 0-6.18-.406-8.969-1.19-2.747-.784-5.187-1.998-7.267-3.64-2.09-1.674-3.697-3.75-4.87-6.264-1.164-2.529-1.765-5.537-1.765-9.012 0-3.834.689-6.991 2.048-9.463 1.324-2.471 3.044-4.46 5.194-5.932 2.116-1.483 4.545-2.599 7.296-3.326a77.883 77.883 0 0 1 8.237-1.77c2.786-.426 5.498-.772 8.207-1.04 2.715-.266 5.067-.643 7.168-1.173 2.072-.516 3.732-1.3 4.95-2.292 1.197-.996 1.773-2.443 1.691-4.371 0-1.992-.353-3.58-.992-4.767a7.253 7.253 0 0 0-2.574-2.726c-1.09-.657-2.32-1.088-3.736-1.317a32.004 32.004 0 0 0-4.594-.325c-3.619 0-6.483.805-8.513 2.352-2.087 1.592-3.287 4.212-3.658 7.87h-18.552c.268-4.368 1.342-7.973 3.284-10.836zM320.791 25.678v9.385h.413c2.341-3.902 5.36-6.737 9.11-8.495 3.718-1.773 7.57-2.649 11.476-2.649 4.961 0 9.032.65 12.179 1.988 3.202 1.363 5.692 3.206 7.496 5.604 1.85 2.387 3.121 5.3 3.863 8.732.748 3.425 1.12 7.204 1.12 11.37V92.99h-18.592V54.97c0-5.544-.872-9.71-2.606-12.436-1.758-2.73-4.791-4.481-9.244-4.481-5.032 0-8.697 1.896-10.95 4.887-2.266 2.99-3.39 7.913-3.39 14.763V92.99h-18.389V25.678h17.514M407.598 37.719c-2.973 0-5.427.656-7.401 2.02a16 16 0 0 0-4.919 5.218c-1.26 2.122-2.133 4.47-2.673 7.041-.505 2.567-.787 5.11-.787 7.638 0 2.443.282 4.918.787 7.447.54 2.514 1.37 4.784 2.542 6.853a15.042 15.042 0 0 0 4.77 5.01c1.989 1.31 4.408 1.964 7.278 1.964 4.453 0 7.864-1.243 10.254-3.704 2.38-2.475 3.853-5.801 4.474-9.968h17.86c-1.225 8.93-4.7 15.752-10.416 20.455-5.738 4.672-13.086 7.041-22.034 7.041-5.056 0-9.65-.861-13.887-2.55-4.23-1.712-7.822-4.07-10.78-7.114-2.96-3.051-5.255-6.678-6.936-10.894-1.642-4.223-2.468-8.859-2.468-13.89 0-5.212.766-10.068 2.288-14.556 1.515-4.47 3.754-8.343 6.737-11.592 2.956-3.27 6.572-5.812 10.848-7.641 4.258-1.826 9.124-2.74 14.586-2.74 3.998 0 7.836.54 11.543 1.55 3.68 1.031 6.988 2.623 9.89 4.76a25.557 25.557 0 0 1 7.12 7.92c1.804 3.153 2.835 6.931 3.12 11.25H421.26c-1.2-7.684-5.755-11.518-13.661-11.518M98.689 6.24h37.694v9.176H98.689zM489.07 41.468c-2.229-2.432-5.979-3.75-10.463-3.75-2.952 0-5.406.498-7.398 1.512-1.917 1-3.668 2.246-4.844 3.71-1.176 1.491-2.02 3.062-2.51 4.743-.439 1.638-.746 3.125-.827 4.439h30.318c-.495-4.718-2.07-8.203-4.277-10.654zm-21.48 35.374c2.78 2.705 6.974 4.068 12.2 4.068 3.722 0 6.938-.943 9.626-2.825 2.687-1.875 4.353-3.884 4.946-5.967h16.286c-2.603 8.104-6.6 13.89-11.985 17.373-5.374 3.499-11.878 5.243-19.516 5.243-5.317 0-10.11-.861-14.36-2.55-4.277-1.712-7.86-4.113-10.858-7.241-2.966-3.143-5.24-6.858-6.858-11.219-1.606-4.34-2.404-9.145-2.404-14.353 0-5.035.826-9.739 2.471-14.085 1.667-4.361 4.036-8.125 7.07-11.282 3.075-3.175 6.67-5.678 10.882-7.507 4.23-1.826 8.927-2.74 14.057-2.74 5.689 0 10.7 1.094 14.933 3.33 4.273 2.2 7.782 5.183 10.508 8.919 2.744 3.732 4.718 7.998 5.929 12.779 1.193 4.777 1.652 9.767 1.31 14.993h-48.799c0 5.32 1.776 10.36 4.562 13.064z"/>
  </g>
</svg>
