<svg xmlns="http://www.w3.org/2000/svg" viewBox="0 0 255.108 220.749">
  <path fill="#fff" d="M181.094 159.429c-20.79-2.459-31.18-15.497-33.056-18.088-4.126-5.695-8.794-15.871-12.795-25.068-1.208-2.778-5.508-3.292-7.085-3.383l-.59-.014c-.736.007-6.28.146-7.696 3.397-4.008 9.19-8.662 19.359-12.795 25.068-1.875 2.591-12.273 15.636-33.056 18.088-3.619.437-7.446.646-11.412.646-8.676 0-17.254-1.014-24.173-2.75l7.085 28.603 58.93 24.283 21.915 2.647 21.762-2.647 58.93-24.283 6.933-27.986c-6.397 1.341-13.913 2.133-21.505 2.133-3.945 0-7.787-.209-11.392-.646zm-27.971 36.953H99.186v-5.696h24.117v-12.058a140.219 140.219 0 0 1-5.063-.875c-2.334-.445-4.654-.931-6.94-1.57-2.063-.563-4.23-1.195-6.084-2.3-3.355-2.02-5.89-5.917-3.835-9.759.98-1.82 2.723-3.507 4.668-4.25 2.202-.848 4.737-.96 7.078-1.042-1.326.048.896 0 .236-.007h-.118.118c2.438 0 4.856.062 7.3.222 2.175.146 4.404.632 6.565.382 4.71-.535 9.544-.855 14.28-.445 2.133.188 4.488.445 6.273 1.737 1.66 1.208 3.147 2.84 3.675 4.869 1.034 3.966-2.327 7.418-5.655 8.947-4.167 1.917-8.974 2.743-13.461 3.528-1.111.195-2.23.382-3.348.563v12.058h24.13zm71.856-102.295c-2.945-.903-6.814-1.597-12.03-2.007-6.224-.472-14.371-.521-25.2.014 0 0-17.053 1.493-27.048 4.952-5.425 1.883-12.184 4.78-13.774 9.794-1.59 5.015-.348 16.067 2.16 21.978 2.507 5.925 9.009 13.836 14.476 17.531 5.056 3.432 14.774 7.662 28.124 7.579 8.238-.049 16.92-.84 24.124-3.272 3.077-1.035 5.897-2.369 8.28-4.077 2.312-1.653 4.174-3.62 5.681-5.73 3.696-5.183 5.251-11.344 5.98-16.595 1.022-7.397 2.175-20.046-2.166-24.943-1.765-1.994-4.126-3.841-8.607-5.224zm-133.412 52.27c5.46-3.696 11.96-11.614 14.454-17.532 2.515-5.918 3.765-16.963 2.168-21.978-1.591-5.015-8.343-7.918-13.774-9.794-9.989-3.459-27.048-4.952-27.048-4.952-12.364-.618-21.255-.459-27.757.215-5.522.584-9.342 1.55-12.1 2.75-2.848 1.223-4.591 2.696-5.973 4.259-4.335 4.897-3.196 17.539-2.175 24.943.57 4.084 1.64 8.717 3.82 13.01 1.772 3.487 4.287 6.765 7.864 9.315 1.632 1.173 3.494 2.167 5.473 3.021 7.683 3.258 17.58 4.272 26.923 4.328 13.337.069 23.061-4.154 28.125-7.586zM47.355 83.591c10.502.083 21.074.82 31.618 2.23a259.26 259.26 0 0 1 17.532 2.952c4.738 1.02 8.53 1.965 11.878 2.799 7.405 1.855 12.295 3.063 19.199 3.077 6.883-.014 11.76-1.236 19.157-3.077 3.348-.834 7.14-1.778 11.85-2.792 5.168-1.063 10.35-1.931 15.552-2.675 10.343-1.465 20.72-2.306 31.042-2.48 1.431-.027 2.876-.055 4.314-.055.785 0 1.57.007 2.34.014l-.569-4.286-.278-.868-13.177-39.447-32.952-6.453-38.48-7.515v-.014h-.029s-.013 0-.048.007c-.035-.007-.056-.007-.056-.007h-.028v.02c-1.444.16-20.49 3.89-38.557 7.454-16.865 3.32-32.876 6.515-32.876 6.515L41.611 78.438l-.292.868-.563 4.328c1.584-.035 3.21-.056 4.87-.056.576-.007 1.152.014 1.729.014z"/>
  <path fill="#454545" d="M252.77 87.954c-.131-.042-10.773-2.848-28.805-3.938l-1.007-9.697-2.146-6.432 12.801-13.719c11.628-12.46 10.947-31.98-1.514-43.6l-2.438-2.278c-12.454-11.621-31.98-10.94-43.6 1.514l-11.03 11.822-48.65-10.176v-.014h-.035s-.021 0-.056.007c-.042-.007-.063-.007-.063-.007h-.027v.021c-1.785.202-26.895 5.48-48.734 10.1L66.506 9.81C54.897-2.65 35.372-3.324 22.918 8.297l-2.438 2.278c-12.454 11.628-13.135 31.14-1.514 43.6l12.808 13.719-2.153 6.432-1.014 9.856C12.125 85.384 2.456 87.92 2.345 87.961c-1.702.48-2.404 2.202-2.341 3.702l2.035 14.573.875.465c2.8 1.487 3.515 3.73 7.314 17.011l.674 2.341c4.14 14.413 7.6 20.734 14.441 25.645l11.649 40.169 64.466 26.353 24.93 2.529 24.748-2.529 67.03-26.353 9.175-38.565c.104-.062.215-.125.32-.187 8.3-5.168 12.016-11.239 16.552-27.062l.68-2.375c3.793-13.253 4.502-15.49 7.308-16.977l.875-.465 2.015-14.378.014-.188c.055-1.507-.64-3.23-2.334-3.716zM41.313 79.299l.292-.868L54.78 38.984s16.018-3.195 32.876-6.515c18.067-3.57 37.113-7.293 38.558-7.453v-.014h.027s.021 0 .056.007c.035-.007.049-.007.049-.007h.027v.02l38.482 7.516 32.952 6.453 13.176 39.447.278.868.57 4.286a261.59 261.59 0 0 0-2.341-.014c-1.438 0-2.883.028-4.314.056-10.315.173-20.692 1.014-31.042 2.48-5.202.736-10.384 1.604-15.552 2.674-4.71 1.014-8.502 1.958-11.85 2.792-7.39 1.848-12.273 3.063-19.157 3.077-6.904-.014-11.787-1.23-19.199-3.077-3.348-.834-7.14-1.778-11.878-2.8a260.74 260.74 0 0 0-17.531-2.951 252.542 252.542 0 0 0-31.619-2.23c-.576 0-1.153-.021-1.736-.021-1.66 0-3.293.02-4.87.056zm-4.8 70.301c-1.98-.854-3.84-1.847-5.473-3.021-3.577-2.55-6.092-5.828-7.863-9.315-2.174-4.293-3.25-8.926-3.82-13.01-1.022-7.397-2.168-20.046 2.174-24.943 1.382-1.57 3.125-3.043 5.973-4.258 2.758-1.202 6.578-2.167 12.1-2.75 6.509-.681 15.393-.834 27.757-.216 0 0 17.052 1.493 27.048 4.952 5.431 1.883 12.19 4.78 13.774 9.794 1.597 5.015.354 16.067-2.168 21.978-2.493 5.925-8.995 13.836-14.454 17.532-5.064 3.43-14.788 7.661-28.132 7.578-9.328-.042-19.226-1.063-26.916-4.32zm170.554 36.335-58.93 24.283-21.763 2.647-21.914-2.647-58.93-24.283-7.086-28.604c6.919 1.73 15.497 2.75 24.173 2.75 3.959 0 7.793-.208 11.412-.645 20.782-2.46 31.18-15.497 33.056-18.088 4.133-5.71 8.787-15.878 12.795-25.068 1.417-3.25 6.96-3.39 7.696-3.397l.59.014c1.577.098 5.877.605 7.085 3.383 4.001 9.197 8.67 19.373 12.795 25.068 1.875 2.591 12.267 15.636 33.056 18.088 3.612.437 7.446.646 11.406.646 7.592 0 15.107-.785 21.505-2.133l-6.946 27.986zm28.687-61.674c-.73 5.251-2.285 11.412-5.98 16.594-1.515 2.119-3.37 4.077-5.683 5.73-2.389 1.71-5.202 3.043-8.28 4.078-7.202 2.431-15.885 3.223-24.123 3.272-13.35.083-23.068-4.147-28.124-7.579-5.467-3.695-11.969-11.613-14.476-17.531-2.5-5.918-3.75-16.963-2.16-21.978 1.59-5.015 8.349-7.918 13.774-9.794 9.988-3.459 27.048-4.952 27.048-4.952 10.829-.535 18.97-.486 25.2-.014 5.216.41 9.092 1.104 12.03 2.007 4.48 1.383 6.835 3.23 8.607 5.23 4.334 4.89 3.188 17.533 2.167 24.937zm-106.754 54.36c1.118-.18 2.237-.368 3.348-.563 4.487-.785 9.294-1.604 13.461-3.528 3.328-1.529 6.696-4.98 5.654-8.947-.527-2.028-2.014-3.66-3.674-4.87-1.785-1.291-4.147-1.548-6.272-1.736-4.737-.41-9.572-.09-14.281.445-2.168.25-4.39-.23-6.564-.382-2.445-.16-4.863-.222-7.3-.222.66.007-1.57.055-.237.007-2.34.09-4.869.194-7.078 1.042-1.945.743-3.688 2.438-4.668 4.25-2.056 3.849.473 7.738 3.835 9.76 1.854 1.104 4.021 1.736 6.084 2.299 2.286.639 4.606 1.118 6.94 1.57 1.68.326 3.361.611 5.063.875v12.065l-24.117 4.335v5.688h53.937v-5.688h-24.131z"/>
</svg>
