<svg xmlns="http://www.w3.org/2000/svg" viewBox="0 0 256.001 441.04">
  <path fill="#173148" fill-rule="evenodd" d="M138.226 0c-48.041 6.057-80.97 27.213-106.9 55.376-1.913 5.317-5.995 8.457-8.437 13.253-3.32 4.307-6.616 8.633-8.429 14.456-3.09 4.142-5.493 8.965-7.222 14.455-3.308 4.331-3.224 12.046-6.034 16.869.85 8.088-1.24 13.224-1.204 20.483.358 17.17 4.515 30.983 9.64 43.37 5.21 12.579 10.907 24.183 18.081 34.938 6.78 10.87 15.241 20.093 24.083 28.907 5.044 3.805 8.617 9.05 14.463 12.053 4.972 4.258 9.074 9.395 15.647 12.05 2.17 3.869 4.286 7.763 7.233 10.834 4.034.802 5.9 3.758 9.644 4.824 2.57 2.262 7.667 1.965 9.64 4.816 3.785-.589 4.254 2.181 8.43 1.215.83 2.37 6.72-.297 7.224 2.41-4.386 11.845-15.935 27.408-8.424 43.367 5.213 1.251 10.221 3.593 14.447 0 5.49-.181 9.135-7.126 14.472-3.613v15.662c-5.3 8.1-20.502 5.097-31.329 7.226-8.629-2.217-18.926-2.763-30.122-2.41-6.5 3.934-11.725 9.163-15.658 15.662-1.612 8.754-2.238 21.794 1.198 28.916 11.705 21.629 39.94 26.733 73.497 26.496 1.403-1.002 3.228-1.583 6.022-1.203 17.796-8.288 41.322-10.886 68.67-9.639 4.314 3.324 8.14 7.121 10.846 12.049 1.856 1.749 1.054 6.172 1.195 9.64-.762 4.784 1.535 6.5 3.612 8.433 5.413.998 5.39-3.449 8.441-4.816v-13.257c-3.015-9.431-8.685-16.215-15.67-21.681-2.226-.168-4.018-.794-4.808-2.41-1.805-.208-4.443.425-4.816-1.207-28.12-.766-51.499-.962-72.286 7.234-19.644.758-36.987-.774-50.6-6.027-4.058-3.978-9.05-7.009-10.855-13.256-.088-7.334-.705-15.166 3.618-18.073 6.303-5.028 15.59-1.584 24.1-1.203 9.61.417 19.294-.325 28.91 0 1.488-1.736 4.15-2.285 7.242-2.41 3.725-3.914 9.05-6.203 10.834-12.053 3.092-2.539 2.366-8.89 2.41-14.456 4.142.53 6.765-.477 9.632-1.203 1.868-3.364 1.111-9.347 6.043-9.631 7.257.665 14.014 5.854 21.677 2.41 1.391-3.926 2.257-13.116 0-16.87-2.197-4.238-5.87-6.993-7.238-12.049-4.57-1.853-5.064-7.783-9.643-9.632.581-3.785-3.24-3.191-3.602-6.027-1.35-.256-1.888-1.339-2.405-2.414-1.315-.28-2.899-1.968-1.215-2.405v-.001c12.434-6.837 22.35-16.184 32.535-25.298 15.218-22.131 26.61-48.086 36.141-75.898 10.815-26.762 17.05-59.571 14.46-96.381-2.623-15.053-5.277-30.062-13.26-39.754-5.506-12.562-16.369-19.772-25.303-28.918C204.605 7.497 191.913 2.225 176.183 0zm26.832 263.803c11.673-9.207 26.51-15.249 28.927-33.731 2.546-1.865 5.361-3.469 8.425-4.824 12.555-32.828 26.497-64.258 32.532-103.606V81.888c-2.386-24.528-15.317-38.494-28.923-51.803-13.096-6.576-28.679-10.674-48.194-10.846-5.458 2.169-14.392.857-21.674 1.206-50.384 7.459-82.81 32.869-103.622 69.884-.754 6.063-1.388 12.254-2.402 18.06v18.081c.144 5.87-.879 12.924 2.402 15.65 2.257-9.94 7.995-26.032 19.283-19.275.802 5.626-1.9 7.747-2.41 12.053-2.474 2.334-2.326 7.298-4.816 9.64-.834 9.203-3.58 16.492-3.617 26.505 2.378 6.857 5.91 12.555 9.644 18.072 1.736-10.317 4.851-19.259 8.428-27.712 2.455-.356 2.366-3.255 4.82-3.612.39-1.404 3.738-5.674 4.816-2.418-.228 9.006-5.253 13.217-4.816 22.896-2.036 2.386-1.319 7.515-2.413 10.847.59 5.413-.618 9.022-1.204 13.244 3.18 6.865 7.944 12.142 13.261 16.87 3.352-6.681 4.72-15.35 14.455-15.663 2.021 8.678-3.94 19.2-2.422 31.326 3.501 4.94 7.074 9.804 13.261 12.045 2.86-3.556 3.027-9.82 9.64-9.639 6.135 1.892 4.743 11.32 4.815 19.287 4.944 4.287 12.198 6.276 15.66 12.042.973.806 1.555 7.851 3.616 3.608-2.703-.517-.482-5.93-1.216-8.428 2.78-2.855 3.25-8 9.636-7.226 4.231.99 5.891 4.559 6.031 9.631 5.421-2.141 10.963-5.249 18.076-2.41zm19.28 51.803c-5.775-7.883-13.005-14.311-19.277-21.693-6.744-1.299-11.312-4.756-16.869-7.23 3.28 8.846-1.564 15.859-1.207 25.306 7.883-1.054 9.054 4.612 14.455 6.023 2.302-1.716 3.457-4.575 7.222-4.816 6.753-.721 11.408.638 15.675 2.41.73 1.749 1.451-.12 0 0z"/>
</svg>
