<svg xmlns="http://www.w3.org/2000/svg" viewBox="0 0 256 286.851">
  <defs>
    <linearGradient id="a" x1="81.211" x2="263.243" y1="165.406" y2="165.406" gradientTransform="scale(1.31337 .7614)" gradientUnits="userSpaceOnUse">
      <stop offset="0%" stop-color="#FFF" stop-opacity="0"/>
      <stop offset="100%" stop-color="#FFF"/>
    </linearGradient>
    <linearGradient id="b" x1="170.476" x2="318.85" y1="128.528" y2="19.13" gradientTransform="scale(.76009 1.31564)" gradientUnits="userSpaceOnUse">
      <stop offset="0%" stop-color="#FFF" stop-opacity="0"/>
      <stop offset="100%" stop-color="#FFF"/>
    </linearGradient>
    <linearGradient id="c" x1="153.62" x2="-15.337" y1="113.124" y2="192.204" gradientTransform="scale(.76009 1.31564)" gradientUnits="userSpaceOnUse">
      <stop offset="0%" stop-color="#FFF" stop-opacity="0"/>
      <stop offset="100%" stop-color="#FFF"/>
    </linearGradient>
    <linearGradient id="d" x1="92.303" x2="516.591" y1="25.971" y2="590.937" gradientTransform="scale(1.24591 .80262)" gradientUnits="userSpaceOnUse">
      <stop offset="0%" stop-color="#FFF" stop-opacity="0"/>
      <stop offset="100%" stop-color="#FFF"/>
    </linearGradient>
    <linearGradient id="e" x1="52.741" x2="46.201" y1="22.997" y2="126.079" gradientTransform="scale(.54153 1.84663)" gradientUnits="userSpaceOnUse">
      <stop offset="0%" stop-color="#1A3B54" stop-opacity="0"/>
      <stop offset="100%" stop-color="#1A3B54"/>
    </linearGradient>
  </defs>
  <path fill="#2a5d84" d="m142.4 3.9 99.3 57.3C251 66.6 256 75.5 256 86.9v114c0 10.8-4.9 19.2-14.1 24.6-33 19.1-66.1 38.1-99.1 57.2-9.6 5.6-20 5.5-29.7-.1-32.9-19-65.9-38-98.8-57.1C6.4 221 0 211.9 0 200.4V81.8c0-10.4 4.9-15.7 14.1-21L53.7 38v148.3l74.3 42.9 74.3-42.9v-85.8L128 57.6l-31.2 18v-62c5.6-3.2 11.2-6.5 16.9-9.7 8.7-5.1 19.5-5.3 28.7 0z"/>
  <path fill="#1a3b54" d="M159.2 125.2v36l-15.6 9-15.6 9.1-15.6-9.1-15.6-9v-36l15.6-9 15.6-9 15.6 9z"/>
  <path fill="url(#a)" d="M158.1 125.9 128 108.5l-30.1 17.4 30.1 17.5z" style="fill:url(#a)"/>
  <path fill="url(#b)" d="m128 178 30.1-17.4v-34.7L128 143.2z" style="fill:url(#b)"/>
  <path fill="url(#c)" d="m128 178-30.1-17.4v-34.7l30.1 17.3z" style="fill:url(#c)"/>
  <path fill="url(#d)" d="M97.9 14.3v59.4L128 56.3l75.4 43.5v.3l48.1-27.6c-2.3-4.2-5.7-7.7-10.4-10.4-33.1-19-66.2-38.1-99.3-57.2-8.6-5-19-5-27.6 0-5.4 3.1-10.9 6.2-16.3 9.4z" style="fill:url(#d)"/>
  <path fill="url(#e)" d="M52.6 186.8v-.5c0-50.3.2-98 .2-148.3L14.9 59.8c-8.8 5.1-13.8 11.9-13.8 22v118.6c0 4.9 1.3 9.7 3.6 13.9z" style="fill:url(#e)"/>
</svg>
