<svg xmlns="http://www.w3.org/2000/svg" viewBox="0 0 256 210.022">
  <path fill="#683d87" d="m125.528 36.024 7.387.005c31.975.096 56.366 1.108 71.89 2.05l1.73.107c16.42 1.018 30.04 12.474 33.859 28.512l.574 2.45c3.062 13.143 7.064 31.673 9.817 50.21l.54 3.663c1.87 12.963 3.402 28.145 4.598 45.124.636 10.056-2.673 19.73-9.42 27.24-6.746 7.51-16.038 11.837-26.093 12.346l-6.414.287c-21.695.941-52.163 1.974-84.565 2.004l-5.716-.005c-31.333-.085-60.654-1.085-81.711-1.999l-6.414-.286c-10.183-.383-19.347-4.838-26.094-12.348-6.746-7.51-10.055-17.183-9.419-27.239l.242-3.363c1.142-15.579 2.492-29.494 4.22-41.661l.375-2.58c2.928-20.112 7.383-40.35 10.565-53.843 3.777-15.866 17.146-27.371 33.453-28.48l5.317-.319c16.01-.91 40.15-1.829 71.279-1.875zm5.036 17.438h-4.882c-34.033.051-59.531 1.168-75.072 2.162-8.783.637-15.91 6.619-17.947 15.147l-.785 3.27c-3.08 12.996-6.95 31.128-9.526 49.045l-.376 2.486c-1.85 12.573-3.26 27.251-4.333 43.719-.382 5.346 1.4 10.437 4.964 14.383 3.564 3.946 8.4 6.237 13.747 6.492l8.412.375c21.38.916 50.633 1.886 81.794 1.915l5.75-.005c34.382-.095 66.196-1.307 87.336-2.285 5.346-.254 10.183-2.546 13.747-6.492 3.437-3.945 5.219-9.037 5.219-14.383l-.242-3.27c-1.223-16.227-2.678-30.644-4.468-42.935-2.927-19.475-7.255-39.204-10.31-52.314-2.037-8.529-9.292-14.638-17.947-15.148l-4.713-.286c-15.783-.911-39.678-1.83-70.368-1.876zm25.82 87.19c0 15.656-12.728 28.384-28.384 28.384-15.626 0-28.257-12.6-28.508-27.92l-.004-.465zm-92.027-35.259c9.667 0 17.352 7.677 17.561 17.169l.004.397h-35.13c0-9.674 7.891-17.566 17.565-17.566zm127.286 0c9.667 0 17.353 7.677 17.561 17.169l.004.397h-35.13c0-9.674 7.891-17.566 17.565-17.566zM128 0c6.11 0 10.947 4.964 10.947 10.947 0 5.982-4.965 10.819-10.947 10.819-5.982 0-10.947-4.964-10.947-10.82C117.053 4.837 122.018 0 128 0z"/>
</svg>
