<svg xmlns="http://www.w3.org/2000/svg" viewBox="0 0 512 147.599">
  <g fill="#683d87">
    <path d="m88.218 25.317 5.192.004c22.47.067 39.612.778 50.523 1.44l1.216.075c11.54.716 21.111 8.767 23.795 20.038l.403 1.721c2.152 9.238 4.965 22.26 6.899 35.287l.38 2.575c1.314 9.11 2.39 19.78 3.231 31.712.447 7.067-1.879 13.865-6.62 19.143-4.74 5.278-11.27 8.32-18.338 8.677l-4.507.201c-15.247.662-36.659 1.388-59.43 1.409l-4.017-.004c-22.02-.06-42.627-.763-57.426-1.405l-4.507-.201c-7.156-.268-13.597-3.4-18.338-8.677-4.741-5.278-7.067-12.076-6.62-19.143l.17-2.364c.803-10.948 1.752-20.728 2.965-29.278l.265-1.814c2.057-14.134 5.188-28.357 7.424-37.84 2.655-11.15 12.05-19.235 23.51-20.014l3.737-.224c11.251-.64 28.217-1.286 50.093-1.318zm3.54 12.255h-3.431c-23.918.036-41.838.82-52.76 1.52-6.172.447-11.181 4.651-12.612 10.644l-.552 2.299c-2.165 9.133-4.884 21.876-6.694 34.467l-.264 1.748c-1.3 8.836-2.291 19.15-3.046 30.724-.268 3.757.984 7.335 3.489 10.108 2.504 2.773 5.904 4.383 9.66 4.562l5.912.264c15.025.644 35.584 1.326 57.484 1.346l4.04-.004c24.163-.067 46.522-.919 61.379-1.606 3.757-.179 7.156-1.789 9.66-4.562 2.416-2.773 3.668-6.351 3.668-10.108l-.17-2.298c-.86-11.404-1.882-21.536-3.14-30.174-2.057-13.686-5.098-27.552-7.245-36.766-1.432-5.993-6.53-10.287-12.613-10.645l-3.313-.2c-11.092-.641-27.884-1.286-49.452-1.319zm18.146 61.275c0 11.003-8.946 19.948-19.948 19.948-10.982 0-19.859-8.855-20.035-19.621l-.003-.327zM45.229 74.068A12.31 12.31 0 0 1 57.57 86.134l.003.279h-24.69c0-6.799 5.547-12.345 12.346-12.345zm89.454 0a12.31 12.31 0 0 1 12.341 12.066l.003.279h-24.689c0-6.799 5.546-12.345 12.345-12.345zM89.956 0c4.293 0 7.693 3.489 7.693 7.693s-3.489 7.604-7.693 7.604c-4.205 0-7.693-3.49-7.693-7.604C82.263 3.4 85.75 0 89.956 0zM325.936 53.583v16.102h10.376v12.434h-10.287v20.216c0 3.042 2.594 5.636 6.172 5.815 2.467 0 4.267-.666 4.92-.95l.269-.123v11.897l-.383.13c-1.134.368-4.666 1.39-8.92 1.39-10.266 0-15.979-5.602-16.1-17.24l-.002-.382V82.12h-8.767V69.595h4.562c3.066 0 5.617-2.487 5.722-6.454l.003-.255v-9.303zm-96.79-6.71v28l.203-.262c1.044-1.3 6.11-6.984 14.825-6.984 12.882 0 24.332 11.361 24.332 26.39 0 15.028-11.36 26.388-24.332 26.388-9.418 0-14.575-6.638-15-7.207l-.028-.039v6.262h-13.955V46.874zm204.582 20.665c10.428 0 16.114 5.98 17.36 7.456l.262.326-7.246 8.32-.092-.116c-.554-.666-3.557-4-8.227-4-4.115 0-6.172 2.058-6.172 4.116 0 7.245 23.347 3.667 23.347 20.663 0 8.856-7.245 16.102-20.216 16.102-13.2 0-19.509-7.624-20.586-9.068l-.168-.235 7.783-7.783.129.166c.752.94 4.758 5.56 10.784 5.56 4.652 0 6.71-2.058 6.71-4.652 0-7.783-23.348-3.936-23.348-20.753 0-7.783 8.32-16.102 19.68-16.102zm52.867 0C501.087 67.538 512 78.45 512 92.943l-.005.613c-.053 3.183-.508 5-.612 5.107l-.01.005h-36.765c1.073 5.188 5.725 9.84 13.508 9.84 8.31 0 12.919-5.515 13.454-6.194l.053-.068 7.246 9.303-.28.295c-1.505 1.526-9.036 8.472-21.457 8.472-15.029 0-26.926-11.898-26.926-26.39 0-14.49 11.897-26.388 26.389-26.388zm-109.178.712.402.003h2.057v13.955l-.16-.05c-.467-.132-1.947-.486-4.491-.486-7.15 0-11.773 4.615-11.895 13.159l-.002.348v24.332h-13.956V68.7h13.955v6.172l.12-.15c.802-.964 5.572-6.279 13.573-6.468zm-84.132.361v50.81H279.33v-50.81zm108.865 0v50.81h-13.954v-50.81zm-160.57 11.45c-6.709 0-12.434 5.636-12.434 13.955 0 8.23 5.725 13.955 12.434 13.955 6.71 0 12.434-5.636 12.434-13.955 0-8.319-5.725-13.955-12.434-13.955zm245.015-.536c-6.064 0-10.229 3.971-11.815 9.03l-.082.273h23.258c-.984-5.188-5.189-9.303-11.361-9.303zM286.128 46.337c5.189 0 8.32 3.131 8.32 7.783 0 4.651-3.131 7.782-8.32 7.782-4.651 0-7.782-3.13-7.782-7.782s3.13-7.783 7.782-7.783zm108.777 0c5.188 0 8.319 3.131 8.319 7.783 0 4.651-3.131 7.782-8.32 7.782-4.651 0-7.782-3.13-7.782-7.782s3.131-7.783 7.783-7.783z"/>
  </g>
</svg>
