<svg xmlns="http://www.w3.org/2000/svg" viewBox="0 0 213.3 256">
  <path d="M210.137 3.163C208.06 1.087 205.49 0 202.625 0H10.675C7.808 0 5.239 1.087 3.163 3.163 1.087 5.239 0 7.809 0 10.675v128c0 9.587 1.878 18.978 5.535 28.368 3.756 9.39 8.303 17.693 13.838 25.007 5.535 7.314 12.06 14.332 19.67 21.25 7.611 6.92 14.63 12.653 21.053 17.199a260.032 260.032 0 0 0 20.164 12.948c7.018 4.052 11.96 6.82 14.925 8.204a170.257 170.257 0 0 0 7.117 3.36c1.285.692 2.767.989 4.349.989 1.581 0 2.965-.297 4.349-.989 1.779-.79 4.151-1.878 7.116-3.36 2.966-1.483 7.908-4.152 14.925-8.204a260.22 260.22 0 0 0 20.164-12.948c6.425-4.547 13.442-10.28 21.053-17.198 7.611-6.919 14.134-13.937 19.67-21.251 5.534-7.314 10.081-15.617 13.837-25.007 3.756-9.39 5.535-18.88 5.535-28.368v-128c0-2.866-1.087-5.338-3.162-7.512zm-24.71 136.7c0 46.357-78.678 86.19-78.678 86.19V27.383h78.678z" style="fill:#175ddc"/>
</svg>
