<svg xmlns="http://www.w3.org/2000/svg" viewBox="0 0 600.1 377.7">
  <path d="M39.8 303.5c8.4 0 15 3.3 19.8 9.9 4.8 6.6 7.2 15.6 7.2 27.1 0 11.8-2.5 20.9-7.4 27.4s-11.6 9.7-20.1 9.7c-8.4 0-15-3-19.7-9.1h-1.4l-2.6 6.3c-.4.9-1.3 1.5-2.3 1.5H2.5c-1.4 0-2.5-1.1-2.5-2.5v-94.4c0-1.4 1.1-2.5 2.5-2.5H17c1.4 0 2.5 1.1 2.5 2.5V300c0 2.9-.3 7.6-.8 14.1h.8c4.6-7 11.3-10.6 20.3-10.6zm-6.3 15.6c-4.8 0-8.3 1.5-10.5 4.4-2.2 3-3.4 7.8-3.4 14.7v2.1c0 7.7 1.1 13.2 3.4 16.5 2.3 3.3 5.9 5 10.8 5 4 0 7.2-1.8 9.6-5.5 2.4-3.7 3.5-9 3.5-16.1 0-7-1.2-12.3-3.6-15.8-2.4-3.5-5.7-5.3-9.8-5.3zm65.4 57.2H84.4c-1.4 0-2.5-1.1-2.5-2.5v-66.5c0-1.4 1.1-2.5 2.5-2.5h14.5c1.4 0 2.5 1.1 2.5 2.5v66.5c0 1.4-1.1 2.5-2.5 2.5zm53.1-14.2c2.9 0 6.3-.5 10.2-1.6 1.1-.3 2.1.5 2.1 1.6v11.2c0 .7-.4 1.3-1 1.5-4.7 1.9-10.3 2.8-16.9 2.8-7.8 0-13.5-2-17-5.9-3.6-3.9-5.3-9.8-5.3-17.7v-34.4h-7.7c-.9 0-1.7-.7-1.7-1.7v-6.4c0-.1.1-.3.2-.4l10.5-6.4 5.2-14c.2-.6.9-1.1 1.6-1.1h9.7c.9 0 1.7.7 1.7 1.7v13.5h19.2c.5 0 .8.4.8.8v12.1c0 .9-.7 1.7-1.7 1.7h-18.3v34.4c0 2.8.8 4.8 2.3 6.1 1.4 1.5 3.5 2.2 6.1 2.2zm90.4 14.2c-1.8 0-3.5-1.2-4-2.9l-14.2-43.5c-1-3.2-2.2-7.8-3.8-13.9h-.4l-1.3 4.7-2.9 9.3-14.5 43.4c-.6 1.7-2.2 2.9-4 2.9-1.9 0-3.6-1.3-4.1-3.1l-17.9-62.4c-.6-2 .9-3.9 3-3.9h.3c1.4 0 2.6.9 3 2.3l10.5 38c2.6 10 4.3 17.3 5.1 22h.4c2.5-10 4.3-16.6 5.5-19.9l13.4-39.7c.5-1.6 2.1-2.7 3.8-2.7 1.7 0 3.3 1.1 3.8 2.8l12.7 39.5c3.1 10 4.9 16.6 5.6 19.9h.4c.3-2.8 2-10.2 5.1-22.2l10-37.6c.4-1.3 1.6-2.3 3-2.3 2 0 3.5 1.9 3 3.9L247 373.3c-.5 1.8-2.2 3.1-4.1 3.1h-.5zm79.7 0c-1.2 0-2.3-.9-2.5-2.1l-1.3-8.8h-.5c-3.5 4.5-7.1 7.6-10.8 9.5-3.7 1.9-8 2.8-13.1 2.8-6.8 0-12.1-1.7-15.9-5.2-3.4-3.1-5.2-7.3-5.6-12.5-.5-6.9 2.4-13.7 8.1-17.6 5.7-3.9 13.9-5.9 24.8-6.1l13.2-.4v-4.6c0-6.6-1.3-11.6-4-14.9-2.7-3.4-7-5-13-5-5.6 0-11.3 1.3-17.3 4-1.5.7-3.3 0-3.9-1.5-.6-1.5.1-3.2 1.6-3.9 6.7-2.8 13.3-4.2 19.9-4.2 7.6 0 13.3 2 17.1 5.9 3.8 4 5.7 10.1 5.7 18.5v43.7c0 1.3-1.1 2.4-2.5 2.4zm-27.7-4.5c7.4 0 13.3-2.1 17.5-6.4 4.3-4.2 6.4-10.1 6.4-17.7v-6.8l-12.1.5c-9.8.5-16.7 2-20.9 4.6-4.2 2.6-6.2 6.6-6.2 12 0 4.3 1.3 7.7 4 10.1 2.7 2.5 6.5 3.7 11.3 3.7zm79.5-66.3c2 0 4.1.1 6.3.4 1.7.2 2.9 1.9 2.5 3.6-.3 1.6-1.9 2.6-3.5 2.4-2-.3-4-.5-6.1-.5-5.9 0-10.8 2.5-14.6 7.5-3.8 5-5.7 11.4-5.7 19v35.2c0 1.7-1.4 3.2-3.2 3.2-1.7 0-3.2-1.4-3.2-3.2v-63.5c0-1.5 1.2-2.8 2.8-2.8 1.5 0 2.7 1.1 2.7 2.6l.5 9.9h.4c2.9-5.1 5.9-8.7 9.1-10.8 3.5-1.9 7.4-3 12-3zm47.2 0c5 0 9.4.9 13 2.7 3.7 1.8 6.9 5 9.8 9.4h.4c-.3-5.4-.4-10.6-.4-15.8V280c0-1.7 1.4-3.1 3.1-3.1 1.7 0 3.1 1.4 3.1 3.1v94c0 1.2-1 2.2-2.2 2.2-1.1 0-2-.8-2.2-1.9l-1.3-8.7h-.5c-5.3 7.9-12.9 11.9-22.7 11.9-9.6 0-16.9-3-22-8.9-5.1-6-7.6-14.7-7.6-26.1 0-12 2.5-21.2 7.5-27.5 5.1-6.3 12.4-9.5 22-9.5zm0 5.8c-7.6 0-13.3 2.7-17.1 8-3.8 5.3-5.7 13.1-5.7 23.2 0 19.7 7.6 29.5 22.9 29.5 7.8 0 13.6-2.3 17.2-6.8 3.7-4.6 5.5-12.1 5.5-22.6v-1.1c0-10.7-1.8-18.5-5.4-23.2-3.5-4.7-9.4-7-17.4-7zm80.5 66.3c-10.1 0-18-3.1-23.6-9.3-5.6-6.2-8.5-14.9-8.5-26.1 0-11.1 2.7-19.9 8.2-26.6 5.5-6.7 12.8-10 22-10 8.2 0 14.6 2.9 19.4 8.6 4.7 5.7 7.1 13.5 7.1 23.3v5.1h-50c.1 9.5 2.3 16.8 6.7 21.8s10.6 7.5 18.7 7.5c4 0 7.4-.3 10.4-.8 2.2-.4 4.8-1.1 7.8-2.2 1.8-.6 3.6.7 3.6 2.6 0 1.1-.7 2.1-1.7 2.5-3.3 1.3-6.3 2.2-9.1 2.8-3.4.5-7 .8-11 .8zm-1.9-66.5c-6.7 0-12.1 2.2-16.1 6.6-4 4.4-6.4 10.8-7.1 19.1h42.9c0-8-1.7-14.3-5.2-18.9-3.5-4.5-8.3-6.8-14.5-6.8zm97.2 65.2c-1.7 0-3.1-1.4-3.1-3.1v-41.9c0-7-1.5-12.1-4.4-15.2-2.9-3.2-7.5-4.8-13.7-4.8-8.3 0-14.4 2.1-18.2 6.3-3.9 4.2-5.8 11-5.8 20.4v35.2c0 1.7-1.4 3.1-3.1 3.1h-.1c-1.7 0-3.1-1.4-3.1-3.1v-63.5c0-1.6 1.3-2.9 2.9-2.9 1.4 0 2.6 1.1 2.8 2.5l.9 7h.4c4.5-7.2 12.5-10.9 24.1-10.9 15.8 0 23.6 8.5 23.6 25.4v42.3c-.1 1.8-1.5 3.2-3.2 3.2zM91.7 275.9c-6.3 0-11.4 4.9-11.4 10.9v.9c0 6 5.1 10.9 11.4 10.9 6.3 0 11.4-4.9 11.4-10.9v-.9c0-6-5.1-10.9-11.4-10.9zm313-272.7C402.6 1.1 400 0 397.1 0H202.9c-2.9 0-5.5 1.1-7.6 3.2-2.1 2.1-3.2 4.7-3.2 7.6v129.5c0 9.7 1.9 19.2 5.6 28.7 3.8 9.5 8.4 17.9 14 25.3 5.6 7.4 12.2 14.5 19.9 21.5 7.7 7 14.8 12.8 21.3 17.4 6.5 4.6 13.3 9 20.4 13.1 7.1 4.1 12.1 6.9 15.1 8.3 3 1.5 5.4 2.6 7.2 3.4 1.3.7 2.8 1 4.4 1 1.6 0 3-.3 4.4-1 1.8-.8 4.2-1.9 7.2-3.4s8-4.2 15.1-8.3c7.1-4.1 13.9-8.5 20.4-13.1 6.5-4.6 13.6-10.4 21.3-17.4 7.7-7 14.3-14.1 19.9-21.5 5.6-7.4 10.2-15.8 14-25.3 3.8-9.5 5.6-19.1 5.6-28.7V10.8c0-2.9-1.1-5.4-3.2-7.6zm-25 138.3c0 46.9-79.6 87.2-79.6 87.2v-201h79.6v113.8z" style="fill:#175ddc"/>
</svg>
