<svg xmlns="http://www.w3.org/2000/svg" viewBox="0 0 255.005 282.444">
  <path fill="#fff" d="M127.502 0c-6.7 0-13.403 1.733-19.407 5.2L19.408 56.405A38.815 38.815 0 0 0 0 90.018v102.407a38.813 38.813 0 0 0 19.408 33.615l88.687 51.204a38.793 38.793 0 0 0 19.407 5.2 38.797 38.797 0 0 0 19.408-5.2l88.687-51.204a38.813 38.813 0 0 0 19.408-33.615V90.018a38.815 38.815 0 0 0-19.408-33.614L146.91 5.2A38.788 38.788 0 0 0 127.502 0"/>
  <path fill="#298aec" d="M235.597 56.405 146.91 5.2a38.814 38.814 0 0 0-38.815 0L19.408 56.405A38.812 38.812 0 0 0 0 90.018v102.407a38.813 38.813 0 0 0 19.408 33.615l88.687 51.204a38.814 38.814 0 0 0 38.815 0l88.687-51.204a38.813 38.813 0 0 0 19.408-33.615V90.018a38.812 38.812 0 0 0-19.408-33.613zm7.21 131.122c0 12.54-6.69 24.128-17.55 30.399l-80.204 46.305a35.101 35.101 0 0 1-35.101 0l-80.203-46.305a35.101 35.101 0 0 1-17.55-30.399v-92.61a35.099 35.099 0 0 1 17.55-30.398l80.203-46.305a35.101 35.101 0 0 1 35.101 0l80.203 46.305a35.099 35.099 0 0 1 17.55 30.398z"/>
  <path fill="#44546c" d="M72.844 109.838H185.83v9.905H72.844zM72.844 143.146H185.83v9.905H72.844zM72.844 176.345H185.83v9.905H72.844z"/>
</svg>
