<svg xmlns="http://www.w3.org/2000/svg" viewBox="0 0 255.526 255.526">
  <g fill="#122941">
    <path d="M127.756 62.192c-21.279 19.3-33.855 55.208-35.954 77.913 5.968 4.69 11.74 10.007 17.685 16.17 1.44 1.31 10.175 9.506 18.278 23.03 8.114-13.52 16.84-21.72 18.28-23.03 5.944-6.163 11.711-11.48 17.679-16.17-2.104-22.71-14.68-58.617-35.968-77.913M153.386 163.603l-.292.279c-.274.246-26.94 24.497-29.42 60.743 19.77-1.347 40.84-8.865 43.273-9.757 45.14-22.523 54.86-60.97 54.27-91.519-30.665 9.367-48.321 19.974-67.83 40.254M121.97 190.315c-8.517-16.467-19.356-26.27-19.533-26.433l-.292-.279c-19.51-20.28-37.17-30.887-67.83-40.254-.595 30.548 9.13 68.996 54.264 91.52 1.668.608 12.121 4.346 24.902 7.067 1.058-11.93 4.365-22.56 8.489-31.62"/>
    <path d="M127.765 18.576c-60.209 0-109.189 48.98-109.189 109.185 0 60.21 48.98 109.19 109.19 109.19 60.204 0 109.184-48.98 109.184-109.19 0-60.205-48.98-109.185-109.185-109.185zm0 236.95C57.316 255.526 0 198.21 0 127.761 0 57.31 57.316 0 127.765 0c70.45 0 127.761 57.311 127.761 127.76 0 70.45-57.311 127.766-127.76 127.766z"/>
  </g>
</svg>
