<svg xmlns="http://www.w3.org/2000/svg" viewBox="0 0 256 297.746">
  <path fill="#00b46f" d="m192 112.384 64 37.943v74.441l-64 36.48-64-36.48v-74.423"/>
  <path fill="#2294d9" d="m128 0 64 37.943v74.441l-64 36.48-64-36.48V37.961"/>
  <path fill="#2294d9" d="m192 37.943 64 37.943v74.45l-64 36.48-64-36.48v-74.45"/>
  <path fill="#f85551" d="m64 37.943 64 37.943v74.45l-64 36.48-64-36.48v-74.45"/>
  <path fill="#f85551" d="m64 112.384 64 37.943v74.441l-64 36.48-64-36.48v-74.423"/>
  <path fill="#00b46f" d="m128 148.873 64 37.943v74.441l-64 36.48-64-36.48v-74.441"/>
  <path fill="#30b2e9" d="m192 37.943-64 37.943-64-37.943L128 0zm64 37.943-64 37.96-64-37.942 64-37.943 64 37.943z"/>
  <path fill="#00ab64" d="M128 223.305v-74.423l-64 37.943v74.423"/>
  <path fill="#00ce8e" d="m192 186.816-64 36.48-64-36.48 64-37.943"/>
  <path fill="#00c783" d="M128 148.882v74.423l-64-36.48z"/>
  <path fill="#2caee7" d="M128 0v75.886L64 37.943z"/>
  <path fill="#fb716c" d="m128 75.886-64 37.96L0 75.905l64-37.943"/>
  <path fill="#1f8ed6" d="m256 150.336-64 36.48-64-37.943 64-35.017"/>
  <path fill="#f64743" d="M63.013 186.185v74.441L0 224.146z"/>
  <path fill="#f96560" d="M64 113.847V37.96l64 37.943v72.96"/>
  <path fill="#b71d1d" d="M128 148.873V75.886l-64 37.96v72.96"/>
  <path fill="#b21a1a" d="M128 75.886v72.987l-64-35.017z"/>
  <path fill="#10161a" fill-opacity=".2" d="M256 150.345v74.423l-64-37.943z" style="mix-blend-mode:soft-light"/>
  <path fill="#007233" d="M192 261.257v-74.441l-64 36.48v74.45l64-36.48zm64-36.48v-74.441l-64 36.48v74.441z"/>
  <path fill="#00682c" d="M256 150.345v74.423l-64-37.943z"/>
  <path fill="#0759ba" d="M256 150.336v-74.45l-64 37.96v72.96"/>
  <path fill="#0860bf" d="M256 75.886v74.45l-64-36.48z"/>
  <path fill="#febcb7" d="m0 75.886 64 36.498 64-36.48-62.537 38.674L64 186.514c0 .028 0 0 0 0l-1.463-71.954z" opacity=".78"/>
  <path fill="#4edcf8" d="m128 75.886 64 36.498 64-36.48-62.537 38.674L192 186.807l-1.463-72.229" opacity=".78"/>
  <path fill="#00f3c9" d="m64 186.816 64 35.035 64-35.035-62.537 37.211L128 297.691c0 .028 0 0 0 0l-1.463-73.654L64 186.825z" opacity=".78"/>
</svg>
