<svg xmlns="http://www.w3.org/2000/svg" viewBox="0 0 256 347.045">
  <path fill="#0060a9" d="m142.03 85.687 28.693 28.694-28.676 28.67-.017-57.364zm0 175.647 28.693-28.688-28.676-28.676-.017 57.364zm-30.636-87.823-62.028-62.187L67.345 93.35l49.412 49.436V24.317l89.866 89.858-59.336 59.336 59.347 59.352-89.87 89.86V204.246l-49.425 49.442-17.98-17.985 62.035-62.192zm16.618 173.534c75.776 0 127.988-36 127.988-173.529C256 35.993 203.788 0 128.012 0 52.24 0 0 35.999 0 173.516c0 137.53 52.235 173.529 128.012 173.529z"/>
</svg>
