<svg xmlns="http://www.w3.org/2000/svg" viewBox="0 0 256.002 128.145">
  <defs>
    <linearGradient id="a" x1="126.404" x2="64.441" y1="31.372" y2="245.777" gradientTransform="scale(1.41342 .7075)" gradientUnits="userSpaceOnUse">
      <stop offset="1.376%" stop-color="#21D4FD"/>
      <stop offset="99.6%" stop-color="#B721FF"/>
    </linearGradient>
  </defs>
  <path fill="url(#a)" d="M255.735 107.99c-5.226-31.974-79.127-87.213-106.249-102.64C143.514 1.866 135.801 0 127.963 0c-7.838 0-15.179 1.866-21.15 5.35C87.902 16.422 25.944 59.718 6.163 92.936c-2.986 5.101-5.101 10.078-5.848 14.556-.995 6.097.374 11.322 3.982 15.428 2.986 3.359 7.091 5.1 12.192 5.1 13.934 0 34.09-13.436 55.488-27.743 20.901-14.06 42.674-28.49 56.11-28.49 2.862 0 6.096.746 9.456 1.865.124 0 .248 0 .248.125 4.23 1.493 8.71 3.608 13.686 6.345.497.249.995.622 1.493.87 1.99 1.12 3.981 2.24 5.972 3.484 7.589 4.603 15.427 9.953 23.265 15.179 10.824 7.34 21.399 14.431 30.978 19.781 9.705 5.35 18.414 8.709 25.754 8.709 5.35 0 9.704-1.866 12.939-5.474 3.483-3.733 4.727-8.709 3.857-14.68z" style="fill:url(#a)"/>
  <path fill="#1d1d1b" d="M137.543 73.777c-3.484-1.244-6.719-1.867-9.456-1.867-13.436 0-35.084 14.432-56.11 28.491-21.399 14.183-41.554 27.744-55.488 27.744-5.1 0-9.206-1.742-12.192-5.1-3.608-4.107-4.977-9.332-3.982-15.428.747-4.479 2.738-9.455 5.848-14.556C53.19 48.645 108.057 61.46 137.543 73.777z" opacity=".4"/>
</svg>
