<svg xmlns="http://www.w3.org/2000/svg" xmlns:xlink="http://www.w3.org/1999/xlink" viewBox="0 0 256 256">
  <defs>
    <path id="a" d="M256 9.143A9.143 9.143 0 0 0 246.857 0H9.143A9.143 9.143 0 0 0 0 9.143v237.714A9.143 9.143 0 0 0 9.143 256h237.714a9.143 9.143 0 0 0 9.143-9.143V9.143"/>
  </defs>
  <mask id="b" fill="#fff">
    <use width="100%" height="100%" xlink:href="#a"/>
  </mask>
  <use width="100%" height="100%" fill="#1f5296" xlink:href="#a"/>
  <path fill="#4ba2d9" d="M9.143 0h237.714A9.143 9.143 0 0 1 256 9.143v109.714a9.143 9.143 0 0 1-9.143 9.143H9.143A9.143 9.143 0 0 1 0 118.857V9.143A9.143 9.143 0 0 1 9.143 0" mask="url(#b)"/>
  <path fill="#1f5296" d="M9.143 128h237.714a9.143 9.143 0 0 1 9.143 9.143v109.714a9.143 9.143 0 0 1-9.143 9.143H9.143A9.143 9.143 0 0 1 0 246.857V137.143A9.143 9.143 0 0 1 9.143 128" mask="url(#b)"/>
  <path fill="#356eb6" d="M54.857 54.857 128 128l-73.143 73.143L-18.286 128l73.143-73.143" mask="url(#b)"/>
  <path fill="#fff" d="M54.857 205.022-22.164 128l77.021-77.022L131.88 128zM-14.407 128l69.264 69.264L124.121 128 54.857 58.736z" mask="url(#b)"/>
  <path fill="#356eb6" d="M201.143 54.857 274.286 128l-73.143 73.143L128 128l73.143-73.143" mask="url(#b)"/>
  <path fill="#fff" d="M201.143 205.022 124.12 128l77.022-77.022L278.164 128zM131.879 128l69.264 69.264L270.407 128l-69.264-69.264zM53.943-19.2h2.194v294.4h-2.194z" mask="url(#b)"/>
  <path fill="#fff" d="M127.086-19.2h2.194v294.4h-2.194zM200.229-19.2h2.194v294.4h-2.194z" mask="url(#b)"/>
  <path fill="#1f5296" d="M54.857 32c12.624 0 22.857 10.233 22.857 22.857 0 12.624-10.233 22.857-22.857 22.857C42.233 77.714 32 67.481 32 54.857 32 42.233 42.233 32 54.857 32" mask="url(#b)"/>
  <path fill="#fff" d="M54.857 82.286c-15.124 0-27.428-12.305-27.428-27.429 0-15.124 12.304-27.428 27.428-27.428s27.429 12.304 27.429 27.428S69.98 82.286 54.857 82.286zm0-45.715c-10.083 0-18.286 8.203-18.286 18.286 0 10.083 8.203 18.286 18.286 18.286 10.083 0 18.286-8.203 18.286-18.286 0-10.083-8.203-18.286-18.286-18.286z" mask="url(#b)"/>
  <path fill="#1f5296" d="M201.143 32C213.767 32 224 42.233 224 54.857c0 12.624-10.233 22.857-22.857 22.857-12.624 0-22.857-10.233-22.857-22.857 0-12.624 10.233-22.857 22.857-22.857" mask="url(#b)"/>
  <path fill="#fff" d="M201.143 82.286c-15.124 0-27.429-12.305-27.429-27.429 0-15.124 12.305-27.428 27.429-27.428 15.124 0 27.428 12.304 27.428 27.428s-12.304 27.429-27.428 27.429zm0-45.715c-10.083 0-18.286 8.203-18.286 18.286 0 10.083 8.203 18.286 18.286 18.286 10.083 0 18.286-8.203 18.286-18.286 0-10.083-8.203-18.286-18.286-18.286z" mask="url(#b)"/>
  <path fill="#4ba2d9" d="M54.857 178.286c12.624 0 22.857 10.233 22.857 22.857 0 12.624-10.233 22.857-22.857 22.857C42.233 224 32 213.767 32 201.143c0-12.624 10.233-22.857 22.857-22.857" mask="url(#b)"/>
  <path fill="#fff" d="M54.857 228.571c-15.124 0-27.428-12.304-27.428-27.428s12.304-27.429 27.428-27.429 27.429 12.305 27.429 27.429c0 15.124-12.305 27.428-27.429 27.428zm0-45.714c-10.083 0-18.286 8.203-18.286 18.286 0 10.083 8.203 18.286 18.286 18.286 10.083 0 18.286-8.203 18.286-18.286 0-10.083-8.203-18.286-18.286-18.286z" mask="url(#b)"/>
  <path fill="#4ba2d9" d="M201.143 178.286c12.624 0 22.857 10.233 22.857 22.857C224 213.767 213.767 224 201.143 224c-12.624 0-22.857-10.233-22.857-22.857 0-12.624 10.233-22.857 22.857-22.857" mask="url(#b)"/>
  <path fill="#fff" d="M201.143 228.571c-15.124 0-27.429-12.304-27.429-27.428s12.305-27.429 27.429-27.429c15.124 0 27.428 12.305 27.428 27.429 0 15.124-12.304 27.428-27.428 27.428zm0-45.714c-10.083 0-18.286 8.203-18.286 18.286 0 10.083 8.203 18.286 18.286 18.286 10.083 0 18.286-8.203 18.286-18.286 0-10.083-8.203-18.286-18.286-18.286z" mask="url(#b)"/>
</svg>
