<svg xmlns="http://www.w3.org/2000/svg" viewBox="0 0 256 299.231">
  <path fill="#0385cd" d="M91.352 211.417c2.854 0 5.19 2.316 5.19 5.177l-.014 29.38c0 2.854 1.805 3.717 4.02 1.905l40.538-33.183c2.215-1.812 6.356-3.286 9.21-3.286l67.064.043c7.967-.467 14.74-9.857 15.222-17.378l-.087-93.703c0-2.855 2.337-4.58 5.199-4.58h12.985c2.855 0 5.192 1.718 5.192 4.58L256 196.44c0 20.773-15.71 43.156-39.079 43.156h-58.27c-2.854 0-7.002-.928-9.21.877l-72.29 57.96c-2.215 1.812-4.02.353-4.02-2.502l.03-55.666c0-2.848-2.337-5.343-5.192-5.343l-26.05-.036c-20.305 0-40.812-19.845-41.919-40.164v-40.445c0-2.862 3.725-.97 6.586-.97h12.986c2.854 0 5.191.222 5.191 3.077l.137 37.9c0 7.319 9.146 16.472 16.703 17.637zm-33.607-79.919c-1.33 2.531-4.753 4.595-7.615 4.595H6.586c-2.854 0-5.191-2.337-5.191-5.191v-12.986c0-2.854 2.337-5.191 5.191-5.191H36.01c2.854 0 6.284-2.071 7.614-4.595l39.395-74.828c1.33-2.524 3.66-2.617 5.177-.202l33.255 52.906c1.524 2.423 3.897 2.351 5.277-.151l46.384-83.931c1.38-2.495 3.775-2.574 5.321-.173l31.802 49.469c1.546 2.401 5.141 4.364 8.003 4.364h32.435c2.855 0 5.191 2.337 5.191 5.199V73.76c0 2.855-2.336 5.199-5.19 5.199H205.46c-2.854 0-6.457-1.963-8.003-4.365L179.913 47.38c-1.546-2.401-3.947-2.322-5.328.18l-46.563 84.219c-1.381 2.495-3.754 2.56-5.278.15l-32.73-52.107c-1.517-2.416-3.854-2.33-5.184.194z"/>
</svg>
