<svg xmlns="http://www.w3.org/2000/svg" viewBox="0 0 255.301 251.616">
  <defs>
    <linearGradient id="a" x1="83.963" x2="98.003" y1="179.307" y2="362.543" gradientTransform="scale(1.43856 .69514)" gradientUnits="userSpaceOnUse">
      <stop offset="0%" stop-color="#FF992E"/>
      <stop offset="63.5%" stop-color="#FF4C2E"/>
      <stop offset="100%" stop-color="#E3302E"/>
    </linearGradient>
  </defs>
  <g transform="translate(-.099)">
    <path fill="#e5d1bf" d="M51.535 251.616c-15.04 0-27.749-11.58-29.854-26.32C21.455 223.191.625 34.742.625 32.636.4 32.11.1 31.584.1 31.057l.05-6.317c0-5.263 2.055-10.527 6.266-13.686C9.925 6.317 17.996 0 128.012 0 237.778 0 245.924 6.317 249.61 11.054c3.71 3.685 5.79 8.423 5.79 14.213l-.075 5.264c0 1.053.076 1.579-.45 2.632l-22.36 192.133c0 .527-.276 1.053-.276 1.58-2.732 14.212-15.265 24.74-29.478 24.74z"/>
    <path fill="#fef9ec" d="M247.554 24.951c0-3.685-1.48-6.843-3.585-8.949-5.44-6.316-55.271-8.422-116.333-8.422-60.81 0-110.542 1.58-116.333 7.896-2.13 2.632-3.684 5.264-3.684 8.949l.05 5.79c0 .526-.05 1.053.476 1.58-.226.526 21.056 192.133 21.056 192.133 1.529 11.054 11.054 19.476 22.108 19.476h151.125c11.53 0 21.006-8.422 22.059-19.476h.25l22.56-192.134v-6.843z"/>
    <ellipse cx="127.11" cy="23.372" fill="#e5d1bf" rx="105.805" ry="5.79"/>
    <path fill="url(#a)" d="M213.965 205.504c-.25 6.843-5.264 12.107-12.107 12.107H52.287c-6.517 0-11.506-5.264-12.032-12.107-1.003-17.897-7.37-71.59-7.37-71.59-.15-4.737 2.106-7.369 7.37-7.369h173.71c4.762 0 7.37 2.632 7.37 7.37.15 0-6.844 53.692-7.37 71.59z" style="fill:url(#a)"/>
    <path fill="#fef9ec" d="M97.156 136.336c-3.008 3.685-2.306 9.475 1.905 12.633l32.686 25.794c4.01 2.632 9.952 2.105 12.584-2.106l25.517-33.163c3.008-3.684 2.381-9.475-1.83-12.633l-32.761-25.793c-4.011-2.632-9.877-2.106-13.035 2.105z" opacity=".65"/>
    <path fill="#fef9ec" d="M65.823 112.122c-5.014.526-8.347 5.264-7.821 10.001l5.314 41.585c.752 5.264 5.214 8.423 10.478 7.896l40.908-5.264c5.013-1.052 8.573-5.264 7.52-10.527l-5.013-41.586c-.752-4.737-5.515-8.422-10.252-7.37z" opacity=".65"/>
  </g>
</svg>
