<svg xmlns="http://www.w3.org/2000/svg" viewBox="0 0 256 263.68">
  <defs>
    <filter id="b" width="2" height="2" x="-.5" y="-.5" filterUnits="objectBoundingBox">
      <feOffset dy="2" in="SourceAlpha" result="shadowOffsetOuter1"/>
      <feGaussianBlur in="shadowOffsetOuter1" result="shadowBlurOuter1" stdDeviation="2"/>
      <feColorMatrix in="shadowBlurOuter1" result="shadowMatrixOuter1" values="0 0 0 0 0 0 0 0 0 0 0 0 0 0 0 0 0 0 0.273992301 0"/>
      <feMerge>
        <feMergeNode in="shadowMatrixOuter1"/>
        <feMergeNode in="SourceGraphic"/>
      </feMerge>
    </filter>
    <filter id="c" width="2" height="2" x="-.5" y="-.5" filterUnits="objectBoundingBox">
      <feOffset dy="2" in="SourceAlpha" result="shadowOffsetOuter1"/>
      <feGaussianBlur in="shadowOffsetOuter1" result="shadowBlurOuter1" stdDeviation="2"/>
      <feColorMatrix in="shadowBlurOuter1" result="shadowMatrixOuter1" values="0 0 0 0 0 0 0 0 0 0 0 0 0 0 0 0 0 0 0.273992301 0"/>
      <feMerge>
        <feMergeNode in="shadowMatrixOuter1"/>
        <feMergeNode in="SourceGraphic"/>
      </feMerge>
    </filter>
    <linearGradient id="a" x1="121.431" x2="121.431" y1="0" y2="242.863" gradientTransform="scale(1.0541 .94868)" gradientUnits="userSpaceOnUse">
      <stop offset="0%" stop-color="#29ABE2"/>
      <stop offset="47.57%" stop-color="#28A9E1"/>
      <stop offset="66.39%" stop-color="#23A2DC"/>
      <stop offset="80.12%" stop-color="#1A96D4"/>
      <stop offset="91.3%" stop-color="#0E85C9"/>
      <stop offset="100%" stop-color="#0071BC"/>
    </linearGradient>
  </defs>
  <path fill="#115a91" d="M256 212.48c0 28.16-23.04 51.2-51.2 51.2H51.2c-28.16 0-51.2-23.04-51.2-51.2V58.88c0-28.16 23.04-51.2 51.2-51.2h153.6c28.16 0 51.2 23.04 51.2 51.2z"/>
  <path fill="#fff" d="M204.8 35.84c12.705 0 23.04 10.335 23.04 23.04v128c0 12.705-10.335 23.04-23.04 23.04H51.2c-12.705 0-23.04-10.335-23.04-23.04v-128c0-12.705 10.335-23.04 23.04-23.04h153.6"/>
  <path fill="url(#a)" d="M204.8 28.16c12.705 0 23.04 10.335 23.04 23.04v128c0 12.705-10.335 23.04-23.04 23.04H51.2c-12.705 0-23.04-10.335-23.04-23.04v-128c0-12.705 10.335-23.04 23.04-23.04zm0-28.16H51.2C23.04 0 0 23.04 0 51.2v128c0 28.16 23.04 51.2 51.2 51.2h153.6c28.16 0 51.2-23.04 51.2-51.2v-128C256 23.04 232.96 0 204.8 0z" style="fill:url(#a)" transform="translate(0 7.68)"/>
  <g fill="#4d4d4d">
    <path d="M143.36 0v122.88h-64V92.16h35.84v-64H79.36V0z" filter="url(#b)" transform="translate(56.32 61.44)"/>
    <path d="M64 0v28.16H28.16v64H64v30.72H0V0z" filter="url(#c)" transform="translate(56.32 61.44)"/>
  </g>
</svg>
