<svg xmlns="http://www.w3.org/2000/svg" viewBox="0 0 511.634 120.245">
  <path fill="#343333" d="M423.764 25.809v69.393a71.622 71.622 0 0 1-9.056 2.02c-3.804.524-7.642.76-11.482.708a34.418 34.418 0 0 1-9.868-1.41 22.64 22.64 0 0 1-8.25-4.441 21.003 21.003 0 0 1-5.5-7.538l-.136-.322c-1.381-3.205-2.078-7.181-2.078-11.813a30.122 30.122 0 0 1 1.788-10.409 24.77 24.77 0 0 1 5.12-8.463 24.34 24.34 0 0 1 8.115-5.649 26.064 26.064 0 0 1 10.14-2.08l.402.002c1.161 0 2.398.047 3.646.145 1.22.095 2.43.304 3.61.627l.453.128V25.809zm-92.12 21.734a20.822 20.822 0 0 1 7.547 5.538 22.767 22.767 0 0 1 4.464 8.353 35.921 35.921 0 0 1 1.463 9.883v.502a34.924 34.924 0 0 1-1.463 10.281 22.918 22.918 0 0 1-4.435 8.26 20.544 20.544 0 0 1-7.517 5.492 26.616 26.616 0 0 1-10.687 1.98 26.355 26.355 0 0 1-10.594-1.98 20.207 20.207 0 0 1-7.402-5.492 23.998 23.998 0 0 1-4.44-8.26 34.02 34.02 0 0 1-1.505-9.806l.001-.475a34.94 34.94 0 0 1 1.504-10.379 23.841 23.841 0 0 1 4.44-8.36 20.532 20.532 0 0 1 7.43-5.537 25.635 25.635 0 0 1 10.566-2.032 25.93 25.93 0 0 1 10.629 2.032zM258.166 25.71v69.364c-2.972.875-6 1.55-9.061 2.02-3.541.497-7.112.745-10.687.742l-.767-.005a34.128 34.128 0 0 1-9.868-1.416 22.483 22.483 0 0 1-8.255-4.435 21.055 21.055 0 0 1-5.495-7.537l-.136-.323c-1.387-3.233-2.084-7.21-2.084-11.813a30.388 30.388 0 0 1 1.812-10.414 25.095 25.095 0 0 1 5.12-8.458 24.236 24.236 0 0 1 8.063-5.648 26.024 26.024 0 0 1 10.14-2.08l.402.001c1.08 0 2.275.047 3.645.146 1.22.096 2.43.306 3.61.626l.454.128V25.71zm195.96 19.801a22.32 22.32 0 0 1 9.287 1.834 20.317 20.317 0 0 1 6.89 5.01 21.188 21.188 0 0 1 4.296 7.547 30.331 30.331 0 0 1 1.411 9.468c0 1.23-.052 2.455-.15 3.645l-.072.814c-.07.74-.135 1.276-.213 1.746H442.92v.383c.272 4.023 1.712 6.966 4.272 8.795 2.56 1.828 5.892 2.71 10.014 2.71a25.809 25.809 0 0 0 6.908-.65l6.257-1.74 2.578 9.92a47.833 47.833 0 0 1-16.252 2.842l-.536-.004c-4.644 0-8.667-.655-11.976-1.938a20.399 20.399 0 0 1-12.724-13.503 36.026 36.026 0 0 1 .046-20.753 24.323 24.323 0 0 1 4.586-8.411 21.844 21.844 0 0 1 7.546-5.642 24.961 24.961 0 0 1 10.484-2.073zM132.02 44.222h.519c8.016 0 14.825 2.032 18.221 5.422 3.106 3.112 4.488 8.075 4.488 16.097v29.142l-.718.215c-2.08.608-4.538 1.197-7.322 1.758a57.104 57.104 0 0 1-10.325.977l-.693-.001c-3.043.02-6.08-.278-9.062-.889a19.122 19.122 0 0 1-7.03-2.902 13.439 13.439 0 0 1-4.487-5.155 17.34 17.34 0 0 1-1.585-7.779c-.092-2.7.59-5.37 1.962-7.697a15.134 15.134 0 0 1 5.068-4.987 22.907 22.907 0 0 1 7.007-2.699 37.152 37.152 0 0 1 7.761-.83 72.9 72.9 0 0 1 6.246.296h.39v-1.51c0-5.288-4.14-8.202-11.657-8.202-4.288.01-8.532.868-12.487 2.525v-11.4a41.947 41.947 0 0 1 13.704-2.381zM45.623 25.71h.469c3.396-.014 6.786.28 10.13.877a25.136 25.136 0 0 1 8.26 2.949 15.192 15.192 0 0 1 5.509 5.509c1.335 2.281 2.014 5.184 2.014 8.638a17.467 17.467 0 0 1-.911 5.717 16.062 16.062 0 0 1-2.438 4.604 15.157 15.157 0 0 1-3.483 3.25 9.317 9.317 0 0 1-3.867 1.568v.708c1.685.251 3.334.703 4.912 1.347A16.834 16.834 0 0 1 71.21 64a16.387 16.387 0 0 1 3.831 5.323 18.5 18.5 0 0 1 1.589 7.53l-.004.353c0 4.163-.79 7.616-2.322 10.258a17.415 17.415 0 0 1-6.386 6.292 27.434 27.434 0 0 1-9.288 3.193 68.485 68.485 0 0 1-11.168.883c-2.903 0-5.922-.088-8.9-.25-2.803-.151-5.967-.447-9.659-.894V26.744a82.017 82.017 0 0 1 6.378-.707l1.184-.079c2.512-.157 5.586-.241 9.158-.248zm318.78 0v51.113c-.028 1.66.087 3.318.342 4.958a7.686 7.686 0 0 0 1.16 3.036 4.127 4.127 0 0 0 2.096 1.555 9.793 9.793 0 0 0 3.048.413c.53.01 1.059-.015 1.585-.076 1.352 2.728 3.558 5.393 7.268 8.766l-4.137.816c-1.91.372-3.663.702-4.07.747l-.036.004a46.853 46.853 0 0 1-4.058.197c-4.911 0-8.905-1.37-11.866-4.063-2.96-2.694-4.44-7.175-4.44-13.317V25.71zM507.89 46.11h.726c.491-.007.982.026 1.468.099l1.55.244-.273 11.528c-.68-.094-1.367-.14-2.055-.133h-1.602a22.93 22.93 0 0 0-3.79.348 8.963 8.963 0 0 0-4.064 1.88 11.134 11.134 0 0 0-3.204 4.558c-.836 2.014-1.26 4.83-1.26 8.37v23.755l-13.206-.012V46.69l13.189.098v6.647l.65-.923c1.3-1.84 2.043-2.403 3.825-3.768l.418-.313a12.249 12.249 0 0 1 7.628-2.322zm-399.395-.017h.732c.491-.007.982.026 1.468.098l1.556.244-.279 11.529a13.99 13.99 0 0 0-2.055-.134h-1.613c-1.27.011-2.535.128-3.785.349a8.899 8.899 0 0 0-4.064 1.88 11.07 11.07 0 0 0-3.198 4.557c-.836 2.009-1.26 4.83-1.26 8.371V96.74l-13.218.006V46.69l13.259.098-.053 6.618.662-.929c1.108-1.563 1.803-2.198 3.072-3.178l1.16-.885a12.225 12.225 0 0 1 7.616-2.322zm186.73-21.293 4.016.853-1.927 10.287-1.892-.378a16.515 16.515 0 0 0-3.21-.25 9.485 9.485 0 0 0-5.805 1.69c-1.632 1.225-2.497 3.715-2.497 7.198v2.514h16.516a20.637 20.637 0 0 0-4.064 3.703 23.98 23.98 0 0 0-3.692 6.171h-8.76V96.67l-13.101-.023V56.564h-8.04v-9.869h8.04V43.88a22.895 22.895 0 0 1 1.399-8.255 16.161 16.161 0 0 1 3.982-6.02 17.682 17.682 0 0 1 6.194-3.755 23.679 23.679 0 0 1 7.536-1.295h1.554c1.255-.042 2.511.04 3.75.244zM189.787 45.51c5.614 0 9.898 1.544 12.725 4.592 2.827 3.047 4.272 7.953 4.272 14.553v31.991H193.58V68.39c0-3.57-.58-6.386-1.666-8.319-1.086-1.933-3.152-3.024-5.95-3.024-1.19.01-2.373.18-3.518.505a7.634 7.634 0 0 0-3.35 2.002 10.606 10.606 0 0 0-2.385 4.11 21.101 21.101 0 0 0-.906 6.78v26.204h-13.2V46.69h13.171v6.565l.656-.981c.164-.282.361-.544.587-.78l.334-.334c.114-.116.257-.265.449-.47a16.8 16.8 0 0 1 3.111-2.59 17.212 17.212 0 0 1 3.994-1.87 15.737 15.737 0 0 1 4.882-.719zm131.228 10.165c-3.71 0-6.438 1.428-8.127 4.243-1.69 2.816-2.45 6.757-2.45 11.9 0 5.144.824 9.143 2.45 11.895 1.625 2.751 4.394 4.243 8.127 4.243 3.732 0 6.536-1.428 8.197-4.243 1.66-2.816 2.455-6.763 2.455-11.895 0-5.131-.784-9.125-2.432-11.9-1.649-2.775-4.418-4.243-8.22-4.243zM137.073 72.928c-3.262 0-5.88.58-7.784 1.742-1.904 1.16-2.967 3.18-2.967 5.851 0 1.776.39 3.17 1.161 4.139a6.734 6.734 0 0 0 2.74 2.119 10.82 10.82 0 0 0 3.026.778l.312.029c1.161.104 2.165.15 3.019.15a18.474 18.474 0 0 0 3-.249l.938-.158c.595-.103 1.133-.198 1.617-.283l.296-.058V73.474l-.302-.047a41.304 41.304 0 0 0-2.565-.348 23.985 23.985 0 0 0-2.49-.15zm261.15-15.79c-1.612.893-3 2.137-4.064 3.64a15.558 15.558 0 0 0-2.363 5.318 26.529 26.529 0 0 0-.746 5.854l-.003.456a21.17 21.17 0 0 0 1.005 6.93 11.784 11.784 0 0 0 2.786 4.604 10.524 10.524 0 0 0 4.209 2.485c1.694.508 3.455.758 5.224.743 1.097 0 2.13-.047 3.07-.14.911-.112 1.812-.292 2.694-.54l.639-.185V56.639l-.273-.064c-1.061-.282-2.14-.5-3.227-.65a27.452 27.452 0 0 0-3.147-.15 11.94 11.94 0 0 0-5.805 1.364zm-165.6-.092a12.08 12.08 0 0 0-4.092 3.634 15.4 15.4 0 0 0-2.357 5.317 26.623 26.623 0 0 0-.743 6.31 21.263 21.263 0 0 0 .998 6.925 11.662 11.662 0 0 0 2.787 4.61 10.362 10.362 0 0 0 4.208 2.484c1.694.51 3.456.763 5.225.749 1.103 0 2.136-.052 3.077-.145a17.415 17.415 0 0 0 2.724-.538l.637-.188V56.546l-.267-.07a26.355 26.355 0 0 0-3.234-.65 26.778 26.778 0 0 0-3.158-.15 11.854 11.854 0 0 0-5.805 1.37zm-183.476 8.44h-6.77v21.055l.307.046c.929.128 2.014.227 3.216.296 1.202.07 2.258.093 3.309.093a25.64 25.64 0 0 0 4.371-.395 13.264 13.264 0 0 0 4.33-1.567 9.619 9.619 0 0 0 3.362-3.25A10.031 10.031 0 0 0 62.6 76.33c.06-1.795-.286-3.581-1.01-5.225a8.54 8.54 0 0 0-2.903-3.378 11.993 11.993 0 0 0-4.446-1.742 28.526 28.526 0 0 0-5.095-.5zM453.91 55.38c-3.36 0-5.955.963-7.709 2.861-1.753 1.899-2.803 4.552-3.14 7.953l-.035.395h20.567v-.371c-.133-3.199-1.033-5.805-2.682-7.814-1.648-2.009-4.023-3.024-7-3.024zM42.72 35.88l-.302.047V55.41h4.661a22.849 22.849 0 0 0 4.644-.442 9.927 9.927 0 0 0 3.809-1.63 7.988 7.988 0 0 0 2.571-3.182c.66-1.583.973-3.29.917-5.004a9.781 9.781 0 0 0-1.08-4.83 8.33 8.33 0 0 0-2.792-2.972 10.153 10.153 0 0 0-3.755-1.416 23.62 23.62 0 0 0-4.03-.348 30.767 30.767 0 0 0-4.643.296z"/>
  <path fill="#39c5eb" d="M83.731 19.052V25.095H76.54l13.804 13.804 13.793-13.804h-7.204V0H0v120.245h96.932v-13.201H13.2V13.201h70.53z"/>
</svg>
