<svg xmlns="http://www.w3.org/2000/svg" viewBox="0 0 256 240.878">
  <path fill="#40d1f5" fill-rule="evenodd" d="M0 240.878h209.074v-31.804H31.804V31.804h177.352v116.372h-15.204l30.983 31.065L256 148.176h-15.122V0H0zM80.622 51.364c4.109-.657 8.793-1.15 14.217-1.561 5.424-.411 12.081-.575 20.135-.575 6.986 0 13.642.575 19.888 1.725 6.246 1.151 11.752 3.123 16.355 5.835 4.684 2.795 8.3 6.41 11.012 11.013 2.712 4.602 4.027 10.355 4.027 17.258 0 4.11-.575 7.89-1.808 11.424s-2.876 6.574-4.849 9.204c-2.054 2.63-4.355 4.767-6.903 6.493-2.548 1.726-5.178 2.794-7.807 3.123 2.958.41 6.163 1.315 9.78 2.712a32.06 32.06 0 0 1 9.944 6.246c3.04 2.712 5.67 6.328 7.643 10.601 2.054 4.356 3.04 9.534 3.04 15.697 0 8.3-1.561 15.122-4.684 20.382-3.123 5.341-7.314 9.45-12.656 12.574-5.26 3.04-11.424 5.177-18.41 6.328-6.985 1.15-14.3 1.726-21.942 1.726-5.917 0-11.67-.165-17.423-.494-5.753-.328-12.245-.904-19.56-1.808zm27.777 116.865v-39.86h11.506c3.945 0 7.56.33 10.848.987 3.287.657 6.082 1.726 8.465 3.37 2.383 1.561 4.191 3.698 5.424 6.328 1.233 2.63 1.89 5.917 1.89 9.862 0 4.19-.822 7.643-2.465 10.272-1.644 2.63-3.78 4.685-6.328 6.164a24.665 24.665 0 0 1-8.219 2.959c-2.958.493-5.752.74-8.464.74-1.89 0-4.027-.083-6.41-.165a92.223 92.223 0 0 1-6.247-.657m8.465-60.898H108.4V70.513c2.466-.41 5.424-.575 9.04-.575 2.548 0 5.178.246 7.726.657 2.63.493 5.013 1.315 7.067 2.712 2.137 1.315 3.863 3.205 5.178 5.589 1.315 2.383 1.972 5.424 1.972 9.122 0 3.863-.575 6.986-1.726 9.533-1.15 2.466-2.712 4.438-4.766 5.917-2.055 1.48-4.438 2.466-7.232 3.041a47.76 47.76 0 0 1-8.794.822"/>
</svg>
