<svg xmlns="http://www.w3.org/2000/svg" viewBox="0 0 256 255.934">
  <path fill="#333e48" d="M256 127.996C256 57.4 198.578 0 128.004 0 57.429 0 0 57.4 0 127.996c0 66.694 51.273 121.629 116.471 127.472h.314c1.07.092 2.142.172 3.217.24l.62.037c.972.058 1.96.102 2.961.131h.78c1.212 0 2.422.058 3.648.058 1.225 0 2.312 0 3.465-.05h.489c1.016-.03 2.027-.071 3.034-.125h.204c2.271-.126 4.528-.313 6.77-.561C205.996 248.253 256 193.858 256 127.996zm-114.465 115.02-1.233-35.4 30.914-18.966a23.306 23.306 0 0 0 36.473-19.9c-.496-12.277-10.336-22.117-22.613-22.612a23.167 23.167 0 0 0-23.678 26.99l-21.818 13.494-1.583-44.606 30.425-18.608c10.689 7.982 25.57 7.116 35.26-2.052 9.691-9.168 11.38-23.978 4.002-35.092-7.377-11.115-21.682-15.309-33.893-9.938-12.211 5.371-18.787 18.749-15.58 31.698l-20.943 12.999-1.24-35.597a24.94 24.94 0 0 0 15.923-24.298c-.518-12.446-10.144-22.6-22.545-23.782-12.4-1.182-23.77 6.97-26.632 19.094-2.86 12.124 3.666 24.5 15.287 28.986L115.8 159.18l-22.795-14.523a27.114 27.114 0 0 0-2.05-18.499c-4.56-9.483-13.75-16.208-24.232-16.865a28.893 28.893 0 1 0 16.646 51.003l31.774 20.104-1.91 62.477C56.334 235.62 12.144 186.87 12.144 127.997 12.19 64.14 64.14 12.173 128.004 12.173c63.863 0 115.814 51.952 115.814 115.815 0 59.29-44.78 108.301-102.283 115.027z"/>
  <path fill="#009bde" d="M127.273 47.164c8.323.008 15.068 6.753 15.076 15.076 0 8.326-6.75 15.076-15.076 15.076-8.327 0-15.077-6.75-15.077-15.076s6.75-15.076 15.077-15.076zm56.836 108.64c7.55-.004 13.681 6.1 13.71 13.65a13.687 13.687 0 1 1-13.71-13.65zm8.436-39.71c-7.997 3.887-17.631.565-21.534-7.425a16.11 16.11 0 1 1 21.534 7.426zm-128.185 4.48c9.592.009 17.367 7.783 17.375 17.375-.004 9.59-7.78 17.361-17.37 17.36-9.59-.001-17.364-7.775-17.365-17.365-.001-9.59 7.77-17.365 17.36-17.37z"/>
</svg>
