<svg xmlns="http://www.w3.org/2000/svg" viewBox="0 0 429.518 131.9">
  <defs>
    <linearGradient id="a" x1="-.001" x2="121.664" y1="60.856" y2="60.856" gradientTransform="scale(.92313 1.08328)" gradientUnits="userSpaceOnUse">
      <stop offset="0%" stop-color="#F50"/>
      <stop offset="40.99%" stop-color="#F50"/>
      <stop offset="58.2%" stop-color="#FF2000"/>
      <stop offset="100%" stop-color="#FF2000"/>
    </linearGradient>
    <linearGradient id="b" x1="5.833" x2="51.932" y1="23.505" y2="23.505" gradientTransform="scale(1.97888 .50534)" gradientUnits="userSpaceOnUse">
      <stop offset="0%" stop-color="#FF452A"/>
      <stop offset="100%" stop-color="#FF2000"/>
    </linearGradient>
  </defs>
  <g fill="none">
    <path fill="#131525" d="M142.818 71.5V26.2h4.3c3.6 0 6.5 2.9 6.5 6.4v20.2c7-6.2 12.9-8.7 20.8-8.8 15.1-.3 28.2 10.9 29.5 26 1.5 18-11.6 31.5-28.7 31.5-18.8-.1-32.4-11.7-32.4-30zm10.6 3.6c1.1 9.4 10 17.1 19.5 17.3 12.3.2 20.7-7.8 20.7-19.7 0-11.9-8.3-19.7-20.2-19.7-12.8 0-21.5 9.2-20 22.1zm68.3-30.1v8.1c6.8-7.5 10.8-9.5 18.7-9.5 2.3 0 4.6.2 6.9.6v10.7c-2.4-.7-4.9-1-7.4-1-5.7 0-10.5 1.9-14.1 5.4-3.1 3.1-4 5.5-4 10.4v29.9h-11.2V45zm28.2 18.1c.6-5.3 1.6-8.2 3.9-10.9 4.6-5.6 12.8-8.5 24.5-8.5 9.3 0 16 1.4 20.7 4.5 3.9 2.5 5.5 6.3 5.5 12.9v24.2c0 5.3 1.4 7.2 5.2 7.1.8 0 1.7-.1 2.5-.2v7.3c-1.9.6-3.9.9-5.8.9-7 0-10.2-2.1-12.4-8.2-6.9 6.3-14 9-24.2 9-13.6 0-22-6.2-22-16.3-.1-5.7 3.3-11 8.6-13.3 4.1-1.8 6.6-2.3 18.4-3.5 10.1-1 11.8-1.2 14.7-2.1 3.1-1 4.5-2.7 4.5-5.4 0-5.9-4.9-8.5-15.2-8.5-9.7 0-14.8 1.9-16.8 6.9-1 2.5-3.4 4.2-6.1 4.2zm44.1 9.3c-7.1 2.1-14.3 3.4-21.7 4-10 1-13.1 2.9-13.1 7.8 0 5.5 4.6 8.4 13.6 8.4 7.4 0 13.1-1.9 17.1-5.5 3.2-3 4-5.1 4-10.3v-4.4zm45.1 27.1h-2.9c-2.5 0-4.8-1.4-5.9-3.7l-24-50.8h6.7c3.9 0 7.4 2.2 9 5.8l16 36.5 16.6-36.6c1.6-3.5 5.1-5.7 9-5.7h6.1l-24.6 50.9c-1.2 2.3-3.5 3.7-6 3.6zm38.1-24c1.1 10.5 9.4 17 21.6 17 7 0 12.2-2.1 15.4-6.2 1.9-2.4 4.8-3.7 7.8-3.7h6.5c-5.7 12.3-15.7 18.4-30.7 18.4-18.7 0-31.4-11.4-31.4-28.4s12.9-29 31.6-29c13.5 0 24.4 6.1 28.8 16.3 1.9 4.7 2.7 8.8 2.7 15.6zm41-8.5c-2.5-9.6-10-15-20.3-15s-17.8 5.4-20.4 15z"/>
    <path fill="url(#a)" d="m108.4 31.6 3.1-7.6s-3.9-4.2-8.7-9c-4.8-4.8-14.9-2-14.9-2L76.4 0H35.9L24.4 13.1s-10.1-2.8-14.9 2c-4.8 4.8-8.7 9-8.7 9l3.1 7.6L0 42.9s11.6 43.8 12.9 49.2c2.7 10.5 4.5 14.6 12.1 20s21.3 14.6 23.6 16c2.2 1.4 5.1 3.8 7.6 3.8s5.3-2.4 7.6-3.8c2.2-1.4 16-10.7 23.6-16 7.6-5.3 9.4-9.4 12.1-20 1.4-5.4 12.9-49.2 12.9-49.2z" style="fill:url(#a)"/>
    <path fill="#fff" d="M84.7 21.4s14.8 17.9 14.8 21.8c0 3.9-1.9 4.8-3.8 6.8S85.6 60.7 84.6 61.8c-1.1 1.1-3.2 2.8-2 5.9 1.3 3 3.2 6.9 1.1 10.9-2.1 3.9-5.7 6.6-8 6.1-2.3-.4-7.8-3.3-9.8-4.6-2-1.3-8.3-6.5-8.3-8.5s6.6-5.6 7.8-6.4c1.2-.8 6.7-4 6.8-5.2.1-1.2.1-1.6-1.6-4.7-1.6-3.1-4.6-7.2-4.1-9.9s5.2-4.1 8.6-5.4c3.4-1.3 9.9-3.7 10.7-4.1.8-.4.6-.7-1.9-1-2.5-.2-9.4-1.2-12.6-.3-3.2.9-8.5 2.2-9 2.9-.4.7-.8.7-.4 3.2.4 2.4 2.8 14.2 3 16.3.2 2.1.7 3.5-1.6 4-2.2.5-6 1.4-7.3 1.4-1.3 0-5.1-.9-7.3-1.4-2.2-.5-1.8-1.9-1.6-4 .2-2.1 2.5-13.8 3-16.3.4-2.4.1-2.5-.4-3.2-.4-.7-5.8-2-9-2.9-3.2-.9-10.1 0-12.6.3-2.5.2-2.7.6-1.9 1 .8.4 7.3 2.8 10.7 4.1 3.4 1.3 8.1 2.7 8.6 5.4s-2.4 6.8-4.1 9.9c-1.6 3.1-1.7 3.4-1.6 4.7.1 1.2 5.6 4.4 6.8 5.2 1.2.8 7.8 4.4 7.8 6.4s-6.3 7.2-8.3 8.5c-2 1.3-7.4 4.1-9.8 4.6-2.3.4-5.9-2.2-8-6.1-2.1-3.9-.2-7.8 1.1-10.9 1.3-3-.9-4.7-2-5.9-.8-1.2-8.9-9.9-10.8-11.8-1.9-2-3.7-3-3.7-6.8s14.8-21.8 14.8-21.8 12.5 2.4 14.2 2.4c1.7 0 5.3-1.4 8.7-2.5 3.4-1.1 5.6-1.1 5.6-1.1s2.2 0 5.6 1.1c3.4 1.1 7 2.5 8.7 2.5 1.7 0 14.2-2.4 14.2-2.4z"/>
    <path fill="#fff" d="M73.6 89.9c.9.6.4 1.7-.5 2.2-.8.6-12.1 9.3-13.1 10.3-1.1 1-2.7 2.5-3.8 2.5-1.1 0-2.7-1.6-3.8-2.5-1.1-1-12.3-9.7-13.1-10.3-.8-.6-1.4-1.7-.5-2.2.9-.6 3.8-2 7.7-4.1 4-2.1 8.9-3.8 9.7-3.8.8 0 5.7 1.7 9.7 3.8 3.9 2.1 6.7 3.6 7.7 4.1z"/>
    <path fill="url(#b)" d="M87.9 13.1 76.4 0H35.9L24.4 13.1s-10.1-2.8-14.9 2c0 0 13.5-1.2 18.1 6.3 0 0 12.5 2.4 14.2 2.4 1.7 0 5.3-1.4 8.7-2.5 3.4-1.1 5.6-1.1 5.6-1.1s2.2 0 5.6 1.1c3.4 1.1 7 2.5 8.7 2.5 1.7 0 14.2-2.4 14.2-2.4 4.6-7.5 18.1-6.3 18.1-6.3-4.7-4.8-14.8-2-14.8-2" style="fill:url(#b)"/>
  </g>
</svg>
