<svg xmlns="http://www.w3.org/2000/svg" viewBox="0 0 218.157 256.005">
  <defs>
    <linearGradient id="b" x1="5.833" x2="51.932" y1="23.505" y2="23.505" gradientTransform="scale(1.9789 .50534)" gradientUnits="userSpaceOnUse">
      <stop offset="0" stop-color="#FF452A"/>
      <stop offset="1" stop-color="#FF2000"/>
    </linearGradient>
    <linearGradient id="a" x1="-.001" x2="121.66" y1="60.856" y2="60.856" gradientTransform="scale(.92313 1.0833)" gradientUnits="userSpaceOnUse">
      <stop offset="0" stop-color="#F50"/>
      <stop offset=".41" stop-color="#F50"/>
      <stop offset=".582" stop-color="#FF2000"/>
      <stop offset="1" stop-color="#FF2000"/>
    </linearGradient>
  </defs>
  <g fill="none">
    <path fill="url(#a)" d="m108.4 31.6 3.1-7.6s-3.9-4.2-8.7-9c-4.8-4.8-14.9-2-14.9-2L76.4 0H35.9L24.4 13.1s-10.1-2.8-14.9 2c-4.8 4.8-8.7 9-8.7 9l3.1 7.6L0 42.9s11.6 43.8 12.9 49.2c2.7 10.5 4.5 14.6 12.1 20s21.3 14.6 23.6 16c2.2 1.4 5.1 3.8 7.6 3.8s5.3-2.4 7.6-3.8c2.2-1.4 16-10.7 23.6-16 7.6-5.3 9.4-9.4 12.1-20 1.4-5.4 12.9-49.2 12.9-49.2z" style="fill:url(#a)" transform="scale(1.9409)"/>
    <path fill="#fff" d="M164.394 41.535s28.726 34.742 28.726 42.312-3.688 9.316-7.376 13.198c-3.688 3.882-19.603 20.768-21.544 22.903-2.135 2.135-6.21 5.434-3.882 11.45 2.524 5.824 6.211 13.393 2.135 21.157-4.076 7.57-11.063 12.81-15.527 11.84-4.464-.777-15.139-6.406-19.02-8.929-3.882-2.523-16.11-12.616-16.11-16.498 0-3.881 12.81-10.869 15.139-12.421 2.329-1.553 13.004-7.764 13.198-10.093.194-2.33.194-3.105-3.105-9.122-3.106-6.017-8.929-13.975-7.958-19.215.97-5.24 10.093-7.958 16.692-10.481 6.599-2.523 19.215-7.181 20.767-7.958 1.553-.776 1.165-1.358-3.687-1.94-4.853-.389-18.245-2.33-24.456-.583-6.21 1.747-16.497 4.27-17.468 5.629-.776 1.358-1.553 1.358-.776 6.21.776 4.659 5.434 27.561 5.822 31.637.389 4.076 1.359 6.793-3.105 7.764-4.27.97-11.645 2.717-14.169 2.717-2.523 0-9.898-1.747-14.168-2.717s-3.494-3.688-3.106-7.764c.389-4.076 4.853-26.784 5.823-31.636.776-4.659.194-4.853-.776-6.211-.777-1.359-11.257-3.882-17.468-5.629-6.211-1.747-19.603 0-24.456.582-4.852.389-5.24 1.165-3.687 1.941 1.552.777 14.168 5.435 20.767 7.958 6.6 2.523 15.722 5.24 16.692 10.48.97 5.241-4.658 13.199-7.958 19.216-3.105 6.017-3.3 6.599-3.105 9.122.194 2.33 10.869 8.54 13.198 10.093 2.329 1.552 15.139 8.54 15.139 12.421 0 3.882-12.228 13.975-16.11 16.498-3.881 2.523-14.362 7.958-19.02 8.928-4.464.777-11.452-4.27-15.528-11.84-4.075-7.569-.388-15.138 2.135-21.155 2.524-5.823-1.746-9.122-3.881-11.451-1.553-2.33-17.274-19.215-20.962-22.903-3.688-3.882-7.181-5.823-7.181-13.198 0-7.376 28.725-42.312 28.725-42.312s24.261 4.658 27.56 4.658c3.3 0 10.287-2.717 16.887-4.852 6.599-2.135 10.869-2.135 10.869-2.135s4.27 0 10.869 2.135 13.586 4.852 16.885 4.852c3.3 0 27.561-4.658 27.561-4.658z"/>
    <path fill="#fff" d="M142.85 174.487c1.747 1.164.777 3.3-.97 4.27-1.553 1.164-23.485 18.05-25.426 19.991-2.135 1.941-5.24 4.852-7.375 4.852s-5.24-3.105-7.376-4.852c-2.135-1.94-23.873-18.827-25.426-19.991-1.552-1.165-2.717-3.3-.97-4.27 1.747-1.165 7.375-3.882 14.945-7.958 7.763-4.076 17.274-7.375 18.827-7.375 1.552 0 11.063 3.3 18.826 7.375 7.57 4.076 13.004 6.987 14.945 7.958z"/>
    <path fill="url(#b)" d="M87.9 13.1 76.4 0H35.9L24.4 13.1s-10.1-2.8-14.9 2c0 0 13.5-1.2 18.1 6.3 0 0 12.5 2.4 14.2 2.4 1.7 0 5.3-1.4 8.7-2.5 3.4-1.1 5.6-1.1 5.6-1.1s2.2 0 5.6 1.1c3.4 1.1 7 2.5 8.7 2.5 1.7 0 14.2-2.4 14.2-2.4 4.6-7.5 18.1-6.3 18.1-6.3-4.7-4.8-14.8-2-14.8-2" style="fill:url(#b)" transform="scale(1.9409)"/>
  </g>
</svg>
