<svg xmlns="http://www.w3.org/2000/svg" viewBox="0 0 256 256">
  <path fill="#ea3" d="M94.88 251.608C26.612 233.316-13.9 163.146 4.391 94.879 22.684 26.613 92.854-13.9 161.121 4.392c68.266 18.292 108.779 88.462 90.487 156.729-18.292 68.266-88.462 108.779-156.729 90.487z"/>
  <path fill="#fff" d="M101.607 226.5c-13.6-3.644-12.809-50.698 1.768-105.098 14.576-54.4 37.418-95.547 51.018-91.902 13.6 3.644 12.809 50.698-1.768 105.098-14.576 54.4-37.418 95.547-51.018 91.902zM176.366 193.746c-6.8-1.822-6.404-25.35.884-52.55 7.288-27.2 18.71-47.773 25.51-45.95 6.8 1.822 6.404 25.349-.885 52.549-7.288 27.2-18.709 47.773-25.509 45.95zM53.24 160.755c-6.8-1.823-6.404-25.35.885-52.55 7.288-27.2 18.709-47.773 25.509-45.95 6.8 1.821 6.404 25.348-.884 52.548-7.288 27.2-18.71 47.774-25.51 45.952z"/>
</svg>
