<svg xmlns="http://www.w3.org/2000/svg" viewBox="0 0 256 256">
  <path fill="#ffd539" d="M128 0c70.692 0 128 57.308 128 128 0 70.692-57.308 128-128 128C57.308 256 0 198.692 0 128 0 57.308 57.308 0 128 0"/>
  <path fill="#fff" d="M174.972 58.4c1.046 3.634-1.715 36.458 50.742 56.229-3.734 7.564-20.4 14.729-50.285 21.485-3.541-43.786-11.771-65.6-.457-77.714"/>
  <path d="M183.878 132.81c-2.295.516-4.616.977-6.965 1.384-.57-10.574-1.81-19.822-3.033-28.096 3.88.723 7.656-1.756 8.489-5.64a7.315 7.315 0 0 0-8.685-8.685 4.573 4.573 0 0 1-.605 8.945c-2.4-16.052-4-28.424 1.198-40.227-.075 13.145 5.625 24.984 15.856 34.975 9.36 9.145 22.39 16.238 32.737 18.888.574.685.602 1.52-.145 2.662a26.071 26.071 0 0 1-2.751 1.873c-9.87 5.785-21.944 10.739-36.096 13.92m48.027-24.74c0-6.06-4.912-10.972-10.971-10.972-5.15 0-9.457 3.552-10.64 8.336-16.955-8.825-36.345-26.725-31.605-52.577 3.526-4.892 8.438-9.804 15.246-14.966-12.733-1.493-26.268.816-39.16 5.767-.202-6.701.602-13.876 2.7-22.29-12.36 3.153-24.114 10.104-34.338 19.278-2.605-6.2-4.423-13.215-5.483-21.851-10.464 7.412-18.981 18.19-25.25 30.5-4.693-4.874-8.938-10.803-13.053-18.543-7.1 10.648-11.185 23.73-12.633 37.439-5.996-2.856-11.964-6.818-18.438-12.445-2.81 12.473-1.941 26.136 1.613 39.44-6.76-.478-13.886-2.034-22.135-5.036 1.849 12.662 7.565 25.117 15.662 36.272-6.366 1.89-13.438 2.952-22.012 3.103 6.286 11.196 16.13 20.803 27.739 28.327-5.353 4.183-11.716 7.802-19.881 11.1h.002c9.838 8.166 22.406 13.595 35.873 16.469-3.464 5.656-8.025 11.167-14.287 17.007 12.087 4.089 25.735 4.66 39.31 2.532-1.191 6.619-3.473 13.49-7.288 21.31h.002c12.785-.515 25.77-4.896 37.709-11.782 1.279 6.639 1.619 13.91.855 22.636 25.777-11.106 45.8-39.881 52.862-68.366 1.916-5.15 2.935-12.6 2.935-22.884 0-2.758-.066-5.41-.162-8.005 20.85-3.54 36.025-10.711 44.745-15.825 3.198-1.875 6.44-4.63 7.48-6.887a10.922 10.922 0 0 0 2.603-7.087"/>
</svg>
