<svg xmlns="http://www.w3.org/2000/svg" viewBox="0 0 512.315 151.952">
  <g fill-rule="evenodd" stroke="none" stroke-opacity="0">
    <path fill="#e6b35a" d="M108.933 45.87c-1.575.015-3.047.291-4.214.875-2.612 1.306-6.1.672-8.708 1.976-2.512 1.255-3.787 2.972-5.823 4.354.237-.722.477-1.426.717-2.134-.27.32-.527.65-.822.945-.287.286-.424.761-.472 1.329-.048.567-.02 1.215.017 1.87.037.656.086 1.32.053 1.872-.025.413-.158.683-.297.944 4.413-2.098 10.27-4.366 12.17-2.466 1.578 1.578 2.287 3.494 3.952 5.159.263.263.85.38 1.434.542.334 0 .644-.06.874-.175.14-.07.484.023.595-.087.36-.36.49-.684.891-1.085.301-.3.595-1.12.595-1.59 0-.493-.36-1.444-.7-1.784-.118-.12-.874-.669-.874-.787 0-.59 2.016.844 2.064.892.131.131-.027.55.105.681.191.192-.033.53.104.805.458.915-.351 2.415-.804 2.868-.54.54.68.212.892 0 .204-.204.411-.622.594-.805.015-.014-.011-.28 0-.28.179 0 .173 1.507 0 1.68-.54.539-1.047.994-1.923 1.188 2.05 1.515 4.94 2.773 6.435 4.267.424.424 2.9-.138 3.165-.402 1.882-1.882 3.245-5.221 5.543-7.52.712-.711-.573-4.14-.787-4.354-.882-.881-.705-3.082-1.976-4.354-2.285-2.285-8.073-4.468-12.8-4.424z"/>
    <path fill="#e6b35a" d="M91.884 42.198a.614.614 0 0 0-.28.175c-.05.05-.247-.05-.297 0-.305.305-.825.423-1.189.787-1.002 1.002-1.88 2.034-2.903 3.078-4.873 1.757-9.415 3.254-14.916 3.899.413.04.837.1 1.26.175-.88.083-2.286.041-2.728.262a6.898 6.898 0 0 1-.927.28c.233-.023 1.004.017 1.119.017.696 0 1.428.21 2.08.21.979 0 2.137-.03 3.253-.052 1.842.616 3.557 1.485 4.774 2.483.697.572-.138 4.491-.297 5.193-.738 3.251 1.98 12.575.262 14.671-.752.917.412 3.571.7 5.404.89.678 1.69 2.892 1.94 3.392.234.467.84 1.033.84 1.539 0 .069-1.138-1.138-1.26-1.26-.173-.173-1.047-1.317-1.66-1.905-.072.421-.118 1.03-.14 1.748.372.385.775.765.961 1.137.373.744.76 1.458 1.26 1.958.427.428-.878-.298-1.12-.42-.152-.075-.604-.45-1.101-.804.038 4.045.428 9.71.594 11.384.347 3.505-.133 6.832-.14 6.767-.008-.085-1.69 2.069-2.832 3.463-1.689 2.06-3.711 5.27-5.788 7.92.897-.892 2.04-1.988 3.147-2.482 2.547-1.139 8.815-6.049 12.538-8.638.824.592 2.567-2.05 5.14.524.332.331 1.377 3.567 1.172 3.567-1.812 0-2.143 1.792-1.171 2.763.496.496.98.266 1.364-.262.398-1.134.792-2.652.087-3.358-.116-.116.117-.582 0-.699-.63-.631-.362-1.901-1.119-2.658-.26-.26-1.379-.858-1.661-1.469-.02-.02-.05-.033-.07-.052-.207-.207-.65-.179-.962-.28-.232-.305-.713-.884-.262-2.063.787-2.062 1.005-5.826.787-8.027-.074-.74.017-2.316.192-4.126.002-.006-.002-.012 0-.018.28-1.07.718-2.222 1.102-2.99.299-.598-.05-1.909.402-2.36.242-.243.212-.757.192-1.26-1.295.332-2.825.698-3.41.875.071-.067.148-.148.193-.193.157-.157.696-.278.979-.42.939-.469 1.792-.968 2.326-1.223a.523.523 0 0 1 .105-.158c.837-.837.093-3.405-.752-5.21a6.252 6.252 0 0 1 .035-1.347c.385-2.619.36-5.305.297-7.991-.141-.008-.296-.018-.472-.018-.076 0-1.738-.088-2.151-.035.109-.045.417-.217.752-.384.195-.098 1.096-.208 1.853-.298-.011-.479-.026-.955-.035-1.434-1.311.11-3.286.262-3.077.053.335-.335 2.169-.315 2.658-.56.056-.028.207-.088.402-.157-.02-1.6.001-3.193.14-4.774.164-.1.373-.213.542-.315.113-.273.209-.548.192-.961-.022-.553-.126-1.205-.227-1.854s-.202-1.302-.21-1.871c-.008-.57.093-1.05.35-1.364.264-.322.48-.67.717-1.014.082-.352.165-.716.245-1.067.291-1.284-.483-3.153-.018-4.371.075-.196.683-1.076.665-1.26-.007-.065-.073-.083-.175-.07-.514.07-2.057.982-3.095 1.574.227-.823-.534-1.92-1.172-1.766zM90.8 80.703c-.11.1-.21.169-.21.07 0-.013.087-.032.21-.07z"/>
    <path fill="#e6b35a" d="M46.332 1.088c-.758.093-1.51.217-2.22.454-4.804 1.602-9.23 3.601-13.85 5.141-1.752.584-3.793 2.491-5.14 3.165-5.585 2.793-10.569 5.802-15.773 8.691-.716.18-1.37.274-1.627.018-4.21-4.21 4.03-6.579 2.763-9.11-1.965-3.93-8.235 1.1-9.11 1.975-.831.831-.787 2.71-.787 4.354 0 .31-.197 1.779 0 1.976.922.922.877 2.469 1.976 3.567 1.915 1.916 5.45 1.776 7.886.822.023.046.047.076.07.123 1.05-.487 1.838-.86 1.941-.945 4.495-3.703 8.536-5.264 13.85-7.92 1.389-.696 7.305-4.44 8.708-5.142 1.87-.935 4.717-1.437 7.519-1.976.527-.527 1.209-.848 1.993-1.014a311.921 311.921 0 0 1 1.801-4.18zm7.537 42.597c-2.727 2.88-5.671 4.822-7.782 5.333.057.034.118.056.175.087-1.847.447-3.582.942-4.529 1.889-.183.183-.932-.12-1.171 0-4.873 2.436-11.66 1.762-15.039 5.14-2.083 2.084 13.691-1.975 13.85-1.975 1.36 0 4.322-.588 5.525-1.19.587-.292 2.11 0 2.78 0 4.422 0 6.918 1.492 11.07 3.568 1.272.636 1.642 2.027 2.378 2.763 1.454 1.455 3.202 2.837 4.354 5.14.343.687-.165 3.403.402 3.97 3.58 3.58-3.174 20.573-5.543 22.942-2.758 2.758-5.875 5.473-8.306 7.904-1.078 1.077-2.815 1.241-3.952 2.378-.581.581-2.246.336-3.183.805-3.146 1.573-6.232 1.533-9.495 3.165-.881.44-2.653.598-4.704.682l-4.196-.91c-1.27.802.986-.675-.49.21-.424.255-.959.892-1.574.892-.278 0-1.89-.699-2.08-.507-.194.193-.766.276-.997.507l-.892.874c-.819.82.305 2.588 1.486 2.588.546 0 .65-1.052.892-1.294.537-.537 1.725-.892 2.57-.892.024 0-.104.15-.104.193v.997c0 .389-.04 1.864-.193 2.168-.134.268-.061.63-.192.892-.047.093-.21.297-.105.297.377 0 .313-2.868 1.889-2.868 1.023 0 1.522.77 2.36 1.19.418.208.987.195 1.4.401.251.126.533.171.786.298.08.04.49.324.49.297 0-.304-1.715-1.08-2.239-2.168 3.18-.666 6.66-.042 9.863-.682 5.294-1.06 10.184-2.191 15.16-4.634.02.194.07.35.175.454.124.124 1.137-.42 1.277-.49 1.07-.535 4.19-.527 5.246 0 .026.014.538.016 1.031.036-.36-.134-.687-.285-.734-.332-.133-.134-1.834-.452-2.378-.997-.161-.161-.272-.456-.333-.822 9.683-9.607 18.875-16.492 15.773-32-.835-4.173-1.602-8.707-3.97-12.258-3.923-5.886-11.773-4.69-14.46-6.96-.525-.114-1.084-.193-1.294-.49-.017 0-.088.004-.088 0 0-.006.042-.037.053-.052a.476.476 0 0 1-.053-.227c0-1.845 5.282-2.932-.91-6.312zm8.393 60.45c.433.16.918.289 1.05.157.095-.095-.473-.135-1.05-.157z"/>
    <path fill="#e6b35a" d="M46.437 2.906c-.657-.032-2.236.927-2.85.927-2.188 0-15.806 6.853-17.067 8.114-.696.696-.965 3.483-1.399 3.917-1.218 1.218-1.915 4.382-2.71 7.344-.551 1.34-.91 2.85-1.486 3.427-.207.207-.109.808-.28.98-.519.518-1.441.881-1.819 1.259-.138.138-1.188.244-1.539.42a9.35 9.35 0 0 1-.891.384c.243-.022.99.154 1.031.175.228.114.652.092.84.28.255.255.659 1.119.979 1.119 2.661 0-.923-1.511 1.416-1.661.892.921 3.651 6.562 4.32 9.337.004.031.012.056.017.088.044.296.072.644.105.979.022.63.068 1.206.122 1.731.32 6.924-.77 18.497-.77 22.557 0 2.727-.39 11.863.403 13.447.357.715-.14 1.853-.402 2.379-1.391 2.782 1.175 15.079-.647 17.626.347.503.606 1.078 1.031 1.504.182.182 1.637 5.574 2.414 8.48 3.415-.032 6.877.024 8.778-.926 2-1 4.36-1.621 6.155-2.518.386-.193 2.095-1.017 3.025-1.33-1.282-.187-4.22-1.188-4.424-1.188-.558 0-1.212-.155-1.906-.403.07-.015.139-.036.21-.052-2.408-1.613-4.209-5.65-3.567-8.743-1.159-6.444-.315-16.517-.315-22.208 0-6.066.693-12.404.787-18.798-.485.144-.96.247-1.084.123-.28-.28-.414-2.698-.595-4.18-.205-.467-.347-.818-.385-.856-.541-.542-.943-1.327-1.259-1.959-.035-.07-.529-.839-.42-.839.262 0 1.18 1.319 1.4 1.539.05.05.105.081.174.105h.018c.275.035.485.056.507.035.382-.382-.28-1.276-.28-1.4 0-.318.043-.749.088-1.223.406.333.787.489 1.031.244 1.043-1.042-.84-5.737-1.399-6.295-.084-.084 0-.706 0-.839 0-.42-.092-.88-.21-1.346.012-.84.058-1.644.175-2.309.223.24.445.502.595.577.657.329.936-1.031 1.12-1.398.504-1.01-.27-3.06-1.26-5.019-.145-3.903-.56-9.118-.804-11.506v-.017c.127-.617.283-1.263.664-1.644.396-.396 1.12 0 1.679 0-.987.628.762 2.875 2.238 1.399 2.369-2.369 3.904-6.422 6.155-8.674.237-.237 2.76-2.835 2.518-3.077a.348.348 0 0 0-.227-.088zm-1.224 100.04c.357.052.612.043.612-.07 0-.106-.25-.051-.612.07zM16.396 29.678c-.047.004-.088.014-.088.035 0 .001.07-.029.088-.035z"/>
    <path fill="#e6b35a" d="M13.58 80.895c-.21.043-.775.51-.909.578-.727.363-1.705.585-2.238 1.119-.604.604-1.416.856-2.099 1.538-.466.467-.792 1.073-1.259 1.54-.177.177.555 1.668.7 1.958.279.558.276 1.252.56 1.818.261.524.39 2.49.699 2.798.293.293.141-.002.28-.14.067-.067.26.3.42.14.345-.346 1.133-.147 1.678-.42.96-.48 3.164.097 4.197-.42.496-.248 1.163-.413 1.853-.524.045.042.078.081.123.123-.005.011-.013.023-.018.035.103.072.198.153.297.227.269.24.533.465.682.542.004.003.015-.003.018 0 .588.496 1.149 1.044 1.818 1.714.972.971 2.525 7.875 2.763 8.113 1.002 1.002 1.076 4.24 1.976 5.141.517.517.75 1.152 1.19 1.591.545.547 1.512.727 1.975 1.19.585.585 3.701-3.107 4.162-3.568.199-.199.47-.904.595-.979.304-.183.82-.084.979-.402.04-.08-.038-.128-.158-.157l-4.983-5.194c-.94 0-1.881-4.26-2.763-5.14-2.666-2.666-4.579-4.888-6.837-7.205-.41-.74-.745-1.532-1.434-2.221-.648-.648-1.625-1.292-2.098-2.238-.11-.218-1.343-1.524-1.749-1.434a.136.136 0 0 0-.07.035c-.026.026-.046.06-.07.087a3.18 3.18 0 0 0-.21-.227.08.08 0 0 0-.07-.018z"/>
    <path fill="#e6b35a" d="M57.506 38.229c-.1.138-.392.486-.437.577-.06.118-.147.252-.228.385.107-.13.215-.268.333-.385.102-.103.245-.411.332-.577zm-.665.962c-1.014 1.23-1.591 2.92-2.64 3.969-.802.802-1.435 1.906-.98 2.378l.683-.49c-.177-.353.122-.752.297-1.101.106-.213.402-.832.402-.595 0 .38 1.27.81 1.784.298.679-.68-.71-1.57-.21-2.57.13-.26.297-.683.297-.98 0-.286.185-.61.367-.91zm-6.295 8.148a19.09 19.09 0 0 0-4.144 1.26c-1.262.117-2.52.236-3.69.646-4.803 1.686-9.228 3.781-13.849 5.403-1.751.615-3.793 2.63-5.14 3.34-2.738 1.442-5.324 2.934-7.87 4.442-.284.662-.347 1.351.035 2.116.33.66.705 1.07 1.102 1.329 2.444-1.411 4.994-2.603 7.921-4.145 1.39-.731 7.306-4.682 8.709-5.42 1.87-.985 4.717-1.514 7.519-2.081.832-.876 2.047-1.217 3.445-1.207.425.003.876.04 1.329.105.349-.088.634-.123.751 0 .061.064.121.14.193.192.624.136 1.256.294 1.888.508 1.433.128 3.127.068 4.075 1.066 1.624 1.711 5.328 2.97 7.274 5.019 1.229 1.294 1.17 3.936 1.958 5.595.323.68 1.515 6.052 1.434 6.96a1.21 1.21 0 0 0-.087-.42c-.256-.538-.733-1.907-.997-2.185l-.892-.927c-.157-.166-.467-.106-.664-.158v-.017a.22.22 0 0 0-.053-.087c-.33-.349-.704-.186-1.049-.368-.148-.078-.349.004-.49-.07-1.422-.749-2.727 1.582-2.727 2.868 0 .743 1.203 2.286 2.133 2.518.198-.197 1.012-.147 1.277-.28.363-.181.837-.594 1.101-.594.063 0-.516.411-.892.787-.17.17-.534.397-.856.664.054.204.114.405.244.542.05.052-.05.263 0 .315.246.26.327.635.333 1.05.494-.013 1.05-.106 1.364-.106.515 0 1.084-.31 1.084-.192 0 .14-1.276.332-1.487.402-.34.114-.663.207-.979.315-.03.402-.094.813-.122 1.189h-.035a22.324 22.324 0 0 1-.612 3.812c.005.152.009.303.017.455-.173.472-.371.92-.56 1.364-2.784 8.415-9.833 14.871-13.849 15.895.057.035.119.054.175.087-1.847.47-3.582.996-4.529 1.994-.183.192-.932-.126-1.171 0-4.872 2.565-11.66 1.862-15.038 5.42-2.083 2.194 13.69-2.08 13.849-2.08 1.36 0 4.322-.626 5.525-1.26.587-.308 2.11 0 2.78 0 2.83 0 4.875.643 7.065 1.68.508-.323.925-.526 1.154-.526.384 0 3.632-.941 4.984-1.136-.43-.147-.926-.458-.997-.84-1.672-.4-3.086-.821-3.9-1.678a.155.155 0 0 1-.034-.053 1.784 1.784 0 0 1-.332-.28c-.042-.043-.84.035-.84 0 0-.211 4.119-3.455 4.756-4.126 1.01-1.062 2.04-1.267 3.078-2.36 1.746-1.84 4.41-4.353 6.155-6.19.051.053 3.663-2.968 3.917-3.236.691-.728 1.423-1.272 2.134-1.801.001-.007.015-.01.017-.017.279-1.057 1.357-2.47 1.486-2.606.23-.242.418-.596.595-.997-.012-.155-.035-.4-.035-.472 0-2.437.084-4.749.157-7.03.223-2.215.282-4.564.14-6.767.032-1.389.272-7.704-.017-8.008-.42-.442-.98-.73-1.4-1.172-.149-.157-.382-.222-.664-.245-.49.14-.946.265-1.014.333-.363.362-.97.55-1.399.979-.32.32-.663.943-1.119 1.399-.44.44-.706.846-1.119 1.259-.006.006-.42.714-.42.56 0-.056.359-.499.42-.56.317-.317.27-1.109.56-1.4.869-.868 2.156-1.745 2.623-3.112a2.73 2.73 0 0 1-.105-.105c-.431-.453-1.22-.909-2.186-1.364 0 .152-.01.298-.053.385-.324.65-1.306 2.426-1.678 2.798-.1.1-.184.37-.263.63-.004.073-.017.158-.017.21 0 .057-.06.128-.122.192-.052.132-.1.227-.158.227-.11 0 .038-.105.158-.227a5.47 5.47 0 0 0 .14-.403c.02-.392.1-1.027.402-1.329.088-.088-.059-.443 0-.56.197-.393.72-1.916.56-2.237-.021-.042-.034-.109-.053-.175-.007-.003-.011-.015-.018-.018-3.256-1.349-7.811-2.644-9.862-3.724-.874-.46-1.973-.318-2.518-.892-1.097-1.155-4.545.678-5.91-1.067zM134.096 46.797c1.012 1.739 4.718 2.955 4.564 4.18-2.684 1.98-6.465 3.028-7.764 6.504a39.902 39.902 0 0 0-3.06 5.001c-.31.384-.624.747-.927 1.05-.26.26-.532.854-.7 1.189-.161.324-.594.804-.786.996-.488.488-.98 1.872-1.486 2.378-.011.011-.037.084-.053.105-.46.21-.99.417-1.521.682-.488.244-1.014.061-1.486.298-.043.021-.106.016-.175 0 .226.104 2.172.594 2.343.594.485 0 1.128.2 1.766.472l.017.018c.02.019.134.073.28.122.216.098.407.194.612.297-.33-.054-.935-.171-1.609-.314-.021.099-.05.197-.07.297.335.335.803.61 1.085.892.024.024.402.031.402.087 0 .132-.27 0-.402 0-.165 0-.68-.054-1.207-.122-.09.802-.107 1.62-.017 2.465-.013 2.539-.065 5.08-.088 7.624-.002.006.002.012 0 .018-.133.484-.065 1.068-.017 1.644a177.4 177.4 0 0 0 0 1.031c-.003.018.003.035 0 .053a1.76 1.76 0 0 1-.158.454c-.092.185.093.498 0 .682-.424.85-.737 1.58-1.084 2.274-.135.27-.77 1.625-.402 1.993.159.159.36.535.507.682.11.11.505.105.682.105.234 0 .437-.06.63-.123.067 1.222.152 2.438.28 3.655 1.564 3.004 4.543 5.026 6.942 7.292 2.829 2.65 6.35 4.29 9.18 6.89 1.76 2.09 3.822 7.2 6.854 3.916 4.317-3.22 9.195-5.709 12.835-9.862 2.093-.287 3.72-2.805 5.596-4.057 1.305-1.85-.659-4.421.665-6.365.73-2.19.06-4.695.244-6.994-.098-6.647-.168-13.294-.472-19.935 1.828.626 1.89 1.297 1.33 3.008.114 3.761 4.726 3.92 5 .087.432-3.091-2.267-4.529-4.004-6.347-2.443-1.622-4.838-3.134-7.572-4.162-2.187-.925-4.729-1.225-6.487-3.043-2.44-1.041-4.877-1.976-7.432-2.64-2.17-1.274-4.28-2.476-6.697-3.165-1.975-.863-4.083-1.311-6.138-1.906zm11.873 8.76c1.919.794 3.72 2.186 5.631 3.13 1.929 1.66 5.31 1.697 5.91 4.652.206.572.392 1.147.542 1.731l-.174.175c-.371.37.56 1.4.56 1.959 0 .571-.55.689-.84.979-.389.389-.123 5.001-.56 5.875-.199.398-.021 1.84-.28 2.099-.783.783-.356 6.447-1.119 7.973-.397.795.14 2.425.14 3.218v1.399c0 .156-.162.397-.14.42.236.235 1.024.044 1.26.28.717.717-1.224 1.574-1.12 1.678.03.03 1.26.764 1.26.84 0 .07-1.3.318-1.4.419-.23.23-.54 6.734-.28 6.995.35.35.832.475 1.312.49-2.889 1.761-5.65 3.871-8.743 5.175-.02.014-.049.021-.07.035-.593.39-1.432.628-1.959.892-.292.146-1.114.804-1.294.804-.032 0 .46-.268.7-.507.131-.131.853-.68 1.364-1.241a23.248 23.248 0 0 1-.227-1.242c-.731.068-1.732.488-1.732.315 0-.168 1.031-.845 1.574-1.242-.158-.93-.358-1.847-.734-2.64-.285.128-.592.259-.84.507.167-.214.38-.468.595-.682.04-.04.068-.066.105-.105-.37-.665-.892-1.234-1.661-1.609-2.618-1.558-5.339-2.83-8.324-3.322-3.452.403-4.602-3.179-3.987-6.243.506-4.138.638-8.298.507-12.467.126-1.493-.116-3.108-.07-4.634.1.073.384.103.473.192.031.032.176.297.192.297.01 0 .884-1.479.997-1.59 1.361-1.363 1.66-3.427 2.972-4.74.24-.24.25-.652.49-.892.385-.384 1.486-1.295 1.486-1.678 0-.333-.63-1.232-1.031-1.696.095-.166.203-.323.297-.49h.035c.45 0 .808.002 1.189.192.153.077 1.633-2.354 1.976-2.867.11-.166.57-.773.997-1.364 1.16-.503 2.394-.885 3.514-1.364l.507-.105zm-25.862 13.448c-.088-.006-.168.01-.227.07-.1.1.557.03.77.105-.166-.048-.371-.164-.543-.175zm24.586 31.737c-.041.058-.196.385-.28.385-.003 0 .111-.168.28-.385z"/>
    <path fill="#e6b35a" d="M175.958 41.656c-.07.098-.142.183-.227.262.069.09.137.19.192.245.134.134.56.432.56.7 0 .153 1.297 2.136 1.539 2.378 1.182 1.182 2.145 3.897 2.256 6.207-.201-.174-.414-.34-.63-.507-.028-.033-.058-.076-.087-.105-1.794-1.793-3.637-4.056-5.456-5.875-.318-.318-.863-.583-1.26-.98-.202-.202-1.65-1.287-1.678-1.258-.33.33.84.653.84 1.119 0 .234 2.722 3.992 2.657 4.057-.175.175-.397-.118-.42-.14-.019-.02-.269-.034-.611-.035-.083-.018-.154-.028-.193 0-.106 0-.21.016-.332.017-.182-.059-.358-.122-.542-.122-.585 0-1.164.095-1.766.175-.181.006-.374.01-.542.017.065.007.126.026.192.035-.31.035-.62.053-.961.053-.034 0-.135.013-.193.017.015-.007.038-.01.053-.017.05-.025.116-.038.174-.053-.378.02-.719.038-.734.053-.036.035-.074.076-.122.105-.5.079-1.038.185-1.224.314-.184.038-.352.08-.473.14-.34.17-.839.422-.839.42 0-.032.689-.194 1.469-.402.572.02 2.174-.09 2.588-.298.815-.407 2.182.877 3.077.28a.953.953 0 0 0 .193-.192c.145.031.288.067.437.105a.588.588 0 0 0-.07.227c0 .233.466 0 .7 0 .153 0 .518.215.664.157.693.257 1.353.578 1.888.945-.046.021-.092.029-.14.052-.017-.006-.035-.01-.052-.017-.002.011.002.023 0 .035-1.128.567-2.424 1.532-3.392 2.5-.47.47-.417 1.606-.787 1.976-.659.66 0 3.038.017 3.48.132-.344.895-1.736.98-1.906.365-.732 1.544-1.363 2.815-1.661-.06 3.384.235 6.846-.052 10.177-.422 4.88-.405 10.061.192 14.898.142 1.149-.26 14.109.21 14.654.506.586 1.21 1.569 1.766 2.535 2.419 4.203 5.762 7.58 7.729 12.136l1.574 3.654c.06.142.556 1.076.612 1.33.153-.264 1.085-1.27 1.364-2.239.758-2.634 2.337-4.448 3.76-6.645 1.942-3 4.768-5.958 6.539-8.008.373-.433.47-1.01.595-1.574 1.997 2.37 4.097 4.732 6.05 7.257.003.003-.003.014 0 .017.22.343.526.728.857 1.12.012.013.023.02.035.034.605.821 1.188 1.671 1.748 2.536.682 1.053 1.058 2.587 1.784 3.427.3.348 1.094 2.99 1.381 2.99.041 0 2.313-5.022 3.375-6.662 1.393-2.15 3.26-3.936 4.547-6.173 1.102-1.914 1.894-4.078 2.728-5.508.633.298 1.435.226 1.993-.332.366-.366.383-2.033.14-2.518-.254-.508.124-1.15-.14-1.679-.484-.967.216-2.365-.28-3.357-.307-.615.293-2.646-.14-3.078-.535-.535-.19-3.806-.594-5.176a83.864 83.864 0 0 0-.053-1.241c.003-.054-.01-.109-.017-.158-.114-2.12-.31-4.226-.665-6.277-.234-1.36.08-2.788-.21-4.127-.192-.892-.41-12.307-.192-13.062.022-.078.071-.319.123-.595 1.789-1.554 4.094-3.149 5.42-3.812.288-.144 1.574-.592 1.574-.787 0-.23-1.992.595-3.55.595-1.669 0-13.96 1.282-14.251 1.573-.09.002-.169.008-.192.035-.082.094.787 5.275.787 5.963 0 1.874.89 6.672 1.573 8.254.591 1.368.522 4.084.997 5.735.048.166.004.49-.035.822-.407.981-.814 1.794-1.486 2.466-.056.055.525.525.56.56.395.396.395 1.63.699 2.238.277.554-.088 1.73.28 2.098.223.224.06 2.72.42 3.078.428.429-.408 4.781 0 5.595.169.34.885.094 1.118.56.15.299-.313.525-.14.7-.197-.01-.396-.024-.42 0-.04.04-.688.29-.559.419.266.266 2.798 1.502 2.798 1.679 0 .199-2.407.057-2.658.56-.055.11.271 1.67.42 1.818.23.23.754.21 1.364.35-.187.36-.125 1.669-.245 2.028a22.2 22.2 0 0 0-.42 1.434c-.505.335-1.004.672-1.521.822-1.091.315-2.65.473-3.357 1.294-.091.105-1.922-1.111-2.239-1.294-2.159-1.25-4.585-1.988-6.68-3.165-.004-.003-.012.002-.017 0-.03-.028-.058-.043-.087-.07-.304-1.617-.664-5.057-.875-7.572.125-.807.265-1.612.42-2.413-.173.016-.41.035-.49.035-.05 0-.935-.113-1.119-.105-.041.03-.07.037-.07 0 0-.004.05 0 .07 0 .041-.03.09-.071.123-.087.324-.163.752-.132 1.084-.298.134-.067.337-.04.507-.052.03-.152.055-.303.087-.455.146-.675.147-1.403.175-2.116a3.328 3.328 0 0 1-.157-.63 9.026 9.026 0 0 0-1.102.28c-.126.043-.323.002-.49-.017-.128.11-.297.24-.297.123 0-.133.131-.142.297-.123.032-.027.067-.066.088-.087.224-.225.981-.465 1.451-.542-.109-1.17.105-2.661.315-4.075-.046-.006-.178-.014-.175-.017.043-.043.108-.11.192-.158.055-.367.111-.74.158-1.084-.603.078-1.351.053-1.836.053-.029 0-.068-.027-.105-.035a.77.77 0 0 1 .105-.07c.255-.128.633-.063.892-.192.165-.083.588-.168.996-.245.047-.4.08-.774.088-1.102-.5.054-1.069.137-1.557.227-.417.176-.868.274-.821.228.065-.066.411-.152.821-.228.06-.025.118-.041.175-.07.445-.222 1.095-.371 1.504-.647.11-.253.25-.514.088-.839-.897-1.794.693-4.75-.193-6.522-.408-.816-.997-6.516-.997-7.73 0-1.169-.88-5.047-.787-5.14.346-.345 3.97-2.793 5.736-3.935.146-.34.262-.671.192-.752-.065-.075-.159-.096-.28-.087-.36.026-.897.332-1.101.332-2.395 0-4.87.21-7.327.21-.283 0-1.603-.209-1.783 0-.006.007.022.24.035.332-2.737-.651-4.246-.026-4.582.752-.204.474.785 6.61.997 7.345.297 1.03-.297 2.413 0 3.444.244.848.04 2.403.385 3.2 1.027 2.38-.642 6.926 0 9.898.424 1.967-.124 3.61.402 5.438l.052.192c.123 1.475.227 3.617.227 4.284v1.12c0 .143-.244.175-.14.28.313.311.814.433 1.19.681.047.206.104.41.157.612-.32.415-1.144.867-1.067.945.263.262.804.276 1.224.367.016.116.037.231.053.35-.535.165-1.417.428-1.417.681 0 .404.374 3.544.28 3.638-.136.136-.42 1.858-.42 1.958 0 .373.747 0 1.12 0 .136 0 .435.02.682.035-.294.222-.581.44-.805.7-1.679 1.944-3.922 3.245-6.015 4.86-.219.17-1.062 1.03-1.12.962-.829-.96-1.82-1.703-3.077-2.43-.391-.227-.587-.892-.979-1.12-1.655-.958-3.002-2.641-4.546-3.881a2.998 2.998 0 0 1-.175-.385c.15-.037.284-.066.437-.105.928-.026 3.425-.452 3.567-.594.449-.45-.19-2.139.14-2.798.224-.448-.224-1.231 0-1.679.067-.135.172-.84 0-.84-.28 0-1.41-.29-1.539-.419-.061-.062 1.721-.84 1.539-.84-.106 0-.186-3.03.14-3.357.266-.266-.332-1.591-.42-1.678-.349-.35.618-1.178.7-1.26.14-.14-.294-1.804.14-2.238.165-.165-.14-1.685-.14-2.098 0-2.698-.42-5.4-.42-7.834 0-.185.01-.855.017-1.451-.002-.005.002-.013 0-.018-.19-.533.123-1.526.123-1.888 0-.537-.075-1.604.14-1.819.075-.075.194-.102.332-.105.366.86.928 1.645 1.207 1.924.104.105 1.243 1.274 1.818.7.336-.337.695-.556.98-.84.234-.234.325-1.025.559-1.26.084-.084 0-.706 0-.838 0-2.358-.251-5.428-1.679-6.855-.013-.014-.038-.021-.052-.035-.007-.011-.011-.024-.018-.035-.702-1.153-1.81-2.12-2.395-3.095a1.689 1.689 0 0 0-.175-.245c-.025.134-.072.278-.018.332 1.161 1.161 2.896 5.54 1.959 7.415-.576 1.152-.035 1.398-1.4 1.398-.167 0-.36.2-.559 0-.828-.828-1.188-2.101-1.73-3.305.018-.016.034-.034.052-.052.306-.307.23-2.056 0-2.518-.505-1.009.24-2.036-.28-3.078-1.061-2.121-1.885-4.962-3.637-6.714-.808-.808-1.749-1.854-2.798-2.378-.062-.032-.33-.147-.525-.228zm-6.435 6.19c.206-.01.414-.024.682-.035-.098-.008-.204-.018-.297-.017-.146 0-.265.021-.385.052zm32.088 26.842a.125.125 0 0 1 .052 0c-.046.034-.07.075-.07.035 0-.017.004-.032.018-.035zm-13.08 38.872c-.017.034-.022.035 0 .035.016 0 .024-.002.018-.035-.001.002-.017-.002-.018 0zM248.373 46.954c-4.366 1.311-14.48 14.088-17.556 23.17-.362 1.07-2.494 5.846-.91 7.047 1.342 1.016 2.805 3.236 4.372 4.424 1.272.964 2.986 1.182 4.897 1.014-.116-1.02-.241-2.256-.018-2.256.15 0 .48 1.149.84 2.169.23-.032.464-.064.699-.105-.205-.573-.369-1.135-.14-1.364.07-.07.474.555.874 1.206 1.847-.379 3.751-.95 5.596-1.503-.062-.828-.107-1.662.245-1.662.212 0 .304 1.03.385 1.47.253-.076.52-.156.769-.228.083-.401.24-1.661.245-1.661.093 0-.042.196 0 .28.154.308.205.774.262 1.241 2.803-.782 5.23-1.228 6.505-.262 1.164.882 1.918 3.282 2.448 4.057 2.551 3.723-3.26 20.33-5.054 22.697-.54.714-3.593 5.944-4.319 7.1.516-.238 1.59-.159 2.099-.508 2.35-1.61 4.903-4.28 6.627-6.557 4.486-5.922 7.316-12.902 9.792-20.214.684-2.02.31-4.406.997-6.435.379-1.118-.517-3.737-.682-4.932-1.81-13.118-18.252-1.11-21.91-3.882-5.147-3.898-2.151-12.736-.525-17.538.842-2.486 1.383-3.28 3.462-6.768zm.14 66.833c-.199.092-.33.219-.297.455.002.011.205-.308.297-.455z"/>
    <path fill="#e6b35a" d="M236.414 94.873a.302.302 0 0 0-.132.038c-1.59.776-2.89 2.79-4.479 3.565-.639.312 1.692.12 2.223.302.74.255 4.362 2.221 4.76 3.037.36.736 1.519 1.315 1.873 2.04l1.504 3.073c.426.873 1.514 3.239 1.69 4.56.067.5.04 1.12.2 1.447a.278.278 0 0 0 .137.138c-.728 1.48-1.656 3.843 1.569 3.398 3.874-.534 5.495-3.927 7.335-6.355.236-.312-.264-.597-.303-.626-.104-.08-.178-.186-.257-.299.725-.288 1.64-.703 1.382-1.232-.713-1.46-2.84-3.177-4.069-4.428-1.26-1.286-10.117-9.446-12.24-8.41-.285.14-.842-.253-1.193-.248z"/>
    <path fill="#e6b35a" d="M236.03 93.944c-.11.01-.2.036-.259.114-.912 1.205-4.235 2.51-6.43 3.795-.032.014-.06.037-.092.052-1.91.89-3.953 2.708-4.158 5.602-.042.598.697 1.097.792 1.325.481 1.16 1.333 1.786 2.438 1.864 4.27.302 5.029-6.22 2.263-8.091.823-.283 1.62-.412 2.028-.103.05.037.657.683.93.323.593-.784 5.662-1.801 5.93-2.154.18-.239-2.207-2.41-2.57-2.533-.06-.02-.542-.225-.871-.194zM248.321 47.41c-1.083-.1-4.194 4.508-4.774 5.472l-.384 2.85c-.966.506-1.794.264-2.658.28-.103.002 1.396 1.123 1.573 1.294.4.386.975.734 1.61 1.05.078-.356.282-.72.646-1.085.14-.14.186-.839.42-.839.09 0-.705 1.25-.647 2.116.328.151.67.294 1.014.437.444-.44.872-1.294 1.311-1.294.17 0-.37.973-.42 1.679.572.23 1.138.448 1.627.682.009.004.024.013.035.017.02.035.043.06.07.088.537.537 1.755.215 2.203.664.162.162.555.148.927.157.037-.225.081-.442.175-.629.204-.408.42-.878.42-1.259 0-.02.029-.065.052-.105-.008-.096.01-.175.087-.175.022 0-.038.092-.087.175.018.226.182.616.087.804-.117.235-.197.73-.21 1.242.082.025.16.072.21.122.166.165.587.063.752.228.124.124.311.206.542.262.277-.953.657-2.273.945-2.273.192 0-.14 1.217-.315 2.343 1.183.053 2.947-.266 4.581-.507 1.145.265 2.43.113 3.393.594.293.147.79-.146 1.084 0 .16.08.45.153.787.21h.017c1.603.858 3.061 1.767 4.284 2.99.094.094 1.22 1.76 1.417 1.662.784-.393.21-2.281.21-2.99 0-.622.109-1.343-.298-1.75a2.764 2.764 0 0 0-.7-.471c.022-.294.034-.555.123-.735.175-.349.801-2.521.787-2.535-.128-.129-.413-.1-.542-.228-.699-.699-1.892-1.094-2.99-1.643-.736-.368-2.231-.116-2.763-.647-.108-.108-.466-.136-.874-.14-.616-.254-1.144-.42-1.417-.42-.56 0-2.87-.667-3.2-.997-.294-.294-1.758-.43-1.87-.542-.106-.105-.182-.273-.263-.437-2.04-.988-4.009-2.076-5.666-3.672-.48-.463-.682-1.538-1.119-1.958a.317.317 0 0 0-.192-.088z"/>
    <path fill="#e6b35a" d="M264.524 58.872c-.021.327-.391.961-.064.982.328.022-.019-1.3.064-.982.276 1.05.089 1.564.252 2.187.105.402.813.645.918 1.047.064.24.81.34.95.555.431.66 2.037 1.626 2.218 2.316.042.159.186.554.269.412.26-.445.842-5.342.909-6.354.11-1.701 2.217-6.886 1.987-7.764-.104-.398-.5-.766-.807-1.237-1.091-1.672-6.157-1.995-5.469.63.273 1.038-.006 2.512.837 3.804.675 1.033 2.798.36 2.457.16-.2-.117-.202.457-.144.682.064.243-.747 1.279-.888 1.52-.59 1.01-.951 2.267-1.143 2.392-.246.16-.698.613-.445.76l-1.9-1.11zM294.114 48.79c-.278.029-1.482 1.307-1.941 1.767-2.105 2.104-4.466 3.86-6.593 5.945-1.252.319-2.675.804-3.27 1.399-.564.565-1.154 1.259-1.783 1.888-.433.433-.833 2.914-1.084 3.165-.391.391-.815 1.287-1.294 1.767-.276.275-.587.573-.875.856-.07.027-.139.064-.21.088-.864.288-1.868.84-2.727.84-.163 0-1.61.118-1.61.14 0 .054.674.091.77.139.312.156 1.5.048 2.36.192-.99.964-1.977 1.944-2.937 2.903-.08.08-.221.403-.35.77-.403.182-.754.332-.891.332 0 0-2.378.734-2.448.77a.262.262 0 0 1-.14.017c-.312.126-.56.262-.84.402-.086.043-.28-.026-.28.07 0 .093 1.247.07 1.4.07.494 0 1.056.003 1.468.21.041.02.587-.063 1.19-.158-.064.353-.091.885 0 1.067.197.394.478.516.786.507a1.766 1.766 0 0 0-.14.245c.004.029-.004.058 0 .087.096.06.575 0 .682 0h.56c.046 0 .14-.047.14 0 0 .054-.179.039-.21.07-.273.273-.66.533-1.014.822.396 1.984-.151 4.177.245 6.155.813 4.067 1.325 10.73 0 14.706-.17.508-.092 2.278-.455 2.64-.01.01-.637.693-.455.875.396-.428 2.06-1.267 2.553-1.084-.308.222-.486.514-.314.857.02.042-.033.177 0 .21.313.313.487.663.979.909.288.144 1.712.382 1.888.56.346.345.829.478 1.26.909.083.083.195.336.28.42.252.252.792.396.978.769.159.316.474.738.7 1.189.312.625.587 2.476 1.049 2.937.59.59 1.068 1.418 1.539 1.889.246.246.745.326.979.56.188.188 1.205.155 2.01.174.373.342 1.097.685 1.487.945.419.279.759.64 1.19.926.523.35 1.164 1.7 1.433 2.239.062.124 1.308 1.668 1.33 1.678.315.158.639.395.891.647.223.223 1.186.955 1.626.735.164-.082.495-.092.595-.193.382-.382.698-.875.996-1.364.578-.526 1.568-1.15 2.256-1.608 2.203-1.469 4.086-3.52 6.155-5.071 1.866-1.4 3.986-2.43 5.928-3.725 1.65-1.1 3.315-3.205 4.844-3.97.097-.048.22-.09.35-.14.132.114.247.24.35.368.527 1.292.734 3.742.734 4.861 0 .25.062.708-.07.84-.128.128.058.57-.07.699-.105.105.035.455-.07.56-.082.082-.013 1.341-.14 1.468-.173.174-.957-1.91-2.098-.769-.869.868-.917 2.72 0 3.637.295.295.55.14.909.14.992 0 1.46-1.11 1.888-1.539.129-.128-.058-.571.07-.7.14-.14-.14-.699 0-.839.24-.24.28-1.122.28-1.538 0-.536.14-2.377.35-2.798.07-.14.064-.308.052-.49h.018c.034 0 .21-1.043.21-1.189 0-1.12.114-2.326.14-3.515.362-.702.174-4.944.174-5.42 0-1.65.84-5.088.21-5.718-1.396-1.397-13.992.13-17.206.227.06.052.152.134.262.227h1.574c.097 0 .314.02.594.07.008.006.01.012.018.018.946.705 4.117 2.036 4.651 2.57.846.846 1.492 1.772 2.238 2.518a.63.63 0 0 1 .14.227c-.013.01-.02.026-.035.035-1.015.158-2.293.509-2.5.612-1.009.505-2.644.728-3.952 1.382-.857.428-1.794 1.461-2.64 2.22.604 1.576 1.94 3.918 1.993 3.918.008 0-.716-.717-1.4-1.4-.375-.375-.84-1.33-1.258-1.538a3.577 3.577 0 0 0-.472-.157c-.305.162-.68.403-1.102.699.064.104.157.26.175.297.508 1.016 1.41 1.701 1.958 2.798 1 2 1.29 2.494-.28.14-.288-.432-.43-.711-.839-1.12-.342-.342-.622-.761-.979-1.118l-.594-.595c-1.074.814-2.194 1.834-2.57 2.588-.315.628-.818 1.5-1.295 1.976-.717.718-1.306 1.354-1.766 2.273a1.377 1.377 0 0 0-.122.612c-.08.081-.168.164-.245.245-.252-.192-.497-.356-.752-.56-.011-.069-.035-.14.017-.244.24-.48-.095-1.547-.384-1.836-.043-.042-.2-.154-.245-.245-.285-.57-1.258-.751-1.644-1.137-.052-.052.313-.468.35-.542.032-.064.11-.212.157-.262-.101-.013-.602-.257-.647-.28-.078-.039-.212-.024-.297-.052-.282-.094-.4-.331-.647-.455-.38-.19-.8-.348-1.19-.542-1.155-.578-2.578-1.39-3.461-2.273-.13-.13-.475-.177-.595-.297-.09-.09-.44-.215-.822-.333-.956-.773-1.788-1.475-2.36-2.063.04-.105.103-.295.122-.332.476-.952 1.373-1.54 1.784-2.361.2-.401-.863-1.427-1.19-2.08-.125-.253 0-.902 0-1.19 0-.648.3-5.338.455-6.243-.28-.04-.675-.5-.857-.682-.332-.332-.795-.497-1.189-.891-.216-.216-.303-.712-.49-1.084-1.27-2.54-1.186-5.902.228-7.117.036-.077.091-.2.105-.228.346-.692 1.29-1.01 1.748-1.469.095-.094.386-.105.49-.21.195-.194 1-.07.98-.07-.733 0-1.54-1.049-1.54-1.818 0-.799.23-1.258.7-1.749.374.03.734.07.857.193.026.026.496.5.594.402.122-.121.047-.554.193-.7.378-.378.807-1.192 1.189-1.573l4.948-4.949c.523-.522 3.838-.777 4.057-.997.448-.448-.729-2.733.088-3.55.895-.894 2.73-1.75 3.952-2.972.023-.024.06-.048.087-.07.52.327.96.716 1.102.857 2.365 2.365 7.877 3.908 10.544 6.575.464.464 1.654.36 2.186.892.236.235-1.061 2.14-1.312 2.64-.082.165-.139 2.457-.175 4.511-.05.004-.106.014-.157.018-.139.635-.298 1.344-.175 1.591.31.62.28 1.383.28 2.098-.132-.226-.28-.458-.28-.699 0-.71-.273-2.231-.647-2.938-.352.017-.664.012-.857-.052-.197-.066-.69-.119-1.311-.175-.12.302-.043 2.842-.21 4.337.04.294.052.578-.052.787-.008.015-.304.467-.14.14.088-.178.147-.525.192-.927-.06-.436-.192-.897-.192-1.172 0-.966-.348-2.337-.752-3.252-2.07-.123-4.705-.157-5.159.07-.939.47-1.516 1.353-2.378 1.783-.368.184-1.56-.192-2.063-.192-1.209 0-5.654.694-7.152 1.486-1.195-.18-2.516.667-3.445.875-.699-.268-1.437-.538-2.168-.525a2.287 2.287 0 0 0-.944.21c-.55.018-1.038.093-1.26.315-.142.142-.514.374-.629.49a.798.798 0 0 0-.14.261l.053.053c-.452.395-.86.867-1.032 1.381-.205.615-.21 1.272-.21 1.976 0 1.22.977 2.051 1.591 2.973.613.92 1.222 1.59 2.169 2.063.662.332 2.076-.137 2.57-.384.603-.302 1.3-.554 1.976-.892.896-.448 1.17-1.428 1.434-2.308.31-.468.495-1.493.56-1.557.165-.165.29-.356.437-.56.898-.096 1.636-.16 1.906-.174-.32 1.012-.825 2.06-.77 2.116.13.129 1.276-.769 1.382-.875.425-.425 1.98-.741 2.762-1.171.126-.022.244-.052.35-.105.247-.123.615-.07.91-.07.18 0 .334.006.49.017h.017c.5.12 1.035.272 1.52.385.42.19.82.425 1.365.7 2.537-.251 5.033-.525 7.03-.525 2.845 0 5.48-.665 8.358-.665h3.742c.231 0 .664.46.664.228v-7.502c-.216-.215-.414-.417-.524-.472-.29-.145-.21-.08-.21-.49 0-.792.323-1.275.734-1.713V67.956c.057-.045.116-.093.175-.123.184-.092.522-.102.63-.21.063-.063-.35-.453-.35-.56 0-.169-.207-.416-.28-.489-.023-.023-.437-2.203-.42-2.238.318-.634.437-2.535.84-2.938.247-.247.332-.822.56-1.049.328-.328.588-.729.909-1.05.03-.03.28-.18.28-.209 0-.126-1.068.569-1.19.63-.61.305-1.174.78-1.608 1.293-.002.003-.015-.002-.018 0-.21.105-.397.223-.524.35-.016.016-.65.82-.682.787-.054-.053.227-1.347 0-1.574-.845-.845-2.034-.787-3.375-.787-.088 0 .148-.648.192-1.451-.215-.097-.437-.192-.647-.297-3.026-1.513-5.964-3.157-9.215-3.97-1.979-.494-4.085-2.187-5.736-3.287-1.409-.94-3.501-.879-4.598-1.976-.01-.01-.017-.02-.035-.017zm-4.18 55.1c.011.001.035.005.035 0 0-.034-.012-.023-.035 0zm19.603-28.8c.043.075.087.158.122.227.004.008 0 .071 0 .123.074.16.128.297 0 .297-.007 0-.002-.173 0-.297a1.512 1.512 0 0 1-.122-.35zm-25.513 1.434c1.792-.074 2.596 3.472 1.644 4.424-.303.303-1.68 1.538-2.169 1.294-.334-.168-.806-.23-1.084-.507-.772-.772-1.851-2.137-1.189-3.462.634-1.268 1.35-1.515 1.976-1.47.294-.176.566-.269.822-.28z"/>
    <path fill="#e6b35a" d="M342.446 41.779c-.03-.031-3.51 1.132-3.952 1.573-2.428 2.428-11.344 5.488-16.962 6.435-.017.003-.035-.003-.052 0-.326-.325-1.56.305-2.169 0-.315-.158-.618-.055-.891-.192-.964-.482-2.24-.753-2.973-1.486-.23-.23-.722-.128-.997-.403-.403-.403-.17-1.148-.49-1.468-.378-.379-.864-.69-1.276-1.102-.215-.216-.892-.506-1.101-.088-.431.862.94 1.727 1.486 2.274.563.563 1.356 1.071 2.186 1.486.464.232 1.012.628 1.276.892a.593.593 0 0 0 .262.14h.018c.805.893 10.188 1.427 10.597 1.836.154.154 0 1.332 0 1.574 0 1.077-.749 7.862-1.172 8.708-1.365 2.73.94 27.69 1.574 30.863.464 2.32.505 4.962.087 7.484v.018a4.012 4.012 0 0 0-.192.454c-.551 1.653-2.411 4.074-4.057 4.897-.822.41-1.452 1.24-1.696 1.486.532-.118 2.676-.227 2.955-.227h.42c-.335.47-.688.914-1.084 1.311-.906.906-1.645 1.89-2.256 2.763-.19.195-.455.454-.612.612-.32.319-.351.736-.595.98-.043.042.018.21 0 .279 0 .004.002.014 0 .017-.307.543-.492.895-.49.892.08-.08.172-.191.263-.314-.2.567-.34 1.188-.647 1.8-.191.383-.073.972-.21 1.382-.35 1.05-.297 2.208-.297 3.375 0 .195.088.752.21.874.012.013.03.036.052.053-.142-.35.14-2.609.14-3.008 0-.498.615-2.416.98-2.78.274-.275.085-.96.401-1.277.283-.283.267-.756.595-1.084.933-.933 1.66-2.3 3.41-2.536 1.28-1.14 3.165-2.237 5-3.234.805.019 1.61.035 2.414.035 1.526 0 3.4-.3 4.896 0 .875.174 1.895.28 2.798.28.284 0 4.132.22 5.42.349a8.357 8.357 0 0 1-.664-.21c-1.018-.509-2.232-.894-3.357-1.119-1.302-.26-3.413-.86-5.194-1.486.567-.015 1.13-.029 1.207-.105.102-.102-1.492-.188-2.011-.193a16.776 16.776 0 0 1-1.416-.594c-.145-.072-.447-.252-.682-.385.2-.168.38-.346.542-.507 2.702-2.702 2.117-14.375 6.33-18.588.882-.882-1.042-3.42-1.19-3.567-.06-.061-.094-.225-.104-.437-1.107-1.045-4.337-3.43-4.337-3.515 0-.065.566.423 1.12.7 1.094.547 2.4 1.14 3.077 1.818a.876.876 0 0 0 .175.017c.03-.392.07-.816.07-.961 0-1.594-.023-3.486.017-5.439-.786.024-1.58.088-2.08.088-.694 0-1.4.149-1.4.14 0-.212.86-.22.98-.28.657-.329 1.69-.795 2.535-.927.01-.294.004-.58.018-.874-.012-.005-.024-.012-.035-.018-.484-.241-.804-.42-1.4-.42-.79 0 .45-.39 1.505-.681.152-2.248.454-4.44 1.049-6.225.395-1.185-.304-2.738 0-3.952.934-3.735.029-7.681.787-11.471.3-1.498.804-3.256.804-4.757 0-.672.86-1.5.385-1.975zm3.27 65.923c.241.067.454.115.454.07 0-.015-.196-.044-.454-.07zm-23.8-.525c-.039.012-.087.024-.087.035 0 .039.037.013.088-.035zm-2.237 13.797c.009.011.006.035.017.035.023 0 .01-.014-.017-.035z"/>
    <path fill="#e6b35a" d="M352.728 45.783c-5.88.113-11.805 1.806-14.024 5.176-.002.11-.014.235-.018.35l1.784.367c-.582-.117-1.312.044-1.801-.245-.086 2.382-.426 5.52-.175 5.77.446.447.892-.384 1.189-.384 1.047 0 2.865-.827 3.952-1.19 1.813-.604 9.112-.44 10.58.718.312-.596.728-1.222 1.293-1.504.195-.098.59-.397.874-.472.092-.076.162-.123.21-.123.066 0-.021.088-.087.088-.035 0-.082.024-.123.035-.506.417-1.525 1.797-1.363 1.958.054.055.854-.21 1.084-.21.092 0 .175.012.262.018.197-.05.379-.076.437-.018.01.009.013.023.018.035.113-.014.226-.035.367-.035.415 0 .735.048.98.28l.017.018c.063.003.127 0 .192 0 .135 0 .329.062.525.14.224.009.435.033.56.157.082.082.214.11.296.192.025.025-.034.109-.07.123.054.04.25.384.175.384-.111 0-.368-.176-.402-.21-.38-.38-2.253.295-2.36.403-.06.058-.11.117-.158.174.092.17.097.464.245.613l.052.052c-.478.158-.866.421-1.031.752-.134.266-.21 1.661 0 1.87.01.01 1.574.36 1.8.386-.029.13-.063.256-.122.314-.053.053-.413.776-.297.892.314.314.498.69.892 1.084.553.553 2.083.505 3.042.472.001.004.018.015.018.018 0 .438-2.491.192-2.57.192-.116 0-1.164-.246-1.085-.087.321.642.841 1.043 1.504 1.416.547-.014 1.068-.034 1.26.158.504.504 1.34.402 2.377.402 4.225 0 5.835-2.577 7.52-5.946.747-1.496-.32-3.803-.788-4.738-1.257-2.515-2.114-4.476-3.969-6.33-2.415-2.416-7.712-3.618-13.062-3.515zm-14.06 5.648c.003-.04.017-.082.018-.122l-.192-.035c.056.056.11.118.175.157zm-.174-.157c.062-.11.14-.21.21-.315.031-1.508-.099-2.577-.612-2.064-.295.295.402.398.402.805 0 .527-.373 1.2 0 1.574z"/>
    <path fill="#e6b35a" d="M388.75 39.348c-1.444.736-2.967 1.661-3.41 2.238-.926 1.206-3.316 2.338-3.952 4.18-3.627 10.493-6.134 17.298-15.773 23.816-1.476.998-3.747.21-5.246.962 1.411.17 6.677.746 7.572-.42.65-.847 3.635-2.775 5.998-4.284-.275 1.256-.108 2.567.961 3.637.1.099.496-.099.595 0 .134.134.29.212.472.245-.196 1.08-.367 2.053-.49 2.43-2.957 9.099 3.516 1.96 2.169 5.858-.363 1.052.242 2.406-.105 3.41-1.446 4.563-.253 9.554-.14 14.724-.804 1.047-1.06 8.91-1.696 9.74-.295.384-.886.83-1.242 1.293-.657.857-1.823 1.769-3.077 2.379-.892.433-6.436 7.42-7.572 8.9-.258.337-1.584 2.04-1.416 2.168.266.205 2.676-2.453 3.27-2.972 1.086-.95 3.258-2.118 5.158-3.323.566-.148 1.129-.476 1.26-.647.17-.222.773-.092.943-.314.375-.488 1.335-.606 1.662-1.032.554-.722 1.076-1.538 1.311-2.588.144-.09.32-.175.472-.262.47-.803 1.577-1.742 1.784-2.011.271-.354 1.39-.469 1.661-.822.527-.686 2.023-.996 2.588-1.731.04-.052 1.398-.492 3.113-.997.516.08 1.093-.095 1.748-.49.426-.12.833-.234 1.26-.35.405.036.79.135 1.013.106.205-.027 3.26.502 3.27.577.01.075-.626-.652-.682-.735-.527-.78-1.316-1.62-1.923-2.518-.374-.553-.845-1.083-1.224-1.644-.177-.262-.234-.59-.297-.926.105-.942.231-2.059.42-3.603.037-.308.058-.56.087-.839-1.738-.038-4.704.032-4.704-.28 0-.132.27 0 .402 0 .541 0 2.7-.09 4.354-.244a34.34 34.34 0 0 0 .14-4.005c-2.053-.01-5.088.02-5.088-.315 0-.186 2.978-.108 5.088-.105-.01-.528-.029-1.05-.017-1.608a137.707 137.707 0 0 0-3.69-.053c-1.382 0 1.562-.659 3.742-1.066a24.8 24.8 0 0 1 .105-1.067c.117-1.017-.19-2.07-.122-3.095.14-2.095.717-4.224.856-6.313.201-3.018-.035-6.05.123-9.11.261.046.543.046.892 0 .245-.032.657.297.804.105.426-.555.973-1.036 1.399-1.591.046-.06-.04-4.612-.227-4.757-.671-.514-1.73-3.659-1.26-5.018.352-1.016.761-7.796.595-9.058-.104-.789-.043-2.872-.63-3.323-.064-.05-.128-.067-.192-.105-.003-.002.003-.015 0-.017a12.276 12.276 0 0 1-.035-.98c-.003-.004.003-.012 0-.017a1.726 1.726 0 0 0-.367-.384c-.796-.611-1.277-1.287-2.413-1.68a1.831 1.831 0 0 0-.297-.069z"/>
    <path fill="#5a8ce6" d="M388.921 36.598c-5.434-.08-8.8-6.332-5.892-14.746.282-.814 2.833-3.811 2.89-3.766.126.096-2.148 4.798-1.08 4.657.102-.013 1.552-3.972 2.431-5.117.715-.932 5.367-9.348 4.62-9.921-.246-.19-.26 4.858-.21 4.825.63-.426 3.613-6.845 3.415-8.351-.083-.628-.022-2.246.226-2.57.053-.069-.193-1.103-.146-1.11.19-.024.298 4.408.307 4.476.442 3.357.257 8.435-1.81 9.833-.852.576-1.84 3.17-1.927 2.51-.074-.562 1.283-.046 1.628-.496.238-.31 2.378-2.57 2.482-2.584.292-.038-.207.576-.168.869.26 1.979-4.936 7.525-4.766 8.81.032.244 4.215-2.276 4.219-2.248.15 1.144-1.335 3.364-1.986 4.212-.363.474-.849 2.125-.926 1.533-.01-.072 1.58-.11 1.664-.219.12-.157 1.71-1.68 2.073-1.402.798.613.016 3.879-.525 4.585-.31.403-1.083.435-1.314.737-.08.105-.224.445-.241.314-.078-.592 4.824-1.088 3.234.985-1.617 2.107-5.253 3.18-8.198 4.184z"/>
    <path fill="#c8dceb" d="M387.08 34.744c-.268-.05-.853.115-.802-.152.05-.267 1.004.333.801.152-.181-.161-1.026-.165-1.208-.327-.341-.304-.645-.763-1.055-1.128-.2-.179.07-.943-.068-1.185-.773-1.346-2.498-5.187-1.176-6.67.294-.33.032-1.785.293-1.8.178-.01.75 1.793.903 1.93.021.018.574-.014.593-.035.248-.278.203-1.279.501-1.614.99-1.11 1.504-2.948 2.539-4.109 1.208-1.356 1.202-3.031 2.143-4.086.087-.099-.155-.388-.023-.395.094-.006-.48 1.564-.502 1.614-.417.97-1.56 3.898-1.528 4.447.013.221-.197.574-.163.604.423.377 2.004-2.295 2.443-2.32.044-.003-.815 1.445-.897 1.637-.21.487-2.413 5.907-1.81 6.445.102.09 2.825-2.569 2.838-2.343.026.45-2.024 4.755-1.482 5.237.188.168 3.733-2.294 4.045-2.015.22.195-2.351 2.588-2.013 2.89.449.4 1.654-.212 2.195.27 1.207 1.076-3.564 3.177-4.57 3.235-.337.02-1.693-.239-1.998-.282z"/>
    <path fill="#e6b35a" d="M431.679 2.224c-1.776.023-3.658.486-6.033 1.224-.015.005-.038-.004-.053 0-3.463.421-7.341 1.317-9.897 2.938-1.046.178-2.772 1.254-4.11 2.378-.028.025-.058.046-.087.07-.332.236-.744.578-1.398 1.014-.318.212-.407.644-.7.84-3.372 2.248-4.556 6.335-5.456 9.932-.162.649.07 1.471-.14 2.098-.238.716-.254 2.174 0 2.938.219.654.486 1.317.7 1.959.305.913.461 1.622.84 2.378.05.101.702.84.559.84-.118 0 .538-.082.7 0 .166.082.427.131.559 0 .392-.393.045-1.17-.14-1.54-.217-.434-1.097.162-1.259 0-.115-.115-1.817-5.877-1.12-6.575.35-.35-.07-1.468.28-1.818.585-.585.91-3.848 1.68-4.617.852-.853 1.306-1.866 2.098-2.657.498-.499.948-.838 1.381-1.172.094.405.11.844.437 1.172.878.878 3.161-.05 4.53-.717.073-.002.153.002.227 0-.2.348-.408.705-.7.996-.26.26-.354 1.473-.7 1.819-.14.14-.388 2.067-.839 2.518-.047.047-.15.487-.28.944.42.378 1.24 1.082 1.784 1.434.239-.016.455-.007.455.14 0 .123-.19.032-.455-.14-.204.014-.426.05-.524 0-.204-.102-1.465-.494-1.68-.28l-.034.035c-.067.232-.303 1.287-.49 2.029.558.517 1.308 1.056 1.504 1.154.074.037.35.195.612.332.286.074.507.15.507.227 0 .027-.246-.09-.507-.227-.705-.183-2.002-.415-2.78-1.12l-.018-.017c-.326-.158-.704-.348-1.381-.682-.378 1.684-.527 3.398-.21 4.984.762 3.81-.647 8.13.56 11.75.622 1.868.914 3.94 1.398 5.876.806 3.22 2.358 6.234 3.358 9.233.602 1.805.773 4.45.664 6.872-.9.874-1.708 1.895-2.238 2.955-.059.118-.096.243-.14.368-2.988-.006-5.984-.1-8.97-.368l-.787.98c-.066 0-.146-.047-.193 0-.508.508-.459 3.3 0 3.76.508.506 3.796-.193 4.547-.193 1.8 0 3.9.06 5.735-.262.485 1.226 1.122 2.092 1.976 2.815.065 1.112.024 2.203-.314 3.217-.943 2.829-.455 6.12-1.4 8.953-.745 2.238-1.738 4.378-2.517 6.715-.74 2.219-1.438 5.234-2.798 7.274-1.542 2.314-3.478 4.718-4.756 7.275-.889 1.776-2.817 3.106-3.917 4.756-1.69 2.534-2.801 4.48-4.757 6.435-1.107 1.108-4.373 5.39-5.036 6.715-.464.928-1.32 1.723-1.381 2.693.764-.738 2.834-2.215 3.34-2.973 2.188-3.282 4.913-4.913 7.554-7.554.905-.905 2.708-1.31 3.637-2.238 1.863-1.864 4.183-4.286 7.274-5.316 1.757-.586 3.663-.852 5.316-1.679.935-.467 4.76-.283 5.316-.84.224-.223-.779-1.18-1.871-2.36-.464.034-.896.107-1.207.262-.63.316-2.485.873-2.518.84-.317-.318 1.874-1.29 3.06-1.854-.728-.842-1.384-1.73-1.643-2.535-1.093.366-2.568 1.203-2.676 1.311-.287.288-.698.507-1.084.77-.18.241-.405.49-.594.49-.066 0 .093-.094.14-.14.133-.134.296-.243.454-.35.11-.148.219-.324.245-.35.744-.744 1.77-1.07 2.518-1.819l.892-.892v-.017c.053-.232.177-.44.367-.63.903-.902.183-3.82 1.12-4.756.955-.955 1.02-2.978 1.958-3.917 2.586-2.586 3.368-6.737 5.316-10.631.549-1.099.01-2.817.56-3.917.347-.696.282-1.592.296-2.431.523-.247 1.225-.543 1.574-.892 1.03-1.03 1.49-2.272 1.521-3.567 3.002-.192 7.014.21 9.163.21.485 0 1.495-.098 2.623-.245.052 1.502.2 2.837.49 3.707.294.884.42 2.017.42 2.938 0 .463.232.986.297 1.241.038-.255.262-1.542.262-1.66 0-1.377.42-3.1.42-4.617 0-.606.026-1.244.052-1.889-.003-.004.003-.013 0-.017-.064-.114-.135-.218-.192-.333-.215-.43-.732-.644-1.137-.856.362-.046.69-.096.717-.123.179-.178.472-.14.84-.14.156 0 .397-.162.42-.14.287.289.382 1.363.559 1.54.216.215 2.027-.664 2.378-.84.694-.347 3.576-.22 3.917-.56.211-.21-.665-.105-.7-.14-.351-.351-1.288-.294-1.818-.56-.517-.257-2.858-1.258-3.078-1.258-.465 0-1.067.927-1.259 1.119-.034.034-.794-.144-1.434-.28.166-.155.388-.352.455-.42.172-.172.365-.319.56-.472-.044.003-.079-.002-.123 0 .024-2.433-.174-4.824-1.276-6.662-.241.674-.599 3.604-.735 6.715-4.15.015-8.359.22-12.59.437a10.199 10.199 0 0 0-2.08-2.903c-.859-4.186-2.36-8.442-3.34-10.404-.583-1.165-.53-2.736-1.12-3.917-3.108-6.215-7.98-12.856-4.197-20.424.517-1.034.342-2.86 1.12-3.637 1.587-1.588 2.694-3.726 5.315-5.036 1.726-.863 3.532-2.798 5.316-2.798 1.063 0 3.216-.91 4.477-.28 2.58 1.29 5.143 2.626 6.714 4.197.574.574.69 2.218 1.12 3.077.919 1.839-.557 7.84.56 10.073.144.29.224.62.261.961-.156.018-.31.025-.472.035.521.36.945.717 1.19.962.041.042.172.015.28 0-.048.024-.093.074-.14.105-.382.083-.677.202-.7.315-.61-.61-1.16-.857-1.679-.857-.865 0-1.634.673-2.378 1.416-1.017 1.017-1.679 3.775-1.679 5.456 0 .475 0 3.498-.14 3.637-.233.233-.39 2.91-.7 3.218-.19.19-.838 1.75-.838 1.818 0 .142.65-.955 1.538-1.399.61-.304 1.178-.8 1.732-1.346.46-.39.851-.817.926-.892 1.574-1.573 4.217-3.378 5.876-5.036 1.038-1.038.911-2.383 1.539-3.637.13-.261-.131-.718 0-.98.731-1.463-.234-2.061-1.382-2.15 1.067-2.187 1.322-5.385 1.801-7.782.168-.395-.037-5.148-1.119-8.393-1.202-3.605-1.367-8.466-5.036-10.912-4.18-2.787-6.835-3.883-9.757-3.847zm10.754 72.516a4.7 4.7 0 0 0-.018.158c.052 0 .043-.06.018-.158zm-53.858 50.134c-.177.17-.297.312-.297.384 0 .187.28-.093.28-.28 0-.036.015-.068.017-.104zm32.507-64.298c.056-.012.09-.015.105 0 .33.33 1.862 1.229 2.378 1.487.614.306 1.453 1.138 1.784 1.469.026.026 0 .256 0 .297v2.78c0 .258.323 1.443.087 1.679-.516.516-2.023 1.448-2.868 1.87-.201.102-2.414 1.45-2.57 1.295a40.116 40.116 0 0 1-1.871-1.976c-.319-.364-1.557-1.452-1.784-1.679-.176-.176.05-3.976.105-4.459.87-1.087 2.097-1.298 2.868-1.87.115-.116 1.37-.805 1.766-.893z"/>
    <path fill="#e6b35a" d="M403.788 58.548c-2.19.872-3.464 3.035-3.952 5.49-.41.02-.81.071-1.207.245-.113.777-.23 1.283 0 1.68.033.055.44.023.98-.053-.02.454.007.914.035 1.364-.43.047-.856.138-1.294.367 0 .581.072 1.469.42 1.469.014 0 .609-.184 1.049-.315.27 1.43.8 2.725 1.538 3.672.394.505 1.635 2.252 2.326 1.714-.796-1.295-1.535-2.252-2.08-3.795-.141-.397-.207-1.165-.228-2.063.335-.102.887-.259.892-.262.36-.272 2.658.36 2.658-.21 0-.359.14-1.305.14-1.47 0-.288-.368.21-.56.21-.245 0-1.383-.234-1.539 0-.29.436-.953.573-1.591.613.014-.53.057-1.062.105-1.592 1.044-.18 2.06-.367 2.325-.367.2 0 1.132.219 1.26 0 .197-.338-.266-.042-.14-.472.075-.258.28-.429.28-.717 0-.253-.273.227-.42.227h-2.099c-.339 0-.707-.104-1.031-.174.13-.746.307-1.353.524-1.68.139-.207-.034-.63.105-.838.703-1.057.962-1.996 1.504-3.043zM417.488 65.73c.111-.545 1.103-2.872 1.359-2.833.27.042.73.01 1.068-.047.596-.1 1.106-.395 1.745-.296.03.005 2.15 2.937 2.162 2.954.007.01-.623 1.306-.73 1.515-.29.564-.411 1.282-.496 1.834-.012.072-.847-.131-.968-.15-.878-.136-1.592.39-2.378.269-.031-.005-1.22-2.504-1.762-3.246zM455.233 22.001c-.02 0-.01.176 0 .385.043-.226.054-.385 0-.385zm0 .385c-.057.296-.172.734-.263 1.242.078-.185.17-.363.263-.455.042-.042.016-.455 0-.787zm-.263 1.242c-.347.832-.542 2.397-.542 3.112 0 1.54-2.724 10.676-3.724 11.821-.008-.053-.032-.35-.035-.35-.19 0-.12.296-.123.542-.644.678-1.358 1.678-1.923 2.5-1.081 1.045-2.217 2.025-3.48 3.288-.207.208-.88.286-1.189.595-.272.271 1.252 4.032 1.381 4.162.011.01.035.012.053.017 1.612-.811 3.894-2.209 3.9-2.203.09.09-.883 1.092-.98 1.189-.6.6-.812 1.984-1.399 2.57-.075.075-.029.987.035 2.011 1.556 3.591 3.778 7.958 5.578 11.279 1.394.266 2.832.454 3.2.402-.206.135-.68.541-.7.56-.136.137-.841.055-.978.192a6.797 6.797 0 0 1-.63.49c1.07 1.907 1.877 3.215 2.081 3.322 4.39 2.294-4.383 7.814-2.168 8.97 1.914 1 12.584 3.07 13.184 4.984.505 1.608-16.829 23.745-19.287 28.45-1.025 1.963-10.314 17.356-9.845 18.85.027.087 2.93-3.809 3.585-4.44 3.866-3.733 7.257-5.54 11.174-9.321 2.302-2.222 5.788-3.937 7.431-4.686-1.607.876-3.16 2.552-3.654 3.497-1.227 2.348-4.417 4.274-6.365 6.155-5.849 5.645-9.545 13.461-12.853 19.795-.392.75-4.163 7.29-1.416 8.725 7.083 3.7 12.78-.434 16.192-9.215-1.13 2.163-3.183 2.453-3.83 3.69-1.21 2.318-9.518 3.41-9.022.332 1.765-10.968 21.821-29.416 33.014-40.219 1.176-1.135 7.737-5.137 8.114-5.858.159-.305.035-.786.017-1.171-1.437.94-4.574 2.609-6.068 3.077-1.533.481-14.961 7.819-15.143 7.24-.285-.908 1.1-1.56 1.784-2.221 4.645-4.483 8.638-13.743 14.618-19.515 7.735-7.465 14.064-23.244 19.865-33.486-1.044-.246-2.14-.43-1.906-.665.158-.158 1.338-.22 2.553-.437.282-.48.577-.967.857-1.416-.418.015-.784.035-.892.035h-1.242c.408-.074 1.094-.28 1.102-.28.213 0 .738-.036 1.224-.07a39.503 39.503 0 0 1 1.521-2.238c-.994-.696-2.398.21-3.724.21a.499.499 0 0 1-.105-.018c-.115.055-.175.073-.175.018 0-.066.088-.04.175-.018.345-.165 1.14-.682 1.923-.682.448 0 1.656-.196 2.623-.454l.14-.175c1.513-.773 4.246-2.183 4.372-2.308.452-.453 2.181-3.187 2.378-3.777.201-.604 1.033-1.13 1.399-1.68.708-1.062 1.543-2.107 2.098-3.217.458-.916 1.443-4.52 1.819-4.896.076-.076.975-2.242.839-2.378-.425-.425-6.105-1.004-6.995-.56-.43.216-2.667.98-2.937.98-.139 0-1.539.692-1.539.84 0 .067.684-.266.7-.28.274-.275 1.03-.052 1.258-.28.51-.51 4.28-.198 4.617.14.14.14.42.14.56.28.532.532-.26 1.745-.875 2.5-.798.045-1.574.087-2.133.262-5.997 1.881-14.1 1.614-16.892 6.96-3.471 6.645-2.742 18.535-4.651 22.19-1.421 2.72-4.547 1.102-5.474.42.179 1.148-1.515 5.683-1.66 5.962-.817 1.562-3.777 10.313-4.18 10.44-1.48.464-10.965-16.953-13.674-19.76-.95-.984-.211-6.427-1.364-7.03-1.866-.974.69-9.34-1.102-8.778-.909.286-2.32.588-3.812.962a7.42 7.42 0 0 0-.385-.997c-.064-.129-.204-1.217-.332-2.273.215-.419.417-.766.542-.892.09-.09.228-.154.315-.244-.004.093.01.185.07.244.165.165.43.238.594.403.866.865 3.595-1.025 3.76-1.19.555-.554-.84-2.238-.98-2.378-.131-.132.133-.655 0-.787-1.18-1.18-.594-3.92-.594-5.927 0-1.718.192-3.162.192-4.564 0-.452.064-.9.14-1.33zm22.47 38.137c-.031-.202-.13-.314-.297-.262-.036.012.104.12.297.262zm2.326 35.9c.795-.52 1.089-.837.262-.577-.234.073-.275.302-.262.577zm-28.293 43.226c.504-.964-3.365.768-2.798 1.696.568.928 1.87-1.128 2.798-1.696zm42.457-90.65c.057-.012.175.036.245.036-.163.029-.28.04-.28 0 0-.023.016-.03.035-.035zm-38.138 14.287c.021-.01.035-.01.035 0 0 .017-.029.027-.07.035.014-.008.025-.03.035-.035z"/>
  </g>
</svg>
