<svg xmlns="http://www.w3.org/2000/svg" viewBox="0 0 255.309 215.707">
  <path fill="#3c6991" d="M110.231.002c-4.427.082-9.967 2.843-13.93 1.89-1.58-.381-3.514-.545-5.406-.443-.034.002-.067-.002-.1 0-1.925.114-3.803.52-5.187 1.367-.057.035-.123.067-.18.1a1.53 1.53 0 0 1-.182.222c-1.839 1.839-5.906 2.007-7.799 3.9-1.545 1.545-2.978 4.504-4.683 7.155-.016.025-.024.055-.04.08-6.068 7.075-10.91 15.78-12.623 22.895-1.408 5.846-1.388 13.741-3.699 19.558-.646 1.626-3.325 10.63-1.246 12.381 1.416 1.193 7.453 2.106 9.226 0 .954-1.133 9.705-3.965 12.442-7.216 3.223-3.827 4.886-10.438 7.096-16 .351-.885.804-1.824 1.326-2.753 1.254 2.427 2.249 4.41 2.774 5.628 1.094 2.535 2.298 6.041 3.297 9.789-2.166 3.317-1.263 7.855.301 9.93-6.331 1.97-3.315 8.782-3.557 9.024-.417.418-1.738.975-2.272 1.508-.66.66-.764 2.038-.764 3.035 0 .962.122 1.817.302 2.573-5.761 14.492-11.199 32.632-18.07 42.412-1.978.902-4.002 1.677-6.372 2.15-4.62 1.156-16.295 3.445-26.131 6.755a16.077 16.077 0 0 1-1.487 1.688c-.975.975-2.925.975-3.9 1.95-.758.758-3.121-.095-3.88.663-2.249 2.25-5.569 3.418-9.105 5.186-.392.196-1.65-.3-1.95 0-1.606 1.606-4.482 2.533-5.849 3.9-2.673 2.673-4.915 5.578-7.799 8.462-2.866 2.866 2.98 10.758 3.9 11.678 2.708 2.709 7.683 3.141 10.392 5.85 1.139 1.139 4.96-.385 6.331.522.355.05.671.115.885.221 3.99 1.995 11.818 3.47 16.542 5.045 6.511 2.17 11.676 7.97 18.392 9.649 5.113 1.278 10.92 1.958 16.08 3.678 2.158.72 4.778.226 6.875.925 3.922 1.307 7.462 2.93 11.035 4.12 1.238.413 2.873-.317 4.141 0 2.853.714 5.937.92 8.724 1.85 4.962 1.654 11.58-1.654 16.542 0 3.27 1.09 23.63-.655 25.267-2.292 1.203-1.204 5.78.326 7.356-.462 1.368-.684 5.52-.013 6.433-.925 2.354-2.354 7.188-2.458 10.552-4.14 1.416-.708 3.597.271 5.066-.463.844-.422 2.56.097 4.422.905 3.542-.075 6.268-.443 9.809-.443 4.21 0 10.022-1.998 16.18-5.025 6.817-1.535 15.148-3.308 15.538-3.698 2.962-2.961 10.833-2.11 13.77-5.045 2.08-2.08 4.752-2.924 6.894-5.066 1.908-1.907 4.529-4.092 7.276-6.392.479-1.333 1.703-2.587 2.834-3.718.474-.474 3.821-10.268 3.216-11.478-1.107-2.215-2.937-4.046-5.045-5.748-.654-.224-1.155-.452-1.387-.684-2.251-2.251-7.647-2.601-9.648-4.603-3.223-3.223-8.068-6.12-13.85-8.06-1.21-.6-2.343-1.239-3.155-2.05-1.03-1.03-6.98-2.345-8.724-3.216-.937-.47-2.978.257-3.678-.443-1.697-1.697-8.811-2.906-13.95-4.542-.75.047-1.951-.525-2.17-.744-.155-.155-4.139-.741-5.448-2.05-.149-.149-.683-5.486-.683-6.151 0-.245-.595-1.234-.242-1.588.056-.055.11-.12.161-.18-2.378-14.657-4.197-30.84-5.91-32.282-2.543-2.142-3.956-13.966-6.753-16.322-2.925-2.463-4.755-5.156-7.015-7.256v-.02c-.85-4.673-2.465-9.922-2.975-10.352-.829-.698.427-3.865-.402-4.563-2.58-2.173-5.942-14.947-8.362-16.985-3.17-2.67-4.729-6.812-7.738-9.347C140.825 9.64 128.47.32 114.814 1.027a17.5 17.5 0 0 1-1.708-.583c-.868-.345-1.853-.461-2.875-.442z"/>
  <path fill="#e6b35a" d="M107.283 81.106c-1.147-.207-2.269-.22-3.149.073-1.465.486-3.827-.665-5.357-.39-5.785 1.045-10.32 2.612-11.1 4.557 8.585-2.462 18.116 3.032 22.02 8.252 1.624 2.17-.88 5.459.004 8.121.2.603.36 4.462-.335 4.982-1.453 1.087-1.309 4.878-2.51 6.609-2.827 4.073-5.293 7.048-7.695 10.508-2.476 3.568-9.099 4.283-12.795 5.51-.816.27-1.845-.293-2.705-.008-.204.068-.441.08-.678.046.083.094.18.184.248.276.312.416 1.832.02 2.276.328 2.872 1.994 14.237 1.229 17.388.183 1.96-.65 3.78-1.612 5.74-2.263 2.514-.834 4.989-4.744 6.795-6.757 6.21-6.924 9.049-18.916 5.977-28.17-1.544-4.652-5.586-7.44-9.027-9.83-1.176-.816-3.185-1.683-5.097-2.028zM121.136 72.168c-.37-.011-.422 3.609-.45 5.335-.174.01-.167.228-.12.474-1.867.829-5.93 2.49-5.619 2.821.015.008.016.018.024.024-.148.008-.302.057-.309.26-.014.269.538.016.806.025.433.014 4.212 1.408 5.714 2.038.187 1.428.735 2.28.735 3.912 0 1.018.2 2.419.261 2.419.022 0 .063-.032.094-.048.044.177.094.28.166.213.295-.276.831-1.017 1.375-1.849.024-.036.049-.059.07-.095.959-1.186 2.053-2.705 2.988-4.077 1.813.263 3.473.474 3.888.474.2 0 7.087 1.183 5.098-.806-.121-.122-.262-.225-.403-.332.044-.035.069-.071.07-.119.015-.384-3.83-2.151-4.457-2.821-.302-.323-.74-.53-1.043-.854-.08-.085.07-.322.308-.664v-.023c.535-.59 1.105-1.2 1.517-1.612.198-.198 1.31-2.28.255-2.143-.712.093-3.039.24-6.086 1.132 0 0-.822-1.076-.828-1.073-.662-.27-2.536-2.56-4.057-2.61zM103.93 71.631c-.22.106-.553.537-.658.318-.106-.22.877-.424.658-.318-.655.316-3.187 2.597-2.254 3.318.768.593 3.614-.516 4.822-.094.18.063 2.187 3.141 2.501 2.242.513-1.467-.122-3.96-.106-4.005.237-.677 2.09-.4 2.542-.618.375-.18 1.133-.5 1.238-.8.028-.08.048-.32.085-.243.03.063-.495-.446-1.135-.67-.956-.334-1.924-.125-2.61-.364-.315-.11.066-1.97-.05-2.207-.376-.781-.615-1.697-.549-1.56.187.387-.81.379-1.072.72-.328.424-1.187 1.862-1.743 1.854-.666-.01-3.333-.645-3.512-.132-.014.028 1.662 1.688 1.843 2.56zM129.71 97.505c-.179-.165-.701-.318-.536-.497.166-.178.715.663.536.497-.533-.494-3.58-2.02-3.911-.889-.273.931 1.798 3.178 1.845 4.456.015.191-2.128 3.182-1.176 3.147 1.553-.058 3.644-1.557 3.692-1.56.716-.026 1.133 1.8 1.501 2.143.304.282.879.872 1.195.86.087-.002.317-.072.259-.01-.048.052.235-.623.21-1.3-.038-1.013-.585-1.838-.612-2.563-.015-.335 1.857-.658 2.037-.851.59-.636 1.356-1.192 1.252-1.081-.293.316-.648-.615-1.061-.736-.515-.15-2.167-.427-2.362-.947-.234-.624-.615-3.338-1.157-3.318-.031 0-.967 2.163-1.712 2.649z"/>
  <path fill="#e6b35a" d="M188.342 121.55c-.52 1.786-3.775 7.514-5.146 8.884-1.763 1.763-3.279 3.6-4.824 5.146-1.095 1.095-4.22 3.9-5.146 4.824-2.01 2.01-3.188 1.26-5.467 3.538-1.13 1.129-3.403 1.151-4.503 2.25-.994.996-8.974 1.594-10.934 2.574-.474.237-1.89-.36-2.251 0-1.408 1.408-12.534 1.92-12.865 2.251-1.703 1.703-6.238-.258-8.683.965-2.169 1.084-6.473.321-9.005.321-1.402 0-5.128-.026-8.965-.12-.906-.128-1.62-.23-1.648-.201-.02.02-.107.108-.161.16-.72-.022-1.415-.052-2.11-.08-.434-.165-.894-.267-1.267-.08-.017.009-.042.012-.06.02-2.994-.145-5.437-.357-6.05-.663-2.517-1.259-5.22-1.608-8.362-1.608-4.919 0-15.81-5.814-19.618-7.719-.584-.292-2.202-1.988-3.076-2.452-.007-.337-.019-.642-.14-.764-.897-.896-1.29-2.899-1.93-4.181-.267-.533 0-2.489 0-2.251 0 .01.646-2.573.643-2.573-.551 0-3.433 3.755-4.502 4.824-.01.01.02.068.04.12-.603.831-1.025 2.07-1.025 3.94 0 6.375 3.516 6.712 6.814 10.01.81.81 2.543.272 3.176.905.645.646 1.593 1.22 2.713 1.729-1.4.82-4.1 1.024-4.985 1.91-.865.864-4.877 3.352-6.372 4.1-.28.14-1.64.293-1.809.462-8.496 8.496-18.084 13.984-25.93 21.829-.66.66-.904 9.287-.904 10.915 0 2.841-.965 5.849.905 7.718.788.789 3.404.228 4.1.925.151.15 2.053 1.565 2.272 1.347.83-.83-.463-5.17-.463-6.352 0-6.21.67-12.49 4.563-16.382 7.506-7.506 18.208-10.932 25.005-17.729 1.998-1.998 5.659-3.062 8.322-5.246-.094.64.015 1.244.482 1.749.31.335 1.416-.33 1.81-.12 2.67 1.415 10.809 4.451 13.205 1.527.435.826.78 1.663 1.206 2.09 1.596 1.596.348 9.295-.462 10.915-3.057 6.113-4.669 23.764-7.277 26.372-.45.45.54 4.738.905 5.467.948 1.895-.693 6.12 0 6.814.682.682.242 2.494.925 3.176.62.621 3.459-.159 4.08.462.246.246 3.482 2.448 4.1 1.83.513-.513-1.403-6.425-1.829-7.277-.366-.734.988-14.194 1.367-14.573.53-.53-.53-2.645 0-3.176 1.033-1.033 2.272-22.443 2.272-25.467 0-.51 1.304-3.7.462-4.543-.005-.005-.754-1.725-1.769-3.397 1.5.112 2.764.292 3.136.664.667.667 14.124 0 16.362 0 8.885 0 22.864-.689 28.2-1.83 2.128-.454 7.173-.852 10.01-2.27 1.648-.825 7.45-1.388 8.463-1.65 2.166-.557 9.128-2.233 11.075-4.18 1.445-1.444 6.383-6.448 8.201-7.357 2.05-1.025 3.08-4.666 4.282-6.352.154-1.248 3.513-4.51 2.854-5.829-.748-3.045-1.216-6.194-2.412-6.311z"/>
</svg>
