<svg xmlns="http://www.w3.org/2000/svg" viewBox="0 0 255.069 255.069">
  <defs>
    <radialGradient id="a" cx="129.457" cy="104.84" r="44.875" fx="129.457" fy="104.84" gradientUnits="userSpaceOnUse">
      <stop offset="0%" stop-color="#797979"/>
      <stop offset="100%" stop-color="#4C4C4C"/>
    </radialGradient>
  </defs>
  <g transform="translate(-.276 -.93)">
    <circle cx="127.949" cy="128.603" r="127.397" fill="#f5bb60"/>
    <circle cx="114.961" cy="115.615" r="114.685" fill="#e86f32"/>
    <circle cx="130.16" cy="100.416" r="99.485" fill="#e53d42"/>
    <circle cx="138.174" cy="108.43" r="91.471" fill="#bfd141"/>
    <circle cx="131.542" cy="115.062" r="84.839" fill="#6db64c"/>
    <circle cx="118.001" cy="101.798" r="71.298" fill="#afdbe7"/>
    <circle cx="129.607" cy="89.915" r="59.691" fill="#57badf"/>
    <circle cx="137.069" cy="97.376" r="52.506" fill="#02b2d6"/>
    <circle cx="129.331" cy="104.837" r="44.768" fill="url(#a)" style="fill:url(#a)"/>
    <circle cx="129.331" cy="104.837" r="44.768" fill="#231f20"/>
    <path fill="#fff" d="M141.088 98.971c4.439 1.992 10.56-2.016 13.672-8.951 3.112-6.936 2.036-14.173-2.402-16.164-4.44-1.992-10.56 2.016-13.672 8.951-3.112 6.936-2.037 14.173 2.402 16.164z"/>
  </g>
</svg>
