<svg xmlns="http://www.w3.org/2000/svg" viewBox="0 0 256 500.742">
  <path fill="#86ad8a" d="M256 128 128.959 262.006 0 128 128 0l128 128"/>
  <path fill="#fff" d="M106.088 329.432c7.602-22.458 11.63-91.606 9.488-126.019-.256-4.128-.668-8.92-1.388-12.745a30.752 30.752 0 0 0-.785-3.314V52.856c0-11.473 10.52-16.895 20.402 8.285 9.883 25.179 7.013 114.74 7.013 121.108 0 1.351-1.226 2.948-3.15 4.515a26.4 26.4 0 0 0-2.109 1.513c-5.919 4.749-6.782 10.225-7.091 15.136-2.141 34.413-3.118 103.561 4.484 126.019 8.906 26.314-8.036 29.619-13.428 29.619-5.401-.002-22.342-3.307-13.436-29.619zM76.825 88.162c-.948.099-2.132 18.839-2.523 32.373-.478 16.444-1.218 31.07-5.836 31.07-3.468 0-5.619-5.726-5.051-20.257.817-20.926.792-43.186-.44-43.186-1.553 0-8.746 46.156-8.746 62.393 0 11.646 4.991 22.615 11.245 28.327l.066.054.558.495.02.017c4.519 4.12 5.657 8.595 5.962 12.683 2.581 34.403-2.263 119.635-11.394 142.092-10.697 26.305 9.654 29.619 16.139 29.619 6.475 0 26.827-3.314 16.128-29.619-9.131-22.459-13.967-107.689-11.394-142.092.307-4.088 1.442-8.563 5.962-12.683l.02-.017.558-.495.066-.054c6.253-5.71 11.567-16.685 11.246-28.327-1.274-46.191-6.548-62.393-8.101-62.393-1.232 0-1.23 24.656-.879 42.192.287 14.365-.945 20.837-4.997 20.837-3.859 0-5.025-13.991-5.515-30.841-.393-13.57-1.614-32.188-3.091-32.188zm102.46 265.26c-5.109 0-21.135-3.135-12.707-28.029 7.195-21.253 11.004-101.906 8.979-134.472-.103-1.658-.514-3.34-.829-5.118-.889-5.025-7.11-9.141-10.712-12.755-6.996-7.02-11.49-18.824-11.49-32.136 0-21.613 11.981-48.967 26.759-48.967 14.779 0 26.76 27.354 26.76 48.967 0 13.312-4.496 25.116-11.49 32.136-3.602 3.614-9.823 7.73-10.712 12.755-.315 1.778-.724 3.46-.829 5.118-2.027 32.564 1.784 113.217 8.979 134.472 8.428 24.896-7.598 28.029-12.708 28.029z"/>
  <path fill="#ceccae" d="M255.395 377.994 0 128l.527 250.325h254.868"/>
  <path fill="#3f894a" d="M.527 377.994v122.748h254.868V127.346L.527 377.994"/>
  <path fill="#fff" d="m253.633 160.444-.706-.713 1.429-1.411.706.713zM5.589 405.425l-.706-.713 2.885-2.85.706.713zm5.768-5.697-.705-.714 2.885-2.849.705.713zm5.769-5.697-.705-.714 2.883-2.849.706.713zm5.769-5.698-.706-.713 2.884-2.849.706.713zm5.768-5.697-.705-.713 2.884-2.85.705.714zm5.768-5.697-.705-.713 2.885-2.85.705.714zm5.769-5.697-.706-.713 2.884-2.85.706.714zm5.768-5.699-.705-.713 2.884-2.848.705.713zm5.769-5.697-.705-.714 2.883-2.847.706.713zm5.768-5.697-.706-.714 2.885-2.847.706.713zm5.768-5.697-.705-.714 2.885-2.847.705.713zm5.769-5.698-.705-.713 2.884-2.848.705.714zm5.769-5.697-.706-.713 2.884-2.848.706.714zm5.768-5.697-.706-.713 2.885-2.848.705.714zm5.768-5.697-.705-.713 2.885-2.848.705.713zm5.769-5.697-.706-.714 2.884-2.849.706.713zm5.769-5.697-.706-.714 2.884-2.849.705.713zm5.768-5.697-.705-.714 2.884-2.849.705.713zm5.768-5.698-.706-.713 2.885-2.849.706.713zm5.769-5.697-.706-.713 2.884-2.85.706.714zm5.768-5.697-.705-.713 2.884-2.85.705.714zm5.769-5.697-.706-.713 2.884-2.85.706.714zm5.769-5.697-.706-.713 2.883-2.85.705.713zm5.767-5.697-.705-.714 2.885-2.849.705.713zm5.768-5.699-.705-.714 2.884-2.847.706.713zm5.77-5.697-.706-.714 2.885-2.847.706.713zm5.767-5.698-.705-.713 2.885-2.848.705.714zm5.77-5.696-.705-.713 2.882-2.849.706.714zm5.768-5.697-.706-.713 2.885-2.85.706.714zm5.767-5.698-.705-.713 2.885-2.849.705.713zm5.77-5.697-.706-.714 2.883-2.848.706.713zm5.768-5.697-.706-.714 2.885-2.848.706.713zm5.769-5.697-.705-.714 2.883-2.848.705.713zm5.768-5.698-.705-.713 2.884-2.849.706.714zm5.768-5.697-.706-.713 2.885-2.849.706.714zm5.77-5.697-.706-.713 2.883-2.849.705.714zm5.767-5.697-.705-.713 2.884-2.849.706.713zm5.768-5.697-.706-.714 2.885-2.848.706.713zm5.769-5.698-.705-.714 2.883-2.848.705.713zm5.768-5.697-.705-.714 2.885-2.848.705.713zm5.77-5.698-.706-.713 2.883-2.848.706.713zm5.767-5.697-.705-.713 2.885-2.849.705.714zm5.768-5.697-.705-.713 2.885-2.849.705.714zM1.279 409.684l-.705-.714L2 407.559l.706.714zM41.372 416.689h12.699c1.66 0 3.341.135 5.043.404 1.702.271 3.227.831 4.576 1.682 1.348.85 2.448 2.035 3.299 3.548.851 1.517 1.276 3.518 1.276 6.008 0 2.24-.664 4.192-1.992 5.852-1.329 1.66-3.3 2.762-5.915 3.301v.125c1.453.124 2.78.465 3.984 1.027a9.926 9.926 0 0 1 3.113 2.242c.871.933 1.545 2.045 2.022 3.329.478 1.289.717 2.699.717 4.233 0 2.532-.488 4.597-1.463 6.195-.975 1.599-2.202 2.853-3.673 3.767a14.065 14.065 0 0 1-4.794 1.868c-1.722.333-3.331.498-4.824.498H41.37v-44.079zm4.108 19.049h8.529c2.117 0 3.839-.259 5.167-.778 1.329-.52 2.366-1.152 3.113-1.899.748-.746 1.246-1.547 1.495-2.396.249-.849.373-1.629.373-2.334 0-1.535-.259-2.811-.778-3.829-.52-1.015-1.215-1.824-2.085-2.428-.873-.6-1.889-1.028-3.051-1.276a17.494 17.494 0 0 0-3.674-.374H45.48zm0 21.293h9.4c2.406 0 4.347-.291 5.82-.873 1.473-.58 2.604-1.306 3.393-2.177.789-.873 1.317-1.797 1.587-2.772.27-.973.406-1.858.406-2.645 0-1.619-.311-3.008-.933-4.17-.622-1.162-1.431-2.107-2.428-2.834a10.08 10.08 0 0 0-3.392-1.587 15.084 15.084 0 0 0-3.829-.498H45.48zm32.771-16.934c0-.54-.022-1.194-.062-1.962a80.288 80.288 0 0 1-.092-2.334 67.012 67.012 0 0 0-.094-2.212 26.798 26.798 0 0 1-.063-1.587h3.735c.042 1.079.072 2.117.092 3.112.02.998.073 1.64.157 1.931.955-1.702 2.179-3.091 3.672-4.17 1.495-1.08 3.32-1.62 5.479-1.62.373 0 .737.032 1.09.095l1.09.216-.436 3.673a4.55 4.55 0 0 0-1.431-.249c-1.619 0-3.018.259-4.202.778-1.182.52-2.157 1.235-2.926 2.148-.769.913-1.339 1.981-1.712 3.207-.373 1.226-.56 2.542-.56 3.953v15.688h-3.735v-20.667zm44.693 12.575c0 .542.02 1.194.062 1.963.042.768.072 1.547.092 2.334.02.79.052 1.527.094 2.211.041.685.063 1.212.063 1.588h-3.735a165.408 165.408 0 0 1-.092-3.113c-.022-.997-.073-1.64-.157-1.93h-.187c-.748 1.577-1.992 2.936-3.734 4.077-1.744 1.14-3.777 1.712-6.101 1.712-2.242 0-4.078-.353-5.511-1.057-1.433-.705-2.553-1.63-3.361-2.77-.809-1.142-1.361-2.46-1.65-3.955a24.028 24.028 0 0 1-.435-4.606v-17.12h3.734v16.933c0 1.164.103 2.296.311 3.394.209 1.098.57 2.085 1.09 2.958.518.871 1.246 1.565 2.179 2.085.934.52 2.148.779 3.643.779 1.369 0 2.667-.239 3.889-.715a8.38 8.38 0 0 0 3.175-2.179c.893-.975 1.597-2.202 2.117-3.673.518-1.473.779-3.207.779-5.199v-14.381h3.735zm9.199-12.575c0-.54-.02-1.194-.058-1.962a80.223 80.223 0 0 1-.095-2.334 80.165 80.165 0 0 0-.094-2.212 27.517 27.517 0 0 1-.062-1.587h3.735c.04 1.079.07 2.117.094 3.112.02.998.07 1.64.152 1.931h.189c.749-1.576 1.991-2.936 3.735-4.078 1.744-1.14 3.779-1.712 6.103-1.712 2.237 0 4.063.353 5.476 1.058 1.413.704 2.525 1.629 3.332 2.771.81 1.14 1.372 2.459 1.681 3.954.309 1.493.466 3.03.466 4.605v17.121h-3.735V443.83a18.32 18.32 0 0 0-.309-3.394c-.209-1.097-.572-2.085-1.09-2.956-.521-.873-1.246-1.567-2.179-2.087-.933-.517-2.147-.778-3.64-.778-1.373 0-2.67.238-3.892.716a8.409 8.409 0 0 0-3.175 2.177c-.893.976-1.599 2.202-2.117 3.675-.521 1.473-.78 3.207-.78 5.198v14.381h-3.735v-20.665zm57.588 16.436c-1.411 1.704-3.01 2.958-4.794 3.767-1.786.809-3.717 1.212-5.79 1.212-2.202 0-4.234-.373-6.103-1.122-1.868-.746-3.466-1.794-4.794-3.142-1.329-1.349-2.366-2.946-3.113-4.795-.746-1.846-1.121-3.869-1.121-6.068 0-2.2.375-4.223 1.121-6.069.747-1.846 1.784-3.446 3.113-4.794 1.328-1.349 2.926-2.397 4.794-3.143 1.869-.749 3.901-1.122 6.103-1.122 2.117 0 4.076.436 5.882 1.307 1.806.872 3.414 2.097 4.825 3.672l-2.989 2.242c-1.077-1.204-2.261-2.148-3.548-2.834a8.754 8.754 0 0 0-4.17-1.027c-1.744 0-3.321.311-4.732.935-1.411.622-2.615 1.463-3.61 2.52-.996 1.058-1.754 2.304-2.274 3.735-.52 1.433-.779 2.958-.779 4.576 0 1.617.259 3.142.779 4.575.52 1.431 1.278 2.677 2.274 3.735.995 1.058 2.199 1.898 3.61 2.52 1.411.625 2.988.936 4.732.936 1.575 0 3.018-.364 4.325-1.09a11.301 11.301 0 0 0 3.391-2.894zm5.308-42.832h3.735v23.346h.124c.747-1.576 1.991-2.936 3.735-4.078 1.742-1.14 3.777-1.712 6.101-1.712 2.239 0 4.066.353 5.476 1.058 1.411.704 2.523 1.629 3.332 2.771.808 1.14 1.37 2.459 1.679 3.954.312 1.493.468 3.03.468 4.605v17.121h-3.735v-16.934a18.32 18.32 0 0 0-.311-3.394c-.208-1.097-.572-2.085-1.089-2.956-.52-.873-1.245-1.567-2.18-2.087-.933-.518-2.147-.778-3.64-.778-1.371 0-2.667.238-3.891.716a8.393 8.393 0 0 0-3.175 2.177c-.891.976-1.598 2.202-2.117 3.675-.52 1.473-.779 3.207-.779 5.198v14.381h-3.735v-47.063z"/>
</svg>
