<svg xmlns="http://www.w3.org/2000/svg" viewBox="0 0 150.004 70.032">
  <path fill="#900" d="M76.67 69.61c9.197-1.055 17.749-9.933 16.259-19.398-.63-4.006-3.255-8.135-7.598-11.008-3.395-2.246-19.979-10.087-22.889-12.102-1.784-1.366-5.285-5.11-5.543-7.524-.7-6.503 2.85-9.286 6.449-10.95 1.48-.698 3.397-.954 4.184-1.045 6.713-.785 8.891.435 15.031 3.348.632.298 1.26.314 1.94.206 2.066-.324 3.492-1.23 3.168-3.293-.243-1.532-1.095-2.233-2.694-3.026C80.696 2.701 72.67.164 65.909 1.228c-.114.016-.224.04-.336.058l-.017-.094c-9.38 1.56-16.814 10.043-15.333 19.456.797 5.059 4.69 9.297 8.668 11.887 2.665 2.234 12.294 6.105 21.824 11.388 3.38 1.874 4.744 3.726 5.24 7.918.514 4.35-4.525 9.291-8.464 10.786-6.124 1.796-13.321-.75-18.117-3.288-1.432-.932-2.09-1.425-3.407-1.217a3.786 3.786 0 0 0-3.149 4.325c.217 1.373 1.008 2.336 2.352 2.93 8.529 3.754 14.28 5.061 21.5 4.234zM17.398 0c-.161 0-.328.06-.479.12C7.587 1.166.281 8.935 0 18.476h.12c-.007.093-.04.184-.04.28V66.16c0 1.747 1.155 3.155 2.634 3.432.026.005.052.036.08.04.399.14.86.2 1.316.2h26.895v.2c10.996-.028 19.913-8.948 19.913-19.953 0-8.897-5.845-16.419-13.887-18.994 3.417-3.288 5.547-7.892 5.547-13.009 0-9.664-7.581-17.544-17.12-18.037-.065-.009-.132-.038-.2-.038h-7.86zm.28 6.265H24.9c6.1.629 10.854 5.668 10.854 11.812 0 5.939-4.45 10.844-10.255 11.732H9.577a4.655 4.655 0 0 1-2.554-2.156 4.56 4.56 0 0 1-.559-2.194v-.918h-.12v-5.786c0-.175-.017-.35-.04-.518A12.776 12.776 0 0 1 17.678 6.345v-.08zm13.328 29.848v.12c7.454.115 13.447 6.205 13.447 13.687 0 7.48-5.994 13.533-13.447 13.648v.04H6.346V40.863h.12v-.918c0-.795.202-1.543.559-2.195a4.647 4.647 0 0 1 1.436-1.596h22.106c.15 0 .295-.02.44-.04zM110.1 1.397v.04h-.16c-5.655 0-10.302 4.336-10.814 9.856v54.23c0 1.73 1.135 3.177 2.594 3.472.077.015.16.03.24.04.08.01.156.04.239.04h14.286c18.581-.422 33.52-15.381 33.52-33.8 0-18.222-14.612-33.077-32.922-33.798-.302-.038-.554-.08-.718-.08H110.1zm-1.117 5.786h10.375c14.13 1.777 25.06 13.682 25.06 28.093 0 14.313-10.79 26.113-24.78 28.013h-10.455c-1.382-.297-2.576-1.156-3.227-2.355-.355-.654-.52-1.402-.52-2.195v-.918h-.04v-46.25c.008-.78.21-1.554.559-2.195a4.526 4.526 0 0 1 3.033-2.274z"/>
</svg>
