<svg xmlns="http://www.w3.org/2000/svg" viewBox="0 0 256 261.562">
  <path d="M136.442 1.515c38.04 17.645 76.703 35.867 114.69 53.622 2.027.948 4.685 1.593 4.688 4.463.004 2.875-2.65 3.515-4.682 4.464a76686.65 76686.65 0 0 1-114.45 53.437c-5.814 2.707-11.784 2.672-17.605-.041A104736.431 104736.431 0 0 1 4.403 63.907c-1.967-.92-4.442-1.616-4.365-4.413.072-2.617 2.44-3.297 4.332-4.182C42.747 37.38 81.513 19.166 119.94 1.344c4.062-1.881 12.27-1.753 16.502.17zm-8.562 260.047c-2.767 0-4.84-1.05-8.794-2.53-38.185-17.712-76.323-35.526-114.458-53.346-2.027-.947-4.652-1.616-4.628-4.504.025-2.873 2.652-3.507 4.68-4.471 6.325-3.008 12.683-5.948 19.038-8.893 6.35-2.943 12.657-2.902 19.025.083 25.28 11.85 50.586 23.64 75.876 35.465 6.28 2.936 12.506 2.875 18.778-.063a70166.124 70166.124 0 0 1 76.108-35.573c5.992-2.797 12.063-2.875 18.083-.147 6.77 3.067 13.49 6.244 20.214 9.405.997.469 2.008.998 2.843 1.7 1.797 1.515 1.821 3.566-.013 5.035-1.115.893-2.449 1.55-3.757 2.16-37.827 17.674-75.649 35.358-113.527 52.922-2.944 1.364-6.7 2.757-9.468 2.757zm-.134-70.823c-1.265 0-6.18-1.342-8.978-2.641-38.028-17.66-76.005-35.43-113.985-53.191-2.04-.954-4.7-1.57-4.753-4.412-.056-3.015 2.728-3.618 4.828-4.617 6.396-3.045 12.81-6.056 19.247-9.014 6.104-2.804 12.218-2.738 18.317.11 25.535 11.928 51.07 23.858 76.623 35.746 5.915 2.752 11.922 2.73 17.842-.025 25.627-11.933 51.236-23.903 76.86-35.844 5.924-2.761 11.91-2.76 17.838-.054 6.756 3.082 13.47 6.257 20.191 9.414.923.434 1.87.892 2.66 1.52 2.04 1.62 2.023 3.759-.04 5.38-.794.625-1.737 1.086-2.66 1.518-38.37 17.937-76.732 35.89-115.148 53.725-2.64 1.227-7.578 2.385-8.842 2.385z"/>
</svg>
