<svg xmlns="http://www.w3.org/2000/svg" viewBox="0 0 512 140.587">
  <path fill="#000d47" d="M322.656 30.03c-16.32.486-29.12 14.307-29.12 30.647v37.307a1.6 1.6 0 0 0 1.6 1.6h9.043a1.6 1.6 0 0 0 1.6-1.6V60.543c0-9.6 7.341-17.812 16.897-18.286 9.82-.483 18.175 7.085 18.66 16.906 0 .298.022.592.022.887v37.953a1.6 1.6 0 0 0 1.6 1.6h9.04a1.6 1.6 0 0 0 1.6-1.6V60.06c-.023-16.61-13.505-30.058-30.116-30.039-.272-.003-.554 0-.826.01zm76.326.339c-15.561-.701-29.687 9.042-34.558 23.838-4.872 14.795.701 31.025 13.635 39.706 12.934 8.681 30.065 7.691 41.913-2.422v6.47a1.6 1.6 0 0 0 1.6 1.6h9.05a1.6 1.6 0 0 0 1.6-1.6V65.784c-.02-18.72-14.542-34.615-33.24-35.415zm-1.51 57.211a22.51 22.51 0 1 1 22.5-22.516c-.01 12.426-10.075 22.499-22.5 22.516zm81.282-57.208c-15.561-.701-29.686 9.042-34.558 23.838-4.872 14.796.701 31.025 13.635 39.706 12.934 8.682 30.065 7.691 41.913-2.422v13.735c0 12.618-10.324 23.338-22.942 23.108a22.35 22.35 0 0 1-17.92-9.472 1.58 1.58 0 0 0-2.113-.41l-7.68 4.762a1.6 1.6 0 0 0-.467 2.278 34.497 34.497 0 0 0 27.962 15.073c19.473.37 35.416-15.956 35.416-35.435V65.82c-.01-18.756-14.532-34.651-33.23-35.451zm-1.5 57.208a22.51 22.51 0 1 1 22.506-22.51c-.014 12.425-10.082 22.494-22.507 22.51zM187.176 30.37c-15.56-.697-29.682 9.049-34.551 23.844-4.869 14.796.706 31.023 13.64 39.703 12.934 8.679 30.064 7.688 41.91-2.425v13.735c0 12.618-10.323 23.344-22.945 23.108a22.36 22.36 0 0 1-17.92-9.473 1.578 1.578 0 0 0-2.112-.41l-7.68 4.762a1.6 1.6 0 0 0-.512 2.215c.016.022.028.045.044.064a34.49 34.49 0 0 0 27.915 15.088c19.476.372 35.419-15.955 35.419-35.434V65.82c.022-18.756-14.5-34.651-33.208-35.451zm-1.51 57.211c-12.432 0-22.51-10.078-22.51-22.51 0-12.43 10.078-22.509 22.51-22.509 12.431 0 22.51 10.078 22.51 22.51-.017 12.425-10.085 22.493-22.51 22.51zm-47.682-56.76-9.05.141a1.6 1.6 0 0 0-1.571 1.578v36.094c-.01 9.832-7.988 17.796-17.821 17.789-.288 0-.573 0-.861-.022-9.556-.468-16.894-8.718-16.894-18.286V32.593a1.6 1.6 0 0 0-1.6-1.6h-9.043a1.6 1.6 0 0 0-1.6 1.6v35.419c0 16.32 12.8 30.164 29.12 30.65 16.607.47 30.45-12.61 30.92-29.217V32.411a1.6 1.6 0 0 0-1.6-1.6zm121.316 28.42c-8.864-2.464-14.247-4.3-14.247-9.1 0-6.945 7.597-9.464 12.704-9.464 5.825 0 9.351 1.341 13.934 4.16a1.6 1.6 0 0 0 2.163-.499l4.198-6.512a1.6 1.6 0 0 0-.476-2.205l-.048-.028a38.923 38.923 0 0 0-20.196-5.614c-11.52 0-23.38 7.585-23.38 20.273 0 12.954 11.52 16.065 21.652 18.81 9.6 2.592 15.411 4.602 15.411 10.65 0 5.556-5.709 9.748-13.274 9.748-7.283 0-13.242-3.29-17.28-6.4a1.58 1.58 0 0 0-2.202.25l-4.986 6.08a1.6 1.6 0 0 0 .23 2.24c6.555 5.497 15.285 8.505 24.782 8.505 13.793 0 23.796-8.762 23.796-20.839.032-13.715-12.634-17.235-22.79-20.058zM38.814 30.57a34.603 34.603 0 0 0-26.56 8.078V1.6a1.6 1.6 0 0 0-1.6-1.6c-.29 0-.573.08-.82.23L.762 5.747A1.6 1.6 0 0 0 0 7.111v57.253C0 83.1 14.522 98.982 33.22 99.782c18.643.767 34.563-13.326 36.063-31.924S57.326 32.798 38.8 30.568zm-4.077 57.01c-12.432 0-22.51-10.078-22.51-22.51 0-12.43 10.078-22.509 22.51-22.509 12.432 0 22.51 10.078 22.51 22.51a22.506 22.506 0 0 1-22.51 22.51z"/>
</svg>
