<svg xmlns="http://www.w3.org/2000/svg" viewBox="0 0 256 368.523">
  <path fill="#000d47" d="M65.042 2.174a17.108 17.108 0 0 1 8.762 14.94l.164 150.405H128c29.528-.004 56.151 17.78 67.454 45.059 11.303 27.28 5.06 58.68-15.818 79.562-20.878 20.881-52.279 27.129-79.56 15.83-27.28-11.299-45.068-37.92-45.068-67.447l-.066-53.955H19.038v53.955c0 60.178 48.784 108.962 108.962 108.962 60.178 0 108.962-48.784 108.962-108.962 0-60.179-48.784-108.963-108.962-108.963h-16.515a9.519 9.519 0 1 1 0-19.037H128c70.692 0 128 57.307 128 128 0 70.692-57.308 128-128 128-70.66-.079-127.921-57.34-128-128v-63.474a9.53 9.53 0 0 1 9.519-9.53h45.4l-.153-146.95-35.728 21.988v83.674a9.519 9.519 0 0 1-19.038 0V41.47a17.184 17.184 0 0 1 8.148-14.574L47.726 2.54a17.108 17.108 0 0 1 17.316-.367zm62.903 184.394H73.99v53.944a53.955 53.955 0 1 0 53.955-53.944zm.055 38.69c8.43 0 15.265 6.834 15.265 15.265 0 8.43-6.834 15.265-15.265 15.265-8.43 0-15.265-6.835-15.265-15.265 0-8.431 6.834-15.266 15.265-15.266z"/>
</svg>
