<svg xmlns="http://www.w3.org/2000/svg" viewBox="0 0 511.204 90.952">
  <path d="M488.238 21.627c14.362 0 22.966 9.172 22.966 24.103 0 1.75-.184 3.693-.184 3.877h-33.258c.28 6.127 5.478 10.59 11.719 10.59 5.864 0 9.076-2.932 10.59-7.089l10.476 3.133c-2.363 8.035-9.741 14.748-21.18 14.748-12.76 0-24.007-9.173-24.007-24.856 0-14.88 10.966-24.506 22.878-24.506zm-262.433 1.435v26.825c0 5.199 2.626 9.365 8.507 9.365 5.575 0 8.752-3.78 8.752-9.172V23.062h12.568V61.16c.006 2.81.164 5.618.473 8.41h-11.99a31.507 31.507 0 0 1-.377-5.014c-2.555 4.376-7.947 6.24-12.857 6.24-11.255 0-17.679-8.218-17.679-18.38V23.063zm128.77-21.924.01 60.022c0 3.116.192 6.52.376 8.41h-12a31.727 31.727 0 0 1-.472-5.39c-2.083 3.693-6.81 6.529-13.05 6.529-13.233 0-22.685-10.398-22.685-24.506 0-13.61 9.172-24.288 22.31-24.288 8.034 0 11.814 3.309 13.127 5.76V1.137zm98.086 8.034v13.89h9.364V34.22h-9.364v19.465c0 4.07 1.89 5.39 5.487 5.39a18.074 18.074 0 0 0 3.877-.375v10.44a18.668 18.668 0 0 1-7.098 1.139c-9.067 0-14.738-5.392-14.738-14.371V34.22h-6.083V23.06c4.91 0 7.177-3.211 7.177-7.368v-6.52zM185.134 2.556c13.04 0 20.41 7.649 20.41 18.047 0 6.905-4.157 12.48-9.732 14.37 6.52 1.61 11.815 7.562 11.815 15.877 0 10.87-8.13 18.72-20.699 18.72H161.04V2.557zm93.184 20.506V69.57h-12.56V23.06zm22.694-21.924V69.57h-12.568V1.138zm75.566 0v39.227l16.07-17.303H409.1l-18.624 19.57 19 26.939h-15.403L381.82 51.795l-5.252 5.488v12.253H364.01V1.138zm50.413 21.924V69.57h-12.577V23.06zm-96.038 10.117c-6.424 0-11.5 4.727-11.5 13.041 0 8.315 4.884 13.233 11.5 13.233 6.424 0 11.44-4.91 11.44-13.32 0-8.411-5.016-12.954-11.44-12.954zM184.67 41.021H173.88v17.68h10.59c6.336 0 10.117-3.309 10.117-8.7 0-5.391-3.404-8.98-9.916-8.98zm293.354 0h20.795c-.184-4.63-3.212-9.163-10.397-9.163a10.065 10.065 0 0 0-10.398 9.163zM183.068 13.513h-9.19v16.734h9.27c5.95 0 9.548-3.308 9.548-8.41 0-5.103-3.309-8.324-9.628-8.324zM271.998 0a7.755 7.755 0 1 1-7.753 7.877A7.746 7.746 0 0 1 271.999 0zm148.656 0a7.755 7.755 0 1 1-7.754 7.877A7.746 7.746 0 0 1 420.654 0z"/>
  <path fill="#30f2a2" d="M43.76 68.634 0 47.192V3.43l43.76 21.443zM87.959 47.192V3.43l43.323 21.443z"/>
  <path fill="#14cc80" d="M43.76 68.634 87.96 47.192V3.43L43.761 24.874z"/>
  <path fill="#14cc80" d="m87.959 90.952 43.323-22.318v-43.76L87.959 47.192z"/>
</svg>
