<svg xmlns="http://www.w3.org/2000/svg" version="1.0" viewBox="0 0 16219.041 2798.147">
  <path d="M5889.244 198.143 6384.6 341.246v1981.428l-495.357 143.103z" style="fill:#3259b4;fill-opacity:1;stroke:none;stroke-width:10px;stroke-linecap:butt;stroke-linejoin:miter;stroke-opacity:1" transform="translate(-5889.244 -88.063)"/>
  <path d="m6670.807 1210.873 484.35 121.087v1067.77l-484.35 99.07z" style="fill:#3c8cff;fill-opacity:1;stroke:none;stroke-width:10px;stroke-linecap:butt;stroke-linejoin:miter;stroke-opacity:1" transform="translate(-5889.244 -88.063)"/>
  <path d="m7496.402 1001.722 451.325-121.087v1309.944l-451.325-132.096z" style="fill:#00c8d2;fill-opacity:1;stroke:none;stroke-width:10px;stroke-linecap:butt;stroke-linejoin:miter;stroke-opacity:1" transform="translate(-5889.244 -88.063)"/>
  <path d="m8244.942 88.063 495.357 143.104v2223.602l-495.358 121.087z" style="fill:#78e6dd;fill-opacity:1;stroke:none;stroke-width:10px;stroke-linecap:butt;stroke-linejoin:miter;stroke-opacity:1" transform="translate(-5889.244 -88.063)"/>
  <path d="M20976.329 1586.941h874.026q-22.003-165.89-141.8-268.814-119.796-102.924-290.934-102.924-173.582 0-298.269 105.346-123.464 104.135-143.023 266.392zm0 184.053q12.225 179.21 141.8 290.61 130.799 111.4 328.83 111.4 127.13 0 237.149-53.278 110.016-53.279 201.697-157.414l167.471 133.196q-125.909 145.305-276.266 214.325-149.134 69.02-337.385 69.02-155.246 0-289.713-55.7-134.465-55.7-231.036-158.625-84.347-90.816-129.576-209.481-45.229-119.877-45.229-250.651 0-309.984 187.03-501.302 187.028-191.318 488.966-191.318 308.047 0 497.521 204.638 190.697 203.427 190.697 537.628v16.952zm-512.541-423.806q-60.745-67.809-138.847-99.292-76.862-32.693-176.038-32.693-192.155 0-316.126 135.618-122.73 134.407-122.73 345.099 0 210.692 121.491 343.888 122.73 133.196 317.365 133.196 105.375 0 185.957-36.326 81.819-36.326 138.846-107.768l152.484 170.733q-104.136 93.238-219.428 136.83-114.053 42.38-257.859 42.38-147.525 0-272.736-48.435-125.209-48.435-216.948-140.462-97.937-96.87-148.765-221.59-49.589-125.93-49.589-272.446 0-146.516 49.589-272.447 50.828-125.93 148.765-222.8 92.978-93.238 216.948-140.462 123.971-48.435 272.736-48.435 141.326 0 255.38 41.17 115.292 41.17 209.51 124.72zm-2257.02 998.971V1044.47h232.044v148.938q87.633-88.394 183.906-130.774 97.507-43.592 208.592-43.592 228.34 0 360.407 152.57 132.067 152.57 132.067 420.174v754.374h-234.512v-731.368q0-204.638-72.822-299.086-71.587-95.659-225.871-95.659-175.266 0-264.134 101.714-87.633 100.502-87.633 302.718v721.681zm-892.716-181.631q196.244 0 322.659-131.985 126.414-131.986 126.414-339.045 0-205.849-126.414-337.834-126.415-133.196-322.659-133.196-196.242 0-322.659 131.985-126.414 131.986-126.414 339.045 0 208.27 126.414 340.256 126.417 130.774 322.659 130.774zm665.785 181.631h-228.75v-213.114q-81.87 115.033-199.856 173.155-116.783 56.911-268.481 56.911-134.843 0-257.645-50.856-121.6-52.068-216.712-150.149-90.296-94.448-136.045-213.114-45.751-118.665-45.751-257.916 0-301.507 179.389-486.771 180.592-185.264 476.764-185.264 149.29 0 273.296 61.755 124.007 60.543 211.895 176.787V1044.47h211.896zM15269.933 675.153v1448.205h180.032q393.672 0 592.908-182.842 200.436-182.842 200.436-541.26 0-359.63-200.436-541.261-199.236-182.842-592.908-182.842zm142.825-224.012q528.095 0 802.946 242.175 276.05 240.964 276.05 705.94 0 463.764-276.05 705.94-274.851 240.963-802.946 240.963h-388.87V451.141zm-1850.776 1135.8h859.921q-21.648-165.89-139.511-268.814-117.863-102.924-286.24-102.924-170.781 0-293.455 105.346-121.471 104.135-140.715 266.392zm0 184.053q12.028 179.21 139.513 290.61 128.687 111.4 323.522 111.4 125.079 0 233.321-53.278 108.241-53.279 198.443-157.414l164.768 133.196q-123.876 145.305-271.807 214.325-146.728 69.02-331.941 69.02-152.741 0-285.037-55.7-132.295-55.7-227.307-158.625-82.985-90.816-127.484-209.481-44.5-119.877-44.5-250.651 0-309.984 184.01-501.302 184.012-191.318 481.075-191.318 303.076 0 489.494 204.638 187.618 203.427 187.618 537.628v16.952zm-868.74-1043.767v317.246H12238.457l-349.805 823.398c-5.809 13.723-17.015 44.384-33.613 92.012a110663.135 110663.135 0 0 1-58.496 173.164c-20.747-72.653-38.597-131.995-53.535-178.008-14.109-46.013-24.074-75.06-29.883-87.168l-344.824-823.398h-265.137l558.926 1301.68-235.274 540.058h240.254l747.813-1656.27 278.359 8.262v837.93c0 108.978 28.069 186.87 84.199 233.691 56.129 46.013 150.447 69.024 282.95 69.024h147.695v-219.16h-138.027c-39.567 0-68.551-8.882-86.954-26.641-17.483-17.76-26.23-46.018-26.23-84.766v-810.078h251.211v-193.73h-251.211V727.227zM9676.595 2346.159V451.141h367.142q212.556 0 335.397 19.374 124.221 18.163 205.655 60.544 139.403 72.652 211.175 184.053 73.153 110.19 73.153 249.44 0 115.033-67.632 210.692-66.25 95.659-189.091 156.203 201.513 58.122 305.031 181.63 104.898 122.299 104.898 302.72 0 224.011-201.514 377.792-200.134 152.57-499.645 152.57zm280.188-1078.889h231.879q193.233 0 298.13-78.706 106.278-78.707 106.278-221.59 0-150.149-106.278-226.434t-317.453-76.285h-212.556zm0 856.088h285.708q241.541 0 365.762-81.128 125.601-81.129 125.601-239.753 0-156.203-121.46-236.12-121.461-81.13-358.861-81.13h-296.75z" style="font-style:normal;font-variant:normal;font-weight:400;font-stretch:normal;font-size:2647.62px;line-height:1.25;font-family:'Geometr706 Md BT';-inkscape-font-specification:'Geometr706 Md BT';letter-spacing:0;word-spacing:0;fill:#3259b4;fill-opacity:1;stroke-width:93.437" transform="translate(-5889.244 -88.063)"/>
</svg>
