<svg xmlns="http://www.w3.org/2000/svg" viewBox="0 0 255.582 287.253">
  <path fill="#5c8dbc" d="M255.569 84.452c-.002-4.83-1.035-9.098-3.124-12.76-2.052-3.603-5.125-6.622-9.247-9.009-34.025-19.619-68.083-39.178-102.097-58.817-9.17-5.294-18.061-5.1-27.163.27-13.543 7.986-81.348 46.833-101.553 58.536C4.064 67.49.015 74.862.013 84.443 0 123.898.013 163.353 0 202.808c.002 4.724.991 8.91 2.988 12.517 2.053 3.711 5.169 6.813 9.386 9.254 20.206 11.703 88.02 50.547 101.56 58.536 9.106 5.373 17.997 5.565 27.17.27 34.015-19.64 68.075-39.199 102.105-58.818 4.217-2.44 7.333-5.544 9.386-9.252 1.994-3.608 2.985-7.793 2.987-12.518 0 0 0-78.889-.013-118.345"/>
  <path fill="#1a4674" d="M128.182 143.241 2.988 215.325c2.053 3.711 5.169 6.813 9.386 9.254 20.206 11.703 88.02 50.547 101.56 58.536 9.106 5.373 17.997 5.565 27.17.27 34.015-19.64 68.075-39.199 102.105-58.818 4.217-2.44 7.333-5.544 9.386-9.252l-124.413-72.074"/>
  <path fill="#1a4674" d="M91.101 164.593c7.285 12.718 20.98 21.296 36.69 21.296 15.807 0 29.58-8.687 36.828-21.54l-36.437-21.108-37.081 21.352"/>
  <path fill="#1b598e" d="M255.569 84.452c-.002-4.83-1.035-9.098-3.124-12.76l-124.263 71.55 124.413 72.073c1.994-3.608 2.985-7.793 2.987-12.518 0 0 0-78.889-.013-118.345"/>
  <path fill="#fff" d="M248.728 148.393h-9.722v9.724h-9.724v-9.724h-9.721v-9.72h9.721v-9.723h9.724v9.722h9.722v9.721M213.253 148.393h-9.721v9.724h-9.722v-9.724h-9.722v-9.72h9.722v-9.723h9.722v9.722h9.721v9.721"/>
  <path fill="#fff" d="M164.619 164.348c-7.248 12.854-21.021 21.541-36.828 21.541-15.71 0-29.405-8.578-36.69-21.296a42.062 42.062 0 0 1-5.574-20.968c0-23.34 18.923-42.263 42.264-42.263 15.609 0 29.232 8.471 36.553 21.06l36.941-21.273c-14.683-25.346-42.096-42.398-73.494-42.398-46.876 0-84.875 38-84.875 84.874 0 15.378 4.091 29.8 11.241 42.238 14.646 25.48 42.137 42.637 73.634 42.637 31.555 0 59.089-17.226 73.714-42.78l-36.886-21.372"/>
</svg>
