<svg xmlns="http://www.w3.org/2000/svg" viewBox="0 0 255.004 291.914">
  <path fill="#fff" d="M202.384 162.431c0 45.623-36.985 82.608-82.608 82.608-45.622 0-82.606-36.985-82.606-82.608v-37.018h165.214z"/>
  <path fill="#303846" d="M214.983 193.265h-6.368a93.625 93.625 0 0 0 5.216-30.833v-2.866h1.152c9.29 0 16.848 7.557 16.848 16.848 0 9.29-7.557 16.851-16.848 16.851m-95.207 40.325c-39.237 0-71.16-31.92-71.16-71.158v-25.57H190.936v25.57c0 18.263-6.922 34.937-18.273 47.549-13.035 14.483-31.912 23.61-52.886 23.61m95.207-97.2h-1.152v-10.978c0-6.323-5.124-11.448-11.448-11.448H37.169c-6.323 0-11.448 5.125-11.448 11.448v37.02c0 51.863 42.192 94.055 94.055 94.055 31.776 0 59.9-15.854 76.936-40.05h18.27c22.07 0 40.022-17.955 40.022-40.024 0-22.069-17.951-40.024-40.021-40.024M125.716 60.941h-14.411V46.529a8.597 8.597 0 1 0-17.194 0v14.412H79.699a8.598 8.598 0 0 0 0 17.195h14.412v14.41a8.597 8.597 0 1 0 17.194 0v-14.41h14.411a8.599 8.599 0 0 0 0-17.195M175.138 23.01h-14.41V8.596a8.599 8.599 0 0 0-17.195 0V23.01h-14.41a8.597 8.597 0 1 0 0 17.194h14.41v14.412a8.598 8.598 0 0 0 17.196 0V40.203h14.41a8.598 8.598 0 1 0 0-17.194M228.827 291.914H11.448C5.125 291.914 0 286.79 0 280.466c0-6.325 5.125-11.449 11.448-11.449h217.38c6.324 0 11.447 5.124 11.447 11.449 0 6.324-5.123 11.448-11.448 11.448"/>
</svg>
