<svg xmlns="http://www.w3.org/2000/svg" viewBox="0 0 256 199.783">
  <path fill="#d33c44" fill-rule="evenodd" d="M0 119.883c0 22.056 57.294 39.958 127.98 39.958v39.942C57.294 199.783 0 181.897 0 159.841zm256 0v39.95c0 9.417-10.47 18.056-27.902 24.89l-100.126-24.89v-39.95l100.126 24.882c17.433-6.826 27.91-15.465 27.902-24.882zM127.98 0C198.674 0 256 17.918 256 39.958v39.983c0 9.384-10.47 18.056-27.894 24.857L127.98 79.941v39.942C57.294 119.883 0 101.989 0 79.94V39.958C0 17.918 57.294 0 127.98 0z"/>
</svg>
