<svg xmlns="http://www.w3.org/2000/svg" viewBox="0 0 256 213.3">
  <defs>
    <radialGradient id="a" cx="116.838" cy="116.872" r="107.549" fx="116.838" fy="116.872" gradientTransform="scale(1.09553 .9128)" gradientUnits="userSpaceOnUse">
      <stop offset="0%" stop-color="#FFF"/>
      <stop offset="100%" stop-color="#99D9E8"/>
    </radialGradient>
    <radialGradient id="b" cx="86.695" cy="112.273" r="85.036" fx="86.695" fy="112.273" gradientTransform="scale(1.40906 .7097)" gradientUnits="userSpaceOnUse">
      <stop offset="0%" stop-color="#CCEBB9"/>
      <stop offset="100%" stop-color="#66BB50"/>
    </radialGradient>
  </defs>
  <path fill="url(#a)" d="M128 0C59.1 0 5.1 87.7 0 161.7c21.6 37.5 73.8 51.6 128 51.6s106.4-14.1 128-51.6C250.9 87.7 196.9 0 128 0z" style="fill:url(#a)"/>
  <path fill="url(#b)" d="M236 157.2c.1 12-12.3 21.4-32.4 29.7-20.1 8-48 14.9-78.6 14.7-30.6.2-58.5-6.7-78.6-14.7-20.1-8.3-32.4-17.8-32.4-29.7.1-11.8 11.9-27.1 31.8-41.2 19.8-13.9 47.7-26.5 79.1-26.2 31.4-.4 59.3 12.3 79.1 26.2 20.1 14.1 31.8 29.5 32 41.2z" style="fill:url(#b)"/>
  <path fill="#695114" d="M172.5 151.7c0 12.3-21.2 22.3-47.4 22.3s-47.4-10-47.4-22.3 21.2-22.3 47.4-22.3 47.4 10 47.4 22.3z" opacity=".64"/>
  <path fill="#ff7f00" d="M118 54.3C122 70 105.3 77.2 96.6 89c-15.1 19-25.4 57.5.8 73.2 1 .6 2 1.1 3.1 1.6 15.1 6.8 36.7 4.9 51.3-2.2 6.5-3.2 12.7-8.1 14-15.1 2-10.4-10.6-14.3-10.1-24.6.3-4.5 1.6-7.9 4-11.8 3.5-5.9 5.1-18-4.7-18.8.5 4.2-6.4 16.8-12.5 11.7-3.7-3 .6-9.8 1.4-13.2 4.2-19.2-4.5-45-28.1-49.8"/>
  <path fill="#ff0" d="M139.9 137.6c.6 2.7.5 5.7 0 8.5-.4 2.6-1.4 5.2-2.9 7.5-.8 1.2-1.7 2.2-2.8 3.2-.5.4-1 .9-1.6 1.2-.6.3-1.3.3-2 .5-1.2.3-2.3.5-3.5.5-1.3.1-2.6-.1-3.8-.2h-.8c-2.6 0-5.2-1.3-7.4-2.4-2.5-1.3-4.7-2.9-6.6-4.8-8.5-8.6-9.5-20-4.3-30.2 4.5-8.8 13.5-15.2 18-23.9.7-1.4 1.7-3.4 1.8-5 .2-2.1.4-4.4-.5-6.3.1.2 1.7.7 2 .9.5.4.9 1 1.2 1.6.6 1.3.6 2.8.4 4.1-.2 1.5-.6 3-1.3 4.4-.9 1.8-1.1 3.8-2 5.6-.7 1.6-1.3 3.3-2.3 4.8-1.1 1.5-2.1 3.1-2.5 4.9-.6 2.4-1 4.9-1.1 7.3-.1 3.2 2 6.3 3.6 9.1 1.9 3.3 4.7 4.9 8.7 3.7 5.1-1.6 9.2-7.5 11.2-11.8-3.9 8.3-3.1 9-1.5 16.8z"/>
  <path fill="#fff" d="M121.7 151.9c-3.6-.3-6.4-2.4-7.4-5.6-1-3.2-2.1-8.1-1.2-11.2.3-1.2 1-2.3 1.3-3.6.3-1.4.1-3.3 1.3-4.3.5-.4.7 3.3.7 3.5 0 .6-.3 1.6-.1 2.2.5 1 1 .3 1.4.6 1.5 1.3 2.2 4.6 3.2 6.5 2.9 5.5 7.3 7.4 12.3 2.4-1.2 3-4.3 6-7.9 7.5" opacity=".75"/>
  <path fill="#695114" d="M224.6 134.6c-12.7-4.2-20.8 32.4-42.3 45.6-20.1 12.3-47.2 16-61.3 20.6 34.7 1.3 64.1-6.6 88-16.4 18.8-7.8 40.7-24.7 15.6-49.8M31.2 177.3c-20.4-13.4 22.5-57.9 30.3-69.8-9.9 1.5-32.7 21.7-38.7 30.4-10.6 15.5-14 27.5 6.8 40.1" opacity=".15"/>
</svg>
