<svg xmlns="http://www.w3.org/2000/svg" viewBox="0 0 256 256.004">
  <path fill="#53b9ff" d="M61.306 154.895 0 216.385l39.428 39.62 61.43-61.508 61.097 61.068 39.552-39.602L39.863 54.115.31 93.716z"/>
  <path fill="#119eff" d="m161.956 255.566 39.552-39.602-60.99-61.068-39.659 39.601z"/>
  <path fill-opacity=".2" d="m116.126 209.679 24.391-54.783-39.658 39.601z"/>
  <path fill="#53b9ff" d="M216.43 0 155.02 61.384 93.917.31 54.365 39.913 216.01 201.761l39.552-39.602-60.992-61.174L256 39.478z"/>
  <path fill="#119eff" d="M93.917.313 54.365 39.914l60.995 61.073 39.659-39.602z"/>
  <path fill-opacity=".2" d="m139.747 46.198-24.388 54.787 39.659-39.601z"/>
</svg>
