<svg xmlns="http://www.w3.org/2000/svg" viewBox="0 0 255.231 268.25">
  <path fill="#52c1db" d="M219.106 73.88a104.758 104.758 0 0 0-25.6-25.419l-8.536 12.203a89 89 0 0 0-13.43-7.719l-6.297 13.515a73.977 73.977 0 0 1 11.184 6.416 74.853 74.853 0 0 1 9.929 8.25l-10.52 10.532-10.53 10.531a44.361 44.361 0 0 1 5.03 5.876 44.399 44.399 0 0 1 3.965 6.658l26.973-12.59 13.494-6.296 13.487-6.298a104.156 104.156 0 0 0-9.15-15.659zm24.384-17.084a134.867 134.867 0 0 0-15.043-17.802 134.538 134.538 0 0 0-38.036-26.555 133.294 133.294 0 0 0-21.875-7.932A133.315 133.315 0 0 0 145.622.508l-1.295 14.838c6.975.599 13.778 1.8 20.355 3.549l-3.85 14.393a103.568 103.568 0 0 1 16.992 6.156 103.724 103.724 0 0 1 15.682 9.017 104.837 104.837 0 0 1 25.6 25.42 104.156 104.156 0 0 1 9.149 15.658l13.485-6.296 13.491-6.295a134.213 134.213 0 0 0-11.741-20.152zm-65.666-17.352a103.568 103.568 0 0 0-16.992-6.156 103.61 103.61 0 0 0-17.803-3.104c-2.98-.257-5.988-.395-9.033-.395a105 105 0 0 0-9.036.395 103.62 103.62 0 0 0-17.799 3.104l3.85 14.39a88.338 88.338 0 0 0-14.558 5.267l6.292 13.516a74.33 74.33 0 0 1 12.12-4.39 74.667 74.667 0 0 1 12.693-2.197 74.22 74.22 0 0 1 6.438-.296c2.17 0 4.313.112 6.439.296a74.59 74.59 0 0 1 12.688 2.198 73.791 73.791 0 0 1 12.12 4.388l6.297-13.515a89 89 0 0 1 13.43 7.72l8.536-12.204a103.724 103.724 0 0 0-15.682-9.017zm-33.497-24.098L145.622.508C141.79.178 137.914 0 133.996 0c-3.917 0-7.792.178-11.625.508a133.415 133.415 0 0 0-22.917 3.999 132.687 132.687 0 0 0-21.872 7.936 133.643 133.643 0 0 0-20.169 11.618 134.654 134.654 0 0 0-17.871 14.933l10.523 10.531a119.63 119.63 0 0 1 15.883-13.263l8.536 12.204a103.698 103.698 0 0 1 32.677-15.178 103.62 103.62 0 0 1 17.799-3.104 105 105 0 0 1 9.036-.395c3.045 0 6.053.138 9.033.395 6.1.526 12.05 1.57 17.803 3.104l3.85-14.393a118.663 118.663 0 0 0-20.355-3.549zm-33.316 32.332-3.85-14.39a103.698 103.698 0 0 0-32.678 15.178 104.7 104.7 0 0 0-13.898 11.591 105.368 105.368 0 0 0-11.703 13.828l12.192 8.54a89.008 89.008 0 0 0-7.849 13.412l13.494 6.297a74.469 74.469 0 0 1 6.559-11.153 75.25 75.25 0 0 1 8.355-9.855 74.958 74.958 0 0 1 9.925-8.25 74.243 74.243 0 0 1 11.187-6.415l-6.292-13.516a88.338 88.338 0 0 1 14.558-5.267zM65.948 36.262a119.63 119.63 0 0 0-15.883 13.263L39.542 38.994a134.805 134.805 0 0 0-15.039 17.805A133.673 133.673 0 0 0 4.69 98.856 134.158 134.158 0 0 0 .562 121.85l14.824 1.3a118.572 118.572 0 0 1 3.682-20.44l14.373 3.858a103.297 103.297 0 0 1 6.297-17.029 103.938 103.938 0 0 1 9.144-15.654c3.503-4.946 7.42-9.571 11.703-13.828a104.7 104.7 0 0 1 13.899-11.591zM39.284 177.744a103.862 103.862 0 0 1-6.138-17.158 103.668 103.668 0 0 1-3.04-17.95 105.256 105.256 0 0 1-.347-8.51c0-3.265.158-6.494.454-9.678a103.766 103.766 0 0 1 3.228-17.88l-14.373-3.857a118.572 118.572 0 0 0-3.682 20.44l-14.824-1.3A136.827 136.827 0 0 0 0 134.125c0 3.74.16 7.443.454 11.103.652 7.904 1.981 15.61 3.936 23.068 2.006 7.633 4.668 15 7.917 22.038a133.922 133.922 0 0 0 11.648 20.328l12.191-8.545a118.943 118.943 0 0 1-10.348-18.08zm20.49-37.71a74.91 74.91 0 0 1-.252-5.908c0-2.391.124-4.752.339-7.082a74.285 74.285 0 0 1 2.349-12.763 73.956 73.956 0 0 1 4.51-12.147l-13.495-6.297a89.008 89.008 0 0 1 7.85-13.411l-12.193-8.541a103.938 103.938 0 0 0-9.144 15.654 103.297 103.297 0 0 0-6.297 17.029 103.766 103.766 0 0 0-3.228 17.88 104.589 104.589 0 0 0-.454 9.678c0 2.865.12 5.701.347 8.51a103.668 103.668 0 0 0 3.04 17.95l14.377-3.857a88.495 88.495 0 0 0 5.248 14.715l13.503-6.299a74.155 74.155 0 0 1-4.372-12.274 74.055 74.055 0 0 1-2.127-12.836zm29.936 88.559a103.848 103.848 0 0 1-15.78-9.191 104.945 104.945 0 0 1-13.932-11.798 104.868 104.868 0 0 1-11.66-14.029 104.285 104.285 0 0 1-9.054-15.831l-13.486 6.294a118.943 118.943 0 0 0 10.348 18.08l-12.191 8.545a134.716 134.716 0 0 0 32.904 33.14 134.187 134.187 0 0 0 20.269 11.795l6.293-13.5c6.25 2.94 12.8 5.351 19.59 7.177l3.85-14.392a103.146 103.146 0 0 1-17.151-6.29zm12.581-27.007a74.312 74.312 0 0 1-11.278-6.604 74.67 74.67 0 0 1-9.967-8.446 74.932 74.932 0 0 1-14.772-21.39l-13.503 6.298a88.495 88.495 0 0 1-5.248-14.715l-14.377 3.857a103.862 103.862 0 0 0 6.138 17.158 104.285 104.285 0 0 0 9.054 15.831 104.868 104.868 0 0 0 11.66 14.029 104.945 104.945 0 0 0 13.932 11.798l8.531-12.202a88.796 88.796 0 0 0 13.537 7.892 88.524 88.524 0 0 0 14.72 5.402l3.856-14.401a73.898 73.898 0 0 1-12.283-4.507zm100.307 30.019a119.422 119.422 0 0 1-18.026 10.493 118.376 118.376 0 0 1-19.595 7.177l-3.854-14.392a103.97 103.97 0 0 1-17.992 3.173c-3.012.264-6.057.404-9.135.404-3.082 0-6.13-.14-9.139-.404a104.094 104.094 0 0 1-17.996-3.173l-3.85 14.392a118.036 118.036 0 0 1-19.59-7.177l-6.293 13.5a133.095 133.095 0 0 0 22.033 8.067 133.751 133.751 0 0 0 23.107 4.067c3.866.337 7.776.518 11.728.518 3.953 0 7.863-.181 11.73-.518a133.826 133.826 0 0 0 23.106-4.067 133.692 133.692 0 0 0 42.302-19.861zm29.249-29.487-12.192-8.543a104.796 104.796 0 0 1-11.66 14.029 104.962 104.962 0 0 1-13.932 11.798 103.754 103.754 0 0 1-15.783 9.19 102.943 102.943 0 0 1-17.157 6.29l3.854 14.393a118.376 118.376 0 0 0 19.595-7.177 119.422 119.422 0 0 0 18.026-10.493l8.536 12.198a134.587 134.587 0 0 0 32.9-33.14zm-24.379-17.086-12.197-8.55a74.696 74.696 0 0 1-8.324 10.054 75.326 75.326 0 0 1-9.967 8.446l8.543 12.218a89.08 89.08 0 0 1-13.533 7.893l6.29 13.5a103.754 103.754 0 0 0 15.783-9.191 104.962 104.962 0 0 0 13.931-11.798 104.796 104.796 0 0 0 11.661-14.029zM185.523 207.2l-8.543-12.218a74.037 74.037 0 0 1-11.287 6.604 73.966 73.966 0 0 1-25.155 6.781c-2.16.189-4.338.303-6.542.303-2.203 0-4.385-.114-6.54-.303a74.08 74.08 0 0 1-12.882-2.274l-3.855 14.401a88.524 88.524 0 0 1-14.72-5.402A88.796 88.796 0 0 1 82.46 207.2l-8.531 12.202a103.848 103.848 0 0 0 15.78 9.19 103.146 103.146 0 0 0 17.151 6.29 104.094 104.094 0 0 0 17.996 3.174c3.01.264 6.057.404 9.14.404 3.077 0 6.122-.14 9.134-.404a103.97 103.97 0 0 0 17.992-3.173 102.943 102.943 0 0 0 17.157-6.29l-6.29-13.5a89.08 89.08 0 0 0 13.533-7.893z"/>
  <path fill="#52c1db" d="M219.106 73.88a104.758 104.758 0 0 0-25.6-25.419l-8.536 12.203a89 89 0 0 0-13.43-7.719l-6.297 13.515a73.977 73.977 0 0 1 11.184 6.416 74.853 74.853 0 0 1 9.929 8.25l-10.52 10.532-10.53 10.531a44.361 44.361 0 0 1 5.03 5.876 44.399 44.399 0 0 1 3.965 6.658l26.973-12.59 13.494-6.296 13.487-6.298a104.156 104.156 0 0 0-9.15-15.659"/>
  <path fill="#3b528a" d="M243.49 56.796a134.867 134.867 0 0 0-15.043-17.802 134.538 134.538 0 0 0-38.036-26.555 133.294 133.294 0 0 0-21.875-7.932A133.315 133.315 0 0 0 145.622.508l-1.295 14.838c6.975.599 13.778 1.8 20.355 3.549l-3.85 14.393a103.568 103.568 0 0 1 16.992 6.156 103.724 103.724 0 0 1 15.682 9.017 104.837 104.837 0 0 1 25.6 25.42 104.156 104.156 0 0 1 9.149 15.658l13.485-6.296 13.491-6.295a134.213 134.213 0 0 0-11.741-20.152"/>
  <path fill="#00aee8" d="M177.824 39.444a103.568 103.568 0 0 0-16.992-6.156 103.61 103.61 0 0 0-17.803-3.104c-2.98-.257-5.988-.395-9.033-.395a105 105 0 0 0-9.036.395 103.62 103.62 0 0 0-17.799 3.104l3.85 14.39a88.338 88.338 0 0 0-14.558 5.267l6.292 13.516a74.33 74.33 0 0 1 12.12-4.39 74.667 74.667 0 0 1 12.693-2.197 74.22 74.22 0 0 1 6.438-.296c2.17 0 4.313.112 6.439.296a74.59 74.59 0 0 1 12.688 2.198 73.791 73.791 0 0 1 12.12 4.388l6.297-13.515a89 89 0 0 1 13.43 7.72l8.536-12.204a103.724 103.724 0 0 0-15.682-9.017"/>
  <path fill="#3f8abd" d="M144.327 15.346 145.622.508C141.79.178 137.914 0 133.996 0c-3.917 0-7.792.178-11.625.508a133.415 133.415 0 0 0-22.917 3.999 132.687 132.687 0 0 0-21.872 7.936 133.643 133.643 0 0 0-20.169 11.618 134.654 134.654 0 0 0-17.871 14.933l10.523 10.531a119.63 119.63 0 0 1 15.883-13.263l8.536 12.204a103.698 103.698 0 0 1 32.677-15.178 103.62 103.62 0 0 1 17.799-3.104 105 105 0 0 1 9.036-.395c3.045 0 6.053.138 9.033.395 6.1.526 12.05 1.57 17.803 3.104l3.85-14.393a118.663 118.663 0 0 0-20.355-3.549"/>
  <path fill="#52c1db" d="m111.011 47.678-3.85-14.39a103.698 103.698 0 0 0-32.678 15.178 104.7 104.7 0 0 0-13.898 11.591 105.368 105.368 0 0 0-11.703 13.828l12.192 8.54a89.008 89.008 0 0 0-7.849 13.412l13.494 6.297a74.469 74.469 0 0 1 6.559-11.153 75.25 75.25 0 0 1 8.355-9.855 74.958 74.958 0 0 1 9.925-8.25 74.243 74.243 0 0 1 11.187-6.415l-6.292-13.516a88.338 88.338 0 0 1 14.558-5.267"/>
  <path fill="#00aee8" d="M65.948 36.262a119.63 119.63 0 0 0-15.883 13.263L39.542 38.994a134.805 134.805 0 0 0-15.039 17.805A133.673 133.673 0 0 0 4.69 98.856 134.158 134.158 0 0 0 .562 121.85l14.824 1.3a118.572 118.572 0 0 1 3.682-20.44l14.373 3.858a103.297 103.297 0 0 1 6.297-17.029 103.938 103.938 0 0 1 9.144-15.654c3.503-4.946 7.42-9.571 11.703-13.828a104.7 104.7 0 0 1 13.899-11.591l-8.536-12.204"/>
  <path fill="#3f8abd" d="M39.284 177.744a103.862 103.862 0 0 1-6.138-17.158 103.668 103.668 0 0 1-3.04-17.95 105.256 105.256 0 0 1-.347-8.51c0-3.265.158-6.494.454-9.678a103.766 103.766 0 0 1 3.228-17.88l-14.373-3.857a118.572 118.572 0 0 0-3.682 20.44l-14.824-1.3A136.827 136.827 0 0 0 0 134.125c0 3.74.16 7.443.454 11.103.652 7.904 1.981 15.61 3.936 23.068 2.006 7.633 4.668 15 7.917 22.038a133.922 133.922 0 0 0 11.648 20.328l12.191-8.545a118.943 118.943 0 0 1-10.348-18.08l13.486-6.294"/>
  <path fill="#3b528a" d="M59.775 140.035a74.91 74.91 0 0 1-.253-5.909c0-2.391.124-4.752.339-7.082a74.285 74.285 0 0 1 2.349-12.763 73.956 73.956 0 0 1 4.51-12.147l-13.495-6.297a89.008 89.008 0 0 1 7.85-13.411l-12.193-8.541a103.938 103.938 0 0 0-9.144 15.654 103.297 103.297 0 0 0-6.297 17.029 103.766 103.766 0 0 0-3.228 17.88 104.589 104.589 0 0 0-.454 9.678c0 2.865.12 5.701.347 8.51a103.668 103.668 0 0 0 3.04 17.95l14.377-3.857a88.495 88.495 0 0 0 5.248 14.715l13.503-6.299a74.155 74.155 0 0 1-4.372-12.274 74.055 74.055 0 0 1-2.127-12.836"/>
  <path fill="#52c1db" d="M89.71 228.593a103.848 103.848 0 0 1-15.78-9.191 104.945 104.945 0 0 1-13.932-11.798 104.868 104.868 0 0 1-11.66-14.029 104.285 104.285 0 0 1-9.054-15.831l-13.486 6.294a118.943 118.943 0 0 0 10.348 18.08l-12.191 8.545a134.716 134.716 0 0 0 32.904 33.14 134.187 134.187 0 0 0 20.269 11.795l6.293-13.5c6.25 2.94 12.8 5.351 19.59 7.177l3.85-14.392a103.146 103.146 0 0 1-17.151-6.29"/>
  <path fill="#00aee8" d="M102.291 201.586a74.312 74.312 0 0 1-11.278-6.604 74.67 74.67 0 0 1-9.967-8.446 74.932 74.932 0 0 1-14.772-21.39l-13.503 6.298a88.495 88.495 0 0 1-5.248-14.715l-14.377 3.857a103.862 103.862 0 0 0 6.138 17.158 104.285 104.285 0 0 0 9.054 15.831 104.868 104.868 0 0 0 11.66 14.029 104.945 104.945 0 0 0 13.932 11.798l8.531-12.202a88.796 88.796 0 0 0 13.537 7.892 88.524 88.524 0 0 0 14.72 5.402l3.856-14.401a73.898 73.898 0 0 1-12.283-4.507"/>
  <path fill="#3b528a" d="M202.598 231.605a119.422 119.422 0 0 1-18.026 10.493 118.376 118.376 0 0 1-19.595 7.177l-3.854-14.392a103.97 103.97 0 0 1-17.992 3.173c-3.012.264-6.057.404-9.135.404-3.082 0-6.13-.14-9.139-.404a104.094 104.094 0 0 1-17.996-3.173l-3.85 14.392a118.036 118.036 0 0 1-19.59-7.177l-6.293 13.5a133.095 133.095 0 0 0 22.033 8.067 133.751 133.751 0 0 0 23.107 4.067c3.866.337 7.776.518 11.728.518 3.953 0 7.863-.181 11.73-.518a133.826 133.826 0 0 0 23.106-4.067 133.692 133.692 0 0 0 42.302-19.861l-8.536-12.2"/>
  <path fill="#00aee8" d="m231.847 202.118-12.192-8.543a104.796 104.796 0 0 1-11.66 14.029 104.962 104.962 0 0 1-13.932 11.798 103.754 103.754 0 0 1-15.783 9.19 102.943 102.943 0 0 1-17.157 6.29l3.854 14.393a118.376 118.376 0 0 0 19.595-7.177 119.422 119.422 0 0 0 18.026-10.493l8.536 12.198a134.587 134.587 0 0 0 32.9-33.14l-12.187-8.545"/>
  <path fill="#52c1db" d="m207.468 185.032-12.197-8.55a74.696 74.696 0 0 1-8.324 10.054 75.326 75.326 0 0 1-9.967 8.446l8.543 12.218a89.08 89.08 0 0 1-13.533 7.893l6.29 13.5a103.754 103.754 0 0 0 15.783-9.191 104.962 104.962 0 0 0 13.931-11.798 104.796 104.796 0 0 0 11.661-14.029l-12.187-8.543"/>
  <path fill="#3f8abd" d="m185.523 207.2-8.543-12.218a74.037 74.037 0 0 1-11.287 6.604 73.966 73.966 0 0 1-25.155 6.781c-2.16.189-4.338.303-6.542.303-2.203 0-4.385-.114-6.54-.303a74.08 74.08 0 0 1-12.882-2.274l-3.855 14.401a88.524 88.524 0 0 1-14.72-5.402A88.796 88.796 0 0 1 82.46 207.2l-8.531 12.202a103.848 103.848 0 0 0 15.78 9.19 103.146 103.146 0 0 0 17.151 6.29 104.094 104.094 0 0 0 17.996 3.174c3.01.264 6.057.404 9.14.404 3.077 0 6.122-.14 9.134-.404a103.97 103.97 0 0 0 17.992-3.173 102.943 102.943 0 0 0 17.157-6.29l-6.29-13.5a89.08 89.08 0 0 0 13.533-7.893"/>
</svg>
