<svg xmlns="http://www.w3.org/2000/svg" viewBox="-0.5 -0.101 88 31">
  <path fill="#fff" d="M1.803.381 84.93.53c1.161 0 2.198-.173 2.198 2.333l-.103 27.556H-.295V2.761c0-1.236.118-2.38 2.098-2.38z"/>
  <ellipse cx="13.887" cy="15.502" fill="#fff" rx="11.101" ry="11.174" transform="translate(0 -.101)"/>
  <path d="M23.271 3.96a14.23 14.23 0 0 1 5.755 11.44 14.232 14.232 0 0 1-4.842 10.705h62.853V3.96z"/>
  <g fill="#fff">
    <path d="M35.739 7.458c.392 0 .728.059 1.002.173.276.116.5.268.674.456.173.189.299.405.379.647a2.437 2.437 0 0 1 0 1.502c-.08.244-.206.462-.379.65a1.874 1.874 0 0 1-.674.456c-.274.114-.61.173-1.002.173h-1.452v2.267h-1.382V7.458zm-.379 2.976c.158 0 .312-.012.457-.035.147-.023.276-.069.388-.137a.748.748 0 0 0 .269-.288c.068-.124.101-.287.101-.487s-.033-.362-.101-.487a.725.725 0 0 0-.269-.287 1.058 1.058 0 0 0-.388-.138 2.82 2.82 0 0 0-.457-.036h-1.073v1.896zM43.751 13.299c-.476.417-1.133.625-1.972.625-.851 0-1.509-.207-1.976-.62-.466-.412-.699-1.052-.699-1.913V7.458h1.381v3.934c0 .171.016.338.045.505.029.165.091.311.185.439.094.126.225.229.392.309.167.081.392.12.673.12.493 0 .833-.11 1.021-.332.188-.222.282-.568.282-1.04V7.458h1.382v3.934c-.001.855-.238 1.49-.714 1.907zM49.07 7.458c.3 0 .572.027.818.081.244.054.457.14.633.261.177.121.312.282.41.482.096.201.146.45.146.745 0 .318-.072.584-.216.796a1.583 1.583 0 0 1-.639.523c.387.112.676.31.865.589.189.281.286.62.286 1.015 0 .319-.062.595-.187.828a1.631 1.631 0 0 1-.496.571 2.165 2.165 0 0 1-.713.327 3.24 3.24 0 0 1-.822.105h-3.047V7.458zm-.175 2.56c.246 0 .448-.059.607-.178.158-.118.236-.309.236-.576a.737.737 0 0 0-.078-.363.598.598 0 0 0-.211-.221.846.846 0 0 0-.305-.109 1.875 1.875 0 0 0-.355-.032h-1.294v1.48l1.4-.001zm.08 2.685c.135 0 .264-.014.387-.04a.977.977 0 0 0 .326-.133.707.707 0 0 0 .226-.254.86.86 0 0 0 .083-.406c0-.324-.092-.557-.271-.695-.182-.138-.424-.208-.723-.208h-1.505v1.738h1.479v-.002zM54.143 7.458v5.156h3.062v1.168H52.76V7.458zM59.748 7.458v6.324h-1.382V7.458zM65.451 9.146a1.405 1.405 0 0 0-.309-.349 1.387 1.387 0 0 0-.418-.236 1.399 1.399 0 0 0-.488-.084c-.312 0-.574.062-.793.183-.217.12-.394.283-.525.486a2.182 2.182 0 0 0-.296.695 3.453 3.453 0 0 0 0 1.582c.062.251.16.477.296.678.134.201.312.361.525.483.219.12.481.181.793.181.424 0 .752-.13.99-.389.236-.26.383-.602.437-1.028H67a3.242 3.242 0 0 1-.271 1.072 2.574 2.574 0 0 1-.582.815 2.404 2.404 0 0 1-.845.513 3.06 3.06 0 0 1-1.065.178c-.479 0-.914-.084-1.297-.252a2.763 2.763 0 0 1-.973-.695 3.036 3.036 0 0 1-.607-1.04 3.818 3.818 0 0 1-.211-1.289c0-.473.069-.911.211-1.316a3.19 3.19 0 0 1 .607-1.059 2.77 2.77 0 0 1 .973-.708 3.135 3.135 0 0 1 1.297-.258c.348 0 .676.051.981.15.308.102.583.248.827.44.243.191.443.43.604.712.158.283.259.608.301.975h-1.34a1.121 1.121 0 0 0-.159-.44zM35.615 16.317c.405 0 .782.062 1.131.192.35.13.651.324.906.585.255.26.455.586.599.975.144.391.216.849.216 1.371 0 .463-.059.888-.176 1.277a2.845 2.845 0 0 1-.532 1.012 2.54 2.54 0 0 1-.89.668c-.354.16-.772.242-1.254.242h-2.71v-6.322zm-.096 5.154c.199 0 .393-.031.581-.098a1.26 1.26 0 0 0 .502-.323c.146-.151.264-.347.352-.59.088-.241.132-.536.132-.886 0-.317-.031-.606-.093-.863a1.698 1.698 0 0 0-.304-.659 1.347 1.347 0 0 0-.559-.421c-.231-.098-.517-.146-.858-.146h-.984v3.986zM39.8 18.188c.141-.403.344-.756.606-1.059.265-.303.589-.538.973-.709a3.16 3.16 0 0 1 1.298-.257c.487 0 .921.086 1.303.257.381.171.704.406.969.709.264.303.466.652.605 1.059.143.404.213.845.213 1.316 0 .46-.07.891-.213 1.288a3.168 3.168 0 0 1-.605 1.04 2.843 2.843 0 0 1-.969.695 3.235 3.235 0 0 1-1.303.252c-.481 0-.913-.086-1.298-.252a2.82 2.82 0 0 1-.973-.695 3.122 3.122 0 0 1-.606-1.04 3.854 3.854 0 0 1-.211-1.288c0-.471.07-.911.211-1.316zm1.262 2.09c.062.252.16.479.295.68.135.2.312.359.527.482.218.121.481.183.792.183a1.6 1.6 0 0 0 .792-.183c.218-.121.394-.281.529-.482.134-.2.231-.428.295-.68a3.465 3.465 0 0 0 0-1.58 2.157 2.157 0 0 0-.295-.696 1.522 1.522 0 0 0-.529-.485 1.6 1.6 0 0 0-.792-.184c-.311 0-.574.062-.792.184-.216.12-.393.284-.527.485a2.164 2.164 0 0 0-.295.696 3.446 3.446 0 0 0 0 1.58zM49.092 16.317l1.471 4.348h.02l1.393-4.348h1.942v6.322h-1.294v-4.48h-.02l-1.539 4.48H50l-1.54-4.437h-.019v4.437h-1.293v-6.322zM58.764 16.317l2.35 6.322H59.68l-.476-1.408h-2.351l-.492 1.408H54.97l2.377-6.322zm.08 3.879-.793-2.322h-.018l-.817 2.322zM63.547 16.317v6.322h-1.382v-6.322zM66.604 16.317l2.623 4.242h.018v-4.242h1.294v6.322h-1.384l-2.611-4.234h-.02v4.234H65.23v-6.322z"/>
  </g>
  <path d="M85.852-.101H1.147C.239-.101-.5.643-.5 1.557v28.969c0 .207.167.373.372.373h87.256a.372.372 0 0 0 .372-.373V1.557c0-.914-.738-1.658-1.648-1.658zM1.147.649h84.705c.498 0 .902.406.902.908v28.557H.245V1.557c0-.501.405-.908.902-.908z"/>
  <g transform="translate(0 -.101)">
    <ellipse cx="14.156" cy="15.661" fill="#fff" rx="11.004" ry="11.076"/>
    <path d="M14.22 8.746c-3.862 0-4.834 3.669-4.834 6.779 0 3.111.971 6.779 4.834 6.779 3.863 0 4.834-3.67 4.834-6.779 0-3.111-.971-6.779-4.834-6.779zm0 2.555c.157 0 .3.024.435.06.278.24.414.573.147 1.038l-2.572 4.76a12.735 12.735 0 0 1-.091-1.634c0-1.37.094-4.224 2.081-4.224zm1.926 2.193c.137.731.155 1.493.155 2.03 0 1.37-.094 4.223-2.08 4.223-.156 0-.301-.017-.435-.049a.537.537 0 0 0-.074-.025c-.04-.012-.084-.024-.122-.041-.442-.188-.721-.531-.319-1.139z"/>
    <path d="M14.195 3.748c-3.245 0-5.98 1.137-8.21 3.422a11.946 11.946 0 0 0-2.589 3.876 11.708 11.708 0 0 0-.876 4.478c0 1.57.291 3.062.876 4.479a11.928 11.928 0 0 0 2.548 3.826 12.157 12.157 0 0 0 3.802 2.588c1.421.59 2.903.884 4.449.884 1.547 0 3.05-.304 4.499-.907a12.06 12.06 0 0 0 3.883-2.605 10.665 10.665 0 0 0 2.49-3.719c.571-1.415.853-2.932.853-4.544 0-1.598-.281-3.112-.852-4.528a11.292 11.292 0 0 0-2.507-3.801c-2.298-2.302-5.092-3.449-8.366-3.449zm.049 2.119c2.646 0 4.904.944 6.784 2.836a9.432 9.432 0 0 1 2.073 3.119 9.743 9.743 0 0 1 .713 3.703c0 2.707-.92 4.952-2.744 6.746a10.029 10.029 0 0 1-3.196 2.128 9.306 9.306 0 0 1-3.63.732 9.437 9.437 0 0 1-3.638-.717 9.824 9.824 0 0 1-3.113-2.104 10.035 10.035 0 0 1-2.13-3.135 9.465 9.465 0 0 1-.738-3.653 9.41 9.41 0 0 1 .738-3.662 10.247 10.247 0 0 1 2.13-3.175c1.824-1.876 4.077-2.818 6.751-2.818z"/>
  </g>
</svg>
