<svg xmlns="http://www.w3.org/2000/svg" version="1.0" viewBox="0 0 64 64">
  <path d="M32 13.58c-10.564 0-13.22 9.97-13.22 18.42-.002 8.452 2.66 18.42 13.22 18.42 10.565 0 13.22-9.97 13.22-18.42 0-8.45-2.655-18.42-13.22-18.42zm0 6.95c.43 0 .82.06 1.19.15.76.66 1.13 1.564.4 2.83l-7.034 12.926c-.216-1.636-.246-3.24-.246-4.436 0-3.723.257-11.474 5.69-11.474zm5.267 5.957c.433 1.983.433 4.056.433 5.513 0 3.72-.26 11.475-5.7 11.475-.425 0-.82-.045-1.185-.135a1.704 1.704 0 0 1-.205-.07c-.11-.03-.23-.07-.333-.11-1.21-.513-1.972-1.444-.877-3.09l7.867-13.58z"/>
  <path d="M31.933 0C23.06 0 15.574 3.09 9.48 9.3c-3.09 3.09-5.444 6.6-7.08 10.53C.8 23.72 0 27.77 0 32c0 4.27.8 8.32 2.4 12.17 1.6 3.85 3.92 7.31 6.97 10.4 3.08 3.04 6.545 5.39 10.39 7.03 3.89 1.6 7.94 2.4 12.17 2.4 4.23 0 8.34-.83 12.31-2.46 3.96-1.64 7.49-4 10.62-7.09 3.01-2.93 5.29-6.293 6.81-10.1C63.23 40.5 64 36.38 64 32c0-4.34-.77-8.45-2.33-12.3-1.562-3.888-3.85-7.323-6.86-10.333C48.525 3.12 40.89 0 31.93 0zm.134 5.76c7.238 0 13.413 2.57 18.553 7.71 2.48 2.48 4.38 5.308 5.671 8.47C57.59 25.1 58.24 28.48 58.24 32c0 7.35-2.515 13.45-7.51 18.33-2.59 2.52-5.5 4.448-8.73 5.78a25.456 25.456 0 0 1-9.933 1.996c-3.067 0-6.788-.653-9.949-1.946-3.158-1.336-6.001-3.24-8.518-5.72-2.513-2.51-4.45-5.35-5.824-8.51C6.44 38.73 5.76 35.43 5.76 32c0-3.47.68-6.79 2.02-9.95 1.37-3.2 3.31-6.075 5.82-8.63 4.99-5.03 11.15-7.66 18.467-7.66z"/>
</svg>
