<svg xmlns="http://www.w3.org/2000/svg" viewBox="0 0 120 42">
  <path d="m3.406.438 113.356.199c1.586 0 3-.235 3 3.164l-.14 37.328H.546V3.66C.547 1.988.71.437 3.407.437z" style="fill:#a8b0ab;fill-opacity:1;fill-rule:nonzero;stroke:none"/>
  <path d="M34.523 19.535c.004 7.531-6.097 13.637-13.628 13.64-7.528.009-13.637-6.093-13.641-13.624v-.016c-.004-7.531 6.094-13.637 13.625-13.64 7.531-.004 13.64 6.093 13.644 13.625v.015z" style="fill:#fff;fill-opacity:1;fill-rule:nonzero;stroke:none"/>
  <path d="M31.973 8.43c3.023 3.023 4.535 6.726 4.535 11.105 0 4.38-1.488 8.043-4.457 10.988-3.156 3.102-6.883 4.653-11.184 4.653-4.25 0-7.91-1.535-10.984-4.614-3.078-3.074-4.617-6.75-4.617-11.027 0-4.273 1.539-7.976 4.617-11.105 2.996-3.024 6.656-4.535 10.984-4.535 4.38 0 8.082 1.511 11.106 4.535zm-20.055 2.035c-2.559 2.582-3.836 5.605-3.836 9.074 0 3.469 1.266 6.469 3.797 8.996 2.527 2.531 5.539 3.797 9.035 3.797 3.496 0 6.531-1.277 9.113-3.836 2.453-2.371 3.68-5.355 3.68-8.957 0-3.57-1.246-6.602-3.738-9.094-2.489-2.488-5.508-3.734-9.055-3.734-3.547 0-6.547 1.25-8.996 3.754zm6.727 7.55c-.391-.85-.977-1.277-1.758-1.277-1.375 0-2.067.926-2.067 2.782 0 1.855.692 2.785 2.067 2.785.91 0 1.562-.453 1.953-1.36l1.91 1.02c-.91 1.617-2.277 2.426-4.098 2.426-1.406 0-2.53-.43-3.379-1.293-.847-.86-1.27-2.047-1.27-3.563 0-1.488.438-2.668 1.31-3.543.87-.875 1.957-1.312 3.261-1.312 1.926 0 3.305.758 4.137 2.277zm8.988 0c-.39-.85-.965-1.277-1.719-1.277-1.406 0-2.11.926-2.11 2.782 0 1.855.704 2.785 2.11 2.785.91 0 1.55-.453 1.914-1.36l1.953 1.02c-.91 1.617-2.273 2.426-4.09 2.426-1.406 0-2.527-.43-3.375-1.293-.84-.86-1.265-2.047-1.265-3.563 0-1.488.43-2.668 1.289-3.543.855-.875 1.945-1.312 3.273-1.312 1.922 0 3.297.758 4.13 2.277z" style="fill:#000;fill-opacity:1;fill-rule:nonzero;stroke:none"/>
  <path d="M74.098 15.176c0 5.933-4.809 10.738-10.739 10.738-5.93 0-10.738-4.805-10.738-10.738 0-5.93 4.809-10.735 10.738-10.735 5.93 0 10.739 4.805 10.739 10.735z" style="fill:#fff;fill-opacity:1;fill-rule:nonzero;stroke:none"/>
  <path d="M66.469 12.07a.75.75 0 0 0-.75-.75h-4.742a.75.75 0 0 0-.75.75v4.742h1.324v5.618h3.594v-5.617h1.324zM64.969 9.074a1.62 1.62 0 0 1-1.621 1.621 1.622 1.622 0 1 1 1.621-1.621z" style="fill:#000;fill-opacity:1;fill-rule:nonzero;stroke:none"/>
  <path d="M63.332 3.348c-3.21 0-5.93 1.117-8.156 3.363-2.285 2.316-3.426 5.062-3.426 8.23s1.14 5.895 3.426 8.176c2.285 2.278 5.004 3.418 8.156 3.418 3.191 0 5.961-1.148 8.3-3.45 2.208-2.183 3.31-4.898 3.31-8.144 0-3.246-1.122-5.992-3.364-8.23-2.246-2.246-4.996-3.363-8.246-3.363zm.027 2.086c2.633 0 4.868.925 6.707 2.78 1.86 1.837 2.79 4.079 2.79 6.727 0 2.668-.91 4.88-2.731 6.637-1.918 1.895-4.172 2.84-6.766 2.84-2.59 0-4.828-.938-6.703-2.809-1.879-1.875-2.816-4.097-2.816-6.668 0-2.57.95-4.812 2.844-6.726 1.82-1.856 4.046-2.781 6.675-2.781z" style="fill:#000;fill-opacity:1;fill-rule:evenodd;stroke:none"/>
  <path d="M117.754 0H2.246A2.249 2.249 0 0 0 0 2.246v39.246c0 .281.227.508.508.508h118.984a.507.507 0 0 0 .508-.508V2.246A2.249 2.249 0 0 0 117.754 0zM2.246 1.016h115.508c.68 0 1.23.55 1.23 1.23v27.207H36.43c-3.028 5.469-8.86 9.184-15.547 9.184-6.696 0-12.524-3.711-15.547-9.184h-4.32V2.246c0-.68.55-1.23 1.23-1.23z" style="fill:#000;fill-opacity:1;fill-rule:nonzero;stroke:none"/>
  <path d="M59.996 32.746c.316 0 .606.031.863.086.262.055.485.145.672.273.184.125.328.293.43.504.102.211.152.47.152.778 0 .336-.074.613-.226.836a1.64 1.64 0 0 1-.672.547c.41.117.715.324.914.617.203.293.305.648.305 1.062 0 .332-.067.621-.196.867a1.65 1.65 0 0 1-.523.598 2.33 2.33 0 0 1-.754.344 3.416 3.416 0 0 1-.871.113h-3.215v-6.625zm-.184 2.68c.258 0 .473-.063.641-.184.164-.125.25-.324.25-.601a.726.726 0 0 0-.086-.38.576.576 0 0 0-.222-.23.826.826 0 0 0-.32-.117 1.97 1.97 0 0 0-.376-.035h-1.363v1.547zm.083 2.808c.144 0 .28-.011.41-.039a.966.966 0 0 0 .343-.14.702.702 0 0 0 .239-.262.925.925 0 0 0 .086-.43c0-.34-.094-.582-.285-.726-.196-.145-.45-.219-.766-.219h-1.586v1.816zM62.691 32.746h1.633l1.551 2.617 1.54-2.617h1.624l-2.457 4.082v2.543h-1.46V36.79zM85.934 32.746l2.765 4.445h.016v-4.445h1.367v6.625h-1.457l-2.758-4.434h-.015v4.434h-1.368v-6.625zM94.219 32.746c.426 0 .824.07 1.191.207.371.137.688.34.957.61.27.273.48.613.633 1.019.152.41.227.89.227 1.441 0 .48-.063.926-.184 1.332-.125.41-.313.762-.563 1.06-.25.296-.562.53-.937.698-.375.172-.816.258-1.324.258h-2.86v-6.625zm-.102 5.399c.211 0 .414-.036.61-.106.199-.066.375-.18.53-.336.153-.156.278-.363.372-.617.094-.254.14-.563.14-.926 0-.332-.035-.633-.097-.902-.067-.27-.172-.5-.32-.692a1.444 1.444 0 0 0-.59-.441 2.453 2.453 0 0 0-.907-.152h-1.039v4.172zM102.496 14.98c.004 5.844-4.734 10.586-10.582 10.594-5.844 0-10.586-4.73-10.59-10.578v-.016c-.004-5.843 4.73-10.585 10.578-10.59 5.844-.007 10.586 4.731 10.594 10.575v.015z" style="fill:#fff;fill-opacity:1;fill-rule:nonzero;stroke:none"/>
  <path d="M91.742 3.387c-3.21 0-5.93 1.117-8.156 3.36-2.285 2.32-3.426 5.062-3.426 8.233 0 3.168 1.14 5.895 3.426 8.176 2.285 2.282 5.004 3.418 8.156 3.418 3.192 0 5.961-1.148 8.301-3.449 2.207-2.184 3.312-4.898 3.312-8.145 0-3.246-1.125-5.992-3.367-8.234-2.246-2.242-4.996-3.36-8.246-3.36zm.031 2.086c2.63 0 4.864.925 6.704 2.785 1.859 1.832 2.789 4.074 2.789 6.722 0 2.668-.91 4.88-2.73 6.637-1.919 1.895-4.173 2.84-6.763 2.84-2.593 0-4.832-.934-6.707-2.812-1.879-1.872-2.816-4.094-2.816-6.665 0-2.57.95-4.812 2.844-6.722 1.82-1.86 4.047-2.785 6.68-2.785z" style="fill:#000;fill-opacity:1;fill-rule:nonzero;stroke:none"/>
  <path d="M96.14 12.234h-8.433v1.996h8.434zm0 3.723h-8.433v1.996h8.434z" style="fill:#000;fill-opacity:1;fill-rule:nonzero;stroke:none"/>
</svg>
