<svg xmlns="http://www.w3.org/2000/svg" viewBox="0 0 64 64.003">
  <path d="M31.188.003C13.905.441 0 14.617 0 32.003c0 17.665 14.336 32 32 32s32-14.335 32-32c0-17.664-14.336-32-32-32-.277 0-.54-.007-.813 0zm-.032 5.5c.285-.007.559 0 .844 0 14.629 0 26.5 11.872 26.5 26.5 0 14.63-11.871 26.5-26.5 26.5s-26.5-11.87-26.5-26.5c0-14.343 11.422-26.046 25.656-26.5z"/>
  <path d="M36.625 15.941c0 2.55-2.07 4.625-4.625 4.625a4.625 4.625 0 1 1 4.625-4.625zM27.215 52.691h9.57V37.316h2.895s-.004-10.992 0-12.723c-.004-.457.039-1.363-.621-2.027-.664-.66-1.559-.621-2.028-.621-.472.004-9.59.004-10.062 0-.469 0-1.364-.04-2.028.621-.66.664-.617 1.57-.62 2.027.003 1.73 0 12.723 0 12.723h2.894z"/>
</svg>
