<svg xmlns="http://www.w3.org/2000/svg" version="1.0" viewBox="0 0 120 42">
  <path d="m182.235 150.264 114.064.203c1.594 0 3.018-.237 3.018 3.18l-.14 37.567h-119.82v-37.706c0-1.685.163-3.244 2.878-3.244z" style="fill:#aab2ab" transform="matrix(.99378 0 0 .9937 -177.694 -148.877)"/>
  <path d="M187.21 30.094c.005 8.68-7.028 15.722-15.709 15.727-8.68.005-15.722-7.027-15.727-15.708v-.019c-.005-8.68 7.028-15.722 15.708-15.727 8.682-.005 15.722 7.028 15.727 15.708v.02z" style="fill:#fff" transform="matrix(.8675 0 0 .86742 -127.88 -6.566)"/>
  <path d="M31.971 8.433c3.024 3.024 4.536 6.726 4.536 11.105 0 4.38-1.486 8.043-4.458 10.988-3.153 3.102-6.88 4.653-11.181 4.653-4.249 0-7.912-1.538-10.987-4.614-3.076-3.075-4.614-6.751-4.614-11.027 0-4.275 1.538-7.977 4.614-11.105 2.997-3.024 6.66-4.536 10.987-4.536 4.38 0 8.08 1.512 11.103 4.536zm-20.054 2.034c-2.557 2.582-3.834 5.606-3.834 9.075 0 3.468 1.265 6.467 3.794 8.996 2.53 2.53 5.542 3.794 9.037 3.794 3.495 0 6.532-1.277 9.114-3.833 2.452-2.373 3.678-5.358 3.678-8.957 0-3.572-1.246-6.604-3.737-9.094-2.49-2.49-5.508-3.736-9.055-3.736-3.547 0-6.546 1.252-8.997 3.755zm6.727 7.55c-.391-.853-.976-1.278-1.756-1.278-1.378 0-2.067.928-2.067 2.783 0 1.856.689 2.784 2.067 2.784.91 0 1.561-.452 1.951-1.357l1.911 1.017c-.91 1.618-2.277 2.428-4.1 2.428-1.405 0-2.53-.431-3.376-1.293-.846-.861-1.269-2.05-1.269-3.563 0-1.488.436-2.669 1.308-3.543.872-.875 1.958-1.312 3.26-1.312 1.926 0 3.305.758 4.139 2.274zm8.99 0c-.391-.853-.964-1.278-1.72-1.278-1.406 0-2.11.928-2.11 2.783 0 1.856.704 2.784 2.11 2.784.912 0 1.55-.452 1.915-1.357l1.953 1.017c-.909 1.618-2.273 2.428-4.092 2.428-1.404 0-2.527-.431-3.372-1.293-.843-.861-1.266-2.05-1.266-3.563 0-1.488.43-2.669 1.287-3.543.857-.875 1.947-1.312 3.273-1.312 1.923 0 3.3.758 4.13 2.274z"/>
  <path d="M117.753 0H2.247A2.25 2.25 0 0 0 0 2.246v39.247c0 .28.228.507.508.507h118.984c.28 0 .508-.227.508-.507V2.246A2.249 2.249 0 0 0 117.753 0zM2.247 1.014h115.506c.68 0 1.232.553 1.232 1.232v27.209H36.428c-3.026 5.47-8.856 9.185-15.546 9.185-6.694 0-12.522-3.711-15.547-9.185h-4.32V2.246c0-.68.553-1.232 1.232-1.232z"/>
  <path d="M239.178 182.777c.318 0 .608.029.87.084.261.056.486.148.673.276.187.127.332.297.435.508.102.211.154.472.154.784 0 .336-.076.615-.23.839-.152.224-.378.407-.677.55.412.119.72.326.923.621.203.296.304.653.304 1.07 0 .336-.065.627-.196.873-.13.245-.308.446-.528.601a2.327 2.327 0 0 1-.758.346 3.402 3.402 0 0 1-.875.112h-3.236v-6.664h3.141zm-.187 2.696c.261 0 .477-.063.645-.187.168-.124.252-.325.252-.604a.773.773 0 0 0-.084-.382.629.629 0 0 0-.224-.234.944.944 0 0 0-.323-.116 2.169 2.169 0 0 0-.378-.032h-1.374v1.555zm.086 2.828c.143 0 .28-.014.411-.042.13-.029.247-.075.347-.14a.709.709 0 0 0 .238-.266.907.907 0 0 0 .089-.43c0-.341-.097-.585-.29-.732-.194-.145-.45-.218-.767-.218h-1.6v1.828h1.572zM241.89 182.777h1.643l1.56 2.632 1.551-2.632h1.634l-2.474 4.107v2.557h-1.469v-2.594zM265.78 182.777l2.785 4.471h.016v-4.47h1.375v6.663h-1.466l-2.774-4.462h-.018v4.462h-1.375v-6.664zM275.519 184.553a1.502 1.502 0 0 0-.77-.616 1.513 1.513 0 0 0-.518-.09c-.33 0-.61.064-.84.192a1.57 1.57 0 0 0-.56.513 2.247 2.247 0 0 0-.314.732 3.638 3.638 0 0 0 0 1.665c.065.265.17.503.314.714.142.212.329.38.56.509.23.128.51.191.84.191.447 0 .798-.136 1.05-.41.252-.274.406-.636.462-1.084h1.419a3.391 3.391 0 0 1-.29 1.13 2.612 2.612 0 0 1-1.513 1.403 3.268 3.268 0 0 1-1.128.188c-.51 0-.97-.09-1.378-.267a2.958 2.958 0 0 1-1.032-.732 3.237 3.237 0 0 1-.646-1.098 4.03 4.03 0 0 1-.224-1.36c0-.497.075-.96.224-1.386.15-.427.365-.799.646-1.116.28-.318.625-.567 1.032-.747.408-.18.867-.27 1.378-.27.367 0 .714.052 1.041.158.326.106.62.26.877.463.259.202.472.453.64.752.168.3.273.642.317 1.028h-1.419a1.189 1.189 0 0 0-.168-.462z" style="fill:#fff" transform="matrix(.99378 0 0 .9937 -177.694 -148.877)"/>
  <g>
    <path d="M-154.145-1.094a8.74 8.74 0 0 1-17.479.012v-.012a8.74 8.74 0 1 1 17.479-.014v.014z" style="fill:#fff" transform="matrix(1.13969 0 0 1.13959 277.395 16.228)"/>
    <path d="M91.743 3.385c3.25 0 5.999 1.121 8.244 3.362 2.244 2.242 3.367 4.987 3.367 8.234 0 3.246-1.103 5.961-3.31 8.146-2.341 2.3-5.108 3.448-8.3 3.448-3.156 0-5.874-1.14-8.158-3.42-2.283-2.28-3.425-5.005-3.425-8.174 0-3.17 1.142-5.915 3.425-8.234 2.226-2.241 4.945-3.362 8.157-3.362zm-8.973 8.48a9.29 9.29 0 0 0-.518 3.116c0 2.57.937 4.791 2.814 6.667 1.877 1.874 4.112 2.811 6.706 2.811 2.593 0 4.847-.946 6.763-2.84a8.919 8.919 0 0 0 1.585-2.029l-4.373-1.946c-.296 1.47-1.606 2.464-3.19 2.58v1.788h-1.332v-1.788c-1.301-.014-2.56-.547-3.52-1.388l1.596-1.61c.77.724 1.54 1.049 2.59 1.049.68 0 1.434-.267 1.434-1.153a.866.866 0 0 0-.313-.696l-1.106-.493-1.377-.613c-.68-.304-1.257-.56-1.836-.817zm9.002-6.393c-2.632 0-4.857.927-6.676 2.783-.496.5-.925 1.022-1.292 1.566l4.434 1.974c.4-1.23 1.568-1.976 2.987-2.058V7.949h1.331v1.788c.918.044 1.923.295 2.914 1.063l-1.524 1.566c-.562-.399-1.271-.68-1.982-.68-.576 0-1.39.177-1.39.9 0 .112.037.209.105.295l1.482.66 1.004.447c.641.287 1.255.559 1.862.83l5.942 2.644a10.08 10.08 0 0 0 .295-2.481c0-2.65-.93-4.89-2.787-6.726-1.839-1.856-4.074-2.783-6.705-2.783z"/>
  </g>
  <g transform="matrix(.99378 0 0 .9937 -177.694 -148.877)">
    <circle cx="242.562" cy="165.136" r="10.806" style="fill:#fff"/>
    <path d="M245.69 162.01a.754.754 0 0 0-.754-.755h-4.772a.754.754 0 0 0-.754.754v4.773h1.33v5.652h3.618v-5.652h1.332v-4.773z"/>
    <circle cx="242.55" cy="158.995" r="1.632"/>
    <path d="M242.535 153.23c-3.232 0-5.969 1.127-8.208 3.383-2.298 2.334-3.446 5.096-3.446 8.285s1.148 5.932 3.446 8.227c2.298 2.294 5.034 3.441 8.208 3.441 3.213 0 5.998-1.156 8.353-3.47 2.22-2.198 3.33-4.93 3.33-8.198 0-3.268-1.129-6.029-3.387-8.285-2.26-2.256-5.025-3.384-8.296-3.384zm.029 2.1c2.648 0 4.897.933 6.747 2.8 1.87 1.848 2.805 4.103 2.805 6.768 0 2.684-.915 4.91-2.746 6.68-1.928 1.906-4.197 2.859-6.806 2.859-2.61 0-4.858-.943-6.747-2.83-1.89-1.886-2.833-4.123-2.833-6.709 0-2.587.954-4.843 2.862-6.768 1.83-1.867 4.07-2.8 6.718-2.8z" clip-rule="evenodd" style="fill-rule:evenodd"/>
  </g>
</svg>
