<svg xmlns="http://www.w3.org/2000/svg" viewBox="0 0 88 31">
  <path d="m2.3.375 83.13.148c1.16 0 2.199-.171 2.199 2.332l-.102 27.555H.203V2.754C.203 1.52.324.375 2.301.375z" style="fill:#a8b0ab;fill-opacity:1;fill-rule:nonzero;stroke:none"/>
  <path d="M86.352 0H1.648C.738 0 0 .742 0 1.656v28.969c0 .207.168.375.371.375H87.63a.374.374 0 0 0 .371-.375V1.656C88 .742 87.262 0 86.352 0zM1.648.75h84.704c.5 0 .902.406.902.906V21.79H26.516c-2.22 4.04-6.493 6.781-11.399 6.781-4.91 0-9.183-2.738-11.402-6.78H.746V1.655c0-.5.402-.906.902-.906z" style="fill:#000;fill-opacity:1;fill-rule:nonzero;stroke:none"/>
  <path d="M54.125 24.172c.234 0 .445.02.637.058.191.043.351.11.488.204a.928.928 0 0 1 .316.375c.075.152.114.343.114.574 0 .246-.055.449-.168.613a1.2 1.2 0 0 1-.492.406c.3.086.523.239.671.453.149.22.223.48.223.786 0 .246-.047.46-.144.64-.094.18-.223.328-.383.442-.164.113-.348.199-.555.254a2.475 2.475 0 0 1-.637.082h-2.36v-4.887zm-.137 1.976a.787.787 0 0 0 .473-.136c.121-.094.184-.239.184-.446a.53.53 0 0 0-.063-.277.41.41 0 0 0-.164-.172.621.621 0 0 0-.234-.086 1.549 1.549 0 0 0-.274-.023h-1.004v1.14zm.063 2.075c.105 0 .207-.012.3-.032a.737.737 0 0 0 .254-.101.556.556 0 0 0 .172-.195.679.679 0 0 0 .067-.317c0-.25-.07-.43-.211-.535-.14-.11-.328-.16-.559-.16h-1.168v1.34zM56.102 24.172H57.3l1.136 1.93 1.13-1.93h1.19l-1.8 3.012v1.875h-1.07v-1.903zM25.121 14.473c.004 5.554-4.473 10.062-9.996 10.066-5.52.004-10-4.5-10.004-10.055v-.011c-.004-5.559 4.473-10.067 9.992-10.07 5.524-.005 10.004 4.5 10.008 10.058v.012z" style="fill:#fff;fill-opacity:1;fill-rule:nonzero;stroke:none"/>
  <path d="M23.25 6.273c2.215 2.235 3.324 4.965 3.324 8.2 0 3.23-1.09 5.933-3.27 8.109-2.312 2.29-5.042 3.434-8.199 3.434-3.113 0-5.8-1.137-8.054-3.407-2.258-2.27-3.383-4.984-3.383-8.136 0-3.157 1.125-5.891 3.383-8.2 2.195-2.23 4.883-3.347 8.054-3.347 3.211 0 5.926 1.117 8.145 3.347zM8.543 7.777C6.668 9.68 5.73 11.914 5.73 14.473c0 2.562.93 4.773 2.782 6.64 1.855 1.867 4.066 2.801 6.629 2.801 2.562 0 4.789-.941 6.683-2.828 1.797-1.754 2.696-3.957 2.696-6.613 0-2.637-.915-4.871-2.739-6.711-1.828-1.84-4.039-2.758-6.64-2.758-2.602 0-4.801.926-6.598 2.773zm4.934 5.57c-.29-.628-.715-.94-1.29-.94-1.011 0-1.515.683-1.515 2.054 0 1.367.504 2.05 1.515 2.05.668 0 1.145-.331 1.43-1l1.403.75c-.668 1.196-1.668 1.794-3.004 1.794-1.032 0-1.86-.317-2.477-.953-.621-.637-.934-1.512-.934-2.63 0-1.1.32-1.972.961-2.617.641-.644 1.438-.968 2.391-.968 1.414 0 2.422.562 3.035 1.68zm6.59 0c-.286-.628-.708-.94-1.258-.94-1.032 0-1.551.683-1.551 2.054 0 1.367.52 2.05 1.55 2.05.669 0 1.137-.331 1.403-1l1.434.75c-.668 1.196-1.668 1.794-3.004 1.794-1.028 0-1.852-.317-2.47-.953-.62-.637-.929-1.512-.929-2.63 0-1.1.313-1.972.942-2.617.628-.644 1.43-.968 2.402-.968 1.41 0 2.418.562 3.027 1.68z" style="fill:#000;fill-opacity:1;fill-rule:nonzero;stroke:none"/>
  <path d="M63.805 11.23c0 4.38-3.528 7.926-7.875 7.926-4.352 0-7.875-3.547-7.875-7.926 0-4.375 3.523-7.925 7.875-7.925 4.347 0 7.875 3.55 7.875 7.925z" style="fill:#fff;fill-opacity:1;fill-rule:nonzero;stroke:none"/>
  <path d="M58.207 8.938a.55.55 0 0 0-.547-.551h-3.48a.55.55 0 0 0-.547.55v3.5h.969v4.149h2.636v-4.148h.969zM57.11 6.727c0 .66-.532 1.199-1.188 1.199-.66 0-1.192-.54-1.192-1.2 0-.66.532-1.195 1.192-1.195.656 0 1.187.535 1.187 1.196z" style="fill:#000;fill-opacity:1;fill-rule:nonzero;stroke:none"/>
  <path d="M55.91 2.5c-2.355 0-4.351.828-5.984 2.48-1.672 1.711-2.508 3.739-2.508 6.079 0 2.336.836 4.347 2.508 6.03 1.676 1.684 3.672 2.524 5.984 2.524 2.34 0 4.371-.847 6.086-2.543 1.617-1.613 2.43-3.617 2.43-6.011 0-2.399-.824-4.422-2.469-6.079-1.648-1.652-3.664-2.48-6.047-2.48zm.02 1.54c1.93 0 3.57.683 4.918 2.054 1.363 1.355 2.043 3.008 2.043 4.965 0 1.964-.668 3.601-2 4.898-1.407 1.398-3.059 2.098-4.961 2.098-1.903 0-3.54-.692-4.918-2.078-1.375-1.383-2.063-3.024-2.063-4.918 0-1.899.696-3.555 2.086-4.965C52.367 4.723 54 4.039 55.93 4.039z" style="fill:#000;fill-opacity:1;fill-rule:evenodd;stroke:none"/>
</svg>
