<svg xmlns="http://www.w3.org/2000/svg" viewBox="0 0 120 42">
  <path d="m3.41.453 113.352.2c1.586 0 3-.235 3 3.163l-.14 37.329H.546V3.675C.547 2 .71.454 3.41.454z" style="fill:#a8b0ab;fill-opacity:1;fill-rule:nonzero;stroke:none"/>
  <path d="M117.754 0H2.246A2.249 2.249 0 0 0 0 2.246v39.246c0 .281.227.508.508.508h118.984a.507.507 0 0 0 .508-.508V2.246A2.249 2.249 0 0 0 117.754 0zM2.246 1.016h115.508c.68 0 1.23.55 1.23 1.23V29.47H36.43c-3.028 5.468-8.86 9.183-15.547 9.183-6.696 0-12.524-3.71-15.547-9.183h-4.32V2.246c0-.68.55-1.23 1.23-1.23z" style="fill:#000;fill-opacity:1;fill-rule:nonzero;stroke:none"/>
  <path d="M34.523 19.55c.004 7.532-6.097 13.637-13.628 13.641-7.528.008-13.637-6.093-13.641-13.625v-.015c-.008-7.528 6.094-13.637 13.625-13.64 7.531-.005 13.64 6.093 13.644 13.624v.016z" style="fill:#fff;fill-opacity:1;fill-rule:nonzero;stroke:none"/>
  <path d="M31.973 8.445c3.023 3.024 4.535 6.727 4.535 11.106s-1.488 8.043-4.457 10.988c-3.156 3.102-6.883 4.652-11.184 4.652-4.25 0-7.91-1.539-10.984-4.613-3.078-3.074-4.613-6.75-4.613-11.027 0-4.274 1.535-7.977 4.613-11.106 2.996-3.023 6.656-4.535 10.984-4.535 4.38 0 8.082 1.512 11.106 4.535zM11.918 10.48c-2.559 2.583-3.836 5.606-3.836 9.075 0 3.468 1.266 6.468 3.793 8.996 2.531 2.531 5.543 3.793 9.04 3.793 3.495 0 6.53-1.278 9.112-3.832 2.453-2.371 3.68-5.36 3.68-8.957 0-3.57-1.246-6.602-3.738-9.094-2.492-2.488-5.508-3.734-9.055-3.734-3.547 0-6.547 1.25-8.996 3.753zm6.727 7.551c-.391-.851-.977-1.277-1.758-1.277-1.375 0-2.067.926-2.067 2.781 0 1.856.692 2.785 2.067 2.785.91 0 1.562-.453 1.953-1.36l1.91 1.02c-.91 1.618-2.277 2.426-4.098 2.426-1.406 0-2.53-.43-3.379-1.293-.843-.86-1.27-2.047-1.27-3.562 0-1.488.438-2.668 1.31-3.543.87-.875 1.96-1.313 3.261-1.313 1.926 0 3.305.758 4.137 2.278zm8.988 0c-.39-.851-.965-1.277-1.719-1.277-1.406 0-2.11.926-2.11 2.781 0 1.856.704 2.785 2.11 2.785.914 0 1.55-.453 1.914-1.36l1.953 1.02c-.91 1.618-2.273 2.426-4.09 2.426-1.406 0-2.527-.43-3.375-1.293-.84-.86-1.265-2.047-1.265-3.562 0-1.488.43-2.668 1.289-3.543.855-.875 1.945-1.313 3.273-1.313 1.922 0 3.297.758 4.13 2.278z" style="fill:#000;fill-opacity:1;fill-rule:nonzero;stroke:none"/>
  <path d="M62.504 15.223c0 5.93-4.809 10.738-10.742 10.738-5.93 0-10.739-4.809-10.739-10.738 0-5.93 4.809-10.739 10.739-10.739 5.933 0 10.742 4.809 10.742 10.739z" style="fill:#fff;fill-opacity:1;fill-rule:nonzero;stroke:none"/>
  <path d="M54.871 12.117a.75.75 0 0 0-.75-.75H49.38a.75.75 0 0 0-.75.75v4.742h1.324v5.618h3.594v-5.618h1.324zM53.371 9.121a1.622 1.622 0 1 1-3.24-.002 1.622 1.622 0 0 1 3.24.002z" style="fill:#000;fill-opacity:1;fill-rule:nonzero;stroke:none"/>
  <path d="M51.734 3.39c-3.21 0-5.93 1.122-8.156 3.364-2.281 2.32-3.422 5.062-3.422 8.234 0 3.168 1.14 5.895 3.422 8.172 2.285 2.281 5.004 3.422 8.156 3.422 3.196 0 5.961-1.148 8.305-3.45 2.207-2.183 3.309-4.898 3.309-8.144 0-3.25-1.121-5.992-3.368-8.234-2.246-2.242-4.992-3.363-8.246-3.363zm.032 2.09c2.632 0 4.867.926 6.703 2.782 1.86 1.836 2.789 4.078 2.789 6.726 0 2.664-.91 4.88-2.73 6.637-1.915 1.895-4.169 2.84-6.762 2.84-2.594 0-4.828-.938-6.707-2.813-1.875-1.87-2.813-4.093-2.813-6.664 0-2.57.945-4.812 2.844-6.726 1.82-1.856 4.043-2.782 6.676-2.782z" style="fill:#000;fill-opacity:1;fill-rule:evenodd;stroke:none"/>
  <path d="M48.402 32.746c.313 0 .602.031.864.086.257.055.484.145.668.273.187.125.328.293.433.504.102.211.153.47.153.778 0 .336-.075.613-.227.836-.152.222-.379.402-.676.547.41.117.715.324.918.617.203.293.305.648.305 1.062 0 .332-.067.621-.195.867a1.732 1.732 0 0 1-.528.598c-.219.156-.472.27-.754.344-.281.074-.57.113-.867.113h-3.219v-6.625zm-.187 2.68c.262 0 .472-.063.64-.184.168-.125.25-.324.25-.601a.767.767 0 0 0-.082-.38.612.612 0 0 0-.222-.234.917.917 0 0 0-.32-.113 1.98 1.98 0 0 0-.38-.035h-1.363v1.547zm.086 2.808c.14 0 .277-.011.406-.039a.986.986 0 0 0 .348-.14.676.676 0 0 0 .234-.266c.059-.11.09-.25.09-.426 0-.34-.098-.582-.29-.726-.19-.145-.444-.219-.76-.219h-1.59v1.816zM51.094 32.746h1.633l1.55 2.617 1.543-2.617h1.625l-2.46 4.082v2.543h-1.462V36.79zM98.441 37.73c.079.157.184.282.32.38.134.093.286.163.466.21.18.047.363.07.554.07.13 0 .27-.011.418-.03.149-.024.285-.063.418-.126a.95.95 0 0 0 .324-.257.66.66 0 0 0 .13-.41.592.592 0 0 0-.173-.438 1.398 1.398 0 0 0-.449-.277 4.603 4.603 0 0 0-.629-.196 17.498 17.498 0 0 1-.715-.183 6.482 6.482 0 0 1-.722-.23 2.283 2.283 0 0 1-.63-.348 1.6 1.6 0 0 1-.448-.532 1.639 1.639 0 0 1-.172-.773c0-.344.074-.637.219-.887.144-.25.332-.46.566-.629.234-.164.504-.289.8-.37.294-.079.59-.118.887-.118.348 0 .68.039.997.113.32.078.601.203.847.38.25.171.446.394.59.66.145.273.219.597.219.98h-1.414a1.167 1.167 0 0 0-.125-.492.814.814 0 0 0-.281-.305 1.11 1.11 0 0 0-.403-.156 2.42 2.42 0 0 0-.492-.047c-.117 0-.234.011-.352.035-.117.027-.222.07-.316.129a.802.802 0 0 0-.238.234.652.652 0 0 0-.09.352c0 .129.023.234.07.316.051.078.149.156.293.223.149.066.348.137.602.203.258.066.593.156 1.008.262.12.023.293.07.511.132.219.067.438.168.653.313.218.14.402.332.562.57.156.239.234.543.234.914 0 .301-.058.582-.175.844a1.848 1.848 0 0 1-.524.672c-.23.187-.52.336-.863.441a4.06 4.06 0 0 1-1.191.157 4.19 4.19 0 0 1-1.063-.133 2.587 2.587 0 0 1-.906-.426 2.083 2.083 0 0 1-.63-.734c-.151-.297-.226-.649-.222-1.055h1.414c0 .223.04.41.121.562zM106.645 32.746l2.476 6.625h-1.512l-.5-1.476h-2.476l-.52 1.476h-1.465l2.504-6.625zm.085 4.063-.836-2.43h-.019l-.86 2.43zM72.52 32.746l2.765 4.445h.016v-4.445h1.367v6.625h-1.457l-2.758-4.434h-.02v4.434H71.07v-6.625zM82.195 34.512a1.477 1.477 0 0 0-.766-.613 1.52 1.52 0 0 0-.515-.087c-.328 0-.605.063-.836.188a1.586 1.586 0 0 0-.555.512c-.14.21-.246.453-.312.726a3.776 3.776 0 0 0-.098.844c0 .277.035.55.098.813.066.261.172.5.312.707.141.21.329.378.555.507.23.125.508.188.836.188.445 0 .793-.133 1.043-.406.254-.274.406-.633.461-1.078h1.41c-.035.414-.133.789-.289 1.124-.152.333-.36.618-.61.852a2.59 2.59 0 0 1-.89.543c-.34.121-.715.184-1.125.184-.508 0-.96-.086-1.367-.266a2.905 2.905 0 0 1-1.027-.727 3.229 3.229 0 0 1-.641-1.09 4.005 4.005 0 0 1-.223-1.351c0-.496.074-.953.223-1.379.148-.422.363-.793.64-1.11a2.994 2.994 0 0 1 1.028-.741c.406-.18.86-.266 1.367-.266.367 0 .711.05 1.035.156.324.106.617.258.871.461.258.2.47.45.637.746.168.297.273.637.316 1.02h-1.41a1.239 1.239 0 0 0-.168-.457zM114.578 14.98c.008 5.844-4.73 10.586-10.574 10.594-5.848 0-10.59-4.73-10.594-10.578v-.016c-.004-5.843 4.73-10.585 10.578-10.59 5.844-.007 10.586 4.731 10.59 10.575v.015z" style="fill:#fff;fill-opacity:1;fill-rule:nonzero;stroke:none"/>
  <path d="M103.918 3.387c-3.211 0-5.93 1.12-8.156 3.36-2.282 2.32-3.426 5.065-3.426 8.233s1.144 5.895 3.426 8.176c2.285 2.282 5.004 3.418 8.156 3.418 3.195 0 5.96-1.148 8.3-3.449 2.208-2.184 3.313-4.898 3.313-8.145 0-3.246-1.125-5.992-3.367-8.234-2.246-2.238-4.992-3.36-8.246-3.36zm.031 2.086c2.63 0 4.863.925 6.703 2.785 1.86 1.832 2.785 4.074 2.785 6.722 0 2.668-.906 4.88-2.726 6.641-1.914 1.89-4.172 2.84-6.762 2.84-2.594 0-4.828-.938-6.707-2.813-1.875-1.875-2.816-4.097-2.816-6.668 0-2.57.949-4.812 2.847-6.722 1.817-1.86 4.043-2.785 6.676-2.785z" style="fill:#000;fill-opacity:1;fill-rule:nonzero;stroke:none"/>
  <path d="M98.777 13.344c.465-2.918 2.516-4.477 5.094-4.477 3.7 0 5.957 2.688 5.957 6.27 0 3.492-2.402 6.207-6.016 6.207-2.488 0-4.714-1.528-5.12-4.535h2.921c.086 1.562 1.098 2.109 2.547 2.109 1.645 0 2.719-1.531 2.719-3.871 0-2.453-.926-3.754-2.664-3.754-1.27 0-2.371.465-2.602 2.05l.848-.003-2.297 2.297-2.3-2.297z" style="fill:#000;fill-opacity:1;fill-rule:nonzero;stroke:none"/>
  <path d="M88.629 14.98c.004 5.957-4.82 10.79-10.777 10.793-5.957.004-10.793-4.82-10.797-10.777v-.016c-.004-5.957 4.824-10.789 10.78-10.793 5.958-.003 10.79 4.82 10.794 10.778v.015z" style="fill:#fff;fill-opacity:1;fill-rule:nonzero;stroke:none"/>
  <path d="M77.828 3.387c3.25 0 5.996 1.12 8.242 3.36 2.246 2.241 3.368 4.987 3.368 8.233 0 3.247-1.102 5.961-3.31 8.145-2.339 2.3-5.108 3.45-8.3 3.45-3.156 0-5.875-1.137-8.156-3.419-2.285-2.281-3.426-5.008-3.426-8.176s1.14-5.914 3.426-8.234c2.226-2.238 4.941-3.36 8.156-3.36zm-8.973 8.48a9.218 9.218 0 0 0-.52 3.113c0 2.57.938 4.793 2.817 6.668 1.875 1.875 4.11 2.813 6.703 2.813 2.594 0 4.848-.95 6.766-2.844a8.838 8.838 0 0 0 1.582-2.027l-4.371-1.945c-.297 1.468-1.605 2.464-3.191 2.582v1.785h-1.332v-1.785c-1.301-.016-2.559-.551-3.52-1.391l1.598-1.61c.77.723 1.539 1.047 2.59 1.047.68 0 1.433-.265 1.433-1.152a.865.865 0 0 0-.312-.695l-1.106-.492-1.379-.614c-.68-.304-1.258-.558-1.836-.816zm9-6.394c-2.632 0-4.855.925-6.675 2.785a10.36 10.36 0 0 0-1.29 1.562l4.43 1.977c.403-1.23 1.57-1.977 2.989-2.059V7.95h1.332v1.79c.918.042 1.921.292 2.914 1.062l-1.524 1.566c-.562-.398-1.273-.68-1.984-.68-.574 0-1.387.176-1.387.899 0 .113.035.21.102.297l1.484.66 1.004.445c.64.285 1.254.559 1.863.828l5.942 2.649c.195-.781.293-1.61.293-2.485 0-2.648-.93-4.89-2.785-6.722-1.84-1.86-4.075-2.785-6.708-2.785z" style="fill:#000;fill-opacity:1;fill-rule:nonzero;stroke:none"/>
</svg>
