<svg xmlns="http://www.w3.org/2000/svg" viewBox="0.995 1.495 88 31">
  <path fill="#fff" d="m3.298 1.976 83.125.149c1.162 0 2.199-.173 2.199 2.333l-.103 27.554H1.2V4.356c0-1.235.118-2.38 2.098-2.38z"/>
  <ellipse cx="14.887" cy="16.501" fill="#fff" rx="11.101" ry="11.172" transform="translate(.495 .495)"/>
  <path d="M24.766 5.555a14.23 14.23 0 0 1 5.755 11.44 14.225 14.225 0 0 1-4.842 10.703h62.853V5.555z"/>
  <path d="M15.737 5.197c-6.473 0-11.721 5.282-11.721 11.798 0 6.515 5.248 11.798 11.722 11.798 6.473 0 11.721-5.283 11.721-11.798-.001-6.516-5.249-11.798-11.722-11.798zm0 21.384c-5.252 0-9.524-4.302-9.524-9.586 0-1.106.189-2.169.534-3.158l3.725 1.669a8.023 8.023 0 0 0-.154 1.567c0 4.709 3.492 6.036 5.689 6.036a5.695 5.695 0 0 0 3.558-1.238l-1.758-1.848c-.64.556-1.313.39-1.47.39-1.788 0-2.537-1.899-2.547-3.421l10.266 4.602.032.004c-1.62 2.966-4.756 4.983-8.351 4.983zm9.177-7.138-10.587-4.755c.382-.698.989-1.221 1.898-1.221a2.254 2.254 0 0 1 1.631.697l1.908-1.978c-1.281-1.108-2.739-1.308-3.692-1.308-2.239 0-3.824.976-4.759 2.455l-3.54-1.59c1.704-2.608 4.636-4.337 7.963-4.337 5.251 0 9.523 4.3 9.523 9.587 0 .854-.113 1.685-.323 2.474l-.022-.024z"/>
  <g fill="#fff">
    <path d="M37.234 9.052c.392 0 .728.059 1.002.173.276.116.5.268.674.456.173.189.299.405.379.647a2.437 2.437 0 0 1 0 1.502c-.08.244-.206.462-.379.65a1.887 1.887 0 0 1-.674.456c-.274.115-.61.173-1.002.173h-1.452v2.267H34.4V9.052zm-.379 2.976c.158 0 .312-.012.457-.035.147-.023.276-.069.388-.137a.756.756 0 0 0 .269-.288c.068-.124.101-.287.101-.487 0-.201-.033-.363-.101-.488a.729.729 0 0 0-.269-.286 1.04 1.04 0 0 0-.388-.138 2.82 2.82 0 0 0-.457-.036h-1.073v1.896zM45.246 14.893c-.476.417-1.133.625-1.972.625-.851 0-1.509-.207-1.976-.62-.466-.413-.699-1.052-.699-1.913V9.052h1.381v3.934c0 .171.016.339.045.506.029.165.091.311.185.438.094.125.225.229.392.309.167.08.392.119.673.119.493 0 .833-.109 1.021-.332.188-.221.282-.568.282-1.04V9.052h1.382v3.934c-.001.855-.239 1.491-.714 1.907zM50.564 9.052c.301 0 .572.027.817.081a1.8 1.8 0 0 1 .636.26c.176.121.312.282.407.483.099.201.146.45.146.745 0 .318-.071.584-.217.796a1.553 1.553 0 0 1-.637.522c.387.112.676.309.865.589.191.281.286.619.286 1.015 0 .319-.062.595-.185.829a1.613 1.613 0 0 1-.498.57 2.168 2.168 0 0 1-.713.328 3.24 3.24 0 0 1-.822.105h-3.044V9.052zm-.173 2.56c.246 0 .447-.059.606-.178.157-.118.237-.309.237-.576a.719.719 0 0 0-.08-.362.586.586 0 0 0-.211-.222.847.847 0 0 0-.303-.109 1.886 1.886 0 0 0-.356-.032H48.99v1.479zm.078 2.685c.135 0 .264-.014.387-.04a.952.952 0 0 0 .326-.133.7.7 0 0 0 .227-.254.86.86 0 0 0 .083-.406c0-.325-.093-.557-.271-.696-.184-.138-.425-.208-.724-.208h-1.505v1.737zM55.637 9.052v5.155h3.062v1.169h-4.444V9.052zM61.243 9.052v6.324h-1.382V9.052zM66.945 10.739a1.415 1.415 0 0 0-1.215-.669c-.312 0-.574.062-.791.183-.217.12-.396.283-.527.486a2.16 2.16 0 0 0-.296.695c-.062.26-.093.529-.093.806 0 .267.031.525.093.776s.159.477.296.677c.134.201.311.361.527.483.217.12.479.181.791.181.424 0 .754-.129.99-.389s.383-.602.437-1.028h1.337a3.242 3.242 0 0 1-.271 1.072 2.447 2.447 0 0 1-1.426 1.328 3.054 3.054 0 0 1-1.064.178 3.22 3.22 0 0 1-1.299-.252 2.784 2.784 0 0 1-.972-.696 3.01 3.01 0 0 1-.606-1.04 3.796 3.796 0 0 1-.213-1.29c0-.472.07-.91.213-1.314a3.2 3.2 0 0 1 .606-1.058c.263-.302.589-.537.972-.709a3.145 3.145 0 0 1 1.299-.258c.347 0 .675.051.98.15.309.102.583.248.827.439.243.191.444.43.603.713.16.283.258.608.301.974h-1.339a1.155 1.155 0 0 0-.16-.438zM37.11 17.91c.405 0 .782.064 1.131.193.35.131.651.326.906.586.255.26.455.584.599.975.144.389.216.848.216 1.372 0 .462-.059.888-.176 1.274a2.836 2.836 0 0 1-.532 1.012 2.494 2.494 0 0 1-.89.668c-.354.162-.772.244-1.254.244H34.4V17.91zm-.096 5.154c.199 0 .393-.031.581-.097.188-.066.354-.174.502-.323.146-.151.264-.349.352-.59.088-.242.132-.537.132-.887 0-.316-.031-.605-.093-.863a1.687 1.687 0 0 0-.304-.658 1.324 1.324 0 0 0-.559-.422c-.231-.099-.517-.146-.858-.146h-.984v3.984h1.231zM41.295 19.784a3.2 3.2 0 0 1 .606-1.06c.265-.304.589-.537.973-.709a3.143 3.143 0 0 1 1.298-.258c.487 0 .921.086 1.303.258.383.172.705.405.969.709.265.301.467.652.605 1.06.143.403.213.843.213 1.313 0 .461-.07.892-.213 1.288a3.129 3.129 0 0 1-.605 1.041 2.764 2.764 0 0 1-.969.694 3.199 3.199 0 0 1-1.303.253c-.481 0-.913-.085-1.298-.253a2.78 2.78 0 0 1-.973-.694 3.097 3.097 0 0 1-.606-1.041 3.82 3.82 0 0 1-.211-1.288c0-.47.07-.91.211-1.313zm1.262 2.089c.062.252.16.479.295.68.135.199.312.36.527.48.218.121.481.184.792.184.312 0 .576-.062.792-.184.219-.12.395-.281.529-.48.134-.201.232-.428.295-.68a3.426 3.426 0 0 0 0-1.58 2.17 2.17 0 0 0-.295-.695 1.524 1.524 0 0 0-.529-.486 1.61 1.61 0 0 0-.792-.182c-.311 0-.574.062-.792.182a1.5 1.5 0 0 0-.527.486 2.177 2.177 0 0 0-.295.695 3.442 3.442 0 0 0 0 1.58zM50.587 17.91l1.47 4.35h.021l1.391-4.35h1.944v6.324h-1.294v-4.482H54.1l-1.541 4.482h-1.062l-1.54-4.438h-.019v4.438h-1.295V17.91zM60.26 17.91l2.35 6.324h-1.436l-.475-1.408h-2.35l-.494 1.408h-1.392l2.377-6.324zm.079 3.88-.793-2.321h-.019l-.816 2.321zM65.042 17.91v6.324H63.66V17.91zM68.098 17.91l2.623 4.242h.018V17.91h1.295v6.324h-1.383L68.038 20h-.018v4.234h-1.295V17.91z"/>
  </g>
  <path d="M87.348 1.495H2.642c-.908 0-1.647.743-1.647 1.657v28.97c0 .206.167.373.372.373h87.256a.373.373 0 0 0 .372-.373V3.152c0-.914-.739-1.657-1.647-1.657zm-84.706.749h84.704c.498 0 .903.407.903.908v28.557H1.74V3.152c0-.501.405-.908.902-.908z"/>
</svg>
