<svg xmlns="http://www.w3.org/2000/svg" viewBox="0 0 64 64">
  <circle cx="32" cy="32" r="30.413" style="fill:#fff;fill-opacity:1;fill-rule:nonzero;stroke:none"/>
  <path d="M32 0C14.327 0 0 14.327 0 32c0 17.67 14.327 32 32 32 17.673 0 32-14.33 32-32C64 14.327 49.673 0 32 0zm0 58C17.663 58 6 46.335 6 32c0-3.001.516-5.883 1.457-8.566l10.169 4.528a21.506 21.506 0 0 0-.423 4.247c0 12.775 9.536 16.375 15.535 16.375 3.538 0 6.6-1.143 8.997-2.818.455-.326.868-.655 1.247-.99l-4.665-5.667a5.37 5.37 0 0 1-.426.438c-1.815 1.72-3.809 1.72-4.255 1.72-4.88 0-6.924-5.15-6.951-9.275L54.71 44.47c.033.006.06.006.088.012C50.377 52.533 41.815 58 32 58zm25.055-19.356L28.15 25.742c1.043-1.89 2.703-3.309 5.187-3.309 1.44 0 2.582.477 3.481 1.08.374.27.698.54.972.811L43 18.961c-3.499-3.009-7.478-3.547-10.08-3.547-6.115 0-10.441 2.644-12.992 6.658l-9.666-4.311C14.913 10.683 22.918 5.998 32 5.998c14.337 0 26.002 11.663 26.002 26.002 0 2.32-.311 4.567-.884 6.71-.024-.023-.04-.043-.063-.067z"/>
</svg>
