<svg xmlns="http://www.w3.org/2000/svg" viewBox="0 0 255.056 255.054">
  <path fill="#0a0b09" d="M157.336 242.708c7.962-7.963 12.349-18.547 12.349-29.805 0-.178-.002-.356-.004-.536 11.472.165 22.254-4.252 30.342-12.342 7.962-7.96 12.347-18.55 12.347-29.809 0-.178 0-.358-.002-.536 11.416.133 22.257-4.254 30.342-12.344 7.962-7.962 12.347-18.55 12.347-29.807 0-11.26-4.385-21.847-12.347-29.809-8.085-8.087-18.926-12.485-30.342-12.344.002-.178.002-.356.002-.534 0-11.262-4.385-21.846-12.345-29.809-8.088-8.087-18.905-12.491-30.344-12.344.002-.178.004-.356.004-.534 0-11.261-4.387-21.846-12.35-29.808C149.375 4.385 138.79 0 127.528 0 116.27 0 105.682 4.385 97.72 12.347c-7.962 7.96-12.346 18.547-12.346 29.808 0 .178 0 .356.002.534-11.433-.147-22.255 4.257-30.342 12.344-7.963 7.963-12.347 18.547-12.347 29.81 0 .177 0 .355.002.533-11.442-.141-22.255 4.254-30.345 12.344C4.384 105.682 0 116.27 0 127.53c0 11.259 4.385 21.844 12.344 29.804 8.088 8.092 18.923 12.479 30.345 12.346-.002.178-.002.358-.002.536 0 11.26 4.384 21.845 12.346 29.807 8.088 8.088 18.86 12.45 30.343 12.344-.002.18-.002.358-.002.536 0 11.26 4.384 21.845 12.346 29.805 7.96 7.962 18.547 12.346 29.807 12.346 11.264 0 21.851-4.384 29.809-12.346"/>
  <path fill="#fff" d="M190.087 190.087c-5.31 5.304-12.364 8.228-19.873 8.228-7.504 0-14.564-2.924-19.87-8.228-10.956-10.959-10.956-28.785 0-39.746 5.306-5.306 12.366-8.228 19.87-8.228 7.509 0 14.564 2.922 19.873 8.228 5.306 5.311 8.228 12.367 8.228 19.875 0 7.504-2.922 14.562-8.228 19.87M127.527 155.628c-7.506 0-14.564-2.92-19.87-8.228-5.307-5.31-8.231-12.364-8.231-19.87 0-7.51 2.924-14.565 8.23-19.873 5.307-5.31 12.365-8.23 19.871-8.23 7.509 0 14.564 2.92 19.873 8.23 5.308 5.308 8.228 12.364 8.228 19.872 0 7.507-2.92 14.562-8.228 19.87-5.31 5.31-12.364 8.23-19.873 8.23M212.9 99.428c7.507 0 14.565 2.92 19.871 8.229 5.309 5.308 8.233 12.364 8.233 19.872 0 7.507-2.924 14.562-8.233 19.87-5.306 5.31-12.364 8.23-19.87 8.23-7.507 0-14.564-2.92-19.87-8.23-5.31-5.308-8.232-12.363-8.232-19.87 0-7.508 2.923-14.564 8.232-19.872 5.306-5.31 12.363-8.23 19.87-8.23M170.214 56.739c7.509 0 14.564 2.924 19.873 8.23 5.306 5.31 8.228 12.367 8.228 19.873 0 7.507-2.922 14.562-8.228 19.87-5.31 5.31-12.364 8.232-19.873 8.232-7.504 0-14.564-2.923-19.87-8.231-10.956-10.956-10.956-28.785 0-39.743 5.306-5.307 12.366-8.231 19.87-8.231M107.657 22.283c5.306-5.307 12.364-8.229 19.87-8.229 7.509 0 14.564 2.922 19.873 8.229 5.308 5.31 8.228 12.366 8.228 19.872 0 7.507-2.92 14.564-8.228 19.87-5.31 5.31-12.364 8.234-19.873 8.234-7.506 0-14.564-2.924-19.87-8.233-5.307-5.307-8.231-12.364-8.231-19.87 0-7.507 2.924-14.562 8.23-19.873M64.97 64.97c5.309-5.307 12.364-8.231 19.87-8.231 7.507 0 14.564 2.924 19.875 8.23 10.954 10.959 10.954 28.788 0 39.744-5.311 5.308-12.368 8.23-19.875 8.23-7.506 0-14.561-2.922-19.87-8.23-5.307-5.31-8.231-12.364-8.231-19.87 0-7.507 2.924-14.564 8.23-19.873M42.158 155.628c-7.51 0-14.564-2.92-19.875-8.228-5.307-5.31-8.229-12.364-8.229-19.87 0-7.51 2.922-14.565 8.229-19.873 5.31-5.31 12.366-8.23 19.875-8.23 7.504 0 14.561 2.92 19.868 8.23 5.309 5.308 8.23 12.364 8.23 19.872 0 7.507-2.921 14.562-8.23 19.87-5.307 5.31-12.364 8.23-19.868 8.23M84.84 198.315c-7.506 0-14.561-2.924-19.87-8.228-5.307-5.31-8.231-12.367-8.231-19.87 0-7.51 2.924-14.565 8.23-19.876 5.31-5.306 12.365-8.228 19.871-8.228 7.507 0 14.564 2.922 19.875 8.228 10.954 10.96 10.954 28.787 0 39.746-5.311 5.304-12.368 8.228-19.875 8.228M99.426 212.903c0-7.506 2.924-14.566 8.23-19.872 5.307-5.31 12.365-8.232 19.871-8.232 7.509 0 14.564 2.923 19.873 8.232 5.308 5.306 8.228 12.366 8.228 19.872 0 7.504-2.92 14.56-8.228 19.87-5.31 5.307-12.364 8.227-19.873 8.227-7.506 0-14.564-2.92-19.87-8.227-5.307-5.31-8.231-12.366-8.231-19.87"/>
</svg>
