<svg xmlns="http://www.w3.org/2000/svg" viewBox="0 0 255.139 255.139">
  <path fill="#932279" d="m107.472 118.253 9.228 9.176-9.228 9.175h-64.96v30.572L2.898 127.429 42.513 88.35v29.903h64.959zm28.554-78.068h78.928v78.93h-78.928v-78.93z"/>
  <path fill="#efa724" d="m136.886 107.472-9.175 9.228-9.175-9.228v-64.96H87.963l39.748-39.615 39.078 39.616h-29.903v64.959zm-.86 28.554h78.928v78.93h-78.928v-78.93z"/>
  <path fill="#262577" d="m147.669 136.886-9.23-9.175 9.23-9.175h64.957V87.963l39.617 39.748-39.617 39.078v-29.903H147.67zm-107.484-.86h78.928v78.93H40.185v-78.93z"/>
  <path fill="#9ccd2a" d="m118.253 147.669 9.175-9.23 9.176 9.23v64.96h30.572l-39.748 39.614-39.076-39.615h29.9v-64.96zM40.185 40.185h78.928v78.93H40.185v-78.93z"/>
  <path fill="#fff" d="M37.365 37.365h84.568v84.568H37.365V37.365zm5.637 78.93h73.292V43.005H43.002v73.292zm90.206-78.93h84.568v84.568h-84.568V37.365zm5.637 78.93h73.292V43.005h-73.292v73.292zm-5.637 16.913h84.568v84.57h-84.568v-84.57zm5.637 78.929h73.292v-73.292h-73.292v73.292zm-101.48-78.929h84.568v84.57H37.365v-84.57zm5.637 78.929h73.292v-73.292H43.002v73.292z"/>
  <path fill="#fff" d="M59.8 187.37 0 127.57l59.798-59.798 59.8 59.798-59.798 59.8zm-51.826-59.8L59.8 179.395l51.824-51.825-51.826-51.825L7.974 127.57zm119.596-7.972L67.772 59.8 127.57 0l59.797 59.8-59.797 59.798zM75.745 59.8l51.825 51.824L179.395 59.8 127.57 7.974 75.745 59.8zm119.596 127.57-59.798-59.8 59.798-59.798 59.798 59.798-59.798 59.8zm-51.826-59.8 51.826 51.825 51.824-51.825-51.824-51.825-51.826 51.825zM127.57 255.139l-59.798-59.798 59.798-59.798 59.797 59.798-59.797 59.798zm-51.825-59.798 51.825 51.824 51.825-51.824-51.825-51.824-51.825 51.824z"/>
</svg>
