<svg xmlns="http://www.w3.org/2000/svg" viewBox="0 0 511.002 143.516">
  <path d="M511.002 84.327c0 6.024-1.907 11.098-5.723 15.223-3.815 4.125-8.663 6.186-14.542 6.186l-46.444-.097V93.265h38.28c2.565 0 4.723-.623 6.474-1.867 2.002-1.44 3.003-3.404 3.003-5.892 0-5.827-3.941-8.74-11.822-8.74H460.9c-5.566 0-10.446-1.8-14.637-5.401-4.19-3.601-6.285-8.184-6.285-13.75 0-6.154 2.033-11.129 6.098-14.926 4.128-3.863 9.54-5.795 16.232-5.795h44.378v11.785h-39.124c-1.752 0-3.534.785-5.348 2.357-1.751 1.505-2.628 3.306-2.628 5.4 0 2.358.845 4.355 2.533 5.992 1.752 1.571 3.848 2.356 6.287 2.356h21.299c6.63 0 11.821 1.801 15.574 5.402 3.816 3.535 5.723 8.25 5.723 14.141zM419.2 70.776c0-6.744-1.533-12.113-4.598-16.107-3.44-4.451-8.537-6.678-15.293-6.678-6.63 0-11.634 2.39-15.012 7.17-2.814 3.993-4.221 9.198-4.221 15.615 0 7.397 1.125 12.865 3.377 16.4 3.128 4.91 8.914 7.365 17.357 7.365 7.131 0 12.134-2.39 15.012-7.169 2.251-3.731 3.378-9.264 3.378-16.596zm16.7.392c0 13.356-3.533 22.915-10.602 28.676-5.754 4.649-14.136 6.973-25.145 6.973-12.197 0-21.203-2.684-27.02-8.053-6.38-5.892-9.571-15.353-9.571-28.381 0-10.672 2.846-18.986 8.538-24.945 6.192-6.481 15.45-9.722 27.772-9.722 13.573 0 23.143 3.11 28.71 9.329 4.88 5.5 7.319 14.207 7.319 26.123zm-76.564-5.794H346.67v23.078c0 2.095.688 3.83 2.064 5.205 1.564 1.375 3.628 2.062 6.192 2.062h3.847v9.92H346.67c-3.628 0-6.725-1.376-9.289-4.125-1.501-1.637-2.471-3.438-2.908-5.402-.438-1.964-.657-4.288-.657-6.972V65.374h-8.257V54.768h8.257V36.894h12.854v17.874h12.666zM321.88 105.64h-13.041V72.15c0-.851-.188-1.604-.563-2.259-.375-.72-.907-1.407-1.595-2.061-1.25-1.113-2.69-1.67-4.316-1.67h-12.76v39.479h-13.041V54.768h24.957c4.44 0 7.662.262 9.663.785 3.128.786 5.63 2.522 7.507 5.205 2.126 3.143 3.19 6.58 3.19 10.312zm-53.502.294h-22.893c-5.568 0-10.415-2.488-14.543-7.463-4.066-5.041-6.1-10.836-6.1-17.383 0-7.136 2.222-13.29 6.663-18.462 4.503-5.238 9.507-7.857 15.012-7.857h21.767v10.508h-15.95c-2.002 0-3.723.196-5.16.59-1.377.327-2.659 1.014-3.847 2.061-2.19 1.964-3.284 4.616-3.284 7.955h28.147v10.606h-28.053c0 1.572.156 2.913.47 4.026.374 1.048 1.093 2.128 2.157 3.242a8.422 8.422 0 0 0 3.753 2.16c1.5.327 3.315.49 5.44.49h16.42zm-48.285-.294h-28.991a30.64 30.64 0 0 1-8.726-1.277c-5.566-1.767-9.977-5.827-13.23-12.178-2.939-5.76-4.409-12.472-4.409-20.132 0-7.398 1.314-13.945 3.94-19.641 2.878-6.285 6.975-10.574 12.292-12.865 4.128-1.768 8.35-2.651 12.666-2.651h26.27v13.16h-27.302c-4.442 0-7.662 2.52-9.664 7.56-1.563 3.929-2.346 9.069-2.346 15.42 0 5.368 1.001 9.918 3.002 13.65 2.315 4.386 5.568 6.58 9.758 6.58l26.74-.099v12.473z"/>
  <path fill="#932279" d="m60.453 66.517 5.19 5.162-5.19 5.16h-36.54v17.197L1.63 71.68l22.283-21.982v16.82z"/>
  <path fill="#efa724" d="m76.999 60.453-5.161 5.19-5.161-5.19v-36.54H49.479L71.838 1.63l21.98 22.283h-16.82z"/>
  <path fill="#262577" d="m83.064 76.999-5.192-5.161 5.192-5.161h36.538V49.479l22.285 22.359-22.285 21.98v-16.82z"/>
  <path fill="#9ccd2a" d="m66.517 83.064 5.161-5.192 5.162 5.192v36.54h17.196l-22.358 22.283-21.98-22.284h16.82zM22.604 22.604H67v44.398H22.604z"/>
  <path fill="#fff" d="M21.018 21.018h47.569v47.569h-47.57zm3.17 44.398h41.227V24.19H24.19z"/>
  <path fill="#932279" d="M76.515 22.604h44.397v44.398H76.515z"/>
  <path fill="#fff" d="M74.93 21.018h47.569v47.569h-47.57zm3.17 44.398 41.227 47.57V24.19H78.1z"/>
  <path fill="#efa724" d="M76.515 76.515h44.397v44.398H76.515z"/>
  <path fill="#fff" d="M74.93 74.93h47.569v47.57h-47.57zm3.17 44.397 41.227 47.57V78.1H78.1z"/>
  <path fill="#262577" d="M22.604 76.515H67v44.398H22.604z"/>
  <path fill="#fff" d="M21.018 74.93h47.569v47.57h-47.57zm3.17 44.397h41.227V78.1H24.19z"/>
  <path fill="#fff" d="M33.637 105.395 0 71.758l33.636-33.636 33.638 33.636zM4.485 71.758l29.152 29.152 29.151-29.152-29.152-29.151zM71.758 67.274 38.122 33.637 71.758 0l33.636 33.637zM42.607 33.637l29.15 29.151 29.153-29.15L71.758 4.484zM109.88 105.395 76.242 71.758l33.636-33.636 33.637 33.636zM80.726 71.758l29.152 29.152 29.151-29.152-29.15-29.151zM71.758 143.516l-33.636-33.637 33.636-33.636 33.636 33.636zm-29.151-33.637 29.15 29.151 29.153-29.15-29.152-29.152z"/>
</svg>
