<svg xmlns="http://www.w3.org/2000/svg" viewBox="0 0 512 175.594">
  <path d="M126.917 175.15c-1-6.557-6.668-11.67-13.56-11.67A13.659 13.659 0 0 0 99.8 175.15h1.556zM96.354 175.15c-1-6.557-6.668-11.67-13.559-11.67a13.658 13.658 0 0 0-13.559 11.67h25.561z"/>
  <path fill="#ed1c24" d="M78.573 151.908v19.24h14.78v-48.455h-14.78v19.91a8.242 8.242 0 0 0-1.445 4.652c0 1.714.535 3.318 1.445 4.653zm6.89-9.766a5.098 5.098 0 0 0-5.112 5.112c0 2.89 2.223 5.112 5.112 5.112 2.89 0 5.112-2.222 5.112-5.112a5.099 5.099 0 0 0-5.112-5.112zM117.247 142.444v-19.75h-14.78v48.455h14.78v-19.082a8.25 8.25 0 0 0 1.556-4.812 8.25 8.25 0 0 0-1.556-4.811zm-6.779-.302a5.099 5.099 0 0 0-5.112 5.112c0 2.89 2.223 5.112 5.112 5.112 2.89 0 5.112-2.222 5.112-5.112a5.098 5.098 0 0 0-5.112-5.112zM142.885 75.01l2.702-41.78h4.334l2.086 41.911a7.204 7.204 0 0 1 2.582 5.543 7.209 7.209 0 0 1-6.886 7.217c-5.058 5.866-13.917 13.998-27.121 18.9V86.352s12.223 1.66 19.567-5.315a7.205 7.205 0 0 1 2.736-6.027zm4.48 1.896c-2.112 0-3.89 1.778-3.89 3.89 0 2.111 1.778 3.889 3.89 3.889 2.111 0 3.89-1.778 3.89-3.89 0-2.111-1.667-3.889-3.89-3.889zM52.935 75.01l-2.702-41.78h-4.335l-1.976 41.822a7.204 7.204 0 0 0-2.69 5.632 7.21 7.21 0 0 0 6.886 7.217c5.058 5.866 13.917 13.998 27.12 18.9V86.352s-12.223 1.66-19.567-5.316a7.205 7.205 0 0 0-2.736-6.026zm-4.48 1.896c-2.111 0-3.89 1.778-3.89 3.89 0 2.111 1.779 3.889 3.89 3.889 2.112 0 3.89-1.778 3.89-3.89 0-2.111-1.778-3.889-3.89-3.889z"/>
  <path d="M53.455 18.227v12.225H43.343V18.227c-3.113 1.778-5.224 5.113-5.224 8.89a10.198 10.198 0 0 0 10.225 10.225 10.197 10.197 0 0 0 10.224-10.224c.111-3.778-2-7.113-5.113-8.891zM143.031 18.227v12.225h10.113V18.227c3.112 1.778 5.224 5.113 5.224 8.89a10.197 10.197 0 0 1-10.224 10.225 10.198 10.198 0 0 1-10.225-10.224c-.112-3.778 2-7.113 5.112-8.891zM76.242 83.183l.22-23.17c.11-5.89 2.444-11.335 6.667-15.447 4.223-4.112 9.78-6.335 15.67-6.224 5.89.112 11.335 2.445 15.447 6.668 4.112 4.223 6.335 9.78 6.224 15.67l-.284 22.186a29.23 29.23 0 0 1 7.508 19.602c0 16.204-13.136 29.34-29.34 29.34s-29.34-13.136-29.34-29.34a29.227 29.227 0 0 1 7.228-19.285zm36.462-6.312.209-16.302c0-3.89-1.445-7.557-4.112-10.335-2.667-2.779-6.335-4.335-10.225-4.335-3.89 0-7.557 1.445-10.335 4.112-2.779 2.667-4.335 6.335-4.335 10.224l-.238 16.828a29.205 29.205 0 0 1 14.686-3.935c5.213 0 10.108 1.36 14.35 3.743zm-21.796-7.967a3.223 3.223 0 1 0 0-6.445 3.223 3.223 0 0 0 0 6.445zm15.114 0a3.223 3.223 0 1 0 0-6.445 3.223 3.223 0 0 0 0 6.445z"/>
  <path fill="#ed1c24" d="m95.687 97.69-1.112 21.003h8.225l-1.667-21.115c2-1 3.333-3.001 3.333-5.446 0-3.334-2.778-6.113-6.112-6.113s-6.112 2.779-6.112 6.113c.111 2.556 1.445 4.556 3.445 5.557zM27.784 11.447c-3.001-4.445-7.225-7.001-11.67-7.001-4.556 0-8.668 2.444-11.78 6.89C1.556 15.449 0 20.894 0 26.562c0 5.667 1.556 11.114 4.334 15.225 3.001 4.445 7.224 6.89 11.67 6.89 4.445 0 8.668-2.444 11.78-6.89 2-2.89 3.334-6.334 3.89-10.113.111-.667.778-1.223 1.445-1.223l176.148.112c.778 0 1.445-.667 1.557-1.445V24.45c0-.778-.667-1.445-1.445-1.556h-5.334c-.778 0-1.445-.666-1.445-1.556V1.556c0-.778-.667-1.445-1.445-1.556h-22.227c-.778 0-1.445.667-1.556 1.445v19.782c0 .778-.667 1.445-1.556 1.445h-1.334c-.778 0-1.444-.667-1.444-1.555V6.003c0-.778-.667-1.445-1.445-1.556h-3.445c-.778 0-1.445.666-1.556 1.444v15.114c0 .778-.667 1.445-1.556 1.445H33.23a1.446 1.446 0 0 1-1.445-1.222c-.779-3.446-2-7.002-4.001-9.78zm-11.78 31.007c-5.335 0-9.892-7.335-9.892-15.892 0-8.558 4.557-15.893 10.003-15.893 5.445 0 9.89 7.335 9.89 15.893s-4.667 15.892-10.002 15.892z"/>
  <path d="M55.79 33.23c-.778-1.112-1.556-1.668-2.334-2.779H43.343V18.226c-3.113 1.778-5.224 5.113-5.224 8.89a10.198 10.198 0 0 0 10.225 10.225c3.111 0 5.89-1.445 7.78-3.557 0-.22-.223-.332-.334-.554zM140.808 33.23c.778-1.112 1-1.668 1.778-2.779h10.668V18.226c3.113 1.778 5.224 5.113 5.224 8.89a10.197 10.197 0 0 1-10.224 10.225c-3.112 0-5.89-1.445-7.78-3.557.001-.22.112-.332.334-.554zM166.147 163.147c2.89 0 5.224-.888 6.89-2.556 1.778-1.667 2.556-3.89 2.556-6.668h14.559l.111.333c.111 6-2.111 11.113-6.78 15.225-4.667 4.112-10.558 6.112-17.448 6.112-8.89 0-15.78-2.777-20.67-8.446-4.78-5.667-7.225-12.891-7.225-21.783v-1.666c0-8.78 2.446-16.003 7.446-21.783 5.001-5.667 12.003-8.557 21.227-8.557 4.779 0 9.113.667 13.003 2.11 3.779 1.446 7.001 3.446 9.557 6.114l.223 16.003h-13.114l-2.667-9.335a9.747 9.747 0 0 0-3-1.778c-1.223-.445-2.557-.667-4-.667-4.558 0-7.78 1.667-9.67 5.001-1.89 3.334-2.778 7.557-2.778 12.78v1.667c0 5.335.889 9.67 2.556 12.892 1.889 3.336 4.89 5.002 9.224 5.002zm59.013 12.336c-8.668 0-15.559-2.778-20.67-8.335-5.113-5.557-7.78-12.558-7.78-21.116v-2.222c0-8.891 2.445-16.226 7.335-22.005 4.89-5.778 11.448-8.558 19.671-8.558 8.113 0 14.336 2.445 18.782 7.336 4.445 4.89 6.668 11.447 6.668 19.782v8.78H213.49l-.11.332c.333 4 1.667 7.224 4 9.78 2.335 2.557 5.557 3.779 9.558 3.779 3.556 0 6.556-.333 8.89-1.111 2.335-.667 4.89-1.89 7.78-3.445l4.335 10.001c-2.446 2.002-5.668 3.557-9.558 4.891-4.002 1.444-8.337 2.111-13.226 2.111zm-1.444-49.566c-3.001 0-5.335 1.11-7.113 3.445-1.779 2.334-2.779 5.334-3.224 9.002l.112.223h19.893v-1.445c0-3.446-.778-6.113-2.444-8.224-1.556-2.001-3.89-3.001-7.224-3.001zm34.896 38.786 7.78-1.667v-37.12l-8.558-1.666v-9.78h23.561l.667 8.78c1.445-3.112 3.223-5.557 5.445-7.223 2.223-1.779 4.78-2.557 7.669-2.557.889 0 1.778.111 2.667.222.888.112 1.667.333 2.334.445v12.224l-4.78.111c-4.223 0-8.001 1.556-9.335 2.446-1.444 1-2.778 3.334-3.667 5.001v29.117l7.78 1.667v9.669H258.5v-9.67zm74.016-64.792v14.226h10.558v12.224h-10.558v30.006c0 2.335.444 4.001 1.445 5.003 1 1 2.222 1.444 3.89 1.444 1.11 0 2.11 0 2.888-.11.78-.112 1.78-.223 2.779-.445l1.334 11.669c-1.778.555-3.556 1-5.335 1.222-1.778.223-3.667.444-5.778.444-5.558 0-9.891-1.555-12.892-4.556-3.001-3.112-4.556-7.89-4.556-14.558v-30.007h-8.78V114.25h8.78V99.912h16.225z"/>
  <path fill="#ed1c24" d="M407.644 146.144c0 8.89-2 16.004-6 21.449-4.002 5.335-9.78 8.001-17.227 8.001-3.557 0-6.558-.778-9.113-2.222-2.557-1.445-4.78-3.556-6.558-6.335l-1.11 7.336h-13.893V99.468l-8.557-1.667v-9.78h24.671v32.785c1.779-2.445 3.78-4.223 6.224-5.557 2.445-1.334 5.223-1.89 8.335-1.89 7.557 0 13.336 2.89 17.338 8.558 4 5.78 6 13.336 6 22.894v1.334h-.11zm-16.115-1.223c0-5.778-.888-10.447-2.556-13.89-1.667-3.446-4.668-5.113-8.78-5.113-2.556 0-4.667.555-6.334 1.556-1.778 1-3.112 2.556-4.112 4.556v25.227c1 1.89 2.334 3.223 4.112 4.224 1.778 1 3.89 1.445 6.446 1.445 4.112 0 7.113-1.445 8.779-4.445 1.667-2.89 2.445-7.113 2.445-12.447zm22.894-1c0-8.891 2.445-16.226 7.446-21.894 5.001-5.667 11.891-8.558 20.671-8.558 8.89 0 15.781 2.89 20.782 8.558 5.002 5.668 7.446 13.003 7.446 22.005v1.11c0 9.003-2.445 16.338-7.446 22.006-5 5.668-11.891 8.446-20.67 8.446-8.892 0-15.782-2.777-20.783-8.446-5.001-5.667-7.446-13.003-7.446-22.005zm16.115 1.11c0 5.447 1 9.78 2.89 13.115 1.89 3.334 5 5.001 9.335 5.001 4.112 0 7.224-1.666 9.113-5 1.89-3.335 2.89-7.67 2.89-13.115v-1.111c0-5.335-1-9.67-2.89-13.004-2-3.333-5.001-5.001-9.224-5.001-4.224 0-7.224 1.667-9.224 5.001-1.889 3.334-2.89 7.67-2.89 13.004v1.11zm69.126-45.12v14.67h10.558v11.336h-10.558v30.45c0 2.335.445 4.001 1.445 5.003 1 1 2.223 1.444 3.89 1.444 1.11 0 2.111 0 2.89-.11.777-.112 1.777-.223 2.777-.445L512 173.928c-1.778.555-3.556 1-5.334 1.222-1.779.223-3.668.444-5.78.444-5.556 0-9.89-1.555-12.89-4.556-3.001-3.112-4.558-7.89-4.558-14.558v-30.562h-8.779v-11.336h8.78v-14.67h16.225z"/>
</svg>
