<svg xmlns="http://www.w3.org/2000/svg" viewBox="0 0 511.376 172.824">
  <defs>
    <radialGradient id="a" cx="126.811" cy="29.646" r="136.707" fx="126.811" fy="29.646" gradientTransform="scale(1.19616 .836)" gradientUnits="userSpaceOnUse">
      <stop offset="0%" stop-color="#FFF"/>
      <stop offset="100%" stop-color="#AB710A"/>
    </radialGradient>
    <radialGradient id="b" cx="112.892" cy="79.115" r="95.56" fx="112.892" fy="79.115" gradientTransform="scale(1.61087 .62078)" gradientUnits="userSpaceOnUse">
      <stop offset="0%" stop-color="#D5D5D5"/>
      <stop offset="100%" stop-color="#141006"/>
    </radialGradient>
  </defs>
  <path fill="#ab710a" d="M60.337 113.992c1.414.688 2.964 1.225 4.576 1.65-.132 7.538.326 18.77 3.314 29.028H48.095c1.105-12.078 8.881-25.41 12.242-30.678zm75.424-25.275c3.38 10.71 4.964 37.526 11.634 55.953h-25.326c.497-3.858-2.137-7.74-1.271-11.632 2.076-9.33 5.203-18.738 9.35-28.108.086.135 5.528-16.344 5.613-16.213z"/>
  <path fill="#e3a835" d="M202.21 41.543c-5.763-8.24-18.901-15.052-21.968-24.402-.783-2.39-.918-7.299.598-9.593 1.37-2.072-.879-1.58-.879-1.58-3.267 1.265-4.68-2.345-4.68-2.345-.491-1.266.173-5.112-2.638-3.004-5.079 3.808-3.404 13.05-2.456 16.832.658 2.907 3.668 11.086 9.652 16.92 1.568 1.53 11.95 12.862 10.535 18.68-.058.233-.247 3.639-3.511 4.292-7.515 1.503-9.958-7.703-9.958-7.703-5.636-24.048-14.726-32.453-14.726-32.453-16.681-.635-29.042.91-43.976 3.787-56.252-2.105-98.58 15.175-98.58 15.175C7.243 53.901.003 86.837.003 86.837s-.033.156.108.18c.283.047.433-.207.433-.207C8.29 77.115 16.21 70.997 16.21 70.997c-1.173 45.796 9.204 73.674 9.204 73.674H45.06c1.384-16.496 14.355-34.753 14.355-34.753 7.303 5.538 23.799 3.903 23.799 3.903 2.898 11.08 8.815 30.85 8.815 30.85h23.673c2.153-17.09 7.619-32.236 12.879-43.596 0 0 5.865-13.296 6.054-17.242.375-6.95 6.951-9.018 10.521-9.018 3.569 0 19.796 9.067 31.939 8.454 21.132-1.063 29.47-10.84 29.872-21.981.278-7.687-1.523-15.124-4.756-19.745zm-67.893 23.62a3.643 3.643 0 0 1-.44.88 2.428 2.428 0 0 1-.831.765c-.36.203-.8.283-1.197.263-.4-.018-.76-.116-1.087-.239-1.289-.531-2.2-1.354-3.077-2.16a29.876 29.876 0 0 1-1.242-1.245c-.393-.41-.798-.847-1.144-1.197-.55-.513-1.464-.94-2.425-1.282a36.439 36.439 0 0 0-3.103-.89c-1.085-.276-2.187-.536-3.386-.926-.302-.102-.609-.22-.941-.368a7.606 7.606 0 0 1-.518-.262 3.994 3.994 0 0 1-.617-.437 4.083 4.083 0 0 1-.92-1.15 4.994 4.994 0 0 1-.453-1.214c-.179-.78-.192-1.488-.168-2.154.03-.666.107-1.296.218-1.905.228-1.218.535-2.369.9-3.488a46.36 46.36 0 0 1 1.196-3.284c.219-.542.429-1.058.673-1.61.252-.568.534-1.116.842-1.648 1.248-2.124 2.926-3.91 4.809-5.331.945-.71 1.938-1.34 2.97-1.873 1.033-.537 2.105-.993 3.213-1.303a29.939 29.939 0 0 0-5.042 4.43c-1.465 1.628-2.698 3.414-3.535 5.327-.212.475-.398.96-.555 1.45l-.505 1.58c-.322 1.067-.647 2.126-.92 3.184-.27 1.055-.528 2.107-.673 3.127a12.76 12.76 0 0 0-.148 1.474c-.015.464.016.904.1 1.227.077.334.18.49.257.558.02.018.044.037.075.056.1.057.133.072.237.123.185.089.409.174.641.26.943.354 2.046.647 3.14.99 1.1.35 2.232.71 3.36 1.225 1.121.518 2.301 1.125 3.3 2.29.406.5.712.947 1.049 1.404.33.453.66.891.992 1.32.332.428.678.835 1.03 1.21.353.377.727.716 1.099.953.38.242.699.345.997.277.316-.06.678-.404.961-.831.286-.43.522-.935.725-1.455.214-.52.382-1.063.557-1.612.027 1.147-.005 2.31-.414 3.492zm20.916-14.59c-.806 1.228-2.758 1.37-4.359.318-1.6-1.052-2.243-2.901-1.437-4.128.807-1.228 2.758-1.369 4.358-.317 1.602 1.051 2.246 2.899 1.438 4.127z"/>
  <path fill="url(#a)" d="M202.215 42.269c-5.764-8.24-18.902-15.052-21.968-24.402-.784-2.39-.918-7.299.597-9.593 1.37-2.073-.879-1.58-.879-1.58-3.267 1.265-4.68-2.345-4.68-2.345-.491-1.266.173-5.112-2.637-3.004-5.08 3.808-3.405 13.05-2.457 16.832.659 2.907 3.669 11.086 9.652 16.92 1.569 1.53 11.95 12.862 10.536 18.68-.059.233-.248 3.638-3.512 4.291-7.515 1.504-9.958-7.702-9.958-7.702-5.635-24.049-14.725-32.453-14.725-32.453-16.682-.636-29.042.91-43.976 3.787-56.253-2.106-98.58 15.175-98.58 15.175C7.248 54.627.008 87.563.008 87.563s-.033.156.107.18c.284.047.434-.207.434-.207 7.745-9.695 15.665-15.813 15.665-15.813-1.173 45.796 9.205 73.674 9.205 73.674h19.645c1.383-16.496 14.354-34.753 14.354-34.753 7.303 5.538 23.8 3.903 23.8 3.903 2.897 11.08 8.815 30.85 8.815 30.85h23.673c2.152-17.09 7.618-32.236 12.878-43.596 0 0 5.866-13.296 6.055-17.242.375-6.95 6.95-9.018 10.52-9.018 3.57 0 19.796 9.067 31.939 8.454 21.132-1.063 29.47-10.84 29.873-21.981.278-7.687-1.524-15.124-4.756-19.745zm-67.893 23.62a3.643 3.643 0 0 1-.44.88 2.428 2.428 0 0 1-.832.764c-.36.203-.8.283-1.196.264-.4-.018-.76-.116-1.088-.24-1.288-.53-2.2-1.353-3.077-2.16a29.876 29.876 0 0 1-1.242-1.245c-.392-.41-.797-.846-1.144-1.196-.55-.513-1.463-.94-2.425-1.282a36.439 36.439 0 0 0-3.102-.89c-1.086-.276-2.188-.536-3.387-.926-.302-.102-.608-.22-.94-.368a7.606 7.606 0 0 1-.519-.263 3.994 3.994 0 0 1-.616-.436 4.083 4.083 0 0 1-.92-1.15 4.994 4.994 0 0 1-.454-1.214c-.178-.781-.192-1.488-.168-2.154.03-.666.107-1.296.218-1.905.228-1.219.536-2.369.9-3.489a46.36 46.36 0 0 1 1.197-3.283c.218-.542.428-1.058.672-1.611.253-.567.535-1.115.843-1.647 1.248-2.124 2.926-3.91 4.808-5.331.945-.71 1.938-1.34 2.97-1.873 1.034-.537 2.106-.993 3.213-1.303a29.939 29.939 0 0 0-5.041 4.43c-1.466 1.628-2.699 3.414-3.536 5.327-.212.474-.397.96-.555 1.45l-.504 1.58c-.322 1.067-.647 2.126-.92 3.184-.271 1.055-.528 2.107-.674 3.126a12.76 12.76 0 0 0-.148 1.475c-.015.464.017.903.1 1.226.077.335.18.492.257.559.021.018.045.037.075.056.1.057.133.072.237.123.186.089.41.174.642.26.943.354 2.045.646 3.14.99 1.1.35 2.231.71 3.36 1.225 1.12.518 2.3 1.125 3.3 2.29.405.5.711.947 1.048 1.404.331.453.661.891.992 1.32.332.428.679.835 1.031 1.21.352.377.726.716 1.098.953.38.241.7.345.997.277.316-.06.679-.404.962-.831.285-.43.521-.936.725-1.455.213-.52.381-1.064.556-1.612.027 1.147-.005 2.31-.413 3.492zm20.916-14.59c-.806 1.228-2.759 1.37-4.36.318-1.6-1.052-2.242-2.901-1.437-4.128.807-1.228 2.759-1.369 4.358-.317 1.603 1.05 2.246 2.899 1.439 4.127z" opacity=".45" style="fill:url(#a)" transform="translate(-.004 -.726)"/>
  <path fill="url(#b)" d="M483.325 76.39c-9.524 0-18.275 5.405-22.522 10.295l-10.295-8.88h-4.892v14.943A35.283 35.283 0 0 0 415.76 76.39c-12.532 0-23.504 6.482-29.724 16.293l-.013-34.992-17.9-15.526h-4.878v35.64h-13.503l-15.96 31.403-16.084-31.403h-24.195l5.272 10.376c-6.142-7.204-15.491-11.791-26.12-11.791-22.135 0-37.064 15.83-37.064 35.263 0 2.133.188 4.222.54 6.252-4.915 2.34-9.843 5.05-18.9 5.05-11.154 0-17.97-8.211-17.97-18.123 0-9.761 6.816-18.281 17.97-18.281 10.379 0 15.026 4.183 21.068 6.196v-22.77c-6.97-4.648-13.165-7.283-23.544-7.283-2.015 0-3.98.128-5.898.35-.558 7.133-5.01 21.554-31.662 22.895-.424.021-.86.033-1.3.033-.327 0-.658-.016-.989-.027-2.872 5.685-4.455 12.096-4.455 18.885 0 23.08 18.432 42.135 44.304 42.135 10.379 0 16.575-2.79 23.546-7.59v-14.037c5.238 12.38 17.87 21.06 36.026 21.06 11.843 0 22.91-5.276 29.216-12.099l-8.622-9.907c-4.118 3.474-9.138 5.662-15.959 5.662-12.609 0-20.333-6.436-19.687-15.572h46.585c.796-4.528.633-8.916-.325-13.006l16.024 31.536-20.59 40.538h23.55l38.727-76.021v47.452h22.812l-.006-14.855c6.222 9.8 17.186 16.271 29.708 16.271 12.56 0 23.607-6.51 29.855-16.356v14.94h22.91v-43.496c2.573-4.505 6.05-7.467 11.71-7.467 5.663 0 8.237 3.477 8.237 14.029v36.934h22.908v-43.24c0-13.125-7.98-25.351-28.056-25.351zm-223.15 24.708c2.444-6.692 7.722-10.295 12.354-10.295 6.947 0 10.939 4.375 10.939 10.295zm155.586 28.697c-6.046 0-11.196-8.235-11.196-18.398 0-10.17 5.15-18.405 11.196-18.405 6.18 0 11.327 8.234 11.327 18.405 0 10.163-5.149 18.398-11.327 18.398z" style="fill:url(#b)" transform="translate(-.004 -.726)"/>
</svg>
