<svg xmlns="http://www.w3.org/2000/svg" viewBox="0 0 255.959 117.801">
  <path fill="#ed8a8a" d="m17.153 92.901-4.371-2.908-1.816-2.623-4.576-6.314-.67-1.987-1.275-2.976-2.489-8.225-.875-4.683-.266-1.914-.538-1.7v-2.489L0 55.173V44.465l1.548-12.058.806-1.7.404-3.121L4.17 24.11l.539-2.197 1.278-2.77 1.077-1.915 1.546-3.261 2.894-3.62.737-1.065 2.622-2.765 1.546-1.065 3.16-2.621 2.35-.712 3.9-1.346h3.63L31.684 0l2.489 1.064 3.632.497 2.623 1.135 1.142.424.942.922v2.482l-1.48 3.122-.47 2.34-1.214 2.55-.272 1.846-1.008 1.417-.743 1.138h-.804l-3.496-1.846-3.23-.42-2.421.85-1.48.425-1.009 1.702-1.884.71-.806 2.2-1.549 1.062-.403 2.553-1.548 1.628-1.48 6.241-1.075 3.262-.271 3.615-.201.778-.538 7.158v9.64l.742 3.262.267 2.483.266.85 1.075 3.83 1.613 3.471 4.173 5.53 2.15 1.065 3.63.425 6.39-3.333h1.429l2.017 3.543 1.009 2.908 1.75 2.55.335 1.136.875 2.268-.47 1.06-1.212.784-2.421 2.268-2.355 1.275-3.43.711-2.222 1.132-2.355-.497-2.018.568-3.968-.711-5.248-2.197zm12.85 1.56 1.815-.78 3.7-.57 2.623-1.56 2.286-1.992 1.009-.85v-.85l-1.014-2.197-.271-.783-1.48-2.488-.942-2.699-1.413-2.406-2.018.497-1.213 1.27.538.562h1.274l1.68 1.347 1.008 2.125 1.209.85.266.921-.471.569-.809-.569-.266-.568-1.08-.783.337-.569-.537.287-1.547-.86v-1.347l-.737.359-.61-.64h-.265V79.6h-1.813l-1.546.568h-3.901l-1.808-.624-1.95-1.347-3.298-4.608-1.817-3.83-1.547-4.684-.537-1.419v-2.411l-.476-1.562-.338-2.908-.272-1.07v-6.563l.543-1.63v-5.815l.804-2.481v-2.413l.753-2.48.271-1.137.81-2.48 1.008-3.759 1.275-1.418.404-2.483 1.613-1.132L22.13 20H21.12l-.809.43.538.922-.272.282H19.57l-.338 1.064-3.096-2.411-1.008-1.132-4.71-3.83.537-.568-.405-.706 2.222-.497 2.422 2.058h.679v-.425l-2.555-1.843v-1.28l1.009-1.131h.537l1.009 1.412 1.884 1.915 4.777 3.405-.404 1.277v.635l1.882-.924.673-.783-1.746-.922-1.812-1.915-1.275-1.065-.804-.85-1.27-.778-1.075-.85-1.546-1.136.271-.214v-.567l.271-.567-.266-.568h1.751l2.15 1.915.743.568 1.347 1.131 1.546 1.063.742.78 2.422 1.418.404.425-1.884 1.347 2.827-.497 1.679-1.418-2.555-.425-.737-.78-1.613-1.419-2.826-2.975-.405-.783-.942-.355-.742-.778-.538.281h-.404l.404-.85-1.008-1.064-3.63 2.34-1.618 2.554-2.627 3.047-4.465 9.078-.2 1.063-.804 2.483-.27 1.418-.67 1.42-.339 1.843-.538 2.202-.274 2.197-.672 2.762-.406 5.752-.471 1.632.266 1.702v7.66l.606 2.125 1.682 1.49.804.212.538.57 2.084 1.91 1.008 1.131 1.075.568 2.35 1.915.472.282.266.286 2.621 2.197.4 1.203 1.679 1.772v1.208l-1.48-.568-.338-.64-1.08-.569v-1.065h-.737v-.286l-1.546-.569-2.893-2.98h-.272v-.281h-.788L6.25 63.667l-.807-.215-.205-.287-1.618-1.137h-.332l-.671-1.06-.538-.563-.537-1.633.266-.287-.266-.281-.405.85 1.075 3.4.676.706v.281h-.532v.21l1.48.354.336.778 1.077.563 1.009 1.065 1.815 1.132.537.496.54.282 1.546 1.418 2.826 1.992 1.209 1.91 5.852 4.894 1.812 1.915 1.613.563.2.215 1.075.287 1.208.635-.604.635 4.101 3.405.604-.635.943.635.537.281v.569l-1.08-.573h-.271l1.078 1.136h1.277l4.507 3.548H36.25l-.268.282-1.076.568h-.737l-1.816-1.986V89.6l-1.075-.358-1.009-1.137-.809-.492-1.076-1.136h-.47l-.538-.563-.804-.284-.874-.924-1.95-1.275-1.076-1.065-1.009-.563-1.208-1.203-1.142-.425-1.341-.922-1.613-2.268-1.214-.635-.266-.282-.537-.286-.543-.569h-.2l-.804-.773-.809-.287-1.274-1.418-.81-.496v-.559l.543-.568-.604-.357-.942.354-1.546-1.06-.266-.285-.81-.568-1.546-1.632-.809-.282-.537-.567v-1.918l-.737-.85v2.203l.936 3.047 3.497 2.765 2.555 1.351.604 1.275.74.353 4.906 4.404.809.85 1.28.85 1.613 1.346 4.439 3.553.204.282 2.084 1.628.538.568 2.621 1.918 1.547 1.414.809.497v.568l-.538.284-.876.64-1.21-.635-2.354-2.483-1.341-.707-1.751-1.485-1.075-.568v-.773l-.538.281-1.818-1.136-1.277-1.065-2.356-1.7-2.894-2.975-1.546-1.136-.272-.492-2.217-1.203-1.145-1.849h-.471L6.267 74.19h-.471l-.338-1.418-.74-.783.27-.282-1.347-1.771v.496l1.076 2.908 1.075 3.472 1.278 1.771v-1.131h.47l4.709 3.614 1.817 1.915 1.613 1.07.2.282 2.621 1.915 1.813 1.633 6.589 5.177-1.347.424-1.346-.353h-.737v-.287h-.534l-1.616-.43-.47-.921-1.008-.569-2.356-1.914v-.855h-.807l-.809-.498-.468-1.136h-.27l-1.008-.712-.538-1.208-.676.711-.942-.996-1.009-.85-.271-.206-.809-.43-.737-1.276-1.08-1.065-.272-.855-.271-.282v1.137l.404 1.131 1.48 1.844 2.084 3.194 2.283 1.562.272-.568 1.075 1.065.537.281 2.827 1.987v.712l-1.014-.779-1.818-.921v.353l.743.845 3.159 1.633 4.638 1.628h5.791zM13.318 63.966l-.27-.283h-1.143l-4.372-3.547-1.01-1.135-1.076-.498-.737-.85-2.422-1.842-.604-1.207.404-.783.272-.85.537.282h.942l1.614 1.346v.287h-.2v.845h1.008l.539-.282-.405.778 4.576 3.897 1.007 1.131 1.075.497.27.568 1.01 1.137-.673.281.676 1.065-.267.282-1.075-.783.333-.354zm-1.346-11.559-.605.354-.942-.354-.538-.497-1.546-1.133-.27-.568-1.21-.568.47-.497v-.284l-.604.284-1.275-.85h-.2v-1.065h1.01l.27.568h.272l1.009.71v-.999L5.53 46.305l-.266.635h-.271l-.267.281h-.758l-.807-1.418-.539-.215v-.563l-.67-1.065.742-1.562 4.106 3.19.537.497 3.364 2.764 1.818 1.915-1.48.282.942.568 1.076 1.065v.569l-.267.287-.271.565-.538-.565V52.4zm-.47 5.53-.537-.283-1.817-1.346-.54-.284v-.85l-.401.43-2.96-2.34-2.62-2.765v-.784l.675-.353-.942-1.065 1.213-.354L8.89 52.41l.271.284 2.355 1.843v.357l-1.884-1.137v.639l2.893 2.414v2.196l-1.009-1.064zm-1.077-10.423-.807-.852-.739-.281v-.286L7.803 45.6l-3.364-2.767-1.816-1.913.27-.286.266-.566.332-.353-.47-.995h.875l.809.782 1.008.568 3.43 2.765.738.568.538.497 2.355 1.984v1.066l-.271.852v1.628l-1.547-1.628-.542-.282zm-5.179-1.276v-.782l-2.355-1.489.672 1.419 1.685.852zm3.902-4.256-3.162-2.765-1.009-1.065-1.614-.848v-.783H3.9l.27.283h.673l1.413 1.065 1.546 1.134 2.289 1.916h.605v-.64l-2.624-1.844-3.364-3.615h.27l2.824 2.198.807.285v-.427l-3.902-3.19V31.84l6.797 5.18h.739v-.568l-2.355-1.845-3.363-3.333-.74-.353-.337-.995-.672-.783 1.077-.354-.606-1.346h.471l1.076.778 2.287 1.49 2.623 2.411 2.626 2.125v2.268l-.737.779-.809.281.266.563.272.85.271.497v1.131l-.266.282-.538 1.065-.338.353.876 1.275-.538 1.132-2.084-1.137-1.546-1.633zm-4.979 8.51v-.496h-.537l.537.492zm.269-9.573h.27v-.568H4.17l.27.568zm1.279.78h.269v-.284h-.54zm4.978-12.056-.809-.568-.266-.283-3.63-2.552v-.712l1.08-.357v-.78l-.266-.565h1.009l.809.851 1.213.64.604 1.274h.543l1.546 1.135.272.284 2.626 2.057v.638l-.809.855v1.562l-1.551-.993-2.35-2.479zM6.795 42.548h.271v-.282H6.53l.27.282zm7.536-14.536-1.28-1.134h-.538V25.53l-.671.354-1.146-1.206v-.568h-.81l-.737-.778-.269-1.136-.942.639-.404-1.424.806-.85h.27v-1.06l6.93 5.602 1.412 1.489-.27.57.403.849-.94.492v.568l-.27.281-.335-.783-1.209-.568zM8.61 44.18h.404l-.672-1.063h-.806v.708l1.075.356zm8.074-18.933-.538-.569-3.901-2.764-1.547-1.632-.271-.568-1.075-.354-.47-.993 1.003-.568v-1.062l-.271-.568h.804l1.546 1.63 1.347.85 3.632 2.98 2.218 2.34-1.546 1.703-.405-.425h-.537zM9.62 28.224l.538-.213h.268v-.287l-.537-.281-.471.563.202.21zm1.077 22.554.537-.287-1.612-1.205v.78l1.076.711zm-.808-5.18h.27v-.284l-.267.285zm1.616.782v-.569h-.81l-.27.283h.54l.538.286zm.2-4.682h.269l-.47-.497h-.809l1.009.497zm.269-1.347h.27v-.281h-.27v.286zm.27-4.393h.268l-.268-.281v.286zm.268 19.502v.282l-.268-.282zm.27 3.543h.267l.54.574v.281h-.27l-.537-.563v-.281zm23.206-41.487h.807l.674-.71 2.022-5.248.405-1.986 1.55-3.332V5.105L38.893 3.26l-4.173-1.136-2.555-.85-.875.567h-4.173l-2.621.565L19.85 4.04l-1.613 1.702v.212h1.818L22.21 7.09l5.437 4.68 1.816 1.35 2.086 2.198-.269.283 2.825.566 1.884 1.347zm-16.413 1.419h.27l-.27-.287zM34.44 15.6l-1.615-1.348.538-.287v-.285h-.538l-.336.43-2.555-2.693-.742.353-.806-.85-.201-.778h-.808L25.293 8.3l.809-.353-1.079-.354V5.745l-1.008-.563h-2.086l1.01-.574v-.922l1.076.354.203.568h1.075v.852h.809l2.285 1.915.807.566 1.275 1.346 3.497 2.55.942.993.404.85h.804l.748 1.567-1.144 1.204-.268-.282zM22.4 91.198h.538l-.538-.282v.283zm2.893-84.39h.537v-.567l-.537.567zm1.547 75.88.266.283h-.266l-.27-.284h.27zm3.43-75.597-.268-.283.269-.285-1.347-.281v-.287l.944-.491-.675-.282-.537-.563-.337.778-1.48-1.06v-.292l1.076.568.271-.285.471-.284-.266-.496-.67.353-.871-1.208h1.817l3.43 2.764.272.492h.471v.712l-1.275-.712h-.542v.287l1.213 1.346.338-.778.271.282-.47.85h-1.757l-.336-.85zm6.996 82.475-1.546-1.701-1.279-.63-1.884-2.345v-1.418l-.471-.492-.538-.281-.539-.563v1.141h-1.006l-1.549-1.633 1.616-1.06 2.017 1.557.739.568.538.573.54.205.537.574 1.951 1.418h.6l.875 1.843 1.746.855v.85l-1.546.85v-.707l-.81.425zm-1.68-77.51-.406-.852 1.08-.354v-.993h-.537v.78h-.405l-.404-.78h-1.276V8.724l-.269-.285-.27.287h-1.278l.268-.282h.47l.472-.916 1.413.497-.27-.64h.538l1.01 1.065v.993l.806-.425 1.277 1.136v.216h-.266v.286h1.344v1.121l-.807.78h-.808l-.47-.497h-1.209zm1.95-4.397h-.27l-.27.282h-.742l-.537-1.137-1.209-.635-.542-1.065-.61.353v-.563l-1.008-1.142h-.272v-.491l.338-.358-.47-.994 2.953 1.065 1.624 1.634.471.851.54.283.266.212 1.482.64.402 1.705-.469.988h-.875l-.804-.855v-.778zm-3.633-.568h-.539v-.287l.54.282zm-.539 77.511.27-.286v-.282l-.27.282zM37.537 4.04v-.287h1.345l.742.856.268.566.674.994-1.482-.71L37.54 4.04z"/>
  <path fill="#a7d5a8" d="m50.787 95.524-1.01-1.063v-4.682l-.402-1.772.47-2.058-.403-4.188.538-4.967-.605-2.411.402-2.135-.402-4.183.605-4.68-.605-2.626.402-1.915-.335-4.398.538-4.895-.605-2.34.402-2.196-.402-4.184.605-4.684-.605-2.412.402-2.125-.335-4.326.538-4.966-.605-2.345.402-2.197-.402-4.183.605-4.68-.605-2.483.402-2.201V1.562l.741-.853 12.04-.425 1.616.85.47 1.49v4.68l.269 1.703-.269 1.346v10.43l.269 1.986-.269 1.28v10.496l.269 1.772-.538 2.201.605 2.345h17.086l.337-10-.337-1.417.337-12.058-.337-1.7.337-11.842L82 1.93l.606-.64.804-.282 1.684-.717 10.427.425 1.21.855.471 1.347v90.7l-.61 1.916h-2.756l-6.661.281-3.834-.287-1.009-1.06V85.1l-.27-1.275.336-12.052-.336-1.7.338-12.698-.538-.563h-17.22v4.89l.268 1.705-.267 1.346v10.424l.269 1.987-.266 1.347v10.424l.271 1.843-.266 1.208-.333 3.195-2.284.64h-4.178l-1.816-.281h-5.255zm6.728-.637.873-.426-1.345-.283-.202-.282h-1.077l-.805-.287H53.95v-.844h-.804l-.737-.354v-1.843l.476-.281-.737-1.065v-.564h.47l2.156 1.915.471.287 1.48 1.137-.404.783.875-.43 2.289 2.13h3.63l.404-.497-.542-2.13 1.008-1.556-.4-1.915v-7.665l-.67-2.196 1.075-1.91-.4-1.915v-7.444l-.537-2.412.87-1.915-.332-1.7v-5.53h7.87l4.172-.28 7.199.286.604 2.76v10.424l-.404 1.28.404 2.053v10.138l-.404 1.28.404 2.058v7.941l.405.855h10.024l1.547.215.537-.215v-1.7l.471-2.406-.604-2.622.405-1.274v-5.182l-.333-1.705.47-2.478-.47-3.047.338-1.352v-4.89l-.272-1.842.405-2.699-.471-2.977.338-1.28v-4.68l-.338-1.771.537-2.908-.609-2.483.405-1.629V40.6l-.272-1.773.405-2.764-.471-2.903.333-1.347v-4.966l-.333-1.634.47-2.55-.47-2.98.338-1.346V13.37l-.338-1.777.537-2.765-.537-2.621.338-1.347V2.915l-.333-1.065-7.532-.353-4.915.566-.338.353.338 1.561v10.496l-.47.922.47 2.342v10.209l-.404 1.204.404 2.057v10.21l-.404.424-8.07.425-1.955-.353h-9.165l-.266-2.197-.538-2.053.876-1.915-.333-1.771v-7.731l-.538-2.059.87-1.91-.337-2.052v-7.957l-.743-1.56-.271 1.56h-.538l-3.901-3.049-2.09-1.915-4.167-3.403v-.426h.538l.271.282.205-.85h1.341l2.09 1.06 2.083 1.7.738.497 3.159 2.478v1.137l.537.563 1.142-1.7-.4-1.915-.27-4.68-.538-.568-2.827.282H51.33l-.539.569V4.74l1.076.353 1.28 1.065.803.564 1.547 1.413 2.887 2.196.267.215 2.826 2.478.271 1.137.942.922-.47.496.332 1.06-.67.353-1.818-1.418-.405-.85-1.28-.712v-.425l-1.075-.358v-.497h-.471l-.266-.215-.538-.286-3.63-3.052-1.413-2.908.333-.64-.338-.353-.666 1.351.676 2.837h.606l.538.568.537.282.2.21 3.43 2.765 1.01 1.131 1.208.568 2.69 2.417.538.287.471.993-1.95-1.418.47.993 1.275.993v.924l.272.566v1.065h-.538l-1.546-1.63.404-.856-1.343.425-.873-.921-1.48-1.203-.332-.712-1.209-.425-1.142-1.275-.537-.287v-.768l.271-.281h-.537l-.272.281h-.404l-.338-.85-.266-.286-.272-.497-.804-.85-.277 1.636v3.328l.402 1.203-.81 2.627.405 1.912v10.232l-.404 1.347.404 2.199v10.143l-.404 1.418.404 1.912v10.142l-.404 1.347.672 3.615.271.281-.537.564v7.946l-.405 1.346.405 2.197.266 1.981 1.075.497-.268.568-.807-.568-.271 1.915v5.535l-.405 1.346.405 2.197.269 3.333.537.568h.538l-.81-.855h.943l.404.85h2.289l2.555.425zm-4.64-60.634v-.284l-1.011-.568.27-.566-.671-.995.401-.353v-.284l.27-.282 1.009 1.133 1.076.569.54.778v.285l-.81-.426v.426l1.011.709.335-.923 1.01 1.065v.284h.265v1.628h-1.08l-1.009-.569-1.612-1.633zm6.792 54.675-7.13-6.03-.405-.846-.67-.996.739-.709.873.426-.399-.925h.205l2.089 1.634.809.57.809.846h-.267l-1.345-.847v.423l1.884 1.42v-.711h.202l.27.281 1.345.783.338.78-1.275-.71 1.008 1.563h.804l-.404-.784h.271l1.075.784.538.848h.476l1.347 1.352v.568l-.267.282-.266.85.538.783v.783l-1.613-1.274L59.7 88.94zM56.305 61.2l-.808-.565L54.22 59.5l-1.076-.502-1.547-1.705v-.496h.673l-.74-2.484h.74l2.49 2.197 2.286 1.915 1.884 1.633.471.282 1.075 1.131v.497l-.807-.287-1.413-1.49-1.95-1.208-1.081-1.137h-.471v.569l.737.563 2.826 2.626-1.08.569-.942-.994zm2.825-36.874-1.01-1.065-1.546-.85-.27-.284-1.076-.782-.268-.281-.741-.567-2.489-2.622.471-.496-.605-.993V14.47l4.71 3.83 1.008 1.346h-.47l-1.615-1.633h-.471l.2.568 6.051 5.176 1.275 1.137-.537.568.266.569v.496h-.538l-1.28-1.346-1.075-.85zm-7.534-4.113v-.427l1.278.712v.566l-.201.281-.272-.565-.805-.567zm7.804 9.431v-.354l.671-.712-.94-.92h-.743l1.009 1.066-.338.348-1.214-.64-.537-.497-.743-.568-1.48-1.49-1.146-.425-2.356-2.483v-.778l1.275.993V21.84l1.076.569 1.546 1.628 2.084 1.7 1.075 1.065.737.425 2.622 2.273v.353l-.605.287.605 1.346h-.538l-1.009-1.064-1.075-.784zm11.57 24.89-1.143-.778-1.011-.563-.537-.568-1.547-.778-1.345-1.419-2.56-1.628-1.818-1.915-.809-1.065-1.55-.85-1.347-1.346-1.076-.425-1.008-1.557-1.552-1.628-1.413-.706-.676-1.49v-.568h.538l.266.286h.476l-.476-.496v-.855l1.28 1.065 1.546 1.136 4.977 4.112 1.813 1.346 2.083 1.987.804.501 2.355 1.915 2.555 1.987.267.215 1.08.85 1.812 1.633.743.568 1.075 1.137-1.551.497h1.019l-3.297-.569zm-11.57.072-4.776-3.686-3.027-3.19v-.85h1.278l1.618.855.338.707.675.358.272.287.543.287.27.286v-.926l-1.817-1.419v-.42h.205v-.281l-2.688-2.836-.404-1.275.271-.85h.538l1.546 1.418.537.282 3.093 2.196 1.413.712.676 1.49 1.28 1.346.537.287.267.287 4.976 4.111 1.014.568-.271.282h-3.098l-.82-.86-.736-.563-3.026-2.622-.405.43-1.008.707 4.239 3.62-.405.425.338 1.065-.266.215-2.35-1.629-.804-.783zm.806 17.587-.471-.494-.471.988h-.335l-1.077-.706v-.639l.538-.567-.538-.497h-.538l-.27.78-1.01-.565V69.14l-.94-.712.405.988-.338.354-.67-.359-.271-.563-1.212-.64.404-.425h-.737l-.538-.563v-.855L51.6 65.3l.942-.64 1.68 1.198 1.008 1.065 4.439 3.548.543.282 1.008.85.942.635.405 1.28v.563l-.804-.85-1.546-1.065zm-8.342-.284.27-.283v-.568l-.538-.565v-.215h1.077l.47.497 1.077.567v.851h1.076l1.75 1.347v.284h-.47l-.338 1.066h-.743l-1.95-1.208-1.685-1.773zm2.355 17.304-.269-.565h-.4l-.404-.783-.742-.425v-1.777l-.538-.287-.266-.568.61-.64 3.834 2.837.543.568 1.008.491.267.282 1.551 1.132 1.347 1.346 1.817 1.275v1.203l-.266.287-.266.568-.81-.281h-.737l-1.356-.702-4.91-3.973zm5.988-20.353h-.804l-1.546-1.628v-.568l-1.01-.282-.265-.496-1.142-.425-.471-.988H53.76l-.876-1.347-.671-.353-.338-.779.269-.281.266-.778-.737-1.137h1.344l3.026 2.765 5.719 4.685v.849l-.271.21v.852l.804.855.266.779-.266.285-1.685-1.278-.404-.921zM59.94 84.25l-1.008-1.06-2.355-1.915-2.622-2.764-1.275-.707v-.712l-.942-1.413.942-.993 1.009 1.065h-.538v.568l1.751 1.209.405-.497 1.008.358v.564l-.266.286v.425l.876-.496 1.48 1.136 1.55.993v.425l-.941.287.404.497 1.075.568v-.921l1.076.568.742 1.49v.281l.271.502V85.7h-.537l-1.009-.85-1.075-.568zm.538-24.182-2.084-1.628-1.341-1.413-.738-.497-.271-.281-.538-.282-.537-.563h-.333l-2.488-1.987v-.491l.266-.282v-.778h.476l.538.568h.537v-.568l-1.546-.85v-1.065l3.635 2.698.543.569 5.248 4.326-.471.569-1.95-1.49v.706l1.612 1.137 1.28 1.346-.338.784.61.635v.43l-1.547-.988-.543-.569zm-.809-25.81-1.341-.353-1.48-1.556-.87-.497-.538-1.06-1.751-.921-.538-.564-.875-.281.404-1.065.333-.353-.333-.779v-.568l1.818 1.987h.271l.338 1.418.67.778h.543v-.568l.74.286.539 1.06-.405.425.943.994 1.008.496.808.568h.538l-1.075-1.064v-.425l1.612.778v.706h-.266l-.27.287.27.568.268.779.471.281-.337.359-.873-.425-.608-1.275zm-5.985 29.149h1.551l-.266-.564-1.208-.921-.538.568.471.927zm-.267-35.456h.272l-.266-.282v.282zm0 .783.272-.287h-.266v.287zm0 29.711h.272v-.281l-.266.286zm1.08-40.704-.537-.568v.568h.543zm0 58.578.272.287h-.266l-.266-.287h.271zm3.36-10.358v-.358l-1.547-1.7h-.266v.855l.543.287.47.568.81.359zm3.164-24.535-1.076-1.136-.537-.282-.737-1.065-1.209-.425-1.008-1.065.404-.706 1.009.281.271.497h1.009l-1.009-1.347h.271l1.28 1.065 1.08.784v.358h-.808l2.355 2.483v.779h-.538l-.266-.21h-.47zM56.58 30.93h.472l-.2-.281h-.266v.287zm1.01-27.448v-.287l-.543-.85h1.075l2.355.856 1.213.286.338 1.065.61.922-.333.711-1.075.569h.271l-1.546-.784L57.6 3.492zm2.62 75.597-1.346-1.132-1.008-1.346-.804-.425v-.993l.809.286.675-.706.405.425-.271.286v.425l.942-.491 1.612 1.705h-.737l2.355 2.483-.67.358.609 1.204-1.751-1.28-.804-.779zM57.586 35.61l.266.287h-.266l-.266-.282h.271zm0 43.966v-.282h-.271zm.266-59.638.272.287h-.267l-.266-.287h.266zm2.09-2.478.27-.282-.537-.21-1.546-1.136v.552l.809.78 1.008.284zm0 46.448-.538-.21-.471-.568h-.272l-.537-.568.271-.282.338.353.676-.353.271.574.543.281.809.569.333-.42-.743-.855.543-.564 1.413 1.844h-1.075l.333.993-.604.635-1.275-.922v-.496zm-1.28-43.397.742.85h-.266l-.738-.85h.272zm-.267 29.148h.271l-.266-.281v.281zm1.147 24.182.404-.85 1.547.994v.43h-.743l-.809-.569h-.404zm.133 17.587h.271l-.266-.286v.286zm1.818-52.761v.286h-.272l-.2-.281h.472zm.266-4.393h-.538l.272-.282zm.271 18.652-.537.282h-.272l.543-.282h.271zm.133 24.468.405.85H62.3l-.804-.85h.67zm-.133-23.9v.282h-.271v-.282zm0 21.422v.282h-.271v-.282zm.81-20.848.27.281h-.266l-.266-.281h.272zm12.513-1.419-.267-.21-1.075-.568-.742-.85-.804-.281-1.009-1.065-1.341-.85-3.093-2.765-3.159-1.628v-.81h1.342l.338-.78 2.355.921.404.353.538.287.742.85.538.284 1.346 1.065 1.752 1.276.808 1.774.81.778.808.565.205.283.538.284 4.1 3.264h-2.759l-1.075-1.065-1.28-1.137zm-7.06-2.698v-.287l-1.01-.85v.568l1.01.567zm4.172-4.68-1.28-1.064v-.855l-.333-.712 1.075.43.267.568h.537l1.551 1.634h.267l2.621 2.058v.921h-.804l-2.084-1.065zm.804 8.797v-.307H73l.272.286zm15.61.286-.875-.993.405-.425h-.804v-1.065h-1.28l-.82-.86h-.537l-1.009-1.065-.266-.568-.937-.497-1.95-1.7v-.589l.537-.283h-1.546v-.286l.604-.637-1.275.427-.604-1.206-.804-.497-.538-.495h1.818l1.009 1.064 2.083 1.134 1.076 1.06 1.817 1.557.267.64 3.025 1.843 1.414 1.49.537.778h.604l3.564 2.903v2.621h-.272l-3.164-3.333-2.084-1.07zm4.711 8.51-.538-.287-.271-.568-1.546-.784-1.813-1.7-.271-.496h-.538l-.742-.85-1.546-1.346-.538-.569-1.546-1.136v-.497l-.271-.282-.538.287-.266-.287-.804-.568-.266-.563-.743-.282-1.812-1.915-.81-1.628-.27-.281h.542l.804.85 1.551.496 1.547 1.705 2.089 1.065 2.621 2.765.809.568 1.014.784 3.159 2.201 2.826 3.047v.855h-1.28l-.538-.564zm-.538-10.424-.47-.287-.267-.287-.804-.425v-.425l-.271-.568-.737.425-.538-1.203-1.208-.922-.87-1.275h-.805l-1.346-1.49.404-.921-.875.496-.266-.281h-.267v-.85l-.763.547-.471-2.2h.471l4.439 3.261 1.012 1.137 4.506 3.475.47.921 1.01 1.065h-.74l-.332.64-1.28-.85zm0 15.672-1.28-1.137-.537-.85-1.142-.783-.4-.85-1.412-.707-3.835-3.261v-.425l-.604-1.275.609-.353.266-.568 1.95 1.705.948.496.404-.425 1.28 1.987 1.685 1.208 1.613 1.628 1.48.43.337.707v1.065l.272 1.137-.333.921-1.009-.635h-.271zm.81-20.07-.804-.569h-.267l-.47-.568-.81-.425-.875-1.413.404-.425-1.075-.64v.711h-.266l-.272-.281-.809-.568-.737-.779-.87-.281.47-1.137h-.409l-.537.287-.471-.497-1.076-.778v-1.204L83.968 38.4l.271-.282h.477l.27.283 2.356 1.915.271.568.538.282 3.635 2.693.81.855 2.088 1.49v.993l-.338.353.405.994h-.876v-.497zm-2.622 24.965-.538-.287-3.901-3.262-.604-1.06 2.084 1.132.537-.563-2.288-1.137h-.472v.712l-1.617-1.203v-.64l.542-.492-1.013-1.418.742-.282.271-.563 1.075 1.132 1.28.711v-.64l-3.092-2.483v-.712l2.422 1.633 1.48 1.49 1.546 1.065 5.176 4.61v.635h-.2l-.271-.282-1.075-.565v.282l.809.85.271 1.06 1.009 1.136-1.28.569.266.281v.85l-3.16-2.55zm1.075 15.104h-.537l-1.547-1.629-1.613-1.065-.47-.563-1.076-.778v-.573l-.537.21-1.813-1.915v-.425l1.813 1.136v-.706l-.738-.778-1.817-1.49v-.425l.271-.277.271-.64 2.29 1.7 1.074 1.137 3.093 2.201 1.346 1.352 3.093 2.34v1.49l-.67.778.542 1.142h-.876L92.33 88.13zm-1.613-50.566-2.826-2.693-1.546-1.136-1.884-1.915.537-.282v-1.065l-.338-1.131h.676l3.16 2.483h.941l-3.968-3.261-1.346-1.844.338-.425v-1.075l3.164 1.92h.537l-2.893-3.057h-.604l-.405-1.347.338-.711-.332-.638v-.85h.742l1.075 1.06 1.009.568 3.364 2.765h1.346l-.807-.85-3.095-2.698-1.546-1.705-.81-1.065-.604.286-.538-1.704h.875l.538.286h.538l-1.613-1.628v-.575l1.075.85 1.546 1.062.538.568 1.548.85 1.546 1.628 1.346 1.135.471.497 1.68.922.404 1.279v1.136l.538 1.065v.567h-.87l-2.084-1.633h-.671l.537 1.065 2.555 2.769-.604.353.876 1.275-1.014 1.134-.271-.568-1.076-1.06h-1.013l-.81-.85-.742-.281v.281l1.28 1.132.266.215 3.902 3.615-1.613 1.7.333.778v3.261h-.538l-.271-.282-2.893-2.196zm-.2 39.358-.537-.282v-.568l-1.28-.425-.271-.707h-.538l-.538-.496-2.421-1.705-.676-1.91.338-.353-.471-.927 1.008-.563 7.67 6.241.266.287 1.818 1.413v2.197l-.471.778h-.538l-3.164-2.478-.205-.497zm2.535-56.678-1.009-.569-2.35-2.483v-.497h-.266l-.266.497-.338-.993.333-.354h.804l-1.818-1.914h-.538v.286l.538.569v1.49l-3.702-2.909v-.568l1.075-.21-.537-.85v-.287h-.81l.267-1.346.804.783.804.497 2.826 2.273 3.901 2.765 2.417 2.555-.338 1.275-.266 1.561-1.28-.993-.271-.568zm-8.812 66.37v-.707h.742l2.084 1.702v-.855l-1.28-1.062-.805-.427v-1.91l2.624 2.338.809.783 1.551 1.137.538.497.47.286.538.569 3.636 2.698v.85h-1.547v.281l.81.85h-1.347l-1.48-.491-7.332-6.523zm0 1.773h.202l.808.85 1.413 1.067h-.876l-1.546-1.208v-.709zm8.678-45.599-2.22-1.914v-.286l-.74.282v-.287l-1.413-.358-.538-.64.47-.502-.604-.706-1.076-.569v.569l.538.563h-.404L85.5 37.856l-1.076-1.418v-1.132l.272-.282v-1.203l1.346.712 2.355 1.915 1.818 1.346.471.569 4.306 3.543.404.85H94.39v.563l.742.778-1.142.425-1.075-1.772zM90.076 81.63l.404-.355.202-.567-1.009.566-1.075-1.131-1.546-1.065-.266-.563-1.01-.569-.803-.85v-1.065l-.538-.563v-1.633h1.214l5.314 4.68 2.084 1.423v.778h.81l1.008 1.065v.85l.537.85-.537.502.537 1.131-.737.287-.537-.563-4.035-3.195zM86.31 93.9l-1.21-1.277-.472-1.418.337-.356.538.569.538.282 1.28 1.065.537-.5-.537-.847h1.141l3.229 2.764h-2.289l-1.013-.283h-2.084zm5.714-79.714v-.567l.27-.283h-1.615l-.74-.782-.538-1.133h-.944l-.604-1.349-.538-.568v.566h-.27l-.537-.569v-.285h-.676l-.333-1.065-.803-.567v-.85l.537-.284v-.283h-.266v-.994l1.346.995.743.85.543.282 7.265 5.96v1.346l-1.618.851-1.208-1.275zM86.036 3.972l-.537-.215-.538-.565.74-.425 2.42.852v.492l-1.34.706h.27l-.537-.281-.47-.569zm-1.075 89.351.538.574h-.538v-.569zm.806-15.949h.27v-.281l-.27.287zm.539-64.604h.202l-.202-.21h-.27l.27.215zm1.547 11.208v-.568l-1.817-1.275v.568l1.817 1.28zm-.538-5.386h.27l-.27-.282h-.269zm1.278 70.21v-.706l-.47-.492h-.808v.497l1.278.706zm5.246-77.666-1.816-1.913-1.413-.71-1.748-2.34v-.497l-.271-.284v.566h-.471V4.751l1.28.356.266.565h1.408l1.48.994v.353l1.141.85.943 2.196.875.922-.404.425-.471-.287h-.81zm-5.247 16.809h.27v-.568h-.742l.47.568zm-.47 65.1h.268v-.28h-.269v.28zm.47-73.397h.27l-.271-.284v.285zm.27 58.86h.538l-.537-.284h-.27l.27.282zm.873 6.24-.335-.78-.807-.355v.497l1.142.638zm.605-58.646.338-.353-1.548-1.132h-.267l1.477 1.49zM89.13 53.76h.27l-.272-.283h-.266l.266.281zm1.548 17.587-.74-.85h-.81l.405.85h1.142zm-.203 14.326h.471l-.742-.85h-.538l.804.85zm0-75.1v-.214h-.271l.266.215zm0 6.098h.2v-.287h-.205v.284zm1.275 5.601v-.712l-1.28-.637v.638l1.275.712zm-.804-10.004V11.7h-.271v.284l.266.283zm0 52.194h.538l-.538-.567h-.266l.271.567zm-.271 4.111h.266l-.271-.283v.282zm.266 21.986h.271l-.266-.28v.28zm2.626-85.17-1.008-.566-.538-.568-.537-.283-.272-.497h2.355l.538.497.538 1.7v.779l-.81-.502-.27-.568zm-.537 12.908v-.285l-1.142-.85h-.404l.537.568 1.009.568zm-1.546 54.18h.266v-.285l-.271.284zm1.275-58.294.803-.283v-.852h-.271l-.271.568-.272.284v.283zm1.341 4.965-.538-.568h-.271v.568h.804zm-.809 54.675h.266v-.284l-.271.287zm.538-58.291h.537v.566h-.537v-.566zm.537 8.793v-.285l-.271-.283v.283z"/>
  <path fill="#f9d472" d="M103.257 94.177v-1.701l1.278-3.972.266-2.836.266-1.135.266-1.35.538-1.418.266-2.2.737-3.262.267-2.197.809-1.914.266-2.482.266-1.137.2-1.344.804-3.335.266-1.915 1.008-3.545.81-6.027 1.075-2.199v-2.766l1.008-2.199v-1.63l1.075-4.396.2-1.703 1.075-4.68.272-1.914.537-1.346.2-1.634.538-1.915.537-4.183 1.275-3.404v-3.19l.809-1.628 1.009-5.745.537-1.915.604-3.471.605-1.275 1.433-.789h11.433l1.275 1.347.604 3.62v1.065l.942 2.058 1.142 7.025 1.009 3.614.266 2.197.537 1.92.605 3.83.942 3.051.266 2.202.266 1.346.272 2.197 1.274 5.248v1.49l.876 2.345 1.48 7.66.537 2.2 1.009 5.249.537 1.915.267 2.196 1.008 2.56.471 4.895 1.68 5.463-.338 1.418 1.075 3.262.809 3.614.466 1.915.809 5.177.333.993-.471 1.49-1.68.855h-7.577l-1.818-.287h-2.084l-.875-.916-.942-4.322-.538-1.07v-2.483l-1.28-3.968-.404-4.756-1.142-3.615-.538-3.902-.809-2.416h-12.646l-.61 2.201-.67 4.537-.942 3.051-.471 3.902-.81 1.7-.337 3.9-.942 2.91-.876 4.607-1.75.922h-8.07l-3.635-.569-1.075-1.06zm4.17.71 1.278-.426h7.601l.81-.853.537-4.26 1.28-3.62v-1.49h-.538l-1.346-.783-.471-.568-.538-.281-.537-.569-1.01-.783-1.612-1.705-.737-.497-.266-.281-.538-.287-.538-.568-.47-.282-.804-.783v-.563l-.605-.993 1.347-1.49 6.59 5.46.742.565 1.413 1.495-1.009 1.772.671.353 1.009-2.197v-1.42h-1.009l-1.818-1.347-.266-.282-.809-.566-.804-.783-3.092-2.199-2.217-2.34.67-.708V70.47h.61l2.488 2.192 1.818 1.136.809.85 1.551.492 1.818 1.914-.272.569.543.845.266.64.543-2.555.742-3.333.538-2.98.266-1.137.272-2.483 5.043.282 2.688-.287 3.026.425 1.213-.425h1.546l1.01.353 1.146 4.045.2.85.271 2.98.809 2.058.942.491.471-.496-1.68-1.777h.805l.271.568h.205v-.568l.4-.778.404 1.341h.537l.538.569 1.546 1.351.266.277 1.28 1.136.267.215 6.19 5.039.338 1.843.537.568v.87h-1.08l-1.009-.855v-.568l.205-.281-.737-.216-.538.21-.538-.501h-.266l-.47-1.137-1.076-.568-.876-1.49-.404.425h-.538l-1.008-1.137-.405-.778h-.942l-1.147-1.28.405-.359v-.281l-1.28.64-.604-1.208-.743-.85v1.418l.538 1.915.47 3.83.81 2.483.338 2.411.47 1.418.871 3.334h.942l-.804-.855.272-.282 1.008 1.137-.2.281 1.685.425 1.68-.43h7.265v-2.754l-.942-2.979-1.214-7.521-1.546-3.758.338-.568v-1.419l-.404-1.205-.405-2.054-1.009-4.398v-1.698l-.803-2.413-.267-2.198-.2-.848-.537-1.918-.809-2.483v-1.915l-1.009-3.901-1.075-6.027-.742-2.198-.471-3.476-1.142-3.687-.271-1.914-.405-1.347-1.275-.425-.399.425.538.568v.282l-1.01-.568-.803-.85h.804v-.537l-7.332-5.597v.425l.27.282v.502l-1.076-1.065-.742-.563-3.43-2.694V20.49l-.472.282h-.604l.338-1.135.271-.284-.537-.21h-1.275l-.333.281-2.96-2.34.405-.425v-.855l.81-.425 1.817 1.419 1.278.637 2.084 2.199 1.28.855.538.568.537.282 2.827 2.273.803.425.538.568 2.355 1.633 1.547 1.703 2.017 1.349.336 1.135.537 1.065v-2.488l-1.377-6.028-.742-2.48v-2.483l-.876-2.196-2.555-1.347-5.176-4.114-2.355-2.48-.538-.282-3.364-2.626V3.758l.743-.282.271-.284h.737l3.702 2.98.266.287 2.084 1.7.54.496 2.955 2.274.944 1.843.538.85v.568l.942.992-.67-4.325V8.8l-1.012-2.621-.537-3.692-1.211-.568-10.49-.42-.943.919-.809 4.681-1.142 3.546-.333 3.544-.737 1.63-.271 2.768-2.084 9.362-.271 2.695-.538 1.133-.67 3.05-.339 2.695-.271.85-1.285 5.46v2.484l-1.075 1.132v3.19l-1.275 3.686-.538 4.111-.537 2.202-.267 1.628-.47 1.418-.267 1.628-.266 1.065-.266 2.197-.538 1.423-.266 1.915-.737 2.483-.338 2.908-.738 1.982-.271 3.046-.405.927-.332 1.838-.538 1.352-.266 3.758-1.142 2.908.538 1.203 2.693.568zm-.807-1.279-1.278-1.351.874-.354-.604-1.346h1.278v-.497l-.476-1.136v-.569h.803l-.404-1.275.604-.64 2.622 1.915 2.083 1.915 2.35 1.7 1.547 1.628-2.084.353-2.627-.645-3.097-2.478h-.942l1.208 1.628 1.275 1.132v.358l-2.084-.358h-1.075zm4.978-4.966-1.01-1.065.203-.287-.203-.281-.537.568-1.546-1.705-.54-.215-.537-1.137V82.32l.272-.282.271-.568 1.28 1.418 3.16 2.483.27.282 2.29 1.628 1.346 1.347.537.281v1.352l.338.707-1.884.778-2.155-2.263-1.547-.85zm2.084-3.553.271-.282v-.287l-.539.282-1.01-.573-.268-.287-1.077-.783-1.009-1.132-1.21-.64-.74-1.49 1.144-.358v-1.49l.806.425 4.71 3.83 1.545 1.131 1.68 1.705-.81 1.28.538 1.06-.809.353-1.146-.568-2.09-2.197zm-4.438-4.112h.269v-.286l-.269.281zm7.668-6.947-1.412-.784h-.538l-.54-1.28-1.275-.64-2.017-2.13-.47-1.981.47-.993 1.546.993 1.28 1.06 1.547 1.131 1.546 1.347 1.618.85 1.014 1.06v.573l.737 1.485-.737.711.47.922-1.075-.568-2.15-1.772zm-1.412-5.96-1.818-1.987-1.277-.645-.266-.993-.266-.568v-1.915h.808l1.01.855 1.545 1.06.272.281 3.164 2.483 2.084 2.197v.85l-.267.568.671.993-.67.354h-1.076l-.737-.855-3.16-2.693zm-3.095 13.972h.471l-.471-.286h-.266l.271.286zm3.907-18.939-2.084-1.136-1.547-1.633v-.569l.81-.921-.333-.994h.675l5.858 4.967 2.355 1.628 1.208 1.275-.67.353-1.68 1.203-1.746-1.208-2.826-2.98zm9.082 2.76-.875-.353-.4-.778h-.537l-1.009-1.065-.266-.569-.804-.281-1.546-1.28-.804-.359v-1.131l-.875.496-1.209-1.843h-.47l-.267-.568-.538-.287v-.286l-.266-.779-.271.21h-1.009l-.67-1.418.604-1.848 1.346.353 2.355 2.13 2.084 1.633.266.282 8.054 6.902v.85l-.541.498h-1.817v-.782l-.537.281zm4.44-.85-.738-.568-.537-.568-.538-.215-.271-.282-1.275-1.137-.538-.568-.537-.215-.205-.568-.538-.282-.804-.855-.737-.282-.266-.496h-.538l-3.901-3.333-1.347-1.352-.737-.282-1.546-1.633-.743-1.562.743-.424.204-.21.943-.359 2.76 2.555.742.497 3.43 2.765.742.568 6.518 5.468.81.563 1.545 1.418 2.827 2.197h-1.28l-2.15.712-2.018-1.562zm18.298 10.425-1.075-.784-1.008-1.136-1.813-1.347-4.168-3.62-.803-.496-1.275-1.137-1.076-.568-.537-1.065-2.017-1.065-4.506-4.183-.737-.569-2.09-1.633-.808-.568-.538-.492-1.008-.855-3.902-3.548-.804-.568-1.008-.85-3.697-2.555v-1.244l.809-.283-.676-1.065.942-.497 5.171 4.61 2.622 1.772.47 1.63 3.365 1.419.875.922 5.448 4.68.809.286 2.355 1.91 1.009 1.138h1.618l-1.076-1.136-.542-.282-1.009-1.065-8.34-6.878.266-.284h1.275l2.084 1.064.47.496.405-1.28.942.497.538.563.537.282 2.755 2.34.875.42.538.568 3.364 2.693.537.568.743.569 1.075.844.538.21.47.569.805.563.537.845.737.783-1.008.287 1.213 1.275.405 2.416-.81-.358-2.892-2.202-.81-.568-1.28-1.413h-.537v.563l2.084 2.197 1.075.424 3.026 2.335h-.937l1.547 1.915.271 1.347.538.563v.568l.47 1.065h-1.28l-1.546-1.628zm-26.101-27.229-.538-.496-.737-.287-.804-.85-2.284-1.561-1.346-1.777v-.497l.266-.286V40.55h.471l1.884 1.63v.497l1.009.355 1.075 1.065 1.009.568.537.566 2.09 1.418v2.412l-.605.638-1.48-1.206-.537-.286zm-5.714 14.464.742-.425-.471-.286-.266.281v.42zm4.172-21.058h-.47l-2.627-2.058-.338-1.634.809-.425.271-1.346 1.28 1.346 2.289 1.844.338.634-.266.282h-.267v.568l2.09 2.197 1.612 1.06v1.136h-.537l-3.697-2.621-.471-.993zm4.439-1.065.266-.283-.47-1.346-.472.993-.942-.497-.875-.921-3.294-2.055-.47-.284v-1.341l-.538-1.137v-.778l1.815 1.56v-.778l-1.278-1.347v-.568l.47-.568.269-.78.334-.426-.337-.711h.27l.537.566.809.568 1.751 1.349h.538l-1.818-1.915-1.546-.849v-.778l-.471-.922 2.488 1.275-.466.428v.283h1.075v.566l3.098 3.262-.266.568.271.282.876-.497.742.783v.282h-1.347l1.547 1.628v.85l-.471.497-.538-.497-.538-.282-.537-.855h-.737l-.533-.573-.404-.783h-.87l-.538-.569-.804-.568-1.009-.778v.215l.742 1.131.81.563 1.075 1.06h-.538l-.266-.281-.266.281v.569l.809.85h.47l.272.496 2.893 2.765-.267.282-.266.85-.537-.569-.471-.287zm2.084-8.79-1.075-.85-.743-.5-1.613-1.7-1.008-.782-1.546-1.419-.81-.499.871-.491.942.993 2.355 1.7h.272l-1.009-1.342-3.43-2.621v-.993h.809l2.826 2.483 2.085 1.633-.405.425 1.211 1.208.538.85.201.287.538 1.065 1.347 1.137-1.01.281-.87-.85h-.47zm-6.528 3.056h.266l-.27-.284h-.266l.271.281zm17.956-.568-2.626-2.197v-.563h-.74l-1.347-1.065-1.816-1.417-.471-.569-1.08-.492h-.538l5.514 4.752v.783l-4.44-3.896-1.545-.85-.81-.778-4.238-3.902h.605l1.679 1.065-.405-.778-2.826-2.053-.809.425-.537-.85.537-.282-1.413-1.484.805-.85 1.346.998 2.623 2.765 3.16 2.196 2.555 2.197.806.568 1.28 1.065.81.425.803 1.203.405-.353 1.146 1.208h.81l.47 1.137 1.623 1.034 1.818 1.914v1.49l-3.16-2.835zm-15.54 7.02-.674-1.347 3.7 2.908v.496h-.537l-1.28-1.418-1.208-.64zm14.797-16.665h-.806l-.538-.567v-.281l-.538-1.064-1.547-.284-.268-.568-1.209-.64-.604-1.28h-.741v-1.06h-.808l-1.075-.567h-.202l-.271-.286.471-.567.266.282v-.569l-.742-.497-.271.284v.212l-.272.282-.537-.497v-.281h-.405l-.404-1.208-.743.353-.266-.569-.538-.286v-1.347h-.47l-.272.563h-.742l-.876-1.418.266-.496.333-1.275 2.826 2.053 1.009 1.136.809.564.809.783h.4l2.959 2.693v.353h.67l1.951 1.347 1.546 1.628 1.076.568.2.564.537.568v1.065l1.096 1.152-.538.779-1.546-.779v-.855zm-1.075-5.46-.54-.287-1.006-1.136-.538-.287-.809-.497-.738-.425v-.563l-1.818-.993-.537-.497v-.992l-.808.425-.266-.852-.47.281-.267-.568-1.075-.497-.671-1.065-.87-.353v-.778h-1.01l-.537-.567v-.276h.272v-.284l-.538-.566v-.779l-.271-.286v-.85h.537l5.52 4.467 1.008 1.065 1.009.568.809.784v.565h.737l1.618 1.347.742.563 1.618 1.633v1.132l.738.778-.471 1.137-.876-.502-.47-.85zM124.11 36.736h.539l1.278 1.347h-.538l-1.28-1.347zm.27 26.378h.269l-.27-.281zm1.01-10.99v-1.418l1.074-1.348.267-2.765 1.275-6.027.537-4.04 1.275-3.4h.266l.538 2.203.266 2.77.737 2.483.267 2.201.537 1.915v1.987l1.275 3.691V53.5h-6.251l-1.751-.425-.338-.916zm1.878-19.785.738 1.062h-.538l-1.413-1.49 1.208.428zm5.177 20.068v-2.482l-1.214-3.973-.338-2.338-.271-1.136-.338-2.552-.742-1.915-1.541 7.8-.538 1.63v2.625l-1.01 1.49v.85h5.988zm-.272-45.952-2.355-1.633L128 2.907l1.347-.285.266-.352 1.951.568.333-.781.537.282 1.885.425 1.28 1.915v.425h-.81l.267 1.065.737.85v.563l.266.563V9.78h-.737l-3.164-3.333zm-3.901.566h.266l-.266-.284zm.804 4.398-.804-.852v.85h.804zm-.538 19.217.538.566h-.267l-.537-.563h.266zm.271-1.347h.267v.566h-.272l-.271-.281.266-.282zm.267-1.915h.271l-.271-.284zm1.546 4.68v.568h-.271l-.538-.569h.804zm.809 1.064h.47l.539.568v.567l-1.01-1.135zm10.696 12.126h.737v-.282l-.272-.285v-.568l-.742-.285-1.346-.778v.284l1.341 1.347v.637l-3.697-3.12h1.076l-.538-.78-.742-.283-.543.284-1.075-1.135.803-.282v-.282l-.537-.281-.81-.497-1.008-.563-.271-.282h-.271v.287l1.346 1.347h-.338l-2.422-1.844-.537-1.131h.404v-.287l-1.075-.353v-1.706l1.613 1.206.266.285 8.074 6.594 1.818 1.915v.85l.809 1.347-.405.425-1.684-1.777zm-7.599-9.36-.542-.851-.743-.213-.537-.567.604-.64 1.341.497 2.489 2.626-.267.283 1.076 1.346h-.272l-2.355-1.629-.804-.855zm-1.817 5.248.271-.282.538.282v.779l-.272.284-.537-.284zm1.009-3.617-.738-.778v.778zm.266-32.973h.266l-.737-.783h-.272v.215l.738.568zm3.968 48.65v-.425l1.546.994.538.286 1.008 1.065h.81l-.538-.778-.538-.282-.271-.281-.471-.282.2-.281-.943-.282-.47-1.065h-.538l-1.414-1.132-.537-.496-.538-.282-.47-.85v-.87l-.876.497-.743-.707-.2-.85.472-1.137.537 1.137 3.897 2.765 2.892 2.483.81.497.47.568.538.282 1.275 1.351 1.075.569.809 1.628-.271.568-2.018-1.06-.404 1.209-4.035-3.052-1.618-1.771zm4.91-2.478-1.28-1.06-2.355-1.628-1.28-1.418-1.08-.568-1.28-1.347-.272-.85-1.746-1.485 1.075-.568 5.115 4.25.271.568 1.01.568 3.762 3.052-.404.85 1.075.783-.538.568-1.28-1.131-.809-.563zm-8.074-30.495-1.08-.568v.568h1.074zm.066 30.208h.471l.266.287 1.275 1.137.267.568h-.538l-.809-.425-.942-1.561zm9.35 11.561-1.613-1.628-3.093-2.196-2.355-2.478h-.604l-.738-1.065-.737-.85v-1.137h1.004l.67 1.418 1.214.784 2.084 1.694 1.546 1.065 5.381 4.542.333.993-.538 1.06v-.282l-1.008-1.06-1.547-.855zm-8.607-28.58h.737l1.613 1.634v.286l-1.618-1.065-.743-.853zm.2 12.913h-.2v-.287zm.266.282h.537l1.347 1.136v.282l-1.076-.568zm2.083 12.769v-.358l-1.008-1.132h-.538l.471.922zm-1.008-29.783.271.282h-.271l-.272-.282h.267zm.809 7.45.737.778h-.538l-.742-.778h.538zm1.48 2.554-1.28-.64h1.346l.742-.85-.476-1.064-.537-.282-.81-.85v-.287l1.209.43 2.488 2.627v.425l-1.546-.778-.333.353.538.568v.497l-1.009-.497-.338.359zm-.727 8.637 1.075 1.134v.284h-.268l-1.347-1.419h.538zm9.416 31.625-.673-.354-1.01-1.563h-.806l-1.956-1.343-.266-.287-1.547-1.418-.537-.497h-.272l-1.817-1.915v-.286l-.538-1.418.538-.282.338-.927.942.712 1.613.78.737.85v.57l.804.21.537.57 6.457 5.673v.918l1.075 2.203-.61.71-2.554-1.772-.471-1.137zm-8.602-41.772v.566l-.538-.567h.538zm1.816 12.339.807.85v.284l-1.615-1.135h.804zm.873 15.317-.335-.71-.808-.424v.568l1.141.568zm7.333 25.673-.942-1.633-1.008-.352v-1.064h.537v-.498h-.808l-.942.64-1.142-1.203-1.008-.569-2.02-2.053-.335-1.208-.808-1.7v-.497h.537l1.546 1.065 1.28 1.352 2.35 1.705 1.076 1.065 1.546.85 1.075 1.065 2.084 1.49 1.275 1.843-.271.568.537.779-1.213.64-1.147-.917-2.222-1.347zM141.6 46.024v.286l-.27-.286zm0-5.745.268-.282.471.282v.285l.539.568v.283l-1.278-.712v-.424zm2.084 16.667v-.71l-1.547-.85v.494l1.547 1.07zm2.96 36.948-2.69-2.482h-.405l-.67-1.348-.74-.852V87.23l1.008.354 1.076.778 3.902 2.765 2.557 2.767v.354l-2.826-.358h-1.211zm-2.69-30.211V63.4l-1.75-.784.942 1.066zm-.808-21.205v.568l-.268-.283.266-.285zm0 9.646.27.284h-.27l-.268-.287h.266zm.808.496.471.567v.287h-.471l-.405-.85h.405zm0 5.53h1.01l2.353 2.484h-1.008zm1.278-4.396v.285h-.268v-.285zm0 11.56h.269l-.267-.285v.284zm2.624 6.027-.538-.568v.563h.543zm.742 17.87h.543v-.283l-.538.284z"/>
  <path fill="#76a9d8" d="M162.384 93.68v-4.114l-.403-2.269.403-1.346v-9.858l-.403-2.554.403-1.278v-9.926l-.403-2.199.403-1.347V48.86l-.403-2.551.403-1.28v-9.927l-.403-2.34.403-1.205V21.345l-.403-2.197.403-1.35V7.942l-.403-2.268.403-1.347.27-2.623 1.815-.922h10.695l1.953.639.676 2.127v76.376h1.817l1.214-.64 2.421.64h9.15l1.28-.71 2.355.711h2.36l1.28.64.476 6.31-.47 2.976v4.753l-1.414.991h-34.32l-1.141-.638-.405-1.275zm14.33.78.942-.282 4.775.287h7.332l.876-.282 5.852.353 2.155-.42v-5.391l.272-4.398-.333-2.975-2.284-.287-1.884-.353-1.28.353h-9.62l-2.084-.353-1.68.569-3.025-.564-.272-10.849.272-1.06-.267-12.339.272-1.413-.267-12.34.267-1.346-.267-12.124.272-1.347-.266-12.405.27-1.065-.297-11.869-1.28-.712h-7.603l-4.17.497v13.542l.268 1.632-.271 1.631v10.212l.266 1.913-.271 1.35v7.444l.266 2.48-.271.285.332 2.059-.337 1.208v15.672l.266 1.915-.272 1.418V75.25l.267 1.92-.267 1.705v5.176l.405 1.562.67.358 3.093 2.197 2.355 2.483.804.568 1.275 1.065 1.613 1.132v.712l-2.084-.717-2.488-.353-2.217-1.839-.81-.281-1.213-.85.471-1.347-.271-1.065-1.009-1.423h-.604v8.013h1.075l.267-.282 2.083.497h9.887zm-4.71-53.045-6.257-5.181-.604-.354-.674-1.065-.268-1.064h.674l3.768 3.046.405.353 1.146.425v-.43l-5.719-4.68v-1.13l3.098 2.41 2.089 1.916.809.567 2.355 1.914 2.156 1.49.47.991.472.783h-1.209l1.009 1.419-.538.568v.495h-.266l-1.08-1.06-1.813-1.418zm-7.534 1.413.266.282h-.27l-.268-.287h.268zm-.272 50.279v-.287l.538-.287.268-.496.27-.287.271-.712 1.344 1.982-.471.496-1.413-.425h-.807zm9.15-65.383L172 26.588l-1.277-1.347-1.077-.855-.201-.287-.538-.286-.542-.497h-.338l-3.702-3.052.942-.286v-.85l-.271-.497v-1.126h.737l.809.85 6.728 5.104 1.879 2.059-.267.496.538.85-.271.563v1.347h-.81l-1.008-1.065zm0 9.575-.538-.287-.808-.783-3.362-2.765-.74-.353.47-.497h-.808l-2.422-1.915-.809-1.28.67-.358v-.569l.339-.353-.81-1.28h.605l1.408 1.132.809.496 1.546 1.705 1.009.497.266.281.809.564.266.281 1.009.784 1.546 1.418.742.353.338.707v3.543l-1.28-1.06-.271-.282zm.27 15.385-.809-.286-.27-.215-1.278-.85h-.808l-.27-.287-.538-.282v-.568l-1.144-.353-.942-.994-1.008-.568v-1.065l-.741.353-.336-.64v-.563l-1.011-1.07.809-.281v-1.419h.469l.27.282 2.35 1.915.537.568 6.252 5.105v2.621l-1.214-.64-.338-.778zm.199 23.404-.538.635-.47-.927-1.278-.353v-.497l.47-.287v-.21h-.736l-.267-.286h-.604l-.737-1.137-.471-.282v-.425l-1.813-.926-.537-.569h-.948l-.404-.778-.674-.778.471-1.705-.809-1.132h.538l1.01 1.132 1.347.778.2.282 5.514 4.111 2.355 2.483v.564l.267.568v.706l-1.076-.711-.542.491h-.471l.47-.778h-.27zm.808-26.952-.54-.568h-1.274V46.94l-.538-.287-.537-.568h-.471l-.338-.354-1.142.425-2.422-1.986-.271-.287-1.347-1.065v-.85l1.347 1.418h.404l-.942-1.561-1.546-.778-.333-2.627h.338l1.014 1.065.875.491 1.751 1.419 2.893 2.196.471.563 1.08.85 2.694 2.837-.405.921.81.922h-1.01l-.737.353-.333-.358.538-.568zm-2.893-38.507.269-.287-.272-.215-.47.496-1.619-1.633-.47-.287-2.09-2.201-1.075-.783-.271-.85.537-.574-.542-.281h-1.009v-.768h2.422l3.835 2.974 1.546 1.419 2.355 1.843V10.9l.804.85-.676.712.67.634v.425l-2.354-1.203-1.613-1.705zm2.085 53.611-.47-.287-.54-.491-2.085-1.705-3.16-2.765-.737-.215-1.95-2.058.404-.712.205-.287-.2-.85-.537-.501.609-.994 2.222 2.059.543.281 2.084 1.634v1.065l2.089 1.418.537-.282.272.282 1.008.711.266.707.543.21.676 2.202h-.404l-2.084-1.634-1.347-1.346-.737-.287-1.075-1.137-2.084-1.065v.425l1.346.927.272.282 1.28 1.131 1.28 1.347 1.08.563.271.282 1.48 1.274.405.779-.876-.425-.538-.569zm-6.257 12.908v-1.49l-.737.425v-.569l.538-.286v-.425l-1.414.921-.943-1.065.27-1.203-.333-1.213.405-.42 2.017 2.053.742.568.543.773h.81l.875.994-.405.425.266.496.943.354.476.993-1.342.353-.604-.568-2.084-1.137zm1.348-63.186-.272.563-.27-.282-.266-1.208-2.754-2.412-.338-.783v-1.7l.271-.212.205-1.133 6.927 5.602.942.993 1.547 1.133.942.998-.87.497.742 1.49v1.633l-6.19-5.174h-.605zm3.899 8.222-1.077-.85-1.817-1.914-1.548-.784h-.268l-.338-.783-.67-.353-2.087-2.202v-2.19h.942l1.414 1.134 1.548.778 2.085 1.702.537.215.336.784.942.353 2.624 2.765v.783l-.272.569.407.921-.47.569-1.48-.64-.81-.85zm-1.547 8.228.47-.496h-.2l-.537.281-.942-.353-.404-.778h-.471L168.1 28l-.266-.569-.737-.286-.804-.855-.804-.425v-.922l-.47-1.633v-.834h1.28l1.817 1.913 2.892 2.198.27.287 3.497 2.836 1.278 2.555-.876.922h-.805l-1.008-.563-2.084-2.197zm-6.256 6.38 1.01 1.065h-.538l-.472-.569v-.501zm0 21.985h.74l1.817 1.915v.563l-.737.21-1.82-1.137v-1.556zm.74 6.59-.47-.282-.272-.855.271-.568v-1.915l1.746 1.275.338.64-.471.921 1.208 1.27h.942l-.404-.778-.81-.564V63.8l3.697 2.913v.568h-1.612v.569l.742 1.06h-.742l-3.093-2.484-1.08-1.07zm10.025 28.016-1.147-.85-2.084-2.191-.675-1.352h-.876l-.471-.993-.876.425-1.008-1.065-1.552-.855-2.089-2.202v-1.346l.272-1.915 1.28 1.346 2.355 1.915 1.009 1.137.537.215 1.28 1.131 1.347.85 4.91 4.107 1.884 1.351-.61.635-1.28-.358h-2.216zm-2.422-36.024-.804-.563-1.418-1.49-3.297-2.059v.994l-1.213-.85.47-.425-.266-.287h-.809l-.537-.496v-.569l-.205-.568.2-.568-.205-.282v-1.914l4.372 3.614 1.076 1.065 3.097 2.197 1.546 1.556-.47.922.537.85v.502l-2.089-1.629zm-1.075 28.298-2.355-2.406-.271-.574-1.214-.64-.338-.783h-1.008l-1.818-1.915v-1.915h1.009l1.274 1.418 1.613 1.065 1.009 1.132h.538v2.698h.537v-1.92h.737l1.613 1.628h.266l1.275 1.705 1.142.43-.404.354-1.009-.282h-2.627zm-5.99-28.861-.543-.497v.497h.538zm-.538 6.876.266-.21-.271-.287v.497zm0 10.992h1.075l-.542-.496-.538.287v.21zm1.813-16.593v-.425l-1.009-.569v.425zm.67 3.4 1.209.568v.281l.47.85-.47.497-2.156-1.915.942-.287zm.133-17.301h.267l-.538-.569h-.538l.804.564zm-.27 10.209h.537l.809.778v.563l-1.347-1.346zm5.247-9.928-.271-.286-2.09-1.634-1.817-1.915h.338l3.83 2.98.752.584 1.347 1.418v.425l-1.346-.993-.739-.568zm-3.901.569h.2l-.2-.287h-.272l.272.282zm3.901-38.226h-.538l-1.075-1.065-.205-.569-1.075-.568-1.008-.855h1.008l.267.287.537-.497h2.217l1.746 1.208-.338.712.804 1.065-1.28 1.275-.809-.425-.271-.568zm-3.43 20.638h.266l-.266-.286v.281zm.809 19.216h-.272v-.282l.267.282zm1.008 18.437h-.47l-.272-.568-.538-.282v-1.347l1.075 1.065.738.569.537.845.81 1.064-.405.425-.942-.993-.543-.778zm-1.008 11.77h-.272l.267-.214v.21zm.266-7.377h-.271v-.282l.266.282zm2.621 10.43h-.537l-.272.563h-.256v-.856l-.542.287-.676-.358.67-.707V77.63l1.685.635 1.746 2.273v.988l-.543.282-.543-.282-.742-1.633zm-2.083-29.706h.471l-.269-.21-.202.212zm1.278 18.437-1.141-.569.4-.85 2.29 1.634v.921l-1.01-.568zm-.537-55.245v-.282h-.27l.272.285zm-.27 69.857h.27v-.287h-.266v.292zm.27-12.692v-.287h.538l.676.358 1.341-.706.876.916-.806.287h-1.014l1.48 1.913h-.739l-2.355-2.473zm.272 8.294.266-.281h-.256v.286zm1.075-73.682h.471l-.471-.281zm0 30.782h.2l-.2-.282v.283zm.471 30.781.809.565v.64l-1.147-.43.333-.773zm.266-7.448.538.563v.284l-.543-.285v-.563zm.81-56.02-.271.283-.272-.283h.538zm-.271 73.892v.284h-.272v-.569l.267.285zm.814-73.4-.268.284v-.287h.266zm5.985 84.391-.806-.778-.27-.567-.737-.286v-.287h.47l.538-.282-.809-.286-.204-1.065-.538-.569-.737.354-1.076-1.132h-1.075l-.537-.29.542-1.133v.85h2.084l2.624 2.056v.712h1.008l.807.778v.425l-.807-.425-.201.284.338.717 2.219.425-1.01.21-.267.568-.271-.287h-1.28zm-.806 3.618-.54.496-1.008-1.06-.27-.568h-.807l-1.818-1.91.538-.568h-1.078v-1.771l.943-.425 4.303 3.614.27.287 1.009.502.806.849 1.547 1.062.808.855-1.076.281-1.075.355-1.278-.638-1.278-1.346zm-4.708-4.393h.538v-.563l-.538.568zm1.613-2.837 1.011.354h.806l-.268.783-1.548-.497v-.635zm3.095-1.843-.268-.287h1.55v.569l-1.008-.282h-.266zm12.514 8.796-1.012-1.131h-.266l-.876-.851-.872.425.403.427h-.604l-1.748-1.347.404-1.137h-.74l-.404.853-.271-1.35-.538.287-.27-.566h-.738l-.535-.572v-.85h-.807l-.605-.927-1.347-.99.405-.783-.268-.569 1.346-.35 6.256 5.037.469.567.809.494 1.008.85.81.563 2.35 1.918 1.276.922v.712h-1.818l-1.28-1.35zm-4.573 1.915-1.145-.85h-.807l-.739-.778 1.005-.353V90.36h-.27l-.27.85-.468-.281-.27-.566h-.809v.282l.271.286h-.537l-.27-1.631-.265-.283-.2.285h-1.075v-.283l.809-.285v-.568h.742l.538.287h.947l.471 1.065 1.347.496.604.635v.287h.271l3.43 2.621v.43l-1.612-.568h-1.68zm-5.317-6.594v.286l-.266-.284h.271zm11.71 1.063-.272-.778-1.008-.287-.81-.855-1.545-.783-1.818-1.91h-1.075l.604 1.203 1.48 1.132v.353h-.466l-.538-.497-1.075-.85-.471-.568-1.075-.778-.267-.287-.737-.568v-.569h.471l1.347 1.132h.67l-.803-1.275 1.679.425h.471l1.347 1.137 2.089 1.341.266.282 1.014.568 1.346 1.347 1.818 1.418v1.065h-.538l-1.546-1.633-.538.21zm-2.622-4.895-1.008-1.136h.804l.204.281.81.569.803 1.065h-.537l-.804-.784h-.267zm-.737 3.83h.533v.568h-.538v-.568zm1.813 1.347v.281l-.267-.286h.267zm1.008-6.882h.538v1.132h-.538zm0 3.047h.538l1.075 1.136-.405.354-1.213-1.209v-.286zm0 4.685.804.85h-.809v-.85zm1.075-5.745v-1.423l1.751.926-.675.707-.272-.21h-.809zm1.076 2.411.465.564v.568h-.266l-.47-1.137h.27z"/>
  <path fill="#d8abd7" d="m206.445 95.524-1.008-1.063v-6.383l-.27-7.588.407-2.2-.406-11.202.406-2.622-.406-11.202.406-2.13-.406-11.274.406-2.622-.406-11.13.406-2.197-.406-11.274.27-1.772V1.772l.875-.85 1.748-.497h10.424l1.408.78.405 1.134v4.112l.4 2.124-.405 3.4v7.942l.266 1.418v3.548l1.546-1.631.538-1.703 1.48-1.562.87-2.267 1.48-.921.465-1.987 1.951-2.056.471-1.562L231 9.216l4.904-7.798 1.819-.993h12.58l1.814.638.743 1.56v1.133l-1.813 2.199-1.546 2.414-1.075 1.418-.737 1.632-1.547 1.63-.803 1.702-1.275 1.63-.538 1.065-1.817 2.48-1.818 3.047-1.613 1.915-1.221 2.197-2.693 3.83-2.086 3.333-3.025 4.181-.605 1.562-1.48 1.561.94 2.059 1.482 2.265 2.153 4.331 1.951 2.908 1.61 4.327 2.424 4.536.537.855 1.343 2.765 1.28 2.202 3.161 6.313 2.69 4.254 2.62 6.595 1.137 1.776 1.89 3.83 1.546 2.765v1.142l-.538.496-2.36.855h-9.078l-1.884-.286h-2.355l-1.28-1.347-1.014-2.196v-1.275l-2.288-2.975-1.885-4.045-.737-1.915-1.142-1.914-7.265-14.536-.676-1.772-.609-.993-.538 3.83v8.018l.4 2.125-.405 3.333v8.233l.4 2.201-.471 3.472-.81 1.771-3.297.287-1.817-.282h-7.844zm9.487-.637 1.208-.426 1.618-.283.47-.569V58.435h.743l.809 2.555 1.613 2.417 2.355 4.89 1.546 2.77 6.528 13.193.543.85 3.026 5.463 1.346 3.482 4.04.85 1.751-.707v-.281l-.809-.287-1.546-.845h-.804l1.075 1.137h-.537l-1.546-.85-2.622-2.76v-.215h.538l1.28 1.347 1.551.85h.532l-4.577-3.897-.405-1.065-1.007-1.131v-.282h.608l4.367 3.897 1.549 1.065.54.568 1.546 1.065 2.15 1.986h7.2v-1.49l-1.952-3.404-.876-2.269-5.852-10.357-2.08-5.105-.945-1.562-1.28-2.77-1.613-2.478-.742-1.628-.81-1.418-2.892-6.031-.738-.85v-.282l-.542-.778-.804-.425-.809.425-1.751-1.418-1.956-1.347-3.563-3.261-4.373-3.615h.737v-.61l-.332-.353-.81.425-1.208-.566-.537-.567-1.818-1.277v.425l1.813 1.913v.285h-.205l-2.084-2.199v-.496l-.543-.566h-.809v-.71l1.347-.71-1.147-.78.737-.353 4.306 3.333 1.275 1.418 1.075.569.205.21 5.786 4.685.47-.497h.267l-.266.497 2.35 2.483v.85l1.613 1.07.204.281h.272v-.635l-1.813-3.19-2.626-5.247-1.28-2.268v-.712l1.28-1.418 2.35-3.83 1.351-1.628 3.088-4.962 1.546-2.196 2.084-3.333 1.684-2.058.942-2.054 1.839-2.207.809-1.633 1.546-1.912.538-1.137 2.285-2.837 1.079-2.34 1.344-1.418 1.012-1.914 1.075-1.065V2.34l-.538-.497-4.372-.352-2.693.282h-7.066l-1.28 1.984-1.275 1.632-1.075 1.915-1.142 1.49-.673 1.915-1.48.993-.672 2.268-1.68 1.136-.473 2.482-1.613 1.135-1.077 2.057-1.076 1.63-1.008 1.92-2.15 2.556-.943 2.058-.338-1.843V2.627l-.67-.71-10.696-.425-1.414.707v7.87l.54 2.481h.266l.267-.566.404.425.405-.425.201.569.81.213 3.9 2.766 1.547 1.628 1.08.85.272.287 1.55 1.062v.784l-1.274-.922v.568l1.546 1.065v1.132l-.809-.425h-.47l.609 1.065-1.408-.778-.804-.779-1.075-.85.737-.353-1.214-1.28h-.548v.425l.809.353v.569l-1.077-.569-.74-.778-1.075-.568v-.563h1.075l.543-.282h.977v-.492l-1.275-.706v.712l-.407.358-1.68-1.208-.807-.282.538-.568.27-.497-.874.425-.74-.712v-.281l-2.086-1.132v10.967l.471 1.345-.476 1.704V37.23l.404 1.915-.404 1.134V50.99l.404 1.559-.404 1.49v10.424l.404 1.632-.404 1.7v10.424l.404 1.487-.404 1.563v7.378l.266.849-.271.283v1.915l.604 2.764h6.467l2.425.425zm9.078-58.436-.802-.568-.812-.85-.737-.497-1.075-.85-1.009-.71v-.354h1.813l-1.075-1.135-.472-.285-1.075-1.063-2.078-1.703-3.364-2.976-.81-.568-1.545-1.347-1.076-.568-.47-.567-2.49-2.197-.67-1.065v-.85l-.266-.852v-.78l-.333-.994.876.427.271.282 2.156 1.846-.605.635h.538l.543-.287.2.281-.338.425.337.354.272-.497.537.497v.568l.671.707.61-.707 1.884 1.915v.563h.47v.282l-1.208.353.937.993 1.618 1.137 1.546 1.628.81 1.633 1.546.85h1.008v-.834l.538-.285.266-.496 1.009 1.065 2.355 1.63.793.851 1.014.563 2.017 2.058-.676.707-1.41-.783.4.85 1.012.706.269.568-1.75.354-1.411-1.49h-.742v.496l2.421 1.915-.537.497-1.884-1.49zm-2.352 2.766v-.284l-.54-.282v-.281l-.266-.569.267-.281-3.026-1.275-.337-.353-.806-.569-.269-.281-1.013-.778-.538-.564-2.089-1.49v-1.28h-.266l-.272.564-.542-.282v-.568l.537-.497-1.346-2.125-1.009-.353h-.742v-.568l-1.08.286.803.85.738.354v.921l-1.01-.778-.808-.783-.742-.569-.272-.568.67-.353-1.479-1.562.604-.353-1.146-2.412.337-.988.738.712.537 1.203.804-.353 2.017 1.346-.742.287h-.538v.353l2.084 1.843L214 28.734l2.622 1.7 1.013 1.065 1.547 1.136.266.21.804.569 6.118 5.033-.942.998v1.418h-1.009l-.266-.281-1.551-1.347zm-8.072-25.034-.737-.354-.61-1.28-1.548-.569-1.275-1.418-1.347-.85-2.286-2.058.738-.359-.537-.568V5.662l7.803 6.595 1.617 1.065 1.881 2.053-.335.706v.712l-1.817-.993-1.547-1.633zM212.5 50.99l-2.089-1.915-2.289-1.774-1.147-1.772h.943l1.95 1.632 2.622 2.765 1.817 1.346.466.85-.2.282h-.542l-.266-.287-1.28-1.137zm-3.164 42.906-.81-.287h-.808l-.543-1.558.405-.424-.605-1.918 1.347.358 1.142.784-.471-2.34-.543.497-.676-.354v-1.06l-.809-.855h1.546l1.613 1.352 3.093 2.202h.266l-.266-.497-1.552-1.131-2.35-2.484v-.85l-1.817-1.556v-1.418l-.338-1.347 5.586 4.542 2.82 1.771h.538l-.266-.85.266-.287-.537-.491v.834l-3.635-3.335h.737l.404-.782 3.769 3.476 1.075.564v.85l-.266.568-.272-.282v-.358l-1.141.353.604 1.342-.205.281-1.347-1.131-1.546-1.065-1.884-1.634h-.916l.807 1.275 1.48.927 1.548 1.628 1.88 1.28v.635l-.401.43.606.917-.205.281v.845h-.937l-2.488-1.7v.354l1.208 1.914h-.404l-.266-.286h-4.443zm4.705-21.209-1.818-1.913-4.31-3.548-.876-1.352h.737l2.622 2.202 1.275 1.341 1.008.569 1.613 1.628 1.003.563.267.492-.267.568h-.537l-.2-.287-.543-.292zm0-2.976-1.346-1.631-1.752-.922-.337-.78-3.098-2.55v-.42l1.009.281 1.075 1.065h1.275l-1.009-.568-1.08-1.06-1.552-1.275v-.64l.267-.281.404-.917 1.413 1.49-.333.712.605.353.803.855 4.373 3.83 2.084 1.633 1.341 1.418h-1.075l-.266.215.266.569.875.496.605 1.209-.937-.282v.706l-3.231-2.625-.405-.858zm-5.985 3.548.266.353.471.143.405-.426.942.21h.604l3.026 2.696.804.922v-.07h.47l1.347 1.134 1.408.992-.676.64-1.275-1.347-.742-.353-2.289-.281-1.679-.917v-.64l-.543-.281-2.017-1.915h-.538l-.809-.85h.81zm.266-68.151v.565h-.271l-.538-.568h.804zm1.28 40.916-.814-.496-1.28-1.419v-.353l.809.353 1.28 1.419 1.275.634v.917l-1.014-.778-.266-.287zm-2.089 30.28h.266l.538.568v.21l-.809-.353v-.43zm3.635 5.248-3.635-3.052v-.568h.538l.266.64 1.28.492v-.569l-1.08-.568v-.563h.537l1.546 1.418-.604.988 1.413.922 1.275 1.351v.42l-.742-.425-.538.277-.271-.282v-.502zm-3.502-46.73h.67l.2.496.538.85-.338.353.743 1.204-1.28-.64-.538-2.269zm1.95 23.895-1.28-.85-.608-1.28.338-.354.737.779 1.346.85.743.85 2.079 1.843v.635l-2.76-1.844-.604-.64zM207.78 28.43l.272-.282 2.826 2.263v.994l-3.098-2.412v-.568zm.272 2.765-.272-.282V29.85l2.084 2.199h-.809l-.404.426-.604-.709v-.568zm-.272 10.214h.272l.266.21-.271.282-.272-.287V41.4zm0 7.091.538.282.2.568h-.205l-.538-.568v-.287zm4.71 9.641-1.346-1.346h-1.014l.338-.784-1.679-.921-.742-1.634.604-.286-.876-1.352v-.568l.538-.282.737.85.271.783h.538l.538.569 2.283 1.915 1.075 1.131.538.282 1.009 1.065v.286h-.538l-2.283-1.632v.568l1.28 1.346 1.546 1.065v.494l-2.217-1.56h-.604zm-3.696 11.848-1.014-1.137v-.711l3.897 3.333v.716h-.267l-1.546-1.7-1.075-.496zm7.066-59.93-1.08-.568-2.09-2.202V7.01h-.737l-1.075-1.065-2.96-2.483 1.142-.569 1.347 1.06 1.009.568 1.274 1.414 1.342.778.271.281 2.084 1.629 1.275 1.418V11.6l-1.014-.783-.804-.783zm-7.798 23.337 1.003.569v.706l-1.008-.568v-.707zm.266 25.815h.737l.804.845v.282h-.537l-1.014-.712v-.425zm0 12.55.942.49.471 1h-.676l-.742-.784v-.707zm1.28-45.246h.266v-.287l-.809-.783h-.537l1.075 1.06zm-.814-2.765h.266l-.271-.215v.21zm0 15.457h.266l.81.779v.85l-.267.563-.476-.497-.338-1.705zm.538 11.203-.543-.783h.538l.803.568v.778l-.27-.287-.539-.286zm5.248-39.854-2.09-1.065-3.43-2.98V6.16h.538l2.621 2.196.738.564 1.075.85 1.28.921v.425h-.737v-.563zM225.745 46.3l-.271-.784-.338.707-.676-.712-.537-.287h1.275l-1.004-1.418-1.08-.496-.471-.569-3.902-3.051-.742-.712-.876.425-.737-.783-.676-.354-.67-.783-1.419-1.915-.47-.143-.677-.425v-.492l-.809-.855h1.28l-1.208-1.346-.404 1.556-.743-.783h-.737l-.538-.287.538-.215.271-.282h1.009l.538-1.208 2.088 1.7.538.568.466.282 1.347 1.137 7.265 6.026.537.281 1.076 1.065.2.85.27-.281h.272v.85l.533.496v.569l.552.865.272.778.466.85-.272.282h-.742v-1.127h-.804zm-15.34 38.784h.472v-.564l-1.28-.711v.711l.804.564zm-.536-68.715.737.568-.2.212-.537-.492v-.273zm1.546 21.985-1.28-.85-.271-.497h.266l.737.497h1.075v-.778h.272l1.006 1.062v.568h-.405l-.47-.988-.403.425v.568l.538.287v.425l-.809-.423-.266-.285zm-1.546 15.956h.266l-.271-.282v.287zm1.546 7.946-.809-.778-.604-.353.404-.917.743.425.532 1.062 1.547 1.137 1.075 1.06h-.543l-.809-.779-1.546-.851zm2.627-56.305-1.08-1.131-.738-.568-.271-.282-.804-.497-.743-.85h.605l1.945 1.35.272.281.537.282 1.004.85.537.281 1.342 1.065h.47l-.471-.783-1.076-.563v-.563l-.807-.287-.2-.569-1.346-.855v-.634l1.817.499v-.99l1.076.353 1.346.356.737.779v1.063h-.532v.285l.809.844.266.784-1.075.563v.563l.67 1.347h-.399l-1.203-.63-2.688-2.345zm-3.636 32.128.738.85h-.743v-.85zm1.009 6.313-.809-.778V41.91l-.2-.496v-.922l1.009.358 3.164 2.552v.709l-1.684-1.06.338.778.537.287v.568h-.266l-.266-.281h-1.818zm-.271 7.445-.272-.563.267-.283.535.568.81.568v.497h.466l-.267.287h-.47l-.339-.712-.739-.353zm-.272 27.233h.538v.497h-.538zm.538-42.9v.284l-.271-.287h.267zm0 10.992.4-.427.409.427v.85l-.543-.281zm1.812-.85-1.277-1.346.676-.356 1.68 1.704.468.283 1.75 1.772-.404.425-1.815-1.915-1.075-.567zm-1.006 33.827h.67l2.689 2.483v.497l-3.36-2.412v-.563zm.47-7.941.542.286v.502l-.538-.292v-.502zm.819-49.214v.287l.542-1.132-.542.287h-.538v.287l.538.281zm-.267 11.28v-.282h-.271l.271.287zm.272-12.411v-.282h-.267l.267.287zm.343 26.665 6.45 5.243.073.071-.205.072-.405.425v-.282l-.333.144-6.19-5.392.61-.281zm-.338 4.398 1.08.85h-.804l-.537-.85h.271zm0 8.58.537.503h-.266l-.537-.497h.266zm3.159 19.79-.538-.569-.266.564h-.338l-.466-1.419-1.009-1.06h.543l.471.497 2.289 1.843.338.64h-.272l-.27-.286-.472-.21zm-2.084-65.46v-.425l.737.425v.558l-.266-.284-.471-.285zm.2 24.75h.809l-.804-.85-.2.282.2.569zm0 21.98.542.574h-.266l-.47-.568h.199zm.809 3.836-1.004-.784V64.19h.604l2.489 1.915.809.425v1.275l.266.496v.569l-1.347-.784-1.812-1.705zm-.533-22.554 1.613 1.7v.281l-1.608-1.28v-.712zm.271 1.987.267.21-.267.286-.266-.287.272-.215zm.543 7.94-.804-.85v-.783l2.084 1.629 1.618 1.064v.85h-.537l-1.552-1.633-.804-.287zm-.804 1.629V53.76l2.622 2.765h-.81l-1.008-1.137h-.804zm0 19.287h.533l.543.215-.267.276-.804-.281v-.215zm1.608-59.571v-.354l-1.341-1.065v.779zm-.67-3.83.67.706-.266.282-.814-.568.404-.425zm-.405 8.934h.271v-.286l-.271-.287v.568zm0 42.972 2.355 1.844h-.538l-1.817-1.275v-.574zm.537-46.52.272.282v.215l-.543-.21.266-.287zm.87 58.148-.598-.988-.538-.287v-.635l1.275.922 1.69 1.771-.338.425-.538-.568-.942-.64zm-.87 8.371v.282l-.266-.282zm1.28-21.488-.942-.282-.47-1.065h.67l1.014 1.131v1.06l-.272-.281zm-1.274-33.26.27.287v.281l-.27-.281zm.27 18.155h-.271v-.282zm-.271 30.28.271-.569h.738l.271.287h.538l.537.496-.271.285-1.551-.497h-.536zm.604-18.652 1.751 1.843v.781l-2.15-1.771.4-.856zm.138-32.76v-.287l-.469-.568.333-1.065 1.751 1.915-.739.353-.338-.64-.538.287zM228.936 59l-1.613-.851-2.09-2.197-3.698-2.625-4.91-4.536h.604l2.827 2.202.537.568.471.282.266.286 1.076.78 3.097 2.765 1.347.921 2.084 1.844 1.614 1.277-.676.78-.942-1.489zm-12.252-12.113.204-.285v-.573l.267-.213 1.817 1.275v.353l-.74.287-.809.425-.742-1.278zm0 36.802h.204l2.353 1.703h-.737l-1.616-1.134-.205-.569zm.47-54.39.542.563h-.272l-.537-.568h.266zm-.266 61.977 1.077.569v.563l-1.077-.569v-.568zm.267-79.001.81.778v.568h-.269l-.542-.568v-.778zm.27 3.543h.27v-.282h-.27zm.27 6.881v.282l-.27-.287h.27zm-.27 24.463h.541v-.286h-.543v.285zm.541-29.148v.287l-.271-.287h.266zm.804 26.947v.568h-.271l-.543-.565h.804zm-.809 28.296 1.009.569-.205.281-.81-.568v-.282zm.266 6.59.538.287h-.543l-.266-.287h.266zm.272-31.836.128-.138.604-.144.537.497 1.888 1.418 2.826 1.915 1.008.85v1.346l.272.287-.405.425-.338-.42v-.287l-1.612-.85-4.64-3.901v-.215l-.742-.354.472-.425zm0-29.143h-.272v-.282zm0 44.533h-.272v-.286zm.803-32.266.743.359v.711l-1.08-.711.332-.354zm.2 14.894v.287l-.271-.287h.266zm8.878 18.15-.537-.49-1.014-.85-1.075-1.137-1.547-.779-.273-.85-2.352-1.628-.537-.563-1.818-1.28v-1.131l4.442 3.543 1.075 1.065 1.546 1.131.27.282 1.547 1.065 1.822 1.92v.286h-.27l-.267-.286-1.009-.287zm-7.065-16.731.537.568h-.543v-.568zm.266 7.946v.287l-.272.281V55.4h.27zm.271-13.968h.533l-.268-.281h-.267v.281zm4.572 18.084-.67-.281-1.28-.64v-.564l-.61-.215-.468-.496-1.54-1.347h1.074l.205.287.471.85.072-.067h.809l.404.85h.61l1.141 1.49.471-.215v.353l.81.502-.344.353h-.763l-.739-.706.333-.138zm11.705 14.608h-.405l-.47-.569h-.805l-1.817-1.915h-.272l-.266-.281-.737-.568v-.497l-.538-.282-1.346-1.136h-.2l-1.884-1.915-2.56-1.905-2.086-2.191h-.81l-2.083-2.202v-.927l2.355 1.987.538.568 1.014.569 1.075 1.06 2.084 1.136v.85h.742l.271.502.533.287.271.281 1.014.855.271.282 1.347.993v.353l1.009.569 6.19 5.104-1.275.85-1.147-1.843zm-15.47-40.704v-.282l-.27-.282v.282l.27.287zm5.181-1.64-.538-.282-2.089-1.632-.204-.568-1.613-1.065-.737-.85v-.568l.404.496.405-.921-.806-1.275 1.548-1.06.267-.281.737-.21v-.85l-.205-.569.205-.286h1.602l1.275 1.418 3.903 2.765 1.549 1.628v1.352l-1.21 1.346-1.08-.778h-.537v.425l.738.425.333.64-1.756.921-.4 1.137-1.013-.497-.81-.85zm-4.912-1.136v-.215h-.266l.27.215zm1.55 4.183h.27l-.742-1.131h-1.075l1.536 1.131zm-1.076 4.398h.538v-.283h-.538v.287zm0 10.143.809.565v.282h-.271l-.538-.569v-.276zm6.257-20.352h.537l-.537-.783h-.283l-1.536-1.695-1.01-.497-1.347-1.131-1.008-.567v.286l1.546 1.632.268.563h.268l2.087 1.132 1.014 1.065zm-4.91 21.412h.47l2.084 2.198h-.487l-2.085-2.201zm.266 14.892h-.266v-.29l.266.285zm3.901 6.594-.537-.281-.272-.85-1.275-1.352-.41-.855-1.208-.778v-1.134l-.201-.566.205-.5 1.075.778.814.568 1.006.85.538.287.537.492 2.558 1.914v.282h-1.014l-2.15-1.352h-.742l1.546 1.634 2.084 1.771-1.815-.353-.741-.568zm-2.358-38.507-.803-.778h-.538l.809.778h.538zm.405-8.085.338-.425-.471-.563v-.563h-1.347l1.48 1.559zm7.398 36.378-3.092-2.197-3.699-3.261-.333-.778-1.618-.85 1.682-.853.27.287-.267.282.27.281.537-.281 1.552 1.633 2.351 1.628.54.568.538.287.471.784.942 1.346.4 1.137 1.008.778v.927l-1.546-1.705zm-8.263-41.759h.741l1.009.784v-.492l-.876-.924.471-.568 1.209-.425-.472-.994 1.214-.64-.604-.993 1.68-.497v-.711l-.269-.563.338-.354 1.275.497-.338-1.203.804-.85v-1.148l.809-.497.333-.78.67-.353.269-.568.271-.283v-.496l1.275-.922V5.96l1.077-1.133.738-.284.47-1.275.605-.355h1.28l1.075-.287h2.623l2.217-.353 2.492 2.196-1.078 2.55h-.804l-1.817-1.28v.425l2.085 1.771V9l-1.95 1.419-2.223-1.772h-1.075l3.098 2.622-.471.425v.993l-.743.353v1.137h-1.075l-.604 1.346-1.55 1.065.876.85-1.547.353v1.562h-.804l-.803-.778h-.738l1.28 1.346v.569l-1.008.281-1.347-1.136h-.537l1.745 1.843-.937.921v1.915h-.542v.85l-.471.569h-.804v1.065h-1.075l-6.242-5.172-1.208-1.705zm1.48 49.219h.27V68.3l-.538.281.266.569zm.535-20.634h-.273l.266-.285v.282zm-.266 4.68h.54l1.008 1.131h-.471l-1.075-1.133zm0 12.124.266-.284h-.273v.283zm9.687 6.313-1.618-1.63-.668-.36-.338-.782h-.543l-.803-.784-1.552-.85-.537-.85-.466-.281-.814-.784.404-.85 3.364 2.77h.4v-.286l-.272-.282-.271-.563-.471-.22-.538-.564-.737-.353-.338-.783-1.009-.492-1.075-1.136.538-.282h-1.01l-1.207-1.208.399-.42h1.004l.269.563.806.783.266.564h.737l.804.855 4.577 4.188.405.706.742.282.543.568-.338.354-1.213-.635-1.746-1.347h-.605v.287l2.084 1.915 3.026 2.201 1.147 1.634.538.568v.43l-1.547-.85-2.355-2.053zm-7.332-49.5v-.284l-.805-.496v.358l.804.43zm-.537 32.476h.536l1.28 1.347v.281l-1.142-.64-.676-.993zm3.43-32.481h.27l-1.618-1.634-1.28-.855h-.272l1.818 1.915 1.075.569zm-2.624-4.68h.267v-.287l-.27.282zm.806 56.095v.281h-.266l-.272-.286h.538zm18.77 17.874h-.4l-1.211-.855-1.815-1.915h-.472l-1.613-1.634-1.884-1.346.338-.287-.538-.85-.61-1.351h-.69v1.208l-1.684-1.278.407-.778 1.009.778v-.993l-3.297-2.555-3.091-.85-3.77-2.98h.54l.47.287.815-.281.266-.569.272.287h.47l-.737-1.065-.271.497h-.277l-.266-.778h1.347l2.283 2.488.267.491.404-.353 4.04 3.118 1.817 1.633 1.818 1.28 3.164 2.909.804.496 1.551 1.7v.783l-.404.425.67.707.743 1.633v.569h-.466v-.569zm-19.031-13.195-.271-.568h.537l1.145 1.275-.404.353-.272.563v-.281l-.47-.497-.267-.85zm3.763-14.182-3.763-2.842v-.85h.466l.807.85 1.551 1.06 1.818 1.633 1.08.85.266.85.272.501h-.538l-1.95-2.058zm-2.217 8.156-1.08-.855h1.346l1.145 1.203-.476.569-.937-.922zm0-15.39.266.21h-.539l-.266-.213h.54zm10.153 34.037-3.092-2.765-2.622-1.63-3.63-3.83v-.286l2.084 1.346 1.28 1.419 1.546 1.065 2.09 1.701h.537l-1.28-1.418-1.075-.783-1.815-1.705-1.28-.778-1.075-1.132-.81-.57-1.346-1.413.4-.855.942.495v.43h.266l1.347.85 1.274 1.346.804.563 1.009.779 2.422 1.49 3.358 3.051 1.275.712.81.85.475.286 1.347 1.065 1.009.569.609 1.275 1.413.711-.67.712-3.769-.568-3.84-2.98zm-9.887-14.54h.272v-.282h-.27v.284zm.743-51.129-.471-.565v.568h.47zm-.202 32.126.737.85h-.737zm.737-34.324h.27l-.538-.569h-.268l.538.564zm.809.778h.532l-.266-.213h-.271v.213zm0 49.218 1.003 1.132-.47.287-.538-.571v-.85zm.266-51.133h.466l-.205-.284h-.266v.287zm1.009 53.048.4-.356 1.14 1.204-.337.358-.942-.64-.268-.566zm.266 4.818.804.428.271.287 1.813 1.275v.918h-.538l-2.353-2.478v-.43zm6.523.993-1.55-1.136-.27-.778-1.548-.569-1.075-1.134-.671-.354.538-.568.942.707.74.358v.707h.537l1.079.358v-.916l-1.275-.635.87-.855.676.714.804.425-.333.918-.47.569 1.545 1.633 1.147.92-.404.712-1.009-.497-.27-.568zm-2.641-68.445v-.281l-1.28-1.063v1.065h.538l.742.284zm-1.011 58.01.537.497h-.537l-.272-.497zm1.546-62.408h.271l-.805-.85h-.267v.425l.81.425zm-.54 67.866v.284h-.268v-.284h.269zm1.812-61.838h.275l-.743-.85h-.271v.428l.737.425zm-.466 74.747v-.282h-.271l.271.285zm.743.85h.266l-.538-.568h-.2l.473.568zm1.814-83.824v-.564h-.471l.47.568zm1.075 76.661v.287l-.27-.287h.268zm2.355-79.992 1.275.283h1.077v1.639h-.81l-2.55-1.915h1.005z"/>
  <path fill="#72d4d7" d="M.571 116.04v-1.489l.283-1.116v-11.629l6.294-.975 10.255.6 3.395-.67 10.255.666 2.125-.45h4.388l2.688.67.568 1.264-.563 1.71.353 1.86v10.362l-1.131.6h-2.407l-1.131.296H25.815l-1.837-.445-1.767.45h-9.83l-1.981-.379-1.627.374H2.196l-1.625-1.72zm10.96.525h1.91l-1.98-.296-2.404-2.534-.778-.604-.282-.297-4.245-2.985-.425-1.341-.568-1.193.563-.226.282-1.27.778 1.265h.282l1.623.82.568.593 1.27.666.635 1.341h.706l2.048 1.72 2.335 1.64 1.342 2.088-1.204.374h4.03l.425-1.347-1.06.523-.85-.451-.353-.82h-.282l-1.203-.598-.707-1.116-1.131-.594-1.347-1.122-.568-.302v-1.116l-.497.22h-.563l-1.131-1.71h-.497l-.845-.819v-1.193l-1.264.687-2.048-2.086v-.3l-.21-.297.212-.297 1.7.45.778-.445 1.413.594 2.97 2.243v1.188h.565l1.274 1.044.92 1.27 1.131.594.778.901v.824l.566-.302v.671l1.345.522 1.694 1.413 1.344.973v.82h3.251l2.054.373 6.225-.594-3.04-.67-1.629-1.419-1.131-.896-1.342-1.418-.85-.445v-1.045l.566-.292-.706-.368-.639.665-1.203-.594-7.069-5.734-.282-.676 1.414.379h1.06v-.702l1.766.449 1.556 1.634 1.626.896 2.475 2.612h.564l3.538 2.903.85.522 1.626 1.787 1.131.517.214.297 1.414.967v.594l-1.84-.522-.353.446.567.302h4.879l1.628.291.563-.599v-9.83l-.21-1.413-.353-2.314H29.63l-1.982-.359-4.884.369h-6.845l-1.697-.374-4.881.369H5.52l-3.606.297v12.969l.567.599h3.323l-.566-.6-1.132-.598-.495-1.116-1.13-1.193.565-.303.635-1.638.993 1.045 3.322 2.309 1.697 1.868 1.838.446zm-3.534-4.32.773-.53h-.773l-.287.231.282.299zm12.585.596-1.275-.676-.353-.743-.497.448-.353-.746-.569-.302-.286-.6-1.06-.598-.282-.522-.85-.297-.215-.302-3.323-2.315-2.263-2.386 3.323-.67 1.695 1.341 1.628 1.71 3.323 2.908.492.302 1.131.814 2.191 1.567 4.455 3.948H23.32l-2.76-2.903zm15.345 2.305-.707.376-.922-.971-.281-1.116h-1.27l-.635-1.49-1.137-.524-.778-.897-.85-.298v-.596l-1.91-.743-.568-1.27H25.6l-.918-1.418-.567-.297-.284-.303-.495-.302-.568-1.413-.706.743-.64-.743.21-.302h.844l.282-.297h2.191l2.473 1.71 6.011 4.926.282.292 3.041 2.386v.819l.491-.523.282 1.117.707 1.039-1.629.896-.706-.824zm0-4.622h-.707l-.425-1.262-.778.369v-.524l-1.137-1.188-.778-.303-.287-.518h-.839v-.602l-1.627-.591-2.475-2.61v-.299l1.91.298.85.3 2.544.373 5.658 4.7v1.27l.281.896v.891l-1.341-.292-.85-.896zm-3.538.3h.21l-.216-.3h-.281l.281.3zm2.682-5.518-.778-.519-.85-.895h4.173l.635 1.938-.568 1.265h-.917l-1.7-1.792zm1.357 10.734v-1.485l.282-1.116v-11.632l6.292-.973 10.25.604 3.395-.67 10.256.67 2.12-.445h4.382l2.683.675.563 1.265-.568 1.715.353 1.864v10.368l-1.132.599h-2.4l-1.132.302H61.66l-1.838-.45-1.772.45h-9.804l-1.982-.374-1.625.374h-6.577l-1.625-1.72zm10.962.528h1.91l-1.981-.297-2.407-2.535-.778-.599-.287-.292-4.244-2.98-.425-1.341-.569-1.193.569-.22.281-1.27.779 1.27h.281l1.623.824.569.6 1.274.665.635 1.341h.707l2.053 1.72 2.33 1.639 1.346 2.089-1.203.374h4.03l.42-1.347-1.06.528-.85-.446-.354-.82h-.281l-1.188-.613-.707-1.117-1.131-.588-1.347-1.122-.568-.297v-1.116l-.497.22h-.563l-1.132-1.71h-.496l-.85-.819v-1.193l-1.275.67-2.053-2.083v-.297l-.21-.292.21-.297 1.695.45.778-.445 1.413.594 2.97 2.243v1.193h.568l1.27 1.044.916 1.27 1.132.594.778.896v.82l.563-.298v.666l1.341.522 1.695 1.418 1.342.973v.82h3.25l2.054.373 6.22-.594-3.04-.67-1.629-1.419-1.131-.896-1.342-1.418-.85-.446v-1.044l.564-.292-.707-.374-.635.671-1.203-.599-7.07-5.74-.284-.673 1.418.38h1.06v-.672l1.772.446 1.556 1.638 1.628.896 2.476 2.606h.568l3.538 2.908.845.523 1.628 1.792 1.137.517.21.297 1.413.973v.599l-1.838-.523-.354.446.569.302h4.88l1.627.294.563-.594v-9.851l-.21-1.413-.353-2.314h-9.267l-1.976-.369-4.88.369h-6.86l-1.695-.369-4.88.369H41.37l-3.605.302v12.969l.568.599h3.323l-.563-.6-1.131-.598-.497-1.117-1.126-1.192.568-.308.635-1.638.988 1.044 3.328 2.31 1.695 1.863 1.843.446zm-3.538-4.322.779-.527h-.779l-.286.23.281.302zm12.585.6-1.275-.677-.353-.742-.497.45-.353-.747-.568-.297-.287-.599-1.06-.594-.281-.522-.85-.292-.21-.297-3.323-2.314-2.263-2.386 3.323-.666 1.695 1.347 1.623 1.715 3.322 2.908.497.302 1.132.82 2.191 1.566 4.454 3.953h-4.167l-2.76-2.903zm15.345 2.303-.707.38-.921-.968-.282-1.117h-1.264l-.635-1.49-1.131-.522-.777-.896-.85-.297v-.594l-1.91-.742-.566-1.27h-1.273l-.92-1.413-.565-.297-.285-.297-.493-.297-.563-1.413-.707.742-.635-.742.21-.297h.85l.282-.297h2.191l2.478 1.71 6.011 4.93.282.293 3.041 2.386v.824l.497-.522.281 1.116.712 1.044-1.628.901-.707-.824zm0-4.618h-.707l-.425-1.26-.778.37v-.528l-1.131-1.188-.779-.302-.286-.517h-.85v-.61l-1.628-.591-2.479-2.61v-.299l1.91.298.85.3 2.545.373 5.657 4.7v1.27l.282.896v.891l-1.347-.292-.85-.896zm-3.538.302h.21l-.215-.297h-.282l.282.302zm2.683-5.52-.778-.516-.85-.891h4.172l.64 1.935-.568 1.27h-.921l-1.695-1.792zm1.357 10.737v-1.484l.281-1.117v-11.632l6.293-.973 10.25.604 3.395-.67 10.25.67 2.125-.445h4.382l2.688.67.563 1.27-.568 1.715.353 1.864v10.368l-1.131.6h-2.406l-1.132.301H97.536l-1.84-.445-1.77.45h-9.825l-1.981-.373-1.625.378h-6.58l-1.626-1.72zm10.962.528h1.904l-1.976-.297-2.407-2.535-.778-.599-.281-.297-4.245-2.98-.425-1.34-.568-1.194.563-.225.282-1.27.778 1.27h.282l1.628.824.563.6 1.27.67.635 1.341h.706l2.053 1.72 2.335 1.64 1.341 2.088-1.203.374h4.035l.42-1.347-1.06.528-.85-.446-.348-.819h-.282l-1.193-.614-.706-1.117-1.132-.593-1.347-1.122-.563-.297v-1.116l-.496.22h-.569l-1.131-1.71h-.497l-.85-.819v-1.193l-1.275.67-2.053-2.083v-.297l-.215-.292.21-.297 1.695.45.778-.445 1.413.594 2.97 2.243v1.188h.563l1.27 1.044.916 1.27 1.132.594.778.896v.824l.563-.302v.666l1.342.522 1.694 1.418 1.342.973v.824h3.256l2.048.374 6.22-.599-3.04-.67-1.629-1.419-1.131-.89-1.347-1.42-.85-.445v-1.044l.564-.292-.707-.374-.635.671-1.203-.599-7.07-5.74-.282-.676 1.413.374h1.06v-.67l1.772.45 1.551 1.635 1.628.901 2.473 2.611h.563l3.538 2.909.85.527 1.628 1.792 1.132.517.215.297 1.413.97v.597l-1.838-.523-.353.446.563.302h4.88l1.625.294.563-.594v-9.855l-.211-1.413-.354-2.314h-9.237l-1.982-.371-4.879.372h-6.856l-1.694-.37-4.88.374H77.22l-3.605.302v12.974l.567.599h3.323l-.566-.6-1.131-.598-.494-1.116-1.132-1.19.563-.303.64-1.638.994 1.046 3.323 2.304 1.7 1.864 1.833.445zm-3.538-4.321.778-.528h-.778l-.282.23zm12.59.599-1.275-.676-.353-.743-.497.45-.353-.747-.569-.297-.286-.594-1.06-.593-.287-.523-.85-.292-.21-.296-3.323-2.315-2.263-2.386 3.323-.665 1.7 1.346 1.623 1.716 3.323 2.908.497.302 1.131.819 2.191 1.567 4.455 3.952h-4.173l-2.76-2.903zm15.344 2.304-.706.378-.922-.967-.287-1.116h-1.274l-.64-1.49-1.132-.523-.778-.896-.85-.297v-.593l-1.91-.743-.563-1.27h-1.275l-.922-1.413-.563-.297-.281-.297-.497-.302-.563-1.413-.707.743-.64-.743.21-.297h.866l.282-.297h2.191l2.475 1.71 6.01 4.926.285.297 3.041 2.386v.824l.497-.522.282 1.116.706 1.044-1.628.901-.707-.824zm0-4.619h-.706l-.425-1.26-.778.37v-.528l-1.132-1.188-.778-.302-.287-.517h-.85v-.62l-1.628-.591-2.473-2.61v-.299l1.91.298.845.3 2.544.373 5.658 4.7v1.27l.281.896v.891l-1.34-.292-.85-.896zm-3.538.302h.21l-.215-.297h-.286l.281.303zm2.683-5.519-.778-.517-.85-.896h4.173l.635 1.94-.568 1.27h-.917l-1.7-1.792zm1.357 10.737v-1.485l.282-1.116v-11.633l6.292-.973 10.256.6 3.394-.671 10.255.665 2.12-.445h4.383l2.688.67.563 1.27-.568 1.71.353 1.864v10.368l-1.131.599h-2.402l-1.131.302h-10.112l-1.838-.45-1.767.45h-9.83l-1.982-.374-1.628.38h-6.568l-1.628-1.721zm10.962.527h1.91l-1.982-.297-2.406-2.534-.768-.604-.287-.292-4.244-2.985-.425-1.342-.569-1.193.564-.22.281-1.27.773 1.27h.282l1.623.824.568.6 1.27.665.635 1.342h.707l2.048 1.72 2.334 1.638 1.342 2.09-1.198.373h4.03l.424-1.347-1.06.528-.85-.45-.353-.82h-.287l-1.198-.599-.706-1.116-1.132-.589-1.346-1.121-.564-.302v-1.116l-.496.22h-.569l-1.131-1.71h-.492l-.85-.82v-1.193l-1.274.671-2.048-2.084v-.302l-.21-.297.21-.297 1.7.45.778-.445 1.413.594 2.97 2.238v1.193h.563l1.274 1.044.922 1.27 1.132.594.778.896v.824l.568-.297v.666l1.342.522 1.694 1.418 1.342.973v.82h3.256l2.053.373 6.221-.594-3.041-.67-1.628-1.419-1.132-.89-1.347-1.424-.844-.445v-1.045l.563-.292-.707-.374-.635.666-1.203-.594-7.07-5.74-.287-.675 1.413.379h1.06v-.671l1.766.445 1.551 1.634 1.629.9 2.473 2.612h.568l3.533 2.908.85.528 1.628 1.786 1.131.518.21.296 1.413.973v.6l-1.838-.523-.353.446.568.307h4.88l1.628.292.568-.6v-9.856l-.215-1.418-.353-2.314h-9.231l-1.98-.374-4.879.368h-6.863l-1.696-.368-4.877.37h-3.82l-3.609.302v12.969l.563.599h3.323l-.566-.599-1.131-.6-.492-1.115-1.132-1.193.565-.302.635-1.639.988 1.045 3.323 2.309 1.695 1.864 1.838.445zm-3.538-4.321.778-.528h-.778l-.287.23.282.303zm12.585.599-1.275-.676-.353-.742-.492.45-.353-.747-.568-.297-.287-.6-1.06-.593-.281-.523-.85-.291-.215-.297-3.323-2.315-2.263-2.386 3.323-.665 1.7 1.346 1.623 1.716 3.322 2.908.497.302 1.126.82 2.197 1.57 4.454 3.954h-4.172l-2.76-2.903zm15.345 2.304-.707.379-.921-.968-.287-1.116h-1.27l-.64-1.49-1.131-.522-.779-.896-.85-.297v-.594l-1.904-.743-.569-1.27h-1.27l-.92-1.412-.57-.297-.286-.297-.497-.302-.563-1.414-.706.743-.635-.743.215-.297h.85l.281-.297h2.192l2.478 1.71 6.006 4.926.281.297 3.036 2.386v.824l.497-.522.282 1.116.706 1.045-1.628.9-.707-.824zm0-4.618h-.707l-.425-1.26-.778.369v-.528l-1.132-1.188-.778-.302-.281-.517h-.85v-.63l-1.623-.591-2.478-2.61v-.299l1.91.298.844.3 2.545.373 5.657 4.7v1.27l.282.896v.891l-1.347-.292-.85-.896zm-3.538.302h.21l-.21-.297h-.287l.282.302zm2.683-5.52-.779-.517-.85-.896h4.173l.635 1.94-.563 1.27h-.922l-1.694-1.792zm1.356 10.737v-1.49l.282-1.116v-11.633l6.298-.973 10.25.6 3.394-.671 10.256.665 2.125-.445h4.382l2.688.676.564 1.264-.564 1.716.354 1.863v10.363l-1.132.594h-2.406l-1.132.302h-10.09l-1.84-.445-1.77.45h-9.83l-1.982-.374-1.623.38h-6.574l-1.623-1.721zm10.962.527h1.91l-1.976-.297-2.407-2.534-.778-.6-.287-.291-4.244-2.985-.42-1.341-.563-1.193.563-.22.282-1.265.778 1.27h.282l1.628.819.563.594 1.275.67.635 1.342h.706l2.053 1.72 2.33 1.639 1.341 2.089-1.203.373h4.03l.425-1.346-1.065.527-.85-.445-.354-.82h-.281l-1.203-.599-.707-1.116-1.131-.594-1.342-1.12-.568-.303v-1.116l-.497.22h-.568l-1.132-1.71h-.496l-.85-.82v-1.192l-1.27.67-2.053-2.088v-.297l-.21-.292.21-.297 1.695.45.778-.445 1.413.594 2.975 2.237v1.188h.563l1.27 1.05.916 1.27 1.132.593.778.896v.825l.563-.302v.665l1.342.522 1.694 1.419 1.347.967v.825h3.251l2.048.373 6.22-.599-3.035-.67-1.634-1.419-1.126-.896-1.341-1.418-.85-.445v-1.045l.568-.292-.676-.41-.64.672-1.198-.594-7.07-5.74-.282-.67 1.413.378h1.06v-.67l1.771.45 1.557 1.633 1.623.902 2.478 2.61h.563l3.538 2.909.85.522 1.628 1.792 1.132.517.215.297 1.413.968v.599l-1.838-.522-.354.44.569.302h4.9l1.625.292.565-.6v-9.835l-.211-1.413-.353-2.314h-9.264l-1.98-.369-4.882.374h-6.858l-1.697-.368-4.879.368h-3.82l-3.606.302v12.97l.565.598h3.325l-.566-.599-1.132-.599-.497-1.116-1.136-1.193.563-.302.635-1.638.988 1.044 3.323 2.31 1.695 1.868 1.838.445zm-3.532-4.321.778-.527h-.778l-.282.23zm12.59.594-1.275-.676-.353-.742-.492.45-.358-.747-.569-.297-.281-.6-1.06-.593-.282-.522-.85-.292-.215-.302-3.323-2.315-2.263-2.386 3.323-.67 1.695 1.346 1.628 1.71 3.318 2.909.497.302 1.131.819 2.191 1.567 4.455 3.952h-4.173l-2.755-2.903zm15.344 2.309-.706.379-.922-.973-.281-1.116h-1.275l-.64-1.49-1.132-.522-.778-.896-.845-.297v-.594l-1.915-.742-.568-1.27h-1.27l-.916-1.418-.569-.297-.281-.297-.502-.297-.568-1.413-.707.742-.63-.742.21-.297h.85l.282-.297h2.196l2.468 1.71 6.016 4.925.282.297 3.062 2.365v.822l.497-.522.286 1.118.707 1.04-1.628.895-.707-.824zm0-4.618h-.706l-.425-1.265-.778.369v-.528l-1.132-1.187-.778-.302-.282-.518h-.85v-.635l-1.623-.591-2.478-2.61v-.299l1.91.298.85.3 2.544.373 5.658 4.7v1.27l.287.896v.891l-1.347-.292-.85-.896zm-3.538.297h.215l-.215-.297h-.286l.281.302zm2.688-5.52-.778-.517-.85-.89h4.173l.64 1.935-.568 1.27h-.906l-1.695-1.792zm1.352 10.737v-1.49l.282-1.116v-11.633l6.292-.976 10.25.601 3.395-.67 10.255.665 2.125-.45h4.383l2.688.67.563 1.265-.563 1.713.348 1.86v10.366l-1.132.597h-2.4l-1.132.302h-10.112l-1.84-.448-1.771.451h-9.803l-1.977-.379-1.631.374h-6.58l-1.628-1.72zm10.962.522h1.905l-1.982-.297-2.401-2.534-.768-.604-.287-.292-4.244-2.985-.425-1.341-.569-1.193.569-.226.286-1.27.774 1.27h.281l1.628.825.569.594 1.275.67.634 1.342h.707l2.048 1.72 2.33 1.638 1.346 2.09-1.208.373h4.034l.42-1.346-1.06.527-.85-.446-.353-.824h-.281l-1.204-.604-.711-1.116-1.132-.589-1.346-1.121-.569-.302v-1.111l-.496.22h-.564l-1.131-1.71h-.492l-.85-.82v-1.192l-1.274.67-2.053-2.089v-.302l-.21-.297.21-.297 1.694.45.778-.45 1.419.594 2.97 2.238v1.188h.563l1.274 1.044.917 1.27 1.131.594.784.896v.819l.563-.297v.666l1.341.522 1.695 1.418 1.342.973v.819h3.25l2.049.374 6.226-.594-3.042-.67-1.628-1.42-1.136-.895-1.337-1.418-.85-.446v-1.044l.569-.292-.712-.374-.635.666-1.203-.594-7.076-5.74-.282-.676 1.414.374h1.06v-.67l1.771.45 1.551 1.633 1.623.896 2.484 2.612h.563l3.533 2.903.85.527 1.623 1.787 1.131.517.21.297 1.413.968v.593l-1.838-.522-.358.44.568.303h4.88l1.622.291.564-.593v-9.867l-.21-1.413-.359-2.315h-9.216l-1.981-.37-4.88.368h-6.86l-1.695-.369-4.88.369h-3.798l-3.604.302v12.969l.563.599h3.323l-.569-.6-1.13-.598-.493-1.116-1.132-1.19.563-.303.63-1.638.993 1.044 3.323 2.308 1.695 1.866 1.833.447zm-3.533-4.321.773-.527h-.773l-.281.23.281.302zm12.585.599-1.27-.676-.358-.742-.497.445-.353-.747-.568-.297-.282-.6-1.06-.593-.281-.522-.85-.292-.215-.297-3.323-2.314-2.263-2.386 3.323-.671 1.694 1.341 1.629 1.716 3.322 2.908.497.302 1.132.819 2.186 1.572 4.46 3.947h-4.173l-2.755-2.903zm15.345 2.304-.707.374-.921-.973-.287-1.116h-1.27l-.635-1.49-1.131-.522-.778-.896-.845-.297v-.594l-1.91-.743-.568-1.27h-1.275l-.917-1.412-.568-.297-.282-.303-.496-.296-.569-1.414-.706.743-.635-.743.21-.297h.85l.281-.302h2.202l2.473 1.716 6.01 4.925.288.292 3.036 2.386v.824l.496-.522.287 1.116.707 1.044-1.629.896-.711-.824zm0-4.623h-.696l-.425-1.265-.778.369v-.523l-1.137-1.187-.776-.302-.282-.518h-.847v-.635l-1.628-.591-2.478-2.61v-.299l1.91.298.85.3 2.544.373 5.658 4.7v1.27l.281.896v.891l-1.346-.292-.85-.896zm-3.533.302h.21l-.21-.302h-.282zm2.683-5.52-.773-.517-.85-.896h4.173l.635 1.936-.569 1.27h-.921l-1.7-1.793zm1.357 10.737v-1.49l.281-1.116v-11.633l6.298-.973 10.25.599 3.39-.668 10.255.665 2.12-.447h4.382l2.688.671.564 1.265-.564 1.715.348 1.864v10.363l-1.131.599h-2.401l-1.137.302h-10.086l-1.844-.448-1.771.45h-9.83l-1.987-.376-1.628.374h-6.574l-1.628-1.72zm10.962.527h1.904l-1.981-.297-2.407-2.534-.768-.599-.286-.297-4.245-2.98-.42-1.341-.568-1.193.568-.225.282-1.265.773 1.27h.282l1.623.819.563.594 1.275.665.635 1.347h.706l2.053 1.72 2.33 1.639 1.341 2.089-1.198.373h4.03l.42-1.346-1.065.522-.85-.445-.354-.82h-.281l-1.198-.604-.707-1.116-1.136-.589-1.342-1.121-.568-.302v-1.116l-.502.22h-.563l-1.132-1.71h-.491l-.85-.824v-1.193l-1.275.67-2.053-2.084v-.297l-.21-.296.205-.297 1.7.445.778-.445 1.413.593 2.97 2.238v1.188h.568l1.27 1.044.916 1.27 1.132.594.783.896v.824l.568-.297v.666l1.342.522 1.7 1.413 1.346.973v.82h3.251l2.048.373 6.221-.594-3.036-.67-1.633-1.419-1.132-.896-1.341-1.418-.85-.446v-1.044l.568-.292-.712-.374-.634.666-1.198-.6-7.071-5.739-.282-.67 1.413.373h1.076v-.67l1.771.445 1.551 1.639 1.623.896 2.479 2.61h.563l3.538 2.909.844.527 1.623 1.792 1.132.517.215.297 1.413.973v.594l-1.838-.522-.358.445.563.307h4.89l1.623.292.563-.594v-9.851l-.21-1.413-.358-2.314h-9.247l-1.981-.369-4.89.371h-6.85l-1.695-.374-4.885.374h-3.814l-3.61.3v12.968l.564.6h3.317l-.568-.6-1.131-.599-.492-1.116-1.132-1.188.566-.302.635-1.638.993 1.044 3.323 2.31 1.7 1.863 1.839.445zm-3.538-4.32.773-.528h-.778l-.282.23.282.297zm12.59.593-1.275-.676-.359-.742-.491.45-.353-.747-.569-.297-.281-.6-1.06-.593-.287-.522-.85-.292-.215-.297-3.318-2.314-2.268-2.386 3.323-.671 1.695 1.347 1.628 1.715 3.318 2.908.496.302 1.132.82 2.191 1.566 4.455 3.953h-4.173l-2.755-2.903zm15.34 2.31-.707.373-.917-.973-.281-1.116h-1.275l-.64-1.49-1.132-.522-.778-.896-.85-.297v-.594l-1.91-.742-.563-1.27h-1.28l-.916-1.413-.569-.297-.281-.297-.497-.297-.568-1.413-.707.742-.635-.742.21-.297h.85l.277-.297h2.201l2.473 1.71 6.011 4.925.282.297 3.041 2.386v.824l.497-.522.281 1.116.717 1.04-1.628.9-.707-.823zm0-4.624h-.707l-.425-1.26-.773.369v-.527l-1.137-1.188-.783-.302-.282-.517h-.845v-.641l-1.623-.591-2.478-2.61v-.299l1.91.298.845.3 2.55.373 5.657 4.7v1.27l.282.896v.891l-1.347-.292-.85-.896zm-3.539.302h.215l-.22-.302h-.256l.282.302zm2.683-5.52-.773-.522-.855-.896h4.168l.645 1.94-.574 1.27h-.921l-1.7-1.791z"/>
</svg>
