<svg xmlns="http://www.w3.org/2000/svg" viewBox="0 0 256 262.449">
  <path fill="#005197" d="M115.128 0C80.361 1.401 85.57 9.128 79.088 34.603c-6.434 30.595-20.143 94.902-20.192 94.972-.046.066-1.986-.25-3.882-.562-10.385-1.709-26.866-2.478-35.612-1.656C7.117 128.51 0 132.604 0 138.51c0 2.62 1.355 4.468 4.42 6.033 2.223 1.135 2.552 1.2 8.884 1.656 18.099 1.302 32.844 5.24 46.163 12.328 16.78 8.929 31.928 21.145 49.97 40.295 4.731 5.02 11.141 12.169 25.49 28.439 12.287 13.933 18.495 19.83 26.454 25.116 7.249 4.814 15.338 8.229 22.681 9.575 4.702.861 13.548.566 18.01-.604 7.41-1.942 13.223-5.236 18.688-10.583 5.518-5.4 9.175-11.619 11.067-18.832 1.081-4.124 1.323-11.72.504-15.772-1.71-8.457-5.609-15.343-12.284-21.661-4.253-4.026-9.275-7.234-18.535-11.867-5.022-2.513-7.97-4.19-7.864-4.453.093-.232 13.054-20.45 28.813-44.935 15.758-24.485 29.187-45.489 29.832-46.679a130.067 130.067 0 0 1 1.897-3.389c.912-1.534 1.818-4.96 1.81-6.833-.05-11.171-13.098-26.814-34.055-40.814-24.57-16.406-56.351-29.116-84.035-33.604C129.528.568 122.85.007 115.128.007zm39.067 41.544c3.92-.004 7.836.287 10.452.856 20.911 4.541 36.343 19.789 41.228 40.744.918 3.939 1.394 17.47.603 17.142-.266-.11-2.851-1.18-5.747-2.369-9.684-3.977-10.546-4.858-12.69-13.128-1.844-7.118-4.456-11.634-9.497-16.386-2.537-2.392-5.638-4.618-6.065-4.354-.142.088-.607 1.09-1.031 2.226l-.768 2.062 1.766 1.82c2.352 2.416 4.665 7.047 4.694 9.39.04 3.333-1.944 5.382-5.22 5.385-2.624.001-3.863-.97-5.583-4.366-1.19-2.348-1.645-2.907-2.95-3.597-2.058-1.088-4.43-1.091-6.033-.011-1.523 1.025-2.874 3.447-2.874 5.166 0 2.157 1.26 4.165 5.67 9.048 2.29 2.534 4.672 5.397 5.298 6.372 6.196 9.655-.006 23.074-12.087 26.158-1.15.294-2.903.538-3.904.538h-1.82l-.878 2.193c-.484 1.207-.822 2.3-.746 2.424.317.52 6.466 1.083 9.948.91 7.544-.373 14.689-3.133 20.641-7.962 1.207-.98 2.313-1.78 2.457-1.777.65.013 16.405 6.65 16.506 6.953.182.544-6.86 7.498-9.75 9.63-7.218 5.324-15.814 8.82-24.71 10.057-4.202.585-11.752.43-16.123-.34-18.936-3.333-34.416-16.518-40.744-34.702-2.25-6.46-2.786-9.842-2.786-17.394 0-5.544.129-7.272.768-10.233 2.349-10.883 6.862-19.228 14.609-27.003 7.684-7.711 16.022-12.24 26.87-14.587 2.652-.573 6.577-.862 10.497-.866zm-.154 17.165c-.492-.002-.96.011-1.393.033-14.938.733-27.57 10.27-32.212 24.315-4.013 12.142-1.496 24.752 6.888 34.56 2.321 2.715 8.254 7.52 8.708 7.052.136-.14.553-1.04.932-2.007l.691-1.766-1.382-1.042c-2.553-1.92-5.067-5.805-6.405-9.893-.96-2.931.012-5.452 2.61-6.778 3.396-1.732 6.033-.247 8.413 4.738 1.242 2.603 2.905 4.134 5.385 4.957 4.818 1.6 10.408-2.137 10.408-6.953 0-2.247-1.377-4.606-5.33-9.103-6.6-7.508-8.237-10.793-7.919-15.893.254-4.073 1.782-7.632 4.563-10.605 2.526-2.7 5.066-4.008 9.53-4.925l3.126-.647 1.02-2.402c.56-1.323.945-2.478.856-2.566-.521-.521-5.048-1.064-8.49-1.075z"/>
</svg>
