<svg xmlns="http://www.w3.org/2000/svg" viewBox="0 0 255.999 255.998">
  <path fill="#c0d84b" d="M248.352 84.46a127.947 127.947 0 0 0-29.656-46.778l-.414.761V79.97l.414.76c.16.013.114.478.274.492 9.168.792 19.041 1.885 28.917 3.5.206.033.258-.296.465-.262"/>
  <path fill="#65c1ed" d="M218.696 80.73V37.683a128.397 128.397 0 0 0-36.453-25.626l-.62 1.353v65.208l.62 1.06c.153-.005.742.5.895.496 11.07-.324 22.741-.024 35.036.986.32.026.202-.457.522-.43"/>
  <path fill="#2f95d2" d="M174.068 80.049c.217-.013.614.348.832.335 2.22-.128 4.434-.176 6.705-.252.26-.009.377-.446.638-.454V12.056a126.999 126.999 0 0 0-36.45-10.797l-.742.874v60.526l.743 1.213c10.785 2.985 20.437 8.643 28.274 16.177"/>
  <path fill="#1c75bc" d="m182.243 89.462.335-.535v-8.759l-.335-.49c-2.76.085-5.488.21-8.175.37 2.998 2.881 5.756 6.014 8.175 9.413"/>
  <path fill="#2a75bb" d="M128 61.447c6.167 0 12.128.856 17.794 2.425V1.259A128.885 128.885 0 0 0 128 0c-6.34 0-12.567.48-18.661 1.37l-.603.698v61.306l.603.745a66.58 66.58 0 0 1 18.66-2.672"/>
  <path fill="#bf65a7" d="M109.339 64.118V1.37a127.026 127.026 0 0 0-36.444 11.078l-.734 1.466v76.013l.734.75C81.48 78.024 94.31 68.5 109.339 64.118"/>
  <path fill="#f37321" d="M72.895 90.678v-78.23c-13.67 6.53-25.983 15.426-36.45 26.14l-.665.837v98.141l.665 1.191c.141-.142.345.426.487.284a192.613 192.613 0 0 1 24.815-20.934c.238-.168.415-1.047.654-1.215a66.159 66.159 0 0 1 10.494-26.214z"/>
  <path fill="#ffcf01" d="M36.445 138.757V38.587C13.908 61.66 0 93.197 0 128c0 16.201 3.049 31.675 8.544 45.937.183-.292.573.14.76-.153 6.754-10.65 15.431-22.162 26.411-33.355.31-.316.416-1.357.73-1.672"/>
  <path fill="#faa61a" d="M8.545 173.937a128.23 128.23 0 0 0 27.9 43.475l.507-1.293v-76.145l-.506-1.217c-11.731 11.797-20.882 23.988-27.901 35.18"/>
  <path fill="#ed1c24" d="M61.449 128c0-3.788.343-7.493.952-11.108a192.681 192.681 0 0 0-25.955 21.865v78.655c10.466 10.713 22.78 19.608 36.45 26.14l.696-.75v-75.625l-.696-1.856c-7.223-10.645-11.447-23.49-11.447-37.32"/>
  <path fill="#27aae1" d="M182.243 79.678v9.784c7.74 10.878 12.31 24.17 12.31 38.539 0 14.367-4.57 27.659-12.31 38.538v77.403a128.364 128.364 0 0 0 36.453-25.628l1.181-2.467V81.8l-1.18-1.07c-12.819-1.087-24.962-1.407-36.454-1.052"/>
  <path fill="#92278f" d="M72.895 165.321v78.23a127.125 127.125 0 0 0 36.444 11.081l.828-1.027V192.69l-.828-.808c-15.029-4.382-27.858-13.909-36.444-26.56"/>
  <path fill="#21409a" d="M128 194.55c-6.48 0-12.734-.941-18.661-2.67v62.752a128.899 128.899 0 0 0 18.66 1.366c6.044 0 11.978-.447 17.795-1.258l.558-1.396V192.95l-.558-.822A66.6 66.6 0 0 1 128 194.55"/>
  <path fill="#1c75bc" d="M145.794 192.127v62.612a126.985 126.985 0 0 0 36.45-10.798l.944-1.855v-74.388l-.944-1.16c-8.743 12.28-21.543 21.461-36.45 25.59"/>
  <path fill="#8dc63f" d="M255.143 113.368c-1.139-10.038-3.467-19.711-6.79-28.908-10.27-1.696-20.149-2.922-29.657-3.731v137.584c19.811-19.895 33.102-46.278 36.447-75.68.547-4.807.856-9.681.856-14.633 0-4.953-.309-9.828-.856-14.632"/>
</svg>
