<svg xmlns="http://www.w3.org/2000/svg" viewBox="0 0 256 287.806">
  <path fill="#ff6c36" d="M243.867 204.203c3.596 2.446-3.453-2.445 0 0 3.165 2.014 4.316 6.186 2.877 9.64-1.295 3.02-4.316 4.89-7.625 4.747-3.309-.144-6.186-2.446-7.193-5.611-1.007-3.165.144-6.762 2.877-8.632 2.734-1.87 6.33-2.014 9.064-.144zM143.45 277.43c1.727 0 3.597 0 5.323-.144a127.48 127.48 0 0 0 10.646-.863c2.877-.288-5.898.719 0 0 3.597-.432 6.474 2.877 5.755 6.473-.432 1.583-1.583 2.878-3.021 3.597-1.007.432-2.015.432-3.022.575-1.15.144-2.445.288-3.596.288-9.495.72-18.99.576-28.485-.431-8.632-1.007-16.976-2.59-25.32-5.18a136.538 136.538 0 0 1-23.306-9.494c-7.624-3.885-14.674-8.488-21.435-13.667-7.769-5.755-14.818-12.373-21.148-19.71-6.33-7.193-11.94-15.105-16.688-23.305-4.892-8.488-8.92-17.408-11.941-26.759-3.165-9.495-5.179-19.278-6.33-29.204-1.15-10.07-1.15-20.285-.144-30.355 1.007-9.927 3.021-19.853 6.186-29.348C9.945 90.552 13.83 81.632 18.721 73c4.748-8.488 10.502-16.4 16.832-23.737a151.445 151.445 0 0 1 21.004-19.71c7.769-5.898 16.113-11.077 24.745-15.249 8.919-4.316 18.27-7.625 27.909-10.07 9.783-2.446 19.853-3.74 29.923-4.172a151.82 151.82 0 0 1 30.212 2.158c9.639 1.726 19.133 4.46 28.34 8.056 9.064 3.597 17.696 8.2 25.752 13.523 8.057 5.323 15.537 11.51 22.443 18.415 2.877 2.877 5.467 5.754 7.337 9.494 1.582 3.165 2.446 6.762 2.733 10.215.432 7.193-2.014 14.53-6.905 19.853-5.61 6.33-14.099 9.783-22.443 9.207-4.028-.288-8.056-1.439-11.653-3.453a21.83 21.83 0 0 1-5.035-3.74c-1.726-1.583-3.309-3.453-5.035-5.035-7.05-6.618-15.106-11.94-23.881-15.97-9.064-4.027-18.703-6.617-28.485-7.48-10.07-.863-20.285-.144-30.068 2.302-9.495 2.446-18.558 6.474-26.902 11.797-8.056 5.323-15.25 11.94-21.148 19.421-6.042 7.625-10.79 16.257-14.098 25.464-3.31 9.351-5.036 19.278-5.036 29.204 0 10.07 1.583 19.997 4.892 29.492 3.165 9.207 7.912 17.695 13.81 25.32 5.899 7.625 13.092 14.242 21.148 19.565a86.957 86.957 0 0 0 26.903 11.941c9.782 2.59 19.997 3.309 30.067 2.446 9.783-.864 19.422-3.31 28.485-7.337 1.007-.432 1.87-1.007 2.877-1.151.863-.144 1.727-.144 2.59.144 1.726.575 3.02 1.87 3.453 3.596.431 1.583.143 3.453-1.008 4.748-.575.719-1.438 1.15-2.301 1.582-1.151.432-2.158 1.007-3.31 1.439-9.206 3.884-18.845 6.33-28.772 7.193-10.07 1.007-20.284.431-30.067-1.583 1.295 1.439 2.446 3.022 3.596 4.604a97.569 97.569 0 0 1 3.31 4.891c.143.288.575.864.575.864h.431c.576 0 1.007.143 1.583.143 1.007.144 2.014.144 3.02.288 4.173.288 8.345.288 12.517.144 8.2-.432 16.4-1.582 24.313-3.884 7.625-2.158 15.105-5.18 22.155-8.92 6.905-3.74 13.379-8.056 19.277-13.235l4.316-3.885c1.295-1.15 2.302-2.589 3.885-3.308 2.733-1.439 6.042-1.007 8.344.863 2.445 1.87 3.452 5.035 2.733 8.056-.432 1.583-1.15 2.877-2.302 3.884-1.438 1.295-2.733 2.734-4.172 4.029-5.754 5.179-11.94 9.926-18.558 13.954-6.762 4.172-13.811 7.625-21.292 10.358-7.625 2.878-15.393 4.892-23.45 6.187-8.2 1.294-16.544 1.87-24.888 1.582.72 1.87 1.295 3.74 1.87 5.61.288.864.432 1.727.72 2.59 0 .288.287 1.007.287 1.007zm80.276-26.471c2.302-1.727-14.818 10.933 0 0 .72-.576 1.726-1.007 2.877-1.295 1.87-.144 3.885.863 4.892 2.59 1.007 1.726 1.007 4.028-.144 5.61-.72 1.007-1.727 1.583-2.59 2.302-1.007.72-2.158 1.439-3.165 2.158a96.17 96.17 0 0 1-6.33 4.172c-8.632 5.323-17.839 9.783-27.334 13.092a129.348 129.348 0 0 1-14.53 4.315c-2.158.432-4.316.144-5.754-1.726-1.295-1.582-1.583-3.74-.576-5.61.432-.864 1.007-1.583 1.87-2.015 1.007-.575 2.158-.719 3.165-1.007 2.446-.575 4.892-1.294 7.337-2.014 4.892-1.582 9.64-3.309 14.243-5.323 9.207-4.028 17.983-9.207 26.039-15.25zm17.264-15.537c2.014-2.158-1.87 2.014 0 0 2.301-2.446 6.473-2.014 8.2.863.719 1.15.863 2.733.575 4.028-.431 1.726-1.726 2.877-2.877 4.028a57.074 57.074 0 0 1-4.172 4.172c-1.295 1.151-2.877 1.87-4.748 1.583-3.02-.432-5.035-3.597-4.172-6.618.576-1.583 1.87-2.59 3.021-3.74 1.44-1.44 2.878-2.878 4.172-4.316zm-32.657-30.212c2.014-2.014-5.036 5.323 0 0 1.726-1.726 4.46-2.014 6.617-.863 2.158 1.295 3.021 4.028 2.158 6.33-.575 1.151-1.438 2.014-2.302 2.877-1.007 1.007-1.87 2.015-2.877 2.878-1.726 1.582-3.453 3.165-5.179 4.603-1.87 1.439-3.884 2.878-5.898 4.316-2.158 1.583-4.748 1.727-6.762 0-1.726-1.438-2.302-3.884-1.438-5.898a5.62 5.62 0 0 1 2.014-2.446c1.007-.72 2.158-1.582 3.165-2.302 3.74-2.877 7.193-6.042 10.502-9.495zm-64.307-95.237c1.726 0 3.453.144 5.323.144 6.761 1.15 13.235 4.316 18.27 9.063 4.892 4.748 8.488 11.078 9.783 17.84 1.439 7.049.575 14.386-2.302 20.86a34.08 34.08 0 0 1-13.379 15.105 33.58 33.58 0 0 1-20.285 4.891c-6.905-.431-13.667-3.165-18.99-7.624a33.394 33.394 0 0 1-11.077-16.832c-2.014-6.906-1.726-14.387.72-21.004 2.301-6.474 6.617-12.085 12.228-16.113 5.754-4.172 12.66-6.33 19.709-6.33z"/>
</svg>
