<svg xmlns="http://www.w3.org/2000/svg" viewBox="0 0 512 78.079">
  <path fill="#34a8dd" d="M510.482 40.883c-.753 0-1.451.366-1.851.983-1.209 1.827-2.41 3.602-3.79 5.221-1.32 1.545-5.448 4.113-8.876 4.757l-1.357.255.163-1.378.153-1.306c.112-.928.224-1.816.295-2.703.562-6.837-.03-11.929-1.927-16.531-1.717-4.163-4.022-6.704-7.257-8.01-1.204-.49-2.325-.736-3.326-.736-2.214 0-4.01 1.194-5.5 3.653-.152.255-.296.51-.47.796l-.683 1.204-.929-.765c-.428-.347-.837-.684-1.255-1.03a90.174 90.174 0 0 0-2.856-2.307c-.776-.582-1.675-1.092-2.613-1.623-2.041-1.153-4.174-1.744-6.358-1.744-3.948 0-7.97 1.937-11.031 5.326-5.008 5.53-8.02 12.357-8.95 20.266-.11 1.009-.396 2.325-1.51 3.55-3.703 4.06-8.131 8.622-13.968 11.52-1.255.623-2.786 1.03-4.429 1.204-.183.022-.366.03-.53.03-.868 0-1.53-.264-1.991-.775-.489-.55-.672-1.326-.56-2.367.265-2.306.602-4.765 1.285-7.133 1.102-3.826 2.317-7.682 3.5-11.417.613-1.95 1.226-3.908 1.828-5.857.337-1.113 1.03-1.633 2.244-1.683 1.5-.062 2.95-.134 4.316-.46 2-.458 3.438-1.397 4.164-2.703.733-1.337.765-3.092.091-5.092a8.872 8.872 0 0 0-.193-.5l-7.328.704.287-1.357c.131-.663.275-1.296.408-1.919.305-1.387.592-2.714.815-4.02.389-2.265.602-4.908-.663-7.336-1.407-2.694-4.305-4.367-7.572-4.367-.723 0-1.459.081-2.182.255-5.41 1.265-9.491 4.673-12.48 7.623l1.796 9.897-1.02.164c-.51.091-.981.163-1.42.224-.877.134-1.633.245-2.356.43-1.89.47-3.103 1.254-3.624 2.336-.52 1.072-.366 2.52.44 4.307.143.336.317.653.48.958l6.52-1.173-.266 1.45c-.151.836-.285 1.663-.418 2.469-.51 3.214-1 6.255-2.775 9.153C399.29 52.58 393.198 59 385.81 63.52c-2.214 1.357-5.215 2.97-8.695 3.398-.744.092-1.479.143-2.183.143-3.623 0-6.695-1.163-8.878-3.357-2.163-2.174-3.285-5.235-3.265-8.867l.01-1.357 1.306.388c.408.133.817.255 1.225.388.766.234 1.51.469 2.276.683 1.612.44 3.284.664 4.949.664 10.427-.01 18.836-8.276 19.143-18.837.183-6.45-2.45-10.991-7.817-13.52-2.184-1.021-4.5-1.521-7.113-1.521-1.325 0-2.744.143-4.213.408-7.49 1.377-13.654 5.653-18.858 13.092-2.01 2.867-3.642 6.143-5.285 10.633-.592 1.612-1.51 3.285-2.806 5.112-2.133 3.02-4.818 6.449-8.46 9-1.387.98-2.918 1.683-4.42 2.051a4.59 4.59 0 0 1-1.04.122c-1.06 0-1.999-.408-2.662-1.142-.663-.745-.958-1.766-.828-2.869.318-2.724.877-4.999 1.704-6.98.919-2.192 1.979-4.357 3.012-6.448.834-1.693 1.704-3.438 2.469-5.183 1.449-3.266 1.999-6.348 1.682-9.398-.52-4.98-3.806-7.95-8.776-7.95-.235 0-.468.01-.703.021-4.215.235-7.806 2.144-11.113 4.072-1.254.734-2.49 1.54-3.806 2.408-.633.417-1.287.846-1.98 1.296l-3.111 2 1.641-3.317.308-.632c.16-.337.294-.602.438-.857 2.02-3.745 4.01-7.827 4.858-12.215.284-1.46.357-2.97.213-4.347-.213-2.204-1.427-3.41-3.408-3.41-.44 0-.919.063-1.418.186-2.184.53-4.276 1.704-6.39 3.581-6.018 5.378-9.05 11.317-9.253 18.174-.104 3.684.969 6.286 3.703 8.99l.563.562-.4.684a159 159 0 0 0-1.245 2.163c-.927 1.622-1.878 3.295-2.928 4.898-4.91 7.48-10.53 13.082-17.184 17.113-2.398 1.46-5.317 2.99-8.703 3.387a19.29 19.29 0 0 1-2.145.123c-7.172 0-11.846-4.47-12.203-11.673-.01-.225.02-.399.051-.54l.03-.164.193-1.143 1.113.337c.418.133.836.265 1.246.398.867.276 1.683.54 2.509.745 1.54.388 3.103.581 4.663.581 5.612 0 10.97-2.521 14.685-6.918 3.643-4.316 5.204-9.96 4.265-15.48-1.02-6.04-6.02-10.663-12.163-11.235a30.149 30.149 0 0 0-2.695-.132c-8.121 0-15.09 3.673-21.315 11.224-2.43 2.94-4.134 6.337-5.95 10.153-1.654 3.469-4.817 5.591-7.041 6.887-2.062 1.184-3.878 1.735-5.725 1.735-.194 0-.388 0-.582-.01l-1.275-.082.357-1.224c.255-.837.51-1.674.755-2.49.561-1.826 1.092-3.541 1.53-5.305 1.317-5.398 1.47-9.797.48-13.847-1.102-4.45-4.02-6.909-8.234-6.909-.45 0-.919.03-1.398.092-2.174.245-3.97 1.49-5.47 3.786-2.449 3.764-3.52 8.306-3.347 14.306.164 5.624 1.51 10.216 4.113 14.01.367.541.53 1.51.163 2.164-1.674 2.847-3.663 5.714-6.908 7.347-1.368.684-2.735 1.03-4.072 1.03-2.775 0-5.214-1.469-6.878-4.143-1.795-2.888-2.734-6.266-2.877-10.337-.276-7.846 1.47-15.163 5.184-21.766l.06-.111c.093-.194.236-.49.511-.724.908-.787.888-1.358-.102-3.062-1.673-2.909-4.592-4.644-7.816-4.644-2.694 0-5.296 1.194-7.307 3.347-3.04 3.255-5.01 7.47-6.204 13.256-.347 1.682-.55 3.438-.755 5.142-.102.918-.214 1.837-.337 2.744-.081.532-.204 1.143-.54 1.665-5.694 8.652-12.092 14.744-19.572 18.652-3.04 1.582-5.867 2.358-8.653 2.358-1.47 0-2.939-.225-4.388-.654-4.898-1.49-8.04-6.152-7.806-11.612l.061-1.317 1.265.378c.398.122.786.245 1.184.377.765.235 1.53.48 2.306.694 1.612.44 3.276.664 4.939.664 10.439-.01 18.847-8.276 19.153-18.827.184-6.46-2.449-11-7.816-13.52-2.184-1.031-4.5-1.531-7.112-1.531-1.327 0-2.745.143-4.205.408-7.5 1.377-13.663 5.653-18.867 13.08-2.286 3.266-4.02 6.797-5.153 10.49-.929 2.99-2.868 5.235-4.755 7.409l-.082.103c-2.296 2.653-4.939 5.04-6.97 6.816-.816.704-2.07 1.174-3.744 1.378-.184.03-.347.04-.51.04-1.01 0-1.592-.417-1.899-.775-.48-.551-.653-1.306-.52-2.245.316-2.274.725-4.07 1.276-5.653.724-2.07 1.52-4.152 2.285-6.163.94-2.448 1.909-4.99 2.745-7.51 1.684-5.02 1.266-9.205-1.265-12.817-2.082-2.98-5.204-4.366-9.816-4.366h-.256c-6.01.07-12.928.835-18.796 6.356-.224.214-.438.561-.683.888-.317.449-.143.214-.52.775l-.633.888-.01.05-.01-.02.02-.03.153-.572 1.04-3.704c.796-2.827 1.613-5.745 2.327-8.632l.316-1.266c.684-2.704 1.388-5.5 1.562-8.235.285-4.285-2.653-7.755-6.97-8.245A1.302 1.302 0 0 1 76.03 0h-2.276c-4.704 1.112-9.051 3.684-13.296 7.857a1.045 1.045 0 0 0-.184.296c1.613 4.306 1.45 8.786 1.072 12.602-.612 6.245-1.46 12.9-2.653 20.909-.255 1.673-1.286 3.183-2.215 4.55-5.591 8.174-11.98 14.103-19.53 18.113-3.531 1.878-6.592 2.765-9.694 2.776-5.143 0-9.654-3.683-10.725-8.776-1.082-5.082-.408-10.347 2.123-16.54 1.255-3.103 3.173-7.042 6.806-9.93.959-.765 2.183-1.367 3.449-1.692a6.41 6.41 0 0 1 1.48-.194c1.244 0 2.326.47 3.03 1.316.786.939 1.061 2.276.796 3.776-.378 2.081-1.092 4.102-1.857 6.163-.46 1.235-1.143 2.54-2.02 3.877-.246.368-.297.49.163.98 1.112 1.184 2.5 1.765 4.255 1.765.387 0 .816-.03 1.245-.092 3.377-.48 6.255-2.204 8.112-4.858 1.878-2.694 2.52-6.05 1.796-9.449-1.623-7.612-7.337-11.97-15.664-11.97-.244 0-.5 0-.755.012-7.306.225-13.683 3.327-18.939 9.235C2.936 39.266-.584 49.052.078 59.797c.511 8.184 4.174 13.755 10.889 16.541 2.622 1.091 5.418 1.623 8.55 1.623 1.531 0 3.174-.133 4.878-.388 8.868-1.357 16.766-5.542 24.878-13.143.908-.847 1.837-1.664 2.664-2.389l.949-.835 1.836-1.634-.143 2.46c-.03.52-.071 1.091-.122 1.683-.112 1.427-.235 3.04-.194 4.612.051 1.623.337 3.235.827 4.674.98 2.827 3.408 4.377 6.918 4.377 2.612-.01 4.857-.724 6.643-2.102.265-.204.449-.5.47-.622.479-2.561.928-5.133 1.387-7.694.704-4 1.439-8.142 2.245-12.194.643-3.225 1.449-6.46 2.235-9.582.285-1.112.561-2.235.837-3.357.112-.439.387-1.245 1.01-1.694 3.194-2.274 6.132-3.337 9.275-3.337h.123c1.632.02 2.99.551 3.939 1.53.898.928 1.357 2.204 1.316 3.664a39.026 39.026 0 0 1-.97 7.469c-.52 2.275-1.122 4.55-1.704 6.755-.663 2.5-1.347 5.081-1.898 7.643-.642 2.959-.418 5.949.664 8.643 1.204 3.01 3.612 4.644 7.143 4.858.306.02.602.03.908.03 3.428 0 6.775-1.143 10.54-3.602 3.98-2.591 7.593-6.06 11.715-11.246l.153-.192c.143-.194.296-.378.46-.573.254-.286.57-.357.632-.367l.97-.347.336.98c.204.622.398 1.234.592 1.857.418 1.346.806 2.612 1.357 3.806 2.704 5.867 7.419 9.121 14.398 9.978a30.69 30.69 0 0 0 3.857.235c5.52 0 11.01-1.42 16.786-4.347 6.97-3.542 13.123-8.777 18.286-15.561.194-.267.408-.51.592-.725l1.092-1.338.643 1.613c.418 1.05.816 2.122 1.224 3.204.898 2.399 1.837 4.888 2.96 7.224 1.704 3.52 4.193 6.194 7.387 7.97 2.541 1.399 5.204 2.112 7.929 2.112 2.337 0 4.796-.52 7.316-1.56 5.613-2.307 9.52-6.704 12.307-10.286.959-1.224 1.847-2.572 2.704-3.867.55-.837 1.102-1.675 1.673-2.49.092-.123.878-1.194 1.98-1.194h.01c.622.04 1.245.071 1.867.071 4 0 7.5-.887 10.704-2.714l1.327-.755.194 1.51c.092.744.173 1.48.245 2.204.163 1.53.306 2.98.643 4.367 2.163 9.154 8.233 14.042 18.05 14.52.55.03 1.092.041 1.623.041 5.623 0 11.275-1.47 16.806-4.358 12.052-6.306 20.757-16.183 26.593-30.194.234-.551.418-1.123.623-1.724.184-.562.367-1.113.58-1.664.234-.58.817-1.276 1.52-1.408a85.17 85.17 0 0 0 1.644-.326c1.786-.358 3.622-.724 5.489-.776l.173-.01c1.593 0 2.98.613 3.909 1.715.958 1.142 1.317 2.703 1.02 4.388a28.583 28.583 0 0 1-1.815 6.081c-1.888 4.48-3.725 9.347-4.297 14.551-.49 4.368.144 7.409 2.04 9.868 1.736 2.255 4.134 3.306 7.552 3.306.53 0 1.091-.021 1.674-.071 3.582-.317 7.041-1.694 11.225-4.49 3.816-2.54 7.398-5.805 10.948-9.99.225-.265.46-.52.715-.827l1.684-1.908.51 1.816c.132.47.245.94.366 1.378.235.899.459 1.756.745 2.551 2.5 7.061 7.51 10.95 15.307 11.879 1.233.143 2.488.214 3.724.214 5.489 0 10.99-1.42 16.795-4.358 6.234-3.153 11.705-7.601 16.735-13.591.144-.174.285-.337.5-.573l2.234-2.54v2.704c0 .714-.02 1.408-.04 2.071-.042 1.368-.082 2.662.081 3.878.306 2.214.684 4.55 1.56 6.581 1.46 3.368 4.377 5.307 7.99 5.307 1.49 0 3.03-.327 4.582-.98 6.683-2.806 12.101-7.49 16.082-11.255 1.744-1.643 3.366-3.347 5.092-5.153.775-.818 1.55-1.624 2.336-2.44l1.154-1.184.54 1.572c.192.55.378 1.102.552 1.663.396 1.205.805 2.44 1.275 3.612 2.806 6.919 7.122 11.337 13.203 13.51 2.489.888 5.03 1.338 7.551 1.338 2.702 0 5.44-.51 8.142-1.542 8.002-3.03 14.063-8.245 18.043-15.52.897-1.633 2.051-2.102 3.52-2.285 7.021-.909 11.9-7.238 14.562-11.547.696-1.14 1.278-2.398 1.84-3.623.249-.536.492-1.075.753-1.598v-.341c-.33-.472-.879-.74-1.518-.74zM363.78 46.375c1.57-5.674 3.765-11.45 9.152-15.347.818-.592 1.848-1.072 3.082-1.419.48-.132.91-.193 1.307-.193 1.53 0 2.551.918 3.041 2.734.795 2.98-.092 5.746-.828 7.562-2.142 5.327-6.337 8.255-11.797 8.255-1.02 0-2.09-.111-3.172-.317l-1.083-.214zm-108.726.092c1.581-5.735 3.787-11.592 9.255-15.5.775-.562 1.796-1.01 3.101-1.378a4.46 4.46 0 0 1 1.225-.184c1.57 0 2.683 1.01 2.96 2.684.295 1.796.295 3.561-.012 5.112-1.276 6.46-6.357 10.818-12.664 10.837-.672 0-1.325-.081-2.02-.173-.306-.041-.633-.072-.958-.113l-1.206-.122.319-1.163zm-117.563 0c1.582-5.735 3.796-11.592 9.245-15.5.786-.562 1.807-1.01 3.102-1.378a4.528 4.528 0 0 1 1.235-.184c1.572 0 2.684 1 2.96 2.674.295 1.806.295 3.571-.01 5.112-1.266 6.47-6.348 10.827-12.654 10.847-.673 0-1.316-.081-2-.163l-.99-.123-1.214-.11zm340.841 5.54c-.683 4.919-2.858 8.633-6.449 11.022-1.55 1.03-3.234 1.582-4.867 1.582-3.287 0-6.093-2.235-7.316-5.847-1.51-4.47-1.4-9.317.336-14.837 1.551-4.917 4.01-8.489 7.53-10.929 1.765-1.223 4-1.959 5.97-1.959.103 0 .204 0 .307.01l.978.03v.99c0 .787-.01 1.572-.02 2.359-.03 1.704-.063 3.46.052 5.163a25.35 25.35 0 0 0 2.98 10.43c.264.497.61 1.232.5 1.987z"/>
</svg>
