<svg xmlns="http://www.w3.org/2000/svg" viewBox="0 0 256 256">
  <circle cx="128" cy="128" r="128" fill="#fc521f"/>
  <path fill="#fff" d="m158.16 187.016-20.39-11.769 61.343-35.383a45.933 45.933 0 0 0 6.63-4.65c7.975 11.353 8.757 26.303 1.65 38.615a36.193 36.193 0 0 1-31.255 18.011 36.013 36.013 0 0 1-17.978-4.827v.003zm-4.913 8.5a45.954 45.954 0 0 0 7.348 3.422c-5.857 12.57-18.42 20.72-32.652 20.72-19.865 0-36.037-16.153-36.037-36.006V112.88l31.124 17.962v44.41a4.91 4.91 0 0 0 2.457 4.249zm-73.403-3.682a36.175 36.175 0 0 1-31.24-17.999 35.744 35.744 0 0 1-3.593-27.323 35.765 35.765 0 0 1 16.788-21.87l20.385-11.763.003 70.76a46.1 46.1 0 0 0 .706 8.076c-1.014.08-2.035.12-3.049.12zm79.324-87.458-31.115 17.95-38.496-22.202a4.925 4.925 0 0 0-4.91 0l-27.76 16.012a45.193 45.193 0 0 0-6.637 4.647c-7.968-11.35-8.747-26.303-1.646-38.615a36.19 36.19 0 0 1 31.252-18.014c6.279 0 12.496 1.674 17.978 4.833zm-31.225-68.035c19.875 0 36.038 16.154 36.038 36.016v23.526l-61.326-35.38a45.725 45.725 0 0 0-7.357-3.429c5.854-12.578 18.423-20.733 32.645-20.733zM207.39 82.18c9.93 17.198 4.015 39.263-13.196 49.193l-61.335 35.38v-35.905l38.494-22.21a4.906 4.906 0 0 0 2.46-4.25V72.358c0-2.704-.245-5.399-.71-8.054A36.18 36.18 0 0 1 207.39 82.18z"/>
</svg>
