<svg xmlns="http://www.w3.org/2000/svg" viewBox="0 0 255.564 256.481">
  <defs>
    <linearGradient id="a" x1="127.47" x2="127.47" y1="82.259" y2="173.666" gradientUnits="userSpaceOnUse">
      <stop offset="0%" stop-color="#86BBE5"/>
      <stop offset="100%" stop-color="#1072BA"/>
    </linearGradient>
  </defs>
  <path fill="#ef3f36" d="M127.456.023s75.321-3.38 115.253 72.328H121.048s-22.96-.74-42.573 27.114c-5.634 11.69-11.69 23.734-4.895 47.467-9.789-16.585-51.974-90.04-51.974-90.04S51.36 3.016 127.456.022z"/>
  <path fill="#fcd900" d="M238.8 192.216s-34.755 66.94-120.252 63.63a620116.745 620116.745 0 0 0 60.848-105.357s12.148-19.508-2.183-50.426c-7.29-10.74-14.72-21.973-38.664-27.959 19.261-.176 103.949 0 103.949 0s31.727 52.714-3.697 120.112z"/>
  <path fill="#61bc5b" d="M16.64 192.745s-40.6-63.56 5.036-135.959c10.529 18.276 60.813 105.358 60.813 105.358s10.846 20.283 44.756 23.311c12.923-.95 26.375-1.76 43.559-19.472-9.472 16.761-51.975 90.005-51.975 90.005s-61.552 1.126-102.189-63.243z"/>
  <path fill="#5ab055" d="m118.512 256.48 17.114-71.412s18.804-1.479 34.58-18.769c-9.79 17.22-51.694 90.181-51.694 90.181z"/>
  <path fill="#fff" d="M70.13 129.044c0-31.48 25.529-57.01 57.01-57.01 31.48 0 57.01 25.53 57.01 57.01 0 31.48-25.53 57.01-57.01 57.01-31.481-.035-57.01-25.53-57.01-57.01z"/>
  <path fill="url(#a)" d="M80.004 129.056c0-26.198 21.234-47.467 47.468-47.467 26.198 0 47.467 21.234 47.467 47.467 0 26.199-21.233 47.468-47.467 47.468-26.199 0-47.468-21.269-47.468-47.468z" style="fill:url(#a)" transform="translate(-.332 -.012)"/>
  <path fill="#eaca05" d="M242.463 72.14 172 92.81s-10.634-15.6-33.488-20.67c19.825-.106 103.95 0 103.95 0z"/>
  <path fill="#df3a32" d="M72.207 144.326c-9.895-17.148-50.601-87.434-50.601-87.434l52.186 51.623s-5.353 11.021-3.346 26.797z"/>
</svg>
