<svg xmlns="http://www.w3.org/2000/svg" viewBox="0 0 256 198.52">
  <path fill="#2271ce" d="M93.392 16.913h69.222v124.402H93.392z"/>
  <path fill="#005eb6" d="M97.783 79.117c0-25.236 11.815-47.715 30.215-62.201C114.543 6.323 97.562 0 79.107 0 35.417 0 0 35.421 0 79.117c0 43.695 35.416 79.116 79.107 79.116 18.455 0 35.436-6.322 48.891-16.916-18.4-14.486-30.215-36.965-30.215-62.2"/>
  <path fill="#0099df" d="M256 79.117c0 43.695-35.416 79.116-79.107 79.116-18.455 0-35.436-6.322-48.891-16.916 18.4-14.486 30.215-36.965 30.215-62.2 0-25.236-11.815-47.715-30.215-62.201C141.457 6.323 158.438 0 176.893 0 220.583 0 256 35.421 256 79.117"/>
  <path fill="#231f20" d="M181.7 178.644c-2.197-1.448-5.23-2.198-8.565-2.198-5.322 0-8.747 2.55-8.747 6.725 0 3.426 2.55 5.533 7.248 6.197l2.158.307c2.5.352 3.687 1.01 3.687 2.193 0 1.63-1.67 2.55-4.789 2.55-3.164 0-5.447-1.01-6.987-2.198l-2.152 3.561c2.505 1.846 5.668 2.727 9.094 2.727 6.066 0 9.582-2.857 9.582-6.856 0-3.692-2.767-5.624-7.339-6.288l-2.153-.307c-1.976-.261-3.56-.659-3.56-2.062 0-1.54 1.493-2.46 3.998-2.46 2.681 0 5.276 1.011 6.549 1.801zm-107.923 8.832c0 6.373 4.436 11.03 11.206 11.03 3.164 0 5.272-.704 7.556-2.504l-2.199-3.692c-1.71 1.232-3.51 1.89-5.492 1.89-3.647-.044-6.323-2.68-6.323-6.724 0-4.044 2.676-6.68 6.323-6.725 1.981 0 3.782.659 5.492 1.891l2.199-3.692c-2.284-1.8-4.392-2.505-7.556-2.505-6.77 0-11.206 4.658-11.206 11.03zm44.054-11.03c-2.635 0-4.35 1.233-5.538 3.079v-2.55h-4.522v21.005h4.568V186.2c0-3.471 1.493-5.403 4.481-5.403.926 0 1.892.131 2.857.529l1.404-4.306c-1.006-.397-2.33-.573-3.25-.573zm16.973 0c-2.636 0-4.351 1.233-5.538 3.079v-2.55h-4.522v21.005h4.567V186.2c0-3.471 1.494-5.403 4.482-5.403.925 0 1.89.131 2.857.529l1.403-4.306c-1.006-.397-2.329-.573-3.25-.573zm-32.02 21.524h-4.597v-20.975h4.597zm-2.323-31.457c.452 0 .875.08 1.272.251.394.166.734.398 1.026.69.29.291.523.633.69 1.026.172.397.249.82.249 1.272 0 .453-.08.875-.25 1.268a3.075 3.075 0 0 1-1.715 1.685c-.398.16-.82.241-1.272.241-.453 0-.876-.08-1.268-.241a3.004 3.004 0 0 1-1.021-.664 3.089 3.089 0 0 1-.664-1.021 3.307 3.307 0 0 1-.242-1.268c0-.453.08-.875.242-1.272a3.22 3.22 0 0 1 .664-1.027 3.064 3.064 0 0 1 1.021-.689 3.14 3.14 0 0 1 1.268-.251zm60.261 22.57c0 1.665-.276 3.094-.82 4.291-.548 1.197-1.267 2.173-2.163 2.932a8.644 8.644 0 0 1-3.068 1.675 11.958 11.958 0 0 1-7.092 0 8.71 8.71 0 0 1-3.084-1.675c-.9-.76-1.62-1.735-2.162-2.932-.539-1.197-.81-2.626-.81-4.29v-12.088h4.542v11.67c0 1.006.13 1.866.387 2.575.262.704.619 1.278 1.071 1.715.453.438.991.76 1.61.956a6.555 6.555 0 0 0 1.992.297c.704 0 1.368-.1 1.987-.297a4.05 4.05 0 0 0 1.61-.956c.457-.437.81-1.01 1.07-1.715.262-.709.388-1.57.388-2.575v-11.67h4.542z"/>
</svg>
