<svg xmlns="http://www.w3.org/2000/svg" viewBox="0 0 256 191.751">
  <path d="m134.028 126.959 22.794 9.675.268-92.408-66.287 64.385 22.595 9.59-10.33 24.336 20.63 8.757zm-75.756 64.294C26.09 191.253 0 165.163 0 132.98c0-25.046 15.8-46.4 37.977-54.641 1.976-30.393 27.254-54.433 58.148-54.433 4.575 0 9.027.527 13.299 1.524C121.256 9.971 139.899 0 160.872 0c35.758 0 64.747 28.988 64.747 64.747 0 2-.091 3.979-.268 5.933C243.759 82.214 256 102.682 256 126.008c0 36.034-29.211 65.245-65.245 65.245v.498H58.272z"/>
</svg>
