<svg xmlns="http://www.w3.org/2000/svg" viewBox="0 0 256 256">
  <defs>
    <linearGradient id="a" x1="99.312" x2="203.749" y1="45.397" y2="45.397" gradientTransform="scale(.81944 1.22035)" gradientUnits="userSpaceOnUse">
      <stop offset="0%" stop-color="#ED358C"/>
      <stop offset="16%" stop-color="#E9388C"/>
      <stop offset="30%" stop-color="#DE418C"/>
      <stop offset="43%" stop-color="#CC508C"/>
      <stop offset="57%" stop-color="#B2658D"/>
      <stop offset="70%" stop-color="#90808D"/>
      <stop offset="83%" stop-color="#67A18E"/>
      <stop offset="95%" stop-color="#37C78F"/>
      <stop offset="100%" stop-color="#22D88F"/>
    </linearGradient>
    <linearGradient id="b" x1="90.435" x2="38.195" y1="23.647" y2="205.68" gradientTransform="scale(.72052 1.38789)" gradientUnits="userSpaceOnUse">
      <stop offset="9%" stop-color="#22D88F"/>
      <stop offset="90%" stop-color="#029DE0"/>
    </linearGradient>
    <linearGradient id="c" x1="26007.159" x2="-2682.564" y1="-161806.5" y2="-195117.16" gradientTransform="scale(1.02396 .9766)" gradientUnits="userSpaceOnUse">
      <stop offset="9%" stop-color="#22D88F"/>
      <stop offset="90%" stop-color="#029DE0"/>
    </linearGradient>
    <linearGradient id="d" x1="9323.007" x2="15474.741" y1="-114144.79" y2="-115220.76" gradientTransform="scale(1.05309 .94959)" gradientUnits="userSpaceOnUse">
      <stop offset="9%" stop-color="#22D88F"/>
      <stop offset="90%" stop-color="#029DE0"/>
    </linearGradient>
  </defs>
  <path fill="url(#a)" d="m96.8 0 58.8 32.4-57.2 71.2-17.2 7.2z" style="fill:url(#a)"/>
  <path fill="url(#b)" d="M23.6 46.4 0 188l89.2-34.4L97.6 0z" style="fill:url(#b)"/>
  <path fill="url(#c)" d="M155.6 32.4 110 82.8 0 188l83.2 60.8 104-94.4 63.6-77.6L218 9.6z" style="fill:url(#c)"/>
  <path fill="url(#d)" d="m151.6 242 64 14 40.4-91.2-148.4-55.6-14.4 87.6z" style="fill:url(#d)"/>
  <path d="M48 48h160v160H48z"/>
  <path fill="#fff" d="M63.2 178h60v10h-60zM62 102.4A33.66 33.66 0 0 1 96.4 68c12.4 0 20 4 26 10.4l-9.2 10.8c-5.2-4.8-10.4-7.6-16.8-7.6-11.2 0-19.2 9.2-19.2 20.8 0 11.2 8 20.8 19.2 20.8 7.6 0 12.4-3.2 17.6-7.6l9.2 9.2c-6.8 7.2-14.4 12-27.2 12a34 34 0 0 1-34-34.4zm71.2-33.6H148v54h28.8v12.4h-43.6z"/>
</svg>
