<svg xmlns="http://www.w3.org/2000/svg" viewBox="0 0 256 255.557">
  <path fill="#96ca4b" d="M70.337 160.792c-8.048 0-14.131-2.345-18.313-7.034-4.182-4.689-6.274-11.406-6.274-20.15 0-8.935 2.155-15.778 6.527-20.594 4.372-4.816 10.646-7.224 18.947-7.224 5.576 0 10.645 1.014 15.081 3.105l-3.422 9.061c-4.752-1.837-8.681-2.788-11.786-2.788-9.188 0-13.751 6.083-13.751 18.25 0 5.956 1.141 10.392 3.422 13.433 2.281 2.979 5.64 4.499 10.076 4.499 5.006 0 9.758-1.267 14.257-3.738v9.822c-2.028 1.204-4.182 2.027-6.463 2.534-2.282.571-5.07.824-8.301.824M104.935 85.196h11.279v74.645h-11.279z"/>
  <path fill="#5f7fbf" d="M134.273 183.414c-3.358 0-6.21-.38-8.428-1.204v-8.935c2.155.57 4.373.887 6.654.887 4.816 0 7.224-2.724 7.224-8.174V106.74h11.279v60.008c0 5.45-1.458 9.632-4.309 12.42-2.915 2.852-7.034 4.246-12.42 4.246zm4.753-90.677c0-2.028.57-3.549 1.647-4.626 1.078-1.077 2.662-1.648 4.753-1.648 1.964 0 3.548.571 4.625 1.648 1.078 1.077 1.648 2.661 1.648 4.626 0 1.901-.57 3.421-1.648 4.562-1.077 1.077-2.661 1.647-4.625 1.647-2.028 0-3.612-.57-4.753-1.647-1.14-1.141-1.647-2.661-1.647-4.562zM210.059 144.76c0 5.196-1.901 9.125-5.639 11.913-3.802 2.788-9.188 4.119-16.222 4.119-7.097 0-12.737-1.077-17.046-3.232v-9.758c6.21 2.851 12.04 4.309 17.426 4.309 6.907 0 10.392-2.091 10.392-6.273 0-1.331-.38-2.472-1.14-3.359-.761-.887-2.028-1.838-3.802-2.788-1.775-.951-4.183-2.028-7.351-3.232-6.083-2.344-10.265-4.752-12.42-7.097-2.154-2.344-3.231-5.449-3.231-9.188 0-4.562 1.837-8.047 5.513-10.582 3.675-2.535 8.617-3.739 14.954-3.739 6.21 0 12.103 1.268 17.679 3.802l-3.675 8.491c-5.703-2.344-10.519-3.548-14.448-3.548-5.956 0-8.934 1.711-8.934 5.069 0 1.648.76 3.042 2.344 4.246 1.521 1.14 4.943 2.725 10.139 4.752 4.372 1.711 7.541 3.232 9.568 4.626 1.965 1.394 3.422 3.042 4.436 4.879.95 1.774 1.457 3.992 1.457 6.59"/>
  <path fill="#96ca4b" d="m118.03 16.69 1.732-.154V0l-2.052.165c-31.948 2.56-61.614 16.979-83.531 40.601C12.138 64.52 0 95.422 0 127.778c0 32.357 12.138 63.258 34.179 87.012 21.917 23.622 51.583 38.041 83.531 40.602l2.052.165v-16.599l-1.732-.155c-27.594-2.451-53.194-15.107-72.085-35.639-19.004-20.655-29.47-47.45-29.47-75.449 0-27.995 10.466-54.779 29.47-75.417C64.831 31.786 90.431 19.141 118.03 16.69"/>
  <path fill="#5f7fbf" d="M221.821 40.766C199.904 17.144 170.238 2.725 138.29.165L136.238 0v16.536l1.732.154c27.594 2.45 53.195 15.107 72.085 35.639 19.004 20.655 29.47 47.45 29.47 75.449 0 27.999-10.466 54.794-29.47 75.449-18.89 20.532-44.491 33.189-72.085 35.64l-1.732.154v16.536l2.052-.165c31.948-2.561 61.614-16.98 83.531-40.602C243.862 191.036 256 160.135 256 127.778c0-32.356-12.138-63.258-34.179-87.012"/>
</svg>
