<svg xmlns="http://www.w3.org/2000/svg" viewBox="0 0 255.004 255.004">
  <path fill="#49bc82" d="M193.443 166.308c.492-3.534.913-7.135 1.263-10.795-3.8 4.6-7.838 9.18-12.101 13.715 3.757-.885 7.37-1.86 10.838-2.92zM61.8 89.223a246.607 246.607 0 0 0-1.306 10.706 271.699 271.699 0 0 1 11.938-13.621A176.374 176.374 0 0 0 61.8 89.223zm134.05 28.778a171.513 171.513 0 0 0 5.623-9.789 253.243 253.243 0 0 0-6.84-8.632 270.928 270.928 0 0 1 1.217 18.421zM53.879 146.79c2.09 2.8 4.273 5.596 6.548 8.382a285.514 285.514 0 0 1-1.114-17.902 176.994 176.994 0 0 0-5.434 9.52zM165.9 193.7c-1.576 5.019-3.315 9.734-5.207 14.096-3.004 6.928-6.378 12.973-10.02 18.039-6.914 9.62-14.794 15.68-22.984 17.27-8.626-1.856-16.634-7.954-23.53-17.487-6.782 2.546-13.407 4.353-19.788 5.36 2.06 2.852 4.239 5.496 6.549 7.888 9.93 10.279 18.6 16.138 36.663 16.138 18.063 0 28.292-6.633 38.543-18.168a74.13 74.13 0 0 0 4.446-5.55c3.807-5.218 7.195-11.18 10.153-17.787 3.285-7.341 6.042-15.473 8.272-24.233-7.293 1.844-15.02 3.324-23.097 4.433zm-.151-175.104C155.423 6.798 145.433 0 127.583 0c-17.85 0-24.199 5.023-33.669 13.927-3.231 3.038-6.245 6.541-9.05 10.438-3.655 5.079-6.942 10.845-9.847 17.205-3.453 7.556-6.365 15.942-8.714 24.996 7.234-1.888 14.89-3.416 22.892-4.57 1.615-5.235 3.41-10.145 5.372-14.674 2.918-6.74 6.194-12.646 9.732-17.645 6.988-9.875 15.007-16.165 23.39-17.989 8.312 1.543 16.305 7.736 23.292 17.607 6.534-2.477 12.923-4.239 19.1-5.238a77.586 77.586 0 0 0-4.332-5.46zm.418 43.301c-3.449-.478-6.96-.888-10.528-1.231a271.23 271.23 0 0 1 13.413 11.766 176.396 176.396 0 0 0-2.885-10.535zM89.08 193.54c3.594.521 7.253.971 10.977 1.34a285.756 285.756 0 0 1-13.926-12.275 172.75 172.75 0 0 0 2.949 10.935zm143.066-15.982a73.914 73.914 0 0 0-.75-6.873c-.982-6.389-2.789-13.008-5.362-19.781-2.896-7.623-6.755-15.437-11.453-23.325-3.844 6.465-8.257 12.982-13.178 19.484 2.507 4.789 4.663 9.473 6.445 14.008 2.764 7.03 4.642 13.698 5.63 19.856 1.86 11.595.56 21.37-4.078 28.243-7.343 4.742-17.198 6.116-28.676 4.329-2.958 6.607-6.346 12.569-10.153 17.787 3.343.523 6.627.831 9.831.887 14.29.247 24.565-1.741 37.337-14.513 12.773-12.772 15.315-24.697 14.407-40.102zM77.562 23.508c-15.644-1.042-27.514 1.214-40.137 13.837C24.803 49.967 23.865 58.007 23.465 71c-.138 4.493.217 9.168 1.012 13.974 1.021 6.17 2.786 12.565 5.236 19.106 2.874 7.673 6.688 15.546 11.348 23.49 3.788-6.445 8.128-12.935 12.974-19.402-2.483-4.714-4.636-9.332-6.415-13.806-2.713-6.823-4.585-13.31-5.637-19.346-2.095-12.022-.886-22.22 3.782-29.482C52.8 40.703 62.95 39.45 75.017 41.57c2.905-6.36 6.192-12.126 9.847-17.205a77.58 77.58 0 0 0-7.302-.858zM194.634 99.58c-.35-3.46-.764-6.868-1.244-10.215-1.16-8.086-2.704-15.822-4.613-23.127-2.29-8.764-5.107-16.903-8.435-24.259-6.025 1.017-12.527 2.872-19.373 5.57 1.893 4.439 3.628 9.242 5.198 14.348a176.396 176.396 0 0 1 2.885 10.535c.898 3.728 1.707 7.59 2.422 11.578 1.366 7.602 2.38 15.66 3 24.099.457 6.234.71 12.664.71 19.287 0 6.678-.257 13.157-.722 19.435 5.6-6.462 10.652-12.912 15.103-19.27a198.948 198.948 0 0 0 6.285-9.56 270.928 270.928 0 0 0-1.216-18.421zM89.08 193.54a172.75 172.75 0 0 1-2.95-10.935c-.847-3.6-1.62-7.319-2.297-11.17-1.362-7.737-2.356-15.975-2.96-24.621a278.079 278.079 0 0 1-.68-19.418c0-6.667.255-13.128.714-19.385-5.615 6.484-10.665 12.978-15.136 19.397a202.164 202.164 0 0 0-6.459 9.862c.19 6.098.564 12.074 1.114 17.902.349 3.693.763 7.331 1.255 10.896 1.104 7.991 2.572 15.637 4.395 22.86 2.243 8.882 5.03 17.117 8.354 24.547 6.17-1.025 12.821-2.916 19.827-5.696-1.893-4.402-3.623-9.16-5.177-14.239zm19.285-139.769a254.632 254.632 0 0 0-8.786 6.956 271.209 271.209 0 0 1 18.813-1.231 176.243 176.243 0 0 0-10.027-5.725zM45.533 209.595c-4.83-7.033-6.084-17.185-3.963-29.251-6.36-2.905-12.127-6.192-17.205-9.848-.403 2.471-.7 4.91-.859 7.302-1.04 15.644 1.216 27.515 13.838 40.137 12.622 12.621 20.662 13.559 33.655 13.96 4.306.133 8.777-.191 13.372-.917-3.721-5.151-7.038-11.015-9.94-17.503-11.767 1.954-21.753.711-28.898-3.88zm62.65-8.278c-4.756 2.507-9.414 4.672-13.925 6.462 2.94 6.836 6.265 12.813 9.901 17.839 7.606-2.855 15.407-6.634 23.28-11.243-6.392-3.82-12.83-8.19-19.256-13.058zm38.762.047a246.144 246.144 0 0 0 8.227-6.43 285.82 285.82 0 0 1-17.515 1.1 171.928 171.928 0 0 0 9.288 5.33zm-52.687 6.415c-7.006 2.78-13.658 4.671-19.827 5.696 2.902 6.488 6.219 12.352 9.94 17.503 6.38-1.007 13.006-2.814 19.788-5.36-3.636-5.026-6.962-11.003-9.901-17.839zm123.4-170.159c-12.771-12.772-24.695-15.315-40.1-14.408a74.41 74.41 0 0 0-7.476.845c-6.178 1-12.567 2.761-19.1 5.238-7.692 2.915-15.578 6.812-23.539 11.563 6.52 3.814 13.087 8.193 19.632 13.09 4.749-2.485 9.395-4.626 13.894-6.399 6.846-2.698 13.348-4.553 19.373-5.57 11.85-2 21.84-.735 28.827 3.98 4.743 7.343 6.116 17.198 4.329 28.676 6.607 2.959 12.569 6.346 17.788 10.154.522-3.344.831-6.628.886-9.833.248-14.289-1.74-24.564-14.513-37.336zm-9.863 57.047c-1.755 4.394-3.869 8.92-6.322 13.545a171.513 171.513 0 0 1-5.623 9.79 198.948 198.948 0 0 1-6.285 9.56c-4.451 6.357-9.503 12.807-15.103 19.27a277.267 277.267 0 0 1-13.527 14.529 264.37 264.37 0 0 1-14.122 13.126c8.61-.602 16.815-1.591 24.526-2.945a198.74 198.74 0 0 0 11.266-2.314 285.393 285.393 0 0 0 12.101-13.715 254.707 254.707 0 0 0 6.698-8.45c4.921-6.502 9.334-13.019 13.178-19.484 4.603-7.74 8.386-15.407 11.252-22.893-5.065-3.64-11.11-7.015-18.039-10.019zM83.913 83.902a201.19 201.19 0 0 0-11.48 2.406 271.699 271.699 0 0 0-11.94 13.62 245.333 245.333 0 0 0-6.458 8.24c-4.846 6.467-9.186 12.957-12.974 19.402-4.67 7.944-8.5 15.817-11.384 23.49 4.999 3.54 10.904 6.815 17.645 9.734 1.819-4.535 4.018-9.221 6.557-14.004a176.994 176.994 0 0 1 5.434-9.52 202.164 202.164 0 0 1 6.46-9.862c4.47-6.419 9.52-12.913 15.135-19.397a262.533 262.533 0 0 1 27.2-27.124c-8.473.622-16.565 1.642-24.195 3.015zm152.922 5.331a74.052 74.052 0 0 0-5.55-4.444c-5.218-3.808-11.18-7.195-17.787-10.154-7.477-3.346-15.773-6.146-24.721-8.397 1.91 7.305 3.452 15.04 4.613 23.127 5.135 1.6 9.954 3.372 14.405 5.302 6.928 3.004 12.974 6.378 18.039 10.02 9.62 6.914 15.68 14.794 17.27 22.984-1.83 8.502-7.772 16.404-17.069 23.233 2.573 6.773 4.38 13.392 5.362 19.781 2.692-1.97 5.194-4.048 7.468-6.244 10.28-9.93 16.139-18.6 16.139-36.664 0-18.063-6.634-28.292-18.17-38.544zM61.682 166.068c-5.116-1.59-9.921-3.352-14.36-5.274-6.74-2.919-12.646-6.195-17.645-9.733-9.875-6.989-16.166-15.006-17.99-23.39 1.565-8.43 7.908-16.533 18.026-23.59-2.45-6.542-4.215-12.937-5.236-19.107a77.627 77.627 0 0 0-5.88 4.638C6.797 99.938 0 109.928 0 127.777c0 17.851 5.022 24.198 13.926 33.67 3.038 3.23 6.542 6.245 10.439 9.049 5.078 3.656 10.845 6.943 17.205 9.848 7.419 3.39 15.64 6.258 24.507 8.584-1.823-7.223-3.291-14.869-4.395-22.86zm66.09-100.421a202.318 202.318 0 0 0-9.38-6.151c-6.414.199-12.695.613-18.812 1.23-3.52.356-6.983.779-10.385 1.27-8.001 1.154-15.658 2.682-22.892 4.57-8.787 2.293-16.947 5.115-24.32 8.45 1.052 6.035 2.924 12.523 5.637 19.346 4.392-1.87 9.137-3.586 14.18-5.139 3.41-1.05 6.95-2.028 10.632-2.915a201.19 201.19 0 0 1 11.481-2.406c7.63-1.373 15.722-2.393 24.196-3.015 6.233-.458 12.663-.71 19.286-.71 6.877 0 13.541.273 19.993.765-6.556-5.681-13.125-10.786-19.615-15.295zm80.077 95.424c-4.45 1.917-9.265 3.667-14.406 5.237a172.337 172.337 0 0 1-10.838 2.92 198.74 198.74 0 0 1-11.266 2.314c-7.711 1.354-15.915 2.343-24.526 2.945-6.265.439-12.737.679-19.418.679-6.468 0-12.745-.237-18.828-.67 6.39 5.534 12.766 10.53 19.054 14.941a198.755 198.755 0 0 0 10.036 6.596 285.82 285.82 0 0 0 17.515-1.1c3.635-.343 7.217-.75 10.728-1.234 8.076-1.11 15.804-2.589 23.097-4.433 8.858-2.24 17.07-5.023 24.482-8.339-.988-6.158-2.866-12.826-5.63-19.856zm-60.904 40.293a171.928 171.928 0 0 1-9.288-5.33 198.755 198.755 0 0 1-10.036-6.597c-6.288-4.41-12.664-9.407-19.054-14.942a277.803 277.803 0 0 1-14.568-13.56 264.356 264.356 0 0 1-13.126-14.121c.605 8.646 1.599 16.884 2.96 24.621.678 3.851 1.45 7.57 2.299 11.17a285.756 285.756 0 0 0 13.926 12.275 253.59 253.59 0 0 0 8.125 6.437c6.425 4.869 12.864 9.239 19.256 13.058 7.857 4.694 15.64 8.551 23.234 11.46 3.642-5.066 7.016-11.11 10.02-18.039-4.458-1.78-9.053-3.932-13.748-6.432zm24.53-117.354a200.469 200.469 0 0 0-2.423-11.578 271.23 271.23 0 0 0-13.413-11.766 246.074 246.074 0 0 0-8.564-6.718c-6.545-4.897-13.112-9.276-19.632-13.09-7.826-4.576-15.582-8.338-23.144-11.18-3.538 4.998-6.814 10.904-9.732 17.644 4.47 1.793 9.086 3.958 13.799 6.449 3.299 1.744 6.643 3.642 10.027 5.725 3.1 1.907 6.23 3.963 9.38 6.15 6.49 4.51 13.059 9.615 19.615 15.296a262.917 262.917 0 0 1 27.085 27.167c-.62-8.438-1.633-16.497-2.999-24.1z"/>
  <path fill="#49bc82" d="M193.443 166.308c.492-3.534.913-7.135 1.263-10.795-3.8 4.6-7.838 9.18-12.101 13.715 3.757-.885 7.37-1.86 10.838-2.92M61.8 89.223a246.607 246.607 0 0 0-1.306 10.706 271.699 271.699 0 0 1 11.938-13.621A176.374 176.374 0 0 0 61.8 89.223"/>
  <path fill="#57b6df" d="M195.85 118.001a171.513 171.513 0 0 0 5.623-9.789 253.243 253.243 0 0 0-6.84-8.632 270.928 270.928 0 0 1 1.217 18.421M53.879 146.79c2.09 2.8 4.273 5.596 6.548 8.382a285.514 285.514 0 0 1-1.114-17.902 176.994 176.994 0 0 0-5.434 9.52"/>
  <path fill="#49bc82" d="M165.9 193.7c-1.576 5.019-3.315 9.734-5.207 14.096-3.004 6.928-6.378 12.973-10.02 18.039-6.914 9.62-14.794 15.68-22.984 17.27-8.626-1.856-16.634-7.954-23.53-17.487-6.782 2.546-13.407 4.353-19.788 5.36 2.06 2.852 4.239 5.496 6.549 7.888 9.93 10.279 18.6 16.138 36.663 16.138 18.063 0 28.292-6.633 38.543-18.168a74.13 74.13 0 0 0 4.446-5.55c3.807-5.218 7.195-11.18 10.153-17.787 3.285-7.341 6.042-15.473 8.272-24.233-7.293 1.844-15.02 3.324-23.097 4.433M165.749 18.596C155.423 6.798 145.433 0 127.583 0c-17.85 0-24.199 5.023-33.669 13.927-3.231 3.038-6.245 6.541-9.05 10.438-3.655 5.079-6.942 10.845-9.847 17.205-3.453 7.556-6.365 15.942-8.714 24.996 7.234-1.888 14.89-3.416 22.892-4.57 1.615-5.235 3.41-10.145 5.372-14.674 2.918-6.74 6.194-12.646 9.732-17.645 6.988-9.875 15.007-16.165 23.39-17.989 8.312 1.543 16.305 7.736 23.292 17.607 6.534-2.477 12.923-4.239 19.1-5.238a77.586 77.586 0 0 0-4.332-5.46"/>
  <path fill="#276392" d="M166.167 61.897c-3.449-.478-6.96-.888-10.528-1.231a271.23 271.23 0 0 1 13.413 11.766 176.396 176.396 0 0 0-2.885-10.535M89.081 193.54c3.594.521 7.253.971 10.977 1.34a285.756 285.756 0 0 1-13.926-12.275 172.75 172.75 0 0 0 2.949 10.935"/>
  <path fill="#57b6df" d="M232.147 177.558a73.914 73.914 0 0 0-.75-6.873c-.982-6.389-2.789-13.008-5.362-19.781-2.896-7.623-6.755-15.437-11.453-23.325-3.844 6.465-8.257 12.982-13.178 19.484 2.507 4.789 4.663 9.473 6.445 14.008 2.764 7.03 4.642 13.698 5.63 19.856 1.86 11.595.56 21.37-4.078 28.243-7.343 4.742-17.198 6.116-28.676 4.329-2.958 6.607-6.346 12.569-10.153 17.787 3.343.523 6.627.831 9.831.887 14.29.247 24.565-1.741 37.337-14.513 12.773-12.772 15.315-24.697 14.407-40.102M77.562 23.507c-15.644-1.04-27.514 1.215-40.137 13.838C24.803 49.967 23.865 58.007 23.465 71c-.138 4.493.217 9.168 1.012 13.974 1.021 6.17 2.786 12.565 5.236 19.106 2.874 7.673 6.688 15.546 11.348 23.49 3.788-6.445 8.128-12.935 12.974-19.402-2.483-4.714-4.636-9.332-6.415-13.806-2.713-6.823-4.585-13.31-5.637-19.346-2.095-12.022-.886-22.22 3.782-29.482C52.8 40.703 62.95 39.45 75.017 41.57c2.905-6.36 6.192-12.126 9.847-17.205a77.58 77.58 0 0 0-7.302-.858"/>
  <path fill="#49bc82" d="M194.634 99.58c-.35-3.46-.764-6.868-1.244-10.215-1.16-8.086-2.704-15.822-4.613-23.127-2.29-8.764-5.107-16.903-8.435-24.259-6.025 1.017-12.527 2.872-19.373 5.57 1.893 4.439 3.628 9.242 5.198 14.348a176.396 176.396 0 0 1 2.885 10.535c.898 3.728 1.707 7.59 2.422 11.578 1.366 7.602 2.38 15.66 3 24.099.457 6.234.71 12.664.71 19.287 0 6.678-.257 13.157-.722 19.435 5.6-6.462 10.652-12.912 15.103-19.27a198.948 198.948 0 0 0 6.285-9.56 270.928 270.928 0 0 0-1.216-18.421M89.081 193.54a172.75 172.75 0 0 1-2.95-10.935c-.847-3.6-1.62-7.319-2.297-11.17-1.362-7.737-2.356-15.975-2.96-24.621a278.079 278.079 0 0 1-.68-19.418c0-6.667.255-13.128.714-19.385-5.615 6.484-10.665 12.978-15.136 19.397a202.164 202.164 0 0 0-6.459 9.862c.19 6.098.564 12.074 1.114 17.902.349 3.693.763 7.331 1.255 10.896 1.104 7.991 2.572 15.637 4.395 22.86 2.243 8.882 5.03 17.117 8.354 24.547 6.17-1.025 12.821-2.916 19.827-5.696-1.893-4.402-3.623-9.16-5.177-14.239"/>
  <path fill="#fabb66" d="M108.366 53.771a254.632 254.632 0 0 0-8.786 6.956 271.209 271.209 0 0 1 18.813-1.231 176.243 176.243 0 0 0-10.027-5.725M45.533 209.595c-4.83-7.033-6.084-17.185-3.963-29.251-6.36-2.905-12.127-6.192-17.205-9.848-.403 2.471-.7 4.91-.859 7.302-1.04 15.644 1.216 27.515 13.838 40.137 12.622 12.621 20.662 13.559 33.655 13.96 4.306.133 8.777-.191 13.372-.917-3.721-5.151-7.038-11.015-9.94-17.503-11.767 1.954-21.753.711-28.898-3.88M108.183 201.317c-4.756 2.507-9.414 4.672-13.925 6.462 2.94 6.836 6.265 12.813 9.901 17.839 7.606-2.855 15.407-6.634 23.28-11.243-6.392-3.82-12.83-8.19-19.256-13.058M146.945 201.364a246.144 246.144 0 0 0 8.227-6.43 285.82 285.82 0 0 1-17.515 1.1 171.928 171.928 0 0 0 9.288 5.33"/>
  <path fill="#fabb66" d="M94.258 207.78c-7.006 2.779-13.658 4.67-19.827 5.695 2.902 6.488 6.219 12.352 9.94 17.503 6.38-1.007 13.006-2.814 19.788-5.36-3.636-5.026-6.962-11.003-9.901-17.839M217.659 37.62c-12.772-12.772-24.696-15.315-40.102-14.408a74.41 74.41 0 0 0-7.475.845c-6.178 1-12.567 2.761-19.1 5.238-7.692 2.915-15.578 6.812-23.539 11.563 6.52 3.814 13.087 8.193 19.632 13.09 4.749-2.485 9.395-4.626 13.894-6.399 6.846-2.698 13.348-4.553 19.373-5.57 11.85-2 21.84-.735 28.827 3.98 4.743 7.343 6.116 17.198 4.329 28.676 6.607 2.959 12.569 6.346 17.788 10.154.522-3.344.831-6.628.886-9.833.248-14.289-1.74-24.564-14.513-37.336M207.795 94.667c-1.755 4.394-3.869 8.92-6.322 13.545a171.513 171.513 0 0 1-5.623 9.79 198.948 198.948 0 0 1-6.285 9.56c-4.451 6.357-9.503 12.807-15.103 19.27a277.267 277.267 0 0 1-13.527 14.529 264.37 264.37 0 0 1-14.122 13.126c8.61-.602 16.815-1.591 24.526-2.945a198.74 198.74 0 0 0 11.266-2.314 285.393 285.393 0 0 0 12.101-13.715 254.707 254.707 0 0 0 6.698-8.45c4.921-6.502 9.334-13.019 13.178-19.484 4.603-7.74 8.386-15.407 11.252-22.893-5.065-3.64-11.11-7.015-18.039-10.019M83.913 83.902a201.19 201.19 0 0 0-11.48 2.406 271.699 271.699 0 0 0-11.94 13.62 245.333 245.333 0 0 0-6.458 8.24c-4.846 6.467-9.186 12.957-12.974 19.402-4.67 7.944-8.5 15.817-11.384 23.49 4.999 3.54 10.904 6.815 17.645 9.734 1.819-4.535 4.018-9.221 6.557-14.004a176.994 176.994 0 0 1 5.434-9.52 202.164 202.164 0 0 1 6.46-9.862c4.47-6.419 9.52-12.913 15.135-19.397a262.533 262.533 0 0 1 27.2-27.124c-8.473.622-16.565 1.642-24.195 3.015"/>
  <path fill="#276392" d="M236.835 89.233a74.052 74.052 0 0 0-5.55-4.444c-5.218-3.808-11.18-7.195-17.787-10.154-7.477-3.346-15.773-6.146-24.721-8.397 1.91 7.305 3.452 15.04 4.613 23.127 5.135 1.6 9.954 3.372 14.405 5.302 6.928 3.004 12.974 6.378 18.039 10.02 9.62 6.914 15.68 14.794 17.27 22.984-1.83 8.502-7.772 16.404-17.069 23.233 2.573 6.773 4.38 13.392 5.362 19.781 2.692-1.97 5.194-4.048 7.468-6.244 10.28-9.93 16.139-18.6 16.139-36.664 0-18.063-6.634-28.292-18.17-38.544M61.682 166.068c-5.116-1.59-9.921-3.352-14.36-5.274-6.74-2.919-12.646-6.195-17.645-9.733-9.875-6.989-16.166-15.006-17.99-23.39 1.565-8.43 7.908-16.533 18.026-23.59-2.45-6.542-4.215-12.937-5.236-19.107a77.627 77.627 0 0 0-5.88 4.638C6.797 99.938 0 109.928 0 127.777c0 17.851 5.022 24.198 13.926 33.67 3.038 3.23 6.542 6.245 10.439 9.049 5.078 3.656 10.845 6.943 17.205 9.848 7.419 3.39 15.64 6.258 24.507 8.584-1.823-7.223-3.291-14.869-4.395-22.86M127.773 65.647a202.318 202.318 0 0 0-9.38-6.151c-6.415.199-12.696.613-18.813 1.23-3.52.356-6.983.779-10.385 1.27-8.001 1.154-15.658 2.682-22.892 4.57-8.787 2.293-16.947 5.115-24.32 8.45 1.052 6.035 2.924 12.523 5.637 19.346 4.392-1.87 9.137-3.586 14.18-5.139 3.41-1.05 6.95-2.028 10.632-2.915a201.19 201.19 0 0 1 11.481-2.406c7.63-1.373 15.722-2.393 24.196-3.015 6.233-.458 12.663-.71 19.286-.71 6.877 0 13.541.273 19.993.765-6.556-5.681-13.125-10.786-19.615-15.295M207.85 161.07c-4.45 1.918-9.266 3.668-14.407 5.238a172.337 172.337 0 0 1-10.838 2.92 198.74 198.74 0 0 1-11.266 2.314c-7.711 1.354-15.915 2.343-24.526 2.945-6.265.439-12.737.679-19.418.679-6.468 0-12.745-.237-18.828-.67 6.39 5.534 12.766 10.53 19.054 14.941a198.755 198.755 0 0 0 10.036 6.596 285.82 285.82 0 0 0 17.515-1.1c3.635-.343 7.217-.75 10.728-1.234 8.076-1.11 15.804-2.589 23.097-4.433 8.858-2.24 17.07-5.023 24.482-8.339-.988-6.158-2.866-12.826-5.63-19.856"/>
  <path fill="#57b6df" d="M146.945 201.364a171.928 171.928 0 0 1-9.288-5.33 198.755 198.755 0 0 1-10.036-6.597c-6.288-4.41-12.664-9.407-19.054-14.942a277.803 277.803 0 0 1-14.568-13.56 264.356 264.356 0 0 1-13.126-14.121c.605 8.646 1.599 16.884 2.96 24.621.678 3.851 1.45 7.57 2.299 11.17a285.756 285.756 0 0 0 13.926 12.275 253.59 253.59 0 0 0 8.125 6.437c6.425 4.869 12.864 9.239 19.256 13.058 7.857 4.694 15.64 8.551 23.234 11.46 3.642-5.066 7.016-11.11 10.02-18.039-4.458-1.78-9.053-3.932-13.748-6.432M171.474 84.01a200.469 200.469 0 0 0-2.422-11.578 271.23 271.23 0 0 0-13.413-11.766 246.074 246.074 0 0 0-8.564-6.718c-6.545-4.897-13.112-9.276-19.632-13.09-7.826-4.576-15.582-8.338-23.144-11.18-3.538 4.998-6.814 10.904-9.732 17.644 4.47 1.793 9.086 3.958 13.799 6.449 3.299 1.744 6.643 3.642 10.027 5.725 3.1 1.907 6.23 3.963 9.38 6.15 6.49 4.51 13.059 9.615 19.615 15.296a262.917 262.917 0 0 1 27.085 27.167c-.62-8.438-1.633-16.497-2.999-24.1"/>
</svg>
