<svg xmlns="http://www.w3.org/2000/svg" viewBox="0 0 256 248.336">
  <path fill="#72c7e6" d="M256 124.168c0 68.576-57.308 124.168-128 124.168-70.692 0-128-55.592-128-124.168C0 55.592 57.308 0 128 0c70.692 0 128 55.592 128 124.168"/>
  <path fill="#fff" d="M45.605 111.521S40.43 85.75 92.647 79.904c2.14-34.427 123.497-35.193 93.22 8.623 22.42 7.76 18.78 23.377 18.78 23.377s.894 8.815-6.898 16.863c-7.793 8.047-16.115 13.051-42.156 13.03-10.447-.009-25.293.51-42.667-7.41-23.505 4.855-48.992.014-56.718-5.876-12.902-9.836-10.603-16.99-10.603-16.99"/>
  <path fill="#002c77" d="M45.605 111.521v39.856s2.683 36.024 68.216 21.845c26.059 19.161 86.227 6.898 90.826-15.713v-45.605c.383 11.114-51.353 41.39-90.443 15.33-58.252 13.03-68.6-15.713-68.6-15.713"/>
</svg>
