<svg xmlns="http://www.w3.org/2000/svg" viewBox="0 0 256 167.479">
  <path fill="#0071ce" d="M218.621 161.619a7.753 7.753 0 0 1-2.407-15.124c14.749-4.827 24.277-17.754 24.277-32.935 0-19.226-15.64-34.868-34.865-34.868-1.336 0-2.773.105-4.521.332l-7.582.983-1.088-7.57c-4.659-32.456-32.932-56.932-65.767-56.932-27.145 0-51.311 16.25-61.559 41.402l-1.93 4.732-5.106.093c-23.469.431-42.562 19.868-42.562 43.325 0 17.124 9.942 32.74 25.327 39.782a7.753 7.753 0 0 1-6.453 14.1C13.496 149.38 0 128.23 0 105.058c0-30.155 23.234-55.415 52.745-58.518C66.343 18.107 94.842 0 126.665 0c38.09 0 71.201 26.705 79.787 63.195C233.848 63.639 256 86.062 256 113.562c0 21.67-14.052 40.826-34.963 47.67-.8.261-1.615.387-2.416.387z"/>
  <path fill="#dc8327" d="m100.017 164.973-.004-.002-.006-.002h-.002l-.002-.002-.002-.002s-.002 0-.002-.002h-.002l-.002-.002c.002-.002-.002-.002-.002-.002l-.002-.002h-.002l-.002-.002-.002-.002-.007-.002-.002-.002-.002-.002-.002-.002-.006-.002c-.002.002-.002-.002-.004-.002l-.002-.002-.004-.002-.002-.002c-.002-.002-.006-.002-.008-.002l-.008-.002-.004-.002h-.002c-.002-.002-.004-.002-.006-.002-.002-.002-.006-.002-.006-.002h-.002l-.004-.002c-.002 0-.002-.002-.002-.002h-.002a1.31 1.31 0 0 0-.38-.075H99.512l-.002-.002H99.49h.002-.016c-3.352 0-6.094-2.728-6.114-6.07V90.641h5.221c.795.035 1.338-.577 1.338-1.311 0-.549-.336-1.018-.814-1.214L74.054 70.826a1.314 1.314 0 0 0-1.491 0L47.315 88.252a1.314 1.314 0 0 0 .745 2.392h5.22l.005 68.147c.026 4.711 3.81 8.556 8.625 8.678.055.006.107.01.162.01h37.422c.344-.006.656-.144.887-.365l.002-.002.01-.01c.002-.002.004-.002.006-.006l.002-.002.002-.002.002-.002.002-.002.002-.002.002-.002c.004-.002.002-.002.004-.004l.002-.002.002-.002.002-.002c.227-.235.368-.552.37-.904v-.02a1.323 1.323 0 0 0-.775-1.176z"/>
  <path fill="#f4b21b" d="m154.125 164.973-.004-.002-.006-.002h-.002l-.002-.002-.002-.002h-.002l-.002-.002-.002-.002c.002-.002-.002-.002-.004-.002l-.002-.002h-.002c-.002 0-.002-.002-.002-.002-.004.002-.004-.002-.004-.002l-.004-.002-.002-.002h-.002l-.002-.002-.002-.002-.004-.002c-.002.002-.002-.002-.006-.002l-.002-.002-.002-.002-.004-.002c-.002-.002-.006-.002-.008-.002l-.008-.002-.004-.002-.004-.002-.004-.002-.004-.002c-.006 0-.002 0-.004-.002l-.004-.002-.002-.002h-.002a1.31 1.31 0 0 0-.38-.075h-.017l-.002-.002H153.576c-3.35 0-6.091-2.728-6.111-6.07v-52.871h5.219a1.311 1.311 0 0 0 .55-2.526l-25.053-17.29a1.314 1.314 0 0 0-1.492 0l-25.238 17.424a1.314 1.314 0 0 0 .745 2.392h5.197l.004 52.89c.022 4.713 3.813 8.56 8.63 8.68.052.006.104.008.157.008h37.423c.344-.006.655-.144.886-.365l.002-.002c.004-.004.012-.008.01-.01.002-.002.004-.002.006-.006l.002-.002.002-.002.002-.002s.002 0 .002-.002l.002-.002c.002 0 .002-.002.002-.002.006-.002.004-.002.004-.004l.002-.002.002-.002.002-.002c.227-.235.368-.552.37-.904v-.02a1.328 1.328 0 0 0-.777-1.174z"/>
  <path fill="#f2d864" d="m208.374 164.973-.004-.002-.006-.002h-.002l-.002-.002-.002-.002c-.002 0-.002 0-.002-.002h-.002l-.002-.002-.002-.002s-.002 0-.002-.002h-.002l-.002-.002c-.002.002-.002-.002-.004-.002.002-.002-.002-.002-.004-.002l-.002-.002h-.002l-.002-.002-.002-.002-.004-.002c-.002.002-.002-.002-.006-.002l-.002-.002c.002-.002-.002-.002-.004-.002 0 0-.002 0-.002-.002-.002-.002-.006-.002-.008-.002l-.008-.002-.004-.002-.004-.002-.004-.002-.004-.002c-.006 0-.006 0-.004-.002-.002 0-.002-.002-.002-.002l-.004-.002h-.002a1.31 1.31 0 0 0-.38-.075H207.868l-.004-.002H207.828h.008-.002c-3.35 0-6.091-2.728-6.112-6.07v-37.62h5.234c.738-.018 1.337-.576 1.337-1.311 0-.548-.336-1.018-.813-1.214l-25.056-17.292a1.314 1.314 0 0 0-1.491 0l-25.248 17.425a1.314 1.314 0 0 0 .745 2.392h5.207l.004 37.639c.026 4.713 3.814 8.562 8.629 8.68.052.006.105.008.158.008h37.422c.344-.006.656-.144.887-.365l.002-.002c.004-.004.01-.008.01-.01.002-.002.004-.002.006-.006l.002-.002.002-.002.002-.002.002-.002.002-.002.002-.002c.006-.002.002-.002.004-.004l.002-.002.002-.002.002-.002c.226-.235.368-.552.37-.904v-.02a1.32 1.32 0 0 0-.773-1.174z"/>
</svg>
