<svg xmlns="http://www.w3.org/2000/svg" viewBox="0 0 256 278.998">
  <path fill="#005eec" d="M126.814.002c26.699-.23 49.662 18.852 54.32 45.142 25.11-9.555 53.438.566 66.808 23.868l.024.048.25.475c12.894 22.95 7.727 51.82-12.327 68.873 20.78 17.084 26.186 46.675 12.79 70.002l-.091.156c-.064.102-.132.2-.207.295-13.275 22.723-40.89 32.716-65.632 23.75-4.043 26.5-26.718 46.15-53.524 46.385-26.805.231-49.819-19.021-54.322-45.447-24.35 9.264-51.727.025-65.553-21.796l-.1-.161.4.666-1.567-2.553a3.765 3.765 0 0 1-.25-.487C-5.073 186.27.09 157.396 20.149 140.344c-20.83-17.08-26.24-46.724-12.79-70.061l.09-.154c.064-.102.132-.203.196-.298 13.308-22.69 40.898-32.67 65.644-23.75C77.488 19.716 100.116.237 126.814.003zm.302 9.565c-24.266.092-43.862 19.837-43.77 44.103a5.462 5.462 0 0 1-.63 2.921 5.367 5.367 0 0 1-7.28 2.209l-.624-.328C54.141 47.847 28.7 55.17 16.87 75.27c-.064.142-.135.28-.213.416l-.353.623C4.86 96.937 11.641 122.992 31.81 135.392a5.332 5.332 0 0 1 2.15 1.971 5.427 5.427 0 0 1-1.723 7.446l-1.25.808-.52.357C12.1 158.781 6.151 183.436 16.863 203.268l.34.618c.094.13.181.265.261.404l.361.616c12.053 20.216 37.964 27.373 58.716 16.091a5.367 5.367 0 0 1 8.313 4.335l.07 1.852-.094-1.852a43.937 43.937 0 0 0 87.873-.333 5.38 5.38 0 0 1 7.909-5.118l.624.327c20.657 10.598 46.063 3.285 57.895-16.785l.214-.428h.023c11.93-20.705 5.233-47.143-15.116-59.67a5.427 5.427 0 0 1-.428-9.43h.012c19.964-12.541 26.586-38.534 15.057-59.1a4.389 4.389 0 0 1-.249-.392l-.36-.617c-12.037-20.238-37.971-27.395-58.717-16.079a5.462 5.462 0 0 1-2.779.89 5.403 5.403 0 0 1-5.569-5.224v-.036c-.092-24.265-19.837-43.862-44.103-43.77zM92.854 151.583a11.281 11.281 0 0 1 20.594 9.138c-1.912 4.085-2.019 6.496-.724 9.37l9.832 20.934c1.924 4.216 6.092 5.641 9.5 6.472h-.012a24.854 24.854 0 1 1-25.543 9.037c2.743-3.586 3.563-6.092 2.518-10.592l-5.273-22.634c-.724-2.92-2.22-4.381-6.471-6.84a11.281 11.281 0 0 1-4.422-14.885zm4-35.85a11.329 11.329 0 0 1 2.32 22.51c-4.488.367-6.626 1.483-8.478 4.048l-13.17 19c-2.67 3.776-1.828 8.11-.83 11.483a24.937 24.937 0 1 1-20.58-17.682c4.477.594 7.054.06 10.415-3.099l16.91-15.9c2.173-2.09 2.671-4.12 2.671-9.037a11.329 11.329 0 0 1 10.743-11.322zm84.21 46.057a24.77 24.77 0 0 1 22.478-7.374c11.76 2.123 20.361 12.292 20.504 24.242.143 11.95-8.213 22.321-19.92 24.725-11.706 2.404-23.472-3.836-28.05-14.875-1.722-4.192-3.468-6.151-7.885-7.493l-22.158-6.733c-2.898-.831-4.893-.261-9.132 2.197a11.174 11.174 0 0 1-7.66 1.342c-5.996-1.262-9.903-7.063-8.817-13.094 1.086-6.031 6.771-10.105 12.831-9.195a11.174 11.174 0 0 1 6.757 4.013c2.565 3.717 4.607 5.023 7.719 5.32l23.001 1.936c4.596.44 7.956-2.47 10.331-5.011zm-1.183-83.965c7.783-8.828 20.708-11.022 30.984-5.207 10.393 5.882 15.157 18.306 11.361 29.63-3.796 11.322-15.087 18.364-26.925 16.793-4.465-.606-7.042-.06-10.402 3.099l-16.886 15.888c-2.173 2.102-2.672 4.12-2.672 9.049a11.305 11.305 0 1 1-19.914-7.315 11.234 11.234 0 0 1 6.852-3.871c4.5-.368 6.638-1.484 8.455-4.05l13.157-19c2.683-3.787 1.828-8.11.843-11.494a24.937 24.937 0 0 1 4.88-23.215zM125.192 27.39a24.937 24.937 0 0 1 19.712 40.232c-2.707 3.562-3.562 6.068-2.458 10.628l5.273 22.562c.724 2.933 2.22 4.393 6.46 6.84a11.281 11.281 0 1 1-16.174 5.759c1.912-4.085 2.03-6.507.725-9.37l-9.82-20.946c-1.937-4.216-6.093-5.641-9.5-6.46l-.048.023a24.996 24.996 0 0 1-2.577-47.796 24.558 24.558 0 0 1 8.407-1.472zM47.323 70.748c11.709-2.405 23.477 3.835 28.055 14.877 1.721 4.18 3.479 6.151 7.884 7.493l22.17 6.733c2.886.831 4.893.25 9.132-2.209a11.329 11.329 0 1 1-3.123 16.945c-2.565-3.716-4.595-5.023-7.718-5.32l-22.99-1.935c-4.595-.44-7.956 2.458-10.331 5.011a24.83 24.83 0 0 1-22.479 7.374c-11.764-2.118-20.37-12.285-20.517-24.237-.146-11.952 8.209-22.327 19.917-24.732z"/>
</svg>
