<svg xmlns="http://www.w3.org/2000/svg" viewBox="0 0 256 115.785">
  <path fill="#fff" d="m202.357 49.395-5.311-2.124C172.085 103.435 72.786 69.29 66.81 85.998c-.996 11.286 54.227 2.146 93.706 4.059 12.039.583 18.076 9.67 12.964 24.484l10.069.03c11.615-36.208 48.683-17.73 50.232-29.68-2.545-7.856-42.601 0-31.425-35.496z"/>
  <path fill="#f4811f" d="M176.332 108.349c1.593-5.311 1.062-10.622-1.593-13.809-2.656-3.187-6.374-5.311-11.154-5.842L71.17 87.635c-.531 0-1.062-.531-1.593-.531-.531-.531-.531-1.062 0-1.593.531-1.062 1.062-1.594 2.124-1.594l92.946-1.062c11.154-.531 22.839-9.56 27.087-20.182l5.312-13.809c0-.532.531-1.063 0-1.594C191.203 20.183 166.772 0 138.091 0 111.535 0 88.697 16.996 80.73 40.897c-5.311-3.718-11.684-5.843-19.12-5.311-12.747 1.062-22.838 11.684-24.432 24.431-.531 3.187 0 6.374.532 9.56C16.996 70.108 0 87.104 0 108.349c0 2.124 0 3.718.531 5.842 0 1.063 1.062 1.594 1.594 1.594h170.489c1.062 0 2.125-.531 2.125-1.594z"/>
  <path fill="#faad3f" d="M205.544 48.864h-2.656c-.531 0-1.062.53-1.593 1.062l-3.718 12.746c-1.593 5.312-1.062 10.624 1.594 13.81 2.655 3.186 6.373 5.31 11.153 5.842l19.652 1.063c.53 0 1.062.53 1.593.53.53.532.53 1.063 0 1.594-.531 1.063-1.062 1.594-2.125 1.594l-20.182 1.061c-11.154.532-22.838 9.56-27.087 20.183l-1.063 4.78c-.531.532 0 1.594 1.063 1.594h70.108c1.062 0 1.593-.531 1.593-1.593 1.062-4.25 2.124-9.03 2.124-13.81 0-27.618-22.838-50.456-50.456-50.456"/>
</svg>
