<svg xmlns="http://www.w3.org/2000/svg" viewBox="0 0 256 398.543">
  <path fill="#c08a07" d="m143.84 128.266 72.213-43.49v169.125l-69.798 41.476v37.046L254.71 267.19V24.106l-110.87 66.98z"/>
  <path fill="#f6b71f" d="M145.645 89.909 254.71 24.106 216.858 1.288 109.722 65.366z"/>
  <path fill="#4286c5" d="M36.995 154.574 144.82 90.213l-35.359-24.847-108.17 64.779z"/>
  <path fill="#22496e" d="M143.84 91.085 36.994 154.574v242.68l109.26-64.83v-37.047l-71.677 43.356V169.205l69.261-40.94z"/>
  <path fill="#30689c" d="M1.29 130.145V377.12l35.705 20.134V154.574z"/>
  <path fill="#4286c5" d="m74.578 338.732 72.352-44.03-33.507-21.64-38.845 23.12z"/>
  <path fill="#f6b71f" d="m146.93 294.702 69.123-40.8-35.436-20.672-67.53 40.148z"/>
  <path fill="#e4a409" d="M216.053 253.901V84.776l-35.436 21.41V233.23z"/>
  <path fill="#241200" d="M147.544 330.144v-34.033l69.141-41.089c.003-.002.007-.001.01-.003s.004-.006.008-.008l.007-.004c.003-.002.002-.006.005-.008.385-.236.628-.65.628-1.1V84.777c0-.465-.252-.893-.655-1.123h-.003a1.297 1.297 0 0 0-1.299.019l-.989.597-68.287 40.774V90.871l107.31-64.48v240.067zM38.286 155.306 143.53 92.408v34.181l-69.607 41.505a1.292 1.292 0 0 0-.636 1.111v169.527c0 .466.252.894.658 1.12a1.272 1.272 0 0 0 1.299-.019l69.72-42.173v34.026L38.286 394.988zM2.58 132.589l33.126 22.663v239.793L2.58 376.364zM109.332 66.79l33.911 23.139-106.197 63.115-33.372-22.83zm107.52-64.002 35.363 21.317-106.642 64.43-33.907-23.136zm-36.061 229.015L75.867 293.899V169.941l104.924-62.23zm2.58-.002V106.225l31.392-19.164v164.592zm-1.289 2.235 31.427 19.873-66.341 39.35-32.196-20.121zM75.867 296.91l36.686-22.338 32.215 20.134-68.901 41.742zM255.389 23.028c-.009-.006-.006-.021-.015-.027L217.522.183a1.293 1.293 0 0 0-1.321-.003L.626 129.04c-.02.012-.013.043-.032.056-.336.224-.555.58-.577.987 0 .009-.014.014-.014.024 0 .004.005.005.005.009-.001.011-.008.018-.008.029v246.974c0 .466.252.893.657 1.12l35.692 20.126c.004.002.005.006.008.008.199.113.419.17.639.17.223 0 .45-.063.651-.176l.007-.007 217.72-130.071c.387-.233.626-.648.626-1.101L115.314 24.105a1.28 1.28 0 0 0-.611-1.077z"/>
</svg>
