<svg xmlns="http://www.w3.org/2000/svg" viewBox="0 0 512 74.623">
  <g fill="#005eec">
    <path d="M33.919 0a14.627 14.627 0 0 1 14.529 12.075 14.61 14.61 0 0 1 17.869 6.384l.006.012.067.127a14.718 14.718 0 0 1-3.297 18.422 14.737 14.737 0 0 1 3.42 18.723l-.037.062-.042.059a14.579 14.579 0 0 1-17.554 6.352 14.611 14.611 0 0 1-28.846.25A14.61 14.61 0 0 1 2.521 56.67l-.038-.06.067.112-.388-.632a1.007 1.007 0 0 1-.036-.064l-.03-.066a14.712 14.712 0 0 1 3.293-18.421 14.725 14.725 0 0 1-3.42-18.74l.036-.061.04-.06a14.61 14.61 0 0 1 17.557-6.352A14.627 14.627 0 0 1 33.92.001zm.08 2.559c-6.49.024-11.731 5.306-11.707 11.796.018.271-.04.542-.168.781a1.436 1.436 0 0 1-1.947.591l-.274-.142c-5.51-2.762-12.247-.794-15.39 4.547a1.243 1.243 0 0 1-.058.112l-.153.273c-2.979 5.5-1.154 12.4 4.206 15.696a1.451 1.451 0 0 1 .114 2.519l-.321.207-.203.14A11.835 11.835 0 0 0 4.45 54.257l.15.276c.025.035.049.07.07.108l.16.27c3.25 5.326 10.127 7.197 15.641 4.199a1.436 1.436 0 0 1 2.224 1.159l.019.496-.026-.489.006.324a11.752 11.752 0 0 0 5.624 9.656l.285.168A11.752 11.752 0 0 0 46.193 60.18a1.439 1.439 0 0 1 2.115-1.369l.279.144c5.504 2.752 12.23.786 15.373-4.546l.057-.114c3.197-5.538 1.406-12.61-4.037-15.96a1.451 1.451 0 0 1-.114-2.522c5.343-3.355 7.114-10.307 4.03-15.808a1.174 1.174 0 0 1-.066-.105l-.16-.269c-3.246-5.333-10.129-7.203-15.642-4.196a1.461 1.461 0 0 1-.743.238 1.445 1.445 0 0 1-1.49-1.397C45.772 7.776 40.49 2.534 34 2.559zm-9.164 37.985a3.017 3.017 0 0 1 5.509 2.444c-.512 1.092-.54 1.737-.194 2.506l2.63 5.6c.514 1.127 1.63 1.508 2.54 1.73a6.648 6.648 0 1 1-6.834 2.417c.733-.959.953-1.63.673-2.833l-1.41-6.054c-.194-.78-.594-1.172-1.731-1.829a3.017 3.017 0 0 1-1.183-3.981zm1.07-9.589a3.03 3.03 0 0 1 .621 6.02c-1.2.099-1.772.397-2.268 1.083l-3.522 5.082c-.715 1.01-.49 2.17-.222 3.072a6.67 6.67 0 1 1-5.505-4.73c1.198.16 1.887.016 2.786-.829l4.523-4.253c.58-.559.714-1.102.714-2.417a3.03 3.03 0 0 1 2.874-3.028zM48.43 43.274A6.625 6.625 0 0 1 54.44 41.3a6.67 6.67 0 1 1-7.346 9.119c-.46-1.121-.928-1.645-2.11-2.004l-5.926-1.801c-.775-.222-1.309-.07-2.442.587a2.989 2.989 0 0 1-2.049.36 3.03 3.03 0 0 1 1.074-5.962 2.989 2.989 0 0 1 1.807 1.073c.686.994 1.232 1.344 2.064 1.423l6.152.518c1.23.117 2.128-.66 2.764-1.34zM48.217 20.7a6.67 6.67 0 1 1 4.02 11.14c-1.194-.162-1.884-.016-2.783.829l-4.516 4.25c-.581.561-.715 1.101-.715 2.42a3.024 3.024 0 1 1-5.326-1.957 3.005 3.005 0 0 1 1.833-1.036c1.203-.098 1.775-.397 2.261-1.083l3.52-5.081c.717-1.014.488-2.17.225-3.075a6.67 6.67 0 0 1 1.305-6.21zM33.485 7.326a6.67 6.67 0 0 1 5.272 10.76c-.724.954-.953 1.624-.657 2.844l1.41 6.034c.194.785.594 1.175 1.728 1.83a3.017 3.017 0 1 1-4.326 1.54c.511-1.093.543-1.74.194-2.506l-2.627-5.603c-.518-1.127-1.63-1.508-2.54-1.727l-.014.006a6.686 6.686 0 0 1-.689-12.784 6.568 6.568 0 0 1 2.249-.394zM12.657 18.923a6.67 6.67 0 0 1 7.504 3.979c.46 1.118.93 1.645 2.109 2.004l5.93 1.8c.772.223 1.308.068 2.442-.59a3.03 3.03 0 1 1-.835 4.532c-.686-.994-1.23-1.343-2.065-1.422l-6.148-.518c-1.23-.118-2.128.657-2.764 1.34a6.641 6.641 0 0 1-6.012 1.973 6.67 6.67 0 0 1-.16-13.098zM113.714 49.213a20.905 20.905 0 0 1-5.44 4.31c-2.04 1.122-4.687 1.682-7.941 1.68-2.34.021-4.66-.436-6.816-1.343a16.478 16.478 0 0 1-8.957-9.017 16.973 16.973 0 0 1-1.27-6.572v-.124a17.186 17.186 0 0 1 1.27-6.6 16.995 16.995 0 0 1 3.548-5.44 16.436 16.436 0 0 1 5.4-3.669 17.497 17.497 0 0 1 6.936-1.343c3.1 0 5.667.489 7.702 1.467a17.25 17.25 0 0 1 5.38 4.034l-5.688 6.101a15.118 15.118 0 0 0-3.268-2.63 8.236 8.236 0 0 0-4.196-.972 7.216 7.216 0 0 0-3.208.702 7.912 7.912 0 0 0-2.509 1.928 8.718 8.718 0 0 0-1.651 2.859 10.141 10.141 0 0 0-.572 3.436v.121c-.01 1.207.187 2.407.581 3.548a8.404 8.404 0 0 0 1.68 2.858 7.991 7.991 0 0 0 2.63 1.928 8.128 8.128 0 0 0 3.424.702 8.42 8.42 0 0 0 4.065-.953 17.313 17.313 0 0 0 3.453-2.54zm12.593 5.256h-9.3V9.83h9.294zm39.426-16.322a16.448 16.448 0 0 1-1.35 6.62 16.92 16.92 0 0 1-3.73 5.399 17.739 17.739 0 0 1-5.624 3.668c-2.25.913-4.66 1.37-7.09 1.344a18.52 18.52 0 0 1-7.031-1.315 17.176 17.176 0 0 1-5.596-3.586 16.767 16.767 0 0 1-3.698-5.38 16.437 16.437 0 0 1-1.343-6.632v-.124c-.017-2.28.44-4.538 1.343-6.632a16.92 16.92 0 0 1 3.73-5.4 17.63 17.63 0 0 1 5.624-3.668c2.25-.913 4.66-1.37 7.09-1.343a18.52 18.52 0 0 1 7.031 1.315 17.123 17.123 0 0 1 5.593 3.605 16.767 16.767 0 0 1 3.697 5.38 16.437 16.437 0 0 1 1.344 6.632zm-9.17.124v-.124a9.733 9.733 0 0 0-.607-3.458 8.664 8.664 0 0 0-4.532-4.85 8.213 8.213 0 0 0-3.494-.734 8.636 8.636 0 0 0-3.576.702 7.912 7.912 0 0 0-2.658 1.928 8.468 8.468 0 0 0-1.684 2.858c-.386 1.101-.58 2.26-.572 3.427v.121a9.732 9.732 0 0 0 .613 3.45 8.772 8.772 0 0 0 4.495 4.859 8.15 8.15 0 0 0 3.512.733 8.636 8.636 0 0 0 3.577-.702 7.912 7.912 0 0 0 2.658-1.927 8.467 8.467 0 0 0 1.684-2.843c.39-1.107.586-2.273.578-3.446zM199.05 54.47h-9.3v-4.653a19.693 19.693 0 0 1-1.74 1.989c-.64.636-1.346 1.2-2.11 1.68-.8.5-1.664.891-2.569 1.162a10.878 10.878 0 0 1-3.176.43c-3.544 0-6.284-1.08-8.22-3.24-1.935-2.16-2.903-5.135-2.903-8.925V21.698h9.29v18.279c0 2.2.49 3.86 1.468 4.98.978 1.12 2.364 1.681 4.158 1.683 1.79 0 3.206-.56 4.246-1.683 1.04-1.122 1.56-2.782 1.56-4.98V21.698h9.293zm38.082 0h-9.297v-4.713a14.73 14.73 0 0 1-4.129 3.811c-1.607.998-3.634 1.497-6.082 1.5a14.557 14.557 0 0 1-5.561-1.09 13.759 13.759 0 0 1-4.765-3.268 16.325 16.325 0 0 1-3.335-5.307 19.485 19.485 0 0 1-1.254-7.245v-.12a19.486 19.486 0 0 1 1.254-7.246 16.535 16.535 0 0 1 3.3-5.316 13.445 13.445 0 0 1 4.74-3.272 14.702 14.702 0 0 1 5.621-1.099c2.488 0 4.537.49 6.146 1.468a16.516 16.516 0 0 1 4.065 3.42V9.83h9.29zm-9.17-16.322v-.12a10.258 10.258 0 0 0-.635-3.697 9.103 9.103 0 0 0-1.712-2.875 7.385 7.385 0 0 0-2.506-1.832 7.75 7.75 0 0 0-6.174 0 7.696 7.696 0 0 0-2.541 1.832 8.874 8.874 0 0 0-1.74 2.859 10.202 10.202 0 0 0-.636 3.729v.12a10.275 10.275 0 0 0 .635 3.7 8.807 8.807 0 0 0 1.74 2.859 7.705 7.705 0 0 0 2.542 1.836 7.75 7.75 0 0 0 6.174 0 7.394 7.394 0 0 0 2.506-1.836 9.087 9.087 0 0 0 1.712-2.859c.438-1.19.651-2.453.629-3.722zm56.02 16.322h-8.99v-3.55a12.908 12.908 0 0 1-4.098 3.026c-1.588.754-3.523 1.131-5.806 1.131a14.61 14.61 0 0 1-4.37-.635 10.256 10.256 0 0 1-3.577-1.928 9.21 9.21 0 0 1-2.414-3.148 9.932 9.932 0 0 1-.886-4.31v-.12a10.253 10.253 0 0 1 .979-4.647 8.874 8.874 0 0 1 2.718-3.24 12.212 12.212 0 0 1 4.158-1.924 20.769 20.769 0 0 1 5.348-.636 22.888 22.888 0 0 1 4.37.366c1.237.238 2.455.56 3.647.965v-.55c0-1.956-.59-3.438-1.772-4.446-1.182-1.008-2.934-1.517-5.257-1.528-1.591-.02-3.18.134-4.739.458a31.704 31.704 0 0 0-4.31 1.315l-2.343-7.108a36.795 36.795 0 0 1 5.624-1.906 29.611 29.611 0 0 1 7.09-.734c5.094 0 8.8 1.243 11.116 3.729 2.316 2.486 3.481 5.95 3.494 10.392zm-8.8-11.551v-1.645a14.534 14.534 0 0 0-5.93-1.223c-1.999 0-3.568.387-4.707 1.162a3.811 3.811 0 0 0-1.712 3.36v.124a3.433 3.433 0 0 0 1.407 2.935c.938.693 2.16 1.039 3.665 1.039 2.2 0 3.963-.53 5.288-1.588a5.063 5.063 0 0 0 1.982-4.17zm42.477 6.295a20.962 20.962 0 0 1-5.437 4.304c-2.04 1.122-4.686 1.682-7.94 1.68-2.34.02-4.66-.436-6.817-1.344a16.478 16.478 0 0 1-8.956-9.017 16.973 16.973 0 0 1-1.27-6.571v-.124a17.187 17.187 0 0 1 1.27-6.6 16.995 16.995 0 0 1 3.547-5.44 16.437 16.437 0 0 1 5.4-3.67 17.497 17.497 0 0 1 6.937-1.343c3.097 0 5.665.49 7.702 1.468 2.04.98 3.868 2.35 5.38 4.033l-5.685 6.108a15.13 15.13 0 0 0-3.272-2.63c-1.118-.652-2.513-.978-4.186-.978a7.216 7.216 0 0 0-3.208.702 7.912 7.912 0 0 0-2.506 1.928 8.719 8.719 0 0 0-1.651 2.858 10.142 10.142 0 0 0-.581 3.453v.12c-.005 1.205.194 2.401.59 3.539a8.404 8.404 0 0 0 1.68 2.858 7.991 7.991 0 0 0 2.63 1.928c1.077.48 2.245.72 3.424.702a8.398 8.398 0 0 0 4.062-.953 17.24 17.24 0 0 0 3.456-2.54zm31.053 5.256h-8.985v-3.55a12.978 12.978 0 0 1-4.097 3.026c-1.588.754-3.524 1.131-5.806 1.131a14.585 14.585 0 0 1-4.37-.635 10.227 10.227 0 0 1-3.577-1.928 9.258 9.258 0 0 1-2.417-3.148 9.932 9.932 0 0 1-.886-4.31v-.12c-.04-1.604.294-3.195.978-4.647a8.915 8.915 0 0 1 2.722-3.24 12.184 12.184 0 0 1 4.158-1.924 20.75 20.75 0 0 1 5.348-.636 22.91 22.91 0 0 1 4.37.366c1.234.242 2.449.57 3.637.978v-.562c0-1.957-.59-3.439-1.772-4.447-1.181-1.008-2.934-1.517-5.256-1.528-1.592-.02-3.181.134-4.74.458a31.704 31.704 0 0 0-4.31 1.315l-2.321-7.093c1.82-.786 3.7-1.423 5.622-1.905a29.62 29.62 0 0 1 7.092-.734c5.095 0 8.8 1.243 11.116 3.729 2.317 2.486 3.482 5.95 3.494 10.392zm-8.804-11.551v-1.645a14.143 14.143 0 0 0-2.719-.887 14.563 14.563 0 0 0-3.21-.336c-1.995 0-3.564.387-4.708 1.162a3.811 3.811 0 0 0-1.709 3.36v.124a3.437 3.437 0 0 0 1.404 2.935c.936.693 2.159 1.039 3.669 1.039 2.2 0 3.962-.53 5.288-1.588a5.06 5.06 0 0 0 1.985-4.17zm46.581 11.551h-9.293v-4.713a14.677 14.677 0 0 1-4.13 3.811c-1.606.998-3.634 1.497-6.082 1.5-1.908 0-3.797-.374-5.56-1.103a13.759 13.759 0 0 1-4.765-3.268 16.325 16.325 0 0 1-3.332-5.294 19.486 19.486 0 0 1-1.27-7.245v-.12c-.04-2.475.39-4.933 1.27-7.246a16.535 16.535 0 0 1 3.3-5.316 13.444 13.444 0 0 1 4.739-3.272 14.69 14.69 0 0 1 5.622-1.099c2.485 0 4.534.49 6.145 1.468a16.443 16.443 0 0 1 4.063 3.42V9.83h9.293zm-9.157-16.328v-.12a10.258 10.258 0 0 0-.635-3.698 9.103 9.103 0 0 0-1.712-2.874 7.384 7.384 0 0 0-2.506-1.833 7.75 7.75 0 0 0-6.174 0 7.696 7.696 0 0 0-2.541 1.833 8.874 8.874 0 0 0-1.74 2.858 10.202 10.202 0 0 0-.636 3.73v.12a10.275 10.275 0 0 0 .635 3.7 8.808 8.808 0 0 0 1.74 2.859 7.705 7.705 0 0 0 2.542 1.835 7.75 7.75 0 0 0 6.174 0 7.394 7.394 0 0 0 2.506-1.835 9.087 9.087 0 0 0 1.712-2.859c.44-1.189.655-2.449.635-3.716zm44.87.858c0 .447 0 .835-.032 1.162-.032.327-.051.711-.093 1.16h-22.8c.448 2.117 1.375 3.716 2.781 4.798 1.406 1.082 3.149 1.622 5.228 1.62a10.345 10.345 0 0 0 4.155-.794 14.2 14.2 0 0 0 3.792-2.566l5.295 4.704a16.478 16.478 0 0 1-5.625 4.494c-2.2 1.08-4.788 1.62-7.763 1.62a18.64 18.64 0 0 1-6.816-1.223 15.728 15.728 0 0 1-5.44-3.494 16.16 16.16 0 0 1-3.577-5.339 17.786 17.786 0 0 1-1.27-6.876v-.124a18.329 18.329 0 0 1 1.19-6.6 16.833 16.833 0 0 1 3.333-5.44 15.528 15.528 0 0 1 11.675-5.013c2.731 0 5.096.49 7.092 1.468a14.404 14.404 0 0 1 4.977 3.941 16.398 16.398 0 0 1 2.932 5.686c.638 2.173.96 4.427.953 6.692zm-9.05-3.494c-.285-2.082-1.019-3.763-2.2-5.044-1.182-1.28-2.754-1.92-4.717-1.915-1.954 0-3.533.635-4.736 1.906-1.202 1.27-1.987 2.964-2.353 5.081zm62.78 18.949h-9.29V36.19c0-2.2-.47-3.861-1.407-4.984-.938-1.122-2.29-1.684-4.053-1.686-1.753 0-3.13.56-4.129 1.68-1 1.12-1.496 2.783-1.49 4.99v18.275h-9.29V36.191c0-2.2-.469-3.861-1.407-4.984-.938-1.122-2.282-1.684-4.033-1.686-1.754 0-3.13.56-4.13 1.68-.999 1.12-1.497 2.783-1.495 4.99v18.275h-9.281V21.698h9.29v4.647c.537-.7 1.12-1.365 1.744-1.988.638-.637 1.346-1.2 2.109-1.68a10.348 10.348 0 0 1 2.598-1.163 11.3 11.3 0 0 1 3.208-.426c1.95-.051 3.879.412 5.593 1.344a9.093 9.093 0 0 1 3.637 3.852 14.88 14.88 0 0 1 4.764-3.88 13.219 13.219 0 0 1 5.99-1.316c3.466 0 6.176 1.019 8.13 3.056 1.955 2.037 2.933 5.032 2.936 8.985zM512 21.698l-12.606 33.55a25.564 25.564 0 0 1-1.957 4.25 11.73 11.73 0 0 1-2.293 2.858 7.645 7.645 0 0 1-2.858 1.588c-1.192.344-2.428.51-3.669.489a15.22 15.22 0 0 1-4.522-.61 17.853 17.853 0 0 1-3.73-1.651l3.12-6.724c.627.375 1.292.683 1.985.918.638.23 1.31.353 1.988.365a3.494 3.494 0 0 0 1.925-.458 4.237 4.237 0 0 0 1.315-1.68l-12.822-32.895h9.846l7.445 22.312 7.149-22.312z"/>
  </g>
</svg>
