<svg xmlns="http://www.w3.org/2000/svg" viewBox="0 0 254.844 283.41">
  <path fill="#c1eae2" d="m63.825 31.436 1.73 2.024 59.321 34.224 2.658.506 2.331-.108 59.593-34.43 1.69-2.216L141.843 3.07c-8.344-4.096-20.728-4.092-29.068.004z"/>
  <path fill="#a5e0d3" d="M0 198.444c.63 9.257 6.81 19.967 14.516 25.143l49.309 28.374 1.115-2.65v-68.399l-1.115-2.458-1.726-2.311-59.915-34.578-2.049.131z"/>
  <path fill="#68bdab" d="M254.637 198.444c-.633 9.257-6.813 19.967-14.52 25.143l-48.97 28.374-1.19-2.478V181.41l1.19-2.956 1.87-2.192 59.198-34.199 2.562-.367z"/>
  <path fill="#f14831" d="M191.148 31.436 127.534 68.19l.654 2.956 58.947 34.06 4.013-.259 1.02-3.108V33.891z"/>
  <path fill="#e92023" d="m240.298 59.793-49.15-28.358v73.511l3.42-.558 54.823-31.633.852-1.909c-2.594-4.498-6.08-8.463-9.945-11.053"/>
  <path fill="#c13722" d="m254.776 141.698.068-56.748c-.315-4.626-2.008-9.619-4.598-14.105l-59.1 34.1 1.324 2.295 59.52 34.382 2.786.076z"/>
  <path fill="#a9371e" d="m191.148 104.945 63.629 36.754-63.63 36.753-2.02-3.183V108.36z"/>
  <path fill="#f25257" d="m63.825 178.453 3.443-.195 58.306 33.705 1.96 3.32-1.574 2.123-59.688 34.363-2.447.191z"/>
  <path fill="#f57590" d="M113.01 280.337c4.165 2.04 9.345 3.073 14.525 3.073l.673-1.726v-64.597l-.673-1.805-63.71 36.677z"/>
  <path fill="#f15051" d="M127.533 215.283v68.124c5.18 0 10.344-1.032 14.512-3.076l49.101-28.37-1.263-1.73-60.282-34.753z"/>
  <path fill="#ec402c" d="m191.148 178.453-2.02-1.359-59.94 34.702-1.654 3.486 63.614 36.678z"/>
  <path fill="#f36375" d="m63.825 104.946 2.367.087 59.848-34.526 1.494-2.315-63.709-36.757-1.339 1.534-.163 68.845z"/>
  <path fill="#f25749" d="m14.688 59.793 49.138-28.358v73.511l-3.367.096L6.628 73.954 4.77 70.846c2.594-4.498 6.052-8.463 9.917-11.053"/>
  <path fill="#f14926" d="M4.772 70.846C2.182 75.332.52 80.326.206 84.95L.138 141.7l4.04-.299 58.111-33.534 1.538-2.92z"/>
  <path fill="#ef3844" d="M63.825 104.946.135 141.699l63.69 36.754 1.614-2.686v-66.909z"/>
  <path fill="#9b3940" d="m127.533 141.68-2.323-.072-59.326-34.207-2.06-2.455 63.709-36.757.873 3.192v68.235z"/>
  <path fill="#b62b22" d="m63.825 104.946 63.71 36.733-1.579 2.295-59.27 34.116-2.861.363z"/>
  <path fill="#842921" d="m127.533 141.68 1.287 2.419v68.73l-1.287 2.454-63.71-36.83z"/>
  <path fill="#a01f20" d="m127.533 215.283 63.613-36.829-1.554-2.247-58.78-33.977-3.28-.55z"/>
  <path fill="#7d2629" d="m191.148 104.945-4.55.678-57.873 33.418-1.19 2.638 63.613 36.773z"/>
  <path fill="#7c253b" d="m127.533 141.68 63.613-36.734-63.613-36.757z"/>
  <path fill="#b6e6db" d="m127.533 95.755-39.806 22.971v45.946l39.806 22.975 39.786-22.975v-45.946z"/>
  <path fill="#a5e0d3" d="m127.533 141.68-39.806-22.955v45.946l39.806 22.979 1.741-3.331v-39.846z"/>
  <path fill="#68bdab" d="m127.533 141.68 39.786-22.955v45.946l-39.786 22.979z"/>
</svg>
