<svg xmlns="http://www.w3.org/2000/svg" viewBox="0 0 256 293.421">
  <path fill="#248bd2" d="m197.243 223.709 9.345 16.182a2.397 2.397 0 0 1-.877 3.274l-4.817 2.782a2.357 2.357 0 0 1-3.218-.862l-9.35-16.193c-.616-1.065-1.936-1.456-3.047-.927a89.292 89.292 0 0 1-31.102 8.397c-1.23.1-2.186 1.104-2.186 2.339v18.618a2.36 2.36 0 0 1-2.36 2.36h-5.55a2.405 2.405 0 0 1-2.406-2.404v-18.576c0-1.228-.95-2.225-2.176-2.322a89.384 89.384 0 0 1-31.143-8.295c-1.13-.533-2.469-.135-3.094.947l-9.247 16.018a2.4 2.4 0 0 1-3.277.878l-4.812-2.78a2.36 2.36 0 0 1-.864-3.221l9.266-16.05c.624-1.08.298-2.438-.728-3.148a90.416 90.416 0 0 1-22.827-22.788c-.702-1.012-2.043-1.333-3.11-.717l-16.02 9.249a2.384 2.384 0 0 1-3.257-.873l-2.749-4.761a2.431 2.431 0 0 1 .89-3.322l15.968-9.22c1.067-.615 1.46-1.935.93-3.048a89.359 89.359 0 0 1-8.367-31.184c-.1-1.234-1.105-2.192-2.343-2.192H36.27a2.404 2.404 0 0 1-2.404-2.405v-5.556a2.354 2.354 0 0 1 2.354-2.355h18.461c1.257 0 2.277-.973 2.38-2.226a89.388 89.388 0 0 1 8.355-31.134c.533-1.122.138-2.454-.938-3.075l-15.973-9.224a2.408 2.408 0 0 1-.88-3.29l2.757-4.774a2.393 2.393 0 0 1 3.27-.876l16.014 9.249c1.064.615 2.403.295 3.103-.715a90.415 90.415 0 0 1 22.847-22.805c1.017-.704 1.341-2.05.722-3.121L87.064 53.5a2.363 2.363 0 0 1 .865-3.227l4.813-2.78a2.394 2.394 0 0 1 3.271.877l9.262 16.044a2.351 2.351 0 0 0 3.058.936 89.366 89.366 0 0 1 31.148-8.304c1.235-.098 2.194-1.103 2.194-2.342V36.17a2.43 2.43 0 0 1 2.43-2.43h5.515a2.372 2.372 0 0 1 2.371 2.372V54.72c0 1.235.955 2.238 2.186 2.34a89.274 89.274 0 0 1 31.072 8.382c1.128.536 2.47.139 3.093-.943l9.33-16.153a2.366 2.366 0 0 1 3.232-.866l4.798 2.77a2.408 2.408 0 0 1 .88 3.289l-9.323 16.146c-.623 1.079-.3 2.436.723 3.147a90.943 90.943 0 0 1 12.763 10.72c2.917 2.949 7.558 3.275 10.74.614l31.822-26.618c3.302-2.761 3.613-7.741.677-10.888C225.402 16.024 183.87-2.371 138.095.247 68.685 4.216 5.605 66.099.422 135.429-6.015 221.55 61.954 293.42 146.71 293.42c41.82 0 79.538-17.51 106.26-45.584 3.524-3.702 3.108-9.646-.812-12.925l-31.379-26.247c-2.785-2.33-6.864-2.061-9.39.546a90.88 90.88 0 0 1-13.432 11.396c-1.009.7-1.328 2.039-.714 3.102"/>
  <path fill="#423b3d" d="M146.809 160.523c-7.866 0-14.243-6.377-14.243-14.243 0-7.866 6.377-14.243 14.243-14.243 7.866 0 14.243 6.377 14.243 14.243 0 7.866-6.377 14.243-14.243 14.243m2.6-57.722c-20.073-1.167-37.402 11.274-43.657 28.95-.386 1.092.1 2.31 1.103 2.888l16.612 9.592c1.578.91 1.578 3.187 0 4.098l-16.615 9.593c-1.001.578-1.486 1.794-1.101 2.884 5.982 16.91 22.099 29.028 41.058 29.028 24.755 0 44.687-20.652 43.505-45.667-.99-20.92-19.997-40.15-40.904-41.366"/>
</svg>
