<svg xmlns="http://www.w3.org/2000/svg" viewBox="0 0 256 255.651">
  <path d="m41.416 104.612-37.07-9.919A128.132 128.132 0 0 1 63.964 17.13l19.174 33.183a89.733 89.733 0 0 0-41.722 54.3zm63.35-63.248-9.97-37.069A128.29 128.29 0 0 1 127.875 0v38.348a90.142 90.142 0 0 0-23.11 3.016zm46.477 0 9.92-37.018a128.183 128.183 0 0 1 77.564 59.516l-33.235 19.174a89.733 89.733 0 0 0-54.249-41.672zM0 127.826h38.348a89.17 89.17 0 0 0 3.017 23.11l-37.07 9.92A127.83 127.83 0 0 1 0 127.826zm17.129 63.912 33.388-19.174a90.91 90.91 0 0 0 14.214 18.51l-27.15 27.098a127.825 127.825 0 0 1-20.452-26.434zm46.835 46.784 19.174-33.183a89.12 89.12 0 0 0 44.688 11.964v38.348a127.161 127.161 0 0 1-63.862-17.129zm141.477-65.855 33.184 19.225a128.183 128.183 0 0 1-77.616 59.464l-9.92-37.07a89.733 89.733 0 0 0 54.352-41.62zm46.017-10.482-36.865-10.124a89.427 89.427 0 0 0 0-46.426l37.172-9.92a128.081 128.081 0 0 1-.307 66.47z"/>
</svg>
