<svg xmlns="http://www.w3.org/2000/svg" viewBox="0 0 256 269.418">
  <defs>
    <linearGradient id="a" x1="131.312" x2="131.312" y1="0" y2="262.623" gradientTransform="scale(.97478 1.02587)" gradientUnits="userSpaceOnUse">
      <stop offset="0%" stop-color="#286A87"/>
      <stop offset="100%" stop-color="#00B0E0"/>
    </linearGradient>
  </defs>
  <path fill="url(#a)" d="M200.485 185.751c4.473 0 7.893-3.683 7.893-7.893V73.932c0-23.153-15.523-42.886-36.834-49.463L96.559 1.579A36.462 36.462 0 0 0 86.035 0c-19.207 0-34.73 15.786-34.73 34.73v61.04l8.156-1.579 7.63-5.525V34.73a18.865 18.865 0 0 1 18.944-18.944c1.052 0 2.105 0 2.894.263.79.263 1.842.263 2.631.527l75.774 23.153c14.734 4.472 25.258 18.154 25.258 34.203v103.926c0 4.21 3.683 7.893 7.893 7.893zM256 98.401v94.98c0 2.105-1.579 3.947-3.42 4.736l-113.398 68.407c-3.947 1.842-8.156 2.894-12.63 2.894-3.156 0-6.05-.263-8.155-1.052L6.314 231.268c-3.157-.79-5.525-2.894-6.314-6.051v-93.928h.263c.263 1.315 1.579 2.894 2.894 3.157l111.03 33.677c3.42 1.053 7.104 1.842 11.05 1.842 6.578 0 13.156-1.842 18.418-4.999l42.096-23.942v36.834a14.71 14.71 0 0 0 14.734 14.734c8.42 0 14.997-6.578 14.997-14.734v-53.673l38.413-22.1c1.316-.79 2.105-2.369 2.105-3.684zm-70.249-24.206v63.408l-43.412 8.683c-3.42.789-7.104 1.052-10.524 1.052-5.262 0-10.524-.79-14.734-2.105l-106.82-32.361c-2.105-.264-3.42-2.105-3.42-4.21 0-2.368 1.578-4.21 3.683-4.473l48.937-9.998 55.778-40.255c4.21-3.157 9.735-5.262 15.787-5.262 2.894 0 5.525.526 7.893 1.316l44.727 13.418c1.316 3.157 2.105 6.84 2.105 10.787zm58.672 7.63c3.947 1.053 6.841 4.736 6.841 8.946 0 3.157-1.842 6.051-3.946 7.893l-31.836 22.89V73.669c-.263-.263-.263-.263-.263-.526z" style="fill:url(#a)"/>
</svg>
