<svg xmlns="http://www.w3.org/2000/svg" viewBox="0 0 255.578 255.578">
  <path fill="#fff" d="M244.965 128.614c0 64.731-52.475 117.206-117.206 117.206S10.553 193.345 10.553 128.614 63.028 11.407 127.759 11.407s117.206 52.476 117.206 117.207"/>
  <path fill="#3c4655" d="M127.789 255.578c-34.134 0-66.224-13.293-90.36-37.43C13.293 194.014 0 161.924 0 127.789c0-34.133 13.293-66.223 37.429-90.36C61.565 13.292 93.655 0 127.789 0s66.224 13.292 90.36 37.428c24.136 24.137 37.429 56.227 37.429 90.36 0 34.135-13.293 66.225-37.43 90.36-24.135 24.137-56.225 37.43-90.36 37.43zm0-241.637c-30.41 0-59 11.842-80.503 33.345S13.941 97.38 13.941 127.79c0 30.41 11.842 59 33.345 80.502 21.503 21.504 50.093 33.346 80.503 33.346 30.41 0 59-11.842 80.502-33.346 21.504-21.503 33.346-50.092 33.346-80.502 0-30.41-11.842-59-33.346-80.503-21.503-21.503-50.092-33.345-80.502-33.345z"/>
  <path fill="#3c4655" d="M86.439 95.004c0-7.052.036-13.727-.028-20.4-.014-1.532.94-2.074 2.018-2.612 4.75-2.372 9.886-3.55 14.986-4.854 20.835-5.329 41.251-3.31 61.37 3.535 5.27 1.793 5.226 1.924 5.226 7.42V94.89c-.821.113-1.188-.385-1.628-.686-11.844-8.117-24.713-14.108-38.321-18.6-1.841-.61-3.457-.583-5.279.053-13.124 4.58-25.536 10.565-36.998 18.464-.336.232-.683.448-1.346.882"/>
  <path fill="#6e717e" d="M107.983 46.098c0-2.744.149-5.5-.046-8.23-.16-2.231.923-3.39 2.708-4.247 3.914-1.88 8.096-2.818 12.363-3.332 7.051-.85 13.884.235 20.481 2.78 3.86 1.49 4.134 1.986 4.134 6.028 0 5.278-.034 10.557.022 15.834.015 1.408-.135 1.953-1.84 1.613-12.075-2.4-24.175-2.439-36.242.075-1.511.314-1.621-.235-1.598-1.443.056-3.026.018-6.052.018-9.078"/>
  <path fill="#3c4655" d="M222.42 157.427c-3.721-2.4-7.305-5.016-11.061-7.356-7.58-4.722-15.286-9.232-23.9-11.871-2.61-.8-5.269-1.594-8.06-.727-2.747.854-4.992 2.534-7.141 4.345-4.583 3.862-8.6 8.313-12.902 12.468-.506.488-.826 1.326-1.736 1.266-.256-.397-.06-.711.04-1.043 4.28-14.2 11.071-27.01 21.126-37.99 1.044-1.139 1.092-1.708-.138-2.762-14.465-12.391-30.462-22.082-48.673-27.946-1.4-.45-2.666-.524-4.062-.03-18.072 6.393-34.545 15.557-49.065 28.148-1.114.966-.96 1.446-.037 2.429 6.865 7.302 12.065 15.698 15.953 24.908 1.686 3.994 3.479 7.968 4.232 12.29 1.553 6.48 3.03 21.574 3.827 22.32-10.457-2.544-12.562-3.694-19.151-6.9-8.642-4.204-17.463-6.857-27.248-6.265-5.89.356-10.861 1.436-16.404 3.309-.981.331-3.059 1.48-2.66 2.303.13.393.229.414.397.79 5.41 12.094 12.9 22.734 22.581 31.767 19.725 18.402 43.097 27.957 70.102 28.03 17.733.05 34.338-4.635 49.627-13.625 21.75-12.79 36.942-31.053 45.309-54.931.49-1.399.269-2.137-.956-2.927zm-90.682-21.847c-.288 15.161-2.286 22.362-3.433 33.264-.089.838-.461 3.022-.461 3.022s-.663-2.788-.733-3.05c-1.211-9.908-2.157-17.343-3.297-27.258-.917-7.964-1.269-16-1.184-23.98.05-4.742 1.907-9.464 2.95-14.196.683-3.105 1.211-5.93 2.209-9.294 1.175 5.801 2.439 11.657 3.881 17.392 2.028 8.064.22 16.08.068 24.1z"/>
  <path fill="#777885" d="M96.996 153.943c4.344 5.07 9.778 8.78 15.457 12.12 3.99 2.346 8.199 4.299 12.742 5.394.73.176 4.467.94 5.413 1.026 1.259.115 2.073.19 3.87.26-4.32 1.886-8.468 3.39-12.78 4.155-12.625 1.599-23.693.404-34.998-4.865-6.944-3.236-13.67-6.766-21.362-7.95-9.745-1.499-19.558-.352-28.726 3.17-.459.175-.79.904-1.252 1.07-1.808-3.516-2.878-7.305-4.111-11.036-.303-.918-.303-.918.716-1.988 10.128-8.835 21.457-14.686 35.33-14.011 10.182.495 19.074 4.41 27.057 10.584.886.685 1.763 1.38 2.644 2.071"/>
</svg>
