<svg viewBox="0 0 213.18 256" xmlns="http://www.w3.org/2000/svg">
 <path d="m68.581 255.98c-15.35-6.6351-29.713-23.498-29.748-40.753-0.0418-18.812 11.88-34.783 26.708-45.28-1.7826 6.7348-2.7548 12.895 1.6615 18.919 4.1054 5.6007 11.296 8.3223 18.085 6.8452 15.864-3.473 16.592-20.913 7.1872-31.074-9.2988-10.062-18.294-21.427-14.755-36.019 1.7719-7.3147 6.2632-14.165 11.953-19.064-4.3734 11.493 8.0543 22.827 16.243 28.473 14.204 9.7951 29.788 17.198 42.849 28.68 13.738 12.068 23.882 28.384 21.834 47.309-2.2199 20.512-18.519 34.778-36.802 41.98 38.634-8.527 78.553-38.512 79.371-81.358 0.67745-35.25-23.504-62.378-53.458-77.909l-1.565-0.85431c0.82216 1.9948 1.0912 3.6917 1.0601 5.2106 0.26798-1.1201 0.45021-2.2714 0.50166-3.4591-8e-3 1.411-0.19169 2.8154-0.54882 4.1804l0.0472-0.72139c-0.44479 1.8714-1.194 3.6571-2.2178 5.2856l0.43949-0.47272c-5.9759 9.912-22.154 12.064-30.146 1.8008-12.848-16.51 0.26905-34.31 2.1042-51.793 2.2971-21.911-11.444-43.182-28.481-55.911 9.3835 15.179-2.9788 35.262-12.869 46.489-9.5904 10.883-21.254 19.97-31.841 29.858-11.373 10.62-22.306 21.808-31.655 34.273-18.696 24.95-30.142 56.329-21.731 87.455 8.4059 31.105 35.349 50.905 65.776 57.907z" fill="#ee4323"/>
</svg>
