<svg xmlns="http://www.w3.org/2000/svg" viewBox="0 0 255.999 189.577">
  <defs>
    <radialGradient id="a" cx="85.248" cy="116.557" r="96.444" fx="85.248" fy="116.557" gradientTransform="scale(1.16205 .86055)" gradientUnits="userSpaceOnUse">
      <stop offset="0%" stop-color="#20A4C1"/>
      <stop offset="48.88%" stop-color="#008490"/>
      <stop offset="100%" stop-color="#1FA4BF"/>
    </radialGradient>
  </defs>
  <path fill="url(#a)" d="M112.532 92.56 71.17 62.307l38.999 65.233L255.999 7zM94.788 172.56c-42.952 0-77.771-34.819-77.771-77.771 0-42.951 34.819-77.771 77.771-77.771 19.019 0 36.435 6.837 49.948 18.174l10.902-13.008C139.16 8.351 117.935 0 94.788 0 42.521 0 0 42.522 0 94.788c0 52.267 42.521 94.789 94.788 94.789 27.105 0 51.571-11.454 68.863-29.755l-12.337-11.651c-14.178 15.008-34.251 24.388-56.526 24.388zm0-22.543c-30.502 0-55.228-24.725-55.228-55.227 0-30.503 24.726-55.23 55.228-55.23 13.506 0 25.867 4.865 35.463 12.916l8.184-9.767c-11.819-9.921-27.044-15.911-43.647-15.911-37.491 0-67.992 30.5-67.992 67.992 0 37.49 30.501 67.99 67.992 67.99 19.442 0 36.992-8.216 49.395-21.343l-9.281-8.764c-10.068 10.657-24.295 17.344-40.114 17.344z" style="fill:url(#a)"/>
</svg>
