<svg xmlns="http://www.w3.org/2000/svg" viewBox="0 0 256 163.672">
  <path fill="#19223c" d="M139.54.23 9.01 82.4C2.863 86.118-.142 90.281.005 94.893V107.4c.147 4.617 3.223 8.708 9.233 12.28l64.599 37.287a3.047 3.047 0 0 0 4.393-1.565l14.504-35.05-30.761-17.417a5.524 5.524 0 0 1-2.157-2.002 5.645 5.645 0 0 1 .278-6.332 5.654 5.654 0 0 1 1.656-1.49l56.474-34.61 23.288-56.705a1.36 1.36 0 0 0-.433-1.51 1.307 1.307 0 0 0-.765-.284 1.308 1.308 0 0 0-.783.229z"/>
  <path fill="#67a4ac" d="M246.763 46.003 183.05 7.377a3.046 3.046 0 0 0-4.394 1.343l-14.94 35.05 30.32 18.087a5.485 5.485 0 0 1 2.107 2.048 5.655 5.655 0 0 1 0 5.72 5.529 5.529 0 0 1-2.106 2.057l-56.911 33.489-24.173 56.264a1.357 1.357 0 0 0 .11 1.897 1.306 1.306 0 0 0 1.867-.109l41.752-25.23 16.48 23.669a3.967 3.967 0 0 0 3.295 1.784h39.553a3.905 3.905 0 0 0 3.492-2.124 4.07 4.07 0 0 0-.197-4.13l-26.809-41.085 54.276-32.817C252.924 79.567 256 75.4 256 70.784v-12.28c0-4.616-3.076-8.779-9.233-12.501z"/>
</svg>
