<svg xmlns="http://www.w3.org/2000/svg" viewBox="0 0 255.711 247.813">
  <path fill="#0fce7c" d="M221.139 124.67a33.353 33.353 0 0 1-13.404-15.125c-2.647-6.124-3.965-14.36-3.954-24.711V47.843c.1-3.88-.374-7.755-1.407-11.499a15.608 15.608 0 0 0-4.474-7.255 17.95 17.95 0 0 0-8.193-3.744c-.637-.15-1.29-.283-1.977-.4a77.726 77.726 0 0 0-14.258-1.249h-20.44a77.725 77.725 0 0 1 14.274 1.266c.687.117 1.34.25 1.977.4 3.005.529 5.82 1.818 8.177 3.744a15.509 15.509 0 0 1 4.49 7.255 39.943 39.943 0 0 1 1.407 11.498v37.407c0 10.184.185 19.27 2.832 25.477a30.02 30.02 0 0 0 12.616 14.16 30.45 30.45 0 0 0-12.616 14.344c-2.647 6.207-2.832 15.11-2.832 25.277v37.39a40.076 40.076 0 0 1-1.407 11.515 15.526 15.526 0 0 1-4.49 7.239 17.983 17.983 0 0 1-8.177 3.76l-1.977.4a79.094 79.094 0 0 1-14.274 1.265h20.44a79.096 79.096 0 0 0 14.275-1.265l1.977-.4a18.134 18.134 0 0 0 8.193-3.76 15.641 15.641 0 0 0 4.473-7.239 39.48 39.48 0 0 0 1.408-11.515v-36.99c0-10.334 1.307-18.588 3.954-24.695a33.52 33.52 0 0 1 13.403-15.143l-.318-.2z"/>
  <path fill="#15003e" d="M238.329 104.853a27.955 27.955 0 0 1-5.539-17.325V49.784a89.159 89.159 0 0 0-2.318-21.416 34.232 34.232 0 0 0-8.24-15.663 36.81 36.81 0 0 0-16.466-9.494 72.34 72.34 0 0 0-12.76-2.477c-4.743-.508-9.51-.752-14.28-.733H0s6.322 63.018 42.871 80.094c3.153 18.606 11.678 45.426 34.515 56.1 3.336 20.12 13.095 46.373 40.402 53.955a6.04 6.04 0 0 0 0 .981s3.336 56.682 61.722 56.682c5.004 0 9.525-.182 13.545-.498a61.355 61.355 0 0 0 11.977-1.996 37.752 37.752 0 0 0 16.949-9.31 33.04 33.04 0 0 0 8.49-15.53 88.76 88.76 0 0 0 2.32-21.616V160.92a27.49 27.49 0 0 1 5.538-17.06c3.692-4.888 9.486-7.327 17.382-7.316V112.17c-7.907 0-13.701-2.439-17.382-7.316zm-30.644 34.501c-2.658 6.164-3.987 14.294-3.987 24.392v36.946c0 9.056-1.974 15.153-5.922 18.29a16.549 16.549 0 0 1-4.77 2.56 38.745 38.745 0 0 1-9.91 1.963c-3.336 0-33.897 3.924-38.884-31.226h28.358c-1.134-22.613-19.2-23.927-21.502-24.01h-10.41c-22.603 0-32.745-16.86-37.316-32.09h67.276c0-13.302-10.642-24.575-20.835-24.01h-44.139c-22.253-.233-32.295-16.96-36.833-32.074h98.605c0-13.302-9.159-24.01-22.47-24.01h-74.95c-22.604 0-29.51-16.86-34.064-32.09h137.189a78.71 78.71 0 0 1 14.362 1.264c.684.116 1.352.25 1.986.399 1.18.254 2.34.6 3.47 1.03a15.194 15.194 0 0 1 4.77 2.678 15.373 15.373 0 0 1 4.504 7.183 38.523 38.523 0 0 1 1.418 11.423V84.7c0 10.276 1.33 18.445 3.987 24.508a33.442 33.442 0 0 0 13.529 14.965 33.29 33.29 0 0 0-13.462 15.18z"/>
</svg>
