<svg xmlns="http://www.w3.org/2000/svg" viewBox="0 0 511.758 107.625">
  <g fill="#204156">
    <path d="M20.757 74.177c-.922-2.796-1.38-6.326-1.38-11.072 0-4.748.458-8.286 1.38-11.075 2.576-8.003 9.399-12.376 18.333-12.376 6.635 0 11.89 2.7 15.394 6.98.27.37.362.928-.093 1.3l-5.803 5.119c-.463.375-.922.281-1.293-.183-2.214-2.512-4.517-3.91-8.203-3.91-3.96 0-6.999 1.955-8.292 5.863-.732 2.239-.92 4.841-.92 8.283 0 3.443.186 6.14.92 8.375 1.291 3.812 4.332 5.767 8.292 5.767 3.686 0 5.99-1.397 8.203-3.903.371-.472.83-.472 1.293-.099l5.803 5.12c.455.37.364.837.093 1.304-3.503 4.19-8.757 6.886-15.394 6.886-8.934-.004-15.757-4.38-18.333-12.379M222.083 74.177c-.922-2.796-1.38-6.326-1.38-11.072 0-4.748.458-8.286 1.38-11.075 2.581-8.003 9.397-12.376 18.332-12.376 6.637 0 11.892 2.7 15.392 6.98.274.37.37.928-.095 1.3l-5.805 5.119c-.46.375-.918.281-1.288-.183-2.21-2.512-4.514-3.91-8.204-3.91-3.959 0-7 1.955-8.289 5.863-.739 2.239-.918 4.841-.918 8.283 0 3.443.18 6.14.918 8.375 1.288 3.812 4.33 5.767 8.289 5.767 3.69 0 5.995-1.397 8.204-3.903.37-.472.83-.472 1.288-.099l5.805 5.12c.464.37.37.837.095 1.304-3.5 4.19-8.755 6.886-15.392 6.886-8.935-.004-15.75-4.38-18.332-12.379M454.773 85.531c-.553 0-.92-.37-.92-.932V58.732c0-5.77-2.86-9.774-8.39-9.774-5.343 0-8.475 4.001-8.475 9.774v25.867c0 .561-.371.932-.92.932h-8.48c-.553 0-.925-.37-.925-.932V58.732c0-5.77-2.855-9.774-8.376-9.774-5.347 0-8.483 4.001-8.483 9.774v25.867c0 .561-.367.932-.922.932h-8.477c-.556 0-.92-.37-.92-.932V41.607c0-.56.364-.933.92-.933h8.477c.555 0 .922.373.922.933v3.257h.094c1.937-2.792 5.804-5.21 11.7-5.21 5.254 0 9.492 2.136 12.16 5.953h.095c3.408-3.718 7.833-5.953 14.191-5.953 10.316 0 16.126 7.07 16.126 16.656v28.287c0 .563-.371.934-.926.934h-8.471zM476.972 102.28c-.551 0-.919-.374-.919-.935v-7.442c0-.556.368-.935.919-.935h1.66c3.5 0 5.256-1.575 6.636-5.3l1.291-3.815-16.219-42.248c-.186-.56.185-.933.741-.933h9.12c.552 0 .921.374 1.1.933l10.049 29.313h.181l9.586-29.313c.185-.56.554-.933 1.101-.933h8.752c.558 0 .927.374.739.933l-16.95 46.714c-3.868 10.61-7.56 13.957-14.928 13.957l-2.86.004zM62.961 74.18c-1.013-3.169-1.474-6.144-1.474-11.075 0-4.924.46-7.903 1.474-11.06 2.488-7.817 9.3-12.379 18.328-12.379 8.933 0 15.75 4.56 18.237 12.379 1.008 3.157 1.473 6.136 1.473 11.06 0 4.93-.465 7.906-1.473 11.076-2.49 7.811-9.304 12.37-18.237 12.37-9.027.001-15.84-4.557-18.328-12.37m26.617-2.791c.739-2.323.922-4.467.922-8.284 0-3.806-.183-5.856-.922-8.272-1.288-3.719-4.145-5.864-8.289-5.864-4.141 0-7.094 2.145-8.38 5.864-.734 2.418-.92 4.466-.92 8.272 0 3.817.186 5.96.92 8.284 1.286 3.725 4.24 5.858 8.38 5.858 4.144-.002 7.001-2.134 8.289-5.858M280.497 39.654c-7.28 0-12.161 1.766-15.758 4.373-.364.283-.459.742-.179 1.207l3.401 6.145c.285.466.83.56 1.295.187 2.12-1.672 5.157-3.073 10.136-3.073 7.26 0 9.724 2.203 9.85 7.044h.002v.06c.004.112.004.227.004.347v14.518c0 5.118-3.5 7.626-9.855 7.626-4.98 0-7.648-1.857-7.648-5.577 0-4.19 2.95-6.056 9.582-6.056l2.016.004c.552 0 .923-.373.923-.927v-5.966c0-.556-.37-.928-.923-.928h-.443l-3.23-.002c-10.964 0-17.79 4.474-17.79 14.239 0 9.4 6.826 13.679 14.93 13.679 6.26 0 10.409-2.138 12.53-5.21h.089v3.258c0 .56.373.933.924.933h7.738c.554 0 .923-.371.923-.933V55.29c.002-10.979-4.972-15.635-18.516-15.635M170.415 58.633c-.24 0-.398.16-.398.4v7.017c0 .24.158.402.398.402h22.816c.646 0 1.016-.37 1.016-.924 0-7.265-.465-10.337-1.475-13.498-2.491-7.63-9.123-12.375-18.246-12.375-8.844 0-15.66 4.558-18.152 12.375-.916 2.885-1.474 6.422-1.474 11.075s.645 8.093 1.573 10.98c2.486 7.814 9.117 12.467 18.514 12.467 8.198 0 14.469-3.164 18.243-7.63.365-.463.365-.928-.094-1.304l-5.431-4.838c-.465-.371-.924-.275-1.387.186-2.208 2.422-5.433 4.282-10.409 4.282-4.97 0-8.475-2.418-9.95-6.79a10.948 10.948 0 0 1-.523-1.95h-.002c-.335-1.895-.533-3.739-.533-6.447.072-2.553.219-4.183.581-6.255.004-.029.01-.054.015-.08l.01-.06v.002c.088-.488.209-.947.358-1.405 1.198-3.628 4.514-5.768 8.756-5.768 4.147 0 7.459 2.14 8.657 5.768.371 1.123.552 2.234.552 3.82 0 .37-.183.553-.552.553h-12.106l.002-.001-.759-.002zM146.34 22.256h-8.463c-.558 0-.925.372-.925.924v42.396h-.047c-.099 2.565-.376 4.251-.87 5.832-1.196 3.713-4.054 5.756-8.281 5.756-4.14 0-6.99-2.043-8.192-5.756-.642-2.047-.915-4.275-.915-8.363 0-4.086.273-6.319.915-8.358 1.178-3.643 3.937-5.7 7.94-5.781h3.613c.176-.043.29-.182.29-.382l.047-8.495a.369.369 0 0 0-.337-.388l-2.884-.01h-3.39v.001c-7.417.079-12.847 3.695-15.121 10.771-1.105 3.442-1.564 6.607-1.564 12.642 0 6.038.459 9.199 1.564 12.634 2.3 7.156 7.82 10.78 15.363 10.78 5.984 0 9.664-2.226 11.776-5.297h.09v3.345c0 .56.369.931.925.931h8.462c.553 0 .922-.37.922-.93V23.18c.004-.554-.365-.924-.918-.924M368.195 58.633c-.236 0-.398.16-.398.4v7.017c0 .24.162.402.398.402H391.017c.644 0 1.013-.37 1.013-.924 0-7.265-.462-10.337-1.472-13.498-2.492-7.63-9.125-12.375-18.244-12.375-8.847 0-15.663 4.558-18.154 12.375-.919 2.885-1.475 6.422-1.475 11.075s.646 8.093 1.573 10.98c2.485 7.814 9.118 12.467 18.515 12.467 8.197 0 14.468-3.164 18.244-7.63.366-.463.366-.928-.095-1.304l-5.432-4.838c-.462-.371-.922-.275-1.384.186-2.208 2.422-5.432 4.282-10.411 4.282-4.97 0-8.474-2.418-9.95-6.79a10.797 10.797 0 0 1-.52-1.95h-.002c-.337-1.895-.534-3.739-.534-6.447.068-2.553.215-4.183.579-6.255a6.133 6.133 0 0 0 .025-.14v.002c.092-.488.21-.947.359-1.405 1.196-3.628 4.515-5.768 8.757-5.768 4.147 0 7.458 2.14 8.656 5.768.37 1.123.555 2.234.555 3.82 0 .37-.185.553-.555.553H368.96v-.001l-.764-.002zM336.08 22.256c-.553 0-.923.373-.923.926V65.64c-.145 2.57-.425 4.257-.918 5.84-1.198 3.72-4.061 5.768-8.293 5.768-4.143 0-6.999-2.048-8.202-5.769-.64-2.05-.92-4.28-.92-8.374 0-4.092.276-6.33.92-8.372 1.178-3.648 3.942-5.69 7.953-5.77l3.618.002c.554 0 .924-.372.924-.926v-7.456c0-.556-.37-.928-.924-.928h-.443l-5.47-.001h-.37c-7.426.079-12.865 3.702-15.141 10.789-1.107 3.447-1.566 6.613-1.566 12.658 0 6.047.46 9.214 1.566 12.655 2.301 7.164 7.833 10.794 15.386 10.794 5.991 0 9.677-2.228 11.794-5.304l.09 3.35c0 .562.37.932.925.932h8.477c.553 0 .924-.368.924-.933V23.182c-.007-.554-.377-.926-.927-.926zM221.39 98.218v8.48c0 .557.37.927.925.927h31.418c.562 0 .933-.372.933-.928v-8.479c0-.55-.371-.922-.933-.922h-31.418c-.555 0-.924.372-.924.922"/>
    <path d="M213.414.3c-.014-.015-.023-.033-.036-.045l-.004-.002a.922.922 0 0 0-.663-.253H.926C.856 0 .789.007.725.018.707.022.69.028.67.032.63.043.585.052.547.068a.056.056 0 0 0-.018.01C.201.211 0 .517 0 .923v105.768c0 .323.126.575.337.737.016.016.03.03.052.041v.002a.984.984 0 0 0 .537.144h211.783c.312 0 .565-.12.725-.327a.93.93 0 0 0 .2-.599V.924a.93.93 0 0 0-.22-.624zM11.24 97.293c-.066 0-.13-.006-.188-.015-.018-.003-.038-.012-.056-.017-.043-.01-.086-.018-.125-.035-.007-.001-.01-.007-.018-.009-.326-.132-.526-.437-.527-.839V11.247c0-.408.2-.71.527-.847.009-.002.014-.007.02-.01.037-.013.16-.044.18-.05.06-.008.125-.014.191-.014h191.145c.068 0 .131.006.192.015.02.005.038.012.054.018.043.009.086.018.126.034.009.002.012.007.02.009.327.134.527.44.527.846V96.38c-.002.403-.203.708-.526.841-.007.002-.01.007-.02.01a.897.897 0 0 1-.123.033c-.02.006-.036.014-.056.018a1.05 1.05 0 0 1-.187.014H11.24v-.003z"/>
  </g>
</svg>
