<svg xmlns="http://www.w3.org/2000/svg" viewBox="0 0 256 280.915">
  <path fill="#e0225c" d="M218.551 37.419C194.416 13.289 162.33 0 128.097 0 57.537.047.091 57.527.04 128.121L0 149.813l16.859-11.49c11.468-7.814 24.75-11.944 38.417-11.944 4.079 0 8.198.373 12.24 1.11 12.742 2.32 24.165 8.089 33.414 16.758 2.12-4.67 4.614-9.209 7.56-13.536a88.078 88.078 0 0 1 3.805-5.15c-11.652-9.84-25.649-16.463-40.926-19.245a90.35 90.35 0 0 0-16.12-1.459 88.377 88.377 0 0 0-32.29 6.07c8.36-51.222 52.85-89.37 105.23-89.408 28.392 0 55.078 11.053 75.149 31.117 16.011 16.01 26.254 36.033 29.788 58.117-10.329-4.035-21.212-6.1-32.403-6.144l-1.568-.007a90.998 90.998 0 0 0-3.401.111c-1.955.1-3.898.277-5.821.5-.575.063-1.139.153-1.707.231-1.378.186-2.75.395-4.109.639-.603.11-1.203.231-1.8.351a90.52 90.52 0 0 0-4.114.937c-.492.126-.983.243-1.47.374a90.181 90.181 0 0 0-5.09 1.539c-.1.034-.204.062-.304.095a87.533 87.533 0 0 0-11.057 4.649c-.097.05-.193.101-.293.151a86.696 86.696 0 0 0-4.912 2.701l-.398.239a86.09 86.09 0 0 0-22.302 19.252c-.262.318-.524.635-.784.958-1.376 1.725-2.718 3.49-3.976 5.336a91.412 91.412 0 0 0-3.672 5.913 90.235 90.235 0 0 0-2.496 4.639c-.044.09-.089.174-.133.264a88.786 88.786 0 0 0-4.637 11.273l-.001.009v.004a88.007 88.007 0 0 0-4.51 29.312c.005.397.005.794.02 1.193.02.777.06 1.556.104 2.338a99.123 99.123 0 0 0 .288 3.833c.079.804.174 1.607.276 2.41.063.512.118 1.026.194 1.535.191 1.338.406 2.673.658 4.009 4.34 22.938 17.262 42.937 36.39 56.316l2.446 1.564.02-.048a88.572 88.572 0 0 0 36.232 13.45l1.747.236 12.974-20.822-4.665-.127c-35.898-.985-65.1-31.003-65.1-66.917 0-35.348 27.624-64.702 62.877-66.828l2.23-.086c14.291-.361 28.372 3.859 40.324 11.997l16.782 11.421.035-21.58c.028-34.218-13.272-66.379-37.449-90.554"/>
</svg>
