<svg xmlns="http://www.w3.org/2000/svg" viewBox="0 0 255.328 117.328">
  <path fill="#57abdf" d="M60.34 68.162H37.154c-3.352 0-5.587.838-7.263 3.91-6.146 12.851-12.571 25.701-18.996 38.551-2.235 4.47-.559 6.705 5.307 6.705h42.741c5.029 0 8.102-1.956 10.057-6.146 5.866-12.57 11.733-25.42 18.158-37.992 2.235-4.47.28-5.307-4.19-5.307-7.543.279-15.085.279-22.628.279zm143.587-6.146c-6.984-15.923-7.542-31.287-1.397-46.931 1.676-4.19 0-4.47-3.91-5.028-15.365-2.235-11.454 16.76-24.025 17.878-1.955.28-2.514 2.235-2.514 4.19.559 7.264-3.911 16.762 8.94 19.555 1.396.28 3.072 2.235 3.63 3.632 3.632 8.66 10.337 8.66 19.276 6.704zM0 2.235C23.186 16.482 48.887 13.409 74.587 12.85 72.073 4.75 67.045 1.955 59.223 2.235zm154.761 37.433V9.218c0-1.955.28-4.19-2.793-4.469-2.235 0-3.073 1.955-2.794 3.632.559 8.1-3.352 15.643-2.794 24.024.839 12.012-.279 24.024 2.515 35.757.558 1.955-.559 5.308 2.514 5.587 3.631.28 3.352-3.073 3.352-5.587zm11.733-.559V12.85c0-1.955-.28-4.47-2.794-4.47-2.514 0-2.793 2.515-2.793 4.75v53.356c0 1.955.28 4.47 2.793 4.47 2.514 0 2.794-2.515 2.794-4.75zm60.62-11.732h15.643c1.955 0 3.91-.56 3.91-2.794 0-1.397-1.396-2.514-3.072-2.514H211.19c-1.955 0-3.631 1.117-3.352 3.073.28 1.676 1.955 1.955 3.632 1.955 5.028.28 10.336.28 15.643.28zm8.66 5.028h-14.806c-2.235 0-4.75.28-4.47 2.793.28 2.235 2.514 2.235 4.19 2.235h30.45c1.955 0 4.19-.28 4.19-2.514 0-1.955-1.676-2.794-3.911-2.794-5.308.28-10.336.28-15.644.28zm-6.705 11.453h-14.806c-1.676 0-4.19 0-4.47 1.956 0 2.235 1.956 3.073 4.47 3.073h30.729c2.235 0 3.91-1.118 3.91-2.794 0-1.955-2.234-2.514-4.19-2.514-5.028.28-10.336.28-15.643.28z"/>
  <path fill="#57abdf" d="M140.235 0c0 25.142.28 48.049.28 71.793 0 2.235.837 5.588-2.236 5.588-4.19.279-3.352-3.632-3.073-5.867 1.118-7.263-1.676-9.218-10.056-8.94-29.053.56-58.105 0-87.158 0-15.085 0-25.421-8.938-25.7-21.23-.28-13.13 10.894-22.627 26.538-22.907 28.773 0 57.546-.28 86.32.28 7.822 0 11.733-1.118 10.056-8.94-.558-3.352-.279-6.983 1.397-9.777z"/>
  <path fill="#7bcd33" d="M60.34 68.162h22.348c4.47 0 6.425.559 4.19 5.308-6.145 12.57-12.012 25.42-18.157 37.991-1.956 3.911-5.029 5.867-10.057 5.867h-42.74c-5.588 0-7.543-2.235-5.309-6.705 6.425-12.85 12.85-25.7 18.996-38.55 1.397-3.073 3.632-3.911 7.263-3.911H60.34zM203.927 62.016c-8.94 1.956-15.644 1.956-18.996-6.704-.559-1.397-2.235-3.353-3.631-3.632-12.85-3.073-8.381-12.291-8.94-19.555-.28-1.955.559-3.91 2.514-4.19 12.292-.838 8.381-20.113 24.025-17.878 3.91.558 5.587.838 3.91 5.028-6.424 15.644-5.866 31.008 1.118 46.931zM0 2.235c19.834 0 39.389.28 59.223 0 8.1 0 13.13 2.514 15.364 10.615-25.7.559-51.4 3.632-74.587-10.615zM154.761 39.668v28.773c0 2.514.28 5.867-3.352 5.587-3.073-.279-1.956-3.352-2.514-5.587-3.073-11.733-1.956-23.745-2.515-35.757-.558-8.38 3.353-15.923 2.794-24.024 0-1.676.559-3.632 2.794-3.632 3.072 0 2.793 2.515 2.793 4.47zM166.494 39.11v27.096c0 1.956-.28 4.75-2.794 4.75-2.514 0-2.793-2.515-2.793-4.47V13.13c0-1.956.28-4.47 2.793-4.75 2.514 0 2.794 2.515 2.794 4.47z"/>
  <path fill="#57abdf" d="M227.113 27.377H211.47c-1.397 0-3.353-.28-3.632-1.956-.28-1.955 1.397-3.073 3.352-3.073h32.405c1.676 0 3.352 1.118 3.073 2.514 0 1.956-1.956 2.515-3.911 2.794-5.308-.28-10.336-.28-15.644-.28zM235.773 32.405h15.644c1.955 0 3.91.838 3.91 2.793 0 2.235-2.234 2.515-4.19 2.515h-30.449c-1.955 0-4.19-.28-4.19-2.235-.28-2.794 2.235-2.794 4.47-2.794 5.028-.559 9.777-.28 14.805-.28zM229.069 43.858h15.643c1.956 0 4.19.559 4.19 2.514 0 1.677-1.955 2.794-3.91 2.794h-30.729c-2.514 0-4.47-.838-4.47-3.073s2.515-1.955 4.47-1.955c5.028-.28 9.777-.28 14.806-.28z"/>
</svg>
