<svg xmlns="http://www.w3.org/2000/svg" viewBox="0 0 511.677 83.56">
  <path fill="#0fce7c" d="M74.565 42.037a11.246 11.246 0 0 1-4.52-5.1c-.892-2.065-1.336-4.842-1.332-8.332V16.132a13.273 13.273 0 0 0-.475-3.877 5.263 5.263 0 0 0-1.508-2.446 6.053 6.053 0 0 0-2.763-1.263 10.74 10.74 0 0 0-.667-.135 26.208 26.208 0 0 0-4.807-.42H51.6a26.208 26.208 0 0 1 4.813.426c.231.04.452.084.666.135a6.001 6.001 0 0 1 2.757 1.262 5.23 5.23 0 0 1 1.514 2.447c.346 1.262.506 2.568.475 3.877V28.75c0 3.434.062 6.497.955 8.59a10.122 10.122 0 0 0 4.254 4.775 10.267 10.267 0 0 0-4.254 4.837c-.893 2.092-.955 5.094-.955 8.523v12.607a13.513 13.513 0 0 1-.475 3.883 5.235 5.235 0 0 1-1.514 2.44 6.064 6.064 0 0 1-2.757 1.269l-.666.134c-1.588.288-3.2.43-4.813.427h6.892a26.67 26.67 0 0 0 4.813-.427l.667-.134a6.115 6.115 0 0 0 2.762-1.268 5.274 5.274 0 0 0 1.509-2.441c.348-1.264.508-2.572.474-3.883V55.61c0-3.484.44-6.267 1.334-8.326a11.302 11.302 0 0 1 4.52-5.106l-.108-.068z"/>
  <path fill="#15003e" d="M80.362 35.355a9.426 9.426 0 0 1-1.868-5.842V16.787c.033-2.43-.23-4.855-.782-7.222a11.542 11.542 0 0 0-2.778-5.28 12.412 12.412 0 0 0-5.552-3.202A24.392 24.392 0 0 0 65.08.247 43.657 43.657 0 0 0 60.264 0H0s2.132 21.25 14.456 27.007c1.063 6.274 3.937 15.317 11.638 18.917 1.124 6.783 4.415 15.636 13.623 18.193a2.03 2.03 0 0 0 0 .33S40.842 83.56 60.529 83.56a58.53 58.53 0 0 0 4.567-.168 20.688 20.688 0 0 0 4.039-.673 12.73 12.73 0 0 0 5.714-3.14 11.14 11.14 0 0 0 2.863-5.236c.559-2.389.821-4.836.782-7.289V54.26a9.27 9.27 0 0 1 1.868-5.752c1.245-1.648 3.198-2.47 5.86-2.467v-8.219c-2.665 0-4.619-.822-5.86-2.467zM70.029 46.99c-.896 2.078-1.344 4.82-1.344 8.224v12.458c0 3.054-.666 5.11-1.997 6.167a5.58 5.58 0 0 1-1.609.864c-1.08.365-2.203.587-3.341.661-1.125 0-11.43 1.323-13.111-10.529h9.562c-.383-7.625-6.474-8.068-7.25-8.096h-3.51c-7.622 0-11.042-5.685-12.583-10.82H57.53c0-4.485-3.589-8.286-7.026-8.096H35.622c-7.504-.078-10.89-5.718-12.42-10.815h33.249c0-4.485-3.088-8.096-7.577-8.096H23.602c-7.622 0-9.95-5.685-11.486-10.82h46.258a26.54 26.54 0 0 1 4.843.426c.23.04.456.084.67.135.398.085.79.202 1.17.347a5.123 5.123 0 0 1 1.608.903 5.184 5.184 0 0 1 1.519 2.422 12.99 12.99 0 0 1 .478 3.851V28.56c0 3.465.448 6.22 1.344 8.264a11.276 11.276 0 0 0 4.562 5.046 11.225 11.225 0 0 0-4.539 5.119zM137.058 19.642a23.62 23.62 0 0 1 12.084 3.405v8.308c-4.048-3.392-8.237-5.088-12.566-5.088a15.996 15.996 0 0 0-12.062 5.156 17.41 17.41 0 0 0-4.923 11.659l-.002.873a16.98 16.98 0 0 0 4.926 12.342 16.275 16.275 0 0 0 12.09 5.05c2.156.06 4.299-.352 6.28-1.207a18.725 18.725 0 0 0 2.994-1.627 35.773 35.773 0 0 0 3.264-2.474v8.471a25.278 25.278 0 0 1-12.622 3.4 23.269 23.269 0 0 1-16.988-6.956 23.106 23.106 0 0 1-7.008-16.937 23.902 23.902 0 0 1 5.866-15.848c4.81-5.681 11.033-8.523 18.667-8.527zm49.156.003c13.322.076 24.103 10.87 24.18 24.208a22.91 22.91 0 0 1-6.5 16.36l-.687.675a23.98 23.98 0 0 1-17.38 7.022c-6.002 0-11.394-2.08-16.174-6.236-5.24-4.603-7.86-10.633-7.86-18.09 0-6.553 2.4-12.18 7.198-16.884a23.667 23.667 0 0 1 17.223-7.055zm48.935.996c4.673 0 8.365.462 11.077 1.388a20.66 20.66 0 0 1 7.912 4.62c4.796 4.39 7.194 10.157 7.194 17.298 0 7.141-2.497 12.935-7.491 17.383a21.876 21.876 0 0 1-7.89 4.62c-2.565.865-6.205 1.297-10.92 1.297h-9.653V20.641zm67.13 0v6.609h-18.626v11.2h18.083v6.61h-18.083v15.578h18.626v6.61h-25.634V20.64zM173.857 31.33a16.804 16.804 0 0 0-4.99 12.353c0 5.134 1.728 9.365 5.181 12.68 3.454 3.315 7.42 4.975 11.897 4.979a16.72 16.72 0 0 0 12.334-5.052c6.68-6.967 6.707-17.96.061-24.96-6.768-6.75-17.714-6.75-24.482 0zm61.679-4.12h-3.16l.011 33.427h3.16c2.65.066 5.294-.27 7.844-.994a15.913 15.913 0 0 0 5.66-3.372c3.45-3.159 5.176-7.28 5.176-12.365 0-5.084-1.705-9.23-5.115-12.437-3.07-2.836-7.596-4.256-13.576-4.26z"/>
  <path fill="#0fce7c" d="m413.137 14.648 33.993 35.583v-30.73h9.285v53.406l-33.993-35.499v30.983h-9.285zm-44.342 4.994v29.15c0 3.74.587 6.47 1.751 8.118 1.68 2.371 4.08 3.532 7.275 3.532 3.195 0 5.596-1.16 7.33-3.549 1.09-1.46 1.651-3.893 1.731-7.244l.01-.856V19.67h9.267v31.023c0 5.185-1.645 9.53-4.88 12.894a18.775 18.775 0 0 1-13.43 5.658c-5.054 0-9.895-2.04-13.43-5.658-3.038-3.154-4.669-7.18-4.86-11.933l-.02-.961V19.642zm-22.905 0v8.872h-16.31v8.968h15.729v8.872h-15.73v22.225h-9.323V19.642zm127.503 0h10.91c4.79 0 8.665.49 11.477 1.452a21.971 21.971 0 0 1 8.34 4.859c5.033 4.599 7.558 10.684 7.558 18.16 0 7.476-2.632 13.624-7.873 18.257a23.208 23.208 0 0 1-8.323 4.858c-2.438.82-5.84 1.272-10.111 1.342l-1.186.01h-10.792V19.641h10.91zm11.331 8.872h-2.046v31.193h2.046a25.594 25.594 0 0 0 7.547-.946 14.882 14.882 0 0 0 5.258-3.118c3.25-2.967 4.83-6.739 4.83-11.53 0-4.841-1.563-8.647-4.78-11.658-2.667-2.444-6.64-3.77-11.805-3.925z"/>
</svg>
