<svg xmlns="http://www.w3.org/2000/svg" viewBox="0 0 511.355 57.116">
  <g fill="#0b2734">
    <path d="M145.855 11.724c5.486 0 9.574 1.721 13.23 5.056.539.43.539 1.075.108 1.506l-4.302 4.41c-.43.43-.968.43-1.399 0-2.043-1.829-4.732-2.797-7.421-2.797-6.24 0-10.757 5.163-10.757 11.294s4.625 11.08 10.757 11.08c2.581 0 5.378-.969 7.314-2.582.43-.323 1.076-.323 1.398.107l4.303 4.518c.43.43.322 1.076-.108 1.506-3.765 3.657-8.39 5.27-13.338 5.27-10.971 0-19.791-8.712-19.791-19.684 0-10.971 9.035-19.684 20.006-19.684zM182.427 11.724c10.971 0 19.684 8.82 19.684 19.792 0 10.971-8.713 19.684-19.684 19.684-10.972 0-19.684-8.713-19.684-19.684 0-10.971 8.82-19.792 19.684-19.792zm0 30.763c6.023 0 10.971-4.948 10.971-10.863 0-6.024-4.948-10.972-10.971-10.972-6.024 0-10.864 4.948-10.864 10.972 0 5.915 4.948 10.863 10.864 10.863zM208.78 13.338c0-.538.43-1.076.968-1.076h13.338c10.54 0 19.253 8.605 19.253 19.146 0 10.65-8.605 19.254-19.253 19.254h-13.338c-.538 0-.968-.538-.968-1.075zm13.875 29.257c6.24 0 10.65-4.84 10.65-11.079 0-6.239-4.518-11.079-10.65-11.079h-5.27v22.158zM249.116 13.338c0-.538.43-1.076 1.076-1.076h22.695c.646 0 1.076.538 1.076 1.076v6.023c0 .538-.43 1.076-1.076 1.076h-15.166v6.776h12.477c.538 0 1.076.538 1.076 1.076v6.024c0 .645-.538 1.075-1.076 1.075h-12.477v7.422h15.166c.646 0 1.076.538 1.076 1.076v6.023c0 .538-.43 1.076-1.076 1.076h-22.695a1.078 1.078 0 0 1-1.076-1.076zM310.32 11.724c5.485 0 9.572 1.721 13.23 5.056.537.43.537 1.075.107 1.506l-4.302 4.41c-.43.43-.968.43-1.399 0-2.043-1.829-4.732-2.797-7.422-2.797-6.238 0-10.756 5.163-10.756 11.294s4.625 11.08 10.756 11.08c2.582 0 5.379-.969 7.315-2.582.43-.323 1.075-.323 1.398.107l4.303 4.518c.43.43.322 1.076-.108 1.506-3.765 3.657-8.39 5.27-13.338 5.27-10.971 0-19.791-8.712-19.791-19.684 0-10.971 9.035-19.684 20.006-19.684zM330.11 13.338c0-.538.431-1.076 1.077-1.076h6.56c.539 0 1.077.538 1.077 1.076v29.257h13.015c.645 0 1.075.538 1.075 1.076v6.023c0 .538-.43 1.076-1.075 1.076h-20.545a1.078 1.078 0 0 1-1.076-1.076V13.338zM358.185 13.338c0-.538.538-1.076 1.075-1.076h6.562c.538 0 1.075.538 1.075 1.076v36.249c0 .537-.537 1.075-1.075 1.075h-6.562c-.537 0-1.075-.538-1.075-1.075zM380.02 12.692c.108-.537.538-.86.968-.86h.86c.323 0 .754.215.969.538l12.692 23.664h.108l12.692-23.664c.215-.323.646-.538.968-.538h.86c.431 0 .969.43.969.86l6.239 36.787c.107.753-.43 1.183-1.076 1.183h-6.454c-.538 0-.968-.43-1.075-.86l-2.474-16.888h-.108l-9.143 17.64c-.215.323-.645.646-.968.646h-.968c-.323 0-.753-.323-.968-.645l-9.25-17.748h-.108l-2.366 16.887c-.108.43-.538.86-1.076.86h-6.454c-.645 0-1.183-.537-1.075-1.183zM419.388 49.264l17.103-36.894c.215-.323.538-.646.968-.646h.538c.43 0 .753.323.968.646l17.102 36.894c.323.753-.107 1.398-.968 1.398h-6.13c-.969 0-1.4-.323-1.937-1.398l-1.936-4.303h-14.844l-1.936 4.41c-.323.646-.86 1.291-1.936 1.291h-6.024c-.86 0-1.29-.753-.968-1.398zm22.48-11.725-4.194-9.035h-.108l-4.087 9.035zM463.597 20.33h-7.852a1.078 1.078 0 0 1-1.076-1.076V13.23c0-.538.43-1.075 1.076-1.075h24.309c.645 0 1.075.537 1.075 1.075v6.131c0 .538-.43 1.076-1.075 1.076h-7.852v29.257c0 .538-.538 1.076-1.076 1.076h-6.561c-.538 0-1.076-.538-1.076-1.076V20.33zM486.508 13.338c0-.538.43-1.076 1.075-1.076h22.696c.645 0 1.076.538 1.076 1.076v6.023c0 .538-.43 1.076-1.076 1.076h-15.166v6.776h12.477c.538 0 1.076.538 1.076 1.076v6.024c0 .645-.538 1.075-1.076 1.075h-12.477v7.422h15.166c.645 0 1.076.538 1.076 1.076v6.023c0 .538-.43 1.076-1.076 1.076h-22.696a1.078 1.078 0 0 1-1.075-1.076z"/>
    <g>
      <path d="M68.625 0 49.05 19.469l11.617 11.617 7.96-7.96 22.372 22.48 11.51-11.616zM45.5 23.018 33.99 11.51 4.518 40.982 0 45.499l11.617 11.617 4.517-4.625 14.952-14.844 2.904-2.904 11.51 11.51 10.863 10.863L67.98 45.499 57.116 34.635z"/>
    </g>
  </g>
</svg>
