<svg xmlns="http://www.w3.org/2000/svg" viewBox="0 0 255.902 255.902">
  <path fill="#7a797a" d="M214.552 131.203c0 17.483-5.186 33.736-14.018 47.404l29.51 26.24c16.16-21.421 25.858-47.991 25.858-76.896 0-28.742-9.593-55.181-25.596-76.546l-32.262 28.78c10.342 14.374 16.508 31.956 16.508 51.018"/>
  <path fill="#343334" d="M196.084 184.843c-16.016 20.578-40.95 33.872-69.044 33.872-48.334 0-87.512-39.184-87.512-87.512 0-48.334 39.178-87.512 87.512-87.512 26.526 0 50.244 11.846 66.291 30.49l32.281-28.793C202.144 17.651 167.123 0 127.952 0 57.284 0 0 57.285 0 127.951c0 70.667 57.285 127.951 127.951 127.951 39.022 0 73.9-17.52 97.368-45.063l-29.235-25.996"/>
  <path fill="#474547" d="M162.473 132.108c0 19.623-15.91 35.533-35.533 35.533-19.63 0-35.533-15.91-35.533-35.533 0-19.63 15.904-35.533 35.533-35.533 19.623 0 35.533 15.904 35.533 35.533"/>
</svg>
