<svg xmlns="http://www.w3.org/2000/svg" viewBox="0 0 255.725 147.809">
  <path d="M202.15 29.536h-.127L152.413.64 103.44 29.153 53.19 0 0 30.943v56.26l102.674 59.839 49.099-28.385 50.378 29.152 53.574-30.943v-56.26zm-.255 57.666-42.067-24.421 42.45-24.806 42.068 24.678zm-99.605-49.61 42.45 24.55-41.938 24.421-42.323-24.677zm92.317-3.836-41.555 24.166-42.323-24.55 41.683-24.294zm-99.094-.767-8.566 4.986-34.651 19.563-41.3-24.55L53.32 8.439zM7.416 39.126l41.555 25.061v44.24L7.416 83.112zm49.866 29.408 41.556 24.678v44.112l-41.556-24.677zm98.838.512 42.323 24.933v43.73l-42.323-25.19z"/>
  <path d="m57.282 112.775 41.556 24.422V93.212L57.282 68.534zM7.416 82.983 48.971 108.3V64.187L7.416 39.126zm148.704 29.664 42.323 25.189V93.979L156.12 69.046z" opacity=".5"/>
</svg>
