<svg xmlns="http://www.w3.org/2000/svg" viewBox="0 0 256 256">
  <path fill="#26c6da" d="M236.184 256H19.816C8.872 256 0 247.128 0 236.184V19.816C0 8.872 8.872 0 19.816 0h216.368C247.128 0 256 8.872 256 19.816v216.368c0 10.944-8.872 19.816-19.816 19.816"/>
  <path fill="#21afd0" d="m57.448 130.423 54.751-41.891a2.954 2.954 0 0 1 3.613.019l76.696 59.94a2.089 2.089 0 0 1-.002 3.293l-53.772 41.937a3.527 3.527 0 0 1-4.352-.011l-76.953-60.662a1.661 1.661 0 0 1 .019-2.625"/>
  <path fill="#21afd0" d="m57.448 145.517 54.751-41.89a2.952 2.952 0 0 1 3.613.018l76.696 59.94a2.089 2.089 0 0 1-.002 3.293l-53.772 41.937a3.526 3.526 0 0 1-4.352-.011l-76.953-60.662a1.661 1.661 0 0 1 .019-2.625"/>
  <path fill="#1d9cc8" d="m112.199 103.627-46.734 35.756 68.917 54.327a3.527 3.527 0 0 0 4.352.011l46.215-36.043-69.137-54.033a2.952 2.952 0 0 0-3.613-.018"/>
  <path fill="#d3faff" d="m78.173 131.421 52.887-41.523a2.495 2.495 0 0 0 .048-3.885l-14.526-11.999a4.328 4.328 0 0 0-5.422-.073l-53.523 41.841a1.8 1.8 0 0 0-.014 2.827l16.026 12.794a3.644 3.644 0 0 0 4.524.018M100.322 120.596l53.79 41.909c1.26.972 1.3 2.86.082 3.884l-14.42 12.127a4.329 4.329 0 0 1-5.421.12l-54.918-42.274a1.801 1.801 0 0 1-.039-2.827l16.403-12.881a3.644 3.644 0 0 1 4.523-.058M161.203 161.326l30.938-24.132a2.494 2.494 0 0 0 .049-3.885l-14.526-12a4.33 4.33 0 0 0-5.422-.073l-31.575 24.451a1.803 1.803 0 0 0-.014 2.828l16.026 12.793a3.644 3.644 0 0 0 4.524.018"/>
  <path fill="#fff" d="m32.648 136.034-.491-.638.638-.491.491.638zm1.276-.981-.491-.639.638-.491.491.639zm1.276-.982-.49-.639.637-.49.491.638zm1.277-.982-.492-.638.638-.491.492.638zm1.275-.982-.49-.638.638-.491.491.639zm1.277-.981-.491-.639.638-.49.491.638zm1.276-.982-.491-.638.638-.491.491.638zm1.276-.982-.491-.638.638-.491.491.639zm1.277-.981-.492-.639.638-.491.492.639zm1.275-.982-.49-.638.638-.491.491.638zm1.277-.982-.491-.638.638-.491.491.639zm1.276-.981-.491-.639.638-.49.491.638zm1.276-.982-.491-.638.638-.491.491.638zm1.277-.982-.492-.638.638-.491.492.638zm1.275-.981-.49-.638.638-.491.49.638zm1.277-.982-.491-.638.638-.491.491.638zm1.275-.982-.49-.638.512-.394.491.639zM113.08 198.543l-.491-.639.638-.49.491.638zm1.276-.982-.491-.638.638-.491.491.638zm1.276-.982-.491-.638.638-.49.491.638zm1.277-.981-.492-.639.638-.49.492.638zm1.275-.982-.491-.638.639-.491.491.638zm1.277-.982-.492-.638.638-.491.492.638zm1.276-.981-.491-.638.638-.491.491.638zm1.276-.982-.491-.638.638-.491.491.638zm1.276-.981-.491-.639.638-.491.491.639zm1.276-.982-.491-.638.639-.491.49.638zm1.276-.982-.49-.638.638-.491.49.638zm1.276-.982-.49-.638.638-.491.491.638zm1.277-.981-.491-.638.638-.491.491.638zm1.276-.982-.491-.638.638-.491.491.638zm1.276-.981-.491-.639.639-.491.49.639zm1.276-.982-.49-.639.638-.49.49.638zm1.276-.982-.49-.638.512-.394.49.638zM196.009 133.901l-.492-.638.638-.491.492.638zm1.276-.982-.491-.638.638-.491.491.639zm1.276-.981-.491-.639.638-.49.491.638zm1.276-.982-.491-.638.638-.491.491.638zm1.276-.982-.491-.638.639-.491.49.639zm1.277-.981-.492-.639.638-.491.492.639zm1.276-.982-.491-.638.638-.491.491.638zm1.276-.982-.491-.638.638-.491.49.639zm1.276-.981-.491-.639.638-.491.491.639zm1.276-.982-.491-.638.639-.491.49.638zm1.276-.982-.49-.638.638-.491.49.639zm1.276-.981-.49-.639.638-.491.491.639zm1.277-.982-.492-.638.638-.491.492.638zm1.276-.982-.491-.638.638-.491.491.638zm1.276-.981-.491-.639.639-.491.49.639zm1.276-.982-.49-.639.637-.49.491.638zm1.276-.982-.491-.638.513-.394.49.638zM115.404 71.063l-.491-.639.638-.49.491.638zm1.276-.982-.491-.638.638-.491.491.638zm1.276-.982-.491-.638.638-.49.491.638zm1.277-.981-.492-.638.638-.491.491.638zm1.275-.982-.49-.638.638-.491.49.638zm1.277-.982-.491-.638.638-.491.491.639zm1.276-.981-.491-.638.638-.491.491.638zm1.276-.982-.491-.638.638-.491.491.639zm1.277-.982-.492-.638.638-.491.491.639zm1.275-.981-.491-.638.639-.491.49.638zm1.276-.982-.49-.638.638-.491.49.638zm1.276-.981-.49-.639.638-.491.491.639zm1.277-.982-.491-.638.638-.491.491.638zm1.276-.982-.491-.638.638-.491.491.638zm1.276-.981-.491-.639.639-.491.49.639zm1.276-.982-.49-.639.638-.49.49.638zm1.276-.982-.49-.638.512-.394.49.638zM90.105 54.151l.497-.634.634.497-.497.634zm1.267.994.497-.634.634.496-.497.634zm1.268.992.497-.633.633.496-.497.634zm1.267.994.497-.634.633.496-.496.634zm1.267.992.497-.633.634.497-.497.633zm1.268.994.496-.634.634.496-.497.635zm1.267.993.496-.634.634.497-.496.634zm1.267.993.497-.634.633.497-.496.633zm1.267.994.497-.635.634.497-.497.634zm1.267.992.497-.633.634.497-.497.633zm1.268.993.497-.633.633.496-.497.634zm1.267.993.497-.633.634.497-.497.633zm1.267.994.497-.634.634.496-.497.635zm1.268.993.497-.634.633.497-.496.634zm1.267.993.497-.634.634.497-.497.634zm1.268.993.496-.633.634.496-.497.634zm1.267.993.497-.634.508.399-.497.634zM32.483 99.123l.497-.635.634.497-.497.634zm1.267.993.497-.634.634.496-.497.634zm1.268.992.497-.633.633.496-.497.634zm1.267.994.497-.634.633.496-.496.635zm1.267.993.497-.634.634.497-.497.633zm1.268.993.496-.634.634.497-.497.634zm1.267.994.496-.635.634.497-.496.634zm1.267.992.497-.633.633.496-.497.634zm1.267.994.497-.634.634.496-.497.634zm1.267.992.497-.633.634.497-.497.633zm1.268.994.497-.634.633.497-.497.633zm1.267.993.497-.634.634.497-.497.633zm1.267.993.497-.634.634.496-.497.635zm1.268.993.497-.634.633.497-.496.634zm1.267.993.497-.633.634.496-.497.634zm1.267.993.497-.633.634.496-.497.634zm1.267.993.497-.633.509.398-.497.634zM137.808 181.37l.497-.634.634.496-.497.634zm1.267.993.497-.634.634.497-.497.634zm1.268.993.497-.634.633.497-.497.633zm1.267.994.497-.635.633.497-.496.634zm1.267.992.497-.633.634.496-.497.634zm1.268.994.496-.635.634.497-.497.634zm1.267.993.496-.634.634.496-.496.634zm1.267.992.497-.633.633.497-.496.633zm1.267.994.497-.634.634.496-.497.635zm1.267.993.497-.634.634.497-.497.633zm1.268.993.497-.634.633.497-.497.633zm1.267.993.497-.634.634.497-.497.634zm1.267.994.497-.635.634.497-.497.634zm1.268.993.496-.634.634.496-.496.634zm1.267.992.497-.633.633.497-.496.633zm1.267.994.497-.634.634.497-.497.633zm1.268.993.496-.634.509.399-.497.633zM195.398 137.9l.497-.635.634.497-.497.634zm1.267.993.497-.634.634.496-.497.634zm1.268.992.497-.633.633.496-.497.634zm1.267.994.497-.634.634.496-.497.635zm1.267.993.497-.634.634.497-.497.634zm1.268.993.496-.634.634.496-.497.635zm1.267.994.497-.635.633.497-.496.634zm1.267.992.497-.633.634.496-.497.634zm1.267.994.497-.634.634.496-.497.634zm1.267.992.497-.633.634.497-.497.633zm1.268.993.497-.633.633.497-.497.633zm1.267.993.497-.633.634.497-.497.633zm1.267.994.497-.634.634.496-.497.635zm1.268.993.497-.634.633.497-.496.634zm1.267.993.497-.633.634.496-.497.634zm1.268.993.496-.633.634.496-.497.634zm1.267.993.496-.633.509.398-.497.634z" opacity=".8"/>
</svg>
