<svg xmlns="http://www.w3.org/2000/svg" viewBox="0 0 240.278 256">
  <path fill="#afd4e5" d="m118.874 129.541 121.404-66.093L118.874 0 0 56.984z"/>
  <path fill="#69c" d="M118.874 129.54 0 56.986v113.602L118.874 256z"/>
  <path fill="#7da7d3" d="M240.278 176.98V63.45L118.874 129.54V256z"/>
  <path fill="#369" d="m184.987 93.549-2.143 1.166 1.712 118.534 2.831-1.843z"/>
  <path fill="#69c" d="m161.91 77.054 30.502-16.468s-45.97-50.157-100.11-21.033C66.83 53.255 59.24 67.026 70.516 81.73c18.662 24.338 41.17 21.606 41.17 21.606L141.04 89.05s-31.876 4.205-45.356-6.959c-11.057-9.159-6.414-20.817 8.845-31.44 13.388-9.321 40.036-5.565 49.479 1.564 9.442 7.127 13.11 17.095 7.903 24.839"/>
</svg>
