<svg xmlns="http://www.w3.org/2000/svg" viewBox="0 0 255.247 288.11">
  <path fill="#fae501" d="M87.333 200.777c-15.306-14.406-24.309-34.213-24.309-56.722s9.003-42.316 23.409-56.722c12.605-12.604 12.605-32.412 0-45.017-12.605-12.605-32.412-12.605-45.017 0C16.206 68.426 0 104.44 0 144.055s16.206 75.629 42.316 101.739c12.605 12.605 32.413 12.605 45.017 0 11.705-12.605 11.705-32.413 0-45.017z"/>
  <path fill="#4fb5e1" d="M87.333 87.333c14.406-15.306 34.213-24.309 56.722-24.309s42.316 9.003 56.722 23.409c12.604 12.605 32.412 12.605 45.017 0 12.605-12.605 12.605-32.412 0-45.017C219.684 16.206 183.67 0 144.054 0 104.44 0 68.427 16.206 42.317 42.316c-12.605 12.605-12.605 32.413 0 45.017 12.605 11.705 32.413 11.705 45.017 0z"/>
  <path fill="#f05751" d="M200.777 200.777c-14.406 15.305-34.213 24.309-56.722 24.309s-42.316-9.004-56.722-23.41c-12.604-12.604-32.412-12.604-45.017 0-12.605 12.606-12.605 32.413 0 45.018 26.11 25.21 62.124 41.416 101.739 41.416s75.629-16.206 101.739-42.316c12.605-12.605 12.605-32.413 0-45.017-12.605-11.705-32.413-11.705-45.017 0z"/>
  <circle cx="64.825" cy="64.825" r="31.512" fill="#0681b6"/>
  <circle cx="64.825" cy="223.285" r="31.512" fill="#cd4739"/>
</svg>
