<svg xmlns="http://www.w3.org/2000/svg" viewBox="0 0 256 291.54">
  <path fill="#00f4cb" d="M210.979 97.851c-.516-.953-1.197-1.895-2.617-2.612l-20.277-11.708c-.28-.16-.58-.282-.891-.363-.105-.024-.208-.024-.316-.04-.207-.037-.415-.075-.623-.073l-.043-.002v.01c-.601.01-1.19.172-1.711.47l-45.606 26.333-.043-.075-3.685 2.127a14.33 14.33 0 0 1-14.337 0l-19.935-11.508a3.589 3.589 0 0 1 0-6.212l19.935-11.503a14.33 14.33 0 0 1 14.337 0l4.803 2.771a3.596 3.596 0 0 0 3.584 0l18.567-10.719a3.584 3.584 0 0 0 0-6.208l-26.954-15.563a14.347 14.347 0 0 0-14.337 0l-66.022 38.12c-4.779 2.76-4.779 9.658 0 12.416l66.022 38.12c4.437 2.559 9.9 2.559 14.337 0l51.045-29.475v67.133l-16.407 9.498-34.638 20.06a14.571 14.571 0 0 1-3.486 1.441 14.337 14.337 0 0 1-10.848-1.44L73.37 181.447a7.164 7.164 0 0 1-3.584-6.208v-39.133a3.58 3.58 0 0 0-1.792-3.102L49.43 122.281a3.584 3.584 0 0 0-5.377 3.107v64.707a7.177 7.177 0 0 0 3.585 6.213l73.19 42.258a14.325 14.325 0 0 0 7.073 1.912v.005l.048-.002c.353.002.697-.036 1.049-.062.272-.017.544-.017.812-.048.373-.053.736-.139 1.1-.215.245-.053.501-.081.742-.148.395-.1.78-.249 1.162-.387.212-.077.427-.127.63-.213a13.95 13.95 0 0 0 1.72-.841l63.141-36.457 10.012-5.68a7.173 7.173 0 0 0 3.63-6.234v-88.753a7.15 7.15 0 0 0-.968-3.591"/>
  <path fill="#282f37" d="M134.987 31.539a14.243 14.243 0 0 0-6.985-1.906c-2.455.023-4.862.68-6.989 1.906l-88.2 50.922a14.302 14.302 0 0 0-7.15 12.382v101.848c0 5.108 2.725 9.828 7.15 12.381l88.2 50.923a14.278 14.278 0 0 0 7.092 1.913 14.286 14.286 0 0 0 7.091-1.91l87.81-50.7a14.293 14.293 0 0 0 7.149-12.379v-29.428c0-1.278.68-2.46 1.787-3.098l18.696-10.795a3.574 3.574 0 0 1 5.362 3.098v54.814a14.27 14.27 0 0 1-1.692 6.696c-.274 1.353-1.744 2.948-3.824 4.577-.048.041-.103.077-.153.12-5.283 4.103-14.019 8.35-15.567 9.243l-99.568 57.485a14.312 14.312 0 0 1-7.339 1.906v.002l-.038-.002-.074.002v-.01a14.193 14.193 0 0 1-6.732-1.901L7.15 223.889A14.297 14.297 0 0 1 0 211.51V80.029c0-2.295.29-4.633 1.299-6.613.138-.512 1.518-3.038 4.36-5.116 1.073-.722 2.967-1.692 4.742-2.719L120.69 1.907a14.302 14.302 0 0 1 7.313-1.906 14.271 14.271 0 0 1 7.309 1.906l101.766 58.75c.236.142.415.31.61.473l1.292.738c3.462 1.835 8.886 4.63 11.817 6.863l.245.181c.037.03.076.059.115.086.107.086.178.172.278.262a12.699 12.699 0 0 1 2.707 3.15c.017.015.031.036.048.055l-.005.003a12.82 12.82 0 0 1 1.816 6.57v48.146c0 1.278-.68 2.459-1.787 3.098l-18.699 10.794a3.574 3.574 0 0 1-5.362-3.098V94.564c0-5.114-2.732-9.84-7.165-12.39l-88-50.638z"/>
</svg>
