<svg xmlns="http://www.w3.org/2000/svg" viewBox="0 0 256 256">
  <defs>
    <filter id="a" width="2" height="2" x="-.5" y="-.5" filterUnits="objectBoundingBox">
      <feOffset dx="4" dy="4" in="SourceAlpha" result="shadowOffsetInner1"/>
      <feGaussianBlur in="shadowOffsetInner1" result="shadowBlurInner1" stdDeviation="1.5"/>
      <feComposite in="shadowBlurInner1" in2="SourceAlpha" k2="-1" k3="1" operator="arithmetic" result="shadowInnerInner1"/>
      <feColorMatrix in="shadowInnerInner1" result="shadowMatrixInner1" values="0 0 0 0 0 0 0 0 0 0 0 0 0 0 0 0 0 0 0.55 0"/>
      <feMerge>
        <feMergeNode in="SourceGraphic"/>
        <feMergeNode in="shadowMatrixInner1"/>
      </feMerge>
    </filter>
  </defs>
  <path fill="#8cafc4" d="M256 128c0 70.692-57.308 128-128 128C57.308 256 0 198.692 0 128 0 57.308 57.308 0 128 0c70.692 0 128 57.308 128 128"/>
  <path fill="#1777bb" d="M243.2 128c0 63.623-51.577 115.2-115.2 115.2-63.623 0-115.2-51.577-115.2-115.2C12.8 64.377 64.377 12.8 128 12.8c63.623 0 115.2 51.577 115.2 115.2"/>
  <path fill="#eb9b23" d="M178.286 128c0 27.772-22.514 50.286-50.286 50.286-27.772 0-50.286-22.514-50.286-50.286 0-27.772 22.514-50.286 50.286-50.286 27.772 0 50.286 22.514 50.286 50.286" filter="url(#a)"/>
</svg>
