<svg xmlns="http://www.w3.org/2000/svg" viewBox="0 0 256 256">
  <path d="M128 256c70.692 0 128-57.308 128-128C256 57.308 198.692 0 128 0 57.308 0 0 57.308 0 128c0 70.692 57.308 128 128 128zm0-26.122c-56.265 0-101.878-45.613-101.878-101.878S71.735 26.122 128 26.122 229.878 71.735 229.878 128 184.265 229.878 128 229.878zm-1.045-173.715c-33.96 0-62.433 23.772-69.747 55.641h34.22c6.27-13.584 19.854-22.988 35.527-22.988 21.682 0 39.184 17.502 39.184 39.184s-17.502 39.184-39.184 39.184c-15.673 0-29.257-9.404-35.526-22.727h-34.22c7.313 31.608 35.787 55.38 69.746 55.38 39.706 0 71.837-32.13 71.837-71.837 0-39.706-32.13-71.837-71.837-71.837z"/>
</svg>
