<svg xmlns="http://www.w3.org/2000/svg" viewBox="0 0 511.041 149.528">
  <path fill="#53a3da" d="M74.768 0C33.537 0 0 33.539 0 74.764c0 41.228 33.537 74.764 74.768 74.764 41.219 0 74.758-33.536 74.758-74.764C149.526 33.539 115.986 0 74.768 0z"/>
  <path fill="#f1606d" d="M74.768 6.86c-12.023 0-22.22 19.232-25.903 45.962a161.992 161.992 0 0 0-1.347 15.69c-.08 2.06-.121 4.143-.121 6.252 0 2.107.04 4.194.122 6.25.17 4.503.51 8.88 1.014 13.086 5.637.73 11.665 1.225 17.953 1.46 2.717.102 5.476.162 8.283.162 2.798 0 5.565-.06 8.274-.162 6.295-.235 12.32-.73 17.962-1.46.62-.08 1.23-.166 1.85-.256 23.48-3.297 39.815-10.596 39.815-19.08 0-37.504-30.404-67.903-67.902-67.903z"/>
  <path fill="#fff" d="M102.854 55.681a34.462 34.462 0 0 0-2.19-2.859c-6.23-7.344-15.511-12.01-25.895-12.01-3.367 0-6.364 5.153-8.283 13.154-.763 3.19-1.355 6.83-1.736 10.781a106.45 106.45 0 0 0-.463 10.017c0 3.484.162 6.851.463 10.014 3.168.301 6.53.462 10.019.462 3.484 0 6.846-.161 10.014-.462 6.964-.66 12.976-2 17.235-3.764 4.206-1.74 6.695-3.906 6.695-6.25 0-7.074-2.16-13.643-5.86-19.083z"/>
  <path fill="#231f20" d="M219.967 37.931c8.754 0 15.872 4.27 20.356 9.087l-7.001 7.879c-3.724-3.612-7.774-5.91-13.246-5.91-11.714 0-20.141 9.85-20.141 25.942 0 16.311 7.77 26.162 19.7 26.162 6.35 0 11.058-2.626 15.108-7.115l7.003 7.77c-5.798 6.676-13.244 10.4-22.33 10.4-18.17 0-32.508-13.135-32.508-36.888 0-23.426 14.668-37.327 33.059-37.327zM270.102 55.773c13.463 0 25.616 10.291 25.616 28.242 0 17.841-12.154 28.131-25.616 28.131-13.354 0-25.502-10.29-25.502-28.131 0-17.951 12.148-28.242 25.502-28.242zm0 46.083c7.882 0 12.696-7.115 12.696-17.841 0-10.837-4.814-17.951-12.696-17.951-7.881 0-12.587 7.114-12.587 17.95 0 10.727 4.706 17.842 12.587 17.842zM299.883 57.087h10.395l.877 9.522h.437c3.83-7.006 9.525-10.836 15.215-10.836 2.74 0 4.49.328 6.13 1.094l-2.19 10.946c-1.858-.546-3.282-.875-5.578-.875-4.27 0-9.419 2.953-12.7 11.056v32.837h-12.586zM356.474 55.773c14.559 0 22.22 10.51 22.22 25.508 0 2.405-.218 4.594-.547 5.91h-34.15c1.092 9.74 7.22 15.212 15.869 15.212 4.6 0 8.537-1.42 12.48-3.938l4.268 7.879c-5.144 3.393-11.6 5.802-18.387 5.802-14.89 0-26.49-10.4-26.49-28.131 0-17.516 12.148-28.242 24.737-28.242zM367.747 79.2c0-8.54-3.61-13.684-10.944-13.684-6.347 0-11.823 4.708-12.918 13.684z"/>
  <path fill="#f1606d" d="M397.853 74.49c0-22.768 12.372-37.108 29.773-37.108 17.296 0 29.663 14.34 29.663 37.108 0 22.88-12.367 37.656-29.663 37.656-17.401 0-29.773-14.776-29.773-37.656zm54.182 0c0-19.922-9.849-32.508-24.41-32.508-14.667 0-24.52 12.586-24.52 32.508 0 20.032 9.853 33.059 24.52 33.059 14.561 0 24.41-13.027 24.41-33.059z"/>
  <path fill="#53a4d9" d="M466.817 97.807c5.257 5.91 12.808 9.742 21.237 9.742 10.944 0 17.953-5.913 17.953-14.447 0-8.977-5.909-11.933-13.025-15.108l-10.947-4.926c-6.239-2.738-14.562-7.225-14.562-17.954 0-10.397 8.976-17.733 20.91-17.733 8.757 0 15.762 3.94 20.139 8.65l-2.953 3.394c-4.161-4.489-9.961-7.444-17.186-7.444-9.524 0-15.872 5.036-15.872 12.915 0 8.321 7.225 11.493 12.478 13.903l10.948 4.814c7.99 3.614 15.104 8.102 15.104 19.158 0 11.055-9.086 19.374-23.096 19.374-10.51 0-18.609-4.487-24.3-10.835z"/>
</svg>
