<svg xmlns="http://www.w3.org/2000/svg" viewBox="0 0 511.271 131.926">
  <path fill="#444" d="M229.182 41.029c13.691 0 20.138 9.334 20.138 23.692 0 13.869-6.447 23.472-20.138 23.472-13.735 0-20.18-9.603-20.18-23.472 0-14.358 6.445-23.692 20.18-23.692zm39.651.534V67.61c0 10.312 2.044 14.357 8.623 14.357 3.735 0 6.889-1.025 9.157-2.089 1.167-.546 2.232-1.158 3.165-1.838l.391-.295V41.563h8.223v45.829l-5.957.488-1.11-5.733c-1.156 1.11-2.541 2.119-4.135 3.021-2.719 1.543-6.621 3.023-11.646 3.023-10.202 0-14.793-6.22-14.89-19.823l-.002-.446v-26.36zm60.676-.537c3.91 0 7.148.602 9.467 1.243 1.2.334 2.275.663 3.24 1.068l.406.178.667 6a36.073 36.073 0 0 0-3.78-1.11c-2.312-.53-5.422-1.112-8.801-1.112-7.956 0-12.248 5.068-12.223 17.47.02 11.957 4.266 17.327 12.223 17.202a43.797 43.797 0 0 0 8.847-1.067c1.18-.27 2.264-.566 3.277-.898l.5-.168-.71 5.912c-1.067.49-2.273.869-3.6 1.245-2.274.645-5.513 1.15-9.292 1.2-9.778.129-19.647-5.868-19.647-23.292 0-18.359 9.825-23.87 19.426-23.87zm32.672-16.712v22.76c4.846-3.778 9.336-5.246 15.336-5.246 10.252 0 14.277 5.706 14.358 20.304v26.059h-8.224V63.21c0-12.09-2.89-15.114-8.224-15.114-5.387 0-10.857 3.864-13.094 4.703l-.15.053v35.34h-8.226V25.114zm62.898 0c7.559 0 14.73.912 20.316 5.202 5.528 4.245 9.201 11.513 9.201 25.426 0 19.89-5.184 32.986-26.854 33.245l-.662.004h-20.313V24.314zm43.074 0h17.559c16.535 0 22.535 4.668 22.535 16.759 0 9.38-8 12.446-11.38 12.802 2.714.222 5.109.896 7.203 2.089 3.596 2.051 7.201 5.824 7.201 13.778 0 12.63-7.23 18.334-21.735 18.448l-.446.001h-20.937V24.314h17.559zm-285.244-2.266c4.8 0 9.025.661 12.045 1.335 1.78.394 3.38.8 4.802 1.289l.712 6.89a42.353 42.353 0 0 0-4.89-1.468c-3.016-.697-7.157-1.416-11.736-1.378-11.47.097-18.56 6.268-18.492 26.006.066 19.157 5.823 26.82 17.647 26.758 4.935-.025 9.194-.692 12.402-1.6 1.817-.514 3.512-1.022 5.069-1.602l-.756 6.934c-1.468.579-3.111 1.073-4.935 1.512-3.154.76-7.556 1.467-12.757 1.467-7.157 0-13.47-1.778-18.048-6.934-4.578-5.156-7.408-13.691-7.423-26.449-.029-24.67 11.202-32.76 26.36-32.76zm46.273 25.292c-8.89 0-11.869 6.224-11.869 17.292 0 10.222 2.98 17.336 11.87 17.336 8.89 0 11.867-7.113 11.867-17.336 0-11.068-3.11-17.292-11.868-17.292zm198.21-16.58H415.3v51.03h8.98c17.336 0 21.933-6 21.958-26.493.02-16.536-4.134-24.538-18.848-24.538zm59.432 26.404h-10.625V81.79h10.757c10.846 0 16.402-1.867 16.404-12.135 0-9.823-5.156-12.491-16.536-12.491zm-2.225-26.404h-8.402v20.76h10.357c10.18 0 13.67-3.824 13.692-10.803.023-8.09-4.488-9.957-15.647-9.957z"/>
  <path fill="#777" d="M472.838 104.845c8.081 0 10.085 2.904 10.137 10.846l.001.33v10.242c0 1.214.128 1.842.558 2.021.432.18 1.233.117 1.907.101l.22-.003-.332 3.087-.808.228c-.501.142-1.213.229-2.022.229-1.39 0-2.328-.557-2.934-1.24-.606-.682-.885-1.77-.885-2.174-.456.631-1.09 1.21-1.897 1.72-1.392.88-3.565 1.66-6.929 1.694-4.602.043-7.712-2.833-7.712-7.41 0-6.043 5.716-7.409 11.582-7.409 1.056 0 2.077.04 2.909.138l.302.04 1.39.202v-2.856c0-5.387-1.518-6.22-5.84-6.22-2.1 0-4.098.375-5.69.758-.75.18-1.45.379-2.114.607l-.492.177.506-3.516c.632-.278 1.367-.55 2.2-.783a21.778 21.778 0 0 1 5.943-.809zm-37.5-.202c6.372-.038 9.524 4.374 9.634 9.001.017.708-.061 1.895-.153 2.807-.08.81-.14 1.558-.228 1.93l-.024.093h-15.702v.909c0 6.373 3.109 8.601 7.786 8.547a27.756 27.756 0 0 0 5.058-.531c.627-.127 1.222-.261 1.784-.413l.416-.118-.48 3.388c-.608.228-1.289.433-2.024.607a21.96 21.96 0 0 1-5.08.607c-8.168 0-12.29-4.4-12.29-13.123 0-9.634 4.881-13.667 11.303-13.704zm20.735-9.509v36.336h-4.653V95.59zm37.549 10.267 6.372 10.468 6.321-10.468h4.956l-8.696 13.099 8.696 12.97h-5.232l-6.045-10.164-6.093 10.164h-5.185l8.65-12.97-8.65-13.099zm-75.73-.758c.683 0 1.34.152 1.845.278.202.051.393.113.573.178l.261.1-.556 3.616-.354-.177c-.277-.077-.758-.179-1.568-.179-1.92 0-3.562.61-4.753 1.19-.545.264-1.059.574-1.54.908l-.357.254v20.203h-4.677v-26.118l3.261-.253.886 3.186c1.948-2.025 4.424-3.186 6.978-3.186zm48.524 20.052c0 2.604 1.744 3.818 4.804 3.818 2.123 0 3.89-.514 5.132-1.087.608-.281 1.168-.568 1.675-.904l.297-.209h.001v-6.144l-1.24-.074-2.603-.078c-2.984-.087-8.066.253-8.066 4.678zm-30.977-16.59c-1.591 0-3.083.456-4.271 1.595-1.142 1.093-1.957 2.766-2.199 5.584l-.027.358h11.96c0-.278.007-.479.025-.632.032-.28.031-.556.025-.785-.12-4.3-2.402-6.12-5.513-6.12z"/>
  <path fill="#e42528" d="M109.19 58.794c0 5.57-2.934 8.299-8.4 8.396v.003H33.598v-.003c-5.465-.097-8.399-2.826-8.399-8.396 0-5.568 2.934-8.298 8.4-8.394v-.005h67.193v.005c5.465.096 8.399 2.826 8.399 8.394m-8.4 12.604v-.005H33.598v.005c-5.465.096-8.399 2.826-8.399 8.396s2.934 8.297 8.4 8.394v.003h67.193v-.004c5.465-.096 8.399-2.825 8.399-8.395 0-5.57-2.934-8.298-8.4-8.394m20.999-46.191v-.005c-5.466.097-8.4 2.826-8.4 8.395v46.195c0 5.57 2.934 8.298 8.4 8.395v-.01c8.198-.287 12.599-8.475 12.599-25.183V41.996c0-11.138-4.401-16.596-12.6-16.79M12.6 25.203v.005C4.401 25.4 0 30.858 0 41.997v20.997C0 79.702 4.401 87.89 12.6 88.178v.009c5.465-.096 8.398-2.825 8.398-8.395V33.597c0-5.57-2.933-8.298-8.399-8.395m109.19-4.204c0-13.923-7.335-20.746-20.998-20.987V0H33.597v.011C19.935.252 12.6 7.075 12.6 20.998v.007c8.198.145 12.6 4.239 12.6 12.592 0 8.354 4.4 12.447 12.598 12.592v.006h58.795v-.006c8.197-.145 12.598-4.238 12.598-12.592 0-8.353 4.4-12.447 12.599-12.592z"/>
</svg>
