<svg xmlns="http://www.w3.org/2000/svg" viewBox="0 0 510.67 71.418">
  <g fill="#717172">
    <path d="M256.664 22.81c.312-6 2.463-10.904 5.825-14.73V2.985h-4.468c-9.031 0-16.677 3.46-21.122 11.282h-.26V3.844h-23.165V67.4h23.17V41.743c0-10.89 3.187-19.193 16.043-19.193 1.4.01 2.71.09 3.977.26zM432.084 22.578c1.924-5.617 5.045-10.62 9.102-14.634V2.979h-4.459c-9.036 0-16.672 3.461-21.14 11.277h-.251V3.844h-23.18V67.4h23.18V41.743c0-10.89 3.196-19.193 16.053-19.193l.695.028zM303.716 20.195c-3.574-1.858-8.549-3.097-12.506-3.097-2.658 0-7.249 1.106-7.249 4.336 0 4.34 7.249 4.955 10.455 5.589 10.8 2.1 18.97 7.06 18.97 18.814 0 16.72-15.665 23.68-30.83 23.68-9.3 0-18.45-2.605-26.356-7.315l8.403-15.745c4.705 3.234 12.601 6.445 18.332 6.445 2.932 0 7.258-1.357 7.258-4.828 0-4.955-7.258-5.216-14.526-7.07-7.248-1.857-14.497-5.319-14.497-16.719 0-15.613 14.497-22.54 28.787-22.54 7.385 0 14.776 1.111 21.51 4.085zM510.67 67.399H487.5V60.33h-.254c-4.076 6.317-12.115 9.164-19.742 9.164-19.367 0-32.98-15.737-32.98-33.95 0-18.195 13.372-33.813 32.72-33.813 7.509 0 15.415 2.723 20.252 8.293v-6.18h23.165l.009 63.555zm-52.206-31.718c0 8.047 5.485 14.242 14.894 14.242 9.42 0 14.88-6.185 14.88-14.242 0-7.807-5.46-14.37-14.88-14.37-9.41.005-14.894 6.563-14.894 14.37zM388.502 39.407h-48.783c0 9.159 4.979 14.11 14.525 14.11 4.965 0 8.526-1.604 11.079-5.821h22.29c-3.693 14.993-18.342 21.807-33.236 21.807-21.633 0-37.804-11.901-37.804-33.818 0-21.183 14.88-33.94 36.144-33.94 22.663 0 35.794 13.632 35.794 35.302l-.009 2.36zm-21.524-13.018c-1.15-6.07-6.88-10.033-13.112-10.033-6.757 0-12.336 3.456-13.76 10.033zM139.777 34.574a46.141 46.141 0 0 0-.104-1.626v-.02c-.52-5.896-2.468-11.414-5.773-16.398a35.853 35.853 0 0 0-5.05-6.052c-2.757-2.653-5.949-4.847-9.547-6.582C113.889 1.31 107.907.005 101.524.005c-.624 0-1.277.01-1.934.033-4.482.203-8.818 1.054-12.894 2.553-4.11 1.485-7.689 3.447-10.616 5.802-.595.473-1.243 1.054-1.938 1.693l-.501.491-.686.729H72.964l-.321.316-.156.17-.818.861a57.115 57.115 0 0 0-1.721 2.029l-.005-.01-.019-.019c-1.12 1.362-2.156 2.771-2.917 4.038a69.432 69.432 0 0 0-1.504 2.487l-6.681 13.51.01.01-.35.685-.738 1.494c-1.466 2.965-3.036 5.92-4.79 8.36-3.91 4.288-8.332 6.388-14.015 6.388-.398 0-.804-.019-1.22-.043-3.424-.137-6.36-.945-8.965-2.487a16.85 16.85 0 0 1-.809-.51c-2.128-1.414-3.76-3.23-4.979-5.495-1.376-2.567-1.986-5.192-1.9-7.972.004-.076.009-.142.009-.203.184-4.426 1.872-7.868 5.272-10.843a18.27 18.27 0 0 1 2.596-1.858c.127-.076.255-.147.383-.213 2.525-1.376 5.4-2.061 8.695-2.061l1.026.028c5.235.199 9.273 1.835 12.493 5.026l10.1-18.133c-2.416-1.617-5.145-3.007-8.152-4.137-.114-.043-.232-.09-.35-.128-.36-.128-.714-.26-1.083-.378-3.196-1.069-6.549-1.726-10-2.024C41.97.18 41.875.17 41.79.16c-.53-.033-1.069-.1-1.598-.123A53.118 53.118 0 0 0 38.466 0h-.327c-6.35.024-12.25 1.324-17.646 3.901C14.45 6.814 9.551 11.055 5.92 16.521 2.298 21.987.322 28.054.038 34.565A39.186 39.186 0 0 0 0 36.22c-.005 9.107 3.315 17.117 9.916 23.84 6.889 7.055 15.85 10.857 26.606 11.306.69.029 1.372.047 2.053.047 6.085 0 11.717-1.082 16.767-3.248 1.262-.539 2.487-1.173 3.74-1.877.68-.393 1.324-.809 1.962-1.253l.473-.317.794-.544a30.554 30.554 0 0 0 2.72-2.217l.302-.289c.51-.487 1.021-.979 1.503-1.485l1.811-2.047.69-.865.322-.473.322-.464c2.69-4.52 11.447-20.97 11.447-20.97v-.033l.52-1.003.435-.785c1.291-2.35 2.223-4.019 3.457-5.773l.033-.052c2.88-4.175 7.83-7.15 13.665-7.65 9.788-.842 18.365 5.588 19.155 14.364.785 8.776-6.516 16.574-16.304 17.42-2.038.175-4.019.038-5.887-.374l-.047.02c-7.182-1.495-11.755-6.734-14.01-9.075l-9.42 17.32s2.928 2.951 4.933 4.426c2.01 1.471 4.605 2.918 6.676 3.816 5.026 2.147 10.493 3.433 16.53 3.433.7 0 .559 0 1.287-.028 10.748-.45 20.327-4.568 27.236-11.623 6.544-6.7 10.095-14.35 10.128-23.405v-.27a56.253 56.253 0 0 0-.038-1.518zM175.808 69.546c-4.885 0-9.315-.568-13.292-1.703-3.977-1.134-7.372-2.926-10.185-5.385-2.823-2.459-4.998-5.59-6.53-9.386-1.532-3.797-2.298-8.374-2.298-13.708V3.83h22.351v35.25c0 3.996.955 6.89 2.861 8.696 1.91 1.811 4.336 2.714 7.277 2.714 3.007 0 5.447-.842 7.33-2.53 1.872-1.688 2.817-4.487 2.817-8.42V3.83h22.352v35.066c0 5.523-.785 10.218-2.35 14.081-1.566 3.868-3.774 7.027-6.616 9.486-2.856 2.458-6.293 4.246-10.336 5.385-4.043 1.13-8.502 1.698-13.381 1.698z"/>
  </g>
</svg>
