<svg xmlns="http://www.w3.org/2000/svg" viewBox="0 0 512 113.261">
  <path fill="#ff6c2c" d="M42.327 27.89h31.996l-4.955 18.971c-.757 2.644-2.173 4.768-4.247 6.371-2.077 1.607-4.484 2.408-7.22 2.408H43.035c-3.398 0-6.396.99-8.99 2.973-2.598 1.982-4.413 4.671-5.451 8.07-.661 2.548-.732 4.955-.212 7.22.518 2.265 1.438 4.272 2.76 6.016 1.321 1.748 3.02 3.14 5.098 4.178 2.074 1.04 4.34 1.556 6.795 1.556h9.06c1.7 0 3.091.686 4.177 2.053 1.084 1.37 1.392 2.902.92 4.601l-5.662 20.954h-9.91c-6.796 0-13.05-1.487-18.76-4.46-5.711-2.973-10.454-6.912-14.228-11.822C4.856 92.073 2.283 86.481.916 80.204c-1.369-6.277-1.203-12.719.496-19.327l.566-2.123a41.337 41.337 0 0 1 5.733-12.53c2.596-3.822 5.663-7.078 9.203-9.768 3.539-2.69 7.48-4.79 11.822-6.3 4.34-1.509 8.87-2.266 13.591-2.266zm16.139 85.37L86.356 8.779c.754-2.642 2.17-4.765 4.248-6.371C92.678.803 95.084 0 97.824 0h29.59c6.795 0 13.046 1.487 18.758 4.46 5.709 2.973 10.452 6.915 14.228 11.821 3.774 4.909 6.371 10.501 7.787 16.777 1.416 6.278 1.225 12.72-.567 19.325l-.565 2.124c-1.228 4.53-3.115 8.707-5.663 12.53-2.55 3.822-5.593 7.103-9.132 9.839-3.54 2.738-7.482 4.862-11.822 6.37-4.342 1.512-8.873 2.266-13.591 2.266h-25.625l5.096-19.113c.755-2.548 2.17-4.623 4.248-6.23 2.075-1.603 4.481-2.406 7.22-2.406h8.212c3.397 0 6.441-1.038 9.13-3.115 2.691-2.075 4.46-4.765 5.31-8.07.66-2.358.73-4.672.213-6.937-.52-2.265-1.44-4.27-2.762-6.017-1.322-1.745-3.021-3.16-5.096-4.247-2.077-1.084-4.342-1.628-6.795-1.628H110.14l-20.67 76.876c-.757 2.548-2.173 4.625-4.248 6.229-2.076 1.606-4.437 2.407-7.079 2.407zm176.543-55.78.425-1.558c.188-.754.071-1.39-.354-1.91-.425-.518-1.015-.78-1.77-.78h-46.012c-1.982 0-3.776-.424-5.38-1.274-1.605-.85-2.926-1.958-3.963-3.327-1.04-1.366-1.748-2.948-2.124-4.743-.379-1.791-.332-3.632.14-5.521l2.832-10.76h62.294c3.87 0 7.409.85 10.618 2.55 3.208 1.697 5.876 3.916 8 6.653 2.124 2.738 3.585 5.875 4.388 9.414.801 3.54.73 7.199-.212 10.973L252.706 98.82c-1.132 4.248-3.421 7.694-6.866 10.335-3.446 2.644-7.387 3.965-11.822 3.965l-46.012-.142c-4.06 0-7.787-.872-11.184-2.62-3.399-1.744-6.183-4.056-8.354-6.936-2.171-2.878-3.68-6.182-4.53-9.91-.849-3.728-.754-7.527.283-11.398l.567-2.124c.659-2.64 1.77-5.096 3.326-7.361 1.558-2.266 3.374-4.2 5.451-5.805a24.651 24.651 0 0 1 6.937-3.752c2.549-.896 5.24-1.345 8.071-1.345h38.65l-2.832 10.619c-.756 2.548-2.172 4.625-4.248 6.229-2.076 1.606-4.436 2.406-7.078 2.406h-17.273c-1.605 0-2.643.804-3.114 2.408-.283 1.04-.095 1.96.566 2.76.66.803 1.509 1.203 2.548 1.203h27.89c1.039 0 1.935-.283 2.691-.849.754-.567 1.225-1.32 1.416-2.265l.283-1.133zm82.398-29.59c6.887 0 13.188 1.487 18.899 4.46 5.71 2.973 10.452 6.915 14.23 11.822 3.773 4.908 6.346 10.525 7.714 16.847 1.368 6.325 1.156 12.791-.636 19.396l-7.079 26.617c-.474 1.888-1.487 3.397-3.043 4.53-1.558 1.133-3.282 1.699-5.17 1.699h-15.289c-1.793 0-3.209-.683-4.247-2.053-1.04-1.367-1.323-2.903-.85-4.601l8.495-32.138c.66-2.358.73-4.672.212-6.937-.52-2.266-1.44-4.27-2.76-6.017-1.323-1.746-3.021-3.161-5.097-4.248-2.078-1.084-4.343-1.627-6.795-1.627h-15.857L286.4 107.032c-.472 1.888-1.486 3.397-3.043 4.53-1.558 1.133-3.328 1.699-5.31 1.699H262.9c-1.699 0-3.092-.683-4.176-2.053-1.084-1.367-1.392-2.903-.921-4.601l20.954-78.717zm83.386 26.97c-1.132.899-1.936 2.054-2.407 3.47l-6.37 24.067c-.378 1.323-.141 2.549.707 3.681.85 1.133 1.983 1.7 3.399 1.7h58.612l-4.53 16.847c-.757 2.548-2.173 4.625-4.248 6.229-2.077 1.606-4.438 2.407-7.079 2.407h-53.373c-3.872 0-7.411-.825-10.619-2.478-3.21-1.65-5.876-3.868-8-6.654-2.123-2.782-3.588-5.946-4.387-9.485-.802-3.54-.685-7.15.353-10.831l8.636-32.138c.943-3.49 2.406-6.7 4.389-9.627 1.982-2.924 4.319-5.426 7.008-7.503 2.69-2.076 5.709-3.703 9.06-4.885a31.12 31.12 0 0 1 10.407-1.77h37.8c3.87 0 7.41.85 10.618 2.549 3.208 1.699 5.877 3.918 8 6.654 2.124 2.738 3.561 5.9 4.317 9.485.755 3.588.66 7.22-.283 10.902l-2.548 9.627c-1.132 4.248-3.422 7.67-6.866 10.265-3.447 2.596-7.34 3.893-11.68 3.893h-42.756l2.832-10.477c.659-2.548 2.027-4.623 4.105-6.23 2.075-1.603 4.481-2.406 7.22-2.406h17.273c1.604 0 2.64-.801 3.114-2.407l.566-2.124c.284-1.037.093-1.982-.566-2.831-.662-.85-1.51-1.274-2.548-1.274h-26.333c-1.415 0-2.69.449-3.823 1.345zm53.797 58.4L483.046 6.37c.471-1.886 1.487-3.42 3.045-4.6C487.647.59 489.417 0 491.4 0h15.148c1.792 0 3.231.686 4.318 2.053 1.084 1.37 1.391 2.902.92 4.601L490.55 85.512c-1.04 4.155-2.715 7.928-5.026 11.326-2.314 3.398-5.05 6.3-8.212 8.707-3.163 2.407-6.678 4.296-10.547 5.663-3.871 1.37-7.928 2.053-12.175 2.053z"/>
</svg>
