<svg xmlns="http://www.w3.org/2000/svg" viewBox="0 0 256 292.288">
  <path fill="#405261" d="M252.078 70.215 131.903 1.043a7.826 7.826 0 0 0-7.806 0L3.92 70.215A7.823 7.823 0 0 0 0 76.995v138.3a7.823 7.823 0 0 0 3.92 6.78l120.177 69.17a7.826 7.826 0 0 0 7.806 0l120.177-69.17a7.823 7.823 0 0 0 3.92-6.78v-138.3c0-2.8-1.494-5.385-3.922-6.78zM118.84 45.382a1.3 1.3 0 0 1-.652 1.13l-42.989 24.77a1.305 1.305 0 0 0 0 2.26l42.986 24.742c.404.232.655.662.655 1.129v17.976a1.302 1.302 0 0 1-1.954 1.13L38.754 73.55a1.305 1.305 0 0 1 0-2.26l78.13-45.019c.868-.5 1.956.128 1.956 1.13zm98.404 28.168-78.196 45.007a1.303 1.303 0 0 1-1.953-1.129V99.452c0-.467.25-.897.655-1.13L180.8 73.546c.871-.5.871-1.758 0-2.261L137.75 46.477a1.3 1.3 0 0 1-.652-1.129V27.367a1.304 1.304 0 0 1 1.956-1.13l78.195 45.055c.866.5.866 1.757-.005 2.258z"/>
</svg>
