<svg xmlns="http://www.w3.org/2000/svg" viewBox="0 0 255.11 360.088">
  <path fill="#264de4" d="M127.399 360.088 23.217 331.166 0 70.766h255.11l-23.242 260.36z"/>
  <path fill="#2965f1" d="m211.972 314.547 19.86-222.49H127.556V337.95z"/>
  <path fill="#ebebeb" d="m53.223 188.636 2.863 31.937h71.469v-31.937zM47.472 123.995l2.903 31.937h77.18v-31.937zM127.555 271.58l-.14.037-35.569-9.604-2.273-25.471h-32.06l4.474 50.146 65.42 18.16.148-.04V271.58z"/>
  <path d="M60.038 0H98.72v16.176H76.214v16.176H98.72v16.175H60.038zM106.456 0h38.681v14.066h-22.505v2.813h22.505v32.352h-38.681V34.46h22.505v-2.813h-22.505zM152.873 0h38.682v14.066h-22.506v2.813h22.506v32.352h-38.682V34.46h22.506v-2.813h-22.506z"/>
  <path fill="#fff" d="m201.682 188.636 5.765-64.641h-80.003v31.937h45.003l-2.906 32.704h-42.097v31.937h39.327l-3.707 41.42-35.62 9.614v33.226l65.473-18.145.48-5.396 7.505-84.08z"/>
</svg>
