<svg xmlns="http://www.w3.org/2000/svg" viewBox="0 0 254.161 309.737">
  <defs>
    <linearGradient id="a" x1="98.586" x2="98.585" y1=".484" y2="194.708" gradientTransform="scale(.62708 1.59469)" gradientUnits="userSpaceOnUse">
      <stop offset="0%" stop-color="#5C70B5"/>
      <stop offset="67.5%" stop-color="#507DBF"/>
      <stop offset="100%" stop-color="#428BCA"/>
    </linearGradient>
    <linearGradient id="b" x1="220.941" x2="220.941" y1=".409" y2="170.985" gradientTransform="scale(.55067 1.81598)" gradientUnits="userSpaceOnUse">
      <stop offset="0%" stop-color="#5C70B5"/>
      <stop offset="67.5%" stop-color="#507DBF"/>
      <stop offset="100%" stop-color="#428BCA"/>
    </linearGradient>
    <linearGradient id="c" x1="308.753" x2="308.753" y1=".394" y2="166.045" gradientTransform="scale(.53471 1.87017)" gradientUnits="userSpaceOnUse">
      <stop offset="0%" stop-color="#5C70B5"/>
      <stop offset="67.5%" stop-color="#507DBF"/>
      <stop offset="100%" stop-color="#428BCA"/>
    </linearGradient>
    <linearGradient id="d" x1="401.466" x2="401.466" y1=".387" y2="158.661" gradientTransform="scale(.51093 1.9572)" gradientUnits="userSpaceOnUse">
      <stop offset="0%" stop-color="#5C70B5"/>
      <stop offset="67.5%" stop-color="#507DBF"/>
      <stop offset="100%" stop-color="#428BCA"/>
    </linearGradient>
    <linearGradient id="e" x1="479.421" x2="479.421" y1=".369" y2="154.09" gradientTransform="scale(.49624 2.01515)" gradientUnits="userSpaceOnUse">
      <stop offset="0%" stop-color="#5C70B5"/>
      <stop offset="67.5%" stop-color="#507DBF"/>
      <stop offset="100%" stop-color="#428BCA"/>
    </linearGradient>
  </defs>
  <path fill="url(#a)" d="M101.723 20.826c-6.23 0-11.14 3.03-14.683 9.162-3.559 6.11-6.028 12.855-7.349 20.174l-12.348 60.395c-1.775 7.82-4.394 14.445-7.848 19.906-3.477 5.432-7.066 9.908-10.841 13.333-3.798 3.454-7.52 6.11-11.199 8.02-3.663 1.88-6.543 3.059-8.513 3.536l-.32.948c1.559.261 3.544.925 6.006 2.022 2.44 1.09 4.827 2.932 7.184 5.498 2.336 2.552 4.335 5.775 6.021 9.677 1.657 3.902 2.492 8.864 2.492 14.84 0 2.022-.216 3.999-.671 6.013-.463 2.022-.896 4.23-1.336 6.7l-12.347 60.082a64.723 64.723 0 0 0-.993 11.348c0 5.133.664 9.378 2.007 12.855 1.35 3.47 4.335 5.14 9.02 5.14h16.683L58.353 310.5H34.986c-3.358 0-6.73-.664-10.184-2.006-3.477-1.35-6.499-3.216-9.177-5.663-2.694-2.403-4.827-5.551-6.513-9.341-1.657-3.813-2.492-8.133-2.492-12.997 0-2.022.112-4.193.32-6.543.21-2.328.56-4.708 1.008-7.17l12.668-60.388c.433-2.462.784-4.842.992-7.215.21-2.327.314-4.491.314-6.506 0-7.781-2.037-13.936-6.155-18.51-4.111-4.551-9.088-6.864-14.847-6.864l4.998-22.688c3.544 0 7.185-.933 10.84-2.828 3.664-1.887 7.133-4.476 10.342-7.834 3.215-3.335 6.132-7.438 8.699-12.34 2.552-4.917 4.506-10.348 5.834-16.362L54.302 44.47c1.335-7.11 3.67-13.377 6.998-18.86 3.335-5.432 7.125-10.006 11.348-13.661 4.208-3.671 8.67-6.469 13.362-8.342C90.68 1.72 95.135.764 99.335.764h23.383l-4.32 20.025H101.73l-.007.037z" style="fill:url(#a)" transform="translate(-.92 -.764)"/>
  <path fill="url(#b)" d="m152.583 56.086-39.624 203.92H90.748l39.58-203.92z" style="fill:url(#b)" transform="translate(-.92 -.764)"/>
  <path fill="url(#c)" d="m190.977 67.479-35.894 181.097h-15.884l36.02-181.097h15.758z" style="fill:url(#c)" transform="translate(-.92 -.764)"/>
  <path fill="url(#d)" d="m226.535 76.006-32.044 164.05h-10.78l32.088-164.05z" style="fill:url(#d)" transform="translate(-.92 -.764)"/>
  <path fill="url(#e)" d="m255.08 88.31-28.328 139.457h-6.014l28.21-139.458z" style="fill:url(#e)" transform="translate(-.92 -.764)"/>
</svg>
