<svg xmlns="http://www.w3.org/2000/svg" viewBox="0 0 256 294.071">
  <path fill="#00a818" d="M129.35 0C57.858 0 0 58.018 0 129.708c0 63.119 45.12 115.564 104.665 127.232v37.13c77.413-11.703 145.958-73.324 151.073-154.213 3.078-48.689-21.13-98.394-61.96-122.53-2.338-1.381-4.713-2.753-7.159-3.96-2.492-1.23-5.051-2.428-7.652-3.466-.826-.346-1.635-.66-2.469-.99-2.271-.84-4.563-1.787-6.911-2.475C156.929 2.253 143.399 0 129.35 0z"/>
  <path fill="#fff" d="M156.146 47.927c-4.433-.456-9.102 1.091-12.367 4.96-2.375 3.176-3.859 6.251-5.442 9.426-4.75 11.112-3.166 23.018 3.958 31.75 11.081-2.382 20.48-9.476 25.23-20.588 1.583-3.175 2.473-7.243 2.473-10.418.495-8.433-6.462-14.37-13.852-15.13zm-57.633.744c-7.227.69-14.099 6.45-14.099 14.386 0 3.175.89 7.243 2.474 10.418 4.749 11.112 14.89 18.206 25.972 20.587 6.332-8.73 7.964-20.637 3.215-31.749-1.583-3.175-3.067-6.3-5.442-8.681-3.265-3.87-7.783-5.375-12.12-4.96zM59.68 86.87c-12.482.642-18.057 16.37-7.668 24.556 3.166 2.38 6.233 4.117 9.4 5.705 11.08 4.762 23.893 3.125 33.392-3.225-2.375-10.318-10.438-19.793-21.52-24.556-3.958-1.587-7.173-2.48-11.13-2.48-.891-.1-1.642-.043-2.474 0zm121.945 48.12c-7.25-.14-14.594 1.984-20.53 5.952 2.374 10.319 10.438 19.794 21.52 24.556 3.957 1.587 7.172 2.48 11.13 2.48 14.248.794 21.223-16.866 10.142-24.803-3.167-2.382-6.234-3.87-9.4-5.457-4.155-1.786-8.512-2.645-12.862-2.729zm-108.094.743c-4.35.084-8.706.943-12.862 2.729-3.958 1.587-7.025 3.324-9.4 5.705-10.29 8.73-3.363 25.35 10.884 24.555 3.958 0 7.965-.892 11.131-2.48 11.082-4.762 18.947-14.237 20.53-24.556a35.35 35.35 0 0 0-20.283-5.953zm40.072 24.308c-11.082 2.381-20.481 9.475-25.23 20.587-1.583 3.175-2.474 6.995-2.474 10.17-.791 13.493 17.562 20.736 25.478 10.417 2.374-3.175 3.858-6.25 5.441-9.425 4.75-10.318 3.117-22.224-3.215-31.749zm29.435.744c-6.333 8.731-7.965 20.637-3.216 31.75 1.583 3.174 3.067 6.3 5.442 8.68 8.707 9.525 27.01 2.48 26.22-9.425 0-3.175-.891-7.243-2.474-10.418-4.75-11.112-14.89-18.206-25.972-20.587z"/>
</svg>
