<svg xmlns="http://www.w3.org/2000/svg" viewBox="0 0 512.001 93.349">
  <path fill="#ffcd00" d="M66.586 53.346a26.673 26.673 0 1 0-26.673-26.66 26.66 26.66 0 0 0 26.673 26.66z"/>
  <path fill="#00ecbb" d="M66.752 66.676h-.09c-18.295-.004-34.259-12.413-38.777-30.142-1.34-5.332-5.677-9.848-11.175-9.848H0C0 63.503 29.846 93.35 66.663 93.35h.089z"/>
  <path fill="#af64ff" d="M66.586 66.676h.077c18.297 0 34.263-12.41 38.778-30.142 1.352-5.332 5.689-9.848 11.187-9.848h16.71c-.007 36.82-29.856 66.663-66.675 66.663h-.077z"/>
  <path fill="#7131ff" d="M113.809 73.82a66.663 66.663 0 0 1-94.28 0l18.854-18.854c15.625 15.615 40.947 15.615 56.572 0z"/>
  <path fill="#2f326a" d="M465.414 25.347h7.335v31.227h-7.335zm3.7-5.102a4.732 4.732 0 0 1-3.343-1.276 4.146 4.146 0 0 1-1.352-3.15 3.993 3.993 0 0 1 1.352-3.05 4.656 4.656 0 0 1 3.343-1.275 4.796 4.796 0 0 1 3.342 1.276 3.827 3.827 0 0 1 1.352 2.984 4.477 4.477 0 0 1-1.352 3.279 4.541 4.541 0 0 1-3.342 1.173zM454.61 56.982a4.707 4.707 0 0 1-4.809-4.86 4.784 4.784 0 0 1 1.352-3.508 4.835 4.835 0 0 1 3.457-1.34 4.694 4.694 0 0 1 4.809 4.848 4.694 4.694 0 0 1-4.809 4.86zm32.107-2.041a19.134 19.134 0 0 0 17.182 0 14.95 14.95 0 0 0 5.932-5.677 16.136 16.136 0 0 0 2.168-8.304 15.766 15.766 0 0 0-2.168-8.24 14.874 14.874 0 0 0-5.97-5.677 19.134 19.134 0 0 0-17.182 0 15.167 15.167 0 0 0-5.983 5.677 15.983 15.983 0 0 0-2.118 8.24 16.353 16.353 0 0 0 2.118 8.304 15.307 15.307 0 0 0 6.02 5.677zm15.243-6.901a9.682 9.682 0 0 1-13.368 0 9.81 9.81 0 0 1-2.551-7.08 9.81 9.81 0 0 1 2.55-7.08 9.644 9.644 0 0 1 13.37 0 9.682 9.682 0 0 1 2.64 7.08 9.682 9.682 0 0 1-2.64 7.08zm-207.297 6.824a8.508 8.508 0 0 1-3.15 1.57 13.891 13.891 0 0 1-3.828.522 10.983 10.983 0 0 1-7.921-2.679 10.205 10.205 0 0 1-2.794-7.78V18.7h7.271v7.08h8.33v5.816h-8.33v14.759a5.013 5.013 0 0 0 1.11 3.482A4.21 4.21 0 0 0 288.553 51c1.466.05 2.905-.4 4.082-1.275zm-105.097 2.092a18.318 18.318 0 0 1-8.674-2.028 15.04 15.04 0 0 1-5.995-5.638 15.907 15.907 0 0 1-2.156-8.253 15.575 15.575 0 0 1 2.156-8.19 15.116 15.116 0 0 1 5.932-5.638 18.432 18.432 0 0 1 8.737-2.028 16.685 16.685 0 0 1 8.037 1.862 11.94 11.94 0 0 1 5.217 5.37l-5.549 3.317a8.623 8.623 0 0 0-3.38-3.265 8.93 8.93 0 0 0-4.376-1.097 9.146 9.146 0 0 0-6.747 2.666 9.376 9.376 0 0 0-2.68 7.028 9.695 9.695 0 0 0 2.552 7.093 9.988 9.988 0 0 0 11.25 1.607 9.146 9.146 0 0 0 3.381-3.253l5.549 3.253a12.756 12.756 0 0 1-5.294 5.396 16.583 16.583 0 0 1-7.947 1.824zm59.954-.982c2.412.652 4.9.982 7.398.982 4.35 0 7.794-.867 10.307-2.551a8.087 8.087 0 0 0 3.827-6.965 7.067 7.067 0 0 0-1.748-5.102 9.478 9.478 0 0 0-4.07-2.551c-2.006-.573-4.053-1-6.122-1.276a31.967 31.967 0 0 1-5.498-1.505 2.551 2.551 0 0 1-1.747-2.551 2.806 2.806 0 0 1 1.62-2.552 9.95 9.95 0 0 1 4.898-.982 17.297 17.297 0 0 1 8.93 2.322l2.805-5.523a18.075 18.075 0 0 0-5.242-1.914 28.242 28.242 0 0 0-6.378-.752 16.94 16.94 0 0 0-10.014 2.666 8.202 8.202 0 0 0-3.66 7.028 7.564 7.564 0 0 0 1.734 5.294 10.205 10.205 0 0 0 4.197 2.551 46.457 46.457 0 0 0 6.289 1.34c1.803.232 3.58.638 5.306 1.211a2.309 2.309 0 0 1 1.684 2.27c0 2.288-2.173 3.428-6.518 3.42a22.35 22.35 0 0 1-5.83-.804 18.662 18.662 0 0 1-5-2.27l-2.794 5.522a18.662 18.662 0 0 0 5.69 2.717zm55.526-1.046a18.968 18.968 0 0 0 17.068 0 14.899 14.899 0 0 0 5.88-5.638 16.034 16.034 0 0 0 2.156-8.253c.045-2.876-.7-5.709-2.156-8.19a14.899 14.899 0 0 0-5.88-5.638 18.968 18.968 0 0 0-17.068 0 15.307 15.307 0 0 0-5.944 5.638 16.034 16.034 0 0 0-2.092 8.19 16.366 16.366 0 0 0 2.092 8.253 15.307 15.307 0 0 0 6.008 5.663zm15.142-6.863a9.567 9.567 0 0 1-13.28 0 9.707 9.707 0 0 1-2.55-7.028 9.733 9.733 0 0 1 2.55-7.029 9.605 9.605 0 0 1 13.28 0 9.605 9.605 0 0 1 2.615 7.029 9.58 9.58 0 0 1-2.552 7.054zm56.126-22.884a12.628 12.628 0 0 1 9.324 3.431c2.284 2.245 3.432 5.626 3.432 10.205v17.757h-7.284V39.723a8.993 8.993 0 0 0-1.658-6.097 6.48 6.48 0 0 0-5.179-2.092 7.526 7.526 0 0 0-5.88 2.449 9.669 9.669 0 0 0-2.258 6.85v15.74h-7.284v-16.85a8.993 8.993 0 0 0-1.799-6.097 6.493 6.493 0 0 0-5.179-2.092 7.756 7.756 0 0 0-5.944 2.385 9.962 9.962 0 0 0-2.194 6.914v15.74h-7.283v-17.36c0-8.7 6.594-14.032 15.205-14.032a23.229 23.229 0 0 1 8.087 1.34 9.733 9.733 0 0 1 4.311 3.826 12.858 12.858 0 0 1 4.95-3.827 15.817 15.817 0 0 1 6.735-1.313zm51.56 18.203c.076-.927.114-1.641.114-2.143a16.761 16.761 0 0 0-2.028-8.368 13.853 13.853 0 0 0-5.6-5.638 15.996 15.996 0 0 0-8.087-2.028 16.825 16.825 0 0 0-8.279 2.028 14.797 14.797 0 0 0-5.753 5.702 16.124 16.124 0 0 0-2.04 8.125 16.239 16.239 0 0 0 2.091 8.253 15.052 15.052 0 0 0 6.072 5.638 21.098 21.098 0 0 0 16.251.753 13.202 13.202 0 0 0 5.294-3.827l-3.903-4.477a11.34 11.34 0 0 1-8.445 3.368 11.149 11.149 0 0 1-6.748-1.978 8.623 8.623 0 0 1-3.342-5.408zm-21.545-10.281a8.853 8.853 0 0 1 5.944-2.092 8.687 8.687 0 0 1 5.931 2.092 8.547 8.547 0 0 1 2.858 5.46H403.42a8.585 8.585 0 0 1 2.909-5.46zm46.648-7.896v6.913a9.478 9.478 0 0 0-1.684-.178 8.75 8.75 0 0 0-6.645 2.55 9.784 9.784 0 0 0-2.386 7.093v14.989h-7.283v-15.64c0-11.34 7.283-17.143 17.998-15.727zM223.37 56.982c-4.159 0-8.585-1.148-10.983-3.432-2.398-2.283-3.559-5.753-3.559-10.281V25.525h7.284v16.762a9.184 9.184 0 0 0 1.862 6.276 8.215 8.215 0 0 0 10.804 0 9.248 9.248 0 0 0 1.863-6.276V25.525h7.283V43.27c0 4.533-1.186 7.96-3.559 10.281-2.423 2.284-6.875 3.432-11.02 3.432z"/>
</svg>
