<svg xmlns="http://www.w3.org/2000/svg" viewBox="0 0 255.995 256">
  <defs>
    <linearGradient id="a" x1="74.708" x2="221.388" y1="254.942" y2=".907" gradientTransform="scale(.99996 1.00004)" gradientUnits="userSpaceOnUse">
      <stop offset="41.47%" stop-color="#51D3D9"/>
      <stop offset="100%" stop-color="#C8FF8C"/>
    </linearGradient>
    <linearGradient id="b" x1="235.586" x2="278.36" y1="191.617" y2="130.625" gradientTransform="scale(.90733 1.10213)" gradientUnits="userSpaceOnUse">
      <stop offset="41.47%" stop-color="#51D3D9"/>
      <stop offset="100%" stop-color="#5A919B"/>
    </linearGradient>
  </defs>
  <path fill="url(#a)" d="M255.96 198.32c-.12 2.6-.84 5.16-2.16 7.48l-24.24 42a16.33 16.33 0 0 1-14.16 8.2H80.88c-5.84 0-11.24-3.12-14.16-8.16L2.2 136.2C.72 133.64 0 130.84 0 128c0-2.84.56-5.8 2.28-8.68L66.76 8.16C69.68 3.12 75.08 0 80.88 0H215.4c5.84 0 11.24 3.12 14.16 8.16 0 0 23.32 38.2 25 40.92 1.68 2.72 1.4 6.16 1.4 8.96 0 2.4-.68 5.68-1.32 8.28-.64 2.6-20.16 81.72-20.16 81.72l-42.6-90.6h-87.32L63.68 128l40.88 70.56h87.28z" style="fill:url(#a)"/>
  <path fill="url(#b)" d="m224.84 127.96 29.6 62.76a16.31 16.31 0 0 1-.64 15.12l-61.92-7.24z" style="fill:url(#b)"/>
</svg>
