<svg xmlns="http://www.w3.org/2000/svg" viewBox="0 0 1267.679 1267.329">
  <path fill="#399ce5" d="M78.642 325.266C178.732 141.304 375.182 13.606 584.465-.088c10.255 7.906-2.69 21.484-4.468 31.165-69.78 228.19-137.727 456.954-207.564 685.143-3.61 10.371-4.297 21.428-3.727 32.37 77.745-9.685 155.662-17.416 233.29-27.673a369.02 369.02 0 0 1 23.891-.457c1.605 3.322 4.812 10.024 6.358 13.349-25.78 85.422-48.009 171.872-72.415 257.637-17.59 64.794-37.009 129.134-53.223 194.329C666.68 953.406 825.317 720.002 984.527 487c-12.834-10.655-29.5-2.979-44.28-2.521-79.81 7.562-159.388 18.332-239.372 24.176-1.314-9.053-.794-18.104 3.963-26.125C768.54 347.096 831.102 211.087 894.872 75.763c3.775-11.856 18.1-11.972 27.671-7.904 185.739 92.753 318.077 283.304 340.536 489.722 18.16 146.777-17.938 299.752-99.517 423.208-72.468 110.979-180.696 198.347-304.734 245.376-143.567 55.002-307.305 55.002-450.878 0-143.742-54.31-265.6-163.333-336.468-299.63-97.51-185.106-95.389-418.625 7.16-601.269z"/>
</svg>
