<svg xmlns="http://www.w3.org/2000/svg" viewBox="0 0 256 252.653">
  <path fill="#010101" d="M256 128C256 57.225 198.615 0 128 0 57.385 0 0 57.225 0 128c0 23.113 6.057 44.792 16.737 63.442C24.07 173.43 34.75 152.07 41.763 146.81c0 0 16.26-14.665 32.997-9.245 0 0 72.528 25.983 91.975 49.574 0 0 10.201 14.825 5.898 29.808-1.754 6.377-8.13 21.68-15.303 35.707C213.918 239.423 256 188.573 256 128zm-76.354 30.765a17.936 17.936 0 0 1-3.347 1.912c-4.145 1.435-8.927.16-11.955-3.506-11.318-13.868-54.994-36.185-70.934-36.185-6.058 0-10.84-4.782-10.999-10.84 0-6.056 4.782-10.838 10.84-10.998 24.069-.16 73.803 26.62 87.99 44.155 3.825 4.941 3.187 11.795-1.595 15.462zm30.765-12.753C180.921 109.67 108.075 77.63 71.412 77.788c-5.42 0-9.883-4.304-9.883-9.723 0-5.42 4.304-9.883 9.724-9.883 41.923-.16 120.19 33.474 154.301 75.397 3.348 4.145 2.71 10.361-1.434 13.709-.957.797-1.913 1.275-3.03 1.753-3.665 1.435-7.97.319-10.679-3.029z"/>
</svg>
