<svg xmlns="http://www.w3.org/2000/svg" viewBox="0 0 254.305 255.999">
  <path fill="#00d2b8" d="M69.687 69.695 53.141 53.15l.07 119.6.198 5.59c.082 2.63.57 5.598 1.384 8.674l131.104 46.23 32.772-14.52.012-.04L69.687 69.695"/>
  <path fill="#55ddca" d="m54.793 187.013.008.008c-.008-.054-.036-.114-.036-.17 0 .056.008.108.028.162zm163.876 31.71-32.772 14.52-131.096-46.222c2.504 9.608 8.048 20.408 14.014 26.314l42.784 42.54 95.13.124 11.952-37.316z"/>
  <path fill="#0081c6" d="M2.187 130.115c-4.236 4.522-2.132 13.85 4.688 20.722L36.293 180.5l18.5 6.514c-.814-3.076-1.302-6.044-1.384-8.674l-.198-5.59-.07-119.6z"/>
  <path fill="#0079b3" d="M186.973 54.685c-3.076-.786-6.026-1.272-8.7-1.356l-5.908-.204-119.224.016 165.556 165.542h.014l14.54-32.804-46.278-131.194"/>
  <path fill="#00a4e4" d="M186.823 54.653c.064.014.114.032.156.038l-.006-.006c-.036-.018-.086-.018-.15-.032zm26.448 14.078c-6.008-6.058-16.666-11.564-26.292-14.04l46.272 131.188-14.54 32.804h-.014l35.532-11.348.076-97.416z"/>
  <path fill="#00d2b8" d="M180.491 36.297 150.837 6.861c-6.858-6.794-16.19-8.908-20.7-4.684L53.141 53.141l119.224-.016 5.908.204c2.674.084 5.624.57 8.7 1.356z"/>
</svg>
