<svg xmlns="http://www.w3.org/2000/svg" viewBox="0 0 256 295.603">
  <path fill="#fff" d="M0 73.9 128 0l128 73.9v147.802l-128 73.901L0 221.702z"/>
  <path fill="#95ca71" d="M128.236 14.888 13.212 81.503l.682 1.182 56.913 33.314 56.744-98.918z"/>
  <path fill="#7dc262" d="m128.156 14.995.673 1.405.511 130.016-1.184 1.588-1.798-.226-56.232-32.12z"/>
  <path fill="#67bc59" d="m128.085 62.663.132 85.232 2.146-.372 72.334-41.493z"/>
  <path fill="#51b755" d="m128.085 63.66.151-48.773 115.035 66.559-.955 1.324-40.215 23.771zM185.487 178.45l55.721 32.973 2.063 2.996-115.038 66.528 2.045-6.646z"/>
  <path fill="#67bc59" d="m186.765 179.217-54.443-31.183-4.105-.138-2.03 4.74.512 124.221 1.518 4.09z"/>
  <path fill="#95ca71" d="m128.217 147.896-4.841 1.16-69.78 40.896 72.08 42.43 2.54-.339z"/>
  <path fill="#7dc262" d="M128.232 232.043v48.904l-115.02-66.536 2.3-2.732 38.34-22.493z"/>
  <path fill="#39b353" d="M243.27 81.445V214.42l-115.054-66.523z"/>
  <path fill="#b1d58b" d="M128.217 147.896 13.212 81.503V214.41z"/>
</svg>
