<svg xmlns="http://www.w3.org/2000/svg" viewBox="0 0 256 255.495">
  <path fill="#83292a" d="M126.028 105.396h-39.48c-2.917 6.426-9.374 10.903-16.89 10.903-10.248 0-18.555-8.307-18.555-18.554 0-10.248 8.307-18.555 18.555-18.555 7.516 0 13.973 4.477 16.89 10.903h30.645l-12.994-22.505H34.733L0 127.748l15.699 27.191H61.05c1.295-3.246 4.453-5.547 8.161-5.547a8.798 8.798 0 0 1 8.799 8.799 8.798 8.798 0 0 1-16.896 3.443h-41.55l15.169 26.273h69.466l34.733-60.159-12.904-22.352M255.745 60.159 221.012 0h-31.158L167.26 39.149c2.164 2.744 2.578 6.63.724 9.842a8.798 8.798 0 0 1-12.019 3.222 8.8 8.8 0 0 1-3.223-12.019 8.801 8.801 0 0 1 8.687-4.336L182.124 0h-30.578l-34.734 60.159 34.734 60.16h26.632l19.399-34.254c-4.155-5.705-4.869-13.53-1.165-20.07 5.05-8.917 16.373-12.052 25.289-7.002 8.917 5.05 12.052 16.372 7.002 25.289-3.704 6.54-10.782 9.953-17.81 9.324l-15.129 26.713h25.248l34.733-60.16M240.857 221.564 256 195.336l-34.733-60.16h-69.466l-12.898 22.34 19.829 34.469c7.025-.677 14.126 2.688 17.874 9.203 5.11 8.882 2.052 20.226-6.83 25.336-8.883 5.11-20.226 2.052-25.336-6.831-3.748-6.515-3.088-14.345 1.028-20.077l-15.409-26.783-12.992 22.503 34.734 60.159h69.466l15.729-27.244-22.614-38.979c-3.458.509-7.033-1.068-8.894-4.276a8.8 8.8 0 0 1 15.222-8.831 8.8 8.8 0 0 1-.569 9.692l20.716 35.707"/>
  <path fill="#b3b2b2" d="M220.2 75.364a7.65 7.65 0 0 1-7.651 7.651 7.651 7.651 0 1 1 7.651-7.651M77.309 97.745a7.652 7.652 0 1 1-15.303-.001 7.652 7.652 0 0 1 15.303.001M167.979 210.604a7.651 7.651 0 0 1-7.652 7.651 7.652 7.652 0 1 1 7.652-7.651"/>
  <path fill="#040707" d="M212.549 62.05c-7.218 0-13.091 5.873-13.091 13.091 0 3.409 1.347 6.476 3.498 8.798l-22.783 39.897h-30.517l-17.343-29.565H82.007c-1.512-5.544-6.523-9.649-12.541-9.649-7.218 0-13.091 5.873-13.091 13.091 0 7.218 5.873 13.09 13.091 13.09 5.91 0 10.852-3.956 12.463-9.348h46.09l15.321 26.138-16.956 29.701 24.917 43.959c-2.377 2.366-3.873 5.611-3.873 9.222 0 7.218 5.873 13.091 13.091 13.091 7.218 0 13.091-5.873 13.091-13.091 0-7.218-5.873-13.088-13.091-13.088-.989 0-1.94.139-2.865.351l-22.871-40.494 15.255-26.102h34.247l24.961-43.397c1.06.287 2.153.486 3.303.486 7.218 0 13.091-5.872 13.091-13.09s-5.873-13.091-13.091-13.091zm0 24.038a10.89 10.89 0 0 1-4.315-.892l-25.19 43.806H148.81l-16.499 28.224 24.356 43.036c1.203-.455 2.492-.735 3.852-.735 6.037 0 10.948 4.911 10.948 10.948 0 6.038-4.911 10.951-10.948 10.951-6.038 0-10.948-4.913-10.948-10.951 0-3.612 1.779-6.796 4.486-8.791L128.85 157.3l16.965-29.722-16.567-28.266-48.996.004c-.783 5.273-5.297 9.344-10.786 9.344-6.037 0-10.948-4.911-10.948-10.947 0-6.037 4.911-10.948 10.948-10.948 5.594 0 10.167 4.23 10.817 9.652l50.802-.003 17.342 29.565h32.99l24.23-42.411c-2.449-2.009-4.046-5.019-4.046-8.427 0-6.037 4.91-10.948 10.948-10.948 6.037 0 10.948 4.911 10.948 10.948 0 6.036-4.911 10.947-10.948 10.947z"/>
</svg>
