<svg xmlns="http://www.w3.org/2000/svg" viewBox="0 0 511.588 157.742">
  <defs>
    <linearGradient id="a" x1="0" x2="154.566" y1="78.929" y2="78.929" gradientTransform="scale(.9968 1.00321)" gradientUnits="userSpaceOnUse">
      <stop offset="0%" stop-color="#FF593D"/>
      <stop offset="100%" stop-color="#FF7751"/>
    </linearGradient>
  </defs>
  <g fill="none" fill-rule="nonzero">
    <path fill="url(#a)" d="M77.036 1.653H0v155.061h77.036c38.528 0 77.035-34.714 77.035-77.52S115.564 1.653 77.036 1.653zm0 112.76C57.58 114.405 41.812 98.627 41.82 79.17c.008-19.457 15.786-35.224 35.244-35.217 19.457.007 35.224 15.785 35.218 35.242a35.22 35.22 0 0 1-35.245 35.22z" style="fill:url(#a)"/>
    <path fill="#ff7751" d="M233.11 1.68c23.187 0 35.08 14.057 35.08 33.4v17.3c0 19.34-11.893 33.397-35.08 33.397H196.35V1.68zm14.417 33.286c0-10.69-5.647-16.337-18.14-16.337h-12.495v50.207h12.494c12.494 0 18.141-5.647 18.141-16.337zm84.667 35.2H301.8l-4.686 15.619h-20.663L306.483 1.68h21.147l30.034 84.097H337zm-25.348-16.579h20.302l-10.091-33.276zM422.998 1.68v17.426h-22.714v66.671h-20.657V19.101h-22.713V1.68zm50.017 85.779c-25.468 0-38.563-16.34-38.563-38.324V38.322C434.452 16.338 447.547 0 473.015 0c25.468 0 38.573 16.338 38.573 38.322v10.813c-.008 21.984-13.103 38.324-38.573 38.324zm0-70.281c-12.012 0-17.9 8.051-17.9 20.064v12.973c0 12.015 5.888 20.064 17.9 20.064 12.013 0 17.9-8.05 17.9-20.064V37.242c0-12.013-5.885-20.064-17.9-20.064zm-258.24 130.151a9.424 9.424 0 0 0 10.182-9.531h11.658c-.147 10.851-8.137 19.944-21.702 19.944-15.837 0-23.461-9.972-23.461-23.316v-6.745c0-13.344 7.624-23.314 23.46-23.314 13.566 0 21.556 9.089 21.703 19.94h-11.658a9.424 9.424 0 0 0-10.181-9.532c-7.627 0-10.707 5.06-10.707 12.318v7.919c0 7.258 3.09 12.317 10.707 12.317zm72.555-41.938h11.586v51.323h-12.097v-27.126l-8.067 15.688h-9.97l-7.991-15.688v27.126h-12.099v-51.323h11.584l13.49 27.935zm44.574 52.351c-12.317 0-20.602-5.874-20.602-16.204v-1.394H323.4v1.03c0 4.325 2.786 6.964 8.578 6.964 5.206 0 8.652-2.126 8.652-6.085a4.212 4.212 0 0 0-3.524-4.545l-12.831-3.227c-7.993-1.98-12.099-5.498-12.099-13.857 0-10.191 7.259-16.056 19.43-16.056 11.511 0 18.844 6.23 18.844 15.616v1.247h-11.652v-.88c0-3.447-1.907-6.306-7.186-6.306-4.4 0-7.184 1.539-7.184 5.204a3.904 3.904 0 0 0 3.299 4.18l13.636 3.666c8.212 2.2 11.51 6.746 11.51 13.857 0 10.264-9.09 16.79-20.968 16.79z"/>
  </g>
</svg>
