<svg xmlns="http://www.w3.org/2000/svg" viewBox="0 0 205.179 43.816">
  <g fill="#ff5f4c">
    <path d="M.026 4.898V.32h1.509c4.577 0 9.18-.079 13.758.027 5.53.106 10.477 1.852 14.42 5.847 2.936 2.937 4.444 6.615 5.132 10.663.9 5.185.662 10.292-1.56 15.134-3.044 6.667-8.494 10.345-15.69 10.927-5.689.45-11.457.211-17.172.264-.132 0-.238-.079-.423-.132V10.983c1.482 0 2.963-.053 4.418.053.212.026.556.688.583 1.058.079 1.746.052 3.572.052 5.371 0 6.535.027 13.044-.026 19.58 0 1.296.423 1.666 1.667 1.64 3.386-.133 6.8.026 10.16-.292 6.747-.608 10.715-4.656 12.514-10.98 1.323-4.683 1.112-9.366-.82-13.864-2.407-5.662-7.038-8.334-12.99-8.625-4.657-.238-9.34-.053-14.023-.053-.45.027-.926.027-1.509.027zM200.79 8.84c-4.683-3.784-9.922-4.948-15.61-3.89-4.445.82-6.641 4.207-5.715 8.52.37 1.693 1.402 2.937 2.963 3.466 2.857 1.005 5.794 1.746 8.678 2.672 2.831.9 5.742 1.667 8.467 2.884 3.492 1.535 5.37 4.445 5.582 8.308.238 4.445-1.27 8.017-5.159 10.424-2.196 1.35-4.604 2.011-7.117 2.223-7.117.582-13.758-.714-19.606-5.133-.264-.212-.529-.45-.873-.767.768-1.376 1.508-2.699 2.196-3.942 1.985 1.164 3.837 2.46 5.848 3.36 4.55 2.063 9.313 2.672 14.181 1.376 3.863-1.032 5.636-3.837 4.842-7.515-.423-2.063-1.826-3.518-3.704-4.18-3.387-1.217-6.88-2.117-10.292-3.228-2.25-.74-4.551-1.402-6.668-2.434-3.783-1.878-5.265-5.08-4.789-9.022.82-6.906 4.234-10.425 11.113-11.589 5.847-.979 11.403-.08 16.43 3.255 1.667 1.11 1.693 1.11.74 2.804l-1.19 2.064c-.106.132-.211.212-.317.344zM161.182.294c.027.608.08 1.032.08 1.455 0 8.202.052 16.404-.08 24.58-.053 3.598-.37 7.223-1.878 10.583-1.905 4.286-5.398 6.403-9.922 6.8-3.175.264-6.324.079-9.34-1.191-2.407-1.005-2.487-1.058-1.72-3.545.186-.583.397-1.112.662-1.8 2.672 1.509 5.424 2.064 8.36 1.985 4.075-.133 6.642-1.852 7.62-5.768.635-2.54 1.032-5.186 1.059-7.805.132-7.885.08-15.77.053-23.68 0-1.217.29-1.8 1.614-1.667 1.11.159 2.196.053 3.492.053zM120.172.32l-7.937 13.282c-2.567 4.313-5.186 8.6-7.7 12.938a4.904 4.904 0 0 0-.634 2.355 518.652 518.652 0 0 0 0 12.832c0 1.085-.318 1.508-1.43 1.455-1.216-.079-2.433-.026-3.783-.026v-3.07c0-2.301.16-4.603-.026-6.878-.344-3.81.688-7.091 2.672-10.345 4.392-7.17 8.546-14.5 12.806-21.749.211-.344.688-.767 1.058-.767 1.535-.08 3.122-.027 4.974-.027zM57.15 30.562c0-.397-.027-.503 0-.582 1.058-3.493 1.058-3.493 4.762-3.493 2.302 0 4.577-.026 6.879-.026.08 0 .159-.08.397-.185-.16-.503-.318-1.032-.503-1.561-1.455-3.678-2.937-7.356-4.313-11.06-.264-.714-.238-1.64-.026-2.381.423-1.508 1.058-2.963 1.746-4.762 5.054 12.355 9.975 24.394 14.975 36.617-1.746 0-3.333.08-4.894-.052-.397-.027-.874-.662-1.059-1.112-1.323-3.122-2.646-6.244-3.783-9.419-.556-1.508-1.27-2.09-2.937-2.01-3.254.158-6.535.052-9.79.052-.45-.026-.926-.026-1.455-.026zM63.552.32c-1.429 3.784-2.752 7.303-4.127 10.822-3.995 10.213-8.017 20.399-11.96 30.638-.423 1.111-1.005 1.508-2.142 1.429-1.138-.08-2.276-.027-3.652-.027.715-1.825 1.376-3.466 2.038-5.106 4.974-12.118 9.974-24.262 14.895-36.406.424-1.006.874-1.482 1.985-1.376.9.106 1.773.026 2.963.026zM95.62 22.36A9662.838 9662.838 0 0 1 82.47.32c1.878 0 3.492-.053 5.106.027.344.026.767.397.952.714 3.096 5.318 6.192 10.663 9.208 16.034.238.397.238 1.111.026 1.534-.555 1.19-1.296 2.302-2.143 3.73zM124.326 39.849v-.397c0-3.043.318-3.334 3.36-2.805.291.053.741.53.741.794.08 1.614.053 3.254 0 4.895 0 .264-.397.74-.661.767-.926.106-1.852.106-2.752 0-.265-.026-.608-.556-.661-.873-.106-.794-.027-1.614-.027-2.381z"/>
  </g>
  <style>
    
  </style>
</svg>
