<svg xmlns="http://www.w3.org/2000/svg" viewBox="0 0 512.002 117.961">
  <defs>
    <linearGradient id="a" x1="437.745" x2="505.091" y1="0" y2="67.345" gradientTransform="scale(.74536 1.34164)" gradientUnits="userSpaceOnUse">
      <stop offset="0%" stop-color="#7D58FF"/>
      <stop offset="100%" stop-color="#FF007D"/>
    </linearGradient>
    <linearGradient id="b" x1="0" x2="133.281" y1="0" y2="133.281" gradientTransform="scale(1.12987 .88506)" gradientUnits="userSpaceOnUse">
      <stop offset="0%" stop-color="#7D58FF"/>
      <stop offset="100%" stop-color="#FF007D"/>
    </linearGradient>
  </defs>
  <path fill="#251c4b" d="M512.002 64.468v2.425c0 3.256-.663 6.364-1.968 9.236a24.6 24.6 0 0 1-5.142 7.4 24.113 24.113 0 0 1-7.49 4.992c-2.85 1.217-5.903 1.832-9.073 1.832h-5.725c-3.168 0-6.223-.615-9.073-1.832a24.072 24.072 0 0 1-7.488-4.992 24.574 24.574 0 0 1-5.144-7.402c-1.302-2.87-1.966-5.978-1.966-9.234v-5.415h14.28v5.415c0 1.26.253 2.442.746 3.51a10.164 10.164 0 0 0 2.156 3.042c.9.875 1.961 1.569 3.153 2.067a9.549 9.549 0 0 0 3.727.742h5a9.328 9.328 0 0 0 3.685-.737 10.163 10.163 0 0 0 5.296-5.114c.494-1.068.744-2.25.744-3.51v-2.425c0-2.115-.376-3.828-1.117-5.1a11.798 11.798 0 0 0-3.29-3.616c-1.54-1.124-3.311-2.087-5.267-2.875a376.395 376.395 0 0 0-6.857-2.684 88.817 88.817 0 0 1-7.205-3.114 28.64 28.64 0 0 1-6.882-4.67c-2.126-1.956-3.849-4.368-5.119-7.172-1.287-2.834-1.94-6.283-1.94-10.251v-1.523c0-3.225.613-6.306 1.818-9.153 1.192-2.816 2.857-5.322 4.95-7.445a23.275 23.275 0 0 1 7.368-5.025C477.004.62 480.045 0 483.215 0h5.114c3.178 0 6.213.62 9.015 1.843a23.394 23.394 0 0 1 7.336 5.022 23.623 23.623 0 0 1 4.948 7.448c1.207 2.844 1.818 5.925 1.818 9.15v4.222h-14.282v-4.222c0-1.301-.238-2.516-.706-3.612a9.606 9.606 0 0 0-1.976-2.973 9.37 9.37 0 0 0-2.93-2.003c-1.08-.478-2.277-.717-3.556-.717h-4.445c-1.283 0-2.477.239-3.562.717a9.743 9.743 0 0 0-2.975 2.025 9.264 9.264 0 0 0-1.98 2.949c-.471 1.098-.707 2.313-.707 3.614v1.523c0 1.904.36 3.467 1.08 4.644.813 1.342 1.92 2.511 3.288 3.477 1.55 1.098 3.34 2.069 5.331 2.887a1174.4 1174.4 0 0 0 6.897 2.812 90.512 90.512 0 0 1 7.2 3.289 29.716 29.716 0 0 1 6.85 4.806c2.118 1.993 3.834 4.44 5.098 7.277 1.283 2.87 1.931 6.33 1.931 10.29zM434.656 6.865c2.094 2.123 3.757 4.629 4.946 7.448 1.207 2.844 1.818 5.925 1.818 9.15v43.43c0 3.225-.61 6.306-1.818 9.15a23.633 23.633 0 0 1-4.946 7.445 23.336 23.336 0 0 1-7.338 5.023c-2.8 1.222-5.835 1.842-9.015 1.842h-5.667c-3.176 0-6.214-.617-9.039-1.84a23.22 23.22 0 0 1-7.367-5.025 23.594 23.594 0 0 1-4.949-7.448c-1.207-2.841-1.818-5.922-1.818-9.147v-43.43c0-3.225.611-6.306 1.818-9.153a23.64 23.64 0 0 1 4.949-7.445 23.303 23.303 0 0 1 7.367-5.025C406.422.62 409.46 0 412.635 0h5.668c3.18 0 6.213.62 9.015 1.843a23.405 23.405 0 0 1 7.338 5.022zm-7.523 60.028v-43.43c0-1.301-.24-2.516-.706-3.612a9.613 9.613 0 0 0-1.979-2.973 9.406 9.406 0 0 0-2.925-2.003c-1.081-.478-2.281-.717-3.558-.717h-5.001c-1.283 0-2.48.239-3.562.717a9.664 9.664 0 0 0-2.977 2.025 9.306 9.306 0 0 0-1.981 2.949c-.468 1.098-.706 2.313-.706 3.614v43.43c0 1.296.238 2.513.706 3.609a9.704 9.704 0 0 0 2 3.002 9.46 9.46 0 0 0 2.958 2.03c1.082.479 2.28.72 3.562.72h5c1.278 0 2.478-.241 3.557-.717a9.174 9.174 0 0 0 2.91-2.013 9.961 9.961 0 0 0 1.993-3.02c.469-1.098.71-2.315.71-3.611zM315.39 14.313c1.21 2.844 1.82 5.925 1.82 9.15v4.222h-14.282v-4.222c0-1.301-.238-2.516-.708-3.612a9.6 9.6 0 0 0-1.974-2.973 9.4 9.4 0 0 0-2.93-2.003c-1.08-.478-2.276-.717-3.559-.717h-5c-1.28 0-2.477.239-3.557.717a9.705 9.705 0 0 0-2.98 2.025 9.299 9.299 0 0 0-1.978 2.949c-.469 1.098-.71 2.313-.71 3.614v43.43c0 1.296.241 2.513.707 3.609a9.667 9.667 0 0 0 2.004 3.002 9.46 9.46 0 0 0 2.957 2.03c1.08.479 2.277.72 3.556.72h5.001c1.283 0 2.48-.241 3.557-.717a9.156 9.156 0 0 0 2.912-2.013 9.863 9.863 0 0 0 1.991-3.02c.473-1.098.711-2.315.711-3.611v-5.415h14.282v5.415c0 3.225-.61 6.306-1.82 9.15a23.59 23.59 0 0 1-4.946 7.445 23.353 23.353 0 0 1-7.335 5.023c-2.803 1.222-5.838 1.842-9.018 1.842h-5.665c-3.176 0-6.214-.617-9.036-1.84-2.8-1.21-5.279-2.9-7.373-5.025a23.665 23.665 0 0 1-4.948-7.448c-1.205-2.841-1.816-5.922-1.816-9.147v-43.43c0-3.225.611-6.306 1.816-9.153 1.192-2.816 2.855-5.322 4.948-7.445a23.314 23.314 0 0 1 7.37-5.025C282.213.62 285.25 0 288.427 0h5.665c3.18 0 6.213.62 9.018 1.843a23.423 23.423 0 0 1 7.335 5.022 23.573 23.573 0 0 1 4.946 7.448zm-74.434-6.316c2.091 2.122 3.76 4.638 4.951 7.477 1.207 2.868 1.816 5.953 1.816 9.174V65.76c0 3.229-.611 6.31-1.82 9.156a23.68 23.68 0 0 1-4.947 7.442 23.244 23.244 0 0 1-7.37 5.026c-2.825 1.225-5.863 1.842-9.036 1.842h-28.784V1.13h28.784c3.173 0 6.211.62 9.033 1.84a23.276 23.276 0 0 1 7.373 5.028zm-7.515 57.764V24.648c0-1.299-.238-2.514-.709-3.612a9.66 9.66 0 0 0-2.001-3.002 9.54 9.54 0 0 0-2.958-2.033c-1.081-.476-2.276-.717-3.558-.717h-14.17v59.783h14.17c1.282 0 2.477-.239 3.558-.714a9.83 9.83 0 0 0 2.978-2.026 9.256 9.256 0 0 0 1.978-2.951c.474-1.098.712-2.313.712-3.615z"/>
  <path fill="url(#a)" d="M338.217 90.353 376.472 0h-11.93l-38.266 90.353z" style="fill:url(#a)"/>
  <path fill="url(#b)" d="m23.737 10.012 57.315 33.193 48.305-33.193zm66.949 38.77 15.64 9.063 21.932-34.878zM20.196 19.57l28.737 45.705 22.954-15.77zm94.88 43.34 25.372 14.694V22.561zM10.14 22.561v69.368L40.598 71zM54.29 73.793l21.004 33.4 25.683-40.842-19.46-11.269zm21.002 44.168c-3.282 0-6.304-1.814-8.296-4.98v-.002L45.954 79.52l-31.78 21.84c-3.227 2.217-6.74 2.635-9.627 1.144C1.657 101.013 0 97.931 0 94.046V12.471c0-4.848 2.816-9.059 6.92-11.12C8.171.565 9.99.002 12.62 0H137.969c2.453.002 4.205.51 5.458 1.23 4.234 2.015 7.163 6.296 7.163 11.241v66.406c0 3.8-1.625 6.902-4.464 8.51-2.84 1.602-6.377 1.42-9.694-.5l-26.707-15.469-26.134 41.56c-1.991 3.169-5.014 4.983-8.298 4.983z" style="fill:url(#b)"/>
</svg>
