<svg xmlns="http://www.w3.org/2000/svg" viewBox="0 0 254.585 316.895">
  <g fill="#a80030">
    <path d="M152.146 167.425c-5.25.073.994 2.706 7.849 3.761a70.171 70.171 0 0 0 5.143-4.43c-4.27 1.046-8.615 1.07-12.992.67M180.33 160.4c3.126-4.315 5.405-9.04 6.209-13.926-.701 3.483-2.592 6.49-4.372 9.663-9.815 6.18-.923-3.67-.006-7.413-10.554 13.284-1.449 7.966-1.832 11.677M190.732 133.33c.634-9.455-1.861-6.466-2.7-2.857.979.508 1.753 6.665 2.7 2.858M132.235 4.088c2.803.503 6.055.888 5.599 1.557 3.065-.672 3.76-1.291-5.599-1.557M137.834 5.645l-1.981.41 1.844-.164.137-.246"/>
    <path d="M225.215 136.916c.313 8.492-2.483 12.612-5.005 19.905l-4.538 2.268c-3.714 7.211.36 4.579-2.3 10.315-5.797 5.154-17.594 16.13-21.369 17.132-2.755-.062 1.867-3.253 2.472-4.503-7.76 5.33-6.227 8-18.096 11.238l-.348-.771c-29.273 13.771-69.936-13.52-69.402-50.76-.312 2.364-.888 1.774-1.537 2.73-1.51-19.16 8.848-38.405 26.32-46.262 17.087-8.46 37.121-4.988 49.362 6.42-6.724-8.808-20.107-18.144-35.968-17.27-15.537.245-30.07 10.12-34.922 20.837-7.96 5.012-8.883 19.318-12.351 21.936-4.667 34.296 8.778 49.114 31.52 66.544 3.58 2.414 1.008 2.78 1.493 4.617-7.556-3.539-14.476-8.88-20.165-15.42 3.019 4.418 6.277 8.714 10.487 12.089-7.124-2.414-16.64-17.264-19.42-17.868 12.282 21.988 49.827 38.562 69.487 30.34-9.096.335-20.653.186-30.874-3.592-4.293-2.209-10.131-6.785-9.088-7.641 26.83 10.023 54.546 7.591 77.762-11.02 5.905-4.599 12.357-12.424 14.222-12.532-2.809 4.222.479 2.03-1.678 5.76 5.885-9.491-2.557-3.864 6.084-16.39l3.19 4.394c-1.185-7.878 9.784-17.444 8.67-29.904 2.517-3.81 2.809 4.1.138 12.866 3.705-9.725.976-11.288 1.929-19.312 1.028 2.697 2.378 5.564 3.07 8.41-2.413-9.398 2.479-15.826 3.688-21.288-1.192-.528-3.725 4.156-4.304-6.945.085-4.822 1.341-2.528 1.826-3.714-.946-.544-3.43-4.24-4.94-11.33 1.095-1.665 2.927 4.32 4.417 4.565-.958-5.637-2.61-9.935-2.676-14.26-4.354-9.099-1.54 1.213-5.073-3.906-4.634-14.456 3.845-3.355 4.418-9.924 7.025 10.178 11.031 25.951 12.869 32.485-1.403-7.966-3.67-15.683-6.437-23.149 2.133.897-3.437-16.39 2.773-4.94-6.633-24.406-28.388-47.21-48.401-57.91 2.448 2.24 5.54 5.055 4.43 5.496-9.953-5.926-8.203-6.388-9.629-8.892-8.108-3.299-8.64.266-14.011.006-15.282-8.106-18.228-7.244-32.292-12.322l.64 2.99c-10.125-3.373-11.796 1.279-22.74.01-.665-.52 3.507-1.881 6.94-2.38-9.788 1.29-9.33-1.93-18.908.356 2.361-1.657 4.856-2.753 7.375-4.161-7.983.485-19.057 4.646-15.639.862-13.02 5.809-36.145 13.964-49.122 26.132l-.41-2.727c-5.946 7.14-25.93 21.32-27.522 30.565l-1.59.371c-3.094 5.24-5.096 11.177-7.55 16.568-4.048 6.896-5.932 2.654-5.357 3.735-7.96 16.138-11.913 29.7-15.329 40.821 2.434 3.638.059 21.9.979 36.517-3.997 72.187 50.663 142.275 110.41 158.458 8.758 3.132 21.781 3.012 32.859 3.334-13.07-3.738-14.76-1.981-27.491-6.42-9.184-4.325-11.197-9.263-17.702-14.908l2.574 4.55c-12.757-4.515-7.419-5.588-17.798-8.875l2.75-3.591c-4.135-.313-10.952-6.97-12.816-10.654l-4.524.178c-5.435-6.706-8.33-11.54-8.12-15.282l-1.461 2.603c-1.657-2.843-19.996-25.15-10.482-19.957-1.767-1.616-4.117-2.63-6.665-7.259l1.938-2.215c-4.58-5.89-8.428-13.441-8.135-15.957 2.442 3.299 4.137 3.915 5.814 4.48-11.562-28.69-12.21-1.581-20.968-29.204l1.852-.149c-1.42-2.139-2.282-4.462-3.424-6.74l.806-8.037c-8.325-9.625-2.329-40.926-1.128-58.093.833-6.98 6.949-14.412 11.6-26.065l-2.834-.488c5.418-9.45 30.933-37.952 42.75-36.485 5.724-7.19-1.137-.026-2.256-1.838 12.574-13.012 16.528-9.193 25.013-11.533 9.152-5.432-7.854 2.118-3.515-2.072 15.82-4.041 11.212-9.187 31.85-11.238 2.177 1.239-5.052 1.914-6.866 3.521 13.181-6.449 41.712-4.982 60.244 3.58 21.503 10.049 45.663 39.754 46.615 67.704l1.084.292c-.549 11.11 1.701 23.958-2.197 35.76l2.653-5.587"/>
    <path d="m94.833 174.634-.736 3.682c3.45 4.687 6.188 9.765 10.595 13.43-3.17-6.19-5.526-8.746-9.86-17.112M102.991 174.313c-1.826-2.02-2.907-4.45-4.117-6.873 1.157 4.257 3.527 7.916 5.733 11.636l-1.616-4.763M247.353 142.936l-.772 1.934c-1.414 10.046-4.467 19.987-9.149 29.203 5.172-9.725 8.518-20.36 9.92-31.137M133.273 1.57C136.823.268 142 .855 145.767 0c-4.909.412-9.794.657-14.619 1.28l2.125.29M8.632 67.847c.818 7.574-5.698 10.514 1.444 5.52 3.827-8.623-1.497-2.381-1.444-5.52M.24 102.9c1.645-5.049 1.943-8.082 2.571-11.004C-1.735 97.708.72 98.946.24 102.9"/>
  </g>
</svg>
