<svg xmlns="http://www.w3.org/2000/svg" viewBox="0 0 40 40">
  <path fill="#d32f2f" d="M20 0a20 20 0 1 0 0 40 20 20 0 1 0 0-40z"/>
  <path fill="#fefdfd" d="m11.775 15.127-1.39-5.861-3.231 3.2L9.84 17.5a9.835 9.835 0 0 1 1.935-2.373zm3.875-2.178 1.325-7.288c-.172.064-5.105 2.005-5.105 2.005l.683 6.829a10.222 10.222 0 0 1 3.097-1.546zm3.1-.449c.447 0 .898.042 1.349.103l4.771-7.592L19 5l-2.444 7.725a10.883 10.883 0 0 1 2.194-.225zm5.557 1.573L33 7.133 26.808 5l-5.887 7.741c1.205.257 2.368.718 3.386 1.332zm-14.88 4.225-2.822-3.911L5 17.949l3.647 2.888a9.832 9.832 0 0 1 .78-2.539zm.433 9.106L7 27.805l1.489 1.845 2.301-.947c-.344-.413-.66-.843-.93-1.299zm-.984-2.312L5.409 24.2l.872 2.624 3.228-.076a9.71 9.71 0 0 1-.633-1.656zM8.5 22.5c0-.176.017-.347.026-.52l-3.257-2.324L5 22.824l3.685 1.483A9.484 9.484 0 0 1 8.5 22.5z"/>
  <path fill="#fefdfd" d="m11.97 29.923.311.24.052.038.009-.018c.199-.416.807-1.682 4.033-1.682.803 0 1.429.102 1.923.226l1.127-.269-2.031-4.266-1.103.236-.665-1.496 10.692-7.196-.035-.047-.219-.253c-1.739-1.783-4.611-2.935-7.315-2.935-5.748 0-10.25 4.393-10.25 10 .001 2.814 1.258 5.513 3.471 7.422z"/>
  <path fill="#ff8d69" d="M9 22.5c0-5.327 4.283-9.5 9.75-9.5 2.591 0 5.333 1.118 6.958 2.784l.197.23.832-.56C25.039 13.479 21.901 12 18.75 12 12.675 12 8 16.701 8 22.5c0 3.288 1.585 6.221 4.064 8.146l.04.034c.092-.195.175-.369.238-.498.048-.099.12-.248.244-.415l-.311-.24C10.187 27.725 9 25.191 9 22.5z"/>
  <path fill="#ff8d69" d="M13.25 27.375C11.875 26.25 11 24.5 11 22.5c0-4.206 3.404-8 7.75-8 .082 0 .167-.003.25 0l-1-.5c-4.542.358-8 3.98-8 8.5 0 2.018.773 3.973 2.146 5.5z"/>
  <path fill="#e74743" d="M19.501 28.615C19.059 28.4 18.022 28 16.375 28c-2.444 0-3.693.919-4.092 1.283a.956.956 0 0 0-.219.304L10 34s2.469-1 4.625-1c3.333 0 4.875 1 4.875 1l1.462-2.315z"/>
  <path fill="#ff8d69" d="M18 29.375c-.375-.25-1.026-.375-1.86-.375-2.094 0-3.115.936-3.281 1.282-.073.152-.242.479-.355.718 0 0 1.497-1 2.997-1.375.846-.212 1.624-.25 2.499-.25z"/>
  <path fill="#fefdfd" d="m15.627 22.931.665 1.496L29.39 21.62l-1.702-6.807z"/>
  <path fill="#ff8d69" d="m27.376 15.626 1.403 5.613-12.195 2.613-.329-.741 11.121-7.485M28 14l-13 8.75L16 25l14-3z"/>
  <path fill="#fefdfd" d="m17.543 24.503 5.647 11.865c.85-.354 2.772-1.307 3.281-2.843-.292-.718-1.596-3.758-3.304-5.276-.443-.393-.75-.619-1.031-.825-.423-.311-.823-.605-1.503-1.333-1.249-1.34-2.152-1.557-3.09-1.588z"/>
  <path fill="#ff8d69" d="M18.39 25.119c.533.155 1.127.508 1.879 1.313a9.593 9.593 0 0 0 1.572 1.394c.281.206.571.42.995.796 1.513 1.345 2.712 3.991 3.098 4.91-.424.992-1.604 1.751-2.5 2.183L18.39 25.119m-1.185-1.121L16.75 24l6.188 13s3.438-1.125 4.063-3.5c0 0-1.449-3.802-3.5-5.625-1.125-1-1.408-.955-2.5-2.125-1.545-1.654-2.664-1.752-3.796-1.752z"/>
</svg>
