<svg xmlns="http://www.w3.org/2000/svg" viewBox="0 0 256 255.829">
  <path fill="#1d6a80" d="M256 85.921H0v169.908h256z"/>
  <path fill="#83c2c6" d="M256 0H0v86.528h256z"/>
  <path fill="#5cceef" d="M62.55 90.14c-3.794 4.167-7.477 8.4-10.61 12.046a2.537 2.537 0 0 0-.155 3.106c3.255 6.437 8.318 11.301 12.044 16.962 2.987 6.428-.967 12.675 1.66 17.208 2.42 4.177 6.404 4.196 12.505 10.127 4.213 5.404 9.814 19.413 16.896 31.83 4.044 14.478 8.022 28.754 9.974 36.808.063.261.183.505.352.715l9.642 11.97c10.198-.817 19.84-1.792 27.222-3.414l6.57-5.802 17.75-1.792c5.054-8.899 8.704-17.238 12.868-28.08 3.516-8.272 9.363-15.549 10.62-22.376.975-5.31-1.558-8.595-2.155-14.398.343-3.135 1.206-7.002 1.451-11.778.182-3.542-.555-7.464-.939-12.2l14.08-5.12c1.237-1.067 1.493-5.974 2.173-9.079 3.152-9.532 5.477-17.63 4.995-20.873-7.339-3.798-12.97-7.595-18.603-8.192l.256-.939-.367-.34-1.937-.599H66.076l-1.274.598a42.974 42.974 0 0 1-2.253 3.612"/>
  <path fill="#fff" d="M186.453 83.882c-2.048-2.389-3.472-5.96-6.13-9.665-2.58-3.597-7.599-10.299-11.49-15.85-3.585-5.11-5.889-9.088-6.785-9.472l-10.838 1.792-1.792-4.522-1.877.512-7.168-20.566a64.092 64.092 0 0 0-13.824-3.584c-4.71 3.663-10.325 9.017-15.7 15.133-5.889 7.452-9.104 11.292-12.63 14.336-3.528 6.201-6.856 13.795-9.302 16.185-3.963.927-11.924 6.242-19.604 10.347a1.38 1.38 0 0 0-.465.404c-1.228 2.038-2.452 4.764-4.045 7.595H190.78l-2.022-1.877c-.73.076-1.393-.21-2.304-.768"/>
</svg>
