<svg xmlns="http://www.w3.org/2000/svg" xmlns:xlink="http://www.w3.org/1999/xlink" viewBox="0 0 511.082 152">
  <defs>
    <path id="a" d="m329.216 66.32 1.184-.437.413-1.243c5.527-16.595 20.5-27.937 37.532-27.937 13.853 0 26.477 7.492 33.702 19.584l.523.873.941.294c6.335 1.98 11.743 6.41 15.144 12.343l.563.984 1.064.266c9.594 2.408 16.48 11.447 16.48 21.942 0 12.705-10.503 24.384-22.154 24.384h-32.531v-23.35h11.735c2.234 0 3.199-1.608 2.159-3.59 0 0-20.686-31.074-24.356-31.074-3.67 0-24.356 31.074-24.356 31.074-1.039 1.98-.073 3.59 2.158 3.59h11.534v23.35h-9.326l-22.668.075c-12.156-2.633-18.82-12.288-18.82-23.547 0-12.438 9.828-24.172 19.079-27.581z"/>
  </defs>
  <path fill="#030000" d="M10.581 44.157c7.053-8.029 16.028-12.042 26.925-12.042 10.323 0 18.724 4.072 25.204 12.214V1.835H89.72V119.34H62.71v-9.893c-6.939 7.972-15.34 11.985-25.204 12.042-10.897 0-19.87-3.971-26.925-11.914C3.527 101.635 0 90.666 0 76.673c0-13.647 3.527-24.486 10.581-32.516zM443.728 32.43l19.441 53.937 19.183-53.937h28.73l-38.45 97.205c-3.156 8.315-7.672 14.065-13.55 17.247-5.878 3.182-13.347 4.888-22.408 5.118-4.702 0-8.574-.459-11.613-1.377l3.87-24.172c1.892 1.031 4.13 1.577 6.71 1.635 6.365 0 10.236-1.576 11.612-4.73l1.978-4.645-8.959-22.75c.103-.927.156-1.861.156-2.803 0-7.634-3.378-14.549-8.74-18.995L415.252 32.43zM124.444 65.376h35.01c-.459-3.497-2.094-6.58-4.903-9.247-2.81-2.666-7.055-4-12.733-4-5.391 0-9.49 1.304-12.3 3.914-2.808 2.61-4.5 5.72-5.074 9.333zM287.828 0h27.098v73.23c-4.907 5.627-8.46 13.137-8.46 20.9 0 7.754 2.93 14.796 8.458 19.574v3.803h-27.097V0zM27.7 74.882c0 6.223 1.764 11.24 5.291 15.054 3.527 3.813 7.987 5.72 13.376 5.72 2.925 0 5.95-.73 9.075-2.193 3.125-1.463 5.548-3.312 7.269-5.548V61.85c-1.778-2.237-4.215-4.057-7.311-5.463-3.098-1.406-6.108-2.107-9.033-2.107-5.505 0-9.992 1.878-13.462 5.634-3.47 3.757-5.205 8.746-5.205 14.97zm190.824 13.032c1.663 2.237 4.043 4.086 7.14 5.547 3.098 1.463 6.108 2.193 9.033 2.193 5.392 0 9.864-1.877 13.418-5.634 3.557-3.756 5.333-8.818 5.333-15.182 0-6.25-1.763-11.24-5.29-14.967-3.527-3.727-8.014-5.592-13.463-5.592-2.925 0-5.935.73-9.032 2.193-3.098 1.463-5.476 3.313-7.14 5.548v25.894zM96.746 74.838c0-12.56 4.23-23.126 12.688-31.698 8.458-8.574 19.254-12.86 32.386-12.86 12.79 0 23.24 4.316 31.355 12.946 8.115 8.631 12.173 20.115 12.173 34.451v6.194h-60.56c1.032 4.129 3.37 7.483 7.01 10.064 3.642 2.58 8.417 3.87 14.324 3.87 3.268 0 6.953-.674 11.053-2.022 4.1-1.347 7.326-3.083 9.676-5.205l11.872 17.806c-4.13 3.614-9.39 6.394-15.786 8.345-6.395 1.95-13.004 2.925-19.828 2.925-13.362 0-24.43-4.087-33.205-12.259-8.772-8.17-13.158-19.023-13.158-32.557zm94.68 75.097V32.43h27.097v9.893c6.596-7.971 14.997-11.985 25.204-12.042 11.067 0 20.058 3.942 26.967 11.828 6.91 7.885 10.365 18.795 10.365 32.731 0 14.109-3.47 25.105-10.41 32.99-6.938 7.886-15.913 11.828-26.924 11.828-9.98 0-18.38-4.073-25.204-12.215v42.494h-27.095z"/>
  <use width="100%" height="100%" fill="#9bc75d" xlink:href="#a"/>
</svg>
