<svg xmlns="http://www.w3.org/2000/svg" viewBox="0 0 512 143.934">
  <path d="M0 71.967c0-6.2.853-11.792 2.553-16.771 1.701-4.984 3.935-9.174 6.707-12.58a29.57 29.57 0 0 1 9.553-7.853c3.598-1.829 7.244-2.746 10.939-2.746 3.987 0 7.239.693 9.771 2.058 2.527 1.375 4.905 3.23 7.144 5.565l-.875-10.976V3.966h25.082v106.117H50.457l-1.749-7.01h-.586a31.229 31.229 0 0 1-8.673 6.402c-3.258 1.626-6.488 2.442-9.703 2.442-4.563 0-8.673-.917-12.314-2.746a26.233 26.233 0 0 1-9.34-7.927c-2.575-3.46-4.568-7.65-5.976-12.58C.704 83.731 0 78.166 0 71.966zm25.668-.304c0 6.909.95 11.792 2.842 14.639 1.897 2.841 4.547 4.264 7.948 4.264 1.946 0 3.646-.378 5.107-1.14 1.455-.763 2.868-2.213 4.227-4.345V57.025a11.424 11.424 0 0 0-4.813-2.895 18.264 18.264 0 0 0-5.102-.762c-2.628 0-4.984 1.37-7.074 4.115s-3.135 7.469-3.135 14.18zm48.016.304c0-6.2.996-11.765 2.99-16.696 1.994-4.931 4.617-9.121 7.874-12.581a33.904 33.904 0 0 1 11.157-7.927 32.055 32.055 0 0 1 12.981-2.746c5.347 0 10.012.965 14 2.9a27.758 27.758 0 0 1 9.915 7.927c2.628 3.359 4.595 7.266 5.906 11.739 1.312 4.478 1.973 9.254 1.973 14.335 0 2.34-.123 4.424-.368 6.253-.24 1.828-.464 3.198-.656 4.115H97.891c1.173 4.878 3.257 8.231 6.275 10.065 3.012 1.829 6.557 2.74 10.645 2.74 2.527 0 4.98-.378 7.362-1.14a38.382 38.382 0 0 0 7.517-3.434l8.161 15.556a43.399 43.399 0 0 1-13.199 6.631c-4.808 1.472-9.26 2.213-13.343 2.213a40.653 40.653 0 0 1-14.873-2.666 33.563 33.563 0 0 1-11.888-7.783c-3.353-3.4-6.003-7.596-7.943-12.58-1.946-4.98-2.921-10.62-2.921-16.921zm45.499-8.54c0-3.252-.704-5.997-2.111-8.231-1.413-2.239-4.014-3.358-7.805-3.358a11.195 11.195 0 0 0-7.362 2.596c-2.09 1.727-3.523 4.723-4.302 8.993zm49.769 52.456v21.036H143.87V33.85h20.417l1.749 7.01h.586a34.41 34.41 0 0 1 9.185-6.402 24.4 24.4 0 0 1 10.646-2.442c4.276 0 8.167.917 11.664 2.746a26.121 26.121 0 0 1 8.972 7.778c2.479 3.358 4.371 7.42 5.688 12.197 1.312 4.776 1.973 10.112 1.973 16.008 0 6.61-.853 12.453-2.56 17.539-1.7 5.08-3.96 9.372-6.78 12.88-2.82 3.507-6.05 6.178-9.697 8.006a24.906 24.906 0 0 1-11.302 2.746c-6.023 0-11.472-2.543-16.333-7.623l.874 11.584zm0-28.973c1.46 1.423 2.964 2.388 4.52 2.894a15.31 15.31 0 0 0 4.814.762c2.916 0 5.443-1.423 7.58-4.264 2.144-2.847 3.21-7.933 3.21-15.247 0-6.306-.853-10.827-2.548-13.572-1.706-2.745-4.254-4.115-7.66-4.115-1.941 0-3.668.405-5.172 1.215-1.514.816-3.092 2.239-4.744 4.27zm49.183-82.95h25.087v80.204c0 2.644.458 4.425 1.386 5.336.922.917 1.823 1.376 2.697 1.376h1.237c.475-.03.943-.135 1.386-.31l2.916 19.213a24.31 24.31 0 0 1-5.032 1.525c-2.38.442-4.798.647-7.218.613-4.276 0-7.847-.693-10.715-2.058a17.325 17.325 0 0 1-6.93-5.875c-1.75-2.537-2.986-5.565-3.721-9.068a57.43 57.43 0 0 1-1.093-11.663V3.966zm29.352 68.007c0-6.301.996-11.941 2.985-16.926 1.999-4.979 4.67-9.169 8.023-12.58a34.208 34.208 0 0 1 11.595-7.773 35.685 35.685 0 0 1 27.054 0c4.328 1.78 8.167 4.371 11.52 7.778 3.358 3.401 6.05 7.596 8.092 12.58 2.042 4.98 3.065 10.62 3.065 16.921s-1.023 11.941-3.065 16.926c-2.042 4.979-4.739 9.169-8.092 12.58a34.395 34.395 0 0 1-11.52 7.773 35.685 35.685 0 0 1-27.054 0 34.208 34.208 0 0 1-11.595-7.778c-3.353-3.4-6.024-7.596-8.018-12.58-1.994-4.98-2.99-10.62-2.99-16.921zm25.668 0c0 5.795.8 10.395 2.404 13.796 1.605 3.412 4.302 5.113 8.092 5.113 3.796 0 6.493-1.706 8.098-5.113 1.6-3.4 2.404-8.001 2.404-13.796s-.8-10.395-2.404-13.796c-1.605-3.412-4.302-5.113-8.098-5.113-3.785 0-6.487 1.706-8.092 5.113-1.6 3.4-2.404 8.001-2.404 13.796zm52.099 45.435c.682.203 1.439.41 2.26.613.826.203 1.631.304 2.41.304 3.4 0 5.954-.688 7.655-2.058 1.7-1.375 2.937-3.23 3.715-5.565l.88-3.359-27.71-73.486h25.082l8.753 29.272a153.174 153.174 0 0 1 2.772 10.598c.773 3.508 1.6 7.191 2.474 11.056h.586c.778-3.662 1.53-7.271 2.26-10.827.73-3.56 1.53-7.165 2.405-10.822l7.292-29.277h23.92l-24.5 75.016a115.57 115.57 0 0 1-5.907 13.418c-1.994 3.759-4.303 6.861-6.93 9.297a25.252 25.252 0 0 1-8.967 5.417c-3.359 1.167-7.266 1.753-11.739 1.753-2.532 0-4.595-.128-6.2-.383a36.89 36.89 0 0 1-4.888-1.141zM395.445 0h4.372v49.097a70.859 70.859 0 0 1 11.45-9.835c3.839-2.59 8.189-3.892 13.05-3.892 7.197 0 12.496 2.24 15.897 6.717 3.407 4.468 5.107 11.483 5.107 21.036v46.965h-4.376V63.736c0-8.135-1.312-14.18-3.94-18.146-2.623-3.966-6.951-5.95-12.975-5.95-4.377 0-8.386 1.227-12.032 3.663-3.646 2.441-7.709 6.098-12.181 10.981v55.799h-4.372V0zm59.685 73.796c0-5.896.826-11.206 2.479-15.935 1.653-4.723 3.913-8.764 6.78-12.117a29.826 29.826 0 0 1 9.916-7.703 27.682 27.682 0 0 1 12.032-2.666c4.275 0 7.996.763 11.158 2.288a55.974 55.974 0 0 1 9.84 6.248h.294l.586-6.707H512v106.73h-4.371v-28.968l.293-14.639a59.823 59.823 0 0 1-10.72 8.082c-3.94 2.335-8.338 3.508-13.2 3.508-8.85 0-15.87-3.252-21.073-9.756-5.203-6.509-7.799-15.96-7.799-28.36zm4.665 0c0 5.085.533 9.68 1.604 13.801 1.066 4.116 2.65 7.677 4.745 10.673 2.084 2.996 4.638 5.31 7.65 6.935 3.017 1.626 6.514 2.442 10.501 2.442 4.084 0 7.997-1.093 11.739-3.279 3.742-2.186 7.607-5.363 11.595-9.531V49.705c-3.988-3.657-7.655-6.253-11.009-7.778a25.265 25.265 0 0 0-10.576-2.287c-3.694 0-7.143.89-10.353 2.671a26.335 26.335 0 0 0-8.316 7.32 37.135 37.135 0 0 0-5.539 10.901 42.46 42.46 0 0 0-2.041 13.264z"/>
</svg>
