<svg xmlns="http://www.w3.org/2000/svg" viewBox="0 0 256 269.516">
  <path fill="#00ade2" d="M255.623 217.106c-.27-5.347-2.605-10.247-6.561-13.813-2.177-1.969-4.73-3.36-7.454-4.19l-.503-9.743c.201-.195.421-.346.597-.56 2.347-2.579 3.535-5.919 3.36-9.41-.366-6.944-6.096-12.373-13.047-12.373l-.666.006a13.263 13.263 0 0 0-5.31 1.46l-26.55-10.688 7.02-7.083 14.807-4.201c8.988-3.265 8.988-3.265 10.75-14.216 0 0 3.44-17.795 3.44-27.325 0-29.898-12.215-53.436-31.897-69.45l6.825-13.116C213.019 17.422 207.037 9.17 197.086 4c-9.977-5.183-20.16-5.353-22.746-.365L167.46 16.87c-12.21-3.667-25.47-5.624-39.384-5.636h-.094c-13.952.012-27.237 1.987-39.465 5.655l-6.9-13.254C79.036-1.347 68.859-1.184 58.883 4 48.925 9.17 42.95 17.423 45.54 22.405l6.844 13.165c-19.657 16.009-31.841 39.534-31.841 69.4 0 9.536 3.44 27.325 3.44 27.325 1.775 10.958 1.775 10.958 10.757 14.216l14.807 4.202 6.989 7.07-26.614 10.7a12.979 12.979 0 0 0-5.303-1.46l-.667-.006a13.044 13.044 0 0 0-13.04 12.373 12.952 12.952 0 0 0 3.347 9.41c.176.214.409.365.604.56l-.51 9.75c-2.717.85-5.265 2.214-7.441 4.196-3.97 3.554-6.303 8.46-6.58 13.8L0 223.994l13.763.692.359-6.888c.075-1.654.798-3.151 2.031-4.277a6.07 6.07 0 0 1 4.454-1.573 6.152 6.152 0 0 1 4.265 2.032c1.113 1.22 1.667 2.793 1.591 4.447l-.359 6.9 13.776.705.333-6.875c.29-5.34-1.522-10.442-5.1-14.424-1.97-2.195-4.36-3.812-6.977-4.925l.39-7.536c4.737-1.767 8.19-6.196 8.454-11.549 0-.075-.006-.132 0-.22l15.795-6.347-7.473 29.25c-.232 1.46-.528 2 0 4.277 0 0 12.16 33.238 12.864 35.188.723 1.931 1.201 2.541 3.787 3.353 2.352.66 4.749 1.176 7.12 1.73l2.736 9.278c.56 1.9.912 2.428 3.076 3.182 16.908 5.863 34.703 9.102 53.109 9.102h.094c18.405 0 36.188-3.245 53.108-9.102 2.177-.754 2.517-1.283 3.064-3.182.654-2.22 2.742-9.279 2.742-9.279 2.365-.56 4.78-1.069 7.115-1.73 2.597-.81 3.082-1.427 3.786-3.352.711-1.95 12.876-35.188 12.876-35.188.523-2.27.227-2.811-.012-4.277l-7.454-29.218 15.694 6.309c0 .088-.019.145-.019.22.283 5.353 3.743 9.769 8.48 11.549l.39 7.536c-2.63 1.113-5.014 2.755-6.983 4.925-3.573 3.982-5.378 9.083-5.107 14.424l.352 6.875 13.77-.705-.353-6.9a6.046 6.046 0 0 1 1.572-4.447 6.182 6.182 0 0 1 4.284-2.032c1.667-.057 3.227.484 4.454 1.572 1.226 1.126 1.943 2.623 2.031 4.278l.346 6.888 13.776-.692-.377-6.882z"/>
  <path fill="#fff" d="M183.982 87.973c0 6.93-5.623 12.553-12.553 12.553-6.93 0-12.54-5.623-12.54-12.553 0-6.937 5.616-12.56 12.54-12.56 6.93 0 12.553 5.623 12.553 12.56zM85.113 52.178a34.906 34.906 0 0 0-16.261 4.024c0-.094.05-.164.05-.246a7.185 7.185 0 0 0-7.189-7.19 7.18 7.18 0 0 0-7.202 7.19c0 3.348 2.37 6.052 5.49 6.842-6.191 6.33-10.02 14.978-10.02 24.518 0 19.37 15.756 35.125 35.132 35.125 19.37 0 35.132-15.756 35.132-35.125 0-19.376-15.756-35.138-35.132-35.138zm0 62.72c-15.219 0-27.601-12.376-27.601-27.588 0-15.226 12.376-27.602 27.601-27.602 15.213 0 27.601 12.376 27.601 27.602 0 15.212-12.388 27.588-27.601 27.588zm54.23 113.392h-22.15c-6.033 0-10.935-4.984-10.935-11.112V202.23c0-6.135 4.902-11.106 10.935-11.106h21.505v-11.808c0-3.203 2.596-5.774 5.793-5.774 3.19 0 5.793 2.571 5.793 5.774v37.86c.006 6.129-4.909 11.113-10.942 11.113zm-21.5-11.58h20.861v-13.993h-20.86zM97.667 87.973c0 6.93-5.623 12.553-12.54 12.553-6.95 0-12.553-5.623-12.553-12.553 0-6.937 5.61-12.56 12.553-12.56 6.911 0 12.54 5.623 12.54 12.56z"/>
</svg>
