<svg xmlns="http://www.w3.org/2000/svg" viewBox="0 0 256 165.873">
  <path fill="#e84b52" d="M26.213 165.873c9.34-39.941 20.981-79.13 44.055-113.614-3.517 3.961-7.298 7.721-10.507 11.918-16.405 21.446-27.25 45.782-36.342 70.983-2.959 8.202-5.952 16.421-8.261 24.816-1.306 4.748-1.772 5.897-1.772 5.897H0c.145-1.196.58-2.215.824-2.961 10.566-32.304 23.315-63.598 42.581-91.871 7.578-11.121 16.46-21.034 27.411-28.929 2.682-1.933 3.288-4.023 3.396-7.277-1.614-10.811 2.736-32.995 3.616-33.269 7.869 7.047 13.997 14.775 19.568 23.113C102.207 16.79 110.174.994 112.898 0c2.392 6.704 3.763 14.837 4.761 21.781.824 5.731.561 11.618 1.368 17.353.144 1.023.024 2.914.624 3.975.643 1.138 2.031 1.425 2.942 1.854 8.628 4.073 16.021 8.021 26.341 11.253 4.718 1.477 9.713 2.707 14.075 4.967 1.947 1.009 3.746 4.116 3.936 6.185.154 1.671.583 4.503.583 4.503s2.623 1.139 4.107 1.925c14.815 7.839 29.339 16.244 44.286 23.815 6.961 3.526 14.565 5.883 22.033 8.282 8.81 2.83 15.487 8.05 17.434 17.118 2.028 9.444-1.056 18.1-8.21 24.714-6.828 6.312-14.742 5.317-22.611 2.029-13.06-5.455-26.622-5.787-40.35-3.898-12.697 1.747-25.341 3.866-38.033 5.651-11.532 1.622-22.869 1.266-34.372-5.104-.89 6.574-1.144 13.124-2.003 19.47H26.213zm173.211-24.498c-2.262-.291-31.171-.774-45.436.354-17.678 1.398-32.903 1.843-45.142-13.508-.092-.116-2.11-2.517-2.605-2.548-.223-.014.902 4.272 1.996 6.068 8.366 13.735 21.983 16.232 36.18 15.332 17.333-1.097 54.904-5.478 55.007-5.698zm21.064-31.199c-7.218-2.879-14.843-5.035-21.812-8.426-9.489-4.618-18.247-9.96-27.645-14.775-2.455-1.258-5.278-2.174-5.278-2.174s-2.472 2.03-3.915 5.911c20.969 5.464 37.004 18.983 58.65 19.464zm-93.234-37.594c3.266 7.714 10.905 12.53 17.116 11.147 4.227-.942 6.044-3.837 6.246-8.425-7.035-.937-12.408-.887-19.105-1.754-.807-.104-2.959-.968-4.257-.968zM80.785 20.367c-3.117 12.283 3.956 25.514 14.983 21.178-9.023-4.548-12.123-10.929-14.983-21.178zm164.698 108.542c-5.402.755-7.343-1.619-8.33-8.175-1.824 4.26-1.397 10.42 2.074 11.906 3.318 1.421 6.212-1.723 6.256-3.731z"/>
</svg>
