<svg xmlns="http://www.w3.org/2000/svg" viewBox="0 0 511.237 128.835">
  <path fill="#45ad47" d="M79.738 23.428V.004H56.314l-2.338 2.358-11.052 21.063-3.476 2.345H0v32.167h21.687l1.931 2.336L0 105.405v23.424h23.423l2.338-2.357 11.054-21.064 3.475-2.344h39.448V70.896H58.05l-1.93-2.352 23.617-45.116"/>
  <path fill="#1f211f" d="m125.503 106.478 6.655-12.701 3.07 12.701zm.648-35.578-30.314 57.93h17.989l4.399-8.43 20.311-.002 2.01 8.431h17.987L144.67 70.9zm60.672 27.082h-7.685l18.518-11.713h7.686c4.683 0 6.461 2.343 6.461 5.903 0 3.469-1.778 5.81-6.461 5.81zm24.08-6.096c0-13.302-8.997-20.986-21.645-20.986h-27.45v57.935h17.33v-16.897h4.216l3.442-.01 8.39 16.907h17.99l-10.698-20.442c5.246-3.342 8.426-9.008 8.426-16.506zm2.564-20.986v15.357h16.374v42.578h9.866l7.45-14.251V86.257h14.85l8.03-15.357zM310.549.004h17.313v57.927H310.55zm-147.26.03-7.78 14.851h4.777c8.529 0 13.929 5.451 13.929 14.075 0 8.524-5.4 13.977-13.929 13.977h-5.398V16.072L138.14 48.045v9.877h23.301c18.777 0 29.813-11.321 29.813-28.962 0-17.058-10.316-28.202-27.965-28.927zm32.544 57.897h44.217V42.576h-26.905v-6.26h24.736V21.618h-24.736V15.36h26.905V.004h-44.217zm75-22.872L262.44.004h-17.97l13.871 57.925h18.487L307.17.004h-17.99zM454.666 0v15.357h16.374v42.578h9.867l7.45-14.251V15.357h14.85L511.238 0zm-93.768 35.583 6.644-12.69 3.07 12.69zm.674-35.579L331.249 57.93h17.959l4.414-8.44h20.292l2.015 8.44 17.964.002L380.028.004zm72.074 27.44L414.256.004H397.18v57.927h17.308V28.512l21.466 29.419h15V.004h-17.31z"/>
</svg>
