<svg xmlns="http://www.w3.org/2000/svg" viewBox="0 0 256.002 255.998">
  <g stroke-width=".571">
    <path d="M230.916 0H25.086C11.257 0 .035 11.194 0 25.029v205.94c.034 13.834 11.257 25.029 25.086 25.029h205.83c13.834 0 25.051-11.194 25.086-25.029V25.029C255.968 11.195 244.745 0 230.916 0z"/>
    <path fill="#fff" d="M33.969 80.563v94.548h26.515c21 .034 27.634-16.251 27.634-27l-.006-40.531c-.006-10.754-6.817-27.017-27.068-27.017zm75.577.017c-6.371.16-11.417 5.45-11.262 11.823v71.492c.16 6.377 5.462 11.417 11.839 11.25h35.531V158.25h-30.451v-21.95h18.612v-16.896h-18.612V97.449h30.445l.006-16.868zm46.2.006 22.018 82.743c6.051 14.074 19.565 17.57 27.108 0l21.978-82.743h-18.617l-16.897 64.983-16.978-64.983zM52.016 98.254h9.965c2.217 0 4.44.828 6.658 2.485 2.211 1.657 3.326 4.15 3.331 7.463v39.8c0 3.32-1.109 5.806-3.326 7.464-2.217 1.657-4.439 2.485-6.656 2.485l-9.972.001z"/>
  </g>
</svg>
