<svg xmlns="http://www.w3.org/2000/svg" xmlns:xlink="http://www.w3.org/1999/xlink" viewBox="0 0 255.896 324.21">
  <defs>
    <path id="a" d="M244.828 64.429 139.051 3.389a22.134 22.134 0 0 0-22.188 0L11.067 64.428A22.257 22.257 0 0 0 0 83.666v122.171a22.188 22.188 0 0 0 11.067 19.184l52.925 30.592v62.372a6.658 6.658 0 0 0 9.987 5.741l170.957-98.651a22.134 22.134 0 0 0 11.068-19.184V83.648a22.314 22.314 0 0 0-11.176-19.219z"/>
  </defs>
  <g transform="translate(0 -.407)">
    <mask id="b" fill="#fff">
      <use width="100%" height="100%" xlink:href="#a"/>
    </mask>
    <path fill="#ef6c00" d="M0 70.871v147.743l63.992 36.909v73.89l191.904-110.799V70.871l-127.912 73.872z" mask="url(#b)"/>
    <path fill="#ff9800" d="m127.984-3 127.912 73.871-127.912 73.872L0 70.87z" mask="url(#b)"/>
    <path fill="#ff9800" d="m0 70.871 127.984 73.872L255.896 70.87l-3.006-1.781-127.174 73.403L.81 70.386z" mask="url(#b)"/>
    <path fill="#ff9800" d="M.81 71.303 0 71.79l127.984 73.872v-.918z" mask="url(#b)"/>
  </g>
</svg>
