<svg xmlns="http://www.w3.org/2000/svg" viewBox="0 0 511.714 138.847">
  <path fill="#6142d2" d="M13.017 0h65.085c24.363 0 43.39 12.206 43.39 39.05v60.747c0 27.21-19.027 39.05-43.39 39.05H13.017a4.339 4.339 0 0 1-4.339-4.339V4.34A4.339 4.339 0 0 1 13.017 0z"/>
  <path fill="#461c7c" d="M8.678 0h39.05c24.364 0 43.39 12.206 43.39 39.05v60.747c0 27.21-19.026 39.05-43.39 39.05H8.679a4.339 4.339 0 0 1-4.339-4.339V4.34A4.339 4.339 0 0 1 8.678 0z"/>
  <path fill="#02e2ff" d="M4.339 0h13.017c24.363 0 43.39 12.206 43.39 39.05v60.747c0 27.21-19.027 39.05-43.39 39.05H4.339A4.339 4.339 0 0 1 0 134.508V4.34A4.339 4.339 0 0 1 4.339 0z"/>
  <path fill="#110122" d="m169.463 103.945 5.285-1.51a27.9 27.9 0 0 0 2.834-.881c.377-.17.564-.712.564-1.636V39.142c0-.924-.187-1.532-.564-1.822-.378-.295-1.28-.651-2.708-1.072l-5.41-1.51V30.46h39.51c6.292 0 12.08.88 17.365 2.642 5.285 1.762 9.858 4.296 13.715 7.615a34.99 34.99 0 0 1 9.06 12.08c2.183 4.738 3.272 10.084 3.272 16.041 0 5.033-.881 9.919-2.643 14.661a39.181 39.181 0 0 1-7.61 12.644c-3.315 3.688-7.424 6.67-12.332 8.934-4.907 2.265-10.509 3.398-16.8 3.398h-43.538zm39.008.377c7.046 0 12.605-2.976 16.674-8.934 4.07-5.957 6.101-14.64 6.101-26.047 0-3.775-.356-7.736-1.067-11.889a38.647 38.647 0 0 0-3.714-11.324 24.073 24.073 0 0 0-7.173-8.435c-3.02-2.222-6.877-3.333-11.576-3.333h-1.51c-1.258 0-2.6.148-4.027.443a12.744 12.744 0 0 0-3.523 1.193v66.942c1.093.42 2.39.755 3.905 1.007 1.506.251 3.228.377 5.155.377zm224.412 5.663c-4.109 0-7.884-.673-11.325-2.014a24.246 24.246 0 0 1-8.869-5.914c-2.473-2.603-4.404-5.788-5.788-9.563-1.388-3.775-2.117-8.096-2.204-12.96-.082-4.947.63-9.373 2.14-13.278 1.509-3.9 3.587-7.211 6.23-9.936a26.294 26.294 0 0 1 9.437-6.23 32.035 32.035 0 0 1 11.763-2.14 37.487 37.487 0 0 1 9.25 1.133 24.324 24.324 0 0 1 7.928 3.523c2.308 1.592 4.174 3.649 5.597 6.166 1.432 2.516 2.14 5.493 2.14 8.933a31.75 31.75 0 0 1-.252 3.836 43.16 43.16 0 0 1-.63 3.84l-34.225-.88v2.138c.173 3.103.65 5.997 1.45 8.683a21.391 21.391 0 0 0 3.396 6.92 15.839 15.839 0 0 0 5.346 4.53c2.1 1.09 4.573 1.636 7.424 1.636 3.693 0 6.67-.481 8.938-1.45a19.95 19.95 0 0 0 6.292-4.338l1.258 1.258a33.305 33.305 0 0 1-3.527 5.914 25.057 25.057 0 0 1-5.16 5.16 25.062 25.062 0 0 1-7.172 3.648c-2.768.925-5.914 1.385-9.437 1.385zm7.927-41.147c.392-.905.667-1.855.82-2.83.126-.884.187-1.908.187-3.084 0-3.606-.63-6.205-1.888-7.802-1.258-1.592-2.976-2.39-5.159-2.39-3.102 0-5.536 1.592-7.298 4.781-1.761 3.19-2.85 7.38-3.271 12.583zm-183.205 35.61 2.265-.755c1.597-.673 2.665-1.154 3.211-1.45.547-.29.816-.858.816-1.696V62.798c0-1.592-.378-2.686-1.128-3.271-.76-.586-1.849-1.346-3.276-2.265l-1.762-1.007V52.48l22.146-4.53h3.775v52.597c0 .838.235 1.406.695 1.701.46.29 1.531.772 3.21 1.445l2.261.755v4.027h-32.213zm36.3-48.215V52.48l22.147-4.53h3.774v12.457a26.685 26.685 0 0 1 7.424-8.873c3.107-2.386 7.173-3.584 12.206-3.584 4.113 0 7.697 1.09 10.76 3.272 3.064 2.182 5.181 5.202 6.353 9.06h.88a25.774 25.774 0 0 1 2.582-4.279 19.699 19.699 0 0 1 3.962-3.966c1.597-1.214 3.462-2.2 5.597-2.954 2.144-.755 4.6-1.133 7.363-1.133 3.107 0 5.789.564 8.054 1.701a16.098 16.098 0 0 1 5.662 4.651c1.51 1.975 2.625 4.24 3.337 6.795.711 2.56 1.067 5.268 1.067 8.118v31.332c0 .838.234 1.406.694 1.701.46.29 1.532.772 3.211 1.445l2.26.755v4.027H369.53v-4.027l2.265-.755c1.849-.673 2.981-1.154 3.398-1.45.42-.29.629-.858.629-1.696V70.725c0-1.427-.104-2.937-.312-4.53a14.132 14.132 0 0 0-1.259-4.338 8.574 8.574 0 0 0-2.646-3.211c-1.129-.838-2.578-1.259-4.34-1.259-2.43 0-4.443.651-6.04 1.953-1.592 1.302-2.85 2.747-3.774 4.339l.251 5.536v31.332c0 .838.235 1.406.695 1.701.46.29 1.531.772 3.21 1.445l2.261.755v4.027h-31.835v-4.027l2.265-.755c1.848-.673 2.98-1.154 3.397-1.45.421-.29.63-.858.63-1.696V70.725a33.64 33.64 0 0 0-.313-4.469 14.084 14.084 0 0 0-1.258-4.278 8.574 8.574 0 0 0-2.647-3.206c-1.128-.838-2.577-1.259-4.339-1.259a7.614 7.614 0 0 0-3.332.755 14.666 14.666 0 0 0-2.894 1.823 14.449 14.449 0 0 0-3.715 4.469v35.987c0 .838.191 1.363.565 1.575.381.209 1.071.521 2.082.942l3.52 1.384v4.027H293.78v-4.027l2.264-.755c1.68-.673 2.769-1.154 3.272-1.45.503-.29.755-.858.755-1.696V62.798c0-1.592-.356-2.686-1.067-3.271a36.716 36.716 0 0 0-3.211-2.265 2.833 2.833 0 0 0-1.007-.504 10.08 10.08 0 0 0-.88-.52zm171.503 48.215 2.265-.755c1.68-.673 2.768-1.154 3.272-1.45.503-.29.755-.858.755-1.696V62.798c0-1.592-.356-2.686-1.068-3.271a36.718 36.718 0 0 0-3.21-2.265l-1.888-1.007V52.48l22.146-4.53h3.775v13.338c.503-1.51 1.215-3.037 2.139-4.595a23.344 23.344 0 0 1 3.272-4.278c1.258-1.302 2.603-2.37 4.026-3.207a8.374 8.374 0 0 1 4.278-1.258c.673 0 1.406.104 2.205.313.798.212 1.51.59 2.139 1.132.629.547 1.154 1.367 1.57 2.456.421 1.089.63 2.516.63 4.278 0 1.428-.252 2.812-.755 4.152a36.627 36.627 0 0 1-1.51 3.524 37.577 37.577 0 0 1-2.387 3.523c-1.345-1.762-2.772-2.977-4.282-3.65-1.51-.672-3.272-1.006-5.285-1.006-1.341 0-2.56.17-3.645.504-1.093.334-1.892.837-2.395 1.51v34.729c0 .924.13 1.614.377 2.078.252.46 1.302.898 3.146 1.32l6.292 1.635v4.027h-35.862zm-191.314-69.38a10.76 10.76 0 0 1-7.68-3.124 10.214 10.214 0 0 1-3.272-7.69c0-3.05 1.093-5.64 3.272-7.766 2.182-2.135 4.742-3.202 7.68-3.202 3.015 0 5.575 1.067 7.67 3.198 2.1 2.135 3.147 4.72 3.147 7.767 0 3.05-1.046 5.614-3.146 7.693-2.096 2.082-4.656 3.124-7.676 3.124z"/>
</svg>
