<svg xmlns="http://www.w3.org/2000/svg" viewBox="0 0 511.061 133.067">
  <path fill="#006095" d="M98.605 133.066c36.446.178 69.715-29.658 69.715-65.955C168.32 27.422 135.051-.011 98.605 0H67.241C30.358-.011 0 27.429 0 67.111c0 36.305 30.358 66.133 67.24 65.955h31.365"/>
  <path fill="#fff" d="M81.23 102.454V30.382c14.517 5.557 24.823 19.583 24.847 36.033-.024 16.454-10.33 30.472-24.847 36.039M28.71 66.415c.032-16.44 10.321-30.458 24.83-36.031v72.055C39.03 96.87 28.741 82.861 28.71 66.415M67.387 5.5c-33.701.012-61.011 27.273-61.02 60.915.009 33.64 27.319 60.896 61.02 60.906 33.713-.01 61.028-27.266 61.033-60.906C128.415 32.773 101.1 5.512 67.387 5.5"/>
  <path fill="#1a1918" d="M189.693 28.628c0-6.293-3.29-5.88-6.444-5.947v-1.819c2.733.133 5.536.133 8.275.133 2.943 0 6.941-.133 12.133-.133 18.157 0 28.042 12.103 28.042 24.496 0 6.93-4.063 24.354-28.887 24.354-3.573 0-6.875-.139-10.168-.139-3.152 0-6.242.067-9.395.139v-1.82c4.204-.422 6.243-.562 6.444-5.32zm6.873 32.825c0 5.388 3.861 6.017 7.294 6.017 15.15 0 20.125-11.407 20.125-21.835 0-13.083-8.415-22.53-21.947-22.53-2.88 0-4.203.205-5.472.28zm37.593 6.44h1.33c1.96 0 3.365 0 3.365-2.315V46.616c0-3.076-1.05-3.504-3.648-4.895v-1.122c3.296-.985 7.226-2.308 7.503-2.518.493-.28.912-.354 1.263-.354.347 0 .492.421.492.985v26.866c0 2.315 1.542 2.315 3.508 2.315h1.189v1.82c-2.386 0-4.842-.14-7.36-.14-2.525 0-5.051.069-7.642.14zm7.502-40.94c-1.827 0-3.436-1.68-3.436-3.5 0-1.752 1.686-3.366 3.436-3.366 1.818 0 3.435 1.476 3.435 3.366 0 1.892-1.545 3.5-3.435 3.5zm14.162 20.081c0-2.588-.775-3.285-4.063-4.614v-1.33c3.011-.978 5.884-1.892 9.254-3.363.208 0 .413.143.413.699v4.551c4.003-2.865 7.441-5.25 12.145-5.25 5.955 0 8.058 4.34 8.058 9.8v18.051c0 2.315 1.54 2.315 3.506 2.315h1.262v1.82c-2.459 0-4.913-.14-7.43-.14-2.528 0-5.054.069-7.577.14v-1.82h1.26c1.968 0 3.364 0 3.364-2.315v-18.12c0-3.993-2.443-5.949-6.446-5.949-2.243 0-5.82 1.818-8.142 3.358v20.711c0 2.315 1.552 2.315 3.517 2.315h1.26v1.82c-2.454 0-4.912-.14-7.436-.14-2.521 0-5.05.069-7.571.14v-1.82h1.265c1.963 0 3.361 0 3.361-2.315zM291.73 50.4c-.145.63-.145 1.677 0 4.058.412 6.647 4.702 12.103 10.303 12.103 3.863 0 6.882-2.1 9.47-4.686l.98.98c-3.226 4.27-7.224 7.908-12.968 7.908-11.154 0-13.395-10.78-13.395-15.256 0-13.719 9.252-17.779 14.157-17.779 5.686 0 11.791 3.568 11.853 10.986 0 .426 0 .84-.062 1.265l-.637.42zm12.413-2.242c1.753 0 1.956-.912 1.956-1.75 0-3.568-2.17-6.437-6.1-6.437-4.275 0-7.22 3.142-8.06 8.187zm9.604 19.736h1.894c1.956 0 3.36 0 3.36-2.315v-19.66c0-2.169-2.591-2.591-3.645-3.15V41.72c5.119-2.172 7.925-3.994 8.565-3.994.412 0 .62.21.62.914v6.296h.15c1.746-2.729 4.697-7.21 8.972-7.21 1.754 0 3.995 1.188 3.995 3.71 0 1.89-1.329 3.573-3.291 3.573-2.183 0-2.183-1.683-4.634-1.683-1.194 0-5.118 1.61-5.118 5.812v16.44c0 2.314 1.399 2.314 3.364 2.314h3.925v1.82c-3.858-.071-6.793-.14-9.812-.14-2.874 0-5.82.069-8.345.14zm26.995-7.911c.914 4.618 3.717 8.54 8.839 8.54 4.13 0 5.672-2.52 5.672-4.967 0-8.26-15.28-5.603-15.28-16.867 0-3.922 3.159-8.96 10.868-8.96 2.241 0 5.256.631 7.988 2.032l.495 7.133h-1.613c-.7-4.405-3.153-6.924-7.643-6.924-2.808 0-5.47 1.609-5.47 4.617 0 8.194 16.269 5.67 16.269 16.656 0 4.617-3.717 9.521-12.063 9.521-2.805 0-6.1-.981-8.552-2.38l-.773-8.048zm83.442-26.455h-1.749c-1.335-8.182-7.156-11.475-15.006-11.475-8.068 0-19.78 5.386-19.78 22.182 0 14.144 10.105 24.288 20.9 24.288 6.939 0 12.694-4.758 14.098-12.11l1.609.42-1.61 10.217c-2.945 1.826-10.87 3.713-15.502 3.713-16.403 0-26.778-10.569-26.778-26.316 0-14.347 12.828-24.637 26.572-24.637 5.677 0 11.149 1.825 16.546 3.715zm2.53 34.366h1.325c1.969 0 3.373 0 3.373-2.315l5.532-38.974c0-4.552-1.052-4.692-3.716-5.46v-1.12c2.802-.91 5.749-2.169 7.22-3.013.766-.416 1.331-.772 1.538-.772.427 0 .569.425.569.985v48.354c0 2.315 1.54 2.315 3.506 2.315h1.184v1.82c-2.376 0-4.832-.14-7.356-.14-2.523 0-5.047.069-7.643.14zm45.021-2.034c0 1.265.77 1.332 1.96 1.332.843 0 1.89-.067 2.806-.067v1.473c-3.02.278-8.767 1.747-10.1 2.166l-.354-.211v-5.666c-4.2 3.428-7.431 5.877-12.415 5.877-3.783 0-7.71-2.45-7.71-8.325v-17.92c0-1.82-.278-3.571-4.201-3.919v-1.331c2.527-.068 8.128-.488 9.043-.488.777 0 .777.488.777 2.029V58.86c0 2.103 0 8.12 6.096 8.12 2.384 0 5.539-1.819 8.48-4.263l5.532-18.834c0-1.396-3.363-2.163-5.882-2.864v-1.26c6.304-.422 10.237-.98 10.934-.98.567 0 .567.488.567 1.262zm13.952-23.092c2.802-2.38 6.59-5.04 10.45-5.04 8.134 0 13.036 7.074 13.036 14.699 0 9.167-6.727 18.337-16.761 18.337-5.184 0-7.918-1.682-9.744-2.45l-2.1 1.607-1.468-.767c.62-4.129.979-8.19.979-12.458l5.532-30.09c0-4.553-1.057-4.693-3.72-5.462v-1.12c2.811-.908 5.75-2.168 7.225-3.012.77-.416 1.327-.772 1.545-.772.42 0 .559.425.559.985zm0 19.034c0 2.659 2.523 7.143 7.222 7.143 7.504 0 10.657-7.351 10.657-13.583 0-7.556-5.744-13.852-11.216-13.852-2.6 0-4.77 1.681-6.663 3.292zM183.17 110.4h.538c1.371 0 2.82-.184 2.82-2.167V88.285c0-1.986-1.449-2.175-2.82-2.175h-.538v-1.142c1.489 0 3.779.15 5.653.15 1.906 0 4.192-.15 5.985-.15v1.142h-.536c-1.368 0-2.82.189-2.82 2.175v19.949c0 1.983 1.452 2.168 2.82 2.168h.536v1.147c-1.83 0-4.125-.15-6.026-.15-1.87 0-4.123.15-5.612.15zm37.852-6.358.076-.075V89.691c0-3.124-2.177-3.58-3.32-3.58h-.84v-1.143c1.794 0 3.55.15 5.341.15 1.563 0 3.133-.15 4.694-.15v1.142h-.569c-1.607 0-3.4.306-3.4 4.836v17.33c0 1.331.039 2.662.226 3.842h-1.45l-19.646-21.86v15.692c0 3.312.643 4.452 3.584 4.452h.647v1.147c-1.639 0-3.277-.15-4.92-.15-1.712 0-3.47.15-5.187.15v-1.147h.534c2.632 0 3.431-1.786 3.431-4.83V89.534c0-2.129-1.759-3.423-3.469-3.423h-.496v-1.142c1.447 0 2.936.15 4.382.15 1.147 0 2.256-.15 3.399-.15zm11.665-17.172c-2.866 0-2.973.686-3.547 3.462h-1.143c.148-1.065.342-2.13.458-3.236a22.35 22.35 0 0 0 .228-3.233h.915c.308 1.144 1.26 1.104 2.296 1.104h19.682c1.032 0 1.983-.038 2.063-1.182l.91.153c-.148 1.029-.303 2.054-.418 3.085-.07 1.029-.07 2.058-.07 3.083l-1.147.423c-.078-1.408-.27-3.659-2.824-3.659h-6.257L226.85 107.13c0 2.937 1.338 3.272 3.165 3.272h.725v1.147c-1.487 0-4.16-.15-6.217-.15-2.29 0-4.962.15-6.452.15v-1.147h.725c2.105 0 3.167-.187 3.167-3.192V86.87zm23.082 23.53h.536c1.373 0 2.824-.184 2.824-2.167l-10.724-19.949c0-1.986-1.451-2.175-2.824-2.175h-.536v-1.142c2.322 0 6.3.15 9.498.15 3.21 0 7.172-.15 9.765-.15a64.6 64.6 0 0 0 .083 5.827l-1.15.305c-.184-2.474-.64-4.453-4.65-4.453h-5.297v9.973h4.534c2.288 0 2.788-1.29 3.014-3.351h1.142a88.633 88.633 0 0 0-.114 4.455c0 1.451.039 2.896.114 4.343l-1.142.226c-.226-2.282-.342-3.768-2.978-3.768h-4.57v8.871c0 2.476 2.203 2.476 4.646 2.476 4.581 0 6.6-.307 7.747-4.642l1.067.262c-.498 2.023-.954 4.035-1.293 6.057-2.446 0-6.834-.15-10.263-.15-3.438 0-7.979.15-10.153.15zm26.859-21.4c0-2.777-1.526-2.89-2.712-2.89h-.687v-1.145c1.221 0 3.586.153 5.915.153 2.286 0 4.12-.153 6.141-.153 4.804 0 9.083 1.294 9.083 6.706 0 3.422-2.288 5.517-5.303 6.704l6.523 9.74c1.07 1.611 1.828 2.063 3.701 2.284v1.15c-1.26 0-2.482-.15-3.739-.15-1.182 0-2.407.15-3.584.15-2.938-3.846-5.463-7.959-7.94-12.344h-2.513v8.153c0 2.936 1.37 3.041 3.122 3.041h.69v1.15c-2.18 0-4.385-.15-6.562-.15-1.834 0-3.627.15-5.534.15v-1.15h.687c1.417 0 2.712-.639 2.712-2.05zm4.885 8.833h1.863c3.82 0 5.875-1.443 5.875-5.939 0-3.384-2.173-5.556-5.572-5.556-1.146 0-1.635.117-2.166.152zm43.68 6.21.069-.076-10.724-14.277c0-3.124-2.171-3.58-3.314-3.58h-.838v-1.143c1.794 0 3.543.15 5.34.15 1.567 0 3.124-.15 4.7-.15v1.142h-.576c-1.6 0-3.395.306-3.395 4.836v17.33c0 1.331.035 2.662.224 3.842h-1.446l-8.925-21.86v15.692c0 3.312.647 4.452 3.585 4.452h.648v1.147c-1.638 0-3.28-.15-4.918-.15-1.723 0-3.477.15-5.192.15v-1.147h.53c2.636 0 3.437-1.786 3.437-4.83V89.534c0-2.129-1.755-3.423-3.47-3.423h-.497v-1.142c1.444 0 2.94.15 4.389.15 1.135 0 2.246-.15 3.394-.15zm12.093 2.06c-.388 1.292-.847 2.289-.847 2.968 0 1.145 1.604 1.33 2.86 1.33h.426v1.147a85.893 85.893 0 0 0-4.625-.148c-1.371 0-2.736.065-4.115.148v-1.147h.23c1.488 0 2.75-.875 3.313-2.477l6.112-17.472c.49-1.409 1.184-3.314 1.414-4.728 1.215-.413 2.744-1.173 3.469-1.632.117-.04.184-.08.305-.08.114 0 .184 0 .27.118.114.303.221.646.345.95l7.02 19.918c.455 1.331.91 2.739 1.403 3.886.463 1.067 1.264 1.517 2.524 1.517h.228v1.147a107.487 107.487 0 0 0-5.263-.148c-1.868 0-3.782.065-5.728.148v-1.147h.424c.872 0 2.366-.148 2.366-1.102 0-.493-.344-1.52-.77-2.742l-1.484-4.416h-8.66zm5.568-16.871h-.078l-3.55 10.778h7.13zm16.443-2.362c-2.863 0-2.977.686-3.55 3.462H360.6c.15-1.065.343-2.13.462-3.236.152-1.068.223-2.13.223-3.233h.92c.303 1.144 1.261 1.104 2.287 1.104h19.691c1.026 0 1.979-.038 2.057-1.182l.914.153c-.147 1.029-.3 2.054-.414 3.085-.085 1.029-.085 2.058-.085 3.083l-1.141.423c-.07-1.408-.263-3.659-2.82-3.659h-6.258l-12.26 20.259c0 2.937 1.339 3.272 3.166 3.272h.726v1.147c-1.488 0-4.157-.15-6.22-.15-2.284 0-4.962.15-6.448.15v-1.147h.724c2.103 0 3.17-.187 3.17-3.192V86.87zm23.265 23.53h.534c1.378 0 2.82-.184 2.82-2.167l-6.002-19.949c0-1.986-1.443-2.175-2.821-2.175h-.534v-1.142c1.492 0 3.776.15 5.643.15 1.913 0 4.201-.15 5.998-.15v1.142h-.534c-1.377 0-2.83.189-2.83 2.175v19.949c0 1.983 1.453 2.168 2.83 2.168h.534v1.147c-1.834 0-4.124-.15-6.03-.15-1.872 0-4.12.15-5.611.15zM415.418 84.4c8.134 0 14.616 5.029 14.616 13.14 0 8.759-6.296 14.58-14.42 14.58-8.095 0-14.272-5.482-14.272-13.669 0-7.919 6.141-14.051 14.076-14.051zm.576 26.045c7.404 0 8.692-6.516 8.692-12.067 0-5.568-3.005-12.306-9.342-12.306-6.678 0-8.66 5.943-8.66 11.04 0 6.817 3.128 13.333 9.31 13.333zm39.75-6.4.079-.076V89.691c0-3.124-2.181-3.58-3.326-3.58h-.827v-1.143c1.786 0 3.544.15 5.33.15 1.572 0 3.135-.15 4.702-.15v1.142h-.577c-1.599 0-3.395.306-3.395 4.836v17.33c0 1.331.035 2.662.23 3.842h-1.449l-19.653-21.86v15.692c0 3.312.65 4.452 3.584 4.452h.652v1.147c-1.642 0-3.279-.15-4.92-.15-1.717 0-3.477.15-5.195.15v-1.147h.539c2.636 0 3.43-1.786 3.43-4.83V89.534c0-2.129-1.746-3.423-3.471-3.423h-.498v-1.142c1.452 0 2.94.15 4.389.15 1.143 0 2.247-.15 3.395-.15zm12.088 2.06c-.375 1.292-.837 2.289-.837 2.968 0 1.145 1.607 1.33 2.858 1.33h.426v1.147a86.036 86.036 0 0 0-4.62-.148c-1.378 0-2.746.065-4.114.148v-1.147h.217c1.493 0 2.757-.875 3.32-2.477l6.114-17.472c.494-1.409 1.184-3.314 1.406-4.728 1.223-.413 2.747-1.173 3.478-1.632.11-.04.186-.08.302-.08.114 0 .187 0 .264.118.115.303.232.646.348.95L484.01 105c.458 1.331.914 2.739 1.415 3.886.458 1.067 1.262 1.517 2.518 1.517h.233v1.147a107.71 107.71 0 0 0-5.272-.148c-1.865 0-3.776.065-5.723.148v-1.147h.422c.871 0 2.37-.148 2.37-1.102 0-.493-.347-1.52-.772-2.742l-1.482-4.416h-8.663zm5.576-16.871h-.077l-3.553 10.778h7.141zm24.381 18.583c0 1.526 1.06 1.98 2.282 2.136 1.565.115 3.282.115 5.042-.078 1.6-.192 2.972-1.104 3.658-2.058.609-.839.951-1.903 1.184-2.742h1.106c-.419 2.17-.955 4.307-1.416 6.475-3.348 0-6.717-.148-10.066-.148-3.363 0-6.716.148-10.074.148v-1.147h.526c1.38 0 2.871-.185 2.871-2.549l-12.245-19.57c0-1.984-1.492-2.173-2.871-2.173h-.526v-1.142c2.017 0 4.004.15 6.024.15 1.952 0 3.856-.15 5.804-.15v1.142h-.96c-1.445 0-2.584.043-2.584 2.056z"/>
</svg>
