<svg xmlns="http://www.w3.org/2000/svg" viewBox="0 0 226.049 256">
  <path d="M136.714 107.409c-7.358 0-13.168 6.326-13.168 14.2 0 7.876 5.939 14.201 13.168 14.201 7.359 0 13.168-6.325 13.168-14.2 0-7.875-5.938-14.201-13.168-14.201zm-47.12 0c-7.359 0-13.168 6.326-13.168 14.2 0 7.876 5.938 14.201 13.168 14.201 7.358 0 13.167-6.325 13.167-14.2.13-7.875-5.809-14.201-13.167-14.201z" style="fill:#7289da;stroke-width:1.29098"/>
  <path d="M199.455 0H26.465C11.877 0 0 11.877 0 26.465v172.99c0 14.588 11.877 26.465 26.465 26.465h146.396l-6.842-23.624 16.525 15.233 15.62 14.33L226.05 256V26.465C225.92 11.877 214.043 0 199.455 0zm-49.831 167.181s-4.648-5.551-8.52-10.328c16.911-4.776 23.366-15.233 23.366-15.233-5.293 3.485-10.328 5.938-14.846 7.617-6.455 2.71-12.652 4.389-18.72 5.55-12.393 2.324-23.753 1.679-33.436-.128-7.358-1.42-13.684-3.357-18.977-5.552-2.97-1.161-6.196-2.582-9.424-4.389-.387-.258-.775-.387-1.162-.645-.258-.13-.387-.259-.516-.259-2.324-1.29-3.615-2.194-3.615-2.194s6.197 10.198 22.592 15.104c-3.873 4.906-8.65 10.586-8.65 10.586-28.53-.904-39.374-19.494-39.374-19.494 0-41.182 18.59-74.618 18.59-74.618 18.59-13.813 36.147-13.426 36.147-13.426l1.291 1.55c-23.237 6.583-33.823 16.782-33.823 16.782s2.84-1.55 7.616-3.615c13.814-6.067 24.787-7.617 29.305-8.133.775-.13 1.42-.258 2.195-.258a109.232 109.232 0 0 1 26.078-.258c12.264 1.42 25.432 5.034 38.858 12.264 0 0-10.199-9.682-32.145-16.266l1.807-2.066s17.687-.387 36.147 13.426c0 0 18.59 33.436 18.59 74.618 0-.129-10.844 18.461-39.374 19.365z" style="fill:#7289da;stroke-width:1.29098"/>
</svg>
