<svg xmlns="http://www.w3.org/2000/svg" xmlns:xlink="http://www.w3.org/1999/xlink" viewBox="0 0 510.721 169.636">
  <defs>
    <linearGradient id="a" x1="241.016" x2="300.366" y1="8.144" y2="69.424" gradientTransform="scale(1.01139 .98874)" gradientUnits="userSpaceOnUse">
      <stop offset="0%" stop-color="#F34F26"/>
      <stop offset="100%" stop-color="#F69E35"/>
    </linearGradient>
    <filter id="c" width="2" height="2" x="-.5" y="-.5" filterUnits="objectBoundingBox">
      <feMorphology in="SourceAlpha" radius="1" result="shadowSpreadInner1"/>
      <feGaussianBlur in="shadowSpreadInner1" result="shadowBlurInner1" stdDeviation="4"/>
      <feOffset dx="3" dy="3" in="shadowBlurInner1" result="shadowOffsetInner1"/>
      <feComposite in="shadowOffsetInner1" in2="SourceAlpha" k2="-1" k3="1" operator="arithmetic" result="shadowInnerInner1"/>
      <feColorMatrix in="shadowInnerInner1" values="0 0 0 0 0 0 0 0 0 0 0 0 0 0 0 0 0 0 0.5 0"/>
    </filter>
    <path id="b" d="M270.356.365c-23.982 0-43.44 18.735-43.44 41.857 0 24.584 18.613 42.96 43.44 42.96 24.208 0 43.322-18.62 43.322-42.477 0-23.716-18.986-42.34-43.322-42.34z"/>
  </defs>
  <g transform="translate(-.393 42.044)">
    <use width="100%" height="100%" fill="url(#a)" fill-rule="evenodd" style="fill:url(#a)" xlink:href="#b"/>
    <use width="100%" height="100%" filter="url(#c)" xlink:href="#b"/>
  </g>
  <path fill="#0b1015" d="M23.353 43.936H0v81.454h23.232c12.325 0 21.24-2.921 29.059-9.399 9.278-7.695 14.78-19.298 14.78-31.289 0-24.048-17.965-40.766-43.718-40.766zm18.573 61.176c-5.022 4.531-11.487 6.488-21.76 6.488h-4.268V57.728h4.268c10.273 0 16.49 1.834 21.76 6.592 5.494 4.886 8.772 12.452 8.772 20.265 0 7.83-3.278 15.66-8.772 20.527zm32.48 20.278h15.87V43.936h-15.87zm54.727-50.21c-9.539-3.534-12.346-5.865-12.346-10.246 0-5.134 4.998-9.039 11.85-9.039 4.762 0 8.67 1.953 12.836 6.58l8.294-10.852c-6.839-5.998-15.021-9.047-23.946-9.047-14.398 0-25.399 10.02-25.399 23.32 0 11.247 5.126 16.981 20.032 22.369 6.233 2.187 9.401 3.646 10.993 4.643 3.174 2.077 4.769 4.998 4.769 8.416 0 6.605-5.257 11.483-12.35 11.483-7.574 0-13.675-3.782-17.342-10.865l-10.246 9.904c7.313 10.733 16.109 15.512 28.213 15.512 16.488 0 28.085-11.007 28.085-26.758 0-12.949-5.361-18.816-23.443-25.42zm28.449 9.522c0 23.965 18.815 42.525 43.006 42.525 6.838 0 12.7-1.352 19.914-4.758V103.77c-6.36 6.358-11.98 8.916-19.189 8.916-15.997 0-27.364-11.606-27.364-28.102 0-15.626 11.722-27.964 26.639-27.964 7.56 0 13.31 2.686 19.914 9.158V47.084c-6.961-3.532-12.712-4.986-19.552-4.986-24.067 0-43.368 18.936-43.368 42.604zM349.233 98.65 327.49 43.936h-17.345l34.579 83.534h8.543l35.184-83.534h-17.218zm46.44 26.74h45.065l22-13.79H411.55v-22h28.071V75.806H411.55v-18.08h29.188V43.937h-45.066zm107.954-57.415c0-15.26-10.49-24.04-28.822-24.04h-23.577v81.455h15.894V92.652h2.08l21.975 32.738h19.544l-25.666-34.312c11.988-2.45 18.572-10.637 18.572-23.103zm-31.882 13.451h-4.623V56.744H472c9.916 0 15.287 4.165 15.287 12.092 0 8.177-5.371 12.59-15.541 12.59z"/>
</svg>
