<svg xmlns="http://www.w3.org/2000/svg" viewBox="0 0 512 130.162">
  <path fill="#2396ed" d="m140.598 25.715 3.892 2.818c6.77 5.46 10.662 11.625 11.508 18.67 7.277-1.409 16.584-.352 20.646 2.466l3.723 2.29-.677 1.41c-1.185 2.641-1.523 3.346-1.692 3.698-6.6 13.21-19.631 13.386-25.723 13.21-15.4 38.573-48.23 59.885-92.57 59.885-20.476 0-36.045-6.517-46.538-19.375C-.709 93.88-.709 71.862.475 64.817l.339-1.41h122.353c6.43 0 11.339-1.76 13.708-3.17-2.539-3.875-3.385-8.278-3.554-10.744-.508-7.045 1.185-14.443 4.57-19.727zm106.014 8.179c1.366 0 2.521.457 3.468 1.373.946.915 1.42 2.07 1.42 3.467v43.563c0 7.26-2.545 13.404-7.634 18.43-5.15 5.089-11.294 7.633-18.43 7.633-7.198 0-13.342-2.544-18.43-7.633-5.089-5.088-7.633-11.232-7.633-18.43 0-7.199 2.544-13.342 7.633-18.43 5.088-5.09 11.232-7.633 18.43-7.633 6.175 0 11.62 1.908 16.336 5.724V38.734c0-1.396.458-2.552 1.373-3.467.915-.916 2.071-1.373 3.467-1.373zm36.49 22.34c7.137 0 13.28 2.544 18.43 7.632 2.545 2.545 4.446 5.353 5.702 8.424 1.257 3.072 1.9 6.408 1.932 10.007 0 7.26-2.545 13.404-7.633 18.43-5.15 5.089-11.294 7.633-18.43 7.633-7.199 0-13.342-2.544-18.43-7.633-5.09-5.088-7.634-11.232-7.634-18.43 0-7.199 2.545-13.342 7.633-18.43 5.089-5.09 11.232-7.633 18.43-7.633zm57.574 0c6.547 0 12.21 2.11 16.988 6.33 1.117.992 1.675 2.218 1.675 3.676 0 1.396-.458 2.56-1.373 3.49-.915.931-2.071 1.397-3.467 1.397a4.931 4.931 0 0 1-3.165-1.117c-1.582-1.334-3.242-2.343-4.98-3.025-1.738-.683-3.63-1.024-5.678-1.024-2.265 0-4.39.426-6.376 1.28a16.714 16.714 0 0 0-5.213 3.49 16.24 16.24 0 0 0-3.514 5.19c-.853 1.985-1.28 4.11-1.28 6.376 0 2.265.427 4.39 1.28 6.376a16.24 16.24 0 0 0 3.514 5.19 16.714 16.714 0 0 0 5.213 3.49c1.986.853 4.111 1.28 6.376 1.28 2.048 0 3.94-.334 5.678-1 1.738-.668 3.382-1.669 4.933-3.003.87-.651 1.893-.993 3.072-1.024 1.396 0 2.552.458 3.467 1.373.916.916 1.373 2.071 1.373 3.468 0 1.365-.512 2.56-1.535 3.583-4.81 4.22-10.472 6.33-16.988 6.33-7.198 0-13.342-2.544-18.43-7.633-5.089-5.088-7.633-11.232-7.633-18.43 0-7.199 2.544-13.342 7.633-18.43 5.088-5.09 11.232-7.633 18.43-7.633zm29.044-22.34c1.334 0 2.474.473 3.42 1.42.947.946 1.42 2.101 1.42 3.467v36.302l27.832-18.105c.775-.496 1.644-.744 2.606-.744.683 0 1.319.124 1.908.372.59.248 1.102.597 1.536 1.047.434.45.783.97 1.047 1.56.264.589.396 1.21.396 1.86 0 1.738-.62 3.026-1.862 3.864l-19.5 12.66 20.012 22.525c.9.993 1.35 2.125 1.35 3.398 0 .651-.132 1.272-.396 1.861a5.397 5.397 0 0 1-1.047 1.56c-.434.45-.946.798-1.536 1.046a4.867 4.867 0 0 1-1.908.373c-1.303 0-2.39-.419-3.258-1.257l-21.502-24.155-5.678 3.724v16.801c0 1.334-.473 2.482-1.42 3.444-.946.962-2.086 1.443-3.42 1.443-1.366 0-2.521-.481-3.468-1.443-.946-.962-1.42-2.11-1.42-3.444V38.781c0-1.366.474-2.521 1.42-3.468.947-.946 2.102-1.42 3.468-1.42zm71.489 22.34c7.136 0 13.28 2.544 18.43 7.632 2.544 2.514 4.453 5.314 5.725 8.401 1.272 3.087 1.908 6.43 1.908 10.03 0 1.396-.473 2.552-1.42 3.467-.946.915-2.102 1.373-3.467 1.373h-36.86a15.908 15.908 0 0 0 2.327 4.677 16.344 16.344 0 0 0 3.606 3.63 16.724 16.724 0 0 0 4.562 2.351c1.66.558 3.39.838 5.189.838 2.048 0 3.925-.31 5.631-.931 1.707-.62 3.29-1.551 4.748-2.793a5.085 5.085 0 0 1 3.21-1.21c1.397 0 2.553.458 3.468 1.373.916.916 1.373 2.071 1.373 3.468 0 1.365-.465 2.528-1.396 3.49-4.81 4.22-10.487 6.33-17.034 6.33-7.199 0-13.342-2.544-18.43-7.633-5.089-5.088-7.633-11.232-7.633-18.43 0-7.199 2.544-13.342 7.633-18.43 5.088-5.09 11.231-7.633 18.43-7.633zm57.48 0c1.365 0 2.831.093 4.398.279 1.567.186 3.01.52 4.329 1 1.318.481 2.412 1.14 3.28 1.978.87.838 1.304 1.924 1.304 3.258 0 .683-.132 1.32-.396 1.909a5.397 5.397 0 0 1-1.047 1.559c-.434.45-.946.799-1.536 1.047a4.867 4.867 0 0 1-1.908.372c-.59 0-1.272-.17-2.048-.512-1.954-.775-4.08-1.163-6.376-1.163-2.265 0-4.39.426-6.376 1.28-1.986.853-3.715 2.016-5.19 3.49-1.473 1.474-2.637 3.204-3.49 5.19-.853 1.985-1.28 4.11-1.28 6.376v21.223c0 1.334-.473 2.474-1.42 3.42-.946.947-2.086 1.42-3.42 1.42-1.365 0-2.521-.473-3.467-1.42-.947-.946-1.42-2.086-1.42-3.42V61.074c0-1.334.473-2.475 1.42-3.42.946-.947 2.102-1.42 3.467-1.42 1.334 0 2.474.473 3.42 1.42.947.945 1.42 2.086 1.42 3.42v.93a26.669 26.669 0 0 1 7.586-4.281c2.73-.993 5.647-1.49 8.75-1.49zM225.436 65.96c-2.296 0-4.437.434-6.423 1.303-1.985.869-3.707 2.04-5.166 3.514-1.458 1.474-2.614 3.203-3.467 5.19-.853 1.985-1.28 4.095-1.28 6.329s.427 4.344 1.28 6.33c.853 1.985 2.009 3.715 3.467 5.189 1.459 1.473 3.18 2.645 5.166 3.514 1.986.868 4.127 1.303 6.423 1.303 2.265 0 4.39-.435 6.376-1.303a16.56 16.56 0 0 0 5.19-3.538 16.79 16.79 0 0 0 3.49-5.189c.853-1.97 1.28-4.072 1.28-6.306s-.427-4.336-1.28-6.307a16.79 16.79 0 0 0-3.49-5.189 16.56 16.56 0 0 0-5.19-3.537c-1.986-.869-4.11-1.303-6.376-1.303zm57.667 0c-2.296 0-4.437.434-6.423 1.303-1.986.869-3.708 2.04-5.166 3.514-1.458 1.474-2.614 3.203-3.468 5.19-.853 1.985-1.28 4.095-1.28 6.329s.427 4.344 1.28 6.33c.854 1.985 2.01 3.715 3.468 5.189 1.458 1.473 3.18 2.645 5.166 3.514 1.986.868 4.127 1.303 6.423 1.303 2.265 0 4.39-.435 6.376-1.303a16.56 16.56 0 0 0 5.19-3.538 16.79 16.79 0 0 0 3.49-5.189c.853-1.97 1.28-4.072 1.28-6.306s-.427-4.336-1.28-6.307a16.79 16.79 0 0 0-3.49-5.189 16.56 16.56 0 0 0-5.19-3.537c-1.986-.869-4.111-1.303-6.376-1.303zm158.106 0c-1.769 0-3.49.279-5.166.837a17 17 0 0 0-4.608 2.35 16.12 16.12 0 0 0-3.63 3.631 15.075 15.075 0 0 0-2.28 4.677h31.368a15.597 15.597 0 0 0-2.35-4.677 16.783 16.783 0 0 0-3.63-3.63 16.724 16.724 0 0 0-4.561-2.35 16.02 16.02 0 0 0-5.143-.838zM32.629 42.27v17.614H14.014V42.272zm22 0v17.614H36.014V42.272zm22 0v17.614H58.013V42.272zm22 0v17.614H80.013V42.272zm22 0v17.614h-18.616V42.272zm-22-21.135v17.613H80.013V21.136zm-22 0v17.613H58.013V21.136zm-22 0v17.613H36.014V21.136zM98.629 0v17.613H80.013V0z"/>
</svg>
