<svg xmlns="http://www.w3.org/2000/svg" viewBox="0 0 256 285.998">
  <defs>
    <linearGradient id="a" x1="208.46" x2="61.804" y1="35.674" y2="236.868" gradientTransform="scale(.9461 1.05697)" gradientUnits="userSpaceOnUse">
      <stop offset="0%" stop-color="#7236DC"/>
      <stop offset="100%" stop-color="#3F37AE"/>
    </linearGradient>
  </defs>
  <path fill="url(#a)" d="M240.481 60.13 143.525 4.16a31.049 31.049 0 0 0-31.046 0L15.523 60.13A31.06 31.06 0 0 0 0 87.018v111.955c0 11.09 5.92 21.338 15.523 26.883l96.956 55.984a31.049 31.049 0 0 0 31.046 0l96.956-55.984A31.044 31.044 0 0 0 256 198.973V87.018a31.056 31.056 0 0 0-15.519-26.888zm-9.315 135.918a9.32 9.32 0 0 1-4.658 8.07l-22.684 13.098a9.324 9.324 0 0 1-9.315 0l-22.688-13.098a9.32 9.32 0 0 1-4.654-8.07v-26.196c0-3.329 1.775-6.4 4.654-8.066l22.688-13.098a9.324 9.324 0 0 1 9.315 0l22.684 13.098a9.308 9.308 0 0 1 4.658 8.066z" style="fill:url(#a)"/>
</svg>
