<svg xmlns="http://www.w3.org/2000/svg" viewBox="0 0 256 338.096">
  <path fill="#fe8439" d="M208.493 110.597c-.294-.318-.562-.652-.872-.961L106.545 9.002C94.453-3.036 74.89-2.996 62.85 9.097s-11.997 31.655.095 43.694l33.403 33.257C40.966 100.137 0 150.328 0 210.096c0 70.693 57.308 128 128 128 70.692 0 128-57.307 128-128 0-40.188-18.535-76.032-47.507-99.5"/>
  <path fill="#fff" d="m203.633 194.277-73.048-72.165c-9.711-9.594-25.36-9.495-34.955.212-9.594 9.712-9.5 25.362.213 34.956l30.23 29.864H62.235c-13.652 0-24.718 11.066-24.718 24.717 0 13.652 11.066 24.718 24.718 24.718h64.493l-30.716 30.907c-9.622 9.682-9.572 25.332.109 34.957a24.644 24.644 0 0 0 17.424 7.184c6.35 0 12.702-2.433 17.533-7.293l70.73-71.173c.13-.13.24-.274.366-.407a24.648 24.648 0 0 0 6.952-9.503 24.718 24.718 0 0 0-5.493-26.974"/>
</svg>
