<svg xmlns="http://www.w3.org/2000/svg" viewBox="0 0 511.002 238.081">
  <path fill="#353535" d="M129.875 0h24.007v193.077h-24.007v-17.82c-14.069 13.909-33.179 22.175-53.392 22.175-26.409 0-61.267-16.137-73.27-55.743-1.154-3.665-2.197-8.625-2.4-11.09-1.377-16.629-.746-17.762 0-23.565C6.906 59.618 45.273 40.2 76.483 40.2c14.933 0 28.52 4.11 39.995 11.089l-3.363 22.079c-9.601-8.115-22.084-13.364-36.632-13.364-31.21 0-56.465 26.04-56.465 58.22 0 29.701 22.853 59.406 56.465 59.406 22.182 0 44.365-13.957 53.392-36.835V0M236.349 40.649c-31.372 0-71.797 18.793-76.062 65.409-.525 5.743-1.032 11.91 0 23.062.224 2.413 1.254 7.268 2.413 10.855 12.067 38.76 47.103 54.554 73.649 54.554 41.022 0 77.22-32.752 77.22-77.52 0-41.185-32.625-76.36-77.22-76.36zm0 134.5c-33.785 0-56.757-29.072-56.757-58.14 0-31.495 25.385-56.98 56.757-56.98 34.942 0 57.915 29.072 57.915 56.98 0 35.079-28.957 58.14-57.915 58.14z"/>
  <path fill="#8c8c8c" d="M272.922 17.025c0 2.442-1.317 2.442-2.534 3.3h-65.833c0-.858-1.316-.858-1.316-3.3 0-1.65 1.316-1.65 2.533-2.507h65.833c0 .857 1.317.857 1.317 2.507"/>
  <path fill="#353535" d="M327.298 6.376h19.267v28.946h-19.267zM346.565 183.281c1.346 23.061-28.321 54.8-28.321 54.8l-12.573-17.554c16.33-11.58 21.435-29.917 21.82-38.453l-.193-137.104h19.267v138.311M433.78 40.649c-31.37 0-71.795 18.792-76.06 65.409-.525 5.742-1.032 11.909 0 23.062.224 2.413 1.254 7.268 2.414 10.854 12.064 38.76 47.103 54.556 73.646 54.556 41.025 0 77.222-32.753 77.222-77.523 0-41.184-32.625-76.358-77.222-76.358zm0 134.498c-33.783 0-56.753-29.07-56.753-58.14 0-31.494 25.383-56.98 56.753-56.98 34.945 0 57.917 29.073 57.917 56.98 0 35.08-28.959 58.14-57.917 58.14z"/>
  <path fill="#8c8c8c" d="M467.451 17.025c0 2.442-1.315 2.442-2.532 3.3h-65.834c0-.858-1.316-.858-1.316-3.3 0-1.65 1.316-1.65 2.532-2.507h65.835c0 .857 1.315.857 1.315 2.507"/>
</svg>
