<svg xmlns="http://www.w3.org/2000/svg" viewBox="0 0 255.524 182.559">
  <defs>
    <linearGradient id="a" x1="39.455" x2="39.455" y1="240.065" y2="205.817" gradientTransform="scale(1.69952 .5884)" gradientUnits="userSpaceOnUse">
      <stop offset="0%" stop-color="#FFFA8F"/>
      <stop offset="100%" stop-color="#FB784B"/>
    </linearGradient>
    <linearGradient id="b" x1="120.919" x2="125.059" y1="94.928" y2="83.945" gradientTransform="scale(1.79646 .55665)" gradientUnits="userSpaceOnUse">
      <stop offset="0%" stop-color="#5BCB99"/>
      <stop offset="100%" stop-color="#85A8E8"/>
    </linearGradient>
    <linearGradient id="c" x1="57.457" x2="231.495" y1="168.701" y2="8.632" gradientTransform="scale(1.33139 .7511)" gradientUnits="userSpaceOnUse">
      <stop offset="0%" stop-color="#34E28B"/>
      <stop offset="100%"/>
    </linearGradient>
    <linearGradient id="d" x1="155.905" x2="179.769" y1="114.547" y2="114.547" gradientTransform="scale(.76366 1.30948)" gradientUnits="userSpaceOnUse">
      <stop offset="0%" stop-color="#C297FF"/>
      <stop offset="100%" stop-color="#AE31BB"/>
    </linearGradient>
    <linearGradient id="e" x1="38.268" x2="235.06" y1="278.381" y2="68.017" gradientTransform="scale(1.17072 .85418)" gradientUnits="userSpaceOnUse">
      <stop offset="0%"/>
      <stop offset="100%" stop-color="#D23DE2"/>
    </linearGradient>
    <linearGradient id="f" x1="183.837" x2="175.871" y1="49.987" y2="86.845" gradientTransform="scale(1.17072 .85418)" gradientUnits="userSpaceOnUse">
      <stop offset="0%"/>
      <stop offset="100%" stop-opacity="0"/>
    </linearGradient>
    <linearGradient id="g" x1="120.971" x2="181.964" y1="176.723" y2="193.768" gradientTransform="scale(1.07416 .93096)" gradientUnits="userSpaceOnUse">
      <stop offset="0%" stop-color="#2DB5F9"/>
      <stop offset="100%"/>
    </linearGradient>
    <linearGradient id="h" x1="95.751" x2="43.117" y1="-.368" y2="97.406" gradientTransform="scale(.8223 1.2161)" gradientUnits="userSpaceOnUse">
      <stop offset="0%"/>
      <stop offset="21%" stop-color="#48080A"/>
      <stop offset="42%" stop-color="#891014"/>
      <stop offset="61%" stop-color="#BC151B"/>
      <stop offset="78%" stop-color="#E01A21"/>
      <stop offset="91%" stop-color="#F71C24"/>
      <stop offset="100%" stop-color="#FF1D25"/>
    </linearGradient>
  </defs>
  <path fill="url(#a)" d="m31.035 117.482.604.954a67.833 67.833 0 0 0 10.825 12.013 52.9 52.9 0 0 0 33.605 11.974h2.317a78.717 78.717 0 0 0 24.688-6.133c-3.517.564-7.069.89-10.63.973a43.166 43.166 0 0 1-32.087-14.33 78.133 78.133 0 0 1-29.322-5.451z" style="fill:url(#a)"/>
  <path fill="#f15a24" d="M76.05 36.195a53.075 53.075 0 0 1 45.482 25.642 43.262 43.262 0 0 0-41.199-9.482c9.735 4.692 22.994 8.275 41.257 9.52 0 0-.896-17.386-23.15-26.479C67.288 22.721 62.985 25.233 55.1 12.032a35.182 35.182 0 0 0 7.048 25.896 53.153 53.153 0 0 1 13.902-1.733z"/>
  <path fill="#ed1c24" d="M98.44 35.396c-10.65-4.244-18.146-6.892-23.753-8.917a39.057 39.057 0 0 0 5.84 9.89 53.095 53.095 0 0 1 41.083 25.468 43.107 43.107 0 0 0-24.007-10.923 127.45 127.45 0 0 0 23.364 10.903h.682s-.935-17.328-23.209-26.42z"/>
  <path fill="#c1272d" d="M121.551 61.876h.117c.35-1.947 2.434-16.92-14.505-30.062C81.89 12.208 76.965 10.378 75.758 0a32.515 32.515 0 0 0-1.071 26.48c5.588 1.946 13.103 4.575 23.734 8.916 22.293 9.093 23.17 26.48 23.17 26.48z"/>
  <path fill="url(#b)" d="M198.243 44.781a39.33 39.33 0 0 1 25.818 9.618 34.851 34.851 0 0 1 22.234 9.307s-21.241-30.86-58.682-18.03a48.792 48.792 0 0 0-9.58 4.693 39.33 39.33 0 0 1 20.21-5.588z" style="fill:url(#b)"/>
  <path fill="url(#c)" d="M198.243 44.781a39.31 39.31 0 0 0-20.21 5.568l1.09-.662c-30.255 17.815-67.346 72.565-118.766 73.247a43.165 43.165 0 0 0 32.087 14.232 78.793 78.793 0 0 0 10.63-.973c33.45-13.785 65.575-46.728 80.158-62.713 13.512-14.817 28.329-19.86 40.887-19.1a39.33 39.33 0 0 0-25.876-9.599z" style="fill:url(#c)"/>
  <path fill="url(#d)" d="M120.13 150.892a24.493 24.493 0 0 0-1.071 6.815 26.026 26.026 0 0 0 1.207 7.885 19.47 19.47 0 0 1 6.425-17.23l.156-.585a23.812 23.812 0 0 1 10.436-13.434 44.253 44.253 0 0 0-4.653 1.791 24.396 24.396 0 0 0-12.5 14.758z" style="fill:url(#d)"/>
  <path fill="url(#e)" d="M255.524 92.58a49.59 49.59 0 0 0-9.287-28.952 34.87 34.87 0 0 0-22.176-9.229 39.407 39.407 0 0 1 13.629 29.887c0 13.259-4.81 28.426-20.405 36.584-22.702 11.876-57.534 6.23-80.158 13.629a23.812 23.812 0 0 0-10.416 13.415l-.156.584c6.62-5.841 19.684-9.988 45.17-6.698 18.205 2.336 32.652 2.979 45.073-.584a48.169 48.169 0 0 0 29.497-19.879 49.59 49.59 0 0 0 9.23-28.757z" style="fill:url(#e)"/>
  <path fill="url(#f)" d="M255.524 92.58a49.59 49.59 0 0 0-9.287-28.952 34.87 34.87 0 0 0-22.176-9.229 39.407 39.407 0 0 1 13.629 29.887c0 13.259-4.81 28.426-20.405 36.584-22.702 11.876-57.534 6.23-80.158 13.629a23.812 23.812 0 0 0-10.416 13.415l-.156.584c6.62-5.841 19.684-9.988 45.17-6.698 18.205 2.336 32.652 2.979 45.073-.584a48.169 48.169 0 0 0 29.497-19.879 49.59 49.59 0 0 0 9.23-28.757z" opacity=".49" style="fill:url(#f)"/>
  <path fill="url(#g)" d="M142.735 177.664c-12.43-3.809-19.54-16.85-16.005-29.361a19.47 19.47 0 0 0-6.425 17.23 24.474 24.474 0 0 0 39.349 11.04 23.812 23.812 0 0 1-16.92 1.09z" style="fill:url(#g)"/>
  <path fill="#2db5f9" d="M151.029 175.93c2.472-7.223 10.494-18.36 19.08-13.258 0 0 6.99 3.894 8.45-7.146 0 0 5.238 26.051-19.995 25.175 0 0 5.685-4.147 5.626-8.411a28.913 28.913 0 0 1-13.161 3.64z" style="mix-blend-mode:screen"/>
  <path fill="#5fd2ff" d="M161.114 159.985a9.19 9.19 0 0 1 9.443-.506c3.563 1.577 8.041-4.595 4.167-10.125 0 0 .253 5.705-4.342 5.647a10.3 10.3 0 0 0-9.268 4.984z" style="mix-blend-mode:screen"/>
  <path fill="#219058" d="M186.464 77.101c-6.036 8.236-14.914 15.128-15.946 16.822-1.032 1.694 1.753 7.146 5.841 7.535 4.089.39.954-1.577.604-3.504-.35-1.928 1.226 1.226 6.172.486 4.945-.74-1.791-2.57-1.324-5.062.467-2.492 5.549-7.223 7.574-11.974 2.025-4.75 5.49 0 3.718 3.719-.7 1.48 5.627-4.147 2.434-8.43-3.193-4.284-5.549-4.4-9.073.408zM169.233 95.11c-.895.858-3.504 2.766-3.504 2.766s2.57 3.563 5.84 3.504c0 0 .702-.33-.31-1.382a9.423 9.423 0 0 1-2.026-4.887z"/>
  <path fill="url(#h)" d="M80.333 52.355a48.675 48.675 0 0 1-18.165-14.31 53.114 53.114 0 0 0-31.152 79.437 78.133 78.133 0 0 0 29.341 5.452 43.282 43.282 0 0 1 19.976-70.58z" style="fill:url(#h)"/>
  <path fill="#f7b852" d="M80.43 36.37c2.356 3.407 9.132 9.287 17.115 14.544a43.107 43.107 0 0 1 23.987 10.923A53.095 53.095 0 0 0 80.43 36.37z"/>
  <path fill="#ff8431" d="M80.43 36.37a54.065 54.065 0 0 0-4.36-.175c-4.7.031-9.375.686-13.902 1.947a48.675 48.675 0 0 0 18.165 14.31 42.931 42.931 0 0 1 17.212-1.421C89.562 45.657 82.786 39.777 80.43 36.37z"/>
  <path fill="#fffb69" d="M109.908 48.46a38.94 38.94 0 0 0-14.271-8.527c3.426 6.522 6.386 8.528 14.271 8.528z"/>
  <path fill="#c1272d" d="M94.877 20.716a73.85 73.85 0 0 1 7.652 5.354c.604.468-1.09-4.147-3.057-5.023a8.761 8.761 0 0 0-4.595-.33zM104.32 27.394a82.728 82.728 0 0 1 7.594 5.432c.623.448-1.052-4.166-3.018-5.062a8.761 8.761 0 0 0-4.576-.37zM113.199 33.936a22.897 22.897 0 0 1 4.108 5.14c.311.448 0-3.018-1.071-4.01a6.172 6.172 0 0 0-3.037-1.13z"/>
  <path fill="#44c688" d="M72.273 118.124c-.234-.759 2.745-1.732 3.543-1.771a13.92 13.92 0 0 1 4.167 1.382 19.12 19.12 0 0 1-5.724 1.207 5.218 5.218 0 0 1-1.986-.818zM83 115.574c-.253-.584 2.045-1.616 2.687-1.713 1.182.069 2.345.325 3.447.759a15.381 15.381 0 0 1-4.478 1.44 4.186 4.186 0 0 1-1.655-.486zM91.996 112.283c-.253-.467 1.538-1.499 2.044-1.654a9.266 9.266 0 0 1 2.901.311 12.714 12.714 0 0 1-3.485 1.597c-.5.021-.997-.065-1.46-.254zM99.141 109.032c-.272-.409 1.305-1.48 1.753-1.655a8.47 8.47 0 0 1 2.667 0 11.682 11.682 0 0 1-3.135 1.694 3.174 3.174 0 0 1-1.285-.039zM105.8 105.391c-.253-.33 1.051-1.343 1.44-1.519a7.38 7.38 0 0 1 2.318 0 10.124 10.124 0 0 1-2.629 1.636c-.38.04-.765 0-1.13-.117zM61.506 118.981c-.117-.857 3.193-1.363 4.05-1.265a14.933 14.933 0 0 1 4.166 2.18 20.482 20.482 0 0 1-6.25.312 5.588 5.588 0 0 1-1.966-1.227z"/>
  <path fill="#c1272d" d="M63.55 18.574a21.164 21.164 0 0 0 7.788 4.381 22.235 22.235 0 0 1-1.09-8.859c0-.214-6.717-.117-7.788-5.627-.292-1.11-1.246 7.457 1.09 10.105z"/>
  <path fill="#f15a24" d="M40.692 145.87a6.425 6.425 0 0 1 2.629-4.537l.214-.117a16.37 16.37 0 0 0-1.675-.292c-8.002-1.188-10.046 3.582-10.455 8.937v.915a9.735 9.735 0 0 1 9.229-4.907z"/>
  <path fill="#f15a24" d="M50.447 144.078c-7.963-4.829-12.442-5.18-14.213 8.353 0 0 8.372-6.62 12.344-2.24 4.303 4.77 10.144.37 7.087-2.394a21.943 21.943 0 0 0-5.218-3.719z"/>
  <path fill="#f15a24" d="M47.156 145.694c-4.517 2.998-4.517 10.066-4.517 10.066s8.236-4.459 7.594-7.243a3.427 3.427 0 0 0-3.077-2.823zM9.735 90.068a6.425 6.425 0 0 1 5.179-.798h.234c-.247-.507-.52-1.001-.818-1.48-4.167-6.912-9.151-5.51-13.59-2.492-.273.175-.506.37-.74.565a9.735 9.735 0 0 1 9.599 4.127z"/>
  <path fill="#f15a24" d="M18.185 98.382c-2.901-11.487-5.237-15.927-16.335-7.983 0 0 9.501-2.726 10.591 10.787.507 6.386 6.66 7.67 6.581 3.543a21.942 21.942 0 0 0-.837-6.347z"/>
  <path fill="#f15a24" d="M14.135 92.23C8.86 90.982 3.68 95.811 3.68 95.811s8.119-.273 9.092 4.634c.565 2.745 1.363-8.217 1.363-8.217z"/>
  <path fill="#29b36e" d="M183.232 73.5a64.757 64.757 0 0 1 18.107-14.623 49.045 49.045 0 0 1 21.631-5.393l2.162 1.947h-1.13a44.138 44.138 0 0 0-22.273 4.4A64.251 64.251 0 0 0 183.232 73.5z"/>
  <path fill="#6fd191" d="M223.788 53.562a40.342 40.342 0 0 1 12.227 3.135 32.067 32.067 0 0 1 10.3 7.009 31.639 31.639 0 0 0-10.728-6.211 51.031 51.031 0 0 0-10.533-2.142l-2.162-1.947z"/>
  <path fill="#c83ad7" d="M127.197 146.784a32.067 32.067 0 0 1 3.641-2.22 29.63 29.63 0 0 1 2.707-1.206c.915-.39 1.947-.682 2.784-.993a53.347 53.347 0 0 1 11.507-2.181 111.874 111.874 0 0 1 23.208.915 227.238 227.238 0 0 0 22.994 2.2 77.471 77.471 0 0 0 22.916-2.258 77.686 77.686 0 0 1-22.916 2.686c-7.722-.198-15.43-.79-23.091-1.771a110.803 110.803 0 0 0-22.975-.41c-3.79.343-7.532 1.1-11.156 2.26-.896.31-1.792.603-2.648.992-.87.36-1.721.763-2.55 1.207a25 25 0 0 0-4.596 3.155l-.623.545c.197-.991.464-1.967.798-2.92z"/>
  <path fill="#c1272d" d="M81.774 55.782c-7.438 1.635-6.289 7.534-6.289 7.534s2.356-2.842 15.304-4.38a61.214 61.214 0 0 1-9.015-3.154z"/>
  <path fill="#fba9ff" d="M120.266 165.631a19.176 19.176 0 0 1-.097-4.945c.165-1.678.524-3.331 1.07-4.926a22.06 22.06 0 0 1 2.181-4.575 23.17 23.17 0 0 1 3.252-3.894l.526-.487s-.74 2.356-.818 2.94a22.529 22.529 0 0 0-1.947 2.258 20.852 20.852 0 0 0-3.894 8.762c-.3 1.604-.392 3.24-.273 4.867z"/>
  <path fill="#ff737d" d="M58.644 122.934a43.769 43.769 0 0 1-9.288-18.945 43.01 43.01 0 0 1-.954-11.098l.156-2.784.39-2.765a26.83 26.83 0 0 1 .545-2.725c.179-.91.413-1.807.7-2.687a41.627 41.627 0 0 1 4.479-10.105c.953-1.58 2-3.102 3.134-4.556l1.792-2.103c.584-.7 1.285-1.324 1.947-1.947a43.496 43.496 0 0 1 8.742-6.64 46.553 46.553 0 0 1 10.085-4.224 46.397 46.397 0 0 0-9.91 4.517 43.01 43.01 0 0 0-8.43 6.814c-.604.662-1.266 1.285-1.83 1.947l-1.792 2.162a45.229 45.229 0 0 0-2.94 4.555 40.478 40.478 0 0 0-4.07 9.97c-.254.862-.456 1.74-.603 2.628a25.603 25.603 0 0 0-.39 2.667l-.291 2.667v2.687a41.218 41.218 0 0 0 1.246 10.611 42.289 42.289 0 0 0 10.066 18.516l.779.838s-2.92.058-3.563 0z"/>
  <path fill="#fff4c0" d="M103.074 136.29a55.12 55.12 0 0 1-11.682 1.324 43.36 43.36 0 0 1-11.682-1.947 54.516 54.516 0 0 1-10.903-4.576 40.42 40.42 0 0 1-9.501-7.203l-.818-.857h3.466a39.251 39.251 0 0 0 7.788 6.425 52.92 52.92 0 0 0 10.533 4.887 42.328 42.328 0 0 0 11.234 2.434c3.861.238 7.737.075 11.565-.487z"/>
</svg>
