<svg xmlns="http://www.w3.org/2000/svg" viewBox="0 0 256 204.8">
  <defs>
    <linearGradient id="a" x1="102.323" x2="102.323" y1=".606" y2="204.606" gradientUnits="userSpaceOnUse">
      <stop offset="0%" stop-color="#FFF" stop-opacity=".6"/>
      <stop offset="60%" stop-color="#FFF" stop-opacity=".1"/>
    </linearGradient>
    <linearGradient id="b" x1="153.866" x2="153.866" y1="203.486" y2="-.184" gradientTransform="scale(.99926 1.00074)" gradientUnits="userSpaceOnUse">
      <stop offset="0%" stop-color="#FFF" stop-opacity=".6"/>
      <stop offset="60%" stop-color="#FFF" stop-opacity=".1"/>
    </linearGradient>
    <linearGradient id="c" x1="87.459" x2="127.345" y1="105.86" y2="203.117" gradientTransform="scale(.8708 1.14836)" gradientUnits="userSpaceOnUse">
      <stop offset="0%" stop-color="#FFF" stop-opacity=".5"/>
      <stop offset="75%" stop-color="#FFF" stop-opacity=".03"/>
    </linearGradient>
    <linearGradient id="d" x1="44.68" x2="127.153" y1="93.944" y2="93.944" gradientTransform="scale(1.22574 .81583)" gradientUnits="userSpaceOnUse">
      <stop offset="0%" stop-color="#FFF" stop-opacity=".9"/>
      <stop offset="60%" stop-color="#FFF" stop-opacity=".1"/>
    </linearGradient>
  </defs>
  <path fill="#369647" d="M128 3.513c44.467 12.025 75.494 50.277 76.256 96.906v3.691c-1.395 27.065-22.78 49.343-50.209 49.343-9.295 0-18.58-2.139-25.895-6.558-15.39-8.838-25.6-25.295-25.6-44.495 0-19.2 10.362-35.352 25.448-44.495-7.467-4.42-16.91-7.513-26.206-7.513-27.733 0-50.16 22.598-51.074 50.027v4.67c.762 46.933 34.004 85.387 77.585 96.359 8.228 2.133 16.762 3.352 25.447 3.352C210.286 204.8 256 158.933 256 102.552 256 45.867 210.133 0 153.6 0c-8.838 0-17.371 1.227-25.6 3.513z"/>
  <path fill="#aeea00" d="M127.848 3.352C119.619 1.22 111.086 0 102.4 0 45.867 0 0 45.867 0 102.4c0 56.533 45.867 102.248 102.248 102.248 8.838 0 17.219-1.067 25.447-3.353C84.42 190.02 51.962 151.162 51.2 104.23v-3.962c1.067-27.429 23.619-49.372 51.048-49.372 9.295 0 18.133 2.438 25.447 6.857 15.39 8.838 25.448 25.296 25.448 44.496 0 19.2-10.362 35.338-25.448 44.48 7.62 4.115 13.094 6.64 25.747 7.036 27.72.867 50.602-21.676 51.206-53.345-.762-46.933-33.22-86.095-76.8-97.067z"/>
  <path fill="url(#a)" d="M204.648 100.419c-.762-46.933-33.22-86.095-76.8-97.067C119.619 1.22 111.086 0 102.4 0 45.867 0 0 45.867 0 102.4c0 56.533 45.867 102.248 102.248 102.248 8.838 0 17.219-1.067 25.447-3.353C84.42 190.02 51.962 151.162 51.2 104.23v-3.962c1.067-27.429 23.619-49.372 51.048-49.372 9.295 0 18.133 2.438 25.447 6.857 15.39 8.838 25.448 25.296 25.448 44.496 0 19.2-10.362 35.352-25.448 44.495 7.62 4.114 16.457 6.857 25.753 6.857 27.733 0 50.133-21.943 51.047-49.371v-1.981c.153-.458.153-1.22.153-1.829z" opacity=".15" style="fill:url(#a)"/>
  <path fill="url(#b)" d="M153.6 0c-8.838 0-17.22 1.067-25.448 3.352 43.581 11.277 76.038 50.438 76.8 97.067v3.962c-1.066 27.429-23.923 49.371-51.352 49.371-9.295 0-18.133-2.438-25.448-6.857-15.39-8.838-25.6-25.295-25.6-44.495 0-19.2 10.362-35.352 25.448-44.495-7.467-4.42-16.152-6.857-25.448-6.857-27.733 0-50.133 21.942-51.047 49.371v3.962c.762 46.933 33.219 86.095 76.8 97.067 8.228 2.133 16.762 3.352 25.447 3.352C210.286 204.8 256 158.933 256 102.552 256 45.867 210.133 0 153.6 0z" opacity=".15" style="fill:url(#b)"/>
  <path fill="url(#c)" d="M127.765 201.295C84.488 190.02 52.03 151.162 51.269 104.23v-.305.762c.61 39.771 14.781 75.124 37.029 99.047 4.724.61 9.295 1.067 14.019 1.067 8.686-.305 17.524-1.371 25.448-3.505z" opacity=".4" style="fill:url(#c)"/>
  <path fill="url(#d)" d="M113.363 66.362c.761.305 2.167.868 2.93 1.02 3.352-3.505 7.526-7.103 11.64-9.54-7.466-4.42-16.674-6.91-25.97-6.91-27.733 0-50.162 22.287-50.924 49.716l-.153 1.676c-.304-.61-.152-1.22.153-1.676 7.924-26.362 35.352-41.753 62.324-34.286z" opacity=".25" style="fill:url(#d)"/>
</svg>
