<svg xmlns="http://www.w3.org/2000/svg" viewBox="0 0 512 182.857">
  <path d="M455.314 36.571c16.457 0 30.476 5.486 40.838 15.239C506.514 61.562 512 75.58 512 92.038c0 17.067-5.486 30.476-15.848 40.229-10.362 9.752-24.38 15.238-41.447 15.238-17.067 0-29.257-5.486-40.229-17.676v53.028h-19.505V39.01h19.505v15.847c9.753-11.58 22.553-18.286 40.838-18.286zM248.686 0v143.238H229.18V127.39c-10.362 12.8-24.381 18.896-40.838 18.896s-31.086-5.486-40.838-15.238c-9.753-9.753-15.848-23.772-15.848-40.229 0-17.067 5.486-30.476 15.848-40.229 10.362-9.752 24.38-15.238 40.838-15.238 17.676 0 29.867 5.486 40.838 17.677V0zm87.771 36.571v17.677h-46.933v92.038h-18.895V36.57zm34.743 1.22v108.495h-18.286V37.79zM16.457 88.38v1.829c0 24.38 20.114 39.009 38.4 39.009 18.286 0 38.4-14.629 38.4-39.01v-1.828h16.457v1.829c0 33.523-27.428 55.466-54.857 55.466C27.43 145.676 0 123.733 0 90.21V88.38h16.457zm436.42-34.133c-23.772 0-38.4 14.019-38.4 37.79 0 23.772 14.628 38.4 38.4 38.4 24.38 0 39.009-14.019 39.009-38.4 0-23.771-14.629-37.79-39.01-37.79zM190.17 52.419c-23.771 0-38.4 14.02-38.4 38.4 0 23.771 14.629 37.79 38.4 37.79 24.381 0 39.01-14.019 39.01-37.79s-14.629-38.4-39.01-38.4zm-168.228-.61c6.06 0 10.971 4.913 10.971 10.972 0 6.06-4.912 10.971-10.971 10.971-6.06 0-10.972-4.912-10.972-10.971 0-6.06 4.913-10.971 10.972-10.971zm32.914 0c6.06 0 10.972 4.913 10.972 10.972 0 6.06-4.913 10.971-10.972 10.971-6.06 0-10.971-4.912-10.971-10.971 0-6.06 4.912-10.971 10.971-10.971zm32.914 0c6.06 0 10.972 4.913 10.972 10.972 0 6.06-4.912 10.971-10.972 10.971-6.059 0-10.971-4.912-10.971-10.971 0-6.06 4.912-10.971 10.971-10.971zM54.857 0c12.19 10.971 22.553 23.771 32.305 36.571H66.438l-11.58-15.847L43.275 36.57H22.552c9.753-12.8 20.115-25.6 32.305-36.571zm312.686 1.829c3.657 1.828 5.486 5.485 5.486 9.752s-1.829 8.533-5.486 10.362c-3.657 2.438-7.314 2.438-10.972 0-3.657-1.829-5.485-6.095-5.485-10.362s1.828-7.924 5.485-9.752c3.658-2.439 7.315-2.439 10.972 0z"/>
</svg>
