<svg xmlns="http://www.w3.org/2000/svg" viewBox="0 0 256 255.079">
  <path fill="#00abe4" d="m51.092 28.487-1.268 1.153 44.393 43.817a65.494 65.494 0 0 0-9.8 35.169 60.767 60.767 0 0 0 63.303 62.611 65.725 65.725 0 0 0 35.514-9.8l44.624 44.392a125.57 125.57 0 0 1-101.009 49.237A124.993 124.993 0 0 1 .011 129.726 122.571 122.571 0 0 1 51.092 28.488zm24.791-16.95a128.798 128.798 0 0 1 54.08-11.53 124.762 124.762 0 0 1 126.03 125.338c.197 18.694-3.74 37.2-11.53 54.194l-39.782-39.78a65.84 65.84 0 0 0 9.801-34.593 60.882 60.882 0 0 0-63.418-63.303 64.687 64.687 0 0 0-34.593 9.801zm75.872 129.72a36.668 36.668 0 0 1-37.936-37.474 36.668 36.668 0 0 1 37.936-38.052 37.014 37.014 0 0 1 37.821 38.052 36.437 36.437 0 0 1-37.82 37.82z"/>
</svg>
