<svg xmlns="http://www.w3.org/2000/svg" viewBox="0 0 511.996 135.48">
  <path fill="#1e375a" d="M178.039 39.934h26.64a30.193 30.193 0 0 1 21.925 7.165 31.173 31.173 0 0 1 7.288 22.905 30.07 30.07 0 0 1-7.288 22.231 29.948 29.948 0 0 1-21.618 7.166h-26.947zm24.497 46.177a18.373 18.373 0 0 0 7.472-1.348 8.023 8.023 0 0 0 4.348-4.838 26.457 26.457 0 0 0 1.47-9.921c.137-3.47-.36-6.937-1.47-10.228a9.676 9.676 0 0 0-4.226-5.205 16.597 16.597 0 0 0-7.594-1.47h-7.104v33.01zm47.892-46.177h31.05a21.251 21.251 0 0 1 15.923 5.695 21.557 21.557 0 0 1 5.206 15.617 19.537 19.537 0 0 1-2.94 10.595 20.333 20.333 0 0 1-7.961 7.104 7.043 7.043 0 0 1 1.837 1.96 22.903 22.903 0 0 1 1.592 3.246l6.86 15.617H283.62l-6.124-14.33a6.124 6.124 0 0 0-1.776-2.39 5.39 5.39 0 0 0-2.94-.673h-4.899v17.393h-17.27V39.934zm26.457 28.784a8.023 8.023 0 0 0 6.124-1.96 7.165 7.165 0 0 0 2.082-5.695c0-5.206-2.388-7.778-7.471-7.778h-10.105v15.617h9.247zm69.694 31.662a32.03 32.03 0 0 1-22.721-7.288 31.173 31.173 0 0 1-7.655-23.088 31.418 31.418 0 0 1 7.655-23.517 31.479 31.479 0 0 1 22.721-7.35 31.663 31.663 0 0 1 22.782 7.35 31.418 31.418 0 0 1 7.594 23.517 31.173 31.173 0 0 1-7.594 23.088 32.091 32.091 0 0 1-22.904 7.288zm0-14.76a11.697 11.697 0 0 0 9.615-3.735 19.536 19.536 0 0 0 2.879-12.248c.39-4.287-.62-8.585-2.879-12.25a14.637 14.637 0 0 0-19.536 0 20.7 20.7 0 0 0-2.879 12.25 20.333 20.333 0 0 0 2.879 12.248 12.249 12.249 0 0 0 9.799 3.858zm47.096-45.686h14.82l22.415 31.54v-31.54h17.393V99.4h-15.065l-22.293-31.357v31.357h-17.393zm73.491 0h44.83v13.35h-27.804v9.738h24.497v13.474h-24.497v9.737h27.804v13.351H466.86z"/>
  <path fill="#00abe4" d="m27.137 15.13-.674.613L50.04 39.015a34.786 34.786 0 0 0-5.205 18.68 32.275 32.275 0 0 0 33.622 33.254 34.908 34.908 0 0 0 18.863-5.206l23.7 23.579a66.693 66.693 0 0 1-53.648 26.15A66.387 66.387 0 0 1 .006 68.903a65.101 65.101 0 0 1 27.13-53.772zm13.167-9.002A68.408 68.408 0 0 1 69.027.003a66.265 66.265 0 0 1 66.938 66.571 67.367 67.367 0 0 1-6.124 28.784L108.712 74.23a34.97 34.97 0 0 0 5.206-18.373 32.336 32.336 0 0 0-33.684-33.622 34.357 34.357 0 0 0-18.373 5.205zm40.298 68.898a19.475 19.475 0 0 1-20.15-19.904 19.475 19.475 0 0 1 20.15-20.21 19.659 19.659 0 0 1 20.087 20.21A19.353 19.353 0 0 1 80.602 75.21z"/>
</svg>
