<svg xmlns="http://www.w3.org/2000/svg" viewBox="0 0 256 256">
  <path fill="#009dde" d="M128.048 0C198.722.024 256 57.326 256 128v.048c-.024 70.686-57.35 127.976-128.048 127.952C57.266 255.976-.024 198.639 0 127.952.024 57.266 57.35-.024 128.048 0zm-.654 32.92c-3.515 13.302-15.367 25.118-27.778 37.529-18.562 18.61-39.666 39.666-39.666 71.292.048 37.195 30.165 67.349 67.361 67.444 37.267 0 67.492-30.19 67.527-67.444 0-31.626-21.044-52.67-39.666-71.292l-1.663-1.664c-11.793-11.807-22.768-23.148-26.115-35.865zm.915 100.994c7.743 8.254 12.66 13.943 17.754 20.154.38.463.725.962 1.034 1.496 6.235 8.99 5.391 21.104-2.031 29.132-8.74 9.465-23.49 10.047-32.956 1.307-9.465-8.741-10.047-23.491-1.307-32.956 4.965-5.867 10.962-11.639 17.506-19.133zM97.49 102.965l3.254 3.076 15.107 15.45c.57.654.57 1.616 0 2.27l-15.795 17.457-5.523 6.722a40.903 40.903 0 0 0-5.308 8.349c-.202.499-.63.867-1.152.985h-.558c-1.532-.13-3.29-2.957-3.29-2.957l-.28-.423a18.94 18.94 0 0 1-1.003-1.762l-.297-.641a40.028 40.028 0 0 1-.51-21.65l.204-.741a55.827 55.827 0 0 1 7.836-16.586 105.816 105.816 0 0 1 7.315-9.549zm30-31.234c4.025 4.573 8.562 9.157 12.837 13.432l.095.297a183.098 183.098 0 0 1 24.132 27.47 51.042 51.042 0 0 1 9.454 29.012c0 4.501-.677 8.967-2.007 13.266l-.066.177a2.731 2.731 0 0 1-2.072 1.664h-.427a3.87 3.87 0 0 1-2.186-1.758l-.716-1.075a118.727 118.727 0 0 0-12.977-16.038l-6.163-6.508-20.546-21.4c-3.468-3.338-9.667-9.324-12.28-12.578a3.167 3.167 0 0 0-.297-.51 11.188 11.188 0 0 1-1.627-3.207v-.641a10.57 10.57 0 0 1 .808-6.164 11.383 11.383 0 0 1 2.316-3.29c3.978-3.978 7.957-7.873 11.721-12.149z"/>
</svg>
