<svg xmlns="http://www.w3.org/2000/svg" viewBox="0 0 256 112.445">
  <defs>
    <linearGradient id="a" x1="81.674" x2="87.99" y1="0" y2="169.664" gradientTransform="scale(1.50886 .66275)" gradientUnits="userSpaceOnUse">
      <stop offset="0%" stop-color="#261DDB"/>
      <stop offset="100%" stop-color="#FA015D"/>
    </linearGradient>
  </defs>
  <path fill="url(#a)" fill-rule="evenodd" d="M233.517 15.662c5.713 0 9.862 4.53 9.39 10.253l-1.044 12.669c-.471 5.723-5.366 10.252-11.08 10.252h-6.417l2.717-33.174zm13.972 42.13c.442.585.855 1.189 1.238 1.811 2.493 4.053 3.696 8.87 3.277 13.944l-3.08 37.372h-14.273l3.08-37.372c.471-5.723-3.677-10.252-9.39-10.252l-6.426-.01-3.925 47.634h-14.273l8.752-106.213.262-3.18h20.699c13.487 0 23.6 11.04 22.486 24.55l-1.044 12.67c-.41 4.979-2.346 9.755-5.38 13.748a28.03 28.03 0 0 1-2.346 2.71c-.411.417-.816.791-.961.925.5.622.494.633.985 1.252.108.136.215.273.32.412zM204.154 1.527H164.889l-.262 3.18-8.49 103.033-.263 3.18H196.358l.262-3.18.654-7.938.262-3.18h-3.174l-23.054-.012 2.733-33.161h18.457l.262-3.18.667-8.09.262-3.18h-3.175l-15.262-.023 2.74-33.151h24.983l.262-3.18.655-7.938zm-51.79 51.517h-26.159l-1.178 14.297 11.887-.014-1.828 22.186c-.428 4.756-4.648 8.636-9.423 8.636-4.8 0-8.389-3.919-7.992-8.726l5.471-66.399c.396-4.807 4.631-8.726 9.43-8.726 4.8 0 8.39 3.919 7.993 8.726l-1.376 16.695 14.41-1.65 1.24-15.045C155.889 10.277 146.476 0 133.75 0c-12.725 0-23.832 10.277-24.882 23.023l-5.472 66.399c-1.05 12.746 8.363 23.023 21.088 23.023 12.727 0 23.832-10.278 24.882-23.023zM79.469 33.818l2.489 36.397H70.912s-.012.03.359-1.545zm-33.472 77.1h14.353l6.144-26.406 15.422.02 1.937 26.387H98.19L90.54 1.526H71.674zM48.28 1.527H9.015l-.263 3.18L.262 107.74 0 110.919H40.484l.262-3.18.654-7.938.262-3.18h-3.174l-23.054-.012 2.732-33.161H36.624l.262-3.18.667-8.09.262-3.18H34.64l-15.262-.023 2.74-33.151H47.1l.262-3.18.655-7.938z" style="fill:url(#a)"/>
</svg>
