<svg xmlns="http://www.w3.org/2000/svg" viewBox="0 0 510.08 96.171">
  <path fill="#2397d4" d="m.852 0 43.642 35.626L76.292 1.251A.745.745 0 0 0 75.745 0H.852zM.852 96.17l43.642-35.625L76.292 94.92a.745.745 0 0 1-.547 1.25z"/>
  <path fill="#2f4a75" d="m1.331.185 57.957 47.268c.4.327.4.938 0 1.265L1.331 95.986A.816.816 0 0 1 0 95.354V.817A.816.816 0 0 1 1.331.185zM241.052 68.25c0 16.475-13.317 27.87-29.929 27.87h-39.995a.78.78 0 0 1-.78-.78V.782c0-.422.343-.765.766-.765h37.126c16.2 0 29.243 10.983 29.243 27.046 0 8.237-3.433 14.69-9.061 19.22 7.689 4.394 12.63 11.945 12.63 21.967zm-51.758-49.874V38.07a.8.8 0 0 0 .8.8h18.146c6.246 0 10.802-5.072 10.253-11.637-.455-5.437-5.222-9.507-10.678-9.507h-17.872a.648.648 0 0 0-.649.649zm32.921 47.743c-.37-5.888-5.485-10.362-11.385-10.362h-21.536V78.41h21.83c6.741 0 11.534-5.245 11.091-12.29zm86.693 12.702h-37.274a.715.715 0 0 0-.678.49l-5.44 16.32a.715.715 0 0 1-.679.489h-18.932a.715.715 0 0 1-.675-.952L278.366.496a.715.715 0 0 1 .675-.479h22.461c.304 0 .574.192.675.478l33.271 94.673a.715.715 0 0 1-.675.952h-19.068a.715.715 0 0 1-.679-.49l-5.44-16.32a.715.715 0 0 0-.678-.489zm-5.705-18.653-12.185-36.302c-.218-.65-1.138-.65-1.356 0l-12.186 36.302a.715.715 0 0 0 .678.943h24.37c.49 0 .834-.48.679-.943zM419.668.791v94.555a.774.774 0 0 1-.774.774h-13.239a.774.774 0 0 1-.633-.33l-40.956-58.43v57.986a.774.774 0 0 1-.774.774h-17.398a.774.774 0 0 1-.773-.774V.791c0-.428.346-.774.773-.774h13.24c.252 0 .488.123.633.329l40.955 58.294V.79c0-.427.347-.773.774-.773h17.398c.427 0 .774.346.774.774zm69.235 94.937-17.747-29.753a.804.804 0 0 0-1.38 0l-17.749 29.753a.804.804 0 0 1-.69.392h-19.546a.804.804 0 0 1-.69-1.215l28.41-47.661a.804.804 0 0 0 0-.823l-26.9-45.19a.804.804 0 0 1 .69-1.214h19.546c.283 0 .546.15.69.393l16.238 27.278a.804.804 0 0 0 1.381 0L487.393.41a.804.804 0 0 1 .69-.393h19.544c.624 0 1.01.68.69 1.216l-26.898 45.05a.804.804 0 0 0 0 .825l28.546 47.796a.804.804 0 0 1-.69 1.216h-19.682a.804.804 0 0 1-.69-.392zM120.92 77.948c-2.473-.32-4.39-2.412-4.39-4.973v-15.79c0-.41.332-.742.741-.742h34.899c.41 0 .741-.332.741-.742V39.338a.742.742 0 0 0-.741-.742H117.27a.742.742 0 0 1-.741-.742V18.88c0-.41.332-.741.741-.741h38.331c.41 0 .742-.333.742-.742V.758a.742.742 0 0 0-.742-.741H98.326a.742.742 0 0 0-.742.742v77.435c0 9.92 8.04 17.96 17.96 17.96h41.486V77.948h-36.11z"/>
</svg>
