<svg xmlns="http://www.w3.org/2000/svg" viewBox="0 0 511.848 120.188">
  <defs>
    <linearGradient id="a" x1="10.826" x2="10.826" y1="235.757" y2="-33.708" gradientTransform="scale(3.35928 .29768)" gradientUnits="userSpaceOnUse">
      <stop offset="30.33%" stop-color="#473788"/>
      <stop offset="87.2%" stop-color="#2C2255"/>
    </linearGradient>
    <linearGradient id="b" x1="10.826" x2="10.826" y1="235.759" y2="-33.704" gradientTransform="scale(3.35926 .29768)" gradientUnits="userSpaceOnUse">
      <stop offset="30.33%" stop-color="#473788"/>
      <stop offset="87.2%" stop-color="#2C2255"/>
    </linearGradient>
    <linearGradient id="c" x1="20.527" x2="20.527" y1="124.342" y2="-17.773" gradientTransform="scale(1.77177 .5644)" gradientUnits="userSpaceOnUse">
      <stop offset="30.33%" stop-color="#473788"/>
      <stop offset="86.31%" stop-color="#2C2255"/>
    </linearGradient>
  </defs>
  <path fill="#2c2255" d="M116.9 75.463c-2.434 8.285-6.947 15.712-13.551 22.272-8.31 8.368-18.01 13.377-29.09 15.049a57.276 57.276 0 0 1-8.555.636c-14.709 0-27.287-5.224-37.747-15.685-6.56-6.562-11.042-13.987-13.458-22.272zm2.055-12.387a55.17 55.17 0 0 1-.556 5.523l-.143.9H13.153c-.3-1.794-.516-3.62-.64-5.486l-.054-.937zm-.702-12.387c.302 1.795.52 3.621.644 5.487l.055.936H12.459c.092-1.879.28-3.717.551-5.523l.143-.9zM116.902 44.724c-2.432-8.308-6.946-15.768-13.553-22.376-8.29-8.289-17.962-13.262-29.004-14.935a57.498 57.498 0 0 0-8.641-.646c-14.709 0-27.288 5.195-37.747 15.581-6.563 6.608-11.047 14.068-13.46 22.376"/>
  <path fill="#f7941e" d="M9.292 60.096c0-28.132 21.128-51.506 48.614-55.618-.682-.025-1.367-.052-2.056-.052C25.006 4.426 0 29.351 0 60.096c0 30.746 25.005 55.67 55.85 55.67.691 0 1.376-.027 2.06-.052-27.49-4.111-48.618-27.486-48.618-55.618zM304.579 0h11.108v14.066h-11.108z"/>
  <path fill="#2c2255" d="M362.017 25.223c8.211 0 14.883 3.26 20.012 9.781 5.132 6.521 7.697 15.094 7.697 25.717 0 10.628-2.565 19.2-7.697 25.719-5.13 6.519-11.8 9.781-20.012 9.781-4.95 0-9.207-.976-12.769-2.93-3.562-1.95-6.512-4.938-8.845-8.965v35.862h-11.168V26.853h11.168v10.264c2.335-4.023 5.285-7.014 8.845-8.966 3.562-1.949 7.819-2.928 12.769-2.928zm-179.704.004c9.098 0 16.29 2.929 21.583 8.785 5.294 5.851 7.94 13.811 7.94 23.872v5.432h-51.075c.482 7.65 2.787 13.474 6.912 17.478C171.8 84.8 177.545 86.8 184.91 86.8c4.266 0 8.402-.521 12.408-1.566 4.005-1.045 7.976-2.617 11.923-4.71V91.03a66.697 66.697 0 0 1-12.256 3.865 61.444 61.444 0 0 1-12.738 1.328c-10.786 0-19.329-3.138-25.627-9.418-6.299-6.28-9.448-14.768-9.448-25.474 0-11.068 2.988-19.854 8.964-26.353 5.976-6.499 14.038-9.75 24.178-9.75zm300.014 0c9.095 0 16.29 2.929 21.582 8.785 5.291 5.851 7.938 13.811 7.938 23.872v5.432h-51.074c.482 7.65 2.786 13.474 6.914 17.478 4.123 4.006 9.872 6.006 17.234 6.006 4.268 0 8.402-.521 12.407-1.566 4.006-1.045 7.978-2.617 11.925-4.71V91.03a66.733 66.733 0 0 1-12.258 3.865 61.413 61.413 0 0 1-12.735 1.328c-10.789 0-19.33-3.138-25.627-9.418-6.3-6.28-9.45-14.768-9.45-25.474 0-11.068 2.99-19.854 8.964-26.353 5.977-6.5 14.04-9.75 24.18-9.75zm-232.374-.004c3.423 0 6.763.355 10.023 1.058 3.26.704 6.42 1.761 9.48 3.17v10.383c-3.14-1.73-6.29-3.028-9.448-3.894a36.058 36.058 0 0 0-9.57-1.297c-7.205 0-12.8 2.283-16.782 6.85-3.985 4.568-5.977 10.98-5.977 19.228 0 8.25 1.992 14.662 5.977 19.23 3.983 4.57 9.577 6.85 16.782 6.85 3.22 0 6.408-.431 9.57-1.294 3.157-.866 6.307-2.163 9.448-3.895v10.261a45.63 45.63 0 0 1-9.63 3.26c-3.323.725-6.851 1.087-10.596 1.087-10.184 0-18.272-3.2-24.268-9.6-5.998-6.397-8.996-15.03-8.996-25.899 0-11.025 3.027-19.7 9.085-26.02 6.057-6.317 14.36-9.478 24.902-9.478zm170.404-.001c4.106 0 7.97.302 11.592.904 3.625.608 6.965 1.512 10.025 2.72v10.505a43.532 43.532 0 0 0-9.782-3.623c-3.381-.804-6.882-1.206-10.504-1.206-5.515 0-9.649.844-12.408 2.536-2.757 1.69-4.133 4.226-4.133 7.606 0 2.574.982 4.598 2.956 6.068 1.972 1.468 5.935 2.866 11.894 4.196l3.802.844c7.888 1.692 13.494 4.074 16.814 7.155 3.322 3.079 4.982 7.375 4.982 12.887 0 6.28-2.486 11.249-7.46 14.912-4.969 3.66-11.8 5.494-20.493 5.494-3.621 0-7.396-.353-11.322-1.056-3.925-.703-8.057-1.761-12.407-3.17V80.522c4.108 2.137 8.15 3.735 12.136 4.802 3.985 1.067 7.928 1.598 11.832 1.598 5.234 0 9.256-.893 12.075-2.685 2.818-1.793 4.224-4.317 4.224-7.576 0-3.02-1.015-5.333-3.045-6.945-2.034-1.61-6.492-3.16-13.376-4.65l-3.861-.904c-6.882-1.449-11.854-3.672-14.912-6.67-3.059-2.998-4.588-7.112-4.588-12.347 0-6.36 2.254-11.268 6.762-14.729 4.507-3.462 10.907-5.194 19.197-5.194zM290.611.532v93.937h-11.11V.532zm25.076 26.32V94.47H304.58V26.853zm43.61 7.67c-5.876 0-10.495 2.323-13.854 6.972-3.36 4.65-5.043 11.057-5.043 19.227 0 8.172 1.682 14.583 5.043 19.23 3.359 4.65 7.978 6.971 13.855 6.971 5.878 0 10.496-2.323 13.856-6.972 3.361-4.646 5.042-11.057 5.042-19.229 0-8.17-1.681-14.579-5.042-19.227-3.36-4.649-7.978-6.972-13.856-6.972zm-176.862.12c-6.198 0-11.159 1.751-14.881 5.254-3.724 3.5-5.867 8.431-6.43 14.789l39.604-.06c-.082-6.077-1.782-10.927-5.102-14.548-3.321-3.624-7.718-5.434-13.19-5.434zm300.012 0c-6.198 0-11.16 1.751-14.881 5.254-3.723 3.5-5.87 8.431-6.43 14.789l39.603-.06c-.083-6.077-1.78-10.927-5.103-14.548-3.322-3.624-7.72-5.434-13.19-5.434z"/>
  <path fill="url(#a)" d="M72.61 6.633A36.286 36.286 0 0 0 71.506.21H1.232A36.253 36.253 0 0 0 .13 6.633z" style="fill:url(#a)" transform="translate(29.337 50.478)"/>
  <path fill="url(#b)" d="M72.61 12.598H.13a36.187 36.187 0 0 0 1.102 6.423h70.276a36.285 36.285 0 0 0 1.101-6.423z" style="fill:url(#b)" transform="translate(29.337 50.478)"/>
  <path fill="url(#c)" d="M36.37 45.99c14.594 0 27.174-8.599 32.967-21.004H3.402C9.195 37.39 21.775 45.99 36.37 45.99z" style="fill:url(#c)" transform="translate(29.337 50.478)"/>
  <path fill="#fff" d="M118.242 69.498a52.804 52.804 0 0 1-1.41 5.965H14.498c-.582-1.944-.989-3.936-1.346-5.965zm.62-12.387c.058 1.027.096 2.059.096 3.1 0 .961-.028 1.916-.078 2.865H12.44a54.326 54.326 0 0 1-.078-2.866c0-1.04.038-2.073.097-3.1zm-2.379-12.387a52.931 52.931 0 0 1 1.434 5.965H13.153c.367-2.03.75-4.023 1.342-5.965z"/>
</svg>
