<svg xmlns="http://www.w3.org/2000/svg" viewBox="0 0 256 255.997">
  <path fill="#ff9016" d="M235.82 190.017s-22.506 17.784-31.887 25.068c-1.238.967-2.782 1.621-4.26.37-1.244-1.06-.587-3.248-.107-4.523 0 0 15.83-40.838 20.042-52.187.512-1.382 1.238-2.995 3.658-3.174 2.003-.143 3.263 1.695 3.613 2.39l11.358 22.12c1.866 3.812.842 7.274-2.418 9.933zm-61.629 40.684c-1.308 3.385-6.37 7.663-11.187 6.724-.757-.147-2.68-.642-3.43-.853-1.025-.256-129.235-33.544-131.005-34.056-4.352-1.26-7.242-3.078-8.448-6.728-1.032-3.109 1.081-7.964 2.555-10.416 4.084-6.79 61.753-102.059 62.236-102.875 2.276-3.84 4.933-5.93 9.378-6.326l127.745-10.718c3.32-.293 7.583-.529 9.685 2.582 2.865 4.25 1.963 7.632.882 10.451 0 0-56.784 147.974-58.414 152.207zM20.784 49.302c-.296-1.223-1-4.628.617-5.85 2.2-1.659 4.438-.502 6.1.511l37.295 22.892c3.926 2.39 5.021 7.71 2.634 12.45L45.54 115.39c-.663.967-2.239 4.025-4.944 3.652-2.532-.347-3.058-2.486-3.348-3.368l-16.47-66.378zM41.55 24.328l109.576-7.567c5.558-.497 10.331 1.184 15.352 3.584 12.535 6.008 46.461 22.796 46.461 22.796 1.707.805 3.79 2.162 3.186 3.917-.89 2.568-3.607 2.497-5.524 2.665L90.152 59.826c-3.35 0-6.116-.796-9.009-2.457l-41.01-25.162c-1.656-1.075-3.073-2.69-2.533-5.015.666-2.856 3.95-2.867 3.95-2.867zm189.47 104.647 22.618-59.119c6.03-15.167-.097-25.486-11.407-30.868l-67.496-33.12C167.211 2.268 161.388-.639 150.286.12L22.826 8.94c-6.405.617-13.909 4.073-17.96 9.671-4.07 5.618-5.128 14.945-3.444 21.652l26.17 104.912C24.683 149.526 9.5 175.112 4.208 183.83c-3.746 6.161-5.762 12.843-2.753 19.835 2.901 6.733 10.012 11.5 17.161 13.406 35.962 9.574 145.03 37.751 146.111 38.03 2.076.557 3.8.896 5.936.896 5.476 0 10.544-2.099 14.797-5.447l61.298-48.07c8.874-7.013 11.787-19.068 6.713-29.089L231.02 128.97z"/>
</svg>
