<svg xmlns="http://www.w3.org/2000/svg" viewBox="0 0 256 256">
  <path fill="#333" d="M128 0C57.307 0 0 57.307 0 128s57.307 128 128 128 128-57.307 128-128S198.693 0 128 0zm0 10.66c53.742 0 99.054 36.115 112.942 85.395-11.932 24.686-28.983 46.903-49.692 64.878-9.965 8.621-20.845 16.31-32.86 21.723-12.013 5.413-25.233 8.485-38.4 7.735-9.873-.576-19.656-3.328-28.287-8.137 22.948-12.435 43.639-29.001 60.58-48.841 11.155-13.029 20.846-27.84 24.595-44.554 1.901-8.356 2.194-17.097.457-25.49-1.737-8.393-5.614-16.366-11.484-22.62-5.732-6.088-13.257-10.422-21.32-12.635-8.046-2.221-16.64-2.395-24.87-.896-16.456 3.017-31.176 12.58-42.943 24.457-20.782 20.938-33.628 50.487-31.269 79.89 1.189 14.702 6.108 29.148 14.537 41.235a77.314 77.314 0 0 0 6.18 7.707 191.066 191.066 0 0 1-37.942 9.116c-11.09-17.92-17.5-39.04-17.5-61.65 0-64.823 52.517-117.34 117.322-117.34zm.731 23.68c8.266 0 16.567 2.506 23.15 7.498 5.925 4.48 10.332 10.825 12.8 17.828 2.496 7.004 3.136 14.601 2.286 21.989-1.692 14.766-9.143 28.306-18.14 40.137-15.936 20.937-37.12 37.696-60.672 49.435a198.005 198.005 0 0 1-7.314 3.438c-5.12-4.48-9.508-9.783-12.873-15.726-6.994-12.397-9.298-27.108-7.954-41.27 1.371-14.172 6.217-27.813 12.754-40.458 7.57-14.656 17.893-28.525 32.338-36.507 7.223-3.995 15.388-6.4 23.635-6.4zm115.548 77.916a118.646 118.646 0 0 1 1.051 15.707c0 64.805-52.498 117.34-117.303 117.34-36.388 0-68.937-16.567-90.422-42.578 13.275-3.018 26.258-7.36 38.71-12.874 5.459 4.133 11.466 7.534 17.866 9.984 18.404 7.059 39.314 6.035 57.947-.411 18.624-6.455 35.154-18.011 49.554-31.497a213.212 213.212 0 0 0 42.643-55.68z"/>
</svg>
