<svg xmlns="http://www.w3.org/2000/svg" viewBox="0 0 256 256">
  <path fill-rule="evenodd" d="M256 128c0 70.692-57.31 128-128 128C57.306 256 0 198.692 0 128 0 57.308 57.306 0 128 0c70.69 0 128 57.307 128 128zm-128 76.8c-34.992 0-65.544-23.685-74.29-57.603a7.318 7.318 0 0 1 5.254-8.91 7.31 7.31 0 0 1 8.909 5.26c7.083 27.451 31.805 46.628 60.127 46.628 28.317 0 53.044-19.177 60.123-46.629 1.008-3.912 4.987-6.275 8.909-5.259a7.311 7.311 0 0 1 5.253 8.91C193.54 181.115 162.993 204.8 128 204.8z"/>
</svg>
