<svg xmlns="http://www.w3.org/2000/svg" viewBox="0 0 256 256">
  <g fill-rule="evenodd">
    <path fill="#0e0e11" d="M128 0c70.692 0 128 57.308 128 128 0 70.693-57.308 128-128 128C57.308 256 0 198.693 0 128 0 57.308 57.308 0 128 0"/>
    <path fill="#fff" d="m90.021 118.791-39.262 16.92c-.06-.677-.094-1.362-.094-2.054 0-12.42 10.067-22.487 22.486-22.487 6.72 0 12.75 2.949 16.87 7.621zm-16.87-24.438c18.527 0 34.057 12.82 38.21 30.072l-15.84 6.926-.004-.033-16.207 7.12-38.877 17a39.116 39.116 0 0 1-6.585-21.781c0-21.707 17.596-39.304 39.303-39.304zm27.464 67.42c-14.072 13.356-32.69 14.667-49.048 4.736l9.243-14.053c9.308 5.564 18.66 4.662 28.054-2.714zm16.004-9.73-.1-74.325h14.082v72.319c0 .693.086 1.304.996 1.658l12.25 4.764-5.519 14.35-14.35-6.071c-5.441-2.303-7.35-5.639-7.36-12.695z"/>
    <path fill="#2091c3" d="M169.64 150.794c-5.278-4.105-8.677-10.51-8.677-17.714 0-6.404 2.688-12.177 6.993-16.264l-9.095-14.74c-9.143 7.243-15.014 18.435-15.014 31.004 0 13.549 6.816 25.501 17.203 32.628l8.59-14.914"/>
    <path fill="#faec32" d="M175.805 111.969a22.382 22.382 0 0 1 7.59-1.32c9.603 0 17.793 6.039 20.992 14.524l17.428-1.456c-4.207-17.32-19.807-30.183-38.42-30.183a39.418 39.418 0 0 0-14.866 2.9l7.276 15.535"/>
    <path fill="#d0352a" d="M205.798 134.167c-.568 11.884-10.38 21.345-22.404 21.345-1.885 0-3.714-.237-5.462-.674l-6.837 15.829a39.522 39.522 0 0 0 12.3 1.96c21.295 0 38.65-16.835 39.504-37.921l-17.101-.539"/>
  </g>
</svg>
