<svg xmlns="http://www.w3.org/2000/svg" viewBox="0 0 256 215.815">
  <path fill="#fff" d="M255.568 162.465a9.062 9.062 0 0 0-.232-.583c.087-2.236-.577-4.31-1.958-6.068-1.773-2.259-4.582-3.829-8.506-4.742a91.355 91.355 0 0 1 1.795-.535l4.548-3.087c.806-.547 1.005-1.515.89-2.602-.351-3.302-3.5-5.582-6.797-5.187-5.338.639-13.694 1.68-15.479 2.127l-6.34-2.407a11.62 11.62 0 0 0-6.659-.486 88.29 88.29 0 0 0-9.042 2.527c2.708-15.206 9.729-51.155 19.705-77.002l.069-.191c9.393-28.387 10.518-46.95 3.439-56.749C227.446 2.56 222.07.065 215.02.065c-10.075.291-21.764 19.619-21.764 19.619l-2.083 4.283-1.274 1.273-1.273-1.62-4.014 4.593c-.03.052-2.973 5.16-6.897 9.515-1.748 1.224-2.901 1.519-3.572 1.544-4.047.15-4.328-.775-4.563-1.518-.256-.81-.854-2.705-2.98-3.467-1.319-.472-2.782-.286-4.013.513-.672.437-1.411 1.07-2.774 3.345-.084.018-.165.055-.249.078 1.2-2.962 2.234-6.226 3.081-9.784l-.066-1.733c-.144-3.826-4.901-5.495-7.405-2.599l-4.917 5.685c-1.166 1.513-2.197 2.85-3.124 3.977-.727.342-1.508.522-2.503.588-.31.02-.602.042-.88.064-2.13.165-2.307.178-4.234-1.314-2.969-2.296-8.009-7.389-17.502-17.24-9.215-9.563-17.332-14.08-24.841-13.875-5.364.162-10.086 2.696-14.43 7.747l-.141.001C79.06 5.47 73.396 0 66.334 0l-.149.001c-3.492.037-7.223 2.315-12.448 7.607-3.279 2.616-6.637 6.338-9.886 9.94-1.245 1.38-2.424 2.687-3.523 3.844-3.129 2.449-5.732 3.753-7.539 3.774-.959.002-3.886.044-6.647-8.696l-3.52-11.144-3.152 7.916-1.231-3.895L7.118 37.271l.658 1.57c.486 1.158 4.986 11.338 13.342 12.123 8.574.797 16.61-6.014 21.947-11.284 4.352-3.649 8.398-8.144 11.656-11.763.551-.612 1.083-1.204 1.596-1.767 1.981.765 5.895 3.365 9.557 8.041l-4.623 5.621C49.048 54.64 47.772 56.19 40.141 68.746c-9.577 15.759-11.423 25.862-5.643 30.887 1.263 1.097 4.451 3.338 9.405 3.338 1.736 0 3.691-.278 5.854-.975a266.471 266.471 0 0 0-6.499 5.138c-12.063 9.842-25.061 22.115-20.869 31.192-.062 1.852.37 3.549 1.259 5.019C11.853 153.818-3.543 174.107.729 185.717c.119 4.011 1.85 7.276 4.937 9.26 8.449 5.434 26.242-4.355 38.62-12.637-.523 1.502-.879 2.786-.999 3.726l-.467 3.663 1.236.312-.013.095-.467 3.671 3.59.897c1.231.31 2.186.245 3.55-.599-1.346 4.402-1.388 6.799-1.38 7.277l.211 13.302 2.875-4.282.076 5.413 7.438-11.082c.05-.075 2.061-3.071 5.32-7.844l6.244-9.038-3.472 10.88 11.128-8.897c6.402-5.418 12.872-12.205 18.021-17.585-.926 2.528-.866 4.935.129 6.916-.197 2.771.904 5.23 3.135 6.823 4.304 3.071 12 2.076 20.252-2.33.409 2.367 1.842 3.634 2.643 4.171 5.683 3.813 15.555-2.952 23.52-9.269l1.328-1.054c.542 3.699 2.548 6.636 5.721 8.256 1.745.892 3.745 1.332 5.968 1.332 5.343 0 11.973-2.548 19.435-7.498.995 2.41 2.765 4.37 5.188 5.662 5.184 2.763 12.516 1.991 20.958-2.008l4.563 1.31c5.597 1.607 9.555 2.182 13.378 2.182 3.065-.001 6.042-.37 9.706-.874 8.548-1.173 18.797-8.443 21.931-15.556.496-1.128.819-2.248.968-3.341l-.432-4.506"/>
  <path d="M188.478 30.281s-9.613 16.85-18.315 17.172c-10.2.378-7.96-6.103-9.438-5.142-1.474.958-7.134 12.944-7.223 14.407 10.985 18.13 31.297-12.458 34.976-26.437zM21.758 46.815c14.006 1.316 29.593-25.201 33.983-25.072 4.391.129 13.296 7.095 18.029 16.818 6.231-12.189 13.815-17.603 26.391-8.57 7.317 5.255 22.611 26.044 31.765 27.068 9.911 1.109 18.428-8.323 22.533-25.567-5.682 7.36-7.995 10.665-13.688 11.04-5.875.387-5.359 1.55-25.89-19.756S84.666 11.671 78.597 20.71c-1.356-1.485-8.224-12.615-16.5-12.526-5.864.064-15.633 13.943-21.475 18.982-6.07 5.235-9.709 6.158-11.916 6.184-3.42.041-7.542-1.708-10.669-11.607L11.869 37.23s3.778 9.011 9.889 9.585zm46.401-8.538c-15.461 18.812-16.08 19.26-24.207 32.633-8.127 13.373-10.284 22.262-6.47 25.578 3.843 3.341 10.69 3.526 19.079-2.674 11.673-8.946 27.254-21.712 31.531-32.581 1.112-2.825-19.13 16.337-27.253 21.089-4.874 2.851-11.425 3.601-14.944.196-7.182-6.949 24.966-41.317 22.264-44.241zm32.131 15.231c-1.356.452-9.2 12.041-9.168 13.558.032 1.52 7.393 3.745 10.33 12.913 2.938 9.168 1.808 23.759 1.808 23.759 6.456-2.97 16.702-37.001-2.97-50.23zM238.67 158.41c-29.66-1.382 7.102-11.88 7.102-11.88-16.012-1.033-45.122 16.859-21.37 14.139 23.914-2.761 24.192 18.914-.517 18.885-3.458-.004-2.389-3.454-2.389-3.454l-10.079 4.455c9.541 2.739 13.824 2.222 21.367 1.186 13.3-1.826 32.878-22.068 5.886-23.331zm-69.634-12.368c-15.776 4.961-28.133 14.053-35.695 22.183-6.747 4.081-26.05 14.114-13.98-13.24 6.87-15.569-15.866-.18-22.209 5.767 1.326-6.022 6.089-16.716-1.622-13.755-7.71 2.962-16.024 8.988-30.257 22.345 8.173-13.165 8.598-14.544 11.063-20.935-2.348.606-4.912 2.591-7.502 5.384-61.969 47.396-53.111 15.025-41.458 3.432 8.145-9.924 34.254-16.982 41.177-31.023-35.825 19.235-38.032 2.764-8.184-16.388 5.489-3.515 41.765-20.164 14.006 3.205 16.42-7.644 30.331-19.457 19.604-21.773-13.942-3.009-35.868 14.037-47.081 23.187-6.595 5.381-33.54 27.383-11.731 30.42-14.14 7.761-38.61 39.155-26.998 46.622 7.934 5.1 35.283-11.471 52.576-26.736-6.582 10.544-11.92 22.797-12.319 25.926 2.583.645 56.737-62.912 28.288-4.01 20.627-17.455 41.351-48.86 25.47-9.133-3.435 8.591 11.66 9.315 27.993-5.61-9.54 12.171-6.583 19.979 14.34 3.386-12.74 2.838-8.418-6.872 24.519-29.254zm53.055.301c-10.172 1.902-18.214 5.056-24.305 8.735.117-.446.204-.866.253-1.239.551-4.261 8.651-53.781 21.435-86.902 5.238-15.83 18.29-58.688-8.587-58.688-10.765 0-19.205 21.361-17.348 29.263 7.13-9.041 6.681-14.628 14.599-14.527 15.521.043 9.937 29.352 5.346 45.785-8.753 31.333-16.039 58.185-20.094 81.195-.718 4.075-1.056 6.987-1.124 8.998-4.868 4.014-7.777 8.316-8.92 12.142-11.644.756-25.87 3.996-10.329-20.291-31.204 15.597-26.169 49.7 10.129 21.024-2.645 10.864 9.37 17.352 31.596 1.074-9.189 4.258-37.984.203 7.349-26.569z"/>
  <path fill="#c73d27" d="M197.922 33.494c-1.857-7.901 6.583-29.262 17.348-29.262 26.876 0 13.824 42.858 8.586 58.687-12.783 33.121-20.883 82.642-21.435 86.902-.673 5.202-8.703 19.137-4.648-3.873 4.055-23.011 11.341-49.863 20.094-81.195 4.591-16.434 10.174-45.742-5.346-45.785-7.918-.102-7.469 5.486-14.599 14.526"/>
  <path fill="#1370c2" d="M237.914 154.341c-29.66-1.382 7.102-11.88 7.102-11.88-16.012-1.033-45.122 16.86-21.371 14.14 23.915-2.761 24.193 18.913-.516 18.884-3.458-.004-2.389-3.454-2.389-3.454l-10.08 4.455c9.542 2.739 13.825 2.222 21.368 1.186 13.3-1.826 32.878-22.068 5.886-23.331zm-69.634-12.368c-15.776 4.961-28.133 14.053-35.695 22.184-6.747 4.08-26.051 14.113-13.98-13.241 6.87-15.569-15.866-.18-22.209 5.767 1.326-6.022 6.088-16.716-1.622-13.754-7.711 2.961-16.024 8.987-30.258 22.344 8.174-13.165 8.599-14.543 11.064-20.935-2.348.606-4.912 2.591-7.502 5.384-61.969 47.396-53.111 15.025-41.458 3.432 8.145-9.924 34.254-16.982 41.177-31.023-35.825 19.235-38.032 2.764-8.184-16.388 5.488-3.514 41.765-20.164 14.006 3.205 16.42-7.643 30.331-19.457 19.604-21.773-13.942-3.009-35.868 14.037-47.081 23.187-6.595 5.382-33.54 27.383-11.731 30.421-14.141 7.76-38.61 39.154-26.998 46.621 7.934 5.101 35.283-11.471 52.576-26.736-6.582 10.544-11.92 22.797-12.319 25.926 2.583.645 56.737-62.912 28.288-4.01 20.627-17.455 41.351-48.859 25.469-9.132-3.434 8.59 11.661 9.314 27.994-5.611-9.54 12.171-6.583 19.98 14.34 3.386-12.74 2.838-8.418-6.872 24.519-29.254zm53.055.301c-23.951 4.478-36.097 15.897-38.745 24.762-11.644.756-25.87 3.997-10.329-20.291-31.204 15.597-26.169 49.7 10.128 21.024-2.645 10.865 9.37 17.352 31.597 1.074-9.189 4.258-37.984.203 7.349-26.569z"/>
  <path d="M172.385 97.46c-.594-1.917-12.692 20.088-12.692 20.088s-15.403 26.694-17.074 17.165c-3.728-21.253-30.642 41.883-26.023 44.192.548.274 17.896-43.233 20.453-28.213 2.53 14.862 38.155-44.123 35.336-53.232M76.396 159.132c-22.872 28.67-22.644 42.183-22.644 42.183s25.199-37.551 43.376-60.971c15.573-20.065 19.078-37.639 19.078-37.639s-21.374 33.317-39.81 56.427"/>
  <path fill="#c73d27" d="M60.124 17.725c4.391.129 13.296 7.096 18.029 16.818 6.231-12.188 13.815-17.603 26.391-8.57 7.316 5.256 22.611 26.044 31.765 27.068 9.911 1.109 18.427-8.322 22.532-25.567-5.681 7.361-7.995 10.665-13.687 11.041-5.875.387-5.359 1.549-25.89-19.757S89.049 7.653 82.98 16.692c-1.356-1.485-8.224-12.615-16.5-12.525-5.864.064-15.633 13.943-21.476 18.982-6.069 5.235-9.708 6.158-11.915 6.183-3.421.041-7.542-1.707-10.67-11.607l-6.168 15.488s3.778 9.011 9.889 9.585c14.006 1.316 29.594-25.202 33.984-25.073zm32.351 39.491c1.112-2.825-19.13 16.337-27.254 21.088-4.873 2.851-11.424 3.601-14.944.196-7.181-6.948 24.967-41.316 22.265-44.24-15.461 18.812-16.081 19.26-24.207 32.632-8.127 13.373-10.284 22.263-6.47 25.579 3.843 3.341 10.69 3.525 19.078-2.675 11.673-8.946 27.255-21.712 31.532-32.58zm12.198-7.726c-1.356.452-9.2 12.041-9.168 13.559.032 1.52 7.392 3.744 10.33 12.912 2.938 9.168 1.808 23.76 1.808 23.76 6.456-2.97 16.701-37.001-2.97-50.231zm70.659 44.997c-.594-1.917-12.691 20.088-12.691 20.088s-15.404 26.693-17.075 17.165c-3.727-21.254-30.642 41.882-26.022 44.192.548.274 17.895-43.234 20.453-28.213 2.53 14.861 38.154-44.123 35.335-53.232zm-95.963 65.741c-22.872 28.67-22.644 42.183-22.644 42.183s25.199-37.551 43.377-60.971c15.572-20.065 19.077-37.64 19.077-37.64s-21.373 33.318-39.81 56.428zm85.739-121.935c-1.475.958-7.134 12.945-7.223 14.407 10.984 18.13 31.296-12.457 34.976-26.436 0 0-9.613 16.849-18.315 17.172-10.2.377-7.96-6.103-9.438-5.143z"/>
</svg>
