<svg xmlns="http://www.w3.org/2000/svg" viewBox="0 0 511.166 211.482">
  <path fill="#fff" d="M511.004 145.753c-1.243-12.198-10.1-17.636-18.413-17.636-3.807 0-6.837 1.087-8.003 1.553l-1.631.7-1.399 1.01c-1.942 1.476-5.36 3.496-8.39 4.584-.156-2.487-.078-5.672.31-8.314l.078-.466c2.253-21.443-2.253-33.952-13.363-37.137-1.865-.544-3.807-.777-5.75-.777-6.759 0-12.741 3.263-16.626 6.06-3.263-4.118-8.702-6.449-15.539-6.449-10.178 0-18.335 4.74-21.288 12.354-.31.777-.699 1.942-1.165 3.496-5.982-13.208-18.18-18.258-29.524-18.258-10.721 0-21.132 4.195-25.017 7.148-.155.155-.388.233-.621.466-10.178 7.225-18.103 16.315-23.697 27.27-2.72-9.478-8.702-18.335-19.423-25.017l-.156-.155c-.31-.156-.544-.311-.854-.467 10.488-18.646 19.811-43.353 14.218-66.894C308.846 3.73 294.084 0 285.77 0c-3.419 0-6.915.622-10.489 1.865l-.233.077-.233.078c-15.616 6.138-22.453 15.383-23.93 17.559-1.553 2.33-18.646 28.28-22.764 66.272-.466 4.196-.932 8.547-1.398 12.897-2.409-3.418-6.371-6.526-12.664-8.468-1.943-.622-3.963-.855-5.983-.855-8.624 0-15.616 5.283-19.345 8.78l-.078-.078c-3.263-4.817-8.469-7.692-14.218-7.925h-1.398c-9.168 0-16.471 4.04-21.832 8.624-3.419-5.982-9.712-9.712-17.093-9.712-.621 0-1.165 0-1.709.078h-1.243c-10.178 0-18.18 4.817-21.444 12.82-.233.621-.543 1.398-.854 2.408-8.003-9.945-18.18-14.606-31.854-14.606h-1.321c-8.547.155-29.835 3.729-42.887 33.097-2.02 4.506-3.574 9.09-4.74 13.596a17.775 17.775 0 0 0-7.458-1.631c-6.837 0-11.965 3.885-14.45 7.536-2.021 2.952-8.47 13.441-5.284 23.697 1.71 5.516 5.672 9.711 11.265 11.887 4.895 1.942 11.11 3.807 15.772 5.128C30.781 189.65 35.91 197.186 45 204.1c6.448 4.894 14.684 7.38 24.396 7.38 16.315 0 32.087-7.07 33.796-7.846l.622-.311.155-.156c3.108 3.264 7.226 5.594 12.431 6.604 1.554.311 3.574.544 5.905.544 8.857 0 14.995-4.506 20.666-12.975 4.662 7.304 13.13 11.421 23.153 11.421h.078c.543 0 1.087.389 1.709.389 5.283 0 11.887-1.865 17.403-10.722 4.584 8.236 12.975 12.975 22.92 12.975 8.857 0 16.549-3.652 17.947-4.35l.31-.156c2.953-1.554 5.44-2.953 7.382-4.04 6.604 3.496 16.626 7.38 28.902 7.38 2.097 0 4.195-.077 6.293-.31l.544-.078.543-.078c26.028-5.127 42.965-11.343 53.065-16.082 7.07 7.925 18.336 15.539 34.418 16.704 1.787.155 3.652.233 5.439.233 13.208 0 23.774-3.73 31.543-7.847 2.487 2.642 5.594 5.05 9.634 6.682 2.409 1.01 4.895 1.476 7.459 1.476 16.16 0 23.697-19.268 25.794-25.794l3.885-10.411c3.418 3.651 7.77 6.604 13.285 8.157 3.03.855 6.294 1.321 9.634 1.321 17.792 0 34.885-12.586 37.604-14.684 4.895-4.04 10.256-12.353 9.09-23.774"/>
  <path fill="#e24b31" d="M348.011 151.018s-2.253-7.925 6.138-23.23c8.313-15.228 14.84-6.915 14.84-6.915s7.147 7.77-1.01 19.346c-8.159 11.654-19.968 10.799-19.968 10.799m-64.097 11.032c-9.556 25.018-32.787 14.84-32.787 14.84s-2.641-8.935 4.895-34.03c7.536-25.017 25.25-15.228 25.25-15.228s12.198 9.401 2.642 34.418M266.588 57.242s14.451-37.681 17.947-19.346c3.497 18.336-30.3 72.877-30.3 72.877.31-12.276 12.353-53.531 12.353-53.531M59.924 151.018c.621-24.24 16.47-34.807 21.987-29.524 5.516 5.284 3.496 16.705-6.915 23.852-10.333 7.148-15.072 5.672-15.072 5.672m437.88-3.962c-.777-8.158-8.158-5.128-8.158-5.128s-11.81 9.168-22.22 8.158c-10.333-1.088-7.07-24.24-7.07-24.24s2.253-21.289-3.885-23.076c-6.138-1.787-13.674 5.517-13.674 5.517s-9.4 10.41-13.83 23.618l-1.243.389s1.399-23.23-.233-28.514c-1.243-2.641-12.43-2.408-14.218 2.253-1.864 4.662-10.799 37.216-11.42 50.89 0 0-17.481 14.84-32.787 17.325-15.306 2.409-18.957-7.148-18.957-7.148s41.566-11.576 40.09-44.751c-1.399-33.175-33.486-20.9-37.138-18.18-3.496 2.641-22.22 13.907-27.737 45.217-.155 1.088-.543 5.75-.543 5.75s-16.083 10.8-25.018 13.674c0 0 25.018-42.11-5.516-61.3-13.83-8.314-24.862 9.167-24.862 9.167s41.333-45.994 32.165-84.919c-4.35-18.49-13.596-20.51-22.142-17.48-12.897 5.127-17.792 12.586-17.792 12.586s-16.704 24.24-20.589 60.29c-3.885 36.05-9.556 79.558-9.556 79.558s-7.925 7.77-15.228 8.158c-7.303.388-4.04-21.754-4.04-21.754s5.671-33.797 5.283-39.469c-.389-5.671-.777-8.779-7.536-10.799-6.682-2.02-14.063 6.526-14.063 6.526s-19.346 29.29-20.977 33.797l-1.01 1.865-1.01-1.244s13.674-39.934.621-40.478c-13.052-.621-21.598 14.218-21.598 14.218s-14.84 24.862-15.461 27.659l-1.01-1.243s6.137-28.902 4.894-36.05c-1.243-7.148-7.924-5.672-7.924-5.672s-8.547-1.01-10.8 4.507c-2.253 5.516-10.41 41.954-11.42 53.53 0 0-21.366 15.306-35.429 15.461-14.063.234-12.586-8.934-12.586-8.934s51.51-17.637 37.448-52.443c-6.293-8.935-13.674-11.732-24.007-11.577-10.411.233-22.61 6.527-31 25.25-3.962 8.935-5.594 17.404-5.594 23.853 0 0-9.634 1.864-14.529-2.254-4.894-4.04-7.691 0-7.691 0s-8.547 12.198-.233 15.461c8.313 3.264 21.21 6.294 21.21 6.294 1.165 5.283 4.662 13.907 14.84 21.598 15.227 11.577 44.595-1.787 44.595-1.787l12.043-7.147s.388 10.8 9.168 12.43c8.78 1.632 12.43-.155 27.659-37.137 8.934-18.957 9.556-17.947 9.556-17.947l1.01-.233s-6.915 36.205-4.273 45.994c2.641 9.79 14.218 8.78 14.218 8.78s6.293 2.253 11.42-15.694c5.128-17.948 14.84-36.672 14.84-36.672h1.243s-4.273 36.05 2.253 47.86c6.527 11.809 23.386 3.496 23.386 3.496s11.81-6.216 13.674-8.08c0 0 13.985 11.809 33.797 9.634 44.207-8.702 59.901-20.511 59.901-20.511s7.614 19.19 31.078 20.977c26.882 2.02 41.566-14.917 41.566-14.917s-.233 10.954 9.168 14.84c9.4 3.884 15.694-16.627 15.694-16.627l15.694-42.032h1.398s.777 26.881 16.316 31.388c15.616 4.428 35.739-11.11 35.739-11.11s4.895-3.264 4.04-11.421"/>
</svg>
