<svg xmlns="http://www.w3.org/2000/svg" viewBox="0 0 512.003 80.241">
  <defs>
    <linearGradient id="a" x1="48.976" x2="30.845" y1="66.214" y2="22.634" gradientUnits="userSpaceOnUse">
      <stop offset="0%" stop-color="#477CD8"/>
      <stop offset="16%" stop-color="#4573D2"/>
      <stop offset="43%" stop-color="#3F5BC2"/>
      <stop offset="76%" stop-color="#3633A7"/>
      <stop offset="100%" stop-color="#2F1391"/>
    </linearGradient>
    <linearGradient id="b" x1="77.578" x2="70.886" y1="12.65" y2="50.646" gradientTransform="scale(.80003 1.24996)" gradientUnits="userSpaceOnUse">
      <stop offset="0%" stop-color="#2055DA"/>
      <stop offset="11%" stop-color="#2055DA"/>
      <stop offset="100%" stop-color="#00BFF6"/>
    </linearGradient>
  </defs>
  <path fill="#3b62de" d="M218.95 19.197a17.819 17.819 0 0 1 5.663 3.416 11.75 11.75 0 0 1 2.964 4.106c.488 1.14.806 2.345.944 3.577.06.462-.117.924-.472 1.227-.336.31-.78.479-1.236.472h-5.135c-.399.017-.792-.103-1.113-.34a2.34 2.34 0 0 1-.595-.727c-.085-.17-.311-.538-.67-1.114a7.362 7.362 0 0 0-1.699-1.764 11.892 11.892 0 0 0-3.048-1.671 13.374 13.374 0 0 0-4.72-.717 10.91 10.91 0 0 0-7.55 2.557 9.438 9.438 0 0 0-3.039 6.862 109.413 109.413 0 0 0-.122 5.153c0 1.83.047 3.549.122 5.153.132 3.498 1.145 6.037 3.04 7.616a11.448 11.448 0 0 0 7.55 2.37c1.45.018 2.896-.15 4.303-.5a8.947 8.947 0 0 0 3.38-1.643 7.55 7.55 0 0 0 2.217-3.01c.56-1.46.827-3.016.783-4.578v-.51h-7.71a1.746 1.746 0 0 1-1.709-1.708V38.95a1.64 1.64 0 0 1 .51-1.198c.31-.33.746-.511 1.199-.5h14.534c.452-.011.888.17 1.199.5.327.312.512.746.51 1.198v6.956a20.036 20.036 0 0 1-1.2 6.994 14.874 14.874 0 0 1-3.605 5.502 16.724 16.724 0 0 1-6.012 3.605 28.021 28.021 0 0 1-16.752 0 15.884 15.884 0 0 1-5.851-3.539 15.016 15.016 0 0 1-3.577-5.474 21.302 21.302 0 0 1-1.36-6.984c0-.802-.075-1.69-.094-2.652-.019-.963 0-1.963 0-2.973v-2.973c0-.963.076-1.831.113-2.633.054-2.37.523-4.711 1.388-6.918a14.94 14.94 0 0 1 3.671-5.38 16.667 16.667 0 0 1 5.918-3.473 28.73 28.73 0 0 1 17.262.189zm-63.583-.264c.378.377.652.679.821.887l17.734 26.379V20.15a1.718 1.718 0 0 1 1.709-1.708h5.124a1.727 1.727 0 0 1 1.7 1.708v40.847a1.727 1.727 0 0 1-1.7 1.709l-4.464-.038a2.218 2.218 0 0 1-1.642-.566c-.377-.387-.651-.68-.821-.888l-17.706-26.34v26.048a1.718 1.718 0 0 1-1.708 1.708H149.3a1.718 1.718 0 0 1-1.709-1.708V20.074a1.718 1.718 0 0 1 1.709-1.708h4.426a2.218 2.218 0 0 1 1.642.567zm107.848 0c.377.377.65.679.82.887l17.706 26.426V20.15a1.718 1.718 0 0 1 1.709-1.708h5.115a1.718 1.718 0 0 1 1.708 1.708v40.847a1.718 1.718 0 0 1-1.708 1.709l-4.398-.038a2.218 2.218 0 0 1-1.642-.566c-.378-.387-.652-.68-.821-.888l-17.706-26.34v26.048a1.716 1.716 0 0 1-1.737 1.708h-5.115a1.718 1.718 0 0 1-1.708-1.708V20.074a1.718 1.718 0 0 1 1.708-1.708h4.426a2.218 2.218 0 0 1 1.643.567zm147.864.009c.405.47.707 1.02.887 1.614l15.46 39.96a1.718 1.718 0 0 1-1.652 2.152h-4.55c-.64.07-1.28-.125-1.774-.538a2.973 2.973 0 0 1-.689-1.048L416.1 54.07H396.09l-2.718 7.012a3.37 3.37 0 0 1-.689 1.048 2.369 2.369 0 0 1-1.774.538h-4.559a1.642 1.642 0 0 1-1.198-.51 1.595 1.595 0 0 1-.5-1.198c0-.15.018-.3.056-.444l15.497-39.96c.18-.594.482-1.144.887-1.614a1.954 1.954 0 0 1 1.51-.538h6.956c.56-.045 1.113.15 1.52.538zm23.897-.566 16.318.028c5.273 0 9.277 1.224 12.014 3.671 2.737 2.448 4.109 5.84 4.115 10.174a14.053 14.053 0 0 1-2.123 7.872 12.468 12.468 0 0 1-6.23 4.841l8.73 15.62c.115.216.18.455.19.698a1.406 1.406 0 0 1-1.388 1.388h-5.38a2.501 2.501 0 0 1-1.887-.604 4.247 4.247 0 0 1-.859-1.104l-8.258-14.761h-8.41V60.93a1.718 1.718 0 0 1-1.708 1.709h-5.124a1.718 1.718 0 0 1-1.709-1.709V20.084a1.718 1.718 0 0 1 1.709-1.708zm-297.409.028c.453-.003.887.182 1.199.51.33.31.511.746.5 1.198v4.493a1.727 1.727 0 0 1-1.699 1.708h-20.461v10.051h19.065a1.718 1.718 0 0 1 1.708 1.709v4.483a1.725 1.725 0 0 1-1.699 1.755h-19.074v10.495l20.952-.047c.935.02 1.688.773 1.708 1.708v4.493a1.746 1.746 0 0 1-1.708 1.708h-27.747a1.718 1.718 0 0 1-1.709-1.708V20.112a1.718 1.718 0 0 1 1.709-1.708zm106.328 0c.935.02 1.688.773 1.708 1.708V60.96a1.746 1.746 0 0 1-1.708 1.708h-5.125a1.746 1.746 0 0 1-1.708-1.708V20.112a1.746 1.746 0 0 1 1.708-1.708zm85.262 0c.936.02 1.689.773 1.709 1.708v4.493a1.746 1.746 0 0 1-1.708 1.708h-20.453v10.051h19.056a1.718 1.718 0 0 1 1.708 1.709v4.483c.008.456-.178.895-.51 1.208a1.67 1.67 0 0 1-1.198.5h-19.056v10.495h20.943c.935.02 1.689.773 1.709 1.708v4.493a1.746 1.746 0 0 1-1.709 1.708h-27.747a1.746 1.746 0 0 1-1.709-1.708V20.112a1.746 1.746 0 0 1 1.709-1.708zm56.25 0c.936.02 1.689.773 1.709 1.708.002.196-.04.39-.123.566l-14.987 26.37V60.96a1.746 1.746 0 0 1-1.709 1.708h-5.058a1.727 1.727 0 0 1-1.709-1.708V47.048l-15.006-26.332a1.302 1.302 0 0 1-.123-.566c-.01-.452.171-.888.5-1.199a1.623 1.623 0 0 1 1.209-.51h4.719a2.595 2.595 0 0 1 1.887.633c.303.27.558.59.755.944l10.25 17.932 10.24-17.932c.201-.355.46-.674.765-.944a2.52 2.52 0 0 1 1.887-.632zm115.69 1.236a14.846 14.846 0 0 1 9.297 9.004 24.784 24.784 0 0 1 1.482 7.173c.17 3.118.17 6.244 0 9.362a24.784 24.784 0 0 1-1.482 7.211 15.8 15.8 0 0 1-3.51 5.502 15.27 15.27 0 0 1-5.663 3.502 23.16 23.16 0 0 1-7.938 1.236h-15.931a1.727 1.727 0 0 1-1.708-1.708v-40.81a1.718 1.718 0 0 1 1.708-1.708h15.62c2.76-.053 5.507.365 8.126 1.236zm-8.55 6.616h-8.494v28.437h8.796a12.27 12.27 0 0 0 4.483-.727 8.607 8.607 0 0 0 3.162-1.991 8.287 8.287 0 0 0 1.887-3.03c.453-1.211.72-2.484.793-3.775.204-3.113.248-6.235.132-9.353a12.6 12.6 0 0 0-.792-3.775 8.645 8.645 0 0 0-1.964-3.04 8.938 8.938 0 0 0-3.284-2.028 13.59 13.59 0 0 0-4.719-.718zm-86.451 1.888-6.984 18.055h13.93zm44.924-1.765h-9.174l-.037 11.939h9.211a11.325 11.325 0 0 0 5.757-1.265c1.425-.84 2.133-2.444 2.143-4.804.009-2.36-.708-3.935-2.143-4.719a11.779 11.779 0 0 0-5.757-1.151z"/>
  <path fill="url(#a)" d="M23.047 40.13c0-9.43 7.644-17.073 17.074-17.073 9.429 0 17.073 7.644 17.073 17.073 0 9.43-7.644 17.073-17.073 17.073-9.43 0-17.074-7.644-17.074-17.073M0 40.13c0 22.153 17.958 40.111 40.111 40.111s40.111-17.958 40.111-40.11c0-22.154-17.958-40.112-40.11-40.112C17.971.05.031 17.99 0 40.13" style="fill:url(#a)"/>
  <path fill="url(#b)" d="m48.322 12.335-8.23 10.731c9.266.218 16.663 7.792 16.663 17.06 0 9.267-7.397 16.84-16.663 17.058L29.786 68.897l10.306 11.325A40.12 40.12 0 1 0 41.83 0h-1.737z" style="fill:url(#b)"/>
</svg>
