<svg xmlns="http://www.w3.org/2000/svg" viewBox="0 0 256 302.489">
  <path fill="#f56857" fill-opacity=".5" d="M164.881 184.097c-3.719 4.339-7.438 8.678-11.157 11.777-2.479 1.86-4.959 3.099-7.438 4.959l-1.24 101.656c10.538-1.24 21.695-3.719 32.233-6.818l.619-100.417c-.619-.62-1.239-1.24-1.239-1.859-3.72-3.719-7.439-6.819-11.778-9.298m-72.523-1.24c-4.339 2.479-8.058 5.579-11.777 9.298l-1.859 1.859v101.037c10.537 3.719 21.075 5.578 31.612 6.818l.62-102.276c-2.479-1.24-4.959-3.099-7.438-4.959-4.339-3.099-8.058-7.438-11.158-11.777"/>
  <path fill="#f96853" d="M128.93 0c-26.034 0-47.729 42.77-47.729 95.458 0 4.959 0 9.917.62 14.876-20.455 14.877-34.092 38.431-34.092 65.705 0 11.777 2.479 22.314 6.818 32.232 8.058-18.595 23.555-34.092 42.77-42.15 8.058 15.496 19.216 24.794 31.613 24.794 12.397 0 23.554-9.298 32.232-24.794 18.596 8.058 34.092 23.555 42.15 42.15 4.339-9.918 6.819-21.075 6.819-32.232 0-27.274-13.017-51.448-33.472-65.705.619-4.959.619-9.918.619-14.876C176.039 43.39 154.964 0 128.93 0zm-.62 61.985c11.777 0 21.075 9.298 21.075 21.075 0 11.778-9.298 21.076-21.075 21.076s-21.075-9.298-21.075-21.076c.62-11.777 9.917-21.075 21.075-21.075z"/>
  <path fill="#f56857" fill-opacity=".8" d="M63.225 251.661c-16.116-14.257-27.273-33.472-31.612-55.787-11.778-1.24-22.315-2.479-31.613-3.719 4.339 41.53 28.513 76.862 63.225 97.317zm-30.993-95.458c1.86-8.678 5.579-17.355 9.298-25.414 1.24-2.479 1.86-4.958 3.099-6.818 5.579-11.157 13.637-21.075 23.555-29.133V85.54c0-8.058.62-15.496 1.24-22.935C32.852 81.821 6.199 117.772.62 159.922c9.298-1.239 19.835-2.479 31.612-3.719zm160.543 132.649c34.092-19.835 58.266-55.787 63.225-97.317-9.298 1.24-19.835 3.099-31.613 3.719-4.339 22.315-15.496 41.531-31.612 55.787zm62.605-128.93c-5.579-42.15-31.612-77.481-68.184-96.697.62 7.438 1.24 14.877 1.24 22.935v9.298c9.298 8.058 17.356 17.975 22.934 29.133 1.24 2.479 2.48 4.339 3.1 6.818 4.339 7.439 7.438 16.116 9.298 24.794 11.777 1.24 22.314 2.48 31.612 3.719z"/>
</svg>
