<svg xmlns="http://www.w3.org/2000/svg" viewBox="0 0 511.172 165.289">
  <path fill="#fffffe" d="m471.597 62.408 14.892 39.258h.214l14.284-39.258h10.185L487.3 123.522a65.158 65.158 0 0 1-2.643 5.996c-.915 1.802-2.007 3.341-3.274 4.615-1.269 1.273-2.8 2.262-4.598 2.97-1.796.706-3.997 1.06-6.603 1.06-1.41 0-2.836-.088-4.28-.265a15.478 15.478 0 0 1-4.173-1.113l1.162-8.7c1.896.778 3.793 1.166 5.691 1.166 1.476 0 2.723-.195 3.743-.583a7.399 7.399 0 0 0 2.636-1.699 9.948 9.948 0 0 0 1.845-2.599c.49-.99.983-2.121 1.476-3.394l3.09-7.958-20.81-50.61zM274.57 61.135c4.456 0 8.222.78 11.299 2.336 3.077 1.555 5.605 3.589 7.586 6.1 1.98 2.511 3.412 5.341 4.297 8.487a35.374 35.374 0 0 1 1.326 9.602v3.395h-40.318c0 2.194.478 4.192 1.433 5.996a14.924 14.924 0 0 0 3.766 4.615c1.555 1.273 3.358 2.263 5.411 2.97a19.34 19.34 0 0 0 6.366 1.06c2.97 0 5.551-.688 7.747-2.068 2.19-1.379 4.206-3.2 6.047-5.464l7.214 5.518c-5.306 6.861-12.733 10.291-22.281 10.291-3.962 0-7.552-.674-10.769-2.015-3.219-1.343-5.942-3.2-8.17-5.572-2.227-2.368-3.944-5.162-5.146-8.38-1.203-3.219-1.804-6.702-1.804-10.453 0-3.747.655-7.23 1.964-10.45 1.308-3.217 3.111-6.011 5.41-8.38 2.299-2.37 5.04-4.227 8.224-5.572 3.182-1.343 6.647-2.016 10.398-2.016zm158.513 0c3.748 0 7.25.69 10.504 2.069 3.252 1.38 6.083 3.273 8.489 5.676a26.884 26.884 0 0 1 5.676 8.382c1.378 3.184 2.069 6.615 2.069 10.291 0 3.68-.691 7.128-2.07 10.346-1.38 3.22-3.272 6.013-5.675 8.383-2.406 2.37-5.237 4.243-8.49 5.623-3.254 1.379-6.755 2.068-10.503 2.068-3.751 0-7.252-.69-10.504-2.068-3.255-1.38-6.084-3.254-8.488-5.623-2.405-2.37-4.297-5.163-5.676-8.383-1.379-3.218-2.07-6.667-2.07-10.346 0-3.676.691-7.107 2.07-10.29a26.834 26.834 0 0 1 5.676-8.383c2.404-2.403 5.233-4.296 8.488-5.676 3.252-1.38 6.753-2.069 10.504-2.069zm-99.418 0c2.406 0 4.723.372 6.95 1.115 2.228.743 4.173 1.893 5.836 3.447 1.661 1.558 2.987 3.555 3.98 5.996.989 2.44 1.485 5.323 1.485 8.646V112.7h-9.55V82.992c0-2.335-.318-4.332-.954-5.995-.637-1.66-1.486-3.005-2.548-4.03a9.545 9.545 0 0 0-3.66-2.23c-1.379-.46-2.812-.69-4.296-.69-1.982 0-3.82.319-5.518.956-1.698.636-3.182 1.644-4.457 3.024-1.273 1.379-2.264 3.13-2.97 5.25-.707 2.124-1.06 4.635-1.06 7.535V112.7h-9.549V62.408h9.549v7.745h.212c1.201-2.687 3.29-4.862 6.26-6.524 2.97-1.662 6.4-2.494 10.29-2.494zm32.361 1.273 15.067 38.515 14.43-38.515h10.184L385.975 112.7H375.47l-20.479-50.292zm67.057 7.64c-2.547 0-4.846.443-6.897 1.325-2.052.887-3.785 2.089-5.198 3.608-1.415 1.522-2.512 3.361-3.29 5.518-.779 2.158-1.166 4.508-1.166 7.054 0 2.549.387 4.9 1.166 7.057.778 2.16 1.875 3.996 3.29 5.518 1.413 1.52 3.146 2.724 5.198 3.606 2.051.886 4.35 1.326 6.897 1.326 2.546 0 4.844-.44 6.896-1.326 2.051-.882 3.783-2.086 5.199-3.606 1.414-1.522 2.51-3.359 3.29-5.518.777-2.157 1.166-4.508 1.166-7.057 0-2.546-.389-4.896-1.167-7.054-.78-2.157-1.875-3.996-3.29-5.518-1.415-1.52-3.147-2.721-5.198-3.608-2.052-.882-4.35-1.326-6.896-1.326zm-158.726-1.274c-2.334 0-4.474.442-6.419 1.326-1.947.887-3.59 2.035-4.934 3.449a15.964 15.964 0 0 0-3.13 4.722c-.743 1.734-1.114 3.448-1.114 5.145h30.132c-.07-2.121-.407-4.066-1.008-5.836-.6-1.767-1.503-3.304-2.705-4.614-1.204-1.308-2.706-2.335-4.51-3.077-1.803-.742-3.908-1.115-6.312-1.115z"/>
  <path fill="#953984" d="m28.167 79.414.316 13.335-15.74 6.787.781 33.386 32.105 19.894 14.242-6.142 12.815 7.944-23.627 10.186c-.175.068-.35.138-.544.199-1.825.576-3.988.272-5.782-.837L4.23 140.306c-1.984-1.239-3.24-3.262-3.287-5.329L.001 94.924c-.047-2.067 1.115-3.84 3.047-4.68zm48.171 34.766c.178.12.34.253.522.367l12.306 7.625.307 13.06-12.824-7.948zM55.201 79.81l14.043 8.698.315 13.343-14.042-8.706z"/>
  <path fill="#ac6199" d="m68.306 48.711.367 15.56-19.785 8.523 1.067 45.177 43.428 26.915 19.129-8.247 14.952 9.265-30.069 12.962a5.795 5.795 0 0 1-.634.24c-2.127.673-4.65.32-6.747-.977l-50.902-31.555c-2.316-1.43-3.782-3.793-3.829-6.198l-1.25-52.96c-.06-2.4 1.3-4.48 3.552-5.462zm30.481-4.844 46.745 28.97c2.317 1.43 3.775 3.81 3.834 6.21l1.137 48.34-.772.333-14.157-8.773-.884-37.507-37.015-22.932-.33-14.019z"/>
  <path fill="#c04589" d="m149.219 134.635-56.723-35.15L91.1 40.486l55.33-23.848 56.718 35.138 1.394 58.998zm66.331-92.683L150.284 1.498c-2.408-1.492-5.278-1.885-7.733-1.11a7.895 7.895 0 0 0-.71.264l-63.66 27.452c-2.58 1.113-4.13 3.481-4.065 6.232l1.6 67.896c.064 2.75 1.74 5.451 4.384 7.09l65.261 40.441c2.4 1.486 5.27 1.89 7.71 1.12.242-.077.49-.168.732-.272l63.667-27.441c2.579-1.113 4.123-3.493 4.059-6.244l-1.594-67.884c-.065-2.75-1.74-5.452-4.385-7.09z"/>
</svg>
