<svg xmlns="http://www.w3.org/2000/svg" viewBox="0 0 256 434.013">
  <defs>
    <radialGradient id="a" cx="153.01" cy="133.63" r="141.882" fx="153.01" fy="133.63" gradientTransform="scale(.83793 1.19342)" gradientUnits="userSpaceOnUse">
      <stop offset="0%" stop-color="#A5C8E6"/>
      <stop offset="100%" stop-color="#353D4B"/>
    </radialGradient>
  </defs>
  <path d="M74.172 434.013c.001-9.881-.006-19.762.005-29.644.011-10.364 7.767-18.283 18.133-18.32 4.78-.016 9.676-.253 14.32.644 8.32 1.608 13.731 8.949 13.738 17.465.008 9.952.003 19.903.003 29.855h-12.292c.018-9.956.062-19.912.038-29.868-.008-3.455-2.508-6.054-5.96-6.174-3.245-.112-6.5-.12-9.743 0-3.46.13-5.967 2.705-5.981 6.174-.04 9.956.013 19.912.03 29.868h-12.29M37.722 434.013c-3.74-1.107-7.325-2.467-10.081-5.438-3.31-3.566-5.157-7.701-5.174-12.597-.014-4.167-.049-8.334.01-12.5.13-9.186 7.71-17.148 16.88-17.397 8.115-.22 16.242-.05 24.362-.045.272 0 .543.087.94.155v12.078h-2.273c-7.062 0-14.124-.014-21.187.007-4.33.012-6.81 2.477-6.86 6.82-.039 3.25-.04 6.498-.003 9.747.05 4.41 2.589 6.874 7.046 6.88 7.694.007 15.388.002 23.466.002v12.289H37.722M144.53 434.013c-.036-3.458.035-11.938.035-11.938-10.934-1.819-16.524-8.96-16.813-18.017-.177-5.574-.035-11.159-.027-16.738 0-.339.084-.677.148-1.154h12.095v7.241c.001 3.179-.065 6.359.021 9.535.127 4.66 2.539 6.95 7.192 6.964 2.613.008 5.226.02 7.84-.003 4.227-.036 6.732-2.488 6.77-6.7.042-4.873.005-9.747.015-14.62.002-.76.062-1.518.102-2.418h12.15v16.366c0 10.652-6.063 17.702-16.813 19.333v12.149H144.53"/>
  <path d="M64.679 404.007v11.999H39.686v-12h24.993M212.56 386.029h-13.793c-9.761 0-17.674 7.913-17.674 17.674v12.468c0 9.76 7.913 17.674 17.674 17.674h13.793c9.76 0 17.673-7.913 17.673-17.674v-12.468c0-9.761-7.912-17.674-17.673-17.674zm5.073 29.782a6.103 6.103 0 0 1-6.103 6.103h-12.176a6.103 6.103 0 0 1-6.103-6.103v-11.493a6.103 6.103 0 0 1 6.103-6.103h12.176a6.103 6.103 0 0 1 6.103 6.103z"/>
  <path fill="#2a3141" d="m128 0 128 38.146V267.02l-128 92.397L0 267.02V38.146L128 0"/>
  <path fill="url(#a)" fill-opacity=".91" d="m128 9.748 119.1 35.18V262.78l-119.082 85.616L9.325 262.781V44.927L128 9.748" style="fill:url(#a)"/>
  <path fill="#262c3a" d="M128.212 9.464 9.112 44.77v.158h.213-.212V262.89l119.099 85.909v-.541l-.194.14L9.325 262.78V44.927L128 9.748l.212.063v-.347"/>
  <path fill="#ecedec" d="M22.887 72.477v45.775L128 176.742l105.113-58.49V72.477L128 123.762 22.887 72.477"/>
  <path fill="#ecedec" d="M22.887 138.596v45.775L128 253.033l73.748-48.318v-47.894L128 199.63 22.887 138.596"/>
  <path fill="#ecedec" d="M22.887 207.258v45.775L128 328.901l105.113-75.868v-45.775L128 275.921 22.887 207.258"/>
  <path fill-opacity=".07" d="M127.788 10.032 9.536 45.085v217.588l118.252 85.297V10.032"/>
</svg>
