<svg xmlns="http://www.w3.org/2000/svg" viewBox="0 0 256 256">
  <circle cx="128" cy="128" r="128" fill="#e55151"/>
  <path fill="#fff" d="M207.36 129.86c.564-4.113.862-8.325.862-12.614 0-21.679-7.595-41.562-21.385-55.986a74.09 74.09 0 0 0-4.825-4.584V29.4L158.846 43.02c-9.143-3.346-19.184-5.083-29.934-5.083-10.983 0-21.171 1.702-30.376 4.986L74.526 29.4v27.721a70.369 70.369 0 0 0-4.307 4.18C56.925 75.48 49.603 95.347 49.603 117.247c0 2.91.14 5.784.398 8.615-7.385 17.474-1.101 55.401 18.434 68.142 3.786-4.497 6.64-9.442 8.57-14.59 6.487 5.321 13.88 9.448 22.046 12.313v17.404c0 4.441 3.6 8.041 8.042 8.041h5.847c2.83 0 5.926-2.294 5.926-5.123v15.016a7.946 7.946 0 0 0 7.945 7.946h4.663a7.946 7.946 0 0 0 7.946-7.946v-15.016c0 2.83 3.097 5.123 5.926 5.123h5.847c4.441 0 8.042-3.6 8.042-8.041v-17.636c7.373-2.668 14.126-6.372 20.144-11.077 1.918 4.786 4.65 9.382 8.188 13.586 18.155-11.84 24.861-45.429 19.794-64.144zm-78.448 60.77c-20.939 0-37.795-6.564-50.056-17.422 4.085-18.27-3.252-37.845-23.038-48.771a90.507 90.507 0 0 1-.289-7.191c0-40.53 26.239-73.384 73.383-73.384 45.198 0 73.384 32.854 73.384 73.384 0 2.087-.09 4.15-.231 6.194-21.64 10.92-29.449 31.768-24.64 50.932-12.17 10.162-28.532 16.257-48.513 16.257zm54.566-91.274c-.617-27.036-39.258-42.22-55.677-8.889C112.246 57.505 72.74 71.703 72 99.603c.618 22.715 17.654 32.097 46.789 28.64l9.012 10.741 9.135-10.74c31.974 1.728 45.592-5.483 46.542-28.888z"/>
</svg>
