<svg xmlns="http://www.w3.org/2000/svg" viewBox="0 0 256 281.098">
  <path fill="#32bebe" d="M105.326 6.264 22.674 53.806C8.777 61.852 0 76.846 0 92.938v95.451c0 16.092 8.777 31.086 22.674 39.132l82.652 47.543c13.897 8.045 31.451 8.045 45.348 0l82.652-47.543C247.223 219.475 256 204.48 256 188.389V93.304c0-16.092-8.777-31.086-22.674-39.132L150.674 6.63c-13.897-8.777-31.451-8.777-45.348-.365z"/>
  <path fill="#fff" d="M155.889 70.376c.544-.336 1.026-.015 1.617.285 30.846 15.655 52.602 43.384 52.072 78.372-.064 4.206-.554 8.579-1.787 12.488-.357 1.132-.653 2.712-1.36 3.302-.697-.548-.646-1.859-.766-2.73-5.177-37.65-43.356-35.115-52.653.797-.623-.03-.64-.315-1.064-.656-14.946-13.136-58.916-48.961-43.648-68.901 7.273-8.55 14.915-6.084 17.05-5.625-.8-1.089-3.98-4.837-4.063-5.845 10.18 2.227 17.26 4.827 23.238 13.934 2.532 3.857 4.067 10.907 1.498 15.412l-.218-.167a2.165 2.165 0 0 1-.062-.06c-1.013-1.66-3.041-4.662-4.16-6.395-2.532-3.927-2.426-1.764-5.072 1.59-.352.477-2.96 3.955-3.364 4.12-.17-3.96-.494-6.859-2.286-9.782-3.946-6.435-15.26-6.43-15.588 2.297 1.195 30.52 64.578 30.773 47.869-17.604-1.594-4.616-2.85-7.202-5.296-11.33-.495-.835-1.956-2.675-1.957-3.502zM46.413 157.653l.305-8.7c1.377-34.837 13.06-67.768 50.356-77.752.835-.223 2.667-.907 3.51-.836-.779 1.412-2.464 3.381-3.482 5.008C60.837 133.278 170.005 150.862 149.55 197c-14.228 25.59-42.369 9.296-41.262 2.03l14.72 2.23c.695.917-1.897 2.479-1.735 3.278.155.766 5.16 4.491 10.076 1.526 21.09-12.716 7.739-50.122-30.425-44.956-.234-.343-.319-.965-.397-1.369-5.453-28.127-36.29-32.63-51.709-6.046-.413.713-1.906 3.724-2.405 3.959z"/>
</svg>
