<svg xmlns="http://www.w3.org/2000/svg" viewBox="0 0 255.85 255.8">
  <defs>
    <linearGradient id="a" x1=".861" x2="174.822" y1="86.981" y2="86.981" gradientTransform="scale(1.46348 .6833)" gradientUnits="userSpaceOnUse">
      <stop offset="0%" stop-color="#FFF" stop-opacity="0"/>
      <stop offset="100%" stop-color="#FFF"/>
    </linearGradient>
  </defs>
  <path fill="#24373e" d="M127.926 0C198.578 0 255.85 57.264 255.85 127.9c0 70.64-57.272 127.9-127.924 127.9C57.276 255.8 0 198.54 0 127.9 0 57.264 57.275 0 127.926 0z"/>
  <path fill="#e5d4c4" d="M127.924 46.964c44.708 0 80.95 36.24 80.95 80.936 0 44.702-36.242 80.937-80.95 80.937-44.705 0-80.948-36.235-80.948-80.937 0-44.696 36.243-80.936 80.948-80.936z"/>
  <path fill="#8fb1be" d="M127.926 79.743c26.603 0 48.172 21.56 48.172 48.16 0 26.597-21.57 48.16-48.172 48.16-26.6 0-48.168-21.562-48.168-48.16 0-26.6 21.567-48.16 48.168-48.16z"/>
  <path fill="url(#a)" d="M132.05 0c115.275 9.038 123.8 118.868 123.8 118.868s-80.083-44.212-130.265-43.32C75.602 72.568 1.26 109.34 1.26 109.34S16.147 1.48 132.05 0" opacity=".25" style="fill:url(#a)"/>
</svg>
