<svg xmlns="http://www.w3.org/2000/svg" viewBox="0 0 256 256">
  <circle cx="128" cy="128" r="128" fill="#f05537"/>
  <path fill="#fff" d="M117.475 82.729c19.297-4.288 38.595 3.574 49.315 18.582L81.502 120.61c2.859-18.345 16.676-33.592 35.973-37.88zm49.792 70.756c-6.671 9.768-16.915 16.677-28.589 19.297-19.297 4.288-38.832-3.573-49.553-18.82l85.527-19.298 13.818-3.097 26.682-5.955c-.238-5.718-.953-11.436-2.144-16.915-10.72-45.98-57.653-74.806-104.586-64.086-46.932 10.72-76.235 56.462-65.276 102.68 10.959 46.218 57.653 74.806 104.585 64.085 27.636-6.194 49.077-24.776 60.036-48.361z"/>
</svg>
