<svg xmlns="http://www.w3.org/2000/svg" xmlns:xlink="http://www.w3.org/1999/xlink" viewBox="0 0 255.025 255.027">
  <defs>
    <path id="a" d="m98.147 242.922-84.731-84.733c-16.708-16.707-16.708-43.795 0-60.503l84.73-84.73c16.708-16.708 43.796-16.708 60.503 0l84.73 84.73c16.708 16.708 16.708 43.796 0 60.503l-84.73 84.733c-16.707 16.707-43.795 16.707-60.502 0"/>
  </defs>
  <g transform="translate(-.885 -.425)">
    <mask id="b" fill="#fff">
      <use width="100%" height="100%" xlink:href="#a"/>
    </mask>
    <use width="100%" height="100%" fill="#fff" xlink:href="#a"/>
    <path fill="#f4922e" d="M247.196 102.089c-1.149-1.505-2.368-2.972-3.745-4.349l-29.876-29.876c-59.577 26.4-178.052 31.867-204.35 32.75.102-.122-8.405 15.74-8.322 15.456 33.347 1.642 196.137 8.138 246.293-13.981M33.081 77.19c31.763-.971 102.694-6.709 154.24-37.185l-28.923-28.16c-16.897-17.461-44.853-16.334-61.75 1.128L33.082 77.189M96.635 243.027c16.707 16.707 44.122 19.027 62.933.432l29.86-29.86c-49.754-29.168-121.363-32.322-153.969-31.761l61.176 61.189M-1.586 136.253 9.486 157.57c33.26 1.092 134.87 6.17 205.66 28.979l28.305-28.306a42.92 42.92 0 0 0 5.794-7.239c-48.07-23.458-215.645-16.34-247.424-14.752" mask="url(#b)"/>
  </g>
</svg>
