<svg xmlns="http://www.w3.org/2000/svg" viewBox="0 0 324.527 380.287">
  <path fill="#00a82d" d="M101.593 85.447c0 3.784-.315 10.09-4.099 14.19-4.099 3.783-10.405 4.099-14.189 4.099H42.947c-11.666 0-18.603 0-23.332.63-2.522.315-5.675 1.577-7.252 2.207-.63.315-.63 0-.315-.316l92.068-93.644c.316-.315.63-.315.316.316-.632 1.576-1.892 4.73-2.208 7.252-.63 4.73-.63 11.666-.63 23.332zm85.762 283.14c-10.72-6.936-16.395-16.08-18.602-21.756-2.207-5.36-3.468-11.35-3.468-17.342 0-26.17 21.44-47.61 47.925-47.61a14.129 14.129 0 0 1 14.188 14.188c0 5.36-2.838 9.775-7.252 12.296-1.576.946-3.783 1.577-5.36 1.893-1.577.314-7.567.946-10.405 3.468-3.153 2.522-5.676 6.62-5.676 11.036 0 4.728 1.892 9.142 5.045 12.296 5.675 5.676 13.243 8.828 21.44 8.828 21.44 0 38.783-17.342 38.783-38.782 0-19.233-12.927-36.26-29.953-43.827-2.522-1.261-6.622-2.207-10.405-3.152-4.73-.947-9.144-1.577-9.46-1.577-13.242-1.577-46.35-11.981-48.556-41.304 0 0-9.774 44.142-29.323 56.123-1.891.946-4.414 1.891-7.252 2.523-2.837.63-5.99.945-6.936.945-31.845 1.892-65.582-8.198-88.915-32.16 0 0-15.765-12.928-23.963-49.187-1.892-8.828-5.676-24.593-7.883-39.412-.946-5.36-1.261-9.46-1.577-13.242 0-15.45 9.46-25.855 21.44-27.432h64.321c11.036 0 17.342-2.838 21.44-6.621 5.36-5.045 6.622-12.297 6.622-20.81V21.44C115.149 9.774 125.553 0 141.005 0h7.567c3.153 0 6.937.315 10.405.63 2.523.316 4.73.947 8.513 1.892 19.233 4.73 23.332 24.278 23.332 24.278s36.26 6.306 54.547 9.46c17.342 3.153 60.223 5.99 68.42 49.187 19.234 102.79 7.568 202.42 6.621 202.42-13.558 97.111-94.274 92.382-94.274 92.382-17.342 0-30.269-5.676-38.783-11.667m72.52-206.52c-10.405-.946-19.234 3.154-22.386 11.035-.631 1.577-1.262 3.47-.946 4.415.315.946.946 1.261 1.577 1.576 3.783 1.892 10.089 2.839 19.233 3.784 9.144.946 15.45 1.576 19.549.946.63 0 1.26-.316 1.892-1.261.63-.946.315-2.838.315-4.414-1.261-8.83-8.828-14.82-19.233-16.081"/>
</svg>
