<svg xmlns="http://www.w3.org/2000/svg" viewBox="0 0 998.473 220.336">
  <path d="m241.286 155.464 6.21-1.278c5.481-1.461 6.943-2.192 6.943-13.153V54.99c0-10.961-1.644-11.875-6.942-13.154l-6.211-1.278v-5.115h99.013l1.827 36.353h-5.663c-4.567-10.047-7.49-15.345-10.23-19.364-5.846-8.403-9.682-9.134-22.287-9.134-9.317 0-13.884 1.096-16.625 1.827v46.584h4.933c12.787 0 15.71-1.462 17.903-5.48 2.557-4.568 4.019-8.039 5.663-13.885h5.48v47.132h-5.48c-1.644-5.663-3.106-9.317-5.663-14.614-2.192-4.567-4.567-5.48-17.903-5.48h-4.933v35.074c0 16.259.549 18.086 18.269 18.086 14.614 0 17.537-1.827 23.566-10.778 3.288-4.933 6.759-12.605 11.509-24.115h5.845l-2.557 42.931H241.468l-.182-5.116m120.57-68.505c-4.202-10.23-6.211-12.788-10.778-14.25l-3.471-1.095v-4.75h54.256v4.75l-4.932 1.278c-3.837 1.096-5.664 2.923-5.664 7.308 0 2.557.914 5.663 2.376 9.682l15.162 41.651h.914l14.614-41.651c1.644-4.385 2.375-7.49 2.375-10.048 0-4.019-1.827-6.028-5.663-6.942l-4.933-1.278v-4.75h33.432v4.75l-3.471 1.096c-4.75 1.644-6.76 4.384-11.144 16.258l-27.95 71.612h-15.346zm83.485 26.306c0-31.421 23.201-48.776 47.133-48.776 24.844 0 40.372 12.422 40.92 45.123h-59.737c.548 29.594 11.692 37.632 30.326 37.632 11.143 0 19.73-3.288 26.489-6.76v6.03c-6.394 6.941-20.096 16.44-38.181 16.44-31.421-.365-46.95-18.998-46.95-49.689m28.316-10.595 30.873-1.645c0-21.739-2.922-29.777-13.7-29.777-9.135 0-16.442 8.769-17.173 31.422m107.235-24.297c5.115-5.48 15.528-14.432 27.585-14.432 7.672 0 14.066 6.211 14.066 14.066 0 7.856-6.21 14.067-14.066 14.067-5.663 0-10.778-3.47-12.788-8.403-1.096-2.01-3.471-2.558-5.115-2.558-3.289 0-7.125 2.375-9.5 4.567v58.458c0 8.404.731 9.317 6.211 10.23l6.03 1.28v4.932H541.25v-4.933l4.75-1.278c6.028-1.644 6.759-2.558 6.759-10.23V88.054c0-7.673-.914-8.22-6.029-11.692l-6.029-4.019v-3.653l37.999-4.385 2.01 1.462-.366 12.422zm47.132 77.274 4.75-1.278c6.028-1.644 6.759-2.558 6.759-10.23V88.054c0-7.673-.913-8.22-6.029-11.692l-6.028-4.019v-3.653l37.998-4.385 2.009 1.28-.365 11.508h.73c9.5-6.76 21.374-12.788 34.527-12.788 15.346 0 23.566 7.856 23.566 24.114v55.536c0 7.855.73 8.769 6.577 10.23l4.75 1.278v4.933H687.03v-4.933l4.384-1.095c5.481-1.462 6.029-2.01 6.029-10.413V95.545c0-10.96-4.019-14.432-12.422-14.432-6.394 0-12.788 1.462-16.807 2.375v60.65c0 8.587.548 8.952 6.029 10.414l4.384 1.095v4.933h-50.238v-4.933zm112.715-41.834c0-34.527 24.48-49.324 48.776-49.324 26.121 0 48.96 15.71 48.96 48.41 0 34.528-24.113 49.69-48.96 49.69-26.124 0-48.776-15.71-48.776-48.776m67.41.914c0-36.354-6.943-43.296-19.365-43.296-11.326 0-18.086 8.22-18.086 39.276 0 36.903 6.029 44.94 19.182 44.94 10.779 0 18.27-6.393 18.27-40.92m45.854 23.017V77.46h-11.326v-4.384c14.061-5.48 24.844-15.893 29.958-30.325h10.227v24.114h23.933l-2.373 10.595h-21.56v58.459c0 8.951 2.741 12.605 11.695 12.605 4.383 0 9.684-.913 12.968-1.644v5.115c-4.383 4.019-13.336 10.595-28.497 10.595-16.259 0-25.025-7.125-25.025-24.845m57.175-24.479c0-31.421 23.202-48.776 47.134-48.776 24.845 0 40.373 12.422 40.922 45.123h-59.553c.543 29.594 11.688 37.632 30.32 37.632 11.145 0 19.73-3.288 26.492-6.76v6.03c-6.393 6.941-20.093 16.44-38.18 16.44-31.607-.365-47.135-18.998-47.135-49.689m28.316-10.595 30.875-1.645c0-21.739-2.922-29.777-13.699-29.777-9.135 0-16.446 8.769-17.176 31.422" style="stroke-width:5.66315"/>
  <path fill="#00a82d" d="M58.241 49.507c0 2.192-.182 5.846-2.374 8.22-2.375 2.193-6.029 2.376-8.22 2.376H24.262c-6.76 0-10.779 0-13.519.365-1.461.182-3.288.913-4.201 1.279-.366.182-.366 0-.183-.183L59.703 7.307c.183-.182.365-.182.183.183-.366.913-1.096 2.74-1.28 4.202-.365 2.74-.365 6.759-.365 13.518zm49.69 164.048c-6.211-4.018-9.5-9.316-10.778-12.605-1.279-3.105-2.01-6.576-2.01-10.047 0-15.163 12.423-27.585 27.768-27.585a8.186 8.186 0 0 1 8.22 8.22c0 3.106-1.643 5.664-4.2 7.125-.914.548-2.193.913-3.106 1.096-.914.183-4.385.549-6.029 2.01-1.827 1.461-3.288 3.836-3.288 6.394 0 2.74 1.096 5.297 2.922 7.124 3.289 3.289 7.673 5.115 12.423 5.115 12.422 0 22.47-10.047 22.47-22.47 0-11.143-7.49-21.008-17.355-25.393-1.461-.73-3.836-1.278-6.028-1.826-2.74-.548-5.298-.913-5.48-.913-7.674-.914-26.855-6.942-28.134-23.932 0 0-5.663 25.576-16.99 32.518-1.095.548-2.557 1.095-4.2 1.461-1.645.365-3.472.548-4.02.548-18.45 1.096-37.998-4.75-51.516-18.634 0 0-9.134-7.49-13.884-28.498-1.096-5.115-3.289-14.25-4.567-22.835-.548-3.106-.731-5.481-.914-7.673 0-8.951 5.48-14.98 12.423-15.893H48.924c6.395 0 10.049-1.644 12.423-3.837 3.106-2.922 3.836-7.124 3.836-12.057V12.422C66.097 5.663 72.125 0 81.077 0h4.384c1.827 0 4.02.183 6.029.365 1.461.183 2.74.548 4.932 1.096 11.144 2.74 13.519 14.067 13.519 14.067s21.008 3.654 31.604 5.48c10.047 1.827 34.892 3.471 39.642 28.499 11.144 59.554 4.384 117.282 3.836 117.282-7.855 56.266-54.622 53.526-54.622 53.526-10.047 0-17.537-3.289-22.47-6.76M149.948 93.9c-6.028-.549-11.144 1.827-12.97 6.393-.366.914-.731 2.01-.548 2.558.182.548.548.731.913.913 2.192 1.097 5.846 1.645 11.144 2.193 5.297.548 8.951.913 11.326.548.365 0 .73-.183 1.096-.73.366-.549.183-1.645.183-2.558-.73-5.116-5.115-8.587-11.144-9.317" style="stroke-width:5.66315"/>
</svg>
