<svg xmlns="http://www.w3.org/2000/svg" viewBox="0 0 256 230.319">
  <path fill="#000020" d="M121.309 84.673c2.093-3.086 4.385-3.478 6.244-3.478 1.86 0 4.957.392 7.051 3.478 16.502 22.667 43.741 67.819 63.835 101.126 13.103 21.72 23.168 38.403 25.233 40.526 7.75 7.97 18.381 3.003 24.559-6.037 6.081-8.9 7.769-15.15 7.769-21.817 0-4.54-88.105-168.4-96.978-182.039C150.49 3.314 147.71 0 133.105 0h-10.928c-14.561 0-16.666 3.314-25.2 16.432C88.106 30.072 0 193.93 0 198.472c0 6.666 1.688 12.916 7.77 21.816 6.177 9.04 16.807 14.007 24.559 6.037 2.065-2.123 12.129-18.805 25.233-40.526 20.093-33.307 47.245-78.46 63.747-101.126z"/>
</svg>
