<svg xmlns="http://www.w3.org/2000/svg" viewBox="0 0 255.004 193.659">
  <path fill="#fec32d" d="M195.106 177.436c-1.291 5.534-1.954 8.904-4.709 12.623-1.837 2.48-4.845 3.904-7.91 3.545-2.664-.31-5.243-1.452-7.835-2.45-29.986-11.541-54.186-31.862-78.634-51.809-5.828-4.754-18.125-15.761-25.108-21.544 17.002-12.02 24.04-19.454 24.04-19.454 27.399 23.786 59.342 51.632 92.679 65.56 5.312 2.22 10.283 1.5 7.477 13.53M161.22 88.037c-7.713-6.096-21.203-16.215-28.82-22.09-19.353-14.929-39.993-27.388-63.672-34.487-12.825-3.845-14.509-16.736-4.813-28.122 1.762-2.07 4.517-3.43 7.18-2.872 44.1 9.233 77.473 36.255 114.637 70.36-12.574 6.643-24.512 17.21-24.512 17.21"/>
  <path fill="#2c6db0" d="M134.654 120.044c27.536-27.872 81.001-61.547 107.964-62.785a8.701 8.701 0 0 1 7.8 4.117c2.656 4.308 3.515 9.466 4.308 14.538.766 4.9-1.79 9.084-6.437 10.385-32.212 9.023-63.496 30.96-88.889 51.905-8.54-4.034-24.746-18.16-24.746-18.16M119.623 67.269c-31.632 26.413-65.956 57.926-103.062 69.207-3.133.953-6.591.167-8.844-2.209-3.032-3.196-4.192-6.486-5.421-9.687-4.293-11.185-3.076-14.457 8.038-18.734 26.09-10.043 47.799-26.732 68.802-44.573 3.18-2.701 9.489-7.888 12.968-10.749 11.506 3.084 27.52 16.745 27.52 16.745M62.634 164.725c9.072-4.649 23.037-10.135 32.142-15.25 7.354 6.484 24.381 19.402 24.381 19.402-12.346 8.254-32.039 20.543-45.748 24.088-3.314.857-6.833-.433-8.927-3.141-4.008-5.187-6.326-10.693-6.526-17.246-.1-3.287 1.753-6.354 4.678-7.853M136.186 20.028C152.397 10.223 170.638 2.86 183.137.185c3.438-.735 7.03.766 8.917 3.732 3.587 5.64 5.078 11.306 4.711 17.505-.18 3.058-1.876 5.833-4.563 7.3-7.841 4.283-21.808 7.622-29.834 11.125 0 0-14.155-11.94-26.182-19.819"/>
  <path fill="#fec32d" d="M232.628 101.036c21.895 8.504 29.971 11.387 13.997 33.451-1.872 2.586-4.848 2.603-7.956 1.869-9.962-2.353-27.64-12.54-37.425-18.232 18.037-12.478 31.384-17.088 31.384-17.088M25.202 91.151c-5.407-1.545-15.693-3.177-20.404-6.046-2.13-1.297-3.562-3.555-3.868-6.03-.774-6.256.833-11.89 3.884-17.56a8.672 8.672 0 0 1 8.567-4.502c10.5 1.166 29.473 9.1 39.745 13.797C38.25 84.508 25.202 91.15 25.202 91.15"/>
</svg>
