<svg xmlns="http://www.w3.org/2000/svg" viewBox="0 0 256 255.808">
  <path fill="#080949" d="m58.707 196.33-2.31 1.54c-5.39 3.08-5.39 10.78 0 14.63l59.284 39.265c7.7 5.39 18.478 5.39 26.178 0l58.514-38.496c5.39-3.08 5.39-10.779 0-14.628l-3.08-1.54-20.018 13.858-40.036 26.948c-5.39 3.85-12.319 3.85-17.708 0l-40.036-26.948zM30.22 133.198l-3.08 2.31c-6.93 4.62-6.93 15.398 0 20.018l83.152 56.204c10.779 7.7 25.407 7.7 36.956 0l82.382-54.664c6.93-4.62 6.93-15.399 0-20.018l-3.85-2.31-28.487 18.478-56.204 37.726c-7.7 5.39-17.709 4.62-25.408 0zm219.428-58.514L149.558 6.929c-13.089-9.239-30.797-9.239-44.656 0L6.352 73.143c-8.47 6.16-8.47 18.478 0 24.637l100.09 66.984c13.089 9.239 30.797 9.239 43.886 0l99.32-66.214c8.47-5.39 8.47-18.478 0-23.867zM211.152 94.7l-67.753 45.425c-9.24 6.16-20.788 6.16-30.028 0L44.848 93.931c-6.16-3.85-6.16-12.319 0-16.939l67.754-45.425c9.239-6.16 20.787-6.16 30.027 0l68.523 46.195c6.16 4.62 6.16 13.09 0 16.939z"/>
</svg>
