<svg xmlns="http://www.w3.org/2000/svg" viewBox="0 0 256 298.842">
  <path fill="#4cad31" d="M188.222 191.804v.01l-60.144 35.725-.078-.047v-.004l-60.218-35.674L7.56 227.488 128 298.842l120.444-71.354-60.222-35.684"/>
  <path fill="#64b32c" d="m128 227.488 60.218 35.67L128 298.842v-71.354"/>
  <path fill="#8bbe2d" d="M67.782 191.814v71.344L7.56 227.488l60.222-35.674"/>
  <path fill="#76b828" d="M128 227.488v71.354l-60.218-35.684L128 227.488"/>
  <path fill="#5db12e" d="M188.222 263.158v-71.344L128 227.488l60.222 35.67"/>
  <path fill="#82bb24" d="m67.782 263.158 60.296-35.619-60.296-35.725v71.344"/>
  <g>
    <path fill="#751f82" d="m256 71.354-.007-.004v-.003l-.003.002L135.553 0v71.347l60.222 35.681v71.358l60.218 35.67V71.359l.007-.005"/>
    <path fill="#934c98" d="m195.775 107.028 60.218 35.674V71.347l-60.218 35.681"/>
    <path fill="#8a398d" d="m195.775 107.028-.004-71.354L256 71.354l-60.225 35.674"/>
    <path fill="#b987bb" d="m195.775 178.386 60.218 35.67v-71.354l-60.218 35.684"/>
    <path fill="#a466a7" d="m255.993 142.702-60.218 35.684v-71.358l60.218 35.674"/>
    <path fill="#7b1f82" d="m195.771 35.674-60.218 35.673 60.222 35.681-.004-71.354"/>
  </g>
  <g>
    <path fill="#0062ae" d="m.008 71.35-.004-.003v.005L0 71.354l.004.002v142.7l60.218-35.67v-71.358l60.225-35.681V0L.008 71.35"/>
    <path fill="#007ec6" d="M60.222 107.028.004 142.712V71.347l60.218 35.681"/>
    <path fill="#26b2e7" d="M120.447 71.347 60.225 35.674 120.447 0v71.347"/>
    <path fill="#008bd0" d="M60.222 107.028 0 71.354l60.225-35.68-.003 71.354"/>
    <path fill="#0071bb" d="m.004 142.712 60.218 35.674v-71.358L.004 142.712"/>
    <path fill="#009ddc" d="m60.225 35.674-.003 71.354 60.225-35.681-60.222-35.673"/>
  </g>
</svg>
