<svg xmlns="http://www.w3.org/2000/svg" viewBox="0 0 256.005 243.712">
  <radialGradient id="a" cx="-122.39" cy="442.72" r="29.58" gradientTransform="matrix(4.1728 0 0 -4.1728 561.03 1899.5)" gradientUnits="userSpaceOnUse">
    <stop offset="0" stop-color="#fff"/>
    <stop offset="1" stop-color="#007808"/>
  </radialGradient>
  <g stroke-width="4.173">
    <path fill="#0b4819" d="M2.132 51.592V21.19l20.41 7.031v28.283zM18.59 176.581V63.541l19.508 4.127v105.06z"/>
    <path fill="#105c80" d="m114.002 21.14-50.136 57.5v24.47l74.359-83.844 117.78-9.117-173.24 180.57 23.063 1.214 125.83-128.7v121.64l-13.98 13.14 35.453 1.915v33.666l-111.2-8.612 56.687-54.993v-27.102l-81.043 80.209-97.042-7.503 155.66-167.4-25.617 1.385-112.47 123.14V67.658l10.653-12.577-26.21 1.42V28.216z"/>
    <path fill="#0b4819" d="m18.59 63.534 11.283-13.582 18.878 5.133-10.653 12.577z"/>
    <path fill="#084010" d="m45.917 75.272 17.95 3.368v24.469l-17.95-1.47z"/>
    <path fill="#0c541e" d="m66.013 196.141 16.749-5.424 23.063 1.214-15.218 5.629z"/>
    <path fill="#1a5c34" d="m99.346 12.961 14.659 8.179-50.136 57.5-17.951-3.367z"/>
    <path fill="#0b4819" d="m45.917 101.641 79.358-90.875 12.952 8.5-74.36 83.843z"/>
    <path fill="#1a5c34" d="m138.512 43.53 12.05 6.05-112.47 123.14-19.507 3.856z"/>
    <path fill="#0b4819" d="m0 222.591 166.07-180.69 10.115 6.293-155.66 167.4z"/>
    <path fill="#1a5c34" d="m190.262 144.701 8.345-1.81-81.043 80.208-14.413 8.229z"/>
    <path fill="#0b4819" d="M190.262 174.161v-29.46l8.345-1.81v27.101zM129.242 233.531l61.023-59.37 8.345-4.168-56.687 54.993z"/>
    <path fill="#13802d" d="m226.032 190.481-15.147 14.233 6.793-6.697 13.979-13.14z"/>
    <path fill="#0b4819" d="m90.608 197.561 135.42-139.56 5.625 5.233-125.83 128.7z"/>
    <path fill="#084010" d="m226.032 58.001 5.625 5.233v121.64l-5.625 5.604zM249.362 206.981l3.768-7.056v33.666l-3.768 10.106z"/>
    <path fill="#1a5c34" d="m252.482 0 3.522 10.148-173.24 180.57-16.75 5.425z"/>
    <path fill="url(#a)" d="M99.344 19.11 45.916 81.422v26.368l79.358-90.875 127.21-10.766-186.47 196.15 24.594 1.419 135.42-139.56v132.48l-15.147 14.233 38.477 2.274v36.716l-120.12-10.173 61.023-59.37v-29.46l-87.111 86.627L0 228.75l166.07-180.69-27.553 1.628-119.93 133.05V69.699L29.87 56.117l-27.741 1.64V27.354z" style="fill:url(#a)" transform="translate(.002 -6.149)"/>
  </g>
</svg>
