<?xml version="1.0" encoding="UTF-8"?>
<svg width="256" height="256" version="1.1" viewBox="0 0 256 256" xmlns="http://www.w3.org/2000/svg">
 <radialGradient id="a" cx="-122.39" cy="442.72" r="29.58" gradientTransform="matrix(4.1728 0 0 -4.1728 561.03 1899.5)" gradientUnits="userSpaceOnUse">
  <stop stop-color="#fff" offset="0"/>
  <stop stop-color="#007808" offset="1"/>
 </radialGradient>
 <g stroke-width="4.1728">
  <path d="m2.1306 57.741v-30.403l20.409 7.0311v28.283z" fill="#0b4819"/>
  <path d="m18.588 182.73v-113.04l19.508 4.1269v105.06z" fill="#0b4819"/>
  <path d="m114 27.288-50.136 57.501v24.469l74.359-83.843 117.78-9.1175-173.24 180.57 23.063 1.2143 125.83-128.7v121.64l-13.979 13.14 35.452 1.9153v33.666l-111.2-8.6126 56.687-54.993v-27.102l-81.043 80.209-97.042-7.5026 155.66-167.4-25.617 1.3854-112.47 123.14v-105.06l10.653-12.577-26.209 1.4187v-28.283z" fill="#105c80"/>
  <path d="m18.588 69.683 11.283-13.582 18.878 5.1325-10.653 12.577z" fill="#0b4819"/>
  <path d="m45.915 81.421 17.951 3.3674v24.469l-17.951-1.4688z" fill="#084010"/>
  <path d="m66.011 202.29 16.749-5.4246 23.063 1.2143-15.218 5.6291z" fill="#0c541e"/>
  <path d="m99.344 19.11 14.659 8.1786-50.136 57.501-17.951-3.3674z" fill="#1a5c34"/>
  <path d="m45.915 107.79 79.358-90.875 12.952 8.4999-74.359 83.843z" fill="#0b4819"/>
  <path d="m138.51 49.679 12.051 6.0505-112.47 123.14-19.508 3.8556z" fill="#1a5c34"/>
  <path d="m-0.001711 228.74 166.07-180.69 10.115 6.2925-155.66 167.4z" fill="#0b4819"/>
  <path d="m190.26 150.85 8.3455-1.811-81.043 80.209-14.413 8.2287z" fill="#1a5c34"/>
  <path d="m190.26 180.31v-29.46l8.3455-1.811v27.102z" fill="#0b4819"/>
  <path d="m129.24 239.68 61.023-59.37 8.3455-4.1686-56.687 54.993z" fill="#0b4819"/>
  <path d="m226.03 196.63-15.147 14.233 6.7933-6.6973 13.979-13.14z" fill="#13802d"/>
  <path d="m90.606 203.71 135.42-139.56 5.6249 5.2326-125.83 128.7z" fill="#0b4819"/>
  <path d="m226.03 64.15 5.6249 5.2326v121.64l-5.6249 5.604z" fill="#084010"/>
  <path d="m249.36 213.13 3.768-7.0562v33.666l-3.768 10.106z" fill="#084010"/>
  <path d="m252.48 6.1489 3.5218 10.148-173.24 180.57-16.749 5.4246z" fill="#1a5c34"/>
  <path d="m99.344 19.11-53.428 62.312v26.368l79.358-90.875 127.21-10.766-186.47 196.15 24.594 1.4187 135.42-139.56v132.48l-15.147 14.233 38.477 2.2742v36.716l-120.12-10.173 61.023-59.37v-29.46l-87.111 86.627-103.15-8.7336 166.07-180.69-27.553 1.6274-119.93 133.05v-113.04l11.283-13.582-27.741 1.6399v-30.403z" fill="url(#a)"/>
 </g>
</svg>
