<svg xmlns="http://www.w3.org/2000/svg" xmlns:xlink="http://www.w3.org/1999/xlink" viewBox="0 0 304.622 558.861">
  <defs>
    <filter id="b" width="2" height="2" x="-.5" y="-.5" filterUnits="objectBoundingBox">
      <feGaussianBlur in="SourceAlpha" result="shadowBlurInner1" stdDeviation="17.5"/>
      <feOffset in="shadowBlurInner1" result="shadowOffsetInner1"/>
      <feComposite in="shadowOffsetInner1" in2="SourceAlpha" k2="-1" k3="1" operator="arithmetic" result="shadowInnerInner1"/>
      <feColorMatrix in="shadowInnerInner1" values="0 0 0 0 0 0 0 0 0 0 0 0 0 0 0 0 0 0 0.06 0"/>
    </filter>
    <filter id="d" width="2" height="2" x="-.5" y="-.5" filterUnits="objectBoundingBox">
      <feGaussianBlur in="SourceAlpha" result="shadowBlurInner1" stdDeviation="3.5"/>
      <feOffset dx="1" dy="-9" in="shadowBlurInner1" result="shadowOffsetInner1"/>
      <feComposite in="shadowOffsetInner1" in2="SourceAlpha" k2="-1" k3="1" operator="arithmetic" result="shadowInnerInner1"/>
      <feColorMatrix in="shadowInnerInner1" values="0 0 0 0 0 0 0 0 0 0 0 0 0 0 0 0 0 0 0.09 0"/>
    </filter>
    <path id="a" d="m1.253 280.732 1.605-3.131 99.353-188.518-44.15-83.475C54.392-1.283 45.074.474 43.87 8.188z"/>
    <path id="c" d="m134.417 148.974 32.039-32.812-32.039-61.007c-3.042-5.791-10.433-6.398-13.443-.59l-17.705 34.109-.53 1.744z"/>
  </defs>
  <path fill="#ffc24a" d="m49.226 421.411 2.123-2.972 100.405-190.513.212-2.017-44.26-83.137c-3.709-6.964-14.148-5.203-15.365 2.592z"/>
  <g transform="translate(49.226 138.414)">
    <use width="100%" height="100%" fill="#ffa712" fill-rule="evenodd" xlink:href="#a"/>
    <use width="100%" height="100%" filter="url(#b)" xlink:href="#a"/>
  </g>
  <path fill="#f4bd62" d="m184.231 288.794 32.956-33.75-32.965-62.93c-3.13-5.958-11.867-5.975-14.963 0l-17.612 33.588v2.86z"/>
  <g transform="translate(49.226 138.414)">
    <use width="100%" height="100%" fill="#ffa50e" fill-rule="evenodd" xlink:href="#c"/>
    <use width="100%" height="100%" filter="url(#d)" xlink:href="#c"/>
  </g>
  <path fill="#f6820c" d="m53.684 419.023 128.478-128 1.628-4.43-32.05-61.074L49.226 421.41l.963-.967z"/>
  <path fill="#fde068" d="m188.347 485.965 116.275-64.848-33.204-204.494c-1.038-6.398-8.888-8.927-13.467-4.34L49.227 421.412l115.608 64.547a24.127 24.127 0 0 0 23.512.006"/>
  <path fill="#fcca3f" d="m303.58 420.574-32.952-202.942c-1.03-6.35-7.558-8.977-12.102-4.424L50.516 421.015l114.338 63.908a23.944 23.944 0 0 0 23.334.006z"/>
  <path fill="#eeab37" d="M188.347 484.055a24.125 24.125 0 0 1-23.512-.006l-114.677-63.62-.931.983 115.608 64.547a24.127 24.127 0 0 0 23.512.006l116.275-64.847-.284-1.752z"/>
</svg>
