<svg viewBox="0 0 468.22 131.07" xmlns="http://www.w3.org/2000/svg" xmlns:xlink="http://www.w3.org/1999/xlink">
 <defs>
  <linearGradient id="a" x1="24.29" x2="140.67" y1="24.097" y2="108.75" gradientTransform="scale(.85158 1.1743)" gradientUnits="userSpaceOnUse">
   <stop stop-color="#fff" stop-opacity=".1" offset="0"/>
   <stop stop-color="#fff" stop-opacity=".08" offset=".14"/>
   <stop stop-color="#fff" stop-opacity=".02" offset=".61"/>
   <stop stop-color="#fff" stop-opacity="0" offset="1"/>
  </linearGradient>
  <path id="b" d="m106.69 35.274c-0.186-1.0977-0.967-2-2.0244-2.338s-2.2148-0.057-3.0002 0.73l-15.415 15.5-12.12-23.146c-0.5133-0.9786-1.525-1.5914-2.6273-1.5914s-2.114 0.6128-2.6273 1.5914l-6.6277 12.656-16.625-31.104c-0.603-1.1297-1.8588-1.746-3.118-1.5297s-2.2394 1.216-2.4335 2.4827l-16.068 103.18 42.973 24.165c2.6985 1.5113 5.985 1.5113 8.6836 0l43.344-24.165-12.313-76.427z"/>
 </defs>
 <path d="m139.99 100.55h-8.7732v-67.752h39.844v8.324h-31.07v22.244h28.025v8.1318h-28.025v29.053zm47.567-58.002c-2.0914 2.085-5.3755 2.4125-7.843 0.7823s-3.4307-4.764-2.3-7.4837 4.0395-4.2678 6.9472-3.6968 5.0038 3.102 5.0058 6.044c0.0282 1.6386-0.6298 3.2154-1.8172 4.3542h7e-3zm0 58.002h-8.7732v-46.366h8.7732v46.366zm19.252 0h-8.7732v-46.366h8.386v7.57h0.3798c1.013-2.6676 2.9584-4.8847 5.4814-6.2467 2.4094-1.5352 5.196-2.3866 8.0582-2.4617 2.247-0.0634 4.4835 0.3238 6.5762 1.1384l-3.3365 8.1317a13.355 13.355 0 0 0-4.6696-0.6653c-3.217 0.0162-6.2788 1.3736-8.438 3.7406-2.4477 2.4937-3.6716 5.7588-3.6716 9.795l7e-3 25.364zm44.149 1.4785c-7.0553 0-12.79-2.3336-17.204-7s-6.6233-10.554-6.6283-17.661c-0.1296-6.3986 2.167-12.612 6.4347-17.409 4.0874-4.775 10.134-7.455 16.444-7.29 6.9262 0 12.472 2.24 16.638 6.7198s6.246 10.473 6.24 17.979l-0.0968 1.6116h-36.902c0.2532 4.667 1.827 8.3634 4.7217 11.089 2.707 2.6374 6.358 4.1 10.15 4.066 6.2907 0 10.548-2.65 12.772-7.947l7.82 3.2157c-1.5846 3.666-4.1984 6.802-7.5294 9.0336-3.5 2.3952-7.7876 3.5928-12.862 3.5928zm12.586-30.309c-0.1887-2.6514-1.4125-5.1747-3.6716-7.57s-5.618-3.568-10.076-3.5188c-3.0924-0.0538-6.0964 1.0253-8.438 3.031-2.4532 2.1338-4.1698 4.978-4.908 8.1317l27.094-0.074zm41.036 30.309c-3.3194 0.0653-6.6022-0.6972-9.5477-2.2177-2.5867-1.295-4.7755-3.2558-6.3378-5.6774h-0.3798v6.4167h-8.3933v-67.752h8.7732v21.387l-0.3798 6.4315h0.3798c1.5623-2.4217 3.751-4.3825 6.3378-5.6774 2.941-1.5382 6.224-2.3186 9.5477-2.2695 6.0374 0 11.251 2.3656 15.64 7.0968s6.581 10.598 6.5762 17.602c-5e-3 7.0031-2.192 12.87-6.5762 17.602s-9.5974 7.0845-15.64 7.0598zm-1.43-7.947c3.9965 0.0315 7.8147-1.64 10.486-4.5907 2.9244-3.0605 4.3866-7.114 4.3866-12.161s-1.4622-9.1-4.3866-12.161c-2.702-2.9154-6.5078-4.578-10.499-4.5865s-7.8038 1.6382-10.518 4.542c-2.8896 3.026-4.3345 7.0943-4.3345 12.205s1.4597 9.1913 4.379 12.242c2.688 2.9397 6.5166 4.5948 10.516 4.5464l-0.0298-0.037zm45.981 7.947c-4.965 0-9.1108-1.4194-12.437-4.258-3.3265-2.8386-4.9948-6.5916-5.0047-11.259 0-5.0466 1.971-9.004 5.9133-11.872s8.803-4.3024 14.582-4.3024c5.1487 0 9.37 0.9462 12.661 2.8387v-1.3232c0.1257-3.1165-1.1712-6.123-3.53-8.1835-2.402-2.0534-5.493-3.1376-8.6615-3.0383-2.4248-0.03-4.813 0.5898-6.9113 1.7964-1.9657 1.0808-3.4728 2.8288-4.245 4.9234l-8.006-3.408c1.0824-2.7845 3.2124-5.367 6.4-7.7473s7.373-3.5632 12.586-3.5484c5.958 0 10.923 1.725 14.895 5.1747s5.943 8.3387 5.9133 14.667v28.062h-8.4157v-6.4315h-0.3798c-3.5 5.2733-8.6168 7.9-15.349 7.9zm1.43-7.947c3.6866-0.0128 7.2254-1.4406 9.8754-3.9846 2.8243-2.3633 4.4585-5.84 4.4685-9.5068-2.4825-2.0206-6.2063-3.031-11.171-3.031-4.26 0-7.47 0.9142-9.6296 2.7426-2.0156 1.538-3.2095 3.9082-3.2397 6.4315-0.041 2.1958 1.0925 4.25 2.98 5.3965 1.984 1.324 4.327 2.0176 6.7177 1.9886v-0.037zm48.521 7.947c-5.2133 0-9.518-1.2617-12.914-3.785-3.304-2.4223-5.8792-5.694-7.4475-9.4624l7.82-3.2157c2.4825 5.8056 6.7028 8.7084 12.661 8.7084 2.3668 0.0962 4.7064-0.5308 6.7028-1.7964 1.6462-1.0145 2.64-2.808 2.6215-4.7312 0-3.026-2.13-5.0762-6.4-6.1506l-9.436-2.2695c-3.105-0.8154-5.9977-2.2826-8.4827-4.3024-2.645-2.0476-4.1362-5.2334-4.0068-8.5605 0-4.1 1.827-7.427 5.4814-9.98 3.8225-2.6045 8.3758-3.9447 13.011-3.8293 3.87-0.0614 7.6858 0.906 11.052 2.8018 3.178 1.791 5.6352 4.6164 6.956 7.9987l-7.6188 3.09c-1.713-4.1-5.2728-6.1506-10.68-6.1506-2.3-0.076-4.576 0.482-6.5762 1.6116-1.6387 0.8427-2.667 2.5222-2.6662 4.3542 0 2.6514 2.0654 4.4503 6.1963 5.3965l9.2424 2.1808c4.384 0.9857 7.6263 2.7106 9.7265 5.1747 2.0343 2.302 3.1518 5.262 3.1428 8.324 0.0406 4.0824-1.868 7.943-5.1462 10.409-3.4308 2.7894-7.8472 4.1842-13.249 4.1842zm47.187 0c-7.0553 0-12.79-2.3336-17.204-7s-6.6236-10.567-6.6286-17.698c-0.1296-6.3986 2.167-12.612 6.4347-17.409 4.1028-4.763 10.156-7.4287 16.466-7.252 6.95 0 12.497 2.24 16.638 6.7198s6.2211 10.473 6.2411 17.978l-0.0968 1.6116h-36.933c0.2532 4.667 1.827 8.3634 4.7217 11.089 2.7148 2.6374 6.375 4.095 10.173 4.051 6.2907 0 10.548-2.65 12.772-7.947l7.82 3.2157c-1.5842 3.6662-4.198 6.8022-7.5294 9.0336-3.5 2.405-7.7926 3.6075-12.877 3.6075zm12.586-30.309c-0.1887-2.6514-1.4125-5.1747-3.6716-7.57s-5.613-3.568-10.062-3.5188c-3.0923-0.053-6.096 1.026-8.438 3.031-2.4532 2.1338-4.1698 4.978-4.908 8.1317l27.079-0.074z" opacity=".54"/>
 <path d="m0.052 105.75 16.132-103.23c0.1972-1.266 1.1818-2.264 2.445-2.4786s2.522 0.4028 3.126 1.5327l16.684 31.117 6.65-12.662c0.515-0.979 1.5303-1.592 2.6366-1.592s2.1215 0.613 2.6366 1.592l45.023 85.718h-95.333z" fill="#ffa000"/>
 <path d="m55.785 65.538-17.354-32.86-38.379 73.072z" fill="#f57c00"/>
 <path d="m95.385 105.75-12.356-76.46c-0.1867-1.098-0.9703-2-2.0315-2.34s-2.2226-0.057-3.0107 0.7302l-77.935 78.069 43.123 24.183c2.708 1.512 6.006 1.512 8.714 0l43.496-24.183z" fill="#ffca28"/>
 <path d="m83.029 29.289c-0.1867-1.098-0.9703-2-2.0315-2.34s-2.2226-0.057-3.0107 0.7302l-15.468 15.508-12.164-23.156c-0.515-0.979-1.5303-1.592-2.6366-1.592s-2.1215 0.613-2.6366 1.592l-6.65 12.662-16.684-31.117c-0.605-1.1302-1.8653-1.7466-3.13-1.5304s-2.246 1.2167-2.441 2.4837l-16.125 103.22h-0.052l0.052 0.0596 0.4245 0.2085 77.488-77.578c0.7877-0.7915 1.952-1.076 3.016-0.737s1.849 1.2445 2.0338 2.3457l12.252 75.775 0.1192-0.0745-12.356-76.46zm-82.836 76.319 15.991-102.35c0.1948-1.267 1.1784-2.2675 2.442-2.4837s2.524 0.4 3.13 1.5304l16.682 31.117 6.65-12.662c0.515-0.979 1.5303-1.592 2.6366-1.592s2.1215 0.613 2.6366 1.592l11.917 22.664-62.086 62.183z" fill="#fff" fill-opacity=".2"/>
 <path d="m51.89 129.2c-2.708 1.512-6.006 1.512-8.714 0l-43.019-24.116-0.1043 0.663 43.123 24.176c2.708 1.512 6.006 1.512 8.714 0l43.496-24.176-0.1117-0.6852-43.384 24.139z" fill="#a52714" opacity=".2"/>
 <use transform="translate(-23.781 -5.9698)" width="100%" height="100%" fill="url(#a)" xlink:href="#b"/>
</svg>
