<svg viewBox="0 0 95.385 131.07" xmlns="http://www.w3.org/2000/svg" xmlns:xlink="http://www.w3.org/1999/xlink">
 <defs>
  <linearGradient id="a" x1="24.29" x2="140.67" y1="24.097" y2="108.75" gradientTransform="scale(.85158 1.1743)" gradientUnits="userSpaceOnUse">
   <stop stop-color="#fff" stop-opacity=".1" offset="0"/>
   <stop stop-color="#fff" stop-opacity=".08" offset=".14"/>
   <stop stop-color="#fff" stop-opacity=".02" offset=".61"/>
   <stop stop-color="#fff" stop-opacity="0" offset="1"/>
  </linearGradient>
  <path id="b" d="m106.69 35.274c-0.186-1.0977-0.967-2-2.0244-2.338s-2.2148-0.057-3.0002 0.73l-15.415 15.5-12.12-23.146c-0.5133-0.9786-1.525-1.5914-2.6273-1.5914s-2.114 0.6128-2.6273 1.5914l-6.6277 12.656-16.625-31.104c-0.603-1.1297-1.8588-1.746-3.118-1.5297s-2.2394 1.216-2.4335 2.4827l-16.068 103.18 42.973 24.165c2.6985 1.5113 5.985 1.5113 8.6836 0l43.344-24.165-12.313-76.427z"/>
 </defs>
 <path d="m0.052 105.75 16.132-103.23c0.1972-1.266 1.1818-2.264 2.445-2.4786s2.522 0.4028 3.126 1.5327l16.684 31.117 6.65-12.662c0.515-0.979 1.5303-1.592 2.6366-1.592s2.1215 0.613 2.6366 1.592l45.023 85.718h-95.333z" fill="#ffa000"/>
 <path d="m55.785 65.538-17.354-32.86-38.379 73.072z" fill="#f57c00"/>
 <path d="m95.385 105.75-12.356-76.46c-0.1867-1.098-0.9703-2-2.0315-2.34s-2.2226-0.057-3.0107 0.7302l-77.935 78.069 43.123 24.183c2.708 1.512 6.006 1.512 8.714 0l43.496-24.183z" fill="#ffca28"/>
 <path d="m83.029 29.289c-0.1867-1.098-0.9703-2-2.0315-2.34s-2.2226-0.057-3.0107 0.7302l-15.468 15.508-12.164-23.156c-0.515-0.979-1.5303-1.592-2.6366-1.592s-2.1215 0.613-2.6366 1.592l-6.65 12.662-16.684-31.117c-0.605-1.1302-1.8653-1.7466-3.13-1.5304s-2.246 1.2167-2.441 2.4837l-16.125 103.22h-0.052l0.052 0.0596 0.4245 0.2085 77.488-77.578c0.7877-0.7915 1.952-1.076 3.016-0.737s1.849 1.2445 2.0338 2.3457l12.252 75.775 0.1192-0.0745-12.356-76.46zm-82.836 76.319 15.991-102.35c0.1948-1.267 1.1784-2.2675 2.442-2.4837s2.524 0.4 3.13 1.5304l16.682 31.117 6.65-12.662c0.515-0.979 1.5303-1.592 2.6366-1.592s2.1215 0.613 2.6366 1.592l11.917 22.664-62.086 62.183z" fill="#fff" fill-opacity=".2"/>
 <path d="m51.89 129.2c-2.708 1.512-6.006 1.512-8.714 0l-43.019-24.116-0.1043 0.663 43.123 24.176c2.708 1.512 6.006 1.512 8.714 0l43.496-24.176-0.1117-0.6852-43.384 24.139z" fill="#a52714" opacity=".2"/>
 <use transform="translate(-23.781 -5.9698)" width="100%" height="100%" fill="url(#a)" xlink:href="#b"/>
</svg>
