<svg xmlns="http://www.w3.org/2000/svg" viewBox="0 0 256 256">
  <path d="M256 28.462V128c0 70.692-57.308 128-128 128H22.37l64.312-65.894 14.336 14.336-31.207 31.2c4.027.008 9.859.012 16.293.016H87.6l2.276.002H92.179l1.549.002h3.107l.777.001h2.324l.772.001H103.765l3.725.002h5.62l6.702.002h8.183c59.366 0 107.668-48.276 107.668-107.668V125.2l-.001-.486v-1.66l-.001-.619v-1.329l-.001-.709v-1.501l-.001-.792v-1.658l-.002-2.664v-1.884l-.023-48.344v-1.852l-.002-2.612v-2.39l-.001-1.46v-.686l-.001-1.876v-.561l-.002-2.287v-2.604zM233.63 0l-64.312 65.894-14.336-14.336 31.202-31.2c-4.027-.008-9.859-.012-16.293-.016h-1.495l-2.276-.002h-1.534l-.771-.001h-1.548l-.776-.001h-2.331l-.777-.001h-2.325l-.77-.001h-2.298l-.76-.001h-3.725l-.728-.001h-4.219l-.674-.001h-6.701l-.534-.001H128C68.608 20.332 20.332 68.608 20.332 128V130.8l.001 4.093V138.71l.001.842v3.596l.001.952v2.968l.001 1.024v2.094l.001 1.07v3.28l.001 1.116v2.259l.001 1.142v2.302l.002 3.49v2.34l.001 1.17.001 2.34.002 5.798v2.279c.007 15.088.014 27.934.022 28.976v1.024L0 227.533V128C0 57.308 57.308 0 128 0z"/>
</svg>
