<svg xmlns="http://www.w3.org/2000/svg" viewBox="0 0 930.1 244.8">
  <path d="M19.5 122.4c0-56.8 46.1-102.9 102.9-102.9H178l-29.8 29.8L161.9 63l61.5-63H122.3C54.8.1 0 54.8 0 122.4v95.1l19.5-17.9v-77.2zM244.7 27.3l-19.5 17.9v77.2c0 56.8-46.2 102.9-102.9 102.9H66.7l29.8-29.8-13.7-13.7-61.5 63h101c67.6 0 122.3-54.8 122.3-122.3V27.3zM358 34h97v16.3h-78.9v69.2h67.7v16.3h-67.7v82.6H358zM486.2 34H504v149.2c0 17.3 7.9 19.9 14.7 19.9 1.5 0 3-.1 4.4-.3v16c-2.2.3-4.4.5-6.6.5-11 0-30.4-3.4-30.4-32.3zM622.4 136.8h7.3v-3.4c0-25.4-13.9-34.1-32.8-34.1-21.8 0-37.2 12.6-37.2 12.6l-8.4-13.6s17.3-14.9 47-14.9c31.7 0 49.3 17.6 49.3 50.6v84.4h-17V204c0-3.7.2-7.4.5-11h-.5s-11 28.6-44 28.6c-22 0-44.9-12.9-44.9-39.1-.1-44.7 57.9-45.7 80.7-45.7zm-33.1 69.5c25.2 0 40.4-26.2 40.4-49v-5.9h-7.6c-20.7 0-62.2.8-62.2 29.9 0 12.4 9.7 25 29.4 25zM692.9 102.9h-17.3V88h17.6V50h17.6v38h33.1v14.9h-33v65.6c0 31 19.7 34.9 29.6 34.9 2 0 4-.2 6-.5v16c-2.5.4-5.1.6-7.6.5-15.2 0-45.9-5-45.9-49zM780.8 102.9h-17.3V88h17.6V50h17.6v38h33v14.9h-33v65.6c0 31 19.7 34.9 29.6 34.9 2 0 4-.2 6-.5v16c-2.5.4-5.1.6-7.6.5-15.2 0-45.9-5-45.9-49zM863.7 86.4h17.6v23.3c0 5.8-.5 10.5-.5 10.5h.5c6.3-19.9 21-35.1 41.7-35.1 2.4 0 4.8.3 7.1.8v17.6c-2.2-.3-4.4-.5-6.6-.5-18.7 0-32.5 14.7-38.3 34.1-2.5 8.3-3.7 17-3.7 25.7v55.6h-17.8z"/>
</svg>
