<svg xmlns="http://www.w3.org/2000/svg" viewBox="0 0 256 290.236">
  <path fill="#3e81de" d="M13.626 255.83C6.132 255.83 0 249.698 0 242.204V13.627C0 6.131 6.132 0 13.626 0h228.407C249.698 0 256 6.302 256 13.967v228.407c0 7.494-6.132 13.626-13.626 13.626h-60.295l-.511-.681-39.516 34.065a4.184 4.184 0 0 1-2.555.852 3.417 3.417 0 0 1-3.407-3.407v-31h-.34z"/>
  <path fill="#fff" d="M120.102 183.741h16.69v29.462H66.627v-29.462h16.69V70.321h-16.69V40.52h125v46.492h-29.973v-16.69H120.102v41.554h41.553v30.313h-41.553z"/>
</svg>
