<svg xmlns="http://www.w3.org/2000/svg" viewBox="0 0 512 164.145">
  <path fill="#3e81de" d="M112.326 0c16.213 0 29.356 13.14 29.356 29.369v84.678c0 16.22-13.138 29.369-29.356 29.369H99.23l-23.657 20.729v-20.73H29.357C13.143 143.416 0 130.277 0 114.048V29.37C0 13.149 13.139 0 29.357 0zm373.075 43.707c18.345 0 26.599 11.53 26.599 32.621v1.836c0 29.217-17.948 37.602-38.78 37.602-2.882 0-6.029-.133-9.173-.527v12.319h8.776v14.541h-37.335v-14.541h8.779V59.56h-8.779V45.019h28.559v5.371c6.418-3.931 12.185-6.683 21.354-6.683zm-381.73-14.46H41.468v15.298h8.184v58.648h-8.184v15.3h35.193v-15.3h-9.004V81.094h21.28v-15.3h-21.28V44.546H88.12v7.65h15.55zm221.336 15.136c19.402 0 31.173 10.217 31.693 33.758v8.407h-44.37c1.943 10.74 9.443 13.841 22.249 13.841 8.667 0 16.559-1.293 20.825-2.068l.024 14.408s-6.64 1.058-13.666 1.872l-.754.086c-4.151.468-8.359.836-11.343.836-24.319 0-38.291-10.088-38.291-34.538V78.79c0-20.7 11-34.407 33.633-34.407zm73.198 0c19.401 0 31.172 10.217 31.69 33.758v8.407h-44.368c1.944 10.74 9.446 13.841 22.248 13.841 8.67 0 16.556-1.293 20.826-2.068l.025 14.408s-1.495.239-3.818.576l-.51.074c-2.09.3-4.75.667-7.564 1.01l-.706.086c-.354.043-.71.085-1.068.126l-.754.086c-.377.043-.755.084-1.132.125l-.754.08c-3.512.366-6.925.63-9.457.63-24.318 0-38.289-10.087-38.289-34.537V78.79c0-20.7 10.997-34.407 33.631-34.407zM277.563 18.041v77.85c0 4.598 2.602 4.703 5.082 4.214l.309-.064c.873-.188 1.717-.43 2.41-.554v14.253h-.042c-17.985 4.833-27.705-.03-27.726-18.426V18.041zm-31.123-.01v26.244h-16.923v-9.434h-23.453v23.454h23.453V75.35h-23.453V98.8h9.434v16.679h-39.622V98.8h9.435v-63.96h-9.435v-16.81zm230.838 41.926c-5.373 0-10.222 2.093-13.231 4.582v34.587c1.967.788 5.107 1.31 9.042 1.31 10.348 0 18.204-5.766 18.204-21.354V77.38c0-11.665-5.107-17.423-14.015-17.423zm-152.012-.446c-8.41 0-12.548 4.787-13.194 14.879h26c-.13-9.96-4.53-14.879-12.806-14.879zm73.198 0c-8.41 0-12.545 4.787-13.195 14.879h26.003c-.131-9.96-4.534-14.879-12.808-14.879z"/>
</svg>
