<svg xmlns="http://www.w3.org/2000/svg" viewBox="0 0 512 159.197">
  <path d="M21.388 75.82H0V49.936h22.007V42.99C22.007 11.107 37.024 0 66.633 0c8.035 0 14.206 1.237 18.935 2.062l-2.275 25.505c-3.08-1.03-6.158-1.663-11.733-1.663-9.457 0-13.14 6.584-13.14 17.086v6.947h26.807V75.82H58.42v80.918H21.388zm78.16-73.381h37.045v154.298H99.547zm55.518 2.474h37.01v27.163h-37.01zm0 44.91h37.01v106.9h-37.01zM292.498 80.2c-6.797-4.103-13.567-5.945-22.398-5.945-16.07 0-28.4 11.114-28.4 29.615 0 17.051 14.392 28.158 30.434 28.158 8.44 0 16.866-1.834 23.038-5.12l.832 27.554c-9.258 3.079-20.365 4.735-30.255 4.735-35.368 0-62.31-20.577-62.31-55.96 0-35.595 26.949-56.151 62.31-56.151 11.113 0 20.99 1.863 29.423 5.973l-2.68 27.133zm18.928-77.761h37.018v92.166h.405l30.86-45.038h40.516l-37.217 49.177 40.303 57.986h-44.84l-29.622-53.08h-.405v53.073h-37.018V2.425zm198.718 76.744c-4.11-1.245-8.205-1.245-12.536-1.245-17.278 0-26.963 12.565-26.963 33.548v45.244H433.65V49.56h33.725v19.746h.399c6.385-13.58 15.643-22.22 31.691-22.22 4.316 0 8.853.604 12.536 1.237l-1.849 30.86z"/>
</svg>
