<svg xmlns="http://www.w3.org/2000/svg" viewBox="0 0 255.769 352.695">
  <path fill="#00acee" d="M0 213.753c2.182-44.28 22.487-83.376 65.448-108.665C125.266 69.876 185.622 35.578 245.706.818c2.486-1.437 3.21-1.024 4.222 1.585 14.476 37.33.561 76.781-25.458 99.94-2.263 2.014-4.82 3.62-7.444 5.135-31.272 18.04-62.537 36.091-93.792 54.158-4.467 2.582-6.704 6.86-6.007 11.226.762 4.775 4.62 8.731 9.374 9.595 3.068.557 5.673-.695 8.211-2.16 30.664-17.696 61.326-35.395 91.987-53.093 2.916-1.684 5.88-3.29 8.724-5.087 1.641-1.038 2.346-.674 2.99 1.063 4.486 12.123 6.884 24.596 5.991 37.543-1.958 28.376-14.332 51.273-37.586 67.571-11.176 7.834-23.537 13.978-35.371 20.87-5.317 3.096-10.506 6.463-16.022 9.156-12.522 6.114-18.594 16.866-21.363 29.696-5.728 26.537 15.291 51.943 42.454 51.71 1.5-.012 2.998-.27 4.495-.435 1.334-.148 2.378.382 2.724 1.628.327 1.175-.49 2.005-1.54 2.398-3.468 1.3-6.913 2.695-10.453 3.768C102.34 368.16 27.035 327.95 5.905 258.501 1.957 245.52.31 232.194 0 213.753"/>
</svg>
