<svg xmlns="http://www.w3.org/2000/svg" viewBox="0 0 255.153 316.652">
  <defs>
    <linearGradient id="a" x1="182.347" x2="232.256" y1="278.507" y2="291.472" gradientTransform="scale(.99597 1.00404)" gradientUnits="userSpaceOnUse">
      <stop offset="0%" stop-color="#FFD441"/>
      <stop offset="100%" stop-color="#FFB047"/>
    </linearGradient>
    <linearGradient id="b" x1="210.111" x2="236.376" y1="133.446" y2="75.428" gradientTransform="scale(.99597 1.00404)" gradientUnits="userSpaceOnUse">
      <stop offset="0%" stop-color="#FFD754"/>
      <stop offset="100%" stop-color="#FFB532"/>
    </linearGradient>
    <linearGradient id="c" x1="105.638" x2="105.638" y1="58.318" y2="8.215" gradientTransform="scale(.99597 1.00404)" gradientUnits="userSpaceOnUse">
      <stop offset="0%" stop-color="#FFD642"/>
      <stop offset="0%" stop-color="#FFD441"/>
      <stop offset="100%" stop-color="#FFB532"/>
    </linearGradient>
    <linearGradient id="d" x1="86.385" x2="12.322" y1="78.465" y2="61.657" gradientTransform="scale(1.09512 .91314)" gradientUnits="userSpaceOnUse">
      <stop offset="0%" stop-color="#FFD441"/>
      <stop offset="100%" stop-color="#FFA829"/>
    </linearGradient>
  </defs>
  <path fill="#ffdf51" fill-opacity=".7" d="M211.554 309.979V228.12h-81.2l81.2 81.858"/>
  <path fill="#ff8900" fill-opacity=".7" d="M220.666 263.566v-88.533h-87.822l87.822 88.533"/>
  <path fill="url(#a)" fill-opacity=".7" d="M167.467 228.118v88.534h87.822l-87.822-88.534" style="fill:url(#a)" transform="translate(-.135)"/>
  <path fill="#ffdf4f" fill-opacity=".7" d="M202.308 180.962v-70.027h-69.466l69.466 70.027"/>
  <path fill="url(#b)" fill-opacity=".8" d="M235.424 164.267V75.733h-87.822l87.822 88.534" style="fill:url(#b)" transform="translate(-.135)"/>
  <path fill="url(#c)" fill-opacity=".8" d="M85.735 0v88.533h87.822L85.735 0" style="fill:url(#c)" transform="translate(-.135)"/>
  <path fill="url(#d)" fill-opacity=".88" d="M106.334 138.667V50.133H.135l87.443 88.552 18.756-.018" style="fill:url(#d)" transform="translate(-.135)"/>
  <path fill="#ffb700" fill-opacity=".7" d="M106.198 316.175V209.067H0l106.198 107.108"/>
  <path fill="#ffb700" fill-opacity=".5" d="M106.222 227.467v-88.534H18.4l87.822 88.534"/>
  <path fill="#ffcd25" fill-opacity=".7" d="M132.84 110.933v88.534h87.823l-87.822-88.534"/>
  <path fill="#ff8900" fill-opacity=".7" d="M106 120.9V32.365H18.177L106 120.899M130.353 228.118v88.534h87.823l-87.823-88.534"/>
</svg>
