<svg xmlns="http://www.w3.org/2000/svg" viewBox="0 0 256 181.677">
  <path fill="#1db2ca" d="m37.6 90.787-1.022.12L6.224 60.552h-.001A21.185 21.185 0 0 1 0 45.533 21.178 21.178 0 0 1 6.221 30.51c8.296-8.295 21.745-8.295 30.042.001l30.355 30.355-.219 1.55L38.426 90.69 66.5 118.866l.119 2.08-30.088 30.088c-8.297 8.297-21.745 8.299-30.043.002-8.295-8.296-8.295-21.745.003-30.042l30.087-30.087z"/>
  <path fill="#2a3645" d="M127.953 122.204 96.657 90.909l30.645-30.645a48.96 48.96 0 0 1 3.243-3.629c8.788-11.3 7.31-20.6-.169-28.078-4.143-4.143-9.947-6.842-15.376-6.847 0 0-8.667-.041-15.573 6.435-.37.348-.763.677-1.128 1.042L66.617 60.869l-30.04 30.04 30.04 30.04 31.416 31.415a22.83 22.83 0 0 0 1.861 1.65c10.772 8.655 23.404 7.689 31.106-.012 7.702-7.704 7.333-19.667-1.279-29.82a48.725 48.725 0 0 1-1.768-1.978"/>
  <path fill="#6ac08f" d="M165.161 0c-23.172 0-44.313 8.681-60.36 22.962a91.544 91.544 0 0 0-5.374 5.181 21.18 21.18 0 0 1 13.871-5.181h.043a21.179 21.179 0 0 1 15 6.222c7.478 7.478 8.211 19.144 2.204 27.449a49.03 49.03 0 0 1 4.075-3.682c8.36-6.751 18.983-10.806 30.541-10.806 26.85 0 48.694 21.844 48.694 48.694s-21.844 48.694-48.694 48.694c-11.558 0-22.18-4.055-30.54-10.807a49.117 49.117 0 0 1-4.9-4.546c6.601 8.338 6.057 20.48-1.646 28.183-7.7 7.702-19.843 8.248-28.18 1.649a90.913 90.913 0 0 0 4.76 4.573l.065.059c16.058 14.324 37.231 23.033 60.441 23.033 50.17 0 90.84-40.669 90.84-90.838S215.33 0 165.16 0"/>
</svg>
