<svg xmlns="http://www.w3.org/2000/svg" viewBox="0 0 256 256">
  <path fill="#3b99ed" d="M208.418 208.418c-21.48 21.48-50.04 33.31-80.418 33.31-30.378 0-58.937-11.83-80.418-33.31-21.48-21.48-33.31-50.04-33.31-80.418 0-30.378 11.83-58.937 33.31-80.418 21.481-21.48 50.04-33.31 80.418-33.31 30.378 0 58.938 11.83 80.418 33.31 21.48 21.481 33.31 50.04 33.31 80.418 0 30.378-11.83 58.938-33.31 80.418m37.52-130.244c-6.447-15.243-15.675-28.931-27.428-40.684-11.753-11.753-25.442-20.981-40.684-27.428C162.041 3.385 145.277 0 128 0S93.96 3.385 78.174 10.062C62.931 16.509 49.243 25.737 37.49 37.49 25.737 49.243 16.509 62.931 10.062 78.174 3.385 93.96 0 110.723 0 128s3.385 34.041 10.062 49.826c6.447 15.242 15.675 28.931 27.428 40.684 11.753 11.753 25.441 20.981 40.684 27.428C93.96 252.614 110.723 256 128 256s34.041-3.386 49.826-10.062c15.242-6.447 28.931-15.675 40.684-27.428 11.753-11.753 20.981-25.442 27.428-40.684C252.615 162.041 256 145.277 256 128s-3.385-34.04-10.062-49.826M187.992 40.49H78.812v167.872a5.352 5.352 0 0 0 10.705 0v-64.759h77.246a5.352 5.352 0 1 0 0-10.703H89.517v-9.812h76.176a5.352 5.352 0 0 0 0-10.704H89.517v-61.19h98.475a5.352 5.352 0 1 0 0-10.704"/>
</svg>
