<svg xmlns="http://www.w3.org/2000/svg" viewBox="0 0 256 399.201">
  <defs>
    <linearGradient id="a" x1="47.576" x2="260.879" y1="28.788" y2="181.897" gradientTransform="scale(.8008 1.24875)" gradientUnits="userSpaceOnUse">
      <stop offset="0%" stop-color="#3285EF"/>
      <stop offset="100%" stop-color="#A63EE1"/>
    </linearGradient>
  </defs>
  <path fill="url(#a)" d="M128.73 331.334c.467.137.959.21 1.401.414.443.203.82.525 1.227.793l.078.067.398.353.682.613a157.363 157.363 0 0 1 8.331 8.162 130.027 130.027 0 0 1 5.51 6.18 96.804 96.804 0 0 1 3.323 4.206 72.989 72.989 0 0 1 2.936 4.224 53.58 53.58 0 0 1 2.317 3.959 38.307 38.307 0 0 1 1.695 3.642c.86 2.153 1.504 4.414 1.72 6.727.04.429.065.858.074 1.287.008.379.003.756-.006 1.134a30.985 30.985 0 0 1-.112 1.922c-.234 2.565-.82 5.1-1.79 7.488a24.345 24.345 0 0 1-5.244 7.962 25.594 25.594 0 0 1-2.563 2.274 27.395 27.395 0 0 1-2.25 1.568c-.631.393-1.279.763-1.94 1.109-3.864 2.016-8.147 3.16-12.476 3.588a40.763 40.763 0 0 1-4.228.195 40.84 40.84 0 0 1-4.578-.274 35.954 35.954 0 0 1-7.452-1.67 30.389 30.389 0 0 1-5.95-2.769 26.403 26.403 0 0 1-5.463-4.392 24.335 24.335 0 0 1-4.886-7.592 26.111 26.111 0 0 1-1.753-7.11c-.08-.763-.13-1.53-.147-2.299a20.647 20.647 0 0 1 .021-1.839c.07-1.121.244-2.234.497-3.329.28-1.205.656-2.39 1.1-3.545.449-1.173.968-2.32 1.534-3.442a51.294 51.294 0 0 1 2.257-3.977 70.065 70.065 0 0 1 2.744-4.05c1.477-2.034 3.047-4.001 4.677-5.914a133.649 133.649 0 0 1 5.326-5.881 157.7 157.7 0 0 1 7.145-6.999c.554-.508 1.113-1.014 1.679-1.51l.077-.068c1.222-.79 1.233-.795 2.627-1.207h1.462zM131.04.056l3.434.08 1.523.095 9.314.752 12.855 1.799.935.207 12.468 3.066 3.516 1.035 3.993 1.358 4.86 1.82 3.771 1.577 5.861 2.745 3.28 1.655 6.635 3.864 2.03 1.22 9.054 6.54 2.21 1.925 6.24 5.64 5.356 5.69 1.47 1.622 6.284 8.264.942 1.481 4.84 8.086 1.36 2.579 2.73 6.01 2.841 7.003.942 2.72 3.03 10.934 2.366 14.785.412 4.594.377 6.602.031.96-.138 7.38-.087 1.388-.361 2.916-2.08 11.781-.314 1.434-4.792 14.8-4.45 10.669-5.667 11.221-10.151 17.525-5.224 7.892-6.324 9.366-4.56 6.191-8.898 11.79-6.099 7.6-9.025 10.89-6.304 7.298-9.799 10.933-6.168 6.7-18.229 18.858-.413.423-9.764 9.507-5.4 5.084-.332.305-.418.393-.535.376-.39.176-1.068.353-2.546-.108-.226-.076-1.385-.867-.178-.165-.178-.163-.729-.67c-.67-.624-1.34-1.248-2.008-1.875l-.151-.144-17.887-17.595-5.535-5.684-14.153-15.075-3.374-3.656-17.065-19.756-4.775-5.863-15.027-19.382-1.49-1.976-11.42-16.656-3.095-4.951-8.198-13.949-2.387-4.326-7.166-14.977-1.135-2.934L4.787 147.7l-1.424-4.875-1.156-4.72-.978-5.153-.784-5.766-.303-3.509L0 117.101l.03-1.12.17-3.547 1.428-14.346.338-1.851 3.261-14.32.07-.266.54-1.599 2.28-6.618.703-1.668 3.71-8.095 2.523-4.718 3.56-5.844 3.555-5.19 2.474-3.244 2.911-3.464 3.18-3.484 2.594-2.601 6.84-5.967 5.107-4.137 6.043-4.058 4.296-2.727 9.116-4.76 12.934-5.319.648-.257 11.5-3.33 4.51-.998 6.209-1.238 4.21-.636 6.486-.801 4.38-.385 8.734-.47h.014l.04-.002 3.243-.034.328.001.03-.006.247-.002zm-7.372 20.342a45.898 45.898 0 0 0-3.88.562 41.92 41.92 0 0 0-5.673 1.507c-1.999.682-3.943 1.514-5.822 2.477a45.795 45.795 0 0 0-3.642 2.09c-8.8 5.595-15.513 13.962-20.466 23.038a85.734 85.734 0 0 0-2.337 4.622 100.885 100.885 0 0 0-2.446 5.664 113.575 113.575 0 0 0-2.693 7.59 129.27 129.27 0 0 0-2.602 9.525 154.943 154.943 0 0 0-2.322 12.206 186.481 186.481 0 0 0-1.657 15.71 223.333 223.333 0 0 0-.407 10.027c-.075 3.847-.047 7.693.224 11.532.635 8.988 2.186 17.89 4.213 26.662 2.554 11.056 5.88 21.935 9.638 32.637 4.72 13.447 10.13 26.646 15.98 39.638 7.23 16.064 15.145 31.805 23.553 47.282l.639 1.164V20.37l-.3.029zm33.25.638a57.556 57.556 0 0 1 3.198 2.318c9.532 7.42 16.58 17.61 21.62 28.499.927 2.002 1.79 4.035 2.592 6.092a116.87 116.87 0 0 1 2.851 8.18c3.947 12.845 5.994 26.2 6.8 39.595.201 3.326.325 6.657.377 9.988.043 2.602.05 5.207-.04 7.81a127.167 127.167 0 0 1-.596 8.528c-.664 6.514-1.75 12.99-3.126 19.39-1.606 7.47-3.555 14.854-5.763 22.165-2.95 9.764-6.343 19.389-10.031 28.897-3.361 8.658-6.967 17.22-10.764 25.697-6.82 15.231-14.254 30.18-22.14 44.886l1.427-1.461c11.128-11.462 21.903-23.275 32.214-35.48 9.86-11.673 19.304-23.715 28.04-36.256 7.087-10.176 13.705-20.692 19.448-31.692 2.587-4.953 4.977-10.01 7.094-15.18 1.704-4.156 3.227-8.392 4.473-12.706 1.522-5.272 2.668-10.668 3.102-16.144.193-2.443.208-4.895.154-7.344-.056-2.63-.192-5.26-.413-7.882-.842-10.004-2.956-19.93-6.596-29.298a90.546 90.546 0 0 0-9.47-18.08c-6.492-9.554-14.886-17.73-24.463-24.17-7.068-4.753-14.752-8.563-22.748-11.481-5.618-2.05-11.385-3.662-17.24-4.871z" style="fill:url(#a)"/>
</svg>
