<svg xmlns="http://www.w3.org/2000/svg" viewBox="0 0 256 156.606">
  <g fill="#07ccff">
    <path d="m210.686 133.995-10.539-9.158c-.703-.61-1.395-1.234-2.11-1.828-1.304-1.082-1.732-1.045-2.849.163-.386.418-.758.848-1.132 1.278-2.679 3.083-5.353 6.172-8.04 9.25-.814.933-.73 1.217-1.687.391-3.599-3.11-7.477-6.51-11.065-9.635-13.18-11.479-26.35-22.969-39.537-34.44-10.807-9.404-21.627-18.79-32.446-28.178-4.609-3.999-9.157-8.073-13.867-11.949-4.977-4.097-10.778-5.25-17.062-4.097-4.994.917-8.952 3.556-12.235 7.365-6.482 7.52-13.01 15.001-19.522 22.497-2.61 3.006-5.224 6.01-7.843 9.01-.313.36-.55.964-1.209.386-2.33-2.048-4.674-4.08-7.02-6.11-.39-.338-.43-.64-.076-1.034.692-.769 1.357-1.56 2.035-2.342 9.77-11.24 19.541-22.48 29.307-33.725 1.262-1.454 1.21-2.082-.247-3.35-4.134-3.602-8.277-7.19-12.409-10.792-2.02-1.76-2.302-1.757-4.099.308-7.094 8.153-14.185 16.31-21.269 24.472-3.762 4.335-7.59 8.616-11.237 13.047C.431 70.502-.754 76.272.443 82.57c.94 4.936 3.52 8.862 7.28 12.112 8.178 7.067 16.326 14.167 24.484 21.256 15.262 13.263 30.522 26.528 45.786 39.79 1.431 1.243 2.067 1.182 3.343-.285 1.968-2.263 3.935-4.527 5.902-6.792 1.762-2.03 3.532-4.055 5.28-6.099 1.08-1.262 1.015-1.88-.233-3-.077-.07-.159-.132-.237-.2l-40.525-35.2c-1.522-1.323-3.037-2.655-4.572-3.963-.438-.374-.549-.699-.103-1.144.33-.327.606-.706.911-1.057C52.574 92.444 57.39 86.9 62.207 81.36c3.834-4.41 7.67-8.82 11.508-13.225.817-.936.836-.935 1.79-.11a603.694 603.694 0 0 1 5.265 4.582c8.133 7.19 16.39 14.235 24.487 21.468 11.377 10.161 22.998 20.048 34.514 30.054l31.15 27.066c3.972 3.452 8.52 5.407 13.405 5.33 6.682.038 11.978-2.154 16.151-6.813 3.692-4.12 7.291-8.325 10.912-12.509.883-1.02.817-1.765-.124-2.69-.184-.18-.384-.347-.579-.517"/>
    <path d="M253.881 69.128c-1.404-3.263-3.895-5.682-6.538-7.962-5.169-4.459-10.317-8.942-15.47-13.42l-48.48-42.132c-1.912-1.662-3.819-3.33-5.75-4.97-1.07-.907-1.703-.85-2.67.136-.146.147-.277.308-.413.464l-10.995 12.643a8.957 8.957 0 0 0-.578.728c-.443.636-.392 1.275.082 1.858.26.318.583.585.895.856 12.922 11.226 25.847 22.45 38.77 33.675 2.26 1.963 4.511 3.936 6.864 5.99-9.42 10.843-18.77 21.603-28.162 32.41-.516-.43-.918-.75-1.304-1.089-9.478-8.326-19.04-16.553-28.503-24.897-15.438-13.612-31.043-27.035-46.58-40.535-6.636-5.766-13.31-11.488-19.908-17.299-8.41-7.408-21.969-6.574-29.33 1.885-3.53 4.057-7.066 8.111-10.58 12.182-1.228 1.421-1.167 1.998.238 3.22 4.254 3.697 8.511 7.392 12.77 11.085 1.465 1.27 2.07 1.232 3.347-.236 2.954-3.394 5.9-6.796 8.847-10.195.958-1.105.96-1.108 2.015-.19 16.231 14.12 32.456 28.246 48.693 42.358 14.13 12.28 28.27 24.548 42.414 36.812 1.991 1.727 3.908 3.547 6.06 5.082 7.914 5.651 20.49 4.938 27.804-3.646 4.83-5.667 9.752-11.256 14.635-16.879A16572.9 16572.9 0 0 1 224.98 72.19c.907-1.042.93-1.043 1.921-.186 2.113 1.827 4.201 3.682 6.33 5.49.556.471.802.718.134 1.386-.976 1.07-1.906 2.181-2.855 3.274-9.462 10.893-18.925 21.783-28.383 32.68-1.203 1.385-1.168 2.046.202 3.241 4.287 3.74 8.618 7.428 12.867 11.21 1.248 1.11 2.311 1.055 3.39-.245 2.41-2.904 4.93-5.718 7.405-8.568 8.242-9.486 16.53-18.933 24.711-28.472 5.917-6.899 6.73-14.623 3.18-22.872"/>
  </g>
</svg>
