<svg xmlns="http://www.w3.org/2000/svg" viewBox="0 0 512 178.494">
  <path fill="#eca16c" d="M501.292 104.62c-7.933 13.817-17.616 21.062-27.281 22.44 5.866-12.086 8.976-25.196 8.976-35.904 0-22.794-13.11-36.258-36.947-36.258-41.434 0-60.764 43.148-60.764 69.387 0 2.067 0 4.134.353 5.866-6.908 7.933-12.774 12.086-17.262 12.086-3.445 0-6.91-2.421 2.067-25.196l9.665-23.129c3.799-10.019 5.866-16.574 5.866-22.105 0-10.018-6.555-16.909-18.995-16.909-16.909 0-32.105 12.086-36.947 16.91-.353-10.02-6.555-16.91-18.994-16.91-16.22 0-31.08 13.11-31.77 13.818l4.134-9.33h-31.08l-25.196 61.1c-4.842 4.134-10.019 5.866-14.842 6.909 5.866-12.086 8.976-25.196 8.976-35.904 0-22.794-13.11-36.593-36.947-36.593-19.683 0-34.171 13.464-44.19 22.44h-10.019l16.909-42.459c5.866-14.152 15.885-17.951 15.885-17.951L157.432 0c-8.975 0-18.305 3.445-24.86 9.33C110.82 13.818 83.893 0 58.008 0c-31.08 0-44.88 19.684-44.88 39.349 0 22.44 17.953 34.86 35.904 34.86 17.263 0 27.971-10.707 27.971-10.707L64.917 44.507s-5.53 5.866-13.818 5.866c-6.22 0-12.42-3.799-12.42-11.397 0-7.244 5.53-14.842 20.018-14.842 15.531 0 37.282 8.623 57.655 10.354L99.089 77.636H81.826l-6.555 17.617h17.263l-6.22 14.544c-11.043 26.592-23.818 43.501-41.434 43.501-9.33 0-18.306-7.244-18.306-18.305 0-6.91 4.842-18.306 22.44-16.91V92.2C17.952 89.759 0 110.82 0 134.993c.354 21.397 15.196 43.501 47.99 43.501 17.951 0 44.544-5.866 63.52-52.831l12.421-30.373h7.244c-4.842 13.464-7.244 21.062-7.244 30.038 0 22.44 13.464 36.592 37.636 36.592 17.262 0 31.08-8.286 40.745-19.683 5.866.354 11.397 3.11 16.91 1.378l-7.599 22.44h31.08l26.24-68.698c8.286-9.33 17.262-15.53 21.75-15.53 2.756 0 5.177.688 5.177 3.11 0 3.109-3.445 14.152-6.909 23.128-6.555 16.574-15.884 40.392-22.44 58.008h31.416l26.239-68.697c8.287-8.976 17.263-15.531 22.105-15.531 2.756 0 5.177.689 5.177 3.445s-3.11 10.019-6.91 19.33l-2.755 6.909c-14.153 34.86-5.531 50.056 14.842 50.056 12.42 0 23.817-6.22 33.836-16.22 5.866 10.019 16.91 16.22 32.459 16.22 17.263 0 31.08-7.933 40.745-19.33 20.02 1.732 37.636-11.396 48.325-29.684-1.378-3.817-6.555-7.262-10.708-7.951zm-313.822.689c-9.665-.354-16.574 6.909-16.574 15.53 0 4.135 1.732 7.934 4.134 11.044-4.134 5.53-9.33 9.665-13.817 9.665-4.842 0-7.598-4.134-7.598-10.354 0-14.507 15.196-55.588 30.373-55.588 4.134 0 7.598 2.756 7.598 10.02.037 4.822-1.341 11.731-4.116 19.683zm261.699 0c-9.665-.354-16.574 6.909-16.574 15.53 0 4.135 1.732 7.934 4.134 11.044-4.134 5.53-9.33 9.665-13.818 9.665-4.842 0-7.598-4.134-7.598-10.354 0-14.507 15.196-55.588 30.373-55.588 4.134 0 7.598 2.756 7.598 10.02.019 4.822-1.36 11.731-4.115 19.683z"/>
</svg>
