<svg xmlns="http://www.w3.org/2000/svg" style="clip-rule:evenodd;fill-rule:evenodd;stroke-linejoin:round;stroke-miterlimit:1.41421" viewBox="0 0 44 44">
  <circle cx="207.738" cy="149.18" r="142.986" style="fill:#fff" transform="matrix(.15333 0 0 .15333 -9.853 -.874)"/>
  <path d="m207.738 292.659-.928-.003-.926-.009-.925-.014-.924-.021-.922-.026-.921-.032-.919-.038-.918-.044-.916-.049-.915-.055-.913-.061-.912-.066-.91-.072-.908-.078-.907-.084-.905-.089-.904-.094-.902-.101-.9-.105-.898-.112-.897-.117-.895-.122-.893-.128-.892-.133-.89-.139-.887-.144-.886-.15-.885-.155-.882-.16-.88-.166-.879-.171-.877-.177-.874-.182-.873-.187-.871-.192-.868-.198-.867-.203-.865-.208-.863-.214-.86-.218-.859-.224-.856-.229-.855-.234-.852-.239-.85-.244-.848-.25-.846-.254-.843-.26-.841-.264-.839-.27-.837-.274-.835-.28-.832-.284-.83-.29-.828-.294-.825-.299-.823-.305-.82-.309-.819-.314-.815-.318-.814-.324-.81-.328-.809-.333-.806-.338-.803-.343-.801-.348-.798-.352-.796-.357-.793-.361-.791-.366-.788-.371-.785-.376-.783-.38-.78-.385-.778-.389-.774-.394-.772-.398-.77-.403-.766-.407-.764-.412-.761-.417-.758-.421-.756-.425-.752-.43-.75-.434-.747-.438-.743-.443-.741-.447-.739-.452-.735-.456-.732-.46-.729-.464-.726-.469-.724-.473-.72-.477-.717-.481-.714-.486-.711-.489-.708-.494-.705-.498-.701-.502-.699-.507-.695-.51-.692-.514-.689-.519-.686-.522-.682-.527-.679-.53-.676-.535-.673-.538-.669-.542-.666-.547-.663-.55-.659-.554-.656-.558-.653-.562-.649-.565-.645-.57-.642-.573-.639-.577-.635-.581-.632-.585-.628-.588-.625-.592-.621-.596-.618-.599-.614-.603-.61-.607-.607-.61-.603-.614-.599-.618-.596-.621-.592-.625-.588-.628-.585-.632-.581-.635-.577-.639-.573-.642-.57-.645-.565-.649-.562-.653-.558-.656-.554-.659-.55-.663-.547-.666-.542-.669-.538-.673-.535-.676-.53-.679-.527-.682-.522-.686-.519-.689-.514-.692-.51-.695-.507-.699-.502-.701-.498-.705-.494-.708-.489-.711-.486-.714-.481-.717-.477-.72-.473-.724-.469-.726-.464-.729-.46-.732-.456-.735-.452-.739-.447-.741-.443-.743-.438-.747-.434-.75-.43-.752-.425-.756-.421-.758-.417-.761-.412-.764-.407-.766-.403-.77-.398-.772-.394-.774-.389-.778-.385-.78-.38-.783-.376-.785-.371-.788-.366-.791-.361-.793-.357-.796-.352-.798-.348-.801-.343-.803-.338-.806-.333-.809-.328-.81-.324-.814-.318-.815-.314-.819-.309-.82-.305-.823-.299-.825-.294-.828-.29-.83-.284-.832-.28-.835-.274-.837-.27-.839-.264-.841-.26-.843-.254-.846-.25-.848-.244-.85-.239-.852-.234-.855-.229-.856-.224-.859-.219-.86-.213-.863-.208-.865-.203-.867-.198-.868-.192-.871-.187-.873-.182-.874-.177-.877-.171-.879-.166-.88-.16-.882-.155-.885-.15-.886-.144-.887-.139-.89-.133-.892-.128-.893-.122-.895-.117-.897-.112-.898-.105-.9-.101-.902-.094-.904-.089-.905-.084-.907-.078-.908-.072-.91-.066-.912-.061-.913-.055-.915-.049-.916-.044-.918-.038-.919-.032-.921-.026-.922-.021-.924-.014-.925-.009-.926-.003-.928.003-.928.009-.926.014-.925.021-.924.026-.922.032-.921.038-.919.044-.918.049-.916.055-.915.061-.913.066-.912.072-.91.078-.908.084-.907.089-.905.094-.904.101-.902.105-.9.112-.898.117-.897.122-.895.128-.893.133-.892.139-.89.144-.887.15-.886.155-.885.16-.882.166-.88.171-.879.177-.877.182-.874.187-.873.192-.871.198-.868.203-.867.208-.865.213-.863.219-.86.224-.859.229-.856.234-.855.239-.852.244-.85.25-.848.254-.846.26-.843.264-.841.27-.839.274-.837.28-.835.284-.832.29-.83.294-.828.299-.825.305-.823.309-.82.314-.819.318-.815.324-.814.328-.81.333-.809.338-.806.343-.803.348-.801.352-.798.357-.796.361-.793.366-.791.371-.788.376-.785.38-.783.385-.78.389-.778.394-.774.398-.772.403-.77.407-.766.412-.764.417-.761.421-.758.425-.756.43-.752.434-.75.438-.747.443-.743.447-.741.452-.739.456-.735.46-.732.464-.729.469-.726.473-.724.477-.72.481-.717.486-.714.489-.711.494-.708.498-.705.502-.701.507-.699.51-.695.514-.692.519-.689.522-.686.527-.682.53-.679.535-.676.538-.673.542-.669.547-.666.55-.663.554-.659.558-.656.562-.653.565-.649.57-.645.573-.642.577-.639.581-.635.585-.632.588-.628.592-.625.596-.621.599-.618.603-.614.607-.61.61-.607.614-.603.618-.599.621-.596.625-.592.628-.588.632-.585.635-.581.639-.577.642-.573.645-.57.649-.565.653-.562.656-.558.659-.554.663-.55.666-.547.669-.542.673-.538.676-.535.679-.53.682-.527.686-.522.689-.519.692-.514.695-.51.699-.507.701-.502.705-.498.708-.494.711-.489.714-.486.717-.481.72-.477.724-.473.726-.469.729-.464.732-.46.735-.456.739-.452.741-.447.743-.443.747-.438.75-.434.752-.43.756-.425.758-.421.761-.417.764-.412.766-.407.77-.403.772-.398.774-.394.778-.389.78-.385.783-.38.785-.376.788-.371.791-.366.793-.361.796-.357.798-.352.801-.348.803-.343.806-.338.809-.333.81-.328.814-.324.815-.318.819-.314.82-.309.823-.305.825-.299.828-.294.83-.29.832-.284.835-.28.837-.274.839-.27.841-.264.843-.26.846-.254.848-.25.85-.244.852-.239.855-.234.856-.229.859-.224.86-.219.863-.213.865-.208.867-.203.868-.198.871-.192.873-.187.874-.182.877-.177.879-.171.88-.166.882-.16.885-.155.886-.15.887-.144.89-.139.892-.133.893-.128.895-.122.897-.117.898-.112.9-.105.902-.101.904-.094.905-.089.907-.084.908-.078.91-.072.912-.066.913-.061.915-.055.916-.049.918-.044.919-.038.921-.032.922-.026.924-.021.925-.014.926-.009.928-.003.928.003.926.009.925.014.924.021.922.026.921.032.919.038.918.044.916.049.915.055.913.061.912.066.91.072.908.078.907.084.905.089.904.094.902.101.9.105.898.112.897.117.895.122.893.128.892.133.89.139.887.144.886.15.885.155.882.16.88.166.879.171.877.177.874.182.873.187.871.192.868.198.867.203.865.208.863.213.86.219.859.224.856.229.855.234.852.239.85.244.848.25.846.254.843.26.841.264.839.27.837.274.835.28.832.284.83.29.828.294.825.299.823.305.82.309.819.314.815.318.814.324.81.328.809.333.806.338.803.343.801.348.798.352.796.357.793.361.791.366.788.371.785.376.783.38.78.385.778.389.774.394.772.398.77.403.766.407.764.412.761.417.758.421.756.425.752.43.75.434.747.438.743.443.741.447.739.452.735.456.732.46.729.464.726.469.724.473.72.477.717.481.714.486.711.489.708.494.705.498.701.502.699.507.695.51.692.514.689.519.686.522.682.527.679.53.676.535.673.538.669.542.666.547.663.55.659.554.656.558.653.562.649.565.645.57.642.573.639.577.635.581.632.585.628.588.625.592.621.596.618.599.614.603.61.607.607.61.603.614.599.618.596.621.592.625.588.628.585.632.581.635.577.639.573.642.57.645.565.649.562.653.558.656.554.659.55.663.547.666.542.669.538.673.535.676.53.679.527.682.522.686.519.689.514.692.51.695.507.699.502.701.498.705.494.708.489.711.486.714.481.717.477.72.473.724.469.726.464.729.46.732.456.735.452.739.447.741.443.743.438.747.434.75.43.752.425.756.421.758.417.761.412.764.407.766.403.77.398.772.394.774.389.778.385.78.38.783.376.785.371.788.366.791.361.793.357.796.352.798.348.801.343.803.338.806.333.809.328.81.324.814.318.815.314.819.309.82.305.823.299.825.294.828.29.83.284.832.28.835.274.837.27.839.264.841.26.843.254.846.25.848.244.85.239.852.234.855.229.856.224.859.219.86.213.863.208.865.203.867.198.868.192.871.187.873.182.874.177.877.171.879.166.88.16.882.155.885.15.886.144.888.139.889.133.892.128.893.122.895.117.897.112.898.105.9.101.902.094.904.089.905.084.907.078.908.072.91.066.912.061.913.055.915.049.916.044.918.038.919.032.921.026.922.021.924.014.925.009.926.003.928-.003.928-.009.926-.014.925-.021.924-.026.922-.032.921-.038.919-.044.918-.049.916-.055.915-.061.913-.066.912-.072.91-.078.908-.084.907-.089.905-.094.904-.101.902-.105.9-.112.898-.117.897-.122.895-.128.893-.133.892-.139.89-.144.887-.15.886-.155.885-.16.882-.166.88-.171.879-.177.877-.182.874-.187.873-.192.871-.198.868-.203.867-.208.865-.213.863-.219.86-.224.859-.229.856-.234.855-.239.852-.244.85-.25.848-.254.846-.26.843-.264.841-.27.839-.274.837-.28.835-.284.832-.29.83-.294.828-.299.825-.305.823-.309.82-.314.819-.318.815-.324.814-.328.81-.333.809-.338.806-.343.803-.348.801-.352.798-.357.796-.361.793-.366.791-.371.788-.376.785-.38.783-.385.78-.389.778-.394.774-.398.772-.403.77-.407.766-.412.764-.417.761-.421.758-.425.756-.43.752-.434.75-.438.747-.443.743-.447.741-.452.739-.456.735-.46.732-.464.729-.469.726-.473.724-.477.72-.481.717-.486.714-.489.711-.494.708-.498.705-.502.701-.507.699-.51.695-.514.692-.519.689-.522.686-.527.682-.53.679-.535.676-.538.673-.542.669-.547.666-.55.663-.554.659-.558.656-.562.653-.565.649-.57.645-.573.642-.577.639-.581.635-.585.632-.588.628-.592.625-.596.621-.599.618-.603.614-.607.61-.61.607-.614.603-.618.599-.621.596-.625.592-.628.588-.632.585-.635.581-.639.577-.642.573-.645.57-.649.565-.653.562-.656.558-.659.554-.663.55-.666.547-.669.542-.673.538-.676.535-.679.53-.682.527-.686.522-.689.519-.692.514-.695.51-.699.507-.701.502-.705.498-.708.494-.711.489-.714.486-.717.481-.72.477-.724.473-.726.469-.729.464-.732.46-.735.456-.739.452-.741.447-.743.443-.747.438-.75.434-.752.43-.756.425-.758.421-.761.417-.764.412-.766.407-.77.403-.772.398-.774.394-.778.389-.78.385-.783.38-.785.376-.788.371-.791.366-.793.361-.796.357-.798.352-.801.348-.803.343-.806.338-.809.333-.81.328-.814.324-.815.318-.819.314-.82.309-.823.305-.825.299-.828.294-.83.29-.832.284-.835.28-.837.274-.839.27-.841.264-.843.26-.846.254-.848.25-.85.244-.852.239-.855.234-.856.229-.859.224-.86.218-.863.214-.865.208-.867.203-.868.198-.871.192-.873.187-.874.182-.877.177-.879.171-.88.166-.882.16-.885.155-.886.15-.887.144-.89.139-.892.133-.893.128-.895.122-.897.117-.898.112-.9.105-.902.101-.904.094-.905.089-.907.084-.908.078-.91.072-.912.066-.913.061-.915.055-.916.049-.918.044-.919.038-.921.032-.922.026-.924.021-.925.014-.926.009zm0-.493.925-.003.923-.009.922-.014.921-.021.919-.026.917-.032.916-.038.915-.043.913-.049.912-.055.91-.061.908-.066.907-.072.906-.077.903-.083.902-.089.901-.095.899-.099.897-.106.895-.111.894-.116.892-.122.89-.128.888-.133.887-.138.885-.144.883-.149.881-.154.879-.16.878-.165.875-.171.874-.176.871-.181.87-.187.868-.191.866-.197.863-.203.862-.207.86-.213.857-.218.856-.223.854-.228.851-.233.849-.238.847-.244.845-.248.843-.254.841-.258.838-.264.836-.269.834-.273.832-.279.829-.283.827-.289.825-.293.822-.298.82-.303.818-.308.815-.313.813-.318.811-.322.808-.328.805-.332.804-.337.8-.341.798-.346.796-.351.793-.356.79-.36.788-.365.786-.37.782-.374.78-.379.778-.383.775-.388.772-.393.769-.397.767-.401.763-.406.762-.411.758-.415.756-.419.752-.424.75-.428.747-.433.745-.437.741-.441.738-.446.736-.45.733-.454.729-.458.727-.463.724-.467.72-.472.718-.475.715-.48.711-.484.709-.488.705-.492.703-.496.699-.501.696-.504.693-.509.69-.512.686-.517.684-.521.68-.524.677-.529.673-.533.671-.536.667-.541.663-.544.661-.548.657-.553.653-.556.651-.56.647-.563.643-.568.64-.571.637-.575.633-.579.629-.583.626-.586.623-.59.619-.594.615-.597.612-.601.608-.605.605-.608.601-.612.597-.615.594-.619.59-.623.586-.626.583-.629.579-.633.575-.637.571-.64.568-.643.563-.647.56-.651.556-.653.553-.657.548-.661.544-.663.541-.667.536-.671.533-.673.529-.677.524-.68.521-.684.517-.686.512-.69.509-.693.504-.696.501-.699.496-.703.492-.705.488-.709.484-.711.48-.715.475-.718.472-.72.467-.724.463-.727.458-.729.454-.733.45-.736.446-.738.441-.741.437-.745.433-.747.428-.75.424-.752.419-.756.415-.758.411-.762.406-.763.401-.767.397-.769.393-.772.388-.775.383-.778.379-.78.374-.782.37-.786.365-.788.36-.79.356-.793.351-.796.346-.798.341-.8.337-.804.332-.805.328-.808.322-.811.318-.813.313-.815.308-.818.303-.82.298-.822.293-.825.289-.827.283-.829.279-.832.273-.834.269-.836.264-.838.258-.841.254-.843.248-.845.244-.847.238-.849.233-.851.228-.854.223-.856.218-.857.213-.86.207-.862.203-.863.197-.866.191-.868.187-.87.181-.871.176-.874.171-.875.165-.878.16-.879.154-.881.149-.883.144-.885.138-.887.133-.888.128-.89.122-.892.116-.894.111-.895.106-.897.099-.899.095-.901.089-.902.083-.903.077-.906.072-.907.066-.908.061-.91.055-.912.049-.913.043-.915.038-.916.032-.917.026-.919.021-.921.014-.922.009-.923.003-.925-.003-.925-.009-.923-.014-.922-.021-.921-.026-.919-.032-.917-.038-.916-.043-.915-.049-.913-.055-.912-.061-.91-.066-.908-.072-.907-.077-.906-.083-.903-.089-.902-.095-.901-.099-.899-.106-.897-.111-.895-.116-.894-.122-.892-.128-.89-.133-.888-.138-.887-.144-.885-.149-.883-.154-.881-.16-.879-.165-.878-.171-.875-.176-.874-.181-.871-.187-.87-.191-.868-.197-.866-.203-.863-.207-.862-.213-.86-.218-.857-.223-.856-.228-.854-.233-.851-.238-.849-.244-.847-.248-.845-.254-.843-.258-.841-.264-.838-.269-.836-.273-.834-.279-.832-.283-.829-.289-.827-.293-.825-.298-.822-.303-.82-.308-.818-.313-.815-.318-.813-.322-.811-.328-.808-.332-.805-.337-.804-.341-.8-.346-.798-.351-.796-.356-.793-.36-.79-.365-.788-.37-.786-.374-.782-.379-.78-.383-.778-.388-.775-.393-.772-.397-.769-.401-.767-.406-.763-.411-.762-.415-.758-.419-.756-.424-.752-.428-.75-.433-.747-.437-.745-.441-.741-.446-.738-.45-.736-.454-.733-.458-.729-.463-.727-.467-.724-.472-.72-.475-.718-.48-.715-.484-.711-.488-.709-.492-.705-.496-.703-.501-.699-.504-.696-.509-.693-.512-.69-.517-.686-.521-.684-.524-.68-.529-.677-.533-.673-.536-.671-.541-.667-.544-.663-.548-.661-.553-.657-.556-.653-.56-.651-.563-.647-.568-.643-.571-.64-.575-.637-.579-.633-.583-.629-.586-.626-.59-.623-.594-.619-.597-.615-.601-.612-.605-.608-.608-.605-.612-.601-.615-.597-.619-.594-.623-.59-.626-.586-.629-.583-.633-.579-.637-.575-.64-.571-.643-.568-.647-.563-.651-.56-.653-.556-.657-.553-.661-.548-.663-.544-.667-.541-.671-.536-.673-.533-.677-.529-.68-.524-.684-.521-.686-.517-.69-.512-.693-.509-.696-.504-.699-.501-.703-.496-.705-.492-.709-.488-.711-.484-.715-.48-.718-.475-.72-.472-.724-.467-.727-.463-.729-.458-.733-.454-.736-.45-.738-.446-.741-.441-.745-.437-.747-.433-.75-.428-.752-.424-.756-.419-.758-.415-.762-.411-.763-.406-.767-.401-.769-.397-.772-.393-.775-.388-.778-.383-.78-.379-.782-.374-.786-.37-.788-.365-.79-.36-.793-.356-.796-.351-.798-.346-.8-.341-.804-.337-.805-.332-.808-.328-.811-.322-.813-.318-.815-.313-.818-.308-.82-.303-.822-.298-.825-.293-.827-.289-.829-.283-.832-.279-.834-.273-.836-.269-.838-.264-.841-.258-.843-.254-.845-.248-.847-.244-.849-.238-.851-.233-.854-.228-.856-.223-.857-.218-.86-.213-.862-.207-.863-.203-.866-.197-.868-.191-.87-.187-.871-.181-.874-.176-.875-.171-.878-.165-.879-.16-.881-.154-.883-.149-.885-.144-.887-.138-.888-.133-.89-.128-.892-.122-.894-.116-.895-.111-.897-.106-.899-.099-.901-.095-.902-.089-.903-.083-.906-.077-.907-.072-.908-.066-.91-.061-.912-.055-.913-.049-.915-.043-.916-.038-.917-.032-.919-.026-.921-.021-.922-.014-.923-.009-.925-.003-.925.003-.923.009-.922.014-.921.021-.919.026-.917.032-.916.038-.915.043-.913.049-.912.055-.91.061-.908.066-.907.072-.906.077-.903.083-.902.089-.901.095-.899.099-.897.106-.895.111-.894.116-.892.122-.89.128-.888.133-.887.138-.885.144-.883.149-.881.154-.879.16-.878.165-.875.171-.874.176-.871.181-.87.187-.868.191-.866.197-.863.203-.862.207-.86.213-.857.218-.856.223-.854.228-.851.233-.849.238-.847.244-.845.248-.843.254-.841.258-.838.264-.836.269-.834.273-.832.279-.829.283-.827.289-.825.293-.822.298-.82.303-.818.308-.815.313-.813.318-.811.322-.808.328-.805.332-.804.337-.8.341-.798.346-.796.351-.793.356-.79.36-.788.365-.786.37-.782.374-.78.379-.778.383-.775.388-.772.393-.769.397-.767.401-.763.406-.762.411-.758.415-.756.419-.752.424-.75.428-.747.433-.745.437-.741.441-.738.446-.736.45-.733.454-.729.458-.727.463-.724.467-.72.472-.718.475-.715.48-.711.484-.709.488-.705.492-.703.496-.699.501-.696.504-.693.509-.69.512-.686.517-.684.521-.68.524-.677.529-.673.533-.671.536-.667.541-.663.544-.661.548-.657.553-.653.556-.651.56-.647.563-.643.568-.64.571-.637.575-.633.579-.629.583-.626.586-.623.59-.619.594-.615.597-.612.601-.608.605-.605.608-.601.612-.597.615-.594.619-.59.623-.586.626-.583.629-.579.633-.575.637-.571.64-.568.643-.563.647-.56.651-.556.653-.553.657-.548.661-.544.663-.541.667-.536.671-.533.673-.529.677-.524.68-.521.684-.517.686-.512.69-.509.693-.504.696-.501.699-.496.703-.492.705-.488.709-.484.711-.48.715-.475.718-.472.72-.467.724-.463.727-.458.729-.454.733-.45.736-.446.738-.441.741-.437.745-.433.747-.428.75-.424.752-.419.756-.415.758-.411.762-.406.763-.401.767-.397.769-.393.772-.388.775-.383.778-.379.78-.374.782-.37.786-.365.788-.36.79-.356.793-.351.796-.346.798-.341.8-.337.804-.332.805-.328.808-.322.811-.318.813-.313.815-.308.818-.303.82-.298.822-.293.825-.289.827-.283.829-.279.832-.273.834-.269.836-.264.838-.258.841-.254.843-.248.845-.244.847-.238.849-.233.851-.228.854-.223.856-.218.857-.213.86-.207.862-.203.863-.197.866-.191.868-.187.87-.181.871-.176.874-.171.875-.165.878-.16.879-.154.881-.149.883-.144.885-.138.887-.133.888-.128.89-.122.892-.116.894-.111.895-.106.897-.099.899-.095.901-.089.902-.083.903-.077.906-.072.907-.066.908-.061.91-.055.912-.049.913-.043.915-.038.916-.032.917-.026.919-.021.921-.014.922-.009.923-.003.925.003.925.009.923.014.922.021.921.026.919.032.917.038.916.043.915.049.913.055.912.061.91.066.908.072.907.077.906.083.903.089.902.095.901.099.899.106.897.111.895.116.894.122.892.128.89.133.888.138.887.144.885.149.883.154.881.16.879.165.878.171.875.176.874.181.871.187.87.191.868.197.866.203.863.207.862.213.86.218.857.223.856.228.854.233.851.238.849.244.847.248.845.254.843.258.841.264.838.269.836.273.834.279.832.283.829.289.827.293.825.298.822.303.82.308.818.313.815.318.813.322.811.328.808.332.805.337.804.341.8.346.798.351.796.356.793.36.79.365.788.37.786.374.782.379.78.383.778.388.775.393.772.397.769.401.767.406.763.411.762.415.758.419.756.424.752.428.75.433.747.437.745.441.741.446.738.45.736.454.733.458.729.463.727.467.724.472.72.475.718.48.715.484.711.488.709.492.705.496.703.501.699.504.696.509.693.512.69.517.686.521.684.524.68.529.677.533.673.536.671.541.667.544.663.548.661.553.657.556.653.56.651.563.647.568.643.571.64.575.637.579.633.583.629.586.626.59.623.594.619.597.615.601.612.605.608.608.605.612.601.615.597.619.594.623.59.626.586.629.583.633.579.637.575.64.571.643.568.647.563.651.56.653.556.657.553.661.548.663.544.667.541.671.536.673.533.677.529.68.524.684.521.686.517.69.512.693.509.696.504.699.501.703.496.705.492.709.488.711.484.715.48.718.475.72.472.724.467.727.463.729.458.733.454.736.45.738.446.741.441.745.437.747.433.75.428.752.424.756.419.758.415.762.411.763.406.767.401.769.397.772.393.775.388.778.383.78.379.782.374.786.37.788.365.79.36.793.356.796.351.798.346.8.341.804.337.805.332.808.328.811.322.813.318.815.313.818.308.82.303.822.298.825.293.827.289.829.283.832.279.834.273.836.269.838.264.841.258.843.254.845.248.847.244.849.238.851.233.854.228.856.223.857.218.86.213.862.207.863.203.866.197.868.191.87.187.871.181.874.176.875.171.878.165.879.16.881.154.883.149.885.144.887.138.888.133.89.128.892.122.894.116.895.111.897.106.899.099.901.095.902.089.903.083.906.077.907.072.908.066.91.061.912.055.913.049.915.043.916.038.917.032.919.026.921.021.922.014.923.009z" style="fill:#000" transform="matrix(.15333 0 0 .15333 -9.853 -.874)"/>
  <path d="M822 1290c96 0 184-32 228-87 108 109 209 139 296 139 140 0 184-89 184-148 0-74-47-126-118-126-77 0-39 176-148 176-89 0-163-235-200-440h192c22 0 26-16 26-33 0-46-21-85-59-85h-189S947.118 274.809 883 18c-86.299-345.65-351-442-517-442-79 0-163 28-219 86-75-77-189-138-311-138-60 0-160 40-160 116 0 43 43 108 89 108 81 0 91-88 182-88 44 0 74.498 12.138 111 144 80 289 201 882 201 882H116c-23 0-26 14-26 29 0 40 15 89 66 89h133c73 251 235 486 533 486zm-78-100c-141 0-205-234-236-386h334c24 92 64 186 107 263-48 76-131 123-205 123zM444-302c78 0 140 26 178 162 90 324 190 826 190 826H482C434.075 464.729 381.246 226.205 334.818 47 303.225-74.948 276.704-143.428 249-201c57-67 131-101 195-101z" style="fill:#232c31;fill-rule:nonzero" transform="matrix(.01427 0 0 -.01427 13.394 28.18)"/>
  <path d="m28.079 55.651.328 1.455-.795.179-.328-1.454-1.455.328-.179-.795 1.455-.329-.329-1.454.796-.18.218.968 4.269-6.756a1.528 1.528 0 0 1 1.571-2.487l4.336-6.862-.921.208-.179-.795 1.455-.328-.328-1.455.795-.179.328 1.454 1.455-.328.179.795-1.455.329.329 1.454-.796.18-.195-.865-4.311 6.824a1.527 1.527 0 0 1-1.187 2.561 1.524 1.524 0 0 1-.39-.066l-4.208 6.659.818-.184.179.795z" style="fill:#ff5900;stroke:#cc4700;stroke-width:.13px" transform="rotate(15.001 34.924 28.72) scale(.75602)"/>
</svg>
