<svg xmlns="http://www.w3.org/2000/svg" xmlns:xlink="http://www.w3.org/1999/xlink" viewBox="0 0 256 256">
  <defs>
    <path id="a" d="M8 0h240a8 8 0 0 1 8 8v240a8 8 0 0 1-8 8H8a8 8 0 0 1-8-8V8a8 8 0 0 1 8-8z"/>
  </defs>
  <mask id="b" fill="#fff">
    <use width="100%" height="100%" xlink:href="#a"/>
  </mask>
  <use width="100%" height="100%" fill="#9b183d" xlink:href="#a"/>
  <path fill="#9b183d" d="M0 0h256v256H0z" mask="url(#b)"/>
  <path fill="#ee0036" d="M128 0h128v128H128z" mask="url(#b)"/>
  <path fill="#702440" d="M0 128h128v128H0z" mask="url(#b)"/>
  <path fill="#fff" d="M144.836 86.902c30.868-2.326 49.527-17.025 55.342-36.616-40.737 18.77-91.57-4.193-101.19 37.281l-4.932 22.11c8.58-13.312 19.912-20.45 50.78-22.775zm-16.051 3.765c-15.171 2.186-27.34 9.223-34.17 21.585-2.2 3.977-2.972 8.252-2.972 8.252l-3.49 15.65c4.373-7.799 12.193-17.765 32.69-22.508.461-2.481 3.26-16.706 7.942-22.979zm-43.818 59.767-5.332 23.904c14.127-26.899 44.53-32.12 48.283-32.904 26.475-5.536 39.22-18.681 44.29-35.764-23.1 13.063-77.02-3.34-87.24 44.764zm-7.9 35.421-3.924 17.593c31.308-1.762 34.762-31.85 39.87-55.752-9.74 3.4-31.207 16.723-35.946 38.16z" mask="url(#b)"/>
</svg>
