<svg xmlns="http://www.w3.org/2000/svg" xmlns:xlink="http://www.w3.org/1999/xlink" viewBox="0 0 511.999 127.691">
  <defs>
    <path id="a" d="M3.99 0H123.7a3.99 3.99 0 0 1 3.991 3.99V123.7a3.99 3.99 0 0 1-3.99 3.991H3.99A3.99 3.99 0 0 1 0 123.701V3.99A3.99 3.99 0 0 1 3.99 0z"/>
  </defs>
  <path fill="#3a3335" d="M160.082 85.128V65.527h17.75V59.27h-17.75V46.692H179.3v-6.256h-25.858v44.692zm39.201.957c3.065 0 5.821-.68 8.269-2.043 2.447-1.362 4.373-3.235 5.778-5.618 1.404-2.384 2.106-5.065 2.106-8.045 0-2.98-.702-5.66-2.106-8.044-1.405-2.384-3.331-4.257-5.779-5.619-2.447-1.362-5.203-2.043-8.268-2.043-3.064 0-5.82.681-8.268 2.043-2.447 1.362-4.373 3.235-5.778 5.619-1.404 2.383-2.106 5.065-2.106 8.044 0 2.98.702 5.661 2.106 8.045 1.405 2.383 3.331 4.256 5.778 5.618 2.448 1.362 5.204 2.043 8.268 2.043zm0-6.129c-2.809 0-5.097-.873-6.863-2.618-1.766-1.745-2.65-4.064-2.65-6.959 0-2.894.884-5.214 2.65-6.959 1.766-1.745 4.054-2.618 6.863-2.618 2.81 0 5.098.873 6.864 2.618 1.766 1.745 2.65 4.065 2.65 6.96 0 2.894-.884 5.213-2.65 6.958-1.767 1.745-4.054 2.618-6.864 2.618zm28.156 5.172V72.039c0-3.448.788-5.97 2.363-7.566s3.916-2.394 7.023-2.394h.957v-7.342h-.447c-2.426 0-4.48.66-6.16 1.98-1.682 1.319-2.884 3.106-3.608 5.362h-.128v-6.448h-6.256v29.497zm28.284.957c5.49 0 9.939-2.34 13.344-7.023l-4.406-4.15a16.08 16.08 0 0 1-3.735 3.671c-1.425 1-3.202 1.5-5.33 1.5-2.554 0-4.65-.797-6.29-2.394-1.638-1.596-2.521-3.692-2.649-6.288h22.857v-1.022c0-4.81-1.245-8.63-3.735-11.46-2.49-2.83-5.949-4.246-10.375-4.246-3.065 0-5.736.681-8.013 2.043s-4.022 3.246-5.235 5.65c-1.213 2.405-1.82 5.098-1.82 8.077 0 3.107.628 5.842 1.884 8.204 1.255 2.362 3.043 4.193 5.363 5.49 2.32 1.3 5.033 1.948 8.14 1.948zm7.023-19.217h-15.77c.383-2.086 1.277-3.682 2.682-4.789 1.404-1.106 3.192-1.66 5.363-1.66 2.256 0 4.075.564 5.459 1.692 1.383 1.128 2.138 2.714 2.266 4.757zm21.644 19.217c3.533 0 6.331-.755 8.395-2.266 2.065-1.511 3.097-3.735 3.097-6.672 0-1.958-.49-3.607-1.469-4.948-.978-1.341-2.447-2.458-4.405-3.352l-5.49-2.618c-1.277-.596-2.16-1.149-2.65-1.66a2.579 2.579 0 0 1-.734-1.851c0-1.49 1.213-2.235 3.639-2.235 2.256 0 4.873.639 7.853 1.915l2.554-5.426a27.33 27.33 0 0 0-5.076-1.692c-1.766-.405-3.48-.607-5.14-.607-3.277 0-5.842.724-7.693 2.17-1.852 1.448-2.777 3.512-2.777 6.194 0 3.703 2.064 6.533 6.193 8.491l5.363 2.618c1.191.596 2.01 1.139 2.458 1.628.447.49.67 1.054.67 1.692 0 1.83-1.532 2.745-4.597 2.745-3.022 0-6.15-.936-9.385-2.809l-2.81 5.555c1.703.979 3.608 1.745 5.715 2.298 2.107.554 4.203.83 6.289.83zm29.816-.894v-5.746h-1.533c-1.064 0-1.84-.244-2.33-.734s-.734-1.266-.734-2.33V60.93h6.001v-5.3h-6.001V43.82h-6.257v11.81h-5.235v5.3h5.235v16.664c0 2.426.68 4.299 2.043 5.618 1.362 1.32 3.341 1.98 5.938 1.98zM343 85.128l4.278-11.11h19.536l4.278 11.11h7.278l-18.26-44.692h-6.129l-18.26 44.692zm21.452-17.239H349.64l7.406-19.154zm30.518 18.196c2.341 0 4.342-.468 6.002-1.404a10.533 10.533 0 0 0 3.958-3.895h.128v4.342h6.257V40.436h-6.257v19.536h-.128a10.533 10.533 0 0 0-3.958-3.894c-1.66-.937-3.66-1.405-6.002-1.405-2.639 0-5.043.639-7.214 1.916-2.171 1.276-3.905 3.096-5.204 5.458-1.298 2.363-1.947 5.14-1.947 8.332 0 3.192.65 5.97 1.947 8.332 1.299 2.362 3.033 4.182 5.204 5.459 2.17 1.277 4.575 1.915 7.214 1.915zm1.341-6.129c-2.724 0-4.916-.883-6.576-2.65-1.66-1.766-2.49-4.075-2.49-6.927 0-2.852.83-5.16 2.49-6.927 1.66-1.766 3.852-2.65 6.576-2.65 2.724 0 4.916.884 6.576 2.65 1.66 1.766 2.49 4.075 2.49 6.927 0 2.852-.83 5.161-2.49 6.927-1.66 1.767-3.852 2.65-6.576 2.65zm29.241 5.172v-15.26c0-3.064.596-5.32 1.788-6.767 1.192-1.447 2.788-2.171 4.789-2.171 1.915 0 3.373.532 4.373 1.596s1.5 2.618 1.5 4.66v17.942h6.257V69.805c0-3.065.596-5.31 1.788-6.736 1.192-1.426 2.81-2.139 4.852-2.139 1.873 0 3.31.532 4.31 1.596 1 1.064 1.5 2.618 1.5 4.66v17.942h6.257v-18.26c0-4.129-.936-7.194-2.81-9.194-1.872-2-4.298-3-7.278-3-2 0-3.83.5-5.49 1.5-1.66 1-2.916 2.5-3.767 4.5h-.128c-1.66-4-4.64-6-8.938-6-2 0-3.778.446-5.331 1.34-1.554.894-2.735 2.298-3.544 4.214h-.128V55.63h-6.256v29.497zm48.204-35.754c1.277 0 2.362-.447 3.256-1.34.894-.895 1.34-1.98 1.34-3.257 0-1.277-.446-2.362-1.34-3.256-.894-.894-1.98-1.34-3.256-1.34-1.277 0-2.362.446-3.256 1.34-.894.894-1.341 1.98-1.341 3.256 0 1.277.447 2.362 1.34 3.256.895.894 1.98 1.34 3.257 1.34zm3.128 35.754V55.63h-6.257v29.497zm14.238 0v-14.11c0-3.49.702-6.044 2.107-7.662 1.404-1.617 3.32-2.426 5.746-2.426 4.512 0 6.768 2.384 6.768 7.15v17.048h6.256V66.995c0-4.256-1-7.374-3-9.353-2-1.98-4.704-2.969-8.109-2.969-4.384 0-7.597 1.81-9.64 5.427h-.128v-4.47h-6.257v29.498z"/>
  <mask id="b" fill="#fff">
    <use width="100%" height="100%" xlink:href="#a"/>
  </mask>
  <use width="100%" height="100%" fill="#9b183d" xlink:href="#a"/>
  <path fill="#9b183d" d="M0 0h127.691v127.691H0z" mask="url(#b)"/>
  <path fill="#ee0036" d="M63.846 0h63.846v63.846H63.846z" mask="url(#b)"/>
  <path fill="#702440" d="M0 63.846h63.846v63.846H0z" mask="url(#b)"/>
  <path fill="#fff" d="M72.243 43.346c15.397-1.16 24.704-8.492 27.604-18.264-20.319 9.363-45.674-2.091-50.472 18.596l-2.46 11.028c4.279-6.64 9.932-10.2 25.328-11.36zm-8.006 1.878c-7.567 1.09-13.637 4.6-17.044 10.767-1.097 1.984-1.482 4.116-1.482 4.116l-1.741 7.806c2.181-3.89 6.082-8.861 16.306-11.227.23-1.238 1.626-8.333 3.961-11.462zM42.381 75.035l-2.66 11.924c7.047-13.417 22.211-16.021 24.084-16.413 13.205-2.761 19.563-9.318 22.091-17.838-11.522 6.515-38.417-1.666-43.515 22.327zm-3.94 17.668-1.958 8.776c15.617-.88 17.34-15.887 19.887-27.81-4.858 1.697-15.566 8.342-17.93 19.034z" mask="url(#b)"/>
</svg>
