<svg xmlns="http://www.w3.org/2000/svg" viewBox="0 0 34.7 34.7">
  <path fill="#0051cd" d="M0 0h34.7v34.7H0z"/>
  <g fill="#fff">
    <path d="m20.898.549 3.878 2.23-15.27 8.782-3.879-2.23zM24.933 3.247 9.757 11.97v4.413L24.932 7.66zM18.83 11.86l-9.04 5.197-.001 4.413 9.04-5.197zM15.365 18.837l-5.597 3.217v4.413l5.596-3.217zM5.352 9.756l3.9 2.242-.001 4.414-3.9-2.242zM5.389 14.812l3.853 2.215-.002 4.414-3.853-2.214zM5.387 19.838l3.855 2.216-.002 4.705-3.855-2.215zM13.976 34.15l-3.878-2.23 15.098-8.681 3.878 2.23zM9.791 31.539l15.152-8.71v-4.413l-15.151 8.71zM15.87 22.94l9.041-5.197V13.33l-9.04 5.196zM19.336 15.963l5.597-3.217V8.332l-5.596 3.217zM29.35 25.073l-3.901-2.242.002-4.415 3.9 2.242zM29.313 19.988l-3.853-2.215.001-4.414 3.853 2.215zM29.314 14.962l-3.854-2.215.001-4.621 3.855 2.215z"/>
  </g>
  <style>
    
  </style>
</svg>
