<?xml version="1.0"?>
<svg width="34.7mm" height="34.7mm" version="1.1" viewBox="0 0 34.7 34.7" xmlns="http://www.w3.org/2000/svg">
 <g transform="translate(-66.263 -142.06)">
  <g transform="matrix(.26458 0 0 .26458 93.795 131.37)">
   <rect x="-104.06" y="40.422" width="131.15" height="131.15" fill="#0051cd" stroke-width=".44871"/>
   <g transform="matrix(1.5119 0 0 1.5119 -83.839 42.497)" fill="#fff">
    <path d="m38.869 0 9.694 5.5746-38.176 21.954-9.694-5.5747z"/>
    <path d="m48.954 6.7451-37.936 21.806-0.0013 11.032 37.936-21.806z"/>
    <path d="m33.698 28.276-22.601 12.991-0.0012 11.033 22.601-12.991z"/>
    <path d="m25.035 45.717-13.99 8.0421-0.0013 11.033 13.991-8.0421z"/>
    <path d="m0.0037583 23.017 9.751 5.6047-0.00375 11.035-9.751-5.6046z"/>
    <path d="m0.096543 35.657 9.6327 5.5367-0.00376 11.035-9.6327-5.5366z"/>
    <path d="m0.092298 48.221 9.6359 5.5386-0.00401 11.763-9.6359-5.5386z"/>
    <path d="m21.564 84-9.694-5.5746 37.743-21.704 9.6939 5.5746z"/>
    <path d="m11.102 77.471 37.879-21.773 0.0012-11.032-37.879 21.773z"/>
    <path d="m26.3 55.974 22.601-12.991 0.0013-11.033-22.601 12.991z"/>
    <path d="m34.964 38.532 13.99-8.0421 0.0012-11.033-13.99 8.0421z"/>
    <path d="m59.996 61.306-9.7509-5.6046 0.0037-11.035 9.751 5.6046z"/>
    <path d="m59.904 48.595-9.6327-5.5367 0.0037-11.035 9.6327 5.5366z"/>
    <path d="m59.908 36.031-9.636-5.5386 0.0039-11.552 9.636 5.5385z"/>
   </g>
  </g>
 </g>
 <style type="text/css">.st0{fill:#0051CD;stroke:#000000;stroke-miterlimit:10;}
	.st1{clip-path:url(#SVGID_2_);fill:#FFFFFF;}</style>
</svg>
