<svg xmlns="http://www.w3.org/2000/svg" viewBox="0 0 255.791 379.428">
  <path fill="#1a4658" d="M255.791 363.898c0 8.577-57.26 15.53-127.895 15.53C57.26 379.428 0 372.475 0 363.898c0-8.579 67.17-15.53 127.896-15.53 72.286 0 127.895 6.951 127.895 15.53"/>
  <path fill="#edf7fa" d="M247.875 251.838c-3.958 0-8.222-1.828-11.268-15.835-3.046-14.007-7.613-28.32-7.613-28.32 4.873 0 7.613-2.132 7.613-2.132-3.35-1.523-10.659-6.698-15.53-13.094-4.872-6.394-17.358-16.749-17.358-16.749v-20.706c0-14.008 8.984-24.97 8.984-24.97-6.09 0-8.984 5.48-8.984 5.48v-29.537c0-29.233 14.769-42.326 14.769-42.326-4.568-.304-7.613 1.827-7.613 1.827 2.132-21.62 8.756-28.015 8.756-28.015-24.361-6.395-37.95 7.917-37.95 7.917-2.741-13.093 7.974-20.71 7.974-20.71-12.484-2.74-22.81.915-22.81.915C166.845 6.399 174.472 0 174.472 0c-38.065 0-59.677 28.62-59.677 28.62-1.522-12.18 1.83-22.849 1.83-22.849-36.845 15.53-46.587 49.923-46.587 49.923-2.436-5.785-2.74-18.92-2.74-18.92S52.072 62.278 49.33 79.938c-2.74 17.663 2.436 68.364 2.436 68.364s-2.435-3.044-7.612-3.653c0 0 5.48 6.09 5.48 19.794 0 0-2.131-1.828-5.785-.914 0 0 5.785 5.176 6.395 14.007 0 0-6.7 4.568-10.354 9.136 0 0-5.786.304-8.83 1.218 0 0 4.872 2.74 5.786 5.177 0 0-14.313 14.617-21.621 26.492 0 0 6.395-3.958 10.962-2.74 0 0-10.05 12.18-13.399 32.278 0 0 4.872-2.435 7.004-1.217 0 0-6.09 12.788-6.395 26.187L6.7 278.026l5.177 3.654s-3.959 16.444-4.872 25.884c0 0 3.044-3.045 5.48-3.959 0 0 3.35 7.917 7.918 14.007 4.568 6.091 14.923 11.268 21.013 11.268l11.446-.447c-1.42 6.126-4.22 11.321-10.124 11.593l-.655 1.052a7.305 7.305 0 0 0-.364-.018c-.117 1.789-3.727 2.111-4.72 3.35-3.018 3.765-5.319 8.938-6.851 13.55-1.123 3.381-.593 3.38-1.37 6.853-.255 1.136-1.434 2.35-1.827 3.5 3.287-1.103 12.4-1.841 17.2-2.194l.08 4.249s.792.736 2.103 1.27c.045-.01.089-.022.143-.018.446.037.875.102 1.296.206 7.202-.644 12.218.571 20.566-.122 1.624-.193 3.147-.422 4.57-1.231.404-1.208.458-1.282.648-2.842.041-.278.041-.564.108-.903.13-.022.258-.041.386-.06a.958.958 0 0 1 .298-.041c.035-.01.065-.028.105-.03.133-.013.264-.024.397-.035a.415.415 0 0 1 .256-.022c1.51-.135 3.937-.263 5.447-.345 4.91-.008 11.372.557 11.372.557.4-5.504.8-14.045 9.706-38.939l2.208-1.37s27.357 9.64 52.741-.39c2.009 4.945 8.509 21.563 9.53 32.039.874 1.228.777 2.786.807 4.437.024 1.397.142 2.794.18 4.187.913-.124 4.208-.528 8.37-.521 1.51.082 3.936.21 5.447.345a.415.415 0 0 1 .256.022l.396.034c.04.003.07.02.106.03a.979.979 0 0 1 .299.042c.127.019.254.038.385.06.066.339.066.625.108.903.19 1.56.244 1.634.648 2.842.13.074.262.138.395.204 4.545-.577 9.15-.683 13.725-.466 3.597.17 7.133.845 10.673 1.49.001.033.003.067.003.101.357.038.706.064 1.055.086 1.9.34 3.804.656 5.721.863.037-2.398.023-4.495-.027-6.336 3.814.182 9.335.942 11.65 1.28.92.22 1.665.355 2.448.523.106.032.218.064.315.096l-.012-.028c.786.177 1.634.4 2.753.79-.17-2.06-.155-2.018-.428-4.6-.21-1.998-1.642-8.067-4.322-10.57 0 0 2.92 1.262 3.811 1.765-2.878-3.9-4.278-9.475-13.32-13.319 0 0 1.651-.778 3.161-.975-1.578-.973-2.783-1.355-4.38-1.24.542-1.54 2.93-5.429 4.934-5.928 0 0-1.23-.855-3.24-.194-.748.392-1.473.812-2.18 1.31-.266.188-.655-.007-.734-.3-.632-2.337-1.043-4.713-1.416-7.098 18.223-.66 20.779-10.01 20.779-10.01 1.522 1.22 1.522 3.96 1.522 3.96 7.916-10.354 7.003-20.708 7.003-20.708 1.828.304 3.35 1.523 3.35 1.523.914-15.835-3.958-42.937-3.958-42.937 2.436 1.218 3.958-.304 3.958-.304-2.74-1.218-3.044-4.264-3.044-4.264 3.959.305 4.568-3.35 4.568-3.35"/>
  <path fill="#cde9ee" d="M73.664 366.728s.714-7.702-1.798-13.259c0 0 4.757.323 5.556 12.884 0 0-3.331.387-3.758.375M49.788 340.756l.03-.237c.016.117.014.208-.03.237M54.241 366.13l-.043-.01.056-.145-.013.156"/>
  <path fill="#cde9ee" d="M114.796 28.62c-1.522-12.18 1.83-22.849 1.83-22.849-36.846 15.53-46.588 49.923-46.588 49.923-2.436-5.785-2.74-18.92-2.74-18.92S52.072 62.278 49.33 79.938c-2.74 17.663 2.436 68.364 2.436 68.364s-2.435-3.044-7.612-3.653c0 0 5.48 6.09 5.48 19.794 0 0-2.131-1.828-5.785-.914 0 0 5.785 5.176 6.395 14.007 0 0-6.7 4.568-10.354 9.136 0 0-5.786.304-8.83 1.218 0 0 4.872 2.74 5.786 5.177 0 0-14.313 14.617-21.621 26.492 0 0 6.395-3.958 10.962-2.74 0 0-10.05 12.18-13.399 32.278 0 0 4.872-2.435 7.004-1.217 0 0-6.09 12.788-6.395 26.187L6.7 278.026l5.177 3.654s-3.959 16.444-4.872 25.884c0 0 3.044-3.045 5.48-3.959 0 0 3.35 7.917 7.918 14.007 4.568 6.091 14.923 11.268 21.013 11.268l.77-.106c-.34 2.1-.722 4.191-1.28 6.252-.078.292-.466.487-.734.299a19.15 19.15 0 0 0-2.178-1.31c-2.01-.66-3.241.194-3.241.194 2.004.5 4.392 4.387 4.935 5.929-1.598-.116-2.803.266-4.381 1.239 1.51.197 3.162.975 3.162.975-9.043 3.844-10.443 9.42-13.32 13.319.89-.503 3.81-1.765 3.81-1.765-2.68 2.503-4.111 8.572-4.322 10.57-.272 2.582-.257 2.54-.427 4.6 2.397-.834 3.562-.917 5.502-1.382 2.999-.436 11.379-1.585 14.457-1.266l-.486 5.92.151-.002c1.58-.453 2.868-.392 4.278-.544.02-1.631.106-3.262.24-4.887-.095-2.778.25-5.308.818-8.128.018-.095.042-.194.061-.289 1.118-3.85 3.063-6.041 4.326-7.39.42-.447.784-.978 1.095-1.52a15.379 15.379 0 0 0 2.142-3.96c1.252-3.417.715-10.922-1.8-18.246 2.652 3.816 5.069 7.165 6.214 8.31l-.076-9.325s4.872 4.869 9.233 8.547c2.1 1.834 4.689 4.218 6.528 5.168.133.083.252-.802.399.534h-.002c.019 0 .037-.264.056-.254 2.47 1.386 5.01 2.486 7.388 4.026.255.164.515.243.765.416 1.1.758 3.039 1.6 4.78 2.518l1.647 19.448c1.484-20.44 13.132-40.013 13.132-40.013l-.426-.131c-3.605-1.114-29.975-10.237-45.555-42.813-1.026-2.145 5.786 2.435 5.786 2.435-6.396-15.53-8.832-40.5-8.832-40.5 2.131 1.827 4.264 2.13 4.264 2.13-4.568-12.79-6.395-28.624-6.395-42.936-1.218-77.042 27.254-94.703 27.254-94.703-4.872-1.827-10.048-1.675-10.048-1.675 5.634-13.55 24.36-32.43 24.36-32.43-5.025.304-24.666 5.632-24.666 5.632 16.292-42.479 32.736-53.746 32.736-53.746-1.218 10.2 2.741 21.012 2.741 21.012C141.6 5.333 169.98 7.372 169.98 7.372 172.085 2.988 174.476 0 174.476 0c-38.065 0-59.68 28.62-59.68 28.62M214.644 366.487s-.344-11.04-2.855-16.596c0 0 6.547 4.035 6.51 16.785 0 0-3.228-.176-3.655-.189"/>
  <path fill="#abd8d7" d="M44.301 309.711c4.313-42.238 5.487-124.867 5.487-124.867-9.364 18.499-16.9 52.072-16.9 52.072l1.826 7.308-4.11-1.827c-6.608 22.93-2.137 53.626-.657 62.273 4.203 3.327 9.21 4.45 14.354 5.041M35.468 308.798a666.588 666.588 0 0 0 4.27 19.986c1.143.171 2.428.085 2.428.085 1.048-4.084 1.222-10.404 2.036-18.18-3.002-.35-5.948-.884-8.734-1.89"/>
  <path fill="#cde9ee" d="M178.578 345.196a.446.446 0 0 1-.532-.207c-.474.093-.837.179-1.08.241 6.283-4.573 6.86-9.407 6.86-9.407-4.167 1.879-8.592 2.58-10.744 2.828 14.521-12.587 16.934-35.96 16.934-35.96-5.947 7.302-14.388 13.472-20.911 17.613l.014-.028s-4.37 2.444-8.41 4.347a.46.46 0 0 0-.487.227c-2.075.961-4.01 1.745-5.149 1.936 0 0 3.364 6.21 4.768 9.559l-.276.223s4.866 11.5 6.637 22.64c.187 1.883.332 3.532.433 4.792.084 1.63.2 2.753.2 2.753 6.434-.952 15.52-.025 15.52-.025-.043 1.048.533 3.564.638 4.02 3.055-.412 6.137-.592 9.22-.618-.04-10.798-.515-28.739-13.635-24.934"/>
  <path fill="#83bac0" d="M43.964 312.969c-10.088-1.706-19.244-13.3-19.244-13.3 7.356 7.821 16.513 8.868 16.513 8.868 1.209-8.932-6.174-29.377-6.174-29.377 5.468 6.81 8.459 14.686 10.095 21.133l-1.19 12.676"/>
  <path fill="#abd8d7" d="M66.86 297.152s7.936 13.989 14.902 20.041c7.517 6.531 14.502 15.759 17.471 21.354 0 0 3.769-8.753 5.824-11.8 0 0-22.267-6.528-38.198-29.595M170.449 324.436c1.103-1.553 2.367-2.996 3.572-4.47 1.975-2.418 4.231-4.766 5.89-7.397-2.863 2.141-6.05 3.997-9.307 5.957-9.456 6.408-16.044 8.222-16.044 8.222 2.055 3.046 5.824 11.799 5.824 11.799 1.796-3.386 5.07-8.103 9.037-12.749.332-.461.703-.905 1.028-1.362"/>
  <path fill="#545352" d="M63.849 88.838c-.866.063-3.637.133-3.637.133-25.107 1.753-43.561-17.703-43.561-17.703S15 86.454 25.907 99.762c10.91 13.308 33.017 15.586 33.017 15.586.719 3.112-.837 10.052-.837 10.052s6.464-7.15 8.105-20.7c1.153-9.493-1.807-15.9-2.343-15.862"/>
  <path fill="#6e7979" d="M63.849 88.838c-.833.047-3.637.133-3.637.133-25.107 1.753-43.561-17.703-43.561-17.703s11.47 33.193 49.775 30.57c0 0 1.06-6.14-2.577-13"/>
  <path fill="#545352" d="M189.202 88.838c.865.063 3.636.133 3.636.133 25.108 1.753 43.562-17.703 43.562-17.703s1.65 15.186-9.256 28.494c-10.91 13.308-33.018 15.586-33.018 15.586-.718 3.112.838 10.052.838 10.052s-6.464-7.15-8.106-20.7c-1.152-9.493 1.808-15.9 2.344-15.862"/>
  <path fill="#6e7979" d="M189.202 88.838c.832.047 3.636.133 3.636.133 25.108 1.753 43.562-17.703 43.562-17.703s-11.47 33.193-49.775 30.57c0 0-1.06-6.14 2.577-13"/>
  <path fill="#cde9ee" d="M50.744 201.288s-18.047 64.861 0 106.427V201.288M230.44 303.887c-8.906 6.797-18.174 7.228-18.174 7.228-.413-8.88 9.294-28.294 9.294-28.294a21.105 21.105 0 0 0-5.445 4.612l-.063-6.515 7.004-5.785-5.633-4.568 7.155-28.777-6.851 4.568s-2.13-40.956-.609-58.618c0 0-8.679-8.68-12.942-12.18 0 0 .806 12.61 1.725 32.758 3.89 16.163 9.93 49.611 2.415 79.028.087 5.963.152 12.019.186 18.132 0 0 3.745 13.01 4.962 22.146 0 0 1.218.343 3.045.039l-.138-13.99c9.409-2.842 14.07-9.784 14.07-9.784M146.013 178.294c0 6.918 4.43 12.526 9.897 12.526 5.466 0 9.898-5.608 9.898-12.526 0-6.92-4.432-12.528-9.898-12.528-5.467 0-9.897 5.608-9.897 12.528"/>
  <path fill="#fff" d="M146.318 174.948c0 6.81 4.362 12.332 9.745 12.332 5.382 0 9.745-5.521 9.745-12.332 0-6.812-4.363-12.333-9.745-12.333-5.383 0-9.745 5.52-9.745 12.333"/>
  <path fill="#474746" d="M153.476 168.589a3.817 3.817 0 0 0-.131.953c0 1.737 1.132 3.144 2.528 3.144 1.24 0 2.267-1.113 2.481-2.578.796 1.044 1.287 2.45 1.287 4.002 0 3.217-2.096 5.824-4.681 5.824-2.586 0-4.683-2.607-4.683-5.824 0-2.571 1.34-4.748 3.199-5.521"/>
  <path fill="#cde9ee" d="M98.509 178.294c0 6.918 4.43 12.526 9.897 12.526 5.466 0 9.897-5.608 9.897-12.526 0-6.92-4.431-12.528-9.897-12.528-5.467 0-9.897 5.608-9.897 12.528"/>
  <path fill="#fff" d="M98.814 174.948c0 6.81 4.363 12.332 9.745 12.332 5.382 0 9.744-5.521 9.744-12.332 0-6.812-4.362-12.333-9.744-12.333s-9.745 5.52-9.745 12.333"/>
  <path fill="#474746" d="M107.799 168.589a3.817 3.817 0 0 0-.131.953c0 1.737 1.131 3.144 2.528 3.144 1.24 0 2.268-1.113 2.481-2.578.797 1.044 1.287 2.45 1.287 4.002 0 3.217-2.097 5.824-4.682 5.824-2.585 0-4.682-2.607-4.682-5.824 0-2.571 1.34-4.748 3.199-5.521"/>
  <path fill="#545352" d="M181.673 188.122c-.62 1.869-2.73 2.365-8.738 3.527l-.409.079c-5.887 1.13-16.411.983-22.176.14a30.755 30.755 0 0 1-.717-.11c-5.343-.904-5.95-1.595-7.67-4.365-1.774-2.866-2.865-11.281-3.066-12.94l-.01-.084c-.213-1.754-.319-2.632 1.934-3.641 3.031-1.359 16.482-3.257 21.994-3.505 4.351-.192 13.575.414 17.793 1.03.66.097 1.15.186 1.453.267.486.129 2.272.997 2.181 2.897-.118 2.504-1.73 14.178-2.569 16.705zm-58.665-13.753-.01.083c-.2 1.66-1.292 10.075-3.066 12.941-1.719 2.77-2.327 3.461-7.67 4.365-.228.038-.468.075-.718.11-5.763.843-16.288.99-22.175-.14l-.409-.079c-6.008-1.162-8.117-1.658-8.738-3.527-.84-2.527-2.45-14.201-2.57-16.705-.09-1.9 1.697-2.768 2.182-2.897.302-.08.792-.17 1.453-.267 4.218-.616 13.442-1.222 17.794-1.03 5.511.248 18.962 2.146 21.992 3.505 2.254 1.009 2.149 1.887 1.935 3.64zm66.38-11.117c-4.413-.645-12.116-1.376-21.362-.904-12.032.62-22.341 2.29-28.5 3.287-1.838.298-3.283.533-4.385.679l-1.202.163c-1.351.186-2.237.303-2.991.34-.755-.037-1.641-.154-2.991-.34l-1.204-.163c-1.101-.146-2.546-.381-4.384-.68-6.158-.997-16.468-2.667-28.5-3.286-9.246-.472-16.949.26-21.362.904 0 0-4.71.6-8.738 2.304l.768 5.12s4.256-1.014 8.413-1.569c.773 7.219 2.276 16.495 2.276 16.495l.024.287c.114.468.22.922.336 1.417.856 3.648 1.706 5.792 5.127 7.078 3.36 1.268 11.309 2.443 19.326 2.856 2.98.155 6.364-.03 9.786-.527 5.076-.741 9.666-2.108 11.42-3.404 2.552-1.887 3.917-6.633 4.82-9.773l.271-.926c.32-1.07.597-2.195.865-3.286.386-1.565.784-3.183 1.124-3.742.061-.098.347-.435 1.463-.599.345-.05.733-.076 1.16-.081.426.005.814.032 1.16.081 1.114.164 1.401.501 1.463.599.34.559.737 2.177 1.122 3.742.27 1.091.547 2.215.866 3.286l.27.926c.904 3.14 2.27 7.886 4.821 9.773 1.754 1.296 6.344 2.663 11.42 3.404 3.422.498 6.806.682 9.786.527 8.018-.413 15.966-1.588 19.326-2.856 3.42-1.286 4.271-3.43 5.128-7.078.115-.495.221-.949.335-1.417l.024-.287s1.503-9.276 2.276-16.495c4.157.555 8.413 1.568 8.413 1.568l.768-5.12c-4.028-1.703-8.737-2.303-8.737-2.303z"/>
  <path fill="#a0d1de" d="M111.46 150.288s-11.007-5.25-17.307 4.498c0 0-.65-9.693 8.239-10.776 8.89-1.085 9.069 6.278 9.069 6.278M107.332 136.044s-10.204-4.816-14.854 4.44c0 0-1.518-8.087 5.764-10.038 7.283-1.953 9.09 5.598 9.09 5.598M150.893 156.232s8.549-4.078 13.442 3.494c0 0 .506-7.528-6.398-8.37-6.906-.843-7.044 4.876-7.044 4.876M156.972 142.748s8.65-1.4 10.132 6.506c0 0 2.871-5.708-2.144-8.73-5.015-3.023-7.988 2.224-7.988 2.224"/>
  <path fill="#b2dce5" d="M110.696 227.083s6.04-4.059 9.605-4.618c0 0 .778 7.66 4.32 11.434 0 0 7.646-6.892 15.207-7.382 0 0 1.952 4.2 5.12 5.758l-.017.049c1.143.714 2.544 1.435 3.901 1.737 0 0 4.34-2.626 5.596-7.423 0 0 .417 10.126-5.939 15.645 0 0-4.846-2.366-8.338-6.151-1.049-1.022-2.139-2.21-2.668-3.175 0 0-11.213 7.932-11.623 12.456 0 0-8.095-7.892-10.854-13.972 0 0-5.403 1.705-6.901 2.804 0 0-4.342-7.101-5.224-13.51 0 0 5.222 4.987 7.815 6.348"/>
  <path fill="#545352" d="M131.078 207.182c-.448-.095 11.374.818 22.981.406 0 0 .62-2.215 1.51-3.431 0 0-.193 3.727.85 4.49 0 0-5.809 2.286-11.667 2.27 0 0 6.384-1.066 8.524-2.167 0 0-11.648.648-22.198-1.568"/>
</svg>
