<svg xmlns="http://www.w3.org/2000/svg" viewBox="0 0 511.996 274.607">
  <circle cx="374.692" cy="137.304" r="137.304" fill="#fff"/>
  <path fill="#ee350f" d="M492.218 66.272c12.552 20.724 19.778 45.034 19.778 71.032 0 75.83-61.473 137.303-137.304 137.303a137.99 137.99 0 0 1-26.555-2.566zm-11.264-15.927.036.044-73.02 104.283-14.76-16.622 17.135-18.454h-12.769l-14.005 15.406V96.364h-9.886v62.281h9.886v-17.053l14.911 17.053h6.707l-75.833 108.3c-51.651-18.06-89.218-66.116-91.823-123.287l7.801 16.964 12.357-27.845 12.522 27.845 18.866-41.026h-10.05l-8.404 20.019-8.238-20.019h-8.32l-8.486 20.019-7.295-18.09c3.07-26.841 13.881-51.33 30.145-71.18zm-168.396 68.263c-2.911 0-5.63.521-8.156 1.565-2.526 1.043-4.737 2.499-6.632 4.366a20.355 20.355 0 0 0-4.448 6.55c-1.071 2.498-1.607 5.176-1.607 8.032s.536 5.533 1.607 8.032c1.07 2.499 2.553 4.668 4.448 6.508 1.895 1.84 4.106 3.295 6.632 4.366 2.526 1.071 5.245 1.607 8.156 1.607 2.91 0 5.63-.536 8.156-1.607 2.526-1.07 4.737-2.526 6.631-4.366 1.895-1.84 3.378-4.01 4.45-6.508 1.07-2.499 1.606-5.176 1.606-8.032s-.536-5.534-1.607-8.033a20.355 20.355 0 0 0-4.449-6.549c-1.894-1.867-4.105-3.323-6.631-4.366-2.527-1.044-5.245-1.565-8.156-1.565zm48.276 0c-2.636 0-4.86.686-6.673 2.06-1.813 1.372-3.186 2.91-4.12 4.613v-5.685h-9.39v39.05h9.885v-25.54c.769-1.262 1.867-2.457 3.295-3.583 1.428-1.126 3.296-1.689 5.602-1.689.879 0 1.717.083 2.513.248.796.164 1.47.384 2.018.659l3.46-8.898a18.038 18.038 0 0 0-3.46-.947c-1.153-.192-2.197-.288-3.13-.288zm-48.276 9.226c1.647 0 3.144.302 4.49.907 1.345.604 2.485 1.428 3.419 2.471a11.018 11.018 0 0 1 2.141 3.584c.495 1.345.742 2.787.742 4.325 0 1.538-.247 2.993-.742 4.366-.494 1.373-1.208 2.568-2.141 3.584-.934 1.016-2.074 1.826-3.42 2.43-1.345.604-2.842.906-4.49.906-1.647 0-3.143-.302-4.489-.906-1.346-.604-2.485-1.414-3.419-2.43-.934-1.016-1.647-2.211-2.142-3.584a12.792 12.792 0 0 1-.741-4.366c0-1.538.247-2.98.741-4.325a11.018 11.018 0 0 1 2.142-3.584c.934-1.043 2.073-1.867 3.419-2.471 1.346-.605 2.842-.907 4.49-.907zM374.692 0c33.56 0 64.309 12.04 88.16 32.038h-176.32C310.384 12.04 341.132 0 374.692 0zM90.868 118.607c5.437 0 9.72 1.318 12.851 3.955 3.13 2.636 4.696 6.178 4.696 10.627v25.456H99.27v-4.943c-1.263 1.703-3.006 3.117-5.23 4.243-2.225 1.126-4.71 1.689-7.456 1.689-1.868 0-3.666-.289-5.396-.865-1.73-.577-3.254-1.428-4.573-2.554a12.372 12.372 0 0 1-3.13-4.078c-.769-1.593-1.153-3.378-1.153-5.355 0-1.977.398-3.776 1.194-5.396a12.441 12.441 0 0 1 3.295-4.16c1.4-1.154 3.048-2.046 4.943-2.678 1.895-.631 3.94-.947 6.138-.947 1.812 0 3.68.233 5.602.7 1.922.467 3.597 1.167 5.025 2.1v-2.223c0-1.264-.275-2.335-.824-3.213a6.55 6.55 0 0 0-2.06-2.101 8.447 8.447 0 0 0-2.76-1.112c-1.015-.22-1.99-.33-2.924-.33-1.318 0-2.993.22-5.025.66-2.032.439-4.201 1.18-6.508 2.224l-3.213-8.156c1.977-.934 4.325-1.758 7.044-2.472 2.718-.714 5.588-1.07 8.609-1.07zm113.275 0c2.691 0 5.231.495 7.62 1.483a19.067 19.067 0 0 1 6.261 4.16c1.785 1.786 3.2 3.927 4.243 6.426 1.044 2.5 1.565 5.26 1.565 8.28v1.565c0 .66-.027 1.373-.082 2.142h-29.163c.22.934.617 1.867 1.194 2.801.577.934 1.346 1.771 2.307 2.513.961.741 2.073 1.359 3.336 1.853 1.264.495 2.691.742 4.284.742 1.648 0 3.433-.302 5.355-.907 1.922-.604 3.652-1.62 5.19-3.048l4.943 7.415c-1.593 1.318-3.735 2.581-6.426 3.79-2.69 1.208-5.767 1.812-9.227 1.812-2.965 0-5.725-.522-8.279-1.566-2.554-1.043-4.778-2.498-6.673-4.366-1.895-1.867-3.378-4.064-4.449-6.59-1.07-2.527-1.606-5.245-1.606-8.156 0-2.801.494-5.437 1.483-7.909.988-2.471 2.348-4.627 4.078-6.467 1.73-1.84 3.803-3.295 6.22-4.366 2.416-1.071 5.025-1.607 7.826-1.607zm-169.954-17.63v9.392H9.886v14.088H32.54v9.391H9.886v24.797H0v-57.667zm28.257 17.63c.933 0 1.977.096 3.13.289 1.154.192 2.307.508 3.46.947l-3.46 8.897c-.549-.274-1.222-.494-2.018-.659a12.378 12.378 0 0 0-2.513-.247c-2.307 0-4.174.563-5.602 1.689-1.428 1.126-2.526 2.32-3.295 3.584v25.538h-9.886v-39.049h9.392v5.684c.933-1.702 2.306-3.24 4.119-4.613 1.812-1.373 4.036-2.06 6.673-2.06zm101.083 0c1.977 0 3.817.344 5.52 1.03 1.702.687 3.157 1.662 4.365 2.925 1.209 1.263 2.156 2.814 2.843 4.654.686 1.84 1.03 3.94 1.03 6.303v25.126H167.4v-22.573c0-5.492-2.225-8.238-6.673-8.238-2.197 0-3.914.55-5.15 1.648-1.235 1.098-2.182 2.224-2.842 3.378v25.785h-9.885v-22.573c0-5.492-2.225-8.238-6.673-8.238-2.197 0-3.913.55-5.15 1.648-1.235 1.098-2.182 2.224-2.841 3.378v25.785H118.3v-39.049h9.227v5.684c.988-1.647 2.444-3.171 4.366-4.572 1.922-1.4 4.394-2.1 7.414-2.1 2.582 0 4.943.59 7.085 1.77 2.142 1.181 3.735 2.87 4.778 5.067.44-.824 1.03-1.648 1.771-2.471a11.762 11.762 0 0 1 2.678-2.183c1.043-.632 2.224-1.154 3.542-1.566 1.318-.412 2.774-.618 4.367-.618zM89.96 140.851c-.878 0-1.757.096-2.636.288a8.88 8.88 0 0 0-2.43.906 5.088 5.088 0 0 0-1.813 1.689c-.466.714-.7 1.593-.7 2.636 0 1.044.22 1.895.66 2.554a4.498 4.498 0 0 0 1.688 1.524 7.576 7.576 0 0 0 2.266.742 14.08 14.08 0 0 0 2.306.205c2.307 0 4.202-.48 5.685-1.441 1.482-.961 2.663-1.991 3.542-3.09v-4.036c-1.263-.66-2.691-1.154-4.284-1.483-1.593-.33-3.02-.494-4.284-.494zm114.182-13.264c-1.593 0-2.966.247-4.12.741-1.153.495-2.127 1.126-2.924 1.895-.796.77-1.4 1.62-1.812 2.554-.412.934-.645 1.84-.7 2.719h19.36c-.055-.824-.289-1.703-.7-2.636-.413-.934-1.017-1.8-1.813-2.596-.797-.796-1.799-1.441-3.007-1.936-1.208-.494-2.636-.74-4.284-.74z"/>
</svg>
