<svg xmlns="http://www.w3.org/2000/svg" viewBox="0 0 254.82 250.887">
  <g fill="#b5010f">
    <path d="M251.904 4.282c13.507 13.502-23.94 72.85-30.27 79.183-6.33 6.321-22.41.506-35.91-13-13.509-13.5-19.327-29.583-12.997-35.913 6.328-6.334 65.672-43.777 79.177-30.27M62.485 18.567C41.864 6.867 12.52-6.149 3.185 3.187-6.273 12.64 7.22 42.644 19.043 63.304a126.812 126.812 0 0 1 43.442-44.738"/>
    <path d="M231.304 78.809c1.898 6.44 1.557 11.76-1.523 14.834-7.193 7.196-26.624-.464-44.14-17.134a89.383 89.383 0 0 1-3.627-3.427C175.681 66.745 170.753 60 167.6 53.79c-6.135-11.006-7.67-20.726-3.033-25.364 2.528-2.524 6.571-3.212 11.502-2.325 3.216-2.034 7.013-4.299 11.177-6.62-16.93-8.83-36.177-13.818-56.593-13.818-67.72 0-122.619 54.89-122.619 122.615 0 67.713 54.9 122.61 122.619 122.61s122.615-54.897 122.615-122.61c0-21.87-5.74-42.377-15.766-60.156-2.167 3.955-4.274 7.578-6.198 10.687"/>
  </g>
</svg>
