<svg xmlns="http://www.w3.org/2000/svg" viewBox="0 0 511.364 94.827">
  <path fill="#3d4d66" d="M157.829 80.8s8.13-3.349 8.13-17.839c0-15.05-8.133-18.95-8.133-18.95V80.8zm317.52-24.79V34.905s-3.739.198-3.739-4.318v-4.042h17.448c8.148 0 22.306 2.134 22.306 20.067 0 3.9-.373 21.551-19.379 21.551-4.296 0-6.854-1.67-6.854-1.67v19.453c0 8.068-9.781 7.114-9.781 7.114V66.395c-2.063 1.26-4.691 2.14-7.948 2.14-7.132 0-11.34-5.295-11.34-11.426V41.134c0-5.482-4.75-6.225-6.122-6.225-5.576 0-8.676 5.016-8.676 10.777v21.738h-9.69v-26.29c0-5.482-4.394-6.225-5.763-6.225-5.298 0-8.412 5.016-8.412 10.777v21.738h-9.767v-.96c-2.033 1.223-4.605 2.074-7.776 2.074-4.936 0-8.504-2.602-9.69-6.41-.091-.278-.091-.37-.186-.37l-.278.279c-2.555 4.551-7.758 7.15-13.243 7.15-6.33 0-10.12-2.869-12.38-6.46-3.002 3.182-8.4 6.37-16.967 6.37-8.007 0-12.98-2.678-16.043-6.246-1.864 2.753-5.295 5.69-10.83 5.69-6.854 0-8.132-6.413-8.132-6.413-.094-.278-.186-.278-.281-.278l-.264.187c-2.569 4.551-7.414 6.874-12.899 6.874-6.575 0-10.483-3.004-12.789-6.706-3.387 3.352-9.57 6.89-18.647 6.89-10.14 0-15.747-3.301-18.843-7.444-3.25 3.503-9.607 7.444-19.18 7.444-22.31 0-22.67-15.978-22.67-21.738 0-13.192 8.227-22.482 20.939-22.482h.077c1.295 0 13.71.187 13.71 13.192v.095c0 1.298-.358 14.772-19.192 14.772-1.09 0-3.645-.187-4.285-.374l-.187.092c0 .465.267 8.267 13.616 8.267 4.821 0 10.226-1.745 13.93-6.78-.55-2.684-.58-5.146-.58-6.782 0-13.192 8.225-22.482 20.92-22.482h.094c1.278 0 13.708.187 13.708 13.192v.095c0 1.298-.355 14.772-19.192 14.772-1.09 0-3.645-.187-4.282-.374l-.187.092c0 .465.264 8.267 13.613 8.267 4.77 0 10.113-1.706 13.811-6.616a26.521 26.521 0 0 1-.367-4.25c0-11.89 6.122-25.178 24.941-25.178.827 0 1.745.095 2.65.095V9.176s-.25-8.359 5.872-8.359h3.817v53.041c0 .839.092 4.646 3.66 4.646 1.173 0 2.649-.598 3.816-2.468a26.591 26.591 0 0 1-1.076-7.565c0-6.596 2.291-23.501 23.68-23.501 4.844 0 9.052 1.393 9.052 1.393v8.563c0 6.425-8.416 5.556-8.416 5.556v-6.317s-1.105-.557-3.111-.557c-4.661 0-11.142 3.902-11.142 14.68 0 6.969 4.208 12.356 12.34 12.356 3.83 0 8.83-1.508 12.385-6.332a29.043 29.043 0 0 1-.329-4.259c0-11.89 6.137-25.178 24.956-25.178 5.577 0 12.34 1.674 12.34 1.766v26.476c0 1.95.731 5.574 4.485 5.574 1.512 0 3.432-.572 5.032-2.507V34.91s-3.85-.11-3.85-4.43v-3.933h7.912c5.565 0 5.705 3.903 5.705 3.903s3.567-4.83 11.061-4.83c4.578 0 8.86 1.298 11.059 5.663 0 0 0 .094.187.094l.186-.186c.267-.466 3.476-5.571 12.698-5.571 7.135 0 13.162 3.9 13.162 12.724 0 0-.092 14.122-.092 14.958 0 2.045.824 5.295 4.563 5.295 1.56 0 3.497-.563 5.127-2.587zM148.404 34.718s-4.472.548-4.472-3.912v-4.264h4.377c0-9.85.095-14.4.095-14.68C148.403-2.717 168.48.249 168.48.249s-.622 8.27-5.17 8.27c-4.564 0-5.482 3.254-5.482 4.741v13.284h12.976s.403 8.173-4.94 8.173h-1.559c-3.191 0-6.122 0-6.308.092.918.376 16.28 5.947 16.28 28.058-.004 26.666-25.875 31.961-25.875 31.961zm31.872-8.173c6.759 0 5.061 7.059 5.061 7.059s0 .373.172.373c.095 0 .187-.092.373-.373.19-.279 5.204-8.268 15.907-8.268.826 0 2.554.092 3.1.466v11.292c0 5.862-8.227 5.245-8.227 5.245v-6.504c-3.472 0-5.935 2.228-7.585 4.551-2.928 4.182-3.195 10.034-3.195 11.892V67.42H176.1V26.546zm83.84 6.688c-6.121 0-9.316 5.853-9.316 11.24 0 .186 1.014.652 4.3.652 10.14 0 10.327-6.318 10.327-7.245 0-4.368-4.019-4.647-5.31-4.647zm46.158.652s-1.277-.56-4.563-.56c-4.475 0-12.792 3.437-12.792 15.329 0 2.415.095 10.498 7.68 10.498 6.2 0 9.675-5.39 9.675-10.128V33.883zm78.154 0s-1.277-.56-4.563-.56c-4.49 0-12.807 3.437-12.807 15.329 0 2.415.092 10.59 7.68 10.59 6.215 0 9.69-5.482 9.69-10.22V33.883zm99.448.925c-.904 0-1.822 0-2.74.095V57.2s1.463 2.601 6.4 2.601c7.68 0 9.506-7.337 9.506-12.818 0-10.5-6.762-12.173-13.166-12.173zm-261.768-1.577c-6.14 0-9.334 5.853-9.334 11.24 0 .186 1.013.652 4.3.652 10.142 0 10.329-6.318 10.329-7.245 0-4.368-4.021-4.647-5.298-4.647z"/>
  <path fill="#38a1e7" d="M37.763 61.865c3.784 0 5.506 1.798 5.77 4.815h.05c-.01.14-.018.28-.024.42.006.143.009.291.009.442v.433c.27 4.51 3.799 8.163 8.326 8.735a9.825 9.825 0 0 1 1.09-.056h1.37c4.347-.72 7.686-4.297 7.95-8.682v-.43c0-.186.006-.364.015-.542a6.676 6.676 0 0 0-.015-.32h.036c.266-3.017 1.985-4.815 5.772-4.815h5.805v5.677c0 3.918-2.042 5.678-5.808 5.678h-1.005c-4.18.465-7.538 3.555-8.311 7.541v1.57c0 .85-.098 1.598-.285 2.247v6.415c0 2.107-1.775 3.834-3.917 3.834h-3.663c-2.157 0-3.914-1.727-3.914-3.834v-8.78c0-.362.05-.711.148-1.046-.631-4.178-4.071-7.467-8.395-7.947H37.76c-3.763 0-5.805-1.76-5.805-5.678v-5.677zm15.225 0c4.13 0 5.805 3.401 5.805 5.677 0 3.918-2.045 5.678-5.808 5.678s-5.805-2.146-5.805-5.678 1.674-5.677 5.808-5.677zM6.14 45.955c3.784 0 5.505 1.799 5.77 4.813h.052c-.008.142-.02.281-.026.423.006.145.009.29.009.442v.43c.272 4.512 3.822 8.169 8.347 8.735.338-.036.696-.053 1.073-.053h1.36c4.273-.703 7.594-4.17 7.959-8.454v-.658c0-.208.006-.406.018-.602l-.018-.263h.035c.267-3.014 2.004-4.813 5.788-4.813h5.807v5.678c0 3.917-2.059 5.674-5.807 5.674H35.49c-4.175.466-7.544 3.556-8.32 7.545v1.567c0 3.917-2.04 5.675-5.805 5.675-4.718 0-5.805-2.143-5.805-5.675 0-.272.009-.533.03-.791-.475-4.356-3.995-7.826-8.434-8.32H6.14c-3.764 0-5.808-1.758-5.808-5.675v-5.678zm64.363 0c3.784 0 5.506 1.799 5.77 4.813h.053c-.009.142-.02.281-.027.423.006.145.01.29.01.442v.43c.266 4.422 3.681 8.022 8.076 8.697l.269.037.345-.029c.234-.015.476-.023.73-.023h1.36c4.346-.712 7.71-4.294 7.976-8.683v-.43c0-.147 0-.296.01-.44l-.03-.424h.056c.264-3.014 1.985-4.813 5.77-4.813h5.804v5.678c0 3.917-2.056 5.674-5.808 5.674h-1.016c-4.172.466-7.542 3.56-8.318 7.548v1.564c0 3.917-2.042 5.675-5.805 5.675-4.717 0-5.808-2.143-5.808-5.675 0-.272.012-.533.03-.791-.474-4.356-3.991-7.826-8.43-8.32h-1.017c-3.763 0-5.808-1.758-5.808-5.675v-5.678zm15.225 0c4.134 0 5.808 3.4 5.808 5.678 0 3.917-2.045 5.674-5.808 5.674-3.748 0-5.808-2.142-5.808-5.674 0-3.535 1.675-5.678 5.808-5.678zm-64.36 0c4.13 0 5.802 3.4 5.802 5.678 0 3.828-1.948 5.593-5.551 5.672l-.253.002-.258-.003c-3.6-.097-5.548-2.221-5.548-5.671 0-3.535 1.674-5.678 5.808-5.678zm16.395-15.47c3.781 0 5.506 1.798 5.766 4.815h.054l-.024.42c.006.146.009.294.009.445v.43c.272 4.513 3.805 8.166 8.335 8.732.341-.035.703-.053 1.082-.053h1.357c4.353-.717 7.698-4.294 7.962-8.682v-.43c0-.184.006-.365.015-.542 0-.107-.005-.214-.015-.32h.039c.26-3.017 1.985-4.816 5.769-4.816h5.805v5.678c0 3.917-2.042 5.677-5.808 5.677h-1.004c-4.182.466-7.539 3.556-8.312 7.545v1.567c0 3.918-2.045 5.675-5.808 5.675-4.718 0-5.805-2.143-5.805-5.675 0-.272.012-.533.03-.79-.474-4.357-3.992-7.827-8.443-8.322H37.76c-3.763 0-5.805-1.76-5.805-5.677v-5.678zm15.225-.004c4.13 0 5.805 3.4 5.805 5.678 0 3.917-2.045 5.677-5.808 5.677s-5.805-2.145-5.805-5.677c0-3.532 1.674-5.678 5.808-5.678zM5.808 15.31c3.78 0 5.505 1.799 5.766 4.815h.054l-.027.42c.006.146.009.291.009.442v.427c.272 4.516 3.822 8.176 8.347 8.742v-.003c.338-.036.696-.054 1.073-.054h1.36c4.35-.71 7.716-4.296 7.977-8.69v-.422c0-.148 0-.296.009-.438a18.566 18.566 0 0 0-.027-.424h.053c.264-3.016 1.986-4.815 5.77-4.815h5.808v5.677c0 3.918-2.06 5.675-5.808 5.675h-1.017c-4.175.465-7.544 3.556-8.32 7.544v1.568c0 3.917-2.039 5.677-5.805 5.677-4.7 0-5.805-2.142-5.805-5.677a9.7 9.7 0 0 1 .03-.788c-.475-4.356-3.992-7.83-8.43-8.324h-1.02C2.045 26.662 0 24.905 0 20.987V15.31zm100.867-.003v5.677c0 3.918-2.056 5.675-5.808 5.675h-1.016c-4.172.465-7.542 3.559-8.318 7.547v1.565c0 3.917-2.042 5.677-5.805 5.677-4.717 0-5.808-2.142-5.808-5.677 0-.273.012-.534.03-.791-.474-4.356-3.991-7.823-8.43-8.321h-1.017c-3.763 0-5.808-1.757-5.808-5.675V15.31h5.808c3.784 0 5.506 1.799 5.77 4.815h.053l-.027.42c.006.146.01.291.01.442v.427c.272 4.516 3.822 8.173 8.347 8.742l-.003-.003c.34-.036.696-.054 1.075-.054h1.36c4.347-.71 7.71-4.293 7.977-8.682v-.433c0-.148 0-.296.01-.441l-.03-.42h.056c.26-3.017 1.985-4.816 5.77-4.816zm-85.642.003c4.13 0 5.802 3.399 5.802 5.677 0 3.918-2.039 5.675-5.805 5.675-3.749 0-5.805-2.142-5.805-5.675 0-3.535 1.689-5.677 5.808-5.677zm64.695 0c4.134 0 5.808 3.399 5.808 5.677 0 3.918-2.045 5.675-5.808 5.675-3.748 0-5.808-2.142-5.808-5.675 0-3.535 1.675-5.677 5.808-5.677zM37.763.005c3.784 0 5.506 1.799 5.766 4.815h.054l-.024.421c.006.145.009.29.009.442v.432c.272 4.513 3.805 8.167 8.335 8.733v.003c.341-.036.703-.054 1.082-.054h1.357c4.353-.717 7.698-4.293 7.962-8.682v-.43c0-.183.006-.364.015-.542 0-.107-.005-.213-.015-.32h.039c.26-3.02 1.985-4.818 5.769-4.818h5.805v5.678c0 3.917-2.042 5.677-5.808 5.677h-1.02c-4.174.474-7.526 3.562-8.296 7.541v1.57c0 3.918-2.045 5.675-5.808 5.675-4.718 0-5.805-2.145-5.805-5.674 0-.273.012-.534.03-.791-.474-4.353-3.983-7.82-8.428-8.321H37.76c-3.763 0-5.805-1.76-5.805-5.677V.005zm15.225 0c4.13 0 5.805 3.399 5.805 5.678 0 3.917-2.045 5.677-5.808 5.677S47.18 9.215 47.18 5.683c0-3.533 1.674-5.678 5.808-5.678z"/>
</svg>
