<svg xmlns="http://www.w3.org/2000/svg" viewBox="0 0 256 228.89">
  <path fill="#ed1d7f" d="M106.64.245c62.915-4.092 117.135 43.479 121.739 105.883v13.81c0 1.535-1.024 2.558-2.558 2.558h-.512c-1.023 0-1.534-.511-2.046-1.023-.511-.511-.511-1.534-.511-2.046.511-4.092.511-8.696 0-12.788C218.66 46.793 166.997 1.78 107.15 5.872 47.304 9.964 2.29 61.627 6.384 121.473c4.092 59.847 55.754 104.86 114.578 100.767 11.764-1.023 22.506-3.58 33.248-7.672h1.023c1.534-.512 2.557.511 3.069 1.534.511 1.535 0 3.07-1.535 3.58-11.253 4.604-23.018 7.162-34.782 8.185C59.069 232.471 4.337 184.9.245 121.985-3.847 59.069 43.724 4.849 106.64.245zm130.434 139.642C248.84 149.095 256 162.905 256 178.762c0 27.622-24.04 50.128-51.15 50.128s-49.617-21.995-49.617-49.616c0-10.742 3.58-20.46 9.207-28.645 19.437-28.133 12.788-67.008-15.345-86.956-28.133-19.438-67.008-12.788-86.957 15.345-19.437 28.133-12.788 67.008 15.345 86.956 23.018 15.857 52.686 14.323 73.658-1.534-2.558 9.719-2.558 19.949 0 29.156-27.11 13.3-60.87 11.765-87.468-7.161-39.898-28.133-49.105-82.353-21.484-121.74 28.133-39.897 82.353-49.104 121.74-21.483 39.897 28.133 49.104 82.353 21.483 121.74-3.07 4.091-4.604 9.207-4.604 14.322 0 13.81 11.253 25.064 25.064 25.064 13.81 0 25.064-11.254 25.064-25.064 0-7.673-3.58-14.834-9.207-19.438-4.092-3.58-9.207-5.626-15.345-5.626-2.046 0-4.092 0-6.138.511 3.58-8.184 6.138-16.368 7.672-25.575 10.742 0 20.972 4.092 29.156 10.741z"/>
</svg>
