<svg xmlns="http://www.w3.org/2000/svg" viewBox="0 0 256 255.843">
  <path fill="#097243" d="m127.995 127.87 35.577 106.771c.01.021.01.042.02.074 1.556 4.321 4.061 8.163 7.193 11.389l3.937-8.204-2.351-230.09-1.586-7.518-.094-.25-3.285 2.804-40.739 121.968 1.328 3.056"/>
  <path fill="#13a564" d="m193.668 255.833 62.332.01-.063-.146L170.816.271v245.822c5.784 5.982 13.853 9.74 22.852 9.74"/>
  <path fill="#4d7bbe" d="m85.319.031-.01.094-.031-.094L.063 255.708l-.063.135h62.332c8.989 0 17.068-3.758 22.852-9.76 3.131-3.236 5.637-7.067 7.192-11.389.011-.032.011-.053.021-.063L170.712 0H85.309v.031h.01"/>
</svg>
