<svg xmlns="http://www.w3.org/2000/svg" viewBox="0 0 256.001 256.001">
  <path fill="#68a5c6" d="M169.533 127.998a39.8 39.8 0 0 1-.051 1.99c-.003.057-.011.116-.013.174l.061.291L256 255.884v.114V239.686l-90.75-133c-.341-.602-1.852-.739-2.227-1.318l-.111-.179-.004.003a34.532 34.532 0 0 0-4.855-5.836c7.105 7.452 11.48 17.532 11.48 28.642z"/>
  <path fill="#98b7d4" d="M128.001 169.533c-.67 0-1.33-.018-1.992-.05l-.171-.014-4.837 1.883L3.833 251.187 0 256.001h14.127l4.707-1.981 126.5-85.5 3.526-4.419a33.865 33.865 0 0 0 1.772-1.079l.18-.109-.002-.006a34.38 34.38 0 0 0 5.835-4.853c-7.452 7.108-17.533 11.479-28.644 11.479z"/>
  <path fill="#347294" d="m0 14.127 1.666 5.058 86.335 127.667 3.899 2.008a35.73 35.73 0 0 0 1.079 1.776l.109.179.006-.003a34.505 34.505 0 0 0 4.853 5.836c-7.108-7.451-11.479-17.533-11.479-28.644 0-.669.018-1.331.05-1.991l.014-.171-1.365-4.822-81-118.667L0 0z"/>
  <path fill="#5089af" d="m241.874.001-5.04 1.852L110 87.353l-2.86 4.55c-.601.341-1.193.699-1.772 1.076l-.179.11.002.004a34.44 34.44 0 0 0-5.835 4.855c7.451-7.108 17.533-11.48 28.644-11.48.669 0 1.33.018 1.991.051.056.003.115.01.171.013L134 85.519 252.167 4.686 256 .001z"/>
  <path fill="#367ba0" d="m0 256.001 125.836-86.526c-10.097-.521-19.236-4.644-26.165-11.112a41.144 41.144 0 0 1-1.726-1.719 34.34 34.34 0 0 1-4.854-5.834l-.005.002-.11-.18a35.27 35.27 0 0 1-1.078-1.772L0 14.127z"/>
  <path fill="#5495bf" d="m0 0 86.529 125.836c.52-10.097 4.644-19.235 11.109-26.164a42.393 42.393 0 0 1 1.718-1.727 34.373 34.373 0 0 1 5.835-4.853l-.002-.006.179-.11c.58-.377 1.171-.735 1.772-1.078L241.874 0z"/>
  <path fill="#71b6db" d="M130.165 86.529c10.097.52 19.235 4.644 26.164 11.111a43.071 43.071 0 0 1 1.727 1.719 34.256 34.256 0 0 1 4.853 5.835l.006-.003.11.18c.377.578.735 1.17 1.078 1.772l91.898 134.734V0z"/>
  <path fill="#a5c8e8" d="M158.363 156.33a41.735 41.735 0 0 1-1.718 1.726 34.315 34.315 0 0 1-5.836 4.854l.003.005-.18.11c-.577.377-1.17.735-1.772 1.078L14.126 256.001H256l-86.526-125.836c-.519 10.097-4.644 19.236-11.111 26.165z"/>
</svg>
