<svg xmlns="http://www.w3.org/2000/svg" viewBox="0 0 256 256">
  <path d="M128 0C57.308 0 0 57.308 0 128c0 70.692 57.308 128 128 128 70.692 0 128-57.308 128-128A128 128 0 0 0 128 0zm64.512 177.971-28.809-75.742s-11.639 30.277-14.899 39.254c-2.253 6.229-3.908 10.888-7.902 16.469a53.316 53.316 0 0 1-22.186 17.835 51.763 51.763 0 1 1-20.054-99.55 49.493 49.493 0 0 1 31.983 11.076l-7.014 18.5c-4.642-4.778-10.957-11.332-25.259-11.332-18.306.376-33.011 15.21-33.229 33.519-.045 15.841 11.016 29.547 26.51 32.847 15.493 3.3 31.18-4.709 37.593-19.194.444-.972.75-1.706.956-2.355h-40.26v-15.872l60.432-.12-12.8-3.413 15.36-40.362a52.156 52.156 0 0 1 10.667-1.23 50.705 50.705 0 0 1 10.65.974c11.605 30.447 23.205 60.91 34.799 91.392a54.886 54.886 0 0 1-16.538 7.304z"/>
</svg>
