<svg xmlns="http://www.w3.org/2000/svg" viewBox="0 0 511.998 66.044">
  <path fill="#fff" d="M396.542 0h8.97v8.97h-8.97z"/>
  <path fill="#1955a6" d="M417.533 0H434.3v8.97h-16.767z"/>
  <path fill="#4cc0ad" d="M405.504 0h12.029v8.97h-12.03z"/>
  <path fill="#fff" d="m361.494 15.765 10.158 26.35 10.166-26.35h9.824L374.184 58.4c-5.001 12.099-19.617 6.212-19.617 6.212l2.33-6.733c6.826 1.74 8.558.567 10.01-4.752L351.67 15.765zM17.875 3.642a26.707 26.707 0 0 1 29.698 8.535l-8.9 4.194a17.21 17.21 0 0 0-11.96-4.823 17.295 17.295 0 1 0 11.898 29.829V34.69H19.85v-8.2h27.724v19.026l-.268.33a26.707 26.707 0 1 1-29.43-42.204zm478.971 11.276c9.273 0 12.55 5.18 13.979 7.86l-6.99 3.292a8.084 8.084 0 0 0-7.237-4.015c-4.233 0-5.35 2.439-5.436 3.433-.117 1.413-.132 3.471 6.593 5.576l.963.32.64.215c6.595 2.238 12.64 4.872 12.64 11.828 0 5.91-4.078 12.123-14.46 12.123-11.688 0-14.53-6.477-15.05-11.735h7.843c.9 4.272 5.576 4.605 7.463 4.605 1.887 0 6.042-.644 6.042-4.154s-7.192-5.196-10.158-6.33c-2.967-1.133-10.67-3.61-10.67-11.773 0-3.984 2.624-11.245 13.838-11.245zm-424.01 0c12.883 0 16.952 8.201 16.93 15.928v23.81h-8.97v-4.084c-3.837 3.805-7.363 4.978-13.358 4.978-7.89 0-13.846-5.328-13.846-12.193 0-14.522 20.618-12.915 27.08-11.23v-.07c0-4.395-1.368-9.117-7.883-9.117-8.1 0-8.325 4.862-8.325 4.862H55.92c0-5.28 4.03-12.884 16.914-12.884zm239.85 0c12.883 0 16.945 8.201 16.914 15.928v23.81h-8.962v-4.084c-3.837 3.805-7.362 4.978-13.35 4.978-7.89 0-13.846-5.328-13.846-12.193 0-14.522 20.61-12.915 27.095-11.23v-.07c0-4.395-1.36-9.117-7.875-9.117-8.1 0-8.333 4.862-8.333 4.862h-8.596c0-5.28 4.038-12.884 16.953-12.884zm143.09.82a20.308 20.308 0 0 1 22.743 8.453l-7.3 4.66a11.649 11.649 0 0 0-9.754-5.281v-.024a11.649 11.649 0 1 0 9.622 18.266l7.3 4.66a20.308 20.308 0 1 1-22.611-30.734zm-278.163-.765c12.992 0 20.984 11.827 19.135 23.476h-30.062c1.32 5.141 5.708 8.923 10.927 8.923a11.059 11.059 0 0 0 8.845-4.512l7.922 3.883c-.676.9-6.104 8.752-16.767 8.752-11.214 0-19.415-9.07-19.415-20.261 0-11.19 8.224-20.261 19.415-20.261zm240.3.792-1.296 7.952h-11.113v19.741c0 3.937 2.593 4.465 5.32 4.023a39.446 39.446 0 0 0 1.991-.38l.425-.09c1.127-.241 2.165-.478 2.165-.478L414.14 54.3a22.7 22.7 0 0 1-6.352 1.142c-6.795.109-11.245-4.093-11.245-11.129V15.765zm-147.008-.847c11.004-.838 16.44 7.362 16.44 16.44v23.298H278.4V32.99c0-6.532-3.502-9.009-7.114-9.498-3.253-.443-10.965.598-10.965 10.492v20.672h-8.954V15.765h8.954v6.143a12.83 12.83 0 0 1 10.585-6.99zm-155.613 0a11.198 11.198 0 0 1 10.041 4.163 15.602 15.602 0 0 1 10.616-4.163c8.65.005 15.663 7.014 15.672 15.664v24.074h-8.962V30.582a6.718 6.718 0 1 0-13.428 0v24.074h-8.985V33.021c0-4.637-1.11-7.89-4.543-9.048-2.78-.932-8.884.257-8.884 9.576v21.107h-8.962V15.765h8.993v5.14c1.763-3.214 4.559-5.63 8.442-5.987zm112.1-11.92 19.61 51.658h-9.661l-4.357-11.47h-21.325l-4.365 11.47h-9.653l19.633-51.658zm118.912 0v51.658h-8.954V2.998zm87.988 12.767v38.884h-8.954V15.765zM80.718 39.342c-7.906-3.564-17.893-1.25-18.08 3.922-.123 3.331 3.17 6.438 9.01 5.32 4.092-.77 8.386-4.722 9.07-8.465zm239.85 0c-7.914-3.564-17.9-1.25-18.087 3.922-.116 3.355 3.176 6.422 9.009 5.32 4.092-.77 8.395-4.722 9.078-8.465zm-98.231-24.245-7.657 20.137h15.314zm-44.708 7.917c-4.737 0-8.95 3.01-10.484 7.49h20.968a11.082 11.082 0 0 0-10.484-7.49z"/>
</svg>
