<svg xmlns="http://www.w3.org/2000/svg" viewBox="0 0 256 247.474">
  <path fill="#171717" d="M230.4 247.474H25.6c-14.138 0-25.6-11.08-25.6-24.748V136.1c0-13.667 11.462-24.747 25.6-24.747 14.138 0 25.6 11.08 25.6 24.747v61.879h117.396L7.498 42.246c-9.997-9.664-9.997-25.333 0-34.998 9.998-9.664 26.207-9.664 36.203 0l204.8 197.98c7.322 7.076 9.512 17.722 5.55 26.969-3.963 9.247-13.298 15.277-23.652 15.277zm0-123.736c-6.552 0-13.104-2.416-18.102-7.25l-76.8-74.24c-9.997-9.665-9.997-25.334 0-35 9.998-9.663 26.206-9.663 36.203 0l76.8 74.243c9.997 9.665 9.997 25.334 0 34.998-4.998 4.833-11.55 7.249-18.102 7.249z"/>
</svg>
