<svg xmlns="http://www.w3.org/2000/svg" viewBox="0 0 256.003 256">
  <g fill="#068bac">
    <path d="M136.069 255.287c-9.045-1.513-20.31-5.632-27.721-10.136-6.57-3.994-18.708-17.438-24.231-25.432-1.77-2.561-3.2-5.195-4.751-6.132-1.551-.937-4.65-.178-7.808-.593-13.492-1.774-21.694-10.438-21.683-22.9.009-9.587 2.482-16.03 7.897-20.577 6.74-5.657 14.724-6.813 22.97-3.326 7.517 3.179 11.053 9.04 11.61 19.242l.367 6.742-14.164.398c-11.276.316-14.164.812-14.164 2.43 0 1.118 1.382 3.354 3.071 4.97 2.565 2.451 7.777 3.67 13.938 2.625 3.335-.565 8.542-1.598 11.876-2.164l.114 9.21-11.618 3.592 9.497 9.542c16.279 16.357 35.145 23.365 57.378 23.195 22.017-.168 41.673-8.488 57.018-24.135 4.594-4.684 9.423-10.285 9.423-10.883 0-.598-3.348.793-6.132 1.528-6.756 1.783-12.408-.048-17.57-4.983-4.03-3.853-7.533-11.792-7.533-18.18 0-6.386 1.767-15.198 5.797-19.051 4.867-4.652 12.364-7.006 19.668-5.743 3.784.654 7.363 2.85 11.824 7.25l5.641 7.76-.282-12.405c-.137-6.05-2.363-14.73-3.983-19.343-5.82-16.573-18.13-31.495-33.617-40.752-6.177-3.692-7.89-4.083-15.253-3.478-4.562.375-11.072.067-14.468-.684-5.789-1.28-6.173-1.179-6.164 1.612.006 1.638-.914 4.326 1.76 5.335 3.567 1.345 6.083 5.96 4.031 8.126.006 1.194 2.273 2.934 5.094 3.909 3.94 1.362 5.085 2.529 5.085 5.183 0 4.422-3.43 5.628-7.95 2.797-5.471-3.427-6.644-2.728-4.324 2.58 2.858 6.538-.372 6.46-3.818 7.322l.49 44.134c.313 0 3.28-4.774 6.364-9.726l5.606-9.002 15.253.154c0 .41-3.25 5.714-7.223 11.121-5.321 7.244-6.888 10.43-5.952 12.1.7 1.247 4.3 6.955 8 12.683l6.73 10.415-15.483.146c-1.072-.393-4.424-5.274-7.448-10.846l-5.499-10.131-.023 11.146-.156 10.635h-14.405V176.46l-.67-36.363h6.549c2.746 0 4.452-.162 5.37-.683.918-.52 1.05-1.4.647-2.835-.481-1.718-2.366-3.825-2.377-5.162-.03-3.755-2.608-2.879-5.104 1.736-2.494 4.61-6.55 5.416-9.596 1.906-1.705-1.963-1.346-2.752 2.727-6.003 2.58-2.059 4.691-4.01 4.692-4.336.001-.326-2.777-.593-6.174-.593-5.16 0-6.176-.447-6.176-2.715 0-1.716 1.274-3.003 3.462-3.496 3.13-.707 3.235-.961 1.09-2.663-2.924-2.32-3.012-3.788-.286-4.787 1.147-.421 3.762.494 5.81 2.035 2.049 1.54 3.725 2.521 3.725 2.18 0-.341-.98-3.277-2.18-6.525-4.263-11.553-1.89-19.329 6.99-22.899l4.439-1.784-8.436-3.688c-8.66-3.787-12.942-3.78-7.278.013 1.75 1.171 3.56 3.384 3.56 4.918 0 1.555-3.371 5.856-7.627 9.73-4.779 4.35-6.949 7.212-5.81 7.664.998.398 1.815 1.653 1.815 2.79 0 1.436-1.217 1.93-3.995 1.62-3.662-.41-3.995-.056-3.995 4.246 0 5.469-3.835 8.86-6.808 6.019-1.382-1.321-1.42-2.692-.166-5.87.9-2.281 1.336-4.148.968-4.148-.369 0-2.17 1.667-4.003 3.705-2.26 2.511-4.142 3.408-5.843 2.783-3.479-1.276-2.402-6.722 1.714-8.676 5.834-2.77 5.573-3.708-.752-2.709-5.529.874-6.174.688-6.174-1.776 0-2.873 2.62-4.436 7.438-4.436 2.225 0 2.75-.818 2.423-3.77-.297-2.678.318-3.914 2.124-4.268 1.908-.374 2.542.411 2.542 3.146v3.644l10.12-7.38-5.3-3.437c-4.18-2.712-5.546-3.047-6.47-1.589-4.388 6.921-8.64 9.297-23.176 12.946-7.519 1.888-17.459 3.445-22.09 3.459-7.022.022-9.01-.54-11.985-3.383-2.31-2.208-3.565-4.984-3.565-7.883 0-5.994 10.057-25.55 16.96-32.983 2.81-3.025 6.733-5.71 10.313-7.377 1.79-.834 2.469.228 3.905-.012 3.298-2.61 4.088-.999 5.922.456.475-.515 3.203-1.58 4.676.032 1.065 1.165 2.212-.857 3.97-2.67 2.005-2.067 3.645-5.073 3.645-6.681 0-3.987 4.396-7.476 10.643-8.445 4.914-.762 5.146-1.038 4.33-5.148-.475-2.389-1.012-4.523-1.194-4.742-.181-.22-2.007.331-4.057 1.224-4.368 1.903-8.27.862-8.27-2.205 0-1.29 1.756-2.497 4.358-2.994 4.366-.835 6.12-3.264 2.357-3.264-1.1 0-2.815-.937-3.81-2.083-1.442-1.662-1.442-2.504 0-4.166.995-1.146 2.356-2.083 3.025-2.083s2.88 1.716 4.916 3.814l3.699 3.814-1.772-4.49c-1.403-3.55-1.396-4.848.03-6.212 2.672-2.554 6.822.51 6.751 4.986-.031 2.003.302 3.643.74 3.643.439 0 1.614-1.25 2.612-2.778 2.187-3.348 6.94-3.649 8.197-.518 1.045 2.604-1.472 6.073-4.406 6.073-1.1 0-2.001.618-2.001 1.372 0 .755 1.47 1.224 3.268 1.042 2.416-.245 3.269.394 3.269 2.447 0 2.18-.82 2.686-3.813 2.353l-3.812-.423 3.611 6.975c3.55 6.859 4.416 5.204 7.465 5.07 1.04-.045 1.37-1.668 2.37-1.943 1.145-.314 2.346.599 3.532.507 1.31-.1 2.44-1.152 3.754-1.15 1.44.004 2.677 1.121 4.108 1.274 1.572.168 3.174-.702 4.726-.41 1.476.276 2.555 1.603 4.005 1.983 1.617.423 3.454-.297 5.021.272 1.388.503 2.151 2.032 3.493 2.639 1.328.6 3.013.23 4.305.897 1.229.634 1.789 2.124 2.99 2.804 1.064.604 2.604.27 3.552 1.031.666.535.602 1.604 1.179 2.226 1.052 1.136 2.894 1.404 3.957 2.53 1.086 1.151 1.437 2.782 2.274 4.11.432.687 1.005 1.289 1.416 1.988.337.573.2 1.586.851 1.797 2.315.749 1.675 1.84 6.46-3.314 4.286-4.616 6.144-5.7 8.53-4.977 1.677.51 6.475 4.389 10.662 8.621l7.614 7.696-.953-4.852c-.576-2.936-.335-5.217.61-5.775 2.532-1.497 5.79 2.121 5.79 6.43 0 2.199.511 3.997 1.135 3.997s1.899-1.937 2.834-4.305c2.073-5.25 5.474-4.685 5.474.908 0 2.882-1.02 4.503-3.631 5.766-3.813 1.844-3.172 2.24 3.02 1.864 2.062-.125 4.635.794 5.718 2.042 1.664 1.917 1.646 2.465-.116 3.529-1.147.693-4.21.888-6.807.434-2.596-.454-4.717-.288-4.712.37.004.658 2.015 2.287 4.466 3.62 2.837 1.544 4.28 3.31 3.971 4.861-.715 3.587-6.48 3.878-8.725.44-2.653-4.059-4.281-3.555-2.553.79.8 2.011 1.066 4.823.592 6.25-1.755 5.286-7.929 1.84-7.929-4.425 0-3.678-5.764-11.035-8.646-11.035-.837 0-.765 1.896-.765 3.328s-1.116 3.677-1.554 5.873c-.726 3.643.147 4.683 9.969 11.88 29.354 21.507 42.368 54.8 35.274 90.243-4.19 20.933-14.611 38.493-30.232 50.942-12.41 9.89-30.633 17.643-49.078 20.88-12.372 2.171-30.456 2.862-38.727 1.478zm69.366-79.423c-14.028 2.194-7.305 26.829.92 25.59 10.961-1.649 10.901-27.44-.92-25.59zm-126.52 5.805c0-5.134-2.739-8.24-7.264-8.24s-7.263 3.106-7.263 8.24c0 2.517 1.08 2.236 7.453 2.236 6.372 0 7.074.28 7.074-2.236zm2.06-88.24c3.638-1.335 2.67-3.007-1.317-2.278-1.988.363-3.257 1.214-2.82 1.89.944 1.46 1.158 1.48 4.137.387zm-13.728-26.06c.025-.667-.934-.434-2.133.516-1.198.951-2.179 2.71-2.179 3.908 0 1.744.426 1.64 2.133-.518 1.173-1.482 2.154-3.24 2.179-3.907zm-51.428 144.23C4.853 207.582 0 200.56 0 188.705c0-11.635 6.568-19.857 17.258-24.127 8.011-1.922 29.422-.82 29.441 1.66l-.584 8.692c-1.362-.5-10.19-1.533-13.486-1.965-14.455-1.894-23.736 11.447-16.891 24.1 2.717 5.023 7.067 7.172 13.766 7.172l6.85-.52.096-11.206c-1.521-.73-9.726-.151-11.84-.151l-.153-7.537 21.714-.795-.37 26.621c-.012.82-7.748 1.986-13.61 2.36-7.485.478-12.359.058-16.372-1.412zm96.507.493c-10.26-2.81-15.98-11.183-15.98-23.396 0-16.882 18.403-27.815 34.766-23.603l-.034 10.77c-4.726-1.718-13.946-.044-16.608 3.59-3.124 4.264-2.763 15.16.635 19.168 2.319 2.734 4.006 3.244 10.17 3.069l7.388-.21-.02 9.882c-2.78 1.53-15.747 1.981-20.317.73z"/>
    <path d="M126.009 115.327h4.473v.904h-1.61v3.736h-1.25v-3.736h-1.613zM131.129 115.327h1.593l1.105 2.483 1.112-2.483h1.59v4.64h-1.184v-3.394l-1.118 2.502h-.793l-1.119-2.502v3.394h-1.186z"/>
  </g>
</svg>
