<svg xmlns="http://www.w3.org/2000/svg" viewBox="0 0 255.497 283.562">
  <g fill="none" fill-rule="evenodd">
    <ellipse cx="127.748" cy="156.084" fill="#6fc0bf" rx="127.748" ry="127.478"/>
    <path fill="#d4d4d4" d="M84.777 276.161c13.43 4.787 27.894 7.4 42.971 7.4 14.774 0 28.96-2.51 42.16-7.114l-2.295-38.086H86.995z"/>
    <path fill="#a3a3a3" d="M214.863 128.898c-15.976-1.024-10.591 12.3-11.616 28.244-1.027 15.943-8.077 28.471 7.902 29.493 15.976 1.024 19.8-11.71 20.828-27.654 1.021-15.94-1.137-29.059-17.114-30.083zM169.358 268.13l-1.747-29.77H86.995l-.915 15.584c13.128 16.584 75.99 21.257 83.278 14.185z"/>
    <path fill="#bfbfbf" d="M39.745 128.898c15.976-1.024 10.591 12.3 11.615 28.244 1.027 15.943 8.078 28.471-7.901 29.493-15.976 1.024-19.8-11.71-20.828-27.654-1.027-15.943 1.135-29.059 17.114-30.083z"/>
    <path fill="#d4d4d4" d="M127.304 16.587C77.982 16.587 38 56.485 38 105.702v106.92c0 11.773 14.684 43.406 89.304 43.406s89.304-31.63 89.304-43.405v-106.92c0-49.218-39.982-89.116-89.304-89.116z"/>
    <path fill="#b3b3b3" d="M127.304 256.028c74.62 0 89.304-31.63 89.304-43.405v-106.92c0-49.218-39.982-89.116-89.304-89.116z"/>
    <path stroke="#f0f0f0" stroke-width="3.238" d="M49.787 87.687a79.523 79.523 0 0 0-1.88 9.117M88.43 38.375a80.504 80.504 0 0 0-32.093 32.666"/>
    <path fill="#333" d="M207.238 113.491c-12.112-.935-30.645-1.313-53.448 2.795-8.721 1.571-14.975 7.518-26.486 7.518-11.514 0-17.765-5.947-26.486-7.518-22.805-4.108-41.336-3.73-53.45-2.795-10.306.795-25.255 2.838-24.737 8.277.297 3.122.603 3.796 1.206 6.867.595 3.045 5.107 2.66 6.652 6.261 1.66 3.868 6.287 20.519 7.47 24.28 2.38 7.563 7.314 13.24 14.934 15.85 10.799 3.702 21.799 3.623 32.96 2.078 8.149-1.13 14.834-5.163 20.22-11.381 4.268-4.928 7.306-10.556 9.763-16.541 1.219-2.971 2.256-6.07 3.896-8.796.97-1.612 2.836-3.484 4.517-3.732 1.129-.166 2.135-.297 3.052-.36.915.064 1.924.194 3.053.36 1.684.245 3.546 2.118 4.517 3.732 1.642 2.728 2.677 5.825 3.895 8.796 2.458 5.985 5.495 11.613 9.764 16.54 5.385 6.219 12.073 10.252 20.22 11.382 11.161 1.548 22.161 1.624 32.96-2.077 7.62-2.611 12.553-8.288 14.934-15.852 1.185-3.763 5.809-20.411 7.472-24.279 1.546-3.6 6.054-3.213 6.652-6.261.6-3.07.905-3.745 1.203-6.867.524-5.436-14.425-7.48-24.733-8.277zm-99.2 26.239c-.491 10.448-4.51 19.371-12.498 26.287-4.514 3.908-11.302 5.459-25.235 5.459-14.101 0-21.936-5.955-23.757-9.892-4.394-9.503-6.09-19.79-4.387-30.272 1.06-6.512 1.799-10.011 23.467-10.011 24.008 0 33.555 4.452 36.48 5.862 4.657 2.246 6.167 7.485 5.93 12.567zm100.017 21.854c-1.821 3.937-9.656 9.892-23.758 9.892-13.93 0-20.72-1.55-25.234-5.46-7.986-6.915-12.004-15.838-12.495-26.286-.24-5.079 1.272-10.321 5.927-12.564 2.925-1.41 12.472-5.863 36.48-5.863 21.665 0 22.404 3.497 23.466 10.012 1.704 10.479.008 20.766-4.386 30.27z"/>
    <path fill="#fff" d="M108.037 139.73c-.49 10.448-4.509 19.371-12.497 26.287-4.514 3.908-11.302 5.459-25.235 5.459-14.101 0-21.936-5.955-23.757-9.892-4.394-9.503-6.09-19.79-4.387-30.272 1.06-6.512 1.799-10.011 23.467-10.011 24.008 0 33.555 4.452 36.48 5.862 4.657 2.246 6.167 7.485 5.93 12.567zm100.018 21.854c-1.821 3.937-9.656 9.892-23.758 9.892-13.93 0-20.72-1.55-25.234-5.46-7.986-6.915-12.004-15.838-12.495-26.286-.24-5.079 1.272-10.321 5.927-12.564 2.925-1.41 12.472-5.863 36.48-5.863 21.665 0 22.404 3.497 23.466 10.012 1.704 10.479.008 20.766-4.386 30.27z" opacity=".5"/>
    <path fill="#fff" d="M136.57 141.449a3.04 3.04 0 0 1-3.043 3.037h-11.56a3.04 3.04 0 0 1-3.042-3.037v-19.747a3.04 3.04 0 0 1 3.042-3.038h11.56a3.04 3.04 0 0 1 3.043 3.038zM190.845 202.951c-6.157-12.38-15.062 2.797-63.544 2.797-48.481 0-57.386-15.177-63.543-2.797-6.66 13.394 32.01 27.27 63.543 27.27 31.535 0 70.206-13.876 63.544-27.27z"/>
    <path fill="#f0f0f0" d="M190.845 202.951c-6.157-12.38-15.062 2.797-63.544 2.797v24.474c31.535 0 70.206-13.877 63.544-27.27z"/>
    <path fill="#666" d="M127.304 0c-19.556 0-33.69 7.546-31.848 16.791 1.844 9.243 5.436 28.49 31.848 28.49s30.004-19.247 31.848-28.49C160.994 7.546 146.86 0 127.304 0z"/>
    <path fill="#4d4d4d" d="M127.304 0c19.555 0 33.69 7.546 31.848 16.791-1.842 9.246-5.436 28.49-31.848 28.49z"/>
  </g>
</svg>
