<svg xmlns="http://www.w3.org/2000/svg" viewBox="0 0 511.699 121.641">
  <path fill="#792980" d="M337.429 109.816c-5.698 0-6.906-5.35-6.906-12.083 0-7.25 1.983-11.906 7.07-11.906 3.194 0 5.528 1.292 6.993 6.903l14.327-4.49c-2.676-7.766-7.508-14.669-21.146-14.669-10.183 0-24.336 4.836-24.336 24.078 0 18.992 12.859 23.992 23.731 23.992 13.38 0 19.249-7.592 21.921-14.498l-14.152-4.748c-1.55 6.04-4.743 7.42-7.502 7.42zm41.122-49.17h-16.642v46.093c0 9.012 1.483 14.56 17.247 14.56 3.38 0 9.38-.53 10.492-.785v-11.953c-1.112.257-3.296.518-4.77.518-4.853 0-6.327-1.21-6.327-6.154V86.166h11.097V73.961H378.55zm-85.43 44.87c-1.108 1.433-3.903 2.778-8.295 2.778-2.238 0-4.008-1.082-4.008-3.415 0-3.667 3.427-5.908 12.3-6.175v6.813zm16.643-13.535c0-13.533-5.189-20.16-19.347-20.16-9.054 0-15.244 2.164-19.777 4.818l5.135 11.89c3.566-2.051 7.697-3.534 12.131-3.534 4.122 0 5.216 1.698 5.216 4.03v.625c-19.974.896-29.531 7.44-29.531 18.192 0 9.41 6.873 13.622 13.775 13.622 7.083 0 12.041-2.87 15.984-7.801 0 2.693.476 4.682 1.108 6.9h17.556c-.982-2.218-2.25-5.726-2.25-11.46zM267.6 73.964h-9.983v-.567c0-4.916 2.75-5.09 5.77-5.09 1.468 0 3.104.258 4.213.519V57.177c-1.109-.257-7.137-.776-10.501-.776-15.705 0-17.239 8.629-17.239 16.307v47.857h17.757V86.166h9.983zm126.488-4.437h16.642V60.65h-16.642zm-175.25 21.651c-4.659-.605-7.074-1.384-7.074-3.538 0-2.073 1.897-2.936 4.746-2.936 3.709 0 8.628 1.729 13.634 4.659l6.3-9.405c-5.607-4.056-11.48-6.387-21.576-6.387-10.44 0-18.898 5.264-18.898 15.618 0 11.999 11.133 13.808 18.985 14.938 5.003.683 7.166 1.465 7.166 3.88 0 2.156-2.591 3.022-5.524 3.022-5.267 0-12.254-2.16-16.57-5.611l-6.301 9.578c5.09 3.709 12.17 6.645 22.958 6.645 10.701 0 21.226-4.224 21.226-16.487 0-11.217-11.217-12.942-19.072-13.976zm279.475-17.607c-8.544 0-13.242 4.836-15.462 8.03v-7.637H466.21v46.601h16.642V90.834c3.329-1.816 5.066-3.278 8.002-3.278 2.853 0 4.204 1.807 4.204 5.003v28.006h16.642v-33.62c0-9.923-6.139-13.374-13.386-13.374zm-59.205 36.245c-5.953 0-7.592-5.35-7.592-12.083 0-7.25 1.986-11.906 7.592-11.906 5.872 0 7.591 5.18 7.591 11.906.003 7.334-1.98 12.083-7.591 12.083zm0-36.245c-11.214 0-24.678 4.836-24.678 24.078 0 18.992 13.545 23.992 24.678 23.992 11.136 0 24.683-5 24.683-23.992.003-19.245-13.547-24.078-24.683-24.078zm-45.02 46.991h16.642V73.964h-16.642zm-272.945-15.045c-2.217 1.432-4.005 2.777-8.397 2.777-2.238 0-3.96-1.082-3.96-3.415 0-3.667 3.48-5.908 12.357-6.175zm16.643-13.536c0-13.533-5.29-20.16-19.45-20.16-12.903 0-20.258 4.393-24.644 8.332l7.343 10.04c4.03-2.874 9.245-5.198 14.803-5.198 4.116 0 5.305 1.698 5.305 4.03v.625c-19.97.896-29.638 7.44-29.638 18.192 0 9.41 6.824 13.622 13.724 13.622 7.082 0 12.02-2.87 15.96-7.801 0 2.693.452 4.682 1.081 6.9h17.562c-.989-2.218-2.046-5.726-2.046-11.46zm21.082-31.334h-16.642v46.092c0 9.012 1.48 14.56 17.244 14.56 3.38 0 9.384-.53 10.492-.785v-11.953c-1.108.257-3.295.518-4.766.518-4.854 0-6.328-1.21-6.328-6.154V86.166h11.094V73.961h-11.094zM70.935 91.178c-4.662-.605-7.08-1.384-7.08-3.538 0-2.073 1.9-2.936 4.746-2.936 3.709 0 8.628 1.729 13.637 4.659l6.295-9.405c-5.606-4.056-11.475-6.387-21.57-6.387-10.442 0-18.902 5.264-18.902 15.618 0 11.999 11.136 13.808 18.988 14.938 5.006.683 7.163 1.465 7.163 3.88 0 2.156-2.591 3.022-5.521 3.022-5.267 0-12.257-2.16-16.57-5.611l-6.301 9.578c5.09 3.709 12.17 6.645 22.955 6.645 10.698 0 21.229-4.224 21.229-16.487 0-11.217-11.217-12.942-19.07-13.976zm103.467-21.651h16.643V60.65h-16.643zm0 51.035h16.643V73.964h-16.643z"/>
  <path fill="#f47d30" d="m89.953 33.72-3.826.811-1.234 12.526c-.399 4.087-.003 4.874 2.364 4.377a6.725 6.725 0 0 0 2.417-1.07l.513 5.45c-2.46 1.69-4.884 2.703-6.768 3.098-5.863 1.246-8.94.47-8.323-5.72l1.624-16.669-2.118.447.67-6.417 2.104-.483.638-6.525 9.536-3.484-.785 8.005 5.066-1.082zM57.297 54.14c.258 2.72 1.351 3.28 4.212 2.708 2.376-.483 5.342-2.244 7.562-4.36l2.397 5.573c-4.188 3.398-8.25 5.216-11.112 5.791-7.987 1.606-11.906-.878-12.577-8.017-.977-10.357 4.227-20.459 14.533-22.535 5.83-1.172 10.738.12 11.28 5.893.494 5.234-3.862 10.94-12.981 12.774-1.564.321-2.87.474-3.314.45-.054.566-.024 1.453 0 1.722zM44.175 67.512c-.258 2.81-.533 4.965-1.04 6.058-2.109 4.623-6.995 7.484-13.424 8.778-4.15.833-8.245.494-10.267-.54l2.573-6.506c1.39.77 3.79 1.177 7.619.401 2.963-.596 4.934-2.99 5.138-5.524.075-.905.156-1.81.473-2.538-.989 1.199-2.54 2.175-5.021 2.676-5.339 1.072-8.398-1.085-9.087-8.377-.536-5.716.794-20.133 15.133-23.02 3.772-.756 7.223-1.166 10.788-.663 0 0-2.597 26.16-2.885 29.255zM117.68 50.74l-12.637-7.933 5.186-13.994-14.707-2.496-.56-14.91-14.545 3.322-6.229-13.56-12.166 8.64L51.084 0 43.15 12.295 29.16 7.106l-2.5 14.707-14.91.564 3.323 14.548-13.563 6.22 8.64 12.169L0 66.252l12.634 7.933L7.448 88.18l14.71 2.493.563 14.917 14.545-3.326 5.657 10.396 7.016-10.671c-3.26-2.703-5.584-6.717-5.584-12.796 0-11.558 9.086-19.32 22.607-19.32 9.908 0 16.79 2.051 23.746 7.084l.653.474.027-.027c6.396-5.75 14.824-8.85 25.07-9.243l-8.925-6.477L117.68 50.74zm-82.732-4.284c-3.395.683-4.794 9.123-4.42 13.095.273 2.888 1.034 3.398 2.598 3.08.917-.183 1.977-1.729 2.208-2.217l1.6-13.86c-.192-.293-1.124-.272-1.986-.098zm25.234-.782c2.103-.425 4.32-1.983 4.132-4-.12-1.255-.941-1.812-2.29-1.537-2.375.477-3.49 2.643-3.81 5.654.279.054.944.084 1.968-.117z"/>
</svg>
