<svg xmlns="http://www.w3.org/2000/svg" viewBox="0 0 256 202.372">
  <path fill="#f53" d="M58.77 91.189c0-4.07 3.141-7.07 7.069-7.07 3.927 0 7.07 3.071 7.07 7.07 0 4.07-3.143 7.07-7.07 7.07-3.928 0-7.07-3.071-7.07-7.07zm12.567-12.71c0 4.07 3.142 7.069 7.07 7.069 3.927 0 7.07-3.071 7.07-7.07 0-4.07-3.143-7.07-7.07-7.07-3.928 0-7.07 3-7.07 7.07zm17.21-8.641v12.71c9.926 0 17.71 8.07 17.71 18.638 0 10.569-7.856 18.638-17.71 18.638-9.926 0-17.71-8.07-17.71-18.638H56.984c0 17.567 13.996 31.348 31.563 31.348 17.566 0 31.562-13.781 31.562-31.348 0-17.566-13.996-31.348-31.562-31.348zm142.46 119.18v-12.067h22.35v-12.068h-22.35v-11.854h24.636v-12.14h-38.204v60.198H256v-12.14h-24.993zm-21.637-17.994c0 17.28-13.21 30.063-31.848 30.063H157.67v-60.27h19.852c18.638 0 31.848 12.926 31.848 30.207zm-13.853 0c0-10.283-6.855-18.067-16.924-18.067h-7.426v36.062h7.426c10.069 0 16.924-7.712 16.924-17.995zm-90.618 6.926c0 6.927-4.927 12.068-11.71 12.068-6.785 0-11.712-5.141-11.712-12.068v-36.99H68.052v36.776c0 14.21 10.64 24.636 25.136 24.636 14.496 0 25.136-10.497 25.136-24.636v-36.775H104.9zm-78.12 1.214h13.353c-1.214 6.213-6.713 10.997-13.282 10.997-7.355 0-13.282-5.927-13.282-14.567v-8.926c0-8.498 6.355-14.782 15.281-14.782 6.927 0 13.14 3.785 15.139 9.283l12.496-4.356c-3.427-10.568-14.71-17.138-27.635-17.138-16.352 0-28.492 10.997-28.492 26.993v8.926c.071 15.353 11.425 26.778 25.422 26.778 8.711 0 16.424-4.427 20.922-11.282v10.068h11.854v-33.49H26.778zm151.885-71.337V71.052H165.24v36.99c0 6.926-4.928 12.067-11.711 12.067-6.784 0-11.711-5.141-11.711-12.068v-36.99h-13.425v36.776c0 14.21 10.64 24.636 25.136 24.636 14.496 0 25.135-10.426 25.135-24.636zM22.708 131.25h13.496V108.4l22.637-37.347H43.559L29.278 95.688 15.21 71.052H0l22.637 37.49v22.707zM158.313 1.143h-45.702v12.139h45.702zM106.827 49.2H81.763V37.132h22.35V25.064h-22.35V13.211h24.636V1.07H68.195V61.27h38.56V49.2zM25.78 62.625c8.711 0 16.424-4.427 20.922-11.282V61.41h11.854v-33.49H26.778v11.568h13.354c-1.214 6.213-6.713 10.997-13.282 10.997-7.355 0-13.282-5.927-13.282-14.567v-8.927c0-8.497 6.355-14.781 15.281-14.781 6.927 0 13.14 3.785 15.139 9.283l12.496-4.356C53.057 6.57 41.774 0 28.85 0 12.497 0 .357 10.997.357 26.992v8.927C.428 51.2 11.782 62.625 25.779 62.625zm183.663 53.414-6.998-7.355 6.926-7.498-6.998-7.355 6.927-7.498-6.998-7.355 7.712-7.926h-13.996l-7.57 7.997 6.998 7.355-6.926 7.498 6.998 7.355-6.927 7.498 6.998 7.355-6.926 7.498 7.426 7.713h14.068l-7.57-7.784zm-65.625 53.2c2-1.786 5.356-4.785 5.356-10.355 0-5.498-3.357-8.569-5.356-10.354l-.214-.214c-1-1.071-1.143-2.57-1.214-3.285v-4.213H128.82v5.855c0 5.499 3.356 8.57 5.356 10.355 1.428 1.285 1.428 1.356 1.428 1.856s0 .572-1.428 1.857c-1.928 1.714-5.07 4.57-5.284 9.711v.857c.214 5.142 3.427 7.998 5.284 9.712 1.428 1.285 1.428 1.357 1.428 1.857s0 .57-1.428 1.856c-2 1.785-5.356 4.785-5.356 10.354V200.943h13.568v-4.212c0-.714.214-2.214 1.214-3.285l.214-.214c2-1.785 5.356-4.785 5.356-10.354 0-5.499-3.357-8.57-5.356-10.355-1.285-1.142-1.428-1.356-1.428-1.714.071-.214.214-.428 1.428-1.57zM128.678 61.34h13.497V50.129h-13.497zm13.568-27.207H128.75v11.211h13.496zm0-16.067H128.75v11.212h13.496zM244.575 131.25l-16.424-22.993c7.997-2.5 13.567-9.498 13.567-18.067 0-10.854-8.997-19.137-20.351-19.137h-7.927v12.21h7.427c3.927 0 6.998 3.142 6.998 7.284 0 4.142-3.07 7.284-6.998 7.284h-7.427v11.568l14.71 21.922h16.425z"/>
</svg>
