<svg xmlns="http://www.w3.org/2000/svg" viewBox="0 0 110.713 37.916">
  <g transform="matrix(1.12042 0 0 1.12042 58.595 -1302.119)">
    <path d="M-51.397 1163.095h85v29.525h-85l2-14.763z" style="fill:#f5efbc;fill-opacity:1;stroke:#000;stroke-width:1.8;stroke-linecap:round;stroke-linejoin:round;stroke-miterlimit:4;stroke-dashoffset:0;stroke-opacity:1"/>
    <text x="-15.683" y="1071.211" style="font-style:normal;font-variant:normal;font-weight:700;font-stretch:normal;line-height:0%;font-family:Ubuntu;-inkscape-font-specification:'Ubuntu Bold';text-align:center;letter-spacing:0;word-spacing:0;text-anchor:middle;fill:#000;fill-opacity:1;stroke:none" transform="scale(.90246 1.10808)"><tspan x="-15.683" y="1071.211" style="font-style:normal;font-variant:normal;font-weight:700;font-stretch:normal;font-size:24.3129px;line-height:1.25;font-family:'URW Palladio L';-inkscape-font-specification:'URW Palladio L Bold'">GFDL</tspan></text>
    <path d="M19.616 1166.858v24h.187a1.215 1.215 0 0 0-.187.625c0 2.002 5.82 3.625 13 3.625s13-1.623 13-3.625c0-.209-.066-.426-.188-.625h.188v-24z" style="color:#000;display:inline;overflow:visible;visibility:visible;fill:#f5efbc;fill-opacity:1;fill-rule:nonzero;stroke:#000;stroke-width:1.8;stroke-linecap:round;stroke-linejoin:round;stroke-miterlimit:4;stroke-dasharray:none;stroke-dashoffset:0;stroke-opacity:1;marker:none;enable-background:accumulate"/>
    <ellipse cx="354.25" cy="264.987" rx="13" ry="3.625" style="color:#000;display:inline;overflow:visible;visibility:visible;fill:#f5efbc;fill-opacity:1;fill-rule:nonzero;stroke:#000;stroke-width:1.8;stroke-linecap:round;stroke-linejoin:round;stroke-miterlimit:4;stroke-dasharray:none;stroke-dashoffset:0;stroke-opacity:1;marker:none;enable-background:accumulate" transform="translate(-321.634 901.704)"/>
    <path d="M45.068 1167.381c-2.449 5.6-9.907 7.192-21.529 5.796l5.778 9.76-6.022 7.217c7.75 3.12 17.186 1.572 22.07-.184z" style="fill:#2e439b;fill-opacity:1;stroke:#000;stroke-width:1.4;stroke-linecap:butt;stroke-linejoin:miter;stroke-miterlimit:4;stroke-dasharray:none;stroke-opacity:1"/>
    <path d="M34.46 1165.765c-3.47-.101-8.017.018-10.478.778 1.21.978 6.112 1.563 9.947 1.235 3.203-.274 6.082-.131 7.939-1.15-.707-1.108-3.939-3.378-7.92-3.262" style="fill:none;stroke:#000;stroke-width:1.4;stroke-linecap:round;stroke-linejoin:round;stroke-miterlimit:4;stroke-dasharray:none;stroke-opacity:1"/>
  </g>
</svg>
