<svg xmlns="http://www.w3.org/2000/svg" viewBox="0 0 511.044 163.786">
  <g fill="#3d515b">
    <path d="M.027 107.447h34.907V124.9H.027zM52.386 107.447H87.27V124.9H52.386zM0 72.54h87.282v17.454H0zM.027 37.635h52.366v17.453H.027zM69.84 37.635h17.454v17.453H69.84z"/>
  </g>
  <g fill="#404041">
    <path d="M340.675 37.534c-28.031 0-42.508 19.823-42.508 44.276 0 24.454 14.12 44.278 42.508 44.278 28.388 0 42.508-19.824 42.508-44.278.001-24.453-14.478-44.276-42.508-44.276zm21.207 44.355c-.02 15.725-5.319 28.46-21.207 28.46-15.889 0-21.188-12.734-21.205-28.46v-.078c.017-15.723 5.317-28.458 21.206-28.458 15.887 0 21.186 12.735 21.206 28.458v.078zM215.162 124.9V2.485S231.308.191 232.56.023c1.418-.192 3.301.818 3.301 2.814v45.38c3.35-3.185 7.04-5.753 11.062-7.71 4.024-1.954 8.743-2.933 14.165-2.933 4.694 0 8.853.796 12.484 2.39 3.634 1.59 6.665 3.827 9.095 6.702 2.43 2.879 4.274 6.314 5.532 10.309 1.256 3.995 1.885 8.395 1.885 13.2v54.724h-20.7V70.175c0-5.251-1.216-9.316-3.646-12.196-2.431-2.876-6.077-4.315-10.94-4.315-3.574 0-6.925.81-10.052 2.432-3.13 1.621-6.091 3.826-8.885 6.621V124.9zM491.511 126.08c-14.244 0-23.172-8.29-23.172-23.756V56.488h-16.054l3.682-12.73c.271-.928.977-1.926 2.394-2.123l9.958-1.389 3.945-25.098s11.591-1.633 13.43-1.908c1.734-.26 3.308.99 3.308 2.88v24.126h20.304v16.242h-20.304v45.218c0 6.174 3.759 8.534 7.362 8.534 2.202 0 5.218-1.17 7.468-2.214 1.39-.643 3.546-.166 4.103 1.775l3.11 10.85c-2.259 1.457-9.397 5.429-19.534 5.429zM440.91 56.76c-4.034-1.311-11.617-3.409-18.83-3.409-7.35 0-13.133 2.54-13.133 8.65 0 7.633 12.463 9.855 20.994 12.967 5.704 2.08 20.999 6.135 20.999 22.585 0 19.982-16.594 28.526-34.296 28.526-17.705 0-28.164-6.585-28.164-6.585s2.746-9.7 3.302-11.615c.504-1.723 2.506-2.328 3.783-1.838 4.556 1.756 12.783 4.197 22.083 4.197 9.415 0 13.97-2.874 13.97-9.003 0-8.157-12.714-10.65-21.123-13.302-5.793-1.826-21.125-6.084-21.125-24.175 0-17.822 15.65-26.184 32.375-26.184 14.157 0 21.102 2.96 26.29 5.603 0 0-2.891 10.074-3.32 11.575-.507 1.784-1.97 2.602-3.805 2.007zM207.081 40.525c0-1.928-1.647-3.031-3.218-2.852-6.947.796-11.903 4.065-15.109 7.109-6.296-4.933-15.035-7.288-24.844-7.288-19.665 0-35.03 9.491-35.03 30.187 0 11.88 5.058 20.067 13.09 24.886-5.965 2.823-9.938 8.814-9.938 14.704 0 9.852 7.784 12.938 7.784 12.938s-13.61 6.605-13.61 19.82c0 16.917 15.568 23.757 34.592 23.757 27.42 0 46.287-11.326 46.287-32.122 0-12.799-9.794-19.864-31.138-20.704-12.665-.5-20.87-.956-22.902-1.629-2.685-.892-4.006-3.042-4.006-5.416 0-2.62 2.153-5.116 5.546-6.829 2.96.524 6.084.783 9.328.783 19.681 0 35.03-9.464 35.03-30.187 0-5.025-.907-9.388-2.556-13.115 2.891-1.543 6.449-2.628 10.697-2.628-.003 0-.003-9.656-.003-11.414zm-54.193 84.482s10.327.391 20.646.869c11.593.536 15.206 3.034 15.206 9.038 0 7.334-10.075 14.468-24.155 14.468-13.364 0-20.04-4.65-20.04-12.392 0-4.442 2.345-9.41 8.343-11.983zm11.06-41.584c-9.316 0-16.584-4.948-16.584-15.742 0-10.795 7.274-15.743 16.584-15.743 9.31 0 16.584 4.935 16.584 15.743s-7.265 15.742-16.584 15.742z"/>
  </g>
</svg>
