<svg xmlns="http://www.w3.org/2000/svg" viewBox="0 0 255.538 228.28">
  <defs>
    <linearGradient id="a" x1="120.622" x2="120.622" y1="241.62" y2="-.068" gradientTransform="scale(1.05802 .94516)" gradientUnits="userSpaceOnUse">
      <stop offset="0%" stop-color="#E14760"/>
      <stop offset="100%" stop-color="#FA8816"/>
    </linearGradient>
  </defs>
  <path fill="url(#a)" d="m254.777 80.172-60.284-77.13c-3.468-4.294-9.91-3.964-13.048.496l-25.6 36.5c-8.093-4.624-17.672-7.102-27.582-6.937-10.735 0-20.81 2.643-29.233 7.268L74.256 4.694c-3.138-4.46-9.745-4.79-13.048-.496L.758 81.328c-2.476 3.139 1.653 7.103 4.625 4.46l52.026-46.41c1.487-1.322 3.964-1.157 5.285.33l6.442 20.15c-29.564 7.267-51.53 34.023-51.53 65.734.165 35.51 27.746 64.578 62.596 67.22.99 12.883 8.258 26.922 32.04 35.345 1.983.66 3.47-1.486 2.313-3.138-2.312-3.138-4.79-7.432-5.615-12.057 5.615 1.982 11.56 3.138 18.002 3.138 5.616 0 10.9-.99 16.186-2.642-.826 4.459-3.303 8.588-5.45 11.56-1.156 1.653.33 3.8 2.312 3.139 23.948-8.423 32.041-22.627 33.528-35.51 36.5-.99 65.734-31.05 65.569-67.716-.165-32.206-22.627-58.962-52.687-65.734l6.607-20.645c1.321-1.652 3.633-1.817 5.285-.33l52.026 46.41c2.807 2.642 6.936-1.487 4.459-4.46z" style="fill:url(#a)"/>
  <ellipse cx="72.688" cy="133.438" fill="#fff" rx="48.39" ry="35.508" transform="rotate(58.445 72.688 133.438)"/>
  <path fill="#e54d42" d="M58.632 154.747s-.66-2.147-.66-6.11c0-3.965.66-5.947.66-5.947l18.168-7.597-18.168-7.763s-.66-2.147-.66-5.945c0-3.964.66-5.946.66-5.946l31.38 13.378s.662 2.312.662 6.11c0 3.8-.661 6.442-.661 6.442z"/>
  <ellipse cx="184.51" cy="133.956" fill="#fff" rx="48.721" ry="36.169" transform="rotate(-58.445 184.51 133.956)"/>
  <path fill="#e54d42" d="M162.354 141.534s-.661-1.486-.661-5.615c0-4.13.66-5.616.66-5.616h41.621s.66 1.487.66 5.616c0 3.964-.66 5.615-.66 5.615z"/>
</svg>
