<svg xmlns="http://www.w3.org/2000/svg" viewBox="0 0 256 255.995">
  <path fill="#de4c36" d="M251.172 116.594 139.398 4.828c-6.432-6.437-16.873-6.437-23.314 0l-23.21 23.21 29.443 29.443c6.843-2.312 14.688-.761 20.143 4.693 5.48 5.489 7.02 13.402 4.651 20.266l28.375 28.376c6.865-2.365 14.786-.835 20.27 4.657 7.662 7.66 7.662 20.075 0 27.74-7.666 7.666-20.081 7.666-27.75 0-5.763-5.77-7.187-14.235-4.27-21.336l-26.461-26.462-.003 69.637a19.82 19.82 0 0 1 5.188 3.71c7.662 7.66 7.662 20.076 0 27.747-7.666 7.662-20.087 7.662-27.74 0-7.664-7.671-7.664-20.086 0-27.746a19.654 19.654 0 0 1 6.42-4.281V94.196a19.378 19.378 0 0 1-6.42-4.281c-5.807-5.798-7.203-14.317-4.228-21.446L81.47 39.442 4.83 116.077c-6.441 6.443-6.441 16.884 0 23.322l111.773 111.768c6.435 6.438 16.873 6.438 23.317 0l111.25-111.249c6.438-6.44 6.438-16.887 0-23.324"/>
</svg>
