<svg xmlns="http://www.w3.org/2000/svg" viewBox="0 0 255.267 106.62">
  <path fill="#2f2707" d="M152.984 36.29c-5.597 0-9.766 2.748-9.766 9.362 0 4.983 2.747 8.443 9.464 8.443 5.693 0 9.56-3.354 9.56-8.649 0-6-3.46-9.156-9.258-9.156zm-11.19 46.702c-1.325 1.625-2.645 3.352-2.645 5.39 0 4.067 5.186 5.29 12.31 5.29 5.9 0 13.938-.413 13.938-5.9 0-3.26-3.867-3.461-8.753-3.768zm30.113-46.395c1.828 2.34 3.764 5.597 3.764 10.277 0 11.292-8.852 17.903-21.667 17.903-3.259 0-6.21-.405-8.039-.914l-3.358 5.391 9.969.61c17.602 1.122 27.975 1.631 27.975 15.156 0 11.702-10.273 18.312-27.975 18.312-18.414 0-25.433-4.68-25.433-12.716 0-4.579 2.035-7.015 5.596-10.378-3.359-1.42-4.476-3.962-4.476-6.71 0-2.24 1.117-4.274 2.951-6.208 1.83-1.93 3.865-3.866 6.307-6.103-4.985-2.442-8.75-7.733-8.75-15.262 0-11.698 7.733-19.732 23.295-19.732 4.375 0 7.022.402 9.362 1.017h19.84v8.644zM199.165 18.11c-5.8 0-9.156-3.359-9.156-9.16 0-5.794 3.356-8.95 9.156-8.95 5.901 0 9.258 3.156 9.258 8.95 0 5.801-3.357 9.16-9.258 9.16zM186.04 79.249v-8.033l5.19-.71c1.425-.206 1.628-.51 1.628-2.038v-29.91c0-1.117-.304-1.832-1.325-2.135l-5.493-1.934 1.119-8.238h21.06v42.217c0 1.63.1 1.832 1.63 2.038l5.188.71v8.033zM255.267 75.304c-4.377 2.134-10.785 4.068-16.586 4.068-12.106 0-16.683-4.878-16.683-16.38V36.34c0-.609 0-1.017-.817-1.017h-7.12v-9.055c8.956-1.019 12.514-5.496 13.633-16.585h9.666v14.451c0 .71 0 1.017.814 1.017h14.343v10.172H237.36v24.313c0 6.003 1.426 8.34 6.916 8.34 2.853 0 5.8-.71 8.241-1.625l2.75 8.954"/>
  <path fill="#de4c36" d="M104.528 48.606 58.012 2.094a6.86 6.86 0 0 0-9.702 0l-9.659 9.659 12.253 12.253a8.145 8.145 0 0 1 8.383 1.953 8.157 8.157 0 0 1 1.935 8.434l11.809 11.809c2.857-.985 6.153-.348 8.435 1.938a8.161 8.161 0 0 1 0 11.544 8.164 8.164 0 0 1-13.325-8.88L57.13 39.793l-.002 28.98a8.249 8.249 0 0 1 2.16 1.545 8.164 8.164 0 0 1 0 11.547c-3.19 3.189-8.36 3.189-11.545 0a8.164 8.164 0 0 1 2.672-13.328V39.285a8.064 8.064 0 0 1-2.672-1.782c-2.416-2.412-2.997-5.958-1.76-8.925l-12.077-12.08L2.01 48.392a6.863 6.863 0 0 0 0 9.706l46.516 46.513a6.862 6.862 0 0 0 9.704 0l46.298-46.297a6.866 6.866 0 0 0 0-9.707"/>
</svg>
