<svg xmlns="http://www.w3.org/2000/svg" viewBox="0 0 256 248.513">
  <path fill="#f39800" d="m208.723 153.429-11.956 21.918-39.353 28.394-29.39 1.993v-72.231h82.193z"/>
  <path fill="#3e3a39" d="M256 124.257c0 68.865-57.388 124.256-127.75 124.256C57.887 248.513 0 193.122 0 124.257 0 55.39 57.388 0 127.75 0 198.113 0 256 55.89 256 124.257zM128.25 8.483C62.378 8.483 9.48 60.382 9.48 124.257c0 63.874 53.396 115.773 118.769 115.773 65.372 0 118.768-51.899 118.768-115.773 0-63.875-53.396-115.774-118.768-115.774zm83.836 120.764H132.74V76.35s-.5-3.992-4.491-3.992c-3.993 0-4.492 3.992-4.492 3.992v127.251c-42.417-2.495-77.349-36.927-77.349-79.344 0-42.417 35.431-79.844 82.839-79.844 21.957 0 35.93 7.485 46.908 14.97 8.483 5.49 16.967 14.472 20.959 20.96.499.499 2.994 2.994 5.988.998 3.493-1.996 1.497-5.49 1.497-5.989-16.467-23.953-44.413-39.921-75.851-39.921-49.903 0-90.823 38.424-90.823 88.826 0 49.902 40.421 88.826 90.823 88.826 36.428 0 68.366-20.96 83.337-52.398 3.493-7.485 4.99-14.471 6.986-22.955.5-4.491-1.497-8.483-6.986-8.483zm-4.491 15.47c-6.987 23.454-20.46 36.428-30.441 43.414-10.979 7.486-24.951 14.971-44.912 15.97v-66.37h76.85s-.998 4.99-1.497 6.986z"/>
</svg>
