<svg xmlns="http://www.w3.org/2000/svg" xmlns:xlink="http://www.w3.org/1999/xlink" viewBox="0 0 256 224.263">
  <path fill="#9edcf2" d="M200.9 199.418c0 13.9-32.2 25.1-71.9 25.1s-71.9-11.3-71.9-25.1c0-13.9 32.2-25.1 71.9-25.1s71.9 11.2 71.9 25.1zm0 0"/>
  <g transform="translate(0 -.382)">
    <defs>
      <path id="a" d="M98.1 244.8c1.6 7.5 5.5 11.9 9.4 14.5h41.1c5-3.4 10.1-9.8 10.1-21.8v-31s.6-7.7 7.7-10.2c0 0 4.1-2.9-.3-4.5 0 0-19.5-1.6-19.5 14.4v23.6s.8 8.7-3.8 12.3v-29.2s.3-9.3 5.1-12.8c0 0 3.2-5.7-3.8-4.2 0 0-13.4 1.9-14 17.6l-.3 30h-3.2l-.3-30c-.6-15.6-14-17.6-14-17.6-7-1.6-3.8 4.2-3.8 4.2 4.8 3.5 5.1 12.8 5.1 12.8v29.5c-4.6-3.3-3.8-12.6-3.8-12.6v-23.6c0-16-19.5-14.4-19.5-14.4-4.5 1.6-.3 4.5-.3 4.5 7 2.6 7.7 10.2 7.7 10.2v21.7z"/>
    </defs>
    <clipPath id="b">
      <use width="100%" height="100%" overflow="visible" xlink:href="#a"/>
    </clipPath>
    <path fill="#7dbce7" d="M200.9 199.8c0 13.9-32.2 25.1-71.9 25.1s-71.9-11.3-71.9-25.1c0-13.9 32.2-25.1 71.9-25.1s71.9 11.2 71.9 25.1zm0 0" clip-path="url(#b)"/>
  </g>
  <path fill="#9edcf2" d="m46.9 125.518-2.1 7.2s-.5 2.6 1.9 3.1c2.6-.1 2.4-2.5 2.2-3.2zm0 0"/>
  <path fill="#010101" d="m255.8 95.218.2-.9c-21.1-4.2-42.7-4.3-55.8-3.7 2.1-7.7 2.8-16.7 2.8-26.6 0-14.3-5.4-25.7-14-34.3 1.5-4.9 3.5-15.8-2-29.7 0 0-9.8-3.1-32.1 11.8-8.7-2.2-18-3.3-27.3-3.3-10.2 0-20.5 1.3-30.2 3.9-23-15.7-33.1-12.5-33.1-12.5-6.6 16.5-2.5 28.8-1.3 31.8-7.8 8.4-12.5 19.1-12.5 32.2 0 9.9 1.1 18.8 3.9 26.5-13.2-.5-34-.3-54.4 3.8l.2.9c20.4-4.1 41.4-4.2 54.5-3.7.6 1.6 1.3 3.2 2 4.7-13 .4-35.1 2.1-56.3 8.1l.3.9c21.4-6 43.7-7.6 56.6-8 7.8 14.4 23 23.8 50.2 26.7-3.9 2.6-7.8 7-9.4 14.5-5.3 2.5-21.9 8.7-31.9-8.5 0 0-5.6-10.2-16.3-11 0 0-10.4-.2-.7 6.5 0 0 6.9 3.3 11.7 15.6 0 0 6.3 21 36.4 14.2v21.5s-.6 7.7-7.7 10.2c0 0-4.2 2.9.3 4.5 0 0 19.5 1.6 19.5-14.4v-23.6s-.8-9.4 3.8-12.6v38.8s-.3 9.3-5.1 12.8c0 0-3.2 5.7 3.8 4.2 0 0 13.4-1.9 14-17.6l.3-39.3h3.2l.3 39.3c.6 15.6 14 17.6 14 17.6 7 1.6 3.8-4.2 3.8-4.2-4.8-3.5-5.1-12.8-5.1-12.8v-38.5c4.6 3.6 3.8 12.3 3.8 12.3v23.6c0 16 19.5 14.4 19.5 14.4 4.5-1.6.3-4.5.3-4.5-7-2.6-7.7-10.2-7.7-10.2v-31c0-12.1-5.1-18.5-10.1-21.8 29-2.9 42.9-12.2 49.3-26.8 12.7.3 35.6 1.9 57.4 8.1l.3-.9c-21.7-6.1-44.4-7.7-57.3-8.1.6-1.5 1.1-3 1.6-4.6 13.4-.5 35.1-.5 56.3 3.7zm0 0"/>
  <path fill="#f5ccb3" d="M174.6 63.318c6.2 5.7 9.9 12.5 9.9 19.8 0 34.4-25.6 35.3-57.2 35.3s-57.2-4.8-57.2-35.3c0-7.3 3.6-14.1 9.8-19.7 10.3-9.4 27.7-4.4 47.4-4.4s37-5.1 47.3 4.3zm0 0"/>
  <path fill="#fff" d="M108.3 84.918c0 9.5-5.3 17.1-11.9 17.1-6.6 0-11.9-7.7-11.9-17.1 0-9.5 5.3-17.1 11.9-17.1 6.6-.1 11.9 7.6 11.9 17.1zm0 0"/>
  <path fill="#af5c51" d="M104.5 85.118c0 6.3-3.6 11.4-7.9 11.4-4.4 0-7.9-5.1-7.9-11.4 0-6.3 3.6-11.4 7.9-11.4 4.3 0 7.9 5.1 7.9 11.4zm0 0"/>
  <path fill="#fff" d="M172.2 84.918c0 9.5-5.3 17.1-11.9 17.1-6.6 0-11.9-7.7-11.9-17.1 0-9.5 5.3-17.1 11.9-17.1 6.5-.1 11.9 7.6 11.9 17.1zm0 0"/>
  <path fill="#af5c51" d="M168.3 85.118c0 6.3-3.6 11.4-7.9 11.4-4.4 0-7.9-5.1-7.9-11.4 0-6.3 3.6-11.4 7.9-11.4 4.4 0 7.9 5.1 7.9 11.4zM130.5 100.118c0 1.6-1.3 3-3 3-1.6 0-3-1.3-3-3s1.3-3 3-3c1.6 0 3 1.3 3 3zM120.6 107.618c-.2-.5.1-1 .6-1.2.5-.2 1 .1 1.2.6.8 2.2 2.8 3.6 5.1 3.6s4.3-1.5 5.1-3.6c.2-.5.7-.8 1.2-.6.5.2.8.7.6 1.2-1 2.9-3.8 4.9-6.9 4.9-3.1 0-5.9-2-6.9-4.9zm0 0"/>
  <path fill="#c4e5d9" d="M54.5 121.218c0 .8-.9 1.4-2.1 1.4-1.1 0-2.1-.6-2.1-1.4 0-.8.9-1.4 2.1-1.4 1.2 0 2.1.6 2.1 1.4zM60.3 124.418c0 .8-.9 1.4-2.1 1.4-1.1 0-2.1-.6-2.1-1.4 0-.8.9-1.4 2.1-1.4 1.2 0 2.1.6 2.1 1.4zM63.8 128.618c0 .8-.9 1.4-2.1 1.4-1.1 0-2.1-.6-2.1-1.4 0-.8.9-1.4 2.1-1.4 1.2-.1 2.1.6 2.1 1.4zM67 133.418c0 .8-.9 1.4-2.1 1.4-1.1 0-2.1-.6-2.1-1.4 0-.8.9-1.4 2.1-1.4 1.2-.1 2.1.6 2.1 1.4zM70.5 137.818c0 .8-.9 1.4-2.1 1.4-1.1 0-2.1-.6-2.1-1.4 0-.8.9-1.4 2.1-1.4 1.2 0 2.1.6 2.1 1.4zM75.3 141.718c0 .8-.9 1.4-2.1 1.4-1.1 0-2.1-.6-2.1-1.4 0-.8.9-1.4 2.1-1.4 1.2-.1 2.1.6 2.1 1.4zM82 144.218c0 .8-.9 1.4-2.1 1.4-1.1 0-2.1-.6-2.1-1.4 0-.8.9-1.4 2.1-1.4 1.2 0 2.1.6 2.1 1.4zM88.7 144.218c0 .8-.9 1.4-2.1 1.4-1.1 0-2.1-.6-2.1-1.4 0-.8.9-1.4 2.1-1.4 1.2 0 2.1.6 2.1 1.4zM95.5 143.118c0 .8-.9 1.4-2.1 1.4-1.1 0-2.1-.6-2.1-1.4 0-.8.9-1.4 2.1-1.4 1.1 0 2.1.6 2.1 1.4zm0 0"/>
</svg>
