<svg xmlns="http://www.w3.org/2000/svg" viewBox="0 0 255.822 235.654">
  <path fill="#e24329" d="m127.911 235.654 47.104-144.97H80.807z"/>
  <path fill="#fc6d26" d="M127.911 235.654 80.807 90.684H14.792z"/>
  <path fill="#fca326" d="M14.792 90.684.478 134.739a9.752 9.752 0 0 0 3.543 10.903l123.89 90.012z"/>
  <path fill="#e24329" d="M14.792 90.684h66.015L52.437 3.37c-1.46-4.494-7.816-4.493-9.275 0z"/>
  <path fill="#fc6d26" d="m127.911 235.654 47.104-144.97h66.015z"/>
  <path fill="#fca326" d="m241.03 90.684 14.314 44.055a9.752 9.752 0 0 1-3.542 10.903l-123.89 90.012z"/>
  <path fill="#e24329" d="M241.03 90.684h-66.015l28.37-87.314c1.46-4.494 7.816-4.493 9.275 0z"/>
</svg>
