<svg xmlns="http://www.w3.org/2000/svg" viewBox="0 0 255.532 341.707">
  <path fill="#d53a56" d="M210.226 19.105C188.54 3.488 163.752-6.263 163.752 4.63c0 1.42-.205 174.588-.205 174.588h79.204V56.528c.186-7.324-11.977-22.625-32.525-37.423"/>
  <path fill="#e47176" d="M240.325 56.478c-4.022 5.49-23.529-1.961-43.57-16.642-20.043-14.681-33.03-31.032-29.008-36.522 4.021-5.49 23.528 1.96 43.57 16.641 20.042 14.681 33.03 31.033 29.008 36.523"/>
  <path fill="#505457" d="M250.318 331.04h-94.815v10.667h94.815z"/>
  <path fill="#e8e8e3" d="M248.658 114.507h-91.496v81.541h91.496z"/>
  <path fill="#adbbb5" d="M250.318 196.048h-94.815v13.156h94.815z"/>
  <path fill="#393d3e" d="M255.532 209.204H150.287v122.548h105.245z"/>
  <path fill="#f93954" d="M198.328 51.45c-8.739.265-20.39 2.12-35.749 27.01-7.414 14.3-12.71 24.062-12.71 24.062s-38.662-3.936-64.35 10.893c-16.152 9.003-44.222 29.923-38.396 62.23 3.178 11.915 13.506 25.686 50.049 28.863.264.53-55.08 19.067-59.582 39.457-3.177 15.095 2.913 23.303 30.189 31.512l-51.11 13.505S.054 294.06 0 308.525v.122c.003.992.083 2.028.252 3.109 1.06 6.09 11.387 23.832 67.527 22.773 22.243-1.854 97.184-8.739 96.39-59.052-.266-12.18-10.063-24.363-29.394-33.1-17.213-6.886-37.868-14.566-37.868-14.566s-19.596-5.825-3.178-15.093c12.181-6.356 18.801-8.474 18.801-8.474l6.356-1.589s46.077-4.237 66.731-41.31c2.913-6.884 21.173-45.799-29.105-57.723.779-.207 12.334-31.104 27.252-41.05 1.058-.53 5.56-1.323 3.443 1.323-4.423 5.531-9.591 9.599-12.464 16.406-5.361 12.706 2.025 24.797 15.412 26.081 22.023 2.113 42.363-27.203 29.543-46.762-4.098-6.253-11.317-8.282-18.414-8.283-.991 0-1.978.04-2.956.113m-91.093 145.24c-8.565-1.707-9.203-23.293-3.876-47.707 5.329-24.413 17.058-42.235 25.59-40.373 8.532 1.862 10.636 22.704 5.308 47.117-5.036 23.076-14.575 41.145-25.173 41.147-.614 0-1.23-.06-1.85-.184M57.716 319.435c.265-21.714 18.272-43.164 18.272-43.164s9.045 3.426 21.49 7.133c22.468 7.236 22.998 12.463 21.674 18.882-3.178 17.275-28.334 23.504-37.338 25.094-4.005.644-7.346.92-10.132.92-13.243 0-13.966-6.24-13.966-8.865"/>
</svg>
