<svg xmlns="http://www.w3.org/2000/svg" viewBox="0 0 256 256">
  <path fill="#f36a22" d="M256 74.981v106.038l-3.417.333-123.367-51.822L128 128l128-53.019"/>
  <path fill="#f3852f" d="M256 181.019 181.019 256l-1.145-.881-52.309-123.609L128 128l128 53.019"/>
  <path fill="#f2c32e" d="m128 128-2.828 1.943-50.636 123.898.445 2.159h106.038L128 128"/>
  <path fill="#cbdc38" d="m0 181.019 3.174-2.468 121.998-51.002L128 128 74.981 256 0 181.019"/>
  <path fill="#b5d66d" d="m0 74.981 3.174-.215 123.071 50.473L128 128 0 181.019V74.981"/>
  <path fill="#69c5e5" d="M74.981 0 0 74.981 128 128l.225-3.256L80.496 3.026 74.981 0"/>
  <path fill="#6d9fd5" d="M74.981 0h106.038L128 128 74.981 0"/>
</svg>
