<svg xmlns="http://www.w3.org/2000/svg" version="1.0" viewBox="0 0 365.952 452.815">
  <g style="fill:#000;fill-opacity:1;fill-rule:nonzero;stroke:none;stroke-miterlimit:4">
    <g style="fill:#000;fill-opacity:1">
      <path d="M86.068 0C61.466 0 56.851 35.041 70.691 35.041 84.529 35.041 110.671 0 86.068 0zM45.217 30.699c7.369.45 15.454-28.122 1.604-26.325-13.845 1.797-8.976 25.875-1.604 26.325zM11.445 48.453c5.241-2.307.675-24.872-8.237-18.718-8.908 6.155 2.996 21.024 8.237 18.718zM26.212 36.642c6.239-1.272 6.581-26.864-4.545-22.273-11.128 4.592-1.689 23.547 4.545 22.273zM58.791 93.913c1.107 8.454-6.202 12.629-13.36 7.179-22.787-17.349 37.729-26.004 33.74-49.706-3.311-19.674-63.676-13.617-70.55 17.167-4.653 20.821 19.153 49.707 43.993 49.707 12.22 0 26.315-11.034 28.952-25.012 2.014-10.659-23.699-6.388-22.775.665z" style="fill:#000;fill-opacity:1" transform="matrix(2.9149 0 0 2.9149 19.405 0)"/>
    </g>
  </g>
  <path d="M-565.995 509.46c-8.088.219-14.474 3.125-19.17 8.7-4.865 5.8-7.311 13.816-7.311 24.038 0 10.194 2.446 18.187 7.31 23.988 4.888 5.801 11.598 8.699 20.158 8.699 8.583 0 15.31-2.898 20.174-8.699 4.864-5.8 7.294-13.794 7.294-23.988 0-10.222-2.43-18.238-7.294-24.039-4.864-5.8-11.591-8.698-20.174-8.698-.335 0-.658-.01-.987 0zm.602 11.777c.13-.003.254 0 .385 0 4.22 0 7.49 1.826 9.803 5.487 2.312 3.661 3.479 8.828 3.479 15.474 0 6.617-1.167 11.746-3.48 15.407-2.312 3.66-5.582 5.503-9.802 5.503-4.197 0-7.44-1.842-9.753-5.503-2.313-3.661-3.48-8.79-3.48-15.407 0-6.646 1.167-11.813 3.48-15.474 2.24-3.546 5.36-5.376 9.368-5.487zM-657.354 568.972c-7.124 5.982-17.723 5.913-22.138 5.913-8.893 0-15.938-2.929-21.136-8.786-5.198-5.885-7.796-13.854-7.796-23.908 0-10.166 2.646-18.163 7.94-23.992 5.292-5.83 12.54-8.744 21.743-8.744 3.553 0 6.95.395 10.193 1.183a38.528 38.528 0 0 1 9.227 3.506l-3.705 10.953c-1.622-.888-3.479-1.763-5.2-2.378-2.933-.986-5.877-1.479-8.834-1.479-5.484 0-9.716 1.817-12.696 5.45-2.956 3.604-4.435 8.771-4.435 15.501 0 6.674 1.43 11.828 4.292 15.46 2.861 3.633 7.16 5.45 12.195 5.45 5.115 0 8.283-1.29 9.973-2.648V549.54h-11.081v-10.898h21.458M-528.503 510.596h17.525l12.16 39.37 12.23-39.37h14.812l6.691 63.064h-13.018l-4.014-39.435-12.303 39.624h-8.726l-12.303-40.962-4.015 40.773h-13.053l6.691-63.064M-455.688 510.596h37.158v12.292h-23.39v13.08h17.98v10.954h-17.98v14.446h24.177v12.292h-37.945v-63.064M-647.943 510.596h8.687l27.45 37.9v-37.9h11.715v63.064h-8.687l-27.45-37.9v37.9h-11.715v-63.064" style="font-style:normal;font-variant:normal;font-weight:700;font-stretch:normal;font-size:148.7px;line-height:125%;font-family:'Bitstream Vera Sans';text-align:start;writing-mode:lr-tb;text-anchor:start;fill:#000;fill-opacity:1;stroke:none;stroke-width:1pt;stroke-linecap:butt;stroke-linejoin:miter;stroke-opacity:1" transform="translate(778.056 -178.577) scale(1.09829)"/>
  <text x="-406.524" y="527.923" style="font-style:normal;font-weight:400;font-size:25.8884px;font-family:'Bitstream Vera Sans';fill:#000;fill-opacity:1;stroke:none;stroke-width:1pt;stroke-linecap:butt;stroke-linejoin:miter;stroke-opacity:1" transform="translate(736.996 -128.502)"><tspan x="-406.524" y="527.923" style="letter-spacing:9.33191"><tspan style="letter-spacing:.212898">TM</tspan></tspan></text>
</svg>
