<svg xmlns="http://www.w3.org/2000/svg" viewBox="0 0 512 256.599">
  <path d="M354.948 213.465c-3.318 8.927-8.058 16.59-14.22 22.989-6.162 6.399-13.51 11.376-22.12 14.852-8.611 3.476-18.091 5.293-28.44 5.293-16.116 0-29.941-4.029-41.397-12.008-11.455-7.979-18.96-18.881-22.515-32.785h23.384c2.291 5.056 5.136 9.164 8.69 12.245 3.477 3.08 7.269 5.372 11.219 6.952 3.95 1.58 7.742 2.607 11.455 3.16 3.713.553 6.715.79 9.243.79 8.61 0 15.879-1.501 21.962-4.582s10.98-7.031 14.694-11.85c3.792-4.82 6.478-10.27 8.137-16.432 1.659-6.162 2.528-12.245 2.528-18.407v-14.22c-4.898 6.636-11.376 12.324-19.355 16.985-7.98 4.66-16.906 6.952-26.702 6.952-9.796 0-18.881-1.817-27.097-5.53-8.216-3.713-15.406-8.77-21.41-15.247-6.083-6.478-10.823-14.062-14.22-22.594-3.397-8.611-5.135-17.775-5.135-27.65s1.738-19.04 5.135-27.73c3.397-8.69 8.137-16.194 14.22-22.593 6.083-6.4 13.194-11.455 21.41-15.247s17.3-5.688 27.097-5.688c10.033 0 19.118 2.449 27.334 7.347 8.216 4.898 14.694 10.823 19.434 17.617V54.517h21.567v129.165c.079 10.98-1.58 20.856-4.898 29.783zm-21.014-110.442c-2.45-6.162-5.767-11.534-10.033-16.195-4.187-4.661-9.085-8.295-14.615-10.902-5.53-2.607-11.455-3.95-17.775-3.95-6.32 0-12.245 1.343-17.854 3.95-5.61 2.607-10.428 6.24-14.457 10.902-4.03 4.66-7.269 10.033-9.639 16.195-2.37 6.162-3.555 12.719-3.555 19.75 0 6.873 1.185 13.35 3.555 19.434 2.37 6.162 5.53 11.455 9.639 16.037 4.029 4.582 8.848 8.137 14.457 10.823a42.06 42.06 0 0 0 17.854 3.95c6.32 0 12.245-1.343 17.775-3.95 5.53-2.607 10.428-6.241 14.615-10.823 4.187-4.582 7.505-9.875 10.033-16.037a52.169 52.169 0 0 0 3.713-19.434c-.08-7.031-1.264-13.667-3.713-19.75zM470.84 56.808c8.295 3.792 15.484 8.927 21.567 15.405s10.823 14.062 14.299 22.752c3.476 8.69 5.293 17.933 5.293 27.729s-1.738 18.96-5.293 27.492c-3.476 8.532-8.295 15.958-14.299 22.357-6.083 6.399-13.272 11.455-21.567 15.089-8.295 3.634-17.301 5.53-26.94 5.53-9.637 0-18.564-1.817-26.86-5.53-8.294-3.713-15.404-8.69-21.566-15.09-6.162-6.398-10.981-13.824-14.457-22.356-3.476-8.532-5.293-17.696-5.293-27.492s1.738-19.04 5.293-27.73c3.476-8.69 8.295-16.273 14.457-22.751 6.162-6.478 13.35-11.613 21.567-15.405 8.216-3.792 17.222-5.688 26.86-5.688 9.638.079 18.565 1.975 26.939 5.688zm-9.243 111.943c5.53-2.607 10.428-6.162 14.615-10.665 4.187-4.503 7.505-9.796 9.875-15.88 2.37-6.161 3.555-12.64 3.555-19.433 0-7.031-1.185-13.667-3.555-19.83-2.37-6.24-5.688-11.612-9.875-16.194a48.145 48.145 0 0 0-14.615-10.902c-5.53-2.686-11.455-4.108-17.775-4.108-6.32 0-12.245 1.343-17.775 4.108a46.557 46.557 0 0 0-14.457 10.902c-4.108 4.582-7.347 9.954-9.717 16.195-2.37 6.24-3.555 12.877-3.555 19.829 0 6.873 1.185 13.35 3.555 19.434 2.37 6.162 5.609 11.455 9.717 15.879a45.84 45.84 0 0 0 14.457 10.665c5.53 2.607 11.455 3.95 17.775 3.95 6.399 0 12.245-1.343 17.775-3.95zM22.436 223.893c-3.634 0-7.268-.87-10.586-2.686A22.378 22.378 0 0 1 0 201.457V111.95c0-12.403 10.033-22.357 22.357-22.357s22.357 10.033 22.357 22.357v47.716l71.574-47.716L10.033 41.008C-.237 34.135-3.002 20.23 3.792 9.96 10.665-.31 24.569-3.075 34.839 3.72l134.38 89.586a22.39 22.39 0 0 1 9.953 18.644 22.39 22.39 0 0 1-9.954 18.644l-134.3 89.586c-3.792 2.449-8.137 3.713-12.482 3.713z"/>
</svg>
