<svg xmlns="http://www.w3.org/2000/svg" viewBox="0 0 200.221 256">
  <path d="M79.824 232.915c.277-.059.89.275.929.5.137.795.202 1.654-.667 2.182-.711.432-1.55.749-2.099 1.336-1.294 1.384-2.377 2.964-3.68 4.338-1.023 1.08-1.348 2.646-2.226 3.591-1.772 1.906-1.252 3.787-.796 5.792.064.28.517.48.807.694.235.173.597.252.73.475 1.031 1.738 2.762 1.64 4.512 1.761 2.694-.023 5.045-1.274 7.37-2.604.611-.35 1.25-.652 1.845-1.023.833-.518 1.67-1.039 2.445-1.637.61-.473 1.328-1.116 1.931-.475.53.563.365 1.573-.334 2.103-2.268 1.72-4.308 3.794-7.138 4.67-.584.181-1.1.566-1.676.783-2.366.889-4.848.51-7.279.56-1.597.034-2.822-.976-3.952-2.024-.4-.371-.91-.667-1.199-1.108-.39-.596-.755-1.274-.883-1.962-.197-1.062.197-2.223-.702-3.17-.152-.161.074-.75.217-1.105.327-.815.7-1.612 1.076-2.406.103-.218.299-.392.42-.604a9.72 9.72 0 0 0 .515-1c.34-.79.513-1.702 1.02-2.359.918-1.19 2.009-2.25 3.069-3.324.58-.588 1.248-1.087 1.866-1.638.193-.172.421-.352.516-.578.636-1.521 2.095-1.497 3.363-1.768zm23.171-2.283c1.862-.478 3.602.01 5.3.721.251.106.549.372.607.616.13.55.124 1.132.174 1.701-.594-.015-1.31.177-1.76-.085-1.356-.792-2.519-.96-3.707.288-.325.341-.909.528-1.402.601-1.554.232-2.847 2.78-1.928 4.553.666-1.727 2.137-1.783 3.416-2.123.423-.112.95.17 1.43.271-.187.396-.295.865-.576 1.175-1.05 1.157-2.192 2.144-3.9 2.238-.82.046-1.53 1.206-1.406 1.977.186 1.15.372 2.3.543 3.453.232 1.564.225 1.523 1.738 1.491 2.072-.043 4.148-.072 6.216.021.46.021.897.576 1.345.885-.384.45-.723 1.233-1.16 1.293-2.34.319-4.618 1.275-7.06.753-.35-.075-.824.21-1.18.428-.682.417-1.186.362-1.55-.388-.488-1.012-1.002-2.013-1.457-3.04-.145-.327-.188-.722-.193-1.088-.025-1.855-.02-3.711-.033-5.567-.01-1.48-.041-2.958-.032-4.437 0-.196.146-.521.29-.564.983-.294 1.01-1.144 1.26-1.911.11-.34.453-.748.778-.852 1.419-.455 2.73-1.048 3.748-2.18.113-.126.323-.185.5-.23zm13.846-1.884c.128-.123.73.082.992.287 1.466 1.148 1.413 1.756-.172 2.66-2.08 1.187-2.207 4.698-.43 6.507 2.025 2.063 3.427 4.557 3.683 7.503.16 1.842-.913 3.31-1.944 4.71-.209.282-.797.391-1.21.393-.847.003-1.694-.12-2.64-.2-.012-1.208.544-1.92 1.46-2.254 1.464-.535 1.818-.986 1.6-2.545-.103-.733-.202-1.484-.447-2.175-.173-.485-.583-.888-.9-1.318-.22-.297-.46-.579-.694-.865-.53-.647-.997-1.365-1.608-1.924-1.753-1.604-2.257-4.227-1.14-6.37.035-.065.117-.134.109-.19-.388-2.582 2.044-2.967 3.341-4.219zm-58.52 5.517.037.136c.891 0 1.793-.08 2.671.03.548.067 1.168.302 1.57.667 1.278 1.164 2.515 2.403 1.617 4.4-.072.158-.091.396-.025.55.59 1.358-.21 2.306-.936 3.28-.891 1.196-1.63 2.56-2.716 3.541-1.117 1.01-2.097 2.375-3.919 2.404-1.055.017-2.109.503-3.157.48-1.352-.03-2.705-.312-4.043-.568-1.298-.249-2.738-2.904-2.3-4.176.079-.228.275-.505.483-.582.974-.36 1.083-1.273 1.516-2.032.804-1.408 1.162-3.105 2.605-4.135 1.554-1.109 3.02-2.344 4.6-3.411.548-.37 1.325-.399 1.997-.584zm77.59-14.077c.115.061.228.095.306.167 1.524 1.388 1.526 1.392-.149 2.605-.561.407-1.151.775-1.707 1.188-.842.626-.629 2.576.199 3.659 1.269 1.66 2.404 3.422 3.604 5.135.628.895 1.308 1.756 1.9 2.673 1.445 2.233 1.472 4.597.582 7.038-.15.414-.166.874-.276 1.305-.07.272-.124.62-.315.777-.7.578-1.584.993-1.242 2.2.028.101-.728.513-1.161.638-.675.194-1.42.17-2.072.408-1.454.53-2.814.424-4.24-.142-.717-.284-1.03-.705-.796-1.313.164-.427.662-.942 1.077-1.008.83-.133 1.71-.033 2.56.06 1.087.118 2.168.334 2.27-1.27.003-.07.041-.19.082-.199 1.406-.291 1.637-1.496 1.987-2.584.17-.53.485-1.202.302-1.621-.501-1.151-1.23-2.203-1.873-3.291-.056-.095-.203-.166-.208-.254-.126-2.182-2.125-3.037-3.189-4.552-.76-1.083-1.421-2.242-2.053-3.407-.376-.692-.825-1.449-.87-2.2-.123-2.06 1.248-3.428 2.659-4.63.733-.626 1.74-.931 2.624-1.382zm-75.794 16.72c-1.204-.401-4.562.747-5.303 1.776-.424.588-.846 1.213-1.397 1.665-.707.58-1.234 1.167-1.188 2.14.008.182-.12.431-.266.55-1.314 1.074-1.59 1.808-1.078 3.299.117.342.437.759.753.859.663.21 1.385.232 2.083.33 2.804.404 4.414-1.757 6.446-2.99.107-.065.2-.256.195-.383-.049-1.07 1.1-1.42 1.351-2.166.27-.8-.143-1.802-.084-2.706.071-1.088-.434-2.016-1.512-2.374zm-17.53-14.529c.463-.657 2.41-.273 2.967.37.134.156.348.25.537.348.94.491 1.021.622.954 1.638.1 2.654-1.436 4.57-3.013 6.344l-.256.287c-.675.753-1.895 1.081-2.402 2.153-.014.03-.06.065-.089.064-1.647-.08-2.64 1.051-3.8 1.944-.349.268-1.06.028-1.592.106-.41.06-1.091.178-1.15.401-.202.775-.84.938-1.347 1.335-.416.325-1.01 1.055-.892 1.296.234.479.866.826 1.404 1.076.61.284 1.298.4 1.952.59.28.082.602.302.834.23 1.38-.43 2.451.26 3.633.78 1.155.509 2.471.646 3.636 1.138.46.194 1.004.93.973 1.38-.06.844-.951.739-1.533.625-1.712-.337-3.4-.793-5.106-1.167-.687-.15-1.394-.277-2.094-.292-1.166-.024-2.293-.057-3.294-.802-.301-.224-.78-.194-1.157-.336-1.277-.482-2.615-.867-3.78-1.548-.452-.265-.79-1.286-.66-1.84.142-.595.802-1.236 1.397-1.522 1.29-.621 2.077-1.635 2.883-2.746.88-1.21.974-2.865 2.466-3.775.654-.4.678-1.744 1.307-2.296.628-.55 1.611-.625 1.755-1.758.041-.326.618-.625.999-.855.308-.187.906-.158 1.005-.386.67-1.542 2.56-1.498 3.463-2.782zm-17.09-12.47c.826-.9 2.071-.682 3.022.384.61.685 1.4 1.128 2.07 1.675 1.153.94 2.755 1.412 3.426 2.97.294.681 1.077 1.164 1.327 1.85.463 1.27.697 2.625 1.067 4.108-.353.79-.561 1.677-1.076 2.316-.978 1.212-1.538 2.921-3.4 3.208-1.068 2.174-3.329 1.285-4.998 1.903-2.1.779-4.25.314-6.348-.272-.21-.06-.477-.138-.655-.062-1.055.45-2.038.474-3.06-.16-.174-.107-.78.264-1.032.551-.404.461-2.722 2.847-3.184 3.2-.315.242-.553.586-.812.896-.245.294-.414.757-.72.873-.61.233-1.29.278-1.94.4.042-.618-.053-1.29.16-1.843.333-.87.463-1.99 1.751-2.15.188-.022.335-.368.501-.564.273-.321.56-.63.813-.967.23-.306.57-.636.583-.965.01-.243-.395-.563-.681-.742-.562-.35-1.142-.713-1.765-.911-.747-.238-.712-.8-.5-1.23.173-.355.686-.744 1.057-.752.516-.011 1.093.232 1.549.518 1.763 1.106 3 .754 3.997-1.118a26.059 26.059 0 0 1 1.89-3.065c.789-1.086 1.784-2.027 2.532-3.137.78-1.154 1.317-2.468 2.06-3.65.714-1.138 1.464-2.279 2.367-3.264zm18.079 15.803c-.232-.243-1.2.208-1.83.352-.066.015-.124.083-.175.136-1.168 1.215-2.376 2.395-3.488 3.659-.853.969-1.825 1.91-1.992 3.284l.264.29c.905-.603 1.897-1.108 2.695-1.828 1.421-1.283 2.723-2.698 4.08-4.052.543-.54.987-1.27.446-1.84zM51.509 18.13c2.25-.678 4.441-.3 6.41.64 1.185.565 2.386 1.763 2.868 2.962.601 1.494 1.492 2.786 2.166 4.209.144.302.393.57.472.883.403 1.6.903 3.195 1.088 4.823.1.884-.31 1.848-.587 2.746-.147.472-.258.826.351.895 1.023.116 2.877-1.164 3.217-2.216 1.351.541 2.45.318 3.542-.786.517-.522 1.644-.383 2.41-.73 1.646-.746 3.205-1.69 4.863-2.408 1.679-.726 3.367-1.305 5.318-1.205 1.98.102 3.967-.347 5.978.125.876.206 1.215.545 1.243 1.382.03.905-.532.941-1.145.95l-.137.002c-2.452.038-4.91-.007-7.352.174-1.014.075-2.001.616-2.981.996-.84.326-1.655.715-2.473 1.094-1.584.734-3.153 1.503-4.75 2.21-.572.253-1.244.29-1.804.562-1.653.804-3.273 1.676-4.906 2.52-.098.051-.202.139-.3.135-2.612-.107-4.32 1.788-6.385 2.887-1.642.873-3.254 1.803-4.877 2.712-.227.127-.438.28-.657.42-.659.422-1.332.823-1.972 1.27-.73.512-1.366 1.2-2.154 1.578-2.923 1.404-5.587 3.142-7.826 5.512-1.817 1.923-3.677 3.806-5.498 5.725-.16.169-.133.503-.268.71-.318.49-.592 1.213-1.047 1.37-1.144.393-1.435 1.325-1.855 2.308-.956-.03-1.387.476-1.928 1.348-.777 1.253-1.085 2.988-2.757 3.58-.633 1.923-2.998 2.756-3.146 5-.014.209-.243.482-.444.588-.93.488-1.096 1.285-1.15 2.246-.045.809-.085 1.744-1.194 2.001-.145.034-.238.328-.337.51-.904 1.657-2.157 3.226-2.603 4.999-.43 1.708-1.79 2.442-2.594 3.7a63.255 63.255 0 0 0-2.401 4.048c-1.675 3.113-2.882 6.397-3.383 9.914-.308 2.172-.266 4.464-.993 6.482-.542 1.502-.064 2.512.203 3.81.242 1.177-.3 2.494-.322 3.752-.022 1.32.174 2.645.255 3.968.106 1.738.266 3.477.273 5.216.018 4.177-.165 8.359-.014 12.529.08 2.208.685 4.398 1.064 6.595.17.992.293 2.002.574 2.965.352 1.205.872 2.36 1.267 3.555.284.863.65 1.748.683 2.634.065 1.787-.1 3.58-.108 5.372-.002.497.146 1.028.35 1.487.48 1.074 1.044 2.11 1.559 3.17a279.273 279.273 0 0 1 1.87 3.925c.187.401.32.827.482 1.24.271.69.477 1.416.832 2.06a412.085 412.085 0 0 0 4.2 7.4c.406.699.964 1.31 1.356 2.014 1.663 2.99 3.06 6.12 5.096 8.914.815 1.118 1.618 2.13 2.697 3.026.97.806 1.368 2.124 1.728 3.667-2.635-1.01-4.578-2.302-5.941-4.533-1.317-2.155-2.897-4.147-3.762-6.566-.075-.208-.52-.284-.794-.422-.153.341-.522.774-.423 1.009.62 1.475 1.279 2.944 2.052 4.344 1.09 1.973 2.334 3.862 3.434 5.83 1.093 1.955 2.063 3.978 3.15 5.936.217.391.675.71 1.093.918 1.917.958 3.45 2.648 5.682 3.007a.615.615 0 0 1 .304.12c2.189 1.974 4.815 3.457 6.566 5.924.86 1.213 1.623 2.576 2.732 3.513 1.414 1.194 2.72 2.734 4.92 2.67 1.48-.044 2.97.17 4.452.304.383.034.752.206 1.433.403-.504.339-.734.557-1.007.667-1.27.514-2.557.985-3.824 1.503-.24.099-.422.342-.63.518.218.16.422.345.659.469.158.082.362.101.546.104 1.005.016 1.87.285 2.815.753 1.665.825 3.52 1.297 5.328 1.799 2.464.684 4.947 1.308 7.443 1.864 1.985.442 4.003.729 6.001 1.114.803.155 1.583.51 2.387.562 1.317.085 2.648-.065 3.968-.002 2.457.116 4.91.35 7.367.456.76.032 1.53-.204 2.298-.294.37-.043.791-.153 1.11-.029 1.827.709 3.503-.036 5.245-.391 2.281-.466 4.6-.744 6.892-1.16.595-.108 1.142-.46 1.728-.645.493-.156 1.011-.323 1.518-.323 1.729-.001 3.375-.219 4.805-1.313.189-.144.502-.118.75-.195 2.26-.705 4.521-1.406 6.776-2.127 3.136-1.002 6.284-1.97 9.39-3.058 1.248-.437 2.382-1.193 3.603-1.721.642-.278 1.373-.344 2.041-.572.654-.223 1.271-.549 1.918-.793.479-.18.99-.449 1.469-.416.728.05 1.189-.135 1.589-.747.169-.259.582-.457.908-.497 1.072-.133 1.877-.592 2.694-1.342.729-.669 1.815-.977 2.778-1.356 1.289-.506 2.649-.843 3.905-1.413.892-.404 1.618-1.162 2.499-1.6 1-.497 1.91-.959 2.628-1.925.467-.63 1.503-.825 2.264-1.251.859-.481 1.765-.915 2.527-1.525 1.218-.976 2.337-2.079 3.492-3.135.162-.148.267-.361.434-.503 1.172-.994 2.544-1.829 3.473-3.012.77-.981 2.053-1.416 2.503-2.77.287-.865 1.073-1.683 1.84-2.237 1.01-.728 1.633-1.65 2.16-2.712.123-.248.355-.469.587-.631.702-.493 1.1-1.157 1.565-1.882.798-1.245 1.505-2.727 3.05-3.363.184-.076.384-.238.468-.413.604-1.268 1.114-2.585 1.783-3.816.665-1.22 1.487-2.354 2.227-3.534.325-.52.613-1.062.926-1.59.316-.532.638-1.062.967-1.587 1.127-1.805 2.259-3.607 3.382-5.414.056-.09.015-.278.08-.317 1.886-1.117 1.397-3.492 2.697-5.042.867-1.035.737-2.897 1.08-4.383.114-.492.303-.967.47-1.446.096-.28.308-.551.312-.828.036-2.696 1.843-5.04 1.525-7.82-.059-.514.408-1.068.527-1.626.206-.962.355-1.937.482-2.913.323-2.468.769-4.932.89-7.411.139-2.855.035-5.726-.066-8.586-.06-1.694-.277-3.387-.498-5.07-.211-1.618-.106-3.464-.873-4.783-1.368-2.353-.785-4.87-1.31-7.263-.312-1.43-.584-2.868-.941-4.286-.06-.234-.467-.381-.464-.38-.266-1.308-.301-2.5-.763-3.493-.545-1.17-1.496-2.145-2.2-3.25-.458-.72-.796-1.518-1.175-2.288a490.959 490.959 0 0 1-1.862-3.834c-.81-1.683-2.194-2.995-2.877-4.792-.809-2.127-2.598-3.592-4.113-5.223-1.236-1.331-2.63-2.552-3.664-4.025-1.535-2.186-3.787-3.61-5.483-5.581-2.612-3.033-5.89-5.241-9.035-7.603-1.445-1.085-3.317-1.592-4.797-2.643-1.33-.945-3.06-1.267-4.09-2.678-.181-.247-.675-.245-.987-.423-.577-.33-1.129-.703-1.685-1.068-.117-.077-.188-.237-.31-.29-1.759-.78-3.517-1.56-5.288-2.313-1.097-.466-2.224-.744-3.175-1.636-.732-.687-1.915-.894-2.898-1.311-.266-.113-.728-.16-.775-.329-.316-1.131-1.25-1.125-2.124-1.277-.555-.097-1.235.003-1.362-.847-.022-.14-.343-.287-.548-.336-1.353-.326-2.714-.617-4.07-.936-.394-.093-.796-.196-1.159-.37-.922-.439-1.814-.94-2.735-1.38-1.358-.651-2.778-1.187-4.085-1.925-1.78-1.007-3.743-1.418-5.663-1.976-2.174-.633-4.36-1.22-6.542-1.825-.107-.03-.227-.094-.322-.07-2.734.69-5.369-.323-8.05-.434-3.382-.139-6.802-.184-10.161.162-2.717.28-5.369 1.197-8.05 1.833-.218.052-.437.172-.65.16-1.635-.096-2.909.957-4.386 1.354-.18.048-.356.123-.538.137-3.306.256-5.838 2.32-8.707 3.616-1.432.647-2.425 1.73-3.656 2.555-1.136.762-2.147 1.707-3.237 2.54-.243.187-.7.165-.854.383-.306.434-.47.969-.692 1.462.477-.003.99.108 1.422-.032.757-.245 1.463-.648 2.194-.977.304-.136.76-.163.905-.393.71-1.12 1.781-1.107 2.916-1.187.666-.047 1.393-.352 1.939-.752 1.202-.882 2.585-.61 3.89-.772 1.107-.137 2.236-.094 3.356-.122 1.144-.03 2.247.036 3.366-.55.683-.358 1.682-.118 2.54-.134 2.87-.052 5.742-.146 8.613-.136 3.356.01 6.71.148 10.067.165 2.367.012 4.68.27 6.931 1.033.34.115.75.118 1.11.064 3.125-.466 5.805.786 8.505 2.08 1.485.713 3.109 1.136 4.592 1.852 1.271.612 2.447 1.433 3.638 2.203 1.271.822 2.545 1.65 3.757 2.555 1.428 1.067 2.785 2.228 4.183 3.334.805.636 1.612 1.271 2.451 1.86 1.628 1.14 3.312 2.202 4.908 3.383 1.346.996 2.58 2.14 3.897 3.176 1.993 1.568 3.957 3.185 6.046 4.617 1.409.966 2.809 1.843 3.9 3.228.678.862 1.832 1.332 2.667 2.093.974.888 1.77 1.97 2.755 2.843 1.223 1.083 2.564 2.03 3.841 3.052.424.34.888.673 1.193 1.108.757 1.078.814 1.156 2.205 1.326-.048 1.565 1.557 1.928 2.24 2.998.052.08.231.078.283.158.52.805.984 1.618 2.107 1.766.27.036.495.597.695.943.454.783.854 1.599 1.324 2.372.814 1.34 1.684 2.646 2.495 3.987.459.757 1.06 1.513 1.228 2.344.447 2.206 1.908 4.16 1.515 6.598-.106.66.687 1.426.694 2.147.038 4.1-.065 8.203-.064 12.304 0 4.513.23 9.033.047 13.538-.148 3.633-.715 7.253-1.191 10.866-.189 1.428-.733 2.808-.934 4.235-.17 1.207.001 2.46-.128 3.676-.108 1.009-.435 1.993-.663 2.989-.231 1.01-.492 2.015-.678 3.033-.152.829-.299 1.549-.916 2.276-.705.829-1.048 1.997-1.432 3.06-.691 1.912-1.777 3.584-2.883 5.267-.548.834-.718 1.927-1.304 2.721-.645.874-1.559 1.555-2.38 2.292-1.136 1.018-2.295 2.01-3.442 3.016-.056.048-.09.123-.147.168a3058.48 3058.48 0 0 1-4.634 3.68c-.088.07-.237.11-.267.196-.612 1.75-2.434 1.554-3.663 2.307-1.032.632-2.004 1.36-3.002 2.047-.12.083-.228.195-.36.249-1.557.64-3.108 1.294-4.68 1.897-1.691.65-3.421 1.204-5.098 1.888-1.236.505-2.381 1.234-3.626 1.71-.97.37-2.02.626-3.053.712-1.411.116-2.839.02-4.26.023-.184 0-.387.011-.549.088-2.564 1.214-5.358 1.011-8.002.865-4.095-.227-8.102.595-12.16.517-4.963-.095-9.925-.283-14.888-.381-1.937-.039-3.89-.073-5.811.124-2.363.242-4.572-.299-6.819-.835-1.072-.255-2.195-.336-3.3-.402-1.536-.093-2.998-.033-4.552-.659-2.355-.95-4.942-1.325-7.432-1.94-.216-.052-.466-.01-.66-.099-2.14-.986-4.334-.941-6.563-.383-.14.035-.329.06-.442-.004-1.554-.877-3.339-.251-4.914-.735-1.423-.438-2.76-1.183-4.094-1.874-.953-.493-1.885-.743-3.172-.404 2.073 1.338 3.1 3.582 5.411 4.298.26.08.623.633.552.82-.198.522-.5 1.12-.943 1.406-.822.533-2.048.038-2.575-.86-.143-.244-.302-.514-.525-.672-1.165-.822-2.461-1.494-3.5-2.45-.839-.771-1.416-1.846-2.035-2.834-.476-.76-.82-1.6-1.266-2.38-.083-.147-.391-.263-.567-.23-.152.027-.293.268-.384.443-.062.121-.032.29-.042.439-.045.711-.216 1.375-1.024 1.537-.607.122-1.853-.867-1.772-1.544.174-1.45.443-2.909.883-4.298.256-.809.531-1.457-.185-2.12-.13-.12-.29-.29-.303-.446-.158-2.07-1.809-3.198-2.89-4.692-.466-.644-.7-1.45-1.095-2.151-1.058-1.882-2.145-3.747-3.22-5.62-.363-.631-.758-1.247-1.08-1.899-.887-1.788-2.177-3.355-2.647-5.378-.34-1.46-.747-3.016-1.571-4.223-.835-1.223-1.056-2.43-1.229-3.802-.098-.789-.748-1.495-1.059-2.274a115.96 115.96 0 0 1-1.981-5.295c-.188-.548-.166-1.175-.199-1.769-.196-3.57-.412-7.14-.558-10.714-.1-2.48-.096-4.963-.146-7.444-.025-1.26-.185-2.53-.07-3.776.147-1.576.193-3.284.846-4.669 1.81-3.838.683-7.976 1.55-11.882.078-.353.1-.836.333-1.016.85-.654.827-1.581 1.013-2.485.532-2.575 1.089-5.146 1.737-7.693.213-.836.834-1.562 1.091-2.393.282-.91.364-1.882.525-2.828.057-.33-.024-.76.157-.982 1.245-1.538.863-3.516 1.48-5.204.453-1.237 1.137-2.39 1.724-3.577.164-.33.4-.634.515-.979.365-1.092.818-2.071 1.636-2.969.62-.68.767-1.79 1.13-2.706.145-.364.211-.824.473-1.067 2.094-1.95 4.225-3.861 6.346-5.782 1.196-1.082 2.292-2.319 3.627-3.188.93-.605 1.432-1.432 2.125-2.17.72-.765 1.813-1.264 2.831-1.634 1.104-.402 1.919-.974 2.576-1.963 1.212-1.827 2.412-3.7 3.884-5.307 1.233-1.346 2.83-2.366 4.3-3.484 1.291-.983 2.58-1.984 3.962-2.828 1.672-1.022 3.516-1.772 5.14-2.858 1.233-.824 2.565-1.087 3.925-1.477 2.898-.83 5.717-1.941 8.626-2.726 1.488-.402 3.098-.364 4.655-.496 3.84-.326 7.68-.664 11.524-.928.791-.054 1.6.219 2.405.299.692.069 1.385.135 2.077.2l4.155.384c.148.014.325.008.436.087 1.815 1.278 3.948.558 5.899.958.447.092.863.335 1.3.49.86.306 1.725.6 2.589.896 1.31.448 2.634.86 3.93 1.346 2.211.83 4.414 1.687 6.607 2.567 1.918.769 3.964 1.353 5.683 2.446 1.734 1.102 3.512 2.09 5.421 2.694 1.527.483 2.797 1.295 4.157 2.036 1.781.97 3.659 1.761 5.496 2.628.167.078.417.093.5.22.973 1.494 2.863 1.559 4.102 2.664.814.726 1.752 1.543 2.757 1.767 1.265.282 2.326.666 3.187 1.624.095.105.364.106.54.078 1.105-.178 1.56.516 2.194 1.283.747.903 1.897 1.464 2.838 2.218 1.371 1.098 2.71 2.236 4.065 3.355.337.279.675.557 1.022.823.334.255.686.487 1.02.743.484.371.955.76 1.44 1.13.083.064.245.048.302.122.824 1.074 1.636 2.156 2.45 3.238.154.204.284.576.455.594 1.347.147 1.846 1.372 2.704 2.11.73.628 1.17 1.59 1.887 2.24 2.065 1.868 3.392 4.224 4.692 6.608l.488.894c.342.626.95 1.105 1.301 1.727.482.85.806 1.789 1.257 2.658.203.392.576.693.826 1.065.226.336.544.712.551 1.075.018.992.297 1.535 1.331 1.97.6.251.78 1.424 1.227 2.133.836 1.324 1.117 2.884 2.17 4.174.764.935.85 2.487 1.061 3.792.35 2.164.327 4.413.897 6.508.407 1.5.463 2.973.658 4.464.12.907.682 1.76.775 2.664.266 2.58.519 5.175.543 7.765.023 2.83-.36 5.667-.296 8.494.055 2.477-.616 4.763-1.138 7.12-.367 1.656-.29 3.407-.525 5.099-.145 1.043-.503 2.056-.77 3.081-.065.251-.175.493-.217.748-.339 2.078-.663 4.158-1.003 6.236-.035.216-.126.427-.215.63-.68 1.56-1.476 3.08-2.019 4.686-.518 1.534-1.255 2.907-2.075 4.293-1.102 1.862-1.872 3.918-2.902 5.827-.584 1.083-1.416 2.031-2.11 3.057-.18.266-.267.595-.385.9-.105.274-.108.666-.302.815-1.185.91-1.546 2.294-2.192 3.528-.419.8-1.124 1.445-1.668 2.184-.325.441-.592.927-.873 1.4-.095.159-.12.368-.236.505-1.01 1.197-2.04 2.376-3.046 3.576-.356.424-.63.917-.996 1.332-.505.576-1.064 1.104-1.592 1.66-.248.26-.491.53-.714.813-.157.2-.23.562-.418.628-1.444.51-1.718 2.184-2.942 2.908-.175.104-.198.45-.316.67-.15.279-.27.611-.5.803-.862.716-1.96 1.24-2.6 2.106-.789 1.066-1.892 1.807-2.65 2.736-1.345 1.649-3.155 2.356-4.766 3.472-.83.575-1.435 1.487-2.28 2.033-1.267.818-2.582 1.563-3.902 2.298l-1.32.734c-1.755.976-3.5 1.983-5.313 2.84-1.801.85-3.689 1.518-5.527 2.294-.38.161-.71.442-1.058.675-.117.079-.206.232-.33.265-1.522.395-3.053.755-4.57 1.169-.565.155-1.105.413-1.646.65-.823.36-1.641.73-2.451 1.118-.375.18-.726.41-1.086.619-.151.088-.287.217-.448.27-2.048.67-4.094 1.341-6.15 1.984-.85.266-1.752.39-2.58.71-1.326.515-2.607 1.147-3.915 1.71-.338.145-.708.217-1.063.323-1.311.392-2.62.794-3.936 1.172-.351.101-.722.144-1.087.19-.369.046-.798-.046-1.102.112-2.067 1.076-4.389 1.065-6.586 1.562-2.788.63-5.632 1.006-8.437 1.563-3.855.766-7.712.333-11.57.117-1.86-.104-3.736-.136-5.575-.4-1.896-.274-3.758-.79-5.634-1.206-.18-.04-.346-.144-.526-.186-1.932-.443-3.853-.946-5.801-1.295-1.424-.255-2.913-.175-4.321-.482-1.503-.328-2.972-.867-4.407-1.436a105.606 105.606 0 0 1-6.312-2.722c-1.022-.484-1.954-1.173-2.888-1.825-1.627-1.135-3.268-2.257-4.816-3.493-1.045-.835-1.935-1.862-2.908-2.788-.205-.196-.494-.302-.706-.493-.464-.417-1.141-.788-1.302-1.31-.333-1.075-.955-1.547-2.004-1.55-.675-.003-1.07-.193-1.487-.846-.786-1.231-1.61-2.508-3.083-3.128-.265-.111-.364-.588-.571-.872-.686-.944-1.286-1.978-2.103-2.792-1.784-1.777-2.703-4.118-4.14-6.12-.572-.796-.588-1.994-.846-3.012-.124-.49-.129-1.034-.348-1.473-.74-1.483-1.6-2.906-2.323-4.395-1.316-2.708-2.547-5.457-3.862-8.165-.233-.48-.725-.831-1.06-1.27-1.37-1.798-1.965-3.93-2.61-6.044-.09-.3-.441-.52-.672-.776-.483-2.15-1.608-4.064-2.485-6.067-.235-.538-.403-1.106-.629-1.649-.394-.947-.824-1.88-1.21-2.83-.508-1.247-1.242-2.47-1.417-3.767-.224-1.658-.965-3.097-1.513-4.595-.96-2.621-2.291-5.104-3.372-7.685-.484-1.156-.662-2.438-1.12-3.608-.5-1.274-1.182-2.475-1.746-3.726-.235-.52-.488-1.077-.522-1.63a32.503 32.503 0 0 1-.007-3.811c.052-.922-.444-1.983.62-2.723.19-.133.142-.633.174-.967.236-2.481.346-4.983.738-7.439.262-1.636.924-3.208 1.407-4.808.021-.072.056-.142.064-.215.39-3.547 2.416-6.733 2.292-10.395-.007-.182-.02-.454.087-.538 1.132-.89.62-2.156.821-3.269.295-1.638.91-3.227 1.11-4.87.24-1.95.442-3.875 1.27-5.685.182-.396.163-.881.322-1.292.564-1.457.947-1.558 2.302-.686.214.137.452.238.728.383.682-1.495 1.3-2.96 2.01-4.378.643-1.281 1.42-2.495 2.078-3.768.797-1.54 1.47-3.145 2.311-4.658a116.203 116.203 0 0 1 3.737-6.273c.859-1.338 1.908-2.554 2.842-3.845.254-.35.378-.792.602-1.166.242-.406.448-.958.819-1.136.744-.356 1.263-.73 1.197-1.64a.822.822 0 0 1 .26-.601c.881-.729 1.81-1.4 2.68-2.142.266-.227.531-.6.564-.93.068-.678.28-1.012 1.021-1.011.334 0 .72-.214.993-.44 1.154-.958 2.318-1.912 3.383-2.965.364-.36.397-1.034.675-1.51.194-.33.51-.732.839-.81.973-.23 1.62-.659 1.732-1.73.023-.216.228-.478.423-.603 2.029-1.306 4.066-2.6 6.12-3.865.406-.25.894-.37 1.35-.534.173-.062.395-.024.54-.117 1.125-.717 2.225-1.474 3.356-2.179.783-.488 1.603-.914 2.408-1.365.422-.236.846-.467 1.269-.7l-.092-.32c-.345-.023-.702.006-1.03-.078-.937-.24-1.861-.527-2.79-.797-.07-.02-.144-.098-.202-.085-1.672.366-2.467-1.116-3.644-1.77-.401-.223-.563-.838-.92-1.185-1.557-1.511-1.261-3.522-1.396-5.366-.215-2.967.026-5.984 1.603-8.543 1.09-1.767 2.556-3.4 4.765-4.064zM28.312 213.594c-.683-.784-1.66-.733-2.139.199-.506.984-.937 2.016-1.531 2.944-.793 1.236-1.71 2.392-2.576 3.581-.418.573-.86 1.13-1.254 1.72-.139.207-.103.535-.25.729-.597.783-1.234 1.536-1.855 2.3l.236.41c.639.086 1.275.202 1.917.255 2.32.189 4.613.604 6.932-.322 2.004-.8 4.273-1.114 4.64-3.833.005-.032.037-.069.066-.089 1.171-.808 1.083-1.81.463-2.908-.09-.157-.114-.353-.16-.533-.243-.949-.312-1.994-1.475-2.394-.174-.06-.375-.318-.395-.503-.108-.953-.859-.853-1.493-1.012-.4-.1-.873-.252-1.126-.544zM79.8 71.104c-.2.5-.527.988-.582 1.505-.427 4-1.231 7.957-.835 12.044.23 2.356-.063 4.769-.197 7.152-.194 3.42-.518 6.85 2.305 9.534.075.07.109.197.136.305.362 1.47.859 2.871.524 4.487-.432 2.09.198 4.289-.503 6.407-.242.733.401 1.077 1.102.96.39-.064.733-.39 1.124-.47.918-.186 1.858-.418 2.777-.378.369.016.708.7 1.06 1.08-.381.318-.737.677-1.153.942-.297.189-.68.236-1.015.373-.627.257-1.26.507-1.866.807-.846.419-1.844.728-2.434 1.39-.299.336.16 1.342.266 2.046.023.147.024.3.008.448a763.22 763.22 0 0 1-.679 6.025c-.02.17-.157.326-.231.493-.205.46-.502.904-.59 1.386-.247 1.356-.508 2.723-.576 4.095-.075 1.485-1.005 2.874-.468 4.422.052.15-.072.359-.105.542-.336 1.86-.775 3.667-.666 5.628.077 1.412-.52 2.935-1.093 4.291-.687 1.628-1.47 3.234-2.99 4.37-1.164.869-1.306 2.346-1.668 3.656-.617 2.233-2.166 4.054-2.604 6.415-.29 1.56-.63 3-.14 4.565.116.372-.06 1.137-.333 1.28-1.526.797-1.581 2.47-2.337 3.708-.515.845-.747 1.858-1.222 2.733-.942 1.737-1.953 3.437-2.957 5.139-.397.672-.852 1.31-1.28 1.964l-.507-.062c-.173-.763-.706-1.687-.45-2.257.693-1.544 1.753-2.92 2.606-4.399.612-1.06 1.51-2.024 1.437-3.755-1.018.684-1.867 1.184-2.634 1.788-.845.666-1.566 1.495-2.43 2.133-2.041 1.509-4.136 2.943-6.206 4.413-1.786 1.268-3.561 2.552-5.356 3.808-.509.356-1.25.587-.903 1.401.313.734.832 1.418 1.754 1.298 1.404-.182 1.892 1.107 2.84 1.645.38.216.67.64 1.066.776 1.217.418 2.496.667 3.697 1.123 1.659.632 3.25 1.431 5.112 1.238.996-.103 2.01-.039 3.003-.163 3.43-.43 6.544 1.069 9.823 1.548.07.01.134.065.205.085 2.675.722 5.314 1.66 8.033 2.12 6.562 1.111 13.272.128 19.865 1.32 2.61.47 5.36.297 8.039.212 2.551-.08 5.09-.494 7.643-.637 2.816-.157 5.642-.157 8.461-.27.403-.015.89-.176 1.174-.443.479-.45.766-.301 1.251-.012.396.237.963.189 1.454.266-.158-.449-.227-.96-.491-1.334-.779-1.103-1.88-2.045-2.397-3.247-.6-1.395-2.127-2.488-1.63-4.3.007-.027-.033-.065-.047-.1-.75-1.812-1.654-3.58-2.211-5.45-.588-1.974-.842-4.046-1.25-6.073-.066-.324-.075-.744-.28-.94-.879-.83-.736-1.959-1.012-2.97-.248-.907-.654-1.77-.968-2.659-.822-2.326-2.021-4.605-2.341-7-.355-2.66-1.16-5.097-2.092-7.546-.143-.377-.29-.758-.38-1.15a989.255 989.255 0 0 1-1.717-7.593c-.063-.281-.125-.6-.057-.868.378-1.492-.09-2.88-.795-4.08-1.355-2.31-.22-3.916 1.17-5.495.765-.87.765-1.418.183-2.166-.414-.532-.48-.925.046-1.437.449-.435.743-1.025 1.172-1.485.328-.352.736-.825 1.15-.871 2.092-.235 4.009-1.681 6.247-.916.185.064.437-.063.657-.106 1.524-.299 3-.8 4.623-.435.75.168 1.603-.133 2.41-.216.22-.023.446-.063.66-.035 1.862.245 3.74.804 5.578.69 2.94-.185 5.908.116 8.834-.9 2.987-1.04 6.216-1.32 9.177-2.557.884-.37 1.962-.372 2.744-.87 1.222-.775 2.546-.945 3.884-1.264 1.461-.347 2.878-.922 4.267-1.508.691-.292.674-1.139.204-1.459-.987-.674-2.082-1.313-3.226-1.603-1.466-.374-3.02-.442-4.542-.543-1.013-.067-1.645-.72-1.629-1.489.011-.483.844-1.157 1.443-1.383 2.433-.916 4.76-.022 7.104.594 1.36.358 2.455 1.303 4.037 1.275 1.915-.033 3.85.425 5.758.767 1.308.234 1.295.27 1.359-1.12.091-1.97.287-3.933.378-5.902.071-1.543.376-3.121-.58-4.552-1.246-1.862-2.445-3.755-3.695-5.615-.125-.186-.454-.29-.705-.326-1.432-.214-3.003-.096-4.271-.66-1.684-.75-3.317-.965-5.083-.835-.479.036-.966-.064-1.45-.085-1.367-.06-2.736-.108-4.103-.17-1.066-.048-2.178.068-3.185-.201-2.02-.54-4.05-.535-6.101-.557-2.91-.03-5.82-.137-8.73-.22-2.163-.063-4.324-.158-6.486-.207-3.29-.073-6.584-.067-9.87-.213-.76-.034-1.754-.342-2.186-.886-.64-.805-1.413-.675-2.109-.656-.305.008-.69.766-.857 1.247-.177.51-.158 1.094-.192 1.648-.07 1.127-.764 1.747-1.781 1.772-1.447.036-2.905-.095-4.346-.258-.438-.049-.882-.382-1.25-.676-1.331-1.069-2.358-2.571-4.217-2.882-.212-.035-.396-.247-.634-.405.767-.788 1.502-.942 2.282-.242.796-1.146.708-2.275-.208-2.314-1.576-.067-1.339-1.07-1.283-2.005.062-1.066 1.513-2.065 2.48-1.882 1.246.235 2.504.317 3.748-.159.397-.151.878-.094 1.322-.109.47-.016.942-.003 1.383-.003.334-1.124-.124-1.954-.989-2.16-1.015-.24-1.867-.679-2.792-1.094-1.557-.698-3.303-1.102-5.01-1.316-4.304-.54-8.587-1.645-12.987-.663-1.343.3-2.475-.162-3.183-1.479-.174-.323-.602-.58-.969-.717-1.264-.475-1.716-1.637-2.147-2.69-.6-1.471-.94-3.049-1.485-4.897-.118.516-.156.767-.233 1.005-.233.726-.345 1.548-.777 2.13-.237.32-1.045.352-1.553.265-.212-.036-.36-.71-.454-1.112-.203-.857-.353-1.727-.524-2.591zm97.59 44.951c-.633.089-1.066.116-1.482.216-.487.118-1.22.158-1.393.478-.675 1.242-1.773 1.374-2.908 1.452l-.366.025c-.565.04-1.409.41-1.15-.814.02-.094-.49-.39-.777-.436-.354-.058-.793-.06-1.091.104-.544.3-1.114.665-1.455 1.156-.12.171.407.79.636 1.205.133.243.425.572.353.716-.116.232-.455.392-.733.494-.729.267-1.53.385-2.202.748-1.02.553-2.078.838-3.2 1.113-2.021.496-3.974 1.278-5.939 1.987-.724.262-1.368.772-2.103.97-2.166.583-4.363 1.048-6.537 1.603-.676.172-1.301.632-1.977.704-2.92.313-5.845.653-8.776.737-1.804.053-3.617-.424-5.433-.505a83.88 83.88 0 0 0-6.913-.015c-.593.023-1.156.568-1.754.821-.567.24-1.15.514-1.749.584-.496.058-1.032-.273-1.536-.235-2.333.175-2.655-.048-2.756 2.414-.051 1.257.184 2.536.047 3.779-.25 2.289 1.058 4.145 1.567 6.215.496 2.021 1.51 3.91 2.1 5.916.616 2.095 1.015 4.255 1.473 6.394.356 1.664.567 3.364 1.005 5.004.458 1.717-.04 3.739 1.56 5.114.125.109.21.33.216.503.052 1.73.459 3.2 1.675 4.635 1.146 1.351 1.704 3.21 2.468 4.87.176.382.126.865.203 1.297.237 1.344.4 2.708.75 4.023.56 2.103 1.289 4.162 1.838 6.268.095.364-.257 1.14-.56 1.236-.356.114-1.054-.178-1.3-.516-.546-.75-1.033-1.598-1.311-2.48-.675-2.14-1.198-4.327-1.82-6.484a76.243 76.243 0 0 0-1.384-4.33c-.076-.213-.53-.446-.762-.404-.214.038-.47.414-.516.675-.062.344.02.731.113 1.08.31 1.184.65 2.36.985 3.537.058.205.146.4.223.6.298.768.662 1.518.881 2.308.361 1.298.45 2.7.976 3.918.858 1.985 2.262 3.63 3.862 5.106.393.362.59.938.878 1.415l.048.084c.446.786.706 1.866 1.807 1.864 2.323-.004 4.616-.119 6.76-1.344 1.488-.852 3.194-1.32 4.792-1.987 1.651-.69 3.453-1.178 4.885-2.185 1.4-.985 2.88-1.77 4.363-2.563 1.186-.634 2.462-1.097 3.693-1.648.338-.152.705-.292.973-.533.764-.684 1.48-1.421 2.22-2.133 2.195-2.108 4.677-3.88 6.854-6.031 1.078-1.065 1.513-2.411 2.433-3.52 1.483-1.79 2.446-4.034 3.484-6.156.51-1.044.743-2.234 1.02-3.378.661-2.731 1.392-5.454 1.865-8.22.306-1.786.089-3.656.324-5.46.2-1.54 1.004-3.033 1.03-4.556.071-4.327.808-8.631.43-12.97-.025-.296-.014-.596-.033-.894-.203-3.078-.656-6.127-.417-9.248.11-1.433.48-3.072-.456-4.323zM91.748 49.952c-.184-.006-.368.052-.554.064-1.77.11-3.54.248-5.313.314-1.293.048-2.6-.147-3.785.638-.308.205-.79.194-1.193.202-1.64.03-3.299-.11-4.92.075-2.12.24-4.287.176-6.309 1.19-1.55.777-3.272 1.21-4.911 1.812-.237.087-.425.306-.66.403-.705.29-1.418.562-2.136.819-.408.146-.883.168-1.239.39-.58.36-1.073.858-1.627 1.264-.738.541-1.506 1.04-2.247 1.577-1.028.743-1.943 1.798-3.086 2.183-1.513.509-2.698 1.364-3.846 2.353-.63.542-1.157 1.202-1.787 1.744-.466.401-1.049.664-1.534 1.046-.925.731-1.823 1.498-2.724 2.261a256.2 256.2 0 0 0-3.364 2.891c-.16.14-.223.386-.355.565-.366.5-.755.984-1.116 1.488-.29.404-.56.822-.82 1.247-.19.313-.33.657-.523.969-.319.514-.66 1.013-.993 1.518-.472.72-.967 1.425-1.41 2.162-.279.461-.556.948-.702 1.46-.494 1.727-.922 3.472-1.392 5.206-.076.28-.245.533-.364.803-.26.594-.565 1.174-.767 1.787-.572 1.743-.036 3.815-1.677 5.28-.239.212-.025 1.465.333 1.701.734.484.875-.409 1.173-.892.277-.45.646-.844.989-1.25.261-.311.666-.56.792-.913.227-.636.578-.625 1.02-.347.42.264.796.596 1.194.9-1.268 1.535-1.522 3.447-2.832 4.84-.698.74-.822 2.015-1.224 3.042-.304.78-.73 1.524-.94 2.326-.414 1.578-.68 3.195-1.078 4.778-.318 1.265-.881 2.482-1.083 3.76-.236 1.493-.188 3.031-.294 4.548-.011.15-.225.297-.36.43-.52.504-.702 3.249-.12 3.58.96.547.78 1.243.617 2.067-.071.358.078.776.189 1.149.144.487.379.948.52 1.437.309 1.065.571 2.143.876 3.21.22.774.446 1.55.73 2.302.27.712.62 1.393.932 2.09.162.362.44.725.449 1.092.028 1.326-.195 2.65.729 3.844.39.502.602 1.22.686 1.868.26 1.99.431 3.991.615 5.99.188 2.041.366 4.084.518 6.128.072.956-.26 2.133.186 2.827.672 1.044.455 2.145.792 3.173.127.387.257.775.419 1.149.258.597.558 1.176.816 1.774.51 1.185.909 2.434 1.55 3.542.283.487.362.684.145 1.225-.23.572-.362 1.568-.041 1.898.661.68.78 1.366.81 2.208.019.486.193.981.374 1.442.25.635.815 1.24.82 1.861.015 2.205 1.21 3.602 2.861 4.784 1.254.898 1.478 1.029.563 2.61-.099.17-.083.407-.117.594 1.107.544 1.877.188 2.574-.658.422-.512.951-.946 1.474-1.362 1.155-.919 2.336-1.804 3.497-2.695-.876-1.261-.775-2.458-.117-3.65a72.93 72.93 0 0 1 1.517-2.613c.29-.475.6-.944.953-1.372a81.028 81.028 0 0 1 2.089-2.395c.194-.217.436-.391.653-.588 1.388-1.26 2.78-2.516 4.16-3.784.799-.732 1.464-1.735 2.397-2.167 1.427-.66 2.144-1.952 3.209-2.92.187-.17.283-.669.169-.877-.107-.196-.582-.344-.837-.28-1.12.28-2.285.51-3.313 1.006-2.81 1.356-5.56 2.839-8.334 4.269-.298.154-.592.391-.905.423-.663.067-1.527.446-1.856-.468-.276-.771-.074-1.571.708-2.031.402-.237.892-.32 1.321-.52a31.472 31.472 0 0 0 1.792-.912c.697-.378 1.363-.818 2.077-1.158.717-.34 1.525-.507 2.204-.903.842-.49 1.573-1.094 2.662-.656.246.1.67-.224 1.005-.369 1.063-.463 2.133-.914 3.18-1.41.423-.2 1.142-.53 1.127-.759-.06-.86.594-1.045.988-1.53.37-.456.661-1.49.404-1.835-.524-.703-1.19.008-1.711.383-.227.164-.321.499-.525.707-.226.23-.48.482-.77.589a75.531 75.531 0 0 1-3.316 1.112c-1.84.58-3.653 1.379-5.538 1.64-1.724.239-3.164.94-4.641 1.688-.2.1-.473.306-.605.242-.536-.26-1.086-.547-1.51-.951-.149-.144-.06-.876.104-.955 1.23-.588 2.48-1.162 3.776-1.58 1.3-.418 2.719-.5 3.98-.998 2.686-1.06 5.327-2.245 7.94-3.478 1.267-.598 2.585-1.251 3.593-2.188.94-.874 1.75-2.076 1.27-3.8-.89.741-1.582 1.458-2.4 1.973-2.844 1.79-5.697 3.57-8.617 5.227-1.381.784-2.906 1.335-4.405 1.88-.405.147-.956-.108-1.728-.22 1.549-1.576 2.571-3.15 4.676-3.223.443-.016.88-.378 1.31-.6.635-.33 1.26-.678 1.893-1.013.164-.087.36-.126.503-.237 1.368-1.06 2.663-2.229 4.106-3.172 1.827-1.195 3.783-2.192 5.657-3.319.316-.19.498-.602.741-.911l-.212-.316c-.436.12-.917.16-1.3.374-1.065.6-2.066 1.315-3.137 1.905-1.765.974-3.576 1.862-5.345 2.83-1.308.716-2.495 1.85-3.883 2.182-2.838.678-5.178 2.19-7.537 3.726-.646.42-1.19.711-1.677-.069-.428-.684-.008-1.268.519-1.623 1.165-.788 2.39-1.489 3.601-2.207.831-.494 1.688-.945 2.52-1.438 1.141-.676 2.221-1.479 3.417-2.037 1.879-.879 3.819-1.63 5.756-2.377a238.542 238.542 0 0 1 7.019-2.57c.483-.17 1.043-.121 1.855-.2l.638-2.435-.34-.298c-8.028 3.6-15.96 7.399-23.801 11.606-.01-.529-.05-1.186.244-1.411 1.59-1.224 3.197-2.45 4.923-3.464 1.684-.99 3.533-1.696 5.282-2.582 1.19-.605 2.295-1.387 3.504-1.947 3.561-1.653 7.155-3.235 10.694-4.826v-1.662c-7.857 2.125-14.331 6.871-21.272 10.663-1.273-1.31-1.13-1.986.491-2.548.268-.093.498-.298.743-.457 1.25-.818 2.46-1.71 3.765-2.434.945-.524 2.045-.76 3.02-1.239 1.537-.756 2.987-1.701 4.552-2.39 1.197-.528 2.515-.782 3.778-1.162.14-.043.268-.124.406-.178 1.195-.473 2.356-1.139 3.597-1.364 1.316-.239 2.005-.894 2.277-2.081.118-.517.186-1.488.017-1.551-.622-.23-1.43-.382-2.028-.17-1.367.483-2.643 1.217-3.97 1.817-2.775 1.253-5.561 2.48-8.336 3.733-.59.267-1.144.615-1.726.904-2.502 1.243-5.018 2.459-7.506 3.73-.57.29-.857.163-1.104-.355-.22-.463-.405-.82.277-1.144 1.606-.76 3.18-1.595 4.744-2.443 1.253-.68 2.447-1.472 3.713-2.125 1.502-.776 3.044-1.48 4.587-2.174 1.853-.834 3.699-1.697 5.597-2.415 1.705-.645 3.482-1.098 5.215-1.672.244-.081.42-.368.808-.727-.545-.048-.824-.153-1.042-.079-2.51.858-5.26.84-7.64 2.206-1.047.6-2.267.887-3.386 1.37-2.165.933-4.314 1.902-6.468 2.861-1.249.556-2.495 1.12-3.796 1.707l-.638-1.404c.67-.58 1.176-1.214 1.834-1.549 1.601-.813 3.275-1.48 4.914-2.22.768-.346 1.513-.746 2.287-1.077 2.148-.92 4.593-.948 6.638-2.189.119-.072.285-.155.403-.126 1.627.403 3.07-.34 4.557-.753.328-.092.564-.52 1.045-.99-.613-.054-.867-.12-1.11-.09-2.072.26-4.142.533-6.212.812-.498.067-1.011.105-1.48.265-1.025.348-1.996.951-3.042 1.122-2.984.486-5.924 1.027-8.57 2.606-1.477.882-2.205.77-3.447-.418-.481-.46-.374-1.177.244-1.393 1.452-.508 2.962-.876 4.362-1.497a18.903 18.903 0 0 1 5.888-1.542c.206-.02.54-.138.576-.273.254-.97 1.04-.796 1.689-.786 1.537.022 3.007-.134 4.502-.623 1.52-.497 3.165-.614 4.758-.877.21-.034.448.023.66.084 1.517.432 2.5-.66 3.63-1.296.143-.081.151-.461.163-.706.057-1.113.033-2.233.15-3.34.171-1.621.423-3.235.672-4.848.122-.788-.126-1.364-.75-1.853-.43-.336-.86-.722-1.146-1.177-.33-.527-.521-1.147-.743-1.74-.462-1.236-1.173-2.456-1.294-3.728-.195-2.062.002-4.16.036-6.242.042-2.562.074-5.125.14-7.686.016-.63.05-1.285.238-1.877.744-2.336 1.025-4.707 1.011-7.161v-.203c.006-1.295.137-2.731.75-3.782.597-1.026 1.023-1.979 1.212-3.127.314-1.901 2.347-2.722 3.93-1.613 1.749 1.224 3.32 2.608 4.38 4.532.472.855.657 1.666.65 2.626-.005.705.274 1.423.487 2.117.343 1.122.83 2.208 1.08 3.349.232 1.064.48 1.276 1.559 1.198 2.08-.15 4.167-.23 6.253-.263 1.113-.018 2.325-.133 3.322.246 1.524.58 3.052.662 4.601.628 2.295-.051 4.202 1.101 6.244 1.833.618.221 1.235.503 1.774.872 1.248.856 2.453 1.775 3.662 2.687.245.186.428.454.653.7l-1.117.997c.551.587 1.165 1.072 1.557 1.696.7 1.112 1.233 2.327 1.912 3.453.159.263.607.437.946.487.735.107 1.486.142 2.23.144 4.356.012 8.712-.025 13.067.017 3.129.03 6.26.094 9.383.255 4.718.242 9.433.547 14.143.9 1.653.124 3.403-.857 4.967.408.09.072.293-.014.44.007.873.129 1.747.263 2.618.405.471.076.938.232 1.41.24.298.005.836-.17.852-.31.035-.319-.095-.756-.32-.985-.638-.65-1.386-1.192-2.039-1.83-1.032-1.009-1.992-2.094-3.039-3.088-1.367-1.298-2.54-2.81-4.262-3.73-.446-.238-.66-.889-1.022-1.315-.229-.268-.52-.494-.812-.696-.395-.273-.865-.45-1.22-.762a377.389 377.389 0 0 1-5.165-4.62c-.566-.513-1.034-1.146-1.638-1.602-1.337-1.01-2.731-1.944-4.104-2.907-.294-.207-.606-.39-.89-.609-1.438-1.115-2.86-2.252-4.308-3.356-.893-.682-1.838-1.298-2.729-1.984-1.806-1.39-3.584-2.819-5.388-4.212-1.14-.88-2.587-1.522-3.39-2.635-.999-1.381-2.725-1.52-3.732-2.805-.615-.784-1.568-1.393-2.49-1.826-1.274-.598-2.661-.957-4-1.417-.246-.085-.5-.148-.74-.243-2.97-1.168-5.974-2.177-9.186-2.488-1.996-.194-3.966-.697-5.963-.83-3.788-.253-7.587-.34-11.382-.49zM66.044 161.617c-1.034-.405-1.676-.212-2.304.413-.577.576-1.262 1.057-1.946 1.51-3.637 2.404-6.332 5.62-8.258 9.508.417.726.966.805 1.654.366.594-.38 1.245-.676 1.807-1.094 1.463-1.087 2.854-2.273 4.342-3.321 1.247-.878 2.61-1.59 3.885-2.43.672-.442 1.034-1.107 1.126-1.876-.57.341-1.292.913-1.4.814-.628-.576-.362-1.271.059-1.898.124-.186.304-.34.4-.538.223-.456.41-.929.635-1.454zm-39.42-36.241-.384.177c-.388 1.903-.357 3.747.435 5.619.282.668.071 1.565.012 2.352-.055.728-.315 1.454-.29 2.173.034.955.392 1.905.376 2.854-.061 3.718.881 7.207 2.305 10.582.666 1.579.739 3.335 1.686 4.844.491.782.535 1.838.827 2.756.148.466.552.893.572 1.35.06 1.3.381 2.475 1.131 3.545.186.265.21.639.375.923.788 1.352 1.6 2.69 2.404 4.035.12-.05.238-.1.358-.148.028-.174.123-.37.075-.519-.82-2.521-.8-5.281-2.255-7.633-.455-.736-.754-1.643-.862-2.505-.363-2.907-.576-5.833-.91-8.745-.247-2.16-.54-4.318-.916-6.46-.189-1.079-.638-2.11-.914-3.179-.313-1.212-.492-2.464-.867-3.655-.245-.777-.848-1.442-1.092-2.22-.474-1.514-.769-3.084-1.22-4.607-.162-.549-.557-1.028-.846-1.54zm89.26 17.581c-.196.37-.526.729-.557 1.112-.047.572.088 1.166.197 1.741.303 1.596.208 3.244 1.06 4.768.72 1.288 1.136 2.757 1.597 4.174.148.455.026 1.11.726.942.344-.083.58-.615.891-.974-.506-1.367-.961-2.51-1.353-3.673-.553-1.642-1.552-3.15-1.384-5.015.065-.718-.046-1.487-.254-2.18-.107-.359-.603-.6-.923-.895zM6.464 113.511c-.068.156-.19.309-.197.467-.105 2.374-.498 4.783-.23 7.116.652 5.704.75 11.348-.528 16.974-.056.25-.113.54-.042.774a233.778 233.778 0 0 0 1.904 6.035c.612 1.825 1.27 3.636 1.952 5.435.135.357.477.635.724.95.222-.367.675-.769.625-1.093-.17-1.095-.402-2.211-.82-3.232-1.087-2.654-2.225-5.277-2.068-8.237.01-.183-.056-.368-.07-.552-.15-1.998-.365-3.994-.426-5.995-.096-3.125-.068-6.254-.13-9.38-.031-1.638-.167-3.274-.209-4.913-.036-1.434-.007-2.87-.007-4.305l-.478-.044zm68.77 26.433c-2.033 2.356-3.791 6.917-3.19 8.17 2.13-.979 3.889-5.383 3.19-8.17zm87.754-41.85c.537-.48 2.66.583 2.775 1.333.044.29-.165.707-.39.934-.736.738-1.129 1.573-1.192 2.629-.1 1.663-.726 2.178-2.439 2.172-.908-.003-3.133-1.586-3.461-2.531a37.834 37.834 0 0 1-.999-3.293c-.087-.349-.036-.902.187-1.11.217-.202.803-.228 1.109-.082 1.494.713 2.9 1.293 4.41-.053zm-50.316-9.507c-.37.041-.782-.01-1.102.137-2.65 1.222-3.035 5.153-.669 6.852.247.178.876.262.966.134.226-.322.293-.786.328-1.201.015-.182-.214-.378-.314-.577-.41-.825-.198-2.488.49-2.86.865-.467 1.642-.119 2.248.617.024.028.049.068.08.076.305.079.641.26.907.188.173-.048.321-.46.347-.723.121-1.238-1.654-2.652-3.28-2.643zm-11.514 3.447c.862-.117 2.113.778 1.904 1.284-.195.473-.77.79-.956.967-1.356 0-2.17-.659-1.983-1.426.086-.35.645-.773 1.035-.825zm79.953-63.05c1.05-.416 2.46.052 3.706.16.327.028.662.317.96.272 2.324-.35 3.366 1.248 4.416 2.84.403.61.382 1.104-.421 1.384-.962.334-1.764.415-2.681-.36-.752-.634-1.841-.873-2.788-1.27-.203-.085-.456-.052-.655-.14-1.215-.542-2.34-.894-3.324.49-.681.956-2.01 1.358-2.24 2.766-.084.513-.667.938-1 1.419-.202.293-.438.595-.526.928-.505 1.926-.29 2.27 1.662 2.69 2.287.492 4.586.929 6.863 1.46.842.196 1.795.349 2.151 1.368-.762.253-1.527.725-2.287.718-1.844-.017-3.697.048-5.485-.767-1.047-.477-2.298-.53-3.468-.706-.729-.11-1.844.887-2.096 1.61-.7 2.014-1.477 4-2.19 6.01-.195.548-.367 1.138-.37 1.711-.004.373.316.749.49 1.123l1.015-.741c.46 1.874 2.18 1.84 3.507 2.352.645.25 1.405.184 2.09.352 1.439.353 2.861.766 4.262 1.146-.028 1.105-.251 1.687-1.239 1.547-2.208-.315-4.417-.62-6.623-.95-.316-.046-.729-.108-.904-.321-.87-1.055-2.001-1.013-3.182-.905-.404.037-.815.003-1.222-.01-1.087-.038-1.83-.313-1.783-1.69.02-.628-.508-1.274-.837-2.025.23-.685.709-1.276 1.63-1.442.18-.032.398-.241.472-.42.516-1.256.997-2.526 1.494-3.79.867-2.207 1.662-4.447 2.625-6.611 1.07-2.407 2.296-4.746 3.454-7.114.032-.066.054-.153.108-.19 1.458-.999 2.813-2.258 4.416-2.893zM34.693 15.499c.57-.413 1.597-.554 2.267-.344.444.14.752 1.097.885 1.737.158.76-.087 1.361-1.117 1.376-.481.008-1.012.334-1.425.642-1.265.945-2.487 1.948-3.72 2.937-.226.182-.538.365-.614.61-.268.863-.869 1.151-1.682 1.426-.472.16-.744.91-1.179 1.49-.49.55-1.019 1.098-1.496 1.689-.414.512-.823 1.043-1.141 1.617-1.982 3.576-2.66 7.428-2.342 11.476.062.78.13 1.56.222 2.336.034.291.058.643.229.848 1.779 2.125 3.604 4.197 6.745 4.078.15-.006.342-.053.442.019 1.734 1.245 3.487.674 5.07-.168 1.14-.605 2.171-1.536 3.026-2.518.936-1.076 1.626-2.37 2.4-3.582.535-.835.182-2.594-.63-3.306-2-1.751-4.246-1.433-5.835.723-.783 1.062-1.696 2.043-2.65 2.955-.302.288-.972.391-1.396.28-.298-.076-.587-.635-.664-1.022-.204-1.031.009-1.896.93-2.648 1.275-1.039 2.393-2.27 3.581-3.415 1.323-1.275 2.913-1.336 4.618-.826 1.606.481 2.762 1.366 3.756 2.59.592.73 1.156 1.488 1.661 2.279.118.184.008.586-.111.833-.217.447-.564.831-.778 1.279-.314.656-.713 1.325-.802 2.023-.193 1.519-1.233 2.458-2.107 3.53-.115.14-.153.347-.273.48-1.171 1.306-2.438 2.505-4.088 3.178-.5.205-1.087.195-1.63.303-.4.08-.849.101-1.174.308-.791.504-1.467.817-2.273-.036-.22-.233-.855-.032-1.282-.118-.85-.172-1.69-.4-2.53-.617-.102-.026-.183-.166-.28-.175-2.198-.186-3.387-1.96-4.984-3.108-1.042-.749-1.058-1.895-1.24-2.882-.374-2.022-1.237-3.988-.906-6.118.04-.257-.023-.535.047-.78.577-2.026 1.182-4.045 1.758-6.071.122-.428.235-.882.222-1.32-.032-1.094.055-2.006 1.162-2.703.692-.435 1.063-1.36 1.631-2.02.451-.522.983-.974 1.48-1.455.162-.155.417-.272.482-.457.709-2.03 2.578-2.877 4.082-4.112 1.26-1.032 2.342-2.29 3.653-3.24zm111.361 1.477c.732-.858 3.06-.459 3.756.584 1.295 1.938 1.518 4.065 1.377 6.306-.06.953.113 1.903-.878 2.583-.315.216-.497.852-.478 1.284.04.875-.454 1.35-1.096 1.654-1.77.839-3.6 1.414-5.613 1.03-.829-.16-1.678-.225-2.52-.295-.684-.057-1.474 1.313-1.129 2.075.382.84.992 1.58 1.343 2.431.697 1.691 2.282 2.614 3.338 3.996.616.805 1.694 1.267 2.588 1.846.837.542 1.86.89 2.522 1.589.777.819 2.17 1.284 1.976 2.586 1.71.701 3.274 1.462 4.915 1.974 1.114.347 2.335.462 3.51.473 1.686.016 2.434-1.236 1.739-2.795-.445-.998-.999-1.948-1.498-2.923-.839-1.639-1.654-3.29-2.521-4.915-.27-.506-.676-.94-1.018-1.408-1.256-1.721-.446-3.766.5-5.08.224-.31.76-.476 1.18-.55 1.085-.19 2.186-.28 3.278-.432 1.162-.163 2.117-.619 3.036-1.453 1.55-1.405 3.278-2.63 5.03-3.782.425-.279 1.234.026 1.866.062-.074.628.076 1.449-.266 1.847-.89 1.037-1.967 1.922-3.022 2.803-.903.753-1.83 1.506-2.84 2.094-.85.495-1.835.764-2.768 1.112-.969.362-1.984.628-2.898 1.094-.245.125-.407.936-.247 1.248 1.137 2.215 2.365 4.384 3.57 6.564.14.252.37.466.46.73.225.681.431 1.373.575 2.074.096.466-.01.978.113 1.432.49 1.81-.53 4.044-2.304 4.43-1.05.228-2.211-.052-3.322-.107-.707-.034-1.414-.081-2.121-.111-1.063-.044-2.12.059-2.966-.898-.351-.398-1.047-.609-1.613-.674-1.108-.127-1.355-.604-.913-1.573.07-.153.036-.352.054-.57-2.828-.611-5.033-2.24-7.347-3.809-2.308-1.564-4.016-3.56-5.587-5.769l-.375.026c-.036.683-.12 1.369-.092 2.05.023.59.24 1.173.25 1.761.017.967-.615 1.57-1.514 1.559-1.031-.012-1.77-.636-1.781-1.565-.012-.97-.01-1.945.076-2.91.036-.403.341-.774.464-1.178.368-1.205.754-2.408 1.028-3.636.089-.399-.064-.909-.249-1.3-.44-.93-.2-1.764.298-2.535.188-.291.636-.624.933-.596.925.087 1.224-.433 1.317-1.158.117-.907.707-1.31 1.398-1.81.675-.489 1.116-1.326 1.593-2.055.668-1.02 1.351-1.966 2.368-2.727.97-.726 1.726-1.748 2.525-2.683zm-87.471 6.601c-1.858-1.668-3.507-3.565-6.265-2.86-1.01.258-1.92 1.133-2.727 1.887-.789.736-1.605 1.548-1.303 2.88.078.344-.271.809-.479 1.188-.476.871-.544 2.686-.001 2.843 1.658.48 1.223 1.52.858 2.62-.504 1.523-.074 3.003 1.353 3.587 1.823.748 3.773 1.187 4.883 1.523 3.51.04 5.422-1.13 6.637-3.454.227-.435.542-.918.525-1.368-.033-.913-.254-1.821-.418-2.727-.086-.475-.076-1.06-.353-1.39-1.189-1.408-1.212-3.383-2.71-4.729zM110.283 0c.23.35.664.705.659 1.052-.037 2.597-.008 5.21-.295 7.784-.402 3.621-1.06 7.215-1.605 10.82-.222 1.468-.026 1.706 1.676 2.016 1.423.258 1.746.028 1.966-1.365.24-1.517.796-2.85 1.61-4.09.316-.481.87-.809 1.318-1.202.219-.191.524-.329.656-.565.626-1.12 1.709-1.298 2.818-1.514.465-.09.938-.331 1.32-.62.54-.407 2.476-.41 3.176.09.15.107.283.332.429.336 1.935.05 2.905 1.419 3.862 2.8.182.264.386.562.43.865.365 2.505.753 5.009 1.015 7.525.189 1.807-.86 3.332-1.34 4.99-.465 1.606-1.54 2.716-2.467 3.961-.263.354-.773.53-1.182.765-.586.338-1.22.604-1.769.993-.634.45-1.539.306-1.903-.428-.162-.326-.22-.704-.382-1.249.444.111.742.217 1.049.255.664.084 1.099-.024 1.683-.63 1.424-1.476 1.785-3.464 2.85-5.097.453-.695.367-1.744.52-2.634.034-.206.037-.417.059-.626.073-.72.28-1.456.192-2.156-.151-1.21-.495-2.395-.739-3.594-.174-.858-.434-1.62-1.39-1.928-.222-.071-.364-.364-.577-.504-.783-.518-1.297-1.729-2.61-.822-.813.563-1.796.876-2.688 1.331-.294.15-.512.466-.813.584-2.166.849-2.757 2.79-2.887 4.733-.148 2.21.124 4.456.315 6.677.064.734.454 1.438.664 2.165.043.149-.053.338-.085.508-1.86-.338-2.492-.973-2.798-2.692-.247-1.39-.484-2.783-.825-4.15-.079-.316-.531-.694-.867-.76-.647-.125-1.378-.192-1.987-.003-.41.127-.881.695-.964 1.134-.322 1.701-.52 3.427-.722 5.148-.107.923-.108 1.858-.191 2.784-.11 1.23-.836 1.936-2.045 1.888-.244-.01-.686-.478-.668-.707.08-1.054.334-2.094.446-3.147.204-1.922.349-3.85.524-5.774.085-.936-.535-1.065-1.169-1.076l-.14-.001c-1.53.005-3.064.017-4.586.143-1.124.092-2.047-.12-2.698-1.146l-.328-.002c-.218.734-.566 1.457-.627 2.204-.132 1.596-.156 3.205-.147 4.808.009 1.408-1.027 2.033-1.88 2.832-1.35-.72-1.605-1.759-1.372-3.192.242-1.49.125-3.036.24-4.552.038-.495.314-.971.476-1.458.134-.401.389-.811.37-1.207-.154-3.118.198-6.157 1.09-9.158.301-1.018.325-2.135.363-3.21.048-1.33.7-2.329 1.586-3.202.533-.526 1.195-.468 1.435.257.262.792.38 1.667.373 2.504-.012 1.44-.057 2.898-.294 4.313-.298 1.782-.846 3.52-1.2 5.294-.193.966-.207 1.968-.303 2.954l.287.084c.147-.203.268-.434.446-.606.642-.62 1.069-1.585 2.248-.393.533.538 1.838.347 2.798.417.737.053 1.484-.03 2.225-.003.873.032 1.446-.277 1.522-1.209.15-1.819.27-3.64.44-5.457.04-.426.234-.837.357-1.255.134-.455.34-.902.388-1.365.277-2.626.45-5.265.795-7.88.158-1.196.582-2.367.985-3.514.123-.35.58-.584.883-.871zm37.121 19.685c-.898-.22-1.1.502-1.497 1.026-.363.48-.827.886-1.267 1.305-.317.303-.758.513-.986.866a104.438 104.438 0 0 0-2.544 4.192c-.46.793-.249 1.222.657 1.239.96.018 1.932-.052 2.883-.194 1.87-.28 3.537-2.308 3.411-4.206 0-.927.013-1.855-.005-2.782-.01-.565.196-1.24-.652-1.446z"/>
</svg>
