<svg xmlns="http://www.w3.org/2000/svg" viewBox="0 0 511.995 117.737">
  <path fill="#ffd900" d="M81.281 77.003c13.973-7.673 24.567-13.519 25.48-13.973 2.92-1.554 5.937-5.665 0-8.858-1.917-1.004-12.238-6.669-25.48-13.973L62.925 58.737z"/>
  <path fill="#f43249" d="m62.925 58.737-58.45 58.909c1.371.182 2.92-.182 4.747-1.186 3.834-2.098 44.476-24.294 72.06-39.453z"/>
  <path fill="#00ee76" d="M62.925 58.737 81.28 40.289S13.333 3.208 9.221 1.02C7.674.1 5.938-.172 4.385.1z"/>
  <path fill="#00d3ff" d="M62.925 58.737 4.384.101C2.008.65 0 2.749 0 7.04v103.664c0 3.93 1.554 6.76 4.474 7.032z"/>
  <path fill="#808285" d="M253.533 47.044c-10.502 0-19.179 8.127-19.179 19.27 0 11.052 8.586 19.27 19.18 19.27 10.593 0 19.178-8.127 19.178-19.27 0-11.143-8.585-19.27-19.179-19.27zm0 30.872c-5.755 0-10.775-4.842-10.775-11.688 0-6.941 5.024-11.688 10.775-11.688s10.775 4.747 10.775 11.688c0 6.846-5.024 11.688-10.775 11.688zm-41.737-30.872c-10.594 0-19.18 8.127-19.18 19.27 0 11.052 8.586 19.27 19.18 19.27 10.593 0 19.179-8.127 19.179-19.27 0-11.143-8.586-19.27-19.18-19.27zm0 30.872c-5.756 0-10.775-4.842-10.775-11.688 0-6.941 5.024-11.688 10.775-11.688 5.755 0 10.775 4.747 10.775 11.688 0 6.846-4.934 11.688-10.775 11.688zm-49.592-24.935v8.127h19.36c-.55 4.566-2.098 7.945-4.383 10.23-2.83 2.83-7.214 5.937-14.977 5.937-11.966 0-21.187-9.68-21.187-21.645s9.226-21.828 21.187-21.828c6.482 0 11.143 2.558 14.613 5.847l5.751-5.756c-4.842-4.656-11.324-8.217-20.364-8.217-16.35 0-30.05 13.423-30.05 29.772 0 16.35 13.7 29.773 30.05 29.773 8.858 0 15.436-2.921 20.732-8.404 5.388-5.388 7.032-12.97 7.032-19.088 0-1.917-.181-3.653-.458-5.115zm202.933 6.301c-1.554-4.293-6.483-12.238-16.35-12.238-9.866 0-17.993 7.764-17.993 19.27 0 10.775 8.127 19.27 18.907 19.27 8.767 0 13.791-5.388 15.89-8.495l-6.482-4.383c-2.194 3.198-5.115 5.296-9.408 5.296-4.293 0-7.305-1.917-9.226-5.846l25.48-10.684zm-25.939 6.487c-.181-7.4 5.756-11.234 9.953-11.234 3.38 0 6.12 1.644 7.123 4.111zm-20.732 18.538h8.404V27.865h-8.404zm-13.696-32.97h-.273c-1.917-2.285-5.478-4.293-10.048-4.293-9.59 0-18.266 8.495-18.266 19.27s8.767 19.18 18.266 19.18c4.565 0 8.127-2.009 10.048-4.385h.273v2.74c0 7.4-3.93 11.324-10.23 11.324-5.115 0-8.313-3.743-9.59-6.85l-7.304 3.107c2.098 5.115 7.672 11.416 16.894 11.416 9.862 0 18.175-5.846 18.175-20.001V48.23h-7.945zm-9.59 26.579c-5.755 0-10.593-4.842-10.593-11.597s4.842-11.689 10.593-11.689c5.665 0 10.23 4.934 10.23 11.689-.005 6.664-4.57 11.597-10.23 11.597zm109.137-50.05h-20.092v56.441h8.404V62.934h11.688c9.317 0 18.448-6.76 18.448-17.534 0-10.775-9.131-17.535-18.448-17.535zm.272 27.219h-11.874V35.719h11.874c6.21 0 9.863 5.206 9.863 9.68-.087 4.384-3.648 9.686-9.863 9.686zm51.696-8.132c-6.028 0-12.33 2.649-14.887 8.677l7.4 3.107c1.645-3.107 4.566-4.111 7.673-4.111 4.384 0 8.767 2.648 8.858 7.304v.55c-1.554-.913-4.747-2.194-8.767-2.194-8.036 0-16.168 4.475-16.168 12.697 0 7.581 6.578 12.42 13.883 12.42 5.664 0 8.767-2.558 10.684-5.57h.273v4.384h8.126V62.57c-.09-9.953-7.486-15.618-17.075-15.618zm-1.004 30.872c-2.74 0-6.578-1.372-6.578-4.747 0-4.384 4.747-6.028 8.858-6.028 3.652 0 5.388.822 7.673 1.917-.64 5.206-5.115 8.858-9.953 8.858zm47.398-29.59-9.59 24.384h-.273l-9.952-24.385h-9.04L488.8 82.39l-8.495 19.089h8.767l22.922-53.245zm-75.254 36.072h8.404V27.865h-8.404z"/>
</svg>
