<svg xmlns="http://www.w3.org/2000/svg" viewBox="0 0 255.999 264.519">
  <path fill="#3bab59" d="M199.061 207.635c.024 9.404 3.32 19.02 3.316 28.424-.004 9.545-3.306 18.878-3.277 28.424-47.41-.007-94.823 0-142.233-.004.023-9.384-4.418-19.037-4.422-28.42-.003-9.565 4.43-18.859 4.45-28.424 47.39.015 94.776.004 142.166 0z"/>
  <path fill="#4586f7" d="M144.203 50.84c6.586-6.573 17.1-10.035 23.61-16.682 26.975 27.141 54.064 54.176 81.103 81.261 2.436 2.508 5.406 4.816 6.357 8.355.929 2.303.645 4.812.687 7.233.004 39.657-.004 79.31.006 118.963.599 7.825-6.861 15.134-14.652 14.512-14.072 0-28.141.004-42.214 0-.057-18.949.01-37.898-.038-56.847.034-20.833.015-41.662.008-62.49-17.563-17.536-35.088-35.11-52.64-52.654-6.122-6.176-12.34-12.262-18.406-18.49 3.326-3.184 12.738-19.728 16.18-23.162z"/>
  <path fill="#fdc00d" d="M56.849 145.22c.079 20.803-.008 41.61.045 62.415-.038 18.949.019 37.895-.026 56.844-14.808-.007-29.616.004-44.424-.007-6.184-.777-11.63-5.983-12.417-12.217-.05-16.72-.015-33.442-.011-50.16 9.867-9.775 16.023-22.47 25.856-32.28 9.109-9.148 21.91-15.405 30.977-24.594z"/>
  <path fill="#ec5043" d="M127.246.026c1.224.152 2.68-.33 3.767.356 2.955.576 5.546 2.285 7.624 4.418 8.828 8.848 17.664 17.688 26.501 26.528.886.947 1.92 1.762 2.674 2.83-9.912 10.12-20.01 20.056-29.994 30.105-3.274 3.236-6.469 6.555-9.795 9.738-4.388 4.134-8.54 8.51-12.838 12.739-19.438 19.502-38.944 38.933-58.337 58.48-9.067 9.19-18.244 18.276-27.354 27.423-9.832 9.81-19.612 19.677-29.479 29.452-.034-21.434 0-42.87-.007-64.301.023-4.046-.065-8.093.075-12.136-.04-.82.576-1.467.538-2.285.573-.962 1.084-1.963 1.641-2.933 1.402-1.864 3.145-3.425 4.771-5.088C43.814 78.495 80.606 41.646 117.398 4.796c1.505-1.58 3.228-3.016 5.324-3.732 1.47-.492 2.925-1.208 4.524-1.038z"/>
</svg>
