<svg xmlns="http://www.w3.org/2000/svg" viewBox="0 0 256.001 515.603">
  <defs>
    <linearGradient id="a" x1="346.565" x2="346.565" y1="233.514" y2="32.802" gradientTransform="scale(.57385 1.7426)" gradientUnits="userSpaceOnUse">
      <stop offset="0%" stop-color="#1A73E8"/>
      <stop offset="100%" stop-color="#4285F4"/>
    </linearGradient>
  </defs>
  <path fill="#34a853" d="M256 404.228v54.076c0 31.638-25.573 57.3-57.122 57.3-31.55 0-57.124-25.633-57.124-57.3V316.726z"/>
  <path fill="url(#a)" d="M256 57.299v346.929l-114.246-87.502V178.752l93.477-77.278c13.71-11.307 20.77-27.682 20.77-44.175z" style="fill:url(#a)"/>
  <path fill="#ea4335" d="M255.971 55.307c.03.644.03 1.289.03 1.963 0 16.492-7.06 32.868-20.77 44.175l-93.477 77.278V57.299c0-18.748 8.994-35.446 22.967-45.904a38.266 38.266 0 0 1 3.076-2.138c.498-.322.966-.645 1.464-.938.908-.585 1.875-1.113 2.754-1.581l2.52-1.26 2.108-.967c.85-.351 1.7-.703 2.608-1.025.85-.322 1.757-.615 2.636-.908 1.64-.498 3.31-.967 5.039-1.318.498-.118 1.025-.205 1.581-.323l1.143-.175c.674-.118 1.347-.205 2.021-.293.791-.117 1.582-.205 2.402-.264a42.906 42.906 0 0 1 1.934-.146c.937-.03 1.904-.059 2.87-.059h.03c2.08 0 4.101.117 6.152.322.996.117 2.02.264 3.075.44.996.146 1.992.351 3.047.586.996.205 1.992.468 2.988.761.82.205 1.67.469 2.49.762 1.611.527 3.222 1.113 4.746 1.787.761.322 1.523.674 2.285 1.025a87.85 87.85 0 0 1 2.87 1.465 59.193 59.193 0 0 1 4.102 2.519c.146.117.292.205.439.293 1.435.996 2.812 2.08 4.189 3.193.674.586 1.347 1.142 2.021 1.758l.059.058c.644.615 1.289 1.23 1.933 1.875.645.645 1.29 1.318 1.904 1.963 1.26 1.347 2.402 2.783 3.486 4.247.762.996 1.465 2.05 2.139 3.076.322.498.644.967.937 1.465.586.908 1.113 1.875 1.582 2.754.352.703.908 1.845 1.26 2.519.322.703.644 1.406.937 2.109.352.85.703 1.728 1.025 2.607.323.85.616 1.758.88 2.637.38 1.26.702 2.519.995 3.75.176.585.293 1.142.381 1.728.176.82.322 1.61.469 2.402.117.644.176 1.289.263 1.933.118.791.205 1.582.264 2.402.059.645.117 1.29.147 1.934-.03.293 0 .615 0 .937z"/>
  <path fill="#fbbc04" d="M162.494 13.065a38.836 38.836 0 0 1 2.168-1.67c-13.914 10.458-22.908 27.127-22.908 45.904v121.453l-48.51 40.162c-10.605 8.817-23.436 13.065-36.237 13.065-16.434 0-32.75-7.09-44-20.828C-7 186.72-3.543 150.63 20.741 130.534z"/>
</svg>
