<svg xmlns="http://www.w3.org/2000/svg" viewBox="0 0 255.999 261.183">
  <path fill="#174ea6" d="m114.17 80.093 58.784 131.044 36.817-80.887 13.196 22.479 9.812 28.066-25.47 55.692c-7.003 15.462-19.853 24.696-34.365 24.696-14.366 0-27.104-9.06-34.16-24.252l-.213-.462-25.138-55.471-22.067-50.379zM68.48 25.231c12.968 0 24.383 8.017 30.62 21.47l.2.44 14.872 32.952-22.805 50.526L68.48 79.9l-23.105 50.854-8.88 29.072-13.865 20.989L0 130.057 37.657 47.14c6.19-13.718 17.713-21.91 30.822-21.91z"/>
  <path fill="#4285f4" d="M207.447 24.65C200.472 9.216 187.705 0 173.277 0c-14.438 0-27.215 9.216-34.18 24.668l-70.61 156.69-22.924-50.988-22.924 50.453 15.018 33.293c6.19 13.718 17.713 21.91 30.822 21.91 13.108 0 24.63-8.192 30.82-21.91l73.978-164.162 59.474 131.062L256 130.056z"/>
</svg>
