<svg viewBox="0 0 256 256" xmlns="http://www.w3.org/2000/svg">
 <defs>
  <filter id="prefix__c" x="-.028" y="-.027" width="1.056" height="1.055" color-interpolation-filters="sRGB">
   <feGaussianBlur stdDeviation="30.606"/>
  </filter>
  <filter id="prefix__d" x="-.087" y="-.087" width="1.174" height="1.174" color-interpolation-filters="sRGB">
   <feGaussianBlur stdDeviation="58.166"/>
  </filter>
  <radialGradient id="prefix__a" cx="1339.9" cy="5126.9" r="5589.9" gradientTransform="matrix(.043424 0 0 -.043424 0 256.09)" gradientUnits="userSpaceOnUse">
   <stop stop-color="#fff" stop-opacity=".1" offset="0"/>
   <stop stop-color="#fff" stop-opacity="0" offset="1"/>
  </radialGradient>
  <linearGradient id="prefix__b" x1="1479.1" x2="5346.5" y1="2779.8" y2="1405.7" gradientTransform="matrix(.043424 0 0 -.043424 0 256.09)" gradientUnits="userSpaceOnUse">
   <stop stop-color="#3e2723" stop-opacity=".2" offset="0"/>
   <stop stop-color="#3e2723" stop-opacity=".02" offset="1"/>
  </linearGradient>
 </defs>
  <circle cx="128" cy="128" r="128" fill="url(#prefix__a)"/>
  <circle cx="128" cy="128" r="128" fill="#db4437"/>
  <path d="m128 1.3964c70.4 0 127.65 56.902 128 127.3v-0.69817c-4e-5 -70.749-57.251-128-128-128-70.749 0-128 57.251-128 128v0.69817c0.34908-70.284 57.6-127.3 128-127.3z" fill="#fff" fill-opacity=".2"/>
  <path d="m128 254.6c-70.4 0-127.65-56.902-128-127.3v0.69817c0 70.749 57.251 128 128 128 70.749 0 128-57.251 128-128v-0.69817c-0.34912 70.284-57.6 127.3-128 127.3z" fill="#3e2723" fill-opacity=".2"/>
  <path d="m255.42 140.22-47.707-47.707h-19.898v28.975h-19.2l-36.538-36.538h-0.11633c-10.007-9.4255-23.156-15.127-38.866-15.127-22.691 0-42.473 13.033-52.014 32-3.9564 7.9127-6.1673 16.756-6.1673 26.182 0 9.4255 2.2109 18.269 6.1673 26.182 3.0254 6.0509 7.2145 11.52 12.102 16.175l85.221 85.221c61.79-4.9691 111.19-53.817 117.02-115.36z" fill="url(#prefix__b)"/>
  <path d="m93.091 118.92h54.458c0.81455 3.3746 1.28 6.7491 1.3963 11.055v-0.58183c0-4.7709-0.58179-8.2618-1.3963-11.869h-54.458zm0-47.709c15.244 0 28.16 5.5854 38.051 14.545l0.81455-0.81455c-10.007-9.3091-23.156-15.127-38.865-15.127-32.116 0-58.182 26.065-58.182 58.182 0 0.23271 0.11638 0.46546 0.11638 0.69817 0.34904-31.767 26.182-57.484 58.065-57.484zm0 95.651c23.389 0 33.047-16.873 33.978-28.044h-0.23275c-1.6291 11.171-11.287 26.647-33.745 26.647-20.015 0-36.189-16.407-36.655-36.655 0 0.23275-0.11638 0.46546-0.11638 0.69817 0.11638 20.596 16.524 37.353 36.771 37.353z" fill="#fff" opacity=".4"/>
  <path d="m93.091 90.647c-20.247 0-36.655 16.756-36.655 37.353 0 0.23271 0.11638 0.46546 0.11638 0.69817 0.34908-20.247 16.524-36.655 36.538-36.655 11.52 0 19.2 5.0037 23.622 9.0764l15.36-14.778c-0.23275-0.23271-0.58184-0.46546-0.81454-0.69817l-14.429 13.964c-4.5382-4.0727-12.218-8.96-23.738-8.96zm0 95.535c-31.884 0-57.716-25.716-58.065-57.484 0 0.23271-0.11638 0.46546-0.11638 0.69817 0 32.116 26.065 58.182 58.182 58.182 33.629 0 55.855-23.622 55.855-56.902v-0.81455c-0.34904 32.931-22.458 56.32-55.854 56.32zm0-48.873v1.3963h33.745c0.11638-0.46546 0.23275-1.0473 0.23275-1.3963z" fill="#3e2723" opacity=".1"/>
 <path transform="scale(.043424)" d="m3045.7 3272.4c-21.438 259.93-243.85 645.81-782.48 645.81-466.27 0-844.11-385.88-844.11-860.19s377.84-860.19 844.11-860.19c265.29 0 442.15 115.23 543.98 209.02l353.72-340.32c-233.14-214.38-535.94-348.36-897.7-348.36-739.6 0-1339.9 600.26-1339.9 1339.9s600.26 1339.9 1339.9 1339.9c774.44 0 1286.3-543.98 1286.3-1310.4 0-109.87-13.398-190.26-32.156-273.33h-1254.1v458.23h782.48z" fill="#a6554e" filter="url(#prefix__c)" opacity=".367"/>
 <path d="m127.07 137.31c-0.93092 11.287-10.589 28.044-33.978 28.044-20.247 0-36.655-16.756-36.655-37.353 0-20.596 16.407-37.353 36.655-37.353 11.52 0 19.2 5.0037 23.622 9.0764l15.36-14.778c-10.124-9.3091-23.273-15.127-38.982-15.127-32.116 0-58.182 26.065-58.182 58.182s26.065 58.182 58.182 58.182c33.629 0 55.855-23.622 55.855-56.902 0-4.7709-0.58179-8.2618-1.3963-11.869h-54.458v19.898h33.978z" fill="#eee" stroke-width=".043424"/>
 <path transform="scale(.043424)" d="m5444.2 2850.4h-576.14v-573.46h-455.55v573.46h-576.14v458.23h576.14v576.14h455.55v-576.14h576.14" fill="#a8544d" filter="url(#prefix__d)" opacity=".487"/>
 <path d="m232.73 117.41h-25.018v-24.902h-19.782v24.902h-25.018v19.898h25.018v25.018h19.782v-25.018h25.018" fill="#eee" stroke-width=".043424"/>
</svg>
