<svg xmlns="http://www.w3.org/2000/svg" viewBox="0 0 256.002 228.731">
  <path fill="#0066da" d="m19.354 196.034 11.29 19.5c2.346 4.106 5.718 7.332 9.677 9.678 11.34-14.394 19.232-25.44 23.68-33.137 4.513-7.811 10.06-20.03 16.641-36.655-17.736-2.335-31.176-3.502-40.32-3.502-8.777 0-22.217 1.167-40.322 3.502 0 4.545 1.173 9.09 3.519 13.196z"/>
  <path fill="#ea4335" d="M215.681 225.212c3.96-2.346 7.332-5.572 9.677-9.677l4.692-8.064 22.434-38.855a26.566 26.566 0 0 0 3.518-13.196c-18.21-2.335-31.625-3.502-40.247-3.502-9.266 0-22.682 1.167-40.248 3.502 6.503 16.716 11.977 28.935 16.422 36.655 4.483 7.789 12.4 18.834 23.752 33.137z"/>
  <path fill="#00832d" d="M128.001 73.311c13.12-15.845 22.162-28.064 27.125-36.655 3.997-6.918 8.396-17.964 13.196-33.137C164.363 1.173 159.818 0 155.126 0h-54.25C96.184 0 91.64 1.32 87.68 3.519c6.106 17.402 11.288 29.787 15.544 37.154 4.704 8.142 12.963 19.021 24.777 32.638z"/>
  <path fill="#2684fc" d="M175.36 155.42H80.642l-40.32 69.792c3.958 2.346 8.503 3.519 13.195 3.519h148.968c4.692 0 9.238-1.32 13.196-3.52z"/>
  <path fill="#00ac47" d="M128.001 73.311 87.681 3.52c-3.96 2.346-7.332 5.571-9.678 9.677L3.519 142.224A26.567 26.567 0 0 0 0 155.42h80.642z"/>
  <path fill="#ffba00" d="m215.242 77.71-37.243-64.514c-2.345-4.106-5.718-7.331-9.677-9.677l-40.32 69.792 47.358 82.109h80.496c0-4.546-1.173-9.09-3.519-13.196z"/>
</svg>
