<svg xmlns="http://www.w3.org/2000/svg" viewBox="0 0 255.997 215.33">
  <path fill="#ea4335" d="M55.577.519c14.387-1.866 29.336 1.337 41.649 9.013 6.95 4.097 12.51 10.027 18.211 15.641 4.135 4.048 8.227 8.145 12.373 12.183l.153.42c-3.097 3.049-6.611 9.146-10.543 18.292-8.246 2.9-13.873 5.829-16.882 8.784-6.716-6.465-13.214-13.159-19.903-19.657-6.361-5.957-15.974-8.358-24.305-5.624-9.487 2.667-16.727 11.74-17.229 21.588-.327 5.123 1.01 10.327 3.781 14.648 1.724 2.783 4.245 4.905 6.503 7.229 5.429 5.456 10.988 10.786 16.335 16.318-2.856 2.806-6.236 8.237-10.143 16.294-8.309 3.938-14.073 7.52-17.294 10.744-7.218-6.787-14.12-13.94-21.272-20.802C8.495 96.73 2.8 85.235.835 73.107-1.325 60.095.726 46.396 6.75 34.65c5.058-9.848 12.712-18.402 22.025-24.41C36.87 5.15 46.04 1.584 55.577.52z"/>
  <path fill="#34a853" d="m207.364 109.294 10.558 17.158-89.839 88.878-62.32-61.654 11.96-16.83 15.64-10.416 34.72 34.35 62.408-61.508z"/>
  <path fill="#fbbc05" d="m128.083 92.169-62.32 61.507-27.48-27.284 62.31-61.48 15.696 8.491z"/>
  <path fill="#4285f4" d="M203.333.895c18.288 3.1 35.108 14.518 44.328 30.672 10.502 17.747 11.075 40.776 1.756 59.14-3.862 7.888-9.76 14.544-16.04 20.595-5.21 4.98-10.158 10.295-15.455 15.15-9.166-9.034-18.342-18.064-27.431-27.18 6.476-6.541 13.055-12.974 19.553-19.493 4.19-4.234 6.814-10.039 7.027-16.012.289-6.782-2.39-13.661-7.305-18.364-5.009-4.741-12.025-7.436-18.932-6.864-5.94.284-11.675 2.98-15.865 7.18-15.636 15.472-31.233 30.988-46.886 46.45-9.203-9.046-18.418-18.08-27.49-27.257a.54.54 0 0 0-.055-.06c9.165-9.002 18.27-18.064 27.425-27.076 6.634-6.536 13.247-13.1 19.886-19.64 8.598-8.637 19.935-14.295 31.78-16.891 7.806-1.468 15.859-1.632 23.704-.35z"/>
</svg>
