<svg xmlns="http://www.w3.org/2000/svg" viewBox="0 0 255.387 272.091">
  <path fill="#1476c6" d="M99.3 122.149C83.794 100.79 62.29 82.066 37.86 69.047c-3.657-2.048-7.9-3.072-12.141-3.072-9.509 0-18.14 5.12-22.675 13.604-6.729 12.435-1.901 28.087 10.533 34.67 37.595 20.188 61.879 58.514 64.804 102.985v-.146c-.438-4.974.44-9.801 2.634-14.336.292-.585.731-1.317 1.17-2.048a124.171 124.171 0 0 0 17.993-64.366c0-4.827-.439-9.508-.878-14.19"/>
  <path fill="#47ae33" d="M248.22 73.874a277.44 277.44 0 0 0-20.042-57.636C223.497 6.437 213.403 0 202.578 0c-4.242 0-8.338.878-12.142 2.78-14.19 6.729-20.187 23.698-13.458 37.741 14.336 30.428 21.504 62.464 21.504 95.817 0 33.353-7.168 65.39-21.211 95.232-.147.44-2.634 5.705-2.634 11.85 0 1.755.147 4.242.732 6.582 1.902 8.046 7.022 15.36 15.506 19.31 3.804 1.755 7.9 2.78 12.142 2.78 10.386 0 19.895-5.706 24.868-14.775 5.706-10.68 11.41-24.576 16.384-42.57a212.608 212.608 0 0 0 4.096-15.945c4.535-20.333 7.022-41.106 7.022-62.464-.146-21.065-2.633-42.276-7.168-62.464"/>
  <path fill="#ed114c" d="M128.411 44.178c-.439-.877-1.024-1.609-1.609-2.34-1.902-2.487-4.096-4.535-6.73-6.144-4.241-2.78-9.361-4.389-14.628-4.389-4.388 0-6.583.585-9.655 1.756-3.218 1.316-6.582 3.072-9.654 6.29s-4.828 6.436-6.144 9.947c-2.634 6.876-2.195 15.8 2.194 23.113 9.362 15.068 14.921 32.33 16.969 50.03.585 4.681.878 9.509.878 14.19 0 22.82-6.144 45.056-17.993 64.366-.44.731-.732 1.316-1.17 2.048-2.341 4.534-3.073 9.654-2.634 14.482.732 8.192 5.266 15.945 12.873 20.626 1.902 1.17 4.096 2.048 6.144 2.78 2.487.731 5.12 1.17 7.753 1.17 9.509 0 18.14-4.828 23.114-13.02 14.92-24.43 23.552-52.224 25.453-80.75.293-3.803.44-7.752.44-11.556.145-33.06-8.778-64.95-25.6-92.599"/>
  <path fill="#fbbf16" d="M177.124 231.57c14.19-29.842 21.358-61.879 21.358-95.232 0-11.41-.731-19.748-1.317-25.16-18.578-29.697-45.494-56.32-77.092-75.63 0 0 .731.438.731.585 2.195 1.609 3.95 3.218 5.998 5.705.439.585 1.17 1.463 1.61 2.34 16.822 27.795 25.6 59.539 25.6 92.16 0 3.95-.147 7.753-.44 11.557 13.459 25.6 20.773 54.71 20.773 85.284v9.216c.146-3.218.878-6.582 2.048-9.508.439-.439.585-.878.731-1.317"/>
</svg>
