<svg xmlns="http://www.w3.org/2000/svg" viewBox="0 0 256 124.192">
  <path fill="#fabc05" d="M184.315 67.704c13.469-7.736 26.902-15.535 40.417-23.19 12.828-7.269 27.92-.566 30.829 13.578 1.683 8.182-1.97 17.021-9.357 21.326-24.218 14.113-48.471 28.17-72.845 42.012-7.544 4.284-15.315 3.496-22.19-1.754-6.984-5.33-9.185-12.682-7.547-21.239 1.87-6.514 6.15-10.869 11.987-14.127 9.65-5.386 19.145-11.056 28.706-16.606"/>
  <path fill="#109d58" d="M194.203 62.079c-13.435-7.796-26.904-15.531-40.292-23.406-12.709-7.476-14.449-23.898-3.655-33.49 6.244-5.547 15.725-6.804 23.147-2.559 24.332 13.917 48.632 27.893 72.806 42.08 7.482 4.391 10.684 11.516 9.577 20.095-1.125 8.712-6.39 14.294-14.62 17.155-6.577 1.638-12.488.108-18.228-3.318-9.49-5.665-19.148-11.053-28.735-16.557"/>
  <path fill="#e94436" d="M71.752 56.563c-8.621 4.898-17.247 9.787-25.86 14.7-5.037 2.874-10.02 5.846-15.083 8.672-10.203 5.695-22.325 2.357-28.11-7.674-5.521-9.572-2.348-21.982 7.478-27.718C34.202 30.52 58.289 16.599 82.463 2.833c7.414-4.221 15.106-3.69 21.962 1.357 7.236 5.327 9.605 12.823 7.98 21.61-1.008 2.127-1.61 4.62-3.12 6.295-2.454 2.725-5.244 5.334-8.35 7.25-9.612 5.927-19.44 11.505-29.183 17.218"/>
  <path fill="#4385f3" d="M61.867 62.057c8.553 5.016 17.1 10.043 25.661 15.045 5.007 2.926 10.072 5.755 15.051 8.726 10.034 5.99 13.205 18.156 7.41 28.181-5.53 9.568-17.863 13.026-27.744 7.383-24.157-13.795-48.256-27.693-72.264-41.746C2.618 75.336-.768 68.409.175 59.948c.995-8.931 6.302-14.73 14.725-17.717 2.345-.189 4.805-.915 7.011-.445 3.587.764 7.242 1.875 10.454 3.607 9.939 5.36 19.683 11.082 29.502 16.664"/>
</svg>
