<svg xmlns="http://www.w3.org/2000/svg" xmlns:xlink="http://www.w3.org/1999/xlink" viewBox="0 0 254.479 275.934">
  <defs>
    <radialGradient id="d" cx="33.49" cy="34.948" r="252.613" fx="33.49" fy="34.948" gradientTransform="scale(1.00018 .99982)" gradientUnits="userSpaceOnUse">
      <stop offset="0%" stop-color="#FFF"/>
      <stop offset="100%" stop-color="#FFF" stop-opacity="0"/>
    </radialGradient>
    <linearGradient id="c" x1="270.539" x2="331.072" y1="105.004" y2="136.224" gradientTransform="scale(.71816 1.39246)" gradientUnits="userSpaceOnUse">
      <stop offset="0%" stop-color="#BF360C" stop-opacity=".2"/>
      <stop offset="100%" stop-color="#BF360C" stop-opacity="0"/>
    </linearGradient>
    <filter id="b" width="1.203" height="1.189" x="-.072" y="-.073" filterUnits="objectBoundingBox">
      <feMorphology in="SourceAlpha" operator="dilate" radius="2" result="shadowSpreadOuter1"/>
      <feOffset dx="5" dy="4" in="shadowSpreadOuter1" result="shadowOffsetOuter1"/>
      <feGaussianBlur in="shadowOffsetOuter1" result="shadowBlurOuter1" stdDeviation="3"/>
      <feColorMatrix in="shadowBlurOuter1" values="0 0 0 0 0.768627451 0 0 0 0 0.489468777 0 0 0 0 0.0235294118 0 0 0 0.2 0"/>
    </filter>
    <path id="a" d="M166.575 58.558c-4.482-11.133-11.277-21.688-20.386-30.653-6.073-6.072-12.724-10.988-19.664-15.037-13.302-7.518-28.05-11.567-42.943-12 13.88.722 27.472 6.217 38.171 16.916 10.41 10.41 16.05 24.146 16.772 37.882 0 1.012.145 1.88.145 2.892s0 1.88-.145 2.892c-.433 15.615-4.771 30.218-12 42.942-10.266 17.929-26.315 32.243-45.69 40.05-10.7 4.338-22.411 6.796-34.7 6.796-16.628 0-32.244-4.482-45.69-12.145 4.048 7.085 8.964 13.736 15.037 19.664 36.146 36.147 94.704 36.147 130.851 0 6.073-6.073 10.989-12.724 15.037-19.664 13.88-24.724 15.616-54.51 5.205-80.535z"/>
  </defs>
  <path fill="#4fc3f7" d="M168.155 168.083c-10.555 10.555-24.29 16.194-38.171 16.916-.868 0-1.88.145-2.747.145-.868 0-1.88 0-2.747-.145-14.893-.433-29.64-4.482-42.943-12-7.085-4.049-13.736-8.965-19.664-15.037-9.109-9.11-15.904-19.52-20.386-30.653-10.555-26.026-8.676-55.666 5.35-80.39C18.796 62.679 0 92.753 0 127.165c0 34.411 18.796 64.485 46.846 80.39 13.447 7.663 29.062 12.145 45.69 12.145 12.29 0 24.001-2.458 34.7-6.795 19.376-7.808 35.57-21.977 45.69-40.05 7.23-12.725 11.567-27.328 12.001-42.943-.578 14.025-6.217 27.616-16.772 38.17z"/>
  <path fill="#4285f4" d="M192.59 27.11c-36.147-36.147-94.704-36.147-130.851 0-6.073 6.073-10.989 12.724-15.037 19.664-14.025 24.724-15.76 54.365-5.205 80.39 4.482 11.134 11.277 21.689 20.386 30.653 6.073 6.073 12.724 10.989 19.664 15.037 13.302 7.519 28.05 11.567 42.943 12-13.88-.722-27.472-6.361-38.171-16.916-11.278-11.133-16.917-26.026-16.917-40.773v-.145a92.02 92.02 0 0 1 12.145-45.69c4.049-7.084 8.965-13.735 15.037-19.664 9.11-9.109 19.52-15.904 30.653-20.386 26.026-10.555 55.81-8.676 80.535 5.35-4.048-6.94-9.109-13.592-15.182-19.52z"/>
  <path fill="#1a237e" d="M127.237 39.978c-11.133 4.483-21.688 11.278-30.653 20.387-6.072 6.073-10.988 12.724-15.037 19.664-8.097 14.025-12.145 29.785-12.145 45.545v.723c.144-15.47 4.193-31.086 12.145-44.967 4.049-7.084 8.965-13.735 15.037-19.664 9.11-9.109 19.52-15.904 30.653-20.386 26.026-10.555 55.81-8.676 80.535 5.35l-1.301-2.17c-24.436-13.301-53.642-14.892-79.234-4.482zM61.883 156.371c-9.109-9.109-15.904-19.52-20.386-30.652-4.483-11.134-6.796-22.845-6.796-34.557-.145 12.29 2.024 24.436 6.796 36.003 4.482 11.133 11.277 21.688 20.386 30.652 6.073 6.073 12.724 10.989 19.664 15.037 13.302 7.519 28.05 11.567 42.943 12-6.073-.288-12.146-1.59-17.93-3.758-8.674-2.025-17.06-5.206-25.013-9.688-7.085-3.904-13.736-8.964-19.664-15.037z" opacity=".2"/>
  <path fill="#ffc107" d="M227.291 61.811c-6.072-6.073-12.723-10.989-19.664-15.037-24.724-14.025-54.509-15.905-80.535-5.35-11.133 4.482-21.688 11.278-30.652 20.387-6.073 6.073-10.989 12.724-15.037 19.664a92.454 92.454 0 0 0-12.001 45.545c0-14.748 5.639-29.496 16.917-40.774 10.554-10.555 24.29-16.193 38.17-16.916 1.88-.145 3.76-.145 5.495 0 14.892.433 29.64 4.482 42.942 12 7.085 4.049 13.736 8.965 19.664 15.037 9.11 9.11 15.905 19.52 20.387 30.653 10.555 26.026 8.675 55.81-5.35 80.39 7.085-4.048 13.736-8.964 19.664-15.037 36.147-35.857 36.147-94.56 0-130.562z"/>
  <path fill="#fff" d="M69.402 128.61c0 14.748 5.639 29.64 16.917 40.919 10.554 10.554 24.29 16.193 38.17 16.916.868 0 1.88.145 2.748.145.867 0 1.88 0 2.747-.145 13.88-.723 27.472-6.362 38.171-16.916 9.687-9.688 15.182-21.978 16.628-34.557.144-1.59.289-3.325.289-4.916-.723 13.88-6.362 27.472-16.917 38.027-10.555 10.555-24.29 16.194-38.171 16.916-.868 0-1.88.145-2.747.145-.868 0-1.88 0-2.747-.145-13.88-.722-27.472-6.361-38.171-16.916-11.134-11.133-16.628-25.592-16.917-40.196v.723c0-.144 0 0 0 0z" opacity=".2"/>
  <path fill="#bf360c" d="M213.122 125.719c-4.483-11.134-11.278-21.688-20.387-30.653-6.073-6.073-12.724-10.988-19.664-15.037-13.302-7.518-28.05-11.567-42.942-12a34.838 34.838 0 0 0-5.495 0c-13.88.722-27.471 6.217-38.17 16.916-11.423 11.133-17.062 25.881-17.062 40.63v.867c.144-14.604 5.783-29.062 16.917-40.196 10.554-10.555 24.29-16.193 38.17-16.916 1.88-.145 3.76-.145 5.495 0 14.892.433 29.64 4.482 42.942 12 7.085 4.049 13.736 8.965 19.664 15.037 9.11 9.11 15.905 19.52 20.387 30.653 4.482 11.133 6.651 22.845 6.651 34.556.29-12.145-1.88-24.29-6.506-35.857zM227.291 191.072c-5.639 5.639-12 10.41-18.652 14.314-.433.723-.722 1.446-1.156 2.17 7.085-4.05 13.736-8.965 19.664-15.038 18.218-18.218 27.327-42.22 27.037-66.221.145 23.568-8.964 46.99-26.893 64.775z" opacity=".2"/>
  <path fill="#1a237e" d="M192.59 97.958c9.11 9.109 15.905 19.52 20.387 30.652 4.482 11.134 6.651 22.845 6.651 34.557.145-12.29-2.024-24.435-6.65-36.002-4.483-11.134-11.279-21.689-20.388-30.653-6.072-6.073-12.723-10.989-19.664-15.037-13.302-7.519-28.05-11.567-42.942-12 6.073.288 12.145 1.59 17.929 3.758 8.675 2.025 17.061 5.206 25.013 9.688 7.085 3.904 13.736 8.964 19.664 15.037z" opacity=".2"/>
  <path fill="#fff" d="M227.291 61.811c-6.072-6.073-12.723-10.989-19.664-15.037-4.048-7.085-8.964-13.736-15.037-19.664-36.147-36.147-94.704-36.147-130.851 0-6.073 6.073-10.989 12.724-15.037 19.664C18.796 62.679 0 92.753 0 127.164v.723C.29 94.2 18.507 64.847 45.545 48.943c-7.23 13.591-10.844 28.628-10.844 43.665.29-15.326 4.193-30.652 12-44.388 4.05-7.085 8.965-13.736 15.038-19.664 36.147-36.147 94.704-36.147 130.851 0 5.35 5.35 9.977 11.278 13.736 17.64-24.435-13.447-53.642-15.037-79.234-4.627-11.133 4.482-21.688 11.278-30.652 20.387-6.073 6.072-10.989 12.723-15.037 19.664-7.953 13.88-12.001 29.64-12.001 45.4 0-1.88.144-3.904.29-5.784 1.011-13.302 5.06-26.459 11.855-38.46 4.049-7.085 8.965-13.736 15.037-19.664 9.11-9.109 19.52-15.904 30.653-20.386 26.026-10.555 55.81-8.676 80.535 5.35 7.085 4.048 13.736 8.964 19.664 15.036 17.929 17.93 26.893 41.208 27.041 64.775.141-24.001-8.823-47.858-27.186-66.076z" opacity=".2"/>
  <use width="100%" height="100%" filter="url(#b)" transform="translate(46.549 68.607)" xlink:href="#a"/>
  <path fill="#3367d6" d="M213.122 127.165c-4.483-11.134-11.278-21.689-20.387-30.653-6.073-6.073-12.724-10.989-19.664-15.037-13.302-7.519-28.05-11.567-42.942-12 13.88.722 27.471 6.216 38.17 16.916 10.41 10.41 16.05 24.146 16.773 37.882 0 1.012.144 1.88.144 2.892s0 1.88-.144 2.891c-.434 15.616-4.772 30.219-12.001 42.943-10.266 17.929-26.315 32.243-45.69 40.05-10.699 4.338-22.41 6.796-34.7 6.796-16.628 0-32.244-4.482-45.69-12.145 4.048 7.084 8.964 13.735 15.037 19.664 36.147 36.146 94.705 36.146 130.851 0 6.073-6.073 10.99-12.724 15.038-19.664 13.88-24.725 15.615-54.51 5.205-80.535z"/>
  <path fill="#1a237e" d="M127.237 214.35c19.375-7.807 35.424-21.977 45.69-40.05 7.229-12.724 11.566-27.327 12-42.942 0-1.013.145-1.88.145-2.892v-.723 2.169c-.434 15.615-4.772 30.218-12.001 42.942-10.266 17.929-26.315 32.243-45.69 40.05-10.7 4.338-22.41 6.796-34.7 6.796-16.628 0-32.244-4.482-45.69-12.145l1.301 2.169a92.25 92.25 0 0 0 44.533 11.422c12 0 23.712-2.458 34.412-6.795z" opacity=".2"/>
  <path fill="#1a237e" d="M48.003 208.278A92.25 92.25 0 0 0 92.536 219.7c12.29 0 24.001-2.458 34.7-6.795 19.376-7.808 35.57-21.977 45.69-40.05 7.23-12.725 11.567-27.328 12.001-42.943 0 1.156-.144 2.313-.289 3.47-1.157 13.736-5.205 26.604-11.712 38.026-10.265 18.074-26.314 32.243-45.69 40.05-10.699 4.339-22.41 6.797-34.7 6.797-16.628 0-32.243-4.483-45.69-12.146C19.086 190.35.29 160.564 0 126.442v.723c0 34.411 18.796 64.485 46.846 80.39" opacity=".2"/>
  <path fill="url(#c)" d="M193.458 97.452c8.675 8.82 15.181 19.085 19.52 29.785 10.554 26.026 8.674 55.81-5.35 80.39 7.084-4.048 13.735-8.964 19.663-15.037 11.133-11.133 18.797-24.29 22.99-38.315z" style="fill:url(#c)" transform="translate(0 -.072)"/>
  <path fill="#1a237e" d="M207.627 206.11c-4.048 7.084-8.964 13.735-15.037 19.663-36.147 36.147-94.704 36.147-130.851 0a92.628 92.628 0 0 1-13.736-17.495c-.434-.29-.868-.434-1.301-.723 4.048 7.085 8.964 13.736 15.037 19.664 36.147 36.147 94.704 36.147 130.851 0 6.073-6.073 10.989-12.724 15.037-19.664 8.097-14.17 12.146-30.074 12.001-45.834-.144 15.326-4.048 30.652-12 44.388z" opacity=".2"/>
  <path fill="url(#d)" fill-opacity=".1" d="M228.014 62.606c-6.073-6.072-12.724-10.988-19.664-15.037-4.048-7.085-8.964-13.736-15.037-19.664-36.147-36.146-94.704-36.146-130.851 0-6.073 6.073-10.989 12.724-15.037 19.664C19.519 63.474.723 93.548.723 127.96c0 34.413 18.796 64.487 46.846 80.391 4.049 7.085 8.965 13.736 15.037 19.664 36.147 36.147 94.705 36.147 130.852 0 6.072-6.073 10.988-12.724 15.037-19.664 7.085-4.048 13.736-8.964 19.664-15.037 36.002-36.002 36.002-94.704-.145-130.707zm-42.22 65.354c0 31.954-25.88 57.835-57.834 57.835-31.954 0-57.835-25.881-57.835-57.835s25.881-57.835 57.835-57.835 57.835 25.881 57.835 57.835z" style="fill:url(#d)" transform="translate(-.723 -.795)"/>
</svg>
