<svg xmlns="http://www.w3.org/2000/svg" viewBox="0 0 256 256">
  <defs>
    <linearGradient id="a" x1="0" x2="223.1" y1="111.551" y2="111.551" gradientTransform="scale(1.02106 .97937)" gradientUnits="userSpaceOnUse">
      <stop offset="0%" stop-color="#246FDB"/>
      <stop offset="5.52%" stop-color="#2973DF"/>
      <stop offset="27.81%" stop-color="#377DEB"/>
      <stop offset="54.91%" stop-color="#3F83F2"/>
      <stop offset="100%" stop-color="#4285F4"/>
    </linearGradient>
  </defs>
  <path fill="#ea4335" d="M173.2 82.8c25 25 25 65.5 0 90.5-12.5 12.5-12.5 32.8 0 45.2 12.5 12.5 32.8 12.5 45.3 0 50-50 50-131 0-181z"/>
  <path fill="url(#a)" d="M218.4 37.5c-50-50-130.9-50-180.9 0s-50 131 0 181l45.3-45.2c-25-25-25-65.5 0-90.5s65.5-25 90.5 0c12.5 12.5 32.8 12.5 45.3 0 12.3-12.5 12.3-32.8-.2-45.3z" style="fill:url(#a)"/>
  <path fill="#fbbc04" d="m218.4 218.5-45.3-45.2c-25 25-65.5 25-90.5 0l-45.3 45.2c50.2 50 131.1 50 181.1 0z"/>
  <path fill="#ea4335" d="M173.2 173.3c12.5-12.5 32.7-12.5 45.2 0s12.5 32.8 0 45.3-32.7 12.5-45.2 0-12.5-32.8 0-45.3z"/>
  <path fill="#34a853" d="M37.5 173.3c12.5-12.5 32.7-12.5 45.2 0s12.5 32.8 0 45.3-32.7 12.5-45.2 0-12.5-32.8 0-45.3z"/>
</svg>
