<svg xmlns="http://www.w3.org/2000/svg" viewBox="0 0 511.604 177.044">
  <path fill="#166dee" d="m119.502 122.843-24.805 5.725c-10.064 1.562-19.08 2.947-28.615 2.947C18.206 131.515 0 96.305 0 68.723 0 35.077 25.842 3.865 70.074 3.865c9.367 0 18.382 1.383 26.53 3.637 13.012 3.645 19.082 8.153 22.898 10.755l-14.4 13.704-6.067 1.383 4.334-6.944c-5.894-5.717-16.653-16.296-37.116-16.296-27.404 0-48.047 20.822-48.047 51.17 0 32.601 23.59 63.3 61.397 63.3 11.112 0 16.825-2.245 22.029-4.335v-27.92l-26.185 1.385 13.87-7.458h36.774l-4.506 4.332c-1.224 1.038-1.39 1.395-1.738 2.773-.179 1.564-.345 6.597-.345 8.33v21.162"/>
  <path fill="#f7bf34" d="M289.847 111.576c4.15-5.524 5.189-12.419 5.189-19.155 0-15.18-7.248-44.16-28.643-44.16-5.693 0-11.386 2.246-15.523 5.871-6.729 6.034-7.943 13.626-7.943 21.048 0 17.075 8.455 45.19 29.333 45.19 6.726 0 13.629-3.274 17.587-8.794zm-21.56 13.974c-27.428 0-42.094-21.39-42.094-40.72 0-22.598 18.46-41.918 44.69-41.918 25.352 0 41.227 19.839 41.227 40.717 0 20.35-15.694 41.921-43.822 41.921z"/>
  <path fill="#d3402b" d="M196.344 111.576c4.144-5.524 5.179-12.419 5.179-19.155 0-15.18-7.248-44.16-28.64-44.16-5.69 0-11.387 2.246-15.528 5.871-6.729 6.034-7.933 13.626-7.933 21.048 0 17.075 8.45 45.19 29.33 45.19 6.729 0 13.631-3.274 17.592-8.794zm-21.567 13.974c-27.43 0-42.097-21.39-42.097-40.72 0-22.598 18.465-41.918 44.69-41.918 25.355 0 41.23 19.839 41.23 40.717 0 20.35-15.7 41.921-43.823 41.921z"/>
  <path fill="#166dee" d="M369.812 95.483c3.972-3.982 4.317-9.504 4.317-12.618 0-12.441-7.428-31.795-21.767-31.795-4.496 0-9.33 2.247-12.103 5.706-2.935 3.632-3.797 8.29-3.797 12.789 0 11.572 6.741 30.755 21.606 30.755 4.315 0 8.973-2.069 11.744-4.837zm-5.013 32.833c-1.378-.176-2.242-.176-3.965-.176-1.557 0-10.895.347-18.152 2.768-3.8 1.383-14.858 5.524-14.858 17.797 0 12.27 11.928 21.086 30.415 21.086 16.583 0 25.404-7.962 25.404-18.66 0-8.83-5.703-13.482-18.844-22.815zm12.275-76.727c3.972 3.285 12.262 10.192 12.262 23.329 0 12.784-7.257 18.842-14.514 24.538-2.247 2.242-4.837 4.667-4.837 8.473 0 3.794 2.59 5.867 4.49 7.429l6.229 4.83c7.6 6.395 14.507 12.274 14.507 24.202 0 16.24-15.726 32.654-45.443 32.654-25.06 0-37.15-11.92-37.15-24.714 0-6.224 3.103-15.024 13.31-21.082 10.703-6.564 25.225-7.424 32.999-7.952-2.423-3.109-5.187-6.389-5.187-11.744 0-2.935.87-4.668 1.73-6.74-1.906.173-3.8.344-5.531.344-18.313 0-28.684-13.655-28.684-27.125 0-7.947 3.635-16.769 11.058-23.157 9.852-8.121 21.599-9.504 30.936-9.504h35.592l-11.059 6.22z"/>
  <path fill="#009a57" d="M431.899 117.852c-5.733-.521-6.932-1.559-6.932-8.324V11.355c.032-.377.061-.76.1-1.119.693-6.07 2.428-7.108 7.806-10.236h-24.807l-13.012 6.246h13.262v.079l-.01-.059v107.078c0 3.466-.688 3.987-4.68 9.186h30.7l6.42-3.811c-2.949-.35-5.898-.522-8.847-.867"/>
  <path fill="#d3402b" d="M486.286 68.11c3.27-1.206 4.99-2.236 4.99-4.647 0-6.885-7.749-14.816-17.05-14.816-6.9 0-19.811 5.343-19.811 23.946 0 2.93.342 6.03.521 9.132zm10.512 54.44c-5.693 2.582-11.55 3.27-16.717 3.27-5.507 0-14.12-.348-22.913-6.717-12.218-8.616-17.564-23.429-17.564-36.348 0-26.696 21.708-39.786 39.444-39.786 6.2 0 12.583 1.547 17.75 4.824 8.606 5.676 10.843 13.08 12.048 17.043l-40.472 16.37s-12.383 4.884-12.305 5.17c5.264 19.336 19.217 30.482 34.52 30.482 8.787 0 15.158-3.096 21.015-6.023l-9.13 8.613c-1.89 1.033-3.786 2.242-5.676 3.101z"/>
</svg>
