<svg xmlns="http://www.w3.org/2000/svg" viewBox="0 0 256.004 283.395">
  <path fill="#f9ab00" d="M256.003 247.933a35.223 35.223 0 0 1-39.376 35.161c-18.044-2.67-31.266-18.371-30.826-36.606V36.845C185.365 18.591 198.62 2.881 216.687.24A35.221 35.221 0 0 1 256.003 35.4z"/>
  <path fill="#e37400" d="M35.101 213.193c19.386 0 35.101 15.715 35.101 35.101s-15.715 35.101-35.101 35.101S0 267.68 0 248.295c0-19.386 15.715-35.102 35.101-35.102zm92.358-106.387c-19.477 1.068-34.59 17.406-34.137 36.908v94.285c0 25.588 11.259 41.122 27.755 44.433a35.161 35.161 0 0 0 42.146-34.56V142.089a35.222 35.222 0 0 0-35.764-35.282z"/>
</svg>
