<svg xmlns="http://www.w3.org/2000/svg" viewBox="0 0 256.004 210.644">
  <path fill="#00832d" d="m203.341 155.294 5.838-49.792-5.838-48.669-34.205 18.839-24.314 29.65 24.957 28.527z"/>
  <path fill="#0066da" d="M0 150.66v42.43c0 9.688 7.864 17.554 17.554 17.554h42.43l8.786-32.059-8.786-27.925-29.11-8.786z"/>
  <path fill="#e94235" d="m30.876 68.75 29.108-8.766 8.626-27.545L59.984 0 0 59.984z"/>
  <path fill="#2684fc" d="M59.984 59.983H.001v90.696h59.983z"/>
  <path fill="#00ac47" d="M241.659 25.398 203.34 56.834v98.46l38.477 31.558c5.76 4.512 14.186.4 14.186-6.922V32.18c0-7.403-8.627-11.495-14.345-6.781"/>
  <path fill="#00ac47" d="M144.822 105.322v45.338H59.984v59.984h125.804c9.69 0 17.553-7.866 17.553-17.554v-37.796z"/>
  <path fill="#ffba00" d="M185.788 0H59.984v59.984h84.838v45.338l58.52-48.49V17.555c0-9.69-7.864-17.554-17.554-17.554"/>
</svg>
