<svg xmlns="http://www.w3.org/2000/svg" viewBox="0 0 256.001 238.128">
  <path fill="#669df6" d="M224.022 173.159h-92.959c-22.48 0-35.07 15.736-35.07 32.485 0 15.455 10.679 32.484 35.07 32.484h92.959z"/>
  <ellipse cx="224.022" cy="205.587" fill="#1a73e8" rx="31.979" ry="32.485"/>
  <path fill="#669df6" d="M128.028 86.551H35.07C12.59 86.551 0 102.288 0 119.036c0 15.456 10.678 32.485 35.07 32.485h92.958z"/>
  <ellipse cx="128.028" cy="119.036" fill="#1a73e8" rx="31.979" ry="32.485"/>
  <path fill="#669df6" d="M224.022 0h-92.959c-22.48 0-35.07 15.737-35.07 32.485 0 15.455 10.679 32.485 35.07 32.485h92.959z"/>
  <ellipse cx="224.022" cy="32.485" fill="#1a73e8" rx="31.979" ry="32.485"/>
</svg>
