<svg xmlns="http://www.w3.org/2000/svg" viewBox="0 0 512 126.918">
  <path fill="#737373" d="M94.106 35.928c-3.982-4.069-8.31-7.185-12.9-9.35-4.588-2.164-10.388-3.203-17.054-3.203-5.368 0-10.476.952-15.238 2.857-4.761 1.905-8.917 4.588-12.466 8.051-3.636 3.463-6.493 7.706-8.571 12.64-2.078 4.935-3.117 10.39-3.117 16.45 0 6.06 1.04 11.514 3.117 16.448 2.078 4.935 4.935 9.09 8.57 12.554a39.604 39.604 0 0 0 12.64 8.138c4.762 1.904 9.957 2.857 15.41 2.857 5.801 0 10.91-.78 15.238-2.424 4.329-1.645 8.051-3.896 11.168-6.667 2.078-1.904 3.982-4.242 5.627-7.012 1.645-2.857 2.944-5.974 3.896-9.437h-36.62V57.052h59.735c.347 1.386.606 3.03.866 5.108s.346 3.983.346 5.974c0 8.224-1.212 15.67-3.636 22.51-2.424 6.839-6.146 12.812-10.995 18.093-5.454 5.8-11.947 10.216-19.565 13.42-7.619 3.202-16.363 4.76-26.146 4.76-8.83 0-17.141-1.558-24.933-4.76-7.792-3.204-14.631-7.62-20.518-13.247-5.8-5.627-10.39-12.293-13.852-19.998C1.645 81.207 0 72.636 0 63.459s1.731-17.661 5.108-25.453c3.376-7.792 7.965-14.458 13.852-20.085 5.8-5.627 12.64-9.956 20.518-13.16C47.356 1.559 55.668 0 64.41 0c10.043 0 18.96 1.731 26.665 5.194 7.705 3.463 14.371 8.225 19.999 14.285zm153.496 55.754c0 10.649-3.896 19.22-11.687 25.713-7.878 6.32-17.488 9.523-28.83 9.523-10.042 0-18.96-2.944-26.664-8.83-7.705-5.888-12.986-13.94-15.93-24.068l14.89-6.147c1.04 3.636 2.425 6.926 4.243 9.87 1.818 2.943 3.896 5.453 6.32 7.531a29.633 29.633 0 0 0 8.051 4.935c2.944 1.212 6.06 1.818 9.35 1.818 7.1 0 12.986-1.818 17.488-5.54 4.502-3.637 6.753-8.572 6.753-14.632 0-5.108-1.905-9.436-5.627-13.072-3.463-3.463-10.043-6.926-19.653-10.216-9.696-3.463-15.756-5.887-18.18-7.1-12.9-6.579-19.306-16.189-19.306-29.002 0-8.917 3.55-16.535 10.648-22.855 7.273-6.32 16.103-9.523 26.665-9.523 9.264 0 17.315 2.337 24.068 7.099 6.753 4.675 11.341 10.475 13.592 17.488l-14.458 5.973c-1.385-4.502-4.069-8.31-8.051-11.254-3.983-3.03-8.917-4.502-14.631-4.502-6.147 0-11.255 1.731-15.41 5.108-4.156 3.116-6.234 7.272-6.234 12.293 0 4.156 1.645 7.792 4.935 10.822 3.636 3.03 11.514 6.666 23.548 10.822 12.294 4.155 21.124 9.35 26.405 15.41 5.108 6.06 7.705 13.506 7.705 22.336zm86.488 32.465H319.2v-11.514h-.693c-2.338 4.07-6.06 7.445-10.909 10.216-4.934 2.684-10.042 4.069-15.323 4.069-10.216 0-18.008-2.944-23.462-8.744-5.454-5.8-8.225-14.112-8.225-24.847v-52.29h15.584v51.251c.346 13.592 7.185 20.345 20.518 20.345 6.233 0 11.428-2.51 15.583-7.532 4.156-5.021 6.234-11.081 6.234-18.094v-45.97h15.583zM369.672 12.38c0 3.03-1.039 5.627-3.203 7.792-2.165 2.164-4.762 3.203-7.792 3.203-3.03 0-5.627-1.039-7.792-3.203-2.164-2.165-3.203-4.762-3.203-7.792 0-3.03 1.039-5.627 3.203-7.792 2.165-2.164 4.762-3.203 7.792-3.203 3.03 0 5.627 1.04 7.792 3.203 2.164 2.165 3.203 4.762 3.203 7.792zm-3.203 28.656v83.111h-15.584v-83.11zm47.875 84.497c-6.753 0-12.38-2.078-16.882-6.234-4.502-4.155-6.752-10.042-6.84-17.488v-46.49h-14.63V41.036h14.544V15.583h15.584v25.453h20.345v14.285H406.12v41.382c0 5.541 1.039 9.264 3.203 11.255 2.164 1.991 4.588 2.944 7.272 2.944 1.212 0 2.424-.174 3.636-.433 1.212-.26 2.251-.693 3.29-1.126l4.935 13.939c-3.896 1.471-8.658 2.25-14.112 2.25zm58.351 1.298c-12.207 0-22.25-4.155-30.214-12.553-7.878-8.398-11.86-18.96-11.86-31.686 0-12.64 3.808-23.202 11.514-31.6 7.705-8.397 17.488-12.64 29.521-12.64 12.294 0 22.163 3.983 29.436 11.948C508.364 58.264 512 69.433 512 83.804l-.173 1.731H446.55c.26 8.138 2.943 14.718 8.138 19.653 5.194 4.934 11.428 7.445 18.7 7.445 9.956 0 17.748-4.935 23.375-14.89l13.938 6.752c-3.722 7.013-8.917 12.467-15.496 16.45-6.667 3.895-14.199 5.886-22.51 5.886zM447.762 72.55h47.702c-.433-5.8-2.77-10.562-7.012-14.371-4.242-3.81-9.956-5.714-17.055-5.714-5.887 0-10.909 1.818-15.15 5.454-4.33 3.723-7.1 8.571-8.485 14.631z"/>
</svg>
