<svg xmlns="http://www.w3.org/2000/svg" viewBox="0 0 510.321 167.698">
  <path fill="#ff302f" d="m495.308 102.413 14.204 9.469c-4.61 6.79-15.636 18.44-34.699 18.44-23.672 0-41.301-18.315-41.301-41.614 0-24.793 17.816-41.613 39.308-41.613 21.616 0 32.206 17.194 35.633 26.476l1.868 4.734-55.691 23.05c4.236 8.347 10.839 12.583 20.183 12.583s15.823-4.61 20.495-11.525zM451.64 87.4l37.19-15.45c-2.055-5.17-8.16-8.845-15.449-8.845-9.282 0-22.177 8.223-21.74 24.295z"/>
  <path fill="#20b15a" d="M406.662 4.672h17.941v121.85h-17.94z"/>
  <path fill="#3686f7" d="M378.38 50.334h17.318v74.007c0 30.711-18.127 43.357-39.557 43.357-20.184 0-32.331-13.58-36.879-24.606l15.886-6.603c2.865 6.79 9.78 14.826 20.993 14.826 13.767 0 22.24-8.535 22.24-24.482v-5.98h-.624c-4.111 4.983-11.96 9.468-21.927 9.468-20.807 0-39.87-18.128-39.87-41.488 0-23.485 19.063-41.8 39.87-41.8 9.905 0 17.816 4.423 21.927 9.282h.623zm1.246 38.499c0-14.702-9.78-25.417-22.239-25.417-12.584 0-23.174 10.715-23.174 25.417 0 14.515 10.59 25.042 23.174 25.042 12.459.063 22.24-10.527 22.24-25.042z"/>
  <path fill="#ff302f" d="M217.472 88.521c0 23.984-18.688 41.613-41.613 41.613s-41.613-17.691-41.613-41.613c0-24.108 18.688-41.675 41.613-41.675s41.613 17.567 41.613 41.675zm-18.19 0c0-14.95-10.84-25.23-23.423-25.23-12.584 0-23.423 10.28-23.423 25.23 0 14.827 10.84 25.23 23.423 25.23 12.584 0 23.423-10.403 23.423-25.23z"/>
  <path fill="#ffba40" d="M308.36 88.708c0 23.984-18.688 41.613-41.612 41.613-22.925 0-41.614-17.63-41.614-41.613 0-24.108 18.689-41.613 41.614-41.613 22.924 0 41.613 17.443 41.613 41.613zm-18.252 0c0-14.95-10.84-25.23-23.423-25.23-12.583 0-23.423 10.28-23.423 25.23 0 14.826 10.84 25.23 23.423 25.23 12.646 0 23.423-10.466 23.423-25.23z"/>
  <path fill="#3686f7" d="M65.846 112.069c-26.102 0-46.535-21.056-46.535-47.158 0-26.101 20.433-47.157 46.535-47.157 14.079 0 24.357 5.544 31.957 12.646l12.522-12.521C99.735 7.725 85.593 0 65.845 0 30.09 0 0 29.154 0 64.911c0 35.758 30.089 64.912 65.846 64.912 19.311 0 33.888-6.354 45.288-18.19 11.712-11.712 15.325-28.158 15.325-41.489 0-4.173-.498-8.472-1.059-11.649H65.846v17.318h42.423c-1.246 10.84-4.672 18.253-9.718 23.299-6.105 6.167-15.76 12.957-32.705 12.957z"/>
</svg>
