<svg xmlns="http://www.w3.org/2000/svg" viewBox="0 0 254.89 347.218">
  <path fill="#f6d2a2" d="M3.278 187.966c.498 10.26 10.758 5.478 15.34 2.29 4.383-3.087 5.678-.497 6.076-6.474.299-3.984.697-7.87.498-11.854-6.674-.597-13.846.997-19.324 4.98-2.889 1.993-8.069 8.567-2.59 11.058M207.779 314.073c7.87 4.881 22.313 19.623 10.46 26.795-11.356 10.36-17.732-11.455-27.693-14.443 4.284-5.877 9.663-11.256 17.233-12.352zM66.93 330.708c-9.265 1.395-14.444 9.762-22.214 14.045-7.272 4.284-10.06-1.394-10.658-2.59-1.096-.498-.997.498-2.79-1.295-6.773-10.658 6.973-18.428 14.145-23.707 9.961-1.992 16.237 6.674 21.516 13.547zM251.508 186.67c-.498 10.26-10.758 5.48-15.34 2.292-4.383-3.088-5.678-.498-6.076-6.475-.299-3.984-.697-7.87-.498-11.854 6.674-.597 13.846.997 19.324 4.981 2.79 1.992 8.069 8.567 2.59 11.057"/>
  <path fill="#69d7e2" d="M224.314 61.56c35.562-12.551 7.77-61.261-23.209-39.745-20.32-17.432-48.311-20.62-77.696-20.62C94.62 3.486 67.228 8.765 48.103 25.5c-30.88-19.922-59.368 27.891-23.11 39.944-10.16 39.446 1.395 79.69-.2 119.832-1.493 36.06-10.956 84.37 9.065 116.744 17.034 27.692 53.69 37.554 83.873 38.65 38.55 1.394 85.267-8.07 103.994-45.423 17.93-35.561 12.949-79.888 10.658-118.238-2.291-38.75 1.992-78.095-8.069-115.45z"/>
  <path d="M254.198 180.595c-.996-2.092-2.889-4.483-4.682-5.778-4.582-3.287-10.46-5.08-16.535-5.28-.2-6.175-.399-12.949-.399-21.515v-7.77c-.1-24.504-.398-35.262-1.793-48.71-1.096-10.558-2.789-20.32-5.18-29.484 8.069-3.088 13.348-8.169 15.44-14.743 1.992-6.076.996-12.95-2.39-19.026-3.487-5.976-9.065-10.459-15.54-12.252-6.973-1.892-14.543-.498-21.815 4.383-6.474-5.478-13.945-9.662-22.313-12.85C164.15 2.092 146.917 0 123.508 0v.996l-.1-.996c-25.002 1.992-43.53 5.877-58.87 13.348-6.175 2.988-11.654 6.574-16.435 10.758-7.371-4.582-15.042-5.678-22.114-3.487-6.574 1.993-12.252 6.674-15.639 12.75-3.387 6.077-4.183 13.05-1.892 19.026 2.29 5.977 7.57 10.659 15.44 13.547-2.491 10.061-3.786 20.72-3.985 32.474-.2 11.455.299 20.619 2.092 41.338 1.295 15.44 1.793 22.512 1.992 31.079-6.774-.3-13.547 1.494-18.627 5.18-1.793 1.294-3.786 3.585-4.682 5.777-1.295 2.789-.797 5.28 1.793 6.773.398 4.782 3.088 6.973 7.172 6.575 2.988-.3 6.574-1.893 9.662-4.084a11.207 11.207 0 0 1 2.092-1.196c.299-.1.498-.199.797-.298 0 0 .598-.2.797-.3.299-.099.597-.199.797-.398-.2 4.682-.598 9.563-1.494 20.72-.997 12.55-1.495 19.423-1.694 27.093-.896 28.49 2.49 49.208 12.65 65.644 3.188 5.18 7.073 9.762 11.655 13.946-.896.597-4.682 3.386-5.877 4.283-4.184 3.187-7.072 5.877-8.766 8.865-2.191 3.885-2.191 7.77.3 11.854l.099.1.1.1c1.095 1.095 1.693 1.394 2.49 1.394H33.56c.1.199.199.299.298.498.3.498.598.896.897 1.295 2.49 2.888 5.977 3.586 10.658.797 2.49-1.295 4.284-2.79 8.069-5.977l.199-.2c6.076-5.18 9.065-7.072 13.547-7.769l1.594-.299c.597.299 1.195.498 1.892.797 14.145 5.678 30.581 8.766 47.216 9.364 21.516.796 42.235-1.893 59.767-8.268 4.681-1.694 9.064-3.686 13.248-5.877 2.59.996 4.781 3.088 8.965 7.969.199.199.199.199.299.398.199.2.199.299.298.399.2.298.498.498.698.796 3.287 3.885 5.478 5.778 7.969 6.874 3.287 1.394 6.474.697 9.761-2.291 5.778-3.586 6.176-9.165 2.391-15.54-2.69-4.482-7.371-9.164-11.754-12.152 5.18-5.08 9.662-11.157 13.149-18.03 9.562-19.125 13.248-41.438 13.049-70.126-.1-10.16-.498-19.026-1.594-35.96v-.498c.498.2.996.499 1.494.897 3.088 2.092 6.674 3.785 9.662 4.084 4.084.398 6.774-1.793 7.172-6.574 2.49-1.594 2.989-4.084 1.694-6.873zM222.52 18.129c5.977 1.594 11.157 5.778 14.344 11.356 3.188 5.578 4.084 11.854 2.291 17.432-1.892 5.877-6.673 10.558-14.144 13.348a162.04 162.04 0 0 0-5.28-15.739c2.889-2.49 4.284-5.578 1.993-9.961-2.292-4.383-6.276-4.881-10.36-3.586-2.59-3.387-5.479-6.375-8.467-9.164 6.574-4.184 13.348-5.38 19.623-3.686zM10.151 51.798c-2.092-5.38-1.395-11.754 1.793-17.333 3.188-5.578 8.367-9.96 14.543-11.754 6.375-1.892 13.248-.996 20.022 2.989a65.541 65.541 0 0 0-10.36 11.853c-5.18-2.69-10.459-3.187-13.447 2.291-3.088 5.877.498 9.563 5.578 12.352-.697 1.693-1.394 3.486-1.992 5.28-.697 2.19-1.395 4.482-1.992 6.773-7.272-2.79-12.053-7.072-14.145-12.451zm12.053 135.77c-.1 0-.697.199-.697.298-.3.1-.598.2-.897.399-.797.298-1.594.796-2.39 1.394-2.79 1.992-6.176 3.487-8.766 3.686-2.989.299-4.682-.996-4.98-4.582 2.091-.698 2.987-1.196 3.784-2.391l-1.593-1.195c-.598.797-1.196 1.095-2.989 1.693-.1 0-.1 0-.199.1-1.594-.897-1.893-2.291-.996-4.284.797-1.793 2.59-3.884 4.084-4.98 4.781-3.487 11.156-5.18 17.532-4.782 0 2.49.1 4.981 0 7.372 0 .299 0 .498-.1.797-.1 1.394-.1 1.992-.2 2.69-.298 2.888-.497 3.286-1.593 3.784zM52.286 337.88l-.199.2c-3.685 3.187-5.478 4.482-7.77 5.777-3.785 2.29-6.375 1.793-8.168-.399-.298-.298-.498-.697-.697-.996-.1-.1-.2-.299-.299-.398v-.1c.2-1.793.897-3.088 2.69-5.877.1-.1.1-.1.1-.2 1.095-1.593 1.593-2.49 2.091-3.585l-1.793-.797c-.398.897-.896 1.693-1.892 3.287-.1.1-.1.1-.1.2-1.793 2.59-2.59 4.183-2.988 5.976h-.399c-.199-.1-.498-.299-.896-.697-3.885-6.176-.797-11.455 7.969-18.03 1.095-.797 4.781-3.387 5.777-4.183.2 0 .399-.1.598-.2 5.379 4.582 11.654 8.567 18.627 11.854 0 .1.1.2.2.299-4.085.996-7.272 3.088-12.85 7.87zm167.247-10.857c3.088 5.18 2.988 9.363-.896 12.252-.3-.598-.498-1.295-.897-2.291 0-.1 0-.1-.1-.2-1.394-3.785-2.29-5.379-3.984-7.172l-1.394 1.395c1.494 1.395 2.19 2.889 3.585 6.375 0 .1 0 .1.1.2.498 1.294.797 2.091 1.096 2.788-2.59 2.192-4.881 2.59-7.272 1.495-2.092-.897-4.084-2.79-7.271-6.376-.2-.199-.399-.498-.598-.796-.1-.1-.2-.2-.299-.399-.2-.2-.2-.2-.299-.398-3.685-4.284-5.877-6.575-8.267-7.87 5.578-3.187 10.558-6.773 15.04-10.957 4.184 3.088 8.866 7.67 11.456 11.954zm1.395-32.274c-8.567 17.232-23.708 29.385-44.028 36.756-17.333 6.276-37.853 8.865-59.07 8.069-36.557-1.295-68.233-14.046-83.075-38.151-9.961-16.038-13.248-36.458-12.352-64.548.299-7.67.697-14.543 1.694-27.094 1.095-14.145 1.394-18.23 1.693-24.604.2-4.582.2-9.264.1-14.245-.2-8.765-.698-15.738-1.993-31.377-1.793-20.72-2.29-29.784-2.092-41.14.3-14.941 2.292-28.09 6.475-40.541 6.774-20.221 19.225-33.868 37.155-42.733C80.476 7.77 98.705 3.984 123.508 1.992c23.21 0 40.143 2.092 54.786 7.471 17.532 6.475 30.58 17.83 39.546 35.262 5.777 14.145 9.164 29.386 10.957 46.917 1.394 13.348 1.693 24.106 1.793 48.51v7.77c.1 12.053.299 20.52.797 28.987.199 3.287.299 4.682.797 12.55 1.095 16.935 1.494 25.7 1.593 35.86.2 28.59-3.386 50.603-12.85 69.43zm30.48-109.074c-.099 0-.199-.1-.298-.1-1.793-.598-2.39-.996-2.989-1.693l-1.593 1.195c.896 1.195 1.793 1.693 3.785 2.39-.399 3.587-2.092 4.882-4.98 4.583-2.59-.2-5.977-1.793-8.766-3.686-.797-.597-1.594-.996-2.391-1.394-.1 0-.2-.1-.299-.1-.398-5.479-.398-6.873-.598-9.762l-.298-5.379c5.578.1 11.056 1.793 15.24 4.881 1.494 1.096 3.287 3.188 4.084 4.98.996 1.694.797 3.188-.896 4.085z"/>
  <path fill="#fff" d="M138.51 103.924c.1 5.08 1.096 10.658.2 16.037-1.395 2.59-3.985 2.889-6.276 3.885-3.188-.498-5.877-2.59-7.172-5.578-.797-6.077.199-11.854.498-17.93 0-.2 3.785.1 7.172 1.096 2.889.896 5.578 2.39 5.578 2.49zM110.32 104.322c-2.789 10.559 3.686 27.792 14.344 13.647-.797-5.977.1-11.754.399-17.631.1-.498-14.643 3.287-14.743 3.984z"/>
  <path d="M139.705 108.605c-.199-2.988-.298-4.183-.298-5.677v-.698l-.698-.199-12.55-3.885v-.697l-1.296.299h-.1v.1l-14.144 3.586-.498.1-.2.497c-2.19 5.28-1.693 13.248 1.096 18.13 3.188 5.578 8.368 5.677 13.647-.698a10.192 10.192 0 0 0 7.47 5.38h.3l.299-.1c.398-.2.796-.3 1.494-.598.1 0 .1 0 .199-.1 2.889-.996 4.084-1.793 5.08-3.685l.1-.1v-.2c.299-1.792.398-3.685.398-5.777 0-1.494-.1-2.888-.299-5.678zm-15.937-3.685c-.1 1.793-.2 2.49-.3 3.486-.198 3.686-.198 6.475.1 9.264-4.681 5.977-8.367 5.977-10.857 1.494-2.39-4.183-2.889-11.256-1.096-15.937l12.551-3.188c-.1 1.295-.2 2.59-.398 4.88zm13.945 14.742c-.697 1.196-1.594 1.793-3.984 2.59-.1 0-.1 0-.2.1-.597.199-.996.398-1.294.498-2.69-.498-4.981-2.291-6.077-4.781-.299-2.69-.299-5.48-.1-9.165.1-.996.1-1.693.3-3.486.199-2.291.298-3.686.298-4.98l10.858 3.287c0 1.294.1 2.49.299 5.08.199 2.69.299 4.084.299 5.678 0 1.892-.1 3.586-.399 5.18z"/>
  <g transform="translate(48.068 21.776)">
    <path fill="#fff" d="M2.291 38.749c9.164 35.66 66.241 26.496 64.05-9.264C63.75-13.348-6.475-5.08 2.29 38.749"/>
    <path d="M67.337 29.385c-.598-10.36-5.18-18.428-12.75-23.508C47.813 1.295 38.848-.498 29.983.597 21.118 1.794 12.949 5.778 7.57 12.054 1.594 19.026-.697 28.19 1.395 38.749l.896-.2-.896.2c9.363 36.656 68.133 27.791 65.942-9.364zM3.187 38.55c-1.992-10.06.2-18.627 5.778-25.102 5.08-5.877 12.75-9.761 21.217-10.857 8.467-1.096 16.934.598 23.31 4.98 7.071 4.782 11.355 12.253 11.952 22.114 2.092 34.764-53.391 43.132-62.256 8.865z"/>
    <ellipse cx="18.03" cy="32.872" rx="9.662" ry="10.459"/>
    <ellipse cx="22.412" cy="35.262" fill="#fff" rx="2.291" ry="2.689"/>
  </g>
  <g transform="translate(129.21 17.898)">
    <path fill="#fff" d="M1.195 35.96C8.268 76.9 75.206 66.042 65.544 24.803 56.878-12.252-1.196-1.992 1.195 35.96"/>
    <path d="M66.44 24.604C57.575-13.547-2.19-3.088.2 36.059v.1c3.286 19.324 20.52 29.186 39.545 25.998C48.41 60.663 56.18 56.48 61.26 50.304c5.578-6.874 7.57-15.739 5.18-25.7zm-6.673 24.504c-4.782 5.778-12.053 9.762-20.321 11.157-18.03 2.988-34.167-6.276-37.354-24.405C-.1-.996 56.28-10.858 64.647 25.002c2.192 9.463.399 17.731-4.88 24.106z"/>
    <ellipse cx="17.631" cy="34.167" rx="9.463" ry="10.459"/>
    <ellipse cx="22.014" cy="36.557" fill="#fff" rx="2.191" ry="2.689"/>
  </g>
  <g>
    <path fill="#f6d2a2" d="M112.377 82.803c-7.87.697-14.244 9.96-10.16 17.332 5.379 9.762 17.431-.896 24.902.1 8.666.199 15.739 9.164 22.612 1.594 7.67-8.368-3.287-16.536-11.953-20.122z"/>
    <path fill="#231f20" d="M150.727 89.477c-2.69-3.387-7.371-6.475-12.451-8.567l-.2-.1h-.199l-25.5.997c-8.866.797-15.24 11.057-10.957 18.826 1.693 2.989 3.984 4.483 7.072 4.682 2.291.1 4.682-.399 8.367-1.693.3-.1.698-.2 1.196-.399 4.98-1.693 6.972-2.191 8.965-1.893h.1c2.39 0 4.382.698 8.167 2.192 4.184 1.693 5.479 2.191 7.57 2.39 2.89.2 5.38-.796 7.67-3.287 3.886-4.283 3.686-8.865.2-13.148zm-1.693 11.754c-1.893 2.092-3.786 2.789-6.077 2.69-1.793-.1-2.988-.598-6.972-2.192-3.985-1.693-6.176-2.291-8.766-2.39-2.49-.3-4.582.198-9.862 1.991-.498.2-.896.3-1.195.399-7.272 2.49-10.758 2.29-13.149-2.092-3.586-6.475 1.893-15.24 9.364-15.938l25.201-.996c4.782 1.992 9.065 4.881 11.555 7.97 2.989 3.585 3.088 7.171-.1 10.558z"/>
    <path d="M139.77 78.52c-3.088-11.356-28.987-9.663-28.39 3.884 1.296 10.061 31.378 7.372 28.39-3.884z"/>
  </g>
</svg>
