<svg xmlns="http://www.w3.org/2000/svg" viewBox="0 0 256 256">
  <path fill="#3e4349" d="M256 128c0 70.692-57.308 128-128 128C57.308 256 0 198.692 0 128 0 57.308 57.308 0 128 0c70.692 0 128 57.308 128 128"/>
  <path fill="#fff" d="M86.99 81.79V61.61c43.244-7.352 41.947 8.937 55.929 44.108 4.854 12.208 17.298 47.567 24.937 64.576 1.73 6.054 5.3 5.767 11.244 4.18v17.587c-14.425 6.486-30.847 6.437-35.076-9.322l-16.096-49.346-21.766 60.253H76.9l38.487-88.793c-1.94-6.302-5.17-13.28-8.937-20.54-3.316-6.128-12.83-5.503-19.46-2.524"/>
</svg>
