<svg xmlns="http://www.w3.org/2000/svg" viewBox="0 0 719.169 357.3">
  <path d="m107.041 18.253-59.31 258.768H464.873c-17.002-1.484-30.424-7.452-38.421-18.331-1.484-2.013-2.71-4.18-3.784-6.448a222.9 222.9 0 0 1-1.971-5.063c-1.706-5.422-2.386-11.44-2.079-17.851.853-17.87 9.238-39.128 23.767-61.388 15.432-23.657 37.798-48.451 65.491-71.46 6.207-5.153 12.625-10.242 19.344-15.187 8.304-6.11 16.673-11.736 25.045-16.999 30.848-19.42 61.618-33.01 88.885-39.912-26.056 8.5-55.328 22.93-84.249 42.577-1.04.702-2.067 1.422-3.09 2.131-16.047 11.118-30.584 22.926-43.27 34.85-40.823 38.385-62.4 78.16-52.596 101.461a29.105 29.105 0 0 0 2.505 4.583c10.538 15.5 36.656 18.18 69.754 9.859 2.25-.563 4.502-1.2 6.82-1.866 10.573-3.052 21.798-7.174 33.36-12.256 2.779-1.228 5.588-2.49 8.419-3.837.29-.136.562-.272.852-.426 36.492-18.132 64.537-38.994 70.607-51.53 1.33-2.726 1.65-5.05.746-6.874-4.331-8.782-34.64-2.849-71.353 13.056a379.97 379.97 0 0 0-8.952 3.996 284.271 284.271 0 0 1 7.62-6.82 258.46 258.46 0 0 1 13.056-10.551 260.576 260.576 0 0 1 21.581-14.708c33.457-25.24 50.37-49.117 46.84-57.978-.664-1.669-2.08-2.817-4.262-3.517-6.975-2.218-19.704.43-35.17 6.768-12.756 5.232-27.406 12.99-42.258 22.648l-2.025 1.332-.373.213-7.14 4.743 4.103-7.514c6.087-11.144 16.003-22.77 28.349-33.572 9.055-7.897 19.399-15.337 30.534-21.848 4.212-2.466 8.417-4.756 12.63-6.82 4.313-2.108 8.63-3.982 12.842-5.65 12.237-4.839 23.918-7.78 34.104-8.579H107.041zm305.981.373c-1.67 25.505 3.274 62.863 14.495 104.339a578.818 578.818 0 0 0 6.554 22.487 561.47 561.47 0 0 0 4.583 13.855c-.921 1.354-1.848 2.7-2.718 4.05-14 21.455-22.183 41.731-24.246 59.363-5.917-19.815-10.372-41.518-12.896-64.532a392.632 392.632 0 0 1-1.652-19.557c-2.762-46.796 3.347-89.217 15.88-120.005zm-279.39 33.199c.32-.008.634 0 .96 0h63.04c5.388 0 9.555 1.01 12.522 3.037 2.95 2.04 4.056 4.678 3.357 7.887l-7.513 33.945h-22.222l7.3-33.04h-55.632l-20.09 90.804-7.247 32.879h55.58l.053-.213 11.137-50.304h-26.11l2.504-11.35h48.332l-13.855 62.773c-.187.893-.516 1.703-.96 2.504-1.142 2.08-3.135 3.863-5.914 5.329-3.854 2.03-8.466 3.037-13.855 3.037h-62.987c-5.388 0-9.555-1.008-12.522-3.037-2.95-2.03-4.074-4.62-3.357-7.833l27.763-125.494c.716-3.21 2.95-5.847 6.82-7.887.137-.073.29-.09.427-.16 3.533-1.77 7.68-2.764 12.47-2.877zm98.797 0h79.346c5.32 0 9.502 1.01 12.47 3.037 2.983 2.04 4.126 4.678 3.41 7.887l-14.815 66.93c-.699 3.189-2.986 5.79-6.874 7.833-3.888 2.05-8.464 3.091-13.801 3.091h-57.658l-11.137 50.25-1.812 8.26h-21.742l1.652-7.46 30.96-139.828zm109.613 0h21.742l-24.62 111.212-5.381 24.3h52.009a309.473 309.473 0 0 0 1.865 11.776H309.43l6.181-27.923 26.431-119.365zm-90.483 11.83-14.441 65.118h54.194L305.7 63.655h-54.141zm-45.561 145.69c.212-.007.425 0 .64 0 2.523 0 4.727.443 6.5 1.279 1.893.886 3.247 2.204 3.997 3.943.733 1.688.925 3.604.533 5.702l-.16.8h-6.235l.053-.747c.162-1.465-.02-2.618-.586-3.41-.073-.1-.18-.23-.266-.32a3.477 3.477 0 0 0-.533-.426c-.872-.55-2.237-.853-3.997-.853-2.336 0-4.082.407-5.275 1.226-1.16.801-1.893 1.696-2.132 2.77-.238 1.092.154 1.665.427 1.972l.053.054c.345.294 1.545.984 5.275 1.865 3.377.818 5.613 1.554 6.875 2.185 1.91.971 3.244 2.231 3.943 3.783.699 1.535.853 3.332.426 5.275-.426 1.893-1.392 3.639-2.824 5.276-1.415 1.637-3.217 2.933-5.382 3.837a18.196 18.196 0 0 1-6.928 1.385c-3.069 0-5.533-.464-7.46-1.385-2.012-.955-3.464-2.462-4.316-4.423-.819-1.91-.994-4.078-.533-6.448l.16-.746h6.128l-.053.746c-.154 1.415-.002 2.558.373 3.41.358.819 1.04 1.497 2.131 2.025 1.16.563 2.609.853 4.263.853 1.484 0 2.84-.25 4.05-.693 1.194-.426 2.142-.989 2.824-1.705.665-.716 1.055-1.473 1.226-2.291.17-.734.13-1.354-.16-1.865-.324-.546-.966-1.03-1.972-1.44l-5.222-1.545c-2.916-.733-4.879-1.432-6.021-2.131-1.552-.92-2.671-2.102-3.251-3.517-.58-1.398-.642-2.948-.266-4.636.392-1.808 1.264-3.528 2.61-5.063 1.365-1.551 3.126-2.768 5.223-3.57a18.345 18.345 0 0 1 5.862-1.172zm55.952.106c.337-.026.655 0 1.013 0l3.836.427 1.28.106-1.866 4.743-.373.746-2.93-.267c-.866 0-1.502.134-1.919.427-.028.02-.081.084-.107.106-.055.05-.15.135-.213.213-.256.337-.569.938-.799 2.025 0 0-.11.46-.213.853h4.583l-1.173 5.276h-4.476c-.341 1.534-4.53 20.302-4.53 20.302h-6.18s4.017-18.034 4.529-20.302h-3.57l1.172-5.276h3.517c.17-.733.426-1.652.426-1.652.375-1.705.767-2.93 1.279-3.783a8.044 8.044 0 0 1 2.93-2.878c1.026-.596 2.323-.952 3.784-1.066zm14.761.267-2.025 9.112h3.997l-1.173 5.276h-3.996c-.324 1.466-2.878 12.842-2.878 12.842s-.213 1.366-.213 1.759v.106c.002.003.051-.002.053 0l.64.053 2.93-.213-.32 4.743.054.853-4.21.48c-1.67 0-2.896-.274-3.783-.853-.938-.614-1.484-1.429-1.705-2.452-.034-.187-.107-.46-.107-.852 0-.768.145-2.066.64-4.317 0 0 2.24-10.035 2.717-12.15h-2.93l1.172-5.275h2.93a2554.72 2554.72 0 0 1 1.226-5.435l4.956-2.611 2.025-1.066zm-196.367.213h23.98l-1.332 5.968H85.46c-.273 1.21-1.367 6.113-1.759 7.887h15.187l-1.332 5.968H82.37c-.324 1.484-3.25 14.654-3.25 14.654H72.67l7.673-34.477zm32.133 8.42c.24-.03.503 0 .746 0 1.535 0 2.952.466 4.316 1.438l.853.586-3.304 5.436-.906-.64a3.895 3.895 0 0 0-2.131-.64c-.648 0-1.252.231-1.866.64a4.709 4.709 0 0 0-1.598 1.759c-.716 1.313-1.24 2.784-1.599 4.37l-2.877 13.108h-6.182l5.702-25.578h5.755s-.198.776-.266 1.066c.273-.205.56-.486.799-.64.826-.493 1.698-.8 2.558-.906zm18.331 0c.372-.029.739 0 1.12 0 3.478 0 6.11 1.219 7.832 3.623 1.075 1.552 1.652 3.47 1.652 5.755 0 1.262-.155 2.62-.48 4.103l-.479 1.865h-17.372a11.73 11.73 0 0 0-.053 1.066c0 1.33.273 2.377.853 3.144.275.375.594.713.959.96.686.447 1.573.692 2.61.692 1.263 0 2.371-.347 3.411-1.012.99-.631 1.936-1.64 2.771-3.038h6.608l-.586 1.28c-1.262 2.557-3.023 4.552-5.222 5.967-2.2 1.416-4.828 2.185-7.727 2.185-3.769 0-6.574-1.219-8.313-3.623-1.722-2.354-2.093-5.606-1.172-9.699.92-4.16 2.758-7.486 5.435-9.805 2.4-2.08 5.122-3.234 8.153-3.464zm27.763 0c.372-.029.739 0 1.12 0 3.478 0 6.11 1.219 7.833 3.623 1.074 1.552 1.651 3.47 1.651 5.755 0 1.245-.155 2.584-.48 4.05l-.479 1.918h-17.372c-.017.24-.036.454-.053.693-.013.09.006.226 0 .32v.053c0 .256.036.508.053.746.086.972.34 1.784.8 2.398.087.12.17.267.266.373.781.836 1.887 1.28 3.304 1.28a6.112 6.112 0 0 0 3.41-1.013c.99-.631 1.936-1.64 2.771-3.038h6.661l-.639 1.28c-1.262 2.557-3.023 4.552-5.222 5.967-2.2 1.416-4.828 2.185-7.727 2.185-3.769 0-6.574-1.219-8.313-3.623-1.125-1.535-1.652-3.49-1.652-5.809 0-.358.02-.744.053-1.119a19.25 19.25 0 0 1 .427-2.77c.92-4.144 2.705-7.487 5.382-9.806 2.4-2.08 5.176-3.234 8.206-3.464zm75.616 0c.38-.03.731 0 1.12 0 3.546 0 6.272 1.2 8.046 3.57 1.756 2.37 2.182 5.567 1.279 9.592-.7 3.137-1.71 5.672-3.091 7.513-1.381 1.842-3.142 3.347-5.222 4.37-2.064 1.023-4.249 1.545-6.448 1.545-3.615 0-6.307-1.236-8.047-3.623-1.125-1.518-1.705-3.473-1.705-5.809 0-1.262.139-2.602.48-4.103 1.023-4.57 3.112-8.05 6.181-10.285 2.253-1.626 4.741-2.566 7.407-2.77zm93.627 0c.45-.028.866 0 1.333 0 2.148 0 3.836.217 5.115.745 1.364.546 2.332 1.318 2.878 2.239.528.87.8 1.937.8 3.25l-.64 3.89-1.173 5.276c-1.006 4.502-1.227 6.19-1.279 6.82-.05.853.028 1.685.267 2.452l.426 1.385h-6.288l-.266-.799c-.103-.375-.073-.853-.107-1.279-1.194.733-2.39 1.383-3.464 1.759-1.585.545-3.231.852-4.902.852-2.899 0-5.045-.754-6.341-2.238-.99-1.091-1.44-2.426-1.44-3.943 0-.58.078-1.181.214-1.812.29-1.296.816-2.496 1.652-3.57.818-1.058 1.786-1.927 2.877-2.558 1.058-.631 2.236-1.079 3.464-1.386l3.784-.64c2.916-.34 5.092-.764 6.66-1.225.035-.17.107-.373.107-.373.248-1.097.217-1.922-.053-2.344-.02-.028-.084-.083-.107-.107-.057-.061-.146-.158-.213-.213-.641-.508-1.735-.746-3.197-.746-1.654 0-2.878.27-3.73.8-.836.528-1.61 1.495-2.292 2.877h-6.447l.586-1.28c.767-1.773 1.681-3.243 2.824-4.369 1.142-1.125 2.686-1.997 4.476-2.61a17.746 17.746 0 0 1 4.476-.854zm27.017 0c.241-.03.504 0 .747 0 1.551 0 3.005.466 4.37 1.438l.798.586-3.303 5.436-.906-.64c-.665-.426-1.345-.64-2.079-.64-.648 0-1.287.231-1.918.64-.648.427-1.119.991-1.545 1.759a17.498 17.498 0 0 0-1.599 4.37l-2.93 13.108h-6.182l5.702-25.578h5.755s-.145.776-.213 1.066c.272-.205.543-.486.799-.64.813-.493 1.646-.8 2.504-.906zm18.278 0c.372-.029.739 0 1.12 0 3.478 0 6.128 1.219 7.833 3.623 1.091 1.552 1.652 3.47 1.652 5.755 0 1.262-.21 2.62-.533 4.103l-.427 1.865h-17.371c-.035.359-.107.742-.107 1.066 0 1.33.29 2.377.853 3.144.087.12.223.267.32.373.055.06.153.158.212.213.763.693 1.8 1.066 3.091 1.066 1.262 0 2.37-.347 3.41-1.012.99-.631 1.919-1.64 2.772-3.038h6.66l-.639 1.28c-1.262 2.557-3.04 4.552-5.222 5.967-2.217 1.416-4.81 2.185-7.727 2.185-3.768 0-6.52-1.219-8.26-3.623-1.722-2.354-2.129-5.606-1.225-9.699.92-4.16 2.705-7.486 5.382-9.805 2.415-2.08 5.178-3.234 8.206-3.464zm-93.307.48h6.341s.782 15.178.8 15.4c.255-.544.454-1.002.479-1.066l6.98-14.335h5.81s.532 14.995.532 15.08c.17-.306 7.94-15.08 7.94-15.08h6.288l-13.855 25.578h-5.702s-.552-13.87-.586-14.654c-2.353 4.826-7.14 14.654-7.14 14.654h-5.862l-2.025-25.578zm-148.887 4.848c-1.47.062-2.803.592-4.05 1.599-.99.784-1.657 1.86-2.185 3.037h10.498c.017-.187.053-.415.053-.586 0-.972-.173-1.726-.48-2.238-.75-1.228-1.863-1.812-3.517-1.812-.099 0-.221-.004-.32 0zm27.763 0c-1.47.062-2.803.592-4.05 1.599-.99.784-1.64 1.86-2.185 3.037h10.498c.017-.187.053-.415.053-.586 0-.972-.156-1.726-.48-2.238a4.288 4.288 0 0 0-.532-.693c-.712-.735-1.692-1.119-2.985-1.119-.099 0-.221-.004-.32 0zm214.751 0c-1.51.047-2.921.558-4.21 1.599-.972.784-1.639 1.86-2.185 3.037h10.445c.017-.187.053-.415.053-.586 0-.972-.155-1.726-.48-2.238-.733-1.21-1.862-1.795-3.516-1.812h-.107zm-139.615.107c-1.41.167-2.72.81-3.943 1.918-1.467 1.33-2.53 3.42-3.144 6.182-.256 1.16-.373 2.15-.373 3.037 0 1.21.232 2.161.692 2.878.123.183.286.378.427.533.758.804 1.816 1.225 3.144 1.225 1.722 0 3.24-.641 4.69-1.972 1.466-1.347 2.512-3.457 3.143-6.288.58-2.591.499-4.527-.32-5.755-.784-1.193-1.93-1.758-3.517-1.758-.269 0-.538-.031-.799 0zm96.292 9.325c-1.45.392-3.074.723-5.222 1.013-1.603.239-2.746.49-3.41.746-.58.239-1.047.569-1.44 1.012-.375.427-.626.874-.746 1.386a3.738 3.738 0 0 0-.053.586v.053c.002.04-.004.12 0 .16.01.077.032.194.053.267.008.023.045.083.054.106.018.046.03.116.053.16.024.043.078.118.106.16.045.061.106.155.16.213.427.477 1.277.693 2.505.693 1.347 0 2.643-.256 3.837-.853a7.46 7.46 0 0 0 2.824-2.451c.511-.716.92-1.818 1.279-3.25z" style="fill:#bd0000" transform="translate(-26.564 -7.32)"/>
  <path d="M417.08 250.206c.692 1.78 1.384 3.557 2.105 5.294 1.11 2.361 2.394 4.621 3.937 6.73 8.336 11.332 22.295 17.536 40.02 19.08h19.064c6.028-.47 12.345-1.347 18.892-2.627 11.292-2.208 23.262-5.6 35.693-10.133 9.417-3.433 19.094-7.496 28.915-12.217 21.387-10.253 43.48-23.476 65.156-39.433a432.47 432.47 0 0 0 20.565-16.117 409.503 409.503 0 0 0 17.334-15.26c15.417-14.856 27.055-29.945 33.645-43.194 6.865-13.797 8.235-25.594 2.61-33.025-3.446-4.562-9.215-7.006-16.642-7.581 33.458-25.105 52.955-55.559 45.961-74.76-2.22-6.127-7.11-10.699-14.118-13.227-3.115-1.12-6.62-1.83-10.442-2.153H699.48c-14.378 1.037-35.287 6.186-53.025 14.879" style="fill:none;stroke:#bd0000;stroke-width:8.52611;stroke-linecap:butt;stroke-linejoin:miter;stroke-miterlimit:4" transform="translate(-26.564 -7.32)"/>
  <g style="fill:#bd0000;fill-opacity:1">
    <path d="M0 357.299h12.721l5.712-23.873h20.668l2.66-10.232H21.008l3.445-15.346h22.083l2.66-11.937H14.324L0 357.299zM57.057 357.299l3.82-16.03c2.012-8.679 6.258-16.37 14.29-16.37.715 0 1.415.359 1.943.444l3.104-12.295c-.717 0-1.501-.085-2.388-.085-5.917 0-10.879 4.16-14.187 10.13h-.341c.494-2.917.92-5.68 1.245-8.425H53.578c-.63 3.547-1.603 10.488-3.086 16.746l-6.241 25.885h12.806zM113.636 345.789c-3.53 1.722-7.554 1.279-12.243 1.279-3.7 0-6.566-.648-8.134-1.91-.819-1.381-1.16-3.53-1.092-4.911 17.274.46 28.17-3.53 28.716-14.444.41-8.236-5.61-12.84-14.358-12.84-15.62 0-25.85 13.778-26.516 27.045-.58 11.578 5.423 17.29 17.803 17.29 4.757 0 11.066-.545 16.233-2.096l-.409-9.413zm-4.672-19.986c-.205 4.059-5.218 4.298-15.092 4.212 1.075-3.564 4.69-6.82 10.607-6.82 2.916 0 4.587 1.108 4.485 2.608zM158.841 345.789c-3.53 1.722-7.554 1.279-12.226 1.279-3.717 0-6.565-.648-8.134-1.91-.818-1.381-1.177-3.53-1.108-4.911 17.29.46 28.17-3.53 28.733-14.444.409-8.236-5.61-12.84-14.358-12.84-15.637 0-25.869 13.778-26.534 27.045-.562 11.578 5.44 17.29 17.803 17.29 4.775 0 11.084-.545 16.25-2.096l-.426-9.413zm-4.655-19.986c-.204 4.059-5.218 4.298-15.108 4.212 1.091-3.564 4.69-6.82 10.606-6.82 2.916 0 4.604 1.108 4.502 2.608zM224.663 357.299c.102-5.406 1.398-13.898 2.745-19.474l5.474-23.157c-3.478-1.176-8.901-1.705-14.12-1.705-21.178 0-31.682 15.688-32.415 30.387-.46 9.225 4.536 13.949 12.311 13.949 5.03 0 10.71-2.439 15.126-9.771h.187c-.34 3.53-.75 6.957-.972 9.77h11.664zm-8.748-24.35c-2.49 10.845-7.571 14.119-11.357 14.119-3.53 0-5.064-2.507-4.86-6.156.41-8.236 6.924-17.718 15.143-17.718 1.33 0 2.37-.238 3.342-.477l-2.268 10.231zM233.002 355.287c2.455 1.91 7.605 1.927 12.976 2.012 11.476.085 20.139-4.928 20.65-14.136.29-6.14-4.467-9.771-9.122-12.21-3.36-1.62-5.048-3.171-4.963-4.979.12-2.438 2.405-2.78 5.764-2.78 3.786 0 6.82.46 8.56.802l3.445-9.242c-1.961-1.177-5.883-1.79-10.914-1.79-11.135 0-19.286 5.882-19.746 14.818-.273 5.524 3.7 9.242 8.509 11.766 3.888 1.995 5.218 3.53 5.116 5.695-.12 2.183-2.064 1.825-5.594 1.825-4.143 0-8.73-.546-11.152-.921l-3.53 9.14zM301.04 357.299l10.316-42.63h-12.635l-10.385 42.63h12.704zm5.917-47.746c4.331 0 8.185-3.581 8.424-9.72.204-4.16-2.49-5.627-6.463-5.627-4.144 0-7.93 2.694-8.15 6.718-.206 4.059 2.489 8.629 6.189 8.629zM325.425 357.299l4.501-19.2c2.337-9.772 7.367-13.2 11.51-13.2 3.275 0 4.23 1.399 4.076 3.428a30.477 30.477 0 0 1-.682 4.894L339.1 357.3h12.721l6.037-25.254c.46-2.183.972-5.44 1.074-7.418.375-7.69-3.461-10.487-10.521-10.487-5.661 0-11.17 2.626-15.518 8.321h-.17l1.16-7.793h-11.22c-.734 3.65-1.672 8.066-3.002 13.216l-6.957 29.415h12.72zM380.162 357.299h12.721l5.73-23.873h20.65l2.66-10.232h-20.752l3.444-15.346h22.083l2.66-11.937h-34.872l-14.324 61.388zM437.219 357.299l3.82-16.03c2.012-8.679 6.258-16.37 14.29-16.37.716 0 1.415.359 1.943.444l3.104-12.295c-.716 0-1.5-.085-2.387-.085-5.918 0-10.88 4.16-14.188 10.13h-.341c.495-2.917.92-5.68 1.245-8.425H433.74c-.614 3.547-1.603 10.488-3.086 16.746l-6.241 25.885h12.806zM493.798 345.789c-3.53 1.722-7.554 1.279-12.243 1.279-3.7 0-6.565-.648-8.134-1.91-.819-1.381-1.16-3.53-1.092-4.911 17.274.46 28.17-3.53 28.716-14.444.41-8.236-5.61-12.84-14.358-12.84-15.62 0-25.85 13.778-26.516 27.045-.58 11.578 5.44 17.29 17.803 17.29 4.757 0 11.084-.545 16.233-2.096l-.409-9.413zm-4.672-19.986c-.205 4.059-5.218 4.298-15.091 4.212 1.074-3.564 4.689-6.82 10.606-6.82 2.916 0 4.587 1.108 4.485 2.608zM539.004 345.789c-3.53 1.722-7.555 1.279-12.227 1.279-3.717 0-6.565-.648-8.134-1.91-.818-1.381-1.176-3.53-1.108-4.911 17.29.46 28.17-3.53 28.733-14.444.41-8.236-5.61-12.84-14.358-12.84-15.637 0-25.868 13.778-26.533 27.045-.563 11.578 5.44 17.29 17.802 17.29 4.775 0 11.084-.545 16.25-2.096l-.425-9.413zm-4.656-19.986c-.204 4.059-5.218 4.298-15.108 4.212 1.091-3.564 4.69-6.82 10.607-6.82 2.916 0 4.604 1.108 4.501 2.608zM589.546 294.206l-4.791 19.371c-1.74-.716-4.008-.614-5.781-.614-16.336 0-27.897 13.983-28.665 29.125-.511 10.675 5.184 15.21 12.517 15.21 5.132 0 10.538-2.267 14.63-8.133h.17l-.971 8.134h11.561c.529-5.116 1.637-11.203 2.882-16.762l11.067-46.331h-12.619zm-9.958 41.641c-1.995 8.407-6.702 11.22-10.419 11.22-3.7 0-5.764-2.574-5.508-7.161.426-8.492 6.258-16.712 13.847-16.712 2.131 0 3.956.324 4.962.802l-2.882 11.851zM618.552 357.299c14.836 0 26.278-11.237 27.08-26.533.494-10.13-5.816-17.803-17.462-17.803-15.381 0-26.414 12.448-27.182 27.488-.528 10.948 6.531 16.848 17.564 16.848zm1.995-10.231c-4.33 0-6.718-2.763-6.462-6.89.34-6.872 4.587-16.984 11.902-16.984 5.047 0 6.6 3.871 6.395 7.674-.376 7.503-4.946 16.2-11.835 16.2zM661.439 357.299l4.604-19.474c1.927-8.68 6.735-14.63 11.05-14.63 3.103 0 3.956 2.267 3.802 5.235-.085 1.534-.426 3.257-.784 4.962l-5.696 23.907h12.278l4.604-19.559c2.114-8.952 6.65-14.546 10.88-14.546 2.915 0 4.126 2.08 3.99 5.048-.086 1.722-.444 3.615-.887 5.337l-5.525 23.72h12.363l5.951-25.254c.46-2.268.989-5.798 1.074-7.606.375-7.503-3.29-11.476-9.907-11.476-5.661 0-11.17 2.558-15.347 7.947-.154-3.888-2.933-7.947-9.822-7.947-5.576 0-10.897 2.524-15.16 8.236h-.17l1.142-6.53h-10.947c-.716 3.649-1.586 8.065-2.916 13.215l-6.855 29.415h12.278z"/>
  </g>
</svg>
