<svg xmlns="http://www.w3.org/2000/svg" viewBox="0 0 256 278.199">
  <defs>
    <linearGradient id="a" x1="133.42" x2="133.42" y1="326.781" y2="83.1" gradientTransform="scale(.95927 1.04246)" gradientUnits="userSpaceOnUse">
      <stop offset="0%" stop-color="#FFF100"/>
      <stop offset="100%" stop-color="#F05A28"/>
    </linearGradient>
  </defs>
  <path fill="url(#a)" d="M255.59 122.775c-.46-4.675-1.226-10.04-2.759-16.017a98.01 98.01 0 0 0-7.204-19.16 106.69 106.69 0 0 0-13.412-20.54c-2.222-2.681-4.675-5.287-7.28-7.816 3.908-15.558-4.752-29.046-4.752-29.046-14.945-.92-24.448 4.675-27.973 7.204-.613-.23-1.15-.537-1.763-.767-2.529-.996-5.135-1.992-7.894-2.835a130.376 130.376 0 0 0-8.277-2.3c-2.835-.69-5.67-1.226-8.583-1.686-.537-.076-.996-.153-1.533-.23C157.646 8.738 138.946 0 138.946 0c-20.922 13.258-24.831 31.805-24.831 31.805s-.077.383-.23 1.073c-1.15.307-2.299.69-3.449.996-1.609.46-3.218 1.073-4.751 1.686-1.61.613-3.142 1.227-4.752 1.916a117.205 117.205 0 0 0-9.35 4.599c-2.989 1.686-5.9 3.525-8.737 5.441l-.766-.307c-28.97-11.036-54.643 2.223-54.643 2.223-2.376 30.809 11.572 50.198 14.331 53.724-.69 1.916-1.303 3.832-1.916 5.748-2.146 6.974-3.755 14.101-4.751 21.535-.154 1.073-.307 2.146-.384 3.219C7.894 146.916 0 173.97 0 173.97c22.302 25.674 48.359 27.283 48.359 27.283l.077-.076c3.295 5.9 7.127 11.495 11.419 16.784a111.903 111.903 0 0 0 5.671 6.36c-8.124 23.299 1.15 42.612 1.15 42.612 24.83.92 41.155-10.883 44.603-13.565a84.475 84.475 0 0 0 7.511 2.222 109.703 109.703 0 0 0 23.298 3.449c1.916.076 3.909.153 5.825.076H150.672l1.226-.076v.076c11.726 16.708 32.265 19.084 32.265 19.084 14.638-15.405 15.48-30.733 15.48-34.028v-1.38c3.066-2.145 5.979-4.445 8.738-6.974 5.824-5.288 10.959-11.342 15.25-17.857l1.15-1.839c16.554.92 28.28-10.27 28.28-10.27-2.759-17.243-12.569-25.673-14.638-27.283 0 0-.077-.076-.23-.153-.153-.077-.153-.153-.153-.153-.077-.077-.23-.154-.383-.23.076-1.073.153-2.07.23-3.142.153-1.84.153-3.756.153-5.595v-2.913l-.077-1.149-.076-1.533c0-.536-.077-.996-.154-1.456-.076-.46-.076-.996-.153-1.456l-.153-1.456-.23-1.456c-.307-1.916-.613-3.756-1.073-5.672-1.763-7.433-4.675-14.484-8.43-20.845a70.373 70.373 0 0 0-14.025-16.708c-5.365-4.751-11.42-8.583-17.704-11.419-6.36-2.835-12.952-4.675-19.543-5.518-3.295-.46-6.59-.613-9.886-.536h-2.452l-1.227.077c-.46 0-.92.076-1.303.076a51.957 51.957 0 0 0-4.981.69c-6.591 1.226-12.799 3.602-18.24 6.897-5.441 3.296-10.193 7.358-14.025 11.956a54.7 54.7 0 0 0-8.89 15.021 52.857 52.857 0 0 0-3.525 16.094c-.077 1.303-.077 2.683-.077 3.986v.996l.077 1.073c.076.613.076 1.303.153 1.916.23 2.682.766 5.288 1.456 7.74 1.456 4.982 3.755 9.503 6.59 13.335 2.837 3.832 6.285 6.975 9.887 9.504 3.602 2.452 7.51 4.215 11.343 5.364 3.832 1.15 7.664 1.61 11.266 1.61H154.58c.23 0 .46 0 .69-.077.382 0 .765-.076 1.149-.076.076 0 .23 0 .306-.077l.383-.077c.23 0 .46-.076.69-.076.46-.077.843-.154 1.303-.23.46-.077.843-.153 1.226-.307.843-.153 1.61-.46 2.376-.69 1.533-.536 3.066-1.15 4.368-1.839 1.38-.69 2.606-1.533 3.832-2.299.307-.23.69-.46.997-.766 1.226-.997 1.456-2.836.46-4.062-.844-1.073-2.376-1.38-3.602-.69l-.92.46a24.914 24.914 0 0 1-3.296 1.38c-1.15.383-2.375.69-3.602.919-.613.077-1.226.153-1.916.23-.306 0-.613.077-.996.077h-1.84c-.382 0-.766 0-1.149-.077H154.58c-.153 0-.383 0-.536-.077-.383-.076-.69-.076-1.073-.153-2.836-.383-5.671-1.226-8.354-2.452a29.274 29.274 0 0 1-7.74-5.059c-2.376-2.145-4.445-4.674-6.055-7.587-1.609-2.912-2.759-6.13-3.295-9.503-.23-1.686-.383-3.449-.307-5.135 0-.46.077-.92.077-1.38v-.612c0-.23.077-.46.077-.69.076-.92.23-1.84.383-2.76 1.303-7.356 4.981-14.56 10.653-20.002 1.456-1.38 2.988-2.605 4.598-3.755a31.705 31.705 0 0 1 5.211-2.989 35.739 35.739 0 0 1 5.672-2.07c1.916-.536 3.908-.842 5.977-1.072.997-.077 1.993-.153 3.066-.153h2.376l.843.076c2.222.153 4.368.46 6.514.996 4.292.92 8.507 2.53 12.415 4.675 7.818 4.369 14.485 11.113 18.547 19.237 2.07 4.062 3.525 8.43 4.215 12.952.153 1.15.307 2.299.383 3.448l.077.843.077.843v3.296c0 .536-.077 1.456-.077 1.993-.077 1.226-.23 2.529-.383 3.755-.154 1.226-.383 2.452-.613 3.679a49.548 49.548 0 0 1-.843 3.602 64.128 64.128 0 0 1-2.3 7.127 62.416 62.416 0 0 1-7.204 13.105c-5.9 8.124-13.948 14.715-23.144 18.93-4.599 2.07-9.427 3.602-14.409 4.368-2.452.46-4.981.69-7.51.767h-3.832a36.07 36.07 0 0 1-4.062-.23c-5.365-.383-10.653-1.38-15.864-2.836-5.135-1.456-10.116-3.525-14.868-5.978-9.427-5.058-17.933-11.955-24.524-20.309a79.015 79.015 0 0 1-8.584-13.335 79.197 79.197 0 0 1-5.671-14.638c-1.38-5.058-2.223-10.193-2.606-15.404l-.077-.997v-6.821c.077-2.529.307-5.211.614-7.817.306-2.605.766-5.288 1.302-7.893.537-2.606 1.15-5.212 1.916-7.818a102.856 102.856 0 0 1 5.442-14.79c4.368-9.35 10.04-17.704 16.86-24.372 1.686-1.686 3.449-3.219 5.288-4.752a78.196 78.196 0 0 1 5.748-4.138c1.916-1.303 3.985-2.453 6.055-3.525a39.773 39.773 0 0 1 3.142-1.533l1.61-.69 1.609-.69c2.146-.92 4.368-1.686 6.667-2.376.537-.153 1.15-.306 1.686-.536.537-.153 1.15-.307 1.686-.46 1.15-.306 2.3-.613 3.45-.843.536-.153 1.149-.23 1.762-.383s1.15-.23 1.762-.383c.614-.077 1.15-.23 1.763-.307l.843-.153.92-.153c.613-.077 1.15-.154 1.763-.23.69-.077 1.302-.154 1.992-.23.537-.077 1.456-.153 1.993-.23.383-.077.843-.077 1.226-.153l.843-.077.383-.077h.46c.69-.076 1.303-.076 1.993-.153l.996-.077h.767c.536 0 1.149-.076 1.685-.076a98.942 98.942 0 0 1 6.745 0c4.445.153 8.813.69 13.028 1.456 8.507 1.61 16.477 4.292 23.758 7.894 7.28 3.525 13.718 7.893 19.39 12.645.383.307.69.613 1.073.92.306.306.69.613.996.92.69.613 1.303 1.226 1.993 1.839.69.613 1.302 1.226 1.916 1.84a44.302 44.302 0 0 1 1.839 1.915c2.376 2.53 4.598 5.058 6.59 7.664a98.897 98.897 0 0 1 9.734 15.251l.46.92.46.92c.306.612.613 1.226.843 1.839.306.613.536 1.15.843 1.762.23.613.536 1.15.766 1.763.92 2.3 1.84 4.522 2.53 6.591 1.149 3.372 1.992 6.361 2.681 8.967a2.043 2.043 0 0 0 2.3 1.61c1.15-.077 1.992-.997 1.992-2.147.077-2.759 0-6.054-.383-9.81z" style="fill:url(#a)"/>
</svg>
