<svg xmlns="http://www.w3.org/2000/svg" viewBox="0 0 256 255.994">
  <path fill="#feb672" d="M127.999 0C57.309 0 0 57.3 0 127.995c0 70.693 57.31 128 127.999 128 70.695 0 128.001-57.307 128.001-128C256 57.301 198.694 0 127.999 0zm67.86 61.696c-.699-.537-1.592-.99-2.659-1.361a74.674 74.674 0 0 0-3.397-1.108 15.074 15.074 0 0 1-3.354-1.471 8.035 8.035 0 0 1-2.557-2.407c-.67-.986-1.01-2.307-1.01-3.934 0-1.577.312-2.981.933-4.156a9.051 9.051 0 0 1 2.504-3c1.043-.806 2.26-1.417 3.608-1.821a15.016 15.016 0 0 1 4.235-.61c1.68 0 3.32.245 4.877.714a11.326 11.326 0 0 1 4.089 2.27l-4.287 4.69c-.542-.625-1.26-1.102-2.137-1.406-.933-.33-1.834-.494-2.666-.494-.489 0-1.001.05-1.52.17a5.845 5.845 0 0 0-1.483.545c-.473.255-.87.592-1.163 1.004-.304.424-.457.944-.457 1.538 0 .976.354 1.698 1.09 2.22.686.49 1.564.915 2.614 1.25 1.028.341 2.15.688 3.33 1.02 1.168.337 2.272.816 3.29 1.425a7.704 7.704 0 0 1 2.51 2.453c.662 1.015.993 2.39.993 4.109 0 1.629-.307 3.076-.917 4.296a8.676 8.676 0 0 1-2.476 3.035 10.713 10.713 0 0 1-3.628 1.788c-1.386.395-2.861.59-4.391.59-1.919 0-3.729-.292-5.373-.878-1.595-.57-3.096-1.486-4.482-2.738l4.456-4.898c.67.848 1.52 1.52 2.504 1.995a7.69 7.69 0 0 0 3.277.752c.555 0 1.113-.064 1.672-.192a5.92 5.92 0 0 0 1.529-.59 3.51 3.51 0 0 0 1.12-1.027c.285-.423.431-.934.431-1.498.004-.976-.362-1.717-1.106-2.275zm-35.281-19.103h6.278V66.51h12.258v5.775H160.58v-29.69zm-13.662 0h6.274v29.69h-6.274zm-22.034 0h5.25l12.917 29.69h-7.094l-2.585-6.366h-11.9l-2.502 6.367h-6.92zm-38.914 0h11.45c1.506 0 2.955.146 4.314.444 1.338.284 2.531.78 3.54 1.457 1.006.678 1.815 1.597 2.408 2.739.594 1.142.893 2.599.893 4.312 0 2.07-.544 3.857-1.62 5.308-1.031 1.39-2.546 2.293-4.498 2.703l-.461.099 7.593 12.629h-7.526l-6.276-12h-3.537v12H85.97v-29.69zm-32.993 8.372c.788-1.918 1.91-3.572 3.334-4.921 1.417-1.349 3.123-2.396 5.071-3.127 1.952-.724 4.117-1.09 6.432-1.09 2.376 0 4.592.291 6.593.861a12.897 12.897 0 0 1 5.13 2.843l-4.428 4.833a9.623 9.623 0 0 0-2.989-2.033c-1.147-.493-2.595-.73-4.306-.73-1.43 0-2.743.237-3.902.73a8.863 8.863 0 0 0-3.007 2.053c-.834.88-1.477 1.932-1.923 3.133-.443 1.203-.66 2.522-.66 3.922 0 1.425.217 2.75.66 3.943a9.204 9.204 0 0 0 1.923 3.11 8.925 8.925 0 0 0 3.007 2.05c1.157.487 2.474.732 3.902.732 1.455 0 2.723-.164 3.784-.495.997-.31 1.818-.63 2.437-.957l.043-.025.07-.065.066-.12V60.57H68.83v-5.764h11.409V70.23a24.02 24.02 0 0 1-5.975 2.14c-2.096.453-4.27.674-6.451.674-2.315 0-4.478-.365-6.432-1.09-1.948-.72-3.656-1.777-5.071-3.126-1.418-1.342-2.546-3.005-3.334-4.927-.793-1.917-1.197-4.09-1.197-6.461 0-2.368.404-4.545 1.197-6.474zm40.978 101.88c-1.918.844-4.367 1.802-5.324 2.31-1.764.941-4.495 3-6.03 5.362-1.135 1.757-2.192 4.144-2.535 5.71-.209.986-.313 2.43-.292 4.125.042 3.955.724 9.216 2.083 12.824 1.545 4.097 2.387 5.462 4.17 9.612a567.53 567.53 0 0 1 1.81 4.247c.144.324.1.694-.093.986-.473.724-1.536 2.088-3.297 3.035-3.066 1.656-9.523 2.253-12.727 2.275h-.014c-3.198-.024-9.656-.62-12.726-2.275-1.76-.947-2.82-2.311-3.292-3.035a1.035 1.035 0 0 1-.097-.986c.347-.816 1.059-2.492 1.814-4.247 1.783-4.15 2.624-5.515 4.17-9.612 1.359-3.608 2.041-8.869 2.08-12.824.02-1.694-.08-3.14-.295-4.125-.343-1.568-1.398-3.955-2.534-5.71-1.53-2.36-4.267-4.42-6.028-5.361-1.325-.704-5.536-2.284-7.192-3.196-2.11-1.168-4.86-2.982-6.706-4.429-2.057-1.605-6.095-5.572-7.674-7.532-3.027-3.754-5.815-8.157-7.164-12.905-1.678-5.888-1.614-8.407-1.835-10.308a.565.565 0 0 1 .532-.63c1.619-.052 7.45-.187 27.815-.218a.958.958 0 0 1 .905.62c5.728 15.174 20.67 27.724 40.387 34.552.807.274.876 1.392.09 1.735zm50.143 43.185c2.506 6.654 3.875 8.86 6.771 15.608 1.225 2.85 2.38 5.572 2.942 6.885a1.71 1.71 0 0 1-.15 1.613c-.775 1.18-2.5 3.386-5.353 4.926-4.979 2.69-15.466 3.665-20.67 3.685h-.02c-5.203-.02-15.687-.994-20.667-3.685-2.853-1.54-4.57-3.747-5.346-4.926a1.71 1.71 0 0 1-.15-1.613c.563-1.313 1.71-4.036 2.935-6.885 2.898-6.747 4.266-8.954 6.774-15.608 2.209-5.862 3.319-14.4 3.386-20.834.027-2.734-.136-5.09-.481-6.696-.554-2.537-2.272-6.404-4.117-9.26-2.485-3.848-6.929-7.176-9.786-8.7-2.16-1.152-8.993-3.713-11.684-5.2-3.427-1.887-7.893-4.84-10.888-7.183-3.338-2.61-9.896-9.044-12.456-12.234-4.917-6.1-9.448-13.25-11.639-20.954-2.717-9.563-2.612-13.648-2.975-16.738a.909.909 0 0 1 .863-1.021c3.315-.12 17.482-.428 76.25-.369 58.76-.06 72.928.248 76.24.369.535.02.933.487.866 1.021-.363 3.09-.258 7.177-2.974 16.738-2.194 7.704-6.723 14.853-11.64 20.954-2.562 3.188-9.116 9.622-12.454 12.234-3 2.343-7.467 5.296-10.894 7.183-2.687 1.487-9.523 4.048-11.677 5.2-2.86 1.524-7.3 4.852-9.793 8.7-1.842 2.856-3.56 6.723-4.11 9.26-.35 1.605-.508 3.964-.48 6.696.057 6.434 1.17 14.972 3.377 20.834zm78.676-56.033c-1.575 1.96-5.611 5.927-7.668 7.532-1.85 1.447-4.598 3.261-6.712 4.429-1.656.912-5.865 2.492-7.186 3.196-1.765.94-4.502 2.999-6.036 5.36-1.132 1.758-2.19 4.145-2.53 5.711-.219.986-.311 2.43-.3 4.125.042 3.955.728 9.216 2.085 12.824 1.548 4.097 2.388 5.462 4.17 9.612.755 1.757 1.463 3.431 1.814 4.247.138.324.1.694-.097.986-.477.724-1.532 2.088-3.292 3.035-3.074 1.656-9.524 2.253-12.728 2.275h-.012c-3.204-.024-9.661-.619-12.727-2.275-1.765-.947-2.82-2.311-3.297-3.035a1.035 1.035 0 0 1-.097-.986c.347-.816 1.055-2.492 1.814-4.247 1.783-4.15 2.623-5.515 4.167-9.612 1.358-3.608 2.044-8.869 2.088-12.824.011-1.694-.085-3.14-.296-4.125-.343-1.568-1.402-3.955-2.534-5.71-1.532-2.36-4.267-4.42-6.031-5.361-.955-.509-3.411-1.467-5.322-2.311-.789-.343-.72-1.46.089-1.737 19.721-6.828 34.659-19.378 40.385-34.553a.966.966 0 0 1 .905-.62c20.368.034 26.198.167 27.815.22.327.02.57.307.532.629-.215 1.9-.157 4.418-1.833 10.308-1.349 4.75-4.137 9.153-7.166 12.907zm-120.73-88.501c0 .863-.196 1.536-.567 2.015a3.294 3.294 0 0 1-1.413 1.049 6.157 6.157 0 0 1-1.85.398c-.67.04-1.307.063-1.895.063h-4.071v-7.169h4.493c.594 0 1.213.04 1.846.132a5.393 5.393 0 0 1 1.705.493c.505.256.933.627 1.252 1.102.33.477.5 1.132.5 1.917zm25.273-.8 3.937 9.968h-7.835z"/>
</svg>
