<svg xmlns="http://www.w3.org/2000/svg" viewBox="0 0 256.003 301.933">
  <path fill="#f25f3f" d="m138.445 19.694 11.8-6.966v26.034L44.11 101.237v99.216l.104-.06 83.175 48.351 84.539-48.872v-72.405l-84.001 49.523-.001-.209-21.735-12.94-.001-25.654-.452-.28 127.661-74.96 22.539 12.477.044-.026v.051l.021.011-.021.012v150.856l-127.327 75.175v.412l-.347-.207-.381.225-.001-.452L0 225.554V74.98l5.623 3.317-5.397-3.336L127.888 0l22.031 12.893z"/>
  <path fill="#f25f3f" d="M44.11 101.237v99.38l-21.92 12.639V88.333l128.055-75.605v26.034z"/>
  <path fill="#ffaa5b" d="M.226 74.961 22.26 88.58l127.66-75.687L127.888 0zM127.389 248.744l-83.175-48.352-22.105 12.918 83.247 49.333 22.033 13.619 127.418-75.87-21.79-12.71zM105.738 137.908l22.033 13.618L256.003 75.46l-22.604-12.514z"/>
  <path fill="#eb1919" d="m22.312 213.21 106.344 62.293v26.412L0 225.555V74.98l22.312 13.161zM211.928 101.825v98.372l22.338 12.636v-106.25l-22.338-4.758"/>
  <path fill="#f25f3f" d="M234.061 212.825v-98.406l-106.134 62.57v-25.915l128.055-75.676v150.93l-128.055 75.605V275.9z"/>
  <path fill="#eb1919" d="M128.042 176.85v-25.883l-21.851-13.272v26.145z"/>
</svg>
