<svg xmlns="http://www.w3.org/2000/svg" viewBox="0 0 256 299.363">
  <path fill="#27ae60" d="M241.982 98.902c-14.553-8.196-32.844 2.498-35.775 4.337l-62.835 35.637c-9.278-7.368-22.495-7.055-31.413.744-8.917 7.8-10.989 20.857-4.922 31.033 6.067 10.176 18.538 14.564 29.64 10.428 11.102-4.136 17.663-15.614 15.593-27.279l62.662-35.559.381-.234c4.12-2.602 13.677-6.496 18.144-3.972 3.218 1.812 5.056 7.883 5.204 16.825h-.079v78.603a20.59 20.59 0 0 1-10.268 17.78l-90.077 52.038a20.59 20.59 0 0 1-20.529 0l-90.076-52.038a20.59 20.59 0 0 1-10.269-17.78V105.433a20.59 20.59 0 0 1 10.269-17.78l81.525-47.05c7.756 8.898 20.755 11 30.921 5.001 10.166-6 14.61-18.395 10.57-29.486C146.607 5.026 135.232-1.608 123.59.337c-11.643 1.945-20.245 11.915-20.46 23.718L19.001 72.623A37.979 37.979 0 0 0 0 105.433V209.44a37.979 37.979 0 0 0 18.942 32.827l90.076 52.038a37.978 37.978 0 0 0 37.875 0l90.076-52.038a37.979 37.979 0 0 0 18.942-32.8v-75.612h.06c.443-17.736-4.301-29.488-13.989-34.952z"/>
</svg>
