<svg xmlns="http://www.w3.org/2000/svg" viewBox="0 0 256.003 247.56">
  <path fill="#ff3633" d="M128.002 0c74.382 0 128.001 57.27 128.001 123.894 0 67.765-50.88 123.666-128 123.666S0 191.66 0 123.894C-.227 57.27 53.392 0 128.002 0zm-84.65 123.894c0 45.405 39.017 85.334 84.422 85.334 45.405 0 84.421-39.93 84.421-85.334 0-49.056-39.016-85.79-84.42-85.79-45.178 0-84.422 36.734-84.422 85.79z"/>
  <path fill="#a6afbd" d="M73.927 117.049c3.423 0 6.389 1.825 7.986 4.791h7.53l11.864-28.52c.456-1.37 1.825-2.51 3.194-2.966 2.51-.457 5.02.912 5.476 3.422l12.55 55.216 12.777-74.382c.228-1.825 1.597-3.194 3.422-3.65 2.51-.685 5.02.912 5.704 3.422l13.69 55.9 7.073-20.763c.229-.912.913-1.825 1.826-2.51 2.053-1.368 5.02-.912 6.388 1.142l5.933 8.442c.228 2.053.228 4.107.228 6.16 0 2.738-.228 5.476-.457 7.986-.912-.228-1.597-.913-2.281-1.597l-5.932-8.214-9.127 27.608c-.913 2.51-3.423 3.65-5.932 2.966-1.598-.456-2.738-1.825-2.967-3.194l-12.32-49.74-13.006 75.522c-.456 2.51-2.738 4.107-5.248 3.88-2.053-.229-3.422-1.826-3.879-3.88l-13.918-63.886-7.53 18.025c-.684 1.825-2.509 2.966-4.334 2.966H81.913a9.203 9.203 0 0 1-7.986 4.564c-5.02 0-9.355-4.107-9.355-9.355.228-5.02 4.335-9.355 9.355-9.355z"/>
</svg>
