<svg xmlns="http://www.w3.org/2000/svg" viewBox="0 0 255.927 255.562">
  <defs>
    <linearGradient id="a" x1="138.416" x2="207.707" y1="308.283" y2="317.23" gradientTransform="scale(.99776 1.00225)" gradientUnits="userSpaceOnUse">
      <stop offset="0%" stop-color="#1A7D75"/>
      <stop offset="100%" stop-color="#1A8864"/>
    </linearGradient>
    <linearGradient id="b" x1="8.885" x2="-26.086" y1="121.088" y2="213.331" gradientTransform="scale(.9984 1.0016)" gradientUnits="userSpaceOnUse">
      <stop offset="1.293%" stop-color="#168A81"/>
      <stop offset="100%" stop-color="#31A97F"/>
    </linearGradient>
    <linearGradient id="c" x1="45.553" x2="90.32" y1="172.015" y2="210.883" gradientTransform="scale(1.32149 .75672)" gradientUnits="userSpaceOnUse">
      <stop offset="0%" stop-color="#27A59B"/>
      <stop offset="100%" stop-color="#64D8A2"/>
    </linearGradient>
    <linearGradient id="d" x1="39.561" x2="103.137" y1="133.28" y2="188.478" gradientTransform="scale(.99886 1.00114)" gradientUnits="userSpaceOnUse">
      <stop offset="0%" stop-color="#27A59B"/>
      <stop offset="100%" stop-color="#64D8A2"/>
    </linearGradient>
    <linearGradient id="e" x1="315.329" x2="130.016" y1="-214.283" y2="-277.38" gradientTransform="scale(.99564 1.00438)" gradientUnits="userSpaceOnUse">
      <stop offset="0%" stop-color="#27A59B"/>
      <stop offset="100%" stop-color="#64D8A2"/>
    </linearGradient>
  </defs>
  <path fill="url(#a)" d="M231.385 105.754c12.308-.592 23.204 8.957 24.267 21.277 4.604 59.597-48.957 126.248-125.818 128.382-12.319.343-22.58-9.393-22.922-21.745-.34-12.353 9.367-22.643 21.686-22.986 50.99-1.416 83.294-45.459 81.57-81.508-.59-12.342 8.908-22.828 21.217-23.42z" style="fill:url(#a)"/>
  <path fill="url(#b)" d="M22.551 104.485c12.323 0 22.312 10.018 22.312 22.375 0 51.575 41.47 84.953 82.89 83.931 12.32-.304 22.551 9.464 22.854 21.816.304 12.354-9.437 22.615-21.756 22.92C64.08 257.123.017 205.266.017 126.86c0-12.357 10.211-22.375 22.534-22.375z" style="fill:url(#b)"/>
  <path fill="url(#c)" d="M175.646 128.594c0-12.65 10.32-22.906 23.049-22.906h33.589c12.73 0 23.368 10.256 23.368 22.906 0 12.652-10.638 22.907-23.368 22.907h-33.59c-12.728 0-23.048-10.255-23.048-22.907z" style="fill:url(#c)"/>
  <path fill="url(#d)" d="M105.168 128.628c0-12.67 10.253-22.94 22.887-22.94 12.635 0 22.889 10.27 22.889 22.94 0 12.669-10.254 22.94-22.889 22.94-12.634 0-22.887-10.271-22.887-22.94z" style="fill:url(#d)"/>
  <path fill="url(#e)" d="M150.31 21.446c.511 12.346-9.056 22.77-21.368 23.283-53.149 2.214-85.596 43.987-84.017 83.652.492 12.346-8.891 22.756-21.204 23.249-12.313.493-23.14-9.472-23.632-21.819C-2.485 65.174 51.335 1.275 127.09.02c12.312-.513 22.708 9.08 23.218 21.426z" style="fill:url(#e)"/>
</svg>
