<svg xmlns="http://www.w3.org/2000/svg" viewBox="0 0 512 149.398">
  <g fill="#7d4cdb">
    <path d="M206.979 64.521a13.788 13.788 0 0 1 5.26.84 12.854 12.854 0 0 1 6.225 5.914v-5.913h10.364v38.532a21.787 21.787 0 0 1-2.677 11.858c-2.948 4.443-8.477 6.752-16.589 6.93l-1.027.011a24.09 24.09 0 0 1-12.699-3.112 11.298 11.298 0 0 1-5.447-9.15h11.579a4.793 4.793 0 0 0 1.431 2.676 9.057 9.057 0 0 0 5.79 1.463 7.781 7.781 0 0 0 7.687-3.829 19.328 19.328 0 0 0 1.401-8.03v-2.614a12.761 12.761 0 0 1-3.3 3.89 12.886 12.886 0 0 1-8.216 2.397 15.562 15.562 0 0 1-12.45-5.51 22.316 22.316 0 0 1-4.638-14.908 24.9 24.9 0 0 1 4.545-15.22 14.815 14.815 0 0 1 12.76-6.225zm260.606.405a22.97 22.97 0 0 1 8.709 1.451l1.033.416a16.527 16.527 0 0 1 7.003 6.039 19.95 19.95 0 0 1 3.113 8.403 52.32 52.32 0 0 1 .31 8.062h-29.567a9.742 9.742 0 0 0 4.232 8.59 10.645 10.645 0 0 0 5.852 1.525 8.715 8.715 0 0 0 5.882-1.836 8.995 8.995 0 0 0 2.21-2.802h10.832a13.166 13.166 0 0 1-3.403 6.797l-.55.549a19.826 19.826 0 0 1-15.282 5.882 22.036 22.036 0 0 1-14.318-5.042c-4.15-3.34-6.225-8.767-6.225-16.278a22.005 22.005 0 0 1 5.634-16.154 19.453 19.453 0 0 1 14.535-5.602zm-180.803-.56a18.675 18.675 0 0 1 15.563 6.474 23.686 23.686 0 0 1 5.135 14.248v.972a23.53 23.53 0 0 1-5.198 15.22 18.675 18.675 0 0 1-15.562 6.224 18.893 18.893 0 0 1-15.562-6.224 23.561 23.561 0 0 1-5.14-14.307l.004-.976a23.748 23.748 0 0 1 5.198-15.25 18.675 18.675 0 0 1 15.562-6.381zm218.62-9.307v11.33H512v7.563h-6.598v21.476a5.011 5.011 0 0 0 .622 3.113 7.065 7.065 0 0 0 3.89.622H512v7.906l-5.011.155c-5.042 0-8.466-.716-10.302-2.614a7.906 7.906 0 0 1-1.806-5.634v-24.9l-5.758-.124V66.39h5.758v-11.33zm-92.939 12.077a12.2 12.2 0 0 1 3.486 4.886 13.415 13.415 0 0 1 5.198-5.26 16.091 16.091 0 0 1 7.315-1.65c1.775-.017 3.539.3 5.197.934a11.61 11.61 0 0 1 4.731 3.673 11.205 11.205 0 0 1 2.303 5.198c.233 1.59.36 3.195.38 4.802l-.006 26.82h-10.894V80.676a8.497 8.497 0 0 0-.747-3.797 5.26 5.26 0 0 0-5.197-2.833 6.038 6.038 0 0 0-6.225 3.642 11.516 11.516 0 0 0-.872 4.638v24.183h-10.707V82.293c.1-1.775-.154-3.552-.747-5.228a5.167 5.167 0 0 0-5.26-2.957 6.225 6.225 0 0 0-6.225 2.925 10.987 10.987 0 0 0-.871 4.98v24.464h-10.49V66.015h10.334v5.914a17.15 17.15 0 0 1 3.735-4.482 14.66 14.66 0 0 1 15.562-.311zm-68.131-.374a12.139 12.139 0 0 1 3.486 4.887 13.726 13.726 0 0 1 5.197-5.23 15.562 15.562 0 0 1 7.315-1.649c1.613.01 3.21.292 4.727.83l.75.29a11.92 11.92 0 0 1 7.035 8.81c.205 1.546.32 3.104.346 4.664l-.004 27.144h-10.893V80.644a8.559 8.559 0 0 0-.747-3.828 5.291 5.291 0 0 0-5.198-2.833 6.225 6.225 0 0 0-6.225 3.642c-.518 1.23-.811 2.54-.867 3.87l-.005 24.982h-10.707V82.293a13.632 13.632 0 0 0-.746-5.26 5.167 5.167 0 0 0-5.23-2.956 6.225 6.225 0 0 0-6.224 2.925 11.578 11.578 0 0 0-.872 5.011v24.433h-10.769V65.984h10.333v5.603a16.714 16.714 0 0 1 3.735-4.513 14.784 14.784 0 0 1 15.563-.312zm-83.539-2.21.654.032h.902v10.893c-.653 0-1.245 0-1.774-.155H259.3a8.808 8.808 0 0 0-8.621 4.14 16.807 16.807 0 0 0-1.245 7.22v19.453H238.57V65.486h10.147v7.097a23.001 23.001 0 0 1 4.295-5.572 11.61 11.61 0 0 1 7.781-2.459zm25.88 8.81a9.337 9.337 0 0 0-7.174 3.36 15.22 15.22 0 0 0-2.521 9.338c-.2 3.3.674 6.575 2.49 9.337a9.337 9.337 0 0 0 14.348 0c1.8-2.77 2.672-6.04 2.49-9.337a15.282 15.282 0 0 0-2.458-9.338 9.337 9.337 0 0 0-7.175-3.36zM201.781 78.9a19.11 19.11 0 0 0-1.152 6.878 16.092 16.092 0 0 0 1.183 6.225 7.813 7.813 0 0 0 7.15 5.173l.569-.006a8.248 8.248 0 0 0 6.287-2.614v-.031a13.135 13.135 0 0 0 2.552-8.964 13.633 13.633 0 0 0-2.396-8.809 8.03 8.03 0 0 0-5.922-3.102l-.583-.01a7.657 7.657 0 0 0-7.688 5.26zm259.641-2.957a11.018 11.018 0 0 0-2.832 6.225h18.301a8.902 8.902 0 0 0-2.832-6.412 9.337 9.337 0 0 0-5.545-2.199l-.68-.01a8.497 8.497 0 0 0-6.412 2.396zM74.7 24.9c27.503 0 49.798 22.296 49.798 49.8 0 27.503-22.295 49.798-49.799 49.798-27.503 0-49.8-22.295-49.8-49.799 0-27.503 22.297-49.8 49.8-49.8M74.7 0C33.444 0 0 33.444 0 74.7c0 41.254 33.444 74.698 74.7 74.698 41.254 0 74.698-33.444 74.698-74.699A74.7 74.7 0 0 0 74.7 0z"/>
  </g>
</svg>
