<svg xmlns="http://www.w3.org/2000/svg" viewBox="0 0 254.432 343.031">
  <path fill="#fba919" d="M16.43 83.373s5.874 22.658 6.711 30.212c.841 7.552-15.105 24.336-15.105 32.728 0 8.393 3.353 23.498 21.818 31.052 18.464 7.553 20.98 26.853 20.98 38.605 0 11.748-6.713 34.404-6.713 34.404S39.927 306.6 62.583 316.67c22.656 10.069 17.623 10.069 22.656 10.069 5.034 0 41.96 15.11 63.778 9.234 21.819-5.874 27.69-12.587 27.69-12.587s21.821 1.677 28.533-17.627c6.717-19.3 10.91-59.58 8.392-78.043-2.518-18.465-5.874-42.797 9.23-51.19 15.11-8.393 31.052-18.46 28.534-26.854-2.518-8.393-15.942-20.142-15.942-20.142s-3.357-20.978-.841-26.014c2.516-5.035 17.623-17.626 9.23-26.855-8.388-9.23-23.498-9.23-23.498-9.23l-19.299 1.676s-32.728-29.37-75.527-27.692c-42.797 1.678-69.654 27.692-69.654 27.692s-14.264-5.035-26.853 0c-12.59 5.037-15.099-.001-12.583 14.266z"/>
  <path fill="#e78724" d="M93.11 208.32S76.49 233.73 64.3 251.762c-1.886 2.79 12.19 2.983 12.19 2.983zM101.022 155.637s-5.01 12.498-7.754 19.123c-2.979 7.203-14.336 10.786-14.336 10.786s5.887-6.175 5.887-21.818c0-6.562 8.473-9.172 8.473-9.172z"/>
  <path fill="#e78724" d="M95.961 162.703s-10.263 12.218-29.32 5.375c-19.06-6.84-21.015-31.278-21.015-38.12 0-6.842 36.165 6.842 41.054 9.775 4.888 2.933 14.168 14.66 9.281 22.97zM23.975 32.153s17.592-3.424 29.32 5.863c11.733 9.285 15.15 16.617 15.15 16.617l-19.77 15.67s-9.551-4.428-12.484-17.136c-2.931-12.707-.977-18.57-12.216-21.014z"/>
  <path fill="#e78724" d="M90.83 127.413c-7.575-10.752-20.057-15.442-30.024-16.219-16.994-1.329-25.062 4.679-25.062 4.679s27.832 1.178 35.854 11.714c14.934 19.61 36.72 21.203 40.204 16.896-4.028.201-8.46-1.795-13.203-6.28-2.964-2.806-5.366-7.377-7.77-10.79zM43.846 165.431s-30.881-10.616-25.012-21.365c5.864-10.753 1.196-16.612 1.196-16.612S2.787 140.326 7.181 154.01c2.7 8.398 7.23 14.479 32.107 26.137 11.931 22.163 2.464 62.055 3.03 62.242.946.314 16.753-7.813 15.674-45.135-.329-11.46-1.245-27.106-14.146-31.822zM84.312 51.276c-12.948 6.578-30.687 15.739-30.687 15.739l6.981 3.493c-.666 1.079-.988 1.723-.988 1.723l7.166 3.258s17.493 12.672 28.211 20.82c-3.573-11.005-14.063-28.292-14.063-28.292s-2.973-7.943 3.38-16.741zM127.327 319.42c-39.799 0-53.28-20.204-53.28-20.204l6.22 15.146c2.351 6.552 27.431 26.942 47 26.942"/>
  <path fill="#e78724" d="M78.409 285.564s3.662 22.378 18.323 22.378c12.46 0 16.13-18.903 16.13-22.81zM54.01 251.814c1.302-3.586 5.863-18.084 7.329-31.278 1.756-15.803 1.116-38.915 1.116-38.915s-3.912 15.15-7.333 17.598c-3.42 2.442-9.774 19.057-9.774 19.057s-3.404 24.736-5.024 33.05c4.483.897 8.258-1.744 13.686.488zM18.604 153.766s8.306-2.935 10.752-21.015c2.442-18.083-2.935-33.722-2.935-33.722s.489 24.924-2.442 29.813c-2.935 4.885-5.375 6.352-8.798 12.707-3.423 6.356 1.465 10.261 3.423 12.217z"/>
  <path fill="#fdc168" d="m28.521 36.43-1.695-1.074c-5 .169 1.695 1.074 1.695 1.074z"/>
  <path fill="#fba919" d="M91.073 45.922s-7.818-1.302-11.73-7.166C75.433 32.891 64.357 21.16 46.7 21.03c-17.656-.132-35.125 4.693-35.125 4.693l15.249 9.635c1.612-.053 4.433-.031 9.096.125 19.136.636 22.082 19.564 22.082 19.564l67.443-9.287"/>
  <path fill="#fff" d="M97.59 150.469s-9.124 9.123-23.135 6.189c-14.011-2.931-22.484-9.122-23.135-19.875-.651-10.752 2.935-14.987 2.935-14.987s15.637 4.89 23.135 11.407c7.493 6.515 13.031 16.941 20.2 17.266z"/>
  <path fill="#c9c9c9" d="M86.548 147.21s-7.912 3.614-16.756.67c-11.578-3.862-12.349-15.902-12.349-15.902s-7.102 20.843 12.81 24.855c15.972 3.217 25.417-6.038 25.417-6.038z"/>
  <path fill="#463014" d="M92.171 41.5c-.85-17.874 13.803-32.11 18.88-32.717.28 3.029-.283 14.844 4.793 18.477 1.478-9.65 6.475-20.29 26.207-27.26-4.226 11.209-.564 20.598 1.18 24.95 13.475-12.23 22.554-10.21 22.554-10.21s-9.363 16.156-5.701 26.757c-27.05-2.121-67.78 2.874-67.913.004zM34.825 68.728c-6.454-5.355-1.643-10.324-2.153-16.408-.278-3.237-.534-6.291-1.6-7.976C25.131 34.966 11.12 32.12 10.98 32.09l-6.576-1.288 4.353-5.092c.564-.66 18.441-17.717 46.106-8.785 19.351 6.241 33.677 27.405 34.21 28.26l-9.703 4.563c-.113-.18-11.439-20.074-28.041-25.427-13.42-4.33-25.79-.21-31.088 2.49 5.632 2.248 12.996 6.343 17.433 13.348 2.093 3.309 2.446 7.474 2.787 11.508.45 5.34.87 10.381 4.8 13.646zM17.587 146.893s8.132-10.084 10.54-29.704c.946-7.729-.734-22.972-3.423-28.836.488 14.417-3.176 28.836-3.176 28.836s-2.471 26.771-3.94 29.704z"/>
  <path fill="#463014" d="M60.465 58.544c-.004-.021-2.609-11.405-9.831-17.152-10.188-8.104-22.628-3.793-22.747-3.755l-1.807-5.58c.602-.195 14.82-4.675 27.924 4.536 13.182 9.263 14.764 17.66 14.901 18.587zM43.127 139.661s-4.266-6.107-3.5-12.823c.383-3.317 1.92-6.722 4.664-7.93 5.1-2.24 7.36 3.54 7.36 3.54s-7.178 1.771-8.524 17.213z"/>
  <path fill="#463014" d="M89.968 148.97c.178.332.269.519.269.519s-13.306 9.986-26.943-.148c-7.299-5.43-6.61-18.859-4.373-24.554 5.815 1.318 10.748 3.693 14.87 6.467-5.21-4.65-9.77-8.073-9.758-8.152l-5.922-1.676-11.51-3.947c-.147.878-4.346 20.556 7.772 33.964 5.371 5.946 30.551 19.26 42.507-3.506z"/>
  <path fill="#463014" d="M88.721 150.433c7.492 11.402 26.394 4.886 26.068-7.168 0 0-12.63 6.97-23.788-5.864-6.515-7.492-27.39-28.151-55.7-21.286 19.55 4.3 45.432 22.16 53.42 34.318z"/>
  <path fill="#463014" d="M32.656 182.613c1.803 1.041 8.159 7.624 8.163 17.468 0 4.937-.492 29.737-2.935 44.888 3.675 2.388 6.235 2.896 9.895 5.33 1.832-17.547 3.146-42.979 2.533-53.246-.7-11.703-6.966-19.557-12.777-22.906-1.82-1.047-3.721-2.076-5.636-3.111-9.954-5.378-20.246-10.942-20.246-20.441 0-7.432 2.889-9.756 5.948-12.22l.33-.267c2.029-1.64 4.326-3.5 5.687-6.553 3.713-8.348 4.32-29.615 0-35.013-2.154-2.69-7.924-11.736-6.265-17.815.632-2.32 2.093-4.04 4.472-5.258 2.517-1.29 5.917-1.943 10.103-1.943 8.223 0 17.343 2.503 22.048 3.993 16.813 5.329 37.1 20.693 42.916 25.275.167.128.265.203.283.215l3.72 2.588-2.327-3.894c-.143-.243-14.883-24.479-41.237-33.365-5.127-1.729-15.2-4.63-25.1-4.63-5.894 0-10.895 1.03-14.855 3.057-4.826 2.469-8.094 6.408-9.452 11.388-3.328 12.207 7.51 25.798 7.88 26.233 1.264 2.256 1.8 18.643-1.12 25.201-.401.906-1.502 1.795-2.896 2.92-.436.353-.924.72-1.442 1.112C6.228 134.728 0 139.425 0 150.252c0 14.814 15.014 22.846 27.08 29.304 1.98 1.065 3.868 2.073 5.576 3.057z"/>
  <path fill="#463014" d="M34.825 68.728c-6.454-5.355-1.643-10.324-2.153-16.408-.278-3.237-.534-6.291-1.6-7.976C25.131 34.966 11.12 32.12 10.98 32.09l-6.576-1.288 4.353-5.092c.564-.66 18.441-17.717 46.106-8.785 19.351 6.241 33.677 27.405 34.21 28.26l-9.703 4.563c-.113-.18-11.439-20.074-28.041-25.427-13.42-4.33-25.79-.21-31.088 2.49 5.632 2.248 12.996 6.343 17.433 13.348 2.093 3.309 2.446 7.474 2.787 11.508.45 5.34.87 10.381 4.8 13.646z"/>
  <path fill="#463014" d="m34.615 69.825-.416-.346c-4.787-3.972-3.938-7.884-3.115-11.67.373-1.747.768-3.553.608-5.406-.261-3.115-.512-6.054-1.45-7.537-5.656-8.93-19.323-11.79-19.458-11.818L2.57 31.437l5.445-6.365c.1-.12 11.577-11.706 31.017-11.706 5.299 0 10.728.882 16.13 2.627 20.197 6.512 34.606 28.456 34.742 28.673l.583.932-11.478 5.398-.461-.73c-1.235-2.106-12.118-20.054-27.514-25.02-3.782-1.22-7.765-1.837-11.837-1.837-7.376 0-13.357 2.01-16.54 3.36 5.319 2.395 11.769 6.426 15.85 12.863 2.22 3.506 2.579 7.791 2.931 11.932.432 5.148.84 9.99 4.453 12.988l1.363 1.13z"/>
  <path fill="#463014" d="M60.465 58.544c-.004-.021-2.609-11.405-9.831-17.152-10.188-8.104-22.628-3.793-22.747-3.755l-1.807-5.58c.602-.195 14.82-4.675 27.924 4.536 13.182 9.263 14.764 17.66 14.901 18.587z"/>
  <path fill="#463014" d="m59.765 59.875-.254-1.12c-.027-.11-2.582-11.104-9.489-16.596-3.936-3.134-8.683-4.726-14.101-4.726-4.23 0-7.372 1.01-7.715 1.129l-.934.31-2.423-7.443.93-.3c.416-.133 4.19-1.31 9.527-1.31 7.043 0 13.7 2.067 19.263 5.973 13.512 9.495 15.161 18.276 15.303 19.245l.118.766zM35.922 35.482c5.788 0 11.089 1.78 15.32 5.144 6.133 4.885 9.017 13.508 9.89 16.6l6.648-2.65c-.603-2.347-3.253-9.391-14.336-17.183-5.304-3.727-11.404-5.615-18.136-5.615-3.695 0-6.565.588-7.984.946l1.2 3.706c1.39-.374 4.066-.948 7.398-.948zM96.12 302.574c-2.888 0-5.835-1.048-7.878-2.816-1.563-1.348-6.851-6.205-9.183-12.155-.87-2.225-.675-4.005.588-5.286.87-.878 2.676-1.927 6.343-1.927l2.61-.004c3.108-.003 8.343-.003 12.817-.003h4.29c2.789 0 4.789.603 5.939 1.778 1.476 1.518 1.003 3.448.59 4.464-.718 1.78-3.693 7.571-8.73 12.956-1.802 1.929-4.427 2.993-7.386 2.993zM99.147 151.103l-10.427-.67s2.666 4.698 4.392 10.774c1.95 6.873-1.782 16.918-1.782 16.918s13.901-15.74 7.817-27.022zM86.132 330.104c-37.109-2.852-50.165-37.917-50.165-45.22l9.691.004-4.845-.004h4.845c.048 3.157 9.91 33.152 41.216 35.56z"/>
  <path fill="#fff" d="M75.703 267.28c-.58-3.351-.64-6.53.068-9.653-2.82-2.12-7.88-2.907-11.678-4.138-3.105-1.965-18.993 2.014-30.52-11.936-14.443-17.468-11.403-27.897-11.403-27.897-3.703 4.114-7.292 2.546-12.937 21.73-5.652 19.188 2.654 32.564 18.133 45.993 7.314 6.343 17.652 8.957 26.545 9.957-2.98-2.99 5.088-3.29 10.648-5.37-.443-4.49.3-8.848 3.647-12.357 2.018-2.116 4.615-3.38 7.309-4.388.15-.348.277-.67.42-1.004a8.577 8.577 0 0 1-.232-.937z"/>
  <path fill="#c9c9c9" d="M64.484 285.849c-.321-.942-.564-1.903-.802-2.87-.257-1.055-1.537-4.047.04-.631-.405-.875-.67-1.776-.866-2.684-25.07-.032-46.88-17.245-42.666-53.432-3.282-4.357-7.877 8.786-7.877 8.786s-12.55 36.442 19.863 50.566c10.8 4.71 20.345 8.087 22.597 6.724 4.69.953 8.925-2.317 10.513-4.468-.298-.66-.57-1.322-.802-1.991z"/>
  <path fill="#463014" d="M75.252 262.033c.039-3.054.662-6.013 2.139-8.96.103-.203.223-.398.334-.596-9.647-.082-20.758-1.006-30.219-4.793-10.398-4.16-23.406-18.39-25.642-35.11 0 0-19.584 15.112-13.829 47.459 5.402 30.373 30.819 40.275 59.806 41.95.015-.196-3.26-6.962-2.225-11.105-16.46 1.197-34.866-5.163-43.752-19.783-8.134-13.382-5.853-36.228-2.51-39.576 8.156 25.732 37.5 30.963 55.898 30.514z"/>
  <path fill="#463014" d="M78.289 243.612c-5.216 15.307-15.871 27.696-15.871 27.696s14.656-.667 15.465-3.26c.6-1.912 13.235-31.49 18.084-66.14-4.562 7.495-17.232 40.393-17.678 41.704z"/>
  <path fill="#e78724" d="M161.326 208.32s16.614 25.41 28.808 43.443c1.886 2.79-12.194 2.983-12.194 2.983zM153.412 155.637s5.01 12.498 7.75 19.123c2.98 7.203 14.335 10.786 14.335 10.786s-5.886-6.175-5.886-21.818c0-6.562-8.471-9.172-8.471-9.172z"/>
  <path fill="#e78724" d="M158.471 162.703s10.264 12.218 29.325 5.375c19.062-6.842 21.015-31.278 21.015-38.12 0-6.842-36.165 6.842-41.053 9.775-4.889 2.933-14.172 14.66-9.287 22.97zM230.46 32.153s-17.593-3.424-29.325 5.863c-11.728 9.285-15.15 16.617-15.15 16.617l19.77 15.67s9.555-4.43 12.488-17.137c2.93-12.706.977-18.57 12.216-21.013z"/>
  <path fill="#e78724" d="M163.604 127.413c7.575-10.752 20.053-15.442 30.024-16.219 16.995-1.329 25.06 4.679 25.06 4.679s-27.833 1.178-35.856 11.714c-14.935 19.61-36.714 21.203-40.198 16.896 4.027.201 8.461-1.795 13.201-6.28 2.963-2.806 5.366-7.377 7.77-10.79zM210.589 165.431s30.876-10.616 25.012-21.365c-5.864-10.753-1.2-16.612-1.2-16.612s17.247 12.872 12.849 26.555c-2.7 8.398-7.23 14.479-32.107 26.137-11.931 22.163-2.463 62.055-3.028 62.242-.946.314-16.751-7.813-15.672-45.135.328-11.46 1.244-27.106 14.146-31.822zM170.123 51.276c12.945 6.578 30.686 15.739 30.686 15.739l-6.98 3.493c.666 1.079.989 1.723.989 1.723l-7.166 3.258s-17.494 12.672-28.212 20.82c3.57-11.005 14.06-28.292 14.06-28.292s2.977-7.943-3.377-16.741zM127.11 319.42c39.792 0 53.273-20.204 53.273-20.204l-6.216 15.146c-2.351 6.552-27.433 26.942-46.997 26.942"/>
  <path fill="#e78724" d="M176.026 285.564s-3.666 22.378-18.324 22.378c-12.457 0-16.129-18.903-16.129-22.81zM200.424 251.814c-1.302-3.586-5.863-18.084-7.332-31.278-1.757-15.803-1.112-38.915-1.112-38.915s3.91 15.15 7.327 17.598c3.425 2.442 9.775 19.057 9.775 19.057s3.404 24.736 5.024 33.05c-4.482.897-8.252-1.744-13.682.488zM235.833 153.766s-8.31-2.935-10.752-21.015c-2.442-18.083 2.934-33.722 2.934-33.722s-.491 24.924 2.442 29.813c2.935 4.887 5.376 6.352 8.799 12.707 3.418 6.354-1.469 10.261-3.423 12.217z"/>
  <path fill="#fdc168" d="m225.912 36.43 1.699-1.074c5 .169-1.7 1.074-1.7 1.074z"/>
  <path fill="#fba919" d="M163.359 45.922s7.821-1.302 11.729-7.166c3.91-5.865 14.99-17.596 32.648-17.727 17.656-.132 35.124 4.693 35.124 4.693l-15.25 9.635c-1.612-.053-4.432-.031-9.1.125-19.133.636-22.08 19.564-22.08 19.564l-67.44-9.287"/>
  <path fill="#fff" d="M156.844 150.469s9.124 9.123 23.132 6.189c14.013-2.931 22.484-9.122 23.136-19.875.65-10.752-2.931-14.987-2.931-14.987s-15.642 4.89-23.135 11.407c-7.494 6.517-13.032 16.941-20.202 17.266z"/>
  <path fill="#c9c9c9" d="M167.883 147.21s7.915 3.614 16.756.67c11.58-3.862 12.352-15.902 12.352-15.902s7.098 20.843-12.814 24.855c-15.969 3.217-25.416-6.038-25.416-6.038z"/>
  <path fill="#463014" d="M219.608 68.728c6.454-5.355 1.648-10.324 2.158-16.408.272-3.237.528-6.291 1.596-7.976 5.94-9.378 19.95-12.224 20.095-12.254l6.577-1.288-4.354-5.092c-.564-.66-18.441-17.717-46.11-8.785-19.348 6.241-33.674 27.405-34.206 28.26l9.699 4.563c.118-.18 11.444-20.074 28.046-25.427 13.42-4.33 25.789-.21 31.084 2.49-5.629 2.248-12.996 6.343-17.433 13.348-2.093 3.309-2.443 7.474-2.783 11.508-.45 5.34-.874 10.381-4.806 13.646zM236.843 146.893s-8.127-10.084-10.536-29.704c-.946-7.729.731-22.972 3.42-28.836-.49 14.417 3.179 28.836 3.179 28.836s2.472 26.771 3.937 29.704z"/>
  <path fill="#463014" d="M193.97 58.544c.003-.021 2.608-11.405 9.832-17.152 10.186-8.104 22.627-3.793 22.743-3.755l1.811-5.58c-.604-.195-14.82-4.675-27.927 4.536-13.182 9.263-14.76 17.66-14.902 18.587zM211.308 139.661s4.266-6.107 3.494-12.823c-.377-3.317-1.914-6.722-4.659-7.93-5.1-2.24-7.36 3.54-7.36 3.54s7.178 1.771 8.525 17.213z"/>
  <path fill="#463014" d="M164.468 148.97c-.178.332-.27.519-.27.519s13.301 9.986 26.938-.148c7.304-5.43 6.614-18.859 4.373-24.554-5.812 1.318-10.744 3.693-14.868 6.467 5.21-4.65 9.772-8.073 9.755-8.152l5.926-1.676 11.509-3.945c.147.878 4.345 20.556-7.777 33.965-5.37 5.945-30.55 19.259-42.502-3.507z"/>
  <path fill="#463014" d="M165.71 150.433c-7.492 11.402-26.389 4.886-26.062-7.168 0 0 12.626 6.97 23.784-5.864 6.515-7.492 27.394-28.151 55.703-21.286-19.55 4.3-45.433 22.16-53.425 34.318z"/>
  <path fill="#463014" d="M221.781 182.613c-1.803 1.041-8.162 7.624-8.162 17.468-.004 4.937.488 29.737 2.934 44.888-3.676 2.388-6.236 2.896-9.895 5.33-1.832-17.547-3.15-42.979-2.534-53.246.7-11.703 6.963-19.557 12.774-22.906 1.82-1.047 3.722-2.076 5.64-3.111 9.954-5.378 20.246-10.942 20.246-20.441 0-7.432-2.892-9.756-5.95-12.22l-.326-.267c-2.03-1.64-4.33-3.5-5.687-6.553-3.714-8.348-4.323-29.615-.004-35.013 2.153-2.69 7.928-11.736 6.269-17.815-.636-2.32-2.098-4.04-4.476-5.258-2.518-1.29-5.914-1.943-10.104-1.943-8.218 0-17.342 2.503-22.044 3.993-16.813 5.329-37.1 20.693-42.92 25.275-.165.128-.262.203-.28.215l-3.723 2.588 2.327-3.894c.148-.243 14.884-24.479 41.238-33.365 5.128-1.729 15.2-4.63 25.1-4.63 5.894 0 10.89 1.03 14.854 3.057 4.827 2.469 8.094 6.408 9.454 11.388 3.328 12.207-7.512 25.798-7.882 26.233-1.264 2.256-1.798 18.643 1.117 25.201.402.906 1.502 1.795 2.9 2.92.435.353.92.72 1.44 1.112 4.12 3.109 10.345 7.806 10.345 18.633 0 14.814-15.014 22.846-27.075 29.304-1.982 1.065-3.873 2.073-5.576 3.057z"/>
  <path fill="#463014" d="M203.87 66.985c-2.388-4.045-8.495-11.855-22.57-18.718-15.709-7.656-33.89-11.542-54.044-11.551v-.005h-.078v.002c-20.159.01-38.342 3.897-54.046 11.552-14.076 6.864-20.181 14.673-22.571 18.718l-1.025 1.357 12.054 2.683.381-.483.202-.442C62.36 69.3 63.975 65 77.414 58.447c14.367-7.007 31.124-10.56 49.8-10.566 18.68.006 35.429 3.559 49.795 10.566 13.44 6.553 15.06 10.854 15.245 11.65l.2.443.379.483 12.057-2.683z"/>
  <path fill="#463014" d="M219.608 68.728c6.454-5.355 1.648-10.324 2.158-16.408.272-3.237.528-6.291 1.596-7.976 5.94-9.378 19.95-12.224 20.095-12.254l6.577-1.288-4.354-5.092c-.564-.66-18.441-17.717-46.11-8.785-19.348 6.241-33.674 27.405-34.206 28.26l9.699 4.563c.118-.18 11.444-20.074 28.046-25.427 13.42-4.33 25.789-.21 31.084 2.49-5.629 2.248-12.996 6.343-17.433 13.348-2.093 3.309-2.443 7.474-2.783 11.508-.45 5.34-.874 10.381-4.806 13.646z"/>
  <path fill="#463014" d="m207.186 65.687 1.358-1.131c3.614-2.998 4.02-7.84 4.456-12.988.35-4.142.712-8.428 2.93-11.932 4.078-6.435 10.534-10.467 15.851-12.865-3.183-1.348-9.165-3.358-16.542-3.358-4.075 0-8.051.616-11.834 1.837-15.4 4.966-26.282 22.914-27.514 25.02l-.461.73-11.478-5.398.583-.932c.135-.217 14.54-22.16 34.738-28.673 5.402-1.745 10.83-2.626 16.135-2.626 19.438 0 30.917 11.589 31.016 11.706l5.444 6.365-8.214 1.61c-.137.028-13.803 2.887-19.463 11.819-.937 1.484-1.183 4.42-1.45 7.537-.154 1.854.235 3.66.614 5.406.821 3.786 1.669 7.702-3.12 11.67l-.415.346z"/>
  <path fill="#463014" d="M193.97 58.544c.003-.021 2.608-11.405 9.832-17.152 10.186-8.104 22.627-3.793 22.743-3.755l1.811-5.58c-.604-.195-14.82-4.675-27.927 4.536-13.182 9.263-14.76 17.66-14.902 18.587z"/>
  <path fill="#463014" d="m184.45 55.803.114-.766c.143-.969 1.794-9.748 15.303-19.245 5.559-3.906 12.219-5.972 19.26-5.972 5.342 0 9.115 1.174 9.533 1.309l.928.3-2.422 7.443-.935-.31c-.349-.118-3.49-1.129-7.718-1.129-5.417 0-10.16 1.59-14.097 4.726-6.908 5.494-9.465 16.488-9.488 16.596l-.254 1.118zm41.462-19.373 1.203-3.706c-1.42-.36-4.293-.946-7.987-.946-6.732 0-12.834 1.89-18.134 5.615-11.088 7.794-13.738 14.836-14.34 17.183l6.654 2.65c.87-3.094 3.752-11.717 9.887-16.6 4.235-3.365 9.53-5.144 15.317-5.144 3.328 0 6.01.574 7.4.948zM150.931 299.58c-5.035-5.383-8.013-11.176-8.733-12.955-.412-1.014-.88-2.946.596-4.464 1.15-1.175 3.145-1.779 5.935-1.779h4.292c4.474 0 9.706 0 12.817.003l2.609.004c3.665 0 5.47 1.049 6.34 1.928 1.263 1.279 1.46 3.058.59 5.286-2.331 5.951-7.62 10.808-9.184 12.154-2.048 1.769-4.988 2.816-7.875 2.816-2.96 0-5.583-1.064-7.387-2.993zM155.29 151.103l10.42-.67s-2.662 4.698-4.388 10.774c-1.95 6.873 1.783 16.918 1.783 16.918s-13.903-15.74-7.815-27.022z"/>
  <path fill="#e78724" d="M127.219 113.88c-6.645 0-15.31-.182-21.81-4.854 0 0 8.512 14.921 21.798 14.921l.012-1.888.011 1.888c13.287 0 21.798-14.92 21.798-14.92-6.5 4.67-15.17 4.853-21.81 4.853z"/>
  <path fill="#463014" d="M145.514 113.808c-6.665 4.034-12.617 5.432-18.295 5.556-5.68-.124-11.63-1.522-18.296-5.556 0 0 9.706 11.845 18.247 11.936v.007c.015 0 .03-.004.048-.004.015 0 .03.004.048.004v-.007c8.538-.091 18.248-11.936 18.248-11.936zM168.304 330.104l-.744-9.662c31.299-2.407 41.16-32.402 41.212-35.56h9.691c.004 7.303-13.056 42.37-50.16 45.222z"/>
  <path fill="#fff" d="M178.73 267.28c.583-3.351.639-6.53-.068-9.653 2.825-2.12 7.881-2.907 11.678-4.138 3.105-1.965 18.997 2.014 30.524-11.936 14.443-17.468 11.4-27.897 11.4-27.897 3.706 4.114 7.292 2.546 12.94 21.73 5.652 19.188-2.657 32.564-18.137 45.993-7.313 6.343-17.652 8.957-26.544 9.957 2.979-2.99-5.089-3.29-10.646-5.37.445-4.49-.302-8.848-3.648-12.357-2.014-2.116-4.615-3.38-7.308-4.388-.151-.348-.281-.67-.42-1.004.089-.305.173-.613.229-.937z"/>
  <path fill="#c9c9c9" d="M189.946 285.849c.325-.942.564-1.903.803-2.87.26-1.055 1.54-4.047-.04-.631.406-.875.671-1.776.867-2.684 25.07-.032 46.88-17.245 42.662-53.432 3.282-4.357 7.88 8.786 7.88 8.786s12.552 36.442-19.862 50.566c-10.8 4.71-20.344 8.087-22.596 6.724-4.696.953-8.93-2.317-10.514-4.468.296-.66.574-1.322.8-1.991z"/>
  <path fill="#463014" d="M179.178 262.033c-.034-3.054-.662-6.013-2.135-8.96-.104-.203-.224-.398-.333-.596 9.646-.082 20.757-1.006 30.218-4.793 10.398-4.16 23.405-18.39 25.642-35.11 0 0 19.584 15.112 13.829 47.459-5.406 30.373-30.82 40.275-59.806 41.95-.015-.196 3.262-6.962 2.225-11.105 16.456 1.197 34.863-5.163 43.753-19.783 8.13-13.382 5.849-36.228 2.506-39.576-8.152 25.732-37.5 30.963-55.899 30.514z"/>
  <path fill="#463014" d="M190.884 269.652c-3.463-3.744-9.83-8.206-24.512-8.206l-39.104-.024h-.096c-11.27.008-39.111.024-39.111.024-14.677 0-21.044 4.463-24.51 8.206-5.047 5.449-5.838 13.028-2.346 22.502 9.278 25.217 22.317 50.837 65.965 50.873v.004c.016 0 .03-.004.048-.004.015 0 .03.004.048.004v-.004c43.644-.038 56.682-25.656 65.964-50.873 3.492-9.474 2.698-17.053-2.346-22.502zm-6.795 20.734c-4.421 12.663-16.301 43.313-56.872 43.366-40.576-.053-52.453-30.702-56.873-43.366-2.447-7.026-2.26-12.225.572-15.454 1.934-2.208 6.379-4.843 16.507-4.843l10.581-.004c7.806-.007 17.607-.015 29.214-.02 11.603.005 21.408.013 29.212.02l10.577.004c10.132 0 14.575 2.634 16.51 4.843 2.83 3.232 3.018 8.428.572 15.454z"/>
  <path fill="#463014" d="M176.143 243.612c5.217 15.307 15.87 27.696 15.87 27.696s-14.655-.667-15.465-3.26c-.595-1.912-13.231-31.49-18.08-66.14 4.558 7.495 17.228 40.393 17.675 41.704z"/>
</svg>
