<svg xmlns="http://www.w3.org/2000/svg" viewBox="0 0 220.851 256.005">
  <g stroke-width=".719">
    <path fill="#010101" d="M34.653 111.916C27.18 115.432 7.4 131.257 3.59 135.946c-3.956 4.69-5.128-2.637-1.025-14.799 3.222-9.817 11.429-23.15 25.202-34.58 8.058-6.593 25.788-16.117 36.63-21.686 2.199-1.172 30.625-13.187 55.974-19.195 2.198-.586-2.638 3.663-3.37 6.008-3.81 11.136-79.857 58.903-79.857 58.903zm107.11 134.36c1.319 7.913.147 8.499-8.058 9.525-8.206 1.026-14.213-2.052-16.41-4.103-2.2-2.052-2.638-6.593-.44-10.696 1.319-2.638 2.638-3.517 3.37-6.74.733-3.077 1.32-3.81 1.905-4.982.585-1.026.733-2.052.879-9.231.147-7.18 0-20.66.733-26.374.733-5.86 26.082 2.637 26.082 2.637s-6.008 14.945-7.62 18.608c-1.612 3.664-1.465 10.696-1.465 12.162 0 1.466-.586 4.395-1.026 4.542-.44.146 1.466 3.956.586 6.154-.587 2.052 1.318 7.327 1.464 8.498zm9.672-224.04c-.88-5.567 0-16.558 1.171-18.316 3.664-4.982 23.004-5.567 27.108.293 1.758 2.637 1.612 8.792 1.319 12.748-.293 3.956-1.319 12.454-1.465 15.24-.146 2.05-21.392 5.274-26.081-.294-1.32-1.465-2.052-9.67-2.052-9.67zm43.078 209.82c8.938 6.448 15.825 7.62 20.367 9.964 4.542 2.345 3.37 6.888-4.25 8.206-6.154 1.172-15.825-1.172-22.27-1.172-6.447 0-20.808.733-24.618-1.905-4.395-3.076-2.491-8.792-2.491-8.792 1.173-3.222 4.103-10.403 3.224-16.264-.88-5.86-2.052-9.084-4.25-14.506-2.197-5.42-3.809-18.754-1.757-19.488 2.051-.734 1.464 0 4.102.586 2.638.585 5.568 1.465 11.282 1.465s12.015-.88 14.213-1.318c2.198-.44 3.956-.88 3.223 3.663-.732 4.542-2.93 13.04-3.077 19.634-.146 6.593-.146 14.213.294 15.532.439 1.318 3.663 2.784 6.007 4.395z"/>
    <path fill="#8ac640" d="M163.155 36.895c-16.117 13.92-47.328 17.73-93.628 35.606-11.869 4.542-43.518 18.17-51.137 32.382 25.642-14.799 35.166 5.568 37.217 26.521 1.905 19.634 11.722 29.892 36.924 29.305 25.935-.585 33.847 14.506 41.027 32.236 13.92-67.842 36.192-81.028 50.55-92.603 30.478-24.763-7.032-68.428-20.952-63.446z"/>
    <path fill="#8ac640" d="M163.155 36.895c-38.682 13.48-76.926 16.85-121.91 44.544-10.696 6.594-33.26 21.538-37.657 50.111 16.41-18.17 54.36-41.027 100.81-55.533 23.444-7.326 40.588-12.162 61.394-20.22-1.464-9.379-1.464-13.042-2.637-18.903z"/>
    <path fill="#010101" d="M212.535 117.186s-2.783 9.525-8.351 12.602c0 0-4.103 1.466-12.308-3.076-2.345-1.319-4.103-5.86-3.957-7.327.147-3.517 2.345-5.128 2.345-5.128s2.345-3.957 5.128-3.81c2.784.146 7.473.586 8.939-.733 1.318-1.465 8.497 2.637 8.204 7.473zm-59.782-92.164s-.585 7.474-1.611 12.162c-.147.88-4.542 1.32-7.766 2.638 6.154 17.583 43.225 17.436 48.06 8.792-2.344-1.612-7.032-4.103-9.23-4.982-2.198-.88-2.052-.733-2.198-4.835-.146-4.104-.44-11.722-.733-13.774-.293-2.052-23.004-2.052-26.521 0z"/>
    <path fill="#f0efef" d="M154.215 25.026s0 4.25-.44 8.352c-.145 1.905-.292 3.077-.585 4.542-.146.88 4.982 4.396 6.447 12.162 7.033 15.678 23.298 7.913 30.038.44-2.344-1.612-6.154-3.81-10.549-5.568-2.198-.88-1.172-2.784-1.318-6.887-.147-4.102-.733-10.11-1.026-12.308-.294-2.197-19.05-2.783-22.566-.732z"/>
  </g>
  <g fill="#010101" stroke-width=".719">
    <path d="M152.755 25.026s-.146 2.638-.585 5.715c1.904 1.904 4.395 4.542 6.3 6.154 1.32 1.173 4.542 1.026 7.473 1.026 2.638 0 4.982.293 6.008-.293 2.345-1.172 5.714-4.102 7.62-6.3-.147-2.638-.293-5.129-.44-6.302-.148-2.051-22.86-2.051-26.375 0z"/>
    <path d="M166.085 36.162c-1.758 0-3.81-.146-5.421-.44-.733-.145-1.466-.585-2.052-.878-1.026-.733-2.052-1.612-3.223-2.491-2.345-1.758-2.49-2.784-2.49-3.223 1.025-9.232-.294-16.997-.294-16.997s-1.026-3.956 4.542-4.982c5.568-1.026 8.938-1.172 8.938-1.172s3.517 0 8.938 1.172c5.568 1.026 4.542 4.982 4.542 4.982s-1.319 7.766-.293 16.997c0 .439-.146 1.465-2.491 3.223-2.052 1.465-3.663 3.076-5.274 3.37-1.613.293-3.664.44-5.422.44z"/>
    <path d="M166.085 2.169c-9.67 0-11.576 2.637-14.36 5.568-.585.732-.146 5.128.88 14.506h1.319s-.88-2.638-.733-5.715c.147-3.077.733-2.93.293-3.663-.586-.88-1.759-2.345.88-3.81 2.637-1.465 6.74 1.172 11.721 1.319 4.982-.147 9.231-2.784 11.868-1.319 2.638 1.465 1.466 2.93.88 3.81-.586.88.146.586.293 3.663.146 3.077-.733 5.715-.733 5.715h1.318c.88-9.378 1.466-13.48 1.026-14.213-2.49-3.224-4.981-5.715-14.652-5.86zm46.448 115.46s-2.783 8.938-8.205 12.015c-1.172-.586-1.025-1.465-2.051-2.784-.294-.439-1.32-.733-1.758-1.172-.44-.44-.293-1.173-1.026-1.758-.586-.586-1.026-.147-1.612-.586-.586-.586-.733-1.319-1.172-1.758-.293-.293-1.465-.44-1.758-.733-.733-.733-7.18-2.051-6.886-3.517.585-2.198 1.758-3.81 1.758-3.81s2.784-4.102 5.567-3.956c2.784.147 5.422.733 6.887-.586 1.612-1.466 10.697 3.956 10.257 8.645z"/>
    <path d="M193.485 52.866s9.231-2.198 15.532 3.81c6.301 6.154 5.861 13.773 3.957 18.462 1.611 1.905 4.542 7.18 2.344 13.48 9.67 8.205 5.421 20.807-3.223 29.16 0 0-2.052-7.62-10.257-8.06.293-2.93-7.62-5.275-3.957-12.895-5.568-1.318-5.42-5.128-6.3-9.816-.733-4.69 1.904-34.14 1.904-34.14z"/>
  </g>
  <g stroke-width=".719">
    <path fill="#f0efef" d="M190.115 56.97s10.696-5.422 16.997.732c6.3 6.155 4.542 12.894 2.638 17.583 1.611 1.905 5.42 7.327 3.076 13.773-.44 1.466-3.663 1.466-6.008 5.276 5.86-3.371 9.525-2.492 10.843 1.757 2.052 6.594-2.491 14.506-6.447 18.902 0-.147-.146-.294-.146-.44-.586 2.199-1.319 6.447-5.714 11.136-2.199 2.345-3.957 2.052-6.448 1.466-2.93-.733-3.956-2.053-8.058-4.25-2.345-1.318-1.026-2.93-1.026-4.249 0-.293.293-.733.733-1.318.293-.733 1.172-1.905 2.49-3.224 0 0 1.905-2.637 4.69-2.491 2.784.147 5.714-.439 6.447-1.172 0-5.128-5.86-5.275-3.81-14.066.147-.44.88-1.173 3.224-1.465-3.517-.733-5.129-.88-7.62-3.224-1.758-1.611-3.077-3.663-3.517-6.3-.878-4.542-2.344-28.426-2.344-28.426z"/>
    <path fill="#010101" d="M159.195 47.738c-.879-1.172-5.42-7.033-14.066-9.377-2.49-.733-4.102 1.318-6.593 2.784-.733-.44-3.956-1.905-5.714-.88-1.758 1.025-2.93 2.052-4.689 2.784-.88-.44-3.223-.44-5.128.293-1.905.586-4.836 1.905-7.62 5.714-1.758 6.301 31.063 1.612 31.063 1.612z"/>
    <path fill="#8ac640" d="M159.495 47.738c-4.69-1.612-3.956-7.033-14.36-7.912-2.051-.147-3.37 1.465-4.835 2.49.733.734 1.465 1.905 1.905 3.077-1.319-1.464-3.663-3.37-6.008-3.81-2.198-.438-3.663 1.173-6.008 2.346.44.438.88 1.171 1.465 2.051-2.052-1.318-3.516-1.758-6.3-.733-1.905.586-5.568 2.198-8.352 6.154-1.758 6.301 29.598-.733 29.598-.733z"/>
    <path fill="#010101" d="M187.035 50.082s0-1.612-.146-3.076c0-.293-1.172-1.026-1.172-1.319l-.293-.293s2.345-1.319 4.103-.586c1.904.586 2.93 3.077 2.93 3.077 3.37-1.172 3.663.147 5.275 1.905 3.517-.733 3.956.585 6.154 3.81 0 0-2.637-.44-7.766.438-4.982.733-9.084-4.102-9.084-3.956z"/>
    <path fill="#8ac640" d="M186.455 49.35s.88-.734.586-.88c1.611-.88 3.81-1.904 4.836.88 3.37-1.173 3.81.439 5.42 2.198 4.103-1.905 4.396.439 4.69 1.464-1.32 0-3.223.147-5.861.44-4.982.733-9.817-4.25-9.67-4.103z"/>
    <path fill="#010101" d="M136.635 45.686s8.352 2.93 15.385 2.49c7.034-.585 19.048-1.17 25.495 2.639 0 0 6.594-2.345 12.748-.733 6.155 1.611 17.437 12.162 14.067 23.297-.293.733-2.198 1.905-4.396 2.638 0 0 1.173 4.981-.879 9.084-2.051 3.956-6.593 11.576-6.74 22.125-.146 1.758-.439 5.42-.732 7.179-11.43-.439-29.012-4.689-46.302-4.395.146-1.905.292-3.077.44-4.982h.438c-.879-4.836-1.172-7.327-2.052-10.99-5.567-3.516-11.429-7.619-16.41-15.385-4.835-7.766 8.939-32.968 8.939-32.968zm56.558 79.123s9.085 32.53-1.611 46.156c0 0 1.611 6.3-2.052 13.041-.586 2.93-1.319 5.568-1.758 8.498-1.905 12.162-5.129 17.29-6.008 36.777l-8.792-.146s-1.026-14.066-4.102-21.539c-1.758-4.248-8.646-9.964-8.351-15.678.292-4.396 1.171-8.059 8.645-13.92.586-8.498-7.913-16.558-6.594-48.207z"/>
    <path fill="#f0efef" d="M190.555 123.486c2.345 14.945 7.766 37.071-2.051 47.913a22.093 22.093 0 0 1 .146 8.352c-.293 1.758-.88 3.663-1.612 5.714-1.465 3.517-2.051 8.645-2.49 11.722-1.906 12.162-1.906 12.75-2.785 32.236l-8.792-.147s-1.025-14.066-4.102-21.538c-1.758-4.249-5.421-7.912-5.714-13.627-.293-4.395 2.784-13.187 10.111-12.894-.44-17.729-8.645-14.213-10.843-51.137zm-53.92-77.804s3.223 1.026 6.74 1.32c3.516.292 7.326 0 10.695-.148 7.033-.585 16.997-1.318 23.591 2.491 0 0 3.663-1.172 7.62-.88 1.758.147 3.517 1.613 5.568 2.199 6.446 1.611 12.6 12.308 9.816 21.979-.293.733-2.344 0-4.689.733.439 2.052.733 6.74-1.612 11.722-2.49 4.982-5.714 11.43-5.128 23.737-15.385-.733-22.271-1.758-37.51-2.491-1.319-5.422-2.199-10.843-2.345-13.627 2.052-1.026 3.223-1.904 4.836-3.663-4.395.733-6.154.44-8.792-1.026-2.637-1.465-7.326-6.154-9.67-9.23-.293-.294-1.905 4.54-5.568 4.688-1.319-1.905 4.249-7.327 3.223-9.378-3.662-7.473 3.225-28.426 3.225-28.426z"/>
    <path fill="#010101" d="M191.725 111.326s.293 5.276.293 6.594c0 1.465 1.173 5.86 1.319 7.912-1.612 2.784-8.645 9.085-21.392 11.43-12.601 2.637-29.305-17.144-29.305-17.144.44-1.905 1.905-7.473 2.93-10.403.147-.292.44-1.025.44-1.318 1.32-1.905 45.715 2.93 45.715 2.93z"/>
    <path fill="#f0efef" d="M188.505 111.766c0 3.663.586 6.301 1.026 8.646.733 4.25 1.904 7.033 1.904 9.817 0 8.498-11.136 7.032-20.514 7.326-12.6 2.638-23.297-17.143-23.297-17.143.88-3.37 1.466-7.18 2.784-10.403.146-1.758.44-3.956.586-4.982 17.876 0 30.477 1.026 37.804 1.758.293 1.612 0 4.396-.292 4.982z"/>
    <path fill="#010101" d="M174.435 130.666s-7.765-17.29-31.063-12.16c-5.567 15.677-13.04 33.7-8.205 53.187-4.835 6.594-10.403 10.257-10.403 22.418 0 12.162.587 14.213.587 14.213l17.143.88s5.568-7.179 7.765-14.945c.587-2.198 1.173-6.154.733-10.696.586-.879 3.077-2.93 3.37-6.886 0 0 8.352-4.395 13.187-15.091 4.543-9.673 3.37-18.024 6.887-30.92z"/>
    <path fill="#f0efef" d="M174.435 130.666c-.438-1.61-6.3-17.436-27.986-12.748-12.747 33.994-8.058 48.061-6.154 54.214-8.645 10.99-12.6 13.333-10.842 35.606h11.43c5.274-8.351 6.446-11.429 6.739-22.418 0-.44-1.611.88-2.784 2.345.88-4.542 3.37-5.421 5.275-8.205.88-1.173 1.612-2.93 1.612-5.275 10.257-6.887 14.066-15.532 16.264-24.47 1.758-6.154 3.81-16.264 6.447-19.048z"/>
    <path fill="#010101" d="M138.245 107.076s3.957.146 7.474 1.32c3.37 1.17 3.37 1.903 4.689 3.37 1.318 1.465 4.542 3.662 3.956 5.86-.293 1.172-1.026 1.465-2.051 2.491-.44.44-3.664 3.956-4.396 4.395-.44.293-1.026.733-1.466 1.026l-2.197 1.465c-1.466.733-2.492 1.173-4.103 1.026 0 0-3.663-.146-6.008-2.637 0 0-.293-1.173.294-1.758 0 0-3.078-2.638-3.957-4.396-.88-1.757-.88-4.249-.293-5.567.293-1.32 6.007-4.983 8.059-6.595zm3.664 142.57-.44 3.664s-1.318 1.612-11.135 1.465c-9.964-.146-12.601-3.223-13.48-4.835l-.586-3.81s1.905-2.784 2.344-2.784c3.224.293 14.213 4.69 21.833 5.86.731 0 .877.294 1.464.44zm21.246-7.472c0 1.611-.147 1.611-.147 3.223 1.758 1.319 6.155 2.052 14.506 1.904 12.162-.292 23.444 3.664 37.217 1.32l.147-2.638-1.318-.146-48.793-3.957z"/>
    <path fill="#010101" d="M173.855 247.306h3.663c7.913-.292 15.386 1.466 23.444 1.905 4.25-.146 9.525-1.172 9.085-4.249l-41.613-3.517c-2.491 2.784-.587 5.128 5.421 5.861zm-47.767-61.687c1.319.88 10.257 6.155 24.763 5.422-.293 2.783-.146 8.205-6.593 17.729-3.224 4.688-6.008 12.895-6.594 23.298.147 2.344 1.465 4.395-.293 7.472.586 1.904 2.93 5.714 4.103 8.059 1.172 2.345 1.758 4.982-6.008 5.129-7.913.146-20.66-.733-18.901-6.887.88-3.223 3.37-6.594 3.663-7.913.293-1.318.293-5.274 2.784-7.912 2.198-7.326 1.465-14.36 1.026-20.953-.733-6.887-.88-17.876 2.051-23.444zM139.715 66.2c10.403-13.92 1.612-25.055-15.09-21.686-6.741 1.32-13.48 6.009-13.92 14.506-2.198.293-7.18.586-9.671 9.67-1.904 7.034-2.93 8.353-6.3 11.869-2.198 2.491.146 7.62 1.757 11.283 5.422 12.6 22.125 13.773 33.408 23.297 3.81-1.026 7.766-5.275 8.938-8.058-9.524-11.283-7.473-15.678-11.283-21.54 4.104-1.466 13.481-7.18 12.162-19.34z"/>
    <path fill="#f0efef" d="M137.655 65.32c.586-.88 1.612-2.783 2.052-3.517.147-.146 1.758 2.638 1.905 2.492 3.956-6.448 4.982-15.825.439-16.704-1.026-.147-2.93-.586-4.542-1.173-2.93-1.026-5.567-1.026-10.257-.146-6.447 1.172-12.894 5.86-12.894 12.6 0 .44 4.541 1.759 5.86 7.18-2.198-3.077-6.008-6.447-10.55-3.516-4.835 3.077-2.344 10.11-8.79 17.436-2.2 2.49-1.906 5.422.438 11.282 3.81 9.231 21.833 14.213 31.65 23.004 2.344-1.026 3.956-3.37 5.128-5.128-6.594-6.887-9.231-13.334-11.136-18.023-2.344-5.422-4.982-8.498-10.11-12.602 2.637 1.025 4.689 2.051 5.86 2.93 1.318.88 3.223 1.026 4.982.44 6.302-2.196 9.672-10.988 9.965-16.555z"/>
    <path fill="#010101" d="M201.395 67.665c-.44 5.568-4.542 2.784-6.74 1.759-4.395-1.905-8.791-3.224-13.92-3.224-5.128 0-11.721.44-17.435 1.905-7.913 2.198-10.257 2.052-13.774.293-3.516-1.905-9.67-6.594-9.67-6.594s-.147 1.465 1.319 3.37c1.904 2.345 6.154 5.275 11.868 7.18 2.784.88 4.982.292 7.473-.293 13.041-3.224 26.813-3.81 38.389 3.223.586.293 2.638-.586 3.517-1.905 1.171-1.904-1.026-5.714-1.026-5.714z"/>
    <path fill="#0a1825" d="M134.725 123.486c1.172.733 2.638 1.173 4.249 2.492 0 0-1.319 0-1.904-.586-.733-.44-2.199-1.758-2.345-1.905z"/>
    <path fill="#f0efef" d="M177.075 7.297c-.44-1.318-3.663-3.664-11.136-3.664-8.059 0-10.403 2.492-10.549 3.81 0 .44-.586 5.13-.733 7.033 0 0 0 2.345.146 5.861.147 2.344.733 3.663 1.026 6.74.293 3.223 1.173 5.275 2.784 7.913.733.438 1.319.879 2.052 1.025 2.93.586 8.059.733 10.843 0 1.611-.44 3.663-3.223 4.102-5.714.586-3.077 1.172-5.275 1.319-7.18.293-1.904.44-6.153.585-7.326.44-3.223-.292-8.205-.438-8.498z"/>
    <path fill="#010101" d="M161.685 188.396s7.767 3.37 26.961.44c0 0-5.42 27.254-2.93 40.88 0 0 2.49 3.517 20.953 10.257 0 0 8.205 2.052 7.913 6.155 0 0 .293.879-9.67.585-9.964-.293-19.342-2.051-25.936-2.051-6.593 0-13.627.293-14.799-1.612-1.318-1.758.293-6.3 2.198-8.938 2.052-2.784 1.465-4.836 1.32-9.817-.442-13.04-10.406-26.52-6.01-35.898z"/>
    <path fill="#8ac640" d="M160.075 190.896c-1.025 1.466.146 7.033 1.612 12.454 1.465 5.422 4.69 8.646 5.422 17.583.732 8.792.879 9.964-1.612 15.091-2.492 5.128-3.224 9.818 5.42 9.964 8.645.147 13.335-.146 22.126 1.173 8.792 1.319 11.869 1.758 16.704 1.026 4.835-.733 5.86-2.345 3.81-3.81-2.052-1.465-10.55-3.077-14.214-6.008-3.517-2.637-13.48-7.033-13.626-8.205-.44-3.957-.586-18.316.146-23.004.733-4.69 1.758-11.429 2.052-13.187.293-1.758 1.758-3.517-.733-2.93-2.49.585-11.868 1.904-18.901 1.465-7.033-.44-7.766-2.051-8.206-1.611z"/>
    <path fill="#010101" d="M165.055 236.166c2.49 1.172 6.155 2.052 8.939 2.052 0 0-1.027 4.836.585 7.766 1.612 2.93-11.722 1.172-11.722 1.172l-.585-10.403zm38.83 12.601c2.344-.733 3.956-3.37 2.051-5.86-2.052-2.491-3.81-2.93-1.173-3.077 2.638-.147 12.308 5.714 12.308 5.714l-4.982 4.542zm-44.252-52.163c3.37 1.173 8.499 1.466 12.895 1.32 4.396-.147 10.99-.734 15.24-2.199 4.248-1.465 2.49 1.612 2.49 1.612l-2.345 2.198s-5.567 2.198-14.652 2.052c-10.696-.147-13.92-1.319-13.92-1.319zm.293 7.327c3.371 1.173 8.499 1.465 12.895 1.319 4.396-.146 10.257-.146 14.506-1.758 1.758-.586.733 1.905.733 1.905l-.733 1.318s-5.714 2.052-14.653 1.904c-10.696-.146-12.6-1.025-12.6-1.025z" opacity=".3"/>
    <path fill="none" d="M161.685 188.396s12.748 4.542 27.108 1.466c0 0-5.567 26.228-3.076 39.708 0 0 2.49 3.516 20.953 10.257 0 0 8.205 2.051 7.912 6.154 0 0 .293.88-9.67.585-9.964-.292-19.341-2.051-25.935-2.051-6.594 0-13.627.293-14.8-1.612-1.318-1.758.293-6.3 2.198-8.938 2.053-2.784 1.466-4.835 1.32-9.817-.441-12.894-10.405-26.374-6.01-35.752z"/>
    <path fill="none" d="M161.685 188.396s12.748 4.396 27.108 1.32c0 0-5.567 26.374-3.076 39.854 0 0 2.49 3.516 20.953 10.257 0 0 8.205 2.052 7.912 6.154 0 0 .293.88-9.67.586-9.964-.293-19.488-3.077-25.935-2.052-6.887 1.173-13.627.733-14.8-1.611-1.025-1.904.293-6.301 2.198-8.938 2.053-2.784 1.466-4.836 1.32-9.817-.441-12.894-10.405-26.374-6.01-35.752z"/>
    <path fill="#010101" d="M150.265 101.216c0 1.026 11.43 6.74 17.73 7.913 6.3 1.172 19.487 0 21.538-.44l-.293 2.052s-15.678 2.344-27.693-.88c-12.015-3.223-10.696-3.956-10.696-3.956z"/>
    <path fill="#f0efef" d="M125.795 226.206c1.759.88 8.06 2.492 12.162 1.613.586-.147 0-10.111 1.613-14.653 2.344-6.301 6.154-11.43 7.911-22.564-6.154-.587-13.187-2.199-16.85-3.371-4.688 14.36-3.076 26.667-4.835 38.976zm9.818 9.232c1.026.293 1.758 1.465 2.052.733.585-1.32-1.026-3.81-1.173-5.568v-.147c-1.318-1.171-10.257-1.318-9.67-.733-1.026 1.905-2.637 1.613-3.223 5.422-.293 1.904 2.052.293 4.249.146-3.956 2.637-8.498 6.008-9.231 8.938-.88 4.103.586 5.275 4.982 7.474 3.81.879 8.352 1.026 11.868.879 3.957-.733 4.69-2.637 3.517-5.275-1.76-3.957-2.931-9.085-3.37-11.87z"/>
    <path fill="#010101" d="M137.215 45.1c4.836 2.784 11.576 2.052 14.066 1.905.587 0 6.448-1.025 6.74-.88.586.147.586.587.586.587s-2.197 1.172-7.179 1.464c-4.689.293-10.257 0-13.333-1.464-3.663-1.612-.88-1.612-.88-1.612zm49.82 2.784c.879.586 6.593 2.784 9.084 5.421 2.198 2.346 1.026 2.199.586 1.613-.586-.733-5.128-3.81-6.887-4.542-1.758-.733-3.956-2.052-3.956-2.345 0-.293 1.173-.147 1.173-.147z"/>
    <path fill="#f0efef" d="M136.485 108.696c4.25-.292 8.646.733 11.43 3.663 1.465 1.466 3.81 3.077 3.516 4.542 0 .44-.88 1.613-1.611 2.492-.44.585-1.758 1.904-2.198 2.344-.586.44-2.638 2.052-3.077 2.344-.44.294-1.026 1.027-1.465 1.173-1.465.733-3.077.147-4.542-.585-1.465-.734.293-.88-1.319-2.052-3.956-2.784-6.154-4.69-4.542-10.111.146-1.026 1.757-2.198 3.808-3.81z"/>
  </g>
  <g fill="#010101" stroke-width=".719">
    <path d="M99.125 75.137c-13.187 5.276-46.742 21.98-56.266 27.108 7.913 4.982 11.575 16.996 12.748 29.158.146 1.173.293 2.199.44 3.37.146 1.026.293 1.759.439 2.2 0 .146 0 .439.147.585 8.645-23.59 39.56-48.5 40.734-50.404.585-.88-.733-4.69 1.318-8.351 2.638-4.69 7.767-6.742.44-3.665zm31.356 110.63c6.74-13.48 6.887-26.375 6.74-41.467 0-6.3 4.542-15.239 2.199-12.748-8.792 9.817-30.917 28.28-46.888 29.305 22.418-.732 31.21 10.55 37.95 24.91z" opacity=".4"/>
    <path d="M29.964 114.696c8.352-6.007 51.577-29.01 61.98-32.235 10.403-3.37 7.18-7.326 7.18-7.326s-42.2 18.169-67.401 33.847"/>
    <path d="M153.045 72.354c-3.37-1.318-6.007 2.638-5.128 6.448.88 3.81 8.792 8.058 8.352 21.98-.293 11.428-2.784 16.116-2.784 16.116l-5.568-7.032s-.879-15.825-2.784-18.17c-1.904-2.345-7.912-6.594-10.257-8.792-2.344-2.198 2.637-5.128 2.345-9.231-.293-3.956 2.49-11.868 2.49-11.868zm20.367 62.42c-.292 10.988 2.199 27.253 3.224 35.02 1.026 7.765 2.344 8.351 0 11.868-2.344 3.37-5.421 8.939-5.421 8.939l-10.111-.88s8.059-10.257 8.498-12.162c.44-1.904-4.103-16.41-4.103-16.41zm-19.488-102.57c2.052 4.54 4.542 6.592 8.498 7.912 2.345.879 11.575 2.051 15.24-2.052 1.61-1.905.585-7.033.585-7.033l-8.352 6.74-11.282-2.051-1.319-3.37z" opacity=".4"/>
  </g>
  <path fill="#8ac640" stroke="#010101" stroke-linejoin="round" stroke-miterlimit="10" stroke-width="1.141" d="M154.805 42.316c3.81 2.492 13.334 4.836 15.971 5.276 2.638.585 6.887-2.784 8.939-3.663 2.198-1.026 6.008-1.613 10.403 2.344.44.44-1.026 2.344-1.026 2.344-.147-.146-1.026-.146-2.199-.733-1.171-.585-2.197-1.025-3.955-.879-7.327.88-8.499 3.37-14.945 1.904-6.447-1.466-8.06-2.637-14.36-2.344"/>
  <g stroke-width=".719">
    <path fill="#8ac640" d="M153.485 42.755c4.836 2.052 14.213 4.25 16.85 4.836 2.637.586 6.887-2.052 8.939-3.37 3.663-2.345 8.351-.44 10.55 2.051 1.464 1.612 2.051 2.638 2.051 3.077 0 .586-1.758 0-1.758 0-1.026-.44-2.198-.585-3.077-1.173-1.172-.585-2.345-1.464-4.102-1.318-7.327.88-8.792 3.37-15.092 1.905-6.3-1.466-7.912-2.784-14.652-2.345"/>
    <path fill="#010101" d="M130.775 179.606c-.292-.292.293-.585 0-.585-1.904 0-4.542-1.465-6.008-3.517-6.3-9.084-15.532-15.091-32.235-14.652-25.056.585-35.02-9.67-36.924-29.305-1.025-10.696-3.956-21.1-9.964-26.961l-3.517 2.198c6.74 5.86 8.939 15.385 10.403 28.426 2.345 19.634 18.17 28.72 36.631 29.012 19.195.293 26.081 4.25 33.26 13.92 2.345 3.077 4.983 4.103 7.034 4.542z"/>
    <path fill="#010101" d="M198.765 85.394c.44 2.198 1.612 6.447 3.956 8.498 1.027 1.026 1.173 1.319.294 1.319-.88 0-7.327-.293-7.327-.293l-1.758-3.077z" opacity=".4"/>
  </g>
</svg>
