<?xml version="1.0" encoding="UTF-8"?>
<svg width="256" height="256" version="1.1" viewBox="0 0 256 256" xmlns="http://www.w3.org/2000/svg">
 <g stroke-width=".71936">
  <path d="m52.228 111.91c-7.4734 3.5155-27.254 19.341-31.063 24.03-3.9565 4.6888-5.1283-2.6372-1.0258-14.799 3.2227-9.8171 11.429-23.151 25.202-34.58 8.0583-6.5937 25.788-16.117 36.631-21.686 2.1984-1.1726 30.624-13.187 55.973-19.195 2.1984-0.58628-2.6372 3.663-3.3702 6.0074-3.8097 11.136-79.856 58.903-79.856 58.903zm107.11 134.36c1.3186 7.9122 0.14675 8.4985-8.0583 9.5243-8.2058 1.0258-14.213-2.0516-16.411-4.1025-2.1984-2.0523-2.6372-6.5937-0.43953-10.696 1.3193-2.6379 2.6379-3.517 3.3709-6.7404 0.73231-3.0767 1.3186-3.8097 1.9042-4.9816 0.58556-1.0265 0.73303-2.0523 0.87906-9.2316 0.14675-7.1792 0-20.66 0.73303-26.374 0.73303-5.8606 26.082 2.6372 26.082 2.6372s-6.0081 14.945-7.6195 18.608c-1.6121 3.6637-1.4653 10.696-1.4653 12.162s-0.58556 4.3953-1.0258 4.542c-0.43953 0.14603 1.4653 3.9558 0.58556 6.1541-0.58628 2.0516 1.3186 7.3267 1.4646 8.4985zm9.6711-224.04c-0.87978-5.5679 0-16.558 1.1718-18.316 3.6637-4.9823 23.004-5.5679 27.108 0.29278 1.7581 2.6372 1.6114 8.7913 1.3186 12.748-0.29278 3.9558-1.3186 12.454-1.4653 15.239-0.14604 2.0516-21.392 5.2744-26.081-0.2935-1.3193-1.4646-2.0516-9.6704-2.0516-9.6704zm43.078 209.82c8.9381 6.4476 15.825 7.6195 20.367 9.9639 4.542 2.3451 3.3702 6.8872-4.2493 8.2058-6.1541 1.1718-15.825-1.1726-22.271-1.1726s-20.807 0.73303-24.617-1.9042c-4.3953-3.0767-2.4912-8.792-2.4912-8.792 1.1726-3.2227 4.1025-10.403 3.2235-16.264-0.87906-5.8606-2.0516-9.0841-4.2493-14.506-2.1976-5.4211-3.809-18.754-1.7574-19.488s1.4646 0 4.1025 0.58556c2.6372 0.58556 5.5679 1.4653 11.282 1.4653s12.015-0.87978 14.213-1.3186c2.1976-0.43953 3.9558-0.87978 3.2227 3.663-0.73231 4.542-2.93 13.041-3.0767 19.634-0.14603 6.5937-0.14603 14.213 0.2935 15.532 0.43881 1.3186 3.663 2.7839 6.0074 4.3953z" fill="#010101"/>
  <path d="m180.73 36.889c-16.117 13.92-47.328 17.729-93.628 35.606-11.869 4.542-43.518 18.169-51.137 32.382 25.642-14.799 35.166 5.5679 37.217 26.521 1.9042 19.634 11.722 29.892 36.924 29.305 25.935-0.58556 33.847 14.506 41.027 32.236 13.92-67.842 36.192-81.028 50.55-92.603 30.478-24.763-7.0325-68.428-20.952-63.446z" fill="#8ac640"/>
  <path d="m180.73 36.889c-38.682 13.48-76.926 16.85-121.91 44.544-10.696 6.5937-33.261 21.538-37.657 50.111 16.41-18.17 54.36-41.027 100.81-55.533 23.444-7.3267 40.588-12.162 61.394-20.221-1.4646-9.3783-1.4646-13.041-2.6372-18.902z" fill="#8ac640"/>
  <path d="m230.11 117.18s-2.7839 9.5243-8.3518 12.602c0 0-4.1025 1.4653-12.308-3.0767-2.3444-1.3186-4.1025-5.8606-3.9565-7.3267 0.14675-3.517 2.3444-5.1283 2.3444-5.1283s2.3451-3.9565 5.1283-3.8097c2.7846 0.14603 7.4734 0.58556 8.9388-0.73303 1.3179-1.4653 8.4978 2.6372 8.2043 7.4727zm-59.782-92.164s-0.58556 7.4734-1.6114 12.162c-0.14675 0.87978-4.542 1.3186-7.7662 2.6379 6.1541 17.583 43.225 17.436 48.061 8.7913-2.3444-1.6114-7.0332-4.1025-9.2308-4.9816-2.1984-0.87978-2.0516-0.73303-2.1984-4.8355-0.14604-4.1032-0.43953-11.722-0.73303-13.774-0.29278-2.0516-23.004-2.0516-26.521 0z" fill="#010101"/>
  <path d="m171.79 25.02s0 4.2493-0.43953 8.3518c-0.14603 1.9049-0.29278 3.0767-0.58556 4.542-0.14675 0.87978 4.9816 4.3953 6.4469 12.162 7.0332 15.678 23.298 7.9123 30.038 0.43953-2.3444-1.6121-6.1541-3.8097-10.549-5.5679-2.1984-0.87978-1.1726-2.7839-1.3186-6.8864-0.14675-4.1025-0.73303-10.111-1.0258-12.308-0.29422-2.1976-19.049-2.7839-22.566-0.73231z" fill="#f0efef"/>
 </g>
 <g fill="#010101" stroke-width=".71936">
  <path d="m170.33 25.02s-0.14675 2.6379-0.58556 5.7146c1.9042 1.9042 4.3953 4.542 6.3009 6.1541 1.3186 1.1726 4.5413 1.0258 7.4727 1.0258 2.6372 0 4.9816 0.29278 6.0074-0.29278 2.3451-1.1726 5.7146-4.1025 7.6195-6.3009-0.14603-2.6372-0.29278-5.1283-0.43881-6.3009-0.14818-2.0516-22.86-2.0516-26.376 0z"/>
  <path d="m183.66 36.156c-1.7588 0-3.8105-0.14603-5.4218-0.43953-0.73303-0.14603-1.4653-0.58556-2.0516-0.87906-1.0258-0.73303-2.0516-1.6114-3.2227-2.4911-2.3451-1.7581-2.4911-2.7839-2.4911-3.2227 1.0258-9.2316-0.2935-16.997-0.2935-16.997s-1.0258-3.9565 4.542-4.9823c5.5679-1.0258 8.9381-1.1718 8.9381-1.1718s3.517 0 8.9381 1.1718c5.5679 1.0258 4.542 4.9823 4.542 4.9823s-1.3186 7.7655-0.29278 16.997c0 0.43881-0.14603 1.4646-2.4912 3.2227-2.0516 1.4653-3.663 3.0767-5.2744 3.3702-1.6121 0.2935-3.6637 0.43953-5.4211 0.43953z"/>
  <path d="m183.66 2.1623c-9.6704 0-11.576 2.6372-14.36 5.5679-0.58556 0.73231-0.14675 5.1283 0.87978 14.506h1.3186s-0.87978-2.6379-0.73303-5.7146 0.73303-2.93 0.29278-3.663c-0.58556-0.87978-1.7581-2.3451 0.87978-3.8097 2.6372-1.4653 6.7397 1.1718 11.722 1.3186 4.9816-0.14675 9.2308-2.7839 11.868-1.3186 2.6372 1.4646 1.4653 2.93 0.87978 3.8097-0.58628 0.87906 0.14603 0.58556 0.29278 3.663 0.14603 3.0767-0.73303 5.7146-0.73303 5.7146h1.3186c0.87906-9.3776 1.4653-13.48 1.0258-14.213-2.4912-3.2235-4.9816-5.7146-14.652-5.8606zm46.448 115.46s-2.7839 8.9381-8.205 12.015c-1.1726-0.58556-1.0258-1.4646-2.0516-2.7839-0.2935-0.43881-1.3193-0.73303-1.7581-1.1718-0.43953-0.43953-0.29278-1.1726-1.0258-1.7581-0.58628-0.58628-1.0258-0.14675-1.6121-0.58628-0.58556-0.58556-0.73303-1.3186-1.1718-1.7574-0.2935-0.2935-1.4653-0.43953-1.7581-0.73303-0.73303-0.73302-7.1792-2.0516-6.8864-3.517 0.58556-2.1984 1.7581-3.8097 1.7581-3.8097s2.7839-4.1025 5.5671-3.9565c2.7839 0.14675 5.4218 0.73303 6.8872-0.58556 1.6121-1.4661 10.697 3.9558 10.257 8.6446z"/>
  <path d="m211.06 52.86s9.2308-2.1984 15.532 3.8097c6.3009 6.1541 5.8606 13.773 3.9565 18.462 1.6114 1.9049 4.542 7.1792 2.3444 13.48 9.6704 8.205 5.4211 20.807-3.2235 29.159 0 0-2.0516-7.6195-10.257-8.059 0.29278-2.93-7.6195-5.2751-3.9565-12.895-5.5679-1.3186-5.4211-5.1283-6.3002-9.8164-0.73303-4.6895 1.9042-34.14 1.9042-34.14z"/>
 </g>
 <g stroke-width=".71936">
  <path d="m207.69 56.963s10.696-5.4211 16.997 0.73303c6.3002 6.1541 4.5413 12.894 2.6372 17.583 1.6114 1.9042 5.4211 7.3267 3.0767 13.773-0.43953 1.4653-3.663 1.4653-6.0081 5.2751 5.8606-3.3709 9.5243-2.4911 10.843 1.7574 2.0516 6.5937-2.4912 14.506-6.4469 18.902 0-0.14675-0.14675-0.2935-0.14675-0.43953-0.58556 2.1984-1.3186 6.4469-5.7139 11.136-2.1984 2.3444-3.9565 2.0516-6.4476 1.4653-2.93-0.73303-3.9558-2.0523-8.0583-4.2493-2.3444-1.3186-1.0258-2.9307-1.0258-4.2493 0-0.29278 0.29278-0.73303 0.73303-1.3186 0.29278-0.73303 1.1718-1.9042 2.4904-3.2235 0 0 1.9049-2.6372 4.6895-2.4912 2.7839 0.14675 5.7139-0.43881 6.4469-1.1718 0-5.1283-5.8606-5.2751-3.8097-14.066 0.14675-0.43953 0.87978-1.1726 3.2235-1.4653-3.517-0.73303-5.1283-0.87978-7.6195-3.2235-1.7581-1.6114-3.0767-3.663-3.517-6.3002-0.87834-4.542-2.3437-28.426-2.3437-28.426z" fill="#f0efef"/>
  <path d="m176.77 47.732c-0.87906-1.1726-5.4211-7.0332-14.066-9.3776-2.4912-0.73303-4.1025 1.3186-6.593 2.7839-0.73303-0.43953-3.9565-1.9049-5.7146-0.87978-1.7581 1.0251-2.93 2.0516-4.6888 2.7839-0.87978-0.43953-3.2235-0.43953-5.1283 0.29278-1.9049 0.58628-4.8356 1.9049-7.6195 5.7146-1.7581 6.3009 31.063 1.6114 31.063 1.6114z" fill="#010101"/>
  <path d="m177.07 47.732c-4.6895-1.6121-3.9565-7.0332-14.36-7.9123-2.0516-0.14675-3.3702 1.4646-4.8356 2.4904 0.73303 0.73303 1.4653 1.9049 1.9049 3.0767-1.3186-1.4646-3.663-3.3702-6.0081-3.8097-2.1976-0.43881-3.663 1.1726-6.0074 2.3451 0.43881 0.43881 0.87906 1.1718 1.4646 2.0516-2.0516-1.3186-3.5162-1.7581-6.3002-0.73303-1.9049 0.58556-5.5679 2.1976-8.3518 6.1541-1.7581 6.3009 29.598-0.73303 29.598-0.73303z" fill="#8ac640"/>
  <path d="m204.61 50.076s0-1.6121-0.14675-3.0767c0-0.29278-1.1718-1.0258-1.1718-1.3186l-0.29278-0.2935s2.3444-1.3186 4.1025-0.58556c1.9042 0.58556 2.93 3.0767 2.93 3.0767 3.3702-1.1718 3.663 0.14675 5.2751 1.9049 3.517-0.73303 3.9558 0.58556 6.1541 3.8097 0 0-2.6372-0.43953-7.7655 0.43881-4.9823 0.73231-9.0848-4.1025-9.0848-3.9558z" fill="#010101"/>
  <path d="m204.03 49.343s0.87906-0.73303 0.58556-0.87978c1.6114-0.87906 3.8097-1.9041 4.8356 0.87978 3.3702-1.1726 3.8097 0.43953 5.4211 2.1984 4.1025-1.9049 4.3953 0.43881 4.6888 1.4646-1.3186 0-3.2227 0.14675-5.8606 0.43953-4.9816 0.73303-9.8171-4.2493-9.6704-4.1025z" fill="#8ac640"/>
  <path d="m154.21 45.68s8.3518 2.93 15.385 2.4904c7.0332-0.58556 19.048-1.1718 25.495 2.6379 0 0 6.5937-2.3451 12.748-0.73303 6.1549 1.6114 17.437 12.162 14.067 23.297-0.29349 0.73303-2.1984 1.9049-4.396 2.6379 0 0 1.1726 4.9816-0.87906 9.0841-2.0516 3.9565-6.5937 11.576-6.7404 22.125-0.14603 1.7581-0.43881 5.4211-0.73231 7.1792-11.429-0.43881-29.012-4.6888-46.302-4.3953 0.14603-1.9042 0.29278-3.0767 0.43953-4.9816h0.43881c-0.87906-4.8356-1.1718-7.3267-2.0516-10.99-5.5679-3.5162-11.429-7.6188-16.41-15.385-4.8356-7.7662 8.9381-32.968 8.9381-32.968zm56.558 79.123s9.0848 32.529-1.6114 46.156c0 0 1.6114 6.3002-2.0516 13.041-0.58628 2.93-1.3193 5.5679-1.7581 8.4978-1.9049 12.162-5.129 17.29-6.0081 36.777l-8.792-0.14603s-1.0258-14.066-4.1025-21.539c-1.7574-4.2486-8.6453-9.9639-8.3511-15.678 0.29278-4.396 1.1718-8.059 8.6453-13.92 0.58556-8.4978-7.913-16.558-6.5937-48.207z" fill="#010101"/>
  <path d="m208.13 123.48c2.3444 14.945 7.7655 37.071-2.0516 47.913a22.093 22.093 0 0 1 0.14603 8.3518c-0.29278 1.7581-0.87906 3.663-1.6114 5.7139-1.4653 3.517-2.0516 8.6453-2.4912 11.722-1.9049 12.162-1.9049 12.749-2.7839 32.236l-8.792-0.14675s-1.0258-14.066-4.1025-21.538c-1.7574-4.2493-5.4211-7.9123-5.7139-13.627-0.29278-4.3953 2.7839-13.187 10.111-12.894-0.43953-17.729-8.6453-14.213-10.843-51.137zm-53.921-77.804s3.2235 1.0258 6.7397 1.3186c3.517 0.29278 7.3267 0 10.696-0.14675 7.0332-0.58556 16.997-1.3186 23.591 2.4911 0 0 3.663-1.1726 7.6195-0.87978 1.7581 0.14675 3.517 1.6121 5.5679 2.1984 6.4469 1.6114 12.601 12.308 9.8164 21.979-0.29278 0.73303-2.3444 0-4.6888 0.73303 0.43881 2.0516 0.73303 6.7404-1.6121 11.722-2.4904 4.9823-5.7139 11.429-5.1283 23.737-15.385-0.73303-22.271-1.7581-37.51-2.4912-1.3186-5.4218-2.1984-10.843-2.3444-13.627 2.0516-1.0258 3.2227-1.9042 4.8356-3.663-4.3953 0.73303-6.1541 0.43953-8.792-1.0258-2.6372-1.4653-7.326-6.1541-9.6704-9.2308-0.29278-0.2935-1.9042 4.5413-5.5671 4.6888-1.3193-1.9049 4.2485-7.3267 3.2227-9.3776-3.6623-7.4734 3.2249-28.426 3.2249-28.426z" fill="#f0efef"/>
  <path d="m209.3 111.32s0.29278 5.2751 0.29278 6.5937c0 1.4653 1.1726 5.8606 1.3186 7.9122-1.6114 2.7839-8.6446 9.0848-21.392 11.429-12.601 2.6372-29.305-17.143-29.305-17.143 0.43953-1.9049 1.9049-7.4734 2.9307-10.403 0.14675-0.29278 0.43953-1.0258 0.43953-1.3186 1.3193-1.9049 45.715 2.93 45.715 2.93z" fill="#010101"/>
  <path d="m206.08 111.76c0 3.663 0.58556 6.3009 1.0258 8.6453 0.73231 4.2493 1.9042 7.0332 1.9042 9.8171 0 8.4978-11.136 7.0325-20.514 7.326-12.601 2.6379-23.297-17.143-23.297-17.143 0.87906-3.3702 1.4653-7.1792 2.7839-10.403 0.14603-1.7581 0.43953-3.9558 0.58556-4.9816 17.876 0 30.477 1.0258 37.804 1.7574 0.2935 1.6121 7.2e-4 4.396-0.29206 4.9823z" fill="#f0efef"/>
  <path d="m192.01 130.66s-7.7655-17.29-31.063-12.161c-5.5671 15.678-13.041 33.701-8.205 53.188-4.8355 6.5937-10.403 10.257-10.403 22.418 0 12.162 0.58628 14.213 0.58628 14.213l17.143 0.87978s5.5679-7.1792 7.7655-14.945c0.58628-2.1984 1.1726-6.1541 0.73303-10.696 0.58556-0.87906 3.0767-2.93 3.3702-6.8864 0 0 8.3518-4.3953 13.187-15.091 4.5428-9.6725 3.3702-18.024 6.8864-30.919z" fill="#010101"/>
  <path d="m192.01 130.66c-0.43881-1.6114-6.3002-17.436-27.986-12.748-12.747 33.994-8.0583 48.061-6.1541 54.214-8.6453 10.989-12.601 13.333-10.842 35.606h11.429c5.2744-8.3518 6.4469-11.429 6.7397-22.418 0-0.43953-1.6114 0.87906-2.7839 2.3444 0.87978-4.542 3.3702-5.4211 5.2751-8.205 0.87906-1.1726 1.6114-2.9307 1.6114-5.2751 10.257-6.8864 14.066-15.532 16.264-24.47 1.7588-6.1534 3.8097-16.264 6.4469-19.048z" fill="#f0efef"/>
  <path d="m155.82 107.07s3.9565 0.14603 7.4734 1.3186c3.3702 1.1718 3.3702 1.9042 4.6888 3.3702s4.542 3.663 3.9565 5.8606c-0.29349 1.1726-1.0258 1.4653-2.0516 2.4912-0.43953 0.43953-3.6637 3.9558-4.396 4.3953-0.43953 0.29278-1.0258 0.73303-1.4653 1.0258l-2.1976 1.4653c-1.4653 0.73303-2.4912 1.1726-4.1025 1.0258 0 0-3.663-0.14675-6.0081-2.6372 0 0-0.29278-1.1726 0.2935-1.7581 0 0-3.0774-2.6379-3.9565-4.396-0.87977-1.7574-0.87977-4.2486-0.29278-5.5671 0.29278-1.32 6.0067-4.983 8.0583-6.5944zm3.6637 142.57-0.43953 3.6637s-1.3186 1.6114-11.136 1.4653c-9.9639-0.14675-12.601-3.2235-13.48-4.8356l-0.58556-3.8097s1.9049-2.7839 2.3444-2.7839c3.2235 0.29278 14.213 4.6888 21.833 5.8606 0.73087 0 0.8769 0.29278 1.4639 0.43953zm21.246-7.4727c0 1.6114-0.14675 1.6114-0.14675 3.2235 1.7581 1.3186 6.1549 2.0516 14.506 1.9042 12.162-0.29278 23.444 3.6637 37.217 1.3186l0.14675-2.6372-1.3186-0.14603-48.793-3.9565z" fill="#010101"/>
  <path d="m191.43 247.3h3.663c7.913-0.29278 15.386 1.4653 23.444 1.9049 4.2493-0.14675 9.5243-1.1726 9.0848-4.2493l-41.613-3.517c-2.4912 2.7839-0.587 5.1283 5.4211 5.8614zm-47.767-61.687c1.3186 0.87906 10.257 6.1541 24.763 5.4211-0.2935 2.7839-0.14675 8.2058-6.5937 17.729-3.2235 4.6888-6.0081 12.895-6.5937 23.298 0.14675 2.3444 1.4653 4.3953-0.29278 7.4727 0.58556 1.9042 2.93 5.7139 4.1025 8.0583 1.1718 2.3451 1.7581 4.9823-6.0081 5.129-7.9122 0.14603-20.66-0.73303-18.901-6.8864 0.87978-3.2235 3.3702-6.5937 3.6637-7.913 0.29278-1.3186 0.29278-5.2744 2.7832-7.9123 2.1984-7.326 1.4653-14.359 1.0265-20.953-0.73303-6.8872-0.87978-17.876 2.0509-23.444zm13.627-119.42c10.403-13.92 1.6114-25.055-15.091-21.686-6.7404 1.3186-13.48 6.0081-13.92 14.506-2.1976 0.29278-7.1792 0.58556-9.6704 9.6704-1.9042 7.0332-2.93 8.3518-6.3009 11.868-2.1976 2.4911 0.14675 7.6195 1.7581 11.283 5.4218 12.601 22.125 13.773 33.408 23.297 3.8097-1.0258 7.7655-5.2744 8.9381-8.0583-9.5243-11.283-7.4734-15.678-11.283-21.539 4.1032-1.4661 13.481-7.1799 12.162-19.341z" fill="#010101"/>
  <path d="m155.23 65.314c0.58556-0.87978 1.6114-2.7839 2.0516-3.517 0.14675-0.14675 1.7581 2.6372 1.9049 2.4911 3.9558-6.4476 4.9816-15.825 0.43881-16.704-1.0258-0.14675-2.93-0.58556-4.542-1.1726-2.93-1.0258-5.5671-1.0258-10.257-0.14603-6.4469 1.1718-12.894 5.8606-12.894 12.601 0 0.43953 4.5413 1.7581 5.8606 7.1799-2.1984-3.0774-6.0081-6.4476-10.55-3.517-4.8355 3.0767-2.3444 10.11-8.7913 17.436-2.1984 2.4911-1.9049 5.4218 0.43881 11.282 3.8097 9.2316 21.833 14.213 31.65 23.004 2.3444-1.0258 3.9558-3.3702 5.1283-5.1283-6.5937-6.8864-9.2316-13.334-11.136-18.023-2.3444-5.4211-4.9823-8.4978-10.111-12.602 2.6379 1.0258 4.6895 2.0516 5.8606 2.9307 1.3186 0.87906 3.2235 1.0258 4.9823 0.43953 6.3016-2.1962 9.6718-10.988 9.9646-16.555z" fill="#f0efef"/>
  <path d="m218.97 67.659c-0.43953 5.5679-4.542 2.7839-6.7397 1.7581-4.396-1.9049-8.792-3.2235-13.92-3.2235-5.1283 0-11.722 0.43953-17.436 1.9049-7.9123 2.1976-10.257 2.0516-13.774 0.29278-3.5162-1.9049-9.6697-6.5937-9.6697-6.5937s-0.14675 1.4653 1.3186 3.3702c1.9042 2.3444 6.1541 5.2751 11.868 7.1792 2.7839 0.87978 4.9823 0.29278 7.4734-0.29278 13.041-3.2235 26.813-3.8097 38.389 3.2235 0.58628 0.29278 2.6379-0.58628 3.517-1.9049 1.1711-1.9041-1.0265-5.7139-1.0265-5.7139z" fill="#010101"/>
  <path d="m152.3 123.48c1.1718 0.73303 2.6372 1.1726 4.2486 2.4912 0 0-1.3186 0-1.9042-0.58556-0.73303-0.43953-2.1984-1.7581-2.3444-1.9056z" fill="#0a1825"/>
  <path d="m194.65 7.2907c-0.43953-1.3186-3.6637-3.6637-11.136-3.6637-8.059 0-10.403 2.4911-10.549 3.8097 0 0.43953-0.58627 5.129-0.73302 7.0332 0 0 0 2.3444 0.14603 5.8606 0.14675 2.3444 0.73303 3.663 1.0258 6.7404 0.29278 3.2227 1.1726 5.2744 2.7839 7.9123 0.73303 0.43881 1.3186 0.87906 2.0516 1.0258 2.9307 0.58556 8.059 0.73231 10.843 0 1.6114-0.43953 3.663-3.2235 4.1025-5.7146 0.58556-3.0767 1.1718-5.2751 1.3186-7.1792 0.29278-1.9042 0.43953-6.1541 0.58556-7.3267 0.44025-3.2227-0.29278-8.205-0.43881-8.4978z" fill="#f0efef"/>
  <path d="m179.26 188.39s7.7662 3.3702 26.961 0.43953c0 0-5.4211 27.254-2.93 40.88 0 0 2.4904 3.517 20.953 10.257 0 0 8.205 2.0516 7.9123 6.1549 0 0 0.29278 0.87905-9.6704 0.58556-9.9632-0.2935-19.341-2.0516-25.935-2.0516-6.5937 0-13.627 0.29278-14.799-1.6114-1.3186-1.7581 0.29278-6.3009 2.1976-8.9388 2.0523-2.7832 1.4653-4.8356 1.3193-9.8164-0.44097-13.041-10.405-26.521-6.0088-35.898z" fill="#010101"/>
  <path d="m177.65 190.89c-1.0258 1.4653 0.14603 7.0325 1.6114 12.454 1.4653 5.4211 4.6895 8.6453 5.4218 17.583 0.73231 8.7913 0.87906 9.9639-1.6121 15.091s-3.2235 9.8171 5.4211 9.9639 13.334-0.14675 22.125 1.1726c8.792 1.3186 11.869 1.7581 16.704 1.0258 4.8356-0.73231 5.8606-2.3451 3.8097-3.8097-2.0516-1.4653-10.55-3.0767-14.213-6.0081-3.517-2.6372-13.48-7.0332-13.626-8.205-0.43953-3.9565-0.58628-18.316 0.14603-23.004 0.73303-4.6895 1.7581-11.429 2.0516-13.187s1.7581-3.517-0.73303-2.9307c-2.4904 0.58556-11.868 1.9049-18.901 1.4653-7.0332-0.43881-7.7655-2.0509-8.2058-1.6106z" fill="#8ac640"/>
  <path d="m182.63 236.16c2.4904 1.1718 6.1541 2.0516 8.9381 2.0516 0 0-1.0265 4.8356 0.58556 7.7655 1.6114 2.9307-11.722 1.1726-11.722 1.1726l-0.58556-10.403zm38.829 12.601c2.3444-0.73303 3.9565-3.3702 2.0516-5.8606-2.0516-2.4912-3.8097-2.9307-1.1726-3.0767 2.6379-0.14675 12.308 5.7139 12.308 5.7139l-4.9823 4.542zm-44.251-52.163c3.3702 1.1726 8.4985 1.4653 12.895 1.3186 4.3953-0.14603 10.989-0.73302 15.239-2.1976 4.2486-1.4653 2.4904 1.6114 2.4904 1.6114l-2.3444 2.1984s-5.5679 2.1976-14.652 2.0516c-10.696-0.14675-13.92-1.3186-13.92-1.3186zm0.29278 7.3267c3.3709 1.1726 8.4985 1.4653 12.895 1.3186 4.3953-0.14603 10.257-0.14603 14.506-1.7581 1.7581-0.58556 0.73303 1.9049 0.73303 1.9049l-0.73303 1.3186s-5.7146 2.0516-14.653 1.9042c-10.696-0.14603-12.601-1.0258-12.601-1.0258z" fill="#010101" opacity=".3"/>
  <path d="m179.26 188.39s12.748 4.542 27.108 1.4653c0 0-5.5679 26.228-3.0767 39.708 0 0 2.4904 3.5162 20.953 10.257 0 0 8.205 2.0516 7.9123 6.1541 0 0 0.29278 0.87977-9.6704 0.58556-9.9639-0.29278-19.341-2.0516-25.935-2.0516-6.5937 0-13.627 0.2935-14.799-1.6114-1.3186-1.7581 0.29278-6.3009 2.1976-8.9381 2.0523-2.7839 1.4653-4.8356 1.3193-9.8171-0.44097-12.894-10.405-26.374-6.0088-35.752z" fill="none"/>
  <path d="m179.26 188.39s12.748 4.3953 27.108 1.3186c0 0-5.5679 26.375-3.0767 39.855 0 0 2.4904 3.5162 20.953 10.257 0 0 8.205 2.0516 7.9123 6.1541 0 0 0.29278 0.87977-9.6704 0.58556-9.9639-0.29278-19.488-3.0767-25.935-2.0516-6.8864 1.1726-13.627 0.73303-14.799-1.6114-1.0258-1.9042 0.29278-6.3009 2.1976-8.9381 2.0523-2.7839 1.4653-4.8356 1.3193-9.8171-0.44097-12.894-10.405-26.374-6.0088-35.752z" fill="none"/>
  <path d="m167.84 101.21c0 1.0258 11.429 6.7397 17.729 7.9123 6.3009 1.1718 19.488 0 21.539-0.43953l-0.2935 2.0516s-15.678 2.3444-27.693-0.87906c-12.015-3.2235-10.696-3.9565-10.696-3.9565z" fill="#010101"/>
  <path d="m143.37 226.2c1.7581 0.87978 8.059 2.4912 12.162 1.6121 0.58556-0.14675 0-10.111 1.6121-14.653 2.3444-6.3009 6.1541-11.429 7.9115-22.564-6.1541-0.58628-13.187-2.1984-16.85-3.3709-4.6881 14.36-3.076 26.667-4.8348 38.976zm9.8178 9.2316c1.0258 0.29278 1.7581 1.4646 2.0516 0.73303 0.58556-1.3193-1.0258-3.8097-1.1726-5.5679v-0.14675c-1.3186-1.1718-10.257-1.3186-9.6704-0.73303-1.0258 1.9049-2.6372 1.6121-3.2227 5.4218-0.29278 1.9042 2.0516 0.29278 4.2486 0.14603-3.9558 2.6372-8.4978 6.0081-9.2308 8.9381-0.87906 4.1025 0.58628 5.2751 4.9823 7.4734 3.8097 0.87906 8.3518 1.0258 11.868 0.87906 3.9565-0.73303 4.6895-2.6372 3.517-5.2751-1.7596-3.9565-2.9314-9.0848-3.3709-11.869z" fill="#f0efef"/>
  <path d="m154.79 45.094c4.8356 2.7839 11.576 2.0516 14.066 1.9049 0.58628 0 6.4476-1.0258 6.7404-0.87978 0.58556 0.14675 0.58556 0.58628 0.58556 0.58628s-2.1976 1.1718-7.1792 1.4646c-4.6888 0.29278-10.257 0-13.333-1.4646-3.6637-1.6114-0.87978-1.6114-0.87978-1.6114zm49.819 2.7839c0.87906 0.58556 6.5937 2.7839 9.0848 5.4211 2.1976 2.3451 1.0258 2.1984 0.58556 1.6121-0.58556-0.73303-5.1283-3.8097-6.8864-4.542s-3.9565-2.0516-3.9565-2.3444 1.1726-0.14675 1.1726-0.14675z" fill="#010101"/>
  <path d="m154.06 108.69c4.2493-0.29278 8.6453 0.73303 11.429 3.663 1.4653 1.4653 3.8097 3.0767 3.517 4.542 0 0.43953-0.87978 1.6121-1.6114 2.4912-0.43953 0.58556-1.7581 1.9042-2.1984 2.3444-0.58556 0.43952-2.6372 2.0516-3.0767 2.3444-0.43953 0.2935-1.0258 1.0265-1.4653 1.1726-1.4646 0.73303-3.0767 0.14675-4.542-0.58556-1.4646-0.73303 0.2935-0.87978-1.3186-2.0516-3.9558-2.7839-6.1541-4.6895-4.542-10.111 0.14603-1.0258 1.7574-2.1984 3.8083-3.8097z" fill="#f0efef"/>
 </g>
 <g fill="#010101" stroke-width=".71936">
  <path d="m116.7 75.131c-13.187 5.2751-46.742 21.979-56.266 27.108 7.9123 4.9816 11.575 16.996 12.748 29.158 0.14603 1.1726 0.29278 2.1984 0.43953 3.3702 0.14603 1.0258 0.29278 1.7581 0.43881 2.1984 0 0.14675 0 0.43953 0.14675 0.58556 8.6453-23.59 39.561-48.499 40.734-50.404 0.58556-0.87906-0.73303-4.6888 1.3186-8.3511 2.6379-4.6902 7.7669-6.7419 0.44025-3.6644zm31.356 110.63c6.7397-13.48 6.8864-26.375 6.7397-41.467 0-6.3009 4.542-15.239 2.1984-12.748-8.792 9.8164-30.917 28.28-46.888 29.305 22.418-0.73231 31.21 10.55 37.95 24.91z" opacity=".4"/>
  <path d="m47.539 114.69c8.3518-6.0074 51.577-29.011 61.98-32.235 10.403-3.3702 7.1792-7.3267 7.1792-7.3267s-42.199 18.169-67.401 33.847"/>
  <path d="m170.62 72.348c-3.3702-1.3186-6.0074 2.6379-5.1283 6.4476 0.87978 3.8097 8.792 8.0583 8.3518 21.979-0.29279 11.429-2.7839 16.117-2.7839 16.117l-5.5679-7.0325s-0.87906-15.825-2.7839-18.17c-1.9042-2.3444-7.9123-6.5937-10.257-8.7913-2.3444-2.1984 2.6372-5.1283 2.3444-9.2316-0.29278-3.9558 2.4912-11.868 2.4912-11.868zm20.367 62.419c-0.29278 10.989 2.1984 27.254 3.2235 35.02 1.0258 7.7655 2.3444 8.3518 0 11.869-2.3444 3.3702-5.4211 8.9381-5.4211 8.9381l-10.111-0.87978s8.059-10.257 8.4978-12.162c0.43953-1.9042-4.1025-16.41-4.1025-16.41zm-19.488-102.57c2.0516 4.5413 4.542 6.5929 8.4978 7.9123 2.3444 0.87906 11.575 2.0516 15.239-2.0516 1.6114-1.9049 0.58556-7.0332 0.58556-7.0332l-8.3518 6.7397-11.282-2.0509-1.3186-3.3702z" opacity=".4"/>
 </g>
 <path d="m172.38 42.31c3.8097 2.4911 13.334 4.8355 15.971 5.2751 2.6372 0.58556 6.8864-2.7839 8.9381-3.663 2.1984-1.0258 6.0081-1.6121 10.403 2.3444 0.43953 0.43953-1.0258 2.3444-1.0258 2.3444-0.14675-0.14675-1.0258-0.14675-2.1984-0.73303-1.1718-0.58556-2.1976-1.0258-3.9558-0.87906-7.3267 0.87906-8.4985 3.3702-14.945 1.9042-6.4469-1.4661-8.059-2.6372-14.359-2.3444" fill="#8ac640" stroke="#010101" stroke-linejoin="round" stroke-miterlimit="10" stroke-width="1.1409"/>
 <g stroke-width=".71936">
  <path d="m171.06 42.749c4.8355 2.0516 14.213 4.2493 16.85 4.8355s6.8864-2.0516 8.9381-3.3702c3.6637-2.3444 8.3518-0.43953 10.55 2.0516 1.4646 1.6114 2.0516 2.6372 2.0516 3.0767 0 0.58556-1.7581 0-1.7581 0-1.0258-0.43953-2.1984-0.58556-3.0767-1.1726-1.1726-0.58556-2.3451-1.4646-4.1025-1.3186-7.3267 0.87978-8.792 3.3702-15.092 1.9049s-7.9123-2.7839-14.652-2.3451" fill="#8ac640"/>
  <path d="m148.35 179.6c-0.29278-0.29278 0.29278-0.58556 0-0.58556-1.9042 0-4.542-1.4653-6.0081-3.517-6.3002-9.0841-15.532-15.091-32.235-14.652-25.056 0.58556-35.02-9.6704-36.924-29.305-1.0258-10.696-3.9565-21.1-9.9639-26.961l-3.517 2.1984c6.7397 5.8606 8.9381 15.385 10.403 28.426 2.3444 19.634 18.169 28.719 36.631 29.012 19.195 0.29278 26.081 4.2493 33.26 13.92 2.3444 3.0767 4.9823 4.1025 7.0332 4.542z" fill="#010101"/>
  <path d="m216.34 85.388c0.43953 2.1976 1.6114 6.4469 3.9558 8.4978 1.0265 1.0258 1.1726 1.3186 0.2935 1.3186-0.87978 0-7.3267-0.29278-7.3267-0.29278l-1.7581-3.0767z" fill="#010101" opacity=".4"/>
 </g>
</svg>
