<svg xmlns="http://www.w3.org/2000/svg" viewBox="0 0 255.854 155.549">
  <defs>
    <linearGradient id="a" x1="50.152" x2="5.559" y1="519.731" y2="550.955" gradientTransform="scale(3.7607 .2659)" gradientUnits="userSpaceOnUse">
      <stop offset="0%" stop-color="#959595"/>
      <stop offset="100%" stop-color="#CCC"/>
    </linearGradient>
  </defs>
  <path fill="url(#a)" d="M255.854 146.503c0 4.996-57.275 9.046-127.927 9.046C57.275 155.549 0 151.499 0 146.503c0-3.231 24.383-6.217 63.964-7.833 39.58-1.616 88.346-1.616 127.927 0 39.58 1.616 63.963 4.602 63.963 7.833z" opacity=".264" style="fill:url(#a)"/>
  <path fill="#499848" d="M110.639 150.146c-2.477-.789-2.486-1.137-.204-8.065 2.279-6.918 1.234-13.343-2.99-18.393-5.743-6.867-8.51-12.728-9.391-19.897-.757-6.156-.997-6.644-3.503-7.125-1.68-.322-4.003.317-9.537 2.625-8.052 3.359-9.97 4.834-11.87 9.128-.997 2.256-1.117 3.607-.551 6.217.691 3.186 3.524 8.315 4.597 8.322.28.002 1.826 1.061 3.436 2.354 2.671 2.145 2.855 2.517 2.099 4.266-1.643 3.799-5.545 8.405-7.122 8.405-.884 0-4.495-2.53-8.47-5.934-7.81-6.686-8.137-7.356-8.943-18.316-.962-13.076 2.253-19.179 16.575-31.456l8.982-7.7.574-4.672c.591-4.815-.243-16.28-1.645-22.61-.828-3.738-3.56-7.3-6.154-8.019-2.826-.784-4.482.834-6.632 6.476-2.32 6.088-4.536 8.212-8.57 8.212-2.513 0-4.859-1.608-6.478-4.44-1.16-2.03-1.834-14.223-1.14-20.642.334-3.087.353-6.214.043-6.947-.505-1.193-4.853-3.773-15.103-8.964-1.863-.944-4.035-2.215-4.827-2.824-.792-.61-2.846-1.73-4.565-2.49C25.356 5.938 15.203 0 16.153 0c1.799 0 9.42 2.345 13.476 4.148 2.477 1.1 4.847 2 5.268 2 .421 0 5.196 1.537 10.61 3.415 5.415 1.879 10.364 3.416 10.998 3.416 1.506 0 1.742-1.303 1.26-6.95-.22-2.564-.21-4.663.02-4.663.232 0 1.23.495 2.218 1.1 3.02 1.85 9.516 2.982 17.15 2.99 7.301.01 16.83 1.457 20.472 3.112 5.225 2.374 11.285 9.79 18.973 23.216 5.344 9.334 11.087 13.286 19.317 13.295 3.327.004 12.204-1.368 24.225-3.743 9.911-1.958 22.996-2.398 28.075-.944 6.195 1.774 14.388 6.515 21.161 12.247 6.34 5.366 7.317 6.557 11.211 13.677 4.648 8.496 9.777 20.572 14.339 33.756.65 1.878 2.023 5.038 3.05 7.022 2.743 5.292 2.607 5.615-2.377 5.615-5.41 0-7.947-.853-11.493-3.864-3.401-2.889-4.29-4.656-9.613-19.12-2.727-7.408-5.381-11.853-7.078-11.853-1.162 0-3.515 7.939-3.515 11.861 0 2.786 1.746 6.55 6.26 13.494 7.331 11.28 11.189 27.228 9.645 39.88l-.667 5.464-4.887.203c-7.693.32-7.616.427-7.616-10.574 0-11.711-.798-14.248-5.966-18.971-2.147-1.962-6.963-7.536-10.703-12.387-3.74-4.85-7.322-8.82-7.96-8.82-1.464 0-2.195 3.99-2.273 12.414-.05 5.549-.27 6.488-1.906 8.197-4.438 4.635-7.553 13.075-9.473 25.666-.425 2.787-.79 3.308-2.596 3.714-2.657.596-10.017.694-10.652.141-.547-.477.412-8.045 2.586-20.417.826-4.697 1.727-10.998 2.002-14.004.491-5.35-.606-15.375-1.904-17.403-.54-.843-3.289-1.026-16.147-1.073-8.522-.031-17.87-.311-20.77-.623l-5.275-.566v2.34c0 2.507.643 4.717 4.939 16.984 1.513 4.32 3.706 10.907 4.872 14.637l2.122 6.781-1.79 5.514c-.985 3.033-2.446 6.667-3.248 8.076-1.413 2.485-1.579 2.56-5.543 2.508-2.248-.03-5.088-.373-6.311-.762z"/>
</svg>
