<svg xmlns="http://www.w3.org/2000/svg" viewBox="0 0 254.835 248.473">
  <g fill="#ef0000">
    <path d="M139.258 248.473c-63.62 0-115.577-51.957-115.577-115.577S75.637 17.319 139.258 17.319c63.62 0 115.577 51.956 115.577 115.577 0 63.62-51.957 115.577-115.577 115.577zm0-223.025c-59.38 0-107.448 48.069-107.448 107.448 0 59.379 48.069 107.447 107.448 107.447 59.379 0 107.447-48.068 107.447-107.447 0-59.38-48.422-107.448-107.447-107.448z"/>
    <path d="M115.577 248.473C51.957 248.473 0 196.516 0 132.896S51.957 17.319 115.577 17.319s115.577 51.956 115.577 115.577c0 63.62-51.957 115.577-115.577 115.577zm0-223.025c-59.379 0-107.448 48.069-107.448 107.448 0 59.379 48.069 107.447 107.448 107.447 59.379 0 107.448-48.068 107.448-107.447 0-59.38-48.07-107.448-107.448-107.448z"/>
    <path d="M127.948 231.154c-63.62 0-115.577-51.957-115.577-115.577S64.327 0 127.948 0c63.62 0 115.576 51.957 115.576 115.577s-51.956 115.577-115.576 115.577zm0-223.025C68.568 8.13 20.5 56.198 20.5 115.577c0 59.379 48.069 107.448 107.448 107.448 59.379 0 107.447-48.07 107.447-107.448 0-59.379-48.068-107.448-107.447-107.448z"/>
    <path d="M163.769 137.137c-2.34 2.474-4.59 4.948-6.839 7.423-9.543 10.603-16.965 18.379-29.336 18.379-22.62 0-41-18.38-41-41s18.38-41 41-41c13.784 0 26.862 7.423 34.638 19.44 2.474 3.534 6.715 4.241 10.25 2.474 3.534-2.474 4.241-6.716 2.474-10.25-10.25-16.612-27.922-26.155-47.362-26.155-30.75 0-55.844 24.741-55.844 55.49 0 30.75 25.094 55.845 55.844 55.845 18.733 0 29.336-11.31 39.586-23.327.477-.525.947-1.043 1.414-1.555v15.693c0 3.534 3.18 7.069 7.069 7.069 4.595 0 7.776-3.181 7.069-7.07v-38.525c0-3.534-3.181-7.069-7.07-7.069h-36.05c-3.535 0-7.07 3.535-7.07 7.07 0 3.534 3.181 7.068 7.07 7.068z"/>
  </g>
</svg>
