<svg xmlns="http://www.w3.org/2000/svg" viewBox="0 0 255.004 191.057">
  <path fill="#ff0" d="m93.971 42.118-16.954 2.755-15.47 6.782-13.14 8.265-12.504 15.258-7.063 7.482-6.831 2.518-1.806-4.415 3.158-4.56.71-6.43 2.115.086 2.312 2.109-.623-6.55-2.563-1.72.078-2.496-6.07 3.435-5.496 6.485-1.148 5.797 2.352 4.641 2.192 7.886 4.459 2.11 4.69-.23 4.448-2.584-2.967 15.048 2.967 16.741-3.266 7.731-10.697 11.525 1.901 6.886 5.068 7.979 9.555 6.724 5.068.694 5.635.191-3.516 14.432 12.929 5.297 16.106 2.12 5.51-3.602.423-9.75 6.147-10.172.424-8.054 14.835 1.06 13.775-1.271-13.775 8.265 2.332 9.96 8.688 13.564 8.478 3.603 6.781-2.755 2.754-5.51 14.2-10.809 2.755 2.331 22.253.848 4.45-3.602.423-6.36-1.482-2.752-1.06-17.167-7.418-14.835 1.272-6.57 4.45 2.331 12.504 11.656 6.146.424 6.781-2.755 6.783-5.086 3.39-11.021 19.922 1.272 12.08-4.662 9.749-9.114 6.993-13.14 1.695-15.47-1.483-18.014-3.815-16.106-3.815-5.086-5.297-1.696-9.326 10.172-8.476 2.968-7.418-12.292-7.417-6.782-4.028-2.543-16.107-13.352-12.926-6.993-12.929-1.06-15.046 2.544-13.14 4.873-9.113 7.418-7.205 8.689-7.417 2.12-12.929 12.291"/>
  <path fill="#ffc" d="M44.8 80.367c-14.523 16.939-11.296 37.482-7.272 57.61l-6.444-16.28-2.375-14.927.679-15.262 6.105-14.585 9.158-13.568 14.246-11.871L74.5 45.039c6.105-.79 12.21-1.582 18.316-2.374l-16.96 19.333C62.238 66.415 54.21 69.39 44.8 80.368"/>
  <path fill="#ffc" d="M113.166 28.758c-10.095 9.85-15.61 17.28-22.035 28.812-4.595 8.25-9.751 16.197-14.583 24.332-2.444 4.118-2.675 7.57-3.406 12.319l-7.122-8.479 3.391-10.176 11.533-20.69 24.422-24.082c2.6-.68 5.2-1.357 7.8-2.036M163.028 4.337c-8.088 3.031-21.516 4.03-22.448 13.311-.663 6.591.497 9.903 4.47 16.877-9.813-10.155-12.24-8.583-31.205-5.428 2.714-3.844 5.428-7.688 8.14-11.532l14.246-8.82 18.317-4.07c2.826-.112 5.653-.224 8.48-.338"/>
  <path fill="#cc0" d="M185.34 129.878c2.692 1.661 2.634 2.865 2.184 4.004 2.124-.85 4.247-1.7 6.37-2.547 1.377-1.848 2.751-3.695 4.128-5.542l3.063-7.897-3.915-2.943-17.109 2.184c-.423 1.152-.848 2.305-1.274 3.459l.365 4.914 1.638 2.912 2.548 1.274 2.003.182M183.748 100.618c-8.577 2.475-8.51 3.158-11.042 11.666 3.343-5.364 5.818-8.071 11.042-11.666M240.772 36.948c-1.524.704-3.01 1.043-3.961 2.437-2.052 3.002-3.81 5.528-7.203 7.634-1.71 1.062-3.477 1.75-5.289 2.315-1.503.467-2.406.05-3.685.97.759.131 1.518.264 2.277.397h5.02l6.189-3.821 3.64-3.823 3.012-6.11M104.16 55.98c-3.373 9.232-6.322 17.146-11.432 25.505 6.549-7.057 10.52-13.054 14.27-21.032 1.458-3.099 1.733-6.736 5.792-5.384.182 3.096.837 6.189 1.018 9.283 2.193-15.719 8.377-22.293 22.752-28.394l-12.194 1.456c-3.823.85-7.645 1.7-11.468 2.548l-5.642 8.19-3.095 7.827M132.009 55.616c3.1 14.59 7.564 28.593 9.503 43.415 1.259 9.632 1.396 14.258-3.449 22.568-5.296-.343-8.584.254-13.707 1.933-20.393 6.685-32.089 16.515-45.83-3.29 4.387 2.066 8.774 4.133 13.16 6.201 3.127-.615 6.254-1.228 9.38-1.845 5.522-3.214 11.044-6.43 16.565-9.645l12.923-2.55 4.186-17.472-3.095-23.117-.363-10.92c.243-1.76.486-3.52.727-5.278M167.139 145.895c-1.714 11.854 3.944 18.226 1.601 21.5-.663.926-1.561 2.544-2.565 2.988-3.585 1.583-8.513-.296-8.865.63h-11.83l-4.733-2.002 7.28-8.555 7.099-15.471 4.55-15.653h2.367l5.096 16.563"/>
  <path fill="#cc0" d="M147.253 111.435c.962 5.382 2.631 6.66 5.162 11.87-1.685 8.5-4.392 18.608-7.65 26.107-1.374 3.163-2.482 4.907-4.906 7.352-4.089 4.13-8.223 7.725-12.86 11.305-3.34 2.573-5.67 1.283-9.788.7-1.752 3.175-2.236 4.94-5.46 6.552-4.959 2.478-9.395-2.863-13.288-6.006 2.81 4.388 5.62 8.776 8.428 13.165 1.942 1.821 3.884 3.639 5.825 5.46l4.915.729 6.551-4.005 3.459-6.552c2.427-1.82 4.855-3.64 7.28-5.461 2.974-2.547 5.947-5.097 8.92-7.645l5.643-8.008 5.095-9.464 6.554-19.658.545-7.463-8.191-3.641c-2.002-1.88-4.231-3.457-6.234-5.337M81.955 149.354c9.187 0 18.889-.51 27.303-4.37 2.38-3.57 4.731-6.488 7.644-9.645-2.65 5.008-3.482 7.839-4.186 13.469l-2.73 4.004c-6.917.181-13.833.364-20.75.546-2.245-.244-4.49-.486-6.735-.728l-.728-.728c.062-.85.123-1.7.182-2.548M80.681 142.983l-.713-6.463c-1.569 9.447-1.192 15.78-5.54 24.242-3.247 3.762-7.247 7.186-11.827 9.019.388 2.32.503 3.771.278 5.471-.807 6.12-13.047 3.416-18.082 3.172l24.235 6.24 5.46-2.184c.608-3.518 1.215-7.038 1.821-10.557l5.097-9.464c.302-1.943.606-3.882.91-5.825l-1.639-13.65M67.03 89.653c-.253 4.594-.55 6.508 1.475 10.566 2.575 5.155 5.738 10.001 8.536 15.098l.91-10.194-10.921-15.47M29.667 124.353c-.79 1.677-1.576 3.354-2.365 5.032 2.168 7.304 4.097 11.931 8.226 18.312-.72 2.585-1.257 3.717-2.912 5.823-3.634-.558-6.861-.72-10.544-.708l12.196 9.465c2-.365 4.004-.729 6.006-1.093l6.007-6.006-8.555-13.287a68445.44 68445.44 0 0 1-8.06-17.538M240.798 34.531c2.476 11.138 5.67 21.416 5.373 32.824-.364 13.995-3.091 31.674-16.058 40.113-14.523 9.452-31.57 4.982-47.504.932l19.476 8.008c6.067.304 12.135.608 18.202.91l12.377-3.64c3.215-2.67 6.432-5.338 9.647-8.009l7.28-15.288 2.73-17.656c-.727-5.765-1.456-11.528-2.184-17.292l-4.004-17.109-5.335-3.793M24.08 67.727c-6.592 4.292-9.182 6.175-8.458 14.128L17.592 89l2.792 1.89 3.45 1.15 6.242-1.479c1.069-3.313 2.137-6.625 3.204-9.938l-8.87 4.354h-2.054l-2.3-3.532 2.793-4.107 1.479-7.803c.63.192 1.259.384 1.888.574.767.604 1.533 1.206 2.3 1.807l-.329-4.106-1.56-2.628-1.56-1.314c-.33 1.286-.658 2.573-.987 3.86M171.99 5.062c5.852 5.434 13.033 10.157 17.714 16.797 1.81 2.57 3.823 3.884-.031 7.515 4.072-1.163 5.585-1.037 8.845-.642 5.93.718 11.488 9.148 11.842 15.188-.07.565-1.647 1.848-6.232 3.114-.09.177-2.588-.341-2.526-.172.477 1.303 1.114 1.503 2.086 2.113.211 1.45.347 3.686 1.335 5.272 2.884-.052 5.704.263 8.53.822.95 1.578.807 3.155.727 4.732 1.092-.18 2.184-.363 3.277-.544l-.91-7.463c.97-1.639 1.94-3.278 2.912-4.914l-4.187-9.466a29736.27 29736.27 0 0 0-8.008-7.644l-.77-.04c-3.004-1.842-6.005-3.684-9.007-5.527l-14.69-12.018-10.906-7.123M181.847 49.909c-.309.54-.775 1.403-1.371 2 2.436 2.305 3.638 3.85 4.508 7.11-2.755 1.367-5.51 2.736-8.265 4.102l-6.993 6.705c-3.07-1.651-3.833-2.92-5.319-6.07-1.729.46-3.367.9-4.795.375.907.007 1.462-.219 2.368-.778l4.45-4.623 7.86-5.954 5.146-1.677c.654-.269 1.756-.92 2.411-1.19"/>
  <path fill="#cc0" d="M189.452 58.13c-8.765 4.72-17.16 9.467-21.642 18.43 0-11.377 11.423-16.385 21.642-18.43M166.07 35.75c-6.509 4.438-11.11 13.394-10.533 22.122-2.12-7.558-1.369-14.699 5.14-19.918 1.1-.534 2.197-1.07 3.296-1.602.7-.2 1.398-.4 2.097-.602"/>
  <path d="M253.658 56.356c-1.182-7.443-3.138-14.668-5.853-19.863-.331-.635-.833-1.279-1.455-1.893-1.348-1.33-3.346-2.589-5.409-3.298-2.186-.752-4.491-.906-6.32.05-.476.25-.917.57-1.31.97-1.186 1.201-2.185 2.66-3.186 4.122-1.114 1.627-2.234 3.263-3.573 4.406-1.553 1.328-3.497 2.134-5.33 2.87a36.121 36.121 0 0 0-2.773-5.39c-1.253-1.999-2.68-3.87-4.25-5.741a23.555 23.555 0 0 0-3.881-3.703c-1.354-1.033-2.74-1.902-4.354-2.912-4.327-2.71-8.012-5.942-11.77-9.24-1.707-1.499-3.433-3.01-5.12-4.402-8.95-7.38-17.297-10.958-26.226-11.52-8.867-.558-18.23 1.878-29.285 6.532-5.335 2.246-9.298 4.9-12.75 8.09-3.296 3.05-6.096 6.562-9.173 10.663-1.79.128-3.375.393-4.995 1.041-1.784.713-3.58 1.869-5.732 3.768a129.58 129.58 0 0 0-4.4 4.067 151.874 151.874 0 0 0-3.873 3.897c-10.065 1.617-18.265 3.402-25.608 6.247-7.51 2.908-14.13 6.91-20.93 12.94a55.038 55.038 0 0 0-7.287 7.823c-2.068 2.708-3.838 5.556-5.391 8.56-1.36 1.504-2.722 3.023-4.198 4.352-1.438 1.295-2.971 2.386-4.688 3.047v.001c-.998.385-1.412.61-1.457.595-.05-.028-.077-.177-.148-.453 2.467-2.355 2.855-5.814 3.083-9.248.296.354.58.79.876 1.246.325.503.659 1.022 1.06 1.527l1.674 2.113.589-2.636c.494-2.208.863-5.15.287-7.7-.372-1.654-1.14-3.13-2.478-4.175.129-.334.25-.642.369-.946.42-1.075.852-2.177 1.22-3.22l.725-2.065-2.16.374c-2.873.5-9.05 3.894-13.4 8.408-1.615 1.676-3.003 3.529-3.915 5.473-.948 2.023-1.373 4.14-1.005 6.259.32 1.851 1.247 3.668 2.93 5.384.307 1.236.59 2.309.893 3.277.347 1.102.72 2.087 1.187 3.056 1.267 2.633 3.285 4.24 5.62 4.99 1.877.603 3.953.633 5.99.188a54.687 54.687 0 0 0-.747 7.334c-.128 3.436-.003 7.23.376 11.635.082.966.207 2.03.368 3.185.14.986.306 1.955.485 2.916-.38 1.038-.763 2.078-1.144 3.116-.593 1.611-1.186 3.225-1.777 4.837l-3.911 3.875c-1.216 1.202-2.434 2.408-3.65 3.613-.1.101-.51.495-.882.853-2.466 2.372-2.954 2.843-2.254 7.018a25.45 25.45 0 0 0 2.583 7.649c1.21 2.305 2.834 4.55 4.918 6.639 2.601 2.607 6.862 5.844 11.324 7.54 2.55.969 5.179 1.442 7.645 1.046-.125.38-.248.758-.386 1.14a43.09 43.09 0 0 1-1.301 3.198c-3.027 6.635.08 10.1 4.916 12.305 2.415 1.101 5.286 1.848 7.953 2.544.546.14 1.092.284 1.78.47 3.161.854 8.622 2.423 13.61 2.738 5.443.345 10.353-.78 11.669-5.666.52-1.936.823-3.42.946-4.873.114-1.348.07-2.71-.088-4.396 1.552-3.44 2.21-4.407 3.345-6.066.222-.328.491-.72.572-.844 1.217-1.803 1.787-3.083 1.994-4.524.2-1.39.031-2.776-.22-4.895-.025-.201-.062-.495-.113-.884 3.186.409 6.328.628 9.452.648 1.585.01 3.17-.037 4.755-.12l-1.236.636-.59.304c-4.203 2.161-4.379 6.256-3.063 10.469 1.186 3.799 3.628 7.678 5.16 10.038 3.22 4.962 6.293 9.163 10.019 11.446 3.906 2.394 8.367 2.675 14.127-.441 2.93-1.587 3.854-3.204 5.098-5.383.38-.666.8-1.39 1.268-2.106 1.211-.802 4.223-3.286 7.18-5.732 1.007-.831 2.013-1.66 3.148-2.585.782.575 1.727.975 2.867 1.246 1.482.355 3.248.515 5.362.667 1.583.116 6.745.112 10.08.111 1.03 0 1.886 0 2.399.003 3.442.021 6.221-.16 8.321-1.35 2.238-1.268 3.565-3.516 3.855-7.546.126-1.79.15-2.893-.099-4.021-.232-1.056-.685-2.012-1.463-3.413a9687.15 9687.15 0 0 1-.14-5.224c-.048-1.848-.099-3.697-.148-5.544-.059-2.178-.299-3.947-.74-5.688-.44-1.73-1.065-3.393-1.902-5.388a90.668 90.668 0 0 1-1.479-3.807l-1.208.443.186-.069 1.022-.374v-.005c-.72-1.942-1.43-3.833-2.424-5.856.064-.39.13-.81.192-1.258l1.92 1.85 2.83 2.727c2.158 2.08 4.131 3.97 6.45 5.337 2.396 1.414 5.091 2.235 8.582 2.07 3.653-.173 7.563-1.712 10.783-4.087 3.113-2.299 5.613-5.398 6.656-8.83l.903-2.975.722-2.376c5.124.868 10.624 1.148 15.936.593 5.126-.54 10.079-1.844 14.349-4.122 6.278-3.35 10.985-8.285 14.368-14.144h.002c3.78-6.548 5.897-14.263 6.702-22.203.644-6.369.293-15.026-1.033-23.375zm-66.388 53.518c-2.952-.993-5.005-2.444-7.6-4.078.706 3.182 1.028 6.548.087 9.726-1.492 5.041-3.901 13.289 2.943 14.81 2.606.58 3.787.496 7.465-1.402-2.977.675-4.478.51-6.524.13-1.854-.34-2.837-1.518-3.355-2.907.648.467 1.705.721 3.51 1.157 5.074 1.223 9.909-1.22 10.855-4.739.551-2.056.457-3.136 1.626-5.938a54.3 54.3 0 0 0 3.25.89c-.63 2.049-1.258 4.1-1.886 6.149-1.631 5.32-7.985 9.61-13.595 9.512-5.187-.092-8.475-3.34-12.056-6.526-2.467-2.196-4.84-4.295-7.193-6.375-6.455-2.037-11.629-4.417-17.62-8.851 4.264 5.01 7.156 7.783 13.102 10.277-.865 8.82-3.93 15.251-6.544 23.692-1.183 3.816-10.52 19.111-13.109 20.603-1.845 1.062-13.402 10.796-15.576 12.081-1.62 2.151-3.041 5.122-5.475 6.408-7.419 3.923-12.186-3.588-16.177-9.93-1.818-2.892-6.865-11.215-2.466-13.547 4.161-2.202 6.491-3.777 10.735-6.564.624 1.136 1.694 2.234 2.391 3.37a2540.4 2540.4 0 0 0-.463-3.727c-.279-2.25-.268-4.077-.089-6.341l.517-6.576c-.638 2.228-1.914 4.456-2.552 6.683-.255.892-.466 1.612-.588 2.28-9.523 1.946-18.978 2.067-28.505.368-.608-3.527-1.348-7.202-1.969-9.837-.188 2.951-.066 11.108-.082 15.676-.012 3.538-.16 4.75-1.985 7.76-1.709 2.818-2.432 3.458-4.825 8.22.2 3.005.204 4.99-.594 7.842-1.328 4.742-14.72 1.068-18.253.1-4.351-1.19-13.345-2.96-11.083-8.759 1.99-5.105 3.253-10.487 4.225-17.63-7.971-11.481-15.383-27.217-16.806-41.16-1.104-10.824-.442-17.487 1.901-24.11 3.712-10.491 8.905-19.573 17.238-26.886C61.384 51.862 71.89 47.902 88.34 45.398c-3.956 4.428-7.87 9.111-12.136 14.132-4.318 5.084-6.884 10.218-9.627 15.778-3.788 7.679-3.706 10.601 1.315 17.343 4.327 5.81 6.663 8.425 8.553 14.111-1.56 3.215-2.128 5.934-2.652 10.326 5.299 5.792 9.236 9.76 14.381 10.983 5.046 1.199 9.26.967 13.775-1.34 10.027-5.127 19.305-11.747 30.617-12.02 5.232-12.865 4.703-23.615 2.191-36.062-1.716-8.501-2.404-16.55-2.937-25.216-2.122 8.925-2.52 16.774-.947 25.664 1.898 10.713 3.373 22.55-1.905 31.966-10.228.783-18.994 7.006-28.212 11.78-3.706 1.92-7.563 2.107-11.664.981-3.808-1.046-6.377-3.565-10.478-8.294-.064-4.75 1.008-6.941 3.188-11.242 3.504-6.907 7.371-13.336 11.616-20.132-5.197 6.273-10.12 11.513-14.21 17.82-1.565-4.454-3.8-6.716-7.504-11.732-3.616-4.898-3.995-7.043-1.29-12.713 2.719-5.697 5.025-10.704 9.654-15.702 7.998-8.637 15.324-18.248 24.07-26.755 4.75-4.618 6.678-4.459 12.976-5.413 5.694-.863 11.252-1.952 17.058-3.301-5.615.523-11.042.715-16.51.85-.057.003-.113.005-.17.006 5.38-6.87 8.501-10.698 17.236-14.494 21.508-9.34 35.174-10.35 52.069 3.851 4.379 3.682 8.203 7.255 12.642 10.43-1.61.138-2.997.427-4.832 1.147 2.234-.425 4.813-.004 7.13.42.651.423 1.32.834 2.004 1.238 3.134 1.846 4.913 2.866 7.033 5.82 2.24 3.12 4.108 6.24 5.754 9.677-1.079-.385-1.984-.711-2.79-.95a6.003 6.003 0 0 0-5.657.35l-.13.061c-1.734.844-4.42 1.806-6.216 2.098.916.317 2.944.435 3.9.057.128-.051.258-.09.392-.122a5.999 5.999 0 0 0-.8 2.469 6 6 0 0 0 .641 3.335l.005.01c.163.382.388.734.636.988-.82.302-1.66.648-2.524 1.024 4.008-.611 7.622-.716 11.534-.2.258 1.233.518 2.54.759 3.868l-1.454.114a5.355 5.355 0 0 0-.117.01c-1.85-1.478-3.913-1.23-6.73-.587-8.567 1.953-6.554 6.76-10.495 14.004 4.092-5.002 3.788-10.236 10.457-11.815 1.554-.368 2.612-.83 3.664-.67-1.893.951-3.53 2.53-4.18 4.363-1.83 5.169-.694 9.524-2.705 14.352 2.491-4.316 2.642-8.528 4.869-13.069.8-1.63 3.768-4.241 5.591-4.281l1.5-.033c.44 2.873.706 5.726.536 8.091-.31 4.319-1.432 10.727-2.104 13.18 2.256-2.9 3.284-9.044 4.276-13.369 1.032-4.502.77-9.906-.133-14.743-1.239-6.637 5.596-5.558 9.565-8.685 2.916-2.3 4.926-5.972 7.6-8.574 2.653-2.579 6.828 1.211 7.872 3.733 4.525 10.946 6.586 28.168 5.391 39.202-1.342 12.382-7.322 25.9-18.242 31.995-13.923 7.771-30.338 3.024-44.17-1.637zm-19.782 54.994c-.454 5.109-2.156 5.447-6.643 5.368-2.038-.036-10.154-.073-12.214-.25-2.91-.251-4.543-.511-5.433-1.174 4.572-3.356 12.341-17.213 13.855-21.984 1.602-5.039 3.355-9.438 4.659-14.095.6 1.946 1.074 3.875 1.946 5.943 1.458 3.456 2.17 5.591 2.274 9.298l.331 11.733c1.252 2.193 1.447 2.66 1.225 5.161zM29.895 126.166c2.903 10.043 7.85 19.912 13.333 28.209l-.001.145c-.345 1.427-.741 2.815-1.575 3.931-3.919 5.244-13.888-2.453-16.774-5.398-3.153-3.221-5.265-7.034-5.768-10.612-.366-2.61-.01-2.673 1.81-4.519l7.362-7.453 1.613-4.303zm-5.545-63.16c-.744 1.598-1.272 2.808-1.631 4.054-1.563 5.398.707 10.216-4.194 14.129 2.303 4.647 2.198 6.5 7.555 4.353 2.066-.829 3.77-1.99 5.291-3.364a99.36 99.36 0 0 0-2.031 5.806c-.106.331-.206.664-.304.993-3.83 1.626-8.87 2.659-10.798-1.367-.936-1.955-1.465-3.873-2.147-6.342-6.31-6.537 3.122-15.167 8.26-18.262zm3.101 6.924c-.779-.78-1.402-1.307-2.408-1.193.084-.66.197-1.296.356-1.895.081-.308.167-.61.258-.913 1.306.761 1.65 2.14 1.794 4zM216.63 45.516c.238.502.473 1.013.703 1.53-.19.14-.372.287-.541.442a6.096 6.096 0 0 0-1.321-1.938c.376-.014.762-.026 1.16-.034zM34.485 75.186l-.001-.002zm-20.536 6.938h.001zm69.035 72.17h.002zm56.863 16.975zm23.111-43.926h.001-.001zm-137.957-44.3v-.001H25l-.042-.11.043.11zm221.854 18.237.03.018zM2.74 81.47c1.004-11.367 3.214-16.275 11.29-24.83C3.9 63.779 1.373 67.023 2.74 81.47"/>
  <path d="M.127 72.185c1.116-5.116 2.156-7.046 5.31-11.246C.318 64.514-.349 65.982.126 72.185M118.977.867c-6.068 1.462-7.226 2.585-9.046 8.533 2.904-4.356 4.576-5.773 9.046-8.533"/>
  <path d="M128.547 0c-12.037 2.95-15.574 5.048-19.572 18.999C114.057 8.782 117.906 5.019 128.547 0M154.471 50.856c1.283-5.683 3.563-11.161 12.39-15.399-11.7 2.931-13.894 7.845-12.39 15.4M228.92 51.249c6.928-2.47 10.268-8.04 11.928-14.595-2.713 5.493-6.897 10.087-12.583 12.901-3.051 1.51-5 .984-8.406.66 3.464.995 5.659 2.246 9.06 1.034M181.718 56.82a7.873 7.873 0 0 0-4.414-4.01c1.7-.907 3.369-1.86 4.672-3.044-3.815 1.766-8.257 1.334-11.53 3.546-2.884 1.947-6.863 8.119-9.794 10.736 2.123-.824 4.168-2.248 6.05-3.75a7.847 7.847 0 0 0 4.223 6.903 17.702 17.702 0 0 0-2.558 4.67c5.58-6.612 13.668-11.605 21.274-13.741-2.126-.03-4.643.367-7.207 1.21a7.83 7.83 0 0 0-.716-2.52M173.69 106.78c-.27 1.713-.642 3.84-.913 5.554.724-1.938 1.596-4.19 2.44-6.038.894-1.956 1.397-2.14 3.293-3.172 1.345-.732 3.787-1.738 5.132-2.47-1.383.233-3.864.742-5.247.975-3.697.625-4.132 1.512-4.705 5.152M110.552 40.678c-4.29 4.24-8.456 18.79-9.788 24.612 2.098-4.836 7.345-18.363 11.372-21.805 1.111-.951 1.888-1.535 2.723-1.96-2.882 4.833-2.67 6.035-1.659 12.51.859-6.582 3.135-9.125 6.87-14.036 4.095-1.028 7.927-2.258 12.126-3.897a777.87 777.87 0 0 1-14.204 1.474c-3.979.378-4.62.313-7.44 3.102"/>
  <path fill="#ffc" d="M168.991 65.446a3.293 3.293 0 0 1 1.557-4.386 3.305 3.305 0 0 1 4.578 2.028c-1.565 1.162-3 2.53-4.205 4.116-.81-.325-1.528-.918-1.93-1.758M205.625 51.275c.132-1.356 1.287-2.355 2.642-2.224a2.478 2.478 0 0 1 2.224 2.697 2.48 2.48 0 0 1-.223.808c-1.24.212-2.48.574-3.758 1.045-.534-.547-.96-1.545-.885-2.326"/>
</svg>
