<svg xmlns="http://www.w3.org/2000/svg" viewBox="0 0 256.003 294.508">
  <defs>
    <linearGradient id="a" x1="134.659" x2="134.659" y1="11.828" y2="262.785" gradientTransform="scale(.93315 1.07164)" gradientUnits="userSpaceOnUse">
      <stop offset="0%" stop-color="#F1CB2B"/>
      <stop offset="100%" stop-color="#D62B5F"/>
    </linearGradient>
    <linearGradient id="b" x1="153.396" x2="153.396" y1="10.383" y2="230.686" gradientTransform="scale(.81916 1.22076)" gradientUnits="userSpaceOnUse">
      <stop offset="0%" stop-color="#F1CB2B"/>
      <stop offset="100%" stop-color="#D62B5F"/>
    </linearGradient>
  </defs>
  <path fill="url(#a)" d="M206.69.891 204.85.238a8.514 8.514 0 0 0-6.172.864c-12.609 5.145-26.62 10.896-40.565 16.76-2.514 1.056-2.503 4.614.013 5.661l33.83 14.084a3.082 3.082 0 0 1 1.896 2.84c.017 11.08.164 21.452.026 32.547A3.067 3.067 0 0 1 192 75.782l-89.07 37.502c-2.027.853-4.27-.636-4.27-2.836l.004-83.527c0-3.205-1.793-5.64-4.485-6.998a8.954 8.954 0 0 0-.792-.382L48.854.677a8.516 8.516 0 0 0-7.51.42A5286.757 5286.757 0 0 0 1.885 17.394c-2.49 1.04-2.521 4.55-.054 5.642l33.153 14.657a3.075 3.075 0 0 1 1.832 2.813v106.602c.26 1.163.73 2.16 1.364 2.983.646 1.078 1.71 2.026 3.308 2.783l97.96 46.618.528.206a7.875 7.875 0 0 0 3.53.827l.57-.02a8.034 8.034 0 0 0 7.419-8.042v-32.891c0-1.34.866-2.526 2.144-2.932l36.273-11.528a3.076 3.076 0 0 1 4.007 2.933l-.043 141.388c-.001 1.25.756 2.377 1.913 2.85l1.678.685c.54.219 1.1.382 1.672.489a10.13 10.13 0 0 0 7.062-.191l44.413-18.168c1.706-.746 2.865-1.582 3.592-2.523 1.112-1.17 1.796-2.711 1.796-4.918V26.928c0-2.39-1.09-4.344-2.753-5.74a8.553 8.553 0 0 0-2.523-1.644z" style="fill:url(#a)"/>
  <path fill="url(#b)" d="M98.85 228.987a3.078 3.078 0 0 0-1.756-2.808l-49.43-23.491a7.962 7.962 0 0 0-10.458 4.32c-.16.387-.29.783-.389 1.186v81.225c0 1.227.73 2.336 1.855 2.823l2.587 1.118c.266.108.536.203.811.283a8.512 8.512 0 0 0 6.963.23l44.032-17.544a8.692 8.692 0 0 0 5.38-8.027c.023-.237.03-.474.03-.715z" style="fill:url(#b)"/>
</svg>
