<svg xmlns="http://www.w3.org/2000/svg" viewBox="0 0 255.861 261.983">
  <path fill="#dc3011" fill-opacity=".65" d="M176.588 254.483 23.872 220.596 8.97 65.076 152.228 2.788l103.633 117.055z"/>
  <path fill="#dc3011" fill-opacity=".65" d="M147.65 261.983 5.315 197.085l17.758-155.22 153.078-31.142 77.031 136.043z"/>
  <path fill="#dc3011" d="M203.336 241.13 46.91 239.737 0 90.712 127.178 0l125.705 92.95z"/>
  <path fill="#fff" d="M127.94 79.216c28.573 0 51.736 23.163 51.736 51.736 0 28.573-23.163 51.737-51.736 51.737-28.573 0-51.737-23.164-51.737-51.737s23.164-51.736 51.737-51.736zm0 11.113c-22.435 0-40.623 18.188-40.623 40.623s18.188 40.623 40.623 40.623 40.623-18.188 40.623-40.623-18.188-40.623-40.623-40.623zm18.17 24.313 6.682 9.014-24.852 30.899-24.78-30.9 6.636-9.013z"/>
</svg>
