<svg xmlns="http://www.w3.org/2000/svg" viewBox="0 0 511.574 350.276">
  <path fill="#9b99a6" d="M17.089 260.958c4.2.362 8.162 1.983 11.911 3.816 2.613 1.349 4.385 3.906 5.265 6.658 2.212 6.128.97 13.248-3.047 18.352-2.502 3.025-5.55 5.866-9.483 6.802-5.844 1.727-12.284-.39-16.524-4.613-5.053-5.599-6.897-14.279-3.438-21.165 2.708-5.844 8.892-9.817 15.316-9.85zm51.211-57.73c7.766 4.524 15.12 10.062 20.58 17.283 3.66 4.863 6.903 10.072 9.5 15.582 1.838 4.028 3.286 8.34 3.381 12.803.117 4.29-2.53 8.067-5.549 10.864-3.443 2.808-6.82 5.766-10.736 7.906-5.036 2.646-10.958 3.955-16.608 2.897-6.93-1.159-13.421-4.485-18.675-9.11 1.889-1.208 4-2.89 4-5.353.385-4.608-4.139-8.613-8.618-8.274-1.705.753-2.786 2.402-4.012 3.733-2.819-4.418-5.036-9.605-4.523-14.942 1.426-9.477 4.54-18.87 10.206-26.686.596-.713.658-1.655.741-2.535 2.87-1.939 4.808-5.148 8.173-6.351 4.112-1.527 8.602-.084 12.14 2.183zm203.68-83.095c2.853 2.813 4.853 6.513 5.616 10.446.942 5.493.646 11.187-1.276 16.446-1.593 5.22-4.256 10.881-9.449 13.294-.061-3.026-.746-5.984-1.259-8.954-2.195-11.7-5.605-23.204-10.59-34.023-.898-2.067-1.906-4.09-3.243-5.911 7.75-.758 14.474 4.106 20.201 8.702zm28.102-21.255c4.128.636 7.733 3.588 9.382 7.4 2.184 5.12.808 11.654-3.722 15.058-4.112 3.187-10.39 3.076-14.29-.412 1.972-1.838 4.2-4.373 3.543-7.265-1.967-2.535-5.878-2.173-8.407-.713-.602-4.084.819-8.502 4.056-11.154 2.496-2.345 6.067-3.348 9.438-2.914zm-161.16-35.41c1.754.635 3.487 1.598 4.523 3.22-2.596.462-5.014 1.52-7.46 2.445-9.655 3.789-19.143 8.023-28.252 12.982-4.01 2.2-8.028 4.468-11.488 7.487-2.479 2.201-5.404 3.917-7.504 6.519-.719-6.753.64-13.9 4.752-19.416 1.789-2.92 4.697-4.803 7.037-7.22 3.237-2.981 7.248-5.02 11.393-6.43 2.78-.479 5.387-1.755 8.234-1.872 6.313-.217 12.759.173 18.764 2.284zM70.611.116c3.516.852 7.226 2.222 9.349 5.337 3.699 5.22 3.097 12.63-.719 17.622l-.29-.29c-.858-.858-1.693-1.772-2.73-2.418-1.142-.752-2.964-.111-3.276 1.248-.406 1.995.552 3.9 1.51 5.588-3.37.69-7.036 1.153-10.29-.256-4.875-2.006-8.641-6.786-9.059-12.084.268-4.374 2.658-8.43 5.705-11.483 2.719-2.15 6.257-3.85 9.8-3.264z"/>
  <path fill="#f79727" d="M54.194 256.1c0 2.462-2.112 4.145-4 5.354-2.63 1.615-5.344 3.086-7.917 4.791-2.68 1.716-5.148 3.76-8.012 5.187-.88-2.752-2.652-5.31-5.265-6.658 3.254-5.22 8.586-8.618 12.563-13.215 1.226-1.331 2.307-2.98 4.012-3.733 4.48-.34 9.003 3.666 8.619 8.274zm240.801-142.44c.657 2.89-1.571 5.426-3.543 7.264-4.318 3.605-8.859 7.042-13.856 9.655-.763-3.933-2.763-7.633-5.616-10.446 4.563-2.992 9.928-4.401 14.608-7.187 2.53-1.46 6.44-1.822 8.407.713zM76.222 20.367c1.037.646 1.872 1.56 2.73 2.418 1.56 1.911 3.37 3.582 5.053 5.382 6.847 7.527 13.01 15.638 19.505 23.46a761.35 761.35 0 0 1 8.848 10.976l-.435.451c-4.145 1.41-8.156 3.449-11.393 6.43-1.393-1.432-2.34-3.187-3.399-4.859-5.755-9.187-11.343-18.485-16.54-28-1.834-3.277-4.252-6.18-6.135-9.422-.958-1.688-1.916-3.593-1.51-5.588.312-1.36 2.134-2 3.276-1.248z"/>
  <path fill="#787880" d="M156.41 64.253c6.93-1.109 13.967-.813 20.959-.702 20.53 1.398 41.01 9.293 55.863 23.773 2.09 1.437 3.365 3.677 5.21 5.37 5.247 5.633 9.253 12.257 13.337 18.737 1.337 1.821 2.345 3.844 3.242 5.91 4.986 10.82 8.396 22.325 10.591 34.024.513 2.97 1.198 5.928 1.26 8.953-.251 5.215.907 10.43.189 15.633-.351 2.82-.034 5.683-.552 8.48-.802 5.254-3.109 10.095-5.437 14.814-1.115 2.351-3.566 3.527-5.616 4.92-2.09 1.359-4.858 2.601-7.287 1.353-3.84-2.184-5.689-6.552-6.563-10.685-.964-3.834-.63-7.8-.686-11.706-.607-10.908-1.214-21.9-3.632-32.592-1.621-7.008-4.396-14.073-9.806-19.031-3.426-2.892-7.348-5.226-11.56-6.764-6.301-1.872-12.87-2.958-19.455-2.819-7.95-.178-15.783 1.488-23.433 3.488-7.738 2.011-15.048 5.31-22.268 8.691-5.733 2.43-11.154 5.488-16.664 8.368-3.086 1.666-6.14 3.415-8.92 5.56-5.03 3.839-10.44 7.32-14.563 12.196-4.134 4.875-7.805 10.446-9.059 16.814-1.576 9.37.218 19.01 3.555 27.812 3.816 9.716 9.516 18.658 16.574 26.34 4.88 6.118 11.377 10.597 17.678 15.121 3.449 2.262 5.71 6.262 5.739 10.402-.324 3.454-2.959 6.161-5.678 8.05-2.93 1.81-6.356 2.986-9.827 2.88-8.129-.072-16.324-1.041-24.04-3.671-3.254-1.092-6.246-2.78-9.349-4.212 3.02-2.797 5.666-6.574 5.549-10.864-.095-4.462-1.543-8.775-3.382-12.803-2.596-5.51-5.838-10.719-9.499-15.582-5.46-7.22-12.814-12.759-20.58-17.283-3.538-2.267-8.028-3.71-12.14-2.184-3.365 1.204-5.304 4.413-8.173 6.352-.841-2.446-.446-5.081-.785-7.605-.424-2.947-.19-5.928-.474-8.88-.451-4.073-.234-8.18-.306-12.269-.117-7.994.033-16.034 1.264-23.95 1.193-7.349 4.212-14.246 7.633-20.804 3.71-6.941 8.446-13.315 13.794-19.087 2.925-3.365 6.045-6.58 9.522-9.376 3.125-3.37 7.181-5.75 10.106-9.304 2.1-2.602 5.025-4.318 7.504-6.519 3.46-3.02 7.477-5.287 11.488-7.487 9.11-4.959 18.597-9.193 28.252-12.982 2.446-.924 4.864-1.983 7.46-2.445 4.407-.329 8.563-2.045 12.965-2.435z"/>
  <path fill="#464646" d="M398.325 225.324c2.28 3.293 2.29 7.471 2.235 11.315 4.991-6.083 11.142-11.632 18.786-14.028 9.894-3.059 21.076-1.772 30.001 3.499 6.123 3.504 10.998 8.958 14.263 15.17 4.752 8.753 6.234 18.91 6.011 28.76-.256 10.685-3.025 21.571-9.27 30.368-5.967 8.418-15.622 14.101-25.907 15.098-7.839.736-16.235-.323-22.831-4.914-4.25-2.73-7.638-6.507-11.026-10.195-.06 11.61.017 23.221-.039 34.832-.089 4.223-.596 8.897-3.593 12.145-2.362 2.563-6.095 3.164-9.41 2.808-2.63-.217-5.477-1.265-6.814-3.688-1.782-3.26-2.139-7.07-2.234-10.72-.01-33.99 0-67.974-.01-101.965.016-3.727.751-7.866 3.654-10.48 4.602-4.039 12.77-3.208 16.185 1.995zm-208.114-37.043c3.387 2.74 4.328 7.348 4.367 11.499.05 11.683.028 23.366.012 35.049 4.022-4.446 8.546-8.675 14.156-11.004 7.014-2.919 14.926-3.526 22.358-2.094 7.772 1.493 14.903 6.323 18.78 13.276 3.856 6.09 4.318 13.516 4.463 20.53.028 14.859-.006 29.717.017 44.576.055 3.61-.2 7.432-2.14 10.585-3.766 6.357-14.385 6.88-18.686.875-2.028-3.014-2.418-6.77-2.44-10.307-.011-13.014 0-26.029-.006-39.043-.061-6.145-.53-12.653-3.75-18.051-2.846-4.502-8.68-5.61-13.621-5.265-8.77.451-16.413 7.627-18.04 16.151-.802 4.195-.975 8.485-1.07 12.747-.033 11.326.023 22.653-.028 33.985-.044 3.91-.846 8.184-3.788 11.003-2.83 2.802-7.153 3.354-10.925 2.674-2.435-.429-4.736-1.75-6.14-3.805-1.983-2.852-2.457-6.44-2.496-9.833.006-32.704.006-65.401.006-98.105-.016-4.161-.245-8.59 1.755-12.396 3.07-6.15 12.095-7.075 17.215-3.047zm317.5 35.723c2.864 2.602 3.878 6.613 3.828 10.368 0 22.463.011 44.932-.006 67.396-.022 3.782-.824 7.877-3.599 10.646-3.064 3.237-8.095 4.084-12.223 2.641-3.215-1.13-5.627-3.972-6.624-7.181-1.198-3.583-.825-7.399-.875-11.104.022-21.165-.061-42.325.039-63.485.011-5.13 2.942-10.663 8.24-11.9 3.855-.975 8.301-.217 11.22 2.619zM328 220.917c8.14.853 16.931 2.864 22.664 9.16 5.516 6.178 6.753 14.858 7.182 22.83.195 10.352-.045 20.709-.073 31.06.023 5.527 1.46 10.903 3.07 16.146.758 3.036 2.061 6.418.48 9.415-2.096 3.95-6.636 6.613-11.138 6.14-2.24-.25-4.217-1.51-5.833-3.014-3.164-2.98-5.521-6.675-7.839-10.318-7.571 5.944-16.117 11.243-25.784 12.736-8.513 1.331-17.755.886-25.327-3.6-6.423-3.626-11.159-10.145-12.435-17.426-.991-5.805-.178-12.056 2.892-17.143 2.752-4.585 7.042-8.15 11.911-10.307 5.115-2.362 10.77-3.03 16.213-4.267 10.401-2.095 20.77-4.39 30.965-7.332-.24-4.92-.875-10.212-3.94-14.252-2.94-3.365-7.754-3.894-11.95-4.094-5.833-.084-12.284.217-17.025 4.055-4.374 3.26-6.519 8.435-9.784 12.642-1.42 1.777-3.95 1.794-6.028 1.821-4.267.05-8.596-3.014-9.32-7.337-.552-3.917.579-7.911 2.512-11.304 3.443-6.257 9.811-10.212 16.313-12.697 10.285-3.772 21.494-3.822 32.274-2.914zm7.015 48.025c-9.199 3.114-18.837 4.529-28.23 6.902-3.605.987-7.181 2.942-9.332 6.073-2.73 4.596-1.538 10.981 2.49 14.452 3.733 3.538 9.243 4.156 14.14 3.504 7.182-.908 14.558-4.568 18.101-11.137 2.964-6.134 2.73-13.148 2.83-19.794zm85.156-30.225c-6.312 1.232-11.688 5.722-14.697 11.316-3.554 6.802-4.1 14.725-3.665 22.257.462 7.51 3.058 15.288 8.891 20.34 5.143 4.747 12.859 6.452 19.533 4.346 4.775-1.515 8.78-5.003 11.27-9.315 4.452-7.449 5.188-16.474 4.458-24.943-.697-7.443-3.415-15.17-9.326-20.062-4.49-3.8-10.742-5.164-16.464-3.939zm87.096-49.394c4.83 3.287 5.41 10.518 2.68 15.326-3.861 6.273-13.633 6.92-18.725 1.827-2.786-2.68-3.46-6.891-2.775-10.557.803-4.24 4.474-7.544 8.569-8.569 3.488-.835 7.349-.172 10.251 1.973z"/>
</svg>
