<svg xmlns="http://www.w3.org/2000/svg" viewBox="0 0 255.372 243.667">
  <g fill="#2c1137">
    <path d="M92.55.122c-5.696.59-10.17 3.038-15.493 8.477-2.357 2.408-2.948 3.084-6.98 7.98-5.713 6.934-8.35 9.583-11.926 11.978-2.204 1.475-6.607 3.664-10.34 5.138a5703.43 5703.43 0 0 1-6.308 2.486c-13.388 5.268-18.434 9.944-20.846 19.32-.79 3.068-1.234 6.76-1.67 13.868-.685 11.15-1.403 14.952-3.843 20.35-.843 1.865-2.838 5.244-5.884 9.966-4.89 7.578-6.63 10.785-7.895 14.547-.907 2.7-1.218 4.241-1.338 6.621-.17 3.383.448 6.62 1.966 10.314 1.424 3.466 2.668 5.68 6.733 11.987 4.356 6.76 6.074 9.78 7.27 12.788 1.596 4.01 2.376 8.59 2.897 17.004.33 5.314.537 7.875.809 10.001 1.474 11.516 5.614 17.202 16.141 22.168 1.09.514 4.661 1.997 7.938 3.295 6.957 2.757 9.454 3.85 11.846 5.184 4.92 2.745 7.913 5.575 14.962 14.146 3.567 4.339 6.506 7.609 8.204 9.13 6.337 5.672 11.934 7.507 20.012 6.56 3.008-.352 5.59-.898 12.354-2.613 11.092-2.811 14.878-3.29 20.66-2.615 3.169.37 5.73.909 12.81 2.694 9.34 2.355 12.896 2.925 16.998 2.727 3.382-.164 5.574-.732 8.604-2.23 3.703-1.83 7.926-5.586 12.512-11.126 1.298-1.568 3.35-4.045 4.548-5.488 2.848-3.433 7.164-7.7 9.26-9.157 3.254-2.261 6.957-4.05 14.229-6.871 6.904-2.68 9.782-3.964 12.652-5.647 7.607-4.462 11.009-10.035 12.304-20.157.272-2.126.478-4.687.807-10 .854-13.834 1.94-17.07 9.79-29.183 5.6-8.642 7.686-12.877 8.717-17.702.39-1.83.436-6.286.083-8.084-.402-2.044-1.67-5.645-2.793-7.927-1.158-2.358-3.273-5.906-6.28-10.54-7.737-11.925-8.693-14.932-9.61-30.229-.43-7.195-.88-10.781-1.775-14.164-1.974-7.456-5.898-11.94-13.977-15.971-2.68-1.338-4.205-1.979-11.67-4.907-2.26-.886-5.43-2.262-7.027-3.05-6.417-3.163-9.296-5.69-16.602-14.576-4.097-4.983-5.636-6.71-8.106-9.096-4.865-4.7-9.165-6.864-14.738-7.415-3.747-.37-8.148.238-15.998 2.212-12.25 3.08-13.341 3.27-18.838 3.27-5.519 0-6.589-.186-18.75-3.257C100.995.314 96.51-.29 92.549.122zm17.96 49.845c7.08 3.862 8.004 4.416 8.239 4.942.093.208.12 8.223.068 19.896-.078 17.37-.057 19.594.184 19.958.15.226 1.148.872 2.234 1.446 1.078.57 5.056 2.804 8.823 4.956l6.86 3.92.115-6.76c.062-3.71.141-6.787.175-6.82.033-.034 5.09-3.009 11.224-6.604l11.162-6.542 14.825 8.276.044 48.426c.043 47.407.037 48.437-.286 48.966-.536.88-3.245 2.56-13.602 8.438-2.418 1.372-5.06 2.935-5.896 3.488-.93.614-1.842 1.07-2.357 1.176-.751.156-.955.123-1.902-.305-.578-.261-1.418-.751-1.848-1.078-1.506-1.143-3.014-2.094-5.31-3.349-6.098-3.333-6.135-3.358-6.371-4.31-.081-.326-.104-9.252-.051-19.845.088-17.649.072-19.288-.193-19.687-.164-.247-1.27-.954-2.55-1.63-1.241-.655-5.195-2.874-8.77-4.921-3.575-2.047-6.557-3.728-6.615-3.728-.058 0-.105 3.022-.105 6.716 0 4.443-.064 6.834-.188 7.065-.244.454-2.196 1.68-3.843 2.412-.727.323-2.646 1.383-4.293 2.37-1.635.98-4.679 2.765-6.747 3.955-2.067 1.19-4.23 2.464-4.792 2.823-.561.357-1.35.8-1.744.979-1.438.652-1.594.595-6.816-2.486-2.629-1.551-5.692-3.349-6.8-3.99-1.139-.66-2.11-1.35-2.235-1.586-.34-.646-.225-96.556.117-97.218.188-.362 2.294-1.605 9.198-5.427 4.924-2.725 9.94-5.51 11.145-6.185 1.209-.678 2.253-1.232 2.33-1.237.078-.005 3.032 1.569 6.572 3.5z"/>
    <path d="M83.21 108.71v47.11l2.146 1.106c1.176.606 3.724 1.997 5.634 3.075 1.91 1.079 3.562 1.97 3.653 1.97.107 0 .148-6.752.114-18.948-.05-17.736-.033-18.983.254-19.513.254-.47.412-.566.92-.566.837 0 1.49.3 3.698 1.705 1.038.661 3.592 2.175 5.66 3.356 2.075 1.185 7.938 4.553 13.055 7.5a2125.52 2125.52 0 0 0 14.457 8.257c5.116 2.878 5.811 3.328 6.177 4.009.22.406.191 21.813-.041 32.11-.094 4.146-.083 6.562.032 6.977.096.349.429.871.736 1.155.436.404 10.391 6.058 11.162 6.34.094.035.158-18.88.158-46.809 0-37.284-.045-46.902-.219-47.04-.12-.097-2.497-1.48-5.3-3.084a858.442 858.442 0 0 1-5.66-3.258l-.58-.349.027 18.616c.015 10.245-.026 18.89-.09 19.226-.191.993-.52 1.302-1.373 1.29-.907-.015-1.735-.427-4.328-2.158-1.112-.741-3.47-2.165-5.257-3.174l-7.343-4.143a994.872 994.872 0 0 1-17.278-10.025c-2.208-1.312-4.77-2.76-5.695-3.22-1.945-.967-2.706-1.6-2.925-2.439-.09-.348-.11-8.816-.045-19.687.062-10.489.053-19.243-.021-19.444-.104-.282-6.892-4.37-11.606-6.988-.068-.038-.123 21.135-.123 47.042z"/>
  </g>
</svg>
