<svg xmlns="http://www.w3.org/2000/svg" viewBox="0 0 511.303 77.833">
  <path fill="#333" fill-opacity=".937" d="M284.391 20.318c3.718 0 7.681.526 11.89 1.58 4.278 1.052 8.626 2.595 13.041 4.626l-7.685 12.705-1.158-.532c-3.417-1.546-6.292-2.667-8.627-3.361-2.595-.838-5.086-1.257-7.474-1.257-1.542 0-2.804.244-3.785.734-.912.422-1.368 1.123-1.368 2.102 0 .564.14 1.056.423 1.479.281.349.774.699 1.478 1.05.704.35 1.653.736 2.847 1.157l.79.215c1.099.291 2.378.605 3.837.942 3.96.989 7.33 2.04 10.108 3.154l.514.21c2.877 1.126 5.157 2.39 6.84 3.792 1.753 1.334 2.98 2.876 3.682 4.627.771 1.683 1.157 3.644 1.157 5.884 0 5.68-2.174 10.166-6.523 13.46-4.278 3.298-10.134 4.948-17.567 4.948l-.035-.042c-2.313 0-4.802-.176-7.467-.526a97.394 97.394 0 0 1-7.89-1.366 81.447 81.447 0 0 1-7.363-1.998c-2.38-.84-4.446-1.752-6.196-2.733l7.685-13.56c3.856 2.032 7.537 3.574 11.045 4.625 3.507 1.051 6.77 1.577 9.787 1.577 3.507 0 5.26-.876 5.26-2.629 0-.912-.7-1.718-2.101-2.418-1.402-.697-4.064-1.535-7.987-2.514l-1.442-.393c-3.295-.916-6.11-1.835-8.446-2.756-2.662-1.046-4.798-2.203-6.408-3.47-1.616-1.328-2.773-2.763-3.47-4.305-.704-1.61-1.056-3.467-1.056-5.573 0-2.803.561-5.395 1.684-7.776 1.191-2.38 2.839-4.446 4.943-6.196 2.103-1.75 4.591-3.081 7.466-3.993 2.944-.98 6.135-1.469 9.571-1.469zm-61.275.08c8.837 0 15.64 1.965 20.408 5.895 4.768 3.93 7.152 9.818 7.152 17.664v10.722c0 1.891.352 3.223 1.056 3.994.704.704 1.968 1.126 3.792 1.267V76.76a51.312 51.312 0 0 1-5.156.734c-1.614.215-3.053.322-4.315.322-3.576 0-6.31-.63-8.204-1.891-1.824-1.328-3.018-3.256-3.581-5.784l-.423-1.992c-2.454 3.159-5.294 5.576-8.52 7.253-3.225 1.616-6.662 2.424-10.31 2.424l-.03-.034c-2.734 0-5.294-.456-7.678-1.368-2.384-.91-4.453-2.136-6.207-3.679a18.071 18.071 0 0 1-3.996-5.676c-.98-2.173-1.469-4.52-1.469-7.043 0-2.803.597-5.361 1.79-7.673 1.194-2.314 2.844-4.311 4.95-5.992 2.105-1.682 4.597-2.979 7.474-3.89 2.943-.91 6.169-1.366 9.676-1.366 4.493 0 8.212.7 11.156 2.102v-1.682c0-2.593-.772-4.52-2.314-5.782-1.469-1.26-3.886-1.89-7.252-1.89-2.955 0-5.698.46-8.228 1.384l-.504.19c-2.662.986-5.465 2.458-8.409 4.416L198.19 27.44c7.294-4.694 15.602-7.041 24.926-7.041zm180.305-.003c4.695 0 8.878.737 12.549 2.212l.497.206c3.593 1.465 6.62 3.436 9.082 5.912l.384.395a24.44 24.44 0 0 1 5.579 8.603l.205.55c1.327 3.434 1.991 7.045 1.991 10.834 0 1.053-.07 2.139-.211 3.259a29.853 29.853 0 0 1-.322 2.836H394.37c.211 2.944 1.298 5.084 3.262 6.418 1.963 1.26 4.1 1.891 6.414 1.891 2.18 0 4.215-.49 6.106-1.468 1.965-.98 3.263-2.344 3.893-4.094l16.94 4.838c-2.243 4.42-5.714 8.03-10.412 10.833-4.628 2.803-10.343 4.205-17.145 4.205v-.034c-4.839 0-9.151-.736-12.938-2.208-3.787-1.542-6.978-3.61-9.572-6.202a26.855 26.855 0 0 1-5.784-8.936c-1.333-3.364-2-6.903-2-10.617 0-3.994.63-7.778 1.891-11.353 1.328-3.574 3.256-6.692 5.784-9.354 2.595-2.664 5.75-4.766 9.466-6.307 3.782-1.613 8.164-2.42 13.147-2.42zM459.942 0v53.403c0 4.205 1.717 6.307 5.15 6.307.838 0 1.75-.141 2.736-.423.98-.28 1.891-.665 2.736-1.156l2.525 16.084c-2.387 1.122-5.09 1.998-8.107 2.628-2.944.63-5.75.946-8.42.946-5.331 0-9.435-1.367-12.312-4.1-2.877-2.729-4.315-6.685-4.315-11.869V.008l.03-.007zm38.214 0v53.403c0 4.205 1.717 6.307 5.15 6.307.838 0 1.75-.141 2.736-.423.98-.28 1.891-.665 2.736-1.156l2.525 16.084c-2.387 1.122-5.09 1.998-8.108 2.628-2.944.63-5.75.946-8.419.946-5.331 0-9.432-1.367-12.302-4.1-2.877-2.729-4.315-6.685-4.315-11.869V.008l.01-.007zM142.49 2.104v27.542h25.037V2.104h20.51V76.74h-20.51V47.516H142.49v29.222h-20.51V2.104zM337.618 0v41.946l14.727-20.5h21.037l-19.04 24.177 20.933 31.117h-21.142l-12.518-20.184-3.997 4.416v15.766h-19.987V0zM222.973 51.931c-2.454 0-4.49.594-6.105 1.78-1.616 1.188-2.425 2.693-2.425 4.517 0 1.543.597 2.803 1.791 3.782 1.26.98 2.837 1.469 4.728 1.469l.019.015c1.192 0 2.42-.175 3.681-.525 1.262-.421 2.384-.947 3.366-1.577.771-.56 1.403-1.157 1.894-1.788.491-.7.737-1.401.737-2.102v-4.1a28.608 28.608 0 0 0-3.893-1.05c-1.409-.28-2.673-.42-3.793-.42zM403.11 34.586c-2.528 0-4.597.77-6.206 2.313-1.61 1.543-2.592 3.645-2.948 6.307h18.308c-.356-2.662-1.338-4.764-2.948-6.307-1.616-1.542-3.685-2.313-6.206-2.313z"/>
  <path fill="#453a62" d="M0 2.218h18.667l24.89 37.312-24.89 37.31H0l24.89-37.31z"/>
  <path fill="#5e5086" d="M24.89 2.218h18.667L93.335 76.84H74.67L59.114 53.522 43.556 76.84H24.89l24.89-37.31z"/>
  <path fill="#8f4e8b" d="m85.04 55.076-8.296-12.438h29.038v12.439H85.04zM72.595 36.42 64.3 23.984h41.483V36.42z"/>
</svg>
