<svg xmlns="http://www.w3.org/2000/svg" viewBox="0 0 255.892 255.888">
  <path fill="#fbc707" d="m127.946 31.987-72.874-8.07L0 0h63.97l63.976 31.99M127.946 31.987l74.542-6.402L255.892 0h-63.975l-63.971 31.99"/>
  <path fill="#f68712" d="m127.946 223.901 69.536 2.503 58.41 29.484h-63.975l-63.971-31.992"/>
  <path fill="#f25c19" d="M127.946 223.901H57.854L0 255.887h63.97l63.976-31.991"/>
  <path fill="#fff200" d="M31.985 127.945v67.307L0 255.887v-63.97l31.985-63.974"/>
  <path fill="#fff200" d="m31.985 127.945-5.283-66.758L0 0v63.97l31.985 63.973"/>
  <path fill="#f1471d" d="m223.9 127.945 6.959-70.095L255.892 0v63.97L223.9 127.943"/>
  <path fill="#f1471d" d="m223.9 127.945 5.846 75.095 26.146 52.847v-63.97L223.9 127.943"/>
  <path fill="#fab20b" d="m0 0 127.946 31.987-20.583 81.491-75.378 14.467L0 .007"/>
  <path fill="#f47216" d="M255.892 0 223.9 127.945l-85.942-15.583-10.013-80.38L255.892.008"/>
  <path fill="#f25c19" d="m255.892 255.887-127.946-31.986 14.463-84.827 81.492-11.123 31.99 127.929"/>
  <path fill="#f89c0e" d="m0 255.887 31.985-127.942 77.047 17.241 18.914 78.715L0 255.88"/>
  <path fill="#f68712" d="m127.946 31.987-95.96 95.958 95.96 95.956 95.955-95.956-95.955-95.954"/>
</svg>
