<svg xmlns="http://www.w3.org/2000/svg" viewBox="0 0 512 101.85">
  <path fill="#2a3b47" d="m140.797 19.2-.182.06v27.246H114.77V19.26l-.183-.061c-3.84-.793-7.619-.793-11.398 0l-.182.06v62.658l.182.061c1.89.366 3.78.61 5.669.61 1.89 0 3.779-.183 5.73-.61l.182-.06V56.501h25.844v25.416l.182.061c3.78.793 7.62.793 11.398 0l.183-.06V19.26l-.183-.061c-3.84-.732-7.619-.732-11.398 0zm40.045 17.615c-13.53 0-21.576 8.533-21.576 22.856 0 7.436 1.706 13.349 5.12 17.432 3.718 4.45 9.264 6.705 16.64 6.705 12.494 0 18.894-7.436 19.686-14.811v-.183l-.182-.061c-3.17-1.036-6.096-1.28-9.57-.792h-.122v.122c-.731 4.388-4.388 7.009-9.69 7.009-7.437 0-11.094-4.084-11.216-12.495h31.45v-.183c.915-8.29-.73-14.994-4.753-19.565-3.718-3.901-9.143-6.034-15.787-6.034zm-.122 8.106c3.109 0 5.73.975 7.497 2.865 1.829 1.95 2.743 4.876 2.56 8.35h-20.845c.183-7.131 4.145-11.215 10.788-11.215zM209.002 19.2l-.183.06v62.658l.183.061c1.767.366 3.535.61 5.364.61 1.767 0 3.596-.183 5.363-.61l.183-.06V19.26l-.183-.061c-3.535-.793-7.131-.732-10.727 0zm41.751 17.615c-4.693 0-9.63 1.828-14.323 5.302l-.67-3.291-.122-.061c-2.682-.792-4.877-.792-7.497 0l-.122.06v62.354l.182.061c1.768.366 3.536.61 5.364.61 1.829 0 3.596-.183 5.364-.61l.183-.06V80.333c3.718 2.377 7.68 3.474 12.129 3.474 12.312 0 19.687-8.716 19.687-23.405-.06-14.933-7.375-23.588-20.175-23.588zM238.93 49.188c3.291-2.256 6.339-3.292 9.63-3.292 7.497 0 11.58 5.181 11.58 14.69 0 9.325-4.022 14.262-11.702 14.262-3.291 0-6.4-1.036-9.508-3.23zm78.993-.976c-1.89-.731-3.596-1.34-5.242-1.89-8.533-3.047-13.653-4.875-13.775-9.507-.061-2.134.61-3.962 2.072-5.486 2.134-2.194 5.73-3.352 10.118-3.352 4.328 0 7.68 1.158 9.691 3.291 1.707 1.829 2.438 4.328 2.256 7.436v.183l.182.06c3.718.732 7.437.671 11.46-.243l.182-.06v-.184c.244-5.242-1.34-9.813-4.571-13.226-4.023-4.267-10.484-6.522-18.651-6.583h-.244c-15.177 0-24.32 6.766-24.442 18.103-.06 11.276 10.301 15.055 16.518 17.249l.915.366c2.072.73 4.022 1.401 5.729 2.01 8.411 2.927 13.47 4.694 13.653 9.144.06 2.316-.61 4.205-2.011 5.668-2.012 2.072-5.547 3.109-10.24 3.048-5.181 0-9.143-1.341-11.398-3.78-1.646-1.828-2.316-4.144-2.072-6.948v-.183l-.183-.06a27.633 27.633 0 0 0-11.398.182l-.122.061v.183c-.305 5.059 1.219 9.57 4.51 13.044 4.389 4.693 11.581 7.13 20.846 7.07 9.081 0 24.014-2.438 24.136-18.285-.182-10.545-9.203-13.958-17.92-17.31zm45.165-2.316c7.497 0 9.264 4.876 9.63 7.741v.183h.183c3.474.549 6.765.305 9.935-.61l.183-.06v-.183c-.305-4.389-2.195-8.35-5.303-11.215-3.535-3.23-8.594-4.998-14.567-4.998-14.263 0-22.126 8.35-22.126 23.527 0 15.116 7.802 23.466 21.943 23.466 6.095 0 11.215-1.768 14.81-5.12a16.617 16.617 0 0 0 5.182-10.666v-.183l-.183-.061c-2.987-1.036-6.278-1.22-9.874-.61h-.122v.122c-.975 6.827-7.62 7.314-9.63 7.314-7.68 0-11.276-4.571-11.276-14.384-.061-9.691 3.535-14.263 11.215-14.263zm46.932-9.081c-14.019 0-21.76 8.35-21.76 23.527 0 15.116 7.741 23.466 21.76 23.466 14.019 0 21.76-8.35 21.76-23.466 0-15.177-7.741-23.527-21.76-23.527zm11.154 23.588c0 9.69-3.657 14.384-11.154 14.384s-11.154-4.693-11.154-14.384c0-9.874 3.535-14.507 11.154-14.507 7.497 0 11.154 4.754 11.154 14.507zm45.714-21.577-.183.06v31.208c-3.535 3.047-6.766 4.388-10.484 4.388-5.242 0-7.497-2.986-7.497-10.057v-25.6l-.183-.06c-3.535-.853-7.131-.853-10.727 0l-.183.06v28.1c0 10.666 5.73 16.822 15.786 16.822 5.364 0 10.057-2.072 15.116-6.705l1.036 4.876.122.061c2.56.67 5.242.67 7.802 0l.183-.06V38.825l-.183-.061c-3.413-.853-7.01-.853-10.605.06zm44.555 34.742-.061-.183-.183.061c-4.267.975-6.766.915-8.228-.244-1.22-.975-1.768-2.681-1.768-5.363V47.847h8.655l.061-.183c.61-2.926.61-5.912 0-8.899l-.06-.183h-8.656V26.758l-.183-.061a24.228 24.228 0 0 0-10.666 0l-.183.06.06 11.825h-5.485l-.06.183a19.937 19.937 0 0 0 0 8.899l.06.183h5.486l.06 19.2c0 5.363.305 10.788 4.023 13.896 2.012 1.646 4.938 2.5 8.717 2.5 2.316 0 4.998-.305 8.106-.915h.122l.06-.122c.854-2.865.915-5.851.123-8.838z"/>
  <path fill="#1292ee" d="m6.034 59.245 29.622-29.623a20.86 20.86 0 0 0 6.218-14.872c0-5.73-2.317-10.971-6.035-14.75L6.217 29.622A20.86 20.86 0 0 0 0 44.494c0 5.79 2.316 10.972 6.034 14.75zm71.74-17.31L48.15 71.556a20.86 20.86 0 0 0-6.217 14.872c0 5.73 2.317 10.971 6.035 14.75L77.59 71.557a20.86 20.86 0 0 0 6.217-14.872c0-5.79-2.316-10.972-6.034-14.75zm-.183-12.252a20.86 20.86 0 0 0 6.217-14.872c0-5.73-2.316-10.971-6.034-14.75L6.217 71.557C2.377 75.397 0 80.639 0 86.49c0 5.73 2.316 10.971 6.034 14.75z"/>
</svg>
