<svg xmlns="http://www.w3.org/2000/svg" viewBox="0 0 256 256">
  <path fill="#048991" d="M201.195 23.019V59.19c16.91 17.982 27.292 42.177 27.292 68.809 0 55.497-44.99 100.487-100.487 100.487a100.32 100.32 0 0 1-28.63-4.146c-.146-.044-.01-81.483-.01-81.483l57.538.18v65.223c10.734-3.265 21.253-10.142 31.615-19.658V112.69h-89.1s.085-64.966-.043-64.937c-17.388 3.88-32.426 19.535-32.426 19.535v173.237C85.092 250.394 105.89 256 128 256c70.693 0 128-57.307 128-128 0-43.465-21.684-81.845-54.805-104.981"/>
  <path fill="#818285" d="M27.514 128C27.514 72.503 72.503 27.514 128 27.514a100.34 100.34 0 0 1 28.838 4.206v68.288h31.969V15.344C170.718 5.559 150.009 0 128 0 57.308 0 0 57.308 0 128c0 43.356 21.577 81.65 54.557 104.805v-36.256C37.791 178.594 27.514 154.503 27.514 128"/>
</svg>
