<svg xmlns="http://www.w3.org/2000/svg" viewBox="0 0 512 143.82">
  <g fill="#430098">
    <path d="M116.494 0c7.045 0 12.776 5.627 12.94 12.634l.005.31v117.932c0 7.045-5.63 12.776-12.634 12.94l-.31.005H12.944c-7.044 0-12.776-5.63-12.94-12.634l-.004-.31V12.943C0 5.898 5.63.168 12.634.004l.31-.004zm0 7.191H12.944a5.761 5.761 0 0 0-5.749 5.533l-.004.22v117.932a5.761 5.761 0 0 0 5.533 5.749l.22.004h103.55a5.76 5.76 0 0 0 5.749-5.532l.004-.22V12.943a5.76 5.76 0 0 0-5.753-5.753zM32.36 93.483l16.18 14.382-16.18 14.382zm14.382-71.91v40.829c7.18-2.337 17.217-4.874 26.966-4.874 8.89 0 14.211 3.495 17.11 6.427 6.091 6.163 6.266 13.988 6.26 15.1l-.001.046.002 43.146H82.697V79.3c-.07-3.357-1.688-7.389-8.99-7.389-14.476 0-30.697 7.208-31.179 7.424l-.01.004-10.158 4.603V21.573zm50.337 0c-.971 8.169-4.283 16-10.787 23.37H71.91c5.652-7.415 9.201-15.219 10.787-23.37zM365.095 45.821c12.76 0 26.022 8.104 26.022 27.527 0 19.427-13.262 27.528-26.022 27.528-12.833 0-26.093-8.101-26.093-27.528 0-19.423 13.26-27.527 26.093-27.527zm116.724 1.005v31.687c0 7.308 2.366 10.607 8.103 10.607 5.733 0 8.027-3.299 8.027-10.607V46.826H512v31.757c0 14.053-6.738 22.079-22.222 22.079-15.486 0-22.296-8.026-22.296-22.079V46.826zm-305.684 0v19.712h17.634V46.826h14.339v53.048h-14.339V78.44h-17.634v21.434h-14.337V46.826zm88.29 0v11.901H240.91v8.602h16.775v11.184h-16.775v9.82h24.734v11.541h-39.07V46.826zm37.684 0c13.62 0 21.936 4.518 21.936 17.276 0 8.315-3.515 13.12-10.467 15.483l11.254 20.29h-15.196l-10.253-18.422h-3.942v18.421h-14.05V46.826zm119.304 0V66.04l14.627-19.214h16.629l-17.85 20.933 19.426 32.115h-16.201l-12.543-21.22-4.088 4.731v16.49h-14.335V46.825zM365.095 57.65c-7.527 0-11.756 5.95-11.756 15.698 0 9.753 4.229 16.06 11.756 16.06 7.455 0 11.683-6.307 11.683-16.06 0-9.749-4.228-15.698-11.683-15.698zm-63.49.788h-6.164v12.115h6.164c5.879 0 8.459-1.649 8.459-6.093 0-4.442-2.58-6.022-8.459-6.022z"/>
  </g>
</svg>
