<svg xmlns="http://www.w3.org/2000/svg" viewBox="0 0 255.9 243.1">
  <path fill="#78758c" d="m177.8 119.4-1.8-3.1-60.3-19.7-1.7 2-2.6.6-53.6 125.2.7 3.8 129.1-54.5 1.1-2.2-9-50z"/>
  <path fill="#a3edba" d="M58.5 228.2 114 98.6 0 61.4z"/>
  <path fill="#8087e8" d="M156.3 0 114 98.6l63.8 20.8.3-.8L156.7.9z"/>
  <path fill="#30426b" d="m177.8 119.4 9.8 54.3 4.5-.1 61.1-26.5 2.7-2.3-3.2-2.7-71.9-24.2z"/>
  <path fill="#6699a1" d="m187.6 173.7 12.5 69.4 55.8-98.3zM156.3 0l21.5 119.4 78.1 25.4z"/>
</svg>
