<svg xmlns="http://www.w3.org/2000/svg" viewBox="0 0 512 183.546">
  <path fill="#424a52" d="M101.855 36.8H45.237c-4.67 0-8.464-3.797-8.464-8.47V8.762C36.773 4.089 32.979 0 28.309 0H8.755C4.085 0 0 4.089 0 8.762V65.13c0 4.673 4.086 8.47 8.755 8.47h129.581c4.67 0 8.464-3.797 8.464-8.47V8.762c0-4.673-3.794-8.762-8.464-8.762h-19.553c-4.67 0-8.464 4.089-8.464 8.762V28.33c0 4.673-3.794 8.47-8.464 8.47z"/>
  <path fill="#fa8a75" d="M44.945 146.773h56.618c4.67 0 8.464 3.794 8.464 8.464v19.553c0 4.67 3.794 8.756 8.464 8.756h19.554c4.67 0 8.755-4.086 8.755-8.756v-56.326c0-4.67-4.086-8.464-8.755-8.464H8.464C3.794 110 0 113.794 0 118.464v56.326c0 4.67 3.794 8.756 8.464 8.756h19.553c4.67 0 8.464-4.086 8.464-8.756v-19.553c0-4.67 3.794-8.464 8.464-8.464zM227.745 37.173h56.618c4.67 0 8.464 3.794 8.464 8.464V65.19c0 4.67 3.794 8.756 8.464 8.756h19.554c4.67 0 8.755-4.086 8.755-8.756V8.864c0-4.67-4.086-8.464-8.755-8.464H191.264c-4.67 0-8.464 3.794-8.464 8.464V65.19c0 4.67 3.794 8.756 8.464 8.756h19.553c4.67 0 8.464-4.086 8.464-8.756V45.637c0-4.67 3.794-8.464 8.464-8.464z"/>
  <path fill="#424a52" d="M284.655 146.773h-56.618c-4.67 0-8.464-3.794-8.464-8.464v-19.554c0-4.67-3.794-8.755-8.464-8.755h-19.554c-4.67 0-8.755 4.086-8.755 8.755v56.327c0 4.67 4.086 8.464 8.755 8.464h129.581c4.67 0 8.464-3.794 8.464-8.464v-56.327c0-4.67-3.794-8.755-8.464-8.755h-19.553c-4.67 0-8.464 4.086-8.464 8.755v19.554c0 4.67-3.794 8.464-8.464 8.464zM410.145 37.173h56.618c4.67 0 8.464 3.794 8.464 8.464V65.19c0 4.67 3.794 8.756 8.464 8.756h19.554c4.67 0 8.755-4.086 8.755-8.756V8.864C512 4.194 507.914.4 503.245.4H373.664c-4.67 0-8.464 3.794-8.464 8.464V65.19c0 4.67 3.794 8.756 8.464 8.756h19.553c4.67 0 8.464-4.086 8.464-8.756V45.637c0-4.67 3.794-8.464 8.464-8.464z"/>
  <path fill="#fa8a75" d="M410.145 146.773h56.618c4.67 0 8.464 3.794 8.464 8.464v19.553c0 4.67 3.794 8.756 8.464 8.756h19.554c4.67 0 8.755-4.086 8.755-8.756v-56.326c0-4.67-4.086-8.464-8.755-8.464H373.664c-4.67 0-8.464 3.794-8.464 8.464v56.326c0 4.67 3.794 8.756 8.464 8.756h19.553c4.67 0 8.464-4.086 8.464-8.756v-19.553c0-4.67 3.794-8.464 8.464-8.464z"/>
</svg>
