<svg xmlns="http://www.w3.org/2000/svg" viewBox="0 0 511.716 118.029">
  <g fill="#e94e1b">
    <path d="M112.629 19.414v78.944c1.671 1.542 3.343 2.828 5.143 4.114V15.3c-1.8 1.286-3.6 2.7-5.143 4.114z"/>
    <path d="M103.886 112.629h-22.5c-4.757 0-8.743-3.857-8.743-8.743C72.643 96.3 66.472 90 58.757 90a13.828 13.828 0 0 0-13.885 13.886c0 4.757-3.858 8.743-8.743 8.743H13.886c-4.757 0-8.743-3.857-8.743-8.743v-90c0-4.757 3.986-8.615 8.743-8.615h22.5c4.757 0 8.743 3.858 8.743 8.743C45.129 21.6 51.3 27.9 59.015 27.9A13.828 13.828 0 0 0 72.9 14.014c0-4.757 3.857-8.743 8.743-8.743h22.5c4.372 0 7.972 3.343 8.615 7.586 1.414-1.157 2.957-2.186 4.5-3.214-2.058-5.529-7.2-9.514-13.372-9.514h-22.5C73.8.129 67.5 6.3 67.5 14.014c0 4.757-3.857 8.743-8.743 8.743-4.885 0-8.743-3.857-8.743-8.743C50.272 6.3 43.972.13 36.386.13h-22.5C6.3.129 0 6.3 0 14.014v90C0 111.6 6.171 117.9 13.886 117.9h22.5c7.586 0 13.886-6.171 13.886-13.885 0-4.757 3.857-8.743 8.743-8.743 4.885 0 8.742 3.857 8.742 8.743 0 7.585 6.172 13.885 13.886 13.885h22.5c6.043 0 11.315-3.985 13.115-9.385-1.543-1.029-3.086-2.057-4.5-3.215-.772 4.115-4.5 7.329-8.872 7.329z"/>
    <path d="M148.886 112.629c-11.571 0-22.371-3.729-31.243-10.029-1.8-1.285-3.471-2.7-5.143-4.114a53.484 53.484 0 0 1-17.357-39.471c0-15.558 6.815-29.7 17.486-39.6 1.671-1.544 3.343-2.83 5.143-4.115 8.743-6.3 19.543-10.029 31.243-10.029A53.515 53.515 0 0 1 190.8 25.33c1.028-1.415 2.057-2.829 3.214-4.243-10.8-12.857-27-20.957-45-20.957-11.7 0-22.757 3.471-31.886 9.385-1.543 1.029-3.086 2.057-4.5 3.215C99 23.529 90.257 40.243 90.257 58.886c0 18.643 8.743 35.357 22.372 46.157 1.414 1.157 2.957 2.186 4.5 3.215 9.257 5.914 20.186 9.385 31.886 9.385 18 0 34.2-8.228 45-20.957-1.157-1.286-2.186-2.7-3.214-4.243-9.9 12.343-24.943 20.186-41.915 20.186z"/>
    <path d="M197.1 25.329c-1.156 1.414-2.185 2.957-3.214 4.371 5.529 8.357 8.743 18.514 8.743 29.186 0 10.671-3.214 20.829-8.743 29.186a54.63 54.63 0 0 0 3.215 4.371c6.685-9.514 10.671-21.086 10.671-33.686 0-12.6-3.986-23.914-10.671-33.428z"/>
    <path d="M270.13 102.6c-8.743 6.3-19.543 10.029-31.243 10.029A53.515 53.515 0 0 1 197.1 92.572c-1.157-1.415-2.186-2.957-3.215-4.372-5.528-8.357-8.742-18.385-8.742-29.185 0-10.8 3.214-20.83 8.742-29.186a54.63 54.63 0 0 1 3.215-4.372c9.9-12.343 24.943-20.186 41.914-20.186 11.572 0 22.372 3.729 31.243 10.03v-1.287c0-1.543.386-2.957.9-4.243C261.901 3.73 250.844.257 239.015.257c-18 0-34.2 8.229-45 20.957-1.157 1.286-2.186 2.7-3.214 4.243-6.686 9.515-10.672 21.086-10.672 33.686 0 12.6 3.986 24.043 10.672 33.686 1.028 1.414 2.057 2.829 3.214 4.243 10.8 12.857 27 20.957 45 20.957 11.829 0 22.886-3.471 32.143-9.514-.643-1.286-.9-2.829-.9-4.243zM297.773 59.015c0-18.643-8.743-35.358-22.372-46.158-.129.386-.129.772-.129 1.157v5.4a53.484 53.484 0 0 1 17.358 39.472c0 15.557-6.686 29.7-17.358 39.472v5.528c0 .386 0 .772.13 1.157 13.628-10.8 22.37-27.386 22.37-46.028z"/>
    <path d="M289.544 5.271c-7.2 0-13.243 3.343-14.143 7.586-.129.386-.129.772-.129 1.157V103.886c0 .386 0 .772.13 1.157.9 4.243 7.07 7.586 14.142 7.586h39.343c11.571 0 22.371-3.729 31.243-10.029v1.286c0 1.543.257 2.957.9 4.243-9.257 6.043-20.186 9.514-32.014 9.514h-39.472c-8.871 0-16.072-3.985-18.514-9.514-.643-1.286-.9-2.829-.9-4.243V14.014c0-1.543.385-2.957.9-4.243C273.472 4.114 280.8.13 289.544.13h39.343c11.829 0 22.757 3.471 32.014 9.514-.514 1.414-.9 2.828-.9 4.371V15.3C351.387 9 340.587 5.271 329.016 5.271zM387.773 59.015c0-18.643-8.743-35.358-22.372-46.158 0 .386-.128.772-.128 1.157v5.4a53.484 53.484 0 0 1 17.357 39.472c0 15.557-6.686 29.7-17.357 39.472v5.528c0 .386 0 .772.128 1.157a58.395 58.395 0 0 0 22.372-46.028zM416.444 19.414v78.944c1.672 1.542 3.343 2.828 5.143 4.114V15.3c-1.8 1.286-3.471 2.7-5.143 4.114z"/>
    <path d="M405.002 112.629h-28.158c-5.785 0-10.671-3.343-11.443-7.586 0-.385-.128-.771-.128-1.157V13.886c0-.386 0-.772.128-1.157.772-4.243 5.529-7.586 11.443-7.586h28.158c5.785 0 10.671 3.343 11.442 7.586a54.63 54.63 0 0 1 4.372-3.215C418.63 3.986 412.33 0 405.002 0h-28.158c-7.328 0-13.628 3.986-15.814 9.514-.514 1.415-.9 2.829-.9 4.372v89.872c0 1.542.257 2.957.9 4.242 2.186 5.529 8.486 9.515 15.814 9.515h28.158c7.328 0 13.628-3.986 15.814-9.515a54.628 54.628 0 0 1-4.372-3.214c-.9 4.629-5.657 7.843-11.442 7.843z"/>
    <path d="M511.588 30.857V14.014C511.588 6.3 505.416.13 497.83.13h-45c-11.828 0-22.757 3.471-32.014 9.514a54.63 54.63 0 0 0-4.372 3.214c-13.628 10.8-22.371 27.515-22.371 46.158 0 18.642 8.743 35.357 22.371 46.157a54.63 54.63 0 0 0 4.372 3.214c9.257 6.043 20.186 9.514 32.014 9.514h45c7.586 0 13.886-6.171 13.886-13.885V87.043c0-4.628-2.314-8.743-5.785-11.186 3.47-2.442 5.785-6.557 5.785-11.314V53.23c0-4.886-2.443-8.743-5.914-11.186a13.695 13.695 0 0 0 5.786-11.186zm-5.143 0c0 4.757-3.857 8.743-8.743 8.743v5.143c4.114 0 8.743 3.6 8.743 8.743V64.8c0 4.886-3.857 8.743-8.743 8.743v5.143c4.757 0 8.743 3.857 8.743 8.743v16.843c0 4.757-3.857 8.743-8.743 8.743h-45c-11.572 0-22.372-3.729-31.243-10.029-1.8-1.286-3.472-2.7-5.143-4.114A53.484 53.484 0 0 1 398.959 59.4c0-15.557 6.685-29.7 17.357-39.471 1.671-1.543 3.343-2.829 5.143-4.115C430.33 9 441.13 5.271 452.83 5.271h45c4.758 0 8.743 3.858 8.743 8.743v16.843z"/>
  </g>
</svg>
