<svg xmlns="http://www.w3.org/2000/svg" xmlns:xlink="http://www.w3.org/1999/xlink" viewBox="0 0 256 256">
  <defs>
    <linearGradient id="a" x1="91.086" x2="91.086" y1="0" y2="182.172" gradientTransform="scale(1.40526 .71161)" gradientUnits="userSpaceOnUse">
      <stop offset="0%" stop-color="#E7507E"/>
      <stop offset="100%" stop-color="#FBB583"/>
    </linearGradient>
    <path id="b" d="M215.923 163.987c-16.153 3.476-82.471 5.452-82.675 12.745.204 8.52 40.008 8.792 39.327 18.062-1.26 16.906-63.717 26.911-124.144 33.467C70.278 245.623 97.925 256 128 256c66.386 0 120.962-50.541 127.365-115.243-10.915 10.833-21.176 19.141-39.442 23.23z"/>
  </defs>
  <path fill="url(#a)" d="m0 128 .002.136 1.997 1.333H79.5l2.299-1.333c.221-26.01 21.366-47.028 47.428-47.028 26.062 0 47.206 21.018 47.427 47.028l3.013 1.5h74.665l1.666-1.5L256 128C256 57.307 198.692 0 128 0 57.308 0 0 57.307 0 128z" style="fill:url(#a)"/>
  <path fill="#62b3c5" d="M.002 128.136C.076 198.766 57.353 256 128 256s127.924-57.234 127.998-127.864z"/>
  <use width="100%" height="100%" fill="#a8dce3" xlink:href="#b"/>
</svg>
