<svg xmlns="http://www.w3.org/2000/svg" viewBox="0 0 256 354.544">
  <path fill="#2e93ee" d="M194.533 259.738c-10.035 9.736-20.03 23.101-30.147 32.754 4.812 25.37-4.607 36.508 6.745 45.625 4.113 3.26 28.79 10.23 42.98 2.145.287-13.16-6.869-17.078-14.519-21.987-7.773-16.5-4.977-42.077-5.141-58.537"/>
  <path fill="#2e578b" d="M200.291 343.975a22.916 22.916 0 0 0-14.148-16.5 18.495 18.495 0 0 1 8.801 16.5c1.81.082 3.579.082 5.347 0zM212.26 341.252a22.752 22.752 0 0 0-14.066-16.5c7.32 5.651 9.665 11.715 8.637 18.315a29.961 29.961 0 0 0 5.429-1.815z"/>
  <path fill="#2e93ee" d="M182.811 128.392c-5.182 7.549-7.485 23.39 33.726 46.615 0 0-17.315 29.99-22.785 35.476-5.47 5.487-8.802 20.09-3.455 27.433a66.68 66.68 0 0 0 9.46 10.602s13.654 2.557 19.495-.743c7.224-8.012 8.853-19.63 4.113-29.33 0 0 34.754-36.467 32.533-47.44-2.221-10.973-56.676-66.54-73.087-42.613z"/>
  <path fill="#2e578b" d="M223.159 218.445s-14.066 11.633-17.603 13.613a39.914 39.914 0 0 0 8.226-3.547s6.251 7.672 1.686 14.149c0 0 8.226-4.826 2.755-15.923a67.703 67.703 0 0 0 5.183-7.55z"/>
  <g fill="#2e93ee">
    <path d="M78.303 211.68c-.1 2.699-.924 5.321-2.386 7.59-2.385 3.754-3.743 3.342 2.18 6.56a43.872 43.872 0 0 0 14.066 4.372c8.226 1.361 6.375.454 2.715-7.384a66.84 66.84 0 0 0-5.717-10.107c-8.226-11.344-10.53-10.56-10.858-1.114M48.772 207.76c-3.043 5.652 1.604 6.56 7.568 8.664a29.948 29.948 0 0 0 6.91 1.526c6.703.743 4.976-.247 2.015-5.693a97.74 97.74 0 0 0-5.923-9.735c-11.804-16.996-6.17-3.012-10.57 5.239M23.272 205.244c.1 1.291.1 2.587 0 3.878-.411 4.703-.946 3.919 4.853 4.455a34.61 34.61 0 0 0 7.774 0c7.403-1.113 4.688-3.712.822-8.044a31.914 31.914 0 0 0-4.36-4.125c-14.641-11.303-9.13-3.341-8.924 3.878"/>
  </g>
  <path fill="#2e93ee" d="M121.365 39.453S79.372 61.15 79.742 68.04c.37 6.89 11.845 5.94 16.452 15.18 0 0-25.706 17.822-24.06 25.99 1.644 8.168 18.22 5.197 22.332 11.674 0 0-4.113 16.253-.37 22.194 3.743 5.94 3.167.825 8.226 8.25.37.165-2.591-60.475 19.043-111.875z"/>
  <path fill="#2e93ee" d="M112.563 59.171c14.807 14.108 33.48 22.977 50.506 33.91a111.4 111.4 0 0 1 30.477 26.937c10.2 13.695 4.113 29.825 6.663 46.615.781 5.692 1.152 11.468 1.398 17.243.44 10.5.137 21.018-.904 31.475-2.592 24.999-3.867 45.377-21.47 64.106-21.963 23.431-46.147 28.876-73.58 8.498a133.45 133.45 0 0 1-26.199-22.524c-5.634-6.6-12.626-10.808-18.672-16.954a88.148 88.148 0 0 0-26.98-19.513c-10.612-4.125-17.933 1.485-23.157 3.878-2.673 1.238-6.375 3.63-9.377 1.238a3.182 3.182 0 0 1-1.028-3.754 27.68 27.68 0 0 1 6.95-9.86c16.164-14.85 42.281-15.18 61.694-4.744 7.362 4.126 15.382 8.457 23.896 8.993 6.005.701 12.042-1.02 16.78-4.785a22.131 22.131 0 0 0 6.87-12.87 39.26 39.26 0 0 0-1.44-20.627c-3.167-9.57-8.843-18.233-12.545-27.68-12.338-32.135-16.451-68.767 3.579-98.798l2.796-4.125z"/>
  <path fill="#ffcf00" d="M37.256 230.367c14.148 7.095 29.202 22.977 43.638 40.097 18.878 22.482 65.806 55.608 104.92 3.548 36.646-49.008 19.413-117.692 17.274-125.49l-.247-.824c-1.234-1.568-33.89-43.397-63.832-49.503-7.979 6.93-9.542 19.183 1.07 40.304 17.89 35.518 32.203 87.289.41 119.094a43.25 43.25 0 0 1-16.944 10.726c-22.58 7.466-34.549-6.27-48.697-19.554a68.071 68.071 0 0 0-37.592-18.398z"/>
  <path fill="#eca93f" d="M190.215 267.741a75.02 75.02 0 0 1-37.757-15.47 52.14 52.14 0 0 0 33.356 21.823c1.563-2.063 3.249-4.208 4.4-6.353zM126.63 270.918a87.423 87.423 0 0 0 22.785 29.66 49.008 49.008 0 0 0 8.966-3.053 72.686 72.686 0 0 1-31.752-26.607zM78.59 267.824l2.304 2.722 1.07 1.28a16.05 16.05 0 0 1 1.027-9.984 53.33 53.33 0 0 0-4.4 5.982zM94.466 283.706c1.646 1.32 3.332 2.64 5.1 4.125-1.192-5.693-1.727-11.633.206-14.933a54.52 54.52 0 0 0-5.306 10.808z"/>
  <path fill="#ff9144" d="m63.455 251.364 3.66 3.754c-.06-2.65.217-5.298.823-7.879a39.857 39.857 0 0 0-4.483 4.125z"/>
  <path fill="#eca93f" d="M162.576 225.087a75.748 75.748 0 0 1 43.885 0c.37-2.063.699-4.126.987-6.106-28.75-6.848-44.872 6.106-44.872 6.106zM208.311 179.957a276.895 276.895 0 0 0-.699-7.095c-30.476-.743-46.188 14.108-46.188 14.108a74.37 74.37 0 0 1 46.887-7.013zM196.302 139.942c-1.193-1.36-2.51-2.846-4.113-4.414-32.369 0-41.13 15.099-41.13 15.099a71.395 71.395 0 0 1 45.243-10.685z"/>
  <path fill="#eca93f" d="M207.9 175.295a203.846 203.846 0 0 0-3.578-21.822l-2.344-1.444c-10.324-6.765-55.813-34.198-69.138-42.448a27.018 27.018 0 0 0 0 6.105c13.984 19.636 45.365 52.885 75.06 59.61z"/>
  <path fill="#2e93ee" d="M104.749 254.664a20.542 20.542 0 0 1 18.754-8.951c20.812 2.722 14.231 27.432 9.254 41.953a119 119 0 0 0-5.922 32.3c0 14.356 5.47 18.687-1.193 24.298a56.51 56.51 0 0 1-36.358 10.148c-11.557-2.64-11.845-26.484 6.58-32.548 5.1-11.138 4.895-22.524 4.484-34.404-.288-8.25-.987-24.752 4.4-33.002"/>
  <path fill="#2e578b" d="M100.266 354.288a63.964 63.964 0 0 0 4.894-.908 21.328 21.328 0 0 1 5.758-19.347c-7.568 4.332-10.036 11.716-10.652 20.255zM89.12 354.453a24.39 24.39 0 0 1 5.552-21.534A22.125 22.125 0 0 0 84.225 351.4a9.25 9.25 0 0 0 4.895 3.053zM99.813 224.468s-2.385 13.82 6.992 18.44c7.897 4.125 17.603 4.125 22.456-1.774 6.704-8.25 16.452-24.752-10.24-40.964-16.452-10.024-17.48 24.01-17.48 24.01zM102.116 158.217c3.496 7.632 6.663 13.53 6.828 14.067.164.536 21.716-27.02 17.685-31.475-4.03-4.455-21.099 11.427-24.513 17.408z"/>
  <path fill="#2e93ee" d="M123.257 118.698c23.32 22.565-25.089 52.431-25.089 52.431 5.264 3.341 11.927 14.768 16.904 23.101 4.977 8.333 6.95 6.972 13.038 13.902 6.087 6.93-11.27 17.285-11.27 17.285s-58.238-31.558-58.074-51.772c0-2.516 13.532-24.998 27.187-38.942 6.868-7.012 26.158-26.772 37.304-16.005z"/>
  <path fill="#2e93ee" d="M100.636 214.196s-4.113 21.492 8.472 27.763c0 0 10.406.66 15.67-3.135 0 0 13.12-20.214 3.332-30.692-9.789-10.478-27.474 6.064-27.474 6.064z"/>
  <path fill="#2e578b" d="M100.389 215.722s16.822 9.035 19.742 9.86c-2.928.404-5.91-.04-8.596-1.28 0 0-4.113 8.251.7 13.367 0 0-7.733-1.362-4.978-14.315l-7.033-7.26z"/>
  <path fill="#2e93ee" d="M115.483 52.694S124.243.882 145.672.016c14.107-.62 21.222 17.408 21.222 17.408a45.144 45.144 0 0 1 24.349 7.26s4.113-7.136 10.652-4.826c6.54 2.31 13.984 17.326 11.31 41.994a21.47 21.47 0 0 1 15.383 10.602 11.472 11.472 0 0 1-7.362 4.744c-4.442.371-23.608-6.641-28.79-2.062a16.73 16.73 0 0 0-6.869 16.5s-21.181-2.145-30.6-14.232c-9.418-12.086-17.52-35.518-39.484-24.71z"/>
  <path fill="#f1f1f2" d="M188.405 56.448s5.264-17.408 15.382-22.276c.36 8.427 1.28 16.82 2.756 25.123a156.678 156.678 0 0 0-18.138-2.847zM142.587 20.765s13.038 6.312 21.799 33.414a185.65 185.65 0 0 0-29.531-2.64 71.413 71.413 0 0 0 7.732-30.774z"/>
  <path fill="#2e578b" d="M147.934 32.81c3.167 0 5.758 3.549 5.758 7.963s-2.591 7.92-5.758 7.92-5.758-3.548-5.758-7.92c0-4.373 2.55-7.962 5.758-7.962M196.63 53.932c2.51 0 4.525-2.681 4.525-6.023 0-3.341-2.015-6.023-4.524-6.023a4.103 4.103 0 0 0-1.399.33 15.936 15.936 0 0 0-3.084 5.487c-.02.137-.02.276 0 .412-.041 3.136 1.974 5.817 4.483 5.817z"/>
  <path fill="#ff9144" d="M143.821 65.606s-15.629-12.375-23.567-3.547c-9.46 10.643 0 27.185 0 27.185s1.152-7.096 4.689-9.447c0 0 1.398 22.4 37.756 47.316 36.358 24.916 52.193 22.194 60.13 20.09 7.939-2.104 16-7.797 12.957-14.19-3.044-6.395-23.567-23.762-23.567-23.762s-7.774.949-23.608-4.62c-15.835-5.57-37.016-16.501-50.671-35.477a66.26 66.26 0 0 0 5.881-3.548"/>
  <path fill="#ff6b17" d="M134.69 94.73c20.361-4.899 41.81.895 56.964 15.387l-4.113-2.227s18.673-.908 21.264 1.691a44.453 44.453 0 0 1 19.33 33.002c.535 6.394-14.56 10.024-48.203-6.766-20.893-10.56-45.242-41.087-45.242-41.087z"/>
  <path fill="#ff9144" d="m175.573 98.98.781.412z"/>
  <path fill="#ebeef2" d="M210.697 109.127s-4.524 18.605-11.516 16.501c-2.345-.701-1.399-5.982-2.345-9.612-.946-3.63-3.66-10.56-3.66-10.56zM245.286 102.073s-1.44 19.1-8.678 18.192c-2.427-.289-2.344-5.651-3.866-9.075-1.522-3.424-5.265-9.86-5.265-9.86z"/>
  <path fill="#ffcf00" d="M252.977 85.325c-.904-13.448-18.59-19.347-31.587-9.9-10.61-2.352-22.374-9.447-32.903 1.196a12.4 12.4 0 0 0-3.249 14.768s-22.045-3.548-29.654-14.81c-7.609-11.261-17.562-26.36-28.214-27.432-5.676-.537-15.26-1.362-20.812 9.488-5.552 10.849-8.226 30.444 32.903 61.465 41.13 31.022 59.144 39.396 68.11 39.355 11.393 0 12.092-4.126 25.212-6.106 6.704-.948 11.804-12.375 4.442-22.276a84.56 84.56 0 0 0-22.045-19.553c-.411.412 15.958 13.572 19.002 19.966 3.043 6.394-5.964 10.437-13.861 12.375-7.897 1.94-18.056 4.126-54.372-20.626-36.317-24.75-40.225-49.79-40.225-49.79-4.606-.702-5.14 9.322-5.14 9.322s-5.306-11.592 1.809-18.522c8.596-8.25 17.48 1.939 17.48 1.939h-.535c-5.388-2.6-6.128 2.062-6.128 2.062a133.012 133.012 0 0 0 54.866 41.706c15.835 5.57 24.143-.701 24.143-.701a153.33 153.33 0 0 0 22.456-1.815c5.676-1.526 19.577-3.92 18.302-22.111z"/>
  <path fill="#eca93f" d="M200.291 83.88c3.702-1.154 6.54 3.837 1.687 5.982-.7 1.857.41 3.878 3.372 4.58a5.833 5.833 0 0 1-7.794-2.744c-1.397-2.916-.172-6.416 2.735-7.817M241.996 82.355c-3.044-.99-5.388 3.135-1.357 4.95.534 1.526-.37 3.176-2.838 3.754 7.814 1.609 8.226-7.26 4.113-8.704"/>
</svg>
