<svg xmlns="http://www.w3.org/2000/svg" viewBox="0 0 511.476 245.488">
  <path fill="#1d1d1b" d="M321.38 94.304c6.16 0 9.129 2.941 9.129 9.08v104.517c0 26.9-19.663 37.587-40.143 37.587-7.341 0-11.916-2.969-11.916-8.9v-9.08c0-4.351 1.788-8.13 8.948-8.927 5.755-.586 11.532-3.758 11.532-13.04V103.384c0-6.119 2.968-9.08 9.13-9.08zm-168.772-2.787c36.748 0 46.695 21.402 46.695 52.27 0 30.866-9.947 52.24-46.695 52.24-36.769 0-46.716-21.353-46.716-52.24 0-30.889 9.968-52.27 46.716-52.27zm236.63 0c35.778 0 42.525 15.242 42.525 37.412v55.28c0 6.111-2.968 9.08-9.129 9.08h-4.191c-4.96 0-6.754-1.586-9.332-6.14l-.796-1.397c-7.16 6.314-17.288 10.275-29.198 10.275-25.243 0-33.786-16.617-33.786-31.475 0-26.724 19.67-30.664 37.537-32.452l18.106-1.788v-6.342c0-4.555-3.193-6.902-11.735-6.902-10.527 0-22.443 3.144-25.237 3.751-7.956 1.76-12.503-2.968-12.503-8.926v-5.344c0-6.286 3.171-9.304 7.132-10.477a110.705 110.705 0 0 1 30.608-4.555zm-148.486-21.94c8.34-2.179 11.916 1.963 11.916 8.103v16.624h15.514c6.16 0 9.157 2.941 9.157 9.08v8.152c0 6.12-2.996 9.08-9.157 9.08h-15.5v37.776c0 7.725 2.997 12.098 13.118 12.098h1.998c4.554 0 8.542 3.143 8.542 8.305v6.524a9.779 9.779 0 0 1-8.158 9.898 46.8 46.8 0 0 1-8.927.789c-28.226 0-38.355-11.686-38.355-35.03v-40.38h-7.746c-6.168 0-9.157-2.94-9.157-9.08v-4.555c0-5.113 2.2-7.718 7.949-9.304l8.954-2.382-.014-13.04c0-5.707 2.375-7.908 9.535-9.898zM22.68 44.824c6.161 0 9.15 2.947 9.15 9.08V97.86a53.784 53.784 0 0 1 25.845-6.343c27.025 0 34.778 14.243 34.778 33.242v59.407c0 6.112-2.996 9.08-9.157 9.08H69.759c-6.16 0-9.15-2.947-9.15-9.08v-54.65c0-7.314-2.585-12.273-11.127-12.273a34.394 34.394 0 0 0-17.672 5.169v61.754c0 6.112-2.99 9.08-9.15 9.08H9.156c-6.16 0-9.157-2.947-9.157-9.08V53.903c0-6.112 2.997-9.08 9.157-9.08zm477.061 46.68c8.941 0 11.735 3.374 11.735 8.9v8.186c0 5.909-3.36 9.08-8.948 9.08-11.127 0-20.256 3.346-22.834 5.728v60.77c0 6.111-2.996 9.08-9.157 9.08h-13.502c-6.16 0-9.157-2.948-9.157-9.08V103.35c0-6.119 2.996-9.08 9.157-9.08h4.96c5.552 0 6.16 2.193 8.954 7.131 4.96-4.757 17.281-9.898 28.792-9.898zm-98.76 56.041-13.32 1.767c-8.949 1.202-12.532 5.546-12.532 13.272 0 7.313 4.785 11.686 11.532 11.686 5.756 0 11.127-1.586 14.32-4.757zm-248.373-30.685c-10.945 0-14.906 7.132-14.906 26.927 0 19.796 3.982 26.9 14.906 26.9 10.925 0 14.885-7.083 14.885-26.9 0-19.816-3.96-26.927-14.885-26.927z"/>
  <path fill="#fd3a5c" d="M343.906 25.775C332.22 4.63 297.931 0 297.931 0s15.828 17.616-4.4 31.558c-12.783 8.794-17.847 20.222-12.371 32.704 4.19 9.562 13.062 13.446 22.631 14.906-2.458-4.729-3.073-11.56-1.257-18.566.182-.699.384-1.432.615-2.096 2.682 4.15 7.082 6.42 11.378 5.372 5.882-1.397 9.332-8.515 7.726-15.828a16.834 16.834 0 0 0-1.768-4.527c.231.056.461.077.699.154 7.341 2.096 10.89 13.07 7.928 24.524a30.566 30.566 0 0 1-4.373 9.717c12.601-4.059 20.983-14.222 23.288-23.274 2.431-9.423.587-20.404-4.12-28.87z"/>
</svg>
