<svg xmlns="http://www.w3.org/2000/svg" viewBox="0 0 118.144 132.666">
  <g fill-rule="evenodd">
    <path fill="#ff4088" d="M113.586 85.11V43.185a15.378 15.378 0 0 0-7.588-13.258L67.173 7.115a18.047 18.047 0 0 0-18.614.2L14.1 28.564a19.866 19.866 0 0 0-9.442 16.91v42.926c0 6.838 3.628 13.16 9.53 16.611L50.1 126.004a15.638 15.638 0 0 0 15.501.161l39.76-22.145a16.018 16.018 0 0 0 8.22-13.992v-4.917z"/>
    <path fill="#c9177e" d="M58.082 0h.095l.085.001h.485l.084.003h.01l.085.004h.01l.085.003h.007l.086.004h.01l.082.003h.01l.083.004h.007l.086.003h.01l.086.007h.01l.082.007h.007l.083.007h.01l.086.006h.006l.083.007h.01l.086.007h.01l.086.007h.01l.086.007h.01l.082.007h.01l.083.007h.01l.086.006h.01l.086.01h.01l.086.011h.007l.082.01h.01l.083.01h.01l.086.01h.01l.086.011h.007l.082.01h.01l.086.01h.01l.083.015.01.003.086.014h.01l.082.013h.007l.086.014h.01l.083.014h.01l.082.014h.007l.086.013h.01l.082.014.01.003.083.014.01.004.083.017h.01l.082.013h.01l.083.018h.01l.086.017h.007l.082.017h.01l.082.017h.007l.086.017.01.004.086.017h.007l.082.02.01.004.083.02h.01l.086.02.007.004.082.017.01.004.083.017.007.003.082.021h.01l.083.02.01.004.082.02.007.004.086.02.007.004.082.02.01.004.083.02h.006l.083.025h.01l.086.02.01.004.082.02h.01l.083.024.01.004.083.024.01.003.082.024.01.004.083.024.007.003.082.024.01.003.083.024.01.004.082.024.01.003.083.028.007.003.082.028h.01l.083.027h.01l.267.09.007.003.175.058.007.003.082.028.007.003.08.028.01.003.078.027.01.004.08.03.01.004.082.031.01.003.08.031.006.004.082.027.007.004.083.03.01.004.082.03.01.004.08.031.01.004.078.034.007.003.083.031.01.004.079.034.01.003.082.035.01.003.083.034.007.004.082.034.007.003.079.035.007.003.079.034.007.004.082.034.007.004.079.034.01.003.079.035.01.003.079.034.007.004.079.037.01.004.079.038.01.003.08.038.006.003.079.038.007.003.079.038.01.004.079.037.01.004.079.037.01.004.08.038.006.003.079.041.007.007.079.038.007.003.075.041.01.004.08.037.006.004.079.041.01.003.076.042.01.006.079.042.01.003.079.041.007.004.075.04.01.008.08.04.006.008.076.044.007.007.075.045.01.003.076.045.007.003.075.045.007.007.076.044.01.007.072.045h.007l38.854 22.829.065.037.007.007.065.038.01.003.062.041.007.007.062.038.007.007.062.038.007.003.061.038.007.003.062.038.007.003.062.038.01.003.062.042.007.003.062.041.01.004.062.037.007.004.061.04.007.008.062.04.007.008.058.038.01.003.062.041.007.003.062.042.007.003.058.041.007.004.059.04.007.004.058.041.007.007.058.041.007.004.058.044.01.007.059.041.007.004.058.04.007.004.059.041.007.007.058.042.007.003.058.041.007.007.059.041.007.007.058.045.01.006.055.045.01.007.059.045.01.003.058.045.007.006.059.045.007.007.054.044.01.007.059.048.01.01.11.09.014.01.11.093.013.01.113.093.014.01.113.092.014.01.11.093.013.014.11.093.014.01.106.096.014.01.106.096.014.01.106.1.014.01.103.096.013.01.107.1.013.014.103.1.014.013.103.1.014.013.1.1.013.013.1.103.013.014.1.103.01.014.1.102.013.014.096.103.014.014.096.103.013.013.096.103.014.014.096.106.014.014.092.11.01.013.097.107.013.013.093.11.014.014.092.11.01.013.093.11.014.014.089.11.01.013.09.11.013.014.09.113.01.014.085.113.01.014.086.113.01.013.086.114.01.017.086.116.01.014.086.113.01.017.083.117.01.014.083.116.01.014.082.117.01.017.08.116.01.018.079.12.01.017.075.116.01.014.076.117.01.013.08.12.01.014.075.12.01.017.072.12.01.017.076.12.01.018.072.12.01.017.073.123.01.014.069.123.01.018.068.123.01.017.07.124.01.017.068.123.007.017.069.127.007.017.065.127.007.017.065.127.01.014.062.13.007.018.065.126.007.018.062.126.01.018.059.13.007.017.058.13.007.018.058.13.007.017.059.13.007.018.055.13.007.017.054.13.007.017.052.134.007.017.051.13.007.018.052.134.007.017.051.133.007.018.051.133.007.017.048.134.007.017.045.134.007.017.045.134.007.017.044.134.007.017.045.137.003.017.041.134.007.017.041.137.003.018.041.137.007.017.042.137.007.017.037.137.007.018.038.137.003.017.034.137.007.02.038.141.003.017.034.141.007.017.031.14.007.018.034.14.003.021.031.14.003.018.031.14.003.018.028.14.003.017.027.14.003.018.027.14.003.018.024.144.003.017.024.14.003.021.024.144.003.02.021.145.003.02.02.141v.014l.011.075v.007l.007.072v.01l.01.072v.007l.01.072v.01l.01.073.004.01.01.072v.01l.007.072.003.007.007.072.003.01.007.072v.01l.007.073.003.01.007.072.003.01.007.072v.01l.007.073v.01l.007.072v.01l.007.072v.01l.007.073v.01l.003.072v.01l.003.076v.01l.007.075v.007l.003.072v.01l.003.073v.01l.003.072v.01l.003.072v.01l.003.076v.01l.003.072v.01l.003.073v.007l.003.072v47.873l-.003.078v.1l-.003.079v.01l-.003.075v.007l-.003.08v.01l-.003.075v.007l-.003.075v.01l-.003.076-.003.01-.003.076v.01l-.003.076v.006l-.003.08v.01l-.007.078v.007l-.007.08v.01l-.007.075v.01l-.003.076v.01l-.007.075v.01l-.007.076v.01l-.007.076v.01l-.007.076-.003.007-.007.078-.003.01-.007.076v.01l-.007.076-.003.01-.01.076v.01l-.01.075v.007l-.01.076v.01l-.011.076-.003.01-.01.079-.003.01-.01.075-.004.01-.01.076v.01l-.01.076v.01l-.01.076-.004.01-.01.075-.003.01-.014.076v.007l-.01.075v.007l-.014.076-.003.01-.01.076-.003.01-.01.075v.007l-.014.076v.007l-.014.075v.007l-.013.075v.01l-.014.073-.003.01-.014.072-.003.01-.013.076-.003.01-.017.075v.007l-.018.076v.007l-.013.072v.01l-.017.075v.007l-.014.076-.003.007-.017.072v.007l-.017.072v.01l-.018.072-.003.01-.017.072-.003.01-.017.073-.003.006-.017.072-.003.007-.017.072-.003.01-.02.073-.004.01-.017.072-.003.01-.02.072v.01l-.021.076-.003.01-.02.072v.01l-.021.073-.003.01-.02.072-.004.01-.02.076-.004.007-.02.072-.003.007-.02.072-.004.01-.024.072-.003.01-.02.072-.003.007-.02.072-.004.01-.02.072-.004.007-.024.072-.003.01-.024.073-.003.01-.024.072-.003.01-.024.072-.003.01-.024.073-.003.006-.024.072-.003.01-.024.073-.003.01-.024.072-.003.007-.024.072-.003.01-.024.072-.003.01-.027.07-.003.01-.024.068-.003.01-.024.069-.003.01-.024.072-.003.01-.027.073-.003.01-.028.068-.003.01-.027.07-.003.01-.028.068-.003.01-.027.07-.003.01-.027.068-.003.01-.028.069-.003.007-.03.068-.004.01-.03.073-.004.01-.027.069-.003.01-.03.068-.004.01-.03.07-.004.01-.03.068-.004.007-.03.069-.004.01-.03.069-.003.006-.031.07-.003.006-.031.069-.003.006-.031.069-.003.007-.034.069-.003.006-.035.066-.003.01-.03.068-.004.007-.034.066-.003.01-.03.068-.004.007-.034.069-.003.01-.034.069-.003.007-.035.065-.003.007-.034.068-.003.01-.034.07-.003.01-.035.068-.007.01-.034.066-.003.006-.034.069-.003.01-.035.069-.003.01-.037.065-.007.007-.038.065-.003.007-.038.066-.003.007-.037.065-.003.007-.038.065-.003.007-.038.065-.003.01-.037.066-.003.007-.038.065-.003.01-.038.065-.007.007-.038.066-.007.007-.037.065-.003.007-.038.065-.003.01-.041.066-.003.007-.038.061-.003.01-.037.062-.007.007-.042.065-.003.01-.04.062-.008.007-.041.062-.003.007-.041.065-.007.01-.041.062-.007.007-.042.062-.003.007-.04.065-.004.007-.041.062-.007.007-.045.062-.003.007-.04.061-.004.007-.044.062-.003.007-.042.062-.007.007-.04.061-.008.007-.044.062-.007.007-.042.062-.003.007-.044.062-.007.01-.041.062-.007.007-.045.061-.007.007-.045.062-.007.007-.044.062-.007.007-.045.061-.003.007-.044.059-.007.007-.045.058-.003.007-.048.058-.007.007-.045.059-.003.007-.044.061-.007.007-.048.062-.007.007-.048.058-.007.007-.048.059-.003.007-.048.058-.007.007-.048.058-.007.007-.048.058-.007.007-.048.059-.007.007-.048.058-.003.007-.048.058-.007.007-.052.059-.007.007-.048.058-.007.007-.048.058-.007.007-.048.059-.007.007-.048.058-.007.007-.048.055-.007.007-.05.058-.008.007-.048.058-.007.007-.051.059-.007.007-.048.058-.007.007-.052.055-.007.007-.051.055-.007.007-.052.055-.007.007-.05.055-.008.007-.051.054-.007.007-.052.055-.007.007-.051.055-.007.007-.052.055-.068.07-.052.054-.12.12-.01.007-.062.062-.055.052-.07.068-.054.052-.007.007-.055.051-.007.007-.055.052-.007.007-.055.051-.007.007-.055.051-.007.007-.055.052-.007.007-.058.051-.007.003-.055.052-.007.007-.058.051-.007.007-.058.051-.007.003-.059.052-.007.007-.058.048-.01.007-.059.048-.007.007-.058.051-.007.007-.058.052-.007.007-.058.051-.007.007-.059.048-.007.007-.061.048-.007.003-.059.048-.007.007-.058.048-.01.007-.059.048-.007.007-.058.048-.007.007-.058.048-.007.007-.062.048-.007.007-.058.045-.007.007-.062.048-.007.007-.062.048-.007.007-.061.048-.007.007-.062.048-.007.003-.062.044-.007.003-.061.045-.007.003-.062.044-.01.003-.062.045-.007.007-.062.045-.007.007-.062.044-.007.007-.061.045-.01.007-.062.044-.007.003-.065.045-.01.003-.066.045-.007.007-.065.044-.007.007-.065.041-.007.007-.065.045-.007.007-.062.045-.01.007-.066.04-.007.004-.065.041-.01.003-.065.041-.007.007-.066.041-.007.007-.065.042-.007.003-.065.04-.01.004-.065.041-.007.007-.066.041-.01.003-.065.041-.01.007-.066.042-.01.007-.069.04-.007.008-.065.037-.01.003-.065.038-.007.007-.069.041-.01.007-.069.038-.007.007-.065.038-.01.003-.069.037-.01.003-.069.038-.007.003-.065.038-.003.003-39.756 22.154h-.003l-.062.038-.01.003-.065.037-.01.007-.066.035-.01.003-.065.034-.007.003-.065.034-.01.003-.066.034-.01.003-.065.035-.01.003-.066.034-.007.003-.065.034-.007.003-.065.031-.007.003-.068.035-.007.007-.065.034-.007.003-.066.03-.006.004-.066.03-.006.004-.066.034-.007.003-.068.03-.007.004-.065.03-.007.004-.069.03-.007.004-.065.03-.007.004-.065.03-.01.007-.069.031-.007.003-.068.028-.007.003-.069.03-.007.008-.068.03-.01.004-.066.027-.007.003-.068.03-.007.004-.069.027-.006.003-.07.028-.006.003-.069.027-.01.003-.068.027-.01.003-.07.028-.01.003-.065.027-.007.003-.068.024-.007.003-.069.028-.01.003-.069.027-.01.003-.069.027-.01.003-.068.024-.01.003-.07.028-.01.003-.068.024-.007.003-.069.024-.01.003-.069.024-.01.003-.068.024-.01.003-.07.024-.006.003-.137.048-.01.003-.073.02-.01.003-.069.021-.006.003-.07.024-.006.003-.072.02-.01.004-.069.02-.01.003-.069.02-.01.004-.072.024-.014.003-.137.041-.017.007-.14.041-.018.003-.14.041-.018.003-.14.038-.017.007-.14.038-.018.003-.14.037-.021.003-.14.035-.018.003-.14.034-.021.003-.14.034-.018.003-.14.031-.018.003-.144.031-.02.003-.144.03-.017.004-.145.027-.017.003-.14.024-.017.003-.141.028-.017.003-.144.024-.017.003-.144.024-.018.003-.144.02-.017.003-.144.02-.017.004-.144.02-.017.003-.144.021-.02.003-.145.017-.017.003-.144.017-.017.003-.144.017-.144.014h-.017l-.144.01-.017.003-.144.01h-.018l-.144.011h-.017l-.144.01-.02.003-.144.01h-.018l-.144.008h-.017l-.144.007h-.02l-.144.003h-.018l-.144.003h-.017l-.144.003H57.8l-.288-.006h-.02l-.145-.003h-.003l-.144-.007-.017-.003-.144-.007h-.017l-.144-.007-.018-.003-.144-.007h-.017l-.144-.01-.017-.004-.144-.013-.02-.003-.145-.014-.02-.003-.144-.014-.017-.003-.144-.013h-.018l-.144-.014-.017-.003-.144-.017h-.02l-.144-.017-.02-.003-.145-.02-.017-.004-.144-.02-.017-.004-.144-.02-.017-.003-.145-.02-.017-.004-.14-.024h-.01l-.145-.027-.018-.003-.14-.028-.018-.003-.14-.027-.018-.003-.14-.027-.02-.003-.143-.028-.018-.003-.14-.03-.02-.008-.141-.03-.018-.004-.14-.034-.02-.007-.14-.034-.017-.007-.14-.038-.018-.003-.14-.038-.018-.007-.14-.037-.017-.007-.14-.038-.018-.007-.14-.041-.021-.007-.14-.041-.018-.007-.14-.041-.018-.007-.14-.042-.018-.003-.136-.044-.014-.003-.072-.024h-.009l-.069-.02-.01-.004-.069-.024-.01-.003-.068-.024-.01-.003-.07-.024-.01-.003-.068-.024-.01-.003-.069-.024-.007-.003-.069-.024-.006-.003-.069-.024-.007-.003-.068-.027-.01-.003-.07-.028-.01-.003-.068-.027-.007-.003-.069-.027-.01-.003-.069-.028-.007-.003-.068-.027-.01-.003-.069-.028-.007-.003-.068-.027-.007-.003-.069-.027-.01-.003-.069-.028-.01-.003-.069-.027-.01-.003-.069-.028-.01-.003-.068-.027-.007-.003-.069-.03-.01-.004-.065-.03-.007-.004-.069-.03-.007-.004-.068-.03-.007-.004-.069-.027-.01-.003-.065-.03-.01-.004-.07-.03-.01-.004-.065-.03-.007-.008-.065-.03-.007-.004-.065-.03-.007-.004-.068-.03-.007-.007-.069-.035-.007-.007-.065-.03-.01-.004-.069-.03-.007-.008-.065-.034-.01-.003-.069-.034-.007-.003-.065-.034-.01-.003-.065-.035-.007-.003-.065-.034-.01-.007-.066-.034-.007-.003-.065-.035-.007-.003-.065-.034-.01-.007-.065-.034-.007-.003-.065-.038-.01-.007-.066-.034-.01-.003-.065-.035-.01-.003-.066-.034-.01-.003-.065-.038-.01-.003-.062-.037-.01-.003-.062-.038-.004-.003-35.939-20.977-.003-.003-.075-.045-.007-.003-.076-.044-.01-.003-.079-.045-.01-.003-.076-.048-.007-.003-.075-.048-.007-.007-.075-.048-.007-.007-.076-.048-.01-.003-.075-.044-.01-.007-.076-.048-.007-.007-.076-.048h.018l-.075-.048-.01-.007-.076-.048-.007-.007-.076-.048-.01-.007-.075-.052-.01-.007-.075-.051-.007-.007-.076-.048-.007-.007-.075-.052-.007-.007-.075-.05-.007-.008-.072-.051-.01-.007-.074-.052-.007-.007-.072-.051-.009-.007-.072-.052-.01-.007-.071-.05-.007-.004-.072-.051-.007-.007-.071-.052-.007-.007-.07-.051-.01-.003-.073-.052-.007-.007-.072-.054-.007-.007-.072-.052-.009-.007-.072-.055-.009-.007-.068-.055-.007-.007-.069-.055-.007-.003-.068-.054-.007-.007-.069-.055-.007-.007-.068-.055-.007-.007-.069-.055-.006-.007-.07-.055-.006-.007-.069-.055-.006-.007-.07-.058-.006-.003-.069-.055-.006-.007-.067-.055-.007-.007-.068-.058-.007-.007-.069-.055-.007-.007-.068-.059-.007-.003-.068-.054-.006-.007-.066-.055-.007-.007-.065-.059-.007-.007-.065-.058-.007-.007-.065-.058-.007-.007-.065-.059-.007-.007-.065-.058-.007-.007-.065-.062-.007-.003-.065-.058-.01-.007-.064-.062-.007-.007-.065-.058-.007-.007-.064-.062-.006-.007-.062-.061-.007-.007-.062-.062-.007-.007-.065-.062-.007-.007-.065-.061-.007-.003-.062-.062-.006-.007-.062-.062-.007-.007-.062-.061-.007-.007-.061-.062-.007-.007-.062-.062-.007-.007-.062-.062-.007-.007-.058-.061-.007-.007-.062-.062-.006-.007-.062-.065-.007-.007-.058-.065-.007-.007-.059-.066-.006-.007-.062-.065-.007-.007-.058-.065-.007-.007-.059-.065-.006-.007-.059-.065-.007-.007-.058-.066-.007-.007-.058-.065-.004-.007-.054-.065-.007-.007-.059-.065-.007-.007-.061-.069-.007-.007-.058-.065-.007-.007-.059-.069-.007-.007-.054-.065-.004-.007-.055-.065-.007-.007-.054-.069-.007-.007-.059-.068-.007-.007-.054-.065-.007-.007-.059-.066-.007-.007-.054-.065-.007-.007-.055-.068-.007-.007-.055-.069-.007-.007-.055-.069-.007-.007-.055-.068-.006-.007-.055-.069-.004-.007-.051-.068-.007-.007-.051-.069-.004-.007-.051-.069-.007-.007-.052-.072-.007-.007-.051-.068-.007-.007-.051-.069-.004-.007-.051-.072-.004-.007-.051-.072-.003-.007-.052-.068-.003-.007-.052-.069-.007-.007-.051-.072-.007-.007-.051-.072-.007-.01-.048-.072-.007-.007-.048-.072-.007-.007-.048-.072-.007-.007-.048-.072-.003-.007-.048-.072-.007-.01-.048-.073-.007-.007-.048-.072-.007-.007-.048-.072-.007-.007-.048-.072-.007-.007-.045-.072-.003-.007-.045-.072-.006-.01-.048-.072-.007-.01-.048-.072-.004-.007-.048-.076-.003-.01-.045-.072-.007-.007-.044-.072-.007-.007-.045-.075-.007-.01-.044-.073-.004-.007-.044-.075-.004-.007-.044-.072-.007-.01-.045-.076-.006-.01-.045-.076-.007-.01-.041-.075-.007-.007-.045-.076-.003-.007-.041-.075-.004-.007-.04-.076-.004-.01-.041-.075-.007-.01-.041-.076-.004-.01-.04-.08-.004-.006-.041-.075-.004-.01-.041-.076-.003-.01-.042-.076-.003-.01-.038-.08-.003-.006-.041-.079-.004-.01-.04-.079-.008-.007-.037-.079-.004-.007-.037-.075-.004-.01-.038-.08v.004l-.037-.079-.007-.01-.038-.079-.003-.01-.038-.076-.003-.01-.038-.079-.004-.007-.037-.079-.004-.007-.034-.078-.004-.007-.037-.08-.004-.006-.037-.079-.004-.007-.038-.079-.003-.01-.034-.079-.004-.007-.037-.079-.004-.01-.038-.079-.003-.007-.034-.079-.004-.006-.034-.08-.003-.01-.035-.078-.003-.007-.031-.08-.003-.006-.035-.079-.003-.01-.031-.083-.003-.007-.035-.078-.003-.01-.031-.076-.003-.01-.035-.083-.003-.007-.031-.082-.004-.01-.03-.083-.004-.006-.03-.083-.004-.01-.031-.082-.003-.007-.031-.083-.004-.006-.027-.083-.004-.01-.03-.082-.004-.007-.027-.083-.004-.01-.027-.082-.004-.01-.03-.083-.004-.01-.027-.082-.004-.007-.027-.082-.004-.007-.027-.083-.003-.01-.028-.082-.003-.01-.028-.083-.003-.01-.028-.082-.003-.01-.027-.083-.004-.01-.024-.082-.003-.007-.027-.086-.004-.01-.024-.086-.003-.01-.024-.082-.004-.01-.024-.083-.003-.01-.024-.086-.004-.01-.024-.086-.003-.007-.024-.086-.003-.003-.024-.086-.004-.007-.02-.082-.004-.007-.02-.082v-.007l-.025-.086v-.01l-.02-.082-.004-.01-.02-.083-.004-.01-.02-.086h.003l-.02-.086-.004-.007-.02-.085-.004-.007-.02-.086-.004-.007-.02-.086.003-.003-.02-.086-.004-.01-.02-.086-.004-.01-.017-.086-.003-.01-.021-.086-.003-.007-.018-.086-.003-.01-.017-.086-.004-.01-.034-.171v-.01l-.017-.09v-.01l-.017-.086-.004-.01-.02-.082v-.01l-.017-.093-.004-.01-.017-.09-.003-.01-.014-.086-.003-.01-.014-.086v-.01l-.014-.086v-.01l-.014-.086-.003-.01-.014-.086v.004l-.013-.086v-.007l-.014-.086v-.01l-.014-.086v-.01l-.014-.086v-.007l-.01-.089v-.01l-.01-.086v-.007l-.014-.089-.003-.01-.01-.086v-.01l-.01-.09-.004-.01-.01-.089v-.01l-.011-.09-.003-.01-.01-.089v-.01l-.011-.09-.003-.006-.01-.09-.008-.088v-.01l-.01-.09-.003-.01-.01-.09v-.01l-.007-.089-.004-.01-.007-.09v-.01l-.007-.089v-.01l-.013-.178v-.01l-.007-.09v-.01l-.007-.09v-.11l-.003-.09v-.01l-.004-.089v-.01l-.003-.089-.004-.01-.003-.09v-.096l-.004-.089v-.01L0 88.877v-43.41l.003-.086v-.11l.004-.089v-.315l.003-.09v-.006l.004-.09v-.01l.003-.089v-.01l.004-.09v-.006l.003-.09v-.01l.003-.089v-.01l.007-.093v-.01l.007-.09v-.006l.004-.09v-.01l.006-.089v-.01l.004-.09v-.01l.003-.089v-.01l.007-.09v-.01l.007-.089v-.01l.01-.089v-.01l.007-.09.004-.006.006-.09v-.006l.01-.09v-.006l.011-.09.003-.01.01-.089v-.01l.011-.09V42.8l.01-.09v-.006l.01-.09.004-.01.01-.09v-.01l.01-.085v-.01l.01-.09v-.01l.011-.089.004-.01.01-.086v-.01l.014-.09v-.01l.01-.089.003-.01.01-.086.004-.01.014-.09.003-.006.014-.09v-.006l.014-.09v-.006l.013-.086.004-.01.014-.086v-.01l.024-.09.003-.01.014-.086v-.01l.017-.086v-.007l.017-.085v-.007l.017-.09.004-.006.017-.086.003-.007.017-.086.004-.01.017-.086.003-.01.017-.086v-.01l.018-.086v-.007l.017-.085.003-.007.017-.086.004-.007.02-.086v-.01l.02-.086.004-.01.017-.086.004-.01.02-.086v-.01l.021-.086.003-.01.021-.086v-.01l.02-.086.004-.007.02-.085v-.007l.021-.086.004-.01.024-.086v-.007l.024-.086v-.006l.024-.086.003-.01.024-.086v-.01l.024-.086.004-.01.024-.083.003-.007.024-.085.003-.01.024-.085.004-.01.024-.084.003-.007.028-.085.003-.007.024-.083.004-.006.024-.084.003-.007.024-.085.003-.01.028-.084.003-.01.028-.082v-.007l.027-.083v-.01l.028-.082.003-.007.027-.082.004-.01.027-.083.004-.01.027-.082.004-.01.027-.083.003-.007.031-.082.004-.007.027-.082.004-.01.027-.081.004-.007.03-.083.004-.006.03-.083v-.007l.032-.082.003-.007.03-.082.004-.01.031-.083.004-.007.03-.082.004-.01.034-.08.004-.006.034-.082.003-.007.035-.083.003-.01.034-.082.004-.01.034-.083.003-.01.035-.082.003-.01.034-.083.004-.01.034-.082.004-.01.034-.078.003-.01.035-.08.003-.01.034-.082.004-.007.038-.082.003-.007.038-.079.003-.007.034-.078.004-.01.038-.08.003-.007.038-.078.003-.007.038-.08.003-.006.038-.079.003-.01.038-.08.004-.006.037-.079.004-.01.037-.08.004-.006.038-.079.003-.007.038-.079.003-.007.038-.078.003-.007.041-.076.004-.007.04-.079.008-.01.041-.079.003-.007.042-.078.003-.01.041-.076.003-.007.042-.076.003-.006.041-.076.004-.01.04-.076.008-.007.04-.075.004-.01.041-.076.007-.007.041-.075.004-.007.04-.075.008-.01.044-.076.004-.007.041-.075.003-.007.045-.076.003-.007.045-.075.003-.007.045-.076.007-.006.044-.076.004-.007.044-.075.007-.007.045-.076.003-.006.045-.076.007-.007.044-.075.004-.007.048-.076.007-.01.048-.075.003-.007.045-.072.006-.007.049-.072.006-.007.045-.076.003-.006.048-.072.004-.007.048-.072.007-.007.048-.076.007-.007.048-.072.003-.01.048-.072.003-.007.048-.072.004-.007.051-.072.007-.007.048-.072.007-.007.052-.072.003-.007.051-.072.004-.006.051-.073.004-.006.051-.072.007-.007.051-.072.004-.007.051-.072.007-.007.052-.069.003-.007.051-.072.007-.007.052-.068.007-.007.051-.069.007-.007.051-.068.007-.007.052-.069.003-.007.052-.068.007-.007.054-.069.007-.007.055-.068.007-.007.055-.069.007-.006.055-.07.007-.006.054-.069.007-.01.055-.068.004-.007.055-.069.006-.007.055-.068.007-.007.055-.065.007-.007.055-.069.007-.007.055-.068.006-.007.059-.066.007-.006.055-.069.006-.007.055-.065.007-.007.055-.069.007-.006.058-.07.004-.006.058-.065.007-.007.058-.065.007-.007.058-.065.007-.007.059-.065.003-.007.058-.065.007-.007.058-.065.007-.007.059-.065.003-.007.058-.066.007-.006.062-.066.003-.007.062-.065.007-.007.065-.061.007-.007.062-.065.007-.007.061-.065.213-.213.065-.062.488-.487.065-.059.007-.006.065-.059.007-.007.065-.061.007-.007.065-.062.007-.003.065-.059.007-.003.065-.058.007-.007.065-.059.007-.007.065-.058.007-.007.065-.058.007-.003.069-.059.007-.007.068-.058.007-.007.069-.058.007-.007.068-.055.007-.007.069-.055.007-.007.065-.054.007-.007.068-.055.007-.007.069-.055.007-.003.068-.055.007-.007.069-.055.007-.007.068-.055.007-.007.072-.055.007-.006.069-.055.007-.007.072-.055.007-.007.072-.055.006-.007.07-.055.006-.003.072-.055.007-.007.068-.055.007-.007.072-.051.007-.007.072-.055.007-.007.072-.051.007-.004.072-.05.01-.008.072-.051.007-.004.072-.051.007-.007.072-.055.007-.003.076-.052.007-.007.072-.051.01-.003.072-.052.007-.003.072-.052.007-.003.075-.052.007-.006.072-.052.007-.003.075-.048.007-.004.072-.051.01-.007.076-.048.007-.007.075-.051.007-.007.076-.048.01-.004.076-.048.006-.007.076-.048.007-.003.075-.048.007-.003.076-.048.006-.004.076-.048.01-.003.076-.045h.003L46.107 3.405l.003-.003.072-.045.007-.003.076-.048.01-.007.076-.045.01-.007.075-.044.01-.007.076-.045.01-.003.08-.045.006-.007.076-.044.01-.004.075-.044.007-.004.079-.04.007-.008.079-.04.007-.008.075-.04.01-.004.08-.041.006-.007.076-.041.01-.007.075-.041.01-.007.076-.041.007-.007.079-.041.007-.004.075-.04.01-.004.076-.042.01-.003.08-.041.01-.004.078-.04.007-.004.08-.038.01-.003.078-.038.01-.003.076-.038.01-.004.08-.037.006-.004.079-.037.01-.004.08-.038.01-.006.078-.038.01-.004.08-.037.01-.004.079-.034.01-.003.079-.035.007-.007.079-.034.006-.003.08-.035.01-.007.078-.034.01-.003.08-.035.01-.003.079-.034.01-.004.079-.034.01-.003.08-.035.01-.003.078-.031.01-.003.08-.035.01-.003.082-.034.01-.004.083-.034.01-.007.079-.03.007-.004.082-.031.01-.004.08-.03.006-.004.082-.03.093-.032.01-.003.083-.03.01-.004.082-.031.093-.031.092-.031.01-.003.08-.028.092-.03.01-.004.08-.028.092-.03.007-.004.082-.027.093-.031.092-.031.01-.003.083-.024.007-.004.082-.024.01-.003.083-.024h.01l.082-.024.01-.004.083-.024.007-.003.082-.024.007-.004.082-.024.01-.003.083-.024.01-.003.082-.024.01-.004.083-.02.01-.004.083-.02.006-.004.083-.024.008-.003.086-.02h.007l.082-.025h.01l.085-.02.01-.004.086-.02.01-.004.082-.02h.01l.086-.021h.01l.083-.02.01-.004.083-.017.01-.004.082-.02.01-.004.083-.017h.01l.082-.017.01-.003.083-.018h.007l.082-.017.01-.003.086-.017h.007l.086-.017.007-.004.085-.017.01-.003.087-.018.01-.003.086-.014h.01l.082-.013.01-.004.086-.017.01-.003.086-.014h.01l.083-.014.01-.003.086-.014.01-.003.082-.014h.007l.083-.014h.01l.086-.014.01-.003.086-.014h.01l.086-.013h.01l.086-.014h.01l.086-.01h.01l.082-.01h.01l.086-.011.01-.003.086-.01.007-.004.086-.007h.01l.083-.01h.01l.082-.01h.01l.086-.01h.01l.086-.011h.01l.083-.007h.01l.086-.01.01-.004.086-.007.01-.003.086-.007h.01L56.271.1h.01l.086-.007h.01l.086-.003.01-.004.086-.006.007-.004.086-.003h.01l.086-.007h.007l.086-.004h.01l.086-.003h.01l.086-.003h.01L57.13.05l.01-.003.086-.004h.01l.086-.003h.01l.086-.004h.01l.086-.003h.01l.086-.003h.007l.086-.004h.106l.086-.003h.199zm-.079 9.26h-.168l-.117.003-.058.001-.175.01-.055.004-.058.003-.165.01-.058.004-.055.004-.117.013-.055.007-.174.02-.055.008-.059.007-.11.013-.058.007-.22.028-.057.006-.055.01-.055.008-.058.01-.33.062-.055.006-.058.01-.055.011-.058.01-.165.031-.164.041-.11.02-.384.097-.055.014-.11.027-.055.017-.054.014-.055.017-.052.017-.274.086-.052.017-.054.017-.055.02-.11.035-.055.02-.11.035-.051.017-.165.062-.051.02-.055.021-.103.041-.055.024-.164.062-.052.024-.051.02-.055.025-.154.072-.055.024-.052.024-.055.024-.051.024-.051.024-.052.024-.055.024-.051.024-.052.024-.103.055-.051.024-.051.027-.052.024-.103.055-.051.027-.103.055-.051.031-.048.027-.052.028-.048.027-.154.093-.048.027-.052.031-.048.031-.103.062-.054.034-34.431 21.221-.059.038-.055.034-.514.343-.051.038-.096.068-.052.035-.288.205-.048.038-.048.034-.288.227-.045.037-.096.076-.044.038-.096.075-.045.038-.048.037-.089.076-.09.082-.088.076-.49.452-.042.041-.044.042-.042.044-.044.041-.041.045-.041.041-.042.045-.04.04-.083.09-.086.086-.123.133-.038.045-.123.134-.042.048-.04.044-.076.09-.041.047-.038.045-.041.045-.038.048-.038.044-.226.288-.034.048-.151.192-.103.144-.034.052-.069.096-.034.051-.137.192-.031.052-.034.051-.035.048-.034.052-.03.051-.032.048-.123.206-.069.103-.308.514-.031.055-.062.103-.03.055-.028.051-.083.165-.027.051-.027.052-.028.055-.027.05-.028.056-.024.051-.027.055-.028.055-.027.055-.055.11-.024.054-.024.055-.048.11-.024.055-.096.22-.02.054-.025.055-.024.058-.024.055-.024.055-.024.055-.02.055-.024.058-.024.055-.02.055-.021.058-.02.055-.022.058-.02.055-.062.175-.017.059-.02.054-.021.059-.017.058-.017.055-.018.058-.02.058-.034.11-.018.059-.02.058-.017.058-.018.055-.085.291-.028.117-.017.058-.014.059-.017.058-.027.117-.014.061-.082.35-.01.058-.014.059-.01.058-.042.247-.02.117-.02.123-.032.175-.01.062-.014.123-.007.058-.01.062-.01.058-.042.37-.007.06-.013.123-.004.061-.014.124-.034.617v.062l-.006.123v.062l-.004.062v43.484l.004.061v.186l.003.058.027.494.007.061.01.186.007.058.007.062.007.058.003.062.028.233.007.062.014.116.014.124.006.058.007.062.042.233.01.062.041.233.014.058.03.175.028.117.01.058.096.408.014.055.017.055.041.175.017.058.014.055.014.058.014.055.017.058.014.055.034.117.017.055.034.116.017.055.018.058.082.22.017.055.02.058.186.494.048.11.103.274.024.055.048.11.024.055.096.219.024.055.048.11.024.051.027.055.028.051.027.055.028.052.027.051.055.103.055.103.03.051.028.052.055.103.062.103.055.102.027.052.03.051.028.052.031.048.031.051.03.048.063.103.123.192.03.052.032.051.034.048.03.048.032.051.061.096.069.096.034.052.24.336.076.096.137.192.075.09.038.047.038.045.038.048.414.49.083.09.037.044.042.041.04.045.042.04.041.045.038.045.041.045.165.164.04.045.206.205.045.042.082.082.045.041.082.082.045.042.089.075.09.082.088.076.09.082.044.038.144.113.09.075.047.038.045.038.048.034.044.038.144.113.045.034.048.038.048.034.096.075.096.07.052.033.288.206.051.034.051.031.052.035.048.034.103.069.048.03.257.155.055.03.103.063.058.034 35.898 20.988.045.027.037.021.124.062.038.024.123.062.041.024.33.164.037.021.082.041.041.017.042.021.082.034.041.017.082.042.042.017.04.02.042.017.082.035.082.034.042.017.082.034.041.018.041.013.045.017.04.018.042.017.082.034.042.014.04.017.083.027.045.014.04.014.038.013.09.028.085.027.6.168.258.062.085.017.086.02.086.018.171.034.086.014.086.017.171.028.09.013.085.014.268.031.089.007.085.007.09.007.085.007.179.014.085.007.172.006.089.003h.439l.09-.003h.088l.179-.006.178-.014.09-.003.267-.021.085-.007.179-.02.085-.01.09-.011.085-.014.09-.014.085-.013.09-.014.085-.014.086-.017.085-.014.09-.017.085-.017.086-.02.086-.018.343-.082.343-.096.089-.027.123-.042.045-.013.041-.014.045-.014.082-.027.044-.014.083-.027.044-.017.041-.014.045-.014.041-.017.124-.04.044-.018.041-.014.042-.017.04-.017.083-.034.041-.017.082-.035.042-.017.082-.034.082-.042.041-.017.083-.04.04-.018.124-.062.038-.02.33-.165.037-.02.082-.042.045-.024 39.77-22.164.048-.024.044-.024.124-.072.041-.028.045-.024.123-.072.042-.027.04-.027.042-.024.082-.048.083-.055.04-.024.042-.028.041-.024.076-.055.037-.027.076-.055.04-.027.039-.028.04-.027.19-.137.04-.028.038-.03.038-.028.038-.03.037-.028.113-.093.076-.055.037-.03.035-.031.075-.062.034-.028.038-.03.038-.035.034-.03.038-.031.068-.062.035-.034.037-.031.035-.035.034-.03.069-.069.034-.03.034-.035.035-.031.137-.137.03-.035.035-.034.03-.034.104-.103.123-.137.035-.034.216-.24.093-.114.092-.102.031-.038.031-.034.031-.038.027-.034.055-.076.028-.034.03-.038.33-.453.023-.037.024-.041.028-.042.027-.037.048-.076.028-.04.027-.039.024-.037.096-.165.024-.038.048-.082.024-.038.072-.123.041-.082.048-.083.02-.04.049-.083.041-.082.02-.045.021-.041.048-.083.062-.123.02-.045.042-.082.02-.044.042-.083.061-.133.021-.042.017-.04.017-.045.017-.045.018-.045.017-.04.017-.045.017-.045.017-.044.017-.042.017-.044.018-.045.034-.089.017-.044.055-.179.017-.044.034-.09.017-.044.014-.045.017-.044.028-.09.017-.044.055-.178.01-.045.055-.178.01-.045.01-.048.014-.044.01-.045.01-.048.014-.045.031-.133.01-.048.021-.09.007-.047.01-.048.01-.045.008-.048.01-.045.02-.096.011-.044.01-.048.007-.048.01-.048.008-.045.01-.044.049-.337.003-.048.007-.044.003-.048.007-.048.007-.045.007-.048.012-.192.007-.048.033-.528v-.096l.003-.048V42.91l-.003-.042-.003-.045v-.044l-.003-.045.01-.044-.003-.045V42.6l-.003-.044-.003-.041-.009-.134-.003-.041-.003-.045-.003-.04-.003-.045-.007-.045-.006-.082-.007-.042-.003-.04-.007-.045-.003-.041-.007-.042-.007-.044-.003-.045-.003-.04-.007-.039-.013-.09-.01-.087-.014-.09-.014-.085-.017-.086-.017-.086-.014-.085-.017-.086-.144-.6-.072-.257-.028-.086-.024-.082-.11-.33-.061-.164-.031-.079-.093-.247-.034-.079-.031-.082-.034-.079-.035-.079-.034-.079-.038-.079-.034-.078-.038-.08-.037-.078-.038-.076-.041-.079-.038-.078-.041-.08-.165-.301-.041-.076-.045-.075-.044-.075-.045-.076-.048-.075-.089-.144-.288-.432-.257-.343-.22-.275-.054-.065-.059-.065-.055-.065-.291-.326-.309-.309-.065-.061-.065-.062-.13-.117-.065-.058-.13-.117-.07-.058-.137-.11-.065-.055-.072-.058-.03-.024-.07-.055-.034-.027-.034-.028-.034-.024-.069-.054-.038-.028-.037-.027-.035-.028-.034-.027-.034-.028-.034-.024-.035-.027-.037-.028-.07-.048-.037-.027-.075-.048-.034-.024-.038-.024-.113-.072-.038-.024-.15-.096-.076-.041-.045-.024L64.87 11.117l-.055-.034-.05-.027-.102-.062-.05-.028-.052-.028-.05-.027-.103-.055-.051-.028-.05-.027-.155-.082-.051-.028-.052-.027-.051-.028-.053-.024-.051-.027-.103-.048-.051-.028-.054-.024-.102-.048-.054-.024-.051-.024-.052-.02-.053-.024-.052-.024-.052-.024-.053-.02-.051-.021-.055-.021-.053-.024-.054-.02-.055-.025-.055-.02-.106-.041-.054-.02-.11-.042-.051-.02-.103-.035-.055-.02-.055-.018-.051-.017-.11-.034-.062-.017-.164-.052-.052-.017-.165-.051-.054-.014-.055-.017-.055-.014-.055-.017-.165-.041-.054-.017-.11-.028-.055-.01-.165-.041-.055-.01-.054-.014-.11-.02-.055-.015-.33-.061-.058-.01-.22-.028-.109-.02-.055-.007-.058-.01-.055-.008-.055-.01-.274-.034-.058-.007-.055-.003-.11-.014-.274-.017-.117-.007-.11-.007h-.055l-.11-.007h-.058l-.11-.007-.05-.003-.056-.004h-.113l-.055-.003h-.11z"/>
    <path fill="#fff" fill-rule="nonzero" d="M46.773 70.518v31.071H31.906V30.53h14.867v25.883h24.663V30.528h14.91v71.061h-14.91V70.52z"/>
  </g>
</svg>
