<svg xmlns="http://www.w3.org/2000/svg" viewBox="0 0 256 256.706">
  <path fill="#373737" d="M140.58 111.074c10.685-.296 20.878-.04 31.55-.738 1.941-.127 3.852-.695 5.782-1.029 3.954-.683 6.451-3.123 7.405-6.846 1.014-3.954 2.08-8.009 2.226-12.052.582-16.039.955-32.09 1.117-48.139.082-8.144-2.516-15.367-8.779-21.059a72.73 72.73 0 0 1-8.027-8.59c-3.885-4.897-3.228-7.25 2.79-8.5 6.608-1.373 13.364-2.535 20.09-2.748 15.321-.485 30.664-.489 45.994-.333 3.835.04 7.805 1.008 11.446 2.3 4.426 1.571 4.912 4.823 1.974 8.515-1.726 2.168-3.936 3.59-6.183 5.31-4.093 3.132-8.51 5.895-12.279 9.37-1.777 1.638-3.039 4.481-3.355 6.93-.75 5.818-.794 12.318-.9 18.193-.236 13.023-.243 26.05-.387 39.073-.086 7.848-.172 15.697-.402 23.541-.328 11.205-8.716 19.467-19.912 19.565-15.169.134-30.342.294-45.51.148-13.193-.127-26.395-1.189-39.57-.876-13.516.321-27.004 1.808-40.503 2.791-.533.04-1.066.121-1.59.23-10.41 2.141-12.51 4.473-13.799 15.225-2.15 17.955-1.574 35.974-1.293 53.986.067 4.281.331 8.561.294 12.84-.07 8.272 2.651 15.312 8.581 21.164a67.332 67.332 0 0 1 6.668 7.657c3.276 4.397 2.526 6.576-2.905 7.85-4.147.973-8.442 1.863-12.669 1.854-17.649-.034-35.304-.24-52.942-.82-3.959-.129-8.076-1.54-11.736-3.206-4.537-2.065-4.98-6.06-1.24-9.43 2.482-2.238 5.537-3.843 8.352-5.706 2.523-1.668 5.23-3.102 7.57-4.993 4.493-3.632 7.175-8.386 7.466-14.254.574-11.574 1.295-23.148 1.532-34.73.342-16.768.29-33.543.461-50.315.024-2.305.085-4.677.623-6.898 2.214-9.142 9.892-15.113 19.533-15.148 19.273-.07 38.546-.02 57.82-.02 19.447-.258 23.305.204 34.707-.112zm49.676 57.456c14.311-1.149 25.982 2.42 34.055 14.35 3.812 5.633 4.548 12.037 4.788 18.803.251 7.095.963 14.196 1.894 21.238.862 6.518 4.808 11.522 10.692 14.798 2.644 1.472 5.315 2.928 7.797 4.646 2.417 1.673 5.885 3.083 5.385 6.64-.5 3.561-4.094 4.133-7.004 4.82-3.456.815-6.97 1.634-10.497 1.862-17.973 1.162-35.955 1.66-53.867-.86a32.601 32.601 0 0 1-7.692-2.068c-3.459-1.41-4.333-3.253-3.073-6.796.748-2.103 2.131-4.085 3.602-5.802 2.43-2.836 5.153-5.422 7.77-8.097 3.941-4.03 5.7-8.832 5.718-14.487.05-15.5.276-31 .431-46.499.007-.679.001-1.358.001-2.548zM67.518 76.497c-14.612-.342-25.74-6.304-34.052-17.623-4.302-5.858-6.425-12.56-7.691-19.711-.826-4.662-2.15-9.46-4.396-13.572-1.685-3.087-5.027-5.391-7.934-7.655-3.221-2.509-6.955-4.362-10.158-6.891C-.406 8.13-.026 5.65 4.551 4.333c5.103-1.468 10.41-2.629 15.693-2.994C37.853.122 55.496-.803 73.126 1.048c2.988.313 6.013.908 8.851 1.872 4.302 1.463 5.28 4.329 3.094 8.388-.743 1.379-1.839 2.622-2.97 3.725-1.656 1.616-3.531 3.005-5.239 4.572-5.019 4.602-8.538 9.806-8.523 17.102.025 12.12-.413 24.241-.661 36.362-.019.887-.081 1.772-.16 3.428z"/>
</svg>
