<svg xmlns="http://www.w3.org/2000/svg" viewBox="0 0 512 149.262">
  <path fill="#1a1918" d="M170.744 19.748h31.326v113.084h-31.326zm47.763 113.084V19.748h86.141v21.925h-54.817v23.334h50.428v21.929h-50.428v23.961h54.817v21.935zm103.692 0L408.34 19.748h86.12v21.925h-54.803v23.334h50.412v21.929h-50.412v23.961h54.803v21.935zm103.66 0L598.12 19.748h86.142v21.925h-54.8v23.334h50.417v21.929h-50.416v23.961h54.799v21.935zM71.457 87.637c-.414 7.985-.516 15.375-1.107 23.38 3.16.287 6.726.563 10.096.072L79.44 88.774l-.177-1.062c-2.566.1-4.995.203-7.806-.075zM51.718 65.214c-3.892 1.951-9.619 4.9-8.987 10.239.834 2.915 3.99 4.799 6.488 5.997 13.805 6.083 32.131 6.29 46.707 1.75 3.598-1.387 8.428-3.398 9.09-7.807-.039-3.642-3.895-5.935-6.665-7.33v-.173c.966-.381 2.077-.725 3.077-.83v-.097c-4.882-.875-9.595-2.152-14.323-3.402.91 2.075 1.567 4.263 2.326 6.42 1.42-.455 2.877-.8 4.41-1.01 2.494.971 6.064 2.36 6.418 5.477.278 2.916-2.913 4.336-4.928 5.52-10.692 3.89-22.72 4.27-33.87 1.312-3.08-.97-7.525-2.216-7.907-6.138 2.187-5.162 7.84-6.237 12.562-7.49-2.427-1.564-4.894-2.948-7.247-4.688-2.54.14-4.86 1.252-7.15 2.25zm23.62-31.149-1.384 4.443-6.94 19.879c1.738.177 3.89 0 5.596.177v.164l-1.015 22.486.175.236c2.22.218 4.993.329 7.256-.057v-.354l-.907-21.81.137-.738 6.106-.104c-3.046-8.047-6-16.175-8.845-24.322zm-3.224-9.988c5.105-3.478 9.686 1.385 13.643 4.164 15.296 12.312 29.73 26.405 40.729 42.32 1.386 2.053 2.013 5.242.77 7.566-2.852 4.756-6.7 9.097-10.346 13.505v.241c-9.094 9.68-18.698 19.632-29.076 27.83-5.065 3.082-9.715 9.813-16.239 5.643-14.854-10.855-29.069-24.351-41.119-38.826-2.043-3.182-5.234-5.79-6.654-9.4-1.984-4.887 2.389-8.394 4.89-12.075C41 49.892 56.26 35.033 72.114 24.077zM84.916 9.605l-5.653-8.013C78.569 1.17 77.706.47 76.94.265c-1.668-.723-3.466.152-4.826 1.184L61.883 14.774C45.469 35.102 26.04 54.083 4.843 68.633 3.166 69.942.675 71.22.157 73.378c-.557 1.94.454 3.542 1.66 4.75 16.974 11.691 33.202 25.571 47.647 41.4 2.563 2.694 4.643 5.373 7.15 7.902 4.226 5.622 9.189 11.289 13.073 17.32 1.217 1.273 1.426 3.366 3.33 3.986 1.492.516 3.332.866 4.755 0l1.414-1.42c17.563-24.88 39.837-47.226 64.724-65.266 2.491-2.225 7.25-3.052 7.318-7.181-.177-1.905-1.286-3.782-2.922-4.822l-.408-.067c-12.807-8.712-24.74-18.565-35.981-29.743L99.494 27.26C94.46 21.68 89.57 15.5 84.916 9.605zM70.28 21.019c4.993-3.886 11.276-.659 15.478 2.916 4.4 3.363 8.983 7.174 13.005 11.068l.732.42c11.139 10.336 21.485 21.823 29.984 33.967 1.378 2.113 2.595 4.508 1.826 7.313-2.835 7.085-8.593 12.732-13.629 18.92-10.894 11.725-22.385 23.071-35.25 32.123-2.602 1.84-6.112 3.54-9.23 2.08-9.47-4.957-17.454-13.077-25.742-20.475-9.613-8.913-19.259-19.29-26.544-30.146-1.084-1.523-1.389-3.402-1.357-5.411.936-3.747 3.504-6.831 5.933-9.99 8.608-10.97 19.152-21.376 29.801-30.882.246-.243.7-.762 1.086-1.009 4.572-3.954 9.115-7.454 13.907-10.894z"/>
</svg>
