<svg xmlns="http://www.w3.org/2000/svg" viewBox="0 0 488.851 488.851">
  <defs>
    <filter id="a" width="2" height="2" x="-.5" y="-.5" filterUnits="objectBoundingBox">
      <feOffset dx="-1" dy="-1" in="SourceAlpha" result="shadowOffsetOuter1"/>
      <feGaussianBlur in="shadowOffsetOuter1" result="shadowBlurOuter1" stdDeviation="1.5"/>
      <feColorMatrix in="shadowBlurOuter1" result="shadowMatrixOuter1" values="0 0 0 0 0 0 0 0 0 0 0 0 0 0 0 0 0 0 0.317623415 0"/>
      <feMorphology in="SourceAlpha" operator="dilate" radius="1" result="shadowSpreadOuter2"/>
      <feOffset dx="1" dy="2" in="shadowSpreadOuter2" result="shadowOffsetOuter2"/>
      <feGaussianBlur in="shadowOffsetOuter2" result="shadowBlurOuter2" stdDeviation="2"/>
      <feColorMatrix in="shadowBlurOuter2" result="shadowMatrixOuter2" values="0 0 0 0 0 0 0 0 0 0 0 0 0 0 0 0 0 0 0.293132926 0"/>
      <feMerge>
        <feMergeNode in="shadowMatrixOuter1"/>
        <feMergeNode in="shadowMatrixOuter2"/>
        <feMergeNode in="SourceGraphic"/>
      </feMerge>
    </filter>
  </defs>
  <path fill="#fff" d="M128 4.798c67.496 0 122.213 54.717 122.213 122.213S195.496 249.224 128 249.224 5.787 194.507 5.787 127.01 60.504 4.798 128 4.798" filter="url(#a)" transform="translate(116.426 117.414)"/>
  <path fill="#447cad" d="M244.426 122.763c67.204 0 121.684 54.48 121.684 121.684 0 67.205-54.48 121.685-121.684 121.685-67.205 0-121.685-54.48-121.685-121.685 0-67.204 54.48-121.684 121.685-121.684"/>
  <path fill="#ebedf4" d="M244.426 368.414c-16.735 0-32.97-3.277-48.255-9.743-14.762-6.243-28.02-15.182-39.403-26.566-11.385-11.384-20.323-24.641-26.567-39.403-6.465-15.285-9.742-31.52-9.742-48.255 0-16.734 3.277-32.97 9.742-48.254 6.244-14.762 15.182-28.02 26.567-39.404 11.384-11.384 24.641-20.322 39.403-26.566 15.285-6.465 31.52-9.743 48.255-9.743 16.734 0 32.97 3.278 48.254 9.743 14.762 6.244 28.02 15.182 39.403 26.566 11.384 11.385 20.323 24.642 26.567 39.404 6.465 15.285 9.743 31.52 9.743 48.254 0 16.735-3.278 32.97-9.743 48.255-6.244 14.762-15.183 28.02-26.567 39.403-11.384 11.384-24.641 20.323-39.403 26.566-15.285 6.466-31.52 9.743-48.254 9.743m0-243.369c-16.12 0-31.757 3.157-46.477 9.382-14.218 6.014-26.987 14.624-37.954 25.59-10.966 10.967-19.576 23.736-25.59 37.954-6.225 14.72-9.382 30.356-9.382 46.476 0 16.12 3.157 31.757 9.383 46.476 6.013 14.219 14.623 26.988 25.59 37.955 10.966 10.966 23.735 19.576 37.953 25.59 14.72 6.225 30.356 9.382 46.477 9.382 16.12 0 31.756-3.157 46.475-9.383 14.219-6.013 26.988-14.623 37.955-25.59 10.966-10.966 19.576-23.735 25.59-37.954 6.225-14.719 9.382-30.356 9.382-46.476 0-16.12-3.157-31.757-9.382-46.476-6.014-14.218-14.624-26.987-25.59-37.954-10.967-10.966-23.736-19.576-37.955-25.59-14.719-6.225-30.355-9.382-46.475-9.382"/>
  <path fill="#ecf7f9" d="M307.592 180.917c13.09 34.278 22.115 69.656 22.402 106.601-54.532 2.946-107.11 7.568-155.762 21.605-13.09-34.278-22.115-69.656-22.401-106.6 54.532-2.947 107.11-7.57 155.761-21.606"/>
  <path fill="#dbf0f6" d="M326.304 281.947c-51.951 3.75-102.35 8.557-149.412 21.21-11.205-31.047-19.215-62.973-20.429-96.146 51.88-3.65 102.145-8.493 149.012-21.316 11.365 31.072 19.508 63.034 20.829 96.252"/>
  <path fill="#6cc077" d="M323.169 264.437c-7.828-5.593-15.912-10.88-24.12-15.978.014-.02-7.365-5.842-12.976-4.76-5.035.97-9.965 7.077-10.912 8.27-2.744-1.666-5.5-3.318-8.263-4.96.007-.011-8.664-6.618-15.228-5.392-6.567 1.21-12.973 9.831-12.969 9.833-.605.69-1.21 1.38-1.814 2.072-5.206-3.054-10.43-6.105-15.637-9.18-.016.016-10.598-8.151-18.66-6.737-8.126 1.4-16.012 12.376-15.965 12.408-6.19 7.49-12.136 15.178-17.615 23.164 2.647 9.476 5.674 18.864 8.983 28.174 46.285-12.1 95.668-16.905 146.483-20.756a253.307 253.307 0 0 0-1.307-16.158"/>
  <path fill="#87c3e8" d="M252.427 221.055c-.01-.147.08-.288.046-.437-.493-2.29-3.842-3.708-7.49-3.198-.48.07-.88.24-1.327.364-1.337-1.062-3.5-1.64-5.891-1.317-3.095.418-5.3 2.146-5.544 4.06-2.93.893-4.918 2.827-4.54 4.875.357 1.935 2.705 3.264 5.625 3.481 1.294 1.638 4.155 2.58 7.325 2.153 2.874-.39 5.092-1.78 5.926-3.442.78.103 1.605.11 2.462-.01 3.282-.456 5.589-2.487 5.156-4.525-.18-.834-.867-1.493-1.748-2.004zm26.133.564c-.05-.103-.151-.18-.175-.284-.392-1.646 1.38-3.335 3.956-3.777.342-.06.66-.03.988-.04.551-1.016 1.805-1.881 3.478-2.18 2.18-.395 4.18.312 4.942 1.576 2.21-.018 4.123.885 4.51 2.385.37 1.418-.766 2.84-2.617 3.611-.346 1.402-1.953 2.658-4.182 3.023-2.022.334-3.919-.162-4.982-1.113-.49.229-1.034.408-1.636.506-2.32.374-4.475-.519-4.819-1.985-.15-.598.1-1.189.537-1.722z"/>
  <path fill="#bab9d6" d="M208.345 234.396c-.054-.018-.116-.085-.16-.116a1.005 1.005 0 0 1-.37-.48l-.002-.007.01.017.067-.016v-.003c.01-.097-.016-.197-.032-.294l-.05-.438a2.313 2.313 0 0 0-.284-.775 2.497 2.497 0 0 0-.442-.587 4.978 4.978 0 0 0-.313-.273c-.033-.026-.165-.125-.216-.198.113.057.221.112.347.16l.065-.02c0-.063-.082-.127-.123-.177-.09-.108-.165-.23-.24-.345-.147-.224-.246-.465-.452-.66-.2-.188-.433-.295-.703-.394a2.141 2.141 0 0 0-.376-.11c-.077-.012-.156-.017-.234-.025a6.593 6.593 0 0 0-.334-.155 2.249 2.249 0 0 0-.49-.153h-.006a1.562 1.562 0 0 0-1.21.095c-.175.094-.305.191-.52.222a.82.82 0 0 1-.353-.05.445.445 0 0 0-.057-.158c-.026-.042-.053-.074-.067-.12-.013-.04-.056-.056-.074-.09.095.025.172.072.283.076l.045-.023c.013-.06-.12-.098-.166-.117-.186-.077-.243-.226-.307-.382-.059-.142-.171-.234-.282-.348l-.052-.042.062-.02a.29.29 0 0 1 .093.05c.066.05.098.117.154.175l.063-.022c-.024-.148-.138-.32-.228-.448a1.283 1.283 0 0 0-.24-.243c-.04-.032-.155-.068-.176-.12.067.005.14.01.183-.038l-.003-.021c-.065-.04-.136-.055-.212-.08-.112-.037-.167-.125-.222-.208-.096-.142-.172-.289-.287-.422-.086-.1-.152-.218-.277-.289-.111-.063.011-.018.062.006.046.022.067.032.117.028l.036-.027c-.044-.114-.178-.18-.289-.245-.058-.034-.142-.084-.212-.1-.028-.008-.097-.021-.152-.04.05.005.1.007.148.002l.033-.03c-.025-.026-.064-.034-.1-.044a.735.735 0 0 1-.296-.179c-.046-.041-.086-.046-.153-.049a2.755 2.755 0 0 0-.162-.002l-.021-.022-.064-.1-.154-.157c-.086-.14-.118-.287-.24-.412-.044-.045-.106-.053-.168-.03-.082.03-.02.133-.008.184.02.077-.023.163-.028.24a.24.24 0 0 0 .038.15 1.092 1.092 0 0 0-.24.067l-.038-.033c-.107-.082-.207-.136-.288-.24-.057-.076-.117-.155-.21-.202l-.054.01c-.05.041-.02.124-.018.175.003.076.01.152.021.228.019.134.084.192.181.244a.69.69 0 0 0-.122.067c-.102.073-.198.146-.313.205-.028.014-.02.037.013.035a.583.583 0 0 0 .133-.024 1.37 1.37 0 0 0-.162.167c-.025.029.032.028.05.018a.908.908 0 0 1 .137-.064c-.095.073-.186.14-.308.196-.026.013-.02.04.013.035.058-.007.114-.02.17-.035l-.006.005c-.048.038-.168.094-.19.148a.442.442 0 0 0-.019.195l-.002.005-.046.075-.02.025-.044.044c-.1.074-.186.159-.268.246-.107.107-.207.216-.324.318l-.134.112a.97.97 0 0 0-.238.242c-.046.065-.087.123-.095.199-.005.057.053.11.098.162l.023.06c.038.103.013.205.075.301.048.076.213.251.34.218l.08-.029.023.015c.063.038.17.01.241.017.155.015.268-.091.33-.194l.036-.059c.34-.104.677-.213 1.024-.3l.011-.003c.14.05.3.052.452.018l.036.14c.009.165-.003.332.022.493.042.275.052.55.124.822.049.186.09.374.131.562-.017.11-.043.219-.077.328-.04.083-.09.162-.148.243-.104.143-.17.364-.195.527-.032.205-.032.457.038.656l.026.058.008.131a.608.608 0 0 0 .102.263c.05.203.014.39.026.594.012.188.068.35.144.526.058.133.117.266.178.399l.016.068c.038.146.09.29.1.44.017.278.139.551.001.819-.032.063-.019.174.001.237.031.098.025.19.094.278l.028.036c.024.068.051.136.07.204.038.131.058.267.073.401l.001.018v.003c.005.09-.007.18-.015.272-.01.104-.076.223-.025.322.073.142.12.305.018.45-.053.074-.133.117-.125.208l.005.011-.004.143a1.473 1.473 0 0 1-.034.223c-.008.036.038.067.072.076.042.01.099.009.143.01.058.002.116.016.174.012.072-.006.37-.042.388-.127.012-.06.001-.13-.002-.19-.004-.06.005-.127-.012-.186l.007-.02a1.845 1.845 0 0 1-.13-.31l.01-.125.005-.03a.371.371 0 0 0 .08-.181c.019-.092-.035-.177-.07-.26-.048-.12-.032-.284-.049-.41a3.486 3.486 0 0 1-.023-.382c-.001-.086.054-.202.052-.294a.512.512 0 0 0 .024-.18c-.003-.053.005-.138-.013-.207l.002-.01c.021-.12-.054-.204-.077-.319l-.016-.077c.02-.177.052-.356.061-.533.013-.252.032-.52-.01-.772.033-.067.07-.133.097-.203a.735.735 0 0 0 .039-.159c.12-.05.282-.042.412-.026a.72.72 0 0 1 .111.023l.035.045c.078.09.154.166.21.269l.053.108.173 1.183.003.097-.001.013c-.024.103-.068.206-.105.303-.02.053-.009.112.002.165.016.082.019.166.043.247.017.058.057.097.098.145.026.031.047.064.066.098.065.18.08.393.085.553.003.118.025.234.042.351l.01.106-.008.029c-.021.068-.067.134-.066.206 0 .044.026.116.069.174.027.078.02.17.019.244-.003.126-.13.16-.167.269l.027.004v.023l.019.004c-.003.085-.019.171-.03.254-.006.037-.034.086-.002.11.007.029.038.046.093.053.108.014.246.019.354.008.143-.014.362-.061.375-.171a.167.167 0 0 0-.001-.083c-.012-.065-.007-.242-.096-.253l-.001-.001.046-.024a.723.723 0 0 1-.201-.287c.098-.116.143-.249.104-.381l-.023-.098c-.034-.143-.083-.27-.092-.42-.008-.138-.037-.278-.034-.416a1.697 1.697 0 0 0-.02-.27l.031-.069c.092-.143.01-.287.03-.434.023-.165-.114-.31-.12-.471l-.005-.113.036-.105c.057-.176.101-.347.124-.528.025-.206.027-.404.024-.61-.001-.12.008-.247 0-.37h.007a3.13 3.13 0 0 0 .8-.086c.027.104.057.207.1.308.086.197.21.375.319.562.056.098.122.167.122.281 0 .093.03.19.05.28a.453.453 0 0 0 .092.197l.043.114c.027.072.052.144.075.217.019.134.05.269.06.401.015.208.047.426.027.634-.015.153-.127.283-.045.43.118.213-.124.336-.206.519l.055.002.013-.006-.085.044c-.023.019-.027.042-.034.066a1.597 1.597 0 0 1-.144.321c-.045.081.378.019.412.014.154-.02.434-.01.493-.173.034-.092.04-.18-.046-.249-.069-.056-.103-.095-.08-.18l.011-.045c.027-.022.071-.008.103-.016.075-.02.064-.125.07-.175.037-.258-.02-.517 0-.776.021-.313-.062-.628-.04-.944.009-.138.007-.282.005-.421-.001-.113.007-.222-.013-.333.015-.089.016-.17-.052-.254-.1-.123-.202-.29-.23-.438a1.07 1.07 0 0 1 .211-.826c.084-.115.223-.187.299-.305l.038-.075c.107.144.225.284.324.432l.029.04c.038.241.116.471.175.712l.001.004c.02.136.037.272.058.408l.016.072-.01.106c-.013.067-.047.14-.053.204-.021.199.037.385.038.582 0 .094.078.158.132.234a.73.73 0 0 1 .067.117l.041.307c.024.132 0 .31.051.447a.965.965 0 0 1-.02.29c-.037.139-.057.234.003.372l.02.043a.85.85 0 0 1-.028.203c-.018.079-.083.169-.072.25l.025.006a.65.65 0 0 0-.008.312c.01.044.015.05.07.054.09.008.182.013.272.018.107.006.307-.06.36-.139.016-.024.003-.123.003-.148a.653.653 0 0 0-.044-.21l.008-.013c-.004-.023-.022-.034-.043-.05a.327.327 0 0 1-.106-.122l-.043-.157c.073-.106.102-.189.07-.312a1.068 1.068 0 0 0-.113-.252c-.015-.113-.046-.228-.053-.337-.014-.22-.039-.446-.02-.665.007-.11.063-.213.077-.323.011-.09.03-.182.033-.274.005-.115-.038-.23-.071-.34a.888.888 0 0 1-.029-.24c.047-.138.116-.268.182-.401.085-.175.077-.428.01-.636l-.002-.02c-.018-.151.022-.34.055-.49l.028-.145c.005.051.01.103.02.155l.003.002c.013.26.128.522.267.745l.067-.018c-.007-.079.018-.15.043-.223.032.16.065.317.086.48.01.076.023.152.022.23 0 .047-.012.106.01.15l.06-.01c.111-.063.156-.222.156-.328-.001-.108-.03-.21-.055-.316-.008-.036-.047-.134-.045-.198.096.101.057.289.171.373l.006.058c.018.238.14.438.272.644.123.191.283.358.465.512.094.08.296.233.443.225l.054-.022c-.04-.065-.18-.082-.25-.121a.898.898 0 0 1-.337-.31 1.615 1.615 0 0 1-.175-.412l-.019-.091-.036-.04v-.01l.003.001c.035.026.062.06.09.09.112.12.212.248.316.372.07.086.156.175.21.268.027.049.046.147.11.172l.064-.017a.808.808 0 0 0-.063-.465c-.052-.124-.153-.233-.227-.348l.047.041c.09.078.206.13.318.185.138.068.319.208.491.17l.039-.02c-.016-.044-.044-.055-.094-.072zm-9.875-8.25a424.03 424.03 0 0 1-1.962-1.975c.436.743.874 1.484 1.316 2.224z"/>
  <path fill="#76a1c4" d="M254.092 318.456 237.75 337.25l7.957 4.885 10.217-11.747 13.246 8.148 6.138-7.048-21.215-13.03m-2.39-15.582L235.36 321.67l7.957 4.885 10.217-11.747 13.246 8.147 6.138-7.047-21.214-13.032m-8.64-139.593-10.217 11.747-13.246-8.148-6.138 7.048 21.215 13.03 16.343-18.792-7.956-4.885m-2.39-15.581-10.218 11.747-13.246-8.148-6.138 7.048 21.214 13.031 16.344-18.793-7.957-4.885"/>
</svg>
