<svg xmlns="http://www.w3.org/2000/svg" viewBox="0 0 512 72.021">
  <path fill="#fc4349" d="M0 0h23.723v70.144H0zm31.061 0h18.432l18.262 26.965L86.016 0h18.603v70.144H82.09V44.885L67.755 65.877 53.419 44.885v25.259H31.06zm80.726 0h18.602l18.091 26.965L166.741 0h18.603v70.144h-22.528V44.885L148.48 66.048l-14.336-20.992v25.259h-22.357zm107.69 72.021c-4.437 0-8.362-.512-11.946-1.706-3.584-1.195-6.656-2.731-9.216-5.12-2.56-2.219-4.438-5.12-5.803-8.534-1.365-3.413-2.048-7.509-2.048-12.117V0h22.357v43.69c0 2.39.512 4.267 1.536 5.633 1.024 1.365 2.731 1.877 5.12 1.877 2.39 0 4.096-.683 5.12-1.877 1.024-1.366 1.536-3.243 1.536-5.632V0h22.528v44.544c0 4.608-.682 8.704-2.048 12.117-1.365 3.414-3.413 6.315-5.973 8.534-2.56 2.218-5.632 3.925-9.216 5.12-3.584 1.024-7.51 1.706-11.947 1.706zm45.739-53.589h-12.97V0h48.98v18.432h-12.97v51.712h-23.21V18.432zM318.123 0h16.896l26.624 70.144h-22.016l-2.39-6.315h-21.333l-2.39 6.315H291.5zm13.141 48.47-4.779-12.289-4.778 12.288zM363.349 0h27.478c3.584 0 6.656.341 9.557 1.195 2.901.853 5.461 2.048 7.51 3.584 2.047 1.536 3.754 3.584 4.778 5.973 1.195 2.39 1.707 5.12 1.707 8.192 0 2.219-.342 4.096-.854 5.803-.512 1.536-1.194 2.901-1.706 3.925-.854 1.195-1.707 2.39-2.56 3.072 1.536 1.024 2.901 2.219 4.266 3.755a23.791 23.791 0 0 1 2.902 5.12c.853 2.048 1.365 4.608 1.365 7.509 0 3.413-.512 6.485-1.707 9.216-1.194 2.73-2.901 5.12-5.12 6.997-2.218 1.878-4.949 3.414-8.021 4.438-3.243 1.024-6.827 1.536-10.752 1.536H363.52V0zm29.526 21.333c0-3.242-1.707-4.778-5.291-4.778h-2.56v9.728h2.56c3.584 0 5.29-1.707 5.29-4.95zm-5.291 32.256c5.29 0 8.021-2.048 8.021-6.144s-2.73-6.144-8.021-6.144h-2.56V53.59zM423.765 0h23.382v51.712h19.285v18.432h-42.667zm46.08 0h41.302v18.432h-18.944v7.85h18.602v17.409h-18.602v8.021H512v18.432h-42.155z"/>
  <path fill="#2c3e50" d="M0 0h23.723v70.144H0zm13.312 61.781V8.363h-2.73V61.78zM31.062 0h18.431l18.262 26.965L86.016 0h18.603v70.144H82.09V44.885L67.755 65.877 53.419 44.885v25.259H31.06zm13.14 61.781V13.483l23.553 34.304 23.552-34.304V61.78h2.73V8.363h-2.73L67.755 43.008 44.203 8.363h-2.731V61.78zM111.788 0h18.602l18.091 26.965L166.741 0h18.603v70.144h-22.528V44.885L148.48 66.048l-14.336-20.992v25.259h-22.357zm13.141 61.781V13.483l23.552 34.304 23.381-34.304V61.78h2.731V8.363h-2.73L148.48 43.008 124.928 8.363h-2.73V61.78zm94.55 10.24c-4.438 0-8.363-.512-11.947-1.706-3.584-1.195-6.656-2.731-9.216-5.12-2.56-2.219-4.438-5.12-5.803-8.534-1.365-3.413-2.048-7.509-2.048-12.117V0h22.357v43.69c0 2.39.512 4.267 1.536 5.633 1.024 1.365 2.731 1.877 5.12 1.877 2.39 0 4.096-.683 5.12-1.877 1.024-1.366 1.536-3.243 1.536-5.632V0h22.528v44.544c0 4.608-.682 8.704-2.048 12.117-1.365 3.414-3.413 6.315-5.973 8.534-2.56 2.218-5.632 3.925-9.216 5.12-3.584 1.024-7.51 1.706-11.947 1.706zm0-12.629c-10.582 0-15.702-5.12-15.702-15.53v-35.5h-2.73v35.5c0 5.973 1.535 10.41 4.778 13.482 3.243 3.072 7.85 4.608 13.653 4.608 5.974 0 10.582-1.536 13.824-4.608 3.243-3.072 4.779-7.68 4.779-13.483V8.363h-2.901V43.86c0 10.24-5.12 15.531-15.702 15.531zm45.738-40.96h-12.97V0h48.98v18.432h-12.97v51.712h-23.21V18.432zm12.97 43.35v-50.86h15.02v-2.56h-32.769v2.56h15.019v50.86zM318.124 0h16.896l26.624 70.144h-22.016l-2.39-6.315h-21.333l-2.39 6.315H291.5zM307.2 61.781l2.048-5.29h34.645l2.048 5.29h2.902l-20.31-53.418h-3.925l-20.31 53.418zm19.285-50.858L342.87 53.93h-32.768zm4.779 37.546-4.779-12.288-4.778 12.288zM363.349 0h27.478c3.584 0 6.656.341 9.557 1.195 2.901.853 5.461 2.048 7.51 3.584 2.047 1.536 3.754 3.584 4.778 5.973 1.195 2.39 1.707 5.12 1.707 8.192 0 2.219-.342 4.096-.854 5.803-.512 1.536-1.194 2.901-1.706 3.925-.854 1.195-1.707 2.39-2.56 3.072 1.536 1.024 2.901 2.219 4.266 3.755a23.791 23.791 0 0 1 2.902 5.12c.853 2.048 1.365 4.608 1.365 7.509 0 3.413-.512 6.485-1.707 9.216-1.194 2.73-2.901 5.12-5.12 6.997-2.218 1.878-4.949 3.414-8.021 4.438-3.243 1.024-6.827 1.536-10.752 1.536H363.52V0zm25.771 61.781c6.144 0 10.752-1.365 13.653-3.925 2.902-2.73 4.438-6.144 4.438-10.581 0-2.902-.683-5.12-1.878-6.827-1.194-1.707-2.56-3.072-3.925-4.096-1.707-1.195-3.755-1.877-5.803-2.39 1.707-.511 3.243-1.194 4.608-2.389 1.195-.853 2.219-2.218 3.243-3.754s1.365-3.584 1.365-5.974c0-4.437-1.365-7.68-4.266-10.069-2.731-2.219-6.656-3.413-11.435-3.413h-15.19V61.78zm-12.459-29.184V10.923h12.459c4.608 0 7.85 1.024 9.899 3.072 2.048 2.048 3.072 4.608 3.072 7.85 0 3.243-1.024 5.803-3.072 7.851s-5.291 3.072-9.899 3.072h-12.459zm0 26.624V35.157h12.288c2.219 0 4.267.171 5.974.683 1.877.512 3.413 1.195 4.949 2.048 1.365 1.024 2.56 2.219 3.243 3.755.853 1.536 1.194 3.413 1.194 5.461 0 4.267-1.365 7.339-4.266 9.216-2.902 1.877-6.656 2.901-11.264 2.901zm16.214-37.888c0-3.242-1.707-4.778-5.291-4.778h-2.56v9.728h2.56c3.584 0 5.29-1.707 5.29-4.95zm-5.291 32.256c5.29 0 8.021-2.048 8.021-6.144s-2.73-6.144-8.021-6.144h-2.56V53.59zM423.765 0h23.382v51.712h19.285v18.432h-42.667zm36.864 61.781v-2.56h-23.552V8.363h-2.73V61.78zM469.845 0h41.302v18.432h-18.944v7.85h18.602v17.409h-18.602v8.021H512v18.432h-42.155zm34.304 61.781v-2.56h-20.992v-23.04h19.968v-2.56h-19.968V10.923h20.992v-2.56h-23.722V61.78z"/>
</svg>
