<?xml version="1.0" encoding="UTF-8"?>
<svg height="128" width="128" xmlns="http://www.w3.org/2000/svg" xmlns:xlink="http://www.w3.org/1999/xlink">
 <defs>
  <linearGradient id="a" gradientUnits="userSpaceOnUse">
   <stop offset="0" stop-color="#fff"/>
   <stop offset="1" stop-color="#fff" stop-opacity="0"/>
  </linearGradient>
  <linearGradient id="b" xlink:href="#a"/>
  <linearGradient id="c" x1="60" x2="90" xlink:href="#b" y1="20" y2="50"/>
  <filter id="d" color-interpolation-filters="sRGB">
   <feGaussianBlur stdDeviation=".80546496"/>
  </filter>
  <filter id="e" color-interpolation-filters="sRGB">
   <feGaussianBlur stdDeviation="3.4903482"/>
  </filter>
  <linearGradient id="f" gradientUnits="userSpaceOnUse" x1="82.12" x2="60" y1="20" y2="40">
   <stop offset="0" stop-color="#c0cdf9"/>
   <stop offset="1" stop-color="#07092d" stop-opacity=".288"/>
  </linearGradient>
  <clipPath id="g">
   <use height="300" width="400" xlink:href="#I"/>
  </clipPath>
  <filter id="h" color-interpolation-filters="sRGB">
   <feGaussianBlur stdDeviation="2.4163949"/>
  </filter>
  <linearGradient id="i" x1="32.91" x2="58.14" xlink:href="#b" y1="34.94" y2="60.17"/>
  <radialGradient id="j" cx="116.31" cy="250.9" gradientTransform="matrix(1.57005 0 0 1.05093 -75.5 -22.1)" gradientUnits="userSpaceOnUse" r="30.6" xlink:href="#k"/>
  <linearGradient id="k" gradientUnits="objectBoundingBox" xlink:href="#a"/>
  <radialGradient id="l" cx="132.44" cy="251.99" gradientTransform="matrix(2.00325 0 0 1.3409 -132.88 -95.17)" gradientUnits="userSpaceOnUse" r="30.6" xlink:href="#k"/>
  <filter id="m" color-interpolation-filters="sRGB" height="1.23" width="1.16" x="-.08" y="-.11">
   <feGaussianBlur stdDeviation="1.9579068"/>
  </filter>
  <radialGradient id="n" cx="210.25" cy="168.5" gradientTransform="matrix(1 0 0 .42336 0 97.16)" gradientUnits="userSpaceOnUse" r="34.25" xlink:href="#k"/>
  <radialGradient id="o" cx="217.5" cy="182.08" gradientTransform="matrix(1 0 0 .42336 0 97.16)" gradientUnits="userSpaceOnUse" r="34.25" xlink:href="#k"/>
  <filter id="p" color-interpolation-filters="sRGB" height="1.35" width="1.15" x="-.07" y="-.18">
   <feGaussianBlur stdDeviation="2.1195652"/>
  </filter>
  <linearGradient id="q" gradientUnits="userSpaceOnUse" x1="231.63" x2="231.75" xlink:href="#k" y1="195.19" y2="201.5"/>
  <linearGradient id="r" gradientUnits="userSpaceOnUse" x1="231.38" x2="231.38" xlink:href="#k" y1="195.62" y2="200.07"/>
  <filter id="s" color-interpolation-filters="sRGB" height="1.56" width="1.17" x="-.09" y="-.28">
   <feGaussianBlur stdDeviation=".56515877"/>
  </filter>
  <radialGradient id="t" cx="228.22" cy="204.83" gradientTransform="matrix(1 0 0 .14775 0 174.57)" gradientUnits="userSpaceOnUse" r="14.09" xlink:href="#k"/>
  <filter id="u" color-interpolation-filters="sRGB" height="1.95" width="1.14" x="-.07" y="-.47">
   <feGaussianBlur stdDeviation=".82052366"/>
  </filter>
  <radialGradient id="v" cx="89.88" cy="187.87" gradientTransform="matrix(1 0 0 .40708 0 115.76)" gradientUnits="userSpaceOnUse" r="22.75">
   <stop offset="0" stop-color="#fff" stop-opacity=".33"/>
   <stop offset="1" stop-color="#fff" stop-opacity="0"/>
  </radialGradient>
  <radialGradient id="w" cx="90.28" cy="230.84" gradientTransform="matrix(1.18508 -.32836 .12286 .4434 -45.07 152.92)" r="10.47" xlink:href="#a"/>
  <filter id="x" color-interpolation-filters="sRGB" height="1.33" width="1.15" x="-.08" y="-.17">
   <feGaussianBlur stdDeviation=".66458488"/>
  </filter>
  <radialGradient id="y" cx="68.4" cy="21.23" gradientTransform="matrix(1.72215 0 0 1.69498 -49.4 -14.08)" r="54.78" xlink:href="#a"/>
  <filter id="z" color-interpolation-filters="sRGB">
   <feGaussianBlur stdDeviation=".32610678"/>
  </filter>
  <linearGradient id="A" x1="95.5" x2="153.5" xlink:href="#a" y1="208.16" y2="223.5"/>
  <filter id="B" color-interpolation-filters="sRGB" height="1.24" width="1.17" x="-.08" y="-.12">
   <feGaussianBlur stdDeviation="3.6868363"/>
  </filter>
  <linearGradient id="C" gradientUnits="userSpaceOnUse" x1="55.84" x2="52.66" y1="76.73" y2="84.02">
   <stop offset="0" stop-color="#eeeeec"/>
   <stop offset="1" stop-color="#eeeeec" stop-opacity="0"/>
  </linearGradient>
  <radialGradient id="D" cx="181.23" cy="214.55" gradientTransform="matrix(1.35152 0 0 1.71757 -63.71 -153.96)" r="22.47" xlink:href="#a"/>
  <filter id="E" color-interpolation-filters="sRGB">
   <feGaussianBlur stdDeviation="1.2409356"/>
  </filter>
  <linearGradient id="F" x1="30.32" x2="34.78" xlink:href="#b" y1="79.22" y2="82.76"/>
  <filter id="G" color-interpolation-filters="sRGB">
   <feGaussianBlur stdDeviation="2.7696726"/>
  </filter>
  <linearGradient id="H" gradientUnits="userSpaceOnUse" x1="50.64" x2="23.53" y1="134.15" y2="61.15">
   <stop offset="0" stop-color="#729fcf"/>
   <stop offset="1" stop-color="#729fcf" stop-opacity="0"/>
  </linearGradient>
  <path id="I" d="m54.1 12.5-41.2 42.2c-15.6 15.6 10.1 14.3 19.4 20.2 4.3 2.8-13.8 6.4-10.1 10.1 3.6 3.7 21.7 7.1 25.3 10.7 3.6 3.7-7.3 7.6-3.7 11.3 3.5 3.7 11.9.2 13.4 8.6 1.1 6.2 15.4 3.1 21.8-2.2 4-3.4-6.9-3.4-3.3-7.1 9-9.1 17-4.1 20.3-12.5 1.8-4.5-13.6-7.7-9.5-10.6 9.8-6.9 45.8-10.4 29.2-27l-42.7-43.7c-5.3-5-14-5-18.9 0zm-9.9 64.7c.9 0 30.8 4 19.3 7.1-4.4 1.2-24.6-7.1-19.3-7.1zm57.2 16.6c0 2.1 16.3 3.3 15.4-.5-1.3-6.4-13.6-5.9-15.4.5zm-69.5 11.1c3.7 3.2 9.3-.7 11.1-5.2-3.6-4.7-16.9.3-11.1 5.2zm67.5-6.7c-4.6 4.2.8 8.6 5.3 5.7 1.2-.8-.1-4.7-5.3-5.7z"/>
 </defs>
 <metadata/>
 <g enable-background="new" transform="matrix(.99658 0 0 .99627 .22 -1.6)">
  <g opacity=".783" transform="translate(0 .49)">
   <path d="m54.1 12.9883-41.2 42.2c-15.6 15.6 10.1 14.3 19.4 20.2 4.3 2.8-13.8 6.4-10.1 10.1 3.6 3.7 21.7 7.1 25.3 10.7 3.6 3.69999-7.3 7.59999-3.7 11.3 3.5 3.7 11.9.2 13.4 8.6 1.1 6.2 15.4 3.1 21.8-2.2 4-3.4-6.9-3.4-3.3-7.1 9-9.09999 17-4.1 20.3-12.5 1.8-4.5-13.6-7.7-9.5-10.6 9.8-6.9 45.8-10.4 29.2-27l-42.7-43.7c-5.3-5-14-5-18.9 0zm47.3 81.3c0 2.1 16.3 3.3 15.4-.5-1.3-6.4-13.6-5.9-15.4.5zm-69.5 11.1c3.7 3.2 9.3-.7 11.1-5.2-3.6-4.69999-16.9.3-11.1 5.2zm67.5-6.69999c-4.6 4.19999.8 8.59999 5.3 5.69999 1.2-.8-.1-4.7-5.3-5.69999z" filter="url(#d)"/>
   <path d="m54.1 13.9649-41.2 42.2c-15.6 15.6 10.1 14.3 19.4 20.2 4.3 2.8-13.8 6.4-10.1 10.1 3.6 3.7 21.7 7.1 25.3 10.7 3.6 3.69998-7.3 7.59998-3.7 11.3 3.5 3.7 11.9.2 13.4 8.6 1.1 6.2 15.4 3.1 21.8-2.2 4-3.4-6.9-3.4-3.3-7.1 9-9.09998 17-4.1 20.3-12.5 1.8-4.5-13.6-7.7-9.5-10.6 9.8-6.9 45.8-10.4 29.2-27l-42.7-43.7c-5.3-5-14-5-18.9 0zm47.3 81.3c0 2.1 16.3 3.3 15.4-.5-1.3-6.4-13.6-5.9-15.4.5zm-69.5 11.1c3.7 3.2 9.3-.7 11.1-5.2-3.6-4.69998-16.9.3-11.1 5.2zm67.5-6.69998c-4.6 4.19998.8 8.59998 5.3 5.69998 1.2-.8-.1-4.7-5.3-5.69998z" filter="url(#e)" opacity=".576"/>
  </g>
  <path d="m54.1 12.5-41.2 42.2c-15.6 15.6 10.1 14.3 19.4 20.2 4.3 2.8-13.8 6.4-10.1 10.1 3.6 3.7 21.7 7.1 25.3 10.7 3.6 3.7-7.3 7.6-3.7 11.3 3.5 3.7 11.9.2 13.4 8.6 1.1 6.2 15.4 3.1 21.8-2.2 4-3.4-6.9-3.4-3.3-7.1 9-9.1 17-4.1 20.3-12.5 1.8-4.5-13.6-7.7-9.5-10.6 9.8-6.9 45.8-10.4 29.2-27l-42.7-43.7c-5.3-5-14-5-18.9 0zm47.3 81.3c0 2.1 16.3 3.3 15.4-.5-1.3-6.4-13.6-5.9-15.4.5zm-69.5 11.1c3.7 3.2 9.3-.7 11.1-5.2-3.6-4.7-16.9.3-11.1 5.2zm67.5-6.7c-4.6 4.2.8 8.6 5.3 5.7 1.2-.8-.1-4.7-5.3-5.7z"/>
  <path id="J" d="m54.1 12.5-41.2 42.2c-15.6 15.6 10.1 14.3 19.4 20.2 4.3 2.8-13.8 6.4-10.1 10.1 3.6 3.7 21.7 7.1 25.3 10.7 3.6 3.7-7.3 7.6-3.7 11.3 3.5 3.7 11.9.2 13.4 8.6 1.1 6.2 15.4 3.1 21.8-2.2 4-3.4-6.9-3.4-3.3-7.1 9-9.1 17-4.1 20.3-12.5 1.8-4.5-13.6-7.7-9.5-10.6 9.8-6.9 45.8-10.4 29.2-27l-42.7-43.7c-5.3-5-14-5-18.9 0zm47.3 81.3c0 2.1 16.3 3.3 15.4-.5-1.3-6.4-13.6-5.9-15.4.5zm-69.5 11.1c3.7 3.2 9.3-.7 11.1-5.2-3.6-4.7-16.9.3-11.1 5.2zm67.5-6.7c-4.6 4.2.8 8.6 5.3 5.7 1.2-.8-.1-4.7-5.3-5.7z" fill="none"/>
  <use clip-path="url(#g)" fill="url(#f)" filter="url(#h)" height="300" opacity=".25" transform="matrix(.99054 0 0 .99054 .61 .6)" width="400" xlink:href="#I"/>
  <path d="m16.5652 57.0394c-11.2019 11.101 8.47714 7.97256 23.6149 13.9267l31.2847-55.0005c-4.74316-4.84409-10.7983-4.44041-15.1378 0z" fill="url(#i)" opacity=".5"/>
  <path d="m70.5 15.5 16.3 16.6c1.5 1.5 1.5 4.6.6 5.5l-8.1-6.6-1.6 9.7-6.7-3.6-10.9 6.9-3.6-14.5-5.8 12.6-14.5-.1c-2.8 0-2.4-2.9.5-5.8 5.7-6.3 16.8-17 20.3-20.7 3.6-3.7 9.9-3.6 13.5 0z" fill="url(#c)"/>
  <path d="m113 203.5s3.3405 5.1007 3 7.5c-.6682 4.7087-10.8094 7.0584-8.5625 11.25 2.2199 4.1411 10.2214 1.794 16.9375 6.125 6.6875 4.3125 4.8895 13.1015 9.75 15.3125 9.4792 4.312 34.375-7.4375 33.125-7.1875s-24.5701 5.0954-29.8201.8454c-5.986-4.8457-7.7022-8.2302-12.1174-11.0954-4.1375-2.685-9.9497-3.7804-11.3025-5.9787-1.3528-2.1982 2.7092-5.0346 2.99-9.2713.1686-2.5444-4-7.5-4-7.5z" fill="url(#j)" fill-rule="evenodd" opacity=".217" transform="matrix(.52965 0 0 .52965 -11.72 -13.86)"/>
  <path d="m113 203.5s3.3405 5.1007 3 7.5c-.6682 4.7087-10.8094 7.0584-8.5625 11.25 2.2199 4.1411 10.2214 1.794 16.9375 6.125 6.6875 4.3125 4.8895 13.1015 9.75 15.3125 9.4792 4.312 34.375-7.4375 33.125-7.1875-41.3396.1574-33.6249-10.4946-49.5625-17.5-2.303-1.0123-.9683-3.7633-.6875-8 .1686-2.5444-4-7.5-4-7.5z" fill="url(#l)" fill-rule="evenodd" filter="url(#m)" opacity=".276" transform="matrix(.52965 0 0 .52965 -11.72 -13.86)"/>
  <path d="m183.25 181.75c37.1037-13.6546 49.0236-15.5306 61.25-27.75-14.1607 11.9537-44.0985 18.3658-68.5 29z" fill="url(#n)" fill-rule="evenodd" opacity=".453" transform="matrix(.52965 0 0 .52965 -11.72 -13.86)"/>
  <path d="m183.25 181.75c61.1037-21.6546 50.7736-21.5306 61.25-27.75-19.4277 7.4367-55.7345 8.2298-68.5 29z" fill="url(#o)" fill-rule="evenodd" filter="url(#p)" opacity=".512" transform="matrix(.52965 0 0 .52965 -11.72 -14.79)"/>
  <path d="m237.875 199.062c0 1.3462-3.5537 2.4375-7.9375 2.4375s-7.9375-1.0913-7.9375-2.4375 3.5537-2.4375 7.9375-2.4375 7.9375 1.0913 7.9375 2.4375z" fill="url(#q)" opacity=".286" transform="matrix(.52965 0 0 .52965 -12.38 -14.79)"/>
  <path d="m237.875 199.062c0 1.3462-3.5537 2.4375-7.9375 2.4375s-7.9375-1.0913-7.9375-2.4375 3.5537-2.4375 7.9375-2.4375 7.9375 1.0913 7.9375 2.4375z" fill="url(#r)" filter="url(#s)" opacity=".621" transform="matrix(.71315 0 0 1.14078 -54.58 -134.96)"/>
  <path d="m214.125 203.75c3.7695 3.4842 24.7558 5.2722 28.1875-1-6.7366 4.7839-21.7168 3.1026-28.1875 1z" fill="url(#t)" fill-rule="evenodd" filter="url(#u)" transform="matrix(.52965 0 0 .52965 -11.72 -14.24)"/>
  <path d="m236.446 199.062c0 1.7022-2.9139 3.0821-6.5084 3.0821s-6.5084-1.3799-6.5084-3.0821 2.9139-3.0821 6.5084-3.0821 6.5084 1.3799 6.5084 3.0821z" fill="url(#q)" opacity=".286" transform="matrix(.20425 -.10356 .23952 .4724 5.75 30.29)"/>
  <path d="m236.993 199.062c0 1.1819-3.1589 2.14-7.0556 2.14s-7.0556-.9581-7.0556-2.14 3.1589-2.14 7.0556-2.14 7.0556.9581 7.0556 2.14z" fill="url(#r)" filter="url(#s)" opacity=".621" transform="matrix(.27502 -.13944 .51588 1.01747 -65.35 -69.3)"/>
  <path d="m217.058 201.94c3.7695 3.4842 26.9713 8.9112 25.255.8097-3.3174 5.3233-18.7842 1.2929-25.255-.8097z" fill="url(#t)" fill-rule="evenodd" filter="url(#u)" transform="matrix(.20425 -.10356 .23952 .4724 6.26 30.65)"/>
  <path d="m68.25 186c0-.6206 38.8462 11.8385 45.5 18.5-5.4712-5.3385-33.1597-17.6161-37.375-17.75s-7.625-.5-8.125-.75z" fill="url(#v)" fill-rule="evenodd" transform="matrix(.52965 0 0 .52965 -11.72 -13.86)"/>
  <path d="m237.875 199.062c0 1.3462-3.5537 2.4375-7.9375 2.4375s-7.9375-1.0913-7.9375-2.4375 3.5537-2.4375 7.9375-2.4375 7.9375 1.0913 7.9375 2.4375z" fill="url(#q)" opacity=".286" transform="matrix(.465572943 -.10222245 .1238480595 .3685993245 -95.5228843 49.7313111)"/>
  <path d="m237.875 199.062c0 1.3462-3.5537 2.4375-7.9375 2.4375s-7.9375-1.0913-7.9375-2.4375 3.5537-2.4375 7.9375-2.4375 7.9375 1.0913 7.9375 2.4375z" fill="url(#r)" filter="url(#s)" opacity=".621" transform="matrix(.626873113 -.13763795 .2667485874 .7939030254 -160.7057509 -25.7489677)"/>
  <path d="m80.5 220.062s2.10339 5.6508 7.875 5.9375c5.83887.2901 12.5032-7.007 13.0625-9.625-1 2.25-6.59033 9.0333-13.8125 8.9375-4.09986-.054-7.125-5.25-7.125-5.25z" fill="url(#w)" fill-rule="evenodd" filter="url(#x)" opacity=".616" transform="matrix(.52965 0 0 .52965 -11.62 -14.43)"/>
  <path d="m63.4062 10.2188c-3.09818 0-6.1346 1.12204-8.28125 3.3125l-41.1875 42.1875c-3.76562 3.76562-4.67024 6.23069-4.4375 7.625.11637.69716.4586 1.30303 1.1875 1.9375s1.83149 1.25639 3.15625 1.8125c2.64951 1.11222 6.21796 2.00808 9.71875 2.96875s6.92981 1.97463 9.53125 3.625c.39662.25827.76909.57647 1.03125 1.03125s.35422 1.05609.25 1.5625c-.20843 1.01282-.83202 1.54698-1.46875 2.03125-1.27346.96853-3.02326 1.77323-4.78125 2.625s-3.52492 1.72324-4.40625 2.4375c-.44066.35713-.60011.67813-.59375.65625.006-.0219-.11685-.2731.0937-.0625.55176.56709 2.27408 1.53816 4.46875 2.40625s4.88065 1.74562 7.59375 2.625 5.4575 1.74996 7.78125 2.65625 4.21769 1.74894 5.46875 3c.62268.63998 1.06263 1.43596 1.15625 2.25.0936.81404-.12681 1.57803-.4375 2.21875-.62138 1.2814-1.62031 2.2672-2.53125 3.2188-.91094.9515-1.73623 1.8603-2.03125 2.4687-.14751.3042-.17035.5024-.15625.625s.0352.2462.3125.5313a1.45668 1.45668 0 0 1 .0313.0312c1.1936 1.2618 3.787 1.4392 6.71875 2.125 1.46587.3429 2.99891.862 4.3125 2s2.29944 2.8706 2.71875 5.2188c.17646.9945.70272 1.4788 1.96875 1.875 1.26603.3961 3.19435.4655 5.3125.1562 4.2363-.6186 9.26003-2.6953 12.1562-5.0938.17999-.1529.12996-.1125.1875-.1874-.1948-.1394-.65164-.4366-1.40625-.8126-.89153-.4441-1.9447-.8595-2.75-1.875-.40265-.5077-.67988-1.3093-.5625-2.0937s.54683-1.437 1.125-2.0313c4.74575-4.7984 9.42194-5.94409 12.9375-6.87495 1.75778-.46543 3.22929-.89123 4.34375-1.59375s1.98508-1.66373 2.71875-3.53125c.0809-.20217.0786-.26085-.0312-.5-.10985-.23915-.40451-.62173-.87505-1.03125-.94108-.81904-2.51042-1.6992-4.0625-2.5625s-3.06047-1.66824-4.15625-2.6875c-.54789-.50963-1.12202-1.15163-1.1875-2.125-.0655-.97337.57257-1.85163 1.3125-2.375 2.74572-1.93321 6.89628-3.40491 11.4062-4.96875 4.51-1.56384 9.3611-3.18213 13.3125-5.03125s6.8573-3.97867 7.7812-6.125c.462-1.07317.5467-2.15861.063-3.5625-.4842-1.40389-1.5896-3.12083-3.5626-5.09375l-42.6566-43.6562c-.0107-.0101-.0205-.0212-.0312-.0312-2.35772-2.20774-5.47837-3.3125-8.5625-3.3125zm45.9376 80c-2.6352.0951-5.0596 1.30141-6.0938 3.1875.2938.11052.5584.23497 1.0312.34375 1.3757.31646 3.2955.52074 5.1876.5625 1.892.0418 3.7841-.11747 4.9374-.4375.5049-.14009.7724-.28178.9063-.375-.2558-1.09109-.8649-1.86212-1.9063-2.4375-1.0786-.59595-2.5566-.89811-4.0624-.84375zm-70.5 9.0625c-2.08988-.14535-4.71655.68656-6 1.71875-.64172.5161-.91327.9944-.9375 1.3125-.0242.3181.0773.742.9375 1.4687a1.45668 1.45668 0 0 1 0 .031c1.35282 1.17 2.88226 1.048 4.625.094 1.46095-.7999 2.7572-2.3007 3.625-3.875-.58503-.37729-1.28454-.68281-2.25-.74995zm61 .625c-.4473.56855-.6909 1.09795-.71875 1.46875-.0384.5117.10661.9072.5 1.2812.7373.701 2.3391 1.0028 3.9688.125-.032-.189-.093-.4759-.3438-.8437-.4999-.7341-1.6686-1.5251-3.40625-2.03125z" fill="none" filter="url(#z)" stroke="url(#y)" stroke-width="1.004"/>
  <path d="m95.5 172c-5.09061 1.5019-21.592 7.7371-19.25 12.5 2.2436 4.5627 40.6114 6.4013 46.5 20 2.5679 5.9301-5.8924 10.4033-3.75 16.5 1.6497 4.6948 14.412 16.4908 22.486 22.0678 6.333 4.3744 14.651-3.5224 11.264-10.0678-5.3959-10.4276 18.4427-23.1991 29.25-29 6.3052-3.3844-13-20-13-20z" fill="url(#A)" fill-rule="evenodd" filter="url(#B)" opacity=".325" transform="matrix(.48831 0 0 .48831 -5.81 -7.7)"/>
  <path d="m41.7422 78.533c2.23193 1.63922 6.63675.65053 9.28212 1.84176 6.34952 2.85921 14.1549 6.04542 12.7186.40455l-1.61577 1.34204-.0315-2.55754-3.75198.91629s-2.90617-2.33276-4.23852-3.10199c-.27829-.16067-1.7077 1.29281-1.7077 1.29281l-.25697-1.5438c-1.85737-.19764-3.69616-.28481-5.31515-.27182-3.88094.0311-6.49906.63774-5.08307 1.6777z" fill="url(#C)" fill-rule="evenodd"/>
  <path d="m182.75 187.25c-1.7598 6.4783 21.6278 15.2799 19.875 19.75-3.859 9.8416-24.976 3.1375-41.125 23.75-2.3132 2.9525 3.25 13.5 2.5 12.25s-6.4649-9.9629-5-14.25c4.5942-13.4452 49.0128-18.4575 40.875-24.875-4.6799-3.6906-21.5055-13.8872-17.125-16.625z" fill="url(#D)" fill-rule="evenodd" filter="url(#E)" opacity=".478" transform="matrix(.48831 0 0 .48831 -5.81 -7.7)"/>
  <path d="m236.5 201.188c0 .5868-1.1473 1.0625-2.5625 1.0625s-2.5625-.4757-2.5625-1.0625 1.1473-1.0625 2.5625-1.0625 2.5625.4757 2.5625 1.0625z" fill="#fff" opacity=".586" transform="matrix(.48831 0 0 .48831 -6.36 -8.01)"/>
  <path d="m236.5 201.188c0 .5868-1.1473 1.0625-2.5625 1.0625s-2.5625-.4757-2.5625-1.0625 1.1473-1.0625 2.5625-1.0625 2.5625.4757 2.5625 1.0625z" fill="#fff" opacity=".586" transform="matrix(.30966 0 0 .48831 27.53 1.57)"/>
  <path d="m236.5 201.188c0 .5868-1.1473 1.0625-2.5625 1.0625s-2.5625-.4757-2.5625-1.0625 1.1473-1.0625 2.5625-1.0625 2.5625.4757 2.5625 1.0625z" fill="#fff" opacity=".586" transform="matrix(.54786 0 0 .48831 -92.1 1.12)"/>
  <path d="m36.6723 76.5286c-7.15299 4.42411-18.274 6.03423-6.10383 8.97264-1.44971-3.2281 3.13858-2.87202 6.10383-8.97264z" fill="url(#F)" opacity=".251"/>
  <path d="m8.83428 171.647s22.5918-2.1279 27.818-8.6464c3.05755-3.8136-12.1515-8.2638-8.86827-12 12.3501-14.0541 22.7308-13.4673 37.0502-19.3536 14.3195-5.8862 9.03544-8.769 4.40381-11.3535-7.9325-4.4264-25.5872-9.1424-19.747-19.6465 5.87688-10.5699 57.3432-25.25 57.3432-25.25 15.5962-5.32843 13.6391-14.9645 6-23l-46-45.75s2.28296 43.3886-7 62c-11.4715 22.9991-72.5441 48.6618-47 51.5 9 1 13.3206 4.0705 17 11 7.57631 14.2688-21 40.5-21 40.5z" fill="url(#H)" filter="url(#G)" opacity=".363" transform="matrix(.48831 0 0 .48831 57.75 33)"/>
 </g>
</svg>
