<svg xmlns="http://www.w3.org/2000/svg" xmlns:xlink="http://www.w3.org/1999/xlink" viewBox="0 0 133.972 132.817">
  <defs>
    <linearGradient id="a" gradientUnits="userSpaceOnUse">
      <stop offset="0" stop-color="#fff"/>
      <stop offset="1" stop-color="#fff" stop-opacity="0"/>
    </linearGradient>
    <linearGradient id="i" x1="60" x2="90" y1="20" y2="50" xlink:href="#a"/>
    <linearGradient id="e" x1="82.12" x2="60" y1="20" y2="40" gradientUnits="userSpaceOnUse">
      <stop offset="0" stop-color="#c0cdf9"/>
      <stop offset="1" stop-color="#07092d" stop-opacity=".288"/>
    </linearGradient>
    <linearGradient id="h" x1="32.91" x2="58.14" y1="34.94" y2="60.17" xlink:href="#a"/>
    <linearGradient id="q" x1="231.63" x2="231.75" y1="195.19" y2="201.5" gradientUnits="userSpaceOnUse" xlink:href="#a"/>
    <linearGradient id="t" x1="231.38" x2="231.38" y1="195.62" y2="200.07" gradientUnits="userSpaceOnUse" xlink:href="#a"/>
    <linearGradient id="E" x1="95.5" x2="153.5" y1="208.16" y2="223.5" xlink:href="#a"/>
    <linearGradient id="G" x1="55.84" x2="52.66" y1="76.73" y2="84.02" gradientUnits="userSpaceOnUse">
      <stop offset="0" stop-color="#eeeeec"/>
      <stop offset="1" stop-color="#eeeeec" stop-opacity="0"/>
    </linearGradient>
    <linearGradient id="J" x1="30.32" x2="34.78" y1="79.22" y2="82.76" xlink:href="#a"/>
    <linearGradient id="K" x1="50.64" x2="23.53" y1="134.15" y2="61.15" gradientUnits="userSpaceOnUse">
      <stop offset="0" stop-color="#729fcf"/>
      <stop offset="1" stop-color="#729fcf" stop-opacity="0"/>
    </linearGradient>
    <linearGradient id="p" x1="231.63" x2="231.75" y1="195.19" y2="201.5" gradientUnits="userSpaceOnUse" xlink:href="#a"/>
    <linearGradient id="r" x1="231.38" x2="231.38" y1="195.62" y2="200.07" gradientUnits="userSpaceOnUse" xlink:href="#a"/>
    <linearGradient id="x" x1="231.63" x2="231.75" y1="195.19" y2="201.5" gradientUnits="userSpaceOnUse" xlink:href="#a"/>
    <linearGradient id="y" x1="231.38" x2="231.38" y1="195.62" y2="200.07" gradientUnits="userSpaceOnUse" xlink:href="#a"/>
    <filter id="c" color-interpolation-filters="sRGB">
      <feGaussianBlur stdDeviation=".805"/>
    </filter>
    <filter id="d" color-interpolation-filters="sRGB">
      <feGaussianBlur stdDeviation="3.49"/>
    </filter>
    <filter id="f" color-interpolation-filters="sRGB">
      <feGaussianBlur stdDeviation="2.416"/>
    </filter>
    <filter id="l" width="1.16" height="1.23" x="-.08" y="-.11" color-interpolation-filters="sRGB">
      <feGaussianBlur stdDeviation="1.958"/>
    </filter>
    <filter id="o" width="1.15" height="1.35" x="-.07" y="-.18" color-interpolation-filters="sRGB">
      <feGaussianBlur stdDeviation="2.12"/>
    </filter>
    <filter id="s" width="1.17" height="1.56" x="-.09" y="-.28" color-interpolation-filters="sRGB">
      <feGaussianBlur stdDeviation=".565"/>
    </filter>
    <filter id="v" width="1.14" height="1.95" x="-.07" y="-.47" color-interpolation-filters="sRGB">
      <feGaussianBlur stdDeviation=".821"/>
    </filter>
    <filter id="B" width="1.15" height="1.33" x="-.08" y="-.17" color-interpolation-filters="sRGB">
      <feGaussianBlur stdDeviation=".665"/>
    </filter>
    <filter id="D" color-interpolation-filters="sRGB">
      <feGaussianBlur stdDeviation=".326"/>
    </filter>
    <filter id="F" width="1.17" height="1.24" x="-.08" y="-.12" color-interpolation-filters="sRGB">
      <feGaussianBlur stdDeviation="3.687"/>
    </filter>
    <filter id="I" color-interpolation-filters="sRGB">
      <feGaussianBlur stdDeviation="1.241"/>
    </filter>
    <filter id="L" color-interpolation-filters="sRGB">
      <feGaussianBlur stdDeviation="2.77"/>
    </filter>
    <radialGradient id="j" cx="116.31" cy="250.9" r="30.6" gradientTransform="matrix(1.57005 0 0 1.05093 -75.5 -22.1)" gradientUnits="userSpaceOnUse" xlink:href="#a"/>
    <radialGradient id="k" cx="132.44" cy="251.99" r="30.6" gradientTransform="matrix(2.00325 0 0 1.3409 -132.88 -95.17)" gradientUnits="userSpaceOnUse" xlink:href="#a"/>
    <radialGradient id="m" cx="210.25" cy="168.5" r="34.25" gradientTransform="matrix(1 0 0 .42336 0 97.16)" gradientUnits="userSpaceOnUse" xlink:href="#a"/>
    <radialGradient id="n" cx="217.5" cy="182.08" r="34.25" gradientTransform="matrix(1 0 0 .42336 0 97.16)" gradientUnits="userSpaceOnUse" xlink:href="#a"/>
    <radialGradient id="w" cx="228.22" cy="204.83" r="14.09" gradientTransform="matrix(1 0 0 .14775 0 174.57)" gradientUnits="userSpaceOnUse" xlink:href="#a"/>
    <radialGradient id="z" cx="89.88" cy="187.87" r="22.75" gradientTransform="matrix(1 0 0 .40708 0 115.76)" gradientUnits="userSpaceOnUse">
      <stop offset="0" stop-color="#fff" stop-opacity=".33"/>
      <stop offset="1" stop-color="#fff" stop-opacity="0"/>
    </radialGradient>
    <radialGradient id="A" cx="90.28" cy="230.84" r="10.47" gradientTransform="matrix(1.18508 -.32836 .12286 .4434 -45.07 152.92)" xlink:href="#a"/>
    <radialGradient id="C" cx="68.4" cy="21.23" r="54.78" gradientTransform="matrix(1.72215 0 0 1.69498 -49.4 -14.08)" xlink:href="#a"/>
    <radialGradient id="H" cx="181.23" cy="214.55" r="22.47" gradientTransform="matrix(1.35152 0 0 1.71757 -63.71 -153.96)" xlink:href="#a"/>
    <radialGradient id="u" cx="228.22" cy="204.83" r="14.09" gradientTransform="matrix(1 0 0 .14775 0 174.57)" gradientUnits="userSpaceOnUse" xlink:href="#a"/>
    <clipPath id="g">
      <use width="400" height="300" xlink:href="#b"/>
    </clipPath>
    <path id="b" d="M54.1 12.5 12.9 54.7C-2.7 70.3 23 69 32.3 74.9c4.3 2.8-13.8 6.4-10.1 10.1 3.6 3.7 21.7 7.1 25.3 10.7 3.6 3.7-7.3 7.6-3.7 11.3 3.5 3.7 11.9.2 13.4 8.6 1.1 6.2 15.4 3.1 21.8-2.2 4-3.4-6.9-3.4-3.3-7.1 9-9.1 17-4.1 20.3-12.5 1.8-4.5-13.6-7.7-9.5-10.6 9.8-6.9 45.8-10.4 29.2-27L73 12.5c-5.3-5-14-5-18.9 0zm-9.9 64.7c.9 0 30.8 4 19.3 7.1-4.4 1.2-24.6-7.1-19.3-7.1zm57.2 16.6c0 2.1 16.3 3.3 15.4-.5-1.3-6.4-13.6-5.9-15.4.5zm-69.5 11.1c3.7 3.2 9.3-.7 11.1-5.2-3.6-4.7-16.9.3-11.1 5.2zm67.5-6.7c-4.6 4.2.8 8.6 5.3 5.7 1.2-.8-.1-4.7-5.3-5.7z"/>
  </defs>
  <g transform="matrix(.99658 0 0 .99627 3.207 1.295)">
    <g opacity=".783">
      <path d="m54.1 12.988-41.2 42.2c-15.6 15.6 10.1 14.3 19.4 20.2 4.3 2.8-13.8 6.4-10.1 10.1 3.6 3.7 21.7 7.1 25.3 10.7 3.6 3.7-7.3 7.6-3.7 11.3 3.5 3.7 11.9.2 13.4 8.6 1.1 6.2 15.4 3.1 21.8-2.2 4-3.4-6.9-3.4-3.3-7.1 9-9.1 17-4.1 20.3-12.5 1.8-4.5-13.6-7.7-9.5-10.6 9.8-6.9 45.8-10.4 29.2-27L73 12.988c-5.3-5-14-5-18.9 0zm47.3 81.3c0 2.1 16.3 3.3 15.4-.5-1.3-6.4-13.6-5.9-15.4.5zm-69.5 11.1c3.7 3.2 9.3-.7 11.1-5.2-3.6-4.7-16.9.3-11.1 5.2zm67.5-6.7c-4.6 4.2.8 8.6 5.3 5.7 1.2-.8-.1-4.7-5.3-5.7z" filter="url(#c)" transform="translate(0 .49)"/>
      <path d="m54.1 13.965-41.2 42.2c-15.6 15.6 10.1 14.3 19.4 20.2 4.3 2.8-13.8 6.4-10.1 10.1 3.6 3.7 21.7 7.1 25.3 10.7 3.6 3.7-7.3 7.6-3.7 11.3 3.5 3.7 11.9.2 13.4 8.6 1.1 6.2 15.4 3.1 21.8-2.2 4-3.4-6.9-3.4-3.3-7.1 9-9.1 17-4.1 20.3-12.5 1.8-4.5-13.6-7.7-9.5-10.6 9.8-6.9 45.8-10.4 29.2-27L73 13.965c-5.3-5-14-5-18.9 0zm47.3 81.3c0 2.1 16.3 3.3 15.4-.5-1.3-6.4-13.6-5.9-15.4.5zm-69.5 11.1c3.7 3.2 9.3-.7 11.1-5.2-3.6-4.7-16.9.3-11.1 5.2zm67.5-6.7c-4.6 4.2.8 8.6 5.3 5.7 1.2-.8-.1-4.7-5.3-5.7z" filter="url(#d)" opacity=".576" transform="translate(0 .49)"/>
    </g>
    <path d="M54.1 12.5 12.9 54.7C-2.7 70.3 23 69 32.3 74.9c4.3 2.8-13.8 6.4-10.1 10.1 3.6 3.7 21.7 7.1 25.3 10.7 3.6 3.7-7.3 7.6-3.7 11.3 3.5 3.7 11.9.2 13.4 8.6 1.1 6.2 15.4 3.1 21.8-2.2 4-3.4-6.9-3.4-3.3-7.1 9-9.1 17-4.1 20.3-12.5 1.8-4.5-13.6-7.7-9.5-10.6 9.8-6.9 45.8-10.4 29.2-27L73 12.5c-5.3-5-14-5-18.9 0zm47.3 81.3c0 2.1 16.3 3.3 15.4-.5-1.3-6.4-13.6-5.9-15.4.5zm-69.5 11.1c3.7 3.2 9.3-.7 11.1-5.2-3.6-4.7-16.9.3-11.1 5.2zm67.5-6.7c-4.6 4.2.8 8.6 5.3 5.7 1.2-.8-.1-4.7-5.3-5.7z"/>
    <path fill="none" d="M54.1 12.5 12.9 54.7C-2.7 70.3 23 69 32.3 74.9c4.3 2.8-13.8 6.4-10.1 10.1 3.6 3.7 21.7 7.1 25.3 10.7 3.6 3.7-7.3 7.6-3.7 11.3 3.5 3.7 11.9.2 13.4 8.6 1.1 6.2 15.4 3.1 21.8-2.2 4-3.4-6.9-3.4-3.3-7.1 9-9.1 17-4.1 20.3-12.5 1.8-4.5-13.6-7.7-9.5-10.6 9.8-6.9 45.8-10.4 29.2-27L73 12.5c-5.3-5-14-5-18.9 0zm47.3 81.3c0 2.1 16.3 3.3 15.4-.5-1.3-6.4-13.6-5.9-15.4.5zm-69.5 11.1c3.7 3.2 9.3-.7 11.1-5.2-3.6-4.7-16.9.3-11.1 5.2zm67.5-6.7c-4.6 4.2.8 8.6 5.3 5.7 1.2-.8-.1-4.7-5.3-5.7z"/>
    <use width="400" height="300" fill="url(#e)" clip-path="url(#g)" filter="url(#f)" opacity=".25" style="fill:url(#e)" transform="translate(.61 .6) scale(.99054)" xlink:href="#b"/>
    <path fill="url(#h)" d="M16.565 57.04c-11.202 11.1 8.477 7.972 23.615 13.926l31.285-55c-4.743-4.844-10.799-4.44-15.138 0z" opacity=".5" style="fill:url(#h)"/>
    <path fill="url(#i)" d="m70.5 15.5 16.3 16.6c1.5 1.5 1.5 4.6.6 5.5L79.3 31l-1.6 9.7-6.7-3.6L60.1 44l-3.6-14.5-5.8 12.6-14.5-.1c-2.8 0-2.4-2.9.5-5.8 5.7-6.3 16.8-17 20.3-20.7 3.6-3.7 9.9-3.6 13.5 0z" style="fill:url(#i)"/>
    <path fill="url(#j)" fill-rule="evenodd" d="M113 203.5s3.34 5.1 3 7.5c-.668 4.709-10.81 7.058-8.563 11.25 2.22 4.141 10.222 1.794 16.938 6.125 6.688 4.313 4.89 13.101 9.75 15.313 9.48 4.312 34.375-7.438 33.125-7.188s-24.57 5.095-29.82.845c-5.986-4.845-7.702-8.23-12.118-11.095-4.137-2.685-9.95-3.78-11.302-5.979-1.353-2.198 2.71-5.034 2.99-9.271.169-2.544-4-7.5-4-7.5z" opacity=".217" style="fill:url(#j)" transform="translate(-11.72 -13.86) scale(.52965)"/>
    <path fill="url(#k)" fill-rule="evenodd" d="M113 203.5s3.34 5.1 3 7.5c-.668 4.709-10.81 7.058-8.563 11.25 2.22 4.141 10.222 1.794 16.938 6.125 6.688 4.313 4.89 13.101 9.75 15.313 9.48 4.312 34.375-7.438 33.125-7.188-41.34.157-33.625-10.495-49.563-17.5-2.302-1.012-.968-3.763-.687-8 .169-2.544-4-7.5-4-7.5z" filter="url(#l)" opacity=".276" style="fill:url(#k)" transform="translate(-11.72 -13.86) scale(.52965)"/>
    <path fill="url(#m)" fill-rule="evenodd" d="M183.25 181.75c37.104-13.655 49.024-15.53 61.25-27.75-14.16 11.954-44.099 18.366-68.5 29z" opacity=".453" style="fill:url(#m)" transform="translate(-11.72 -13.86) scale(.52965)"/>
    <path fill="url(#n)" fill-rule="evenodd" d="M183.25 181.75c61.104-21.655 50.774-21.53 61.25-27.75-19.428 7.437-55.734 8.23-68.5 29z" filter="url(#o)" opacity=".512" style="fill:url(#n)" transform="translate(-11.72 -14.79) scale(.52965)"/>
    <path fill="url(#q)" d="M237.875 199.062c0 1.346-3.554 2.438-7.938 2.438-4.383 0-7.937-1.092-7.937-2.438s3.554-2.438 7.938-2.438c4.383 0 7.937 1.092 7.937 2.438z" opacity=".286" style="fill:url(#p)" transform="translate(-12.38 -14.79) scale(.52965)"/>
    <path fill="url(#t)" d="M237.875 199.062c0 1.346-3.554 2.438-7.938 2.438-4.383 0-7.937-1.092-7.937-2.438s3.554-2.438 7.938-2.438c4.383 0 7.937 1.092 7.937 2.438z" filter="url(#s)" opacity=".621" style="fill:url(#r)" transform="matrix(.71315 0 0 1.14078 -54.58 -134.96)"/>
    <path fill="url(#w)" fill-rule="evenodd" d="M214.125 203.75c3.77 3.484 24.756 5.272 28.188-1-6.737 4.784-21.717 3.103-28.188 1z" filter="url(#v)" style="fill:url(#u)" transform="translate(-11.72 -14.24) scale(.52965)"/>
    <path fill="url(#q)" d="M236.446 199.062c0 1.702-2.914 3.082-6.508 3.082-3.595 0-6.509-1.38-6.509-3.082s2.914-3.082 6.509-3.082c3.594 0 6.508 1.38 6.508 3.082z" opacity=".286" style="fill:url(#x)" transform="matrix(.20425 -.10356 .23952 .4724 5.75 30.29)"/>
    <path fill="url(#t)" d="M236.993 199.062c0 1.182-3.159 2.14-7.056 2.14-3.896 0-7.055-.958-7.055-2.14 0-1.182 3.159-2.14 7.055-2.14 3.897 0 7.056.958 7.056 2.14z" filter="url(#s)" opacity=".621" style="fill:url(#y)" transform="matrix(.27502 -.13944 .51588 1.01747 -65.35 -69.3)"/>
    <path fill="url(#w)" fill-rule="evenodd" d="M217.058 201.94c3.77 3.484 26.971 8.911 25.255.81-3.317 5.323-18.784 1.293-25.255-.81z" filter="url(#v)" style="fill:url(#w)" transform="matrix(.20425 -.10356 .23952 .4724 6.26 30.65)"/>
    <path fill="url(#z)" fill-rule="evenodd" d="M68.25 186c0-.62 38.846 11.838 45.5 18.5-5.471-5.338-33.16-17.616-37.375-17.75-4.215-.134-7.625-.5-8.125-.75z" style="fill:url(#z)" transform="translate(-11.72 -13.86) scale(.52965)"/>
    <path fill="url(#q)" d="M237.875 199.062c0 1.346-3.554 2.438-7.938 2.438-4.383 0-7.937-1.092-7.937-2.438s3.554-2.438 7.938-2.438c4.383 0 7.937 1.092 7.937 2.438z" opacity=".286" style="fill:url(#q)" transform="matrix(.46557 -.10222 .12385 .3686 -95.523 49.731)"/>
    <path fill="url(#t)" d="M237.875 199.062c0 1.346-3.554 2.438-7.938 2.438-4.383 0-7.937-1.092-7.937-2.438s3.554-2.438 7.938-2.438c4.383 0 7.937 1.092 7.937 2.438z" filter="url(#s)" opacity=".621" style="fill:url(#t)" transform="matrix(.62687 -.13764 .26675 .7939 -160.706 -25.749)"/>
    <path fill="url(#A)" fill-rule="evenodd" d="M80.5 220.062s2.103 5.65 7.875 5.938c5.839.29 12.503-7.007 13.063-9.625-1 2.25-6.59 9.033-13.813 8.937-4.1-.054-7.125-5.25-7.125-5.25z" filter="url(#B)" opacity=".616" style="fill:url(#A)" transform="translate(-11.62 -14.43) scale(.52965)"/>
    <path fill="none" stroke="url(#C)" stroke-width="1.004" d="M63.406 10.219c-3.098 0-6.134 1.122-8.281 3.312L13.937 55.72c-3.765 3.765-4.67 6.23-4.437 7.625.116.697.459 1.303 1.187 1.937.73.635 1.832 1.257 3.157 1.813 2.65 1.112 6.218 2.008 9.718 2.969 3.501.96 6.93 1.974 9.532 3.625.396.258.769.576 1.03 1.03.263.456.355 1.057.25 1.563-.207 1.013-.831 1.547-1.468 2.032-1.273.968-3.023 1.773-4.781 2.625-1.758.851-3.525 1.723-4.406 2.437-.441.357-.6.678-.594.656.006-.022-.117-.273.094-.062.551.567 2.274 1.538 4.468 2.406 2.195.868 4.881 1.746 7.594 2.625 2.713.88 5.458 1.75 7.781 2.656 2.324.907 4.218 1.75 5.47 3 .622.64 1.062 1.436 1.155 2.25.094.814-.126 1.578-.437 2.219-.621 1.281-1.62 2.267-2.531 3.219-.911.951-1.737 1.86-2.032 2.469-.147.304-.17.502-.156.625.014.122.035.246.313.53a1.457 1.457 0 0 1 .03.032c1.195 1.262 3.788 1.44 6.72 2.125 1.466.343 2.999.862 4.312 2 1.314 1.138 2.3 2.87 2.719 5.219.176.994.703 1.479 1.969 1.875 1.266.396 3.194.465 5.312.156 4.236-.619 9.26-2.695 12.156-5.094.18-.153.13-.112.188-.187-.195-.14-.652-.437-1.406-.813-.892-.444-1.945-.86-2.75-1.875-.403-.507-.68-1.31-.563-2.093.118-.785.547-1.437 1.125-2.032 4.746-4.798 9.422-5.944 12.938-6.875 1.757-.465 3.229-.89 4.343-1.593 1.115-.703 1.985-1.664 2.72-3.532.08-.202.078-.26-.032-.5-.11-.239-.405-.621-.875-1.031-.941-.819-2.51-1.7-4.063-2.562-1.552-.864-3.06-1.669-4.156-2.688-.548-.51-1.122-1.152-1.187-2.125-.066-.973.572-1.852 1.312-2.375 2.746-1.933 6.896-3.405 11.406-4.969 4.51-1.564 9.361-3.182 13.313-5.031 3.951-1.85 6.857-3.979 7.781-6.125.462-1.073.547-2.159.063-3.562-.484-1.404-1.59-3.121-3.563-5.094L72 13.563l-.031-.032c-2.358-2.207-5.479-3.312-8.563-3.312zm45.938 80c-2.635.095-5.06 1.301-6.094 3.187.294.11.558.235 1.031.344 1.376.317 3.296.52 5.188.563 1.892.041 3.784-.118 4.937-.438.505-.14.773-.282.906-.375-.255-1.091-.864-1.862-1.906-2.437-1.078-.596-2.556-.899-4.062-.844zm-70.5 9.062c-2.09-.145-4.717.687-6 1.719-.642.516-.913.994-.938 1.313-.024.318.078.742.938 1.468a1.457 1.457 0 0 1 0 .031c1.353 1.17 2.882 1.048 4.625.094 1.46-.8 2.757-2.3 3.625-3.875a4.57 4.57 0 0 0-2.25-.75zm61 .625c-.447.569-.691 1.098-.719 1.469-.038.512.107.907.5 1.281.737.701 2.34 1.003 3.969.125a1.99 1.99 0 0 0-.344-.843c-.5-.735-1.669-1.526-3.406-2.032z" filter="url(#D)" style="stroke:url(#C)"/>
    <path fill="url(#E)" fill-rule="evenodd" d="M95.5 172c-5.09 1.502-21.592 7.737-19.25 12.5 2.244 4.563 40.611 6.401 46.5 20 2.568 5.93-5.892 10.403-3.75 16.5 1.65 4.695 14.412 16.49 22.486 22.068 6.333 4.374 14.651-3.523 11.264-10.068-5.396-10.428 18.443-23.2 29.25-29 6.305-3.384-13-20-13-20z" filter="url(#F)" opacity=".325" style="fill:url(#E)" transform="translate(-5.81 -7.7) scale(.48831)"/>
    <path fill="url(#G)" fill-rule="evenodd" d="M41.742 78.533c2.232 1.64 6.637.65 9.282 1.842 6.35 2.859 14.155 6.045 12.719.404l-1.616 1.342-.031-2.557-3.752.916s-2.907-2.333-4.239-3.102c-.278-.16-1.708 1.293-1.708 1.293l-.257-1.544a47.62 47.62 0 0 0-5.315-.272c-3.88.031-6.499.638-5.083 1.678z" style="fill:url(#G)"/>
    <path fill="url(#H)" fill-rule="evenodd" d="M182.75 187.25c-1.76 6.478 21.628 15.28 19.875 19.75-3.859 9.842-24.976 3.138-41.125 23.75-2.313 2.953 3.25 13.5 2.5 12.25s-6.465-9.963-5-14.25c4.594-13.445 49.013-18.457 40.875-24.875-4.68-3.69-21.506-13.887-17.125-16.625z" filter="url(#I)" opacity=".478" style="fill:url(#H)" transform="translate(-5.81 -7.7) scale(.48831)"/>
    <path fill="#fff" d="M109.125 90.232c0 .287-.56.519-1.251.519-.691 0-1.251-.232-1.251-.519 0-.286.56-.519 1.251-.519.691 0 1.251.233 1.251.52zM100.765 99.812c0 .287-.356.519-.794.519-.438 0-.793-.232-.793-.519 0-.286.355-.519.793-.519.438 0 .794.233.794.52zM37.469 99.362c0 .287-.629.519-1.404.519-.775 0-1.404-.232-1.404-.519 0-.286.629-.519 1.404-.519.775 0 1.404.233 1.404.52z" opacity=".586"/>
    <path fill="url(#J)" d="M36.672 76.529c-7.153 4.424-18.274 6.034-6.104 8.972-1.45-3.228 3.139-2.872 6.104-8.972z" opacity=".251" style="fill:url(#J)"/>
    <path fill="url(#K)" d="M8.834 171.647s22.592-2.128 27.818-8.646c3.058-3.814-12.151-8.264-8.868-12 12.35-14.055 22.73-13.468 37.05-19.354 14.32-5.886 9.036-8.769 4.404-11.354-7.932-4.426-25.587-9.142-19.747-19.646 5.877-10.57 57.343-25.25 57.343-25.25 15.596-5.328 13.64-14.965 6-23l-46-45.75s2.283 43.389-7 62c-11.471 23-72.544 48.662-47 51.5 9 1 13.32 4.07 17 11 7.577 14.269-21 40.5-21 40.5z" filter="url(#L)" opacity=".363" style="fill:url(#K)" transform="translate(57.75 33) scale(.48831)"/>
  </g>
</svg>
