<svg xmlns="http://www.w3.org/2000/svg" viewBox="0 0 256 256">
  <defs>
    <linearGradient id="a" x1="129.445" x2="129.445" y1="219.119" y2="36.881" gradientUnits="userSpaceOnUse">
      <stop offset="0%" stop-color="#7400E1"/>
      <stop offset="100%" stop-color="#4000BF"/>
    </linearGradient>
  </defs>
  <path fill="#fff" d="M128 249.491c67.098 0 121.492-54.393 121.492-121.491S195.098 6.508 128 6.508C60.902 6.508 6.509 60.902 6.509 128c0 67.098 54.393 121.491 121.491 121.491z"/>
  <path fill="#4000bf" d="M128 0C57.308 0 0 57.308 0 128c0 70.693 57.308 128 128 128 70.693 0 128-57.307 128-128C256 57.308 198.693 0 128 0zm0 13.017c63.503 0 114.983 51.48 114.983 114.983 0 63.503-51.48 114.983-114.983 114.983-63.503 0-114.983-51.48-114.983-114.983 0-63.503 51.48-114.983 114.983-114.983z"/>
  <path fill="url(#a)" d="M129.446 36.881c50.324 0 91.119 40.796 91.119 91.119s-40.795 91.118-91.12 91.118c-50.323 0-91.118-40.795-91.118-91.118 0-12.298 2.437-24.028 6.854-34.733 6.449 8.783 16.85 14.484 28.581 14.484 19.57 0 35.435-15.865 35.435-35.435 0-11.732-5.701-22.132-14.484-28.581 10.705-4.417 22.434-6.854 34.733-6.854z" style="fill:url(#a)"/>
</svg>
