<svg xmlns="http://www.w3.org/2000/svg" viewBox="0 0 510.363 144.782">
  <g fill="#343433">
    <path d="M26.268.504C15.822 4.88 4.338 17.227.71 32.736-3.883 52.382 15.232 60.691 16.8 57.97c1.844-3.2-3.426-4.283-4.511-14.476-1.402-13.166 4.719-27.878 12.423-34.333 1.431-1.199 1.363.47 1.363 3.558 0 5.52-.305 55.084-.305 65.428 0 13.997-.578 18.417-1.617 22.784-1.051 4.426-2.743 7.416-1.462 8.568 1.432 1.29 7.546-1.776 11.086-6.716 4.243-5.924 5.729-13.038 5.996-20.765.322-9.314.308-24.093.322-32.523.012-7.732.13-30.371-.136-43.981-.065-3.339-9.323-6.841-13.692-5.01M397.21 66.007c-.336 7.276-1.947 12.964-3.946 16.976-3.87 7.767-11.9 10.178-15.31-.986-1.858-6.086-1.945-16.25-.609-24.743 1.36-8.652 5.157-15.186 11.445-14.596 6.201.582 9.104 8.573 8.42 23.349zm-104.548 45.145c-.085 12.09-1.987 22.692-6.068 25.77-5.788 4.366-13.566 1.091-11.956-7.731 1.426-7.807 8.166-15.78 18.04-25.522 0 0 .02 2.222-.016 7.483zm-1.581-45.216c-.354 6.627-2.072 13.285-3.947 17.047-3.869 7.767-11.958 10.194-15.31-.986-2.292-7.64-1.743-17.527-.609-23.757 1.472-8.083 5.038-15.581 11.444-15.581 6.229 0 9.3 6.833 8.422 23.277zm-60.565-.1c-.38 7.018-1.749 12.885-3.946 17.147-3.976 7.713-11.842 10.16-15.31-.986-2.501-8.038-1.65-18.996-.61-24.916 1.544-8.784 5.41-15.013 11.445-14.422 6.199.605 9.212 8.572 8.421 23.176zm277.553 8.197c-1.515 0-2.207 1.563-2.779 4.192-1.984 9.143-4.07 11.206-6.76 11.206-3.005 0-5.705-4.526-6.399-13.589-.545-7.126-.458-20.243.24-33.293.142-2.68-.597-5.333-7.789-7.946-3.094-1.123-7.592-2.778-9.831 2.628-6.328 15.273-8.804 27.399-9.387 32.324-.03.255-.342.307-.397-.289-.371-3.945-1.201-11.114-1.304-26.176-.02-2.939-.643-5.44-3.887-7.489-2.104-1.329-8.496-3.679-10.797-.883-1.994 2.287-4.303 8.441-6.703 15.737-1.95 5.929-3.308 9.94-3.308 9.94s.026-15.999.05-22.067c.01-2.29-1.561-3.052-2.034-3.19-2.132-.618-6.33-1.652-8.113-1.652-2.2 0-2.738 1.229-2.738 3.02 0 .235-.347 21.063-.347 35.628 0 .633 0 1.323.003 2.056-1.217 6.694-5.161 15.781-9.452 15.781-4.295 0-6.321-3.798-6.321-21.162 0-10.128.304-14.533.453-21.86.087-4.22.255-7.46.245-8.195-.032-2.255-3.931-3.391-5.745-3.812-1.823-.422-3.407-.587-4.644-.517-1.751.1-2.99 1.248-2.99 2.827 0 .848.01 2.458.01 2.458-2.256-3.543-5.883-6.01-8.296-6.724-6.5-1.93-13.282-.22-18.398 6.938-4.066 5.688-6.517 12.13-7.481 21.386-.706 6.766-.475 13.628.778 19.43-1.514 6.548-4.326 9.231-7.405 9.231-4.47 0-7.71-7.295-7.334-19.913.248-8.298 1.909-14.123 3.724-22.548.774-3.592.145-5.473-1.432-7.275-1.447-1.653-4.529-2.497-8.96-1.459-3.156.741-7.669 1.537-11.797 2.149 0 0 .249-.994.453-2.746 1.074-9.19-8.912-8.445-12.099-5.51-1.902 1.753-3.196 3.82-3.688 7.536-.779 5.898 4.031 8.68 4.031 8.68-1.578 7.224-5.446 16.66-9.44 23.482-2.14 3.656-3.776 6.364-5.888 9.244a1388.146 1388.146 0 0 1 .226-34.66c.087-4.22.256-7.375.246-8.11-.024-1.649-.987-2.272-2.99-3.06-1.771-.698-3.866-1.181-6.038-1.35-2.743-.213-4.395 1.24-4.352 2.96.01.325.01 2.32.01 2.32-2.256-3.544-5.883-6.01-8.296-6.725-6.5-1.93-13.282-.22-18.397 6.938-4.065 5.688-6.728 13.67-7.482 21.315-.703 7.126-.573 13.18.385 18.283-1.033 5.108-4.005 10.45-7.365 10.45-4.295 0-6.74-3.8-6.74-21.163 0-10.128.305-14.533.455-21.859.086-4.22.254-7.46.244-8.195-.031-2.255-3.93-3.392-5.745-3.813-1.899-.438-3.538-.6-4.796-.506-1.66.122-2.828 1.61-2.828 2.719v2.555c-2.255-3.543-5.882-6.01-8.295-6.724-6.5-1.93-13.244-.192-18.398 6.938-3.36 4.65-6.081 9.804-7.481 21.214-.405 3.297-.584 6.385-.56 9.27-1.34 8.197-7.26 17.642-12.101 17.642-2.834 0-5.532-5.495-5.532-17.207 0-15.6.966-37.811 1.129-39.952 0 0 6.117-.104 7.302-.118 3.051-.033 5.815.04 9.88-.169 2.038-.104 4.002-7.42 1.898-8.325-.954-.41-7.693-.769-10.365-.825-2.246-.051-8.5-.514-8.5-.514s.56-14.743.691-16.3c.111-1.299-1.568-1.967-2.531-2.373-2.342-.99-4.437-1.464-6.92-1.976-3.432-.708-4.989-.016-5.293 2.88-.458 4.395-.695 17.268-.695 17.268-2.518 0-11.119-.492-13.637-.492-2.34 0-4.866 10.064-1.63 10.187 3.721.145 10.208.27 14.509.399 0 0-.192 22.578-.192 29.549 0 .741.003 1.455.008 2.149-2.367 12.335-10.703 18.999-10.703 18.999 1.79-8.162-1.867-14.29-8.454-19.478-2.427-1.911-7.218-5.53-12.578-9.497 0 0 3.104-3.059 5.858-9.216 1.95-4.361 2.035-9.35-2.754-10.451-7.912-1.82-14.435 3.991-16.381 10.194-1.508 4.807-.704 8.372 2.25 12.076.215.27.45.547.69.826-1.785 3.442-4.239 8.077-6.317 11.67-5.768 9.98-10.125 17.873-13.418 17.873-2.632 0-2.597-8.014-2.597-15.517 0-6.468.478-16.193.86-26.261.126-3.33-1.54-5.227-4.33-6.945-1.696-1.044-5.315-3.096-7.411-3.096-3.138 0-12.19.427-20.742 25.167-1.078 3.119-3.196 8.8-3.196 8.8l.183-29.75c0-.698-.372-1.372-1.223-1.834-1.441-.782-5.29-2.383-8.713-2.383-1.63 0-2.445.759-2.445 2.27l-.298 46.546c0 3.538.092 7.663.442 9.467.348 1.807.913 3.277 1.611 4.151.699.873 1.506 1.539 2.837 1.814 1.239.255 8.023 1.126 8.376-1.467.422-3.107.439-6.468 4.001-19.001 5.546-19.514 12.776-29.035 16.176-32.416.595-.591 1.273-.626 1.24.34-.144 4.279-.655 14.97-.998 24.051-.921 24.305 3.5 28.81 9.819 28.81 4.834 0 11.648-4.803 18.952-16.962a4281.064 4281.064 0 0 0 12.153-20.36c2.213 2.05 4.698 4.255 7.18 6.611 5.77 5.476 7.664 10.679 6.407 15.615-.96 3.774-4.581 7.663-11.024 3.883-1.878-1.103-2.68-1.955-4.568-3.198-1.014-.668-2.563-.868-3.492-.168-2.412 1.819-3.792 4.132-4.58 6.997-.766 2.786 2.025 4.26 4.919 5.548 2.491 1.11 7.846 2.114 11.26 2.229 13.305.445 23.964-6.424 31.384-24.143 1.328 15.303 6.98 23.961 16.801 23.961 6.566 0 13.149-8.486 16.028-16.836.826 3.404 2.05 6.364 3.63 8.867 7.567 11.99 22.247 9.41 29.621-.772 2.28-3.146 2.627-4.277 2.627-4.277 1.076 9.614 8.818 12.973 13.25 12.973 4.965 0 10.09-2.347 13.683-10.435.421.878.881 1.716 1.383 2.51 7.567 11.99 22.248 9.41 29.622-.771.348-.478.65-.911.913-1.3l.216 6.315s-4.206 3.859-6.789 6.226c-11.38 10.43-20.024 18.341-20.66 27.554-.81 11.747 8.712 16.112 15.926 16.684 7.647.608 14.208-3.62 18.234-9.538 3.544-5.208 5.864-16.418 5.693-27.49-.067-4.433-.18-10.07-.267-16.113 3.995-4.639 8.496-10.503 12.64-17.365 4.516-7.48 9.356-17.523 11.834-25.34 0 0 4.205.036 8.693-.258 1.435-.093 1.848.2 1.582 1.252-.32 1.272-5.67 21.904-.787 35.65 3.341 9.409 10.874 12.436 15.34 12.436 5.229 0 10.23-3.948 12.91-9.811.324.653.661 1.286 1.03 1.87 7.567 11.99 22.196 9.394 29.622-.772 1.676-2.294 2.627-4.277 2.627-4.277 1.593 9.95 9.331 13.024 13.763 13.024 4.616 0 8.998-1.893 12.552-10.304.15 3.703.383 6.732.752 7.686.225.584 1.537 1.317 2.491 1.67 4.224 1.567 8.53.826 10.124.504 1.104-.223 1.965-1.109 2.083-3.396.31-6.004.12-16.093 1.94-23.592 3.055-12.584 5.906-17.465 7.258-19.881.757-1.354 1.61-1.577 1.641-.145.064 2.9.208 11.414 1.392 22.853.87 8.413 2.03 13.386 2.923 14.96 2.548 4.5 5.693 4.713 8.255 4.713 1.63 0 5.038-.45 4.733-3.314-.149-1.396.111-10.023 3.124-22.42 1.967-8.096 5.247-15.41 6.43-18.085.437-.987.64-.21.633-.058-.25 5.575-.809 23.812 1.462 33.785 3.08 13.512 11.986 15.024 15.09 15.024 6.626 0 12.045-5.04 13.87-18.303.44-3.191-.211-5.656-2.162-5.656z"/>
  </g>
</svg>
