<svg xmlns="http://www.w3.org/2000/svg" viewBox="0 0 256 262.706">
  <path d="M221.66 144.561c0 2.342-.897 4.588-2.493 6.244-1.597 1.656-3.763 2.586-6.021 2.586s-4.424-.93-6.021-2.586c-1.597-1.656-2.494-3.902-2.494-6.244V65.677c0-2.342.897-4.588 2.494-6.243 1.597-1.656 3.762-2.587 6.02-2.587 2.259 0 4.425.93 6.022 2.587 1.596 1.655 2.493 3.901 2.493 6.243zm-2.955 54.657c-1.126 1.168-32.792 28.533-90.846 28.533s-89.508-27.22-90.845-28.387a8.635 8.635 0 0 1-2.043-2.654 8.99 8.99 0 0 1-.533-6.637 8.776 8.776 0 0 1 1.59-2.969c1.47-1.763 3.552-2.852 5.793-3.03a8.317 8.317 0 0 1 6.17 2.082c.493.365 28.78 24.154 79.798 24.154 51.017 0 79.516-23.935 79.798-24.154a8.453 8.453 0 0 1 6.202-2.059c2.247.177 4.339 1.256 5.83 3.007a8.891 8.891 0 0 1 1.995 6.274c-.158 2.282-1.178 4.407-2.839 5.913zM33.988 65.678c.127-2.35 1.146-4.551 2.834-6.124 1.688-1.572 3.907-2.388 6.173-2.269a8.38 8.38 0 0 1 5.564 2.6 8.986 8.986 0 0 1 2.458 5.792v78.738c0 2.342-.897 4.588-2.494 6.244-1.596 1.656-3.762 2.586-6.02 2.586-2.259 0-4.424-.93-6.021-2.586-1.597-1.656-2.494-3.902-2.494-6.244zM76.7 48.163c.128-2.35 1.146-4.551 2.834-6.124 1.688-1.572 3.908-2.388 6.174-2.268a8.38 8.38 0 0 1 5.564 2.599 8.986 8.986 0 0 1 2.458 5.793V164.92c0 2.341-.898 4.587-2.494 6.243-1.597 1.656-3.763 2.586-6.02 2.586-2.26 0-4.425-.93-6.022-2.586-1.597-1.656-2.494-3.902-2.494-6.243zm42.925-4.379c0-2.342.897-4.587 2.494-6.243 1.597-1.656 3.763-2.587 6.02-2.587 2.259 0 4.425.93 6.021 2.587 1.597 1.656 2.494 3.901 2.494 6.243v126.973c0 2.342-.897 4.588-2.494 6.244-1.596 1.656-3.762 2.586-6.02 2.586-2.258 0-4.424-.93-6.021-2.586-1.597-1.656-2.494-3.902-2.494-6.244zm42.221 4.379c0-2.342.897-4.588 2.494-6.244 1.597-1.656 3.763-2.586 6.02-2.586 2.259 0 4.425.93 6.021 2.586 1.597 1.656 2.494 3.902 2.494 6.244V164.92c0 2.341-.897 4.587-2.494 6.243-1.596 1.656-3.762 2.586-6.02 2.586-2.258 0-4.424-.93-6.021-2.586-1.597-1.656-2.494-3.902-2.494-6.243zM223.982 0H32.018a30.82 30.82 0 0 0-12.205 2.434A31.735 31.735 0 0 0 9.44 9.533 33.07 33.07 0 0 0 2.482 20.21 34.04 34.04 0 0 0 0 32.839v197.028a34.04 34.04 0 0 0 2.482 12.628 33.07 33.07 0 0 0 6.958 10.678 31.735 31.735 0 0 0 10.373 7.098 30.838 30.838 0 0 0 12.205 2.434h191.964a30.84 30.84 0 0 0 12.188-2.427 31.735 31.735 0 0 0 10.365-7.08 33.074 33.074 0 0 0 6.963-10.652A34.042 34.042 0 0 0 256 229.94V32.84a34.045 34.045 0 0 0-2.475-12.612 33.08 33.08 0 0 0-6.94-10.67 31.75 31.75 0 0 0-10.35-7.102A30.828 30.828 0 0 0 224.053.001"/>
</svg>
