<svg xmlns="http://www.w3.org/2000/svg" viewBox="0 0 512 174.75">
  <path fill="#f06" d="M174.743 0v63.262h9.056l16.835 46.79 16.972-46.79h19.485l-27.84 69.462h-17.495l-17.013-42.452v84.478H0V0zm127.06 61.669c20.81 0 27.97 13.258 28.5 23.468h-18.161c-.398-4.374-3.714-8.356-10.47-8.356-6.111 0-9.544 2.918-9.544 6.763 0 11.665 38.442 0 38.442 28.5 0 12.461-10.608 22.266-29.427 22.266-21.744 0-29.166-11.13-30.093-24.127h19.087c.268 4.641 3.714 9.015 11.535 9.015 7.154 0 10.868-2.52 10.868-6.358 0-11.665-38.572-.666-38.572-28.239 0-12.592 10.738-22.932 27.834-22.932zm101.806 0c22.273 0 36.458 16.567 36.458 36.32s-14.192 36.32-36.458 36.32-36.45-16.573-36.45-36.32c0-19.746 14.184-36.32 36.45-36.32zm82.809 0c16.704 0 25.582 11.136 25.582 27.704v43.358h-18.82V91.5c0-8.081-3.446-13.65-11.802-13.65-9.145 0-14.178 5.823-14.178 15.106v39.767h-18.826V63.262h17.364v8.486c3.186-5.96 10.34-10.079 20.68-10.079zM261.89 63.262v69.462h-18.826V63.262zm97.021 0v69.462h-18.826V63.262zm44.697 14.981c-9.949 0-17.625 7.285-17.625 19.746 0 12.462 7.69 19.753 17.625 19.753 9.962 0 17.631-7.298 17.631-19.753 0-12.454-7.683-19.746-17.631-19.746z"/>
  <path fill="#fff" d="M61.186 55.01c5.526-.065 9.96-4.586 9.917-10.112-.043-5.526-4.546-9.978-10.072-9.956-5.526.02-9.995 4.507-9.996 10.033a10.068 10.068 0 0 0 10.151 10.034zM40.054 108.762a34.577 34.577 0 0 0-.899 7.55c0 8.84 4.804 14.708 14.982 14.708 8.45 0 15.299-5.017 20.227-13.123l-3.007 12.086h16.774L97.74 91.55c2.381-9.766 7.028-14.845 14.07-14.845 5.538 0 8.984 3.432 8.984 9.135a18.004 18.004 0 0 1-.749 5.394l-4.941 17.728a26.589 26.589 0 0 0-1.05 7.488c0 8.394 4.941 14.53 15.277 14.53 8.84 0 15.882-5.69 19.774-19.32l-6.59-2.547c-3.294 9.135-6.176 10.782-8.386 10.782-2.21 0-3.432-1.496-3.432-4.488.065-1.573.316-3.133.748-4.647l4.805-17.22a37.933 37.933 0 0 0 1.654-10.926c0-12.882-7.79-19.608-17.234-19.608-8.833 0-17.844 7.975-22.32 16.362l3.302-15.058H76.004l-3.596 13.267h11.99l-7.385 29.546c-5.793 12.882-16.472 13.088-17.776 12.793-2.196-.494-3.596-1.331-3.596-4.18.067-2.322.42-4.627 1.05-6.863l11.235-44.57H39.464l-3.597 13.267H47.7z"/>
</svg>
