<svg xmlns="http://www.w3.org/2000/svg" viewBox="0 0 254.016 290.131">
  <path fill="#292926" d="M253.984 145.112c0 22.353-.036 44.705.031 67.058.014 4.404-1.997 7.521-5.58 9.609-16.414 9.56-32.882 19.026-49.333 28.52-16.155 9.326-32.315 18.644-48.47 27.969-5.85 3.377-11.68 6.79-17.547 10.138-4.077 2.328-8.142 2.3-12.252-.085-13.32-7.73-26.673-15.402-40.01-23.102-11.54-6.662-23.075-13.33-34.612-19.995-13.55-7.828-27.106-15.643-40.645-23.488-3.72-2.156-5.559-5.437-5.559-9.746C.01 167.41.014 122.826 0 78.245c-.001-4.54 2.077-7.8 5.921-10.023 10.46-6.051 20.93-12.087 31.396-18.127C52.561 41.297 67.805 32.5 83.047 23.7c12.748-7.358 25.481-14.74 38.243-22.071 3.898-2.24 7.85-2.141 11.745.109 12.128 7.005 24.255 14.01 36.385 21.013 12.908 7.452 25.82 14.897 38.725 22.35a82620.034 82620.034 0 0 1 37.506 21.677c1.927 1.114 3.91 2.12 5.477 3.793 1.869 1.994 2.877 4.238 2.873 7.016-.03 22.508-.017 45.016-.017 67.524"/>
  <g fill="#f3da47">
    <path d="M146.32 163.723c-7.735 2.545-15.907-2.492-17.117-10.55-.643-4.281.012-8.298 2.792-11.717 3.384-4.16 7.847-5.744 13.066-4.594 5.332 1.175 8.542 4.703 9.907 9.922.31 1.183.37 2.433.544 3.652-.109 6.323-3.625 11.456-9.192 13.287zm15.592-27.45c-4.994-6.342-11.78-9.005-19.824-9.233-.848.06-1.835.111-2.817.206-11.225 1.083-20.428 9.31-21.421 20.859-.668 7.777 1.627 14.527 7.617 19.665 6.75 5.791 14.707 7.3 23.198 5.239 18.655-4.53 22.428-25.078 13.247-36.736zM87.525 136.56h6.864v27.807h-6.483v8.343h24.099v-8.343h-6.487v-36.152H87.525v8.345M94.39 110.595h11.128v9.815H94.389z"/>
  </g>
</svg>
