<svg xmlns="http://www.w3.org/2000/svg" viewBox="0 0 256 127.02">
  <path d="M1.19 124.978h21.17v-90.12H1.19zM11.733 23.04c6.631 0 11.817-5.101 11.817-11.477C23.55 5.1 18.364 0 11.733 0 5.186 0 0 5.101 0 11.563 0 17.939 5.186 23.04 11.733 23.04zM92.843.254c-35.792 0-58.238 24.401-58.238 63.426 0 39.024 22.444 63.34 58.239 63.34 35.707 0 58.153-24.316 58.153-63.34 0-39.025-22.444-63.426-58.153-63.426zm0 18.705c21.85 0 35.793 17.344 35.793 44.72 0 27.291-13.943 44.636-35.792 44.636-21.935 0-35.793-17.344-35.793-44.636 0-27.376 13.859-44.72 35.793-44.72zm67.085 71.502c.935 22.616 19.469 36.558 47.695 36.558C237.295 127.02 256 112.396 256 89.1c0-18.279-10.542-28.566-35.453-34.262l-14.113-3.23c-15.049-3.571-21.255-8.332-21.255-16.494 0-10.203 9.352-17.004 23.21-17.004 14.028 0 23.635 6.887 24.656 18.364h20.914C253.45 14.879 235.595.255 208.56.255c-26.696 0-45.655 14.708-45.655 36.474 0 17.514 10.712 28.396 33.326 33.583l15.899 3.74c15.473 3.657 21.765 8.758 21.765 17.6 0 10.202-10.288 17.514-25.08 17.514-14.963 0-26.27-7.397-27.63-18.705h-21.255z"/>
</svg>
