<svg xmlns="http://www.w3.org/2000/svg" viewBox="0 0 256 288.993">
  <path fill="#3177bc" d="M10.404 64.753 117.46 2.875c6.45-3.762 14.217-3.832 20.716-.21l.366.21 107.055 61.878c6.451 3.763 10.264 10.43 10.4 17.668l.004.403V206.58c0 7.258-3.695 13.988-10.049 17.858l-.355.212-107.329 61.605c-3.011 1.642-6.845 2.738-10.404 2.738-3.404 0-6.81-.752-9.974-2.495l-.43-.243-107.055-61.879C4.22 220.881.147 213.952.004 206.702L0 206.306V82.824c0-7.259 3.959-13.989 10.063-17.859l.341-.212L117.46 2.875zm177.694 25.19H67.902c-1.096 0-2.19.547-3.012 1.368-.767.767-1.056 2.01-1.092 3.063l-.003.223 2.738 25.19c.263 1.581 1.543 3.163 3.348 3.522l.211.036 33.677 5.203v32.855l-33.677 4.929c-1.846.263-3.183 1.542-3.524 3.348l-.035.21-2.738 25.19c0 1.095.273 2.464 1.095 3.286.767.766 1.772 1.295 2.793 1.362l.219.007h120.196c1.096 0 2.19-.548 3.012-1.37.767-.766 1.056-2.01 1.092-3.063l.004-.222-2.738-25.19c-.264-1.581-1.543-3.163-3.349-3.523l-.21-.036-33.678-5.202v-32.855l33.677-4.929c1.846-.263 3.184-1.542 3.525-3.348l.035-.21 2.738-25.19c0-1.095-.274-2.464-1.096-3.286-.766-.766-1.771-1.295-2.792-1.362zm-4.38 8.213-1.917 17.25-34.225 5.201c-2.114.265-3.464 1.805-3.8 3.883l-.033.224v39.975c0 1.852 1.28 3.705 3.343 4.074l34.441 5.235 1.917 17.25H72.556l1.917-17.25 34.224-5.202c1.853-.265 3.45-1.809 3.554-3.89l.005-.217v-39.975c0-1.852-1.279-3.705-3.343-4.074l-34.44-5.235-1.917-17.249z"/>
</svg>
