<svg xmlns="http://www.w3.org/2000/svg" viewBox="0 0 512 132.301">
  <path fill="#5146f9" d="M166.645 38.248c-1.614-1.63-2.42-3.595-2.42-5.892s.806-4.261 2.42-5.892c1.614-1.63 3.603-2.445 5.967-2.445 2.29 0 4.25.815 5.883 2.445 1.632 1.63 2.449 3.595 2.449 5.892s-.817 4.252-2.45 5.864c-1.632 1.612-3.593 2.418-5.882 2.418-2.364 0-4.353-.797-5.967-2.39zm-1.632 67.033v-52.36c0-.481.169-.889.506-1.222.338-.334.75-.5 1.239-.5h11.765c.525 0 .948.166 1.267.5.319.333.478.741.478 1.223v52.359c0 .482-.16.89-.478 1.223-.32.333-.742.5-1.267.5h-11.765c-.488 0-.9-.167-1.239-.5a1.653 1.653 0 0 1-.506-1.223zm23.361-43.466v-8.893c0-.482.16-.89.479-1.223.319-.334.74-.5 1.266-.5h8.05V35.858c0-.519.16-.936.479-1.25.319-.316.74-.473 1.266-.473h11.765c.488 0 .9.157 1.239.472.337.315.506.732.506 1.25V51.2h8.05c.488 0 .9.166 1.239.5.337.333.506.741.506 1.223v8.893c0 .482-.169.89-.506 1.223-.338.333-.751.5-1.239.5h-8.05v41.743c0 .482-.169.89-.506 1.223-.338.333-.75.5-1.239.5h-11.765c-.525 0-.947-.167-1.266-.5a1.703 1.703 0 0 1-.479-1.223V63.538h-8.05c-.525 0-.947-.167-1.266-.5a1.703 1.703 0 0 1-.479-1.223zm40.981 37.352c-.3-.334-.44-.686-.422-1.056.019-.37.16-.778.422-1.223l4.504-6.28c.6-.78 1.444-.742 2.533.11 5.329 3.41 10.02 5.114 14.073 5.114 2.101 0 3.837-.37 5.207-1.112 1.37-.74 2.055-1.927 2.055-3.557 0-1.038-.394-1.973-1.183-2.807-.788-.834-1.82-1.529-3.096-2.084a90.442 90.442 0 0 0-4.362-1.751 121.57 121.57 0 0 0-5.01-1.751 26.143 26.143 0 0 1-5.01-2.251c-1.633-.945-3.087-1.983-4.363-3.113-1.276-1.13-2.308-2.594-3.096-4.391-.788-1.797-1.182-3.826-1.182-6.086 0-5.151 1.932-9.264 5.798-12.34 3.865-3.075 8.462-4.613 13.791-4.613 3.678 0 7.243.74 10.696 2.223 3.453 1.482 6.342 3.557 8.67 6.225.637.742.6 1.538-.113 2.39l-4.391 5.67c-.6.778-1.445.741-2.533-.111-2.515-1.594-4.513-2.714-5.996-3.363-1.482-.648-3.161-.973-5.038-.973-1.801 0-3.293.445-4.475 1.334-1.182.89-1.773 2.038-1.773 3.447 0 1.222.506 2.27 1.52 3.14 1.013.87 2.326 1.593 3.94 2.168 1.614.574 3.396 1.148 5.348 1.723a45.345 45.345 0 0 1 5.826 2.168 28.284 28.284 0 0 1 5.32 3.112c1.614 1.204 2.927 2.853 3.94 4.947 1.014 2.094 1.52 4.53 1.52 7.31 0 3.445-1.088 6.502-3.265 9.17-2.176 2.668-4.878 4.66-8.106 5.976-3.227 1.315-6.624 1.973-10.189 1.973-4.503 0-8.66-.908-12.469-2.724-3.809-1.815-6.84-4.02-9.09-6.614zm52.915-5.17c-2.327-4.483-3.49-9.411-3.49-14.784 0-5.374 1.173-10.293 3.518-14.758 2.346-4.465 5.61-7.994 9.795-10.588 4.185-2.594 8.866-3.891 14.045-3.891 6.568 0 12.29 2.723 17.17 8.17l.337-5.224c.113-1.149.694-1.723 1.745-1.723h10.583c.488 0 .9.166 1.239.5.337.333.506.741.506 1.223v52.359c0 .482-.169.89-.506 1.223-.338.333-.75.5-1.239.5H325.39c-1.05 0-1.632-.574-1.745-1.723l-.45-4.78c-4.616 5.336-10.302 8.004-17.057 8.004-5.179 0-9.86-1.306-14.045-3.919-4.184-2.612-7.459-6.142-9.823-10.588zm11.202-14.896c0 4.521 1.37 8.273 4.11 11.256 2.74 2.983 6.21 4.474 10.414 4.474 4.09 0 7.515-1.547 10.273-4.64 2.759-3.095 4.138-6.791 4.138-11.09 0-4.261-1.38-7.902-4.138-10.922-2.758-3.02-6.183-4.53-10.273-4.53-4.203 0-7.675 1.464-10.414 4.391-2.74 2.928-4.11 6.615-4.11 11.061zm54.604 26.18v-79.65c0-.52.169-.936.507-1.251.337-.315.75-.473 1.238-.473h11.765c.488 0 .892.158 1.21.473.32.315.48.732.48 1.25v79.651c0 .519-.16.936-.48 1.25-.318.316-.722.473-1.21.473h-11.765c-.488 0-.9-.167-1.238-.5a1.653 1.653 0 0 1-.507-1.223zm27.527-67.033c-1.614-1.63-2.42-3.595-2.42-5.892s.806-4.261 2.42-5.892c1.614-1.63 3.603-2.445 5.967-2.445 2.29 0 4.25.815 5.883 2.445 1.632 1.63 2.448 3.595 2.448 5.892s-.816 4.252-2.448 5.864c-1.633 1.612-3.594 2.418-5.883 2.418-2.364 0-4.353-.797-5.967-2.39zm-1.632 67.033v-52.36c0-.481.169-.889.506-1.222.338-.334.75-.5 1.239-.5h11.765c.525 0 .947.166 1.266.5.32.333.479.741.479 1.223v52.359c0 .482-.16.89-.479 1.223-.319.333-.74.5-1.266.5h-11.765c-.488 0-.9-.167-1.239-.5a1.653 1.653 0 0 1-.506-1.223zm23.023-52.137c-.112-.333-.169-.611-.169-.834 0-.74.526-1.111 1.577-1.111h11.877c1.014 0 1.69.463 2.027 1.39l13.848 36.906 13.735-36.907c.338-.926 1.032-1.39 2.083-1.39h11.878c1.013 0 1.52.371 1.52 1.112 0 .26-.057.538-.17.834l-21.053 52.47c-.337.927-1.032 1.39-2.082 1.39h-11.766c-1.05 0-1.745-.463-2.082-1.39zm59.67 26.069c0-4.04.723-7.865 2.168-11.478 1.445-3.613 3.415-6.717 5.91-9.31 2.496-2.594 5.517-4.651 9.064-6.17 3.546-1.52 7.327-2.28 11.342-2.28 5.292 0 10.011 1.289 14.158 3.864s7.3 5.975 9.457 10.2c2.158 4.224 3.237 8.874 3.237 13.95 0 2.41-.263 4.132-.788 5.17-.525 1.037-1.595 1.556-3.209 1.556h-36.196c.75 3.706 2.515 6.559 5.292 8.56 2.777 2.001 6.38 3.002 10.808 3.002 4.278 0 8.275-1.279 11.99-3.836.976-.63 1.82-.593 2.533.111l5.123 4.892c.788.815.75 1.649-.113 2.501-2.74 2.705-5.92 4.808-9.541 6.309-3.622 1.5-7.44 2.25-11.456 2.25-4.316 0-8.34-.759-12.075-2.278-3.734-1.52-6.886-3.585-9.457-6.198-2.57-2.612-4.588-5.715-6.051-9.31-1.464-3.594-2.196-7.43-2.196-11.505zm14.918-4.336h26.964c-.488-3.817-1.951-6.8-4.39-8.949-2.44-2.149-5.405-3.224-8.895-3.224-3.528 0-6.53 1.066-9.007 3.196-2.477 2.131-4.034 5.123-4.672 8.977zM46.205 129.054l-20.292 3.154c-2.36.455-4.648-1.065-5.109-3.396a4.246 4.246 0 0 1 .003-1.666l2.369-10.956C8.981 104.06 0 86.141 0 66.15 0 29.616 29.995 0 66.995 0s66.994 29.616 66.994 66.15c0 36.534-29.994 66.15-66.994 66.15a67.722 67.722 0 0 1-20.79-3.246zm27.112-68.602L83.324 41.74a3.756 3.756 0 0 0 .445-1.772c0-2.095-1.72-3.794-3.843-3.794H55.58c-1.827 0-3.402 1.27-3.766 3.039l-5.878 28.556c-.051.247-.077.498-.077.75-.003 2.096 1.715 3.797 3.837 3.8l7.14.01 1.251 20.985a3.78 3.78 0 0 0 1.5 2.79c1.686 1.274 4.098.957 5.388-.707l22.364-28.844a3.764 3.764 0 0 0 .792-2.306c0-2.096-1.72-3.795-3.843-3.795z"/>
</svg>
