<svg xmlns="http://www.w3.org/2000/svg" viewBox="0 0 256 252.773">
  <path fill="#5146f9" d="m88.279 246.57-38.769 6.027c-4.51.87-8.88-2.036-9.762-6.489a8.112 8.112 0 0 1 .007-3.183l4.525-20.932C17.159 198.82 0 164.581 0 126.387 0 56.585 57.308 0 128 0c70.692 0 128 56.585 128 126.387 0 69.801-57.308 126.386-128 126.386-13.866 0-27.217-2.176-39.721-6.203zm51.8-131.07L159.2 79.75a7.177 7.177 0 0 0 .85-3.385c0-4.004-3.287-7.25-7.342-7.25h-46.516c-3.491 0-6.5 2.427-7.195 5.806l-11.231 54.559a7.114 7.114 0 0 0-.147 1.434c-.006 4.004 3.277 7.254 7.332 7.26l13.641.018 2.39 40.094a7.224 7.224 0 0 0 2.867 5.33c3.22 2.435 7.828 1.83 10.293-1.349l42.729-55.11a7.19 7.19 0 0 0 1.512-4.406c0-4.004-3.287-7.25-7.342-7.25z"/>
</svg>
