<svg xmlns="http://www.w3.org/2000/svg" viewBox="0 0 255.562 254.132">
  <g fill="#8a4182">
    <path d="M117.884 105.228h19.794l4.919-6.733V45.767h-29.628V98.5l4.915 6.728M105.125 128.745l6.115-18.717-4.918-6.731-50.434-16.293-9.154 28.015 50.44 16.297 7.951-2.571M123.677 148.08l-16.013-11.57-7.959 2.572-31.168 42.66 23.967 17.314 31.173-42.661v-8.315M147.902 136.508l-16.016 11.569.004 8.32 31.169 42.659 23.969-17.314-31.175-42.663-7.95-2.571M144.318 110.024l6.119 18.72 7.958 2.568 50.434-16.293-9.156-28.017-50.436 16.297-4.919 6.725"/>
    <path d="M127.787 0C57.326 0 0 56.993 0 127.045c0 70.079 57.326 127.087 127.787 127.087 70.455 0 127.775-57.008 127.775-127.087C255.562 56.993 198.242 0 127.787 0zm0 25.725c56.27 0 101.9 45.357 101.9 101.32 0 55.982-45.63 101.36-101.9 101.36-56.288 0-101.913-45.378-101.913-101.36 0-55.963 45.625-101.32 101.913-101.32z"/>
    <path d="m205.182 155.285-38.338-12.388 2.534-7.765 38.339 12.388-2.535 7.765M156.286 94.084l-6.644-4.799 23.693-32.428 6.643 4.798-23.692 32.429M99.688 93.789l-23.69-32.43 6.645-4.799 23.69 32.429-6.645 4.8M50.225 154.8l-2.537-7.765 38.335-12.382 2.536 7.765L50.225 154.8M123.424 208.052h8.21v-40.084h-8.21z"/>
  </g>
</svg>
