<svg xmlns="http://www.w3.org/2000/svg" viewBox="0 0 254.725 345.38">
  <path fill="#5382a1" d="M82.037 267.101s-13.198 7.675 9.393 10.273c27.369 3.122 41.357 2.674 71.517-3.034 0 0 7.93 4.972 19.004 9.278-67.612 28.978-153.02-1.678-99.914-16.517M73.775 229.288s-14.803 10.957 7.805 13.296c29.236 3.016 52.325 3.263 92.276-4.43 0 0 5.526 5.602 14.215 8.665-81.747 23.904-172.798 1.885-114.296-17.531"/>
  <path fill="#e76f00" d="M143.425 165.143c16.66 19.18-4.377 36.44-4.377 36.44s42.301-21.837 22.874-49.182c-18.144-25.501-32.059-38.172 43.268-81.859 0 0-118.238 29.53-61.765 94.601"/>
  <path fill="#5382a1" d="M232.847 295.07s9.767 8.048-10.757 14.274c-39.026 11.822-162.432 15.392-196.714.47-12.323-5.36 10.787-12.8 18.056-14.361 7.582-1.644 11.914-1.338 11.914-1.338-13.705-9.654-88.582 18.957-38.034 27.151 137.853 22.356 251.292-10.067 215.535-26.196M88.384 190.108s-62.772 14.91-22.23 20.324c17.12 2.292 51.245 1.773 83.031-.89 25.978-2.191 52.063-6.85 52.063-6.85s-9.16 3.922-15.787 8.447c-63.744 16.765-186.886 8.966-151.435-8.182 29.981-14.493 54.358-12.849 54.358-12.849M200.99 253.05c64.798-33.671 34.838-66.03 13.926-61.67-5.126 1.067-7.411 1.991-7.411 1.991s1.903-2.98 5.537-4.27c41.37-14.545 73.187 42.896-13.355 65.647 0 0 1.003-.896 1.303-1.697"/>
  <path fill="#e76f00" d="M161.922 0s35.887 35.899-34.037 91.1c-56.071 44.282-12.786 69.53-.023 98.377-32.73-29.53-56.75-55.526-40.635-79.72C110.879 74.242 176.4 57.023 161.922 0"/>
  <path fill="#5382a1" d="M94.751 344.294c62.2 3.981 157.712-2.21 159.974-31.64 0 0-4.348 11.157-51.404 20.018-53.087 9.99-118.564 8.824-157.399 2.42.001 0 7.95 6.58 48.83 9.202"/>
</svg>
