<svg xmlns="http://www.w3.org/2000/svg" viewBox="0 0 256 197.164">
  <defs>
    <linearGradient id="a" x1="135.072" x2="190.412" y1="139.206" y2="139.206" gradientTransform="scale(1.27066 .787)" gradientUnits="userSpaceOnUse">
      <stop offset="0%" stop-color="#007940"/>
      <stop offset="22.85%" stop-color="#00873F"/>
      <stop offset="74.33%" stop-color="#40A737"/>
      <stop offset="100%" stop-color="#5CB531"/>
    </linearGradient>
    <linearGradient id="b" x1="267.535" x2="377.155" y1="63.249" y2="63.249" gradientTransform="scale(.64152 1.5588)" gradientUnits="userSpaceOnUse">
      <stop offset="0%" stop-color="#007940"/>
      <stop offset="22.85%" stop-color="#00873F"/>
      <stop offset="74.33%" stop-color="#40A737"/>
      <stop offset="100%" stop-color="#5CB531"/>
    </linearGradient>
    <linearGradient id="c" x1="135.111" x2="190.469" y1="110.096" y2="110.096" gradientTransform="scale(1.27029 .78722)" gradientUnits="userSpaceOnUse">
      <stop offset="0%" stop-color="#007940"/>
      <stop offset="22.85%" stop-color="#00873F"/>
      <stop offset="74.33%" stop-color="#40A737"/>
      <stop offset="100%" stop-color="#5CB531"/>
    </linearGradient>
    <linearGradient id="d" x1="22.135" x2="133.392" y1="63.278" y2="63.278" gradientTransform="scale(.64182 1.55808)" gradientUnits="userSpaceOnUse">
      <stop offset="0%" stop-color="#1F286F"/>
      <stop offset="47.51%" stop-color="#004E94"/>
      <stop offset="82.61%" stop-color="#0066B1"/>
      <stop offset="100%" stop-color="#006FBC"/>
    </linearGradient>
    <linearGradient id="e" x1="144.323" x2="252.479" y1="63.22" y2="63.22" gradientTransform="scale(.64123 1.55951)" gradientUnits="userSpaceOnUse">
      <stop offset="0%" stop-color="#6C2C2F"/>
      <stop offset="17.35%" stop-color="#882730"/>
      <stop offset="57.31%" stop-color="#BE1833"/>
      <stop offset="85.85%" stop-color="#DC0436"/>
      <stop offset="100%" stop-color="#E60039"/>
    </linearGradient>
  </defs>
  <path fill="#fff" d="M256 157.418c0 21.907-17.839 39.746-39.746 39.746H0V39.746C0 17.839 17.839 0 39.746 0H256z"/>
  <path fill="url(#a)" d="M185.584 117.046h16.43c.47 0 1.565-.156 2.035-.156 3.13-.626 5.79-3.443 5.79-7.355 0-3.755-2.66-6.572-5.79-7.354-.47-.157-1.408-.157-2.034-.157h-16.43z" style="fill:url(#a)"/>
  <path fill="url(#b)" d="M200.137 13.3c-15.648 0-28.48 12.676-28.48 28.48v29.575h40.216c.939 0 2.034 0 2.816.156 9.076.47 15.805 5.164 15.805 13.3 0 6.416-4.538 11.893-12.988 12.989v.312c9.232.626 16.274 5.79 16.274 13.77 0 8.607-7.824 14.24-18.152 14.24h-44.127v57.898h41.78c15.648 0 28.48-12.675 28.48-28.48V13.3z" style="fill:url(#b)"/>
  <path fill="url(#c)" d="M207.804 86.69c0-3.756-2.66-6.26-5.79-6.73-.312 0-1.095-.156-1.564-.156h-14.866v13.77h14.866c.47 0 1.408 0 1.565-.156 3.13-.47 5.79-2.973 5.79-6.729z" style="fill:url(#c)"/>
  <path fill="url(#d)" d="M42.719 13.3c-15.648 0-28.48 12.676-28.48 28.48v70.26c7.981 3.911 16.274 6.415 24.568 6.415 9.858 0 15.178-5.946 15.178-14.083V71.198h24.411v33.017c0 12.831-7.98 23.316-35.051 23.316-16.43 0-29.262-3.6-29.262-3.6v59.932h41.78c15.648 0 28.48-12.675 28.48-28.48V13.302z" style="fill:url(#d)"/>
  <path fill="url(#e)" d="M121.428 13.3c-15.648 0-28.48 12.676-28.48 28.48v37.242c7.199-6.103 19.717-10.015 39.903-9.076 10.797.47 22.376 3.443 22.376 3.443v12.049c-5.79-2.973-12.674-5.634-21.594-6.26-15.335-1.095-24.567 6.416-24.567 19.56 0 13.301 9.232 20.812 24.567 19.56 8.92-.626 15.805-3.442 21.594-6.259v12.049s-11.423 2.973-22.376 3.443c-20.186.938-32.704-2.974-39.902-9.076v65.721h41.78c15.648 0 28.479-12.675 28.479-28.48V13.302z" style="fill:url(#e)"/>
</svg>
