<svg xmlns="http://www.w3.org/2000/svg" viewBox="0 0 511.997 122.094">
  <defs>
    <linearGradient id="a" x1="57.512" x2="57.512" y1="100.84" y2=".089" gradientTransform="scale(.94208 1.06148)" gradientUnits="userSpaceOnUse">
      <stop offset="0%" stop-color="#0056B3"/>
      <stop offset="25%" stop-color="#0056B3"/>
      <stop offset="70%" stop-color="#0088FB"/>
      <stop offset="100%" stop-color="#00ACFF"/>
    </linearGradient>
  </defs>
  <path fill="#5e6981" d="M128.83 72.129h16.783v10.197a9.254 9.254 0 0 0 2.432 6.823 11.014 11.014 0 0 0 7.53 2.177 9.617 9.617 0 0 0 7.494-2.667c1.306-1.615 1.941-5.099 1.941-10.433V28.708a8.256 8.256 0 0 1 2.668-6.187 8.877 8.877 0 0 1 6.35-2.56h8.275v58.972a64.523 64.523 0 0 1-.744 11.65 19.288 19.288 0 0 1-3.158 6.55 21.465 21.465 0 0 1-9.072 6.296c-4.412 1.33-9 1.984-13.609 1.942-7.53 0-16.24-1.56-21.61-7.258a16.82 16.82 0 0 1-4.12-6.768 49.99 49.99 0 0 1-1.215-12.702V72.13h.054zm105.476 12.103h12.14a26.528 26.528 0 0 1-10.18 15.568 30.846 30.846 0 0 1-18.944 5.589c-9.217 0-16.457-3.012-21.628-9.073-5.172-6.06-7.785-14.153-7.785-25.004 0-10.354 2.517-18.44 7.549-24.26 5.032-5.818 12.242-8.842 21.629-9.072 9.677 0 17.207 2.91 22.59 8.728 5.383 5.818 7.972 14.14 7.766 24.967a29.366 29.366 0 0 1-.254 4.355h-42.006c.164 5.063 1.361 8.8 3.63 11.25a11.431 11.431 0 0 0 9.471 3.92c7.512 0 7.059-2.378 11.522-5.861a7.258 7.258 0 0 1 4.5-1.216zm-29.123-19.016h24.768a15.515 15.515 0 0 0-3.393-9.671 11.63 11.63 0 0 0-8.963-3.375 11.83 11.83 0 0 0-8.746 3.375 13.845 13.845 0 0 0-3.63 9.67h-.036zm47.722-45.254h8.764a8.202 8.202 0 0 1 5.842 2.305 7.548 7.548 0 0 1 2.432 5.715v77.389h-17.038zm61.493 51.605a45.78 45.78 0 0 1-9.562 3.139l-5.589 1.215c-4.627 1.289-8.038 3.158-8.038 8.492a7.82 7.82 0 0 0 2.195 5.825 9.072 9.072 0 0 0 6.315 1.941 13.482 13.482 0 0 0 14.606-14.516v-6.096h.073zm3.883 29.794c-9.762 5.116-26.945 5.879-36.29-.853-4.367-3.145-6.556-8.365-6.568-15.66 0-6.822 1.996-11.667 5.97-14.515 9.344-6.895 32.66-5.57 32.66-13.12 0-5.116-6.75-5.842-10.687-5.842a17.365 17.365 0 0 0-6.079.998 6.66 6.66 0 0 0-3.865 3.738h-16.33a18.744 18.744 0 0 1 6.95-12.556c4.366-3.726 10.596-5.589 18.689-5.589 9.072 0 15.877 1.542 20.413 4.627a15.55 15.55 0 0 1 7.095 13.663v22.046c0 6.484-1.174 11.547-3.52 15.188a21.774 21.774 0 0 1-8.383 7.875h-.055zm17.401-18.617h16.512a8.891 8.891 0 0 0 3.63 7.258 17.347 17.347 0 0 0 9.707 2.431 15.514 15.514 0 0 0 7.512-1.705 5.171 5.171 0 0 0 2.921-4.591c0-2.927-3.405-5.11-10.216-6.55a46.215 46.215 0 0 1-6.568-1.47c-8.6-2.093-14.353-4.59-17.256-7.494a14.86 14.86 0 0 1-4.863-11.65 19.288 19.288 0 0 1 7.04-15.295c4.84-3.714 11.16-5.57 18.962-5.57 8.468 0 15.187 1.862 20.159 5.588a21.266 21.266 0 0 1 7.512 15.786h-10.433c-7.567 0-5.88-8.329-16.984-8.329a14.516 14.516 0 0 0-7.258 1.452 4.935 4.935 0 0 0-2.177 4.391c0 6.024 26.709 8.183 34.475 14.806a15.296 15.296 0 0 1 4.7 11.668 19.433 19.433 0 0 1-7.785 16.53c-4.838 3.568-12.096 5.352-21.774 5.352-9.241 0-16.118-1.862-20.63-5.588-4.79-3.726-7.186-9.157-7.186-16.294zm89.618 22.1c-10.887.672-26.727 2.958-26.727-12.139V21.287h8.764a7.748 7.748 0 0 1 5.588 2.431 7.93 7.93 0 0 1 2.432 5.825V40.43h9.943v3.411a7.839 7.839 0 0 1-2.431 5.952 8.11 8.11 0 0 1-5.825 2.322h-1.705v35.909c0 2.758 1.614 4.119 4.844 4.119h5.099v12.701h.018zm5.589-64.052h8.764a8.04 8.04 0 0 1 5.843 2.432 7.948 7.948 0 0 1 2.431 5.77v56.25H430.89zm68.969 43.349h12.139a26.528 26.528 0 0 1-10.198 15.532c-11.358 8.456-30.991 7.657-40.554-3.393-5.177-5.819-7.766-14.153-7.766-25.004 0-10.355 2.51-18.441 7.53-24.26 10.597-12.248 33.424-11.975 44.202-.254a33.278 33.278 0 0 1 6.296 12.393h-16.984a13.954 13.954 0 0 0-2.431-3.629 11.63 11.63 0 0 0-9.073-3.41 11.83 11.83 0 0 0-8.727 3.392c-2.891 3.218-4.337 8.553-4.337 16.004 0 7.452 1.458 12.72 4.373 15.804a11.45 11.45 0 0 0 9.472 3.902 12.012 12.012 0 0 0 9.743-3.92c.56-.75 1.212-1.427 1.942-2.014a6.714 6.714 0 0 1 4.373-1.216z"/>
  <path fill="#0987f7" d="M448.69 37.6a39.103 39.103 0 0 0-8.094-2.686c-4.971-1.07-11.63-1.688-11.63-8.293 0-8.963 11.92-7.802 16.33-3.302a12.302 12.302 0 0 1 3.32 9.073v5.189l.073.018z"/>
  <path fill="#0064c8" d="m27.09 76.665 27.055-15.623V29.797L27.09 45.42zm27.055-15.623V29.797L81.199 45.42v31.245z"/>
  <path fill="url(#a)" d="M106.892 30.577c-2.032-3.375-5.443-4.663-8.71-6.587L64.161 4.34c-9.726-5.662-9.726-5.916-20.069.018l-17.02 9.816L81.2 45.365v31.3L54.145 92.288 27.072 76.665v-31.3L0 61.042v19.633c0 11.867.218 11.722 10.034 17.31l34.058 19.742c9.817 5.662 9.817 5.934 20.069 0l34.076-19.741c9.816-5.662 10.016-5.553 10.016-17.383V41.355c0-3.847.617-7.385-1.36-10.778z" style="fill:url(#a)"/>
  <path fill="#0056b3" d="M0 61.042v19.633c0 11.867.218 11.722 10.034 17.31l34.058 19.742c9.817 5.662 9.817 5.934 20.069 0L54.126 92.324 27.072 76.665v-31.3z"/>
  <path fill="#0088fb" d="M106.874 30.595c-2.032-3.375-5.444-4.663-8.71-6.586L64.143 4.358c-9.799-5.662-9.817-5.916-20.069 0l-17.02 9.834 54.127 31.173v31.318L54.108 92.306 27.054 76.683V45.365L0 61.061v19.65c0 11.831.2 11.722 10.016 17.383l34.058 19.651c9.817 5.662 9.817 5.934 20.069 0L98.2 98.095c9.816-5.662 10.016-5.553 10.016-17.383V41.373c.018-3.846.653-7.367-1.343-10.778z" opacity=".3"/>
  <path fill="#0064c8" d="m27.072 76.665 27.054-15.623V29.797L27.072 45.42zm27.054-15.623V29.797L81.2 45.42v31.245z"/>
</svg>
