<svg xmlns="http://www.w3.org/2000/svg" viewBox="0 0 256.002 288.492">
  <defs>
    <linearGradient id="a" x1="135.893" x2="135.893" y1="238.271" y2=".209" gradientTransform="scale(.94208 1.06148)" gradientUnits="userSpaceOnUse">
      <stop offset="0%" stop-color="#0056B3"/>
      <stop offset="25%" stop-color="#0056B3"/>
      <stop offset="70%" stop-color="#0088FB"/>
      <stop offset="100%" stop-color="#00ACFF"/>
    </linearGradient>
  </defs>
  <path fill="#0064c8" d="m64.011 181.15 63.925-36.915v-73.83L64.011 107.32zm63.925-36.915v-73.83l63.926 36.915v73.83z"/>
  <path fill="url(#a)" d="M252.572 72.25c-4.802-7.975-12.863-11.02-20.58-15.564l-80.389-46.433c-22.98-13.376-22.98-13.977-47.419.043L63.968 33.491l127.894 73.7v73.959l-63.926 36.914-63.968-36.914v-73.958L0 144.235v46.39c0 28.04.514 27.697 23.71 40.902l80.474 46.647c23.195 13.377 23.195 14.02 47.419 0l80.518-46.647c23.195-13.377 23.666-13.12 23.666-41.074V97.717c0-9.09 1.458-17.45-3.215-25.468z" style="fill:url(#a)"/>
  <path fill="#0056b3" d="M0 144.235v46.39c0 28.04.514 27.697 23.71 40.902l80.474 46.647c23.195 13.377 23.195 14.02 47.419 0l-23.71-60.024-63.925-37v-73.958z"/>
  <path fill="#0088fb" d="M252.529 72.292c-4.802-7.974-12.863-11.018-20.58-15.563L151.56 10.296c-23.152-13.377-23.195-13.977-47.419 0L63.925 33.534l127.894 73.658v74l-63.968 36.915-63.926-36.914v-74.001L0 144.278v46.433c0 27.954.472 27.696 23.667 41.073l80.474 46.433c23.195 13.376 23.195 14.02 47.42 0l80.474-46.433c23.195-13.377 23.666-13.12 23.666-41.073V97.759c.043-9.089 1.544-17.406-3.172-25.467z" opacity=".3"/>
  <path fill="#0064c8" d="m63.968 181.15 63.926-36.915v-73.83L63.968 107.32zm63.926-36.915v-73.83l63.968 36.915v73.83z"/>
</svg>
