<svg xmlns="http://www.w3.org/2000/svg" viewBox="0 0 255.553 282.233">
  <path fill="#99425b" d="M239.553 138.96c0-14.509-11.762-26.27-26.27-26.27-.934 0-1.854.05-2.762.145l36.082-106.42H93.267l36.032 106.328a26.302 26.302 0 0 0-1.597-.053c-14.508 0-26.27 11.761-26.27 26.27 0 11.728 7.686 21.656 18.293 25.034-5.602 9.705-12.652 18.446-20.656 25.997-10.884 10.268-23.34 18.053-36.812 22.851-16.04-8.24-23.614-26.565-16.78-42.633.772-1.814 1.56-3.653 2.313-5.484 11.62-2.712 20.28-13.13 20.28-25.576 0-14.509-11.762-26.27-26.271-26.27s-26.27 11.761-26.27 26.27c0 8.897 4.426 16.755 11.193 21.508-6.502 14.804-16.06 30.297-19.038 48.255-3.569 21.52-.012 44.364 18.601 57.265 43.348 30.043 90.402-18.625 140.014-30.86 17.98-4.434 37.717-3.719 53.558-12.894 11.896-6.89 19.739-18.308 21.964-31.127 2.2-12.664-1.006-25.273-8.378-35.497a26.158 26.158 0 0 0 6.11-16.839"/>
  <path fill="#fff" d="M235.5 190.198c-1.932 11.129-8.806 20.85-18.859 26.673-9.37 5.427-20.6 7.048-32.488 8.762-6.37.918-12.956 1.868-19.39 3.455-17.012 4.195-33.49 12.38-49.424 20.294-31.89 15.84-59.43 29.518-85.399 11.521-19.021-13.184-18.143-37.575-15.927-50.942 2.054-12.384 7.606-23.788 12.976-34.818a796.68 796.68 0 0 0 2.722-5.634 32.453 32.453 0 0 0 8.443 2.119c-5.466 18.038 3.13 37.652 21.171 46.92l2.47 1.27 2.614-.932c14.263-5.08 27.406-13.23 39.063-24.228 7.535-7.11 14.014-14.974 19.339-23.378a32.8 32.8 0 0 0 4.891.367c16.559 0 30.271-12.38 32.393-28.367a290.96 290.96 0 0 1 20.794-.003c2.12 15.99 15.834 28.37 32.393 28.37 6.924 0 13.346-2.17 18.637-5.856 3.673 7.519 5.044 15.979 3.581 24.406zM41.8 119.295c10.948 0 19.854 8.906 19.854 19.854 0 3.933-1.154 7.6-3.135 10.687-3.3 5.147-8.91 8.675-15.355 9.116-.451.03-.906.052-1.364.052-2.44 0-4.777-.446-6.938-1.253a19.967 19.967 0 0 1-10.305-8.778 19.725 19.725 0 0 1-2.612-9.824c0-10.948 8.907-19.854 19.855-19.854zm66.049 19.666c0-9.947 7.353-18.207 16.907-19.635.962-.144 1.946-.22 2.947-.22 6.365 0 12.032 3.016 15.666 7.688a19.88 19.88 0 0 1 2.318 3.765 19.73 19.73 0 0 1 1.87 8.402c0 1.587-.192 3.13-.545 4.61-1.935 8.1-8.842 14.291-17.306 15.143a19.734 19.734 0 0 1-12.763-3.081c-5.467-3.54-9.094-9.69-9.094-16.672zm82.865-23.61a32.721 32.721 0 0 0-8.992 15.117 304.792 304.792 0 0 0-22.458 0c-1.679-6.232-5.161-11.73-9.846-15.906l20.545-41.542zM102.216 12.832h135.437l-31.989 94.345a32.479 32.479 0 0 0-4.052 1.256l-31.6-64.463-31.69 64.078a32.502 32.502 0 0 0-4.225-1.14zm130.92 126.129c0 1.99-.297 3.912-.845 5.726a19.933 19.933 0 0 1-7.652 10.545 19.74 19.74 0 0 1-11.357 3.583c-9.167 0-16.9-6.247-19.174-14.708a19.803 19.803 0 0 1-.68-5.146c0-2.714.548-5.302 1.538-7.66a19.847 19.847 0 0 1 1.877-3.443c3.574-5.273 9.603-8.752 16.439-8.752.627 0 1.245.033 1.857.09 10.08.94 17.997 9.443 17.997 19.764zm12.833 0c0-15.958-11.498-29.273-26.642-32.118L255.553 0H84.318L120.6 107.06c-14.618 3.254-25.583 16.317-25.583 31.9 0 11.702 6.184 21.981 15.452 27.757-4.458 6.642-9.745 12.892-15.802 18.607-9.608 9.064-20.311 15.938-31.85 20.46-11.623-7.3-16.536-21.069-11.434-33.064l.4-.94.75-1.763c12.766-4.453 21.953-16.604 21.953-30.868 0-18.024-14.663-32.686-32.686-32.686-18.024 0-32.687 14.662-32.687 32.686 0 9.097 3.74 17.336 9.758 23.267a552.734 552.734 0 0 1-3.418 7.11c-5.503 11.302-11.739 24.111-14.098 38.336-4.684 28.25 2.872 50.832 21.277 63.588 11.168 7.74 22.509 10.783 33.923 10.783 21.49 0 43.23-10.797 64.493-21.358 15.313-7.606 31.148-15.471 46.789-19.328 5.82-1.436 11.808-2.3 18.148-3.214 12.573-1.813 25.573-3.688 37.089-10.358 13.348-7.732 22.486-20.701 25.07-35.582 2.218-12.775-.451-25.57-6.961-36.421a32.488 32.488 0 0 0 4.787-17.011z"/>
</svg>
