<svg xmlns="http://www.w3.org/2000/svg" viewBox="0 0 255.399 213.114">
  <defs>
    <linearGradient id="a" x1="7.762" x2="120.538" y1="13.701" y2="109.822" gradientTransform="scale(1.1282 .88637)" gradientUnits="userSpaceOnUse">
      <stop offset="0%" stop-color="#AA4A9B"/>
      <stop offset="100%" stop-color="#F05922"/>
    </linearGradient>
    <linearGradient id="b" x1="38.822" x2="190.576" y1="281.432" y2="141.643" gradientTransform="scale(1.31342 .76137)" gradientUnits="userSpaceOnUse">
      <stop offset="0%" stop-color="#FFE42E"/>
      <stop offset="100%" stop-color="#ED417C"/>
    </linearGradient>
    <linearGradient id="c" x1="65.593" x2="148.767" y1="177.9" y2="86.014" gradientTransform="scale(.8686 1.15129)" gradientUnits="userSpaceOnUse">
      <stop offset="0%" stop-color="#FFE42E"/>
      <stop offset="100%" stop-color="#F05922"/>
    </linearGradient>
  </defs>
  <path fill="url(#a)" d="M145.918 103.058 33.628 5.407a19.71 19.71 0 1 0-22.971 31.642l126.302 78.409.573.358a7.633 7.633 0 1 0 8.386-12.758z" style="fill:url(#a)" transform="translate(-.411 -.05)"/>
  <path fill="url(#b)" d="M255.79 118.665a27.88 27.88 0 0 0-42.322-22.72L55.79 185.695l-.268.144a14.144 14.144 0 0 0 11.02 26.052l171.795-66.296.43-.179a27.88 27.88 0 0 0 17.021-26.751z" style="fill:url(#b)" transform="translate(-.411 -.05)"/>
  <path fill="url(#c)" d="M128.806 114.49a7.633 7.633 0 0 0-12.954-7.991l-66.565 84.464-.143.287a14.137 14.137 0 1 0 24.494 14.011l54.702-90.018c.17-.242.326-.493.466-.753z" style="fill:url(#c)" transform="translate(-.411 -.05)"/>
  <path d="M81.307 63.732h91.416v91.416H81.307z"/>
  <path fill="#fff" d="M100.892 94.873a3.35 3.35 0 0 1 .95 2.419 3.44 3.44 0 0 1-2.294 3.315 3.584 3.584 0 0 1 2.956 3.583c0 2.562-2.078 4.103-5.644 4.103h-7.687V93.547h7.651a5.572 5.572 0 0 1 4.068 1.326zm-4.534 7.508h-3.153v2.74h3.19c1.271 0 1.97-.483 1.97-1.36.018-.897-.61-1.38-2.007-1.38zM96 96.88h-2.706v2.616h2.598c1.255 0 1.971-.43 1.971-1.29l-.071-.054c0-.824-.663-1.272-1.792-1.272zm29.17-3.44 6.343 15.015h-4.426l-1.057-2.688h-5.787l-1.057 2.688h-4.319l.015-.036h-2.756l-3.01-4.515h-1.792v4.515h-4.121V93.547h6.97a6.594 6.594 0 0 1 4.856 1.595 4.659 4.659 0 0 1 1.326 3.476 4.712 4.712 0 0 1-3.064 4.605l2.347 3.403 5.554-13.186zm-2.06 4.891-1.685 4.21h3.35zm-13.116-1.2h-2.724l-2.311 3.583h2.741a1.793 1.793 0 0 0 2.222-1.792 1.792 1.792 0 0 0-2.24-1.791zM89.19 138h34.277v5.716H89.19zm-.376-50.206 2.652-2.508a3.01 3.01 0 0 0 2.347 1.38 1.792 1.792 0 0 0 1.684-2.079v-9.425h4.103v9.443a5.537 5.537 0 0 1-1.469 4.193 5.608 5.608 0 0 1-4.085 1.505 6.092 6.092 0 0 1-5.232-2.509zm11.736-12.632h11.987v3.494h-7.902v2.276h7.167v3.261h-7.167v2.365h8.01v3.584H100.55V75.235zm17.398 3.62h-4.443v-3.584h13.044v3.584h-4.462V90.07h-4.12V78.783zm14.048 14.764h4.12v14.908h-4.12zm5.16 0h3.852l6.128 7.884v-7.884h4.086v14.908h-3.584l-6.379-8.17v8.17h-4.085V93.547zm14.316 12.686 2.294-2.742a7.723 7.723 0 0 0 4.838 1.792c1.128 0 1.791-.376 1.791-1.021 0-.645-.483-.95-2.526-1.451-3.171-.717-5.626-1.613-5.626-4.66 0-2.758 2.186-4.765 5.77-4.765a9.371 9.371 0 0 1 6.127 1.97l-2.06 2.921a7.31 7.31 0 0 0-4.175-1.469c-1.004 0-1.487.412-1.487.95 0 .68.52.985 2.598 1.451 3.404.753 5.536 1.792 5.536 4.64 0 3.047-2.4 4.856-6.02 4.856a10.446 10.446 0 0 1-7.06-2.472z"/>
</svg>
