<svg xmlns="http://www.w3.org/2000/svg" viewBox="0 0 256 247.326">
  <path fill="#41bf47" d="m113.668 162.397-13.527 3.764c1.176 3.411 2.117 9.528 2.117 17.762v40.465h15.174V181.57c2.824-3.412 5.882-5.058 9.176-5.058 1.646 0 2.94.353 4.352 1.176l4.117-13.998c-2.353-1.059-3.411-1.294-5.646-1.294-1.647 0-3.647.353-4.94.941-2.824 1.412-6.353 4.588-8.588 7.646 0-3.411-.823-6.117-2.235-8.587zM61.441 142.4h-1.647v81.87h15.762v-36.23h19.88v-13.527h-19.88v-18.82h24.82l.941-7.176c-14.939-1.059-28.466-3.411-39.876-6.117zm-36.818 92.81 7.293 8.47c7.058-2.824 15.88-9.176 18.232-19.292.824-3.294 1.059-5.411 1.059-16.115v-65.755h-15.88v67.519c0 8.822-.353 12.116-1.53 15.174-1.528 3.411-5.175 7.41-9.174 9.999zm143.155-41.523c0 14.35-2.823 20.467-9.293 20.467-2.94 0-6.234-1.647-7.646-4.94-1.176-3.059-1.882-8.234-1.882-15.292 0-6 .588-10.234 1.53-13.528 1.176-3.764 4.116-6.116 7.763-6.116 2.705 0 5.058 1.176 6.47 3.176 2.117 2.823 3.058 8.116 3.058 16.233zm9.293 23.525c4.94-5.881 7.175-13.056 7.175-23.408 0-9.763-2-16.468-6.587-22.114-4.94-6.117-11.293-9.058-19.527-9.058-15.527 0-25.878 12.587-25.878 31.643s10.234 31.29 25.878 31.29c8.822.117 14.586-3.177 18.939-8.353zm43.052-33.877c0 5.529-3.294 8.587-9.175 8.587-5.293 0-8.822-2.47-8.822-8.587 0-5.646 3.293-8.94 8.94-8.94 5.646 0 9.057 3.294 9.057 8.94zm26.702-12.94-6.234-9.998c-3.53 3.294-7.764 5.176-11.881 5.176-1.882 0-2.94-.235-7.058-1.294-4.117-1.176-7.058-1.529-10.351-1.529-14.704 0-24.232 7.999-24.232 20.468 0 8.94 4 14.586 12.351 16.82-3.411.824-7.058 2.588-8.704 4.588-1.177 1.412-1.765 3.294-1.765 5.529 0 1.882.47 3.529 1.176 4.94.824 1.294 1.883 2.353 3.294 2.94 2.706 1.06 7.058 1.765 13.763 1.883 3.529 0 5.646.118 6.352.118 4.117.235 6.234.94 7.88 1.764 1.53.941 2.706 3.058 2.706 5.411 0 2.353-1.411 4.705-3.646 6.117-2 1.411-5.293 2-9.528 2-6.94 0-10.822-2.588-10.822-7.411 0-2.118.235-2.588.706-3.882h-13.88c-.589 1.176-1.294 2.823-1.294 6.117 0 4.117 1.529 7.646 4.705 10.704 5.175 5.058 13.645 6.47 21.761 6.47 8.94 0 17.645-2.118 22.703-7.764 3.176-3.529 4.587-7.41 4.587-12.469 0-5.41-1.529-9.528-4.94-12.939-4-3.882-8.587-5.293-17.41-5.41l-8.116-.119c-1.529 0-2.47-.588-2.47-1.411 0-1.647 2.117-3.058 6-4.94 1.175.117 1.528.117 2.234.117 12.234 0 21.173-7.528 21.173-17.997 0-4-1.176-7.058-3.41-9.881 1.881.235 2.47.353 3.88.353 4 0 7.176-1.294 10.47-4.47zM57.44 71.236C38.621 75.821 25.8 84.878 25.8 95.23c0 6.47 4.94 12.35 13.057 16.938-2.47-3.881-3.764-8.116-3.764-12.35.117-10.705 8.47-20.704 22.35-28.585zM256 111.815c0-6.822-4.235-13.056-11.292-18.232.588 2.117 1.058 4.234 1.058 6.352 0 19.409-27.172 36.112-65.755 43.052 4.353.47 8.823.706 13.528.706 34.465-.118 62.461-14.35 62.461-31.878zm-22.232-10.586c0-7.176-6.117-13.763-16.586-19.174 2.47 2.94 3.764 6.117 3.764 9.41 0 17.292-36.7 31.29-82.105 31.29-45.287 0-82.105-13.998-82.105-31.29 0-2.234.588-4.352 1.764-6.351-7.293 4.822-11.41 10.35-11.41 16.232 0 18.703 41.758 33.878 93.28 33.878s93.398-15.41 93.398-33.995zm-40.7-.941c-19.056 12.233-77.635 16.938-102.808 1.176C70.498 89.114 77.32 69.47 20.741 26.417c-7.41-5.646 1.412-11.645 6.94-7.763 5.529 3.882.47 4.823 11.645 15.997 22.585 22.585 22.35 2.235 25.879 9.999C72.733 60.765 89.2 76.998 89.2 76.998c16.586 10.822 29.76 13.175 54.228-3.411 15.527-10.47 9.175 16.703 47.169-2.94 13.88-7.176 13.292-2.354 27.408-21.998 5.881-8.116 17.056 6.235 4.352 8.234-5.058.824-13.645 6.352-17.292 15.057-5.293 13.057-3.058 22.703-11.998 28.349zM87.437 67.117C82.732 65 77.79 57.001 75.909 53.825c5.294-5.176 3.176-13.763.118-18.468-2.94-4.705-6.587-3.411-10.47-7.763-3.999-4.353 1.53-15.645 6.588-6.94 18.938 32.583 31.407 19.056 46.817 17.056 14.821-1.882 27.995 6.234 31.995-16.704.706-3.764 4.352-4.587 4.705 1.53.353 6.234 2.706 21.29 10.822 23.173 8.116 2 14.704-1.882 16.586-4 1.882-2.117 2.94-1.882 3.764 3.53.823 5.292 2.94 12.703 14.35 4.469 23.409-16.703 16.704-23.173 25.88-27.525 5.175-2.47 13.409 5.528 1.528 11.527-16.938 8.587-18.703 19.174-29.407 25.879-17.997 11.292-12.469.47-41.406-3.647-11.174-1.529-14.703 10.822-23.408 7.293-19.88-8.234-33.877-6.587-46.934 3.882zm62.696-60.344c.706 4.94 1.53 4.823 3.294 5.176 1.765.47 4-2.353 4-4.94.117-2.706-1.177-4.353-3.765-4.235-2.705.117-3.646 1.411-3.529 4zm87.046 8.822c2.118 2 7.764.706 9.058-.823 3.411-3.764 3.529-5.999 1.764-8.587-1.764-2.47-5.41-2.117-9.057.588-3.647 2.706-2.941 7.764-1.765 8.822zm-1.529 24.938c-1.764 2.353-1.882 4.117-.588 5.41 1.411 1.412 4.235 2.589 6.234 1.06 2-1.647 2-4 .353-6-1.764-2.117-4.117-2.117-5.999-.47zM57.09 11.126c2.705.823 3.999 3.41 6.234.47 1.176-1.411 1.294-3.411-.235-5.529-.941-1.293-5.411-2.234-7.293-.352-1.882 1.882-.118 4.94 1.294 5.41zM1.92 9.479c4.94 3.058 8.117 7.646 11.88 3.529 1.295-1.412 2.824-3.882.118-8.823C11.918.54 5.45-.873 3.214.54.862 1.833-1.96 7.126 1.92 9.479zm45.523 23.408c1.53 1.647 4.235 1.53 5.881.588 1.53-.94 1.294-3.411-.235-5.528-.94-1.294-3.764-2-5.646 0-1.882 2-1.059 3.764 0 4.94z"/>
</svg>
