<svg xmlns="http://www.w3.org/2000/svg" viewBox="0 0 255.324 255.324">
  <defs>
    <linearGradient id="a" x1="191.295" x2="139.146" y1="61.656" y2="115.753" gradientTransform="scale(1.00294 .99707)" gradientUnits="userSpaceOnUse">
      <stop offset="18%" stop-color="#0052CC"/>
      <stop offset="100%" stop-color="#2684FF"/>
    </linearGradient>
    <linearGradient id="b" x1="134.112" x2="73.81" y1="123.455" y2="182.437" gradientTransform="scale(1.00294 .99707)" gradientUnits="userSpaceOnUse">
      <stop offset="18%" stop-color="#0052CC"/>
      <stop offset="100%" stop-color="#2684FF"/>
    </linearGradient>
  </defs>
  <path fill="#2684ff" d="M244.658 0H121.707a55.502 55.502 0 0 0 55.502 55.502h22.649V77.37c.02 30.625 24.841 55.447 55.466 55.467V10.666C255.324 4.777 250.55 0 244.658 0z"/>
  <path fill="url(#a)" d="M183.822 61.262H60.872c.019 30.625 24.84 55.447 55.466 55.467h22.649v21.938c.039 30.625 24.877 55.43 55.502 55.43V71.93c0-5.891-4.776-10.667-10.667-10.667z" style="fill:url(#a)"/>
  <path fill="url(#b)" d="M122.951 122.489H0c0 30.653 24.85 55.502 55.502 55.502h22.72v21.867c.02 30.597 24.798 55.408 55.396 55.466V133.156c0-5.891-4.776-10.667-10.667-10.667z" style="fill:url(#b)"/>
</svg>
