<svg xmlns="http://www.w3.org/2000/svg" viewBox="0 0 255.004 256.801">
  <path fill="#f9ae41" d="M255.004 34.814c0-18.607-15.084-33.691-33.691-33.691-16.99 0-31.035 12.577-33.35 28.929-.215-.115-.34-.18-.34-.18-27.553-12.427-50.763 9.584-50.763 9.584l-61.39 61.692 24.256 23.36 49.413-48.546c23.074-23.075 35.638-7.457 35.638-7.457 17.37 14.674.599 32.044.599 32.044l24.857 23.959c20.297-21.923 21.475-41.056 15.305-56.277 16.611-2.08 29.466-16.242 29.466-33.417"/>
  <path fill="#ee4035" d="M225.85 189.76c.115-.215.18-.34.18-.34 12.429-27.554-9.583-50.763-9.583-50.763l-61.694-61.393-23.358 24.258 48.545 49.413c23.075 23.075 7.457 35.64 7.457 35.64-14.674 17.37-32.044.598-32.044.598l-23.958 24.856c21.921 20.297 41.055 21.475 56.275 15.305 2.08 16.612 16.243 29.467 33.418 29.467 18.608 0 33.69-15.084 33.69-33.692 0-16.99-12.576-31.034-28.927-33.35"/>
  <path fill="#4f91cd" d="m155.278 132.293-49.413 48.545c-23.074 23.075-35.638 7.458-35.638 7.458-17.37-14.674-.599-32.043-.599-32.043l-24.856-23.959c-20.298 21.922-21.475 41.055-15.306 56.275C12.854 190.65 0 204.811 0 221.987c0 18.607 15.084 33.69 33.691 33.69 16.99.001 31.035-12.576 33.35-28.927.215.115.34.179.34.179 27.554 12.429 50.763-9.584 50.763-9.584l61.392-61.693-24.258-23.359"/>
  <path fill="#7ac043" d="M75.064 105.865c-23.075-23.074-7.46-35.638-7.46-35.638 14.677-17.37 32.046-.599 32.046-.599l23.958-24.855c-21.921-20.298-41.054-21.475-56.274-15.306C65.254 12.854 51.091 0 33.914 0 15.309 0 .226 15.084.225 33.691c0 16.991 12.577 31.036 28.928 33.35-.114.216-.178.342-.178.342-12.43 27.552 9.582 50.76 9.582 50.76l61.694 61.393 23.36-24.258-48.546-49.413"/>
</svg>
