<svg xmlns="http://www.w3.org/2000/svg" viewBox="0 0 89.811 88.984">
  <g fill="#21609b" fill-rule="evenodd">
    <path d="m87.727 66.047-.402 1.041c-6.851 13.34-18.989 21.526-36.303 21.887-8.094.166-15.806-1.91-20.844-4.17-10.873-4.884-20.017-13.943-25.01-23.622-7.165-13.875-8.457-33.176 6.44-47.592.229 0-1.807 3.126-1.578 3.126l-.41 1.334C-1.114 51.658 31.957 80.457 64.105 77.163c7.726-.792 17.58-5.023 23.623-11.116"/>
    <path d="M68.273 52.15c8.088.057 16.536-3.723 21.538-9.03C85.435 54.23 72.762 61.37 55.767 59.1c-14.229-1.905-27.784-16.224-29.18-30.572-1.022-10.442 2.618-16.674 8.615-24.234-2.084 3.954-2.863 7.003-3.057 8.948-2.279 22.588 18.044 38.79 36.128 38.908"/>
    <path d="M89 24.096c-1.257 2.884-8.497 8.33-11.694 9.01C64.647 35.804 56.54 29.8 52.294 22.97c-.631-1.021-1.799-3.807-2.007-4.516-1.647-5.6-.89-14.069 4.023-18.454-1.48 4.169-1.696 9.011-.917 12.159.472 1.904 1.91 5.226 3.348 7.316 2.62 3.808 4.28 4.733 7.643 6.754 1.515.91 3.14 1.64 3.842 1.841 3.189.938 9.921 3.412 20.774-3.974"/>
  </g>
</svg>
