<svg xmlns="http://www.w3.org/2000/svg" viewBox="0 0 256 190.963">
  <path fill="#0481a3" d="M34.337 0H217.79c4.016 0 6.995 3.724 6.114 7.642L198.047 122.57a8.744 8.744 0 0 1-8.53 6.825H7.007c-4.483 0-7.81-4.151-6.837-8.526L25.515 7.073A9.039 9.039 0 0 1 34.337 0"/>
  <path fill="#14bef0" d="M114.684 31.293h136.448c3.116 0 5.43 2.888 4.75 5.928l-22.928 102.522a7.802 7.802 0 0 1-7.613 6.098H88.478c-2.818 0-4.909-2.612-4.29-5.362L107.4 37.122a7.464 7.464 0 0 1 7.283-5.829"/>
  <path fill="#73d8f4" d="M114.684 31.293a7.464 7.464 0 0 0-7.283 5.83l-20.725 92.271h102.841a8.742 8.742 0 0 0 8.53-6.824l20.535-91.277z"/>
  <path fill="#6aba2f" d="M70.113 65.498h62.454c3.375 0 5.873 3.14 5.114 6.429l-26.184 113.422a7.244 7.244 0 0 1-7.057 5.614H41.033c-3.042 0-5.3-2.823-4.628-5.791l25.569-113.17a8.344 8.344 0 0 1 8.139-6.504"/>
  <path fill="#b8ec00" d="M84.187 140.48c-.618 2.75 1.474 5.362 4.292 5.362h32.138l3.797-16.448H86.677z"/>
  <path fill="#fff" d="M132.566 65.498h-31.539l-14.35 63.897h37.736l13.267-57.468c.76-3.29-1.738-6.43-5.114-6.43"/>
  <path fill="#81d958" d="M70.113 65.498a8.344 8.344 0 0 0-8.14 6.505l-12.966 57.392h37.67l14.35-63.897z"/>
</svg>
