<svg xmlns="http://www.w3.org/2000/svg" viewBox="0 0 510.158 115.935">
  <g fill="none" fill-rule="evenodd">
    <path fill="#1a1918" d="m488.737 8.569 21.421.117s-39.825 53.964-43.077 58.362c-1.056 1.425-2.66 2.96-3.474 4.864-2.057 4.787-4.168 15.286-4.168 15.286l-19.6.097s3.05-10.943 2.924-16.772c-.11-5.093-2.71-10.179-4.168-15.286-1.473-5.169-3.474-15.285-3.474-15.285h20.15l2.778 11.116 30.688-42.5"/>
    <path fill="#1a1918" d="M448.177 19.95c3.952 2.383 6.378 15.528 6.378 15.528s-20.684.305-31.94.305h-9.727l-11.811 51.415h-18.065s11.242-55.875 13.896-66.005c.861-3.279 5.892-2.717 14.389-2.717h13.569c8.762 0 19.003-1.118 23.31 1.473M364.08 44.99s.562-3.301-1.911-7.123c-2.112-3.258-4.064-4.015-9.623-4.189-15.695-.493-15.39 11.138-15.39 11.138zm17.022-13.32c2.3 8.296-2.085 27.792-2.085 27.792s-22.893-.383-35.433 0c-3.9.118-8.567-.424-9.727 1.39-1.634 2.542.596 6.454 2.486 8.107 2.175 1.904 6.413 2.12 7.935 2.314 10.178 1.293 31.481.333 31.481.333l-3.69 16.341s-30.104 1.509-45.16-2.084c-2.974-.708-5.76-2.14-7.644-4.169-.513-.555-.959-1.312-1.445-1.965-.389-.522-1.52-2.238-2.029-3.593-3.438-9.164.403-26.721 4.169-36.128.437-1.091.987-2.473 1.564-3.648.722-1.466 1.333-3.12 1.91-3.995.388-.604.87-.994 1.272-1.564.465-.674 1.007-1.327 1.508-1.91 1.389-1.612 2.966-2.752 4.863-4.168 6.273-4.697 17.627-8.345 31.265-6.948 5.135.527 12.89 2.362 16.675 7.642 1.015 1.41 1.515 4.21 2.085 6.253zM298.248 18.413l17.516-.104s-9.761 46.308-14.736 68.889h-20.15c-14.083 0-26.624 1.744-31.96-8.338-5.175-9.79-.236-25.888 2.085-36.824 1.64-7.74 5.093-23.56 5.093-23.56l18.148-.167s-5.128 24.63-7.261 36.928c-.764 4.405-2.34 8.553-.695 11.811 1.564 3.1 3.752 3.321 10.422 3.475 2.112.049 9.032 0 9.032 0l12.506-52.11M216.263 51.763c1.834-6.517 4.51-13.583 4.169-19.454-.368-6.28-5.634-11.999-9.032-13.2-10.234-3.614-19.815 1.438-23.622 5.557-4.927 5.337-6.595 11.57-8.339 20.15-1.298 6.37-2.361 13.096 0 18.064 4.183 8.782 17.224 6.865 31.266 6.948 2.084-5.586 3.807-11.86 5.558-18.065zm24.318-25.707c2.001 14.549-5.676 30.606-10.964 44.57 5.392.487 10.117-.075 10.457.327.354.522-3.613 16.669-4.996 16.71-4.28.112-18.46.23-24.373.23-19.294 0-37.345 1.257-46.55-8.338-3.738-3.898-6.323-10.582-6.948-15.285-1.043-7.852.264-16.495 2.084-23.623 1.647-6.434 3.759-12.507 6.948-18.065C174.347 8.429 188.451-2.076 212.095.349c4.585.473 11.171 2.48 15.285 4.863.285.168 1.28.96 1.508 1.099 5.558 3.537 10.623 11.978 11.693 19.745zM155.213 18.497c-1.168 5.315-2.335 11.34-3.565 16.592h-19.454c1.508-5.823 2.661-11.61 4.169-16.676 6.225 0 12.013.084 18.85.084M131.5 39.952h18.758c-2.452 13.576-7.308 35.476-11.115 50.719-2.384 9.54-3.975 16.502-10.423 21.538-.577.452-.91.238-1.389.696-1.189 1.133-6.684 2.446-9.727 2.778-4.947.536-10.54.07-16.62-.054 1.592-5.816 3.392-12.798 4.809-18.01 14.82 1.793 15.195-12.214 18.064-25.707 1.66-7.795 6.691-28.833 7.643-31.96"/>
    <g fill="#21609b">
      <path d="m87.728 75.387-.402 1.041c-6.852 13.34-18.99 21.525-36.303 21.886-8.094.166-15.807-1.91-20.844-4.169-10.873-4.884-20.017-13.944-25.012-23.622-7.164-13.875-8.456-33.177 6.44-47.593.23 0-1.806 3.126-1.577 3.126l-.41 1.334C-1.114 60.997 31.957 89.796 64.105 86.502c7.726-.791 17.579-5.022 23.623-11.115"/>
      <path d="M68.274 61.49c8.088.056 16.536-3.724 21.538-9.032-4.377 11.11-17.049 18.252-34.044 15.98-14.23-1.904-27.784-16.223-29.181-30.57-1.021-10.443 2.619-16.675 8.616-24.234-2.085 3.953-2.863 7.003-3.058 8.948C29.867 45.17 50.19 61.372 68.274 61.49"/>
      <path d="M89 33.435c-1.258 2.884-8.497 8.33-11.694 9.01C64.648 45.143 56.54 39.14 52.294 32.31c-.632-1.021-1.8-3.807-2.008-4.516-1.647-5.6-.89-14.07 4.023-18.454-1.48 4.17-1.695 9.011-.917 12.159.472 1.904 1.91 5.226 3.349 7.316 2.619 3.808 4.28 4.733 7.643 6.754 1.514.91 3.14 1.64 3.842 1.841 3.188.938 9.92 3.412 20.774-3.974"/>
    </g>
  </g>
</svg>
