<svg xmlns="http://www.w3.org/2000/svg" viewBox="0 0 255.999 182.394">
  <path fill="#4a0000" d="m252.95 116.925-18.349-6.48-2.224-13.43a4.584 4.584 0 0 0-3.035-3.588 4.61 4.61 0 0 0-4.592.968l-22.715 20.98-12.525-26.84c15.612-24.514 23.184-48.918 23.74-50.75a4.6 4.6 0 0 0-1.386-4.79 4.592 4.592 0 0 0-4.932-.687L171.09 49.027l-6.48-13.905L177.07 6.396a4.55 4.55 0 0 0-1.01-5.091 4.57 4.57 0 0 0-5.128-.877L2.656 78.907a4.58 4.58 0 0 0-2.655 4.017 4.596 4.596 0 0 0 2.405 4.164l30.626 16.536 23.68 50.785a4.619 4.619 0 0 0 2.576 2.36l69.452 25.344a4.56 4.56 0 0 0 1.572.28c.655 0 1.318-.146 1.93-.426l121.13-56.58a4.577 4.577 0 0 0 2.621-4.372 4.56 4.56 0 0 0-3.043-4.09"/>
  <path fill="#ca1f27" d="m226.005 114.609-1.274-7.732-18.636 17.22 5.11 10.949 28.16-13.21-10.366-3.66a4.612 4.612 0 0 1-2.994-3.567"/>
  <path fill="#ffd440" d="m40.045 97.002-25.37-13.698 15.616-7.236 9.754 20.934"/>
  <path fill="#ca1f27" d="M176.583 91.116c.067-.097.134-.181.205-.276 11.862-16.698 19.854-34.718 24.085-45.601l-90.36 42.136a4.613 4.613 0 0 1-4.272-.214 4.604 4.604 0 0 1-2.238-3.643c-.008-.203-1.43-19.845-12.45-26.746-5.15-3.23-11.997-3.15-20.302.22L30.283 76.086l33.93 72.738 65.875 24.047 65.988-30.76c-4.317-6.288-13.903-18.933-26.71-28.005-10.049 10.076-21.907 18.42-35.717 22.752a4.572 4.572 0 0 1-1.367.209 4.579 4.579 0 0 1-4.362-3.214 4.559 4.559 0 0 1 2.995-5.727s24.718-6.296 45.668-37.01"/>
  <path fill="#4a0000" d="M63.802 74.498c-5.69-2.071-11.996.862-14.059 6.554-2.074 5.693.864 11.987 6.551 14.05 5.695 2.08 11.992-.852 14.063-6.554 2.063-5.686-.864-11.98-6.555-14.05"/>
</svg>
