<svg xmlns="http://www.w3.org/2000/svg" viewBox="0 0 255.005 357.711">
  <g transform="translate(7.969 106.584)">
    <path fill="#9eaab2" d="M.784 52.446v146.942c0 28.508 53.166 51.62 118.75 51.62 65.585 0 118.75-23.112 118.75-51.62V52.446s-4.94 50.177-118.75 50.177C5.722 102.624.784 52.446.784 52.446z"/>
    <ellipse cx="119.534" cy="52.446" fill="#8e979a" rx="118.75" ry="51.616"/>
    <path fill="#9eaab2" d="M.784 52.446v146.942c0 28.508 53.166 51.62 118.75 51.62 65.585 0 118.75-23.112 118.75-51.62V52.446s-4.94 50.177-118.75 50.177C5.722 102.624.784 52.446.784 52.446z"/>
    <path fill="#8e979a" d="M222.402 76.928c3.351-2.565 6.62-5.132 9.089-8.606 1.417-1.998 2.585-4.125 3.681-6.291a45.578 45.578 0 0 0 3.111-6.545V199.39c0 13.218-11.435 25.276-30.235 34.408V85.596c5.07-2.389 9.909-5.268 14.354-8.669zM16.666 76.928c-3.353-2.565-6.62-5.132-9.089-8.606-1.42-1.998-2.586-4.125-3.682-6.291a45.681 45.681 0 0 1-3.111-6.545V199.39c0 13.218 11.435 25.276 30.234 34.408V85.596c-5.068-2.389-9.907-5.268-14.352-8.669z"/>
    <path fill="#8e979a" d="M119.534 247.15C55.568 247.15 3.432 225.776.96 199.016c-.062.659-.102 1.322-.102 1.986 0 27.685 53.133 50.126 118.677 50.126 65.544 0 118.678-22.441 118.678-50.126 0-.664-.038-1.327-.103-1.986-2.473 26.76-54.609 48.136-118.575 48.136z"/>
    <path fill="#dbe1e3" d="M119.534 100.581C55.568 100.581 3.432 79.208.96 52.447a21.29 21.29 0 0 0-.102 1.988c0 27.684 53.133 50.125 118.677 50.125 65.544 0 118.678-22.44 118.678-50.125a20.3 20.3 0 0 0-.103-1.988c-2.473 26.76-54.609 48.134-118.575 48.134zM119.534 230.706c-63.966 0-116.102-21.374-118.575-48.134-.062.661-.102 1.32-.102 1.988 0 27.684 53.133 50.124 118.677 50.124 65.544 0 118.678-22.44 118.678-50.124 0-.667-.038-1.327-.103-1.988-2.473 26.76-54.609 48.134-118.575 48.134z"/>
  </g>
  <path fill="#1a2b2f" d="M235.916 156.343c0 4.547-1.96 8.644-5.577 12.73-7.157 8.086-54.526 26.834-102.1 26.874-48.064.041-96.34-18.706-103.573-26.874-3.624-4.088-5.577-8.178-5.577-12.73 0-22.63 48.54-40.976 108.414-40.976 59.874.001 108.413 18.346 108.413 40.976z"/>
  <path fill="#1b3134" d="M24.665 107.412c17.107 11.935 60.622 23.074 102.837 23.074s88.118-11.537 102.836-23.074v-7.16s-32.256 20.639-102.836 20.639c-70.582 0-102.837-20.64-102.837-20.64z"/>
  <path fill="#213f48" d="M230.34 164.918s-20.908 29.438-102.837 29.438c-81.931 0-102.837-29.438-102.837-29.438V101s29.603 20.158 100.416 20.158C195.895 121.158 230.34 101 230.34 101v63.918z"/>
  <path fill="#1b3134" d="M127.463 191.21c-51.632-.009-94.312-14.947-102.797-32.18v10.043S45.56 197.3 127.422 197.32h.081c81.864-.02 102.836-28.247 102.836-28.247V159.03c-8.485 17.233-51.244 32.171-102.876 32.18z"/>
  <path fill="#8e979a" d="M127.503 118.79C58.781 118.79 2.767 97.414.11 70.654.044 71.314 0 71.977 0 72.642c0 27.685 57.085 50.125 127.502 50.125s127.502-22.44 127.502-50.125c0-.665-.043-1.329-.11-1.988-2.656 26.76-58.67 48.136-127.392 48.136z"/>
  <path fill="#9eaab2" d="M127.503 0C57.086 0 .001 22.442.001 50.126v21.88c0 27.683 57.085 50.125 127.502 50.125s127.502-22.442 127.502-50.124v-21.88C255.005 22.441 197.92 0 127.503 0z"/>
  <path fill="#dbe1e3" d="M127.241 16.909c18.843 0 36.203 2.589 49.373 6.852l18.87-6.852 4.57 19.442h-56.995l-.726-.147 20.263-7.355c-9.32-3.115-21.755-5.02-35.302-5.02-10.858 0-21.031 1.234-29.442 3.343L79.13 23.37c13.132-4.09 30.076-6.462 48.11-6.462zM53.547 34.81c.632-2.832 7.573-5.09 15.514-5.09 7.94 0 14.077 2.26 13.705 5.09-.379 2.883-7.342 5.257-15.544 5.257-8.2.001-14.32-2.374-13.675-5.257zm74.01 35.917c-22.214 0-41.89-3.532-55.453-9.073l-24.992 9.073 5.183-23.683h59.636l.27.059-23.024 8.356c9.523 3.743 23.104 6.111 38.309 6.111 12.495 0 23.815-1.584 32.673-4.203l21.816 4.672c-13.248 5.25-32.374 8.688-54.417 8.688zm61.92-16.303c-8.566 0-15.885-2.591-16.341-5.73-.447-3.084 5.91-5.54 14.185-5.54 8.28 0 15.576 2.456 16.307 5.54.744 3.139-5.587 5.73-14.151 5.73z"/>
  <path fill="#8e979a" d="M216.017 108.08V83.76s34.511-10.607 38.988-33.634v21.88c0 14.166-14.953 26.958-38.988 36.074zM38.987 108.08V83.495C11.836 75.009 1.227 59.625 0 50.126v21.88c.001 14.166 14.953 26.958 38.987 36.074z"/>
  <path fill="#dbe1e3" d="M127.503 96.274C58.781 96.274 2.767 74.898.11 48.138A20.05 20.05 0 0 0 0 50.128c0 27.682 57.085 50.123 127.502 50.123s127.502-22.44 127.502-50.124c0-.667-.043-1.329-.11-1.989-2.656 26.76-58.67 48.136-127.392 48.136z"/>
  <g>
    <g transform="translate(161.37 135.47)">
      <path fill="#1b3134" d="M34.023 19.729c0 9.749-7.132 17.654-16.913 17.654-9.78 0-16.912-7.905-16.912-17.654C.198 9.978 7.33 2.076 17.11 2.076c9.781 0 16.913 7.902 16.913 17.653z"/>
      <circle cx="17.111" cy="16.217" r="15.536" fill="#51c3f1"/>
      <circle cx="17.11" cy="13.818" r="5.068" fill="#fff"/>
    </g>
    <g transform="translate(58.77 135.47)">
      <path fill="#1b3134" d="M34.264 19.729c0 9.749-7.132 17.654-16.913 17.654-9.779 0-16.913-7.905-16.913-17.654 0-9.751 7.133-17.653 16.913-17.653 9.781 0 16.913 7.902 16.913 17.653z"/>
      <circle cx="17.507" cy="16.217" r="15.535" fill="#51c3f1"/>
      <circle cx="17.352" cy="13.818" r="5.068" fill="#fff"/>
    </g>
  </g>
  <path fill="#dbe1e3" d="M128.24 326.028c-5.3 0-10.627-.277-19.009-.988-3.927-.336-7.125-3.848-7.125-7.836v-79.662c0-3.713 2.813-6.515 6.545-6.515.206 0 .419.01.63.027 8.35.71 13.666.988 18.958.988 5.291 0 10.607-.278 18.96-.989a7.41 7.41 0 0 1 .628-.026c3.729 0 6.544 2.8 6.544 6.515v79.662c0 3.988-3.198 7.5-7.126 7.836-8.383.71-13.71.988-19.006.988zm-19.59-91.023c-1.535 0-2.565 1.018-2.565 2.537v79.662c0 1.904 1.627 3.713 3.484 3.872 8.259.7 13.493.975 18.67.975 5.174 0 10.408-.274 18.67-.975 1.855-.158 3.484-1.968 3.484-3.872v-79.662c0-1.61-1.199-2.673-2.853-2.523-8.478.72-13.888 1-19.3 1-5.415 0-10.826-.28-19.3-1a2.862 2.862 0 0 0-.29-.014z"/>
  <g>
    <path fill="#f5dd3e" d="M225.364 231.588c-9.444 6.121-27.024 17.514-62.096 25.417 5.038 26.734 5.038 26.734 11.66 61.773 12.134-3.611 37.384-11.13 57.84-27.995-2.334-19.59-4.206-34.825-7.404-59.195"/>
    <path fill="#3b3735" d="M202.513 301.993c-6.912 3.813-11.637-1.727-11.637-1.727l4.081-3.878s2.277 2.936 6.037.433c1.761-1.172.612-7.039.612-7.039l-3.38-16.132 5.32-2.243s3.225 18.628 3.562 20.492c.63 3.49 1.148 6.924-4.595 10.094zM216.842 293.843c-3.893.588-6.093-2.315-6.093-2.315l3.549-4.344s1.338 1.484 3.195 1.206c1.576-.24 3.426-1.29 4.072-3.27 1.1-3.39.08-4.552-3.373-4.167-3.45.385-7.789.891-8.557-5.913-.681-6.036 4.595-10.653 8.167-11.28 3.544-.62 5.522 1.881 5.522 1.881l-3.535 4.29s-2.344-1.065-3.754.197c-1.282 1.15-1.775 2.651-1.287 3.792.428 1 1.718 1.44 3.791 1.286 2.074-.15 5.489-1.356 7.59 2.874 2.364 4.75-.098 14.379-9.287 15.763z"/>
  </g>
</svg>
