<svg xmlns="http://www.w3.org/2000/svg" viewBox="0 0 255.988 297.912">
  <path fill="#feea5f" d="m44.959 74.88 82.915-47.886 82.867 47.87-82.858 47.878z"/>
  <path fill="#e0cc41" d="m22.01 115.122 82.24 47.447v95.67l-82.24-47.464z"/>
  <path fill="#efdb50" d="m234.904 211.847-84.853 48.971v-99.17l84.853-48.987z"/>
  <path fill="#c3c2c2" d="m50.435 74.879 77.446 44.7 77.384-44.714-77.393-44.708-77.437 44.722zM127.658 0l128.33 74.699-61.239 48.043-67.764 25.904-63.565-20.762L0 74.69z"/>
  <path fill="#b3b3b3" d="m154.24 253.505 76.476-44.137v-89.394l-76.477 44.152zm-27.311-104.859 129.059-73.778v149.337l-129.06 73.707-6.546-73.707z"/>
  <path fill="#a5a5a4" d="m101.559 164.147-76.857-44.342v89.393l76.857 44.358zM0 74.867l126.985 73.78-.056 149.264L0 224.77z"/>
</svg>
