<svg xmlns="http://www.w3.org/2000/svg" viewBox="0 0 255.305 299.131">
  <path fill="#4e4e4e" d="M10.438 156.41v-32.753h7.136v35.256a21.302 21.302 0 0 1-4.686 15.976 18.213 18.213 0 0 1-12.142 4.42L0 173.984a11.608 11.608 0 0 0 7.775-2.982c1.917-2.237 2.663-5.273 2.663-14.592zm53.22-4.201c0 3.994 0 7.562.32 10.651H57.64l-.426-6.337a14.752 14.752 0 0 1-12.941 7.242c-6.178 0-13.527-3.355-13.527-17.041v-22.74h7.136v21.302c0 7.402 2.29 12.355 8.734 12.355a9.958 9.958 0 0 0 10.066-10.065v-23.859h7.136v28.279zm13.527-15.555c0-4.953 0-9-.32-12.675h6.391l.32 6.657a15.445 15.445 0 0 1 13.952-7.562c9.48 0 16.616 7.935 16.616 19.757 0 13.953-8.574 20.877-17.84 20.877a13.794 13.794 0 0 1-12.09-6.125v21.302h-7.029v-42.071zm7.03 10.385c.019.966.126 1.928.32 2.875a10.97 10.97 0 0 0 10.65 8.255c7.51 0 11.93-6.124 11.93-15.018 0-7.775-4.154-14.432-11.663-14.432a12.249 12.249 0 0 0-11.237 11.663zm42.644-23.095 8.574 22.953a132.679 132.679 0 0 1 2.503 7.935c.745-2.344 1.544-5.326 2.503-8.095l7.775-22.793h7.51l-10.652 27.692c-5.326 13.314-8.574 20.184-13.474 24.338a19.385 19.385 0 0 1-8.733 4.58l-1.758-5.965a18.907 18.907 0 0 0 6.231-3.461 21.302 21.302 0 0 0 6.018-7.882c.29-.53.489-1.107.586-1.704a6.124 6.124 0 0 0-.48-1.864l-14.485-35.84h7.775zm47.809-11.173v11.183h10.225v5.326h-10.225v20.983c0 4.793 1.384 7.562 5.325 7.562 1.4.023 2.797-.138 4.154-.48l.32 5.326a17.575 17.575 0 0 1-6.338.959 9.906 9.906 0 0 1-7.722-2.983 14.326 14.326 0 0 1-2.769-10.118v-21.302h-6.071V123.9h6.178v-9.48zm23.37 31.877a12.516 12.516 0 0 0 13.474 13.473 25.988 25.988 0 0 0 10.651-2.024l1.225 5.326a31.953 31.953 0 0 1-13.047 2.396 18.106 18.106 0 0 1-19.279-19.598c0-11.716 6.977-20.982 18.373-20.982 12.782 0 15.977 11.183 15.977 18.32a26.63 26.63 0 0 1 0 3.302h-27.533zm20.877-5.326a10.065 10.065 0 0 0-9.906-11.503 11.77 11.77 0 0 0-10.917 11.503zm17.325-3.269c0-4.58 0-8.52-.32-12.142h6.39v7.616h.32a11.77 11.77 0 0 1 10.651-8.521 7.772 7.772 0 0 1 2.024 0v6.657a10.642 10.642 0 0 0-2.45 0 9.958 9.958 0 0 0-9.533 9.053 19.7 19.7 0 0 0-.319 3.302v20.716h-7.03v-26.627z"/>
  <path fill="#767677" d="M233.112 16.962A18.053 18.053 0 1 1 214.313.027a17.84 17.84 0 0 1 18.8 16.935z"/>
  <path fill="#f37726" d="M127.807 225.541c-47.93 0-90.054-17.201-111.836-42.604a119.239 119.239 0 0 0 223.673 0c-21.728 25.403-63.694 42.604-111.837 42.604zM127.807 60.354c47.93 0 90.055 17.202 111.837 42.604a119.243 119.243 0 0 0-111.837-77.88 119.239 119.239 0 0 0-111.836 77.88c21.782-25.455 63.694-42.604 111.836-42.604z"/>
  <path fill="#9e9e9e" d="M61.826 274.975a22.74 22.74 0 1 1-23.699-21.302 22.527 22.527 0 0 1 23.699 21.302z"/>
  <path fill="#616262" d="M21.418 54.565a13.102 13.102 0 1 1 12.728-13.633 13.26 13.26 0 0 1-12.728 13.633z"/>
</svg>
