<svg xmlns="http://www.w3.org/2000/svg" viewBox="0 0 511.734 233.487">
  <g fill="#1a1919">
    <path d="M49.758 20.776c-2.582-2.593-6.165-4.19-10.16-4.19-3.984 0-7.539 1.597-10.089 4.19h-.065a14.297 14.297 0 0 0-4.172 10.137c0 3.992 1.597 7.562 4.172 10.112l.065.07c2.55 2.57 6.105 4.145 10.09 4.145 3.994 0 7.577-1.574 10.16-4.144l.03-.07c2.585-2.55 4.162-6.121 4.162-10.113 0-3.969-1.577-7.562-4.162-10.137zM39.598 216.9c3.995 0 7.578-1.627 10.16-4.172l.03-.075c2.586-2.54 4.163-6.133 4.163-10.082 0-3.992-1.577-7.567-4.162-10.155h-.03c-2.583-2.618-6.166-4.2-10.16-4.2-3.985 0-7.54 1.582-10.09 4.2h-.065a14.32 14.32 0 0 0-4.172 10.155c0 3.949 1.597 7.542 4.172 10.082l.065.075a14.239 14.239 0 0 0 10.09 4.172zm78.062-43.41c3.548-.932 6.76-3.209 8.723-6.654l.264-.504c1.745-3.262 2.063-7.033 1.13-10.38a14.151 14.151 0 0 0-6.68-8.716l-.202-.135a14.291 14.291 0 0 0-10.667-1.287c-3.563.89-6.764 3.262-8.715 6.677-1.976 3.395-2.387 7.297-1.442 10.887.975 3.533 3.26 6.725 6.677 8.72h.02c3.425 1.97 7.297 2.323 10.892 1.392zm-63.366-71.43c-3.76-3.75-8.951-6.102-14.695-6.102-5.737 0-10.912 2.352-14.666 6.103a20.643 20.643 0 0 0-6.048 14.658 20.872 20.872 0 0 0 6.048 14.723c3.754 3.729 8.929 6.058 14.666 6.058 5.744 0 10.934-2.33 14.695-6.058a20.838 20.838 0 0 0 6.058-14.723 20.61 20.61 0 0 0-6.058-14.658zM46.03 77.644a39.402 39.402 0 0 1 21.55 11.132h.043a41.26 41.26 0 0 1 2.62 2.906l14.305-8.274a30.414 30.414 0 0 1-.466-17.586c2.038-7.63 6.985-14.46 14.402-18.74l.24-.153c7.337-4.15 15.674-5.015 23.199-2.977A30.882 30.882 0 0 1 140.7 58.37v.022c4.26 7.364 5.123 15.814 3.092 23.422a30.67 30.67 0 0 1-14.402 18.76l-1.954 1.153h-.198c-6.852 3.262-14.387 3.773-21.307 1.95-5.682-1.504-10.892-4.678-14.974-9.179l-14.285 8.252a39.307 39.307 0 0 1 2.55 13.97c0 4.923-.907 9.672-2.55 14.037l14.285 8.23a30.486 30.486 0 0 1 14.974-9.183 30.509 30.509 0 0 1 23.459 3.107l.473.22v.023c7.134 4.325 11.923 11 13.929 18.54a30.815 30.815 0 0 1-3.092 23.396l-.258.514-.03-.043c-4.278 7.113-11.022 11.933-18.467 13.971-7.635 2.013-16.087 1.153-23.461-3.089v-.058c-7.417-4.287-12.364-11.132-14.402-18.747a30.325 30.325 0 0 1 .466-17.56l-14.304-8.253a40.536 40.536 0 0 1-2.62 2.86l-.043.046c-5.725 5.744-13.212 9.736-21.551 11.064v16.529c5.942 1.241 11.263 4.212 15.43 8.382l.023.043a30.74 30.74 0 0 1 9.046 21.824c0 8.49-3.46 16.192-9.046 21.781l-.023.088c-5.626 5.586-13.344 9.046-21.861 9.046-8.473 0-16.21-3.46-21.824-9.046h-.023v-.088c-5.591-5.589-9.059-13.291-9.059-21.781a30.73 30.73 0 0 1 9.06-21.824v-.043h.022c4.164-4.17 9.495-7.14 15.415-8.382v-16.529c-8.337-1.328-15.812-5.32-21.526-11.064l-.06-.046C4.468 137.524 0 127.654 0 116.72c0-10.912 4.468-20.781 11.604-27.945h.06A39.305 39.305 0 0 1 33.19 77.643V61.184a31.258 31.258 0 0 1-15.415-8.402h-.023v-.045c-5.591-5.611-9.059-13.306-9.059-21.824 0-8.472 3.468-16.235 9.06-21.824l.022-.022C23.389 3.457 31.126 0 39.599 0c8.517 0 16.235 3.458 21.861 9.067v.022h.023a30.864 30.864 0 0 1 9.046 21.824c0 8.518-3.46 16.213-9.046 21.824l-.023.045a31.22 31.22 0 0 1-15.43 8.402zm80.353-10.977-.123-.181c-1.97-3.325-5.12-5.541-8.6-6.497-3.595-.955-7.467-.554-10.912 1.422h.02c-3.437 1.95-5.737 5.14-6.697 8.716a14.343 14.343 0 0 0 1.442 10.887l.068.087a14.092 14.092 0 0 0 8.647 6.545c3.536 1 7.475.576 10.87-1.4l.183-.087a14.316 14.316 0 0 0 6.496-8.605c.948-3.571.57-7.472-1.394-10.887zM189.854 71.5h15.962v48.723l23.018-25.46h19.138l-27.789 29.497 27.905 37.39h-18.276l-23.996-33.399v33.398h-15.962zm76.66 56.994c0 8.297 5.968 20.36 20.345 20.36 8.896 0 14.75-4.636 17.787-10.711 1.59-2.949 2.322-6.1 2.568-9.38.11-3.175-.49-6.474-1.838-9.405-2.798-6.319-9.01-11.797-18.635-11.797-12.908 0-20.227 10.465-20.227 20.823zm56.534 33.155h-15.97v-9.623c-4.25 7.783-13.148 11.69-22.533 11.69-21.446 0-33.99-16.702-33.99-35.575 0-21.07 15.227-35.442 33.99-35.442 12.183 0 19.612 6.457 22.533 11.823v-9.759h15.97zm18.073-54.577h-8.272V94.763h8.272v-3.769c0-19.873 15.112-21.071 26.57-21.204v12.286c-4.03 0-10.601 0-10.601 9.402v3.285h10.601v12.309H357.09v54.577h-15.97zM378.545 71.5h15.957v48.723l23.023-25.46h19.138l-27.789 29.497 27.9 37.39h-18.276l-23.996-33.399v33.398h-15.957zm76.66 56.994c0 8.297 5.965 20.36 20.345 20.36 8.884 0 14.738-4.636 17.78-10.711 1.594-2.949 2.329-6.1 2.57-9.38.11-3.175-.49-6.474-1.84-9.405-2.794-6.319-9.005-11.797-18.628-11.797-12.91 0-20.227 10.465-20.227 20.823zm56.529 33.155h-15.965v-9.623c-4.262 7.783-13.153 11.69-22.533 11.69-21.446 0-33.98-16.702-33.98-35.575 0-21.07 15.222-35.442 33.98-35.442 12.175 0 19.612 6.457 22.533 11.823v-9.759h15.965z"/>
  </g>
</svg>
