<svg xmlns="http://www.w3.org/2000/svg" viewBox="0 0 256.002 190.354">
  <path d="M136.302 30.575s-21.023-1.4-56.822 9.803C42.997 51.794 22.306 67.974 22.306 67.974s54.377-30.361 115.75-32.086zm78.413 33.01 2.733-.179S201.79 44.408 171.82 35.153c16.848 6.849 31.511 15.922 42.896 28.43zm4.473 7.893c.42-.728 1.777 2.315 2.807 3.593.043.255.116.411-.481.288-.05-.262-.137-.338-.137-.338s-1.442-.858-1.884-1.466c-.442-.609-.52-1.673-.305-2.077zm36.781 90.435s3.324-38.163-56.635-46.96c-7.6-1.116-17.21-1.974-26.931-1.999-48.057.636-49.808-55.426-13.596-58.257 15.008-1.238 32.928 6.858 50.447 15.016-.065 2.176.025 4.11 1.454 5.896 1.43 1.786 6.919 3.735 8.673 4.742 1.754 1.006 7.373 4.579 10.817 9.061.747-1.397 6.983-5.456 6.983-5.456s-1.494.032-4.97-1.267-7.6-5.229-7.698-5.456c-.097-.227-.162-.584.65-.747.617-.52-.78-2.208-1.397-2.825s-4.742-7.632-4.84-7.795c-.097-.162-.13-.324-.422-.52-.91-.292-4.904.423-4.904.423s-6.145-3.018-8.263-9.524c.031 1.14-1.053 2.384 0 5.002-3.203-1.355-5.955-3.667-8.126-9.379-1.291 3.25 0 5.315 0 5.315s-7.544-2.108-8.75-9.066c-1.325 3.123 0 5.002 0 5.002s-12.3-6.417-32.735-6.51c-13.682-1.255-16.53-25.323-15.262-29.375 0 0-19.734-10.4-58.58-14.995-38.846-4.596-70.706-.693-70.706-.693S79.98-1.756 135.098 20.56c1.874 8.38 7.51 22.338 10.546 29.047-8.686 6.006-18.483 11.654-20.008 31.684-1.524 20.03 15.696 37.648 37.051 38.192 20.278 1.08 34.288 1.234 51.27 10.038 16.21 8.963 29.5 36.273 30.816 60.834 1.421-18.224-5.418-57.413-37.33-69.312 44.603 7.806 48.527 40.872 48.527 40.872zm-120.72-134.33-1.605-5.177s-26.482-4.702-62.088-2.171C35.95 22.765 0 35.23 0 35.23s73.559-18.51 135.25-7.647"/>
</svg>
