<svg xmlns="http://www.w3.org/2000/svg" viewBox="0 0 256 256">
  <path fill="#1d99f3" d="M0 256V0h256v256z"/>
  <path fill="#fcfcfc" d="m143.025 32.309-31.88 3.052v131.27l31.543-4.748v-55.968l42.4 62.076 33.239-10.518-43.416-59.698 43.756-56.308-33.917-7.798-42.061 56.305zM70.762 64.298c-.36.037-.708.196-.978.467l-12.512 12.51a1.619 1.619 0 0 0-.238 1.985l14.65 24.127a62.616 62.616 0 0 0-6.17 14.046l-26.893 5.593a1.62 1.62 0 0 0-1.288 1.586v17.693c0 .748.512 1.396 1.233 1.57l26.103 6.38a62.537 62.537 0 0 0 6.4 16.223l-15.109 23.04a1.618 1.618 0 0 0 .211 2.034l12.508 12.51a1.63 1.63 0 0 0 1.989.242l23.676-14.38a62.599 62.599 0 0 0 14.967 6.228l5.524 26.56c.156.753.82 1.288 1.584 1.288h17.694c.744 0 1.393-.508 1.57-1.238l6.507-26.615a62.358 62.358 0 0 0 15.397-6.478l23.332 15.298c.641.423 1.49.338 2.034-.206l12.512-12.51c.53-.529.625-1.347.236-1.984l-8.518-14.037-2.755.871a.951.951 0 0 1-1.077-.373l-12.449-18.222c-8.387 16.416-25.452 27.66-45.158 27.66-27.998 0-50.696-22.698-50.696-50.697 0-20.597 12.285-38.31 29.921-46.246V76.144a62.455 62.455 0 0 0-9.26 4.082c-.002-.002-.004-.007-.013-.015L71.816 64.55a1.622 1.622 0 0 0-1.055-.257z"/>
</svg>
