<svg xmlns="http://www.w3.org/2000/svg" viewBox="0 0 213.333 194.899">
  <defs>
    <clipPath id="a" clipPathUnits="userSpaceOnUse">
      <path d="M0 600h600V0H0z"/>
    </clipPath>
  </defs>
  <g clip-path="url(#a)" transform="matrix(1.33333 0 0 -1.33333 -293.333 497.45)">
    <path d="M0 0c-44.183 0-80-35.817-80-80 0-15.254 4.271-29.509 11.679-41.639l20.9 22.191 105.783-.661-.766-35.407C71.467-121.129 80-101.562 80-80 80-35.817 44.183 0 0 0" style="fill:#33a0ff;fill-opacity:1;fill-rule:nonzero;stroke:none" transform="translate(300 362.429)"/>
    <path d="M0 0c-3.899.239-6.887 3.608-6.66 7.511l.529 8.547a7.123 7.123 0 0 0 7.519 6.656l8.542-.529a7.05 7.05 0 0 0 4.885-2.386 7.053 7.053 0 0 0 1.767-5.156l-.524-8.514a5.154 5.154 0 0 0-.191-1.095l-.304-1.487L9.942-.615z" style="fill:#3dcc8e;fill-opacity:1;fill-rule:nonzero;stroke:none" transform="translate(263.836 339.627)"/>
    <path d="M0 0c-6.01 0-11.009-4.698-11.381-10.696l-.529-8.532-.001-.016-.001-.015c-.364-6.259 4.43-11.662 10.686-12.045l8.375-.518 3.123-.193 2.515 1.862 3.042 2.251 2.643 1.957.607 2.967c.12.455.25 1.068.297 1.818l.524 8.522a11.318 11.318 0 0 1-2.839 8.266A11.316 11.316 0 0 1 9.218-.549L.7-.021H.688L.675-.02A11.7 11.7 0 0 1 0 0m6.378-18.621.314 5.075-5.076.314-.315-5.076 5.077-.313M0-8.585c.056 0 .113-.002.17-.005l8.528-.529a2.789 2.789 0 0 0 1.933-.943c.5-.565.749-1.29.701-2.041l-.525-8.524c-.008-.132-.061-.248-.086-.374l-3.042-2.252-8.38.518a2.823 2.823 0 0 0-2.64 2.977l.529 8.531A2.816 2.816 0 0 0 0-8.585" style="fill:#282828;fill-opacity:1;fill-rule:nonzero;stroke:none" transform="translate(264.803 366.647)"/>
    <path d="M0 0c-33.402 0-60.48-27.078-60.48-60.48 0-12.421 3.746-23.965 10.167-33.569H52.742c5.424 9.907 7.738 21.637 7.738 33.569C60.48-29.566 33.402 0 0 0" style="fill:#fff;fill-opacity:1;fill-rule:nonzero;stroke:none" transform="translate(300 320.962)"/>
    <path d="M0 0c-35.716 0-64.773-29.057-64.773-64.773a64.383 64.383 0 0 1 9.396-33.569h10.347c-7.005 9.372-11.157 20.995-11.157 33.569C-56.187-33.791-30.982-8.585 0-8.585c14.716 0 28.811-6.161 39.688-17.348 10.486-10.783 16.5-24.94 16.5-38.84 0-9.517-1.572-22.45-8.405-33.569h9.799c4.729 9.519 7.191 20.9 7.191 33.569 0 16.116-6.899 32.454-18.929 44.826C33.336-7.084 17.055 0 0 0" style="fill:#282827;fill-opacity:1;fill-rule:nonzero;stroke:none" transform="translate(300 325.255)"/>
    <path d="M0 0a5.805 5.805 0 1 0-11.612 0A5.805 5.805 0 1 0 0 0" style="fill:#282827;fill-opacity:1;fill-rule:nonzero;stroke:none" transform="translate(287.79 242.925)"/>
    <path d="M0 0a5.805 5.805 0 1 0-11.612 0A5.805 5.805 0 1 0 0 0" style="fill:#282827;fill-opacity:1;fill-rule:nonzero;stroke:none" transform="translate(323.823 242.925)"/>
    <path d="m0 0 32.228 34.18-7.757-24.319c25.161 18.31 51.575 15.415 70.174 9.953 19.741-5.796 33.562 11.639 20.032 30.238-6.429 8.839-15.248 16.178-25.265 20.629-26.273 11.671-52.688 4.866-70.507-13.134C.029 38.479 0 17.33 0 0" style="fill:#ff6f21;fill-opacity:1;fill-rule:nonzero;stroke:none" transform="translate(234.012 245.229)"/>
    <path d="M0 0c-3.741 0-7.456-.373-11.107-1.124-11.135-2.29-21.473-7.999-29.897-16.509-13.993-14.135-16.901-29.306-17.505-43.549l37.603 39.881-9.955-31.208c18.708 9.781 40.099 11.228 63.755 4.282 7.528-2.21 14.351-.535 17.808 4.371 3.551 5.041 2.633 12.227-2.456 19.223-6.081 8.36-14.44 15.189-23.537 19.231C16.641-1.818 8.259 0 0 0m-67.252-82.97v10.81c0 17.917 0 40.215 20.146 60.567 9.62 9.717 21.47 16.245 34.269 18.878C.637 10.057 14.825 8.383 28.195 2.444 38.648-2.2 48.235-10.023 55.189-19.582c7.243-9.958 8.213-21.154 2.531-29.218-5.555-7.885-16.247-10.892-27.245-7.664-25.364 7.448-47.718 4.317-66.438-9.306l-10.6-7.713 6.005 18.825z" style="fill:#282827;fill-opacity:1;fill-rule:nonzero;stroke:none" transform="translate(296.972 317.389)"/>
    <path d="M0 0c-3.821-9.956-14.901-15.515-25.167-12.625C-36.733-9.368-42.84-.073-41.374 11.717c1.459 11.725 9.382 22.005 18.515 34.677-7.502-15.969-1.129-17.465.887-17.385 1.992.079 4.9-.261 9.039-1.634C-1.656 23.632 4.305 11.218 0 0" style="fill:#ff6f21;fill-opacity:1;fill-rule:nonzero;stroke:none" transform="translate(315.44 324.183)"/>
    <path d="M0 0c-3.962-6.212-6.744-11.986-7.504-18.094-1.203-9.673 3.698-17.03 13.111-19.68 8.172-2.301 16.954 2.105 19.996 10.03 1.649 4.298 1.477 8.947-.484 13.091-1.963 4.148-5.441 7.228-9.794 8.672-3.82 1.268-6.198 1.469-7.516 1.419C4.85-4.678 2.119-3.3.509-.872A8.59 8.59 0 0 0 0 0m9.977-46.963c-2.226 0-4.475.299-6.697.925-6.666 1.877-11.993 5.587-15.404 10.729-3.401 5.126-4.749 11.445-3.9 18.275 1.5 12.057 8.931 22.329 17.535 34.223l1.758 2.433 7.367-4.335C7 7.546 7.417 4.68 7.608 4.026c2.925.089 6.431-.534 10.421-1.858 6.601-2.191 11.875-6.86 14.85-13.149 2.974-6.284 3.236-13.33.739-19.839-3.788-9.869-13.446-16.143-23.641-16.143" style="fill:#282827;fill-opacity:1;fill-rule:nonzero;stroke:none" transform="translate(285.83 353.465)"/>
    <path d="M0 0a4.966 4.966 0 0 0-3.861 1.832l-2.888 3.537a4.973 4.973 0 0 0 .501 6.811 4.89 4.89 0 0 0-1.638 1.303l-.659.807a4.975 4.975 0 0 0 .705 6.993l.415.339-4.23 5.192a5.408 5.408 0 0 0 .77 7.597 5.422 5.422 0 0 0 3.417 1.219 5.385 5.385 0 0 0 4.182-1.982l18.043-22.207c1.878-2.301 1.533-5.71-.773-7.594a5.423 5.423 0 0 0-3.417-1.217 5.384 5.384 0 0 0-3.736 1.498L3.15 1.123A4.996 4.996 0 0 0 0 0" style="fill:#3dcc8e;fill-opacity:1;fill-rule:nonzero;stroke:none" transform="translate(304.592 286.161)"/>
    <path d="M0 0a8.884 8.884 0 0 1-6.899 3.269 8.946 8.946 0 0 1-5.631-2.004c-3.814-3.116-4.382-8.741-1.275-12.547l2.35-2.885c-1.726-2.968-1.539-6.824.758-9.637l.442-.542a8.482 8.482 0 0 1 1.354-8.379l2.888-3.538a8.461 8.461 0 0 1 6.581-3.122c1.952 0 3.86.679 5.372 1.914l1.73 1.412a8.932 8.932 0 0 1 9.105 1.313c3.805 3.109 4.373 8.734 1.267 12.54L.017-.021zm-6.899-3.755c.547 0 1.09-.238 1.464-.696L12.6-26.647a1.89 1.89 0 0 0-2.929-2.39l-1.796 2.213-6.377-5.205a1.47 1.47 0 0 0-2.07.209l-2.888 3.537a1.454 1.454 0 0 0 .207 2.046l6.408 5.231-2.618 3.228-3.17-2.59a1.395 1.395 0 0 0-1.963.198l-.66.809a1.457 1.457 0 0 0 .206 2.05l3.133 2.558-6.447 7.913a1.89 1.89 0 0 0 1.465 3.085" style="fill:#282828;fill-opacity:1;fill-rule:nonzero;stroke:none" transform="translate(304.023 322.034)"/>
  </g>
</svg>
