<svg xmlns="http://www.w3.org/2000/svg" viewBox="0 0 256 246.583">
  <path fill="#2e3234" d="M24.575 198.657c2.413.1 4.852.433 7.122 1.269v-.025l.347.124 29.962-29.226 1.101 1.467c1.554 2.103 3.206 4.028 4.95 5.952l.638.737c.458.458.823.915 1.281 1.373l.743.73.724.737.643.637.73.737.644.637.823.736.742.644a79.626 79.626 0 0 0 49.658 18.966 80.338 80.338 0 0 0 42.79-11.089l2.29 2.382c2.66 2.84 5.408 5.681 8.068 8.521a94.267 94.267 0 0 1-53.513 14.938 94.205 94.205 0 0 1-58.278-21.992l.093-.186-19.226 18.954a23.966 23.966 0 1 1-22.938-17.03h.619l-.013.007zM207.793 75.041a94.248 94.248 0 0 1 13.65 51.502 93.883 93.883 0 0 1-23.544 59.924l.093.093 11.819 12.555c4.764-.644 9.529 1.002 12.827 4.486 5.62 5.955 5.374 15.332-.55 20.983-5.955 5.617-15.326 5.37-20.978-.55a14.777 14.777 0 0 1-3.762-13.007 4578.15 4578.15 0 0 0-20.791-22.085l-1.2-1.28 1.373-1.102a74.254 74.254 0 0 0 9.9-9.437 79.317 79.317 0 0 0 20.068-50.945 79.453 79.453 0 0 0-9.9-40.686zM40.825 19.034c4.207-.062 8.168 1.603 11.1 4.604a14.79 14.79 0 0 1 3.757 13.013L78.41 60.475l-1.38 1.101c-3.57 2.84-6.868 5.953-9.894 9.437-22.49 25.318-26.6 62.055-10.26 91.717l-10.91 10.63a93.512 93.512 0 0 1-13.736-51.767c.47-22.06 9.065-43.371 23.501-59.967L43.22 48.569a14.888 14.888 0 0 1-12.827-4.499c-5.619-5.956-5.37-15.333.557-20.983a15.037 15.037 0 0 1 8.459-3.96c.47-.05.946-.062 1.423-.1l-.006.007zM232.038 0a23.966 23.966 0 1 1-7.475 46.737v.031l-.372-.13-32.53 30.878-1.101-1.466a76.131 76.131 0 0 0-5.68-6.683l-.372-.464-1.002-1.01-1.832-1.83-.643-.551-.638-.545-.823-.736-.643-.551-.83-.73a79.59 79.59 0 0 0-49.292-18.694c-15.124-.371-29.876 3.391-42.697 11.089l-10.452-10.91a94.26 94.26 0 0 1 53.514-14.937 93.772 93.772 0 0 1 58.277 22.085h.186l21.534-20.452A23.966 23.966 0 0 1 232.05 0h-.012z"/>
  <path fill="#047aed" d="M127.58 53.5c2.71.013 5.414.224 8.1.533 38.668 4.857 66.062 40.135 61.297 78.803-4.858 38.675-40.135 66.069-78.803 61.304-38.669-4.858-66.069-40.141-61.304-78.803C61.486 79.465 91.62 53.625 127.58 53.5zm.426 30.247-1.485.037c-15.655 1.257-26.98 13.094-27.381 28.83.247 10.928 4.962 18.644 13.898 24.684l2.153 1.17-5.445 25.611h36.515l-5.44-25.618c10.025-5.16 15.761-14.634 16.046-25.847-.21-16.237-12.772-28.464-28.86-28.867z"/>
</svg>
