<svg xmlns="http://www.w3.org/2000/svg" viewBox="0 0 512 148.825">
  <path fill="#2e3234" d="M14.832 119.9c1.457.06 2.928.261 4.3.765v-.014l.208.074 18.084-17.639.665.885c.937 1.27 1.934 2.432 2.987 3.593l.385.445c.276.276.497.552.773.829l.448.44.437.445.389.384.44.445.389.385.497.444.448.388a48.059 48.059 0 0 0 29.97 11.447 48.488 48.488 0 0 0 25.827-6.692l1.381 1.438c1.606 1.714 3.265 3.428 4.87 5.142a56.895 56.895 0 0 1-32.297 9.016 56.858 56.858 0 0 1-35.174-13.273l.056-.112-11.604 11.44a14.465 14.465 0 1 1-13.845-10.279h.374l-.008.004zM125.414 45.29a56.884 56.884 0 0 1 8.239 31.084 56.663 56.663 0 0 1-14.21 36.167l.055.056 7.134 7.578c2.875-.388 5.751.605 7.742 2.708a8.982 8.982 0 0 1-.333 12.664 8.982 8.982 0 0 1-12.66-.332 8.919 8.919 0 0 1-2.271-7.85c-4.168-4.457-8.351-8.9-12.549-13.33l-.724-.773.829-.665a44.817 44.817 0 0 0 5.975-5.695 47.872 47.872 0 0 0 12.112-30.748 47.954 47.954 0 0 0-5.976-24.556l6.637-6.308zM24.64 11.488a9.134 9.134 0 0 1 6.7 2.779 8.926 8.926 0 0 1 2.267 7.854L47.325 36.5l-.833.664a44.79 44.79 0 0 0-5.972 5.696c-13.574 15.28-16.054 37.453-6.192 55.356l-6.585 6.416a56.44 56.44 0 0 1-8.29-31.245c.283-13.314 5.47-26.176 14.184-36.193l-7.552-7.88a8.986 8.986 0 0 1-7.742-2.715 8.982 8.982 0 0 1 .336-12.665 9.075 9.075 0 0 1 5.106-2.39c.283-.03.571-.037.859-.06l-.004.004zM140.047 0a14.465 14.465 0 1 1-4.512 28.208v.02l-.224-.08-19.633 18.637-.665-.885a45.95 45.95 0 0 0-3.429-4.034l-.224-.28-.605-.609-1.105-1.105-.389-.332-.384-.329-.497-.444-.388-.333-.5-.44A48.036 48.036 0 0 0 77.74 26.71c-9.127-.224-18.031 2.046-25.77 6.692l-6.307-6.584a56.891 56.891 0 0 1 32.298-9.016 56.596 56.596 0 0 1 35.173 13.33h.112l12.997-12.344A14.465 14.465 0 0 1 140.054 0h-.007z"/>
  <path fill="#047aed" d="M77 32.29c1.637.008 3.269.135 4.89.322 23.338 2.931 39.872 24.223 36.996 47.562-2.932 23.342-24.224 39.875-47.562 37-23.338-2.932-39.876-24.228-37-47.562 2.786-21.65 20.974-37.247 42.677-37.321zm.258 18.256-.896.022c-9.449.758-16.283 7.903-16.526 17.4.15 6.596 2.995 11.253 8.388 14.898l1.3.706-3.287 15.458h22.039l-3.283-15.462c6.05-3.114 9.512-8.832 9.684-15.6-.127-9.8-7.708-17.18-17.419-17.422zM294.403 54.206c1.184 0 1.614.967 1.718 2.147l1.935 36.937c.108 1.288.216 1.826.859 1.826h.859l15.353-38.87c.43-1.177 1.505-2.036 2.686-2.036h17.717c.964 0 1.931.747 1.931 1.606a1.92 1.92 0 0 1-.21.754l-29.526 63.778c-5.262 11.488-11.383 18.147-28.242 18.147-4.295 0-11.38-.859-14.173-1.934-1.072-.43-2.04-.747-2.04-1.718v-.318l1.827-10.42c.213-1.18 1.501-2.252 2.79-2.252h.108c3.974.213 10.416.86 14.494.86 3.007 0 5.263-.968 6.551-4.08l1.505-3.547h-1.396c-5.05 0-7.84-1.931-8.486-7.406l-6.226-51.11v-.325c0-1.18.86-2.04 2.686-2.04zm-52.088-.967c15.57 0 22.871 10.307 22.871 23.088 0 1.784-.165 3.568-.422 5.353l-.115.764-1.076 6.443a2.753 2.753 0 0 1-2.506 2.355l-.175.009h-33.396c-.213 1.288-.322 2.36-.322 3.327 0 5.37 3.436 6.122 8.807 6.122l.396-.001c5.65-.018 15.758-.42 19.938-.83l.282-.028h.43c.91 0 1.536.38 1.603 1.24l.006.156v.43l-1.718 9.662c-.321 1.718-.86 2.468-2.685 3.01-7.194 2.252-14.495 3.324-23.514 3.324-11.918 0-23.731-7.406-23.731-22.655a33.178 33.178 0 0 1 .326-4.796l.104-.68 1.184-7.088c3.54-21.258 15.783-29.205 33.713-29.205zm-66.908-19.54c1.289 0 2.148.537 1.827 2.147l-7.731 43.487 17.822-23.192c1.288-1.718 2.043-1.935 3.115-1.935h19.97c1.504 0 1.613 1.397.754 2.256L186.682 84.27l13.744 30.064c.534 1.076 0 2.364-1.397 2.364h-19.327c-1.18 0-2.039-.646-2.685-2.364l-9.34-24.481-4.296 24.481c-.216 1.18-1.396 2.364-2.577 2.364h-16.107c-1.18 0-2.253-.646-1.931-2.364l13.852-78.489c.216-1.18.75-2.148 2.681-2.148zm63.902 35.54c-5.91 0-8.5 4.357-9.811 10.313l-.068.315h15.891c.322-1.501.538-3.006.538-4.295 0-3.757-1.718-6.334-6.55-6.334z"/>
  <path fill="#2e3234" d="M385.165 56.675c0-1.072-.646-1.393-1.827-1.718-2.898-.747-8.052-1.718-14.39-1.718-16.533 0-27.162 8.268-30.598 28.242l-1.397 8.052c-.33 2.024-.51 4.07-.538 6.121 0 12.56 7.302 22.009 21.154 22.009 6.334 0 11.275-.86 15.032-1.718 1.505-.321 2.364-.86 2.577-2.252l2.148-12.026v-.43c0-.97-.751-1.613-1.718-1.613h-.213c-3.761.217-7.197.646-12.456.646-3.652 0-5.8-1.288-5.8-6.121 0-1.289.109-2.79.43-4.616l1.397-8.052c1.501-8.915 4.616-10.846 9.232-10.846 5.262 0 8.485.538 12.134.75h.217c1.18 0 2.252-.858 2.465-2.038l2.15-12.135zm67.012-21.15c0-1.076-.964-1.83-2.04-1.83h-15.999c-1.18 0-2.252.97-2.465 2.151l-3.223 18.147c-2.147-.325-5.8-.754-7.518-.754-19.54 0-29.314 8.16-32.854 28.025l-1.505 8.377a33.698 33.698 0 0 0-.538 5.475c0 13.206 9.128 22.547 23.839 22.547 9.661 0 18.79-1.502 24.59-2.682 3.435-.754 3.97-1.397 4.294-3.436l13.423-75.703-.004-.317zm-26.733 35.218-5.154 29.419c-2.043.321-4.295.538-7.41.538-4.616 0-6.226-2.686-6.226-6.872 0-1.289.105-2.686.426-4.187l1.505-8.377c1.072-6.226 3.65-10.95 9.662-10.95 2.577 0 5.05.213 7.197.43zM512 71.49c0-12.026-4.941-18.251-16.859-18.251-3.97 0-9.878.97-17.392 5.908l.538-2.794c.32-1.61-.43-2.147-1.83-2.147h-14.708c-1.18 0-2.256.967-2.468 2.147l-10.308 57.982c-.217 1.505.967 2.364 2.468 2.364h15.354c1.613 0 2.685-1.075 2.902-2.364l7.301-41.553c1.93-1.075 5.901-2.364 9.124-2.364 3.653 0 5.05.86 5.05 4.19 0 1.823-.43 3.65-.755 5.476l-6.013 34.251c-.213 1.076 0 2.364 1.826 2.364h16.108c1.289 0 2.465-1.184 2.682-2.364l5.908-33.5c.534-3.007 1.072-6.551 1.072-9.341v-.004z"/>
</svg>
