<svg xmlns="http://www.w3.org/2000/svg" viewBox="0 0 256 256">
  <defs>
    <linearGradient id="a" x1="0" x2="128" y1="0" y2="184.118" gradientUnits="userSpaceOnUse">
      <stop offset="0%" stop-color="#5AE8FA"/>
      <stop offset="100%" stop-color="#2684FF"/>
    </linearGradient>
  </defs>
  <path fill="url(#a)" d="M59.669 0H196.33c20.748 0 28.273 2.16 35.858 6.217 7.585 4.057 13.537 10.01 17.594 17.594C253.84 31.397 256 38.921 256 59.67V196.33c0 20.748-2.16 28.272-6.217 35.858-4.057 7.584-10.009 13.537-17.594 17.594-7.585 4.056-15.11 6.217-35.858 6.217H59.669c-20.748 0-28.272-2.16-35.858-6.217-7.584-4.057-13.537-10.01-17.594-17.594C2.161 224.603 0 217.079 0 196.33V59.669C0 38.92 2.16 31.397 6.217 23.81c4.057-7.584 10.01-13.537 17.594-17.594C31.397 2.161 38.921 0 59.67 0zm13.687 66.048v132.934h29.23V156.16l16.757-16.943 40.029 59.765h36.677l-56.971-80.43 51.945-52.504H154.53l-51.945 55.11v-55.11z" style="fill:url(#a)"/>
</svg>
