<svg xmlns="http://www.w3.org/2000/svg" viewBox="0 0 256.002 275.849">
  <path fill="#14bf96" d="M16.253 57.155A35.066 35.066 0 0 0 0 84.735v106.38a35.066 35.066 0 0 0 16.253 27.58l95.446 53.387a36.937 36.937 0 0 0 32.505 0l95.545-53.387a35.066 35.066 0 0 0 16.252-27.58V84.735a35.066 35.066 0 0 0-16.252-27.58L144.303 3.768a36.938 36.938 0 0 0-32.505 0z"/>
  <path fill="#fff" d="M226.057 111.527c-52.992 0-92.59 43.93-92.59 97.81v2.266H122.83v-2.266c0-53.88-39.4-97.613-92.788-97.81v9.85c-.214 40.761 24.922 77.365 63.041 91.802a103.13 103.13 0 0 0 35.362 6.304 104.804 104.804 0 0 0 35.657-6.304c38.063-14.493 63.144-51.075 62.943-91.802-.494-3.152-.691-6.501-.987-9.85z"/>
  <circle cx="128.05" cy="86.114" r="29.55" fill="#fff"/>
</svg>
