<svg xmlns="http://www.w3.org/2000/svg" viewBox="0 0 256.001 97.862">
  <defs>
    <linearGradient id="a" x1="-.391" x2="41.546" y1="226.369" y2="250.9" gradientTransform="scale(2.59035 .38605)" gradientUnits="userSpaceOnUse">
      <stop offset="0%" stop-color="#FEEC7F"/>
      <stop offset="100%" stop-color="#F3A21B"/>
    </linearGradient>
    <linearGradient id="b" x1="120.581" x2="120.581" y1="-.874" y2="149.559" gradientTransform="scale(1.44713 .69102)" gradientUnits="userSpaceOnUse">
      <stop offset="0%" stop-color="#FEEC7F"/>
      <stop offset="19%" stop-color="#FEE97B"/>
      <stop offset="39%" stop-color="#FCDF6E"/>
      <stop offset="61%" stop-color="#FACF58"/>
      <stop offset="82%" stop-color="#F6B93A"/>
      <stop offset="100%" stop-color="#F3A21B"/>
    </linearGradient>
    <linearGradient id="c" x1="27.294" x2="82.318" y1="145.243" y2="145.243" gradientTransform="scale(1.84321 .54253)" gradientUnits="userSpaceOnUse">
      <stop offset="0%" stop-color="#FEEC7F"/>
      <stop offset="11%" stop-color="#FDE373"/>
      <stop offset="71%" stop-color="#F6B434"/>
      <stop offset="100%" stop-color="#F3A21B"/>
    </linearGradient>
    <linearGradient id="d" x1="168.917" x2="168.917" y1="-9.3" y2="97.215" gradientTransform="scale(1.01017 .98993)" gradientUnits="userSpaceOnUse">
      <stop offset="0%" stop-color="#FEEC7F"/>
      <stop offset="61%" stop-color="#F7BC3F"/>
      <stop offset="100%" stop-color="#F3A21B"/>
    </linearGradient>
    <linearGradient id="e" x1="120.025" x2="120.025" y1="31.113" y2="129.442" gradientTransform="scale(1.30672 .76528)" gradientUnits="userSpaceOnUse">
      <stop offset="0%" stop-color="#F9C32E"/>
      <stop offset="52%" stop-color="#F19819"/>
      <stop offset="100%" stop-color="#E96C04"/>
    </linearGradient>
    <linearGradient id="f" x1="60.013" x2="114.863" y1="140.233" y2="140.233" gradientTransform="scale(1.71322 .5837)" gradientUnits="userSpaceOnUse">
      <stop offset="0%" stop-color="#F7B425"/>
      <stop offset="6%" stop-color="#F3A620"/>
      <stop offset="21%" stop-color="#EC8816"/>
      <stop offset="37%" stop-color="#E6720E"/>
      <stop offset="55%" stop-color="#E26208"/>
      <stop offset="74%" stop-color="#E05805"/>
      <stop offset="100%" stop-color="#DF5504"/>
    </linearGradient>
    <linearGradient id="g" x1="37.275" x2="37.275" y1="159.359" y2="184.817" gradientTransform="scale(1.82431 .54815)" gradientUnits="userSpaceOnUse">
      <stop offset="0%" stop-color="#FEEC7F"/>
      <stop offset="61%" stop-color="#F7BD40"/>
      <stop offset="100%" stop-color="#F3A21B"/>
    </linearGradient>
    <linearGradient id="h" x1="52.391" x2="52.391" y1="120.274" y2="170.889" gradientTransform="scale(1.83442 .54513)" gradientUnits="userSpaceOnUse">
      <stop offset="0%" stop-color="#FEEC7F"/>
      <stop offset="23%" stop-color="#FEEA7C"/>
      <stop offset="42%" stop-color="#FCE271"/>
      <stop offset="60%" stop-color="#FBD560"/>
      <stop offset="78%" stop-color="#F8C347"/>
      <stop offset="94%" stop-color="#F4AC28"/>
      <stop offset="100%" stop-color="#F3A21B"/>
    </linearGradient>
    <linearGradient id="i" x1="204.101" x2="204.101" y1="25.156" y2="83.346" gradientTransform="scale(1.09647 .91202)" gradientUnits="userSpaceOnUse">
      <stop offset="0%" stop-color="#F9C32E"/>
      <stop offset="52%" stop-color="#F19819"/>
      <stop offset="100%" stop-color="#E96C04"/>
    </linearGradient>
    <linearGradient id="j" x1="262.906" x2="244.484" y1="52.268" y2="71.362" gradientTransform="scale(.84373 1.1852)" gradientUnits="userSpaceOnUse">
      <stop offset="0%" stop-color="#E66A09"/>
      <stop offset="100%" stop-color="#E66A09"/>
    </linearGradient>
    <linearGradient id="k" x1="72.078" x2="72.078" y1="121.467" y2="140.722" gradientTransform="scale(1.4351 .69681)" gradientUnits="userSpaceOnUse">
      <stop offset="0%" stop-color="#F7B425"/>
      <stop offset="6%" stop-color="#F3A620"/>
      <stop offset="21%" stop-color="#EC8816"/>
      <stop offset="37%" stop-color="#E6720E"/>
      <stop offset="55%" stop-color="#E26208"/>
      <stop offset="74%" stop-color="#E05805"/>
      <stop offset="100%" stop-color="#DF5504"/>
    </linearGradient>
    <linearGradient id="l" x1="373.479" x2="373.479" y1="6.663" y2="40.337" gradientTransform="scale(.55896 1.78904)" gradientUnits="userSpaceOnUse">
      <stop offset="0%" stop-color="#F7B425"/>
      <stop offset="35%" stop-color="#EF961A"/>
      <stop offset="100%" stop-color="#DF5504"/>
    </linearGradient>
  </defs>
  <path fill="url(#a)" d="M107.41 97.862H58.533c-7.576-.245-16.008-.856-23.095-2.2-3.544-.61-6.843-1.466-10.02-2.322-1.589-.488-3.055-.855-4.521-1.344a159.05 159.05 0 0 1-7.943-2.933c-1.222-.488-2.322-1.1-3.3-1.588-2.077-1.1-3.91-1.955-5.254-2.81-1.466-.856-2.566-1.59-3.3-2.078L0 81.854s.367.244 1.222.733c.733.489 1.833 1.1 3.3 1.955 1.466.856 3.299 1.71 5.376 2.689a59.353 59.353 0 0 0 7.21 2.81c1.344.489 2.688.978 4.154 1.344 1.467.489 2.933.856 4.521 1.222 3.178.733 6.477 1.467 10.02 2.077 6.966 1.222 14.542 1.956 22.118 2.2 3.544.244 49.49.978 49.49.978z" style="fill:url(#a)"/>
  <path fill="url(#b)" d="M256.001 58.392c0-19.551-16.13-38.37-35.315-38.37-14.785 0-31.526 1.834-63.542 42.525-41.424 52.3-62.93 26.76-64.153 25.05 3.055 5.988 9.165 10.265 16.375 10.265h111.32c19.43 0 35.315-19.918 35.315-39.47z" style="fill:url(#b)"/>
  <path fill="url(#c)" d="M109.488 97.862c-10.142 0-18.452-8.188-18.452-18.33 0-10.142 8.432-19.796 18.33-19.796 19.429 0 22.117 17.597 52.422 26.273 19.673 5.62 58.776 11.853 58.776 11.853z" style="fill:url(#c)"/>
  <path fill="url(#d)" d="M220.564 97.862c-3.91-1.589-19.185-6.599-21.75-23.218-2.567-16.863 7.575-25.905 4.398-45.335-2.81-17.107-17.107-25.539-31.404-28.471-7.332-1.467-15.397-1.1-23.584 1.833-22.973 8.309-30.671 34.459-26.394 52.422 3.543 14.786 18.207 29.327 53.4 35.559 30.06 5.254 32.504 5.743 45.334 7.21z" style="fill:url(#d)"/>
  <path fill="url(#e)" d="M198.813 74.644c-2.566-16.863 7.576-25.905 4.4-45.335a46.435 46.435 0 0 0-1.59-6.232c-11.119 4.4-25.05 14.664-44.479 39.348-41.424 52.422-62.93 26.883-64.153 25.172 3.055 5.988 9.287 10.265 16.497 10.265h111.198c-4.032-1.589-19.307-6.599-21.873-23.218z" style="fill:url(#e)"/>
  <path fill="url(#f)" d="M126.595 65.846c5.01 9.287 26.028 24.317 93.97 32.016-53.767-6.966-78.817-17.108-93.97-32.016z" style="fill:url(#f)"/>
  <path fill="url(#g)" d="M58.654 97.862c-2.077 0-3.666-1.711-3.666-3.788 0-2.078 1.711-4.033 3.666-4.033 3.91 0 4.521 4.277 10.631 5.988 3.91 1.1 11.731 1.71 11.731 1.71z" style="fill:url(#g)"/>
  <path fill="url(#h)" d="M109.488 97.862c-5.255 0-10.265-2.444-13.686-5.988-9.654-3.666-11.242-9.41-18.452-9.41-4.032 0-7.332 3.911-7.332 7.944 0 4.032 3.3 7.454 7.332 7.454h44.48z" style="fill:url(#h)"/>
  <path fill="url(#i)" d="M239.993 26.743c-1.222-.977-2.566-1.833-3.788-2.566-1.344-.733-2.81-1.466-4.52-1.955-3.178-1.222-6.477-1.833-9.654-2.2h-1.345c-5.743 0-11.853.245-19.062 3.055.733 1.956 1.344 4.033 1.588 6.232 2.2 13.442-2.077 22.118-4.032 31.65 9.409-7.577 27.494-7.821 37.636-7.21h1.1c1.1 0 2.077-.122 2.933-.367 9.898-2.566 10.509-17.596-.856-26.639z" style="fill:url(#i)"/>
  <path fill="#e35702" d="M199.302 60.836c-.855 4.155-1.222 8.676-.489 13.808 2.566 16.619 17.597 21.262 21.751 23.218h.122c6.721 0 12.953-2.444 18.208-6.232-1.222-1.1-7.82-6.966-9.776-12.953-6.232-18.94 7.943-24.562 8.798-24.928-6.843-.122-29.205-.367-38.614 7.087z" opacity=".47"/>
  <path fill="url(#j)" d="M198.813 74.644c2.2 14.42 14.297 21.018 21.751 23.218-4.277-2.078-15.274-8.799-15.152-20.407.366-22.729 24.195-23.584 24.195-23.584-10.02 0-22.85 1.1-30.427 6.965-.978 4.277-1.222 8.676-.367 13.808z" style="fill:url(#j)"/>
  <path fill="url(#k)" d="M114.01 97.862c-4.278-.123-15.275-1.467-21.14-10.265 3.176 6.477 9.53 10.265 16.74 10.265z" style="fill:url(#k)"/>
  <path fill="url(#l)" d="M197.47 74.644c-2.567-16.863 8.43-25.905 5.254-45.335-.367-2.199-1.222-6.232-1.222-6.232.733 1.956 1.344 4.033 1.588 6.232 3.177 19.43-6.965 28.472-4.399 45.335 2.566 16.619 17.84 21.629 21.751 23.218.122 0-20.162-4.888-22.973-23.218z" style="fill:url(#l)"/>
  <path fill="#eb7808" d="M107.41 97.862H58.533c-1.466 0-2.322-.978-2.322-.978 1.344.122 51.2.978 51.2.978z"/>
  <path fill="#e35702" d="M109.243 97.862H79.672c-3.422 0-5.132-.611-5.132-.611zM199.302 60.836c9.41-7.576 28.227-7.82 38.736-7.087 0 0-14.663-.367-24.806 1.833-10.264 2.321-13.93 5.254-13.93 5.254z"/>
</svg>
