<svg xmlns="http://www.w3.org/2000/svg" viewBox="0 0 512.005 99.212">
  <defs>
    <linearGradient id="a" x1="-.393" x2="41.754" y1="227.505" y2="252.159" gradientTransform="scale(2.59035 .38605)" gradientUnits="userSpaceOnUse">
      <stop offset="0%" stop-color="#FEEC7F"/>
      <stop offset="100%" stop-color="#F3A21B"/>
    </linearGradient>
    <linearGradient id="b" x1="121.186" x2="121.186" y1="-.878" y2="150.309" gradientTransform="scale(1.44713 .69102)" gradientUnits="userSpaceOnUse">
      <stop offset="0%" stop-color="#FEEC7F"/>
      <stop offset="19%" stop-color="#FEE97B"/>
      <stop offset="39%" stop-color="#FCDF6E"/>
      <stop offset="61%" stop-color="#FACF58"/>
      <stop offset="82%" stop-color="#F6B93A"/>
      <stop offset="100%" stop-color="#F3A21B"/>
    </linearGradient>
    <linearGradient id="c" x1="27.431" x2="82.731" y1="145.972" y2="145.972" gradientTransform="scale(1.84321 .54253)" gradientUnits="userSpaceOnUse">
      <stop offset="0%" stop-color="#FEEC7F"/>
      <stop offset="11%" stop-color="#FDE373"/>
      <stop offset="71%" stop-color="#F6B434"/>
      <stop offset="100%" stop-color="#F3A21B"/>
    </linearGradient>
    <linearGradient id="d" x1="169.765" x2="169.765" y1="-9.347" y2="97.702" gradientTransform="scale(1.01017 .98993)" gradientUnits="userSpaceOnUse">
      <stop offset="0%" stop-color="#FEEC7F"/>
      <stop offset="61%" stop-color="#F7BC3F"/>
      <stop offset="100%" stop-color="#F3A21B"/>
    </linearGradient>
    <linearGradient id="e" x1="120.627" x2="120.627" y1="31.27" y2="130.091" gradientTransform="scale(1.30672 .76528)" gradientUnits="userSpaceOnUse">
      <stop offset="0%" stop-color="#F9C32E"/>
      <stop offset="52%" stop-color="#F19819"/>
      <stop offset="100%" stop-color="#E96C04"/>
    </linearGradient>
    <linearGradient id="f" x1="60.314" x2="115.439" y1="140.937" y2="140.937" gradientTransform="scale(1.71322 .5837)" gradientUnits="userSpaceOnUse">
      <stop offset="0%" stop-color="#F7B425"/>
      <stop offset="6%" stop-color="#F3A620"/>
      <stop offset="21%" stop-color="#EC8816"/>
      <stop offset="37%" stop-color="#E6720E"/>
      <stop offset="55%" stop-color="#E26208"/>
      <stop offset="74%" stop-color="#E05805"/>
      <stop offset="100%" stop-color="#DF5504"/>
    </linearGradient>
    <linearGradient id="g" x1="37.462" x2="37.462" y1="160.158" y2="185.744" gradientTransform="scale(1.82431 .54815)" gradientUnits="userSpaceOnUse">
      <stop offset="0%" stop-color="#FEEC7F"/>
      <stop offset="61%" stop-color="#F7BD40"/>
      <stop offset="100%" stop-color="#F3A21B"/>
    </linearGradient>
    <linearGradient id="h" x1="52.654" x2="52.654" y1="120.877" y2="171.746" gradientTransform="scale(1.83442 .54513)" gradientUnits="userSpaceOnUse">
      <stop offset="0%" stop-color="#FEEC7F"/>
      <stop offset="23%" stop-color="#FEEA7C"/>
      <stop offset="42%" stop-color="#FCE271"/>
      <stop offset="60%" stop-color="#FBD560"/>
      <stop offset="78%" stop-color="#F8C347"/>
      <stop offset="94%" stop-color="#F4AC28"/>
      <stop offset="100%" stop-color="#F3A21B"/>
    </linearGradient>
    <linearGradient id="i" x1="205.124" x2="205.124" y1="25.282" y2="83.764" gradientTransform="scale(1.09647 .91202)" gradientUnits="userSpaceOnUse">
      <stop offset="0%" stop-color="#F9C32E"/>
      <stop offset="52%" stop-color="#F19819"/>
      <stop offset="100%" stop-color="#E96C04"/>
    </linearGradient>
    <linearGradient id="j" x1="264.225" x2="245.71" y1="52.53" y2="71.72" gradientTransform="scale(.84373 1.1852)" gradientUnits="userSpaceOnUse">
      <stop offset="0%" stop-color="#E66A09"/>
      <stop offset="100%" stop-color="#E66A09"/>
    </linearGradient>
    <linearGradient id="k" x1="72.439" x2="72.439" y1="122.076" y2="141.428" gradientTransform="scale(1.4351 .69681)" gradientUnits="userSpaceOnUse">
      <stop offset="0%" stop-color="#F7B425"/>
      <stop offset="6%" stop-color="#F3A620"/>
      <stop offset="21%" stop-color="#EC8816"/>
      <stop offset="37%" stop-color="#E6720E"/>
      <stop offset="55%" stop-color="#E26208"/>
      <stop offset="74%" stop-color="#E05805"/>
      <stop offset="100%" stop-color="#DF5504"/>
    </linearGradient>
    <linearGradient id="l" x1="375.353" x2="375.353" y1="6.697" y2="40.539" gradientTransform="scale(.55896 1.78904)" gradientUnits="userSpaceOnUse">
      <stop offset="0%" stop-color="#F7B425"/>
      <stop offset="35%" stop-color="#EF961A"/>
      <stop offset="100%" stop-color="#DF5504"/>
    </linearGradient>
  </defs>
  <path fill="#333" d="M441.499 22.21c-.246 2.703-.614 5.527-.737 8.475-.123 3.07-.246 6.14-.246 9.087h13.632l-3.807 10.562h-9.825v28.86c0 1.842.123 3.316.246 4.544.123 1.105.614 2.088.983 2.825.368.737 1.105 1.105 1.964 1.473.86.246 1.965.369 3.316.369.737 0 1.474-.123 2.334-.246.86-.123 1.842-.368 3.316-.86l1.842 9.211a33.772 33.772 0 0 1-12.404 2.702c-3.93 0-7.246-.737-10.193-2.333-2.825-1.597-4.79-3.562-5.65-6.14-.245-.615-.368-1.106-.613-1.72-.123-.368-.246-.983-.246-1.72 0-.736-.123-1.473-.123-2.333V50.334h-5.772V39.772h5.772v-7.368c0-1.965.123-4.176.614-6.386zM485.465 38.3c8.228 0 14.737 2.947 19.772 8.842 2.456 2.702 3.93 5.772 5.158 9.088.982 3.316 1.596 7.368 1.596 12.28.123 4.913-.614 9.211-1.719 12.773-1.105 3.561-2.947 6.877-5.526 9.702-2.088 2.579-4.79 4.421-7.86 6.018-2.948 1.473-6.877 2.087-11.421 2.087-3.93 0-7.492-.737-10.685-2.087-3.316-1.474-6.017-3.44-8.228-6.14-2.333-2.58-3.93-5.773-5.28-9.58-1.229-3.684-1.843-7.86-1.843-12.404s.614-8.72 1.842-12.526c1.228-3.807 2.948-7 5.281-9.702 2.333-2.702 5.035-4.667 8.228-6.263 3.316-1.474 6.878-2.088 10.685-2.088zm-110.406-.123c1.474 2.456 2.088 4.79 2.088 7.246 1.105-.86 2.333-1.597 3.316-2.334.982-.737 2.088-1.473 3.438-1.965 1.597-.86 3.07-1.473 5.036-1.842 1.842-.368 3.684-.614 5.403-.614 3.316 0 6.14.737 8.72 2.334a12.158 12.158 0 0 1 5.28 6.14c.737 1.965 1.106 4.667 1.106 8.228v42.37h-14.737v-37.58h-.369c0-3.316-.368-5.527-1.105-6.632-.737-1.105-2.088-1.72-3.93-1.72-1.596 0-3.316.37-5.158 1.474-1.842.983-3.684 2.334-5.404 3.808v40.895h-15.228v-42.37c0-5.157-.737-9.701-1.965-13.631zm-93.335-19.404v36.106l22.474-36.106h19.65L298.549 55.37l28.123 42.37h-20.877l-24.07-41.142v41.141h-16.457V18.772zm65.826 19.404v59.562h-15.351V40.632zm138.406 11.667c-1.842 0-3.439.614-4.79 1.596-1.473.983-2.456 2.58-2.947 4.299-.614 1.596-.983 3.316-1.105 5.403-.246 2.088-.369 4.544-.369 7.492 0 6.509.737 11.544 1.965 14.614.737 1.596 1.72 2.825 3.316 3.561a8.597 8.597 0 0 0 4.544 1.106c3.439 0 5.772-1.597 7.246-4.667 1.473-3.07 2.087-8.105 2.087-14.983-.368-7.614-1.473-12.65-3.438-15.351a8.105 8.105 0 0 0-6.51-3.07zM340.427 14.35c2.579 0 4.667.86 6.509 2.702 1.842 1.842 2.702 4.175 2.702 6.631a12.28 12.28 0 0 1-3.07 6.632 9.186 9.186 0 0 1-6.632 2.702c-2.58 0-4.79-.86-6.51-2.702a9.186 9.186 0 0 1-2.7-6.632c0-2.701.982-4.79 2.824-6.631 1.842-1.842 4.175-2.702 6.877-2.702z"/>
  <path fill="url(#a)" d="M107.95 98.352H58.825c-7.615-.245-16.088-.86-23.211-2.21-3.562-.614-6.878-1.474-10.07-2.334-1.597-.49-3.07-.86-4.545-1.35a159.849 159.849 0 0 1-7.982-2.948c-1.228-.491-2.334-1.105-3.316-1.596-2.088-1.106-3.93-1.965-5.28-2.825a61.772 61.772 0 0 1-3.317-2.088L0 82.264s.368.246 1.228.737c.737.492 1.842 1.106 3.316 1.965 1.474.86 3.316 1.72 5.404 2.702a59.65 59.65 0 0 0 7.245 2.825c1.351.49 2.702.982 4.176 1.35 1.474.492 2.947.86 4.544 1.229 3.193.736 6.509 1.473 10.07 2.087 7 1.228 14.614 1.965 22.229 2.211 3.561.246 49.737.982 49.737.982z" style="fill:url(#a)"/>
  <path fill="url(#b)" d="M257.285 58.685c0-19.65-16.21-38.562-35.492-38.562-14.86 0-31.684 1.842-63.86 42.738-41.633 52.562-63.247 26.895-64.475 25.175 3.07 6.018 9.21 10.316 16.456 10.316h111.88c19.526 0 35.491-20.017 35.491-39.667z" style="fill:url(#b)"/>
  <path fill="url(#c)" d="M110.037 98.352c-10.193 0-18.544-8.228-18.544-18.42 0-10.194 8.474-19.896 18.421-19.896 19.527 0 22.229 17.684 52.685 26.404 19.773 5.65 59.072 11.912 59.072 11.912z" style="fill:url(#c)"/>
  <path fill="url(#d)" d="M221.67 98.352c-3.93-1.596-19.28-6.631-21.86-23.333-2.578-16.948 7.615-26.036 4.422-45.563C201.407 12.263 187.038 3.79 172.67.842 165.3-.632 157.196-.263 148.968 2.684c-23.089 8.351-30.826 34.632-26.527 52.685 3.561 14.86 18.298 29.474 53.667 35.738 30.211 5.28 32.668 5.772 45.563 7.245z" style="fill:url(#d)"/>
  <path fill="url(#e)" d="M199.81 75.019c-2.578-16.948 7.615-26.036 4.422-45.563a46.668 46.668 0 0 0-1.597-6.263c-11.176 4.421-25.176 14.737-44.702 39.545-41.633 52.685-63.247 27.018-64.475 25.298 3.07 6.018 9.333 10.316 16.579 10.316h111.756c-4.052-1.596-19.404-6.631-21.983-23.333z" style="fill:url(#e)"/>
  <path fill="url(#f)" d="M127.23 66.176c5.035 9.334 26.159 24.44 94.44 32.176-54.035-7-79.211-17.193-94.44-32.176z" style="fill:url(#f)"/>
  <path fill="url(#g)" d="M58.948 98.352c-2.087 0-3.684-1.719-3.684-3.807 0-2.087 1.72-4.052 3.684-4.052 3.93 0 4.544 4.298 10.685 6.017 3.93 1.106 11.79 1.72 11.79 1.72z" style="fill:url(#g)"/>
  <path fill="url(#h)" d="M110.037 98.352c-5.28 0-10.316-2.456-13.755-6.017-9.702-3.684-11.298-9.457-18.544-9.457-4.053 0-7.368 3.93-7.368 7.983 0 4.053 3.315 7.491 7.368 7.491h44.703z" style="fill:url(#h)"/>
  <path fill="url(#i)" d="M241.197 26.878c-1.228-.983-2.579-1.843-3.807-2.58-1.35-.736-2.824-1.473-4.544-1.964-3.193-1.229-6.509-1.843-9.702-2.211h-1.35c-5.773 0-11.913.246-19.159 3.07.737 1.965 1.351 4.053 1.597 6.263 2.21 13.51-2.088 22.229-4.053 31.808 9.456-7.614 27.632-7.86 37.825-7.246h1.105c1.106 0 2.088-.122 2.948-.368 9.947-2.58 10.561-17.685-.86-26.772z" style="fill:url(#i)"/>
  <path fill="#e35702" d="M200.302 61.141c-.86 4.176-1.228 8.72-.491 13.878 2.578 16.702 17.684 21.368 21.86 23.333h.122c6.755 0 13.018-2.456 18.299-6.263-1.228-1.105-7.86-7-9.825-13.018-6.263-19.035 7.983-24.684 8.842-25.053-6.877-.122-29.35-.368-38.807 7.123z" opacity=".47"/>
  <path fill="url(#j)" d="M199.81 75.019c2.211 14.491 14.37 21.123 21.86 23.333-4.298-2.087-15.35-8.842-15.228-20.509.369-22.842 24.316-23.702 24.316-23.702-10.07 0-22.965 1.105-30.58 7-.982 4.299-1.227 8.72-.367 13.878z" style="fill:url(#j)"/>
  <path fill="url(#k)" d="M114.581 98.352c-4.298-.122-15.351-1.473-21.246-10.316 3.193 6.51 9.58 10.316 16.825 10.316z" style="fill:url(#k)"/>
  <path fill="url(#l)" d="M198.46 75.019c-2.58-16.948 8.473-26.036 5.28-45.563-.368-2.21-1.228-6.263-1.228-6.263.737 1.965 1.351 4.053 1.597 6.263 3.193 19.527-7 28.615-4.421 45.563 2.579 16.702 17.93 21.737 21.86 23.333.123 0-20.264-4.912-23.088-23.333z" style="fill:url(#l)"/>
  <path fill="#eb7808" d="M107.95 98.352H58.825c-1.474 0-2.334-.982-2.334-.982 1.351.123 51.457.982 51.457.982z"/>
  <path fill="#e35702" d="M109.791 98.352h-29.72c-3.438 0-5.157-.614-5.157-.614zM200.302 61.141c9.456-7.614 28.369-7.86 38.93-7.123 0 0-14.737-.368-24.93 1.842-10.316 2.334-14 5.281-14 5.281z"/>
</svg>
