<svg xmlns="http://www.w3.org/2000/svg" viewBox="0 0 512 177.735">
  <path d="m76.172 0 76.172 44.425v88.885l-76.172 44.425L0 133.31V44.425zm0 9.987L8.464 49.482v78.77l67.708 39.492 67.709-39.491v-78.77zM470.765 68.61l9.903 35.327 10.427-35.327H512l-25.539 73.142-1.1 2.666c-3.631 8.104-10.038 12.158-19.225 12.158a30.473 30.473 0 0 1-8.053-1.16V141.46h2.547c2.743 0 4.837-.393 6.285-1.185 1.447-.791 2.522-2.213 3.216-4.257l1.565-4.168-21.776-63.24zm-61.614-26.292v31.328c3.626-4.13 8.32-6.196 14.07-6.196 7.8 0 13.821 2.802 18.07 8.396 4.245 5.599 6.369 13.474 6.369 23.63v.982h.004c0 10.271-2.129 18.168-6.373 23.69-4.249 5.518-10.233 8.277-17.951 8.277-6.374 0-11.51-2.526-15.404-7.583l-.813 6.428h-17.49V42.318zm-151.845 4.634v37.176l7.067-10.71 18.184-26.466h25.136l-28.496 37.294 28.496 47.024h-24.091L265.65 99.883h-.004l-8.337 9.15v22.237h-20.33V46.952zm75.228 21.658v62.66h-19.576V68.61zm44.823-1.16c2.082 0 3.898.233 5.442.695l-.347 18.128-6.428-.465c-6.136 0-10.076 1.93-11.815 5.793v39.67h-19.513V68.61h18.298l.635 8.049c3.284-6.136 7.859-9.209 13.728-9.209zm-267.33.259v21.159l-21.16 10.96v1.735h21.16v16.927h-67.71v-16.927h21.16v-1.85l-21.16-10.845v-21.16l33.855 18.185zM418.3 82.507c-4.401 0-7.448 1.68-9.15 5.036v24.904c1.66 3.322 4.749 4.98 9.268 4.98 4.592 0 7.507-2.238 8.743-6.715.618-2.2.927-6.026.927-11.468 0-6.022-.804-10.317-2.404-12.886-1.604-2.564-4.062-3.85-7.384-3.85zm-95.626-40.19c5.843 0 10.58 4.737 10.58 10.58s-4.737 10.58-10.58 10.58-10.58-4.737-10.58-10.58 4.737-10.58 10.58-10.58z"/>
</svg>
