<svg xmlns="http://www.w3.org/2000/svg" viewBox="0 0 256 255.102">
  <path fill="#4551ff" d="M168.87 0c-46.26 0-84.435 36.379-86.68 82.19C36.378 84.434 0 122.16 0 168.42c0 47.607 39.074 86.68 86.68 86.68h134.288c19.313 0 35.032-15.719 35.032-34.582V86.681C256 38.625 216.926 0 168.87 0zM75.902 216.926c-17.965-4.49-32.337-18.863-36.828-36.379-.45-2.245-.45-3.143-.899-5.39H75.902zm45.81 1.348h-35.48v-81.74h35.48zm48.056 0h-35.48V69.164h35.48zm48.057-7.186c0 4.042-3.144 7.635-7.186 7.635h-28.744V97.909h35.93z"/>
</svg>
