<svg xmlns="http://www.w3.org/2000/svg" viewBox="0 0 256 256">
  <path fill="#3cb5e8" d="M203.031 255.89h-74.936c-24.974 0-49.961.247-74.934 0-25.353-.25-47.655-18.5-52.145-43.634-1.61-9.012-.824-18.753-.824-27.862V82.08c0-9.535-.068-19.074 0-28.61C.35 31.231 13.927 10.92 35.01 3.23 45.46-.58 56.34.038 67.237.038h47.276c28.945 0 57.89-.038 86.834 0 19.592.026 37.8 9.432 47.682 26.695C255.633 38.27 256 50.414 256 63.172v136.103c0 17.274-5.68 33.352-19.377 44.6-9.423 7.74-21.4 12.016-33.592 12.016"/>
  <path fill="#fff" d="M46.365 63.143v132.508h36.329l-.167-42.711 16.825-20.404 20.571 63.115h38.945l-31.913-88.395 31.996-44.281h-45.704L82.527 99.22V63.059l-36.162.084M215.119 63.059h-49.277l28.428 43.137-27.367 89.455h48.216V63.059"/>
</svg>
