<svg xmlns="http://www.w3.org/2000/svg" viewBox="0 0 512 274.847">
  <path d="M25.652 0v182.498l80.622-90.882h3.665l-59.734 67.429 78.79 115.802h-25.653l-67.795-99.678-9.895 11.36v88.318H0V0zM153.01 184.73c0-59.454 38.362-92.562 88.304-92.562 45.962 0 85.409 23.496 85.409 88.29 0 59.453-38.362 92.561-88.304 92.561-45.962 0-85.409-23.496-85.409-88.29zm23.796.011c0 62.635 27.497 85.899 61.594 85.899 35.93 0 64.527-32.928 64.527-90.194 0-62.634-27.498-85.899-61.594-85.899-35.93 0-64.527 32.928-64.527 90.194zm324.184 87.216c-43.328 0-41.197-25.276-41.197-25.276v-4.985c-7.103 12.817-20.599 31.685-55.758 31.685-41.553 0-48.656-26.344-50.787-40.585-3.551-23.852 4.972-41.653 68.189-45.925 15.982-1.424 34.094-.712 38.356-.356v-59.097s3.907-32.04-37.29-32.04c-22.02 0-49.366 9.256-58.245 14.24l-1.42-2.492c4.616-2.136 26.28-14.597 64.281-14.597 51.497 0 57.534 22.785 57.534 34.89V246.68c0 23.14 16.337 22.428 16.337 22.428H512v2.848zm-90.741-.956c26.626 0 48.348-24.237 49.4-38.707v-43.772c-4.205-.361-20.672-1.808-38.19.362-37.136 4.341-44.494 17.364-42.392 43.772C380.47 250.382 385.724 271 410.25 271z"/>
</svg>
