<svg xmlns="http://www.w3.org/2000/svg" viewBox="0 0 512 166.4">
  <path fill="#043558" d="M469.743 112.198h23.976V75.325h-23.976zm23.844-51.358H512v68.477c0 11.325-1.192 13.3-4.239 16.33-2.384 2.501-6.226 3.686-12.85 3.686h-26.89l-8.346-9.218v-3.819h33.912v-9.35h-23.182c-7.02 0-10.598-1.316-13.512-4.213-3.841-3.951-5.431-12.51-5.431-28.708s1.855-25.153 5.829-29.235c3.046-2.897 6.755-4.082 13.379-4.082l13.777.132 9.14 8.296zM276.339 42.667h21.725L266.8 82.173l32.587 44.642h-23.05l-24.77-35.029h-5.83v35.029h-19.605V42.667h19.606v32.658h5.828zm143.066 38.98v-6.059h-22.52v50.963h-18.28V60.84h18.28v8.295l9.14-8.295h5.3c.794-.132 1.721-.132 2.648-.132h7.949c5.563 0 9.14 1.185 11.657 3.687 2.782 2.634 3.841 6.058 3.841 15.803v46.353h-18.28V82.436c.265-.263.265-.527.265-.79zM323.1 112.065h23.977V75.193H323.1zm.795 14.485c-6.623 0-10.2-1.053-12.982-4.082-4.239-4.346-5.961-10.271-5.961-28.84 0-18.699 1.722-24.493 5.961-28.97 2.782-2.898 6.359-3.951 12.982-3.951h22.255c6.623 0 10.2 1.053 12.982 3.95 4.239 4.478 5.96 10.272 5.96 28.972 0 18.7-1.721 24.493-5.96 28.84-2.915 3.028-6.359 4.081-12.982 4.081z"/>
  <path fill="#169fcc" d="m97.745 136.533 17.455 22.3-3.103 7.567H68.913l1.034-7.566-10.214-16.46 4.526-5.84z"/>
  <path fill="#14b59a" d="m104.985 38.4 84.455 98.098-6.548 29.902h-36.214l2.272-8.393-78.977-91.673L86.143 38.4z"/>
  <path fill="#1bc263" d="m120.57 0 39.798 31.201-5.162 5.268 6.927 9.59v10.266l-19.83 16.208-33.28-39.44H89.6l7.742-14.318z"/>
  <path fill="#16bdcc" d="m66.047 72.533 36.353 42.24-10.253 15.384H58.59l-23.17 29.464-5.326 6.779H0v-36.113L28.097 95.48h10.52z"/>
</svg>
