<svg xmlns="http://www.w3.org/2000/svg" viewBox="0 0 256 298.667">
  <path fill="#8aa964" d="M85.353 224.769v49.265l42.664 24.633 42.666-24.633v-49.265l-42.666-24.632zM128.017 0 0 73.907v147.796l42.665 24.633V98.54l42.688-24.646v98.535l85.329-49.269V73.894l42.659-24.624zm85.324 49.27.005.003v-.006zm-.006 98.526-42.664 24.634 42.665 24.632-.001 49.265L256 221.694l85.329-147.791-42.654-24.63z"/>
  <path fill="#5e7745" d="m170.682 73.898-42.665-24.633 42.665-24.632z"/>
  <path fill="#738f54" d="m85.352 224.769 42.665 24.633-42.665 24.632z"/>
  <path fill="#5e7644" d="m170.682 274.034-42.665-24.633 42.665-24.632z"/>
  <path fill="#a1b982" d="m85.353 274.035 42.664 24.632v-49.265z"/>
  <path fill="#738f54" d="m170.682 224.769-42.665 24.633v-49.266z"/>
  <path fill="#8aa964" d="m128.017 298.667 42.665-24.632-42.665-24.633z"/>
  <path fill="#8ba964" d="M128.017 200.136v49.265L85.352 224.77z"/>
  <path fill="#738f53" d="m85.352 73.894 42.665 24.633-42.665 24.632zM85.352 123.164l42.665 24.633-42.665 24.632z"/>
  <path fill="#5e7745" d="m170.682 123.16-42.665-24.634 42.665-24.632z"/>
  <path fill="#5e7644" d="m85.352 123.16 42.665-24.634v49.267z"/>
  <path fill="#475d34" d="m170.682 73.894-42.665 24.633V49.26zM128.017 147.792V98.527l42.665 24.632z"/>
  <path fill="#5e7644" d="M128.017 49.261v49.265L85.352 73.894z"/>
  <path fill="#738f54" d="m85.352 24.633 42.665 24.633-42.665 24.632zM128.017 0v49.265l42.665-24.632z"/>
  <path fill="#5e7644" d="M213.335 147.796 256 172.428v-49.264z"/>
  <path fill="#8aa964" d="M213.336 197.062 170.67 172.43l42.665-24.632z"/>
  <path fill="#738f54" d="M213.335 147.796 256 123.163l-42.665-24.632zM213.335 197.061 256 172.43l-42.665-24.633z"/>
  <path fill="#5e7644" d="M213.335 197.062 256 221.694V172.43z"/>
  <path fill="#8aa964" d="M213.335 246.327 256 221.694l-42.665-24.632z"/>
  <path fill="#5e7644" d="M213.335 98.536 256 123.168V73.903z"/>
  <path fill="#738f54" d="M213.335 98.535 256 73.903 213.335 49.27z"/>
  <path fill="#5e7644" d="m0 123.173 42.665 24.632V98.54z"/>
  <path fill="#738f54" d="M0 123.172 42.665 98.54 0 73.907zM0 172.438l42.665-24.633L0 123.173z"/>
  <path fill="#5e7644" d="m0 172.438 42.665 24.633v-49.265z"/>
  <path fill="#a0b982" d="m0 221.703 42.665 24.633v-49.265z"/>
  <path fill="#738f54" d="m0 221.703 42.665-24.632L0 172.438z"/>
  <path fill="#8aa964" d="m0 73.912 42.665 24.633V49.28z"/>
  <path fill="#738f54" d="M213.346 49.267 170.681 73.9V24.634z"/>
  <path fill="#8aa964" d="M128.017 0 85.353 24.633l42.664 24.632z"/>
  <path fill="#738f54" d="m42.69 49.266 42.664 24.633L42.69 98.53z"/>
  <path fill="#8aa964" d="M85.354 24.633v49.265L42.69 49.266z"/>
</svg>
