<svg xmlns="http://www.w3.org/2000/svg" viewBox="0 0 511.54 227.529">
  <defs>
    <linearGradient id="a" x1="113.875" x2="67.288" y1="172.001" y2="40.216" gradientTransform="scale(1.02087 .97955)" gradientUnits="userSpaceOnUse">
      <stop offset="0%" stop-color="#FFF"/>
      <stop offset="13.71%" stop-color="#FFF" stop-opacity=".863"/>
      <stop offset="100%" stop-color="#FFF" stop-opacity="0"/>
    </linearGradient>
    <linearGradient id="b" x1="112.569" x2="72.429" y1="192.135" y2="39.192" gradientTransform="scale(1.18481 .84401)" gradientUnits="userSpaceOnUse">
      <stop offset="0%" stop-color="#FFF"/>
      <stop offset="13.71%" stop-color="#FFF" stop-opacity=".863"/>
      <stop offset="100%" stop-color="#FFF" stop-opacity="0"/>
    </linearGradient>
    <linearGradient id="c" x1="139.308" x2="92.724" y1="162.152" y2="30.501" gradientTransform="scale(1.02039 .98002)" gradientUnits="userSpaceOnUse">
      <stop offset="0%" stop-color="#FFF"/>
      <stop offset="13.71%" stop-color="#FFF" stop-opacity=".863"/>
      <stop offset="100%" stop-color="#FFF" stop-opacity="0"/>
    </linearGradient>
  </defs>
  <path fill="#414042" d="M199.444 159.258c-3.13-5.35-9.872-7.24-15.33-4.417l-15.816-17.833a71.32 71.32 0 0 0 3.874-23.25c0-7.983-1.327-15.67-3.747-22.845l13.398-15.86c3.248 1.359 7.026 1.252 10.276-.659 5.52-3.206 7.388-10.319 4.16-15.838-3.237-5.52-10.339-7.41-15.87-4.161-3.249 1.89-5.191 5.16-5.617 8.641l-20.084 3.843c-10.383-11.974-24.65-20.467-40.871-23.524l-7.622-22.145c5.042-3.376 6.699-10.149 3.588-15.478-3.238-5.498-10.34-7.388-15.86-4.14-5.52 3.207-7.4 10.34-4.161 15.86a11 11 0 0 0 3.237 3.525l-7.642 22.76C69.635 47.113 55.855 55.65 45.834 67.475L23.35 63.27c-.106-1.741-.573-3.482-1.508-5.096-3.227-5.52-10.34-7.388-15.86-4.16-5.52 3.226-7.388 10.34-4.16 15.86 2.95 5.052 9.15 7.006 14.394 4.819l15.775 18.068a71.49 71.49 0 0 0-3.132 20.999c0 8.173 1.37 16.009 3.896 23.311l-16.2 18.96a11.556 11.556 0 0 0-10.807.445c-5.541 3.25-7.388 10.34-4.161 15.881 3.227 5.499 10.34 7.389 15.86 4.162 3.429-2.018 5.436-5.52 5.711-9.215l24.788-4.862c9.82 10.595 22.792 18.216 37.442 21.38l8.09 22.994c-4.523 3.524-5.903 9.894-2.93 14.969 3.227 5.52 10.34 7.387 15.871 4.16 5.51-3.227 7.378-10.34 4.151-15.88a11.872 11.872 0 0 0-3.185-3.503l7.719-22.633c14.957-3.1 28.217-10.85 38.185-21.7l24.745 4.779c.224 1.358.637 2.696 1.391 3.947 3.217 5.522 10.319 7.39 15.86 4.162 5.519-3.227 7.377-10.36 4.16-15.86zm-98.94 7.197c-29.108 0-52.696-23.588-52.696-52.695 0-29.11 23.588-52.698 52.697-52.698 29.098 0 52.698 23.588 52.698 52.698 0 29.107-23.6 52.695-52.698 52.695z"/>
  <path fill="#414042" d="M90.654 117.836c-.584-1.975-.807-3.673-.7-5.107.117-1.603.636-3.28 1.539-4.957.923-1.678 1.974-3.037 3.152-4.056l29.47-25.266c-8.981-5.987-20.213-8.6-31.656-6.412-23.047 4.458-38.11 26.73-33.673 49.766 0 0 .297 2.039 1.337 5.14.063.19.127.382.203.573.116.34.244.7.37 1.061.468 1.19.935 2.356 1.466 3.504l.042-.023c2.993 6.242 8.493 14.013 18.397 19.236.16.063.318.149.477.234.489.255.977.487 1.466.72.339.149.678.299.997.447.15.063.297.128.446.212v-.02c7.506 3.184 15.988 4.235 24.576 2.59 4.088-.786 7.93-2.165 11.476-3.97l-25.69-27.665c-1.89-1.973-3.133-4.011-3.695-6.007z"/>
  <path fill="#27aae1" d="m134.635 88.45-25 20.575c-.924.743-1.784 1.464-2.591 2.25-.637.595-.988 1.422-1.062 2.485-.085 1.423.212 2.6.977 3.588a48.691 48.691 0 0 0 2.738 3.207l21.742 22.335c9.002-9.597 13.46-23.248 10.785-37.155-1.24-6.477-3.894-12.338-7.589-17.284z"/>
  <path fill="url(#a)" d="M94.263 123.864c-1.89-1.994-3.132-4.011-3.695-6.028-.584-1.954-.806-3.652-.7-5.096.116-1.592.636-3.29 1.538-4.947.924-1.698 1.975-3.057 3.154-4.056l29.47-25.265c-8.981-5.987-20.213-8.62-31.657-6.412-23.047 4.436-38.111 26.73-33.674 49.768 0 0 .297 2.036 1.338 5.138.064.168.128.381.202.572.117.34.244.702.372 1.041.467 1.21.935 2.378 1.465 3.525l.042-.044c.404.85.977 1.763 1.486 2.655 12.124-1.316 23.802-3.44 34.8-6.39z" style="fill:url(#a)"/>
  <path fill="url(#b)" d="m168.34 90.914 13.397-15.839c4.703-6.496 7.814-13.483 9.746-20.722-3.43-1.805-7.59-2.06-11.178.042-3.25 1.91-5.191 5.18-5.616 8.662L154.603 66.9c-10.382-11.996-24.65-20.488-40.87-23.545L106.11 21.23c5.043-3.375 6.7-10.149 3.588-15.478-3.238-5.52-10.35-7.389-15.86-4.162-5.52 3.228-7.399 10.34-4.162 15.86a11.319 11.319 0 0 0 3.238 3.546l-7.644 22.74c-15.722 3.375-29.501 11.91-39.522 23.757L23.264 63.29a11.653 11.653 0 0 0-1.507-5.117c-3.227-5.52-10.34-7.367-15.86-4.14-5.52 3.227-7.39 10.34-4.162 15.839 2.951 5.052 9.151 7.028 14.395 4.84L31.905 92.76c-2.039 6.645-3.121 13.694-3.121 21.02 0 7.835 1.316 15.35 3.651 22.4 1.253.02 2.474.126 3.737.126 5.573 0 11.062-.191 16.497-.552-3.1-6.709-4.946-14.098-4.946-21.975 0-29.11 23.588-52.718 52.696-52.718 25.904 0 47.337 18.747 51.763 43.377 5.978-4.054 11.445-8.386 16.285-13.035-.062-.148-.073-.319-.127-.488z" style="fill:url(#b)"/>
  <path fill="url(#c)" d="m134.55 88.472-25 20.575a35.777 35.777 0 0 0-2.59 2.228c-.637.616-.987 1.422-1.062 2.506-.085 1.423.212 2.59.977 3.567a39.423 39.423 0 0 0 2.739 3.207l3.227 3.31c10.85-3.756 20.828-8.343 29.894-13.544-.128-1.508-.297-3.037-.594-4.587-1.242-6.476-3.896-12.314-7.591-17.262z" style="fill:url(#c)"/>
  <path fill="#414042" d="m248.702 114.035 20.34-22.442h21.645l-23.599 26.093 25.032 36.37h-20.86l-16.306-23.205h-10.03v23.205H226.8v-92.57h18.122v52.55zM354.35 98.111c6.391 6.136 9.65 14.225 9.65 24.27 0 10.168-3.259 18.364-9.65 24.626-6.391 6.263-14.862 9.385-25.425 9.385s-19.034-3.122-25.553-9.385c-6.518-6.262-9.777-14.458-9.777-24.627 0-10.044 3.259-18.133 9.64-24.269 6.528-6.113 15.127-9.257 25.69-9.257 10.563.001 19.035 3.144 25.425 9.257zm-25.424 6.922c-10.297 0-17.347 6.9-17.347 17.347 0 10.552 7.05 17.854 17.347 17.854s17.208-7.302 17.208-17.854c0-10.447-6.91-17.347-17.208-17.347zm115.554 17.474c0 9.64-2.867 17.472-8.473 23.46-5.605 5.861-12.908 8.875-21.645 8.875-7.431 0-13.556-.275-18.641-.785v30.107h-18.122V92.656c15.51-1.976 27.378-3.015 35.584-3.015 19.693-.001 30.777 12.654 31.297 32.866zm-17.602.509c0-12.25-5.478-18.387-16.56-18.387-4.173 0-8.993.276-14.597.786v33.248c4.564.658 9.777 1.04 15.775 1.04 8.991 0 15.382-7.302 15.382-16.687zm31.741 13.036c9.512 3.652 17.984 5.477 25.287 5.477 7.166 0 10.69-1.55 10.69-4.818 0-2.868-2.739-4.31-6.911-5.224-2.219-.635-3.386-.764-6.392-1.294l-3.385-.658c-14.725-2.739-21.518-8.216-21.518-18.769 0-13.036 10.563-20.85 27.377-20.85 9.257 0 17.995 1.55 26.211 4.693l-4.044 13.673c-10.033-2.867-17.601-4.29-22.814-4.29-5.732 0-8.992 2.08-8.992 5.35 0 2.867 2.08 3.908 5.733 5.076 2.22.531 3.259.657 6.401 1.295l3.641.658c15.246 3.12 21.637 7.559 21.637 18.641 0 13.95-10.945 20.998-28.293 20.998-9.65 0-19.033-1.826-28.291-5.478z"/>
</svg>
