<svg xmlns="http://www.w3.org/2000/svg" viewBox="0 0 256.001 272.289">
  <path fill="#6cc24a" d="M235.065 63.604c34.744 53.273 24.716 120.053-18.778 152.07-38.21 28.124-95.885 25.378-128.367-13.768 41.972 7.83 85.208 5.441 116.198-24.114 30.806-29.38 38.865-66.94 30.947-114.188"/>
  <path fill="#a77bca" d="M56.82 22.861c52.3-36.192 119.33-27.999 152.526 14.6 29.163 37.424 28.332 82.173-1.877 122.023 6.675-42.17-5.262-78.65-35.655-108.819C141.6 20.677 103.832 13.651 56.82 22.861"/>
  <path fill="#ef3340" d="M22.861 198.117c-36.192-52.3-27.999-119.33 14.6-152.526 37.424-29.164 87.095-26.222 126.945 9.772-42.17-6.676-83.573-2.633-113.74 27.76-29.989 30.214-37.015 67.982-27.805 114.994"/>
  <path fill="#009cde" d="M193.33 238.545c-31.571 18.785-67.757 24.99-97.9 16.112L35.217 272.29l6.224-56.236c-.35-.519-.694-1.04-1.031-1.563-25.275-39.17-16.762-99.995 19.23-126.99-9.55 41.614-8.103 85.773 20.15 117.953 28.087 31.99 65.979 43.376 113.542 33.092"/>
</svg>
