<svg xmlns="http://www.w3.org/2000/svg" viewBox="0 0 255.875 228.1">
  <defs>
    <linearGradient id="a" x1="112.559" x2="435.445" y1="86.873" y2="86.873" gradientTransform="scale(.75971 1.31628)" gradientUnits="userSpaceOnUse">
      <stop offset="0%"/>
      <stop offset="28%" stop-color="#2E3192"/>
      <stop offset="59%" stop-color="#3E5AA8"/>
      <stop offset="82%" stop-color="#0093D3"/>
      <stop offset="100%" stop-color="#00AEEF"/>
    </linearGradient>
    <linearGradient id="b" x1="122.282" x2="385.445" y1="85.659" y2="85.659" gradientTransform="scale(.74907 1.335)" gradientUnits="userSpaceOnUse">
      <stop offset="0%"/>
      <stop offset="23%" stop-color="#2E3192"/>
      <stop offset="47%" stop-color="#3E5AA8"/>
      <stop offset="78%" stop-color="#0075BE"/>
      <stop offset="100%" stop-color="#00AEEF"/>
    </linearGradient>
    <linearGradient id="c" x1="40.393" x2="303.546" y1="111.627" y2="-12.857" gradientTransform="scale(.93098 1.07414)" gradientUnits="userSpaceOnUse">
      <stop offset="0%" stop-color="#F58220"/>
      <stop offset="47%" stop-color="#ED1C24"/>
      <stop offset="100%" stop-color="#AE2538"/>
    </linearGradient>
    <linearGradient id="d" x1="-2.49" x2="75.959" y1="206.008" y2="111.532" gradientTransform="scale(.93486 1.06968)" gradientUnits="userSpaceOnUse">
      <stop offset="0%" stop-color="#F58220"/>
      <stop offset="38%" stop-color="#ED1C24"/>
      <stop offset="100%" stop-color="#A71C20"/>
    </linearGradient>
    <linearGradient id="e" x1="92.957" x2="251.346" y1="124.667" y2="208.177" gradientTransform="scale(.93098 1.07414)" gradientUnits="userSpaceOnUse">
      <stop offset="0%" stop-color="#F58220"/>
      <stop offset="50%" stop-color="#FFCB05"/>
      <stop offset="100%" stop-color="#FFF200"/>
    </linearGradient>
    <linearGradient id="f" x1="29.693" x2="65.275" y1="-10.807" y2="123.902" gradientTransform="scale(.93486 1.06968)" gradientUnits="userSpaceOnUse">
      <stop offset="0%" stop-color="#FFF200"/>
      <stop offset="100%" stop-color="#F99D1C"/>
    </linearGradient>
    <linearGradient id="g" x1="40.844" x2="105.912" y1="154.036" y2="105.092" gradientTransform="scale(1.05952 .94382)" gradientUnits="userSpaceOnUse">
      <stop offset="0%" stop-color="#F26522"/>
      <stop offset="100%" stop-color="#C61D23"/>
    </linearGradient>
    <linearGradient id="h" x1="78.41" x2="101.134" y1="51.196" y2="-68.522" gradientTransform="scale(1.48678 .6726)" gradientUnits="userSpaceOnUse">
      <stop offset="0%" stop-color="#2E3192"/>
      <stop offset="100%" stop-color="#61A2D8"/>
    </linearGradient>
    <linearGradient id="i" x1="78.365" x2="101.043" y1="288.947" y2="408.708" gradientTransform="scale(1.48737 .67233)" gradientUnits="userSpaceOnUse">
      <stop offset="0%" stop-color="#2E3192"/>
      <stop offset="100%" stop-color="#61A2D8"/>
    </linearGradient>
  </defs>
  <path fill="url(#a)" d="m192.9 3.5-64 110.8 64 110.8c3.6-2.1 6.6-5.1 8.8-9l51.8-89.8c4.4-7.7 4.4-16.5 0-24.2l-51.8-89.8c-2.2-3.7-5.2-6.7-8.8-8.8z" style="fill:url(#a)" transform="translate(-.925 -.3)"/>
  <path fill="url(#b)" d="m128.9 114.4 41.4 71.6c.4-.5.8-1.1 1.1-1.7l35.6-61.6c3-5.3 3-11.4 0-16.6l-35.6-61.6c-.4-.6-.7-1.1-1.1-1.7z" style="fill:url(#b)" transform="translate(-.925 -.3)"/>
  <path fill="url(#c)" d="M128.9 114.4 96 57.4l95-54.8c.7.3 1.3.6 1.9 1z" style="fill:url(#c)" transform="translate(-.925 -.3)"/>
  <path fill="url(#d)" d="M56.1 216.3c-17.3-29.9-34.6-59.9-51.8-89.8-1.8-3.2-2.9-6.6-3.2-10l95 54.8-31.2 53.9c-3.5-2.1-6.6-5.1-8.8-8.9z" style="fill:url(#d)" transform="translate(-.925 -.3)"/>
  <path fill="url(#e)" d="m96 171.4 95 54.8c.7-.3 1.3-.6 1.9-1l-64-110.8z" style="fill:url(#e)" transform="translate(-.925 -.3)"/>
  <path fill="url(#f)" d="M56.2 12.4 4.3 102.3c-1.8 3.2-2.9 6.5-3.2 9.9l95-54.8L64.9 3.5c-3.5 2.1-6.5 5-8.7 8.9z" style="fill:url(#f)" transform="translate(-.925 -.3)"/>
  <path fill="url(#g)" d="m96 57.3 32.9 57-32.9 57-95-54.8c-.1-1.4-.1-2.9 0-4.3z" style="fill:url(#g)" transform="translate(-.925 -.3)"/>
  <path fill="url(#h)" d="m96 57.3 95-54.8c-3.1-1.4-6.6-2.2-10.2-2.2H77.1C72.7.3 68.5 1.4 65 3.5z" style="fill:url(#h)" transform="translate(-.925 -.3)"/>
  <path fill="url(#i)" d="M64.9 225.2 96 171.4l95 54.8c-3.1 1.4-6.6 2.2-10.2 2.2H77.1c-4.5 0-8.6-1.1-12.2-3.2z" style="fill:url(#i)" transform="translate(-.925 -.3)"/>
</svg>
