<svg xmlns="http://www.w3.org/2000/svg" viewBox="0 0 255.829 273.782">
  <path fill="#0081c2" d="M127.915 0 0 62.836v148.11l127.915 62.836 127.914-62.836V62.836z"/>
  <path fill="#fff" d="M225.044 184.344c-.402-2.742-1.523-5.333-2.992-7.434-1.473-2.109-3.233-3.817-5.076-5.21-3.704-2.777-7.72-4.485-11.792-5.548a39.583 39.583 0 0 0-.998-.248 45.87 45.87 0 0 0 2.81-4.106c1.735-2.88 3.19-5.961 4.171-9.263.96-3.295 1.408-6.847.98-10.347-.413-3.497-1.741-6.851-3.73-9.541a24.245 24.245 0 0 0-3.278-3.668l-.906-.794a47.28 47.28 0 0 0-.939-.748l-.973-.715-.947-.638a1.12 1.12 0 0 0-1.438 1.699l.784.829.707.81.683.843.646.858a20.624 20.624 0 0 1 2.095 3.624c1.117 2.502 1.585 5.122 1.394 7.674-.185 2.558-.998 5.05-2.199 7.396-1.188 2.349-2.759 4.567-4.547 6.601a38.22 38.22 0 0 1-2.81 2.891c-.242.224-.485.441-.725.642-.118.1-.236.201-.34.28l-.038.029-.012.006c-.018.014.15-.144.065-.067l.002-.006c.01-.012-.01.004-.016.006l-.149.097c-.455.297-1.001.634-1.548.937-2.21 1.227-4.612 2.202-7.007 2.796a24.65 24.65 0 0 1-7.138.723c-2.33-.106-4.582-.601-6.743-1.386a8.47 8.47 0 0 1-.293-.111c.451-.065.9-.139 1.357-.23a22.984 22.984 0 0 0 4.322-1.308 19.046 19.046 0 0 0 4.17-2.384 18.544 18.544 0 0 0 3.457-3.405 19.193 19.193 0 0 0 2.365-3.923 23.678 23.678 0 0 0 1.38-3.964 27.91 27.91 0 0 0 .65-3.803c.247-2.477.197-4.814.016-7.069l-.073-.847-.098-.874c-.034-.284-.063-.595-.101-.853l-.114-.738-.057-.37-.028-.182-.015-.092-.006-.046-.004-.023-.008-.103-.115-.707-.226-1.414a119.727 119.727 0 0 1-.76-5.663c-.122-.947-.177-1.885-.268-2.832-.08-.945-.122-1.884-.189-2.83-.075-1.878-.136-3.767-.07-5.632.011-.94.092-1.862.135-2.794.085-.918.148-1.853.282-2.763.238-1.829.581-3.637 1.085-5.376.502-1.74 1.173-3.407 2.04-4.94.854-1.542 1.939-2.93 3.273-4.006a9.062 9.062 0 0 1 3.393-1.747c.208-.06.384-.086.583-.134.218-.037.488-.051.73-.08l.032-.002a1.117 1.117 0 0 0-.008-2.22c-.254-.027-.48-.065-.758-.084-.296-.006-.613-.022-.898-.008-.568.02-1.14.086-1.7.193a12.1 12.1 0 0 0-3.216 1.134c-2.03 1.036-3.778 2.532-5.23 4.214-1.455 1.688-2.633 3.564-3.62 5.502-.984 1.94-1.775 3.947-2.439 5.981-.35 1.016-.62 2.04-.912 3.068-.252 1.026-.512 2.062-.713 3.097-.441 2.072-.742 4.148-1.022 6.231-.248 2.078-.431 4.163-.549 6.241-.12 2.079-.187 4.155-.203 6.228l-.002 1.554v.778c.006.082-.008-.081-.006-.057V134.044l-.002.094v.187l-.002.374-.006.745c-.002.238-.02.42-.029.634l-.034.614-.049.64c-.132 1.71-.38 3.352-.782 4.795-.201.719-.437 1.385-.689 1.99a9.39 9.39 0 0 1-.853 1.545c-.614.874-1.234 1.308-1.884 1.589-.646.276-1.45.461-2.543.496-1.081.038-2.394-.092-3.79-.393-.199-.04-.398-.083-.601-.13 0 0-5.094-1.796-3.42-7.625 1.136-2.11 3.215-4.285 7.049-4.852 0 0 8.177-63.325-43.065-104.031-.033-.024-.067 0-.067 0-51.237 40.7-43.06 104.025-43.06 104.025 4.089.604 6.185 3.038 7.262 5.27 1.227 5.123-2.893 6.955-3.462 7.18-.238.058-.473.113-.705.157-1.398.301-2.71.431-3.791.392-1.091-.036-1.896-.219-2.544-.495-.648-.283-1.27-.718-1.881-1.59-.301-.43-.59-.954-.854-1.543a17.503 17.503 0 0 1-.688-1.991c-.4-1.443-.646-3.087-.78-4.795l-.05-.64-.032-.614c-.01-.211-.026-.394-.03-.634l-.004-.745-.002-.374-.002-.187v-.165c.002-.024-.013.138-.007.057v-.778l-.002-1.554a122.792 122.792 0 0 0-.203-6.228c-.118-2.078-.3-4.163-.548-6.241-.28-2.083-.581-4.16-1.022-6.232-.197-1.034-.46-2.07-.713-3.096-.29-1.028-.563-2.052-.91-3.068-.667-2.032-1.455-4.041-2.44-5.981-.986-1.937-2.167-3.812-3.621-5.502-1.451-1.683-3.2-3.178-5.232-4.214a12.146 12.146 0 0 0-3.216-1.134c-.561-.105-1.13-.173-1.7-.193-.285-.014-.604.002-.899.008-.278.019-.504.055-.758.084a1.118 1.118 0 0 0-.008 2.22l.033.002c.241.029.512.043.729.08.2.048.378.075.583.134a9.023 9.023 0 0 1 3.391 1.747c1.337 1.077 2.42 2.464 3.273 4.006.868 1.53 1.536 3.2 2.04 4.94.504 1.739.847 3.547 1.085 5.376.134.91.2 1.844.282 2.763.043.934.126 1.855.133 2.793.069 1.864.008 3.755-.065 5.632-.07.947-.112 1.886-.191 2.83-.092.948-.147 1.886-.269 2.833-.205 1.89-.459 3.775-.76 5.662l-.227 1.415-.112.707c.004-.065-.01.113-.01.103l-.002.023-.006.046-.014.092-.03.182-.058.37-.111.738c-.037.258-.07.57-.102.853l-.095.874-.074.847c-.18 2.253-.235 4.592.015 7.068.126 1.236.335 2.508.652 3.804.333 1.302.77 2.631 1.375 3.964a19.326 19.326 0 0 0 2.37 3.923 18.595 18.595 0 0 0 3.453 3.405 19.059 19.059 0 0 0 4.173 2.384 22.92 22.92 0 0 0 4.32 1.308c.457.091.91.165 1.357.23a8.64 8.64 0 0 1-.292.111c-2.162.785-4.413 1.28-6.742 1.386a24.694 24.694 0 0 1-7.135-.723c-2.4-.594-4.797-1.569-7.012-2.796a25.405 25.405 0 0 1-1.546-.937l-.148-.097c-.006-.002-.027-.018-.019-.006 0 .002.004.004.004.006-.085-.077.084.081.065.067l-.01-.004-.036-.028c-.102-.08-.222-.181-.34-.28a24.975 24.975 0 0 1-.725-.643 37.84 37.84 0 0 1-2.81-2.891c-1.788-2.034-3.358-4.252-4.547-6.601-1.2-2.345-2.015-4.838-2.2-7.396-.191-2.552.276-5.172 1.394-7.674a20.763 20.763 0 0 1 2.096-3.624l.646-.858.683-.843.707-.81.784-.83a1.12 1.12 0 0 0-1.44-1.698l-.947.638-.973.715a55.92 55.92 0 0 0-.937.748l-.906.794a24.367 24.367 0 0 0-3.28 3.668c-1.988 2.692-3.315 6.046-3.73 9.54-.428 3.501.02 7.053.982 10.348.98 3.302 2.434 6.382 4.169 9.263a46.243 46.243 0 0 0 2.812 4.11c-.335.078-.668.155-1.002.242-4.07 1.063-8.086 2.771-11.79 5.549-1.84 1.394-3.602 3.1-5.075 5.21-1.467 2.1-2.589 4.693-2.99 7.433-.428 2.745-.048 5.512.747 7.87.41 1.174.912 2.267 1.473 3.279.575.993 1.184 1.944 1.853 2.783.656.864 1.357 1.64 2.066 2.39l.58.576.29.289c.097.097.197.195.27.258l1.048.935a57.425 57.425 0 0 0 4.448 3.451c3.066 2.128 6.286 3.916 9.537 5.433 2.976 1.398 5.981 2.56 8.941 3.668l.05.126.235.554c.085.181.185.354.28.533.191.351.388.699.591 1.044l.153.256.17.24.348.48c.236.312.47.633.715.934 2.036 2.37 4.61 4.002 7.231 4.965 2.631.97 5.331 1.284 7.893 1.163.32-.017.642-.025.961-.051l.94-.122.934-.13c.309-.047.61-.126.912-.193l.904-.207c.153-.041.297-.065.455-.114l.48-.147.949-.302.47-.157c.157-.053.326-.11.421-.156l1.352-.583.168-.073c.096-.039-.156.055.226-.09l.036-.016.076-.035.296-.138.593-.278c.395-.197.799-.364 1.201-.532.404-.169.807-.35 1.221-.492a33.695 33.695 0 0 1 5.043-1.512c3.426-.741 6.991-1.024 10.415-.516 1.706.254 3.372.703 4.908 1.382 1.534.682 2.949 1.589 4.072 2.77.138.15.287.294.423.448l.376.482.19.241.165.258.331.52c.382.726.744 1.486.945 2.313.05.207.122.41.16.621l.106.64.055.321c.012.108.014.22.025.328l.048.66c.027.44-.004.857.002 1.296-.04.474-.107.973-.158 1.459v.012a1.114 1.114 0 0 0 .991 1.23 1.118 1.118 0 0 0 1.189-.795c.14-.473.29-.929.425-1.42.105-.533.241-1.083.308-1.622l.09-.806c.014-.134.03-.27.038-.407l.006-.41.004-.825c-.002-.278-.042-.553-.063-.829-.079-1.115-.363-2.218-.72-3.301l-.326-.793-.169-.398-.199-.38-.408-.762c-.146-.246-.309-.477-.467-.72-.303-.493-.677-.922-1.035-1.373-.174-.233-.382-.422-.577-.633-.199-.206-.39-.421-.597-.616-.839-.764-1.725-1.485-2.672-2.083-1.883-1.227-3.93-2.141-6.026-2.805-4.204-1.315-8.604-1.701-12.928-1.406-2.164.144-4.32.45-6.436.926-.535.104-1.057.246-1.583.38-.528.13-1.057.266-1.573.43l-.78.238-.39.12-.098.033-.048.014c.351-.132.073-.03.14-.055l-.177.047-1.42.392c-.132.043-.203.043-.282.05l-.24.031-.472.067-.233.037c-.08.012-.179.014-.268.022l-.543.039c-.179.01-.36.038-.538.036l-.529-.012-.524-.004c-.17-.014-.339-.043-.508-.059-1.347-.138-2.574-.53-3.551-1.083-.98-.55-1.687-1.27-2.087-1.973-.378-.725-.465-1.4-.396-2.13.081-.73.35-1.582.904-2.528.555-.943 1.355-1.943 2.349-2.914 2.054-1.924 4.75-3.718 7.74-5.211l.551-.289.584-.266 1.164-.528c.756-.372 1.593-.66 2.387-.994l2.74-1.125 1.362-.559.169-.067.193-.091.392-.18.002-.001.78-.364c.953-.445 1.918-.89 2.814-1.365 6.047-2.743 18.704-7.786 30.046-7.786 11.34 0 23.999 5.043 30.047 7.786.892.475 1.86.92 2.812 1.365l.784.366.39.179.195.089.169.07 1.361.558 2.741 1.125c.797.334 1.634.626 2.39.994l1.162.528.58.266.551.289c2.991 1.493 5.687 3.287 7.743 5.211.994.971 1.794 1.971 2.349 2.914.555.947.82 1.798.902 2.527.071.73-.018 1.404-.394 2.132-.4.703-1.107 1.42-2.087 1.972-.975.553-2.204.945-3.551 1.083-.169.019-.337.045-.508.06l-.524.003-.53.012c-.175.002-.358-.026-.537-.036l-.545-.039c-.089-.008-.188-.01-.266-.022l-.233-.037-.47-.067-.24-.03c-.079-.008-.148-.01-.282-.05l-1.42-.393-.177-.047c.067.027-.213-.077.138.055l-.048-.014-.098-.033-.39-.12-.78-.237a26.4 26.4 0 0 0-1.57-.43c-.529-.133-1.051-.277-1.586-.38a42.208 42.208 0 0 0-6.436-.927c-4.326-.295-8.726.093-12.928 1.406-2.097.664-4.143 1.576-6.026 2.806-.95.597-1.835 1.318-2.672 2.082-.207.195-.398.41-.597.616-.193.211-.4.4-.575.634-.358.45-.732.88-1.036 1.373-.159.242-.32.473-.466.72l-.408.761-.2.38-.166.398-.327.793c-.358 1.083-.64 2.186-.72 3.301-.022.277-.06.55-.06.83l.004.824.006.41c.006.137.024.273.038.407l.09.807c.067.538.207 1.089.309 1.62.134.493.286.948.424 1.421a1.116 1.116 0 0 0 2.182-.435l-.002-.012c-.05-.484-.12-.983-.156-1.459.004-.439-.026-.855.002-1.296l.047-.66c.01-.108.012-.22.024-.327l.055-.321.104-.64c.042-.212.111-.415.16-.622.201-.825.563-1.587.947-2.312l.333-.52.16-.258.194-.242.378-.482c.134-.152.282-.296.42-.449 1.126-1.18 2.54-2.086 4.072-2.769 1.538-.679 3.202-1.128 4.91-1.382 3.424-.51 6.99-.225 10.415.516 1.715.374 3.403.876 5.039 1.512.414.142.817.323 1.223.492.406.168.807.335 1.2.532l.596.278.297.139.073.034.038.016c.382.145.13.051.226.088l.169.075 1.35.583c.094.047.263.104.421.157l.47.154.948.305.478.146c.158.047.303.073.455.114l.906.207c.3.065.602.142.91.193l.935.13.94.122c.318.028.64.037.964.05 2.56.123 5.26-.194 7.891-1.161 2.623-.965 5.197-2.595 7.233-4.966.246-.3.48-.622.717-.935l.348-.48.172-.239.15-.256c.202-.345.399-.693.59-1.044.095-.179.197-.352.28-.532l.234-.555c.018-.043.032-.083.049-.126 2.962-1.107 5.967-2.27 8.944-3.667 3.248-1.52 6.469-3.306 9.535-5.433a57.784 57.784 0 0 0 4.445-3.452l1.048-.935c.073-.063.175-.16.273-.258l.29-.288.58-.577a29.095 29.095 0 0 0 2.065-2.39c.669-.839 1.28-1.79 1.853-2.783a21.371 21.371 0 0 0 1.475-3.28c.789-2.35 1.169-5.117.744-7.862zm-149.668 2.268c-.234.16-.468.307-.7.477l-.69.52-1.373 1.043c-.23.168-.456.355-.679.55l-.673.573c-.444.386-.891.758-1.33 1.162l-1.29 1.27c-.214.216-.427.423-.636.642l-.618.703c-.406.472-.817.927-1.211 1.42-1.562 1.992-2.99 4.259-4.029 6.894-.52 1.315-.92 2.741-1.16 4.234l-.144 1.138c-.004.05-.01.106-.017.155a91.698 91.698 0 0 1-3.894-2.538c-2.7-1.837-5.196-3.834-7.45-5.996a47.418 47.418 0 0 1-3.185-3.379l-.74-.898c-.078-.089-.119-.152-.164-.213l-.134-.193-.272-.38c-.382-.565-.748-1.126-1.038-1.686-.315-.555-.537-1.104-.744-1.63a8.865 8.865 0 0 1-.384-1.485c-.114-.926-.034-1.656.224-2.271.254-.614.642-1.187 1.253-1.792.61-.602 1.422-1.207 2.406-1.731 1.96-1.059 4.472-1.784 7.074-2.12 2.613-.343 5.344-.276 7.985.122 2.647.39 5.214 1.15 7.566 2.225.592.264 1.164.555 1.725.864l.83.475.71.368.508.244.492.223a25.98 25.98 0 0 0 2.078.81l-.296.2zm37.087-44.03a4.126 4.126 0 1 1 0-8.253 4.127 4.127 0 0 1 0 8.253zm30.903 0a4.126 4.126 0 1 1 0-8.253 4.127 4.127 0 0 1 0 8.253zm69.638 46.411a8.949 8.949 0 0 1-.382 1.485c-.207.526-.43 1.073-.743 1.63-.293.56-.659 1.121-1.039 1.686l-.272.38-.134.193c-.043.061-.085.126-.163.213l-.74.898a47.883 47.883 0 0 1-3.183 3.38c-2.253 2.16-4.75 4.158-7.448 5.995a95.039 95.039 0 0 1-3.893 2.54l-.018-.157-.145-1.138a20.155 20.155 0 0 0-1.16-4.234c-1.038-2.635-2.464-4.9-4.027-6.894-.392-.493-.804-.948-1.21-1.42l-.616-.703c-.211-.22-.425-.426-.636-.642l-1.294-1.27c-.437-.404-.886-.776-1.33-1.162l-.672-.573a9.936 9.936 0 0 0-.678-.55l-1.374-1.043-.69-.52c-.23-.17-.466-.317-.7-.477l-.298-.201c.72-.246 1.412-.518 2.078-.811l.492-.224.508-.243.711-.368.83-.476c.56-.306 1.135-.599 1.724-.863a28.323 28.323 0 0 1 7.566-2.225c2.644-.396 5.374-.465 7.985-.122 2.603.336 5.116 1.059 7.075 2.12.98.524 1.798 1.13 2.403 1.73.614.606 1.002 1.179 1.254 1.792.254.616.335 1.348.22 2.274z"/>
</svg>
