<svg xmlns="http://www.w3.org/2000/svg" viewBox="0 0 255.993 97.07">
  <path fill="#ff4906" d="M67.729 49.781c9.349-.003 16.93 7.573 16.933 16.922v13.442c-.003 9.35-7.584 16.926-16.933 16.925h-24.9a16.937 16.937 0 0 1-16.096-11.653L11.898 92.85C6.438 95.585.007 91.62 0 85.512V61.405c-.002-6.128 6.463-10.1 11.928-7.33l14.769 7.474a16.941 16.941 0 0 1 16.132-11.767zm-.248 8.707H43.08a8.468 8.468 0 0 0-8.465 8.323v13.083a8.457 8.457 0 0 0 8.326 8.46l24.544.005a8.468 8.468 0 0 0 8.465-8.323V66.953a8.457 8.457 0 0 0-8.326-8.46zm-56.524 5.255c-1.22 0-2.216.975-2.242 2.195v15.155c0 1.656 1.734 2.74 3.222 2.014l.039-.017 13.92-7.102v-5.021l-13.934-6.993a2.32 2.32 0 0 0-1.005-.231zM31.623 0A22.91 22.91 0 0 1 51.62 11.717C64.205.043 84.66 8.967 84.661 26.132c-.003 10.861-8.809 19.664-19.67 19.662a19.653 19.653 0 0 1-15.9-8.081 22.856 22.856 0 0 1-17.468 8.081C18.975 45.796 8.72 35.545 8.715 22.897 8.72 10.249 18.975-.002 31.623 0zm0 9.21C13 8.836 13 36.966 31.623 36.59c7.669.154 13.968-6.02 13.968-13.69s-6.3-13.843-13.968-13.688zm33.368 6.471c-13.939 0-13.939 20.908 0 20.908 13.94 0 13.94-20.908 0-20.908z"/>
  <path fill="#555" d="m148.72 16.307-.103-.006-6.523.014.008 6.087H129.55a2.064 2.064 0 0 0-2.07 1.947l-.003.103v6.482l14.63-.003v11.634l-.022 4.723-.011.529-.011.512a76.88 76.88 0 0 1-.126 2.754l-.039.478-.097 1.119h-15.217c-1.113 0-2.02.862-2.072 1.947v6.582h16.766c-3.08 8.637-8.847 14.285-16.766 17.403l2.075 7.01c.2.681 1.193.873 1.675.681 5.688-2.256 15.728-7.939 20.822-21.484 4.506 12.877 14.958 18.88 19.7 21.017.14.064.27.126.401.179 1.577.684 2.25 0 2.504-.855.75-2.537 1.418-4.76 1.953-6.55-3.208-1.28-12.705-5.4-16.738-17.404h14.758a2.067 2.067 0 0 0 1.994-1.947v-6.582h-4.12V24.455a2.056 2.056 0 0 0-1.97-2.044l-.105-.006h-16.766l-.006-4.092-.003-.04v-.03a2.064 2.064 0 0 0-1.864-1.93l-.105-.006zm-30.572 0h-6.52v67.849c0 1.096.873 1.995 1.969 2.042l.103.006 6.523-.04V44.98h5.174a2.059 2.059 0 0 0 1.992-1.948l.006-.1v-6.481h-7.172V18.375l-.003-.095a2.061 2.061 0 0 0-1.97-1.97zm125.2.807c-1.143 1.641-3.35 3.502-6.593 3.538H186.58v6.482a2.06 2.06 0 0 0 1.864 2.039l.106.008h26.516v11.183h-24.002c-1.113 0-2.02.863-2.073 1.948l-.003.1v6.481h26.077v10.162H183.6a2.064 2.064 0 0 0-2.07 1.948l-.006.1v6.481h33.538v7.575l-.006.137-.006.07-.016.119a2.554 2.554 0 0 1-2.429 2.17l-.114.008h-11.58l1.874 6.965c.262.855.94 1.466 1.803 1.555l.108.012h8.068l.178-.006.186-.011c5.836-.334 10.429-5.08 10.526-10.877V67.59h30.344a2.061 2.061 0 0 0 1.996-1.948v-6.581h-32.336V48.896h22.62a2.061 2.061 0 0 0 1.994-1.948l.006-.1v-6.481h-24.62V29.184c2.845.02 7.149.016 12.913-.009 9.386.037 14.187-6.787 15.464-9.93l-6.207-2.666c-1.182-.506-2.053-.078-2.484.537zm-137.41 8.476h-6.52v23.253l-.007.74-.008.473a54.201 54.201 0 0 1-2.448 14.669c-.3.993.19 2.053 1.14 2.467l.101.045 6.331 2.12c2.184-6.054 3.353-12.407 3.475-19.334l.008-.562v-.551l.006-2.284-.006-.003V27.637l-.003-.056v-.036a2.059 2.059 0 0 0-1.864-1.939l-.103-.014zm44.76 5.347h10.237v21.748h-10.496l.092-1.3c.08-1.232.13-2.776.147-4.128l.006-.584.008-1.44.008-14.3z"/>
</svg>
