<svg xmlns="http://www.w3.org/2000/svg" viewBox="0 0 223.28 256.002">
  <path fill="#ff4906" d="M178.622 131.289c24.656-.008 44.649 19.972 44.657 44.628v35.45c-.008 24.657-20.001 44.64-44.657 44.635h-65.669c-19.305.006-36.427-12.391-42.449-30.733l-39.126 19.603C16.976 252.086.017 241.626 0 225.518V161.94c-.005-16.16 17.045-26.637 31.459-19.332l38.95 19.713c5.93-18.491 23.126-31.033 42.544-31.033zm-.653 22.963h-64.356c-12.184.002-22.117 9.77-22.325 21.951v34.504c-.005 12.187 9.772 22.122 21.958 22.31l64.73.015c12.184-.002 22.117-9.77 22.325-21.951v-34.504c.006-12.187-9.772-22.122-21.958-22.31zM28.9 168.111a5.913 5.913 0 0 0-5.913 5.788v39.97c-.003 4.366 4.57 7.226 8.496 5.311l.102-.044 36.712-18.73v-13.242L31.547 168.72a6.119 6.119 0 0 0-2.648-.609zM83.402.001a60.416 60.416 0 0 1 52.735 30.901C169.329.114 223.273 23.648 223.28 68.92c-.008 28.644-23.233 51.859-51.876 51.854a51.83 51.83 0 0 1-41.935-21.313 60.279 60.279 0 0 1-46.066 21.313c-33.357.004-60.404-27.03-60.416-60.387C23 27.03 50.047-.004 83.403 0zm0 24.291c-49.117-.99-49.117 73.196 0 72.206 20.224.408 36.838-15.875 36.838-36.103s-16.614-36.511-36.838-36.103zm88.001 17.065c-36.76 0-36.76 55.141 0 55.141 36.761 0 36.761-55.141 0-55.141z"/>
</svg>
