<svg xmlns="http://www.w3.org/2000/svg" viewBox="0 0 511.786 75.986">
  <path d="M283.189 49.695h-25.552a1.03 1.03 0 0 0-.896.516c-.186.322-.186.719 0 1.041.184.33 4.697 8.089 13.678 8.089 8.982 0 13.48-7.76 13.666-8.089.174-.327.168-.72-.015-1.041a1.02 1.02 0 0 0-.882-.516zm.412-27.41c1.18 0 2.121-.969 2.121-2.154 0-1.192-.94-2.153-2.121-2.153-5.025 0-9.096 4.114-9.096 9.165v10.558a2.14 2.14 0 0 0 2.135 2.146h6.96c1.182 0 2.122-.962 2.122-2.146v-7.026c0-1.191-.94-2.154-2.121-2.154h-4.854v-1.377c0-2.67 2.178-4.859 4.854-4.859zm-26.39 17.562a2.128 2.128 0 0 1-2.122-2.146V27.143c0-5.051 4.07-9.165 9.096-9.165a2.14 2.14 0 0 1 2.135 2.153 2.145 2.145 0 0 1-2.135 2.153c-2.662 0-4.84 2.19-4.84 4.86v1.377h4.84a2.14 2.14 0 0 1 2.135 2.153v7.027a2.14 2.14 0 0 1-2.135 2.146zM4.654 3.2C2.085 3.2 0 5.296 0 7.887V69.13c0 2.592 2.086 4.687 4.655 4.687 2.562 0 4.64-2.094 4.64-4.687V7.887c0-2.591-2.078-4.687-4.64-4.687zm464.163 9.367h20.334c7.353 0 13.339 6.035 13.339 13.457 0 7.422-5.986 13.457-13.339 13.457h-20.334zm29.189 34.458a22.858 22.858 0 0 0 13.78-21.001c0-12.59-10.151-22.83-22.635-22.83h-24.981c-2.562 0-4.649 2.094-4.649 4.685v61.252c0 2.592 2.087 4.686 4.649 4.686 2.56 0 4.647-2.093 4.647-4.685V48.855h19.688l11.308 22.4a4.625 4.625 0 0 0 6.25 2.054c2.283-1.177 3.195-3.998 2.036-6.303zM49.566 4.542a4.63 4.63 0 0 0-6.576.058L13.14 35.225a4.728 4.728 0 0 0 0 6.575l29.85 30.618a4.606 4.606 0 0 0 3.317 1.399 4.62 4.62 0 0 0 3.26-1.342c1.82-1.816 1.85-4.787.056-6.63L22.976 38.512l26.648-27.338a4.732 4.732 0 0 0-.058-6.632zm59.9-1.35c-2.562 0-4.648 2.096-4.648 4.688v38.672c0 9.867-7.957 17.891-17.742 17.891-9.78 0-17.738-8.024-17.738-17.891V7.88c0-2.592-2.085-4.687-4.655-4.687-2.562 0-4.64 2.095-4.64 4.687v38.672c0 15.036 12.128 27.265 27.033 27.265 14.91 0 27.038-12.228 27.038-27.265V7.88c0-2.592-2.085-4.687-4.648-4.687zm37.552 29.443c-16.484-3.89-15.174-11.155-14.69-13.896.512-2.813 2.262-4.795 5.373-6.073 6.156-2.519 15.979-1.32 21.467 2.62a4.625 4.625 0 0 0 6.484-1.097c1.487-2.111 1.003-5.032-1.09-6.539-8-5.749-21.33-7.365-30.355-3.668-6.037 2.476-9.95 7.12-11.018 13.092-1.267 7.005-.114 19.537 21.708 24.69 7.004 1.652 12.085 4.736 13.935 8.47 1.196 2.418 1.096 5.153-.305 8.36-1.46 3.353-5.21 4.774-8.1 5.37-7.168 1.47-16.378-.532-20.562-4.465-1.88-1.773-4.826-1.68-6.57.222a4.708 4.708 0 0 0 .22 6.626c4.955 4.664 13.61 7.47 21.965 7.47 2.32 0 4.626-.215 6.819-.667 7.118-1.479 12.355-5.304 14.733-10.779 2.52-5.75 2.555-11.4.114-16.322-3.131-6.33-10.284-11.097-20.128-13.414zm75.508-29.442h-45.095c-2.57 0-4.648 2.095-4.648 4.687 0 2.591 2.08 4.686 4.648 4.686h17.9V69.13c0 2.592 2.078 4.687 4.648 4.687s4.647-2.094 4.647-4.687V12.566h17.9c2.57 0 4.648-2.095 4.648-4.686 0-2.592-2.077-4.687-4.647-4.687zm162.442.366a4.634 4.634 0 0 0-5.053.97L353.48 30.567l-26.435-26.04c-1.336-1.328-3.324-1.686-5.053-.969a4.693 4.693 0 0 0-2.846 4.321v61.25c0 2.592 2.085 4.687 4.655 4.687 2.562 0 4.64-2.094 4.64-4.687V19.012l21.793 21.46a4.622 4.622 0 0 0 6.499 0l21.785-21.46V69.13c0 2.592 2.08 4.687 4.648 4.687 2.57 0 4.647-2.094 4.647-4.687V7.88a4.689 4.689 0 0 0-2.845-4.32zm61.51 9.008c2.561 0 4.647-2.096 4.647-4.687 0-2.592-2.086-4.686-4.648-4.686H403.14c-2.57 0-4.648 2.094-4.648 4.686v61.25c0 2.593 2.077 4.687 4.648 4.687h43.338c2.562 0 4.648-2.094 4.648-4.686s-2.086-4.687-4.648-4.687h-38.69V42.489h31.387c2.57 0 4.655-2.097 4.655-4.687 0-2.591-2.085-4.687-4.654-4.687h-31.388V12.567z"/>
  <path fill="#ff655d" d="M285.106 0h-28.868C243.426 0 233 10.514 233 23.434v29.118c0 12.92 10.426 23.434 23.238 23.434h19.579l-12.91-9.374h-6.669c-7.687 0-13.943-6.308-13.943-14.06V23.434c0-7.752 6.256-14.06 13.943-14.06h28.868c7.686 0 13.951 6.308 13.951 14.06v29.118c0 7.753-6.265 14.06-13.952 14.06h-5.486v9.374h5.487c12.812 0 23.247-10.514 23.247-23.434V23.434C308.353 10.514 297.918 0 285.106 0"/>
</svg>
