<svg xmlns="http://www.w3.org/2000/svg" viewBox="0 0 256 263.54">
  <path fill="#ff2d20" d="M255.856 59.62c.095.35.144.713.144 1.077v56.568c0 1.478-.79 2.843-2.073 3.578L206.45 148.18v54.18a4.135 4.135 0 0 1-2.062 3.579l-99.108 57.052c-.227.13-.474.212-.722.3-.093.03-.18.087-.278.113a4.15 4.15 0 0 1-2.114 0c-.114-.031-.217-.093-.325-.134-.227-.083-.464-.155-.68-.279L2.073 205.938A4.128 4.128 0 0 1 0 202.36V32.655c0-.37.052-.732.144-1.082.031-.119.103-.227.145-.346.077-.216.15-.438.263-.639.077-.134.19-.242.283-.366.119-.165.227-.335.366-.48.119-.118.274-.206.408-.309.15-.124.283-.258.453-.356h.005L51.613.551a4.135 4.135 0 0 1 4.125 0l49.546 28.526h.01c.165.103.305.232.454.35.134.104.284.197.402.31.145.15.248.32.371.485.088.124.207.232.279.366.118.206.185.423.268.64.041.118.113.226.144.35.095.351.144.713.145 1.077v105.996l41.286-23.773V60.692c0-.36.052-.727.145-1.072.036-.124.103-.232.144-.351.083-.217.155-.438.268-.64.077-.133.19-.242.279-.365.123-.165.226-.335.37-.48.12-.118.269-.206.403-.31.155-.123.289-.257.454-.355h.005l49.55-28.526a4.13 4.13 0 0 1 4.125 0l49.546 28.526c.176.103.31.232.464.35.13.104.279.197.397.31.145.15.248.32.372.485.092.123.206.232.278.366.119.2.186.422.268.639.047.119.114.227.144.35zm-8.115 55.258v-47.04l-17.339 9.981-23.953 13.792v47.04l41.297-23.773zm-49.546 85.095V152.9l-23.562 13.457-67.281 38.4v47.514zM8.259 39.796v160.177l90.833 52.294v-47.505L51.64 177.906l-.015-.01-.02-.01c-.16-.093-.295-.227-.444-.34-.13-.104-.279-.186-.392-.3l-.01-.015c-.134-.129-.227-.289-.34-.433-.104-.14-.227-.258-.31-.402l-.005-.016c-.093-.155-.15-.34-.217-.515-.067-.155-.154-.3-.196-.464v-.005c-.051-.196-.061-.403-.082-.604-.02-.154-.062-.309-.062-.464V63.568L25.598 49.773l-17.339-9.97zM53.681 8.893 12.399 32.655l41.272 23.763L94.947 32.65 53.671 8.893zM75.149 157.19l23.948-13.786V39.796L81.76 49.777 57.805 63.57v103.608zM202.324 36.935l-41.276 23.762 41.276 23.763 41.271-23.768zm-4.13 54.676-23.953-13.792-17.338-9.981v47.04l23.948 13.786 17.344 9.987zm-94.977 106.005 60.543-34.563 30.264-17.272-41.246-23.747-47.489 27.34-43.282 24.918z"/>
</svg>
