<svg xmlns="http://www.w3.org/2000/svg" viewBox="0 0 511.832 129.504">
  <g fill="#d41107">
    <path d="m114.41 119.513-6.033-16.398s-9.803 10.933-24.504 10.933c-13.008 0-22.244-11.31-22.244-29.407 0-23.185 11.686-31.479 23.186-31.479 16.587 0 21.865 10.745 26.39 24.505l6.032 18.85c6.03 18.284 17.341 32.987 49.95 32.987 23.377 0 39.21-7.163 39.21-26.011 0-15.27-8.673-23.187-24.883-26.957l-12.064-2.639c-8.293-1.885-10.743-5.278-10.743-10.933 0-6.41 5.088-10.179 13.383-10.179 9.048 0 13.949 3.393 14.703 11.499l18.85-2.263c-1.508-16.964-13.195-23.939-32.422-23.939-16.964 0-33.553 6.41-33.553 26.956 0 12.818 6.221 20.924 21.865 24.693l12.82 3.016c9.613 2.263 12.816 6.22 12.816 11.687 0 6.973-6.785 9.801-19.603 9.801-19.04 0-26.955-9.99-31.48-23.75l-6.22-18.85c-7.916-24.504-20.546-33.553-45.618-33.553-27.708 0-42.412 17.53-42.412 47.313 0 28.653 14.704 44.109 41.094 44.109 21.3 0 31.48-9.99 31.48-9.99M33.743 110.653c-1.886.567-3.77.943-6.22.943-4.525 0-7.73-2.073-7.73-7.54V1.318H0v107.45c0 14.137 9.803 19.983 21.301 19.983 3.77 0 7.352-.567 11.876-1.697l.566-16.402M272.184 107.638c-4.901 3.395-9.048 5.092-14.703 5.092-7.164 0-11.122-3.77-11.122-13.008V55.61h26.014V40.153h-25.826V19.228l-19.98 2.45v18.475h-12.632V55.61h12.631v48.258c0 17.346 9.99 25.637 26.202 25.637 8.86 0 16.777-1.695 22.998-5.276l-3.582-16.59M289.376 114.423c0 7.73 6.033 13.951 13.76 13.951 8.107 0 14.14-6.22 14.14-13.951 0-7.917-6.033-13.947-14.14-13.947-7.727 0-13.76 6.03-13.76 13.947M337.766 55.61v71.632h19.793V55.61h22.244V40.153h-22.244v-7.918c0-11.875 5.09-15.644 13.385-15.644 5.843 0 9.802 1.317 14.326 3.77l3.204-16.59C383.197 1.318 376.976 0 369.436 0c-16.59 0-31.67 7.917-31.67 31.48v8.673h-12.63V55.61h12.63M458.673 57.308c-2.263-14.138-11.5-19.23-23.564-19.23s-22.431 5.467-26.957 18.85l-2.45-16.775H389.68v87.09h19.793v-49.2c0-16.778 8.672-23.188 17.909-23.188 9.614 0 13.572 6.41 13.572 16.778v55.61h19.605V77.854c0-16.59 8.86-23 18.097-23 9.425 0 13.383 6.41 13.383 16.778v55.61h19.794V64.66c0-18.662-10.934-26.582-25.45-26.582-12.25 0-23.185 5.467-27.71 19.23"/>
  </g>
</svg>
