<svg xmlns="http://www.w3.org/2000/svg" viewBox="0 0 144 21.001">
  <g fill="none" fill-rule="evenodd">
    <path fill="#000" d="M.175.127C.292.043.478 0 .732 0h2.389c.297 0 .498.037.605.111.106.074.159.259.159.554V15.33c0 .823.207 1.404.621 1.742.414.338.981.507 1.704.507h5.582c.233 0 .501.02.66.153.16.133.124.216.23.557.106.342.318 1.977.318 1.977 0 .167 0 .29-.11.403-.109.112-.337.202-.52.253-.182.05-.534.078-1.053.078H5.605c-1.104 0-2.018-.159-2.739-.475-.722-.317-1.295-.74-1.72-1.268a4.643 4.643 0 0 1-.891-1.805A8.66 8.66 0 0 1 0 15.33V.665C0 .391.058.211.175.127z"/>
    <path fill="#d32d27" d="M78 19.015c0 .467-.184.788-.553.963a9.23 9.23 0 0 1-1.381.496c-.494.137-1.003.244-1.527.322a17.21 17.21 0 0 1-1.556.16 25.2 25.2 0 0 1-1.468.044c-1.28 0-2.342-.131-3.185-.394s-1.512-.613-2.007-1.051a3.491 3.491 0 0 1-1.032-1.548A6.028 6.028 0 0 1 65 16.124c0-.681.111-1.338.334-1.97a4.177 4.177 0 0 1 1.091-1.665c.504-.477 1.159-.861 1.963-1.153.805-.292 1.789-.438 2.952-.438h3.257V10.4c0-.37-.038-.71-.116-1.021a1.792 1.792 0 0 0-.45-.818c-.224-.234-.53-.414-.917-.54-.388-.127-.892-.19-1.512-.19-.66 0-1.535.174-2.02.33-.213.059-.368.068-.465.03-.097-.04-.165-.147-.203-.322l-.408-1.664c-.077-.311.01-.516.262-.613C69.582 5.28 71.301 5 72.154 5c2.017 0 3.495.448 4.435 1.343.94.895 1.411 2.2 1.411 3.912zm-3.432-5.519h-2.792c-.33 0-.683.02-1.061.059a2.994 2.994 0 0 0-1.076.32c-.34.176-.62.43-.844.76-.223.33-.334.788-.334 1.372 0 .837.281 1.421.843 1.752.563.331 1.309.496 2.24.496.135 0 .324-.004.567-.014.242-.01.499-.034.77-.073.272-.039.558-.088.858-.146.3-.058.577-.136.83-.234v-4.292z"/>
    <path fill="#000" d="M40 16.285c.013.778-.123 1.462-.407 2.05a3.978 3.978 0 0 1-1.195 1.467 5.396 5.396 0 0 1-1.823.878 9.035 9.035 0 0 1-2.29.318 17.89 17.89 0 0 1-3.094-.238c-.53-.088-1.042-.21-1.535-.368a7.68 7.68 0 0 1-1.362-.574c-.296-.15-.368-.383-.217-.698l.675-1.646c.095-.177.19-.29.288-.34.097-.051.253-.03.47.064.71.319 1.497.562 2.36.732.864.17 1.628.25 2.294.238.82-.015 1.434-.186 1.84-.514.404-.329.602-.745.594-1.252-.01-.564-.282-1.007-.816-1.329-.534-.321-1.332-.667-2.395-1.038a21.672 21.672 0 0 1-2.113-.84c-.601-.28-1.1-.598-1.498-.951a3.783 3.783 0 0 1-.916-1.196c-.213-.444-.325-.958-.335-1.542a4.319 4.319 0 0 1 .324-1.772 3.8 3.8 0 0 1 1.026-1.405c.457-.397 1.028-.714 1.712-.95.685-.235 1.476-.361 2.376-.377a14.06 14.06 0 0 1 2.468.176c.824.132 1.62.347 2.388.645.157.075.252.17.284.287a.843.843 0 0 1-.008.409l-.645 1.675c-.056.157-.128.246-.216.267-.087.02-.21.003-.368-.052-.767-.26-1.44-.432-2.018-.52a11.214 11.214 0 0 0-1.866-.113c-.724.012-1.249.173-1.576.48-.327.308-.488.646-.481 1.016.005.272.062.505.174.697.11.193.285.37.522.532.238.16.549.326.933.494.384.169.852.346 1.403.53.63.223 1.245.46 1.847.713.6.252 1.134.56 1.6.92.466.363.845.794 1.138 1.295.292.501.445 1.112.457 1.832m10.713 4.281a8.407 8.407 0 0 1-2.032.376c-.678.038-1.206.058-1.584.058-1.634 0-2.79-.337-3.466-1.012-.678-.675-1.016-1.706-1.016-3.094l.078-8.208h-2.2c-.202 0-.306-.05-.39-.136-.083-.086-.126-.17-.088-.312.04-.14.584-1.53.584-1.53.033-.051.18-.375.216-.422.06-.076.146-.13.382-.13h1.471V3.357c0-.382.183-.45.272-.528.09-.077.244-.154.464-.231l2.14-.577c.158-.039.288-.024.388.043.099.068.15.208.15.42v3.672h3.002c.219 0 .353.044.403.13.05.087.075.198.075.333v1.575c0 .174-.025.3-.075.376-.05.077-.184.116-.403.116H46.08v7.774c0 .617.15 1.041.448 1.272.3.232.757.347 1.375.347a13.703 13.703 0 0 0 1.718-.13l.523-.072c.199-.038.328-.034.388.014.06.049.1.14.12.275l.328 1.85c.02.117.025.218.015.304-.01.087-.104.17-.283.246z"/>
    <path fill="#d32d27" d="M56.456 20.344c0 .292-.045.474-.136.547-.09.073-.461.109-.742.109h-1.886c-.22 0-.391-.042-.512-.125-.12-.083-.18-.26-.18-.53V1.797c0-.237.052-.642.091-.832.058-.279.055-.377.198-.556.153-.191.386-.322.7-.392.182-.04.276 0 .51 0h5.73c1.003 0 1.92.161 2.753.484a6.07 6.07 0 0 1 2.137 1.374 6.306 6.306 0 0 1 1.384 2.123c.331.823.497 1.723.497 2.701 0 .562-.086 1.234-.256 2.015-.17.78-.512 1.535-1.023 2.263-.512.73-1.23 1.348-2.152 1.858-.923.51-2.137.765-3.641.765h-3.472v6.743zm6.939-14.55a3.11 3.11 0 0 0-.572-1.14c-.27-.343-.647-.628-1.128-.858-.482-.229-1.094-.343-1.836-.343h-3.594v6.932h3.654c1.264 0 2.187-.323 2.769-.968.581-.645.873-1.468.873-2.467 0-.354-.056-.739-.166-1.155zm28.198 12.542a3.982 3.982 0 0 1-1.195 1.466 5.399 5.399 0 0 1-1.823.878 9.033 9.033 0 0 1-2.29.318 17.89 17.89 0 0 1-3.093-.238c-.53-.088-1.043-.21-1.536-.368a7.7 7.7 0 0 1-1.362-.574c-.296-.15-.368-.383-.217-.698l.675-1.646c.095-.177.19-.29.288-.34.097-.051.253-.03.47.064.71.319 1.497.562 2.36.732.864.17 1.628.25 2.293.238.822-.015 1.435-.186 1.84-.514.405-.329.603-.745.594-1.252-.01-.564-.281-1.006-.815-1.329-.534-.321-1.332-.667-2.395-1.038a21.671 21.671 0 0 1-2.113-.84c-.601-.28-1.1-.598-1.498-.951a3.778 3.778 0 0 1-.916-1.196c-.213-.444-.325-.958-.335-1.542a4.319 4.319 0 0 1 .324-1.772 3.8 3.8 0 0 1 1.026-1.405c.457-.397 1.028-.714 1.712-.95.684-.235 1.476-.361 2.376-.377a14.06 14.06 0 0 1 2.468.176c.824.132 1.62.347 2.388.645.157.075.252.17.283.287a.846.846 0 0 1-.007.409l-.646 1.675c-.055.157-.128.246-.215.267-.088.02-.21.003-.368-.052-.767-.26-1.44-.432-2.019-.52-.579-.087-1.2-.125-1.865-.113-.724.012-1.249.173-1.576.48-.328.308-.488.646-.481 1.016.005.272.062.505.174.697.11.193.285.37.522.532.238.16.549.326.933.494.384.169.852.346 1.403.53.63.223 1.245.46 1.847.713.6.252 1.134.56 1.6.92.466.363.845.794 1.137 1.295.292.501.446 1.112.458 1.832.014.778-.122 1.462-.406 2.05zM104 16.285c.013.778-.123 1.462-.406 2.05a3.984 3.984 0 0 1-1.196 1.467 5.4 5.4 0 0 1-1.823.878 9.034 9.034 0 0 1-2.29.318 17.87 17.87 0 0 1-3.093-.238 10.897 10.897 0 0 1-1.536-.368 7.7 7.7 0 0 1-1.362-.574c-.296-.15-.368-.383-.217-.698l.675-1.646c.095-.177.19-.29.288-.34.097-.051.253-.03.47.064.71.319 1.497.562 2.36.732.864.17 1.629.25 2.294.238.82-.015 1.434-.186 1.84-.514.404-.329.602-.745.594-1.252-.01-.564-.282-1.006-.816-1.329-.534-.321-1.332-.667-2.395-1.038a21.672 21.672 0 0 1-2.113-.84c-.601-.28-1.1-.598-1.498-.951a3.783 3.783 0 0 1-.916-1.196c-.213-.444-.325-.958-.335-1.542a4.328 4.328 0 0 1 .324-1.772c.227-.54.57-1.007 1.026-1.405.457-.397 1.028-.714 1.713-.95.684-.235 1.475-.361 2.375-.377a14.06 14.06 0 0 1 2.468.176c.824.132 1.62.347 2.388.645.158.075.252.17.284.287a.84.84 0 0 1-.008.409l-.645 1.675c-.056.157-.128.246-.216.267-.088.02-.21.003-.368-.052-.767-.26-1.44-.432-2.018-.52a11.214 11.214 0 0 0-1.866-.113c-.723.012-1.25.173-1.576.48-.327.308-.488.646-.481 1.016.005.272.062.505.174.697.11.193.285.37.522.532.238.16.549.326.933.494.385.169.852.346 1.404.53a34.8 34.8 0 0 1 1.846.713c.6.252 1.134.56 1.6.92.466.363.845.794 1.138 1.295.292.501.445 1.112.457 1.832"/>
    <path fill="#000" d="M26 19.014c0 .468-.184.789-.553.964-.426.195-.886.36-1.38.496-.495.137-1.004.243-1.528.322-.523.077-1.042.13-1.556.16a25.2 25.2 0 0 1-1.468.044c-1.28 0-2.341-.132-3.185-.394-.843-.263-1.512-.613-2.007-1.051a3.484 3.484 0 0 1-1.032-1.548A6.017 6.017 0 0 1 13 16.124c0-.681.111-1.338.335-1.97a4.175 4.175 0 0 1 1.09-1.665c.504-.477 1.158-.861 1.963-1.153.804-.292 1.789-.438 2.952-.438h3.257V10.4c0-.37-.039-.71-.116-1.021a1.801 1.801 0 0 0-.45-.818c-.224-.234-.53-.413-.917-.54-.388-.126-.892-.19-1.512-.19-.66 0-1.377.059-2.152.175-.776.117-1.406.253-1.89.41-.214.057-.37.067-.466.028-.097-.038-.165-.146-.204-.32l-.407-1.665c-.078-.311.01-.516.262-.613a11.74 11.74 0 0 1 2.676-.657A21.24 21.24 0 0 1 20.154 5c2.017 0 3.495.448 4.436 1.343.94.895 1.41 2.2 1.41 3.912v8.76zm-3.432-5.518h-2.792c-.33 0-.683.02-1.061.059a3.016 3.016 0 0 0-1.076.32c-.34.176-.62.43-.844.76-.223.331-.334.788-.334 1.372 0 .838.28 1.421.843 1.752.563.331 1.309.496 2.24.496.135 0 .324-.004.567-.014a7.44 7.44 0 0 0 .77-.073c.272-.039.558-.088.858-.146.3-.058.577-.136.83-.234v-4.292z"/>
    <path fill="#d32d27" d="M142 5c0-.552.444-1 1-1 .552 0 1 .455 1 1v15c0 .552-.444 1-1 1-.552 0-1-.455-1-1z"/>
    <circle cx="112" cy="13" r="3" fill="#d32d27"/>
    <circle cx="123" cy="13" r="3" fill="#d32d27"/>
    <circle cx="134" cy="13" r="3" fill="#d32d27"/>
  </g>
</svg>
