<svg xmlns="http://www.w3.org/2000/svg" xmlns:xlink="http://www.w3.org/1999/xlink" fill="#fff" fill-rule="evenodd" stroke="#000" stroke-linecap="round" stroke-linejoin="round" viewBox="0 0 150 150">
  <use width="100%" height="100%" x=".5" y=".5" xlink:href="#a"/>
  <symbol id="a" overflow="visible" transform="translate(-.5 -.5)">
    <g fill-rule="nonzero" stroke="none">
      <path fill="#d32d27" d="M0 22.5A22.45 22.45 0 0 1 22.5 0h105A22.45 22.45 0 0 1 150 22.5v105a22.45 22.45 0 0 1-22.5 22.5h-105A22.45 22.45 0 0 1 0 127.5z"/>
      <path d="M18.75 75a12.863 12.863 0 0 1 12.891-12.891c7.142 0 12.89 5.749 12.89 12.891a12.86 12.86 0 0 1-12.89 12.89A12.863 12.863 0 0 1 18.75 75zm34.863 0a12.863 12.863 0 0 1 12.891-12.891c7.142 0 12.89 5.749 12.89 12.891a12.86 12.86 0 0 1-12.89 12.89A12.863 12.863 0 0 1 53.613 75zm35.157 0a12.863 12.863 0 0 1 12.891-12.891c7.142 0 12.89 5.749 12.89 12.891a12.862 12.862 0 0 1-12.891 12.891c-7.142 0-12.89-5.75-12.89-12.891zm36.621-25.125c0-1.662 1.338-3 3-3h-.141c1.662 0 3 1.338 3 3v50.25c0 1.662-1.338 3-3 3h.141c-1.662 0-3-1.338-3-3z"/>
    </g>
  </symbol>
</svg>
