<svg xmlns="http://www.w3.org/2000/svg" xmlns:xlink="http://www.w3.org/1999/xlink" viewBox="0 0 255.995 255.995">
  <defs>
    <linearGradient id="b" x1="0" x2="96.638" y1="187.517" y2="93.652" gradientUnits="userSpaceOnUse">
      <stop offset="0%" stop-color="#0060FF"/>
      <stop offset="100%" stop-color="#1F66D6"/>
    </linearGradient>
    <linearGradient id="d" x1="77.985" x2="245.096" y1=".001" y2="222.426" gradientTransform="scale(.95743 1.04447)" gradientUnits="userSpaceOnUse">
      <stop offset="0%" stop-color="#1F6AE2"/>
      <stop offset="100%" stop-color="#2E7BED"/>
    </linearGradient>
    <linearGradient id="e" x1="117.43" x2="-.299" y1="54.922" y2="134.572" gradientTransform="scale(1.66995 .59882)" gradientUnits="userSpaceOnUse">
      <stop offset="0%" stop-color="#0D57D9"/>
      <stop offset="100%" stop-color="#0D57D9"/>
    </linearGradient>
    <path id="a" d="M255.995.001H0v255.781l255.995.214z"/>
    <path id="f" d="m156.725 8.4 10 33.761 39.273-11.633-4.247-14.334 3.89 4.116 2.812 9.491 4.809-1.426 1.972 2.087-6.054 1.794 11.633 39.272 25.959-7.69 1.97 2.086-27.202 8.06 5.067 17.107h-2.67l-4.852-16.38-39.272 11.632 1.406 4.748h-2.671l-1.19-4.02-13.58 4.02h-9.014l21.867-6.476-11.633-39.272-39.272 11.633 10.105 34.115h-2.67l-9.89-33.388L84 69.336l6.443 21.755h-2.67l-6.228-21.028-39.272 11.633 2.782 9.395h-2.67l-2.567-8.668-29.266 8.668H1.536L39.09 79.968 28.614 44.605l2.464-.697 10.467 35.333 39.272-11.633L70.496 32.77l2.464-.697 10.312 34.81 39.273-11.634-10.166-34.316 2.464-.696 10.156 34.285 39.272-11.633-10.011-33.79zm50 24.583-39.272 11.633 11.633 39.272 39.272-11.633z"/>
  </defs>
  <g transform="translate(0 -.001)">
    <mask id="c" fill="#fff">
      <use width="100%" height="100%" xlink:href="#a"/>
    </mask>
    <use width="100%" height="100%" fill="url(#b)" style="fill:url(#b)" xlink:href="#a"/>
    <path fill="#115ede" d="m102.599 0-.005.005 14.481 14.481L130.05 1.513l.905.905-12.974 12.973 14.482 14.482L145.435 16.9l.906.905-12.974 12.972 14.481 14.481 12.974-12.972.905.905-12.974 12.972 14.481 14.482 12.974-12.973.905.905L164.14 61.55l14.48 14.481 12.974-12.972.905.905-12.973 12.972 14.481 14.481 12.974-12.972.905.905-12.973 12.973 18.705 18.705-.905.905-18.706-18.705-14.48 14.481 18.705 18.705-.906.905-18.704-18.705-14.482 14.482 18.705 18.705-.905.905L163.235 124l-14.48 14.481 18.704 18.705-.905.905-18.705-18.705-14.481 14.482 18.704 18.704-.905.905-18.704-18.705-14.482 14.481 18.705 18.705-.905.906-18.705-18.706-14.481 14.482 18.705 18.705-.905.905-18.705-18.705-14.481 14.481 18.705 18.705-.905.905-18.706-18.705-14.48 14.481 18.704 18.705-.905.905-18.705-18.705-14.481 14.48 18.705 18.707-.905.905-18.706-18.706-14.48 14.481 9.638 9.639-1.811-.001-8.733-8.732-8.717 8.717-1.81-.001 9.622-9.622-14.481-14.48-13.274 13.274-.905-.905L23.853 230.8l-14.48-14.481L0 225.69v-1.81l8.467-8.467L0 206.946v-1.811l9.372 9.373 14.481-14.481-14.48-14.481L0 194.917v-1.81l8.467-8.466L0 176.173v-1.811l9.372 9.373 14.481-14.48-14.48-14.482L0 164.145v-1.811l8.467-8.466L0 145.4v-1.81l9.372 9.373 14.481-14.48L9.371 124 0 133.372v-1.81l8.467-8.466L0 114.628v-1.811l9.372 9.373 14.481-14.48-14.48-14.482L0 102.601v-1.812l8.467-8.466L0 83.855v-1.811l9.372 9.373 14.481-14.48-14.48-14.482L0 71.828v-1.812l8.467-8.466L0 53.082v-1.811l9.372 9.374 14.481-14.482-14.48-14.48L0 41.054v-1.812l8.467-8.466L0 22.31v-1.811l9.372 9.374 14.481-14.481L9.371.909 0 10.281V8.472L8.467.005 8.461 0h1.819l-.003.004 14.482 14.482L39.239.006 39.235 0h1.819l-.003.004 14.482 14.482L70.012.006 70.008 0h1.819l-.003.004 14.48 14.481L100.786.004 100.78 0zM40.144 216.318l-14.48 14.48 14.48 14.483L54.626 230.8zm15.387-15.387L41.05 215.412l14.48 14.483 14.483-14.482zm-30.772.001-14.482 14.481 14.48 14.482 14.483-14.482zm15.386-15.386-14.482 14.481 14.481 14.481 14.482-14.481zm30.772 0-14.48 14.481 14.48 14.481 14.481-14.481zm-15.386-15.387L41.05 184.641l14.48 14.48 14.482-14.48zm30.773 0-14.481 14.482 14.48 14.48 14.482-14.48zm-61.545 0-14.482 14.482 14.482 14.48 14.48-14.48zm46.158-15.386-14.48 14.481 14.48 14.481 14.481-14.48zm-30.773 0-14.48 14.481 14.48 14.481 14.481-14.48zm61.546 0L87.21 169.254l14.481 14.481 14.481-14.48zm-46.16-15.386-14.48 14.48 14.48 14.482 14.482-14.481zm30.774 0-14.481 14.48 14.48 14.482 14.482-14.481zm-61.546 0-14.481 14.48 14.48 14.482 14.482-14.481zm92.319 0-14.482 14.48 14.482 14.482 14.48-14.481zM132.463 124l-14.481 14.482 14.481 14.481 14.481-14.482zm-61.546 0-14.48 14.481 14.48 14.481 14.481-14.48zm-30.773 0-14.48 14.481 14.48 14.481 14.481-14.48zm61.546 0L87.21 138.481l14.481 14.481 14.481-14.48zm15.387-15.385-14.482 14.48 14.482 14.482 14.48-14.482zm-92.32-.001-14.48 14.48 14.482 14.483 14.48-14.481zm123.092 0-14.48 14.482 14.48 14.48 14.482-14.48zm-61.545 0-14.481 14.48 14.48 14.482 14.482-14.481zm-30.773 0-14.481 14.48 14.48 14.482 14.482-14.481zm107.705-15.387-14.482 14.482 14.48 14.481 14.483-14.482zm-61.546.001L87.21 107.71l14.481 14.481 14.481-14.48zm30.773 0-14.481 14.481 14.481 14.481 14.481-14.48zm-92.319 0-14.48 14.48 14.481 14.482 14.481-14.48zm30.773 0-14.48 14.48 14.48 14.481 14.481-14.48zm15.387-15.386-14.481 14.48 14.48 14.482 14.482-14.481zm-61.545 0-14.481 14.48 14.48 14.482L39.24 92.323zm30.772-.001L41.05 92.32l14.482 14.483 14.48-14.481zm61.546 0-14.482 14.482 14.482 14.48 14.48-14.48zm30.772 0-14.48 14.482 14.48 14.48 14.482-14.481zm30.772 0-14.48 14.482 14.48 14.48 14.481-14.48zm-46.158-15.386-14.481 14.481 14.481 14.481 14.481-14.482zm30.772 0-14.481 14.481 14.48 14.481 14.482-14.48zm-92.318 0-14.48 14.481 14.48 14.481 14.481-14.48zm-30.772 0-14.48 14.481 14.48 14.481 14.481-14.48zm61.545 0L87.21 76.936l14.481 14.481 14.481-14.48zM24.76 47.07l-14.481 14.48 14.48 14.482L39.24 61.55zm92.318 0-14.482 14.48 14.482 14.482 14.48-14.481zm-30.773 0-14.481 14.48 14.48 14.482 14.482-14.481zm-30.773 0L41.05 61.549l14.48 14.482L70.013 61.55zm92.317 0-14.48 14.48 14.48 14.482L162.33 61.55zm-15.386-15.387-14.48 14.481 14.481 14.482 14.48-14.482zm-30.772 0L87.21 46.163l14.481 14.482 14.481-14.482zm-30.773 0-14.48 14.481 14.48 14.482 14.481-14.482zm-30.773 0-14.48 14.481 14.48 14.482 14.481-14.482zM24.758 16.296 10.277 30.777l14.482 14.482 14.48-14.481zm92.319 0-14.482 14.481 14.482 14.481 14.48-14.481zm-30.773 0L71.823 30.777l14.48 14.481 14.482-14.481zm-30.773 0L41.05 30.777l14.48 14.481 14.482-14.481zM40.144.909l-14.48 14.482 14.481 14.482 14.481-14.481zm30.773 0-14.48 14.482 14.48 14.48 14.481-14.48zm30.773 0L87.21 15.391l14.481 14.48 14.481-14.48z" mask="url(#c)"/>
    <g mask="url(#c)">
      <path fill="url(#d)" d="m0 .001 191.996 255.995h42.666V0z" style="fill:url(#d)" transform="translate(21.333)"/>
      <path fill="#3582f7" fill-rule="evenodd" d="M255.995.001v.73l-10.982 10.981 10.982 10.982v1.811l-11.887-11.887-14.48 14.481 14.481 14.482 11.886-11.886v1.81l-10.98 10.981 10.98 10.981v1.81L244.11 43.391l-14.48 14.481 14.48 14.481 11.886-11.886v1.81l-10.98 10.981 10.98 10.981v1.811l-11.887-11.887-14.48 14.482 14.48 14.481 11.887-11.888v1.81l-10.982 10.983 10.982 10.982v1.81l-11.887-11.887-14.48 14.481 14.481 14.482 11.886-11.886v1.81l-10.98 10.981 10.98 10.981v1.81l-11.886-11.886-14.482 14.481 14.481 14.481 11.887-11.886v1.81l-10.982 10.981 10.982 10.982v1.81l-11.887-11.887-14.482 14.481 14.482 14.482 11.887-11.888v1.812l-10.982 10.981 10.982 10.982v1.81l-11.887-11.887-14.48 14.481 14.48 14.481 11.887-11.887v1.81l-10.982 10.982 10.982 10.982v1.81l-11.887-11.887-14.48 14.481 13.487 13.488h-1.81l-12.583-12.582-12.583 12.582h-1.81l13.488-13.487-14.48-14.48-11.992 11.989-.775-1.035 11.86-11.86-14.48-14.482-9.793 9.792-.776-1.035 9.663-9.662-14.48-14.48-7.595 7.593-.776-1.034 7.465-7.465-14.482-14.482-5.396 5.396-.775-1.034 5.266-5.267-14.48-14.48-3.199 3.197-.776-1.034 3.07-3.069-14.482-14.48-1 .999-.776-1.034.871-.87-6.094-6.095-5.433-7.244 12.432 12.432 14.481-14.48-14.48-14.482-14.189 14.188-.776-1.035 14.06-14.058-14.482-14.48-11.99 11.989-.776-1.034 11.861-11.86-14.482-14.483-9.792 9.792-.776-1.034 9.663-9.663-14.48-14.48-7.595 7.593-.776-1.034 7.465-7.465-14.48-14.48-5.397 5.395-.776-1.034 5.267-5.267L59.472 43.39l-3.198 3.198-.776-1.034 3.07-3.069-14.482-14.48-1 .999-.776-1.034.871-.87-6.095-6.097-5.429-7.238 12.43 12.43 14.48-14.482L46.854.001h1.81l10.808 10.807L70.28.001h1.81L60.377 11.713l14.481 14.481 14.482-14.48L77.627 0h1.81l10.808 10.807L101.052.001h1.81L91.15 11.713l14.481 14.481 14.482-14.48L108.4 0h1.81l10.808 10.807L131.826.001h1.81l-11.713 11.712 14.481 14.481 14.481-14.48L139.172 0h1.81l10.808 10.807L162.597.001h1.81l-11.712 11.712 14.481 14.481 14.482-14.48L169.945 0h1.811l10.807 10.806L193.37.001h1.812L183.47 11.713l14.481 14.481 14.481-14.48L200.718 0h1.81l10.808 10.807L224.144.001h1.81l-11.713 11.712 14.481 14.481 14.481-14.48L231.49 0h1.811l10.807 10.806L254.915.001zm0 245.1v1.81l-9.084 9.084h-1.81zm-27.273-32.46-14.48 14.48 14.48 14.481 14.481-14.48zm-15.387-15.388-14.48 14.481 14.481 14.482 14.481-14.48zm15.386-15.386-14.48 14.481 14.481 14.482 14.481-14.48zm-30.77.001-14.483 14.481 14.481 14.48 14.481-14.48zm-15.388-15.387-14.48 14.481 14.48 14.481 14.481-14.48zm30.773.001-14.48 14.481 14.48 14.48 14.48-14.48zm-15.387-15.387-14.48 14.481 14.48 14.481 14.481-14.48zm-30.772 0-14.482 14.481 14.482 14.481 14.481-14.48zm61.545 0-14.48 14.482 14.48 14.48 14.481-14.48zm-15.387-15.387-14.48 14.482 14.48 14.481 14.482-14.48zm-61.545 0-14.48 14.481 14.48 14.482 14.482-14.48zm30.773.001-14.48 14.481 14.48 14.481 14.481-14.48zm-15.387-15.387-14.48 14.481 14.481 14.482 14.481-14.48zm30.773 0-14.48 14.482 14.48 14.481 14.481-14.482zm30.773 0-14.482 14.481 14.482 14.482 14.482-14.48zm-46.159-15.386-14.482 14.481 14.482 14.482 14.481-14.482zm-30.773 0-14.48 14.481 14.48 14.481 14.481-14.48zm61.546 0-14.482 14.481 14.481 14.481 14.482-14.48zM136.404 89.55l-14.48 14.481 14.48 14.481 14.481-14.48zm30.772 0-14.48 14.481 14.48 14.481 14.482-14.48zm30.774 0-14.482 14.481 14.481 14.481 14.482-14.48zm30.772 0-14.48 14.481 14.48 14.481 14.481-14.48zM151.79 74.163l-14.48 14.482 14.48 14.481 14.481-14.482zm30.773 0-14.482 14.481 14.482 14.482 14.482-14.48zm30.773.001-14.48 14.481 14.48 14.481 14.481-14.48zm-92.319 0-14.48 14.48 14.481 14.482 14.481-14.48zm76.932-15.387-14.48 14.481L197.95 87.74l14.481-14.48zm30.773 0-14.48 14.482 14.48 14.481 14.481-14.482zm-92.318 0-14.482 14.481 14.482 14.482 14.481-14.482zm-30.773 0-14.48 14.481 14.48 14.481 14.481-14.48zm61.546 0-14.482 14.481 14.481 14.481 14.482-14.48zm46.158-15.387-14.48 14.482 14.481 14.482 14.481-14.482zm-61.544.001L137.31 57.872l14.481 14.481 14.482-14.48zm-61.546 0-14.48 14.481 14.48 14.481 14.481-14.48zm92.318 0-14.48 14.481 14.48 14.481 14.481-14.48zm-61.546 0-14.48 14.481 14.48 14.481 14.482-14.48zM74.858 28.003l-14.48 14.481 14.481 14.482 14.481-14.48zm123.091 0-14.48 14.482 14.48 14.481 14.481-14.482zm30.773 0-14.48 14.481 14.481 14.482 14.481-14.48zm-123.09 0L91.15 42.486l14.481 14.481 14.481-14.482zm30.772 0-14.482 14.481 14.482 14.482 14.481-14.482zm30.773.001-14.48 14.481 14.48 14.481 14.481-14.48zm15.386-15.387L168.083 27.1l14.48 14.481L197.044 27.1zm-92.318 0L75.763 27.1l14.482 14.482L104.726 27.1zm30.773 0L106.536 27.1l14.481 14.481L135.5 27.1zm92.318 0L198.856 27.1l14.48 14.481 14.481-14.48zm-153.864 0L44.992 27.1l14.48 14.481L73.953 27.1zm92.318 0L137.31 27.1l14.48 14.481 14.481-14.48zM41.318.001 29.898 11.42l-.775-1.034L39.508.001z"/>
    </g>
    <g mask="url(#c)">
      <g transform="translate(0 164.904)">
        <path fill="url(#e)" stroke="#0d57d9" d="M0 91.092h255.995V73.599L186.45 0 0 52.692z" style="fill:url(#e)"/>
        <use width="100%" height="100%" fill="#1362dd" fill-rule="evenodd" xlink:href="#f"/>
      </g>
    </g>
    <g mask="url(#c)">
      <path fill="#6aabd4" fill-rule="evenodd" d="m128.851 133.545-30.72-88.318-11.519 65.705z"/>
      <path fill="#e4f6fe" d="m128.851 133.545 40.533-22.613-71.252-65.705z"/>
      <path fill="#a8cce9" d="m209.49 180.904-40.106-69.972-40.533 22.613z"/>
      <path fill="#d8e9f8" d="m168.104 198.397 41.386-17.493-80.639-47.36z"/>
      <path fill="#84c1f2" d="m46.933 180.904 121.17 17.493-39.252-64.852z"/>
      <path fill="#aecee9" d="m86.612 110.932-39.68 69.972 81.92-47.36z"/>
    </g>
  </g>
</svg>
