<svg xmlns="http://www.w3.org/2000/svg" viewBox="0 0 256 341.574">
  <path fill="#0092f2" d="M87.412 291.886h38.781s-16.325 45.268-19.462 49.688c-3.635-4.705-19.319-49.688-19.319-49.688zm42.56 0h38.78s-16.325 45.268-19.462 49.688c-3.635-4.705-19.319-49.688-19.319-49.688zm-2.03-136.005c-20.542 0-37.195-16.653-37.195-37.195 0-20.543 16.653-37.196 37.195-37.196s37.195 16.653 37.195 37.196c0 20.542-16.653 37.195-37.195 37.195zm125.422 70.324c-5.238-26.508-17.327-49.408-36.176-68.738-.451-.462-1.412-1.187-1.412-1.187s-.101-2.277-.114-3.475c-.128-11.406-1.586-22.556-3.992-33.718-8.803-40.85-30.092-74.226-60.905-101.934-7.201-6.476-22.676-17-22.595-17.06 1.774-1.302-15.932 11.445-22.215 16.917-12.98 11.307-24.214 23.64-34.006 38.107-19.483 28.788-30.381 60.2-31.271 95.01-.05 1.928 0 5.982 0 5.982s-2.136 1.623-3.93 3.588C6.758 193.874-5.88 232.937 2.57 278.204c1.49 7.98 7.709 14.568 15.607 15.579 8.905 1.14 16.395-2.974 20.62-11.563 6.383-12.975 14.762-24.546 24.72-35.031 1.99-2.094 2.083-2.05 3.412.194 4.007 6.763 8.649 13.096 13.512 19.275 1.115 1.417.678.923 1.817 2.547h91.48c4.785-6.094 11.229-15.108 15.15-21.788 1.464-2.492 1.613-2.64 3.797-.334 10.186 10.757 18.312 22.863 24.914 36.102 3.873 7.768 11.509 11.738 20.106 10.54 7.518-1.045 14.009-7.235 15.607-14.923 3.63-17.47 3.519-35.046.05-52.597M147.936 118.742c0 11.011-8.926 19.936-19.936 19.936-11.011 0-19.937-8.925-19.937-19.936 0-11.01 8.926-19.936 19.937-19.936 11.01 0 19.936 8.925 19.936 19.936"/>
</svg>
