<svg xmlns="http://www.w3.org/2000/svg" viewBox="0 0 511.886 157.268">
  <path fill="#202433" d="M250.166 110.523c3.065 0 5.895.472 8.253 1.415 2.357.943 4.715 2.358 6.366 4.244 1.65 1.887 3.065 4.009 3.537 6.838.943 2.594 1.414 5.423 1.414 8.488 0 2.234-1.058 3.621-3.375 3.761l-.397.012h-29.945c.236 1.65.472 3.3 1.18 4.715.706 1.65 1.885 3.301 3.064 4.48 1.18 1.415 2.83 2.358 4.48 3.065 1.886.708 3.773 1.18 5.659 1.18 2.83 0 4.951-.708 6.838-1.651 1.886-1.179 3.3-2.358 4.48-3.537 1.331-1.553 3.29-1.645 4.694-.667l.257.196c.707.471 1.179 1.414 1.179 2.357 0 .472 0 .708-.236 1.18 0 .392-.164.785-.491 1.178l-.216.236c-2.122 2.358-4.48 4.008-7.31 5.187-2.829 1.18-5.658 1.65-8.96 1.65-3.064 0-6.13-.47-8.723-1.65-2.594-1.179-4.952-2.83-6.838-4.715-1.886-2.122-3.3-4.48-4.48-7.074-1.179-2.593-1.65-5.659-1.65-8.724 0-3.065.471-6.13 1.65-8.724 1.18-2.83 2.594-5.187 4.48-7.073 2.122-2.122 4.244-3.537 6.838-4.716 2.593-1.179 5.187-1.65 8.252-1.65zm172.83.708c.471 0 .943.236 1.178.471.236.236.708.708.708 1.415.188.566.377 1.132.445 1.698l.026.424v35.368c0 .707-.236 1.414-.471 1.886l-.245.463c-.174.297-.384.559-.698.716l-.483.268c-.215.119-.413.203-.696.203-.236.236-.708.236-.943.236-.19 0-.378-.15-.687-.211l-.257-.025c-.471 0-.943-.235-1.179-.471l-.365-.381c-.21-.232-.436-.515-.578-.798-.188-.566-.377-1.132-.445-1.698l-.026-.424v-35.368c0-.943.236-1.65.471-2.122l.245-.463c.175-.296.384-.558.698-.716l.483-.267c.215-.12.413-.204.696-.204.944-.236 1.415-.236 2.122 0zm-81.582-.708c5.423 0 9.432 1.651 11.554 4.952 2.45 2.895 3.847 6.841 3.995 11.64l.013.856v22.4c0 .707-.236 1.415-.471 1.886-.236.472-.472.943-.944 1.18l-.482.267c-.215.119-.414.204-.696.204-.236.235-.708.235-.944.235-.235 0-.471-.235-.943-.235-.471 0-.943-.236-1.179-.472-.235-.236-.707-.707-.943-1.179-.188-.566-.377-1.132-.445-1.698l-.026-.424V130.33c0-2.122-.236-4.008-.472-5.659-.236-1.65-.943-3.065-1.65-4.244-.62-.825-1.419-1.65-2.557-2.317l-.509-.276c-1.179-.708-2.829-.943-4.951-.943-1.415 0-2.83.235-4.244.943-1.415.707-2.594 1.65-3.773 2.83-.943 1.178-1.886 2.829-2.593 4.715-.63 1.677-.885 3.726-.934 5.982l-.01.856v18.155c0 .943-.235 1.65-.471 2.122l-.244.463c-.175.297-.385.559-.7.716l-.482.268c-.215.119-.413.203-.696.203-.943.236-1.415.236-2.122 0-.472 0-.707-.235-1.179-.471l-.366-.381c-.21-.232-.436-.515-.577-.798-.189-.566-.377-1.132-.445-1.698l-.027-.424v-35.84c0-.707.236-1.414.472-1.885.236-.472.471-.944.943-1.18.472-.235.707-.471 1.179-.471.707-.236 1.179-.236 1.886 0 .472 0 .708.236 1.18.472l.467.482c.192.216.334.414.475.697.197.392.393.95.453 1.533l.019.353v2.593c1.179-1.65 2.83-3.065 4.951-4.244 2.594-1.65 5.423-2.358 8.489-2.358zm-46.92 0c2.357 0 4.48.236 6.366.944 1.886.707 3.772 1.65 5.187 2.829 1.415 1.415 2.593 3.065 3.537 4.951.628 1.677 1.07 3.726 1.161 5.983l.017.855v20.513c0 .53.133 1.194.2 1.79l.036.568v1.18c0 1.178-.236 1.885-.943 2.593-1.179.943-2.594 1.179-4.244.235-.707-.471-1.179-1.414-1.415-2.829 0-.943-.235-1.65-.235-2.594-1.5 1.93-3.001 3.469-4.856 4.442l-.567.274c-2.358 1.18-5.424 1.886-8.724 1.886a17.95 17.95 0 0 1-4.952-.707c-1.65-.236-3.3-1.179-4.716-2.122-1.414-.943-2.593-2.358-3.536-4.008-.943-1.65-1.415-3.773-1.415-6.13 0-3.302.943-5.895 2.594-7.782 1.65-1.886 3.772-3.3 6.602-4.244 2.829-.707 5.894-1.414 9.43-1.65l3.31-.227c1.664-.105 3.347-.19 5.08-.226l1.75-.019v-.707c0-3.301-.944-5.659-2.594-7.31-1.65-1.65-4.244-2.357-7.545-2.357-3.773 0-7.074 1.179-10.139 3.3-1.886 1.18-3.3.944-4.48 0-.707-.707-.943-1.414-.943-2.357 0-.943.472-1.886 1.415-2.594 1.415-1.414 3.537-2.358 6.13-3.3 2.594-.708 5.423-1.18 8.488-1.18zM406.725 90.01c.944 0 1.887.236 2.594.943.707.708.943 1.65.943 2.594 0 .472 0 .943-.236 1.415-.196.393-.556.95-1.08 1.397l-.334.253-26.644 22.635 28.766 27.587c.943.943 1.414 2.122 1.414 3.065 0 1.18-.471 2.122-1.179 2.83-.707.707-1.65 1.179-2.829 1.179-.838 0-1.863-.373-2.743-1.118l-.322-.297-30.416-30.888V149.9c0 .809-.173 1.444-.371 1.906l-.1.216c-.237.472-.472.943-.944 1.18-.471.47-.943.707-1.415.707-.943.235-1.414.235-2.122 0-.471-.236-.707-.472-1.179-.708l-.365-.38c-.21-.233-.436-.516-.578-.799a4.585 4.585 0 0 1-.457-1.732l-.014-.39V94.02c0-1.65.471-2.83 1.415-3.301 1.65-.943 2.593-.943 4.48 0 .864.432 1.332 1.459 1.404 2.898l.01.403v23.342l29.237-26.172c.472-.471 1.18-.707 1.65-.943.708-.236.944-.236 1.415-.236zm37.49 9.432c.472 0 .707.235 1.179.471l.366.381c.21.232.436.515.577.798.189.566.377 1.132.445 1.698l.027.424v8.253h8.724c1.286 0 2.182.194 2.689.938l.14.24c.472.708.707 1.415.707 1.887 0 .471-.235 1.179-.707 1.886-.424.637-1.23 1.082-2.42 1.165l-.41.014h-8.723v23.107c0 2.83.471 4.48 1.414 5.423.943.943 2.122 1.414 3.773 1.414.707 0 1.65-.235 2.358-.471.471-.236.943-.236 1.414-.236.943 0 1.65.236 1.887.707.707.708.943 1.415.943 2.358 0 .472-.236 1.18-.472 1.65-.236.472-.943.944-1.886 1.415l-.617.203c-.533.168-1.135.336-1.977.505-.943.236-2.122.236-3.065.236-.943 0-2.358-.236-3.537-.472-1.179-.472-2.357-.943-3.536-1.886-1.18-.943-2.122-2.122-2.83-3.537-.636-1.273-1.082-2.928-1.165-4.966l-.014-.693v-24.757h-5.659c-1.414 0-2.357-.472-2.829-1.179-.471-.707-.707-1.415-.707-1.886 0-.472.236-1.18.707-1.886.424-.637 1.23-1.083 2.42-1.165l.41-.014h5.658v-8.253c0-.808.174-1.443.371-1.905l.1-.217c.237-.471.472-.943.944-1.179l.483-.268c.215-.118.413-.203.696-.203.943-.236 1.179-.236 2.122 0zM198.53 90.953c.864.433 1.332 1.46 1.405 2.899l.01.402v52.344h25.464c.707 0 1.415.236 1.886.472.472.236.944.471 1.18.943.235.236.47.707.942 1.179.236.236.236.707.236.943 0 .59-.164 1.179-.491 1.768l-.216.354c-.429.858-1.442 1.325-2.686 1.403l-.38.012h-28.765c-2.926 0-4.348-1.504-4.471-4.102l-.009-.378V94.254c0-1.65.472-2.829 1.415-3.3 1.65-.944 2.593-.944 4.48 0zm105.395 42.206h-1.18c-1.964 0-3.929.163-5.757.354l-1.08.117c-2.358.236-4.715.708-6.602 1.18-1.886.707-3.536 1.414-4.715 2.593-1.18.943-1.65 2.358-1.65 4.008 0 1.415.235 2.358.706 3.301.472.943.944 1.65 1.887 2.122.707.472 1.886.943 2.83 1.179 3.064.707 6.13.236 8.487-.707 1.415-.708 2.83-1.65 3.773-2.83.943-1.179 1.886-2.358 2.358-4.008.619-1.444.877-2.888.931-4.333l.012-.618zm-53.759-16.27c-1.886 0-3.772.236-5.187 1.18-1.65.707-3.065 1.65-4.244 2.829-1.18 1.179-2.122 2.594-2.83 4.008-.606 1.01-.866 2.194-1.076 3.403l-.102.606h26.172c-.22-3.301-1.262-5.986-3.125-8.055l-.412-.434c-2.122-2.357-5.187-3.536-9.196-3.536zm242.15-21.927c.471 0 .943.236.943 1.179v15.09c0 .943-.472.943-.943.943-.236 0-.943-.236-.943-.943V98.97l-5.423 12.496c-.236.707-.708.707-.944.707-.235 0-.707-.236-.943-.707L478.64 98.97v12.26c0 .708-.471.944-.943.944-.236 0-.943-.236-.943-.943V96.14c0-.943.707-1.18.943-1.18s.708.237 1.18.944l6.13 13.911 6.13-13.911c.471-.707.707-.943 1.179-.943zm-18.156.236c.708 0 .944.471.944.707l-.008.164c-.03.241-.182.543-.936.543h-4.951v14.383c0 .707-.472.943-.944.943-.235 0-.943-.236-.943-.943V96.612h-4.951c-.708 0-.943-.471-.943-.707s.235-.707.943-.707zm-49.043-2.122c.944.943 1.415 2.122 1.415 3.536 0 1.415-.471 2.594-1.415 3.537-.943.943-2.122 1.415-3.3 1.415-1.18 0-2.358-.472-3.301-1.415-.944-.943-1.415-2.122-1.415-3.537 0-1.414.471-2.593 1.415-3.536 2.122-1.651 4.715-1.651 6.601 0zm-150.43-68.378c2.123 0 4.48.236 6.367.943 1.886.708 3.772 1.65 5.187 2.83 1.415 1.415 2.594 3.065 3.537 4.951.629 1.677 1.071 3.726 1.162 5.983l.017.855v20.749c0 .707.235 1.65.235 2.358.19.188.227.528.234.777l.002.873c0 1.18-.235 1.887-.943 2.594-.707.471-1.414.707-2.83 1.179-.47 0-1.178-.236-1.885-.708-.708-.471-1.18-1.65-1.415-3.065-.236-.707-.236-1.65-.236-2.358-1.65 2.122-3.537 3.773-5.423 4.716-2.358 1.179-5.423 1.886-8.724 1.886-1.65 0-3.3-.235-4.951-.707-1.65-.472-3.301-1.415-4.716-2.358-1.415-.943-2.594-2.358-3.537-4.008-.943-1.65-1.414-3.773-1.414-6.13 0-3.301.943-6.13 2.593-8.017 1.65-1.886 3.773-3.301 6.602-4.244 2.83-.943 5.895-1.65 9.431-1.886l3.31-.228c1.664-.104 3.347-.19 5.08-.226l1.75-.018v-.707c0-3.301-.944-5.66-2.595-7.31-1.65-1.65-4.244-2.358-7.545-2.358-3.536 0-6.837 1.18-9.903 3.301-1.886 1.18-3.536 1.18-4.715 0-.708-.707-.943-1.414-.943-2.357 0-.944.471-1.65 1.414-2.594 1.467-1.048 3.307-2.096 5.52-2.978l.847-.323c2.357-.943 5.423-1.415 8.488-1.415zm152.788 0c3.066 0 5.895.472 8.253 1.415 2.358.943 4.48 2.358 6.366 4.244 1.65 1.886 3.065 4.008 4.008 6.602.943 2.594 1.415 5.423 1.415 8.488 0 2.234-1.27 3.621-3.609 3.761l-.4.012h-29.944c.236 1.65.472 3.3 1.179 4.715.707 1.65 1.886 3.301 3.065 4.48 1.18 1.415 2.83 2.358 4.48 3.066 1.65.707 3.537 1.178 5.423 1.178 2.83 0 4.952-.707 6.838-1.65 1.886-1.179 3.3-2.358 4.48-3.537.943-.943 1.886-1.414 2.83-1.414.942 0 1.65.471 2.357.943.707.471 1.179 1.414 1.179 2.357 0 .472 0 .708-.236 1.18-.236.471-.471.943-.943 1.414-2.122 2.358-4.48 4.008-7.31 5.187-2.593 1.18-5.658 1.65-8.96 1.65-3.064 0-6.13-.47-8.723-1.65-2.594-1.179-4.952-2.83-6.838-4.715-1.886-1.887-3.537-4.244-4.715-6.838-1.18-2.594-1.651-5.659-1.651-8.724 0-3.065.472-6.13 1.65-8.724.944-2.83 2.594-5.187 4.48-7.074 1.887-2.122 4.245-3.536 6.838-4.715 2.594-1.18 5.423-1.65 8.488-1.65zM210.79 4.893c3.301 0 6.13.235 8.724.943 2.306.628 4.425 1.443 6.192 2.61l.646.455.611.488c1.386 1.178 2.486 2.608 3.301 4.071l.332.628c1.18 2.122 1.65 4.716 1.65 7.545 0 2.83-.707 5.423-1.65 7.545-1.179 2.122-2.593 4.009-4.48 5.423-1.886 1.415-4.244 2.594-6.837 3.301a34.136 34.136 0 0 1-7.703 1.162l-1.021.017h-10.14V64.31c0 .943-.235 1.65-.47 2.122l-.245.463c-.175.297-.384.559-.699.716-.471.471-.943.707-1.415.707-.471.236-.943.236-1.178.236-.472 0-.708-.236-1.18-.236-.235-.236-.707-.471-1.178-.707l-.366-.381c-.21-.232-.436-.515-.577-.798a4.585 4.585 0 0 1-.458-1.732l-.014-.39V9.372c0-2.694 1.497-4.32 4.084-4.468l.396-.011zM320.901 23.99c5.423 0 9.432 1.65 12.261 4.951 2.441 3.107 3.838 7.05 3.994 11.827l.014.906v22.4c0 .942-.236 1.65-.471 2.121l-.245.463c-.175.297-.384.559-.698.716-.236.236-.708.472-1.18.472-.235.235-.707.235-.943.235-.188 0-.377-.15-.686-.21l-.257-.025c-.471 0-.707-.236-1.179-.472l-.365-.38c-.21-.233-.436-.516-.578-.799-.188-.566-.377-1.132-.445-1.697l-.026-.425V44.268c0-2.122-.236-4.008-.472-5.658-.236-1.651-.943-3.066-1.65-4.245-.708-1.178-1.887-1.886-3.065-2.593-1.18-.708-2.83-.943-4.952-.943-1.415 0-2.83.235-4.244.943-1.415.707-2.594 1.65-3.773 2.83-.943 1.178-1.886 2.829-2.593 4.715-.629 1.677-.885 3.726-.934 5.982l-.01.856v18.39c0 .944-.235 1.651-.47 2.123l-.245.463c-.175.297-.385.558-.699.716-.236.235-.707.471-1.179.471-.943.236-1.415.236-2.122 0-.472 0-.707-.236-1.179-.471l-.366-.381c-.21-.232-.436-.515-.577-.798-.189-.566-.377-1.132-.445-1.698l-.027-.424V32.008l-.707-2.358v-1.415c0-.707.236-1.415.472-1.886.235-.472.471-.943.943-1.18l.483-.267c.215-.119.413-.204.696-.204.707-.235 1.179-.235 1.886 0 .472 0 .707.236 1.179.472.236.471.707.707.943 1.179.197.393.393.95.453 1.533l.019.353v2.358c1.179-1.65 2.593-3.065 4.715-4.244 2.83-1.65 5.66-2.358 8.724-2.358zm162.69 1.415c.84.419 1.491 1.21 1.957 2.375l.166.454 9.903 28.766 8.96-29.238c.471-1.178.943-1.886 1.65-2.357.472-.236 1.179-.472 1.886-.472.826 0 1.65.18 2.318.7l.276.243.254.276c.483.569.817 1.237.903 1.807l.022.275v.707c0 .378 0 .604-.121.92l-.115.26-11.318 34.188c-.428 1.5-1.247 2.611-2.1 3.155l-.257.146-.39.188c-.756.346-1.362.52-1.968.52-.354 0-.575-.133-.862-.2l-.317-.037c-.472 0-.943-.235-1.415-.471-.471-.236-.707-.707-1.179-1.179-.404-.606-.635-1.04-.841-1.745l-.102-.377-9.431-28.294-9.432 28.294c-.471 1.65-1.414 2.83-2.357 3.3-.944.472-1.651.708-2.358.708-.354 0-.575-.132-.862-.199l-.317-.037c-.472 0-.943-.235-1.415-.471l-1.179-1.179c-.404-.606-.635-1.04-.841-1.745l-.102-.377-11.318-34.189c-.235-.707-.235-1.179-.235-1.65 0-.943.471-1.886 1.179-2.594.707-.707 1.65-.943 2.593-.943l.457.011c.419.028.924.124 1.43.46.628.42 1.257 1.025 1.555 1.983l.095.376L467.323 57l9.667-28.766c.471-1.415 1.179-2.358 2.122-2.83 1.65-.707 2.83-.707 4.48 0zm-87.946-.236c.471 0 .707.236 1.178.471.472.236.708.708.708 1.18.188.565.377 1.131.445 1.697l.026.424V64.31c0 .943-.235 1.65-.471 2.122l-.245.463c-.174.297-.384.559-.698.716-.236.236-.708.471-1.18.471-.235.236-.707.236-.942.236-.189 0-.378-.15-.687-.211l-.256-.025c-.472 0-.708-.235-1.18-.471l-.365-.381c-.21-.232-.436-.515-.578-.798-.188-.566-.377-1.132-.445-1.698l-.026-.424V28.942c0-.808.173-1.443.371-1.905l.1-.217c.236-.471.472-.943.944-1.179.235-.235.707-.471 1.179-.471.943-.236 1.178-.236 2.122 0zM244.507.177c.283 0 .481.085.696.204l.483.267.166.168c.25.257.589.634.777 1.011l.197.565c.124.36.226.71.261 1.18l.014.377v60.36c0 .944-.236 1.651-.472 2.123l-.244.463c-.175.297-.384.559-.699.716l-.483.268c-.215.119-.413.203-.696.203-.235.236-.707.236-.943.236-.188 0-.377-.15-.686-.211l-.257-.025c-.471 0-.707-.235-1.179-.471l-.38-.366c-.233-.21-.516-.436-.799-.577l-.196-.565a4.443 4.443 0 0 1-.261-1.18l-.014-.377V3.949c0-.808.173-1.443.371-1.905l.1-.217c.236-.471.472-.943.944-1.179l.482-.267c.215-.12.414-.204.696-.204.944-.236 1.18-.236 2.122 0zm102.566 24.521c.708 0 1.18.236 1.886.472a4.856 4.856 0 0 1 1.7 1.937l.187.42 12.26 31.124 12.497-31.123c.472-.943.943-1.65 1.65-2.122.472-.236 1.18-.472 1.887-.472 1.179 0 2.122.236 2.83.943.47.708.942 1.65.942 2.594l-.008.344c-.023.369-.116.796-.489 1.141l-.21.165-14.383 34.189c-.472 1.65-1.415 2.594-2.358 3.065-.943.472-1.886.707-2.594.707-.707 0-1.65-.235-2.593-.707-.849-.424-1.507-1.23-2.146-2.59l-.212-.475-14.383-34.189-.227-.698c-.14-.454-.244-.874-.244-1.188 0-.943.471-1.886 1.179-2.594.707-.707 1.65-.943 2.829-.943zm-63.19 22.636-2.146.001c-1.947.008-3.984.046-5.87.234-2.358.236-4.716.708-6.602 1.18-1.887.707-3.537 1.414-4.716 2.593-1.179.943-1.65 2.358-1.65 4.008 0 1.415.235 2.358.707 3.301.471.943.943 1.65 1.886 2.122s1.886.943 2.83 1.18l1.331.267c.64.119 1.262.204 1.97.204 1.886 0 3.772-.236 5.187-.943 1.414-.708 2.83-1.65 3.772-2.83.809-1.01 1.617-2.194 2.129-3.403l.23-.605c.618-1.444.876-2.889.93-4.333l.012-.619zm143.357-16.27c-1.887 0-3.537.236-5.188.944-1.65.707-3.065 1.65-4.244 2.829-1.179 1.179-2.122 2.594-2.83 4.008-.605 1.213-.865 2.252-1.076 3.415l-.102.594h26.172c-.44-3.081-1.291-5.751-3.128-7.819l-.409-.434c-2.122-2.358-5.187-3.537-9.195-3.537zm-217.157-19.57h-9.903V32.48h9.903c4.716 0 8.488-.943 10.846-2.83 2.358-1.886 3.537-4.48 3.537-7.78 0-3.537-1.18-6.13-3.773-7.78-2.21-1.548-5.664-2.474-9.778-2.584zm187.92-4.48c1.178.944 1.65 2.123 1.65 3.537 0 1.415-.707 2.594-1.65 3.537-.944.943-2.123 1.415-3.302 1.415-1.414 0-2.357-.472-3.3-1.18-1.18-.942-1.651-2.121-1.651-3.536 0-1.286.39-2.572 1.346-3.504l.304-.268.304-.283c1.854-1.598 4.288-1.504 6.298.283z"/>
  <path fill="#a4a7ad" d="M135.104 31.3 76.865 2.063a13.02 13.02 0 0 0-11.081 0L16.74 26.35 8.96 30.357a13.02 13.02 0 0 1 11.082 0l27.586 12.26 1.415.472 66.49 34.66-66.726 34.897-.707.235-28.294 14.855c-3.537 1.65-7.545 1.886-11.082 0l-1.415-.708 58.239 29.002a13.02 13.02 0 0 0 11.082 0l58.474-29.237c4.244-2.123 6.838-6.367 6.838-11.082V91.425h.235V42.382c-.235-4.716-2.829-8.96-7.073-11.082z"/>
  <path fill="#4d515d" d="m47.628 42.618-27.586-12.26c-3.537-1.651-7.545-1.887-11.082 0l-1.415.706c-.236 0-.236.236-.471.236C2.829 33.422 0 37.666 0 42.382v73.329c0 4.715 2.83 9.195 7.074 11.317l1.414.708a13.02 13.02 0 0 0 11.082 0l28.766-15.09.707-69.32z"/>
</svg>
