<svg xmlns="http://www.w3.org/2000/svg" viewBox="0 0 255.373 198.33">
  <path fill="#ffa400" d="M223.044 66.37h-14.766v-7.617c0-6.062-4.974-11.036-11.036-11.036-6.062 0-11.035 4.974-11.035 11.036v7.616H171.44v-7.616c0-14.3 11.657-25.802 25.801-25.802 14.3 0 25.802 11.658 25.802 25.802z"/>
  <path fill="#003a70" d="M229.106 66.37h-63.727c-2.798 0-4.974 2.175-4.974 4.973v47.096c0 2.797 2.176 4.973 4.974 4.973h63.727c2.797 0 4.973-2.176 4.973-4.973V71.343c-.155-2.798-2.331-4.974-4.973-4.974zM200.35 97.3v6.373c0 1.71-1.4 3.264-3.264 3.264-1.71 0-3.264-1.4-3.264-3.264V97.3c-2.02-1.088-3.264-3.264-3.264-5.751 0-3.575 2.953-6.528 6.528-6.528 3.575 0 6.528 2.953 6.528 6.528.155 2.487-1.244 4.663-3.264 5.75z"/>
  <path fill="#ffa400" d="M158.85 59.375h-15.387a4.51 4.51 0 0 1-4.508-4.508 4.51 4.51 0 0 1 4.508-4.507h15.388a4.51 4.51 0 0 1 4.507 4.507 4.51 4.51 0 0 1-4.507 4.508zM169.73 35.127c-.932 0-2.02-.31-2.797-1.088l-12.124-9.947c-1.865-1.554-2.176-4.352-.621-6.373 1.554-1.865 4.352-2.176 6.372-.622l12.124 9.948c1.865 1.554 2.176 4.352.622 6.373-1.088 1.088-2.332 1.71-3.575 1.71zM197.242 24.558a4.51 4.51 0 0 1-4.507-4.507V4.508A4.51 4.51 0 0 1 197.242 0a4.51 4.51 0 0 1 4.508 4.508V20.05a4.51 4.51 0 0 1-4.508 4.507zM224.598 35.127c-1.243 0-2.642-.621-3.42-1.71-1.554-1.864-1.243-4.818.622-6.372l12.124-9.948c1.865-1.554 4.818-1.243 6.373.622 1.554 1.865 1.243 4.819-.622 6.373l-12.124 9.947c-.932.778-1.865 1.088-2.953 1.088zM250.866 59.375h-15.543a4.51 4.51 0 0 1-4.508-4.508 4.51 4.51 0 0 1 4.508-4.507h15.543a4.51 4.51 0 0 1 4.507 4.507 4.51 4.51 0 0 1-4.507 4.508z"/>
  <path fill="#003a70" d="M0 122.79V72.587h12.124v39.635h19.429v10.57zm71.654-17.252v2.798H46.008c.155.932.466 1.865.932 2.642.467.777 1.088 1.554 1.865 2.02.778.622 1.71 1.088 2.643 1.4a9.76 9.76 0 0 0 2.953.466c1.865 0 3.42-.311 4.663-1.088a8.564 8.564 0 0 0 3.108-2.643l8.083 5.13c-1.71 2.486-3.886 4.196-6.528 5.595-2.643 1.243-5.907 2.02-9.482 2.02-2.642 0-5.129-.466-7.46-1.243-2.332-.777-4.352-2.02-6.217-3.575-1.71-1.554-3.11-3.575-4.197-5.906-1.088-2.332-1.554-4.974-1.554-7.927 0-2.953.466-5.44 1.554-7.772.932-2.331 2.331-4.352 4.041-5.906 1.71-1.554 3.73-2.953 6.062-3.73 2.331-.933 4.818-1.4 7.46-1.4 2.643 0 4.974.467 7.15 1.244 2.176.933 4.042 2.176 5.596 3.73 1.554 1.71 2.798 3.73 3.575 6.062.932 2.487 1.399 5.13 1.399 8.083zm-10.725-4.352c0-1.865-.622-3.42-1.71-4.819s-2.953-2.02-5.284-2.02c-1.088 0-2.176.155-3.109.466-.933.31-1.71.777-2.487 1.399-.777.622-1.243 1.399-1.71 2.176-.466.777-.621 1.71-.777 2.642H60.93zm29.377-4.974v13.522c0 1.71.31 2.954.932 3.73.622.778 1.71 1.244 3.42 1.244.621 0 1.243 0 1.865-.155.621-.156 1.243-.311 1.554-.467l.156 8.55c-.778.31-1.866.465-3.11.776-1.243.156-2.486.311-3.73.311-2.33 0-4.352-.31-5.906-.932-1.554-.622-2.953-1.4-3.886-2.487-.932-1.088-1.71-2.487-2.02-4.041-.311-1.555-.622-3.265-.622-5.13V96.212h-5.75v-8.704h5.595v-9.326h11.502v9.326h8.237v8.704zm18.962-24.558c-3.42 0-6.217 2.487-6.217 5.75 0 3.42 2.331 5.596 5.75 5.596.312 0 .623 0 .778-.155-.622 2.487-2.953 4.352-5.285 4.663h-.466v5.44h.622c2.798-.311 5.44-1.554 7.46-3.42 2.643-2.487 4.042-6.217 4.042-10.569 0-4.197-2.798-7.305-6.684-7.305zm26.89 26.268a12.447 12.447 0 0 0-3.264-2.332 9.068 9.068 0 0 0-4.042-.932c-1.088 0-2.02.155-2.953.621-.932.467-1.399 1.088-1.399 2.176 0 .933.467 1.71 1.555 2.176 1.088.467 2.642.933 4.973 1.4 1.4.31 2.643.621 4.042 1.243 1.399.621 2.487 1.243 3.575 2.02a8.564 8.564 0 0 1 2.642 3.109c.622 1.243.933 2.642.933 4.352 0 2.176-.467 4.041-1.4 5.596-.932 1.554-2.02 2.797-3.574 3.73-1.4.932-3.109 1.554-4.819 2.02-1.865.467-3.575.622-5.44.622-2.953 0-5.75-.466-8.393-1.399-2.798-.932-5.13-2.331-6.839-4.04l6.528-6.84a14.649 14.649 0 0 0 3.886 2.798c1.554.777 3.109 1.088 4.818 1.088.933 0 1.865-.156 2.798-.622.933-.466 1.399-1.243 1.399-2.331 0-1.088-.622-1.865-1.71-2.487-1.088-.466-2.953-1.088-5.284-1.554-1.244-.311-2.487-.622-3.73-1.088-1.244-.467-2.332-1.089-3.265-1.866-.932-.777-1.71-1.865-2.331-2.953-.622-1.243-.933-2.642-.933-4.196 0-2.177.466-3.886 1.399-5.44.933-1.555 2.02-2.643 3.42-3.576 1.398-.932 2.953-1.71 4.662-2.02 1.71-.466 3.42-.622 5.13-.622 2.642 0 5.284.466 7.771 1.244 2.487.777 4.663 2.02 6.373 3.73zM0 180.922v-50.204h33.729v10.258H11.657v9.481h20.828v9.637H11.657v10.414h23.315v10.414zm65.592 0v-19.274c0-.932-.155-1.865-.31-2.797a8.193 8.193 0 0 0-.778-2.332 3.746 3.746 0 0 0-1.554-1.554c-.622-.466-1.555-.622-2.643-.622-1.088 0-2.02.156-2.797.622-.778.466-1.4.932-2.021 1.71-.466.777-.933 1.554-1.244 2.487a8.801 8.801 0 0 0-.466 2.797v19.118H42.122v-35.283h11.19v4.819h.156c.467-.777.933-1.555 1.71-2.176.622-.777 1.554-1.4 2.332-1.865.932-.467 1.865-.933 2.953-1.244a12.121 12.121 0 0 1 3.42-.466c2.33 0 4.351.466 6.061 1.243 1.71.777 2.953 2.02 4.041 3.264 1.088 1.4 1.71 2.954 2.176 4.663.467 1.71.622 3.42.622 5.285v21.76H65.592zm41.656-23.937a7.045 7.045 0 0 0-2.643-2.02c-1.088-.466-2.331-.777-3.42-.777-1.243 0-2.33.31-3.263.777-.933.466-1.866 1.088-2.487 2.02-.622.933-1.244 1.71-1.71 2.798-.466 1.088-.622 2.176-.622 3.42 0 1.243.156 2.331.622 3.42.31 1.087.933 2.02 1.71 2.797.777.777 1.554 1.554 2.642 2.02 1.088.467 2.176.778 3.42.778 1.243 0 2.331-.156 3.574-.622 1.088-.466 2.021-1.088 2.798-2.02l6.373 7.926c-1.399 1.4-3.42 2.487-5.596 3.264-2.331.778-4.818 1.244-7.305 1.244-2.798 0-5.44-.466-7.771-1.244-2.487-.777-4.508-2.02-6.373-3.73-1.71-1.554-3.109-3.575-4.197-5.906-1.088-2.332-1.554-4.974-1.554-7.927 0-2.953.466-5.44 1.554-7.772 1.088-2.331 2.487-4.352 4.197-5.906 1.71-1.555 3.886-2.953 6.373-3.73 2.486-.933 4.973-1.244 7.771-1.244 1.244 0 2.487.155 3.73.31 1.244.312 2.487.623 3.575.933 1.088.467 2.176.933 3.264 1.555.933.621 1.866 1.243 2.487 2.02zm33.884-1.71c-.467-.155-1.089-.31-1.555-.31h-1.399c-1.554 0-2.797.31-3.885.777-1.088.622-1.866 1.243-2.487 2.02-.622.778-1.088 1.71-1.4 2.643-.31.933-.466 1.71-.466 2.487v18.03h-11.657v-35.283h11.191v5.13h.156c.932-1.866 2.176-3.265 3.885-4.353 1.71-1.088 3.575-1.71 5.751-1.71h1.4c.466 0 .776.156 1.087.156zm27.355 30.932c-.777 1.865-1.554 3.419-2.331 4.973-.933 1.4-1.865 2.643-3.109 3.73-1.243 1.089-2.642 1.71-4.196 2.332-1.555.466-3.575.777-5.751.777-1.088 0-2.176 0-3.42-.155-1.088-.156-2.176-.311-2.953-.622l1.243-9.792 1.866.466c.621.156 1.243.156 1.865.156 1.865 0 3.108-.467 3.886-1.244.777-.777 1.554-2.02 2.02-3.575l1.088-2.953-14.766-34.661h12.901l7.927 22.693h.155l6.995-22.693h12.279zm58.132-23.004c0 2.487-.311 4.818-1.088 7.15-.778 2.331-1.866 4.196-3.264 6.061-1.4 1.71-3.264 3.109-5.285 4.197-2.02 1.088-4.508 1.554-7.15 1.554-2.176 0-4.197-.466-6.217-1.243-1.865-.933-3.42-2.02-4.508-3.575h-.155v20.983h-11.657v-52.225h11.035v4.352h.156c1.088-1.399 2.642-2.642 4.507-3.73 1.865-1.088 4.197-1.554 6.84-1.554 2.486 0 4.817.466 6.993 1.554 2.021.933 3.886 2.331 5.285 4.041 1.399 1.71 2.487 3.73 3.264 5.907.777 1.71 1.244 4.04 1.244 6.528zm-11.347 0c0-1.088-.155-2.176-.466-3.264-.311-1.088-.933-2.02-1.554-2.798a7.045 7.045 0 0 0-2.643-2.02c-1.088-.467-2.176-.778-3.575-.778s-2.487.311-3.575.777c-1.088.467-1.865 1.244-2.642 2.02-.777.778-1.243 1.866-1.71 2.954-.466 1.088-.621 2.176-.621 3.264 0 1.088.155 2.176.621 3.264.467 1.088.933 2.02 1.71 2.953.777.778 1.554 1.555 2.642 2.021 1.088.466 2.176.777 3.575.777 1.4 0 2.643-.31 3.575-.777 1.088-.466 1.865-1.243 2.643-2.02.621-.778 1.243-1.866 1.554-2.954.31-1.243.466-2.331.466-3.42zm29.843-8.86v13.523c0 1.71.31 2.953.933 3.73.621.777 1.71 1.243 3.419 1.243.622 0 1.243 0 1.865-.155.622-.155 1.244-.31 1.555-.466l.155 8.548c-.777.311-1.865.467-3.109.778-1.243.155-2.487.31-3.73.31-2.331 0-4.352-.31-5.906-.932-1.555-.622-2.954-1.399-3.886-2.487-.933-1.088-1.71-2.487-2.02-4.041-.312-1.555-.623-3.264-.623-5.13v-14.92h-5.595v-8.705h5.595l23.47-9.326h11.347v9.326h8.238v8.704z"/>
</svg>
