<svg xmlns="http://www.w3.org/2000/svg" viewBox="0 0 511.032 61.664">
  <path fill="#47545f" d="M329.964 1.545a30.347 30.347 0 0 1 8.653 5.072c.518.36.932.849 1.202 1.418.22.555.326 1.147.312 1.743.024.97-.386 1.9-1.117 2.536a3.75 3.75 0 0 1-2.572.998 4.182 4.182 0 0 1-2.693-.998 22.415 22.415 0 0 0-6.141-3.894 21.333 21.333 0 0 0-7.764-1.202 20.432 20.432 0 0 0-11.033 3.149 22.836 22.836 0 0 0-8.005 8.581 24.242 24.242 0 0 0-2.957 11.803 24.17 24.17 0 0 0 2.957 11.85 22.836 22.836 0 0 0 8.005 8.534 20.432 20.432 0 0 0 11.033 3.149 23.268 23.268 0 0 0 14.146-5 4.423 4.423 0 0 1 2.536-.926 3.161 3.161 0 0 1 2.404 1.034 3.858 3.858 0 0 1 .961 2.728 3.907 3.907 0 0 1-1.202 2.849 29.242 29.242 0 0 1-18.845 6.694 28.713 28.713 0 0 1-15.048-4.122 29.302 29.302 0 0 1-10.733-11.154 31.645 31.645 0 0 1-3.918-15.624 31.25 31.25 0 0 1 3.918-15.504 29.674 29.674 0 0 1 10.733-11.154A28.52 28.52 0 0 1 319.844.007a29.89 29.89 0 0 1 10.12 1.538zM421.9 18.702a3.924 3.924 0 0 1 3.924 3.924v18.918c0 4.15 1.114 7.291 3.342 9.422a12.331 12.331 0 0 0 8.881 3.197 13.137 13.137 0 0 0 5.89-1.31 10.432 10.432 0 0 0 4.17-3.57 8.762 8.762 0 0 0 1.503-5V22.65a3.774 3.774 0 0 1 1.117-2.848 4.255 4.255 0 0 1 5.65 0v-.024a3.846 3.846 0 0 1 1.08 2.848v34.302a3.882 3.882 0 0 1-1.08 2.812 3.942 3.942 0 0 1-6.767-2.812v-.842a17.09 17.09 0 0 1-5.842 3.81 19.386 19.386 0 0 1-7.21 1.346c-3.337.047-6.63-.76-9.568-2.343a16.25 16.25 0 0 1-6.61-6.73 22.15 22.15 0 0 1-2.404-10.65V22.627a3.924 3.924 0 0 1 3.924-3.924zM510.21 4.189v-.048c.655.832.937 1.898.781 2.945l-3.605 34.854a21.453 21.453 0 0 1-3.906 10.54 20.744 20.744 0 0 1-19.327 8.582 21.285 21.285 0 0 1-10.468-3.894c-2.999-2.13-5.36-5.04-6.827-8.413a21.634 21.634 0 0 1-1.646-11.105 22.944 22.944 0 0 1 3.678-10.565 19.422 19.422 0 0 1 7.824-6.899c8.655-4.134 19.034-1.257 24.326 6.743l2.115-20.66a3.774 3.774 0 0 1 1.43-2.657 4.255 4.255 0 0 1 5.625.577zM184.092 21.124a17.259 17.259 0 0 1 6.61 7.307 24.11 24.11 0 0 1 2.308 10.817 3.223 3.223 0 0 1-.986 2.332 3.51 3.51 0 0 1-2.32.962h-29.446a13.545 13.545 0 0 0 4.88 8.689 15.624 15.624 0 0 0 14.687 2.404 14.326 14.326 0 0 0 4.062-2.02 3.99 3.99 0 0 1 2.536-.841 3.305 3.305 0 0 1 2.308.77 3.365 3.365 0 0 1 1.382 2.62 2.788 2.788 0 0 1-1.202 2.307 21.285 21.285 0 0 1-6.502 3.39 23.497 23.497 0 0 1-18.725-1.419 19.795 19.795 0 0 1-7.812-7.572 21.526 21.526 0 0 1-2.813-10.997 22.751 22.751 0 0 1 2.692-11.021 19.23 19.23 0 0 1 7.38-7.62 21.081 21.081 0 0 1 10.733-2.728 19.338 19.338 0 0 1 10.228 2.62zm86.956-1.07a15.312 15.312 0 0 1 6.273 4.459c.598.664.95 1.512.998 2.404a3.077 3.077 0 0 1-1.31 2.404 3.606 3.606 0 0 1-2.152.612 5.252 5.252 0 0 1-3.605-1.466 11.514 11.514 0 0 0-4.075-2.5 16.406 16.406 0 0 0-5.228-.733 12.451 12.451 0 0 0-5.805 1.202 3.678 3.678 0 0 0-2.271 3.341 4.206 4.206 0 0 0 .769 2.572 6.827 6.827 0 0 0 2.92 1.923 37.114 37.114 0 0 0 6.214 1.791c5.609 1.13 9.571 2.692 11.887 4.687a9.76 9.76 0 0 1 3.497 7.765c.02 2.284-.65 4.52-1.923 6.418a12.8 12.8 0 0 1-5.613 4.567 22.006 22.006 0 0 1-8.966 1.658 29.578 29.578 0 0 1-9.879-1.61 18.857 18.857 0 0 1-7.211-4.23 3.257 3.257 0 0 1-.998-2.405 3.606 3.606 0 0 1 1.539-3.004 4.663 4.663 0 0 1 2.692-1.082 4.122 4.122 0 0 1 2.92 1.382 11.863 11.863 0 0 0 4.387 2.813 16.321 16.321 0 0 0 6.226 1.201 13.22 13.22 0 0 0 6.803-1.466 4.423 4.423 0 0 0 2.403-3.918 4.64 4.64 0 0 0-2.403-3.966 23.449 23.449 0 0 0-8.077-2.656c-9.831-1.883-14.747-5.938-14.747-12.163a9.495 9.495 0 0 1 2.235-6.382 13.57 13.57 0 0 1 5.841-3.918 22.451 22.451 0 0 1 7.693-1.31c3.064-.052 6.11.495 8.966 1.61zm127.747 1.154a19.65 19.65 0 0 1 7.536 7.572 22.187 22.187 0 0 1 2.728 11.081 22.271 22.271 0 0 1-2.692 10.997 19.374 19.374 0 0 1-7.5 7.572 23.437 23.437 0 0 1-21.958 0 19.23 19.23 0 0 1-7.536-7.572 22.247 22.247 0 0 1-2.692-10.997 22.415 22.415 0 0 1 2.692-11.081 19.302 19.302 0 0 1 7.536-7.572 22.018 22.018 0 0 1 10.997-2.728 21.634 21.634 0 0 1 10.89 2.728zM112.532.764a3.942 3.942 0 0 1 3.954 3.822V52.89h27.848a4.002 4.002 0 1 1 0 8.005h-31.85a3.74 3.74 0 0 1-2.8-1.202 3.93 3.93 0 0 1-1.118-2.622V4.814a3.87 3.87 0 0 1 1.202-2.848 3.774 3.774 0 0 1 2.764-1.202zm241.685.527a3.846 3.846 0 0 1 1.923 3.33v41.995a9.194 9.194 0 0 0 1.082 4.687 3.173 3.173 0 0 0 2.764 1.85h1.923c.953-.03 1.87.367 2.5 1.082a4.002 4.002 0 0 1 .962 2.765 3.294 3.294 0 0 1-1.466 2.764 6.19 6.19 0 0 1-3.774 1.082h-.157a10.348 10.348 0 0 1-5.949-1.803 11.766 11.766 0 0 1-4.11-5.072 17.788 17.788 0 0 1-1.467-7.343V4.622a3.846 3.846 0 0 1 5.77-3.33zm-147.494 4.1a3.846 3.846 0 0 1 3.846 3.846v11.081h6.538c.96-.043 1.9.289 2.62.926a3.197 3.197 0 0 1 .998 2.404c.019.877-.345 1.72-.998 2.307-.72.637-1.66.97-2.62.926h-6.538v19.05a7.884 7.884 0 0 0 1.695 5.156 5.168 5.168 0 0 0 4.158 2.079h2.62a3.029 3.029 0 0 1 2.32 1.07 4.002 4.002 0 0 1 .961 2.764 3.461 3.461 0 0 1-1.274 2.764 4.88 4.88 0 0 1-3.269 1.082h-1.382a12.656 12.656 0 0 1-6.875-1.947 13.653 13.653 0 0 1-4.88-5.349 16.177 16.177 0 0 1-1.766-7.62V26.93h-3.534c-.96.043-1.9-.289-2.62-.926a3.005 3.005 0 0 1-.997-2.307 3.185 3.185 0 0 1 .997-2.404 3.702 3.702 0 0 1 2.62-.925h3.534V9.237a3.846 3.846 0 0 1 3.846-3.846zm274.028 21.285a13.593 13.593 0 0 0-5.456 4.58 14.927 14.927 0 0 0-2.548 7.21 15.132 15.132 0 0 0 1.045 7.537 13.51 13.51 0 0 0 4.363 5.672 13.798 13.798 0 0 0 13.846 1.419l.012-.06a13.22 13.22 0 0 0 5.384-4.664 15.408 15.408 0 0 0 2.512-7.211 15.191 15.191 0 0 0-1.01-7.5 13.581 13.581 0 0 0-18.148-6.983zm-99.888.577a12.968 12.968 0 0 0-4.88 5.156 15.624 15.624 0 0 0-1.766 7.464 15.336 15.336 0 0 0 1.766 7.428 13.016 13.016 0 0 0 4.88 5.12 14.338 14.338 0 0 0 14.074 0 12.752 12.752 0 0 0 4.808-5.12 15.624 15.624 0 0 0 1.73-7.428 15.84 15.84 0 0 0-1.73-7.464 12.704 12.704 0 0 0-4.808-5.156 14.338 14.338 0 0 0-14.074 0zm-216.11.902a13.81 13.81 0 0 0-4.422 8.233h25.612a13.641 13.641 0 0 0-3.846-8.233 11.298 11.298 0 0 0-8.233-3.077 13.305 13.305 0 0 0-9.11 3.077z"/>
  <path fill="#0dabe3" d="M17.5 48.839h64.624a4.495 4.495 0 1 1 0 8.966H17.5a4.495 4.495 0 1 1 0-8.966zm71.788-14.627a4.483 4.483 0 0 1 0 8.966H29.194a4.483 4.483 0 0 1 0-8.966zM13.485 19.537a4.543 4.543 0 1 1 0 9.086 4.543 4.543 0 0 1 0-9.086zm69.228.024a4.363 4.363 0 0 1 4.23 4.483 4.363 4.363 0 0 1-4.23 4.483l-56.644.036a4.363 4.363 0 0 1-4.219-4.519 4.363 4.363 0 0 1 4.219-4.483zM63.447 6.232a4.483 4.483 0 0 1 0 8.966h-29.65a4.483 4.483 0 0 1 0-8.966z"/>
  <path fill="#80d2eb" d="M29.194 43.178H4.483a4.483 4.483 0 0 1 0-8.966h24.71a4.483 4.483 0 0 0 0 8.966z"/>
  <circle cx="232.816" cy="23.239" r="4.543" fill="#00afe6"/>
</svg>
