<svg xmlns="http://www.w3.org/2000/svg" viewBox="0 0 822.909 357.282">
  <path d="m494.396 506.252-22.073 99.665h203.224c-6.548-.571-11.718-2.87-14.798-7.06a14.913 14.913 0 0 1-1.457-2.484 85.635 85.635 0 0 1-.76-1.95c-.657-2.088-.919-4.405-.8-6.875.328-6.883 3.558-15.07 9.154-23.644 5.943-9.111 14.558-18.66 25.224-27.523a161.963 161.963 0 0 1 7.45-5.85 159.125 159.125 0 0 1 9.646-6.546c11.881-7.48 23.733-12.714 34.235-15.373-10.036 3.274-21.31 8.832-32.45 16.399-.4.27-.795.548-1.19.82-6.18 4.283-11.779 8.83-16.665 13.424-15.723 14.784-24.034 30.103-20.258 39.078.27.617.59 1.207.965 1.765 4.059 5.97 14.118 7.002 26.866 3.797a79.599 79.599 0 0 0 2.627-.719c4.072-1.175 8.396-2.763 12.848-4.72 1.071-.473 2.153-.959 3.243-1.478.112-.052.217-.105.329-.164 14.055-6.983 24.856-15.019 27.194-19.847.512-1.05.636-1.945.288-2.648-1.669-3.382-13.342-1.097-27.482 5.029-1.137.492-2.286 1-3.448 1.54.945-.879 1.93-1.76 2.935-2.628a99.527 99.527 0 0 1 5.028-4.064 100.378 100.378 0 0 1 8.312-5.664c12.886-9.722 19.4-18.918 18.041-22.33-.256-.644-.801-1.086-1.642-1.355-2.686-.855-7.589.165-13.546 2.606-4.912 2.015-10.555 5.004-16.275 8.723l-.78.513-.144.082-2.75 1.827 1.58-2.894c2.345-4.292 6.164-8.77 10.919-12.93 3.487-3.042 7.471-5.907 11.76-8.415a74.983 74.983 0 0 1 4.864-2.627 69.874 69.874 0 0 1 4.947-2.176c4.713-1.864 9.89-4.217 13.814-4.525-.358 0-11.7 1.22-11.7 1.22H494.396zm161.18.144c-.643 9.823 1.262 24.211 5.583 40.186a222.832 222.832 0 0 0 2.525 8.661c.571 1.807 1.16 3.585 1.765 5.336-.355.522-.712 1.04-1.047 1.56-5.392 8.264-8.544 16.073-9.338 22.864-2.28-7.632-3.995-15.99-4.967-24.855-.276-2.54-.492-5.05-.637-7.532-1.064-18.024 1.29-34.362 6.117-46.22zm-107.608 12.786c.124-.003.245 0 .37 0h24.28c2.075 0 3.68.39 4.823 1.17 1.136.785 1.563 1.802 1.293 3.038l-2.894 13.073h-8.558l2.812-12.725h-21.428l-7.737 34.974-2.792 12.663h21.407l.02-.082 4.29-19.375h-10.057l.965-4.371h18.615l-5.336 24.177a3.418 3.418 0 0 1-.37.965c-.44.8-1.207 1.487-2.278 2.052-1.484.782-3.26 1.17-5.336 1.17h-24.26c-2.075 0-3.68-.388-4.823-1.17-1.136-.782-1.568-1.78-1.293-3.017l10.694-48.334c.275-1.236 1.136-2.253 2.627-3.038.052-.028.111-.035.164-.062 1.36-.681 2.958-1.064 4.802-1.108zm38.052 0h30.56c2.05 0 3.66.39 4.803 1.17 1.15.785 1.59 1.802 1.314 3.038l-5.706 25.778c-.269 1.228-1.15 2.23-2.647 3.017-1.498.79-3.26 1.19-5.316 1.19H586.82l-4.29 19.355-.698 3.18h-8.373l.636-2.873 11.924-53.855zm42.218 0h8.374l-9.482 42.834-2.073 9.36h20.032c.21 1.535.455 3.044.718 4.535h-30.13l2.382-10.755 10.18-45.974zm-34.85 4.556-5.562 25.081H608.7l5.542-25.08h-20.853zm-44.508 59.195c.082-.003.163 0 .246 0 .972 0 1.82.17 2.504.492.729.342 1.25.85 1.54 1.52.282.65.355 1.387.204 2.195l-.061.308h-2.402l.02-.287c.063-.565-.007-1.009-.225-1.314a1.382 1.382 0 0 0-.102-.123 1.339 1.339 0 0 0-.206-.164c-.336-.212-.861-.329-1.539-.329-.9 0-1.572.157-2.032.472-.447.31-.729.654-.82 1.068-.093.42.058.641.163.76l.02.02c.134.113.596.38 2.033.718 1.3.315 2.161.599 2.647.842.736.374 1.25.86 1.52 1.457.268.59.327 1.283.163 2.032-.164.729-.536 1.401-1.088 2.032a5.503 5.503 0 0 1-2.072 1.477 7.01 7.01 0 0 1-2.669.534c-1.182 0-2.13-.18-2.873-.534a3.31 3.31 0 0 1-1.662-1.703c-.316-.736-.383-1.57-.206-2.484l.062-.287h2.36l-.02.287c-.06.545-.001.986.143 1.314.138.315.401.576.821.78.447.217 1.005.328 1.642.328.572 0 1.094-.096 1.56-.267.46-.164.825-.38 1.088-.656.256-.276.406-.568.472-.883.066-.282.05-.521-.062-.718-.124-.21-.372-.397-.759-.554l-2.011-.596c-1.123-.282-1.88-.551-2.32-.82-.597-.355-1.028-.81-1.252-1.355-.223-.539-.247-1.136-.102-1.786a4.346 4.346 0 0 1 1.005-1.95 5.045 5.045 0 0 1 2.012-1.375 7.066 7.066 0 0 1 2.258-.451zm21.55.04c.13-.01.252 0 .39 0l1.478.165.492.041-.718 1.827-.144.287-1.129-.103c-.333 0-.578.052-.739.165-.01.008-.03.032-.04.04a.763.763 0 0 0-.083.083c-.098.13-.219.361-.308.78 0 0-.042.177-.082.328h1.765l-.451 2.032h-1.724l-1.745 7.82h-2.38s1.547-6.946 1.744-7.82h-1.375l.451-2.032h1.355c.066-.282.164-.636.164-.636.145-.657.296-1.129.493-1.457.27-.454.65-.833 1.129-1.109.394-.23.894-.366 1.457-.41zm5.685.103-.78 3.51h1.54l-.452 2.032h-1.54c-.124.565-1.108 4.946-1.108 4.946s-.082.527-.082.678v.04c0 .002.02 0 .02 0l.247.021 1.129-.082-.123 1.827.02.328-1.621.185c-.644 0-1.116-.105-1.457-.329a1.452 1.452 0 0 1-.657-.944c-.013-.072-.041-.177-.041-.328 0-.296.056-.796.246-1.663 0 0 .863-3.865 1.047-4.68h-1.129l.452-2.031h1.128c.105-.473.472-2.094.472-2.094l1.91-1.005.78-.41zm-75.631.083h9.235l-.513 2.298h-6.752c-.105.467-.526 2.355-.677 3.038h5.849l-.513 2.299h-5.85c-.124.571-1.252 5.644-1.252 5.644h-2.483l2.956-13.28zm12.376 3.242c.092-.011.194 0 .287 0 .591 0 1.137.18 1.662.555l.329.225-1.273 2.094-.349-.247a1.5 1.5 0 0 0-.82-.246c-.25 0-.483.089-.719.246-.25.165-.458.382-.616.678a6.487 6.487 0 0 0-.615 1.683l-1.109 5.049h-2.38l2.196-9.852h2.216s-.076.299-.102.41c.105-.078.215-.187.307-.246.319-.19.655-.308.986-.349zm7.06 0c.143-.01.284 0 .43 0 1.34 0 2.355.47 3.018 1.396.414.598.636 1.337.636 2.217 0 .486-.06 1.009-.185 1.58l-.184.718h-6.691c-.013.138-.02.286-.02.41 0 .513.104.916.328 1.212.106.144.229.274.37.37.264.172.605.266 1.005.266a2.37 2.37 0 0 0 1.313-.39c.381-.243.746-.631 1.068-1.17h2.545l-.226.493c-.486.985-1.164 1.753-2.011 2.298-.848.546-1.86.842-2.977.842-1.45 0-2.531-.47-3.201-1.396-.664-.906-.806-2.159-.452-3.735.355-1.603 1.063-2.883 2.094-3.777.924-.8 1.973-1.245 3.14-1.334zm10.693 0c.143-.01.284 0 .431 0 1.34 0 2.354.47 3.017 1.396.414.598.636 1.337.636 2.217 0 .48-.06.995-.184 1.56l-.185.738h-6.691l-.02.267c-.005.035.002.087 0 .123v.02c0 .1.013.196.02.288.033.374.13.687.308.924.034.046.065.102.102.143.301.322.727.493 1.273.493.486 0 .92-.134 1.314-.39.38-.243.745-.631 1.067-1.17h2.565l-.246.493c-.486.985-1.164 1.753-2.011 2.298-.848.545-1.86.842-2.976.842-1.452 0-2.532-.47-3.202-1.396-.434-.59-.636-1.344-.636-2.237a7.437 7.437 0 0 1 .185-1.498c.354-1.596 1.041-2.883 2.072-3.777.924-.801 1.994-1.245 3.16-1.334zm29.124 0c.146-.01.281 0 .43 0 1.367 0 2.417.463 3.1 1.376.676.912.84 2.144.492 3.694-.269 1.208-.658 2.184-1.19 2.894a5.607 5.607 0 0 1-2.011 1.683 5.571 5.571 0 0 1-2.484.595c-1.392 0-2.429-.476-3.099-1.396-.433-.584-.657-1.337-.657-2.237 0-.486.054-1.002.185-1.58.394-1.76 1.199-3.101 2.38-3.961.869-.627 1.827-.989 2.854-1.068zm36.06 0c.174-.01.334 0 .514 0 .827 0 1.478.084 1.97.288.526.21.898.507 1.108.862.204.335.308.746.308 1.252l-.246 1.498-.451 2.032c-.388 1.734-.473 2.384-.493 2.627-.02.328.01.649.103.944l.164.534h-2.422l-.103-.308c-.04-.145-.028-.329-.04-.493-.46.283-.921.533-1.335.678-.61.21-1.244.328-1.888.328-1.117 0-1.943-.29-2.442-.862-.381-.42-.555-.934-.555-1.519 0-.223.03-.455.083-.698.111-.499.314-.961.636-1.375a3.842 3.842 0 0 1 1.108-.985 4.933 4.933 0 0 1 1.334-.534l1.457-.246c1.123-.131 1.962-.295 2.566-.472.013-.066.04-.144.04-.144.096-.422.084-.74-.02-.903-.007-.01-.032-.032-.04-.04-.023-.024-.057-.061-.083-.083-.247-.195-.668-.287-1.231-.287-.637 0-1.108.104-1.437.308-.322.203-.62.576-.882 1.108h-2.484l.226-.493c.295-.683.648-1.25 1.088-1.683.44-.433 1.034-.769 1.724-1.005a6.841 6.841 0 0 1 1.724-.329zm10.407 0c.092-.011.193 0 .287 0 .597 0 1.157.18 1.683.555l.308.225-1.273 2.094-.349-.247a1.45 1.45 0 0 0-.8-.246c-.25 0-.496.089-.74.246-.249.165-.43.382-.594.678a6.741 6.741 0 0 0-.616 1.683l-1.129 5.049h-2.38l2.195-9.852h2.217s-.056.299-.082.41c.105-.078.21-.187.308-.246.313-.19.634-.308.965-.349zm7.04 0c.143-.01.284 0 .43 0 1.34 0 2.36.47 3.017 1.396.42.598.637 1.337.637 2.217 0 .486-.08 1.009-.206 1.58l-.164.718h-6.69c-.014.138-.042.286-.042.41 0 .513.112.916.329 1.212.033.046.086.102.123.143.021.023.06.061.082.083.293.266.693.41 1.19.41a2.37 2.37 0 0 0 1.314-.39c.38-.243.739-.631 1.067-1.17h2.566l-.247.493c-.486.985-1.17 1.753-2.011 2.298-.854.546-1.853.842-2.976.842-1.452 0-2.511-.47-3.181-1.396-.664-.906-.82-2.159-.472-3.735.354-1.603 1.041-2.883 2.072-3.777.93-.8 1.995-1.245 3.161-1.334zm-35.938.185h2.442s.301 5.846.308 5.932c.098-.21.175-.386.184-.41l2.69-5.522h2.236s.205 5.776.205 5.808c.066-.118 3.059-5.808 3.059-5.808h2.421l-5.336 9.852h-2.196l-.226-5.644-2.75 5.644h-2.258l-.78-9.852zm-57.345 1.868c-.566.024-1.08.228-1.56.616-.38.302-.638.716-.841 1.17h4.043c.007-.073.02-.16.02-.226 0-.375-.066-.665-.184-.862-.29-.473-.718-.698-1.355-.698-.038 0-.085-.002-.123 0zm10.693 0c-.566.024-1.08.228-1.56.616-.38.302-.631.716-.841 1.17h4.043c.006-.073.02-.16.02-.226 0-.375-.06-.665-.184-.862a1.647 1.647 0 0 0-.205-.267c-.275-.284-.652-.431-1.15-.431-.038 0-.085-.002-.123 0zm82.712 0a2.653 2.653 0 0 0-1.621.616c-.374.302-.631.716-.842 1.17h4.023c.007-.073.02-.16.02-.226 0-.375-.06-.665-.184-.862-.282-.467-.717-.692-1.355-.698h-.04zm-53.773.04c-.543.065-1.048.313-1.519.74-.565.512-.974 1.317-1.21 2.38a5.436 5.436 0 0 0-.144 1.17c0 .467.09.833.267 1.109.047.07.11.145.164.205.292.31.7.472 1.21.472.664 0 1.249-.247 1.807-.76.565-.518.968-1.331 1.21-2.421.224-.999.193-1.744-.122-2.217-.303-.46-.744-.677-1.355-.677-.104 0-.207-.012-.308 0zm37.087 3.593c-.558.15-1.184.278-2.011.39-.617.091-1.058.188-1.314.287-.223.092-.403.22-.554.39a1.213 1.213 0 0 0-.287.534c-.013.078-.02.16-.02.225v.02c0 .016-.003.047 0 .062.003.03.012.075.02.103.003.009.017.032.02.04.007.019.012.046.02.062.01.017.03.046.042.062.017.024.04.06.061.082.165.184.492.267.965.267.519 0 1.018-.099 1.478-.328a2.874 2.874 0 0 0 1.088-.945c.197-.275.354-.7.492-1.252zm-110.476-17.13 12.974-56.873h7.633l-11.492 50.432h29.634l-1.483 6.44h-37.266" style="fill:#008033" transform="translate(-1206.256 -1303.499) scale(2.5964)"/>
  <path d="M657.14 595.59c.266.685.533 1.37.81 2.039.428.909.922 1.78 1.517 2.592 3.21 4.364 8.587 6.753 15.413 7.348h7.343a63.878 63.878 0 0 0 7.277-1.012c4.349-.85 8.959-2.156 13.747-3.902a122.929 122.929 0 0 0 11.137-4.706c8.237-3.949 16.746-9.042 25.094-15.187a166.605 166.605 0 0 0 7.921-6.208 157.69 157.69 0 0 0 6.677-5.877c5.937-5.722 10.42-11.534 12.958-16.637 2.644-5.314 3.172-9.857 1.005-12.72-1.327-1.757-3.549-2.698-6.41-2.92 12.887-9.669 20.397-21.398 17.703-28.793-.856-2.36-2.739-4.121-5.438-5.095-1.2-.431-2.55-.705-4.022-.83h-3.965c-5.538.4-13.591 2.383-20.423 5.731" style="fill:none;stroke:#008033;stroke-width:3.28387;stroke-linecap:butt;stroke-linejoin:miter;stroke-miterlimit:4" transform="translate(-1206.256 -1303.499) scale(2.5964)"/>
  <g style="fill:#008033">
    <path d="M0 357.281h12.721l5.712-23.873h20.668l2.66-10.231H21.008l3.445-15.347h22.083l2.66-11.937H14.324L0 357.281zM57.057 357.281l3.82-16.029c2.012-8.68 6.258-16.37 14.29-16.37.715 0 1.415.358 1.943.443l3.104-12.294c-.717 0-1.501-.086-2.388-.086-5.917 0-10.879 4.161-14.187 10.13h-.341c.494-2.916.92-5.679 1.245-8.424H53.578c-.63 3.547-1.603 10.487-3.086 16.745l-6.241 25.885h12.806zM113.636 345.771c-3.53 1.722-7.554 1.279-12.244 1.279-3.7 0-6.565-.648-8.133-1.91-.819-1.381-1.16-3.53-1.092-4.911 17.274.46 28.17-3.53 28.716-14.443.41-8.236-5.61-12.84-14.358-12.84-15.62 0-25.85 13.778-26.516 27.044-.58 11.579 5.423 17.291 17.803 17.291 4.757 0 11.066-.545 16.233-2.097l-.409-9.413zm-4.672-19.985c-.205 4.058-5.218 4.297-15.092 4.212 1.075-3.564 4.69-6.821 10.607-6.821 2.916 0 4.587 1.108 4.485 2.609zM158.841 345.771c-3.53 1.722-7.554 1.279-12.226 1.279-3.717 0-6.565-.648-8.134-1.91-.818-1.381-1.177-3.53-1.108-4.911 17.29.46 28.17-3.53 28.733-14.443.409-8.236-5.61-12.84-14.358-12.84-15.637 0-25.869 13.778-26.534 27.044-.562 11.579 5.44 17.291 17.803 17.291 4.775 0 11.084-.545 16.25-2.097l-.426-9.413zm-4.655-19.985c-.204 4.058-5.218 4.297-15.108 4.212 1.091-3.564 4.69-6.821 10.606-6.821 2.916 0 4.604 1.108 4.502 2.609zM224.663 357.281c.102-5.405 1.398-13.897 2.745-19.473l5.474-23.157c-3.478-1.177-8.901-1.706-14.12-1.706-21.178 0-31.682 15.689-32.415 30.388-.46 9.225 4.536 13.948 12.311 13.948 5.03 0 10.71-2.438 15.126-9.77h.187c-.34 3.53-.75 6.957-.972 9.77h11.664zm-8.748-24.35c-2.49 10.845-7.571 14.119-11.357 14.119-3.53 0-5.064-2.507-4.86-6.156.41-8.236 6.924-17.717 15.143-17.717 1.33 0 2.37-.239 3.342-.478l-2.268 10.232zM233.002 355.27c2.455 1.909 7.605 1.926 12.976 2.011 11.476.086 20.139-4.928 20.65-14.136.29-6.139-4.467-9.771-9.122-12.21-3.36-1.62-5.048-3.171-4.963-4.979.12-2.438 2.405-2.78 5.764-2.78 3.786 0 6.82.461 8.56.802l3.445-9.242c-1.961-1.177-5.883-1.79-10.914-1.79-11.135 0-19.286 5.883-19.746 14.818-.273 5.525 3.7 9.242 8.509 11.766 3.888 1.995 5.218 3.53 5.116 5.695-.12 2.183-2.064 1.825-5.594 1.825-4.143 0-8.73-.546-11.152-.92l-3.53 9.14zM301.04 357.281l10.316-42.63h-12.635l-10.385 42.63h12.704zm5.917-47.746c4.331 0 8.185-3.58 8.424-9.72.204-4.16-2.49-5.627-6.463-5.627-4.144 0-7.93 2.694-8.15 6.719-.206 4.058 2.489 8.628 6.189 8.628zM325.425 357.281l4.501-19.2c2.337-9.771 7.367-13.199 11.51-13.199 3.275 0 4.23 1.398 4.076 3.428a30.477 30.477 0 0 1-.682 4.894l-5.73 24.077h12.721l6.037-25.254c.46-2.183.972-5.44 1.074-7.418.375-7.69-3.461-10.487-10.521-10.487-5.661 0-11.17 2.626-15.518 8.322h-.17l1.16-7.793h-11.22c-.734 3.649-1.672 8.065-3.002 13.215l-6.957 29.415h12.72zM380.162 357.281h12.721l5.73-23.873h20.65l2.66-10.231h-20.752l3.444-15.347h22.083l2.66-11.937h-34.872l-14.324 61.388zM437.219 357.281l3.82-16.029c2.012-8.68 6.258-16.37 14.29-16.37.716 0 1.415.358 1.943.443l3.104-12.294c-.716 0-1.5-.086-2.387-.086-5.918 0-10.88 4.161-14.188 10.13h-.341c.495-2.916.92-5.679 1.245-8.424H433.74c-.614 3.547-1.603 10.487-3.086 16.745l-6.241 25.885h12.806zM493.798 345.771c-3.53 1.722-7.554 1.279-12.243 1.279-3.7 0-6.565-.648-8.134-1.91-.819-1.381-1.16-3.53-1.092-4.911 17.274.46 28.17-3.53 28.716-14.443.41-8.236-5.61-12.84-14.358-12.84-15.62 0-25.85 13.778-26.516 27.044-.58 11.579 5.44 17.291 17.803 17.291 4.757 0 11.084-.545 16.233-2.097l-.409-9.413zm-4.672-19.985c-.205 4.058-5.218 4.297-15.091 4.212 1.074-3.564 4.689-6.821 10.606-6.821 2.916 0 4.587 1.108 4.485 2.609zM539.004 345.771c-3.53 1.722-7.555 1.279-12.227 1.279-3.717 0-6.565-.648-8.134-1.91-.818-1.381-1.176-3.53-1.108-4.911 17.29.46 28.17-3.53 28.733-14.443.41-8.236-5.61-12.84-14.358-12.84-15.637 0-25.868 13.778-26.533 27.044-.563 11.579 5.44 17.291 17.802 17.291 4.775 0 11.084-.545 16.25-2.097l-.425-9.413zm-4.656-19.985c-.204 4.058-5.218 4.297-15.108 4.212 1.091-3.564 4.69-6.821 10.607-6.821 2.916 0 4.604 1.108 4.501 2.609zM589.546 294.188l-4.791 19.371c-1.74-.716-4.008-.614-5.781-.614-16.336 0-27.897 13.983-28.665 29.126-.511 10.674 5.184 15.21 12.517 15.21 5.132 0 10.538-2.268 14.63-8.134h.17l-.971 8.134h11.561c.529-5.115 1.637-11.203 2.882-16.762l11.067-46.331h-12.619zm-9.958 41.642c-1.995 8.406-6.702 11.22-10.419 11.22-3.7 0-5.764-2.575-5.508-7.162.426-8.492 6.258-16.711 13.847-16.711 2.131 0 3.956.324 4.962.801l-2.882 11.852zM618.552 357.281c14.836 0 26.278-11.237 27.08-26.533.494-10.129-5.816-17.803-17.462-17.803-15.381 0-26.414 12.449-27.182 27.489-.528 10.947 6.531 16.847 17.564 16.847zm1.995-10.231c-4.33 0-6.718-2.763-6.462-6.89.34-6.871 4.587-16.983 11.902-16.983 5.047 0 6.6 3.87 6.395 7.673-.376 7.503-4.946 16.2-11.835 16.2zM661.439 357.281l4.604-19.473c1.927-8.68 6.735-14.631 11.05-14.631 3.103 0 3.956 2.268 3.802 5.235-.085 1.535-.426 3.257-.784 4.962l-5.696 23.907h12.278l4.604-19.559c2.114-8.952 6.65-14.545 10.88-14.545 2.915 0 4.126 2.08 3.99 5.047-.086 1.723-.444 3.615-.887 5.338l-5.525 23.72h12.363l5.951-25.255c.46-2.268.989-5.798 1.074-7.605.375-7.503-3.29-11.477-9.907-11.477-5.661 0-11.17 2.558-15.347 7.947-.154-3.888-2.933-7.947-9.822-7.947-5.576 0-10.897 2.524-15.16 8.237h-.17l1.142-6.531h-10.947c-.716 3.649-1.586 8.065-2.916 13.215l-6.855 29.415h12.278z"/>
  </g>
</svg>
