<svg xmlns="http://www.w3.org/2000/svg" viewBox="0 0 405.406 80.468">
  <g style="display:inline">
    <path d="M643.406 1779.785v45.901h29.599v-6.973h-20.564v-38.928h-9.035M678.465 1825.686h9.035v-33.038h-9.035v33.038m4.518-35.881a5.204 5.204 0 0 0 5.191-5.213c0-2.844-2.36-5.213-5.191-5.213-2.9 0-5.192 2.37-5.192 5.213 0 2.91 2.292 5.213 5.192 5.213M703.233 1796.507h-.134v-19.566h-9.035v48.745h8.832l.203-3.858h.134c2.832 3.182 5.664 4.535 10.316 4.535 8.765 0 14.564-7.92 14.564-17.805 0-9.546-5.192-16.587-14.16-16.587-4.786 0-7.618 1.422-10.72 4.536m-.134 11.916c0-5.687 2.562-9.479 7.416-9.479 5.394 0 8.09 3.86 8.09 10.156 0 6.228-2.629 10.29-7.955 10.29-4.652 0-7.551-3.656-7.551-9.478v-1.49M752.355 1791.971c-4.315.27-8.428 2.911-10.316 6.567h-.135l-.202-5.89h-8.832v33.038h9.034v-12.457c0-6.634 1.214-9.004 3.304-10.493 1.82-1.287 3.978-1.828 6.945-1.964l.202-8.8M785.597 1807.204c0-8.192-4.99-15.233-13.62-15.233-10.383 0-17.058 7.176-17.058 18.076 0 10.63 6.877 16.316 17.058 16.316 4.787 0 8.159-.744 11.327-2.166l-.944-6.77c-2.966 1.219-6 1.963-9.237 1.963-5.46 0-8.967-2.505-9.304-7.65h21.373c.27-1.219.405-3.114.405-4.536m-14.564-8.26c3.91 0 5.731 3.182 5.866 6.567h-12.743c.674-3.791 3.304-6.567 6.877-6.567" style="font-style:normal;font-variant:normal;font-weight:400;font-stretch:normal;font-size:67.5623px;font-family:Vegur;-inkscape-font-specification:Vegur;fill:#18a303;fill-opacity:1;stroke:none" transform="translate(-548 -1776.264)"/>
    <path d="M813.024 1779.108c-12.136 0-22.114 8.869-22.114 23.628s9.978 23.627 22.114 23.627c12.137 0 22.115-8.868 22.115-23.627 0-14.76-9.978-23.628-22.115-23.628m0 4.604c9.035 0 15.912 6.77 15.912 19.024 0 12.254-6.877 19.024-15.912 19.024-9.034 0-15.911-6.77-15.911-19.024 0-12.254 6.877-19.024 15.911-19.024M843.774 1790.82v2.099h-5.326v4.333h5.326v28.434h5.664v-28.434h8.36v-4.333h-8.36v-2.979c0-5.89 2.494-9.343 7.012-9.343 2.09 0 3.438.339 4.72.813l.539-4.198c-1.214-.474-3.506-.948-5.327-.948-8.023 0-12.608 5.213-12.608 14.556" style="font-style:normal;font-variant:normal;font-weight:400;font-stretch:normal;font-size:67.5623px;font-family:Vegur;-inkscape-font-specification:Vegur;fill:#000;fill-opacity:1;stroke:none" transform="translate(-548 -1776.264)"/>
    <path d="M862.603 1790.82v2.099h-5.327v4.333h5.327v28.434h5.663v-28.434h8.36v-4.333h-8.36v-2.979c0-5.89 2.495-9.343 7.012-9.343 2.09 0 3.439.339 4.72.813l.54-4.198c-1.214-.474-3.507-.948-5.327-.948-8.023 0-12.608 5.213-12.608 14.556M883.187 1825.686h5.663v-32.767h-5.663v32.767m2.832-37.574a3.49 3.49 0 0 0 3.506-3.52 3.49 3.49 0 0 0-3.506-3.52 3.49 3.49 0 0 0-3.506 3.52 3.49 3.49 0 0 0 3.506 3.52M900.627 1809.167c0-8.26 4.922-12.592 11.327-12.592 3.371 0 6.338.812 8.765 1.963l.54-4.333c-2.023-1.015-5.26-1.963-8.833-1.963-10.114 0-17.732 6.16-17.732 17.67 0 10.832 6.877 16.451 15.979 16.451 4.045 0 6.945-.473 10.248-1.895l-.54-4.333a21.24 21.24 0 0 1-8.697 1.895c-6.54 0-11.057-4.13-11.057-12.863M953.204 1810.589c.135-1.219.202-2.234.202-3.25 0-8.395-4.382-15.097-12.81-15.097-9.102 0-15.777 7.582-15.777 17.67 0 11.103 6.675 16.451 15.777 16.451 4.045 0 7.08-.609 10.248-1.895l-.54-4.333c-2.494 1.218-6.067 1.895-8.9 1.895-6.54 0-10.787-3.994-10.922-11.441h22.722m-13.08-14.014c4.99 0 7.686 4.13 7.686 9.546h-17.058c.809-5.755 3.978-9.546 9.372-9.546" style="font-style:normal;font-variant:normal;font-weight:400;font-stretch:normal;font-size:67.5623px;font-family:Vegur;-inkscape-font-specification:Vegur;fill:#000;fill-opacity:1;stroke:none" transform="translate(-548 -1776.264)"/>
  </g>
  <g style="font-style:normal;font-variant:normal;font-weight:400;font-stretch:normal;font-size:28.0312px;font-family:Vegur;-inkscape-font-specification:'Andale Mono';display:inline;fill:#000;fill-opacity:1;stroke:none">
    <path d="M669.804 1801.767h-13.791v1.906h5.69v17.099h2.355v-17.1h5.746v-1.905M674.348 1809.447v-8.858h-2.355v20.183h2.355v-7.457c0-2.803 1.71-4.485 3.812-4.485 2.186 0 2.719 1.234 2.719 3.84v8.102h2.354v-8.83c0-3.308-1.513-5.018-4.4-5.018-2.019 0-3.476 1.122-4.43 2.523h-.055M698.197 1814.52c.056-.504.084-.924.084-1.345 0-3.476-1.822-6.25-5.325-6.25-3.785 0-6.56 3.139-6.56 7.316 0 4.597 2.775 6.811 6.56 6.811 1.681 0 2.943-.252 4.26-.785l-.224-1.794c-1.037.505-2.523.785-3.7.785-2.72 0-4.485-1.654-4.541-4.737h9.446m-5.438-5.803c2.075 0 3.196 1.71 3.196 3.953h-7.092c.336-2.383 1.654-3.953 3.896-3.953M707.963 1802.019v18.585c1.373.196 3.392.308 4.905.308 5.747 0 11.157-3.336 11.157-10.231 0-6.055-4.149-9.055-11.1-9.055-1.542 0-3.336.113-4.962.393m2.354 1.682c.87-.14 1.822-.168 2.86-.168 5.353 0 8.269 2.859 8.269 7.428 0 5.41-3.756 8.045-8.297 8.045-.87 0-1.85-.028-2.832-.112V1803.7M732.784 1806.924c-4.092 0-6.53 3.084-6.53 7.064s2.438 7.064 6.53 7.064c4.093 0 6.532-3.083 6.532-7.064 0-3.98-2.44-7.064-6.532-7.064m0 12.334c-2.83 0-4.064-2.439-4.064-5.27 0-2.831 1.233-5.27 4.064-5.27 2.832 0 4.065 2.439 4.065 5.27 0 2.831-1.233 5.27-4.065 5.27M744.104 1813.932c0-3.42 2.046-5.214 4.71-5.214 1.401 0 2.634.337 3.643.813l.225-1.794c-.841-.42-2.187-.813-3.672-.813-4.205 0-7.373 2.551-7.373 7.316 0 4.485 2.86 6.812 6.644 6.812 1.682 0 2.887-.196 4.26-.785l-.224-1.794a8.862 8.862 0 0 1-3.616.785c-2.719 0-4.597-1.71-4.597-5.326M764.394 1818.53l.085 2.242h2.27v-13.567h-2.355v7.456c0 2.803-1.71 4.485-3.812 4.485-2.186 0-2.719-1.233-2.719-3.84v-8.101h-2.354v8.83c0 3.307 1.513 5.017 4.4 5.017 2.019 0 3.476-1.121 4.43-2.523h.055M787.571 1812.39v8.382h2.355v-9.11c0-3.028-1.402-4.738-4.093-4.738-1.934 0-3.475 1.234-4.372 3.056h-.085c-.532-1.906-1.653-3.056-3.812-3.056-1.934 0-3.167 1.037-4.12 2.523h-.056l-.085-2.242h-2.27v13.567h2.355v-6.896c0-3.055 1.345-5.046 3.447-5.046 1.766 0 2.467 1.234 2.467 3.56v8.382h2.355v-6.896c0-3.111 1.345-5.046 3.448-5.046 1.766 0 2.466 1.234 2.466 3.56M804.847 1814.52c.057-.504.085-.924.085-1.345 0-3.476-1.823-6.25-5.326-6.25-3.785 0-6.56 3.139-6.56 7.316 0 4.597 2.775 6.811 6.56 6.811 1.681 0 2.943-.252 4.26-.785l-.224-1.794c-1.037.505-2.523.785-3.7.785-2.72 0-4.485-1.654-4.541-4.737h9.446m-5.438-5.803c2.075 0 3.196 1.71 3.196 3.953h-7.092c.336-2.383 1.654-3.953 3.896-3.953M810.617 1809.447l-.085-2.242h-2.27v13.567h2.355v-7.457c0-2.803 1.71-4.485 3.812-4.485 2.186 0 2.719 1.234 2.719 3.84v8.102h2.354v-8.83c0-3.308-1.513-5.018-4.4-5.018-2.019 0-3.476 1.122-4.43 2.523h-.055M830.01 1807.205h-3.252v-3h-2.355v3h-2.158v1.794h2.158v8.437c0 2.467 1.346 3.616 3.532 3.616 1.15 0 1.906-.112 2.495-.364l-.252-1.71c-.477.196-.982.28-1.514.28-1.374 0-1.906-.785-1.906-2.41v-7.85h3.251v-1.793M842.152 1820.772v-8.578h6.811v-1.906h-6.811v-6.615h7.764v-1.906h-10.119v19.005h2.355M858.432 1806.924c-4.092 0-6.531 3.084-6.531 7.064s2.439 7.064 6.531 7.064c4.093 0 6.531-3.083 6.531-7.064 0-3.98-2.438-7.064-6.53-7.064m0 12.334c-2.832 0-4.065-2.439-4.065-5.27 0-2.831 1.233-5.27 4.064-5.27s4.065 2.439 4.065 5.27c0 2.831-1.234 5.27-4.065 5.27M877.012 1818.53l.084 2.242h2.27v-13.567h-2.354v7.456c0 2.803-1.71 4.485-3.812 4.485-2.187 0-2.72-1.233-2.72-3.84v-8.101h-2.354v8.83c0 3.307 1.514 5.017 4.401 5.017 2.018 0 3.476-1.121 4.429-2.523h.056M886.005 1809.447l-.084-2.242h-2.27v13.567h2.354v-7.457c0-2.803 1.71-4.485 3.812-4.485 2.187 0 2.72 1.234 2.72 3.84v8.102h2.354v-8.83c0-3.308-1.514-5.018-4.4-5.018-2.019 0-3.477 1.122-4.43 2.523h-.056M908.538 1809.307c-1.01-1.654-2.467-2.383-4.373-2.383-3.644 0-6.111 3.028-6.111 7.317 0 4.092 2.214 6.811 5.942 6.811 1.963 0 3.476-.897 4.542-2.383h.056l.084 2.103h2.27v-20.183h-2.354v8.718h-.056m.056 5.494c0 2.355-1.458 4.457-3.869 4.457-2.719 0-4.204-2.13-4.204-5.242 0-3.195 1.43-5.298 4.148-5.298 2.159 0 3.925 1.85 3.925 4.457v1.626M919.951 1806.924c-1.373 0-2.747.225-4.205.785l.225 1.794c1.373-.532 2.494-.785 3.644-.785 2.074 0 2.943 1.206 2.943 3.112v.392c-.645-.112-1.261-.168-2.243-.168-3.447 0-6.054 1.71-6.054 4.681 0 2.775 2.046 4.317 4.232 4.317 1.794 0 3.28-.925 4.009-2.383h.056l.084 2.103h2.27v-9.194c0-3.056-1.821-4.654-4.96-4.654m2.606 8.017c0 2.691-1.374 4.317-3.364 4.317-1.43 0-2.41-1.037-2.41-2.691 0-1.794 1.149-2.971 3.896-2.971.7 0 1.317.084 1.878.168v1.177M935.4 1807.205h-3.251v-3h-2.355v3h-2.158v1.794h2.158v8.437c0 2.467 1.345 3.616 3.532 3.616 1.15 0 1.906-.112 2.495-.364l-.253-1.71c-.476.196-.98.28-1.513.28-1.374 0-1.906-.785-1.906-2.41v-7.85h3.251v-1.793M938.837 1820.772h2.355v-13.567h-2.355v13.567m1.177-15.558c.813 0 1.458-.644 1.458-1.457 0-.813-.645-1.458-1.458-1.458-.812 0-1.457.645-1.457 1.458s.645 1.457 1.457 1.457M951.012 1806.924c-4.093 0-6.531 3.084-6.531 7.064s2.438 7.064 6.53 7.064c4.093 0 6.532-3.083 6.532-7.064 0-3.98-2.439-7.064-6.531-7.064m0 12.334c-2.831 0-4.065-2.439-4.065-5.27 0-2.831 1.234-5.27 4.065-5.27 2.831 0 4.064 2.439 4.064 5.27 0 2.831-1.233 5.27-4.064 5.27M963.2 1809.447l-.084-2.242h-2.27v13.567h2.355v-7.457c0-2.803 1.71-4.485 3.812-4.485 2.186 0 2.719 1.234 2.719 3.84v8.102h2.354v-8.83c0-3.308-1.513-5.018-4.4-5.018-2.019 0-3.476 1.122-4.43 2.523h-.055" style="-inkscape-font-specification:'Andale Mono';fill:#000" transform="matrix(.98078 0 0 1.0196 -548 -1776.264)"/>
  </g>
  <g style="display:inline">
    <path d="M746.519 1098.726c-.755-.02-1.499.452-1.794 1.138a1.898 1.898 0 0 0 .416 2.063l16.196 16.247a1.962 1.962 0 0 0 2.063.42c.69-.275 1.177-.984 1.182-1.718v-16.278c.002-.98-.903-1.874-1.898-1.872z" style="color:#000;font-style:normal;font-variant:normal;font-weight:400;font-stretch:normal;font-size:medium;line-height:normal;font-family:'Andale Mono';-inkscape-font-specification:'Andale Mono';text-indent:0;text-align:start;text-decoration:none;text-decoration-line:none;letter-spacing:normal;word-spacing:normal;text-transform:none;writing-mode:lr-tb;direction:ltr;text-anchor:start;display:inline;overflow:visible;visibility:visible;fill:#000;fill-opacity:1;fill-rule:evenodd;stroke:none;stroke-width:3.86824;marker:none;enable-background:accumulate" transform="translate(-700.094 -1096.264)"/>
    <path d="M701.984 1098.725c-.996.014-1.892.925-1.89 1.921v74.157c-.002.996.894 1.907 1.89 1.921h60.677c1.006 0 1.923-.914 1.921-1.92v-47.755a1.941 1.941 0 0 0-.557-1.364l-26.248-26.371a1.942 1.942 0 0 0-1.364-.589z" style="color:#000;font-style:normal;font-variant:normal;font-weight:400;font-stretch:normal;font-size:medium;line-height:normal;font-family:'Andale Mono';-inkscape-font-specification:'Andale Mono';text-indent:0;text-align:start;text-decoration:none;text-decoration-line:none;letter-spacing:normal;word-spacing:normal;text-transform:none;writing-mode:lr-tb;direction:ltr;text-anchor:start;display:inline;overflow:visible;visibility:visible;fill:#fff;fill-opacity:1;fill-rule:evenodd;stroke:none;stroke-width:3.86824;marker:none;enable-background:accumulate" transform="translate(-700.094 -1096.264)"/>
    <path d="M701.984 1098.725a1.918 1.918 0 0 0-1.89 1.921v74.157a1.918 1.918 0 0 0 1.89 1.921h60.677a1.918 1.918 0 0 0 1.921-1.92v-47.755a1.918 1.918 0 0 0-.557-1.364l-26.248-26.371a1.918 1.918 0 0 0-1.364-.589zm1.922 3.843h31.702l25.132 25.256v45.058h-56.834z" style="color:#000;font-style:normal;font-variant:normal;font-weight:400;font-stretch:normal;font-size:medium;line-height:normal;font-family:'Andale Mono';-inkscape-font-specification:'Andale Mono';text-indent:0;text-align:start;text-decoration:none;text-decoration-line:none;letter-spacing:normal;word-spacing:normal;text-transform:none;writing-mode:lr-tb;direction:ltr;text-anchor:start;display:inline;overflow:visible;visibility:visible;fill:#000;fill-opacity:1;fill-rule:evenodd;stroke:none;stroke-width:3.86824;marker:none;enable-background:accumulate" transform="translate(-700.094 -1096.264)"/>
  </g>
</svg>
