<svg xmlns="http://www.w3.org/2000/svg" viewBox="0 0 256 193.181">
  <path fill="#0f80aa" d="M236.651 193.181c10.686 0 19.349-8.663 19.349-19.349s-8.663-19.349-19.349-19.349-19.349 8.663-19.349 19.35c0 10.685 8.663 19.348 19.35 19.348zM99.292 124.795c-14.424 0-26.16-11.05-26.16-24.705 0-13.61 11.736-24.655 26.16-24.655 14.477 0 26.187 11.044 26.187 24.655 0 13.655-11.71 24.705-26.187 24.705zM43.186.001C19.436.001 0 17.667 0 40.068v151.625h155.432c23.743 0 41.033-23.335 41.033-45.73V0H43.19l-.003.001z"/>
</svg>
