<svg xmlns="http://www.w3.org/2000/svg" viewBox="0 0 256 317.279">
  <path fill="#4861b4" d="M209.255 159.9c0 20.398-16.542 43.912-36.931 52.519l-135.402 57.17C16.533 278.205 0 268.653 0 248.255v-135.41c0-20.39 16.533-43.895 36.922-52.51l135.402-57.17c20.389-8.607 36.931.945 36.931 21.342V159.9"/>
  <path fill="#25336d" d="M238.19 44.996v134.946c0 20.389-16.534 43.904-36.931 52.51l-135.402 57.17c-6.998 2.96-13.531 3.74-19.112 2.704v.456c0 20.38 16.534 29.94 36.923 21.334l135.41-57.17C239.467 248.33 256 224.824 256 204.426V69.026c0-13.39-7.147-22.055-17.81-24.03"/>
  <path fill="#fff" d="M186.728 262.083c-17.437 0-32.221-6.202-44.368-18.64-12.139-12.428-18.208-27.37-18.208-44.824V106.64l32.892-13.888L98.05 42.738l-53.672 97.575 35.157-14.842v73.107c0 29.26 10.538 54.169 31.599 74.699 7.827 7.62 17.966 14.83 26.921 19.623l70.271-30.817h-21.598"/>
</svg>
