<svg xmlns="http://www.w3.org/2000/svg" xmlns:xlink="http://www.w3.org/1999/xlink" viewBox="0 0 255.553 255.553">
  <defs>
    <linearGradient id="d" x1="38.609" x2="38.609" y1="20.647" y2="61.551" gradientTransform="scale(1.3067 .7653)" gradientUnits="userSpaceOnUse">
      <stop offset="0%" stop-color="#212121" stop-opacity=".04"/>
      <stop offset="66%" stop-color="#212121" stop-opacity="0"/>
    </linearGradient>
    <linearGradient id="j" x1="147.016" x2="193.218" y1="57.206" y2="192.675" gradientTransform="scale(.74965 1.33395)" gradientUnits="userSpaceOnUse">
      <stop offset="0%" stop-color="#FFF" stop-opacity=".1"/>
      <stop offset="100%" stop-color="#FFF" stop-opacity="0"/>
    </linearGradient>
    <linearGradient id="k" x1="144.482" x2="122.051" y1="62.868" y2="45.124" gradientTransform="scale(.78447 1.27474)" gradientUnits="userSpaceOnUse">
      <stop offset="0%" stop-color="#262626" stop-opacity=".1"/>
      <stop offset="100%" stop-color="#262626" stop-opacity="0"/>
    </linearGradient>
    <linearGradient id="l" x1="147.102" x2="113.359" y1="103.13" y2="181.704" gradientTransform="scale(.70755 1.41334)" gradientUnits="userSpaceOnUse">
      <stop offset="0%" stop-color="#262626" stop-opacity=".1"/>
      <stop offset="100%" stop-color="#262626" stop-opacity="0"/>
    </linearGradient>
    <linearGradient id="m" x1="44.08" x2="80.814" y1="185.961" y2="185.961" gradientTransform="scale(1.58112 .63246)" gradientUnits="userSpaceOnUse">
      <stop offset="0%" stop-color="#262626" stop-opacity=".1"/>
      <stop offset="100%" stop-color="#262626" stop-opacity="0"/>
    </linearGradient>
    <linearGradient id="q" x1="44.549" x2="44.549" y1="23.823" y2="71.019" gradientTransform="scale(1.3067 .7653)" gradientUnits="userSpaceOnUse">
      <stop offset="0%" stop-color="#212121" stop-opacity=".04"/>
      <stop offset="66%" stop-color="#212121" stop-opacity="0"/>
    </linearGradient>
    <path id="b" d="M53.483 15.73h-7.645C42.598 6.56 33.866 0 23.594 0 10.57 0 0 10.57 0 23.594 0 36.62 10.57 47.191 23.594 47.191h29.889c8.686-.004 15.727-7.045 15.73-15.732-.004-8.686-7.044-15.726-15.73-15.73z"/>
    <path id="e" d="M29.887 0H0v31.459h29.887c8.685-.004 15.725-7.044 15.729-15.73C45.612 7.045 38.572.005 29.886 0z"/>
    <path id="g" d="m.72.72 12.756 40.284c4.26-4.28 10.838-10.178 10.838-16.69C24.314 11.29 13.744.72.72.72z"/>
    <path id="o" d="M61.71 18.15h-8.822C49.151 7.568 39.078 0 27.225 0 12.197 0 0 12.197 0 27.225 0 42.253 12.197 54.45 27.225 54.45h34.484c10.02 0 18.152-8.13 18.152-18.15 0-10.018-8.133-18.15-18.152-18.15z"/>
    <path id="r" d="M34.484 0H0v36.3h34.484c10.02 0 18.152-8.132 18.152-18.15C52.636 8.13 44.503 0 34.484 0z"/>
    <path id="t" d="m.445.445 14.719 46.483C20.084 41.99 27.67 35.184 27.67 27.67 27.67 12.642 15.473.445.445.445z"/>
    <radialGradient id="i" cx="136.662" cy="97.543" r="82.62" fx="136.662" fy="97.543" gradientTransform="scale(1.21106 .82573)" gradientUnits="userSpaceOnUse">
      <stop offset="0%" stop-color="#FFF" stop-opacity=".1"/>
      <stop offset="100%" stop-color="#FFF" stop-opacity="0"/>
    </radialGradient>
    <radialGradient id="a" cx=".145" cy=".146" r="1" fx=".145" fy=".146">
      <stop offset="0%" stop-color="#FFF" stop-opacity=".1"/>
      <stop offset="100%" stop-color="#FFF" stop-opacity="0"/>
    </radialGradient>
    <radialGradient id="v" cx="32.44" cy="131.622" r="95.332" fx="32.44" fy="131.622" gradientTransform="scale(1.21107 .82572)" gradientUnits="userSpaceOnUse">
      <stop offset="0%" stop-color="#FFF" stop-opacity=".1"/>
      <stop offset="100%" stop-color="#FFF" stop-opacity="0"/>
    </radialGradient>
    <radialGradient id="n" cx="37.027" cy="37.27" r="255.484" fx="37.027" fy="37.27" gradientUnits="userSpaceOnUse" xlink:href="#a"/>
    <radialGradient id="w" cx="37.027" cy="37.27" r="255.484" fx="37.027" fy="37.27" gradientUnits="userSpaceOnUse" xlink:href="#a"/>
    <filter id="h" width="1.593" height="1.348" x="-.297" y="-.124" filterUnits="objectBoundingBox">
      <feOffset dy="2" in="SourceAlpha" result="shadowOffsetOuter1"/>
      <feGaussianBlur in="shadowOffsetOuter1" result="shadowBlurOuter1" stdDeviation="2"/>
      <feColorMatrix in="shadowBlurOuter1" values="0 0 0 0 0 0 0 0 0 0 0 0 0 0 0 0 0 0 0.2 0"/>
    </filter>
    <filter id="u" width="1.514" height="1.301" x="-.257" y="-.108" filterUnits="objectBoundingBox">
      <feOffset dy="2" in="SourceAlpha" result="shadowOffsetOuter1"/>
      <feGaussianBlur in="shadowOffsetOuter1" result="shadowBlurOuter1" stdDeviation="2"/>
      <feColorMatrix in="shadowBlurOuter1" values="0 0 0 0 0 0 0 0 0 0 0 0 0 0 0 0 0 0 0.1 0"/>
    </filter>
  </defs>
  <g fill="none">
    <circle cx="127.777" cy="127.777" r="127.777" fill="#0535c1"/>
    <path d="M230.868 133.585h-75.505V58.081h75.505z"/>
    <g transform="translate(158.51 73.81)">
      <mask id="c" fill="#fff">
        <use width="100%" height="100%" xlink:href="#b"/>
      </mask>
      <g mask="url(#c)">
        <path fill="#eaeaea" d="M53.483 15.73h-7.645C42.598 6.56 33.866 0 23.594 0 10.57 0 0 10.57 0 23.594 0 36.62 10.57 47.191 23.594 47.191h29.889c8.686-.004 15.727-7.045 15.73-15.732-.004-8.686-7.044-15.726-15.73-15.73z"/>
        <path fill="#fff" fill-opacity=".2" d="M69.212 31.649v-.19c-.003-8.686-7.043-15.726-15.729-15.73h-7.867v.393h7.867c8.609.001 15.617 6.92 15.73 15.529z"/>
        <path fill="url(#d)" d="m45.853 15.73 31.46 31.46H23.593z" style="fill:url(#d)"/>
        <g transform="translate(23.594 15.73)">
          <mask id="f" fill="#fff">
            <use width="100%" height="100%" xlink:href="#e"/>
          </mask>
          <g mask="url(#f)">
            <g transform="translate(-.72 -16.45)">
              <use width="100%" height="100%" fill="#000" filter="url(#h)" xlink:href="#g"/>
              <use width="100%" height="100%" fill="#e1e1e1" xlink:href="#g"/>
            </g>
          </g>
        </g>
        <circle cx="23.594" cy="23.594" r="23.594" fill="#eee"/>
        <path fill="#fff" fill-opacity=".2" d="M23.594.392c12.962 0 23.486 10.461 23.597 23.407v-.187C47.19 10.587 36.619.015 23.594.015 10.57.015 0 10.57 0 23.595v.189C.109 10.853 10.633.392 23.594.392z"/>
        <path fill="#212121" fill-opacity=".1" d="M53.483 46.796H23.594C10.635 46.796.111 36.336 0 23.392v.19c0 13.024 10.57 23.593 23.594 23.593h29.889c8.686-.003 15.726-7.043 15.73-15.729v-.187c-.109 8.61-7.118 15.536-15.73 15.54z"/>
      </g>
    </g>
    <path fill="url(#i)" d="M211.993 89.54h-7.644c-3.241-9.17-11.973-15.73-22.244-15.73-13.025 0-23.595 10.57-23.595 23.594 0 13.025 10.57 23.597 23.595 23.597h29.888c8.687-.004 15.727-7.045 15.73-15.732-.004-8.685-7.044-15.726-15.73-15.73z" style="fill:url(#i)"/>
    <path fill="#fff176" d="M159.721 111.805H92.93v-58.08h66.792z"/>
    <path fill="#fff" d="M165.528 222.156h-79.86v-79.86h79.86z"/>
    <path fill="#f4481e" d="M174.24 105.997h11.615v23.23H69.696v-23.23h11.615V59.53l46.466-29.039 46.463 29.04zm-23.233 0v-33.59l-23.23-14.516-23.233 14.517v33.589z"/>
    <path fill="#f4481e" d="m64.536 238.83 19.68-132.835h87.12l19.679 132.836c-18.646 10.641-40.232 16.72-63.238 16.72-23.007 0-44.593-6.079-63.24-16.72zm89.253-92.758-54.655 17.76-6.643 44.833 67.33-21.88-6.032-40.715z"/>
    <path fill="url(#j)" d="m174.129 129.227 16.237 109.604c-18.646 10.641-40.232 16.72-63.238 16.72-23.007 0-44.593-6.079-63.24-16.72l16.238-109.604h-10.43v-23.23h11.615V59.53l46.466-29.039 46.463 29.04v46.465h11.615v23.23h-11.724z" style="fill:url(#j)"/>
    <path fill="url(#k)" d="m81.311 59.531 46.466-29.039v75.505H81.31z" style="fill:url(#k)"/>
    <path fill="url(#l)" d="M127.777 255.551a127.675 127.675 0 0 1-63.24-16.72l14.56-109.604h48.678v126.324z" style="fill:url(#l)"/>
    <path fill="url(#m)" d="M127.777 129.23H69.696v-23.233h58.08z" style="fill:url(#m)" transform="matrix(-1 0 0 1 197.473 0)"/>
    <circle cx="127.777" cy="127.777" r="127.777" fill="url(#a)" style="fill:url(#n)"/>
    <path d="M114.709 169.884h-87.12v-87.12h87.12z"/>
    <g transform="translate(31.217 100.913)">
      <mask id="p" fill="#fff">
        <use width="100%" height="100%" xlink:href="#o"/>
      </mask>
      <g mask="url(#p)">
        <path fill="#fafafa" d="M61.71 18.15h-8.822C49.151 7.568 39.078 0 27.225 0 12.197 0 0 12.197 0 27.225 0 42.253 12.197 54.45 27.225 54.45h34.484c10.02 0 18.152-8.13 18.152-18.15 0-10.018-8.133-18.15-18.152-18.15z"/>
        <path fill="#fff" fill-opacity=".2" d="M79.86 36.519V36.3c0-10.02-8.132-18.152-18.15-18.152h-9.074v.455h9.073c9.933 0 18.02 7.983 18.152 17.915z"/>
        <path fill="url(#q)" d="m52.908 18.15 36.298 36.3H27.225z" style="fill:url(#q)"/>
        <g transform="translate(27.225 18.15)">
          <mask id="s" fill="#fff">
            <use width="100%" height="100%" xlink:href="#r"/>
          </mask>
          <g mask="url(#s)">
            <g transform="translate(-.445 -18.594)">
              <use width="100%" height="100%" fill="#000" filter="url(#u)" xlink:href="#t"/>
              <use width="100%" height="100%" fill="#e1e1e1" xlink:href="#t"/>
            </g>
          </g>
        </g>
        <circle cx="27.225" cy="27.225" r="27.225" fill="#fff"/>
        <path fill="#fff" fill-opacity=".2" d="M27.225.453c14.956 0 27.099 12.07 27.225 27.007v-.218C54.45 12.214 42.253.017 27.225.017 12.197.017 0 12.197 0 27.225v.218C.126 12.523 12.269.453 27.225.453z"/>
        <path fill="#212121" fill-opacity=".1" d="M61.71 53.997H27.224C12.269 53.997.126 41.927 0 26.99v.218c0 15.028 12.197 27.225 27.225 27.225h34.484c10.02 0 18.152-8.133 18.152-18.152v-.218c-.129 9.93-8.205 17.934-18.152 17.934z"/>
      </g>
    </g>
    <path fill="url(#v)" d="M92.927 119.063h-8.821c-3.738-10.581-13.811-18.15-25.664-18.15-15.028 0-27.225 12.197-27.225 27.225 0 15.028 12.197 27.225 27.225 27.225h34.485c10.018 0 18.151-8.13 18.151-18.149s-8.133-18.151-18.151-18.151z" style="fill:url(#v)"/>
    <g opacity=".1">
      <path fill="#fff" d="M127.777 1.335c70.35 0 127.397 56.846 127.761 127.108 0-.218.013-.435.013-.666C255.551 57.21 198.344 0 127.777 0 57.21 0 0 57.21 0 127.777c0 .217.015.435.015.666C.377 58.181 57.427 1.335 127.777 1.335z"/>
      <path fill="#263238" d="M255.538 127.108c-.364 70.262-57.412 127.108-127.761 127.108-70.35 0-127.4-56.846-127.762-127.108 0 .233-.015.45-.015.669C0 198.344 57.21 255.55 127.777 255.55c70.567 0 127.774-57.207 127.774-127.774 0-.218-.013-.436-.013-.669z"/>
    </g>
    <circle cx="127.777" cy="127.777" r="127.777" fill="url(#a)" style="fill:url(#w)"/>
  </g>
</svg>
