<svg xmlns="http://www.w3.org/2000/svg" viewBox="0 0 256 256">
  <path fill="#0a66c2" d="M218.124 218.128h-37.931v-59.403c0-14.165-.253-32.4-19.728-32.4-19.756 0-22.779 15.433-22.779 31.369v60.43h-37.93V95.967h36.413v16.694h.51a39.907 39.907 0 0 1 35.928-19.732c38.445 0 45.533 25.288 45.533 58.186zM56.956 79.27c-12.157.003-22.014-9.851-22.016-22.008-.002-12.157 9.851-22.014 22.008-22.016 12.157-.003 22.014 9.85 22.016 22.008a22.013 22.013 0 0 1-22.008 22.016m18.966 138.86H37.95V95.966h37.97zM237.034.018H18.891C8.58-.097.126 8.161 0 18.471v219.054c.122 10.315 8.576 18.582 18.89 18.474h218.144c10.336.128 18.823-8.139 18.966-18.474V18.455c-.147-10.33-8.635-18.588-18.966-18.453"/>
</svg>
