<?xml version="1.0" encoding="UTF-8"?>
<svg width="256" height="256" version="1.1" viewBox="0 0 256 256" xmlns="http://www.w3.org/2000/svg" xmlns:cc="http://creativecommons.org/ns#" xmlns:dc="http://purl.org/dc/elements/1.1/" xmlns:rdf="http://www.w3.org/1999/02/22-rdf-syntax-ns#" xmlns:xlink="http://www.w3.org/1999/xlink">
 <title>Tux</title>
 <defs>
  <linearGradient id="linearGradient14132-6">
   <stop stop-color="#b98309" offset="0"/>
   <stop stop-color="#382605" offset="1"/>
  </linearGradient>
  <filter id="filter14148-8" x="-.10751" y="-.1085" width="1.215" height="1.217" color-interpolation-filters="sRGB">
   <feGaussianBlur stdDeviation="3.9237191"/>
  </filter>
  <filter id="filter14140-3" color-interpolation-filters="sRGB">
   <feGaussianBlur stdDeviation="2.4365744"/>
  </filter>
  <filter id="filter14176-5" color-interpolation-filters="sRGB">
   <feGaussianBlur stdDeviation="0.3702557"/>
  </filter>
  <filter id="filter15053-7" x="-.10104" y="-.04267" width="1.2021" height="1.0853" color-interpolation-filters="sRGB">
   <feGaussianBlur stdDeviation="1.1322032"/>
  </filter>
  <linearGradient id="linearGradient14830-4">
   <stop stop-color="#7c7c7c" offset="0"/>
   <stop stop-color="#7c7c7c" stop-opacity=".32941" offset="1"/>
  </linearGradient>
  <filter id="filter14812-5" x="-.070456" y="-.1506" width="1.1409" height="1.3012" color-interpolation-filters="sRGB">
   <feGaussianBlur stdDeviation="1.0252435"/>
  </filter>
  <filter id="filter14812-0-9" x="-.070456" y="-.1506" width="1.1409" height="1.3012" color-interpolation-filters="sRGB">
   <feGaussianBlur stdDeviation="1.0252435"/>
  </filter>
  <linearGradient id="linearGradient14518-6">
   <stop stop-color="#110800" offset="0"/>
   <stop stop-color="#a65a00" stop-opacity=".8" offset=".59067"/>
   <stop stop-color="#ff921e" stop-opacity="0" offset="1"/>
  </linearGradient>
  <filter id="filter14897-2" x="-.20051" y="-.23409" width="1.401" height="1.4682" color-interpolation-filters="sRGB">
   <feGaussianBlur stdDeviation="2.8444356"/>
  </filter>
  <filter id="filter14951-8" x="-.091411" y="-.10672" width="1.1828" height="1.2134" color-interpolation-filters="sRGB">
   <feGaussianBlur stdDeviation="1.2967831"/>
  </filter>
  <filter id="filter15211-9" x="-.46933" y="-.27372" width="1.9387" height="1.5474" color-interpolation-filters="sRGB">
   <feGaussianBlur stdDeviation="0.85991809"/>
  </filter>
  <filter id="filter14706-3" x="-.6039" y="-.48226" width="2.2078" height="1.9645" color-interpolation-filters="sRGB">
   <feGaussianBlur stdDeviation="2.6400036"/>
  </filter>
  <filter id="filter15115-3" color-interpolation-filters="sRGB">
   <feGaussianBlur stdDeviation="2.2091576"/>
  </filter>
  <linearGradient id="linearGradient14392-8">
   <stop stop-color="#3e2a06" offset="0"/>
   <stop stop-color="#ad780a" offset="1"/>
  </linearGradient>
  <filter id="filter14416-8" x="-.14502" y="-.143" width="1.29" height="1.286" color-interpolation-filters="sRGB">
   <feGaussianBlur stdDeviation="4.7787162"/>
  </filter>
  <filter id="filter14432-2" x="-.11529" y="-.12495" width="1.2306" height="1.2499" color-interpolation-filters="sRGB">
   <feGaussianBlur stdDeviation="3.1725155"/>
  </filter>
  <filter id="filter17044" x="-.020912" y="-.12927" width="1.0418" height="1.2585" color-interpolation-filters="sRGB">
   <feGaussianBlur stdDeviation="0.47946431"/>
  </filter>
  <filter id="filter15185-2" x="-.17755" y="-.15943" width="1.3551" height="1.3189" color-interpolation-filters="sRGB">
   <feGaussianBlur stdDeviation="0.90083196"/>
  </filter>
  <filter id="filter4592-2" x="-.8166" y="-.057824" width="2.6332" height="1.1156" color-interpolation-filters="sRGB">
   <feGaussianBlur stdDeviation="1.4463082"/>
  </filter>
  <linearGradient id="linearGradient4417-0">
   <stop offset="0"/>
   <stop stop-opacity=".24887" offset="1"/>
  </linearGradient>
  <filter id="filter4538-7" color-interpolation-filters="sRGB">
   <feGaussianBlur stdDeviation="0.7854602"/>
  </filter>
  <filter id="filter4427-5-7" color-interpolation-filters="sRGB">
   <feGaussianBlur stdDeviation="1.1383167"/>
  </filter>
  <filter id="filter4487-6" color-interpolation-filters="sRGB">
   <feGaussianBlur stdDeviation="0.6434074"/>
  </filter>
  <filter id="filter14666-9" x="-.11753" y="-.040046" width="1.2351" height="1.0801" color-interpolation-filters="sRGB">
   <feGaussianBlur stdDeviation="1.352085"/>
  </filter>
  <linearGradient id="linearGradient28469-0">
   <stop stop-color="#d2940a" offset="0"/>
   <stop stop-color="#d89c08" offset=".75144"/>
   <stop stop-color="#b67e07" offset=".86579"/>
   <stop stop-color="#946106" offset="1"/>
  </linearGradient>
  <filter id="filter28502-8" x="-.15483" y="-.21494" width="1.3097" height="1.4299" color-interpolation-filters="sRGB">
   <feGaussianBlur stdDeviation="0.89858666"/>
  </filter>
  <filter id="filter15145-6" color-interpolation-filters="sRGB">
   <feGaussianBlur stdDeviation="0.75821369"/>
  </filter>
  <filter id="filter14963-7" x="-.16096" y="-.13028" width="1.3219" height="1.2606" color-interpolation-filters="sRGB">
   <feGaussianBlur stdDeviation="0.84878819"/>
  </filter>
  <linearGradient id="linearGradient29529-6">
   <stop stop-color="#3a2903" offset="0"/>
   <stop stop-color="#735208" offset=".55473"/>
   <stop stop-color="#ac8c04" offset="1"/>
  </linearGradient>
  <filter id="filter15177-1" color-interpolation-filters="sRGB">
   <feGaussianBlur stdDeviation="0.11039302"/>
  </filter>
  <filter id="filter15173-0" x="-.11645" y="-.10573" width="1.2329" height="1.2115" color-interpolation-filters="sRGB">
   <feGaussianBlur stdDeviation="0.11039302"/>
  </filter>
  <filter id="filter28584-4" x="-.1073" y="-.13611" width="1.2146" height="1.2722" color-interpolation-filters="sRGB">
   <feGaussianBlur stdDeviation="0.2640625"/>
  </filter>
  <filter id="filter29493-2" x="-.23447" y="-.14607" width="1.4689" height="1.2921" color-interpolation-filters="sRGB">
   <feGaussianBlur stdDeviation="0.51262416"/>
  </filter>
  <linearGradient id="linearGradient29336-6">
   <stop stop-color="#646464" stop-opacity="0" offset="0"/>
   <stop stop-color="#646464" stop-opacity=".58252" offset=".30628"/>
   <stop stop-color="#646464" offset=".47"/>
   <stop stop-color="#646464" stop-opacity=".25728" offset=".72834"/>
   <stop stop-color="#646464" stop-opacity="0" offset="1"/>
  </linearGradient>
  <filter id="filter29447-1" color-interpolation-filters="sRGB">
   <feGaussianBlur stdDeviation="0.13475369"/>
  </filter>
  <filter id="filter29350-1" color-interpolation-filters="sRGB">
   <feGaussianBlur stdDeviation="0.1475"/>
  </filter>
  <filter id="filter28927-8" x="-.15795" y="-.2092" width="1.3159" height="1.4184" color-interpolation-filters="sRGB">
   <feGaussianBlur stdDeviation="0.24891089"/>
  </filter>
  <filter id="filter28949-8" x="-.17868" y="-.18134" width="1.3574" height="1.3627" color-interpolation-filters="sRGB">
   <feGaussianBlur stdDeviation="0.51947927"/>
  </filter>
  <filter id="filter15133-1" x="-.29218" y="-.30825" width="1.5844" height="1.6165" color-interpolation-filters="sRGB">
   <feGaussianBlur stdDeviation="1.7403319"/>
  </filter>
  <linearGradient id="linearGradient28799-3">
   <stop stop-color="#fefefc" offset="0"/>
   <stop stop-color="#fefefc" offset=".75734"/>
   <stop stop-color="#d4d4d4" offset="1"/>
  </linearGradient>
  <filter id="filter30475-4" color-interpolation-filters="sRGB">
   <feGaussianBlur stdDeviation="0.93152507"/>
  </filter>
  <filter id="filter30479-2" x="-.076378" y="-.12919" width="1.1528" height="1.2584" color-interpolation-filters="sRGB">
   <feGaussianBlur stdDeviation="2.0355046"/>
  </filter>
  <radialGradient id="radialGradient18806" cx="223.2" cy="137.66" r="14.572" gradientTransform="matrix(.81524 -.034312 .029611 1.248 -208.44 -35.543)" gradientUnits="userSpaceOnUse" xlink:href="#linearGradient28799-3"/>
  <radialGradient id="radialGradient18808" cx="223.2" cy="137.66" r="14.572" gradientTransform="matrix(1.0858 -.034312 .039438 1.248 -233.54 -35.543)" gradientUnits="userSpaceOnUse" xlink:href="#linearGradient28799-3"/>
  <radialGradient id="radialGradient18810" cx="275.54" cy="150.65" r="15.382" gradientTransform="matrix(.69785 -.50717 .46034 .63341 -271.1 183.03)" gradientUnits="userSpaceOnUse">
   <stop stop-color="#020204" offset="0"/>
   <stop stop-color="#020204" offset=".73448"/>
   <stop stop-color="#5c5c5c" offset="1"/>
  </radialGradient>
  <linearGradient id="linearGradient18812" x1="213.02" x2="219.73" y1="132.77" y2="140.72" gradientTransform="translate(-60 -58.362)" gradientUnits="userSpaceOnUse">
   <stop stop-color="#949494" stop-opacity=".39216" offset="0"/>
   <stop stop-color="#949494" offset=".5"/>
   <stop stop-color="#949494" stop-opacity=".39216" offset="1"/>
  </linearGradient>
  <linearGradient id="linearGradient18814" x1="337.25" x2="358.62" y1="119.99" y2="132.49" gradientTransform="translate(-250)" gradientUnits="userSpaceOnUse">
   <stop stop-color="#747474" offset="0"/>
   <stop stop-color="#8c8c8c" offset=".125"/>
   <stop stop-color="#a4a4a4" offset=".25"/>
   <stop stop-color="#d4d4d4" offset=".5"/>
   <stop stop-color="#d4d4d4" offset=".61919"/>
   <stop stop-color="#7c7c7c" offset="1"/>
  </linearGradient>
  <linearGradient id="linearGradient18816" x1="294.51" x2="308.74" y1="114.56" y2="128" gradientTransform="translate(-300 -1)" gradientUnits="userSpaceOnUse" xlink:href="#linearGradient29336-6"/>
  <linearGradient id="linearGradient18818" x1="253.23" x2="266.63" y1="115.67" y2="128.57" gradientTransform="translate(-300 -1)" gradientUnits="userSpaceOnUse" xlink:href="#linearGradient29336-6"/>
  <linearGradient id="linearGradient18820" x1="164.05" x2="169.88" y1="132.06" y2="142.49" gradientTransform="translate(-50 -58.362)" gradientUnits="userSpaceOnUse">
   <stop stop-color="#757574" stop-opacity="0" offset="0"/>
   <stop stop-color="#757574" offset=".26291"/>
   <stop stop-color="#757574" offset=".5"/>
   <stop stop-color="#757574" stop-opacity="0" offset="1"/>
  </linearGradient>
  <radialGradient id="radialGradient18822" cx="294.48" cy="193.1" r="31.111" gradientTransform="matrix(.93619 -.3864 .27133 .65739 -244.48 146.72)" gradientUnits="userSpaceOnUse" xlink:href="#linearGradient28469-0"/>
  <linearGradient id="linearGradient18824" x1="256.86" x2="313.34" y1="158.31" y2="157.87" gradientTransform="translate(-210)" gradientUnits="userSpaceOnUse">
   <stop stop-color="#ad780a" offset="0"/>
   <stop stop-color="#d89e08" offset=".11973"/>
   <stop stop-color="#edb80b" offset=".25514"/>
   <stop stop-color="#ebc80d" offset=".39194"/>
   <stop stop-color="#f5d838" offset=".52741"/>
   <stop stop-color="#f6d811" offset=".76907"/>
   <stop stop-color="#f5cd31" offset="1"/>
  </linearGradient>
  <radialGradient id="radialGradient18826" cx="77.672" cy="147.09" r="3.2301" gradientTransform="matrix(1 0 0 .58333 60 3.054)" gradientUnits="userSpaceOnUse" xlink:href="#linearGradient29529-6"/>
  <radialGradient id="radialGradient18828" cx="63.125" cy="147.44" r="1.535" gradientTransform="matrix(1 0 0 1.0751 60 -69.456)" gradientUnits="userSpaceOnUse" xlink:href="#linearGradient29529-6"/>
  <linearGradient id="linearGradient18830" x1="243.03" x2="243.47" y1="157.02" y2="159.77" gradientUnits="userSpaceOnUse">
   <stop stop-color="#f5ce2d" offset="0"/>
   <stop stop-color="#d79b08" offset="1"/>
  </linearGradient>
  <radialGradient id="radialGradient18832" cx="268.07" cy="126.53" r="35.511" gradientTransform="matrix(.20141 -.033161 .03065 .18616 -3.1264 114.04)" gradientUnits="userSpaceOnUse">
   <stop stop-color="#c8c8c8" offset="0"/>
   <stop stop-color="#797978" offset="1"/>
  </radialGradient>
  <radialGradient id="radialGradient18834" cx="336.22" cy="220.54" r="27.391" gradientTransform="matrix(-.69844 0 0 .76336 166.31 50.22)" gradientUnits="userSpaceOnUse" xlink:href="#linearGradient4417-0"/>
  <radialGradient id="radialGradient18836" cx="312.15" cy="236.37" r="27.391" gradientTransform="matrix(1 0 0 .76336 -150 -8.1422)" gradientUnits="userSpaceOnUse" xlink:href="#linearGradient4417-0"/>
  <radialGradient id="radialGradient18838" cx="275.55" cy="225.13" r="10.845" gradientTransform="matrix(1 0 0 1.0692 -150 -73.222)" gradientUnits="userSpaceOnUse" xlink:href="#linearGradient4417-0"/>
  <linearGradient id="linearGradient18840" x1="338.29" x2="341.98" y1="323.9" y2="351.49" gradientTransform="translate(-310)" gradientUnits="userSpaceOnUse">
   <stop offset="0"/>
   <stop stop-opacity="0" offset="1"/>
  </linearGradient>
  <linearGradient id="linearGradient18842" x1="442.04" x2="490.12" y1="371.54" y2="293.59" gradientTransform="translate(-250 -58.362)" gradientUnits="userSpaceOnUse" xlink:href="#linearGradient14392-8"/>
  <linearGradient id="linearGradient18844" x1="355.16" x2="353.75" y1="289.59" y2="302.32" gradientTransform="translate(-150 -60.362)" gradientUnits="userSpaceOnUse">
   <stop stop-color="#f3cd0c" offset="0"/>
   <stop stop-color="#f3cd0c" stop-opacity="0" offset="1"/>
  </linearGradient>
  <radialGradient id="radialGradient18846" cx="363.34" cy="303.42" r="16.846" gradientTransform="matrix(1.3082 .35053 -.36795 1.3732 -150.51 -298.71)" gradientUnits="userSpaceOnUse" xlink:href="#linearGradient14518-6"/>
  <radialGradient id="radialGradient18848" cx="363.34" cy="303.42" r="16.846" gradientTransform="matrix(1.3082 .35053 -.36795 1.3732 -310.51 -240.35)" gradientUnits="userSpaceOnUse" xlink:href="#linearGradient14518-6"/>
  <radialGradient id="radialGradient18850" cx="382.23" cy="246.86" r="20.538" gradientTransform="matrix(.36025 .1568 -.072468 .16649 260.62 181.94)" gradientUnits="userSpaceOnUse" xlink:href="#linearGradient14830-4"/>
  <linearGradient id="linearGradient18852" x1="358.5" x2="361.5" y1="279.36" y2="279.24" gradientUnits="userSpaceOnUse" xlink:href="#linearGradient14830-4"/>
  <linearGradient id="linearGradient18854" x1="123.13" x2="170.86" y1="301.54" y2="381.62" gradientTransform="translate(-80 -58.362)" gradientUnits="userSpaceOnUse" xlink:href="#linearGradient14132-6"/>
  <linearGradient id="linearGradient18856" x1="171.57" x2="186.6" y1="323.99" y2="352.28" gradientTransform="translate(-80.53 -60.13)" gradientUnits="userSpaceOnUse">
   <stop stop-color="#ebc40c" offset="0"/>
   <stop stop-color="#ebc40c" stop-opacity="0" offset="1"/>
  </linearGradient>
  <clipPath id="clipPath391">
   <path transform="matrix(1 0 0 1.0183 0 -4.0313)" d="m137.58 281.02c1.5993-0.66295 3.3982-0.78361 5.1007-0.46963 1.7025 0.31398 3.3114 1.0495 4.7434 2.0224 2.864 1.9458 4.9882 4.7777 7.0226 7.5795 4.6719 6.4341 9.1687 13.002 13.245 19.829 3.3064 5.5377 6.3435 11.257 10.164 16.453 2.494 3.3919 5.3066 6.5395 7.813 9.9222 2.5064 3.3827 4.7279 7.0559 5.8393 11.117 1.4441 5.2765 0.88463 11.093-1.6267 15.953-1.7666 3.419-4.4765 6.3523-7.7724 8.339-3.296 1.9867-7.1706 3.0144-11.016 2.8702-6.1141-0.2293-11.699-3.2852-17.384-5.5491-11.581-4.6125-24.16-6.0594-36.097-9.6517-3.6686-1.104-7.2758-2.4107-10.97-3.4263-1.6412-0.45122-3.3087-0.8482-4.8588-1.5514-1.5501-0.70325-2.9995-1.7491-3.8617-3.2168-0.66639-1.1344-0.94839-2.47-0.93019-3.7855 0.0182-1.3155 0.32589-2.6145 0.77382-3.8516 0.89585-2.4741 2.3433-4.7137 3.3202-7.157 1.5951-3.9894 1.8817-8.3884 1.6666-12.679-0.21511-4.291-0.91078-8.5448-1.2045-12.831-0.13118-1.9141-0.18066-3.8526 0.18479-5.736 0.36545-1.8834 1.1758-3.7246 2.5577-5.0554 1.2741-1.2269 2.9649-1.9553 4.6964-2.3165s3.5153-0.37747 5.2837-0.33762c1.7683 0.0399 3.5407 0.13425 5.3035-0.0106 1.7628-0.14488 3.5335-0.54055 5.0691-1.4183 1.46-0.83447 2.6543-2.0745 3.6437-3.4342 0.9894-1.3597 1.7891-2.8457 2.6089-4.314 0.81983-1.4682 1.6683-2.9315 2.7416-4.2261 1.0732-1.2946 2.3892-2.423 3.9427-3.067" fill="url(#linearGradient395)"/>
  </clipPath>
  <linearGradient id="linearGradient395" x1="123.13" x2="170.86" y1="301.54" y2="381.62" gradientUnits="userSpaceOnUse" xlink:href="#linearGradient14132-6"/>
  <clipPath id="clipPath401">
   <path transform="translate(-240 -1)" d="m137.58 281.02c1.5993-0.66295 3.3982-0.78361 5.1007-0.46963 1.7025 0.31398 3.3114 1.0495 4.7434 2.0224 2.864 1.9458 4.9882 4.7777 7.0226 7.5795 4.6719 6.4341 9.1687 13.002 13.245 19.829 3.3064 5.5377 6.3435 11.257 10.164 16.453 2.494 3.3919 5.3066 6.5395 7.813 9.9222 2.5064 3.3827 4.7279 7.0559 5.8393 11.117 1.4441 5.2765 0.88463 11.093-1.6267 15.953-1.7666 3.419-4.4765 6.3523-7.7724 8.339-3.296 1.9867-7.1706 3.0144-11.016 2.8702-6.1141-0.2293-11.699-3.2852-17.384-5.5491-11.581-4.6125-24.16-6.0594-36.097-9.6517-3.6686-1.104-7.2758-2.4107-10.97-3.4263-1.6412-0.45122-3.3087-0.8482-4.8588-1.5514-1.5501-0.70325-2.9995-1.7491-3.8617-3.2168-0.66639-1.1344-0.94839-2.47-0.93019-3.7855 0.0182-1.3155 0.32589-2.6145 0.77382-3.8516 0.89585-2.4741 2.3433-4.7137 3.3202-7.157 1.5951-3.9894 1.8817-8.3884 1.6666-12.679-0.21511-4.291-0.91078-8.5448-1.2045-12.831-0.13118-1.9141-0.18066-3.8526 0.18479-5.736 0.36545-1.8834 1.1758-3.7246 2.5577-5.0554 1.2741-1.2269 2.9649-1.9553 4.6964-2.3165s3.5153-0.37747 5.2837-0.33762c1.7683 0.0399 3.5407 0.13425 5.3035-0.0106 1.7628-0.14488 3.5335-0.54055 5.0691-1.4183 1.46-0.83447 2.6543-2.0745 3.6437-3.4342 0.9894-1.3597 1.7891-2.8457 2.6089-4.314 0.81983-1.4682 1.6683-2.9315 2.7416-4.2261 1.0732-1.2946 2.3892-2.423 3.9427-3.067" fill="url(#linearGradient395)"/>
  </clipPath>
  <clipPath id="clipPath419">
   <path d="m513.19 336.61c-2.6238 3.1148-6.268 5.1704-9.8965 7.0198-6.1886 3.1544-12.602 5.9218-18.42 9.7165-3.898 2.5425-7.4959 5.5267-10.86 8.7424-2.8772 2.7501-5.6058 5.6874-8.8325 8.0177-3.2557 2.3512-7.0192 4.0543-10.991 4.6502-4.8303 0.72481-9.8213-0.21289-14.299-2.1642-3.1375-1.3673-6.1557-3.3229-7.963-6.2293-1.8142-2.9175-2.2281-6.4881-2.2327-9.9238-8e-3 -6.0767 1.1182-12.09 2.1785-18.073 0.88097-4.9718 1.7195-9.9548 2.2601-14.975 0.98337-9.1312 0.9763-18.353 0.3199-27.513-0.10993-1.5342-0.23754-3.0832-8e-3 -4.6041 0.22922-1.5209 0.85475-3.0367 2.0207-4.0399 1.077-0.9266 2.5209-1.336 3.9395-1.4145 1.4185-0.0785 2.834 0.14655 4.2398 0.35197 3.3125 0.48405 6.6516 0.8649 9.8892 1.7166 2.0428 0.53738 4.0332 1.2592 6.0722 1.8108 3.4026 0.92039 6.9664 1.3614 10.467 0.95192 3.7692-0.44089 7.4299-1.8568 11.224-1.7647 1.5566 0.0378 3.1015 0.33171 4.5865 0.79985 1.5154 0.47772 3.0091 1.1618 4.1228 2.2951 0.84639 0.8613 1.4358 1.9454 1.8787 3.0688 0.65982 1.6735 1.0149 3.457 1.167 5.2494 0.13475 1.5879 0.11343 3.1944 0.41433 4.7593 0.49503 2.5746 1.8475 4.923 3.5285 6.9349s3.6898 3.7205 5.6964 5.4078c1.9991 1.681 4.0106 3.3547 6.1671 4.8284 1.0121 0.69165 2.0564 1.3395 3.0174 2.1006s1.8447 1.6468 2.4454 2.7154c0.81492 1.4494 1.0638 3.2077 0.53758 4.8766-0.5262 1.6688-1.4816 3.2766-2.6706 4.6881z" fill="url(#linearGradient423)"/>
  </clipPath>
  <linearGradient id="linearGradient423" x1="442.04" x2="490.12" y1="371.54" y2="293.59" gradientTransform="translate(-250 -58.362)" gradientUnits="userSpaceOnUse" xlink:href="#linearGradient14392-8"/>
  <clipPath id="clipPath426">
   <path d="m509.36 335.74c-2.2956 2.5276-5.4839 4.1957-8.6585 5.6965-5.4145 2.5597-11.025 4.8054-16.116 7.8848-3.4104 2.0632-6.5582 4.4849-9.5017 7.0943-2.5173 2.2317-4.9046 4.6153-7.7276 6.5063-2.8484 1.908-6.1411 3.29-9.6158 3.7736-4.2261 0.58818-8.5928-0.17275-12.51-1.7562-2.7451-1.1095-5.3857-2.6965-6.9669-5.055-1.5873-2.3676-1.9494-5.265-1.9534-8.053-7e-3 -4.9311 0.97837-9.8109 1.906-14.666 0.77077-4.0345 1.5044-8.0782 1.9774-12.152 0.86036-7.4098 0.85417-14.893 0.27988-22.327-0.0962-1.245-0.20783-2.502-7e-3 -3.7362 0.20055-1.2342 0.74783-2.4642 1.7679-3.2783 0.94224-0.75193 2.2056-1.0841 3.4467-1.1478 1.2411-0.0637 2.4795 0.11892 3.7095 0.28562 2.8982 0.3928 5.8196 0.70185 8.6522 1.393 1.7873 0.43608 3.5286 1.0219 5.3126 1.4694 2.977 0.74689 6.095 1.1048 9.158 0.77247 3.2977-0.35777 6.5005-1.5068 9.8197-1.4321 1.3619 0.0307 2.7135 0.26918 4.0128 0.64907 1.3258 0.38766 2.6327 0.9428 3.6071 1.8625 0.74051 0.69893 1.2562 1.5787 1.6437 2.4903 0.57728 1.358 0.88797 2.8053 1.021 4.2599 0.11789 1.2885 0.0992 2.5922 0.3625 3.8621 0.43311 2.0892 1.6164 3.995 3.0871 5.6276 1.4707 1.6326 3.2283 3.0191 4.9839 4.3884 1.749 1.3641 3.5089 2.7223 5.3956 3.9182 0.8855 0.56126 1.7992 1.087 2.6399 1.7046 0.84074 0.61765 1.6139 1.3364 2.1395 2.2035 0.71298 1.1762 0.93071 2.603 0.47034 3.9573-0.46038 1.3542-1.2963 2.6589-2.3365 3.8043z" fill="url(#linearGradient430)" stroke-width=".8426"/>
  </clipPath>
  <linearGradient id="linearGradient430" x1="442.04" x2="490.12" y1="371.54" y2="293.59" gradientTransform="matrix(.87491 0 0 .81149 -158.36 15.227)" gradientUnits="userSpaceOnUse" xlink:href="#linearGradient14392-8"/>
  <clipPath id="clipPath433">
   <path d="m263.19 278.25c-2.6238 3.1148-6.268 5.1704-9.8965 7.0198-6.1886 3.1544-12.602 5.9218-18.42 9.7165-3.898 2.5425-7.4959 5.5267-10.86 8.7424-2.8772 2.7501-5.6058 5.6874-8.8325 8.0177-3.2557 2.3512-7.0192 4.0543-10.991 4.6502-4.8303 0.72481-9.8213-0.21289-14.299-2.1642-3.1375-1.3673-6.1557-3.3229-7.963-6.2293-1.8142-2.9175-2.2281-6.4881-2.2327-9.9238-8e-3 -6.0767 1.1182-12.09 2.1785-18.073 0.88097-4.9718 1.7195-9.9548 2.2601-14.975 0.98337-9.1312 0.9763-18.353 0.3199-27.513-0.10993-1.5342-0.23754-3.0832-8e-3 -4.6041 0.22922-1.5209 0.85475-3.0367 2.0207-4.0399 1.077-0.9266 2.5209-1.336 3.9395-1.4145 1.4185-0.0785 2.834 0.14655 4.2398 0.35197 3.3125 0.48405 6.6516 0.8649 9.8892 1.7166 2.0428 0.53738 4.0332 1.2592 6.0722 1.8108 3.4026 0.92039 6.9664 1.3614 10.467 0.95192 3.7692-0.44089 7.4299-1.8568 11.224-1.7647 1.5566 0.0378 3.1015 0.33171 4.5865 0.79985 1.5154 0.47772 3.0091 1.1618 4.1228 2.2951 0.84639 0.8613 1.4358 1.9454 1.8787 3.0688 0.65982 1.6735 1.0149 3.457 1.167 5.2494 0.13475 1.5879 0.11343 3.1944 0.41433 4.7593 0.49503 2.5746 1.8475 4.923 3.5285 6.9349s3.6898 3.7205 5.6964 5.4078c1.9991 1.681 4.0106 3.3547 6.1671 4.8284 1.0121 0.69165 2.0564 1.3395 3.0174 2.1006s1.8447 1.6468 2.4454 2.7154c0.81492 1.4494 1.0638 3.2077 0.53758 4.8766-0.5262 1.6688-1.4816 3.2766-2.6706 4.6881z" fill="url(#linearGradient437)"/>
  </clipPath>
  <linearGradient id="linearGradient437" x1="442.04" x2="490.12" y1="371.54" y2="293.59" gradientTransform="translate(-500 -116.72)" gradientUnits="userSpaceOnUse" xlink:href="#linearGradient14392-8"/>
  <clipPath id="clipPath504">
   <path d="m304.85 225.45c5.9768 4.8946 9.769 12.286 10.943 20.003 0.91574 6.0186 0.32054 12.195-1.0124 18.132-1.3329 5.9373-3.3909 11.676-5.4335 17.401-0.81452 2.2827-1.6327 4.5871-1.9563 6.9933-0.32365 2.4062-0.1187 4.9543 1.0211 7.0878 1.3066 2.4458 3.7453 4.1302 6.3668 4.9229 2.5882 0.78263 5.3837 0.76618 8.0035 0.10153 2.6198-0.66466 5.0658-1.9634 7.1983-3.6493 5.4176-4.2831 8.6866-10.949 9.952-17.812 1.2654-6.8634 0.68401-13.95-0.49258-20.83-1.6044-9.3814-4.3039-18.551-7.74-27.408-2.5275-6.5147-5.7653-12.742-9.6175-18.52-3.7793-5.6684-9.1416-10.093-13.103-15.635-1.3764-1.9255-3.0319-3.9316-4.3842-5.8784-2.9158-4.1977-2.2554-3.4145-4.0642-6.1316-1.3124-1.9713-3.3845-2.6487-5.5649-3.511-2.1804-0.86226-4.629-1.1162-6.8806-0.47108-2.9678 0.85034-5.3923 3.2311-6.6822 6.0821s-1.5154 6.1231-1.0136 9.2201c0.64739 3.9954 2.4422 7.7026 4.4657 11.189 2.2854 3.9372 4.9328 7.7271 8.3844 10.654 3.602 3.0546 7.9577 5.0688 11.611 8.0602" fill="#020204" stroke-width=".99108"/>
  </clipPath>
  <clipPath id="clipPath508">
   <path d="m240.47 195.04c-7.0731 8.0369-14.352 15.816-18.346 24.505-1.9762 4.4133-2.9108 9.2072-4.265 13.849-1.5379 5.2718-3.6261 10.37-5.9707 15.336-2.165 4.5853-4.5498 9.0629-6.9389 13.536-1.7382 3.2541-3.5051 6.581-4.1078 10.221-0.47628 2.8763-0.1985 5.8442 0.53375 8.6663 0.73225 2.822 1.9096 5.5106 3.2378 8.106 5.6672 11.075 14.17 20.622 24.242 27.925 4.5706 3.3142 9.4667 6.1811 14.602 8.526 2.7825 1.2704 5.7136 2.4044 8.7719 2.4574 1.5292 0.0265 3.0741-0.22544 4.4743-0.84055 1.4002-0.6151 2.6507-1.6037 3.4825-2.8871 1.0228-1.5779 1.3699-3.5383 1.1646-5.4074-0.2053-1.8691-0.93484-3.6529-1.9132-5.2587-2.39-3.9225-6.1652-6.7606-9.7964-9.5734-7.8406-6.0736-15.425-12.48-22.682-19.24-2.0491-1.9085-4.0984-3.8776-5.5302-6.2841-1.3943-2.3435-2.1476-5.0138-2.6578-7.6925-1.3997-7.3487-1.0409-15.083 1.4596-22.133 0.97822-2.7583 2.2712-5.392 3.5182-8.0396 2.1613-4.5891 4.2072-9.2656 7.0493-13.467 3.538-5.2304 8.2675-9.6605 11.151-15.278 2.4342-4.7415 3.4199-10.072 4.3618-15.318 0.73693-4.1043 2.1504-8.1244 2.8692-12.232-1.4061 2.6657-5.938 7.0428-8.7107 10.525z" fill="#020204"/>
  </clipPath>
  <clipPath id="clipPath533">
   <path d="m386.19 285.33c-0.40516-1.1037-1.1184-2.0816-1.9907-2.8699-0.87226-0.78832-1.9005-1.3923-2.9828-1.8516-2.1646-0.91852-4.5205-1.2615-6.8315-1.6956-2.1792-0.40931-4.3418-0.90631-6.5278-1.2773-2.2714-0.38551-4.6179-0.63213-6.8653-0.1253-1.9658 0.44333-3.7845 1.4588-5.2717 2.8186-1.4872 1.3598-2.6491 3.0564-3.485 4.8901-1.4722 3.2295-1.9345 6.865-1.6539 10.403 0.20881 2.6332 0.87532 5.3459 2.6088 7.3391 1.4006 1.6105 3.3873 2.6153 5.434 3.2209 3.525 1.0432 7.3666 0.98822 10.86-0.1553 5.7669-1.9311 10.876-5.7739 14.33-10.779 1.1386-1.6496 2.1122-3.4481 2.5532-5.4034 0.33597-1.4896 0.34831-3.0811-0.1779-4.5146" fill="#020204"/>
  </clipPath>
  <clipPath id="clipPath538">
   <path d="m386.19 285.33c-0.40516-1.1037-1.1184-2.0816-1.9907-2.8699-0.87226-0.78832-1.9005-1.3923-2.9828-1.8516-2.1646-0.91852-4.5205-1.2615-6.8315-1.6956-2.1792-0.40931-4.3418-0.90631-6.5278-1.2773-2.2714-0.38551-4.6179-0.63213-6.8653-0.1253-1.9658 0.44333-3.7845 1.4588-5.2717 2.8186-1.4872 1.3598-2.6491 3.0564-3.485 4.8901-1.4722 3.2295-1.9345 6.865-1.6539 10.403 0.20881 2.6332 0.87532 5.3459 2.6088 7.3391 1.4006 1.6105 3.3873 2.6153 5.434 3.2209 3.525 1.0432 7.3666 0.98822 10.86-0.1553 5.7669-1.9311 10.876-5.7739 14.33-10.779 1.1386-1.6496 2.1122-3.4481 2.5532-5.4034 0.33597-1.4896 0.34831-3.0811-0.1779-4.5146" fill="#020204"/>
  </clipPath>
  <clipPath id="clipPath622">
   <path d="m85.75 122.36c-2.7804 1.9102-5.1106 4.5749-6.25 7.75-1.436 4.0016-0.88584 8.4807 0.5 12.5 1.4195 4.1169 3.7938 8.041 7.3793 10.512 1.7928 1.2357 3.8681 2.083 6.0304 2.3386s4.4093-0.0949 6.3403-1.1009c2.3531-1.226 4.1478-3.3728 5.2622-5.7808 1.1144-2.408 1.5888-5.0701 1.7378-7.7192 0.18989-3.3755-0.14047-6.8065-1.25-10-1.2053-3.4691-3.39-6.6706-6.4728-8.6666-1.5414-0.99803-3.292-1.6836-5.1109-1.9352-1.8189-0.25158-3.7048-0.0633-5.4164 0.60175-0.97547 0.37901-1.8874 0.9074-2.75 1.5" fill="url(#radialGradient626)"/>
  </clipPath>
  <radialGradient id="radialGradient626" cx="223.2" cy="137.66" r="14.572" gradientTransform="matrix(1.0858 -.034312 .039438 1.248 -15.542 -75.905)" gradientUnits="userSpaceOnUse" xlink:href="#linearGradient28799-3"/>
  <clipPath id="clipPath631">
   <path d="m54.232 122.36c-1.781 0.097-3.4846 0.91899-4.7878 2.1367-1.3032 1.2177-2.2214 2.8118-2.7862 4.5036-1.1296 3.3836-0.87548 7.0518-0.6187 10.61 0.23251 3.2216 0.47041 6.5053 1.6768 9.5016 0.60319 1.4981 1.4502 2.9102 2.5803 4.064 1.1301 1.1537 2.5517 2.0419 4.1183 2.4345 1.4688 0.36809 3.0382 0.29183 4.4828-0.16209 1.4446-0.45392 2.7639-1.2789 3.8462-2.3379 1.579-1.5451 2.6433-3.5662 3.2534-5.6895 0.61019-2.1233 0.78416-4.3516 0.7524-6.5605-0.0397-2.7644-0.40091-5.5385-1.2658-8.1644-0.86485-2.6259-2.2458-5.1033-4.1728-7.0856-0.93331-0.96009-1.9978-1.8051-3.1986-2.3975-1.2008-0.59233-2.5434-0.92535-3.8804-0.85253" fill="url(#radialGradient635)"/>
  </clipPath>
  <radialGradient id="radialGradient635" cx="223.2" cy="137.66" r="14.572" gradientTransform="matrix(.81524 -.034312 .029611 1.248 9.5624 -75.905)" gradientUnits="userSpaceOnUse" xlink:href="#linearGradient28799-3"/>
  <clipPath id="clipPath697">
   <path d="m214.64 148.04c-2.5103-0.0409-4.9914 0.28921-7.2715 0.88384-4.0525 1.0569-7.5737 2.9393-10.085 5.3932-1.6281 0.85539-3.05 1.8992-4.2072 3.0864-0.66186 0.67901-1.2439 1.4169-1.5013 2.2476-0.20244 0.65333-0.19857 1.3447-0.28524 2.0199-0.0324 0.25293-0.0778 0.5073-0.0362 0.76548 0.0208 0.12909 0.0631 0.25809 0.13756 0.38081 0.0221 0.0364 0.0528 0.0707 0.0806 0.1055 0.0825 0.15031 0.18297 0.29681 0.31473 0.43099 0.28806 0.29334 0.68023 0.53107 1.0942 0.73203 0.41394 0.20097 0.85255 0.36757 1.2815 0.54936 2.2801 0.96628 4.2277 2.3246 5.9925 3.7592 2.3677 1.9248 4.5294 4.061 7.5099 5.46 2.1046 0.98794 4.5277 1.552 6.926 1.724 2.8164 0.20193 5.5852-0.12293 8.1817-0.69344 2.4063-0.52873 4.6967-1.2713 6.752-2.254 3.907-1.868 6.987-4.6063 11.424-5.8344 0.96876-0.2681 1.9904-0.45921 2.9132-0.78993s1.763-0.8265 2.1195-1.5271c0.34261-0.67347 0.2049-1.4503 0.23569-2.1897 0.0329-0.791 0.26357-1.5559 0.33312-2.3428 0.0695-0.78687-0.0382-1.6289-0.62199-2.3518-0.12955-0.16043-0.28324-0.31001-0.45163-0.45157-0.0509-0.29235-0.22134-0.58029-0.46622-0.83239-0.50487-0.51975-1.2933-0.87172-2.0952-1.1167-1.0982-0.33555-2.256-0.50211-3.3989-0.69601-3.5109-0.59565-6.9696-1.4754-10.295-2.6039-1.653-0.56104-3.2707-1.1833-4.9042-1.7793-1.6793-0.61273-3.3867-1.201-5.1652-1.5773-1.4911-0.31546-3.0064-0.47332-4.5126-0.49788z" fill="url(#radialGradient701)" stroke-width=".77538"/>
  </clipPath>
  <radialGradient id="radialGradient701" cx="294.48" cy="193.1" r="31.111" gradientTransform="matrix(.81495 -.25453 .31491 .43302 -75.371 150.74)" gradientUnits="userSpaceOnUse" xlink:href="#linearGradient28469-0"/>
  <clipPath id="clipPath816">
   <path d="m-26.296 154.81c-1.0464 1.3114-1.7277 2.8873-2.1393 4.5137-0.41153 1.6264-0.56228 3.308-0.62653 4.9845-0.12849 3.3529 0.0765 6.7702-0.81096 10.006-0.94874 3.4595-3.076 6.4565-5.1576 9.378-3.6048 5.0592-7.2485 10.25-9.0271 16.202-1.0771 3.6047-1.4356 7.4226-1.0484 11.165-4.0353 5.9262-7.5289 12.221-10.423 18.781-4.3862 9.9416-7.3961 20.526-8.4546 31.341-1.2961 13.242 0.39758 26.862 5.6275 39.097 3.7813 8.8459 9.4177 16.944 16.686 23.247 3.6954 3.2047 7.7997 5.9394 12.189 8.0971 15.213 7.4771 34.013 7.491 48.973-0.48031 7.8184-4.1661 14.418-10.258 20.781-16.422 3.8318-3.7121 7.6435-7.5125 10.567-11.976 5.6275-8.5924 7.5875-19.036 8.8054-29.234 2.1297-17.833 2.1984-36.67-5.6214-52.838-2.6922-5.5664-6.279-10.699-10.581-15.141-1.1455-7.7809-3.4064-15.397-6.6921-22.542-2.3704-5.155-5.2683-10.062-7.4708-15.291-0.90422-2.1467-1.69-4.3449-2.6935-6.447-1.0035-2.1021-2.2414-4.125-3.9245-5.7354-1.7234-1.6491-3.871-2.8182-6.1359-3.5663-2.265-0.74806-4.6492-1.087-7.0315-1.2068-4.7646-0.23966-9.5387 0.38348-14.306 0.19423-3.7948-0.15066-7.5778-0.81566-11.369-0.59186-1.8956 0.1119-3.7909 0.45058-5.5503 1.1649-1.7594 0.71432-3.3817 1.8171-4.5661 3.3014" fill="#fdfdfb"/>
  </clipPath>
  <clipPath id="clipPath820">
   <path d="m-47.296 161.44c-1.0464 1.4237-1.7277 3.1346-2.1393 4.9003-0.41153 1.7657-0.56228 3.5913-0.62653 5.4114-0.12849 3.6401 0.0765 7.35-0.81096 10.863-0.94874 3.7558-3.076 7.0095-5.1576 10.181-3.6048 5.4925-7.2485 11.128-9.0271 17.59-1.0771 3.9134-1.4356 8.0583-1.0484 12.121-4.0353 6.4338-7.5289 13.268-10.423 20.389-4.3862 10.793-7.3961 22.285-8.4546 34.025-1.2961 14.377 0.39758 29.163 5.6275 42.445 3.7813 9.6036 9.4177 18.395 16.686 25.238 3.6954 3.4792 7.7997 6.4482 12.189 8.7906 15.213 8.1176 34.013 8.1326 48.973-0.52145 7.8184-4.5229 14.418-11.137 20.781-17.829 3.8318-4.03 7.6435-8.156 10.567-13.001 5.6275-9.3283 7.5875-20.666 8.8054-31.738 2.1297-19.361 2.1984-39.811-5.6214-57.364-2.6922-6.0431-6.279-11.615-10.581-16.437-1.1455-8.4473-3.4064-16.715-6.6921-24.473-2.3704-5.5966-5.2683-10.924-7.4708-16.601-0.90422-2.3306-1.69-4.717-2.6935-6.9992-1.0035-2.2822-2.2414-4.4783-3.9245-6.2266-1.7234-1.7904-3.871-3.0596-6.1359-3.8718-2.265-0.81213-4.6492-1.1801-7.0315-1.3102-4.7646-0.26019-9.5387 0.41632-14.306 0.21086-3.7948-0.16356-7.5778-0.88552-11.369-0.64255-1.8956 0.12148-3.7909 0.48917-5.5503 1.2647-1.7594 0.77551-3.3817 1.9728-4.5661 3.5842" fill="#fdfdfb" stroke-width="1.042"/>
  </clipPath>
 </defs>
 <metadata>
  <rdf:RDF>
   <cc:Work rdf:about="">
    <dc:format>image/svg+xml</dc:format>
    <dc:type rdf:resource="http://purl.org/dc/dcmitype/StillImage"/>
    <dc:title>Tux</dc:title>
    <dc:date>20 June 2012</dc:date>
    <dc:creator>
     <cc:Agent>
      <dc:title>Garrett LeSage</dc:title>
     </cc:Agent>
    </dc:creator>
    <cc:license rdf:resource="http://creativecommons.org/publicdomain/zero/1.0/"/>
    <dc:contributor>
     <cc:Agent>
      <dc:title>Larry Ewing, the creator of the original Tux graphic</dc:title>
     </cc:Agent>
    </dc:contributor>
    <dc:subject>
     <rdf:Bag>
      <rdf:li>tux</rdf:li>
      <rdf:li>Linux</rdf:li>
      <rdf:li>penguin</rdf:li>
      <rdf:li>logo</rdf:li>
     </rdf:Bag>
    </dc:subject>
    <dc:rights>
     <cc:Agent>
      <dc:title>Larry Ewing, Garrett LeSage</dc:title>
     </cc:Agent>
    </dc:rights>
    <dc:source>https://github.com/garrett/Tux</dc:source>
   </cc:Work>
   <cc:License rdf:about="http://creativecommons.org/publicdomain/zero/1.0/">
    <cc:permits rdf:resource="http://creativecommons.org/ns#Reproduction"/>
    <cc:permits rdf:resource="http://creativecommons.org/ns#Distribution"/>
    <cc:permits rdf:resource="http://creativecommons.org/ns#DerivativeWorks"/>
   </cc:License>
  </rdf:RDF>
 </metadata>
 <g transform="matrix(.84158 0 0 .84158 8.8632 -16.474)">
  <path d="m140.81 19.578c-7.168-0.07795-14.424 1.3746-20.734 4.7754-6.7066 3.6143-12.201 9.3955-15.586 16.221-3.3835 6.822-4.7129 14.108-4.9141 22.133-0.38216 15.247 0.34393 31.239 1.4941 45.73 0.3054 4.4126 0.85369 6.995 0.29297 11.523-1.8865 9.6299-10.313 16.112-14.805 24.57-4.9547 9.3309-7.0434 19.881-10.783 29.762-3.4225 9.0424-8.2276 17.521-11.471 26.629-4.5349 12.736-5.8905 26.731-2.8945 39.914 2.2839 10.05 7.0546 19.473 13.484 27.533-0.9305 1.6769-1.8322 3.3716-2.793 5.0312-2.9795 5.1469-6.6196 10.027-8.3164 15.727-0.84842 2.85-1.1824 5.8898-0.63476 8.8125 0.54765 2.9227 2.0265 5.7186 4.3516 7.5723 1.522 1.2135 3.3574 1.9948 5.2539 2.4336 1.8965 0.43879 3.8566 0.54531 5.8027 0.50391 7.3946-0.15718 14.559-2.4052 21.713-4.2832 4.2395-1.1129 8.5104-2.101 12.803-2.9883 15.241-3.1221 32.25-1.8759 46.398 0.17579 4.792 0.72368 9.5498 1.671 14.26 2.8125 7.3771 1.7879 14.729 4.067 22.316 4.2832 1.9973 0.0569 4.0106-0.0306 5.9609-0.46484 1.9503-0.43429 3.8421-1.2269 5.4043-2.4727 2.3292-1.8575 3.8083-4.6574 4.3555-7.5859 0.54713-2.9285 0.20917-5.977-0.64843-8.8301-1.7152-5.7061-5.3887-10.575-8.4356-15.695-1.2022-2.0203-2.3202-4.0926-3.5137-6.1172 9.1687-10.296 16.548-22.203 20.816-35.281 4.6587-14.275 5.5143-29.646 3.5527-44.533-1.9615-14.888-6.6821-29.321-12.898-42.99-7.7977-17.138-14.353-23.331-19.104-38.381-5.1347-16.266-0.8948-35.514-4.7109-50.268-1.3618-5.0173-3.5328-9.8068-6.3262-14.191-3.2731-5.1375-7.4246-9.7424-12.357-13.316-7.8707-5.7025-17.615-8.6385-27.334-8.7441z" fill="#020204"/>
  <path d="m112.7 105.45c-1.0464 1.3114-1.7277 2.8873-2.1393 4.5137-0.41153 1.6264-0.56228 3.308-0.62653 4.9845-0.12849 3.3529 0.0765 6.7702-0.81096 10.006-0.94874 3.4595-3.076 6.4565-5.1576 9.378-3.6048 5.0592-7.2485 10.25-9.0271 16.202-1.0771 3.6047-1.4356 7.4226-1.0484 11.165-4.0353 5.9262-7.5289 12.221-10.423 18.781-4.3862 9.9416-7.3961 20.526-8.4546 31.341-1.2961 13.242 0.39758 26.862 5.6275 39.097 3.7813 8.8459 9.4177 16.944 16.686 23.247 3.6954 3.2047 7.7997 5.9394 12.189 8.0971 15.213 7.4771 34.013 7.491 48.973-0.48031 7.8184-4.1661 14.418-10.258 20.781-16.422 3.8318-3.7121 7.6435-7.5125 10.567-11.976 5.6275-8.5924 7.5875-19.036 8.8054-29.234 2.1297-17.833 2.1984-36.67-5.6214-52.838-2.6922-5.5664-6.279-10.699-10.581-15.141-1.1455-7.7809-3.4064-15.397-6.6921-22.542-2.3704-5.155-5.2683-10.062-7.4708-15.291-0.90422-2.1467-1.69-4.3449-2.6935-6.447-1.0035-2.1021-2.2414-4.125-3.9245-5.7354-1.7234-1.6491-3.871-2.8182-6.1359-3.5663-2.265-0.74806-4.6492-1.087-7.0315-1.2068-4.7646-0.23966-9.5387 0.38348-14.306 0.19423-3.7948-0.15066-7.5778-0.81566-11.369-0.59186-1.8956 0.1119-3.7909 0.45058-5.5503 1.1649-1.7594 0.71432-3.3817 1.8171-4.5661 3.3014" fill="#fdfdfb"/>
  <path transform="matrix(1.1543 0 0 1 166.33 -58.362)" d="m-61.003 211.59c0.88005 1.5239-0.54737 6.7783 19.964 3.4153 0 0-3.602 0.4573-7.1528 1.4042-5.5213 2.1334-10.33 4.5171-14.04 7.6752-3.6755 3.1217-6.3671 7.1969-9.7397 10.697 0 0 5.4617-11.519 6.8233-14.987 1.3616-3.4687-0.22795-3.31 0.84893-8.4136 1.0769-5.1036 3.7135-10.007 3.7135-10.007s-2.1524 7.2109-0.41678 10.216z" fill="url(#radialGradient18834)" filter="url(#filter4487-6)" opacity=".25"/>
  <path d="m172.05 151.86c-4.8251 3.3614-7.6524 2.9634-13.507 3.6209s-21.698 0.41943-21.698 0.41943 2.2937-0.0427 7.3776 0.90419c5.0839 0.94693 15.453 1.8523 21.292 4.0747s7.9685 2.8566 11.517 5.1006c5.0511 3.1939 8.7582 8.1969 13.587 11.697 0 0 0.23377-4.6437-1.7157-8.1124s-7.1904-8.935-8.7322-14.039c-1.5418-5.1036-2.2743-15.132-2.2743-15.132s-1.0211 8.1048-5.8462 11.466z" fill="url(#radialGradient18836)" filter="url(#filter4427-5-7)" opacity=".42"/>
  <path d="m126.67 144.68c-0.17937 1.4559-0.41189 2.9053-0.69695 4.3443-0.14052 0.70936-0.2949 1.4199-0.55905 2.0931-0.26414 0.67317-0.64419 1.3121-1.1812 1.7964-0.47071 0.42443-1.0444 0.71595-1.6207 0.97975-2.2483 1.0292-4.6544 1.7126-7.108 2.019 0.97993 0.0719 1.9586 0.16127 2.9353 0.2682 0.61534 0.0674 1.2321 0.14208 1.8317 0.29586 0.59961 0.15377 1.1847 0.38955 1.6842 0.75518 0.54781 0.40099 0.97799 0.94833 1.2993 1.5464 0.64023 1.1916 0.85435 2.5628 0.97272 3.9103 0.15139 1.7234 0.16244 3.459 0.033 5.1842 0.11585-1.1543 0.35775-2.2959 0.72-3.398 0.65284-1.9861 1.7042-3.8479 3.1197-5.3864 0.56171-0.6105 1.1804-1.1704 1.8588-1.6479 2.0782-1.4629 4.718-2.1055 7.2361-1.7613-2.559 0.11302-5.149-0.69089-7.1942-2.233-1.0416-0.78539-1.9488-1.7629-2.5798-2.9046-0.97579-1.7656-1.2501-3.9068-0.75097-5.8613" fill="url(#radialGradient18838)" filter="url(#filter4538-7)" opacity=".2"/>
  <path d="m120.5 178.72c-1.2295 4.6793-2.0752 9.4595-2.5257 14.277-0.63702 6.8122-0.48368 13.672-0.84934 20.505-0.31029 5.7975-0.99107 11.656 0.0159 17.374 0.48017 2.7266 1.3427 5.3855 2.5546 7.8747 0.19249-0.95006 0.33356-1.9105 0.42239-2.8758 0.42661-4.636-0.3541-9.2869-0.61781-13.935-0.46225-8.1474 0.66569-16.29 1.125-24.438 0.3526-6.2548 0.31082-12.532-0.125-18.781h-4e-5" filter="url(#filter4592-2)" opacity=".11"/>
  <g fill="#7c7c7c">
   <path transform="matrix(-.069919 .95701 -.56451 -.11853 236.57 -180.38)" d="m351.96 200.86c-1.4516 0.38883-1.2301 3.9942-0.29604 5.4979 0.78886 1.27 3.0724 2.2711 3.7585 1.005 1.1141-2.0556-1.4719-7.0361-3.4625-6.5029z" filter="url(#filter15211-9)" opacity=".25"/>
   <path transform="matrix(-.095961 -.95701 -.77476 .11853 398.9 493.24)" d="m361.75 209.34c2e-3 -1.5331-7.5647-10.056-9.7896-8.4864-2.2249 1.57-0.49172 3.7842-0.29604 5.4979 0.19568 1.7137-0.94537 6.6093 0.23849 7.2593s3.3661-2.5198 5.3011-4.277c1.5582-1.4149 4.544 1.5393 4.546 6e-3z" filter="url(#filter14706-3)" opacity=".75"/>
   <path transform="matrix(1.1522 0 0 1.1522 -163.03 -72.2)" d="m277.96 90.857c-2.2249 1.57-1.2529 3.5305-0.29604 5.4979s-2.1043 7.6397-2.1365 7.8843c-0.0322 0.24465 6.0253-2.8754 7.6761-4.902 1.9496-2.3934 6.877 3.2379 6.6085 2.3812 2e-3 -1.5331-9.6272-12.431-11.852-10.861z" filter="url(#filter15133-1)"/>
  </g>
  <path transform="translate(160 -57.362)" d="m16.687 165.86c-2.1622 1.9694 1.0136 4.9277 2.5197 8.4043 0.93626 2.1613 3.5268 5.2051 6.0324 4.7175 1.8848-0.36677 3.0543-3.0794 2.8759-4.9912-0.34416-3.6885-3.4567-4.5526-5.7172-5.8195-1.7914-1.004-4.1926-3.6939-5.7108-2.3111z" fill="#838384" filter="url(#filter15185-2)"/>
  <path transform="translate(139 -49.362)" d="m-28.632 172.6c1.7029 4.9378 5.1304 9.152 9.1858 12.444 1.3487 1.0946 2.7822 2.1044 4.3662 2.817 1.5841 0.71257 3.3316 1.1194 5.0624 0.97245 1.695-0.14396 3.3075-0.80936 4.7887-1.6458 1.4813-0.8364 2.856-1.8469 4.293-2.7572 2.4626-1.5602 5.0998-2.8214 7.6572-4.2209 3.0825-1.6869 6.0696-3.5901 8.6647-5.9593 1.1879-1.0845 2.2957-2.268 3.6075-3.1989 1.3118-0.93094 2.883-1.6057 4.4878-1.4965 1.2039 0.0819 2.3329 0.59386 3.5125 0.84794 0.58979 0.12704 1.2008 0.18932 1.7972 0.0984 0.59643-0.0909 1.1797-0.34439 1.5979-0.77928 0.51237-0.53286 0.73641-1.2998 0.70961-2.0386-0.0268-0.73874-0.28445-1.453-0.62885-2.1071-0.68881-1.3082-1.7345-2.4351-2.2002-3.8383-0.4144-1.2487-0.33045-2.5989-0.29393-3.914 0.03652-1.3151 0.0075-2.689-0.5986-3.8567-0.46159-0.88922-1.2361-1.5952-2.1216-2.0639-0.88551-0.46867-1.8786-0.71001-2.8761-0.80365-1.995-0.18727-3.9939 0.19997-5.9945 0.31349-2.6558 0.1507-5.322-0.18176-7.9772-0.0221-3.3113 0.1991-6.557 1.1605-9.8743 1.1664-3.786 7e-3 -7.5681-1.2319-11.308-0.63996-1.6046 0.25401-3.1348 0.8376-4.6757 1.3522-1.5409 0.5146-3.1327 0.96724-4.7571 0.94371-1.8442-0.0267-3.6293-0.66537-5.469-0.79666-0.91986-0.0656-1.8625-1.8e-4 -2.7261 0.32326-0.86362 0.32344-1.6445 0.92357-2.0683 1.7426-0.24287 0.46932-0.36319 0.99683-0.38586 1.5248-0.02266 0.52795 0.05026 1.057 0.17783 1.5698 0.25513 1.0256 0.72423 1.9828 1.1098 2.9669 1.3925 3.5537 1.6924 7.4481 2.9368 11.056" clip-path="url(#clipPath816)" fill-opacity=".25882" filter="url(#filter30479-2)"/>
  <path transform="matrix(1 0 0 .92111 160 -43.255)" d="m-54.381 165.47c3.3085 2.2189 6.2767 4.9441 8.7695 8.0515 2.3132 2.8836 4.2811 6.1543 7.2993 8.2889 2.1326 1.5082 4.6949 2.3578 7.2941 2.6161 3.0515 0.3032 6.1398-0.18685 9.0817-1.052 2.7266-0.80188 5.3632-1.9293 7.7822-3.4214 4.5982-2.8364 8.4392-6.9928 13.51-8.8571 1.107-0.407 2.2592-0.69817 3.3265-1.2002 1.0673-0.50208 2.0714-1.254 2.5811-2.3177 0.48998-1.0224 0.47096-2.2025 0.63053-3.325 0.17071-1.2008 0.55376-2.3618 0.76387-3.5564s0.23517-2.4723-0.2814-3.5698c-0.42777-0.90876-1.2054-1.6278-2.0999-2.0847-0.89449-0.45686-1.9011-0.6644-2.9043-0.71362-2.0064-0.0985-3.9875 0.41519-5.9881 0.59766-2.6496 0.24167-5.3179-0.0991-7.9772-0.019-3.3083 0.0996-6.5682 0.84884-9.8743 1.005-3.7717 0.17818-7.5341-0.41751-11.308-0.55139-1.6323-0.0579-3.2754-0.0286-4.8843 0.25254-1.6089 0.28112-3.1882 0.82168-4.5485 1.7256-1.32 0.87714-2.3967 2.0673-3.6066 3.091-0.60492 0.51187-1.2478 0.98508-1.9537 1.345s-1.4788 0.60451-2.2703 0.64257c-0.40728 0.0196-0.81834-0.0152-1.2213 0.0472-0.67617 0.10463-1.3037 0.49355-1.6983 1.0525-0.39458 0.55899-0.5509 1.2805-0.42305 1.9527v1e-5" clip-path="url(#clipPath820)" filter="url(#filter30475-4)" opacity=".3"/>
  <g fill="#020204">
   <path transform="translate(160 -57.362)" d="m45.101 224.45c6.0848 4.8946 9.9456 12.286 11.141 20.003 0.93229 6.0186 0.32634 12.195-1.0307 18.132-1.357 5.9373-3.4522 11.676-5.5317 17.401-0.82924 2.2827-1.6622 4.5871-1.9917 6.9933-0.3295 2.4062-0.12085 4.9543 1.0395 7.0878 1.3302 2.4458 3.813 4.1302 6.4818 4.9229 2.6349 0.78263 5.481 0.76618 8.1482 0.10153 2.6671-0.66466 7.1574-1.5259 9.3284-3.2118 5.5156-4.2831 6.8247-11.719 8.1319-18.25 1.3632-6.8103 0.69637-13.95-0.50149-20.83-1.6334-9.3814-4.3817-18.551-7.8799-27.408-2.5731-6.5147-5.8695-12.742-9.7914-18.52-3.8476-5.6684-9.3069-10.093-13.34-15.635-1.4013-1.9255-3.0867-3.9316-4.4634-5.8784-2.9685-4.1977-2.2962-3.4145-4.1377-6.1316-1.3361-1.9713-3.4457-2.6487-5.6655-3.511s-4.7127-1.1162-7.005-0.47108c-3.0214 0.85034-5.4898 3.2311-6.8029 6.0821-1.3131 2.851-1.5428 6.1231-1.0319 9.2201 0.6591 3.9954 2.4863 7.7026 4.5464 11.189 2.3267 3.9372 5.022 7.7271 8.536 10.654 3.6671 3.0546 8.1015 5.0688 11.82 8.0602"/>
   <path transform="translate(160 -57.362)" d="m-69.527 194.04c-7.0731 8.0369-14.352 15.816-18.346 24.505-1.9762 4.4133-2.9108 9.2072-4.265 13.849-1.5379 5.2718-3.6261 10.37-5.9707 15.336-2.165 4.5853-4.5498 9.0629-6.9389 13.536-1.7382 3.2541-3.5051 6.581-4.1078 10.221-0.47628 2.8763-0.1985 5.8442 0.53375 8.6663 0.73225 2.822 1.9096 5.5106 3.2378 8.106 5.6672 11.075 14.17 20.622 24.242 27.925 4.5706 3.3142 9.4667 6.1811 14.602 8.526 2.7825 1.2704 5.7136 2.4044 8.7719 2.4574 1.5292 0.0265 3.0741-0.22544 4.4743-0.84055 1.4002-0.6151 2.6507-1.6037 3.4825-2.8871 1.0228-1.5779 1.3699-3.5383 1.1646-5.4074s-0.93484-3.6529-1.9132-5.2587c-2.39-3.9225-6.1652-6.7606-9.7964-9.5734-7.8405-6.0736-15.425-12.48-22.682-19.24-2.0491-1.9085-4.0984-3.8776-5.5302-6.2841-1.3943-2.3435-2.1476-5.0138-2.6578-7.6925-1.3997-7.3487-1.0409-15.083 1.4596-22.133 0.97822-2.7583 2.2712-5.392 3.5182-8.0396 2.1613-4.5891 4.2072-9.2656 7.0493-13.467 3.538-5.2304 8.2675-9.6605 11.151-15.278 2.4342-4.7415 3.4199-10.072 4.3618-15.318 0.73693-4.1043 2.1504-8.1244 2.8692-12.232-1.4061 2.6657-5.938 7.0428-8.7107 10.525z"/>
  </g>
  <path transform="matrix(1.0181 0 0 1 -105.26 -58.362)" d="m290.78 216.02c0.48482 0.46774 0.98091 0.94261 1.5 1.375 3.6672 3.0546 5.6188 6.4853 9.3376 9.4767 6.0848 4.8946 12.259 13.344 13.454 21.061 0.93229 6.0186-0.30093 9.2895-1.8047 16.388-1.5037 7.0983-5.7694 17.148-8.0738 23.992-0.9189 2.7291 1.8612 1.6031 1.4961 4.4798-0.17944 1.4138-0.19766 2.8424-0.0346 4.2592 0.0227-0.27104 0.0388-0.5525 0.0693-0.82194 0.44281-3.9227 1.6233-7.6948 2.9088-11.395 2.4742-7.1221 5.3143-14.101 7.272-21.408 1.9576-7.3068 1.7403-12.564 0.71875-18.844-1.2846-7.8964-5.797-15.187-12.188-20-4.5185-3.4031-9.8469-5.5846-14.656-8.5625z" clip-path="url(#clipPath504)" fill="#838384" filter="url(#filter14666-9)"/>
  <path transform="translate(-150 -58.362)" d="m232.33 224.27c-2.3213 2.1375-4.3331 4.6105-5.9534 7.3182-2.668 4.4585-4.239 9.4684-6.1781 14.289-1.4436 3.5889-3.1252 7.1931-3.3266 11.056-0.10346 1.9842 0.19056 3.9659 0.25671 5.9516 0.0662 1.9858-0.11756 4.0511-1.0897 5.7839-0.81338 1.4499-2.1659 2.589-3.733 3.144 2.1155 0.70686 4.0045 2.0755 5.3353 3.8654 1.1145 1.499 1.8276 3.2537 2.7961 4.8509 0.78716 1.2982 1.7534 2.5012 2.9428 3.4446s2.6114 1.6197 4.1173 1.8129c2.0662 0.26508 4.2357-0.42815 5.7654-1.8422-1.9254-18.036-0.16195-36.457 5.1501-53.8 0.33544-1.0952 0.68725-2.1983 0.77034-3.3406 0.0831-1.1424-0.12896-2.3479-0.82414-3.2582-0.37014-0.48467-0.86838-0.87059-1.4302-1.1078-0.56182-0.2372-1.1859-0.32512-1.7914-0.25236-0.60549 0.0727-1.191 0.306-1.6806 0.66954-0.48964 0.36355-0.88227 0.85651-1.1271 1.4151h-2e-5" clip-path="url(#clipPath508)" fill="#7c7c7c" filter="url(#filter15053-7)" opacity=".95"/>
  <path transform="matrix(1.0269 0 0 1 157.69 -58.362)" d="m86.056 328.13c-0.45671 1.5492-1.1522 3.0458-2.0496 4.4109-1.9805 3.0124-4.8545 5.2794-7.7268 7.3702-4.8989 3.5659-10.003 6.8378-14.563 10.89-3.0555 2.7151-5.8411 5.7594-8.4228 8.9649-2.2079 2.7415-4.2839 5.6193-6.8009 8.0573-2.5396 2.4599-5.5305 4.4468-8.7519 5.5293-3.918 1.3167-8.058 1.2533-11.832 0.25938-2.6448-0.69647-5.2236-1.907-6.8622-4.0969-1.6448-2.1983-2.1777-5.1522-2.368-8.0519-0.33651-5.1288 0.25967-10.37 0.8034-15.575 0.45167-4.3257 0.86825-8.6548 1.0386-12.972 0.30984-7.852-0.19668-15.636-1.2319-23.273-0.17336-1.2791-0.36202-2.5682-0.25656-3.8856 0.10519-1.3174 0.5354-2.6883 1.4362-3.7053 0.83202-0.93937 1.9928-1.4957 3.1507-1.7689 1.1579-0.27325 2.3298-0.2898 3.4927-0.3215 2.7402-0.0747 5.4965-0.24039 8.1952 6e-3 1.7028 0.15559 3.3726 0.47459 5.0731 0.6427 2.8376 0.28052 5.7813 0.13286 8.6274-0.72369 3.064-0.92215 5.9863-2.6516 9.0994-3.1274 1.2773-0.19521 2.559-0.17251 3.801 6e-3 1.2675 0.18218 2.5284 0.54175 3.5024 1.336 0.74019 0.60362 1.2819 1.4328 1.7058 2.3166 0.63144 1.3165 1.0192 2.7703 1.2412 4.2613 0.19663 1.3208 0.26639 2.6802 0.59789 3.9574 0.54536 2.1012 1.7809 3.8865 3.2674 5.3396 1.4865 1.4532 3.225 2.6024 4.9606 3.7341 1.7291 1.1274 3.4679 2.2468 5.3147 3.1763 0.86675 0.43621 1.7575 0.83074 2.5861 1.3331 0.8286 0.50234 1.6007 1.1211 2.1509 1.9355 0.74634 1.1047 1.0457 2.5527 0.82168 3.9747l2e-5 -1e-5" fill="url(#linearGradient18840)" filter="url(#filter15115-3)" opacity=".2"/>
  <path d="m263.19 278.25c-2.6238 3.1148-6.268 5.1704-9.8965 7.0198-6.1886 3.1544-12.602 5.9218-18.42 9.7165-3.898 2.5425-7.4959 5.5267-10.86 8.7424-2.8772 2.7501-5.6058 5.6874-8.8325 8.0177-3.2557 2.3512-7.0192 4.0543-10.991 4.6502-4.8303 0.72481-9.8213-0.21289-14.299-2.1642-3.1375-1.3673-6.1557-3.3229-7.963-6.2293-1.8142-2.9175-2.2281-6.4881-2.2327-9.9238-8e-3 -6.0767 1.1182-12.09 2.1785-18.073 0.88097-4.9718 1.7195-9.9548 2.2601-14.975 0.98337-9.1312 0.9763-18.353 0.3199-27.513-0.10993-1.5342-0.23754-3.0832-8e-3 -4.6041 0.22922-1.5209 0.85475-3.0367 2.0207-4.0399 1.077-0.9266 2.5209-1.336 3.9395-1.4145 1.4185-0.0785 2.834 0.14655 4.2398 0.35197 3.3125 0.48405 6.6516 0.8649 9.8892 1.7166 2.0428 0.53738 4.0332 1.2592 6.0722 1.8108 3.4026 0.92039 6.9664 1.3614 10.467 0.95192 3.7692-0.44089 7.4299-1.8568 11.224-1.7647 1.5566 0.0378 3.1015 0.33171 4.5865 0.79985 1.5154 0.47772 3.0091 1.1618 4.1228 2.2951 0.84639 0.8613 1.4358 1.9454 1.8787 3.0688 0.65982 1.6735 1.0149 3.457 1.167 5.2494 0.13475 1.5879 0.11343 3.1944 0.41433 4.7593 0.49503 2.5746 1.8475 4.923 3.5285 6.9349s3.6898 3.7205 5.6964 5.4078c1.9991 1.681 4.0106 3.3547 6.1671 4.8284 1.0121 0.69165 2.0564 1.3395 3.0174 2.1006s1.8447 1.6468 2.4454 2.7154c0.81492 1.4494 1.0638 3.2077 0.53758 4.8766-0.5262 1.6688-1.4816 3.2766-2.6706 4.6881z" fill="url(#linearGradient18842)"/>
  <path transform="translate(-250 -58.362)" d="m512.89 328.72c-0.61724 1.5474-1.4897 2.9928-2.5715 4.2598-2.4025 2.814-5.7292 4.6544-9.0377 6.311-5.653 2.8304-11.503 5.3176-16.821 8.7354-3.5536 2.2836-6.8408 4.9656-9.9178 7.8596-2.6292 2.4727-5.125 5.116-8.0661 7.2081-2.9809 2.1204-6.4179 3.6468-10.037 4.1806-4.4093 0.65041-8.9602-0.19314-13.058-1.9456-2.8572-1.2218-5.6173-2.97-7.272-5.6003-1.6463-2.6169-2.0313-5.83-2.0389-8.9217-0.0135-5.4647 1.0183-10.871 1.9894-16.248 0.80703-4.4688 1.5753-8.9482 2.064-13.463 0.88853-8.2082 0.8481-16.498 0.29214-24.735-0.0931-1.3802-0.20023-2.7738 0.0118-4.1408 0.21204-1.367 0.77803-2.7274 1.826-3.6304 0.9828-0.84687 2.303-1.218 3.5986-1.2859 1.2956-0.068 2.5874 0.14181 3.871 0.3307 3.0232 0.4449 6.0724 0.77918 9.0311 1.5432 1.8654 0.48173 3.6837 1.1316 5.5453 1.628 3.1095 0.82898 6.3623 1.2249 9.5591 0.8558 3.4413-0.39728 6.7866-1.6715 10.25-1.5865 1.4206 0.0348 2.8305 0.30037 4.1885 0.71908 1.3818 0.42605 2.7491 1.0345 3.7651 2.0634 0.76566 0.7754 1.2954 1.7535 1.7157 2.7589 0.62574 1.4967 1.0326 3.0974 1.0658 4.7194 0.0347 1.6937-0.33552 3.3949-0.10594 5.0734 0.18638 1.3626 0.7635 2.648 1.5006 3.8091 0.73713 1.1611 1.634 2.2109 2.5225 3.2607 1.7173 2.029 3.4393 4.0967 5.5931 5.6546 2.4522 1.7736 5.3619 2.8114 7.8951 4.4673 0.75511 0.49359 1.486 1.0522 2.0181 1.7806 0.8972 1.2281 1.1387 2.9079 0.62379 4.339h2e-5" clip-path="url(#clipPath419)" fill="#cd8907" filter="url(#filter14416-8)"/>
  <path transform="matrix(1.143 0 0 1.2323 -319 -135.49)" d="m508.79 327.93c-0.60151 1.2646-1.3822 2.4437-2.3113 3.4913-2.1534 2.4278-5.061 4.0992-8.1235 5.1725-5.0417 1.767-10.546 2.0044-15.495 4.0162-3.0162 1.2261-5.7306 3.0734-8.4791 4.8187-2.2217 1.4108-4.4925 2.7689-6.9321 3.7562-2.7555 1.1152-5.6857 1.7405-8.6258 2.1786-1.8708 0.27876-3.7626 0.48423-5.6516 0.38704-1.889-0.0972-3.7842-0.50735-5.4513-1.4009-1.264-0.6775-2.4013-1.6529-3.076-2.9184-0.74956-1.4059-0.87959-3.056-0.86243-4.6492 0.0457-4.2459 1.0256-8.4458 0.99617-12.692-0.0256-3.6961-0.81525-7.345-1.0423-11.034-0.43665-7.0946 1.2047-14.313-0.23989-21.273-0.23125-1.1141-0.54212-2.2269-0.52701-3.3646 8e-3 -0.56889 0.0988-1.141 0.31541-1.6671 0.21661-0.52609 0.56289-1.0051 1.0246-1.3375 0.38878-0.27992 0.85044-0.45024 1.3234-0.52677 0.47292-0.0765 0.95748-0.0616 1.4317 7e-3 0.94836 0.13656 1.8519 0.48215 2.7755 0.73718 2.6419 0.72952 5.4325 0.71432 8.1175 1.2648 1.6853 0.34555 3.3168 0.91149 4.9844 1.3343 2.8003 0.70996 5.7201 1.0133 8.5921 0.70142 3.0885-0.33539 6.1071-1.3753 9.2129-1.3003 1.273 0.0307 2.5374 0.25005 3.7648 0.58936 1.2277 0.3394 2.4554 0.81951 3.3842 1.6911 0.6693 0.62809 1.1514 1.4307 1.5421 2.2612 0.5703 1.212 0.96726 2.5285 0.95796 3.868-5e-3 0.6968-0.11899 1.3876-0.18672 2.0811-0.0677 0.69352-0.0878 1.4037 0.0914 2.077 0.18009 0.67656 0.55415 1.2867 0.98269 1.8403 0.42854 0.55364 0.91471 1.06 1.3582 1.6018 1.242 1.5171 2.1296 3.2854 3.0972 4.9907 0.96764 1.7052 2.0523 3.3927 3.5804 4.6212 2.0797 1.672 4.778 2.3402 7.0964 3.6614 0.67877 0.38682 1.3368 0.84082 1.814 1.4594 0.38231 0.49552 0.63762 1.0882 0.73509 1.7064 0.0975 0.61822 0.0369 1.2607-0.1744 1.8498h9e-5" clip-path="url(#clipPath426)" fill="#f5c021" filter="url(#filter14432-2)"/>
  <path d="m187.31 230.29c3.2761-0.88704 6.0662 1.5972 8.4423 3.4723 1.5353 1.3093 3.7535 0.97992 5.6366 1.0421 3.1207-0.11321 6.2254 0.52281 9.3471 0.13577 6.1446-0.51932 12.168-2.0297 18.342-2.2898 2.9495-0.18579 6.2599-0.35725 8.8081 1.3652 1.033 0.7155 2.547 3.7414 3.5665 2.6049-0.42031-3.1782-2.7775-6.2559-5.9391-7.1022-2.4749-0.38942-4.9898 0.29134-7.4895 0.0711-7.4229-0.17706-14.793-1.5554-22.234-1.1602-5.1764 0.0448-10.347-0.19501-15.515-0.39662-2.0306-0.41489-2.7467 1.389-3.8489 2.0808" clip-path="url(#clipPath433)" fill="url(#linearGradient18844)" filter="url(#filter17044)"/>
  <path d="m57.577 222.66c1.5993-0.66295 3.3982-0.78361 5.1007-0.46963 1.7025 0.31398 3.3114 1.0495 4.7434 2.0224 2.864 1.9458 4.9882 4.7777 7.0226 7.5795 4.6719 6.4341 9.1687 13.002 13.245 19.829 3.3064 5.5377 6.3435 11.257 10.164 16.453 2.494 3.3919 5.3066 6.5395 7.813 9.9222 2.5064 3.3827 4.7279 7.0559 5.8393 11.117 1.4441 5.2765 0.88463 11.093-1.6267 15.953-1.7666 3.419-4.4765 6.3523-7.7724 8.339-3.296 1.9867-7.1706 3.0144-11.016 2.8702-6.1141-0.2293-11.699-3.2852-17.384-5.5491-11.581-4.6125-24.16-6.0594-36.097-9.6517-3.6686-1.104-7.2758-2.4107-10.97-3.4263-1.6412-0.45122-3.3087-0.8482-4.8588-1.5514-1.5501-0.70325-2.9995-1.7491-3.8617-3.2168-0.66639-1.1344-0.94839-2.47-0.93019-3.7855 0.0182-1.3155 0.32589-2.6145 0.77382-3.8516 0.89585-2.4741 2.3433-4.7137 3.3202-7.157 1.5951-3.9894 1.8817-8.3884 1.6666-12.679-0.21511-4.291-0.91078-8.5448-1.2045-12.831-0.13118-1.9141-0.18066-3.8526 0.18479-5.736 0.36545-1.8834 1.1758-3.7246 2.5577-5.0554 1.2741-1.2269 2.9649-1.9553 4.6964-2.3165s3.5153-0.37747 5.2837-0.33762c1.7683 0.0399 3.5407 0.13425 5.3035-0.0106 1.7628-0.14488 3.5335-0.54055 5.0691-1.4183 1.46-0.83447 2.6543-2.0745 3.6437-3.4342 0.9894-1.3597 1.7891-2.8457 2.6089-4.314 0.81983-1.4682 1.6683-2.9315 2.7416-4.2261 1.0732-1.2946 2.3892-2.423 3.9427-3.067" fill="url(#linearGradient18854)"/>
  <path transform="translate(160 -57.362)" d="m-99.89 282.78c1.4552-0.58619 3.0942-0.65064 4.6227-0.30406 1.5285 0.34657 2.9496 1.0902 4.1884 2.047 2.4776 1.9137 4.1998 4.6138 5.8542 7.2686 3.9701 6.4331 7.8514 12.934 11.516 19.567 2.7769 4.9932 5.4247 10.093 8.8375 14.679 2.2638 3.0415 4.8474 5.8314 7.1579 8.8368 2.3105 3.0054 4.3713 6.2821 5.3928 9.9335 1.3163 4.7058 0.78265 9.91-1.4954 14.233-1.6376 3.1058-4.152 5.7464-7.1861 7.5126-3.0341 1.7662-6.5792 2.6492-10.087 2.4879-5.5983-0.25772-10.711-3.0535-15.981-4.9507-10.103-3.6657-21.053-4.1575-31.416-7.02-3.7148-1.0083-7.3366-2.3528-11.07-3.294-1.6516-0.41658-3.333-0.75712-4.9022-1.4193-1.5691-0.66219-3.0468-1.6887-3.8975-3.1647-0.63282-1.0972-0.88561-2.3884-0.84651-3.6542 0.0391-1.2658 0.35915-2.5104 0.80992-3.6939 0.90155-2.367 2.3202-4.5103 3.2291-6.8746 1.3787-3.5742 1.5499-7.5041 1.294-11.326s-0.9211-7.6095-1.1533-11.434c-0.10374-1.709-0.11933-3.439 0.22634-5.1158 0.34564-1.6768 1.0761-3.3097 2.2949-4.512 1.3209-1.309 3.1412-2.0241 4.9773-2.3043 1.8361-0.28013 3.706-0.15808 5.5548 7e-3 1.8488 0.16495 3.705 0.37271 5.5611 0.26163 1.8561-0.11109 3.7357-0.56331 5.2689-1.6069 1.3974-0.94461 2.4458-2.3241 3.2444-3.7984 0.79856-1.4744 1.3676-3.0554 1.9764-4.6166 0.60885-1.5611 1.2667-3.1219 2.2218-4.5097 0.95509-1.3878 2.2361-2.6047 3.8057-3.2347" clip-path="url(#clipPath401)" fill="#d99a03" filter="url(#filter14148-8)"/>
  <path transform="matrix(1 0 0 .98205 -80 -54.403)" d="m138.75 281.24c1.4091-0.7122 3.0706-0.85812 4.6164-0.53681 1.5458 0.3213 2.9782 1.0906 4.1957 2.0958 2.435 2.0104 3.9803 4.8747 5.4194 7.6854 3.3049 6.4547 6.3834 13.05 10.338 19.128 2.8688 4.4095 6.1796 8.517 9.0816 12.905 3.9356 5.9507 7.1358 12.496 8.4564 19.507 0.88822 4.7157 0.85899 9.8096-1.3724 14.058-1.4687 2.7961-3.85 5.0899-6.6634 6.5252-2.8134 1.4353-6.0432 2.017-9.1889 1.7344-4.9542-0.44507-9.4537-2.9251-14.117-4.6548-8.2747-3.0688-17.218-3.8032-25.734-6.1187-3.592-0.9766-7.11-2.2352-10.751-3.0096-1.6062-0.34163-3.2436-0.59125-4.7768-1.1794-1.5331-0.58818-2.9862-1.5658-3.7696-3.0089-0.55139-1.0157-0.73656-2.2046-0.65433-3.3574 0.0822-1.1528 0.42084-2.2749 0.86462-3.342 0.88755-2.1343 2.2009-4.0894 2.8904-6.2956 1.0132-3.2421 0.59672-6.7572-0.1636-10.068-0.76031-3.3106-1.8567-6.5613-2.1945-9.9412-0.15046-1.5054-0.14681-3.0399 0.19136-4.5146 0.33818-1.4746 1.0269-2.8918 2.1086-3.9496 1.3932-1.3624 3.3437-2.04 5.2832-2.2292 1.9394-0.18927 3.8922 0.0689 5.8203 0.3512 1.9281 0.28227 3.8682 0.59003 5.8148 0.49986 1.9466-0.0902 3.9285-0.61081 5.4532-1.8243 1.5078-1.2001 2.4558-2.9871 2.9994-4.836 0.54362-1.8488 0.71997-3.7819 0.94267-5.6961s0.50044-3.8462 1.2297-5.63c0.72928-1.7838 1.9609-3.4281 3.6808-4.2974" clip-path="url(#clipPath391)" fill="#f5bd0c" filter="url(#filter14140-3)"/>
  <path d="m76.407 237.61c2.6062 4.7134 4.1958 10.122 6.7812 14.875 2.3781 4.3722 5.0845 8.8738 7.5 12.906 1.0754 1.7953 3.5833 4.5546 6.119 8.8373 2.2977 3.8808 4.6183 9.2972 5.9166 11.116-0.74552-2.1288-2.2793-7.8466-4.1088-11.923-1.7096-3.8088-3.6998-5.9822-4.9268-8.0306-2.4155-4.0325-5.0169-7.6565-7.5-11.5-3.4252-5.3018-6.0356-11.235-9.7812-16.281z" fill="url(#linearGradient18856)" filter="url(#filter14176-5)"/>
  <path d="m231.48 237.28c-0.56258-1.102-1.5869-1.9258-2.7287-2.4025-1.1418-0.47667-2.3969-0.6289-3.6342-0.61936-2.4745 0.0191-4.9346 0.66357-7.4 0.45028-2.0826-0.18018-4.0588-0.96301-6.0898-1.4574-2.0973-0.51049-4.3219-0.70969-6.4046-0.14297-2.226 0.60568-4.1894 2.0936-5.4192 4.0454-1.0843 1.7209-1.5991 3.7527-1.7611 5.7803s0.013 4.0658 0.21815 6.0894c0.1484 1.4636 0.31354 2.9308 0.66764 4.3587 0.35411 1.4279 0.90422 2.8228 1.7661 4.0151 1.2407 1.7163 3.0834 2.9395 5.0694 3.675 3.2418 1.2005 6.9338 1.136 10.132-0.17718 5.6588-2.457 10.449-6.8639 13.369-12.299 1.0454-1.946 1.8574-4.0193 2.3819-6.1651 0.20845-0.85283 0.37215-1.7224 0.37977-2.6003 8e-3 -0.8779-0.14655-1.7688-0.54573-2.5507" fill="url(#radialGradient18846)" filter="url(#filter14897-2)" opacity=".35"/>
  <path transform="matrix(1 0 0 .72293 160 20.396)" d="m71.484 295.64c-0.56258-1.102-1.5869-1.9258-2.7287-2.4025-1.1418-0.47667-2.3969-0.6289-3.6342-0.61936-2.4745 0.0191-4.9346 0.66357-7.4 0.45028-2.0826-0.18018-4.0587-0.96301-6.0898-1.4574-2.0973-0.51049-4.3219-0.70969-6.4046-0.14297-2.226 0.60568-4.1894 2.0936-5.4192 4.0454-1.0843 1.7209-1.5991 3.7527-1.7611 5.7803-0.16202 2.0275 0.01297 4.0658 0.21815 6.0894 0.1484 1.4636 0.31354 2.9308 0.66764 4.3587 0.3541 1.4279 0.90422 2.8228 1.7661 4.0151 1.2407 1.7163 3.0834 2.9395 5.0694 3.675 3.2418 1.2005 6.9338 1.136 10.132-0.17718 5.6589-2.457 10.449-6.8639 13.369-12.299 1.0454-1.946 1.8574-4.0193 2.3819-6.1651 0.20845-0.85283 0.37215-1.7224 0.37978-2.6003 0.0076-0.8779-0.14656-1.7688-0.54574-2.5507" fill="url(#radialGradient18848)" filter="url(#filter14951-8)" opacity=".35"/>
  <path transform="translate(160 -58.362)" d="m76.188 285.33c-0.40516-1.1037-1.1184-2.0816-1.9907-2.8699-0.87226-0.78832-1.9005-1.3923-2.9828-1.8516-2.1646-0.91852-4.5205-1.2615-6.8315-1.6956-2.1792-0.40931-4.3418-0.90631-6.5278-1.2773-2.2714-0.38551-4.6179-0.63213-6.8653-0.1253-1.9658 0.44333-3.7845 1.4588-5.2717 2.8186-1.4872 1.3598-2.6491 3.0564-3.485 4.8901-1.4722 3.2295-1.9345 6.865-1.6539 10.403 0.20882 2.6332 0.87532 5.3459 2.6088 7.3391 1.4007 1.6105 3.3873 2.6153 5.434 3.2209 3.525 1.0432 7.3666 0.98822 10.86-0.1553 5.7669-1.9311 10.876-5.7739 14.33-10.779 1.1386-1.6496 2.1122-3.4481 2.5532-5.4034 0.33597-1.4896 0.34831-3.0811-0.1779-4.5146" fill="#020204"/>
  <path transform="translate(-150 -58.362)" d="m362.22 276.46c-0.54933 0.0306-1.0814 0.0909-1.625 0.1875-3.4695 0.61686-6.647 2.8086-8.4375 5.8438-1.264 2.1427-1.8398 4.6763-1.6562 7.1562 0.0732-1.7416 0.52946-3.4468 1.375-4.9688 1.4344-2.5818 4.0324-4.5298 6.9375-5.0625 1.7898-0.32819 3.6318-0.13095 5.4375 0.0937 1.7326 0.2156 3.4812 0.44287 5.1875 0.8125 2.641 0.57209 5.2543 1.4514 7.4688 3 0.51646 0.36118 0.99955 0.76857 1.4062 1.25 0.40669 0.48143 0.72188 1.0379 0.84375 1.6562 0.17824 0.90428-0.0794 1.853-0.53125 2.6562-0.45189 0.8033-1.0649 1.5066-1.7188 2.1562-0.52923 0.5258-1.0948 1.0342-1.6562 1.5312 2.559-0.49571 5.152-1.1977 7.2812-2.6875 0.89975-0.62955 1.7152-1.3846 2.25-2.3438 0.53477-0.95912 0.76245-2.1212 0.5-3.1875-0.17714-0.71971-0.57137-1.3824-1.0625-1.9375-0.49114-0.55511-1.0805-1.0122-1.6875-1.4375-2.6788-1.877-5.8149-3.0785-9.0625-3.4688-2.0815-0.38286-4.1812-0.70597-6.2812-0.96875-1.6434-0.20564-3.3208-0.37313-4.9688-0.28125z" clip-path="url(#clipPath533)" fill="url(#radialGradient18850)" filter="url(#filter14812-5)"/>
  <path transform="translate(-150 -58.362)" d="m362.22 276.46c-0.54933 0.0306-1.0814 0.0909-1.625 0.1875-3.4695 0.61686-6.647 2.8086-8.4375 5.8438-1.264 2.1427-1.8398 4.6763-1.6562 7.1562 0.0732-1.7416 0.52946-3.4468 1.375-4.9688 1.4344-2.5818 4.0324-4.5298 6.9375-5.0625 1.7898-0.32819 3.6318-0.13095 5.4375 0.0937 1.7326 0.2156 3.4812 0.44287 5.1875 0.8125 2.641 0.57209 5.2543 1.4514 7.4688 3 0.51646 0.36118 0.99955 0.76857 1.4062 1.25 0.40669 0.48143 0.72188 1.0379 0.84375 1.6562 0.17824 0.90428-0.0794 1.853-0.53125 2.6562-0.45189 0.8033-1.0649 1.5066-1.7188 2.1562-0.52923 0.5258-1.0948 1.0342-1.6562 1.5312 2.559-0.49571 5.152-1.1977 7.2812-2.6875 0.89975-0.62955 1.7152-1.3846 2.25-2.3438 0.53477-0.95912 0.76245-2.1212 0.5-3.1875-0.17714-0.71971-0.57137-1.3824-1.0625-1.9375-0.49114-0.55511-1.0805-1.0122-1.6875-1.4375-2.6788-1.877-5.8149-3.0785-9.0625-3.4688-2.0815-0.38286-4.1812-0.70597-6.2812-0.96875-1.6434-0.20564-3.3208-0.37313-4.9688-0.28125z" clip-path="url(#clipPath538)" fill="url(#linearGradient18852)" filter="url(#filter14812-0-9)"/>
  <path transform="translate(139 -49.362)" d="m-24.768 113.36c-1.781 0.097-3.4846 0.91899-4.7879 2.1367-1.3032 1.2177-2.2214 2.8118-2.7862 4.5036-1.1296 3.3836-0.87548 7.0518-0.6187 10.61 0.23251 3.2216 0.4704 6.5053 1.6768 9.5016 0.60319 1.4981 1.4502 2.9102 2.5803 4.064s2.5517 2.0419 4.1183 2.4345c1.4688 0.36809 3.0382 0.29183 4.4828-0.16209 1.4446-0.45392 2.7639-1.2789 3.8462-2.3379 1.579-1.5451 2.6433-3.5662 3.2534-5.6895 0.61019-2.1233 0.78416-4.3516 0.7524-6.5605-0.03974-2.7644-0.40091-5.5385-1.2658-8.1644s-2.2457-5.1033-4.1728-7.0856c-0.93331-0.96009-1.9978-1.8051-3.1986-2.3975-1.2008-0.59233-2.5434-0.92535-3.8804-0.85253" fill="url(#radialGradient18806)"/>
  <path transform="translate(-50 -58.362)" d="m159.94 137.11c-0.37211 2.2457-0.38563 4.602 0.3864 6.7434 0.50979 1.414 1.3504 2.6969 2.3722 3.7994 0.66903 0.72184 1.4282 1.3778 2.3158 1.8032s1.9158 0.60638 2.8704 0.36671c0.88113-0.22123 1.6516-0.78859 2.2201-1.4972 0.56856-0.70857 0.9476-1.553 1.2177-2.4203 0.7974-2.5608 0.66926-5.3616-0.12241-7.9242-0.5768-1.867-1.5321-3.6679-3.0266-4.9268-0.71307-0.60061-1.5477-1.0712-2.4548-1.2866-0.90707-0.2155-1.8887-0.16505-2.7375 0.22063-0.9423 0.42817-1.6716 1.243-2.1491 2.1613-0.47749 0.91829-0.72288 1.9394-0.89207 2.9605" fill="#020204"/>
  <path d="m114.69 77.125c0.24185 0.6337 1.0542 0.86381 1.5 1.375 0.43302 0.49651 0.88735 1.0106 1.125 1.625 0.4549 1.1762-0.4488 2.9193 0.5 3.75 0.29782 0.26075 0.89472 0.26639 1.1875 0 1.1454-1.0422 0.89094-3.1443 0.4375-4.625-0.4115-1.3437-1.4275-2.6164-2.6792-3.2551-0.57882-0.29536-1.4508-0.54089-1.9458-0.11988-0.31898 0.2713-0.27431 0.85878-0.125 1.25z" fill="url(#linearGradient18820)" filter="url(#filter29493-2)"/>
  <path transform="translate(60 -58.362)" d="m50.392 129.53c2.6854-1.5993 5.9551-1.9703 9.0667-1.6756 3.1116 0.29468 6.1254 1.2085 9.1413 2.0292 2.2116 0.60188 4.4516 1.1615 6.5253 2.1378 2.0737 0.97627 3.9999 2.4157 5.1419 4.403 0.18319 0.31877 0.34526 0.6497 0.53925 0.96201 0.194 0.31232 0.42311 0.60867 0.71646 0.83031s0.65699 0.3643 1.0241 0.34424c0.18356-0.01 0.36561-0.0609 0.52418-0.15388 0.15856-0.093 0.29294-0.22871 0.37799-0.39169 0.09778-0.18739 0.12808-0.40446 0.11714-0.61554s-0.06122-0.41805-0.11714-0.62189c-0.7552-2.753-2.535-5.0883-3.8891-7.6014-0.8126-1.5081-1.477-3.0927-2.2981-4.5962-2.8183-5.1602-7.4436-9.2156-12.701-11.847-5.2578-2.6317-11.127-3.8961-16.997-4.2393-6.8012-0.39768-13.62 0.40945-20.329 1.591-2.9086 0.5122-5.8608 1.1151-8.4357 2.5616-1.2874 0.72322-2.4675 1.6566-3.3885 2.8109s-1.5765 2.5352-1.7876 3.9967c-0.20352 1.4086 0.0088 2.8606 0.5013 4.1958 0.49248 1.3352 1.2582 2.5585 2.1565 3.6624 1.7966 2.2077 4.1007 3.9336 6.2224 5.8309 2.1213 1.8969 4.09 3.992 6.4629 5.5628 1.1865 0.78539 2.4727 1.435 3.8434 1.8167 1.3707 0.38166 2.8299 0.48917 4.2238 0.20358 1.445-0.29606 2.7827-1.005 3.9536-1.902 1.1709-0.89697 2.1861-1.9801 3.1484-3.0979 1.9246-2.2358 3.7225-4.6865 6.2571-6.196" clip-path="url(#clipPath631)" fill="url(#radialGradient18832)"/>
  <path transform="translate(160 -57.362)" d="m-38.438 119.38c2.5037 2.3453 4.365 5.2397 5.625 8.3094-0.55066-3.3847-1.4234-6.1037-3.625-8.3094-1.3513-1.2658-2.8864-2.3778-4.625-3.1587-1.5213-0.68334-3.2136-1.1079-4.1808-1.1255-0.96723-0.0176-1.2022 4e-3 -1.4009 0.0134-0.19874 9e-3 -0.35739 0.0162 0.27185 0.0877s2.0337 0.45118 3.5411 1.1283c1.5074 0.6771 3.0425 1.789 4.3938 3.0548z" fill="url(#linearGradient18818)" filter="url(#filter29447-1)"/>
  <path transform="translate(139 -49.362)" d="m6.75 113.36c-2.7804 1.9102-5.1106 4.5749-6.25 7.75-1.436 4.0016-0.88584 8.4807 0.5 12.5 1.4195 4.1169 3.7938 8.041 7.3793 10.512 1.7928 1.2357 3.8681 2.083 6.0304 2.3386s4.4093-0.0949 6.3403-1.1009c2.3531-1.226 4.1478-3.3728 5.2622-5.7808s1.5888-5.0701 1.7378-7.7192c0.18989-3.3755-0.14047-6.8065-1.25-10-1.2053-3.4691-3.3901-6.6706-6.4728-8.6666-1.5414-0.99803-3.2919-1.6836-5.1109-1.9352-1.8189-0.25158-3.7048-0.0633-5.4164 0.60175-0.97547 0.37901-1.8874 0.9074-2.75 1.5" fill="url(#radialGradient18808)"/>
  <path transform="translate(-150 -58.362)" d="m302.16 130.76c-1.0455 0.0749-2.0644 0.4318-2.9514 0.99028-0.88699 0.55848-1.6433 1.3152-2.237 2.179-1.1875 1.7276-1.7089 3.8468-1.793 5.9414-0.0631 1.5723 0.11098 3.1651 0.63245 4.6498s1.4009 2.8588 2.6128 3.8625c1.2401 1.0271 2.8165 1.6436 4.4248 1.7209s3.2395-0.38665 4.561-1.3066c1.0529-0.73292 1.9021-1.7417 2.5067-2.8732 0.60455-1.1315 0.96879-2.3835 1.1353-3.6555 0.29411-2.2468-0.0385-4.593-1.0769-6.607-1.0384-2.014-2.8005-3.6727-4.9267-4.4561-0.92093-0.3393-1.9091-0.51576-2.888-0.44563" fill="#020204"/>
  <path d="m154.66 79.25c-0.86591 0.34162-2.2366 0.12677-2.6162 0.9767-0.22493 0.50357 0.0927 1.3325 0.60343 1.5406 1.0324 0.42063 2.6319-0.34111 3.0488-1.3751 0.18104-0.4491-0.0934-1.161-0.53974-1.3486-0.16515-0.0694-0.32958 0.14069-0.49623 0.20644z" fill="#141413" filter="url(#filter28927-8)"/>
  <path d="m158.62 81.5c1.1611-1.1611-0.82613-4.2395-2.375-5.5-1.1218-0.91296-4.3906-1.8685-4.25-0.875s1.6099 2.2665 2.5947 3.2374c1.2124 1.1953 3.4789 3.689 4.0303 3.1376z" fill="url(#linearGradient18812)" filter="url(#filter28949-8)"/>
  <path transform="translate(60 -58.362)" d="m75.25 132.49c2.3837-1.9801 5.1609-3.4847 8.1215-4.4001 6.0856-1.8815 13-1.1371 18.378 2.2751 1.8571 1.1781 3.5124 2.6419 5.2394 4.0037 1.7269 1.3618 3.5612 2.6412 5.6356 3.3713 1.1209 0.39448 2.3182 0.62345 3.5 0.5 1.0677-0.11153 2.0993-0.5118 2.9844-1.1192 0.88515-0.60736 1.6248-1.4185 2.1806-2.3369 1.1118-1.8367 1.47-4.0646 1.2784-6.203-0.38324-4.2768-2.7956-8.0534-4.8185-11.841-0.63342-1.186-1.2364-2.3933-2-3.5-2.3433-3.3962-6.0731-5.6356-9.985-6.9479-3.9118-1.3123-8.0463-1.7864-12.14-2.3021-1.8257-0.22998-3.673-0.46998-5.5-0.25-2.0998 0.25283-4.076 1.101-6.125 1.625-0.97265 0.24874-1.9637 0.42478-2.928 0.70391-0.96437 0.27912-1.913 0.669-2.697 1.2961-1.1448 0.91567-1.8651 2.2909-2.1765 3.7234-0.31145 1.4325-0.24052 2.9244-0.01161 4.3724 0.45781 2.896 1.5409 5.7241 1.4381 8.6542-0.07058 2.0123-0.70229 3.988-0.625 6 0.02266 0.58987 0.10659 1.1774 0.25 1.75" clip-path="url(#clipPath622)" fill="url(#linearGradient18814)"/>
  <path transform="translate(160 -57.362)" d="m-4.5939 113.12c-0.47695 0.59985-0.90798 1.2523-1.25 1.9688 2.1464 0.46247 4.1991 1.3458 6.0312 2.5625 3.5451 2.3543 6.237 5.7965 8.125 9.625 0.44076-0.48807 0.84202-1.0118 1.1875-1.5938-1.8975-3.9878-4.6438-7.5949-8.3125-10.031-1.7623-1.1704-3.7246-2.0537-5.7812-2.5312z" fill="url(#linearGradient18816)" filter="url(#filter29350-1)"/>
  <path transform="translate(139 -49.362)" d="m-16.399 136.86c1.7674-1.9866 2.9762-4.4105 4.6741-6.4568 0.84898-1.0231 1.8284-1.9553 2.9817-2.6168 1.1533-0.66147 2.492-1.0411 3.8165-0.9264 1.4745 0.12769 2.8545 0.86228 3.9341 1.8747 1.0795 1.0124 1.8798 2.2903 2.5186 3.6253 0.61174 1.2783 1.0978 2.6403 1.9791 3.75 0.94033 1.184 2.2595 1.9922 3.4511 2.9229 0.59578 0.46535 1.1675 0.96911 1.6384 1.5605 0.47092 0.59139 0.83961 1.276 0.99099 2.0166 0.15372 0.75214 0.077153 1.5451-0.18518 2.2665-0.26233 0.72148-0.7067 1.3717-1.2596 1.9043-1.1059 1.0651-2.6136 1.6396-4.1338 1.8547-3.0405 0.43016-6.1147-0.47583-9.1842-0.39142-3.1069 0.0854-6.1416 1.1837-9.2475 1.0701-1.553-0.0568-3.1281-0.43624-4.4043-1.323-0.63809-0.44339-1.194-1.0106-1.5958-1.6756-0.40182-0.66505-0.64669-1.4289-0.67286-2.2055-0.02497-0.74092 0.14804-1.4809 0.44408-2.1606 0.29603-0.67967 0.71268-1.3018 1.1821-1.8755 0.93888-1.1475 2.087-2.1062 3.0725-3.2139" fill="url(#radialGradient18810)"/>
  <path transform="translate(60 -58.362)" d="m45.752 165.03c0.06146 0.29539 0.17251 0.58039 0.32709 0.8395 0.26568 0.44533 0.65394 0.80631 1.0733 1.1114s0.8728 0.55947 1.3118 0.83545c2.3336 1.467 4.2354 3.529 5.9247 5.7071 2.2665 2.9222 4.2719 6.1649 7.2993 8.2889 2.1378 1.4998 4.6957 2.355 7.2941 2.6161 3.0513 0.30656 6.1399-0.18595 9.0817-1.052 2.7264-0.80267 5.3631-1.9296 7.7822-3.4214 4.5985-2.8359 8.4392-6.9927 13.51-8.8571 1.107-0.40702 2.2592-0.69819 3.3265-1.2003 1.0673-0.50207 2.0714-1.254 2.5811-2.3177 0.48998-1.0224 0.47097-2.2025 0.63053-3.325 0.1707-1.2008 0.55374-2.3618 0.76385-3.5564 0.2101-1.1946 0.23517-2.4723-0.28138-3.5698-0.42775-0.90878-1.2054-1.6279-2.0998-2.0848-0.89448-0.4569-1.9011-0.66447-2.9043-0.71372-2.0064-0.0985-3.9876 0.41519-5.9881 0.59785-2.6495 0.24193-5.3179-0.0982-7.9772-0.019-3.3083 0.0986-6.5684 0.84468-9.8743 1.005-3.7715 0.18294-7.5347-0.39851-11.308-0.55139-1.6341-0.0662-3.28-0.0512-4.8918 0.22531-1.6119 0.27654-3.1952 0.82363-4.541 1.7529-1.3114 0.90553-2.3559 2.1402-3.5602 3.184-0.60214 0.52192-1.2495 0.99929-1.9663 1.3474-0.71678 0.34812-1.5075 0.564-2.3042 0.54708-0.4096-9e-3 -0.83086-0.0769-1.2213 0.0472-0.24392 0.0775-0.46048 0.22705-0.64353 0.40593s-0.33479 0.38705-0.4778 0.59931c-0.33254 0.49356-0.62307 1.0154-0.86742 1.5581" fill="url(#radialGradient18822)"/>
  <path transform="translate(60 -58.362)" d="m60.557 169.1c-0.38646 1.596-0.15199 3.3341 0.64359 4.7707s2.1444 2.5575 3.7023 3.0768c1.9778 0.65919 4.2066 0.33635 6.0548-0.62813 1.0714-0.55909 2.0512-1.3459 2.6694-2.3842 0.3091-0.51918 0.52398-1.0971 0.60452-1.6959 0.08054-0.59884 0.02471-1.2185-0.18489-1.7852-0.22972-0.62112-0.64026-1.1685-1.1461-1.596-0.50579-0.42748-1.1047-0.7378-1.7334-0.94568-1.2575-0.41575-2.6109-0.42405-3.9339-0.36051-2.0052 0.0963-4.0029 0.34837-5.9692 0.75318" fill="#d9b30d" filter="url(#filter28502-8)"/>
  <path transform="translate(60 -58.362)" d="m54.066 156.68c-1.339 0.79147-2.6286 1.6637-3.8975 2.5632-0.6567 0.46551-1.3342 0.96895-1.6806 1.6956-0.2455 0.51498-0.30177 1.099-0.30959 1.6695-0.0078 0.57045 0.02884 1.144-0.04618 1.7095-0.05124 0.38625-0.15433 0.76619-0.17154 1.1554-0.0086 0.19463 0.0047 0.39145 0.05602 0.57938 0.05134 0.18793 0.1419 0.36704 0.27548 0.50885 0.17256 0.18318 0.40793 0.29591 0.64865 0.36931s0.49064 0.1112 0.73562 0.16878c1.1747 0.27611 2.1969 0.99676 3.0941 1.8037s1.7029 1.7149 2.6389 2.4764c2.5373 2.0645 5.8905 2.9187 9.1611 2.9725 3.2706 0.0538 6.5042-0.63066 9.6953-1.3495 2.5063-0.56456 5.015-1.1547 7.4254-2.0436 3.7028-1.3654 7.1407-3.4317 10.118-6.0219 1.35-1.1744 2.6172-2.4636 4.1325-3.4152 1.3409-0.84211 2.8426-1.398 4.2063-2.2026 0.12193-0.072 0.24321-0.14621 0.35213-0.23665 0.10893-0.0905 0.20574-0.1981 0.26892-0.3248 0.10917-0.21894 0.10937-0.48123 0.0389-0.71552-0.0704-0.23429-0.20633-0.44389-0.36-0.63425-0.16999-0.21058-0.36336-0.40158-0.56895-0.57756-1.4244-1.2192-3.3568-1.6624-5.2258-1.8107-1.8691-0.14822-3.7607-0.0434-5.61-0.35238-1.7386-0.29048-3.3933-0.93881-5.0718-1.4773-1.7619-0.56527-3.5628-1.0125-5.389-1.3104-4.2948-0.70063-8.7173-0.56641-12.977 0.32063-4.0577 0.84488-7.9713 2.3706-11.539 4.4796" fill="#604405" filter="url(#filter15145-6)"/>
  <path transform="translate(60 -58.362)" d="m53.639 152.15c-1.9294 1.2986-3.6661 2.8829-5.136 4.6852-0.8407 1.0308-1.6037 2.1508-2.0271 3.4118-0.333 0.99185-0.44648 2.0415-0.65633 3.0665-0.07861 0.38398-0.17139 0.76923-0.16974 1.1612 8.22e-4 0.19597 0.02568 0.39281 0.08646 0.57912 0.06079 0.18631 0.15831 0.36204 0.29407 0.50337 0.22468 0.23391 0.54041 0.36101 0.8581 0.42632 0.31769 0.0653 0.6438 0.0751 0.96606 0.11177 1.4546 0.16535 2.7945 0.87199 4.0003 1.7022 1.2059 0.83017 2.3171 1.7954 3.5544 2.578 2.7339 1.729 5.9946 2.4983 9.2269 2.6228 3.2323 0.12456 6.4574-0.36641 9.6295-0.99977 2.5209-0.50334 5.0339-1.1007 7.4254-2.0436 3.6624-1.4439 6.9635-3.6669 10.118-6.0219 1.433-1.0698 2.846-2.1732 4.1325-3.4152 0.43668-0.42159 0.85916-0.85947 1.3276-1.2455 0.4684-0.38603 0.98816-0.72177 1.566-0.90766 0.88077-0.28336 1.8356-0.20203 2.7482-0.0495 0.68732 0.11488 1.376 0.26902 2.0723 0.24128 0.34815-0.0139 0.69661-0.0742 1.0201-0.2037 0.32345-0.12954 0.62155-0.33028 0.8433-0.59903 0.29139-0.35317 0.43996-0.81445 0.4416-1.2723 2e-3 -0.45786-0.1387-0.91095-0.37105-1.3055-0.4647-0.78905-1.2682-1.3231-2.105-1.695-1.1461-0.50941-2.3863-0.76136-3.6055-1.0557-3.7453-0.90427-7.3848-2.2406-10.836-3.9538-1.7156-0.85173-3.3836-1.7956-5.0718-2.7004-1.7356-0.93021-3.5046-1.8242-5.389-2.3954-4.2133-1.2771-8.8185-0.85829-12.977 0.58609-4.6199 1.6045-8.7974 4.4631-11.966 8.1883v2e-5" fill="url(#linearGradient18824)"/>
  <path transform="translate(60 -58.362)" d="m83.239 153.08c-0.2265-0.28623-0.55114-0.48799-0.90129-0.59103s-0.72467-0.1104-1.0844-0.0488c-0.71953 0.12322-1.3645 0.51049-1.9657 0.9245-1.7086 1.1765-3.2189 2.6282-4.5373 4.2298-1.7452 2.12-3.185 4.5717-3.6676 7.2749-0.08131 0.45547-0.13511 0.92132-0.07821 1.3805 0.0569 0.45916 0.23279 0.91479 0.55871 1.2432 0.28617 0.28835 0.67573 0.46425 1.0778 0.52203 0.40212 0.0578 0.8159 2e-3 1.2008-0.12836 0.76971-0.26019 1.409-0.79942 2.0144-1.3413 3.336-2.9855 6.3525-6.5678 7.5596-10.879 0.12113-0.43261 0.22401-0.87566 0.22123-1.3249-0.0028-0.44924-0.11924-0.90947-0.39801-1.2618" fill="#f6da4a" filter="url(#filter14963-7)"/>
  <path d="m135.25 88.528c0.23129 0.7424 1.4278 0.61935 2.1191 0.97542 0.60659 0.31244 1.0945 0.99723 1.7765 1.0169 0.65093 0.0188 1.664-0.22542 1.7487-0.87109 0.11187-0.85303-1.1338-1.3951-1.9354-1.7076-1.0315-0.40216-2.353-0.6062-3.3206-0.0682-0.22173 0.12328-0.46373 0.41238-0.38827 0.65458z" fill="url(#radialGradient18826)" filter="url(#filter15177-1)" opacity=".8"/>
  <path d="m123.83 88.108c-0.88816-0.28854-2.3575 1.2775-1.8781 2.0789 0.13167 0.22009 0.53491 0.49916 0.80641 0.34992 0.40925-0.22497 0.74404-1.0296 1.1875-1.345 0.29608-0.21058 0.22974-0.97156-0.11581-1.0838z" fill="url(#radialGradient18828)" filter="url(#filter15173-0)" opacity=".8"/>
  <path transform="matrix(1.0956 0 -.17018 1.5181 -76.244 -140.48)" d="m245.9 158.28a2.6081 2.3281 0 0 1-2.6081 2.3281 2.6081 2.3281 0 0 1-2.6081-2.3281 2.6081 2.3281 0 0 1 2.6081-2.3281 2.6081 2.3281 0 0 1 2.6081 2.3281z" clip-path="url(#clipPath697)" fill="url(#linearGradient18830)" filter="url(#filter28584-4)"/>
 </g>
</svg>
