<svg xmlns="http://www.w3.org/2000/svg" xmlns:xlink="http://www.w3.org/1999/xlink" viewBox="0 0 209.687 255.997">
  <defs>
    <filter id="U" width="1.215" height="1.217" x="-.108" y="-.108" color-interpolation-filters="sRGB">
      <feGaussianBlur stdDeviation="3.924"/>
    </filter>
    <filter id="W" color-interpolation-filters="sRGB">
      <feGaussianBlur stdDeviation="2.437"/>
    </filter>
    <filter id="Z" color-interpolation-filters="sRGB">
      <feGaussianBlur stdDeviation=".37"/>
    </filter>
    <filter id="H" width="1.202" height="1.085" x="-.101" y="-.043" color-interpolation-filters="sRGB">
      <feGaussianBlur stdDeviation="1.132"/>
    </filter>
    <filter id="af" width="1.141" height="1.301" x="-.07" y="-.151" color-interpolation-filters="sRGB">
      <feGaussianBlur stdDeviation="1.025"/>
    </filter>
    <filter id="ai" width="1.141" height="1.301" x="-.07" y="-.151" color-interpolation-filters="sRGB">
      <feGaussianBlur stdDeviation="1.025"/>
    </filter>
    <filter id="ab" width="1.401" height="1.468" x="-.201" y="-.234" color-interpolation-filters="sRGB">
      <feGaussianBlur stdDeviation="2.844"/>
    </filter>
    <filter id="ad" width="1.183" height="1.213" x="-.091" y="-.107" color-interpolation-filters="sRGB">
      <feGaussianBlur stdDeviation="1.297"/>
    </filter>
    <filter id="x" width="1.939" height="1.547" x="-.469" y="-.274" color-interpolation-filters="sRGB">
      <feGaussianBlur stdDeviation=".86"/>
    </filter>
    <filter id="y" width="2.208" height="1.964" x="-.604" y="-.482" color-interpolation-filters="sRGB">
      <feGaussianBlur stdDeviation="2.64"/>
    </filter>
    <filter id="K" color-interpolation-filters="sRGB">
      <feGaussianBlur stdDeviation="2.209"/>
    </filter>
    <filter id="M" width="1.29" height="1.286" x="-.145" y="-.143" color-interpolation-filters="sRGB">
      <feGaussianBlur stdDeviation="4.779"/>
    </filter>
    <filter id="O" width="1.231" height="1.25" x="-.115" y="-.125" color-interpolation-filters="sRGB">
      <feGaussianBlur stdDeviation="3.173"/>
    </filter>
    <filter id="R" width="1.042" height="1.258" x="-.021" y="-.129" color-interpolation-filters="sRGB">
      <feGaussianBlur stdDeviation=".479"/>
    </filter>
    <filter id="A" width="1.355" height="1.319" x="-.178" y="-.159" color-interpolation-filters="sRGB">
      <feGaussianBlur stdDeviation=".901"/>
    </filter>
    <filter id="w" width="2.633" height="1.116" x="-.817" y="-.058" color-interpolation-filters="sRGB">
      <feGaussianBlur stdDeviation="1.446"/>
    </filter>
    <filter id="v" color-interpolation-filters="sRGB">
      <feGaussianBlur stdDeviation=".785"/>
    </filter>
    <filter id="t" color-interpolation-filters="sRGB">
      <feGaussianBlur stdDeviation="1.138"/>
    </filter>
    <filter id="r" color-interpolation-filters="sRGB">
      <feGaussianBlur stdDeviation=".643"/>
    </filter>
    <filter id="F" width="1.235" height="1.08" x="-.118" y="-.04" color-interpolation-filters="sRGB">
      <feGaussianBlur stdDeviation="1.352"/>
    </filter>
    <filter id="aB" width="1.31" height="1.43" x="-.155" y="-.215" color-interpolation-filters="sRGB">
      <feGaussianBlur stdDeviation=".899"/>
    </filter>
    <filter id="aC" color-interpolation-filters="sRGB">
      <feGaussianBlur stdDeviation=".758"/>
    </filter>
    <filter id="aE" width="1.322" height="1.261" x="-.161" y="-.13" color-interpolation-filters="sRGB">
      <feGaussianBlur stdDeviation=".849"/>
    </filter>
    <filter id="aG" color-interpolation-filters="sRGB">
      <feGaussianBlur stdDeviation=".11"/>
    </filter>
    <filter id="aI" width="1.233" height="1.212" x="-.116" y="-.106" color-interpolation-filters="sRGB">
      <feGaussianBlur stdDeviation=".11"/>
    </filter>
    <filter id="aK" width="1.215" height="1.272" x="-.107" y="-.136" color-interpolation-filters="sRGB">
      <feGaussianBlur stdDeviation=".264"/>
    </filter>
    <filter id="am" width="1.469" height="1.292" x="-.234" y="-.146" color-interpolation-filters="sRGB">
      <feGaussianBlur stdDeviation=".513"/>
    </filter>
    <filter id="aq" color-interpolation-filters="sRGB">
      <feGaussianBlur stdDeviation=".135"/>
    </filter>
    <filter id="ay" color-interpolation-filters="sRGB">
      <feGaussianBlur stdDeviation=".147"/>
    </filter>
    <filter id="as" width="1.316" height="1.418" x="-.158" y="-.209" color-interpolation-filters="sRGB">
      <feGaussianBlur stdDeviation=".249"/>
    </filter>
    <filter id="au" width="1.357" height="1.363" x="-.179" y="-.181" color-interpolation-filters="sRGB">
      <feGaussianBlur stdDeviation=".519"/>
    </filter>
    <filter id="z" width="1.584" height="1.617" x="-.292" y="-.308" color-interpolation-filters="sRGB">
      <feGaussianBlur stdDeviation="1.74"/>
    </filter>
    <filter id="D" color-interpolation-filters="sRGB">
      <feGaussianBlur stdDeviation=".932"/>
    </filter>
    <filter id="B" width="1.153" height="1.258" x="-.076" y="-.129" color-interpolation-filters="sRGB">
      <feGaussianBlur stdDeviation="2.036"/>
    </filter>
    <linearGradient id="i">
      <stop offset="0" stop-color="#b98309"/>
      <stop offset="1" stop-color="#382605"/>
    </linearGradient>
    <linearGradient id="h">
      <stop offset="0" stop-color="#7c7c7c"/>
      <stop offset="1" stop-color="#7c7c7c" stop-opacity=".329"/>
    </linearGradient>
    <linearGradient id="g">
      <stop offset="0" stop-color="#110800"/>
      <stop offset=".591" stop-color="#a65a00" stop-opacity=".8"/>
      <stop offset="1" stop-color="#ff921e" stop-opacity="0"/>
    </linearGradient>
    <linearGradient id="f">
      <stop offset="0" stop-color="#3e2a06"/>
      <stop offset="1" stop-color="#ad780a"/>
    </linearGradient>
    <linearGradient id="e">
      <stop offset="0"/>
      <stop offset="1" stop-opacity=".249"/>
    </linearGradient>
    <linearGradient id="c">
      <stop offset="0" stop-color="#d2940a"/>
      <stop offset=".751" stop-color="#d89c08"/>
      <stop offset=".866" stop-color="#b67e07"/>
      <stop offset="1" stop-color="#946106"/>
    </linearGradient>
    <linearGradient id="d">
      <stop offset="0" stop-color="#3a2903"/>
      <stop offset=".555" stop-color="#735208"/>
      <stop offset="1" stop-color="#ac8c04"/>
    </linearGradient>
    <linearGradient id="b">
      <stop offset="0" stop-color="#646464" stop-opacity="0"/>
      <stop offset=".306" stop-color="#646464" stop-opacity=".583"/>
      <stop offset=".47" stop-color="#646464"/>
      <stop offset=".728" stop-color="#646464" stop-opacity=".257"/>
      <stop offset="1" stop-color="#646464" stop-opacity="0"/>
    </linearGradient>
    <linearGradient id="a">
      <stop offset="0" stop-color="#fefefc"/>
      <stop offset=".757" stop-color="#fefefc"/>
      <stop offset="1" stop-color="#d4d4d4"/>
    </linearGradient>
    <linearGradient id="at" x1="213.02" x2="219.73" y1="132.77" y2="140.72" gradientTransform="translate(-60 -58.362)" gradientUnits="userSpaceOnUse">
      <stop offset="0" stop-color="#949494" stop-opacity=".392"/>
      <stop offset=".5" stop-color="#949494"/>
      <stop offset="1" stop-color="#949494" stop-opacity=".392"/>
    </linearGradient>
    <linearGradient id="av" x1="337.25" x2="358.62" y1="119.99" y2="132.49" gradientTransform="translate(-250)" gradientUnits="userSpaceOnUse">
      <stop offset="0" stop-color="#747474"/>
      <stop offset=".125" stop-color="#8c8c8c"/>
      <stop offset=".25" stop-color="#a4a4a4"/>
      <stop offset=".5" stop-color="#d4d4d4"/>
      <stop offset=".619" stop-color="#d4d4d4"/>
      <stop offset="1" stop-color="#7c7c7c"/>
    </linearGradient>
    <linearGradient id="ax" x1="294.51" x2="308.74" y1="114.56" y2="128" gradientTransform="translate(-300 -1)" gradientUnits="userSpaceOnUse" xlink:href="#b"/>
    <linearGradient id="ap" x1="253.23" x2="266.63" y1="115.67" y2="128.57" gradientTransform="translate(-300 -1)" gradientUnits="userSpaceOnUse" xlink:href="#b"/>
    <linearGradient id="al" x1="164.05" x2="169.88" y1="132.06" y2="142.49" gradientTransform="translate(-50 -58.362)" gradientUnits="userSpaceOnUse">
      <stop offset="0" stop-color="#757574" stop-opacity="0"/>
      <stop offset=".263" stop-color="#757574"/>
      <stop offset=".5" stop-color="#757574"/>
      <stop offset="1" stop-color="#757574" stop-opacity="0"/>
    </linearGradient>
    <linearGradient id="aD" x1="256.86" x2="313.34" y1="158.31" y2="157.87" gradientTransform="translate(-210)" gradientUnits="userSpaceOnUse">
      <stop offset="0" stop-color="#ad780a"/>
      <stop offset=".12" stop-color="#d89e08"/>
      <stop offset=".255" stop-color="#edb80b"/>
      <stop offset=".392" stop-color="#ebc80d"/>
      <stop offset=".527" stop-color="#f5d838"/>
      <stop offset=".769" stop-color="#f6d811"/>
      <stop offset="1" stop-color="#f5cd31"/>
    </linearGradient>
    <linearGradient id="aJ" x1="243.03" x2="243.47" y1="157.02" y2="159.77" gradientUnits="userSpaceOnUse">
      <stop offset="0" stop-color="#f5ce2d"/>
      <stop offset="1" stop-color="#d79b08"/>
    </linearGradient>
    <linearGradient id="J" x1="338.29" x2="341.98" y1="323.9" y2="351.49" gradientTransform="translate(-310)" gradientUnits="userSpaceOnUse">
      <stop offset="0"/>
      <stop offset="1" stop-opacity="0"/>
    </linearGradient>
    <linearGradient id="L" x1="442.04" x2="490.12" y1="371.54" y2="293.59" gradientTransform="translate(-250 -58.362)" gradientUnits="userSpaceOnUse" xlink:href="#f"/>
    <linearGradient id="Q" x1="355.16" x2="353.75" y1="289.59" y2="302.32" gradientTransform="translate(-150 -60.362)" gradientUnits="userSpaceOnUse">
      <stop offset="0" stop-color="#f3cd0c"/>
      <stop offset="1" stop-color="#f3cd0c" stop-opacity="0"/>
    </linearGradient>
    <linearGradient id="ah" x1="358.5" x2="361.5" y1="279.36" y2="279.24" gradientUnits="userSpaceOnUse" xlink:href="#h"/>
    <linearGradient id="T" x1="123.13" x2="170.86" y1="301.54" y2="381.62" gradientTransform="translate(-80 -58.362)" gradientUnits="userSpaceOnUse" xlink:href="#i"/>
    <linearGradient id="Y" x1="171.57" x2="186.6" y1="323.99" y2="352.28" gradientTransform="translate(-80.53 -60.13)" gradientUnits="userSpaceOnUse">
      <stop offset="0" stop-color="#ebc40c"/>
      <stop offset="1" stop-color="#ebc40c" stop-opacity="0"/>
    </linearGradient>
    <linearGradient id="j" x1="123.13" x2="170.86" y1="301.54" y2="381.62" gradientUnits="userSpaceOnUse" xlink:href="#i"/>
    <linearGradient id="k" x1="442.04" x2="490.12" y1="371.54" y2="293.59" gradientTransform="translate(-250 -58.362)" gradientUnits="userSpaceOnUse" xlink:href="#f"/>
    <linearGradient id="l" x1="442.04" x2="490.12" y1="371.54" y2="293.59" gradientTransform="matrix(.87491 0 0 .81149 -158.36 15.227)" gradientUnits="userSpaceOnUse" xlink:href="#f"/>
    <linearGradient id="m" x1="442.04" x2="490.12" y1="371.54" y2="293.59" gradientTransform="translate(-500 -116.72)" gradientUnits="userSpaceOnUse" xlink:href="#f"/>
    <radialGradient id="ak" cx="223.2" cy="137.66" r="14.572" gradientTransform="matrix(.81524 -.03431 .02961 1.248 -208.44 -35.543)" gradientUnits="userSpaceOnUse" xlink:href="#a"/>
    <radialGradient id="ar" cx="223.2" cy="137.66" r="14.572" gradientTransform="matrix(1.0858 -.03431 .03944 1.248 -233.54 -35.543)" gradientUnits="userSpaceOnUse" xlink:href="#a"/>
    <radialGradient id="az" cx="275.54" cy="150.65" r="15.382" gradientTransform="matrix(.69785 -.50717 .46034 .63341 -271.1 183.03)" gradientUnits="userSpaceOnUse">
      <stop offset="0" stop-color="#020204"/>
      <stop offset=".734" stop-color="#020204"/>
      <stop offset="1" stop-color="#5c5c5c"/>
    </radialGradient>
    <radialGradient id="aA" cx="294.48" cy="193.1" r="31.111" gradientTransform="matrix(.93619 -.3864 .27133 .65739 -244.48 146.72)" gradientUnits="userSpaceOnUse" xlink:href="#c"/>
    <radialGradient id="aF" cx="77.672" cy="147.09" r="3.23" gradientTransform="matrix(1 0 0 .58333 60 3.054)" gradientUnits="userSpaceOnUse" xlink:href="#d"/>
    <radialGradient id="aH" cx="63.125" cy="147.44" r="1.535" gradientTransform="matrix(1 0 0 1.0751 60 -69.456)" gradientUnits="userSpaceOnUse" xlink:href="#d"/>
    <radialGradient id="an" cx="268.07" cy="126.53" r="35.511" gradientTransform="matrix(.20141 -.03316 .03065 .18616 -3.126 114.04)" gradientUnits="userSpaceOnUse">
      <stop offset="0" stop-color="#c8c8c8"/>
      <stop offset="1" stop-color="#797978"/>
    </radialGradient>
    <radialGradient id="q" cx="336.22" cy="220.54" r="27.391" gradientTransform="matrix(-.69844 0 0 .76336 166.31 50.22)" gradientUnits="userSpaceOnUse" xlink:href="#e"/>
    <radialGradient id="s" cx="312.15" cy="236.37" r="27.391" gradientTransform="matrix(1 0 0 .76336 -150 -8.142)" gradientUnits="userSpaceOnUse" xlink:href="#e"/>
    <radialGradient id="u" cx="275.55" cy="225.13" r="10.845" gradientTransform="matrix(1 0 0 1.0692 -150 -73.222)" gradientUnits="userSpaceOnUse" xlink:href="#e"/>
    <radialGradient id="aa" cx="363.34" cy="303.42" r="16.846" gradientTransform="matrix(1.3082 .35053 -.36795 1.3732 -150.51 -298.71)" gradientUnits="userSpaceOnUse" xlink:href="#g"/>
    <radialGradient id="ac" cx="363.34" cy="303.42" r="16.846" gradientTransform="matrix(1.3082 .35053 -.36795 1.3732 -310.51 -240.35)" gradientUnits="userSpaceOnUse" xlink:href="#g"/>
    <radialGradient id="ae" cx="382.23" cy="246.86" r="20.538" gradientTransform="matrix(.36025 .1568 -.07247 .16649 260.62 181.94)" gradientUnits="userSpaceOnUse" xlink:href="#h"/>
    <radialGradient id="n" cx="223.2" cy="137.66" r="14.572" gradientTransform="matrix(1.0858 -.03431 .03944 1.248 -15.542 -75.905)" gradientUnits="userSpaceOnUse" xlink:href="#a"/>
    <radialGradient id="o" cx="223.2" cy="137.66" r="14.572" gradientTransform="matrix(.81524 -.03431 .02961 1.248 9.562 -75.905)" gradientUnits="userSpaceOnUse" xlink:href="#a"/>
    <radialGradient id="p" cx="294.48" cy="193.1" r="31.111" gradientTransform="matrix(.81495 -.25453 .31491 .43302 -75.371 150.74)" gradientUnits="userSpaceOnUse" xlink:href="#c"/>
    <clipPath id="X">
      <path fill="url(#j)" d="M137.58 281.02c1.6-.663 3.398-.784 5.1-.47 1.703.314 3.312 1.05 4.744 2.023 2.864 1.946 4.988 4.777 7.023 7.58 4.672 6.433 9.168 13.001 13.245 19.828 3.306 5.538 6.343 11.257 10.164 16.453 2.494 3.392 5.306 6.54 7.813 9.922 2.506 3.383 4.728 7.056 5.839 11.117 1.444 5.277.885 11.093-1.627 15.953-1.766 3.42-4.476 6.353-7.772 8.34-3.296 1.986-7.17 3.014-11.016 2.87-6.114-.23-11.7-3.286-17.384-5.55-11.581-4.612-24.16-6.059-36.097-9.651-3.669-1.104-7.276-2.41-10.97-3.426-1.641-.452-3.309-.849-4.859-1.552-1.55-.703-3-1.749-3.862-3.217-.666-1.134-.948-2.47-.93-3.785.018-1.316.326-2.615.774-3.852.896-2.474 2.343-4.713 3.32-7.157 1.595-3.99 1.882-8.388 1.667-12.679-.215-4.29-.91-8.545-1.205-12.83-.13-1.915-.18-3.853.185-5.737.366-1.883 1.176-3.724 2.558-5.055 1.274-1.227 2.965-1.955 4.696-2.317 1.732-.36 3.516-.377 5.284-.337 1.768.04 3.54.134 5.303-.01 1.763-.146 3.534-.541 5.07-1.42 1.46-.834 2.654-2.074 3.643-3.433.99-1.36 1.79-2.846 2.61-4.314.819-1.469 1.667-2.932 2.74-4.226 1.074-1.295 2.39-2.423 3.943-3.067" transform="matrix(1 0 0 1.0183 0 -4.031)"/>
    </clipPath>
    <clipPath id="V">
      <path fill="url(#j)" d="M137.58 281.02c1.6-.663 3.398-.784 5.1-.47 1.703.314 3.312 1.05 4.744 2.023 2.864 1.946 4.988 4.777 7.023 7.58 4.672 6.433 9.168 13.001 13.245 19.828 3.306 5.538 6.343 11.257 10.164 16.453 2.494 3.392 5.306 6.54 7.813 9.922 2.506 3.383 4.728 7.056 5.839 11.117 1.444 5.277.885 11.093-1.627 15.953-1.766 3.42-4.476 6.353-7.772 8.34-3.296 1.986-7.17 3.014-11.016 2.87-6.114-.23-11.7-3.286-17.384-5.55-11.581-4.612-24.16-6.059-36.097-9.651-3.669-1.104-7.276-2.41-10.97-3.426-1.641-.452-3.309-.849-4.859-1.552-1.55-.703-3-1.749-3.862-3.217-.666-1.134-.948-2.47-.93-3.785.018-1.316.326-2.615.774-3.852.896-2.474 2.343-4.713 3.32-7.157 1.595-3.99 1.882-8.388 1.667-12.679-.215-4.29-.91-8.545-1.205-12.83-.13-1.915-.18-3.853.185-5.737.366-1.883 1.176-3.724 2.558-5.055 1.274-1.227 2.965-1.955 4.696-2.317 1.732-.36 3.516-.377 5.284-.337 1.768.04 3.54.134 5.303-.01 1.763-.146 3.534-.541 5.07-1.42 1.46-.834 2.654-2.074 3.643-3.433.99-1.36 1.79-2.846 2.61-4.314.819-1.469 1.667-2.932 2.74-4.226 1.074-1.295 2.39-2.423 3.943-3.067" transform="translate(-240 -1)"/>
    </clipPath>
    <clipPath id="N">
      <path fill="url(#k)" d="M513.19 336.61c-2.624 3.115-6.268 5.17-9.896 7.02-6.19 3.154-12.602 5.922-18.42 9.716-3.898 2.543-7.496 5.527-10.86 8.743-2.878 2.75-5.606 5.687-8.833 8.017-3.256 2.352-7.02 4.055-10.991 4.65-4.83.725-9.821-.212-14.299-2.164-3.137-1.367-6.156-3.323-7.963-6.229-1.814-2.917-2.228-6.488-2.233-9.924-.008-6.076 1.119-12.09 2.179-18.073.88-4.972 1.72-9.955 2.26-14.975.983-9.13.976-18.353.32-27.513-.11-1.534-.238-3.083-.008-4.604.229-1.52.855-3.037 2.02-4.04 1.078-.926 2.521-1.336 3.94-1.414 1.419-.079 2.834.146 4.24.352 3.312.484 6.651.865 9.889 1.716 2.043.538 4.033 1.26 6.072 1.811 3.403.92 6.967 1.362 10.467.952 3.77-.44 7.43-1.857 11.224-1.765 1.557.038 3.102.332 4.587.8 1.515.478 3.009 1.162 4.123 2.295.846.862 1.435 1.946 1.878 3.07.66 1.673 1.015 3.456 1.167 5.249.135 1.587.114 3.194.415 4.759.495 2.574 1.847 4.923 3.528 6.935 1.681 2.012 3.69 3.72 5.696 5.408 2 1.68 4.011 3.354 6.168 4.828 1.012.692 2.056 1.34 3.017 2.1.96.762 1.845 1.647 2.445 2.716.815 1.45 1.064 3.208.538 4.877-.526 1.668-1.482 3.276-2.67 4.688z"/>
    </clipPath>
    <clipPath id="P">
      <path fill="url(#l)" stroke-width=".843" d="M509.36 335.74c-2.296 2.528-5.484 4.196-8.659 5.697-5.414 2.56-11.025 4.805-16.116 7.884-3.41 2.063-6.558 4.485-9.501 7.095-2.518 2.231-4.905 4.615-7.728 6.506-2.848 1.908-6.14 3.29-9.616 3.773-4.226.589-8.592-.172-12.51-1.756-2.745-1.11-5.385-2.696-6.966-5.055-1.588-2.367-1.95-5.265-1.954-8.053-.007-4.93.978-9.81 1.906-14.666.77-4.034 1.505-8.078 1.978-12.152.86-7.41.854-14.893.28-22.327-.097-1.245-.208-2.502-.008-3.736.2-1.234.748-2.464 1.768-3.278.943-.752 2.206-1.084 3.447-1.148 1.241-.064 2.48.119 3.71.286 2.898.392 5.82.701 8.652 1.393 1.787.436 3.528 1.022 5.312 1.469 2.977.747 6.095 1.105 9.158.772 3.298-.357 6.5-1.506 9.82-1.432 1.362.031 2.713.27 4.013.65 1.326.387 2.632.942 3.607 1.862.74.699 1.256 1.579 1.644 2.49.577 1.358.888 2.806 1.02 4.26.118 1.289.1 2.592.363 3.862.433 2.09 1.616 3.995 3.087 5.628 1.47 1.632 3.228 3.019 4.984 4.388 1.75 1.364 3.509 2.723 5.396 3.918.885.562 1.799 1.087 2.64 1.705.84.618 1.613 1.336 2.14 2.204.712 1.176.93 2.603.47 3.957-.461 1.354-1.297 2.659-2.337 3.804z"/>
    </clipPath>
    <clipPath id="S">
      <path fill="url(#m)" d="M263.19 278.25c-2.624 3.115-6.268 5.17-9.896 7.02-6.19 3.154-12.603 5.922-18.42 9.716-3.899 2.543-7.496 5.527-10.86 8.743-2.878 2.75-5.606 5.687-8.833 8.017-3.256 2.352-7.02 4.055-10.991 4.65-4.83.725-9.821-.212-14.299-2.164-3.138-1.367-6.156-3.323-7.963-6.229-1.814-2.917-2.228-6.488-2.233-9.924-.008-6.076 1.118-12.09 2.179-18.073.88-4.972 1.72-9.955 2.26-14.975.983-9.13.976-18.353.32-27.513-.11-1.534-.238-3.083-.008-4.604.229-1.52.855-3.037 2.02-4.04 1.077-.926 2.521-1.336 3.94-1.414 1.418-.079 2.834.146 4.24.352 3.312.484 6.651.865 9.889 1.716 2.043.538 4.033 1.26 6.072 1.811 3.403.92 6.967 1.362 10.467.952 3.77-.44 7.43-1.857 11.224-1.765 1.557.038 3.102.332 4.587.8 1.515.478 3.009 1.162 4.122 2.295.847.862 1.436 1.946 1.88 3.07.659 1.673 1.014 3.456 1.166 5.249.135 1.587.114 3.194.415 4.759.495 2.574 1.847 4.923 3.528 6.935 1.681 2.012 3.69 3.72 5.696 5.408 2 1.68 4.011 3.354 6.168 4.828 1.012.692 2.056 1.34 3.017 2.1.96.762 1.845 1.647 2.445 2.716.815 1.45 1.064 3.208.538 4.877-.526 1.668-1.482 3.276-2.67 4.688z"/>
    </clipPath>
    <clipPath id="G">
      <path fill="#020204" stroke-width=".991" d="M304.85 225.45c5.977 4.895 9.769 12.286 10.943 20.003.916 6.019.32 12.195-1.012 18.132-1.333 5.937-3.391 11.676-5.434 17.401-.814 2.283-1.633 4.587-1.956 6.993-.324 2.406-.119 4.955 1.02 7.088 1.308 2.446 3.746 4.13 6.368 4.923 2.588.783 5.383.766 8.003.102 2.62-.665 5.066-1.964 7.199-3.65 5.417-4.283 8.686-10.949 9.952-17.812 1.265-6.863.684-13.95-.493-20.83-1.604-9.381-4.304-18.55-7.74-27.408a96.091 96.091 0 0 0-9.618-18.52c-3.779-5.668-9.141-10.093-13.103-15.635-1.376-1.925-3.031-3.931-4.384-5.878-2.916-4.198-2.255-3.415-4.064-6.132-1.312-1.971-3.384-2.648-5.565-3.51-2.18-.863-4.629-1.117-6.88-.472-2.968.85-5.393 3.231-6.683 6.082s-1.515 6.123-1.013 9.22c.647 3.996 2.442 7.703 4.465 11.19 2.286 3.937 4.933 7.726 8.385 10.653 3.602 3.055 7.958 5.07 11.61 8.06"/>
    </clipPath>
    <clipPath id="I">
      <path fill="#020204" d="M240.47 195.04c-7.073 8.037-14.352 15.816-18.346 24.505-1.976 4.413-2.91 9.207-4.265 13.849-1.538 5.272-3.626 10.37-5.97 15.336-2.166 4.585-4.55 9.063-6.94 13.536-1.738 3.254-3.505 6.581-4.107 10.221-.477 2.876-.199 5.844.533 8.666.733 2.822 1.91 5.51 3.238 8.106 5.667 11.075 14.17 20.622 24.242 27.925a85.167 85.167 0 0 0 14.602 8.526c2.783 1.27 5.714 2.405 8.772 2.458 1.53.026 3.074-.226 4.474-.84 1.4-.616 2.651-1.605 3.483-2.888 1.023-1.578 1.37-3.538 1.164-5.407-.205-1.87-.934-3.653-1.913-5.26-2.39-3.922-6.165-6.76-9.796-9.572-7.84-6.074-15.425-12.48-22.682-19.24-2.05-1.909-4.099-3.878-5.53-6.285-1.395-2.343-2.148-5.013-2.658-7.692-1.4-7.349-1.041-15.083 1.46-22.133.978-2.758 2.27-5.392 3.518-8.04 2.161-4.589 4.207-9.265 7.049-13.467 3.538-5.23 8.267-9.66 11.15-15.278 2.435-4.741 3.42-10.072 4.363-15.318.737-4.104 2.15-8.124 2.869-12.232-1.406 2.666-5.938 7.043-8.71 10.525z"/>
    </clipPath>
    <clipPath id="ag">
      <path fill="#020204" d="M386.19 285.33c-.405-1.104-1.118-2.082-1.99-2.87-.873-.788-1.901-1.392-2.983-1.851-2.165-.919-4.521-1.262-6.832-1.696-2.18-.41-4.342-.906-6.528-1.277-2.271-.386-4.618-.633-6.865-.126-1.966.444-3.785 1.46-5.272 2.819-1.487 1.36-2.649 3.056-3.485 4.89-1.472 3.23-1.934 6.865-1.654 10.403.21 2.633.876 5.346 2.61 7.34 1.4 1.61 3.386 2.614 5.433 3.22a18.39 18.39 0 0 0 10.86-.155 28.582 28.582 0 0 0 14.33-10.78c1.139-1.649 2.112-3.447 2.553-5.403.336-1.49.349-3.08-.178-4.514"/>
    </clipPath>
    <clipPath id="aj">
      <path fill="#020204" d="M386.19 285.33c-.405-1.104-1.118-2.082-1.99-2.87-.873-.788-1.901-1.392-2.983-1.851-2.165-.919-4.521-1.262-6.832-1.696-2.18-.41-4.342-.906-6.528-1.277-2.271-.386-4.618-.633-6.865-.126-1.966.444-3.785 1.46-5.272 2.819-1.487 1.36-2.649 3.056-3.485 4.89-1.472 3.23-1.934 6.865-1.654 10.403.21 2.633.876 5.346 2.61 7.34 1.4 1.61 3.386 2.614 5.433 3.22a18.39 18.39 0 0 0 10.86-.155 28.582 28.582 0 0 0 14.33-10.78c1.139-1.649 2.112-3.447 2.553-5.403.336-1.49.349-3.08-.178-4.514"/>
    </clipPath>
    <clipPath id="aw">
      <path fill="url(#n)" d="M85.75 122.36c-2.78 1.91-5.11 4.575-6.25 7.75-1.436 4.002-.886 8.48.5 12.5 1.42 4.117 3.794 8.041 7.38 10.512 1.792 1.236 3.867 2.083 6.03 2.339 2.162.255 4.409-.095 6.34-1.101 2.353-1.226 4.148-3.373 5.262-5.781 1.115-2.408 1.589-5.07 1.738-7.72.19-3.375-.14-6.806-1.25-10-1.205-3.468-3.39-6.67-6.473-8.666-1.541-.998-3.292-1.683-5.11-1.935-1.82-.252-3.706-.063-5.417.602-.976.379-1.888.907-2.75 1.5"/>
    </clipPath>
    <clipPath id="ao">
      <path fill="url(#o)" d="M54.232 122.36c-1.781.097-3.485.919-4.788 2.137-1.303 1.217-2.221 2.812-2.786 4.503-1.13 3.384-.875 7.052-.619 10.61.233 3.222.47 6.506 1.677 9.502.603 1.498 1.45 2.91 2.58 4.064 1.13 1.154 2.552 2.042 4.119 2.434 1.469.368 3.038.292 4.483-.162 1.444-.454 2.763-1.279 3.846-2.338 1.579-1.545 2.643-3.566 3.253-5.69.61-2.122.784-4.35.753-6.56-.04-2.764-.401-5.538-1.266-8.164-.865-2.626-2.246-5.103-4.173-7.086-.933-.96-1.998-1.805-3.199-2.397-1.2-.592-2.543-.925-3.88-.853"/>
    </clipPath>
    <clipPath id="aL">
      <path fill="url(#p)" stroke-width=".775" d="M214.64 148.04a27.27 27.27 0 0 0-7.271.884c-4.053 1.057-7.574 2.94-10.086 5.393-1.628.855-3.05 1.9-4.207 3.086-.662.68-1.244 1.417-1.501 2.248-.202.653-.199 1.345-.285 2.02-.033.253-.078.507-.036.765.02.13.063.259.137.381.022.037.053.07.08.106.083.15.184.297.315.43.289.294.68.532 1.095.733.414.2.852.367 1.281.55 2.28.965 4.228 2.324 5.993 3.758 2.367 1.925 4.53 4.061 7.51 5.46 2.104.988 4.527 1.552 6.926 1.724 2.816.202 5.585-.123 8.181-.693 2.407-.529 4.697-1.271 6.752-2.254 3.907-1.868 6.987-4.606 11.424-5.835.969-.268 1.99-.459 2.913-.79.923-.33 1.763-.826 2.12-1.527.343-.673.205-1.45.236-2.19.033-.79.263-1.555.333-2.342.07-.787-.038-1.629-.622-2.352-.13-.16-.283-.31-.452-.451-.05-.293-.221-.58-.466-.833-.505-.52-1.293-.872-2.095-1.117-1.098-.335-2.256-.502-3.4-.696a66.981 66.981 0 0 1-10.294-2.603c-1.653-.561-3.27-1.184-4.904-1.78-1.68-.612-3.387-1.2-5.166-1.577a23.68 23.68 0 0 0-4.512-.498z"/>
    </clipPath>
    <clipPath id="C">
      <path fill="#fdfdfb" d="M-26.296 154.81c-1.046 1.311-1.728 2.887-2.14 4.514-.41 1.626-.562 3.308-.626 4.984-.128 3.353.077 6.77-.81 10.006-.95 3.46-3.077 6.457-5.158 9.378-3.605 5.06-7.249 10.25-9.027 16.202a28.777 28.777 0 0 0-1.049 11.165 118.055 118.055 0 0 0-10.423 18.781c-4.386 9.942-7.396 20.526-8.454 31.341-1.297 13.242.397 26.862 5.627 39.097 3.781 8.846 9.418 16.944 16.686 23.247a57.062 57.062 0 0 0 12.189 8.097c15.213 7.477 34.013 7.491 48.973-.48 7.818-4.166 14.418-10.258 20.781-16.422 3.832-3.712 7.644-7.513 10.567-11.976 5.628-8.592 7.588-19.036 8.805-29.234 2.13-17.833 2.199-36.67-5.621-52.838a58.29 58.29 0 0 0-10.581-15.141 82.97 82.97 0 0 0-6.692-22.542c-2.37-5.155-5.268-10.062-7.47-15.291-.905-2.147-1.69-4.345-2.694-6.447-1.004-2.102-2.242-4.125-3.925-5.735-1.723-1.65-3.87-2.819-6.136-3.567-2.265-.748-4.649-1.087-7.031-1.207-4.765-.24-9.539.384-14.306.195-3.795-.15-7.578-.816-11.37-.592-1.895.112-3.79.45-5.55 1.165-1.759.714-3.381 1.817-4.566 3.301"/>
    </clipPath>
    <clipPath id="E">
      <path fill="#fdfdfb" stroke-width="1.042" d="M-47.296 161.44c-1.046 1.424-1.728 3.135-2.14 4.9-.41 1.766-.562 3.592-.626 5.412-.128 3.64.077 7.35-.81 10.863-.95 3.755-3.077 7.01-5.158 10.18-3.605 5.493-7.249 11.129-9.027 17.59a33.8 33.8 0 0 0-1.049 12.122 131.77 131.77 0 0 0-10.423 20.389c-4.386 10.793-7.396 22.285-8.454 34.025-1.297 14.377.397 29.163 5.627 42.445 3.781 9.603 9.418 18.395 16.686 25.238 3.695 3.479 7.8 6.448 12.189 8.79 15.213 8.118 34.013 8.133 48.973-.521 7.818-4.523 14.418-11.137 20.781-17.83 3.832-4.03 7.644-8.155 10.567-13 5.628-9.328 7.588-20.666 8.805-31.738 2.13-19.361 2.199-39.811-5.621-57.364-2.692-6.043-6.279-11.615-10.581-16.437a95.945 95.945 0 0 0-6.692-24.473c-2.37-5.597-5.268-10.924-7.47-16.601-.905-2.33-1.69-4.717-2.694-7-1.004-2.282-2.242-4.478-3.925-6.226-1.723-1.79-3.87-3.06-6.136-3.872-2.265-.812-4.649-1.18-7.031-1.31-4.765-.26-9.539.416-14.306.21-3.795-.163-7.578-.885-11.37-.642-1.895.122-3.79.49-5.55 1.265-1.759.776-3.381 1.973-4.566 3.584"/>
    </clipPath>
  </defs>
  <path fill="#020204" d="M104.207.003c-6.033-.066-12.14 1.156-17.45 4.018-5.644 3.042-10.268 7.907-13.117 13.652-2.847 5.74-3.966 11.873-4.135 18.626-.322 12.832.29 26.29 1.257 38.486.257 3.713.719 5.887.247 9.697-1.588 8.105-8.68 13.56-12.46 20.678-4.17 7.853-5.927 16.731-9.075 25.047-2.88 7.61-6.924 14.745-9.653 22.41-3.817 10.719-4.958 22.497-2.436 33.591 1.922 8.458 5.937 16.388 11.348 23.172-.783 1.41-1.542 2.837-2.35 4.234-2.508 4.331-5.572 8.438-7 13.235-.714 2.399-.995 4.957-.534 7.417.46 2.46 1.705 4.812 3.662 6.372 1.281 1.022 2.826 1.68 4.422 2.048 1.596.37 3.245.46 4.883.424 6.223-.132 12.253-2.024 18.273-3.604a209.25 209.25 0 0 1 10.775-2.515c12.827-2.628 27.141-1.579 39.048.148 4.033.609 8.037 1.406 12 2.367 6.21 1.504 12.396 3.423 18.781 3.604 1.681.048 3.376-.025 5.017-.39 1.641-.366 3.233-1.033 4.548-2.082 1.96-1.563 3.205-3.92 3.666-6.384.46-2.464.176-5.03-.546-7.431-1.444-4.802-4.535-8.9-7.1-13.209-1.011-1.7-1.952-3.444-2.956-5.148 7.716-8.665 13.926-18.685 17.518-29.692 3.92-12.013 4.64-24.95 2.99-37.478-1.65-12.53-5.624-24.676-10.855-36.18-6.562-14.422-12.079-19.634-16.077-32.3-4.322-13.689-.753-29.888-3.965-42.304-1.146-4.223-2.973-8.254-5.324-11.943-2.755-4.324-6.248-8.2-10.4-11.207-6.623-4.799-14.824-7.27-23.003-7.359z"/>
  <path fill="#fdfdfb" d="M80.55 72.27c-.88 1.104-1.454 2.43-1.8 3.8-.347 1.368-.474 2.783-.528 4.194-.108 2.822.065 5.698-.682 8.421-.799 2.911-2.589 5.434-4.34 7.892-3.035 4.258-6.101 8.627-7.598 13.636a24.218 24.218 0 0 0-.882 9.396 99.353 99.353 0 0 0-8.772 15.806c-3.691 8.366-6.224 17.274-7.115 26.376-1.091 11.144.334 22.606 4.736 32.903 3.182 7.444 7.926 14.26 14.042 19.564a48.022 48.022 0 0 0 10.258 6.814c12.803 6.293 28.625 6.305 41.215-.404 6.58-3.506 12.134-8.633 17.489-13.82 3.225-3.124 6.433-6.323 8.893-10.08 4.736-7.23 6.385-16.02 7.41-24.602 1.793-15.008 1.85-30.86-4.73-44.467a49.056 49.056 0 0 0-8.905-12.743 69.825 69.825 0 0 0-5.632-18.97c-1.995-4.339-4.434-8.468-6.287-12.87-.761-1.806-1.423-3.656-2.267-5.425-.845-1.769-1.887-3.471-3.303-4.827-1.45-1.387-3.258-2.371-5.164-3-1.906-.63-3.913-.916-5.917-1.016-4.01-.202-8.028.322-12.04.163-3.194-.127-6.377-.686-9.568-.498-1.595.094-3.19.38-4.671.98-1.48.601-2.846 1.53-3.843 2.779"/>
  <path fill="url(#q)" d="M-61.003 211.59c.88 1.524-.547 6.778 19.964 3.415 0 0-3.602.458-7.153 1.405-5.521 2.133-10.33 4.517-14.04 7.675-3.675 3.121-6.367 7.197-9.74 10.697 0 0 5.462-11.52 6.824-14.987 1.361-3.469-.228-3.31.849-8.414 1.077-5.103 3.713-10.007 3.713-10.007s-2.152 7.211-.417 10.216z" filter="url(#r)" opacity=".25" style="fill:url(#q)" transform="matrix(.97144 0 0 .84158 125.684 -65.59)"/>
  <path fill="url(#s)" d="M172.05 151.86c-4.825 3.361-7.652 2.963-13.507 3.62-5.855.658-21.698.42-21.698.42s2.294-.042 7.378.905c5.083.946 15.453 1.852 21.292 4.074 5.839 2.223 7.968 2.857 11.517 5.1 5.05 3.195 8.758 8.198 13.587 11.698 0 0 .233-4.644-1.716-8.113-1.95-3.468-7.19-8.935-8.732-14.039-1.542-5.103-2.275-15.132-2.275-15.132s-1.02 8.105-5.846 11.466z" filter="url(#t)" opacity=".42" style="fill:url(#s)" transform="translate(-14.296 -16.474) scale(.84158)"/>
  <path fill="url(#u)" d="M126.67 144.68a60.31 60.31 0 0 1-.697 4.344c-.14.71-.295 1.42-.559 2.093-.264.674-.644 1.313-1.181 1.797-.47.424-1.045.716-1.62.98a24.363 24.363 0 0 1-7.109 2.019c.98.071 1.959.16 2.935.268.616.067 1.232.142 1.832.296.6.153 1.185.39 1.684.755.548.4.978.948 1.3 1.546.64 1.192.854 2.563.972 3.91.152 1.724.163 3.46.033 5.185.116-1.155.358-2.296.72-3.398.653-1.986 1.705-3.848 3.12-5.387.562-.61 1.18-1.17 1.859-1.648a10.29 10.29 0 0 1 7.236-1.76 11.239 11.239 0 0 1-7.194-2.234c-1.042-.785-1.95-1.763-2.58-2.905a8.107 8.107 0 0 1-.751-5.86" filter="url(#v)" opacity=".2" style="fill:url(#u)" transform="translate(-14.296 -16.474) scale(.84158)"/>
  <path d="M120.5 178.72a88.715 88.715 0 0 0-2.526 14.277c-.637 6.812-.483 13.672-.849 20.505-.31 5.797-.991 11.656.016 17.374a29.842 29.842 0 0 0 2.554 7.875c.193-.95.334-1.91.423-2.876.426-4.636-.354-9.287-.618-13.935-.462-8.148.666-16.29 1.125-24.438.353-6.255.31-12.532-.125-18.781" filter="url(#w)" opacity=".11" transform="translate(-14.296 -16.474) scale(.84158)"/>
  <g fill="#7c7c7c">
    <path d="M351.96 200.86c-1.452.389-1.23 3.994-.296 5.498.789 1.27 3.072 2.271 3.758 1.005 1.115-2.056-1.471-7.036-3.462-6.503z" filter="url(#x)" opacity=".25" transform="matrix(-.05884 .8054 -.47508 -.09975 184.796 -168.278)"/>
    <path d="M361.75 209.34c.002-1.533-7.565-10.056-9.79-8.486-2.224 1.57-.491 3.784-.296 5.497.196 1.714-.945 6.61.239 7.26 1.184.65 3.366-2.52 5.3-4.277 1.56-1.415 4.545 1.54 4.547.006z" filter="url(#y)" opacity=".75" transform="matrix(-.08076 -.8054 -.65202 .09975 321.41 398.627)"/>
    <path d="M277.96 90.857c-2.225 1.57-1.253 3.53-.296 5.498.957 1.967-2.104 7.64-2.137 7.884-.032.245 6.026-2.875 7.677-4.902 1.95-2.393 6.877 3.238 6.608 2.381.002-1.533-9.627-12.43-11.852-10.86z" filter="url(#z)" transform="matrix(.96967 0 0 .96967 -151.499 -77.236)"/>
  </g>
  <path fill="#838384" d="M16.687 165.86c-2.162 1.97 1.014 4.928 2.52 8.404.936 2.162 3.527 5.205 6.032 4.718 1.885-.367 3.054-3.08 2.876-4.991-.344-3.689-3.457-4.553-5.717-5.82-1.792-1.004-4.193-3.694-5.711-2.311z" filter="url(#A)" transform="translate(120.357 -64.749) scale(.84158)"/>
  <path fill-opacity=".259" d="M-28.632 172.6c1.703 4.938 5.13 9.152 9.186 12.444 1.349 1.095 2.782 2.104 4.366 2.817 1.584.713 3.332 1.12 5.062.972 1.695-.144 3.308-.809 4.79-1.645 1.48-.837 2.855-1.847 4.292-2.758 2.463-1.56 5.1-2.821 7.657-4.22 3.083-1.687 6.07-3.59 8.665-5.96 1.188-1.084 2.296-2.268 3.607-3.199 1.312-.93 2.883-1.605 4.488-1.496 1.204.082 2.333.594 3.513.848.59.127 1.2.19 1.797.098.596-.09 1.18-.344 1.598-.78.512-.532.736-1.299.71-2.038-.027-.738-.285-1.453-.63-2.107-.688-1.308-1.734-2.435-2.2-3.838-.414-1.249-.33-2.599-.293-3.914.036-1.315.007-2.69-.6-3.857-.46-.889-1.235-1.595-2.12-2.064-.886-.468-1.88-.71-2.877-.803-1.995-.188-3.994.2-5.994.313-2.656.15-5.322-.182-7.977-.022-3.312.2-6.557 1.16-9.875 1.166-3.786.007-7.568-1.231-11.308-.64-1.604.254-3.135.838-4.675 1.353-1.541.514-3.133.967-4.758.943-1.844-.026-3.629-.665-5.469-.796-.92-.066-1.862 0-2.726.323-.863.323-1.644.924-2.068 1.743-.243.469-.363.996-.386 1.524-.022.528.05 1.057.178 1.57.255 1.026.724 1.983 1.11 2.967 1.392 3.554 1.692 7.448 2.937 11.056" clip-path="url(#C)" filter="url(#B)" transform="translate(102.683 -58.016) scale(.84158)"/>
  <path d="M-54.381 165.47a39.395 39.395 0 0 1 8.77 8.052c2.313 2.883 4.28 6.154 7.299 8.288 2.132 1.509 4.695 2.358 7.294 2.617 3.051.303 6.14-.187 9.082-1.052 2.726-.802 5.363-1.93 7.782-3.422 4.598-2.836 8.439-6.993 13.51-8.857 1.107-.407 2.259-.698 3.326-1.2 1.068-.502 2.072-1.254 2.581-2.318.49-1.022.471-2.202.63-3.325.172-1.2.555-2.362.765-3.556.21-1.195.235-2.473-.282-3.57-.427-.909-1.205-1.628-2.1-2.085-.894-.457-1.9-.664-2.904-.713-2.006-.099-3.987.415-5.988.597-2.65.242-5.318-.099-7.977-.019-3.308.1-6.568.85-9.874 1.005-3.772.178-7.534-.417-11.308-.551-1.633-.058-3.276-.029-4.885.252-1.609.282-3.188.822-4.548 1.726-1.32.877-2.397 2.067-3.607 3.091-.605.512-1.248.985-1.954 1.345-.705.36-1.478.605-2.27.643-.407.02-.818-.016-1.221.047a2.59 2.59 0 0 0-1.698 1.052 2.59 2.59 0 0 0-.423 1.953" clip-path="url(#E)" filter="url(#D)" opacity=".3" transform="matrix(.84158 0 0 .77519 120.357 -52.876)"/>
  <g fill="#020204">
    <path d="M158.313 124.144c5.12 4.12 8.37 10.34 9.376 16.834.784 5.065.274 10.263-.868 15.26-1.142 4.996-2.905 9.826-4.655 14.644-.698 1.921-1.399 3.86-1.676 5.885-.278 2.025-.102 4.17.875 5.965 1.119 2.059 3.209 3.476 5.455 4.143 2.217.659 4.612.645 6.857.086 2.244-.56 6.023-1.284 7.85-2.703 4.642-3.605 5.744-9.863 6.844-15.359 1.147-5.731.586-11.74-.422-17.53-1.375-7.895-3.687-15.612-6.631-23.066a80.355 80.355 0 0 0-8.24-15.586c-3.239-4.77-7.833-8.494-11.227-13.158-1.18-1.62-2.598-3.31-3.757-4.947-2.498-3.533-1.932-2.874-3.482-5.16-1.124-1.66-2.9-2.23-4.768-2.956-1.868-.725-3.966-.939-5.895-.396-2.543.716-4.62 2.72-5.725 5.119-1.105 2.399-1.299 5.153-.869 7.76.555 3.362 2.093 6.481 3.826 9.416 1.958 3.313 4.227 6.502 7.184 8.966 3.086 2.57 6.818 4.266 9.948 6.783M61.844 98.552c-5.953 6.763-12.078 13.31-15.44 20.622-1.663 3.715-2.45 7.749-3.589 11.655-1.294 4.437-3.052 8.728-5.025 12.907-1.822 3.859-3.829 7.627-5.84 11.392-1.462 2.738-2.95 5.538-3.456 8.601-.401 2.421-.167 4.919.449 7.294s1.607 4.637 2.725 6.822c4.769 9.32 11.925 17.355 20.401 23.5a71.675 71.675 0 0 0 12.289 7.176c2.342 1.07 4.808 2.024 7.382 2.068 1.287.022 2.587-.19 3.766-.707 1.178-.518 2.23-1.35 2.93-2.43.861-1.328 1.153-2.978.98-4.55-.172-1.574-.786-3.075-1.61-4.426-2.01-3.301-5.188-5.69-8.244-8.057a275.61 275.61 0 0 1-19.089-16.192c-1.724-1.606-3.449-3.263-4.654-5.289-1.173-1.972-1.807-4.22-2.237-6.474-1.178-6.184-.876-12.693 1.229-18.626.823-2.322 1.911-4.538 2.96-6.766 1.82-3.862 3.541-7.798 5.933-11.334 2.978-4.402 6.958-8.13 9.385-12.857 2.048-3.99 2.878-8.477 3.67-12.892.62-3.454 1.81-6.837 2.415-10.294-1.183 2.243-4.997 5.927-7.33 8.858z"/>
  </g>
  <path fill="#838384" d="M290.78 216.02c.485.468.98.943 1.5 1.375 3.667 3.055 5.619 6.485 9.338 9.477 6.084 4.894 12.259 13.344 13.454 21.06.932 6.02-.301 9.29-1.805 16.389-1.504 7.098-5.77 17.148-8.074 23.992-.919 2.729 1.861 1.603 1.496 4.48a17.72 17.72 0 0 0-.034 4.259c.022-.271.038-.553.069-.822.443-3.923 1.623-7.695 2.909-11.395 2.474-7.122 5.314-14.101 7.272-21.408 1.957-7.307 1.74-12.564.718-18.844-1.284-7.897-5.797-15.187-12.188-20-4.518-3.403-9.846-5.585-14.656-8.563z" clip-path="url(#G)" filter="url(#F)" transform="matrix(.85681 0 0 .84158 -102.881 -65.59)"/>
  <path fill="#7c7c7c" d="M232.33 224.27a33 33 0 0 0-5.953 7.318c-2.668 4.459-4.24 9.469-6.178 14.29-1.444 3.588-3.126 7.192-3.327 11.055-.104 1.984.19 3.966.257 5.952.066 1.986-.118 4.05-1.09 5.784a7.006 7.006 0 0 1-3.733 3.144 11.07 11.07 0 0 1 5.335 3.865c1.115 1.5 1.828 3.254 2.796 4.851.787 1.298 1.754 2.501 2.943 3.445 1.19.943 2.612 1.62 4.117 1.813a7.258 7.258 0 0 0 5.766-1.843 135.28 135.28 0 0 1 5.15-53.8c.335-1.095.687-2.198.77-3.34.083-1.143-.129-2.348-.824-3.258a3.544 3.544 0 0 0-1.43-1.108 3.544 3.544 0 0 0-1.791-.253 3.543 3.543 0 0 0-1.681.67c-.49.363-.882.856-1.127 1.415" clip-path="url(#I)" filter="url(#H)" opacity=".95" transform="translate(-140.533 -65.59) scale(.84158)"/>
  <path fill="url(#J)" d="M86.056 328.13a16.613 16.613 0 0 1-2.05 4.41c-1.98 3.013-4.854 5.28-7.726 7.371-4.9 3.566-10.003 6.838-14.563 10.89-3.056 2.715-5.841 5.76-8.423 8.965-2.208 2.741-4.284 5.62-6.801 8.057-2.54 2.46-5.53 4.447-8.752 5.53-3.918 1.316-8.058 1.253-11.832.259-2.645-.696-5.224-1.907-6.862-4.097-1.645-2.198-2.178-5.152-2.368-8.052-.337-5.129.26-10.37.803-15.575.452-4.326.868-8.655 1.039-12.972.31-7.852-.197-15.636-1.232-23.273-.173-1.279-.362-2.568-.257-3.885.106-1.318.536-2.689 1.437-3.706.832-.94 1.992-1.495 3.15-1.769 1.158-.273 2.33-.29 3.493-.321 2.74-.075 5.496-.24 8.195.006 1.703.155 3.373.474 5.073.643 2.838.28 5.782.132 8.628-.724 3.064-.922 5.986-2.652 9.099-3.128a12.954 12.954 0 0 1 3.801.006c1.268.183 2.528.542 3.502 1.336.74.604 1.282 1.433 1.706 2.317.632 1.317 1.02 2.77 1.241 4.261.197 1.321.267 2.68.598 3.958.546 2.101 1.781 3.886 3.268 5.34 1.486 1.453 3.225 2.602 4.96 3.733 1.73 1.128 3.468 2.247 5.315 3.177.867.436 1.758.83 2.586 1.333.829.502 1.6 1.121 2.151 1.935.746 1.105 1.046 2.553.822 3.975" filter="url(#K)" opacity=".2" style="fill:url(#J)" transform="matrix(.86422 0 0 .84158 118.413 -65.59)"/>
  <path fill="url(#L)" d="M263.19 278.25c-2.624 3.115-6.268 5.17-9.896 7.02-6.19 3.154-12.603 5.922-18.42 9.716-3.899 2.543-7.496 5.527-10.86 8.743-2.878 2.75-5.606 5.687-8.833 8.017-3.256 2.352-7.02 4.055-10.991 4.65-4.83.725-9.821-.212-14.299-2.164-3.138-1.367-6.156-3.323-7.963-6.229-1.814-2.917-2.228-6.488-2.233-9.924-.008-6.076 1.118-12.09 2.179-18.073.88-4.972 1.72-9.955 2.26-14.975.983-9.13.976-18.353.32-27.513-.11-1.534-.238-3.083-.008-4.604.229-1.52.855-3.037 2.02-4.04 1.077-.926 2.521-1.336 3.94-1.414 1.418-.079 2.834.146 4.24.352 3.312.484 6.651.865 9.889 1.716 2.043.538 4.033 1.26 6.072 1.811 3.403.92 6.967 1.362 10.467.952 3.77-.44 7.43-1.857 11.224-1.765 1.557.038 3.102.332 4.587.8 1.515.478 3.009 1.162 4.122 2.295.847.862 1.436 1.946 1.88 3.07.659 1.673 1.014 3.456 1.166 5.249.135 1.587.114 3.194.415 4.759.495 2.574 1.847 4.923 3.528 6.935 1.681 2.012 3.69 3.72 5.696 5.408 2 1.68 4.011 3.354 6.168 4.828 1.012.692 2.056 1.34 3.017 2.1.96.762 1.845 1.647 2.445 2.716.815 1.45 1.064 3.208.538 4.877-.526 1.668-1.482 3.276-2.67 4.688z" style="fill:url(#L)" transform="translate(-14.296 -16.474) scale(.84158)"/>
  <path fill="#cd8907" d="M512.89 328.72a15.31 15.31 0 0 1-2.571 4.26c-2.403 2.814-5.73 4.654-9.038 6.31-5.653 2.831-11.503 5.318-16.821 8.736-3.554 2.284-6.841 4.966-9.918 7.86-2.63 2.472-5.125 5.116-8.066 7.208-2.981 2.12-6.418 3.647-10.037 4.18-4.41.65-8.96-.193-13.058-1.945-2.857-1.222-5.617-2.97-7.272-5.6-1.646-2.617-2.031-5.83-2.039-8.922-.013-5.465 1.018-10.871 1.99-16.248.806-4.469 1.575-8.948 2.063-13.463.889-8.208.849-16.498.293-24.735-.094-1.38-.2-2.774.011-4.14.212-1.368.778-2.728 1.826-3.631.983-.847 2.303-1.218 3.599-1.286 1.296-.068 2.587.142 3.87.33 3.024.445 6.073.78 9.032 1.544 1.865.481 3.684 1.131 5.545 1.628 3.11.829 6.363 1.225 9.56.855 3.44-.397 6.786-1.671 10.25-1.586 1.42.035 2.83.3 4.188.72 1.382.425 2.749 1.034 3.765 2.062.766.776 1.295 1.754 1.716 2.76.625 1.496 1.032 3.097 1.066 4.719.034 1.693-.336 3.395-.106 5.073.186 1.363.763 2.648 1.5 3.81.737 1.16 1.634 2.21 2.523 3.26 1.717 2.029 3.439 4.097 5.593 5.655 2.452 1.773 5.362 2.811 7.895 4.467.755.493 1.486 1.052 2.018 1.78a4.757 4.757 0 0 1 .624 4.34" clip-path="url(#N)" filter="url(#M)" transform="translate(-224.691 -65.59) scale(.84158)"/>
  <path fill="#f5c021" d="M508.79 327.93a14.945 14.945 0 0 1-2.311 3.491c-2.154 2.428-5.061 4.1-8.124 5.173-5.041 1.767-10.546 2.004-15.495 4.016-3.016 1.226-5.73 3.073-8.479 4.819-2.222 1.41-4.492 2.769-6.932 3.756-2.756 1.115-5.686 1.74-8.626 2.179-1.87.278-3.762.484-5.651.387-1.89-.098-3.785-.508-5.452-1.401-1.264-.678-2.401-1.653-3.076-2.919-.75-1.406-.88-3.056-.862-4.649.046-4.246 1.025-8.446.996-12.692-.026-3.696-.815-7.345-1.042-11.034-.437-7.095 1.204-14.313-.24-21.273-.231-1.114-.542-2.227-.527-3.365.008-.568.099-1.14.315-1.667.217-.526.563-1.005 1.025-1.337.389-.28.85-.45 1.323-.527a4.736 4.736 0 0 1 1.432.007c.948.137 1.852.482 2.775.737 2.642.73 5.433.715 8.118 1.265 1.685.346 3.317.912 4.984 1.334 2.8.71 5.72 1.014 8.592.702 3.089-.336 6.108-1.376 9.213-1.3 1.273.03 2.538.25 3.765.589 1.228.34 2.456.82 3.384 1.69.67.629 1.152 1.432 1.542 2.262.57 1.212.968 2.529.958 3.868-.005.697-.119 1.388-.186 2.081-.068.694-.088 1.404.091 2.077.18.677.554 1.287.983 1.84.428.554.914 1.06 1.358 1.602 1.242 1.517 2.13 3.286 3.097 4.991.968 1.705 2.052 3.393 3.58 4.621 2.08 1.672 4.779 2.34 7.097 3.662.679.386 1.337.84 1.814 1.459.382.496.638 1.088.735 1.706.098.619.037 1.261-.174 1.85" clip-path="url(#P)" filter="url(#O)" transform="matrix(.96193 0 0 1.03708 -282.76 -130.5)"/>
  <path fill="url(#Q)" d="M187.31 230.29c3.276-.887 6.066 1.597 8.442 3.472 1.536 1.31 3.754.98 5.637 1.042 3.12-.113 6.225.523 9.347.136 6.145-.52 12.168-2.03 18.342-2.29 2.95-.185 6.26-.357 8.808 1.366 1.033.715 2.547 3.741 3.567 2.604-.42-3.178-2.778-6.255-5.94-7.102-2.474-.39-4.99.292-7.489.071-7.423-.177-14.793-1.555-22.234-1.16-5.176.045-10.347-.195-15.515-.396-2.03-.415-2.747 1.389-3.849 2.08" clip-path="url(#S)" filter="url(#R)" style="fill:url(#Q)" transform="translate(-14.296 -16.474) scale(.84158)"/>
  <path fill="url(#T)" d="M57.577 222.66c1.6-.663 3.398-.784 5.1-.47 1.703.314 3.312 1.05 4.744 2.023 2.864 1.946 4.988 4.777 7.023 7.58 4.672 6.433 9.168 13.001 13.245 19.828 3.306 5.538 6.343 11.257 10.164 16.453 2.494 3.392 5.306 6.54 7.813 9.922 2.506 3.383 4.728 7.056 5.839 11.117 1.444 5.277.885 11.093-1.627 15.953-1.766 3.42-4.476 6.353-7.772 8.34-3.296 1.986-7.17 3.014-11.016 2.87-6.114-.23-11.7-3.286-17.384-5.55-11.581-4.612-24.16-6.059-36.097-9.651-3.669-1.104-7.276-2.41-10.97-3.426-1.641-.452-3.309-.849-4.859-1.552-1.55-.703-3-1.749-3.862-3.217-.666-1.134-.948-2.47-.93-3.785.018-1.316.326-2.615.774-3.852.896-2.474 2.343-4.713 3.32-7.157 1.595-3.99 1.882-8.388 1.667-12.679-.215-4.29-.911-8.545-1.205-12.83-.13-1.915-.18-3.853.185-5.737.366-1.883 1.176-3.724 2.558-5.055 1.274-1.227 2.965-1.955 4.696-2.317 1.732-.36 3.516-.377 5.284-.337 1.768.04 3.54.134 5.303-.01 1.763-.146 3.534-.541 5.07-1.42 1.46-.834 2.654-2.074 3.643-3.433.99-1.36 1.79-2.846 2.61-4.314.819-1.469 1.667-2.932 2.74-4.226 1.074-1.295 2.39-2.423 3.943-3.067" style="fill:url(#T)" transform="translate(-14.296 -16.474) scale(.84158)"/>
  <path fill="#d99a03" d="M-99.89 282.78c1.455-.586 3.094-.65 4.623-.304 1.528.347 2.95 1.09 4.188 2.047 2.478 1.914 4.2 4.614 5.854 7.269 3.97 6.433 7.852 12.934 11.516 19.567 2.777 4.993 5.425 10.093 8.838 14.679 2.264 3.041 4.847 5.83 7.158 8.836 2.31 3.006 4.371 6.282 5.393 9.934 1.316 4.706.782 9.91-1.496 14.233a18.98 18.98 0 0 1-7.186 7.512 18.499 18.499 0 0 1-10.087 2.488c-5.598-.257-10.711-3.053-15.981-4.95-10.103-3.666-21.053-4.158-31.416-7.02-3.715-1.009-7.337-2.353-11.07-3.294-1.652-.417-3.333-.757-4.902-1.42-1.57-.662-3.047-1.688-3.898-3.164-.633-1.098-.885-2.389-.846-3.655.039-1.265.359-2.51.81-3.693.901-2.367 2.32-4.51 3.229-6.875 1.379-3.574 1.55-7.504 1.294-11.326-.256-3.822-.921-7.61-1.153-11.434-.104-1.71-.12-3.44.226-5.116.345-1.677 1.076-3.31 2.295-4.512 1.32-1.309 3.141-2.024 4.977-2.304 1.836-.28 3.706-.158 5.555.007 1.849.165 3.705.373 5.561.261 1.856-.11 3.736-.563 5.269-1.606 1.397-.945 2.446-2.325 3.244-3.799.799-1.474 1.368-3.055 1.977-4.616.609-1.562 1.266-3.122 2.221-4.51.956-1.388 2.237-2.605 3.806-3.235" clip-path="url(#V)" filter="url(#U)" transform="translate(120.357 -64.749) scale(.84158)"/>
  <path fill="#f5bd0c" d="M138.75 281.24c1.41-.712 3.07-.858 4.616-.537 1.546.321 2.979 1.09 4.196 2.096 2.435 2.01 3.98 4.875 5.42 7.685 3.304 6.455 6.383 13.05 10.337 19.128 2.87 4.41 6.18 8.517 9.082 12.905 3.936 5.951 7.136 12.496 8.456 19.507.889 4.716.86 9.81-1.372 14.058-1.469 2.796-3.85 5.09-6.663 6.526-2.814 1.435-6.044 2.017-9.19 1.734-4.953-.445-9.453-2.925-14.116-4.655-8.275-3.069-17.218-3.803-25.734-6.119-3.592-.976-7.11-2.235-10.751-3.01-1.606-.34-3.244-.59-4.777-1.179-1.533-.588-2.986-1.565-3.77-3.008-.551-1.016-.736-2.205-.654-3.358.082-1.153.42-2.275.865-3.342.887-2.134 2.2-4.09 2.89-6.295 1.013-3.243.597-6.758-.164-10.068-.76-3.311-1.856-6.562-2.194-9.942-.15-1.505-.147-3.04.191-4.514.339-1.475 1.027-2.892 2.109-3.95 1.393-1.362 3.344-2.04 5.283-2.229 1.94-.19 3.892.069 5.82.351 1.929.282 3.869.59 5.815.5 1.947-.09 3.929-.61 5.453-1.824 1.508-1.2 2.456-2.987 3-4.836.543-1.849.72-3.782.943-5.696.222-1.915.5-3.847 1.23-5.63.729-1.784 1.96-3.428 3.68-4.298" clip-path="url(#X)" filter="url(#W)" transform="matrix(.84158 0 0 .82647 -81.623 -62.258)"/>
  <path fill="url(#Y)" d="M76.407 237.61c2.606 4.713 4.196 10.122 6.781 14.875 2.378 4.372 5.085 8.874 7.5 12.906 1.076 1.795 3.583 4.555 6.12 8.837 2.297 3.881 4.617 9.298 5.916 11.116-.746-2.128-2.28-7.846-4.109-11.923-1.71-3.808-3.7-5.982-4.927-8.03-2.415-4.033-5.017-7.657-7.5-11.5-3.425-5.302-6.035-11.235-9.781-16.281z" filter="url(#Z)" style="fill:url(#Y)" transform="translate(-14.296 -16.474) scale(.84158)"/>
  <path fill="url(#aa)" d="M231.48 237.28c-.563-1.102-1.587-1.926-2.729-2.402-1.142-.477-2.397-.63-3.634-.62-2.474.02-4.934.664-7.4.45-2.083-.18-4.059-.963-6.09-1.457-2.097-.51-4.322-.71-6.404-.143-2.226.606-4.19 2.094-5.42 4.045-1.084 1.721-1.599 3.753-1.76 5.78-.163 2.028.012 4.067.218 6.09.148 1.464.313 2.931.667 4.359.354 1.428.904 2.823 1.766 4.015 1.241 1.716 3.084 2.94 5.07 3.675a14.087 14.087 0 0 0 10.132-.177c5.658-2.457 10.449-6.864 13.369-12.3a26.204 26.204 0 0 0 2.382-6.164c.208-.853.372-1.723.38-2.6.007-.879-.147-1.77-.546-2.551" filter="url(#ab)" opacity=".35" style="fill:url(#aa)" transform="translate(-14.296 -16.474) scale(.84158)"/>
  <path fill="url(#ac)" d="M71.484 295.64c-.563-1.102-1.587-1.926-2.729-2.402-1.142-.477-2.397-.63-3.634-.62-2.474.02-4.935.664-7.4.45-2.083-.18-4.059-.963-6.09-1.457-2.097-.51-4.322-.71-6.404-.143-2.226.606-4.19 2.094-5.42 4.045-1.084 1.721-1.599 3.753-1.76 5.78-.163 2.028.012 4.067.218 6.09.148 1.464.313 2.931.667 4.359.354 1.428.904 2.823 1.766 4.015 1.241 1.716 3.084 2.94 5.07 3.675a14.087 14.087 0 0 0 10.132-.177c5.659-2.457 10.449-6.864 13.369-12.3a26.204 26.204 0 0 0 2.382-6.164c.208-.853.372-1.723.38-2.6.007-.879-.147-1.77-.546-2.551" filter="url(#ad)" opacity=".35" style="fill:url(#ac)" transform="matrix(.84158 0 0 .6084 120.357 .69)"/>
  <path fill="#020204" d="M184.475 174.538c-.341-.93-.941-1.752-1.675-2.415-.735-.664-1.6-1.172-2.51-1.559-1.822-.773-3.805-1.061-5.75-1.427-1.834-.344-3.654-.762-5.494-1.075-1.911-.324-3.886-.532-5.777-.105-1.655.373-3.185 1.228-4.437 2.372-1.252 1.144-2.23 2.572-2.933 4.115-1.239 2.718-1.628 5.778-1.392 8.755.176 2.216.737 4.5 2.196 6.177 1.179 1.355 2.85 2.2 4.573 2.71 2.967.878 6.2.832 9.14-.13a24.054 24.054 0 0 0 12.06-9.072c.958-1.388 1.777-2.902 2.148-4.547.283-1.254.293-2.593-.15-3.8"/>
  <path fill="url(#ae)" d="M362.22 276.46c-.55.03-1.081.09-1.625.188-3.47.616-6.647 2.808-8.438 5.843a12.379 12.379 0 0 0-1.656 7.156c.074-1.741.53-3.446 1.375-4.968 1.435-2.582 4.033-4.53 6.938-5.063 1.79-.328 3.632-.13 5.437.094 1.733.216 3.482.443 5.188.812 2.64.572 5.254 1.452 7.469 3 .516.362 1 .769 1.406 1.25.406.482.722 1.038.844 1.657.178.904-.08 1.853-.532 2.656-.452.803-1.065 1.506-1.718 2.156a39.46 39.46 0 0 1-1.657 1.531c2.56-.496 5.152-1.197 7.282-2.687.9-.63 1.715-1.385 2.25-2.344.534-.96.762-2.121.5-3.188-.178-.72-.572-1.382-1.063-1.937-.491-.555-1.08-1.012-1.688-1.438a20.017 20.017 0 0 0-9.062-3.468 110.84 110.84 0 0 0-6.281-.97c-1.644-.205-3.321-.372-4.969-.28z" clip-path="url(#ag)" filter="url(#af)" style="fill:url(#ae)" transform="translate(-140.533 -65.59) scale(.84158)"/>
  <path fill="url(#ah)" d="M362.22 276.46c-.55.03-1.081.09-1.625.188-3.47.616-6.647 2.808-8.438 5.843a12.379 12.379 0 0 0-1.656 7.156c.074-1.741.53-3.446 1.375-4.968 1.435-2.582 4.033-4.53 6.938-5.063 1.79-.328 3.632-.13 5.437.094 1.733.216 3.482.443 5.188.812 2.64.572 5.254 1.452 7.469 3 .516.362 1 .769 1.406 1.25.406.482.722 1.038.844 1.657.178.904-.08 1.853-.532 2.656-.452.803-1.065 1.506-1.718 2.156a39.46 39.46 0 0 1-1.657 1.531c2.56-.496 5.152-1.197 7.282-2.687.9-.63 1.715-1.385 2.25-2.344.534-.96.762-2.121.5-3.188-.178-.72-.572-1.382-1.063-1.937-.491-.555-1.08-1.012-1.688-1.438a20.017 20.017 0 0 0-9.062-3.468 110.84 110.84 0 0 0-6.281-.97c-1.644-.205-3.321-.372-4.969-.28z" clip-path="url(#aj)" filter="url(#ai)" style="fill:url(#ah)" transform="translate(-140.533 -65.59) scale(.84158)"/>
  <path fill="url(#ak)" d="M-24.768 113.36c-1.781.097-3.485.919-4.788 2.137-1.303 1.217-2.221 2.812-2.786 4.503-1.13 3.384-.876 7.052-.619 10.61.233 3.222.47 6.506 1.677 9.502.603 1.498 1.45 2.91 2.58 4.064 1.13 1.154 2.552 2.042 4.119 2.434 1.468.368 3.038.292 4.482-.162 1.445-.454 2.764-1.279 3.847-2.338 1.579-1.545 2.643-3.566 3.253-5.69.61-2.122.784-4.35.752-6.56-.04-2.764-.4-5.538-1.265-8.164-.865-2.626-2.246-5.103-4.173-7.086-.934-.96-1.998-1.805-3.199-2.397-1.2-.592-2.543-.925-3.88-.853" style="fill:url(#ak)" transform="translate(102.683 -58.016) scale(.84158)"/>
  <path fill="#020204" d="M78.227 49.799c-.313 1.89-.324 3.873.325 5.675.43 1.19 1.137 2.27 1.997 3.197.563.608 1.202 1.16 1.949 1.518.747.358 1.612.51 2.415.309.742-.187 1.39-.664 1.869-1.26.478-.597.797-1.307 1.024-2.037.672-2.155.564-4.513-.103-6.67-.485-1.57-1.289-3.086-2.547-4.145-.6-.506-1.302-.902-2.066-1.083-.763-.182-1.59-.14-2.303.185-.793.36-1.407 1.047-1.81 1.82-.4.772-.607 1.631-.75 2.49"/>
  <path fill="url(#al)" d="M114.69 77.125c.242.634 1.054.864 1.5 1.375.433.497.887 1.01 1.125 1.625.455 1.176-.449 2.92.5 3.75.298.26.895.266 1.188 0 1.145-1.042.89-3.144.437-4.625-.411-1.344-1.427-2.616-2.68-3.255-.578-.295-1.45-.541-1.945-.12-.319.271-.274.859-.125 1.25z" filter="url(#am)" style="fill:url(#al)" transform="translate(-14.296 -16.474) scale(.84158)"/>
  <path fill="url(#an)" d="M50.392 129.53c2.685-1.6 5.955-1.97 9.067-1.676 3.111.295 6.125 1.209 9.141 2.03 2.212.601 4.452 1.161 6.525 2.137 2.074.977 4 2.416 5.142 4.403.183.32.345.65.54.962.193.313.423.61.716.83.293.222.657.365 1.024.345.184-.01.366-.06.524-.154a.992.992 0 0 0 .378-.392c.098-.187.128-.404.117-.615a2.94 2.94 0 0 0-.117-.622c-.755-2.753-2.535-5.088-3.889-7.601-.813-1.509-1.477-3.093-2.298-4.597-2.818-5.16-7.444-9.215-12.701-11.847-5.258-2.631-11.127-3.896-16.997-4.239-6.801-.398-13.62.41-20.329 1.591-2.909.512-5.86 1.115-8.436 2.562-1.287.723-2.467 1.656-3.388 2.81-.921 1.155-1.577 2.536-1.788 3.997-.203 1.409.009 2.86.501 4.196.493 1.335 1.259 2.559 2.157 3.662 1.797 2.208 4.1 3.934 6.222 5.831 2.122 1.897 4.09 3.992 6.463 5.563 1.187.786 2.473 1.435 3.844 1.817 1.37.382 2.83.489 4.223.203 1.445-.296 2.783-1.005 3.954-1.902 1.171-.897 2.186-1.98 3.148-3.097 1.925-2.236 3.723-4.687 6.258-6.196" clip-path="url(#ao)" style="fill:url(#an)" transform="translate(36.199 -65.59) scale(.84158)"/>
  <path fill="url(#ap)" d="M-38.438 119.38c2.504 2.345 4.365 5.24 5.625 8.31-.55-3.385-1.423-6.104-3.625-8.31-1.351-1.266-2.886-2.378-4.625-3.159-1.521-.683-3.214-1.108-4.18-1.125-.968-.018-1.203.004-1.402.013-.198.01-.357.016.272.088.63.071 2.034.451 3.541 1.128 1.508.677 3.043 1.79 4.394 3.055z" filter="url(#aq)" style="fill:url(#ap)" transform="translate(120.357 -64.749) scale(.84158)"/>
  <path fill="url(#ar)" d="M6.75 113.36c-2.78 1.91-5.11 4.575-6.25 7.75-1.436 4.002-.886 8.48.5 12.5 1.42 4.117 3.794 8.041 7.38 10.512 1.792 1.236 3.867 2.083 6.03 2.339 2.162.255 4.409-.095 6.34-1.101 2.353-1.226 4.148-3.373 5.262-5.781 1.115-2.408 1.589-5.07 1.738-7.72.19-3.375-.14-6.806-1.25-10-1.205-3.468-3.39-6.67-6.473-8.666-1.541-.998-3.292-1.683-5.11-1.935-1.82-.252-3.706-.063-5.417.602-.976.379-1.887.907-2.75 1.5" style="fill:url(#ar)" transform="translate(102.683 -58.016) scale(.84158)"/>
  <path fill="#020204" d="M113.759 44.455a5.423 5.423 0 0 0-2.484.833 6.529 6.529 0 0 0-1.883 1.834c-1 1.454-1.438 3.237-1.509 5-.053 1.323.094 2.664.532 3.913.44 1.25 1.18 2.406 2.2 3.25a6.368 6.368 0 0 0 3.723 1.45 6.25 6.25 0 0 0 3.839-1.1c.886-.617 1.6-1.466 2.11-2.418.508-.953.814-2.006.955-3.077.247-1.89-.033-3.865-.907-5.56-.874-1.695-2.357-3.091-4.146-3.75-.775-.286-1.607-.434-2.43-.375"/>
  <path fill="#141413" d="M154.66 79.25c-.866.342-2.237.127-2.616.977-.225.503.092 1.332.603 1.54 1.033.42 2.632-.34 3.049-1.375.181-.449-.093-1.16-.54-1.348-.165-.07-.33.14-.496.206z" filter="url(#as)" transform="translate(-14.296 -16.474) scale(.84158)"/>
  <path fill="url(#at)" d="M158.62 81.5c1.161-1.161-.826-4.24-2.375-5.5-1.122-.913-4.39-1.869-4.25-.875.14.994 1.61 2.267 2.595 3.237 1.212 1.196 3.479 3.69 4.03 3.138z" filter="url(#au)" style="fill:url(#at)" transform="translate(-14.296 -16.474) scale(.84158)"/>
  <path fill="url(#av)" d="M75.25 132.49a23.713 23.713 0 0 1 8.121-4.4c6.086-1.882 13-1.137 18.379 2.275 1.857 1.178 3.512 2.642 5.239 4.004 1.727 1.362 3.561 2.64 5.635 3.371 1.121.394 2.319.623 3.5.5a6.508 6.508 0 0 0 2.985-1.12 7.602 7.602 0 0 0 2.18-2.336c1.112-1.837 1.47-4.065 1.279-6.203-.383-4.277-2.796-8.053-4.819-11.841-.633-1.186-1.236-2.393-2-3.5-2.343-3.396-6.073-5.636-9.985-6.948-3.911-1.312-8.046-1.786-12.14-2.302-1.825-.23-3.673-.47-5.5-.25-2.1.253-4.076 1.1-6.125 1.625-.972.249-1.963.425-2.928.704-.964.279-1.913.669-2.697 1.296-1.144.916-1.865 2.29-2.176 3.723-.312 1.433-.24 2.925-.012 4.373.458 2.896 1.541 5.724 1.438 8.654-.07 2.012-.702 3.988-.625 6 .023.59.107 1.177.25 1.75" clip-path="url(#aw)" style="fill:url(#av)" transform="translate(36.199 -65.59) scale(.84158)"/>
  <path fill="url(#ax)" d="M-4.594 113.12c-.477.6-.908 1.252-1.25 1.969 2.147.462 4.2 1.346 6.031 2.562 3.545 2.355 6.237 5.797 8.125 9.625a9.96 9.96 0 0 0 1.188-1.593c-1.898-3.988-4.644-7.595-8.313-10.032-1.762-1.17-3.724-2.053-5.78-2.53z" filter="url(#ay)" style="fill:url(#ax)" transform="translate(120.357 -64.749) scale(.84158)"/>
  <path fill="url(#az)" d="M-16.399 136.86c1.767-1.987 2.976-4.41 4.674-6.457.85-1.023 1.828-1.955 2.982-2.617 1.153-.661 2.492-1.04 3.816-.926 1.475.128 2.855.862 3.934 1.875 1.08 1.012 1.88 2.29 2.519 3.625.612 1.278 1.098 2.64 1.98 3.75.94 1.184 2.259 1.992 3.45 2.923.596.465 1.168.969 1.639 1.56.47.592.84 1.276.99 2.017a4.21 4.21 0 0 1-.185 2.267 5.08 5.08 0 0 1-1.26 1.904c-1.105 1.065-2.613 1.64-4.133 1.855-3.04.43-6.115-.476-9.184-.392-3.107.085-6.142 1.184-9.248 1.07-1.553-.057-3.128-.436-4.404-1.323a5.57 5.57 0 0 1-1.596-1.675 4.596 4.596 0 0 1-.673-2.206c-.025-.74.148-1.48.444-2.16.296-.68.713-1.302 1.183-1.876.938-1.148 2.087-2.106 3.072-3.214" style="fill:url(#az)" transform="translate(102.683 -58.016) scale(.84158)"/>
  <path fill="url(#aA)" d="M45.752 165.03c.061.295.173.58.327.84.266.445.654.806 1.073 1.11.42.306.873.56 1.312.836 2.334 1.467 4.236 3.53 5.925 5.707 2.266 2.923 4.272 6.165 7.3 8.29 2.137 1.5 4.695 2.354 7.293 2.615 3.052.307 6.14-.185 9.082-1.052 2.726-.802 5.363-1.93 7.782-3.42 4.599-2.837 8.44-6.994 13.51-8.858 1.107-.407 2.26-.698 3.327-1.2 1.067-.502 2.071-1.254 2.58-2.318.49-1.022.472-2.203.631-3.325.171-1.2.554-2.362.764-3.556.21-1.195.235-2.473-.281-3.57-.428-.909-1.206-1.628-2.1-2.085-.894-.457-1.901-.665-2.904-.714-2.007-.098-3.988.415-5.988.598-2.65.242-5.318-.098-7.978-.019-3.308.099-6.568.845-9.874 1.005-3.771.183-7.535-.398-11.308-.551-1.634-.067-3.28-.052-4.892.225-1.612.277-3.195.824-4.54 1.753-1.312.905-2.357 2.14-3.56 3.184-.603.522-1.25 1-1.967 1.347-.717.348-1.508.564-2.304.547-.41-.009-.831-.077-1.222.048-.244.077-.46.227-.643.406a3.767 3.767 0 0 0-.478.599 10.519 10.519 0 0 0-.867 1.558" style="fill:url(#aA)" transform="translate(36.199 -65.59) scale(.84158)"/>
  <path fill="#d9b30d" d="M60.557 169.1a6.7 6.7 0 0 0 .644 4.77 6.7 6.7 0 0 0 3.702 3.077c1.978.66 4.206.337 6.055-.628 1.071-.559 2.05-1.346 2.67-2.384a4.51 4.51 0 0 0 .604-1.696 3.733 3.733 0 0 0-.185-1.785 3.88 3.88 0 0 0-1.146-1.596 5.212 5.212 0 0 0-1.734-.946c-1.257-.415-2.61-.424-3.934-.36a38.862 38.862 0 0 0-5.969.753" filter="url(#aB)" transform="translate(36.199 -65.59) scale(.84158)"/>
  <path fill="#604405" d="M54.066 156.68c-1.339.791-2.629 1.664-3.897 2.563-.657.466-1.335.97-1.681 1.696-.246.515-.302 1.099-.31 1.67-.007.57.03 1.143-.046 1.709-.051.386-.154.766-.171 1.155-.009.195.004.392.056.58.05.188.142.367.275.508.173.184.408.296.649.37.24.073.49.11.735.169 1.175.276 2.197.996 3.094 1.803.898.807 1.703 1.715 2.64 2.477 2.537 2.064 5.89 2.918 9.16 2.972 3.271.054 6.505-.63 9.696-1.35 2.506-.564 5.015-1.154 7.425-2.043 3.703-1.365 7.14-3.432 10.118-6.022 1.35-1.174 2.617-2.463 4.133-3.415 1.34-.842 2.842-1.398 4.206-2.203.122-.072.243-.146.352-.236.109-.09.206-.198.269-.325a.984.984 0 0 0 .039-.716 1.902 1.902 0 0 0-.36-.634 4.423 4.423 0 0 0-.569-.577c-1.424-1.22-3.357-1.663-5.226-1.811-1.869-.148-3.76-.044-5.61-.353-1.738-.29-3.393-.938-5.072-1.477a37.336 37.336 0 0 0-5.389-1.31c-4.294-.7-8.717-.567-12.977.32a37.924 37.924 0 0 0-11.539 4.48" filter="url(#aC)" transform="translate(36.199 -65.59) scale(.84158)"/>
  <path fill="url(#aD)" d="M53.639 152.15a23.756 23.756 0 0 0-5.136 4.685c-.84 1.031-1.604 2.151-2.027 3.412-.333.992-.447 2.042-.656 3.067-.079.383-.172.769-.17 1.16 0 .197.026.394.086.58.061.186.159.362.294.503.225.234.54.361.858.427.318.065.644.075.967.111 1.454.166 2.794.872 4 1.702s2.317 1.796 3.554 2.578c2.734 1.73 5.995 2.499 9.227 2.623 3.232.125 6.458-.366 9.63-1 2.52-.503 5.034-1.1 7.425-2.043 3.662-1.444 6.964-3.667 10.118-6.022 1.433-1.07 2.846-2.173 4.133-3.415.436-.422.859-.86 1.327-1.246.469-.386.988-.721 1.566-.907.88-.284 1.836-.202 2.748-.05.688.115 1.376.27 2.073.241a3.074 3.074 0 0 0 1.02-.203c.323-.13.621-.33.843-.6a2.02 2.02 0 0 0 .442-1.272 2.575 2.575 0 0 0-.371-1.305c-.465-.79-1.269-1.323-2.105-1.695-1.147-.51-2.387-.761-3.606-1.056a51.688 51.688 0 0 1-10.836-3.954c-1.716-.851-3.384-1.795-5.072-2.7-1.735-.93-3.504-1.824-5.389-2.395-4.213-1.277-8.818-.859-12.977.586a27.752 27.752 0 0 0-11.966 8.188" style="fill:url(#aD)" transform="translate(36.199 -65.59) scale(.84158)"/>
  <path fill="#f6da4a" d="M83.239 153.08a1.794 1.794 0 0 0-.901-.591 2.413 2.413 0 0 0-1.085-.049c-.72.123-1.364.51-1.965.925-1.709 1.176-3.22 2.628-4.538 4.23-1.745 2.12-3.185 4.571-3.667 7.274-.082.456-.135.922-.079 1.38.057.46.233.916.56 1.244.285.288.675.464 1.077.522.402.058.816.002 1.2-.128.77-.26 1.41-.8 2.015-1.342 3.336-2.985 6.353-6.567 7.56-10.879.12-.432.224-.875.221-1.324-.003-.45-.12-.91-.398-1.262" filter="url(#aE)" transform="translate(36.199 -65.59) scale(.84158)"/>
  <path fill="url(#aF)" d="M135.25 88.528c.231.742 1.428.62 2.12.975.606.313 1.094.998 1.776 1.017.65.02 1.664-.225 1.748-.87.112-.854-1.133-1.396-1.935-1.708-1.032-.403-2.353-.607-3.32-.069-.222.124-.464.413-.389.655z" filter="url(#aG)" opacity=".8" style="fill:url(#aF)" transform="translate(-14.296 -16.474) scale(.84158)"/>
  <path fill="url(#aH)" d="M123.83 88.108c-.888-.289-2.357 1.278-1.878 2.079.132.22.535.5.806.35.41-.225.744-1.03 1.188-1.345.296-.21.23-.972-.116-1.084z" filter="url(#aI)" opacity=".8" style="fill:url(#aH)" transform="translate(-14.296 -16.474) scale(.84158)"/>
  <path fill="url(#aJ)" d="M245.9 158.28a2.608 2.328 0 0 1-2.608 2.328 2.608 2.328 0 0 1-2.608-2.328 2.608 2.328 0 0 1 2.608-2.328 2.608 2.328 0 0 1 2.608 2.328z" clip-path="url(#aL)" filter="url(#aK)" style="fill:url(#aJ)" transform="matrix(.92204 0 -.14322 1.2776 -78.462 -134.7)"/>
</svg>
