<svg xmlns="http://www.w3.org/2000/svg" viewBox="0 0 256 229.501">
  <defs>
    <linearGradient id="a" x1="39.845" x2="159.846" y1="48.849" y2="164.304" gradientTransform="scale(1.06759 .9367)" gradientUnits="userSpaceOnUse">
      <stop offset="0%" stop-color="#C7F994"/>
      <stop offset="100%" stop-color="#87CF3E"/>
    </linearGradient>
    <linearGradient id="b" x1="58.269" x2="143.219" y1="217.339" y2="114.275" gradientTransform="scale(1.13682 .87965)" gradientUnits="userSpaceOnUse">
      <stop offset="0%" stop-color="#3D3D3D"/>
      <stop offset="100%" stop-opacity=".114"/>
    </linearGradient>
  </defs>
  <path d="m30.223 145.851-.042-49.174V81.951H0V0l127.272.6 39.813.085C214.732.685 256 36.73 256 84.335V229.5H119.138c-47.604 0-88.915-36.088-88.915-83.65z" opacity=".26"/>
  <path fill="url(#a)" d="M237.717 191.537V85.996c0-35.26-30.922-63.843-69.074-63.843h-39.6v-.085L21.946 21.6v38.508h16.44c11.476 0 13.503 7.922 13.503 18.887l.085 68.079c0 35.26 30.922 63.842 69.032 63.842H215.1c12.062 0 22.618-7.639 22.618-19.38z" style="fill:url(#a)"/>
  <path fill="url(#b)" d="M228.378 200.453c-24.063-16.582-41.105-35.63-55.461-60.846-28.299-52.276-21.682-78.227-91.76-84.346-20.223 0-33.684-4.476-54.971-4.476v7.413s8.412 4.27 15.806 4.27c11.026 0 12.939 7.648 12.939 18.183l.07 65.25c0 33.879 29.755 61.336 66.371 61.336h90.36c6.633 0 12.591-2.614 16.646-6.784z" opacity=".175" style="fill:url(#b)"/>
  <path fill-opacity=".08" d="M144.633 61.715c-8.587 0-16.216 3.188-22.346 9.38-6.127 6.19-9.345 13.916-9.344 22.636v44.078h19.992V93.73c0-3.342 1.09-5.955 3.477-8.366 2.394-2.418 4.93-3.513 8.221-3.513 3.361 0 5.858 1.09 8.258 3.513 2.386 2.41 3.477 5.024 3.477 8.366v44.078h19.992V93.73c0-3.342 1.09-5.955 3.477-8.366 2.4-2.424 4.897-3.513 8.258-3.513 3.292 0 5.827 1.095 8.221 3.513 2.386 2.41 3.477 5.024 3.477 8.366l.109 51.502c0 10.987-10.463 20.246-23.904 20.246l-64.468-.253c-10.372 0-19.232-10.097-19.232-23.071V45.169H73.393v100.716c0 10.686 3.91 20.057 11.517 27.635 6.502 6.417 14.321 10.215 23.107 11.154v.363h71.784c11.03 0 20.721-4.102 28.54-12.061h.036c6.649-6.831 10.536-15.017 11.48-24.23l-.072-55.015c0-8.72-3.217-16.446-9.344-22.636-6.13-6.192-13.76-9.38-22.346-9.38-8.429 0-15.804 3.134-21.767 8.873-5.946-5.73-13.27-8.873-21.695-8.873z"/>
  <path fill="#fff" d="M143.037 62.24c-8.587 0-16.217 3.188-22.347 9.38-6.127 6.19-9.344 13.916-9.344 22.636v44.077h19.992V94.256c0-3.342 1.09-5.955 3.477-8.366 2.394-2.418 4.93-3.513 8.222-3.513 3.36 0 5.858 1.09 8.257 3.513 2.387 2.41 3.477 5.024 3.477 8.366v44.077h19.992V94.256c0-3.342 1.09-5.955 3.477-8.366 2.4-2.424 4.897-3.513 8.258-3.513 3.292 0 5.827 1.095 8.221 3.513 2.387 2.41 3.477 5.024 3.477 8.366l.109 51.502c0 10.987-10.463 20.246-23.904 20.246l-64.468-.254c-10.372 0-19.231-10.096-19.231-23.07V45.694H71.796V146.41c0 10.686 3.91 20.057 11.517 27.634 6.502 6.418 14.322 10.578 23.107 11.518h71.784c11.03 0 20.722-4.102 28.54-12.061h.036c6.65-6.832 10.536-15.017 11.481-24.23l-.072-55.015c0-8.72-3.217-16.447-9.345-22.636-6.13-6.192-13.76-9.38-22.346-9.38-8.428 0-15.803 3.134-21.767 8.873-5.946-5.73-13.27-8.873-21.694-8.873z"/>
  <path fill="#52a800" d="M131.28 165.817v19.745h46.959c11.03 0 20.664-4.114 28.482-12.074h.067c6.65-6.831 10.528-15 11.473-24.213v-11.206h-19.944v7.67c0 10.987-10.439 20.212-23.88 20.212l-43.157-.134z" opacity=".3"/>
  <path fill="#fff" d="M120.38 225.532c-45.445 0-84.881-34.451-84.881-79.854l-.04-55.13V76.49H6.646V6.445l121.497.572 38.006.081c45.485 0 84.88 34.41 84.88 79.854v138.58H120.38zm112.138-37.174V86.952c0-33.878-29.71-61.34-66.368-61.34h-38.047v-.082l-102.902-.45v32.898h11.527c7.826 0 17.243 7.354 17.243 18.146l.082 69.513c0 33.879 29.71 61.341 66.326 61.341h90.407c11.59 0 21.732-7.34 21.732-18.62z"/>
</svg>
