<svg xmlns="http://www.w3.org/2000/svg" xmlns:xlink="http://www.w3.org/1999/xlink" viewBox="0 0 105.412 142.122">
  <defs>
    <path id="a" d="M15 8.872v22.432a7.5 7.5 0 1 1-15 0V4.655C1.43 2.16 3.064 0 6.01 0c4.61 0 6.336 5.287 8.99 8.872zm29.28 1.595v35.018a8.515 8.515 0 1 1-17.03 0V5.795C28.852 2.858 30.505 0 33.893 0c5.364 0 6.825 7.162 10.386 10.467zm27.25-.65v25.348a7.664 7.664 0 0 1-15.328 0V3.92C57.536 1.751 59.125 0 61.778 0c5.034 0 6.63 6.309 9.751 9.816z"/>
    <path id="b" d="M15.328 16.168c-1.36-1.582-2.969-2.755-5.296-2.755-5.527 0-6.541 6.618-10.032 9.602V-5.151a7.664 7.664 0 0 1 15.328 0zm28.952.51c-1.45-1.832-3.145-3.265-5.716-3.265-6.149 0-6.713 8.192-11.315 10.457V11.668a8.515 8.515 0 0 1 17.031 0zm27.25-1.416c-1.18-1.104-2.58-1.85-4.434-1.85-5.957 0-6.672 7.688-10.894 10.228V-1.603a7.664 7.664 0 1 1 15.327 0z"/>
    <path id="c" d="M100.047 79.654c-1.954 2.955-3.44 6.596-7.413 6.596-6.688 0-7.05-10.313-13.74-10.313-6.691 0-6.33 10.313-13.017 10.313-6.688 0-7.05-10.313-13.74-10.313-6.692 0-6.33 10.313-13.018 10.313-6.687 0-7.049-10.313-13.74-10.313S19.05 86.25 12.362 86.25c-2.102 0-3.579-1.019-4.824-2.416C2.753 75.506 0 65.747 0 55.312 0 24.765 23.597 0 52.706 0s52.706 24.764 52.706 55.313c0 8.734-1.93 16.996-5.365 24.341z"/>
    <path id="f" d="M26 102h46v21H26z"/>
    <linearGradient id="e" x1="63.202" x2="63.202" y1="7.4" y2="60.623" gradientTransform="scale(.98666 1.01352)" gradientUnits="userSpaceOnUse">
      <stop offset="0%" stop-color="#3DC5FF"/>
      <stop offset="100%" stop-color="#98E4FF"/>
    </linearGradient>
  </defs>
  <g fill="none" fill-rule="evenodd" transform="translate(-11.294 -.628)">
    <path fill="#fb70a9" d="M111.341 104.654c-1.954 2.955-3.44 6.596-7.413 6.596-6.687 0-7.049-10.313-13.74-10.313s-6.33 10.313-13.017 10.313c-6.688 0-7.05-10.313-13.74-10.313-6.692 0-6.33 10.313-13.018 10.313-6.687 0-7.049-10.313-13.74-10.313-6.69 0-6.33 10.313-13.017 10.313-2.102 0-3.579-1.019-4.824-2.416-4.785-8.328-7.538-18.087-7.538-28.522C11.294 49.764 34.891 25 64 25s52.706 24.764 52.706 55.313c0 8.734-1.93 16.996-5.365 24.341z"/>
    <g transform="translate(30.118 88.75)">
      <use width="100%" height="100%" fill="#4e56a6" xlink:href="#a"/>
      <use width="100%" height="100%" fill="#000" fill-opacity=".299" xlink:href="#b"/>
    </g>
    <path fill="#fb70a9" d="M111.341 104.654c-1.954 2.955-3.44 6.596-7.413 6.596-6.687 0-7.049-10.313-13.74-10.313s-6.33 10.313-13.017 10.313c-6.688 0-7.05-10.313-13.74-10.313-6.692 0-6.33 10.313-13.018 10.313-6.687 0-7.049-10.313-13.74-10.313-6.69 0-6.33 10.313-13.017 10.313-2.102 0-3.579-1.019-4.824-2.416-4.785-8.328-7.538-18.087-7.538-28.522C11.294 49.764 34.891 25 64 25s52.706 24.764 52.706 55.313c0 8.734-1.93 16.996-5.365 24.341z"/>
    <path fill="#e24ca6" d="M101.89 110.34c12.39-20.03 12.358-42.266-.097-66.709 9.196 9.62 14.913 23.101 14.913 38.027 0 8.354-1.791 16.257-4.982 23.283-1.815 2.826-3.193 6.309-6.883 6.309a5.1 5.1 0 0 1-2.95-.91z"/>
    <g transform="translate(11.294 25)">
      <mask id="d" fill="#fff">
        <use width="100%" height="100%" xlink:href="#c"/>
      </mask>
      <path fill="#00b3ff" stroke="#088fda" stroke-width="1.75" d="M-12.678 38.375h124.744v11H-12.678z" mask="url(#d)"/>
    </g>
    <path fill="#31c2ff" stroke="#0097eb" stroke-width="2" d="M62.359 101.721c-22.505 0-34.13-12.14-34.13-32.735 0-19.545 15.611-36.765 34.13-36.765 18.519 0 34.13 17.22 34.13 36.765 0 20.596-11.625 32.735-34.13 32.735z"/>
    <path fill="#fff" d="M62.359 93.942c18.477 0 26.256-10.479 26.256-25.361C88.615 53.699 76.86 40 62.36 40S36.103 53.699 36.103 68.581s7.78 25.361 26.256 25.361z"/>
    <g transform="translate(45.453 48.173)">
      <ellipse cx="9.846" cy="10.625" fill="#030776" rx="9.846" ry="10.625"/>
      <ellipse cx="8.205" cy="8.173" fill="#fff" rx="4.923" ry="4.904"/>
    </g>
    <path fill="url(#e)" d="M62.359 61.442c18.477 0 26.256-10.479 26.256-25.361C88.615 21.199 76.86 7.5 62.36 7.5S36.103 21.199 36.103 36.081s7.78 25.361 26.256 25.361z" opacity=".39" style="fill:url(#e)" transform="translate(0 32.5)"/>
    <path stroke="#fff7f7" stroke-width="2.25" d="m70.024 70 10.57-10.529M65.506 82.75l18.07-18"/>
    <path fill="#363c74" d="M30 116c3.333 1.333 8.333 1.667 15 1v-4l-15-1z"/>
    <path fill="#0097eb" d="M32.878 9.165a3.244 3.244 0 0 0-1.75-2.88L20.427.74a1 1 0 0 0-1.46.868L18.824 9c9.37 18.62 14.054 18.675 14.054.165z"/>
    <path fill="#00b3ff" stroke="#0097eb" stroke-width="1.5" d="M39.033 102.27c-4.54-.338-6.905-3.023-6.905-7.808V9.932L19.574 9.76v91.798c0 8.97 6.643 13.442 20.332 13.442 12.971 0 19.616-4.016 20.277-12.069-.775.69-1.507 1.737-2.623 3.555l-.001.002c-2.503 4.078-4.003 5.512-7.146 5.512-3.125 0-4.708-1.418-7.486-5.48l-.001-.003c-1.74-2.543-2.614-3.566-3.893-4.246z"/>
    <path fill="#0097eb" d="M27 9v72.515A20.485 20.485 0 0 0 33 96V9z"/>
    <mask id="g" fill="#fff">
      <use width="100%" height="100%" xlink:href="#f"/>
    </mask>
    <path fill="#007abe" d="M64.153 99.565c.16 2.035-.051 3.373-.722 3.373-6.692 0-6.33 10.312-13.018 10.312C43.726 113.25 41 102 38 102c-.504 0-.762-.38-.807-1.041a6.2 6.2 0 0 0-.52-.021C32.793 100.938 44.648 77 54 77c5.787 0 10.622 17.479 10.153 22.565zm0 0c-.51-6.487-4.786-20.065-9.941-20.065-8.137 0-17.324 17.032-17.02 21.459 6.196.519 6.711 10.291 13.221 10.291 6.688 0 6.326-10.313 13.018-10.313.408 0 .642-.506.722-1.372z" mask="url(#g)"/>
  </g>
</svg>
