<svg xmlns="http://www.w3.org/2000/svg" viewBox="0 0 255.015 246.612">
  <g fill="#497bbb">
    <path d="m165.266 82.951 58.344 108.03-19.344 28.728H50.851l-19.477-29.302L89.708 82.95zm16.048-26.903H73.7L0 191.81l36.431 54.802h182.152l36.432-54.102z"/>
    <path d="M163.378 145.725h-42.596l15.693-42.596h-24.661L78.27 170.584h98.475zM8.685 192.806l44.839 40.354h152.45l44.84-40.354zM127.507 0c-20.011 0-36.234 16.28-36.234 36.369 0 2.13.22 4.2.57 6.228h23.024c-.928-1.888-1.493-3.982-1.493-6.228 0-7.834 6.327-14.183 14.129-14.183 7.806 0 14.128 6.35 14.128 14.183 0 2.246-.569 4.34-1.493 6.228h23.03c.35-2.027.569-4.103.569-6.228C163.74 16.28 147.519 0 127.507 0z"/>
  </g>
</svg>
