<svg xmlns="http://www.w3.org/2000/svg" viewBox="0 0 256 256.287">
  <path fill="#397ff8" d="M178.744 77.638h49.915V47.513h-19.723v-19.79h-30.192zm20.612 50.506 35.295 35.295 21.302-21.302-13.946-13.945L256 114.198l-21.35-21.35zM114.34 0 92.99 21.35l35.296 35.295 35.296-35.295L142.28.048l-13.946 13.946zM77.83 178.648H27.915v30.125h19.723v19.79H77.83zM.048 114.15l13.946 13.946L0 142.09l21.349 21.349 35.296-35.295-35.296-35.296zM77.83 77.638V27.723H47.705v19.723h-19.79v30.192zm100.914 101.01v49.915h30.125V208.84h19.79v-30.192zm-85.753 56.29 21.302 21.3 13.946-13.945 13.994 13.994 21.349-21.35-35.295-35.295zM128.258 65.33c-34.733 0-62.89 28.157-62.89 62.89 0 34.733 28.157 62.89 62.89 62.89 34.733 0 62.89-28.157 62.89-62.89 0-34.733-28.157-62.89-62.89-62.89zm0 96.72c-18.684 0-33.83-15.146-33.83-33.83 0-18.684 15.146-33.83 33.83-33.83 18.684 0 33.83 15.146 33.83 33.83 0 18.684-15.146 33.83-33.83 33.83z"/>
</svg>
