<svg xmlns="http://www.w3.org/2000/svg" viewBox="0 0 255.224 232.514">
  <g fill="none" fill-rule="evenodd">
    <path fill="#000" d="M0 0h23.792v157.893h94.087v19.466H0V0zM182.767 46.503c16.222-2.163 33.525 1.081 46.502 11.896 14.06 9.733 21.63 27.036 22.711 43.258 2.163 19.466 0 38.933-10.815 55.155-9.733 12.977-24.873 21.629-42.176 22.71-16.222 2.163-34.607-1.081-48.666-11.896-12.978-10.814-19.466-27.036-21.63-43.258-2.162-17.304 0-36.77 10.815-51.91 8.652-15.14 25.955-24.874 43.259-25.955zm3.244 18.385c10.815-1.082 22.71 2.162 31.362 9.733 7.57 8.651 11.896 19.466 12.978 30.28 1.081 11.897 0 24.874-5.407 35.689-5.408 10.814-15.14 18.385-27.037 20.547-10.815 2.163-22.71-1.081-30.28-7.57-8.652-6.489-14.06-16.222-16.223-25.955-2.163-14.059-1.081-28.118 4.326-41.095 5.407-11.896 17.304-20.548 30.281-21.63z"/>
    <path fill="#3492ff" d="M0 205.477h255.224v27.037H0z"/>
  </g>
</svg>
