<svg xmlns="http://www.w3.org/2000/svg" viewBox="0 0 511.763 63.264">
  <path fill="#355e72" d="M0 .805v46.822h32.774v-7.426H8.16V.805zM68.76 48.43c-3.61 0-6.914-.637-9.9-1.907-2.989-1.27-5.549-2.996-7.692-5.185-2.14-2.182-3.812-4.738-5.014-7.66-1.207-2.914-1.808-6.027-1.808-9.33v-.135c0-3.296.6-6.407 1.808-9.329a23.533 23.533 0 0 1 5.083-7.69c2.184-2.207 4.77-3.958 7.758-5.25C61.982.648 65.284 0 68.894 0c3.612 0 6.912.636 9.9 1.907 2.987 1.27 5.552 3 7.691 5.183 2.141 2.185 3.813 4.74 5.018 7.658 1.204 2.922 1.805 6.033 1.805 9.333v.131c0 3.302-.6 6.413-1.805 9.333a23.662 23.662 0 0 1-5.084 7.695c-2.184 2.206-4.774 3.955-7.76 5.252-2.989 1.29-6.285 1.937-9.899 1.937zm.134-7.558c2.307 0 4.43-.432 6.36-1.306 1.934-.866 3.587-2.05 4.963-3.545 1.375-1.492 2.45-3.245 3.23-5.252.777-2.005 1.167-4.148 1.167-6.42v-.136c0-2.27-.39-4.422-1.167-6.452-.78-2.029-1.865-3.79-3.265-5.285-1.399-1.493-3.074-2.686-5.03-3.578-1.95-.892-4.082-1.338-6.392-1.338-2.31 0-4.428.436-6.36 1.303-1.93.872-3.587 2.055-4.961 3.547-1.379 1.495-2.455 3.244-3.234 5.25-.775 2.008-1.163 4.147-1.163 6.422v.131c0 2.278.388 4.43 1.163 6.456.78 2.031 1.868 3.792 3.265 5.285 1.4 1.497 3.076 2.684 5.03 3.579 1.956.892 4.084 1.339 6.394 1.339zm61.605 7.558c-3.658 0-6.98-.615-9.966-1.84-2.986-1.227-5.54-2.92-7.657-5.082-2.119-2.163-3.76-4.706-4.918-7.628-1.16-2.918-1.738-6.097-1.738-9.531v-.136c0-3.25.593-6.353 1.786-9.297 1.19-2.942 2.86-5.515 5.016-7.723 2.152-2.206 4.712-3.957 7.68-5.25C123.662.65 126.912 0 130.432 0c2.052 0 3.914.147 5.586.436a25.44 25.44 0 0 1 4.648 1.237 23.41 23.41 0 0 1 4.046 1.974c1.271.78 2.51 1.683 3.714 2.708l-5.218 6.22a29.784 29.784 0 0 0-2.742-2.072 17.136 17.136 0 0 0-2.942-1.57 18.406 18.406 0 0 0-3.38-1.008c-1.226-.241-2.573-.366-4.046-.366-2.137 0-4.137.447-5.988 1.342a15.644 15.644 0 0 0-4.816 3.585c-1.358 1.498-2.43 3.25-3.211 5.261a17.506 17.506 0 0 0-1.169 6.367v.132c0 2.417.377 4.652 1.136 6.706.755 2.057 1.834 3.82 3.235 5.294 1.402 1.475 3.07 2.636 5.005 3.484 1.935.853 4.103 1.276 6.506 1.276 2.224 0 4.303-.326 6.238-.977 1.935-.65 3.614-1.51 5.035-2.59v-8.812h-11.97v-7.155h19.93v19.662a34.077 34.077 0 0 1-3.844 2.813 29.073 29.073 0 0 1-4.548 2.343 28.86 28.86 0 0 1-5.25 1.569c-1.874.38-3.837.57-5.888.57zM343.782 59.1a4.164 4.164 0 1 1-8.324-.002 4.164 4.164 0 0 1 8.324.002zm70.39-20.64h8.898v9.166h-8.897zM439.123.803h8.158v46.824h-8.158zm48.092 47.626c-3.61 0-6.913-.637-9.9-1.907-2.99-1.27-5.552-2.996-7.691-5.185-2.141-2.182-3.812-4.738-5.018-7.66-1.204-2.914-1.807-6.027-1.807-9.33v-.135c0-3.296.603-6.407 1.807-9.329 1.206-2.921 2.897-5.483 5.086-7.69 2.186-2.207 4.766-3.958 7.756-5.25C480.432.648 483.738 0 487.352 0c3.61 0 6.91.636 9.893 1.907 2.986 1.27 5.558 3 7.696 5.183 2.14 2.185 3.809 4.74 5.015 7.658 1.207 2.922 1.807 6.033 1.807 9.333v.131c0 3.302-.6 6.413-1.807 9.333a23.682 23.682 0 0 1-5.081 7.695c-2.19 2.206-4.777 3.955-7.764 5.252-2.986 1.29-6.283 1.937-9.897 1.937zm.138-7.558c2.302 0 4.426-.432 6.357-1.306 1.931-.866 3.586-2.05 4.959-3.545 1.38-1.492 2.454-3.245 3.233-5.252.775-2.005 1.163-4.148 1.163-6.42v-.136c0-2.27-.388-4.422-1.163-6.452-.78-2.029-1.866-3.79-3.265-5.285-1.399-1.493-3.08-2.686-5.029-3.578-1.952-.892-4.085-1.338-6.393-1.338-2.31 0-4.428.436-6.36 1.303-1.934.872-3.588 2.055-4.965 3.547-1.373 1.495-2.45 3.244-3.231 5.25-.774 2.008-1.162 4.147-1.162 6.422v.131c0 2.278.388 4.43 1.162 6.456.78 2.031 1.866 3.792 3.268 5.285 1.395 1.497 3.07 2.684 5.028 3.579 1.957.892 4.083 1.339 6.398 1.339z"/>
  <path fill="#319cd5" d="M76.594 19.424a4.167 4.167 0 0 1-4.159 4.167 4.169 4.169 0 0 1-4.166-4.167 4.167 4.167 0 0 1 4.166-4.162 4.165 4.165 0 0 1 4.16 4.162zM165.75.804h8.763l14.247 22.14L203.006.804h8.762v46.825h-8.159v-33.58l-14.783 22.073h-.269L173.909 14.18V47.63h-8.16zM245.41.468h7.628l20.605 47.158h-8.697l-4.749-11.308h-22.142l-4.816 11.308h-8.427zm11.773 28.561-8.092-18.727-8.025 18.727zm41.004-20.6H283.34V.804h37.992V8.43h-14.85v39.198h-8.294zM335.512.802h8.157v46.824h-8.157zm47.559 47.626c-3.434 0-6.599-.624-9.498-1.872-2.9-1.249-5.417-2.954-7.545-5.118-2.133-2.163-3.803-4.716-5.016-7.66-1.213-2.942-1.824-6.085-1.824-9.431v-.136c0-3.34.598-6.474 1.787-9.396 1.193-2.918 2.868-5.483 5.02-7.693 2.152-2.207 4.7-3.945 7.644-5.216C376.582.637 379.837 0 383.405 0c2.14 0 4.088.18 5.85.538 1.765.354 3.382.857 4.85 1.5a22.906 22.906 0 0 1 4.083 2.312 32.013 32.013 0 0 1 3.545 2.94l-5.287 6.09c-1.87-1.74-3.857-3.146-5.951-4.216-2.097-1.07-4.482-1.605-7.157-1.605-2.23 0-4.293.436-6.19 1.303a15.325 15.325 0 0 0-4.913 3.547c-1.384 1.495-2.454 3.244-3.21 5.25-.762 2.008-1.138 4.147-1.138 6.422v.131c0 2.278.376 4.43 1.139 6.456.755 2.031 1.825 3.805 3.21 5.32a15.026 15.026 0 0 0 4.911 3.577c1.898.874 3.96 1.306 6.19 1.306 2.856 0 5.308-.55 7.356-1.64 2.052-1.094 4.083-2.575 6.09-4.447l5.284 5.349a29.98 29.98 0 0 1-3.781 3.446 24.893 24.893 0 0 1-4.248 2.612c-1.512.733-3.176 1.293-4.983 1.668-1.803.38-3.801.57-5.984.57z"/>
</svg>
