<svg xmlns="http://www.w3.org/2000/svg" viewBox="0 0 256 120.53">
  <path fill="#bc1b23" d="M195.985 0c-13.945 0-31.129 8.467-52.794 25.899a569.1 569.1 0 0 0-15.44 13.199c-4.232-3.985-9.462-8.467-15.439-13.2C90.896 8.469 73.464 0 59.767 0 26.894 0 0 27.144 0 60.265c0 33.369 26.894 60.265 59.767 60.265 13.945 0 31.129-8.467 52.793-25.9A569.098 569.098 0 0 0 128 81.433c4.233 3.985 9.463 8.467 15.44 13.199 21.666 17.432 38.848 25.899 52.793 25.899 32.871 0 59.767-27.144 59.767-60.265C255.752 27.144 228.856 0 195.985 0zm-102.6 70.724c-22.66 17.93-32.123 18.927-33.618 18.927-15.937 0-28.887-13.2-28.887-29.386 0-16.187 12.95-29.386 28.887-29.386 1.743 0 10.957.996 33.619 18.927 4.482 3.486 8.716 7.222 12.202 10.459-3.735 3.237-7.72 6.724-12.202 10.46zm43.58 3.735-20.67-1.245-1.742-19.922 12.95-13.945 1.494 19.922 20.919 1.245zm59.02 15.192c-1.743 0-10.957-.996-33.619-18.927-4.482-3.487-8.717-7.222-12.202-10.46 3.487-3.236 7.72-6.723 11.954-10.209 22.661-18.18 32.124-19.175 33.618-19.175 15.938 0 28.887 13.2 28.887 29.386.248 16.186-12.701 29.385-28.638 29.385z"/>
</svg>
