<svg xmlns="http://www.w3.org/2000/svg" viewBox="0 0 255.995 412.728">
  <path fill="#34a853" d="M127.128 0a36.088 36.088 0 0 0-29.935 56.22l15.413-15.393a14.957 14.957 0 0 1-.76-4.76c0-8.405 6.813-15.218 15.217-15.218 8.405 0 15.218 6.813 15.218 15.217 0 8.405-6.813 15.218-15.218 15.218-1.61.004-3.21-.253-4.739-.76l-15.392 15.391A36.066 36.066 0 1 0 127.128 0z"/>
  <path fill="#fbbc04" d="M112.78 105.112a56.068 56.068 0 0 0-11.24-33.784l-20 19.98c6.255 11.44 4.004 25.66-5.478 34.61l10.87 26.565a56.372 56.372 0 0 0 25.848-47.37z"/>
  <path fill="#ea4335" d="M56.887 133.787h-.522a28.697 28.697 0 1 1 15.762-52.676l19.805-19.805C72.674 45.694 45.478 44.49 24.915 58.34 4.352 72.188-4.754 97.842 2.475 121.556c7.23 23.715 29.099 39.926 53.89 39.95a57.667 57.667 0 0 0 11.392-1.131z"/>
  <path fill="#4285f4" d="M127.89 156.766a127.982 127.982 0 0 0-36.958 5.413l15.848 38.719a87.372 87.372 0 0 1 21.088-2.565c41.183.012 76.623 29.112 84.648 69.506 8.026 40.393-13.599 80.831-51.65 96.585-38.05 15.754-81.931 2.437-104.808-31.808-22.877-34.244-18.38-79.88 10.742-109a87.22 87.22 0 0 1 20.588-15.218l-15.674-38.61c-58.427 28.615-86.09 96.51-64.299 157.808 21.793 61.3 86.105 96.497 149.483 81.809 63.378-14.688 105.653-74.586 98.26-139.223-7.394-64.636-62.102-113.44-127.16-113.438z"/>
</svg>
