<svg xmlns="http://www.w3.org/2000/svg" viewBox="0 0 512 154.342">
  <path fill="#222" d="M263.696 54.635c23.521 0 40.263 17.897 40.263 40.625 0 23.095-16.92 40.585-40.263 40.585-23.352 0-40.263-17.32-40.263-40.585 0-22.893 16.856-40.625 40.263-40.625zm84.542 0c23.521 0 40.263 17.897 40.263 40.625 0 23.095-16.929 40.585-40.263 40.585-23.352 0-40.263-17.32-40.263-40.585 0-22.893 16.856-40.625 40.263-40.625zm136.02.078c14.182 0 27.742 8.578 27.742 29.16v49.75h-20.106V88.087c0-8.268-4.056-14.503-13.565-14.503-8.886 0-14.187 6.862-14.187 15.13v44.912h-20.568v-45.54c0-8.267-4.208-14.502-13.565-14.502-9.042 0-14.343 6.707-14.343 15.13v44.912h-20.724V56.895h19.795v9.36c4.207-7.484 14.03-11.542 22.445-11.542 10.448 0 18.862 4.525 22.758 12.787 6.074-9.36 14.187-12.787 24.318-12.787zM216.85 20.716v112.906h-20.729V20.716zm131.388 52.438c-12.182 0-22.093 9.919-22.093 22.102s9.911 22.102 22.093 22.102 22.093-9.919 22.093-22.102c-.005-12.183-9.916-22.102-22.093-22.102zm-84.542.26c-12.044 0-21.842 9.8-21.842 21.851 0 12.05 9.798 21.85 21.842 21.85 12.045 0 21.837-9.8 21.837-21.85s-9.792-21.85-21.837-21.85z"/>
  <path fill="#625df5" d="M154.342 68.589H109.21l39.086-22.567-8.583-14.871-39.087 22.566 22.562-39.083-14.872-8.589-22.561 39.083V0H68.587v45.133L46.017 6.045 31.15 14.63l22.566 39.083L14.629 31.15 6.045 46.018l39.086 22.566H0v17.17h45.127L6.045 108.318l8.584 14.872 39.082-22.562-22.565 39.083 14.87 8.584 22.566-39.087v45.133h17.169v-45.129l22.561 39.083 14.87-8.584-22.565-39.087 39.087 22.566 8.584-14.872-39.082-22.562h45.127V68.59zM77.17 100.52c-12.945 0-23.438-10.492-23.438-23.438 0-12.945 10.493-23.438 23.438-23.438 12.945 0 23.437 10.493 23.437 23.438 0 12.946-10.492 23.439-23.437 23.439z"/>
</svg>
