<svg xmlns="http://www.w3.org/2000/svg" viewBox="0 0 255.845 255.842">
  <path fill="#00007d" d="M225.768 127.94c0-54.024-43.845-97.869-97.869-97.869-54.023 0-97.869 43.845-97.869 97.87 0 54.023 43.846 97.868 97.87 97.868 54.023 0 97.868-43.845 97.868-97.869"/>
  <path fill="#fff" d="M197.114 87.391c0-15.823-12.842-28.665-28.665-28.665-15.824 0-28.666 12.842-28.666 28.665 0 15.823 12.842 28.665 28.666 28.665 15.823 0 28.665-12.842 28.665-28.665"/>
  <path fill="#00007d" d="M254.434 30.07c0-15.822-12.842-28.664-28.665-28.664-15.823 0-28.665 12.842-28.665 28.665 0 15.823 12.842 28.665 28.665 28.665 15.823 0 28.665-12.842 28.665-28.665"/>
  <path fill="#fff" d="M61.169 113.673h8.558v55.653h31.698v7.526H61.169v-63.18M116.865 130.79v30.58c0 2.35.363 4.272 1.09 5.763 1.34 2.752 3.839 4.129 7.497 4.129 5.25 0 8.824-2.41 10.723-7.226 1.033-2.58 1.55-6.121 1.55-10.623V130.79h7.74v46.062h-7.31l.086-6.795c-.986 1.75-2.21 3.226-3.674 4.43-2.898 2.409-6.414 3.613-10.55 3.613-6.443 0-10.832-2.194-13.167-6.58-1.266-2.351-1.899-5.49-1.899-9.42v-31.31h7.914M182.798 148.976c1.778-.228 2.968-.973 3.57-2.232.343-.691.516-1.684.516-2.98 0-2.647-.938-4.568-2.812-5.763-1.875-1.194-4.557-1.792-8.048-1.792-4.034 0-6.896 1.095-8.585 3.285-.944 1.211-1.559 3.012-1.845 5.403h-7.225c.143-5.693 1.983-9.654 5.52-11.883 3.536-2.228 7.639-3.342 12.307-3.342 5.412 0 9.808 1.032 13.188 3.097 3.35 2.064 5.026 5.276 5.026 9.634v26.538c0 .803.165 1.448.495 1.935.329.486 1.024.73 2.086.73.344 0 .73-.022 1.16-.065.43-.043.89-.107 1.377-.193v5.72c-1.204.344-2.122.559-2.752.645-.631.086-1.492.129-2.58.129-2.667 0-4.603-.946-5.807-2.838-.631-1.003-1.075-2.423-1.334-4.257-1.577 2.064-3.842 3.856-6.795 5.375-2.953 1.519-6.208 2.279-9.763 2.279-4.273 0-7.763-1.296-10.472-3.888-2.71-2.591-4.065-5.834-4.065-9.729 0-4.267 1.333-7.574 4-9.922 2.667-2.348 6.164-3.795 10.494-4.34l12.344-1.546zm-16.3 20.914c1.634 1.287 3.569 1.93 5.806 1.93 2.723 0 5.36-.63 7.913-1.888 4.3-2.09 6.451-5.511 6.451-10.263v-6.227c-.944.605-2.16 1.108-3.648 1.51-1.488.404-2.947.69-4.378.862l-4.679.601c-2.804.373-4.913.96-6.326 1.76-2.395 1.345-3.591 3.49-3.591 6.437 0 2.231.817 3.99 2.451 5.278z"/>
  <path fill="#929292" d="m132.45 255.842-.102-2.935c3.63-.126 7.288-.412 10.874-.85l.356 2.914c-3.67.448-7.414.741-11.127.871zm-11.16-.09a129.13 129.13 0 0 1-11.112-1.053l.403-2.909c3.582.498 7.236.844 10.858 1.029zm33.299-2.618-.61-2.872c3.545-.752 7.097-1.67 10.558-2.73l.86 2.808a127.516 127.516 0 0 1-10.808 2.794zm-55.39-.453c-3.613-.83-7.233-1.83-10.761-2.974l.905-2.793a124.63 124.63 0 0 0 10.512 2.905zm76.72-6.075-1.103-2.72a124.905 124.905 0 0 0 9.916-4.534l1.336 2.615a127.93 127.93 0 0 1-10.15 4.64zm-97.945-.808a128.1 128.1 0 0 1-10.08-4.812l1.38-2.592c3.201 1.704 6.514 3.286 9.848 4.7zm117.802-9.341-1.56-2.488a126.271 126.271 0 0 0 8.982-6.19l1.77 2.344a129.22 129.22 0 0 1-9.192 6.334zm-137.5-1.143a129.107 129.107 0 0 1-9.088-6.487l1.808-2.314a126.012 126.012 0 0 0 8.88 6.34zm155.3-12.3-1.966-2.18c2.691-2.427 5.309-5 7.779-7.648l2.148 2.002a129.597 129.597 0 0 1-7.962 7.827zm-172.879-1.438a129.437 129.437 0 0 1-7.83-7.957l2.18-1.967a126.536 126.536 0 0 0 7.652 7.776zm188.093-14.875-2.312-1.809a126.198 126.198 0 0 0 6.343-8.877l2.461 1.601a128.971 128.971 0 0 1-6.492 9.085zm-203.036-1.687a128.8 128.8 0 0 1-6.338-9.188l2.487-1.56a125.953 125.953 0 0 0 6.193 8.977zM240.96 188l-2.592-1.38c1.706-3.201 3.289-6.513 4.705-9.846l2.703 1.15A128.24 128.24 0 0 1 240.96 188zm-227.058-1.878a128.078 128.078 0 0 1-4.645-10.148l2.72-1.104a124.897 124.897 0 0 0 4.538 9.914zm235.788-18.66-2.792-.908a124.597 124.597 0 0 0 2.91-10.51l2.861.658a127.588 127.588 0 0 1-2.979 10.76zM5.518 165.453a127.414 127.414 0 0 1-2.8-10.807l2.872-.611a124.604 124.604 0 0 0 2.735 10.557zm249.175-19.73-2.908-.405c.499-3.581.847-7.234 1.033-10.857l2.933.151a129.047 129.047 0 0 1-1.058 11.11zM.876 143.637A129.35 129.35 0 0 1 0 132.51l2.934-.103c.128 3.627.416 7.285.856 10.873zm252.035-20.084a125.48 125.48 0 0 0-.856-10.877l2.914-.358c.452 3.682.747 7.427.876 11.132zM3.017 121.498l-2.932-.149c.188-3.708.54-7.446 1.047-11.112l2.909.402c-.496 3.582-.84 7.235-1.024 10.859zm247.237-19.582a125.61 125.61 0 0 0-2.732-10.563l2.808-.859a128.518 128.518 0 0 1 2.796 10.811zM6.007 99.912l-2.862-.655a127.484 127.484 0 0 1 2.968-10.762l2.793.904a124.54 124.54 0 0 0-2.9 10.513zM243.88 81.068c-1.358-3.36-2.88-6.7-4.525-9.928l2.616-1.333a128.637 128.637 0 0 1 4.63 10.161zM12.72 79.175l-2.703-1.146a127.956 127.956 0 0 1 4.806-10.081l2.592 1.378a125.062 125.062 0 0 0-4.695 9.85zm10.233-19.25-2.462-1.6a129.05 129.05 0 0 1 6.483-9.09l2.314 1.806a126.246 126.246 0 0 0-6.335 8.884zM36.37 42.74l-2.15-2a129.429 129.429 0 0 1 7.954-7.835l1.968 2.179a126.539 126.539 0 0 0-7.772 7.656zm16.177-14.61-1.772-2.341a128.99 128.99 0 0 1 9.185-6.343l1.562 2.486a125.92 125.92 0 0 0-8.975 6.198zm143.494-5.1-.161-.103 1.597-2.464.155.1zm-9.568-5.626a125.705 125.705 0 0 0-9.854-4.682l1.143-2.704a128.38 128.38 0 0 1 10.085 4.791zM71 16.54l-1.338-2.613a127.854 127.854 0 0 1 10.145-4.65l1.105 2.72a125.005 125.005 0 0 0-9.912 4.543zm95.393-7.624a125.475 125.475 0 0 0-10.517-2.9l.656-2.862c3.614.829 7.236 1.828 10.764 2.968zm-75.206-.576-.862-2.807a127.612 127.612 0 0 1 10.806-2.806l.612 2.872a124.668 124.668 0 0 0-10.556 2.74zm53.958-4.297c-3.59-.499-7.244-.845-10.862-1.03l.15-2.932c3.702.189 7.443.544 11.116 1.054zM112.5 3.796 112.14.88C115.81.43 119.554.133 123.267 0l.105 2.934c-3.629.13-7.286.42-10.873.862z"/>
</svg>
