<svg xmlns="http://www.w3.org/2000/svg" viewBox="0 0 511.012 80.558">
  <path fill="#c1da94" d="M83.693 67.34c5.021 3.984 33.163 3.435 53.158 2.655 5.417-.21.373-1.19.649-4.214.274-3.022 9.469-24.85 10.568-26.224 1.1-1.374 14.567-.55 15.666-.55 1.1 0-10.79 23.35-9.462 26.844 2.457 6.459 8.735 5.408 12.972 3.022 2.77-1.556 13.53-29.866 14.63-30.14 1.1-.274 8.183-.482 8.527.344.436 1.045-14.648 29.502-11.825 31.043 1.243.678 35.562.678 36.27.22 1.83-1.182-1.014-17.02 11.072-26.05 11.22-8.385 36.27-4.897 37.18-4.636 1.923.55-1.765 5.54-3.69 6.364-1.923.825-15.62-1.056-20.037 1.464-8.874 5.06-11.444 21.542-6.827 22.72 3.411.87 47.18.458 47.546 0 1.306-1.63 8.727-27.69 13.583-29.522 5.348-2.018 26.66-3.298 28.4.457 1.75 3.775-1.936 15.528-6.596 18.85-2.473 1.763-19.72.202-20.613 6.505-.435 3.069 1.625 3.344 6.093 3.893 2.835.35 44.172.343 44.928-.182 3.772-2.63 8.751-26.091 14.132-29.433 2.914-1.808 32.203-4.37 36.296 2.36 4.473 7.352-8.383 23.7-4.576 26.77 1.284 1.034 35.441.828 35.946.303 1.578-1.651 8.49-27.554 13.231-29.478 4.269-1.731 25.493-3.298 28.035-.274 2.83 3.366-1.735 16.747-6.116 20.27-2.422 1.946-19.72.008-20.613 6.596-.406 3 4.404 3.274 8.389 3.343 2.496.043 24.667-.022 59.366-.022 0 0-.459 5.52-8.108 8.93h-110.9c-6.062 0-10.887-6.183-7.97-13.076 2.87-6.784 6.919-16.095 5.237-18.667-1.557-2.381-15.002-1.121-16.032-.023-3.092 3.3-8.981 31.827-14.809 31.802l-278.86-.03.069-.023c-7.696.077-20.394-3.063-16.348-15.006 3.757-11.085 6.323-17.453 6.323-17.453-28.584.916-51.03.916-55.863-.96C5.924 43.49 2.98 33.807 5.57 35.274c2.255 1.277 7.166 4.099 10.443 4.479 4.741.55 48.773-3.85 55.164-4.263 3.474-.224 4.202-4.408 4.202-4.408-26.294 1.008-50.951 1.156-55.105-.848-4.558-2.198-8.018-6.756-8.039-9.802-.02-2.489 3.991 4.36 10.925 4.662 11.612.505 47.032-3.758 54.085-4.262 3.67-.262 4.066-4.295 4.066-4.295-30.141 1.192-51.218.786-54.052-.548-4.764-2.245-8.062-7.513-8.223-10.88-.12-2.53 2.96 5.278 10.995 5.702 9.345.496 62.358-5.976 65.115-6.138 7.787-.457 5.404 7.421 3.39 12.002-3.992 9.07-22.157 44.86-14.842 50.664z"/>
  <path fill="#cbcbcb" d="M83.1 68.087c4.48 3.555 23.427 4.046 53.789 2.862 2.368-.092 3.157-.258 3.401-1.23.136-.541-.05-.907-.446-1.379-.097-.114-.564-.623-.686-.766-.53-.625-.76-1.136-.708-1.706.227-2.495 9.156-24.206 10.364-25.715.181-.227 3.173-.469 7.079-.432 1.444.014 2.97.054 4.649.117.508.02 2.989.124 3.192.124a.875.875 0 0 1-.864-.677.45.45 0 0 1-.018-.16c-.015.097-.07.296-.162.572-.19.57-.523 1.414-1.013 2.586-.533 1.275-3.06 7.104-3.568 8.297-.252.591-.49 1.154-.717 1.698-3.273 7.811-4.683 12.147-4.012 13.912 2.377 6.25 8.382 6.865 14.332 3.514 1.387-.779 3.564-5.09 7.443-13.927.22-.5.446-1.018.682-1.56.372-.855 3.678-8.525 4.464-10.3.668-1.508 1.18-2.618 1.567-3.39.203-.404.368-.71.491-.907.051-.082.09-.137.11-.16-.066.077-.149.145-.364.199.467-.116 2.503-.228 4.308-.212 1.015.009 1.901.055 2.545.136a4.5 4.5 0 0 1 .733.14c-.012-.004-.072-.04-.171-.28-.076-.181-.076-.276-.06-.366-.005.026-.02.085-.045.166-.061.198-.17.488-.321.861a83.326 83.326 0 0 1-1.348 3.055c-.453.99-3.392 7.291-4.297 9.266-.284.621-.556 1.219-.817 1.798-4.906 10.867-6.552 15.621-4.513 16.734 1.44.786 36.148.894 37.246.183.77-.496.958-1.326 1.208-3.757.722-7.01 1.046-8.958 2.609-12.77 1.57-3.828 3.934-7.038 7.308-9.56 4.726-3.531 12.459-5.195 21.902-5.37a95.576 95.576 0 0 1 10.007.357c2.129.187 4.162.453 4.435.531-.09-.025-.139-.142-.169.016-.073.39-.347.976-.77 1.626-.862 1.328-2.139 2.618-2.862 2.927-.407.175-1.717.187-5.755.082a147.796 147.796 0 0 0-4.462-.07c-4.778.012-8.007.411-9.918 1.502-8.68 4.948-12.97 22.845-6.59 24.473 1.66.424 11.585.589 25.155.528 15.338-.07 22.87-.23 23.372-.855.532-.665 5.201-13.871 5.64-15.032 1.189-3.14 2.279-5.783 3.31-7.967 1.719-3.646 3.229-5.852 4.225-6.229 6.19-2.335 25.979-2.662 27.197-.034 1.62 3.497-2.151 14.726-6.284 17.672-.426.304-1.847.54-4.834.811-.114.01-1.843.165-2.375.215-.954.089-1.757.172-2.527.263-6.954.827-10.771 2.359-11.268 5.859-.265 1.875.283 3.14 1.719 3.875 1.016.52 2.057.713 5.202 1.099 3.464.427 44.608.338 45.59-.346 1.821-1.27 2.279-2.386 6.94-15.252 3.122-8.619 5.18-12.93 7.15-14.153 1.365-.847 9.705-1.855 17.206-1.878 9.391-.03 16.202 1.342 17.771 3.923 1.387 2.279.988 5.803-.902 11.022a94.492 94.492 0 0 1-1.333 3.43c-.18.443-.813 1.99-.793 1.94-.312.765-.54 1.33-.752 1.87-.542 1.383-.925 2.47-1.196 3.431-.72 2.56-.652 4.3.617 5.324 1.493 1.203 36.245 1.25 37.233.22.507-.53 1.085-1.971 2.295-5.422.326-.93 1.68-4.851 1.577-4.554a336.372 336.372 0 0 1 1.809-5.112c1.187-3.259 2.249-5.933 3.253-8.132 1.606-3.52 3.02-5.65 3.968-6.034 4.97-2.016 25.076-2.767 26.945-.544 2.301 2.735-1.754 15.512-5.983 18.911-.423.341-1.917.586-5.169.86l-1.079.09-1.122.095c-.872.076-1.612.148-2.321.227-6.971.777-10.779 2.317-11.27 5.941-.265 1.96 1 3.204 3.242 3.819 1.506.413 3.274.557 6.076.606 1.275.022-.433.023 25.85-.004 12.005-.012 22.266-.018 33.533-.018l-.95-1.033c-.023.27-.142.808-.433 1.527-.5 1.232-1.322 2.473-2.547 3.641-1.188 1.133-2.697 2.136-4.567 2.97l.389-.082h-110.9c-5.738 0-9.602-5.817-7.09-11.751l.756-1.788c.3-.708.547-1.297.784-1.868.342-.82.65-1.57.938-2.289 2.94-7.328 4.01-11.58 2.678-13.616-1.71-2.617-15.77-2.027-17.527-.154-.795.848-1.625 2.746-2.805 6.13-.621 1.779-2.985 9.008-3.306 9.965-3.278 9.751-5.81 14.978-7.813 15.386a.902.902 0 0 1-.185.02l-278.863-.03v.955l.32.9.067-.025 5.374-1.91-5.703.056c-4.397.045-8.994-.934-12.061-2.85-3.748-2.341-5.075-5.87-3.373-10.895a452.05 452.05 0 0 1 4.56-12.856c.485-1.299.916-2.43 1.289-3.39.223-.573.376-.961.455-1.157l.547-1.357-1.463.047c-31.437 1.008-51.208.765-55.486-.896-2.762-1.074-5.154-3.598-6.58-6.5-.554-1.13-.873-2.174-.888-2.784-.003-.116-.002-.118-.123-.016-.206.173-.376.16-.37.163 1.753.993 2.45 1.378 3.605 1.968.95.486 1.852.914 2.714 1.281 1.722.734 3.222 1.201 4.484 1.348 2.21.256 11.706-.413 27.955-1.838 1.035-.09 2.099-.185 3.2-.282 2.433-.216 4.906-.439 8.026-.722l7.135-.646c5.081-.459 7.754-.689 9.02-.77 1.833-.119 3.191-1.122 4.11-2.663.563-.946.856-1.877.97-2.534l.203-1.162-1.18.045c-29.818 1.142-51.11.955-54.653-.754-4.105-1.98-7.48-6.196-7.5-8.95 0 .08-.14.378-.632.416-.156.012-.052.064.118.187.026.018 2.065 1.65 2.935 2.253 2.4 1.661 4.815 2.65 7.508 2.767 4.764.207 13.549-.339 25.94-1.48 2.18-.202 4.459-.42 6.885-.659 1.297-.128 19.37-1.982 21.37-2.125 1.902-.136 3.264-1.12 4.114-2.623.533-.943.769-1.871.834-2.53l.107-1.09-1.095.043c-28.515 1.128-50.842.844-53.608-.458-4.107-1.936-7.516-6.714-7.675-10.062-.004-.08-.002-.114-.019-.06a.83.83 0 0 1-.898.55c-.173-.022-.224-.052-.252-.076.06.05.15.139.279.274.038.04.784.85 1.077 1.152a20.428 20.428 0 0 0 1.654 1.547c2.343 1.948 4.997 3.147 8.15 3.313 3.907.207 15.118-.717 32.062-2.496 1.717-.18 3.483-.369 5.304-.565 7.058-.76 27.234-3.04 27.855-3.077 3.02-.177 4.245.91 4.361 3.207.1 1.955-.636 4.582-1.9 7.458.01-.027-5.739 12.379-7.905 17.383a243.075 243.075 0 0 0-3.045 7.337c-5.76 14.601-7.55 23.952-3.612 27.075zm1.186-1.495c-2.875-2.28-1.144-11.329 4.202-24.88.913-2.314 1.92-4.734 3.02-7.279 2.154-4.976 7.9-17.374 7.9-17.373 1.376-3.127 2.179-5.995 2.06-8.322-.17-3.36-2.305-5.256-6.38-5.016-.68.04-20.984 2.334-27.946 3.085-1.82.196-3.584.384-5.3.564-16.789 1.763-28.006 2.687-31.762 2.488-2.703-.142-4.982-1.172-7.03-2.874a18.557 18.557 0 0 1-1.501-1.406c-.274-.283-1.014-1.085-1.067-1.142-.511-.537-.73-.72-1.17-.776-1.055-.134-1.275.556-1.23 1.495.195 4.077 4.042 9.47 8.769 11.697 3.204 1.509 25.375 1.79 54.497.639l-.988-1.047c-.008.09-.04.278-.104.531-.109.428-.27.855-.492 1.247-.554.98-1.372 1.571-2.588 1.658-2.034.145-20.166 2.006-21.421 2.13-2.423.239-4.697.456-6.873.657-12.3 1.133-21.037 1.676-25.682 1.474-2.284-.1-4.375-.955-6.505-2.43-.802-.554-2.82-2.17-2.903-2.23-.547-.396-.912-.58-1.382-.543-.835.063-1.137.703-1.13 1.501.025 3.577 3.876 8.387 8.578 10.655 3.994 1.926 25.04 2.111 55.557.942l-.977-1.117c-.017.098-.064.3-.149.567a6.25 6.25 0 0 1-.581 1.316c-.622 1.044-1.46 1.663-2.593 1.736-1.29.083-3.965.313-9.068.774l-7.136.647a4622.136 4622.136 0 0 1-11.221 1.003c-15.91 1.395-25.564 2.075-27.568 1.843-1.047-.121-2.387-.539-3.955-1.207a41.44 41.44 0 0 1-2.595-1.225c-1.122-.574-1.803-.95-3.533-1.93-1.348-.764-2.39.113-2.355 1.56.023.93.417 2.223 1.084 3.58 1.62 3.298 4.341 6.17 7.6 7.437 4.655 1.808 24.297 2.049 56.24 1.024l-.916-1.31c-.082.203-.239.598-.464 1.18-.376.966-.81 2.106-1.298 3.413a453.949 453.949 0 0 0-4.58 12.91c-1.99 5.877-.318 10.323 4.17 13.127 3.418 2.136 8.36 3.187 13.091 3.14l-.01-.954-.32-.9-.067.025-5.212 1.853h5.531l278.86.029c.188 0 .38-.019.57-.057 3.085-.63 5.603-5.827 9.24-16.649.328-.973 2.686-8.187 3.3-9.945 1.073-3.078 1.864-4.886 2.395-5.452.252-.269 3.791-.851 7.162-.993 3.898-.164 6.957.245 7.376.885.796 1.218-.252 5.379-2.853 11.861-.285.71-.59 1.454-.928 2.267-.236.567-.482 1.153-.78 1.858l-.756 1.787c-3.045 7.193 1.744 14.403 8.848 14.403H502.07l.185-.083c2.067-.921 3.76-2.046 5.107-3.332 2.46-2.345 3.426-4.73 3.564-6.391l.086-1.034h-1.037c-11.268 0-21.53.007-33.535.019-26.176.026-24.56.025-25.815.004-2.645-.046-4.302-.182-5.605-.54-1.43-.391-1.963-.915-1.854-1.72.315-2.33 3.513-3.623 9.589-4.3a95.363 95.363 0 0 1 2.276-.223c.331-.03.664-.058 1.114-.095l1.081-.09c3.863-.326 5.323-.565 6.205-1.274 4.96-3.988 9.378-17.906 6.248-21.628-2.585-3.074-23.457-2.294-29.123.005-1.592.646-3.161 3.009-4.988 7.009-1.028 2.253-2.106 4.97-3.31 8.272-.56 1.54-1.118 3.12-1.818 5.14.101-.293-1.251 3.623-1.575 4.547-1.022 2.914-1.665 4.517-1.872 4.734.213-.222.023-.185.114-.194-.255.027-.63.055-1.113.081-.957.053-2.315.1-3.983.139-3.325.077-7.685.119-12.008.113-9.305-.013-17.38-.294-17.668-.525-.96-.774-.421-2.688 2.695-10.36.564-1.387.98-2.455 1.359-3.499 2.078-5.735 2.529-9.722.739-12.664-2.08-3.421-9.28-4.871-19.408-4.84-7.885.024-16.419 1.056-18.206 2.165-2.527 1.57-4.604 5.92-7.939 15.125-4.226 11.665-4.954 13.443-6.236 14.336-.407.283-41.39.372-44.266.017-2.863-.351-3.84-.532-4.566-.903-.66-.337-.856-.792-.698-1.909.314-2.212 3.55-3.51 9.604-4.23.751-.09 1.539-.171 2.479-.259.526-.05 2.253-.203 2.37-.214 3.51-.32 4.921-.554 5.77-1.158 4.84-3.451 8.937-15.647 6.907-20.028-1.836-3.962-22.527-3.62-29.603-.95-1.659.627-3.328 3.067-5.278 7.2-1.055 2.237-2.163 4.924-3.368 8.107-.733 1.939-5.049 14.143-5.345 14.513.25-.312-.194-.244.11-.27-.322.027-.798.054-1.414.08-1.21.052-2.94.103-5.075.148-4.254.09-9.876.157-15.511.182-13.142.06-23.269-.11-24.675-.468-1.501-.383-2.064-4.123-.954-8.758 1.273-5.308 4.222-10.045 8.018-12.209 1.518-.866 4.538-1.24 8.976-1.25 1.271-.004 2.446.017 4.407.069 4.772.125 5.74.116 6.558-.235 1.138-.488 2.661-2.027 3.711-3.642.546-.84.917-1.633 1.045-2.312.194-1.027-.177-1.918-1.181-2.205-1.486-.426-8.87-1.073-15.003-.96-9.81.18-17.883 1.918-23.01 5.749-3.664 2.738-6.236 6.229-7.931 10.363-.951 2.32-1.598 4.761-2.041 7.43a56.822 56.822 0 0 0-.434 3.224c-.07.648-.26 2.586-.266 2.646-.16 1.55-.34 2.346-.346 2.35-.485.313-34.447.208-35.295-.256.127.07.163.134.159.106-.028-.173-.017-.458.039-.836.12-.81.437-1.953.936-3.394.88-2.541 2.276-5.88 4.203-10.15.26-.576.53-1.17.814-1.788.9-1.967 3.84-8.268 4.296-9.266 1.767-3.856 2.07-4.6 1.8-5.245-.572-1.373-7.504-1.434-9.638-.902-.755.188-1.196 1.07-3.087 5.338-.79 1.785-4.1 9.463-4.469 10.31-.235.54-.46 1.056-.68 1.555-3.451 7.862-5.835 12.584-6.63 13.03-5.07 2.856-9.748 2.377-11.614-2.529-.39-1.029 1.083-5.559 3.989-12.496.226-.54.463-1.1.713-1.687.504-1.182 3.034-7.02 3.573-8.308.507-1.213.852-2.092 1.062-2.716a5.56 5.56 0 0 0 .24-.897 1.412 1.412 0 0 0-.01-.546c-.1-.44-.463-.808-.996-.808-.157 0-2.547-.1-3.12-.122a168.067 168.067 0 0 0-4.704-.118c-5.117-.049-7.803.169-8.587 1.148-1.438 1.797-10.513 23.861-10.774 26.734-.107 1.178.324 2.136 1.153 3.113.156.184.62.688.68.76.01.012-.014-.034.057-.314a.639.639 0 0 1 .286-.41c-.001.002-.06.02-.167.043-.33.07-.898.122-1.744.155-29.306 1.143-48.631.642-52.528-2.45z"/>
  <path d="M302.449 42.037c-1.658 0-6.395 7.75-5.136 9.013 1.016 1.015 3.402.732 6.65-.079 1.955-.49 5.75-7.058 4.52-8.493-.593-.69-1.646-.795-3.44-.683-.39.025-.796.06-1.27.11-.204.02-.806.086-.88.094a6.39 6.39 0 0 1-.444.038zm0 1.908c.144 0 .326-.014.643-.048.08-.008.68-.074.878-.094.45-.047.831-.08 1.192-.103 1.066-.066 1.866.013 1.872.02-.135-.157-.145-.227-.145-.226a3.308 3.308 0 0 1-.18.653c-.212.588-.58 1.346-1.025 2.117-.875 1.514-1.916 2.789-2.184 2.856-2.175.542-4.588.83-4.836.58.246.248.25.354.236.41.041-.171.137-.431.281-.753.294-.657.761-1.518 1.302-2.403a25.45 25.45 0 0 1 1.57-2.305c.234-.298.436-.528.589-.674.03-.028.032-.03-.193-.03zm147.38-1.908c-1.62 0-6.039 7.136-5.334 8.726.512 1.153 1.837 1.205 4.115.812.415-.071.85-.16 1.31-.262.457-.102.65-.15 1.421-.342 1.955-.49 5.75-7.058 4.52-8.493-.592-.69-1.645-.794-3.438-.683-.39.025-.796.06-1.27.11-.206.02-.808.086-.88.094a6.392 6.392 0 0 1-.444.038zm0 1.908c.144 0 .325-.014.642-.048l.878-.094c.45-.047.832-.08 1.193-.103 1.065-.066 1.864.013 1.87.02-.134-.157-.144-.227-.144-.226a3.315 3.315 0 0 1-.18.653c-.212.588-.58 1.346-1.026 2.117-.874 1.514-1.915 2.789-2.184 2.856-.753.188-.939.233-1.374.33-.431.097-.837.179-1.218.244-.73.126-1.336.186-1.772.169-.274-.01-.346-.038-.274.126.055.124.056.1.079.011.052-.204.156-.485.305-.82.299-.672.76-1.517 1.292-2.377.52-.84 1.07-1.631 1.53-2.202.226-.28.421-.495.569-.63.03-.027.027-.026-.186-.026zM79.416 64.443c4.48 3.556 23.404 4.046 53.79 2.863 2.37-.092 3.158-.258 3.402-1.231.135-.541-.05-.906-.447-1.378-.097-.115-.565-.623-.686-.767-.53-.624-.76-1.135-.709-1.706.226-2.495 9.157-24.205 10.365-25.714.182-.227 3.174-.469 7.08-.432 1.443.014 2.97.054 4.648.117.509.02 2.99.123 3.193.123a.875.875 0 0 1-.865-.676.45.45 0 0 1-.018-.161c-.014.098-.069.297-.162.573-.19.569-.522 1.414-1.012 2.586-.533 1.274-3.06 7.102-3.568 8.296-.252.59-.49 1.154-.718 1.698-3.273 7.812-4.683 12.148-4.012 13.912 2.377 6.25 8.38 6.864 14.333 3.516 1.387-.78 3.564-5.093 7.442-13.929.22-.5.447-1.018.683-1.56.373-.858 3.678-8.525 4.463-10.299.669-1.509 1.18-2.62 1.567-3.39.203-.405.369-.71.492-.909.05-.081.09-.137.11-.16-.066.077-.149.145-.363.2.465-.117 2.5-.228 4.305-.212 1.015.009 1.901.055 2.545.136.325.041.576.09.734.14-.013-.004-.072-.04-.172-.28-.076-.182-.076-.276-.06-.366-.005.026-.02.084-.045.166-.062.198-.17.487-.321.861a83.271 83.271 0 0 1-1.348 3.056c-.455.992-3.393 7.293-4.297 9.266-.284.62-.555 1.218-.817 1.797-4.906 10.868-6.553 15.622-4.513 16.735 1.441.785 36.15.893 37.246.183.77-.497.958-1.327 1.208-3.758.721-7.008 1.045-8.956 2.608-12.769 1.57-3.828 3.934-7.038 7.308-9.56 4.727-3.531 12.46-5.195 21.904-5.37a95.613 95.613 0 0 1 10.006.356c2.128.187 4.161.453 4.437.531-.092-.026-.14-.143-.17.016-.074.39-.347.975-.77 1.626-.862 1.328-2.139 2.618-2.862 2.929-.407.174-1.715.186-5.753.08-1.98-.052-3.17-.073-4.465-.07-4.777.012-8.006.411-9.918 1.5-8.679 4.95-12.969 22.848-6.59 24.475 1.66.424 11.587.59 25.156.528 15.343-.069 22.872-.23 23.373-.857.532-.664 5.201-13.872 5.64-15.03 1.187-3.137 2.276-5.78 3.306-7.963 1.72-3.648 3.23-5.856 4.227-6.232 6.19-2.337 25.98-2.664 27.198-.034 1.621 3.496-2.151 14.725-6.285 17.672-.426.304-1.847.539-4.834.811-.113.01-1.843.165-2.374.214-.955.09-1.757.172-2.527.264-6.954.826-10.772 2.358-11.267 5.859-.267 1.875.28 3.14 1.717 3.874 1.017.52 2.052.712 5.202 1.1 3.475.426 44.61.337 45.593-.348 1.82-1.268 2.276-2.382 6.938-15.251 3.122-8.618 5.18-12.929 7.15-14.152 1.365-.847 9.705-1.855 17.206-1.879 9.391-.029 16.202 1.342 17.772 3.923 1.386 2.279.987 5.803-.903 11.022a94.493 94.493 0 0 1-1.333 3.43l-.793 1.94c-.312.765-.54 1.33-.752 1.87-.542 1.383-.925 2.47-1.195 3.431-.72 2.56-.653 4.301.616 5.325 1.494 1.203 36.245 1.25 37.233.218.506-.528 1.084-1.97 2.294-5.421.326-.93 1.685-4.863 1.578-4.554a336.653 336.653 0 0 1 1.809-5.111c1.186-3.255 2.246-5.927 3.249-8.125 1.608-3.523 3.023-5.656 3.971-6.04 4.97-2.018 25.076-2.769 26.945-.547 2.301 2.737-1.753 15.514-5.983 18.913-.423.341-1.917.586-5.17.86l-1.079.09c-.452.037-.787.065-1.121.095a97.19 97.19 0 0 0-2.322.227c-6.97.776-10.778 2.315-11.269 5.94-.265 1.96 1 3.205 3.242 3.82 1.506.412 3.275.557 6.076.606 1.27.022-.746.023 25.697-.005 12.031-.012 22.353-.019 33.686-.019l-.95-1.033c-.023.27-.142.81-.433 1.528-.5 1.233-1.322 2.474-2.547 3.643-1.188 1.133-2.697 2.135-4.566 2.97l.389-.084h-110.9c-5.737 0-9.602-5.816-7.091-11.75l.755-1.786a371.7 371.7 0 0 0 .784-1.865c.342-.822.65-1.574.94-2.294 2.94-7.326 4.01-11.58 2.677-13.617-1.711-2.618-15.769-2.027-17.527-.153-.795.848-1.625 2.745-2.806 6.13-.62 1.779-2.984 9.01-3.305 9.965-3.28 9.76-5.815 14.988-7.816 15.387a.898.898 0 0 1-.18.018l-278.866-.03v.954l.296.908.07-.023 5.896-1.923-6.201.061c-4.398.044-8.995-.935-12.062-2.85-3.748-2.342-5.075-5.871-3.373-10.896 1.64-4.84 3.175-9.142 4.56-12.855.484-1.299.915-2.43 1.288-3.39.223-.574.376-.962.455-1.157l.546-1.357-1.462.047c-31.44 1.008-51.207.765-55.486-.898C6.614 40.524 4.223 38 2.797 35.098c-.555-1.13-.873-2.174-.888-2.784-.003-.116-.002-.119-.124-.017-.205.173-.376.16-.37.163 1.743.988 2.449 1.378 3.603 1.968.95.486 1.854.915 2.716 1.283 1.723.734 3.223 1.201 4.485 1.348 2.211.256 11.707-.414 27.954-1.838l3.198-.283c2.432-.216 4.905-.438 8.026-.72l7.136-.647c5.082-.459 7.756-.689 9.02-.77 1.834-.119 3.193-1.123 4.112-2.664.563-.946.856-1.878.97-2.535l.203-1.162-1.179.045c-29.81 1.144-51.111.957-54.655-.753-4.104-1.98-7.48-6.196-7.5-8.95 0 .08-.14.378-.632.415-.155.012-.052.064.119.187.026.02 2.064 1.652 2.934 2.254 2.4 1.662 4.815 2.65 7.508 2.768 4.764.206 13.549-.34 25.941-1.481 2.18-.201 4.456-.419 6.88-.658 1.292-.127 19.375-1.982 21.376-2.125 1.902-.136 3.263-1.12 4.114-2.623.533-.944.768-1.871.833-2.53l.108-1.09-1.095.043c-28.528 1.127-50.844.843-53.608-.46-4.108-1.934-7.518-6.713-7.676-10.061-.004-.081-.002-.114-.018-.062a.83.83 0 0 1-.899.551c-.172-.022-.224-.052-.251-.075.059.05.15.138.278.273.038.04.784.85 1.077 1.152a20.423 20.423 0 0 0 1.654 1.549c2.343 1.947 4.996 3.146 8.148 3.313 3.908.207 15.12-.717 32.063-2.496 1.717-.18 3.483-.369 5.304-.565 7.058-.76 27.234-3.04 27.855-3.077 3.02-.178 4.245.91 4.362 3.206.1 1.955-.637 4.584-1.902 7.457.009-.02-5.739 12.382-7.904 17.385-1.109 2.562-2.123 5-3.044 7.335-5.76 14.602-7.55 23.953-3.613 27.076zm1.186-1.495c-2.875-2.28-1.143-11.329 4.203-24.88a241.256 241.256 0 0 1 3.02-7.278c2.153-4.975 7.897-17.37 7.9-17.374 1.375-3.124 2.178-5.994 2.06-8.322-.17-3.36-2.306-5.255-6.38-5.015-.681.04-20.985 2.334-27.947 3.084-1.82.197-3.584.385-5.3.565C41.37 5.49 30.154 6.415 26.397 6.216c-2.703-.143-4.98-1.172-7.028-2.875a18.552 18.552 0 0 1-1.502-1.406c-.274-.283-1.014-1.086-1.067-1.142-.51-.537-.729-.72-1.169-.776-1.056-.135-1.275.556-1.23 1.495.192 4.076 4.04 9.47 8.769 11.697 3.202 1.51 25.36 1.79 54.496.64l-.987-1.047c-.009.09-.04.278-.104.531-.11.428-.27.855-.492 1.246-.554.981-1.373 1.572-2.588 1.659-2.036.145-20.178 2.006-21.427 2.13-2.42.238-4.693.456-6.868.656-12.3 1.133-21.038 1.676-25.683 1.475-2.284-.1-4.375-.956-6.504-2.43-.802-.555-2.82-2.171-2.903-2.232-.548-.395-.912-.579-1.382-.543-.835.064-1.137.703-1.131 1.501.026 3.578 3.877 8.388 8.578 10.656 3.994 1.928 25.05 2.112 55.558.941l-.977-1.117a6.251 6.251 0 0 1-.73 1.885c-.622 1.044-1.46 1.663-2.594 1.736-1.29.083-3.965.313-9.07.774l-7.136.646a4629.045 4629.045 0 0 1-11.219 1.003c-15.909 1.395-25.562 2.076-27.567 1.844-1.047-.122-2.388-.54-3.957-1.208a41.446 41.446 0 0 1-2.595-1.226c-1.122-.574-1.813-.955-3.532-1.93-1.348-.763-2.39.113-2.354 1.561.022.93.417 2.223 1.083 3.58 1.62 3.298 4.341 6.17 7.6 7.436 4.656 1.81 24.294 2.05 56.24 1.026l-.917-1.31a275.148 275.148 0 0 0-1.76 4.593 455.882 455.882 0 0 0-4.58 12.91c-1.99 5.876-.318 10.322 4.17 13.126 3.419 2.136 8.36 3.187 13.092 3.14l-.01-.953-.296-.908-.07.023-5.706 1.86 6.002.002 278.862.03c.183 0 .37-.018.557-.055 3.09-.616 5.61-5.815 9.252-16.651.326-.971 2.685-8.187 3.299-9.945 1.073-3.079 1.864-4.886 2.395-5.452.252-.27 3.792-.853 7.163-.994 3.897-.164 6.956.245 7.375.886.796 1.218-.25 5.38-2.852 11.861-.285.712-.59 1.457-.93 2.272-.236.566-.482 1.152-.78 1.855l-.755 1.785c-3.043 7.194 1.746 14.403 8.85 14.403h111.102l.186-.083c2.066-.921 3.757-2.046 5.105-3.33 2.46-2.347 3.427-4.733 3.564-6.395l.086-1.033h-1.037c-11.334 0-21.656.006-33.688.019-26.333.027-24.413.026-25.662.005-2.644-.046-4.301-.182-5.604-.54-1.431-.392-1.964-.916-1.855-1.722.315-2.33 3.513-3.623 9.589-4.3a95.33 95.33 0 0 1 2.276-.222c.33-.029.664-.057 1.114-.094l1.08-.09c3.865-.326 5.324-.565 6.206-1.274 4.962-3.987 9.379-17.905 6.248-21.629-2.585-3.073-23.458-2.294-29.124.006-1.592.646-3.162 3.012-4.99 7.017-1.027 2.251-2.104 4.965-3.306 8.263-.56 1.54-1.118 3.12-1.819 5.14.106-.305-1.25 3.622-1.575 4.547-1.022 2.913-1.665 4.517-1.872 4.733.212-.222.023-.184.114-.194-.255.028-.63.056-1.113.082-.957.053-2.315.1-3.982.139-3.325.078-7.684.12-12.008.114-9.304-.013-17.38-.294-17.667-.525-.96-.775-.422-2.69 2.695-10.362.563-1.387.98-2.454 1.358-3.498 2.078-5.735 2.529-9.722.74-12.664-2.081-3.421-9.281-4.87-19.409-4.84-7.885.025-16.418 1.057-18.206 2.166-2.527 1.569-4.605 5.92-7.939 15.124-4.226 11.667-4.954 13.442-6.235 14.335-.407.284-41.385.373-44.268.02-2.866-.354-3.84-.534-4.566-.905-.659-.337-.855-.791-.697-1.907.314-2.214 3.55-3.513 9.603-4.232.752-.09 1.54-.17 2.48-.258.526-.05 2.253-.204 2.37-.214 3.509-.32 4.92-.554 5.768-1.158 4.843-3.453 8.94-15.648 6.909-20.029-1.836-3.962-22.527-3.62-29.604-.948-1.659.625-3.329 3.067-5.28 7.203-1.054 2.236-2.161 4.921-3.365 8.102-.732 1.937-5.048 14.143-5.344 14.513.249-.312-.195-.245.11-.27a39.78 39.78 0 0 1-1.415.08c-1.21.053-2.94.103-5.075.148-4.253.09-9.875.157-15.511.183-13.14.059-23.269-.11-24.676-.47-1.5-.382-2.064-4.122-.953-8.756 1.273-5.309 4.221-10.046 8.017-12.21 1.518-.866 4.538-1.24 8.977-1.25 1.271-.003 2.447.018 4.41.069 4.77.125 5.737.116 6.555-.234 1.14-.49 2.662-2.028 3.711-3.644.546-.84.916-1.633 1.044-2.311.194-1.028-.177-1.918-1.181-2.205-1.495-.426-8.871-1.073-15.003-.96-9.81.181-17.882 1.918-23.01 5.75-3.665 2.738-6.237 6.23-7.932 10.364-.95 2.32-1.597 4.76-2.04 7.429a56.831 56.831 0 0 0-.434 3.223c-.071.648-.26 2.587-.266 2.646-.16 1.55-.34 2.347-.347 2.35-.482.313-34.445.207-35.295-.256.128.07.164.135.16.107-.028-.173-.018-.459.039-.836.12-.81.437-1.953.936-3.395.88-2.54 2.276-5.88 4.204-10.15.26-.576.53-1.17.813-1.788.9-1.965 3.838-8.265 4.296-9.265 1.766-3.855 2.07-4.601 1.8-5.246-.572-1.373-7.508-1.434-9.637-.903-.754.19-1.197 1.073-3.087 5.339-.79 1.784-4.099 9.46-4.468 10.31l-.68 1.555c-3.452 7.863-5.835 12.584-6.631 13.032-5.072 2.853-9.747 2.374-11.613-2.531-.392-1.029 1.082-5.559 3.988-12.496.227-.54.463-1.1.713-1.687.505-1.183 3.035-7.02 3.573-8.308.507-1.212.853-2.091 1.062-2.715a5.56 5.56 0 0 0 .24-.897 1.412 1.412 0 0 0-.01-.546c-.1-.44-.463-.808-.995-.808-.157 0-2.547-.1-3.122-.122a168.106 168.106 0 0 0-4.702-.118c-5.118-.049-7.805.168-8.588 1.148-1.438 1.797-10.514 23.86-10.775 26.734-.107 1.179.325 2.135 1.154 3.113.156.184.62.688.68.76.01.012-.013-.034.057-.314a.639.639 0 0 1 .286-.41c0 .001-.059.02-.167.043-.33.07-.897.122-1.743.155-29.33 1.142-48.634.641-52.53-2.451z"/>
</svg>
