<svg xmlns="http://www.w3.org/2000/svg" viewBox="0 0 256.023 145.579">
  <defs>
    <linearGradient id="a" x1="9.148" x2="27.577" y1="111.184" y2="79.275" gradientTransform="scale(1.2598 .79377)" gradientUnits="userSpaceOnUse">
      <stop offset="0%" stop-color="#02364F"/>
      <stop offset="100%" stop-color="#0664A8"/>
    </linearGradient>
    <linearGradient id="b" x1="135.275" x2="224.152" y1="96.791" y2="96.791" gradientTransform="scale(1.12423 .8895)" gradientUnits="userSpaceOnUse">
      <stop offset="0%" stop-color="#02364F"/>
      <stop offset="100%" stop-color="#0664A8"/>
    </linearGradient>
    <linearGradient id="c" x1="156.265" x2="135.769" y1="-11.579" y2="28.037" gradientTransform="scale(1.39028 .71928)" gradientUnits="userSpaceOnUse">
      <stop offset="0%" stop-color="#02364F"/>
      <stop offset="100%" stop-color="#0664A8"/>
    </linearGradient>
  </defs>
  <path fill="#0664a8" d="M246.4 66.52c-12.7 40.7-59.9 38.5-88.8 30.5-18.9-5.2-36.9-15.1-54.3-23.8.4-.5.7-1 1.1-1.5 2.2-2.7 7.4-8.4 14.6-15.1 10 4.3 20 8.9 29.8 13.2 32.2 14.1 86.4 16.1 87.5-36.2.8-36.8-55.3-41.7-84.9-22.9-11.3 7.2-20.5 16.1-29 25.5-40-15-93.4-12.9-121.6 23.1 34.7-28.9 71.6-21.4 107.6-7-4.8 5.6-9.6 11-14.8 16.3-27-12.7-52.7-20.2-78.9-.5-33.4 25.3-4.2 64.7 31 60.1 21.5-2.8 32.6-17.1 42.6-32.7 26.5 15.1 55.2 37.2 78.3 45.5 57.4 20.8 112.1-35.1 79.8-74.5zm-39-37.5c8.2 12.3-6.7 27.2-27.4 25.7-19.5-1.4-30.4-8.3-43.3-13.6 24.3-19 55.3-35.2 70.7-12.1zm-167.8 76.9c-15.7-.3-11.7-23.6 2.6-25.3 9.1-1.1 19.7 1.9 31 7.1-10 9.8-22.5 21.6-33.6 18.2z"/>
  <path fill="url(#a)" d="M35.1 88.6c1.9-.6 3.8-1.3 5.6-2-1.7.1-3.4-.1-5.1-.6-15.7-.3-11.7-23.6 2.6-25.3 9.1-1.1 19.6 1.9 30.9 7-22-13.9-42.7-24.1-58.3-19.5-4 3-7.1 6.2-9.4 9.6-4.7 14.7 8.1 39.3 33.7 30.8z" style="fill:url(#a)" transform="translate(4 19.92)"/>
  <path fill="url(#b)" d="M152.1 116.7c3.6 1.8 7.1 3.3 10.5 4.5C220 141.9 274.7 86 242.4 46.6c-12.2 48.8-53 81.1-90.3 70.1z" style="fill:url(#b)" transform="translate(4 19.92)"/>
  <path fill="url(#c)" d="M193.2 0c3.8 1.8 7.3 4.8 10.2 9.1 8.2 12.3-6.7 27.2-27.4 25.7-19.5-1.4-30.4-8.3-43.3-13.6-6.6 5.2-12.7 10.6-17.9 15.5 10.1 4.3 20.1 9 29.9 13.2 26.7 11.6 68.3 15 82.6-13.8 3.2-18.2-13.5-32.3-34.1-36.1z" style="fill:url(#c)" transform="translate(4 19.92)"/>
</svg>
