<svg xmlns="http://www.w3.org/2000/svg" viewBox="0 0 256 514.508">
  <path fill="#e54537" d="M15.114 142.743c2.132 0 4.298-.453 6.357-1.41L247.262 36.346c7.563-3.517 10.843-12.498 7.326-20.06-3.515-7.562-12.499-10.842-20.059-7.326L8.74 113.947c-7.564 3.516-10.844 12.497-7.327 20.06 2.558 5.501 8.01 8.736 13.702 8.736zM234.53 73.14 8.74 178.125c-7.564 3.516-10.844 12.496-7.327 20.058 2.557 5.503 8.008 8.738 13.702 8.738 2.132 0 4.297-.453 6.357-1.412l225.791-104.984c7.563-3.517 10.843-12.498 7.326-20.06-3.515-7.562-12.499-10.842-20.059-7.326zm0 64.718L8.74 242.843c-7.564 3.516-10.844 12.496-7.327 20.058 2.557 5.503 8.008 8.738 13.702 8.738 2.132 0 4.297-.453 6.357-1.412l225.791-104.984c7.563-3.517 10.843-12.498 7.326-20.06-3.515-7.562-12.499-10.842-20.059-7.326zM15.114 78.745c2.137 0 4.308-.456 6.373-1.418L125.574 28.79c7.56-3.524 10.828-12.509 7.304-20.068-3.526-7.559-12.51-10.826-20.069-7.304L8.722 49.955C1.164 53.48-2.106 62.465 1.418 70.023c2.563 5.495 8.01 8.722 13.696 8.722zm219.358 123.316-79.818 37.522a15.102 15.102 0 0 0-8.676 13.666v75.374h-34.876v-56.268c0-8.34-6.76-15.1-15.1-15.1-8.341 0-15.101 6.76-15.101 15.1v56.268H59.259c-6.426 0-11.287 5.814-10.148 12.14l5.094 28.274a10.31 10.31 0 0 0 10.148 8.483h52.982l-56.12 10.19a7.55 7.55 0 0 0-6.08 8.777 7.556 7.556 0 0 0 7.42 6.204c.449 0 .903-.04 1.359-.124l128.715-23.372a7.512 7.512 0 0 0 4.772-3.027c2.666-1.512 4.62-4.173 5.115-7.385l4.367-28.276c.964-6.247-3.87-11.884-10.191-11.884h-20.513v-65.786l71.142-33.444c7.547-3.548 10.789-12.543 7.24-20.09-3.546-7.544-12.538-10.79-20.09-7.242zm-44.541 200.75-128.715 23.37a7.55 7.55 0 0 0-6.081 8.776 7.553 7.553 0 0 0 7.42 6.204c.447 0 .902-.04 1.357-.124l128.716-23.37a7.548 7.548 0 0 0 6.08-8.776c-.745-4.102-4.671-6.838-8.777-6.08zm0 39.91L61.216 466.088a7.55 7.55 0 0 0-6.081 8.777 7.553 7.553 0 0 0 7.42 6.204c.447 0 .902-.04 1.357-.124l128.716-23.37a7.548 7.548 0 0 0 6.08-8.776c-.745-4.102-4.671-6.838-8.777-6.08zm-15.394 40.254-95.997 16.54a7.55 7.55 0 0 0 2.563 14.88l95.998-16.538a7.552 7.552 0 0 0 6.16-8.724c-.708-4.106-4.606-6.851-8.724-6.158z"/>
</svg>
