<svg xmlns="http://www.w3.org/2000/svg" viewBox="0 0 256 256.007">
  <path d="M245.851 78.243c-6.44-15.385-15.609-28.916-27.392-40.706-11.886-11.783-25.416-20.955-40.695-27.388C161.832 3.385 145.357 0 128 0c-17.35 0-33.932 3.385-49.757 10.149-15.278 6.433-28.813 15.605-40.706 27.388-11.79 11.9-20.948 25.428-27.395 40.706C3.385 94.175 0 110.654 0 128c0 17.353 3.385 33.946 10.142 49.771 6.447 15.275 15.605 28.799 27.395 40.692 11.783 11.793 25.32 20.955 40.706 27.395 15.825 6.77 32.408 10.15 49.757 10.15 17.357 0 33.832-3.38 49.764-10.15 15.279-6.44 28.81-15.602 40.695-27.395 11.783-11.893 20.952-25.417 27.392-40.692C252.63 161.946 256 145.353 256 128c0-17.346-3.371-33.825-10.149-49.757zM43.867 163.04l-19.203-18.781 4.365-1.52c2.071.436 4.146 1.086 6.32 1.964 3.282 1.193 5.35 2.508 6.334 3.712 1.751 2.068 2.511 5.89 2.184 11.456l-.216 2.945 2.294-1.858c4.8-4.039 9.379-6.437 13.634-7.2 2.732-.544 10.043-1.418 21.719-2.618l16.692-1.634 3.39 2.614zm121.564 22.475c-2.508-6.11-4.26-11.786-5.673-17.019-1.531-6.227-1.745-9.936-.65-10.927 2.063-1.847 3.697-3.921 5.122-6.22.1-.21.323-.54.547-.76 0-.106 0-.106.114-.106l16.909 21.935zm-9.275-50.74c6.44-5.57 10.479-9.063 11.9-10.476 3.275-3.283 8.287-8.846 15.047-16.927-17.562 13.317-28.372 20.742-32.287 22.049l-3.936 1.535c-1.417.43-2.724.756-3.928.98-3.052.437-7.315.107-12.767-1.094-5.13-1.208-8.405-3.709-9.83-7.527-.323-.988-.756-2.732-1.193-5.24-.437-2.295-.87-4.15-1.307-5.353-.44-.977-1.421-2.942-3.052-5.78-1.634-2.941-3.069-5.563-3.936-7.744-2.948-6.66-4.586-13.971-5.24-22.156h.441c3.279 0 6.107-.98 8.405-2.724.54-.44.984-.771 1.307-1.205l2.075-6.33v-.103c.437-2.838 2.401-4.37 5.89-4.37 3.498 0 5.346 1.415 5.886 4.043-.107.43-.107.874-.107 1.414 0 2.512 1.098 4.693 3.495 6.55 2.288 1.745 5.133 2.725 8.402 2.725 3.278 0 6.007-.98 8.4-2.724 2.185-1.858 3.386-4.04 3.386-6.55v-.107h4.476v-2.839h-5.023c-.54-1.31-1.527-2.511-2.838-3.598-2.394-1.751-5.123-2.732-8.401-2.732-3.269 0-6.114.98-8.402 2.732-.76.55-1.307 1.2-1.854 1.858-.217-.327-.437-.657-.654-.878-1.637-1.751-3.822-2.625-6.767-2.625-2.834 0-5.13.874-6.653 2.625-.33.22-.554.55-.757.878-.444-.657-1.101-1.2-1.861-1.858-1.858-1.421-3.933-2.298-6.44-2.625 4.483-11.567 14.624-23.783 30.443-36.667C146.223 42.233 158.443 55.327 175.04 61c.43.988.973 2.188 1.74 3.378 0 .224.114.33.213.444h-12.102v2.839h13.637c.1.33.323.65.437.98 1.09 2.735.54 5.886-1.538 9.272l-3.052 4.152c-.973 1.634-1.087 3.059-.43 4.366.33.757 1.318 1.858 2.949 3.165.98.874 1.41 2.185 1.2 3.922 3.485-.874 4.91-2.615 4.029-5.453-.437-1.634-.323-3.165.444-4.693l.984-1.964c.103-.224.21-.33.21-.437v-.103c.12 0 .12 0 .12-.114 1.847-3.062 2.938-5.35 3.485-6.877.103-.543.206-.987.206-1.417 0-1.307-.64-2.618-2.064-3.712h3.933c3.602 3.385 4.362 9.602 2.504 18.546.327 5.243-.43 8.188-2.291 8.739-1.862.433-3.716-.107-5.677-1.638l.114 51.175 25.967.11 3.72 5.026-29.8 20.074zm-52.38-66.027c.214.653.871.984 2.075.984.544 0 1.091-.214 1.524-.551a.846.846 0 0 0 .44-.433h7.311c-.323 1.424-1.204 2.511-2.61 3.609-1.755 1.19-3.933 1.847-6.448 1.847-2.508 0-4.586-.657-6.44-1.847-1.744-1.311-2.618-2.839-2.618-4.59 0-1.858.874-3.389 2.618-4.579 1.854-1.307 3.932-1.964 6.44-1.964 2.515 0 4.693.657 6.448 1.964 1.193.757 1.957 1.74 2.387 2.839h-13.524v2.72zm35.687 0c.213.653.87.984 1.958.984 1.2 0 1.854-.33 2.18-.984h6.771c-.21 1.424-1.087 2.511-2.504 3.609-1.858 1.19-4.043 1.847-6.447 1.847-2.622 0-4.686-.657-6.544-1.847-1.747-1.311-2.618-2.839-2.618-4.59 0-.433 0-.867.107-1.193 0-.114.106-.44.224-1.098.213-.547.976-1.424 2.287-2.288 1.858-1.307 3.922-1.964 6.544-1.964 2.404 0 4.59.657 6.447 1.964 1.083.757 1.954 1.74 2.295 2.839h-12.995v2.72zm53.686 30.88c.753.77 1.09 1.645 1.09 2.515 0 .977-.337 1.858-1.09 2.508-.653.76-1.527 1.097-2.511 1.097-.984 0-1.748-.337-2.505-1.097-.664-.65-.99-1.531-.99-2.508 0-.87.326-1.744.99-2.515.757-.654 1.52-1.087 2.505-1.087.984 0 1.858.433 2.511 1.087zm24.55 74.321c-7.083 5.456-15.385 11.122-24.873 16.912h-.107l-7.21-17.68 33.497-22.592.114-.107v-.113c2.078 1.2 4.035 2.845 5.893 4.916 1.524 1.634 2.618 3.275 3.386 4.8.433.657.65 1.307.866 2.077.327 1.638-3.488 5.563-11.566 11.787zm27.175-8.515c-5.563-2.511-9.94-4.263-13.314-4.913-.764-2.284-2.295-4.579-4.366-6.98-2.4-2.622-4.792-4.469-7.204-5.897-2.397-1.2-4.369-1.634-5.882-1.097l-.665-.867h9.712c4.8 0 8.846-1.421 12.114-4.473 4.042-3.818 6-9.598 5.9-17.46-.224-7.743-2.085-17.238-5.573-28.371-4.036-12.767-9.382-24.547-15.929-35.353-7.968-12.873-17.019-23.026-27.061-30.336-11.9-8.618-24.88-12.988-38.955-12.988-15.939-.117-28.702 5.35-38.194 16.26-5.897 6.656-10.376 15.384-13.534 26.187-1.531.433-2.949 1.087-4.263 2.078-1.307 1.087-2.288 2.288-2.831 3.598h-5.457v2.839h4.803v.106c0 2.512 1.197 4.693 3.485 6.55.33.11.55.327.77.54-1.523 10.043-2.077 20.956-1.637 32.636.323 9.7.977 16.475 1.854 20.283 1.418 5.467 3.386 9.389 6.107 11.904 4.039 3.819 10.479 5.78 19.207 5.78l36.777.11 2.067 2.728c-1.087 2.511-2.944 4.916-5.562 7.207-.658.654-1.087 1.52-1.311 2.839-17.133 7.193-26.625 12.546-28.365 15.932l-9.5 17.015-9.16-40.585-4.26.757-5.893-4.59-18.007 1.869c-11.559 1.19-18.763 2.067-21.605 2.607-2.941.547-6.33 1.972-9.928 4.156-1.091.76-2.071 1.308-2.835 1.848l-.114-2.501c-.437-3.712-1.31-6.334-2.728-8.085-1.304-1.634-4.142-3.268-8.188-4.693l-6.433-1.957-.324.114-5.896 2.17-2.949-2.828 14.085 67.114c-7.755-9.392-14.085-19.64-18.884-30.89C8.508 160.52 5.24 144.596 5.24 128c0-16.689 3.268-32.518 9.708-47.793C21.172 65.583 29.9 52.606 41.246 41.253 52.602 29.9 65.583 21.175 80.207 14.945c15.272-6.43 31.1-9.702 47.793-9.702 16.586 0 32.518 3.272 47.69 9.702 14.72 6.23 27.715 14.955 39.068 26.308 11.346 11.353 20.077 24.33 26.287 38.954 6.447 15.275 9.73 31.104 9.73 47.793 0 12.88-1.972 25.424-5.9 37.434zm-111.52-53.47c-2.406.758-4.153 1.308-5.24 1.415-1.308.22-2.949.22-4.913-.107-1.744-.224-2.846-.55-3.382-.764-.657-.323-1.094-.87-1.31-1.75-.331 1.527.436 2.734 2.4 3.608 1.311.657 2.945 1.087 4.903 1.308 1.971.106 4.48-.544 7.431-2.182 2.945-1.634 4.146-2.511 3.492-2.735 0 0-1.204.33-3.382 1.208zm-11.574-1.633c.98-.33 2.074-.33 3.385-.33h6.547c2.288 0 3.165-.434 2.842-.878-.988-1.2-4.37-2.394-10.27-4.028l-2.17 1.083-1.759-1.083c-1.08.21-2.063 1.19-2.83 3.154l2.4.768zm66.787-20.735c-1.201-2.838-1.858-4.8-1.972-6.224-.756 2.402-.867 3.922-.323 4.47.66.66 1.424 1.203 2.295 1.754zm-61.654 7.31-16.59-4.145c1.852 2.512 3.386 4.146 4.803 4.8 1.524.756 5.354.433 11.787-.654z"/>
</svg>
