<svg xmlns="http://www.w3.org/2000/svg" viewBox="0 0 255.669 371.102">
  <defs>
    <linearGradient id="a" x1="46.641" x2="101.877" y1="582.518" y2="587.297" gradientTransform="scale(1.7767 .56284)" gradientUnits="userSpaceOnUse">
      <stop offset="0%" stop-color="#91C5AA"/>
      <stop offset="100%" stop-color="#3965AF"/>
    </linearGradient>
    <linearGradient id="b" x1="138.854" x2="138.854" y1="203.023" y2="102.298" gradientTransform="scale(.98983 1.01027)" gradientUnits="userSpaceOnUse">
      <stop offset="0%" stop-color="#803FA5"/>
      <stop offset="100%" stop-color="#4B114A"/>
    </linearGradient>
  </defs>
  <g fill="none" fill-rule="evenodd">
    <path fill="#c4baff" fill-rule="nonzero" d="m70.317 283.037 59.477-222.012 59.476 222.012z"/>
    <path fill="#6750e5" fill-opacity=".498" fill-rule="nonzero" d="M254.514 283.122 205.037 0 70.092 283.122z"/>
    <path fill="#6750e5" fill-opacity=".498" fill-rule="nonzero" d="M0 283.122 56.92 0 189.49 283.122z"/>
    <path fill="url(#a)" fill-rule="nonzero" d="M53.336 351.582H21.4L13.088 369.7H.96l36.915-79.288 35.61 79.288H61.163zM48.746 341l-11.065-25.366L26.085 341zm26.23 28.7v-74.6H90.63c7.505 0 13.432.74 17.78 2.222 4.67 1.45 8.907 3.914 12.708 7.392 7.698 7.022 11.547 16.25 11.547 27.686 0 11.467-4.01 20.744-12.03 27.83-4.027 3.544-8.247 6.008-12.66 7.393-4.123 1.385-9.97 2.078-17.539 2.078zm11.258-10.58h5.073c5.057 0 9.26-.532 12.61-1.595 3.35-1.127 6.379-2.915 9.084-5.363 5.54-5.057 8.31-11.645 8.31-19.762 0-8.182-2.737-14.817-8.213-19.907-4.928-4.541-12.192-6.812-21.791-6.812h-5.073zm91.12-28.266h30.826v2.464c0 5.605-.66 10.565-1.981 14.882-1.289 3.994-3.463 7.73-6.523 11.21-6.926 7.794-15.735 11.692-26.43 11.692-10.436 0-19.375-3.769-26.816-11.306-7.44-7.57-11.161-16.653-11.161-27.251 0-10.823 3.785-20.003 11.355-27.54 7.57-7.57 16.782-11.355 27.637-11.355 5.83 0 11.274 1.192 16.331 3.575 4.832 2.384 9.583 6.25 14.254 11.596l-8.021 7.683c-6.12-8.15-13.577-12.224-22.37-12.224-7.893 0-14.512 2.721-19.86 8.165-5.346 5.347-8.02 12.047-8.02 20.1 0 8.31 2.98 15.155 8.939 20.535 5.572 4.993 11.612 7.489 18.119 7.489 5.54 0 10.517-1.868 14.93-5.605 4.413-3.769 6.877-8.278 7.392-13.529h-18.602zm78.315-25.173H225.76v17.925H254.8v10.582H225.76v24.931h29.909v10.582h-41.166v-74.602h41.166z" style="fill:url(#a)"/>
    <path fill="url(#b)" fill-rule="nonzero" d="M130.966 207.694 198.018 61.13l35.663 202.745h-29.19l-18.198-113.83-55.815 122.502L76.25 149.924 55.976 263.876H26.541L66.234 61.13z" style="fill:url(#b)"/>
    <path stroke="#a28bca" stroke-linecap="square" stroke-opacity=".356" stroke-width="2" d="m44.666 243.948 24.739-133.313m59.784 124.38L70.092 107.2m61.846 126.44 60.471-126.44m22.677 139.496L192.41 109.948"/>
    <path fill="#dcc6ff" fill-rule="nonzero" d="M215.773 243.26a4.123 4.123 0 1 1 0 8.246 4.123 4.123 0 0 1 0-8.246zm-171.794 0a4.123 4.123 0 1 1 0 8.247 4.123 4.123 0 0 1 0-8.247zm86.584-8.246a4.123 4.123 0 1 1 0 8.246 4.123 4.123 0 0 1 0-8.246zM70.092 105.825a4.123 4.123 0 1 1 0 8.246 4.123 4.123 0 0 1 0-8.246zm122.317 0a4.123 4.123 0 1 1 0 8.246 4.123 4.123 0 0 1 0-8.246z"/>
  </g>
</svg>
