<svg xmlns="http://www.w3.org/2000/svg" viewBox="0 0 256 198.669">
  <path fill="#6c6bbd" d="M93.389 16.913h69.222v124.402H93.39z"/>
  <path fill="#d32011" d="M97.783 79.116c0-25.235 11.815-47.714 30.215-62.2C114.543 6.323 97.56 0 79.106 0 35.416 0 0 35.421 0 79.116c0 43.696 35.416 79.117 79.106 79.117 18.455 0 35.437-6.323 48.892-16.916-18.4-14.486-30.215-36.965-30.215-62.2"/>
  <path fill="#0099df" d="M256 79.116c0 43.696-35.416 79.117-79.106 79.117-18.455 0-35.437-6.323-48.897-16.916 18.405-14.486 30.22-36.965 30.22-62.2 0-25.236-11.815-47.715-30.22-62.201C141.457 6.323 158.44 0 176.894 0 220.584 0 256 35.421 256 79.116"/>
  <path fill="#110f0d" d="M186.033 176.467c.92 0 2.243.176 3.254.573l-1.408 4.306c-.966-.398-1.932-.528-2.857-.528-2.988 0-4.482 1.931-4.482 5.402V198h-4.572v-21.005h4.527v2.55c1.187-1.846 2.902-3.078 5.538-3.078zm-16.891 4.703h-7.47v9.491c0 2.108.745 3.516 3.034 3.516 1.187 0 2.68-.397 4.039-1.187l1.317 3.908c-1.448 1.011-3.732 1.63-5.709 1.63-5.407 0-7.293-2.902-7.293-7.781v-9.577h-4.265v-4.175h4.265v-6.373h4.612v6.373h7.47zm-58.494 4.481c.488-3.033 2.33-5.1 5.584-5.1 2.942 0 4.833 1.846 5.316 5.1zm15.649 1.846c-.046-6.549-4.09-11.03-9.98-11.03-6.151 0-10.457 4.481-10.457 11.03 0 6.675 4.482 11.026 10.769 11.026 3.164 0 6.061-.79 8.611-2.942l-2.243-3.386c-1.755 1.409-3.999 2.198-6.106 2.198-2.943 0-5.624-1.363-6.283-5.14h15.598c.045-.574.09-1.142.09-1.756zm20.08-5.14c-1.273-.795-3.864-1.806-6.545-1.806-2.505 0-3.999.925-3.999 2.465 0 1.403 1.58 1.8 3.557 2.062l2.153.307c4.572.664 7.338 2.595 7.338 6.287 0 4-3.516 6.856-9.577 6.856-3.43 0-6.594-.88-9.1-2.726l2.154-3.561c1.539 1.187 3.828 2.198 6.991 2.198 3.119 0 4.789-.92 4.789-2.55 0-1.183-1.187-1.846-3.692-2.194l-2.153-.306c-4.703-.664-7.253-2.772-7.253-6.197 0-4.175 3.43-6.725 8.747-6.725 3.34 0 6.373.75 8.566 2.198zm56.36-1.55c-.94 0-1.81.166-2.62.493a6.29 6.29 0 0 0-2.093 1.389 6.438 6.438 0 0 0-1.388 2.137c-.337.83-.503 1.746-.503 2.742 0 1 .166 1.911.503 2.741.337.83.8 1.544 1.388 2.138a6.29 6.29 0 0 0 2.093 1.388c.81.332 1.68.493 2.62.493.94 0 1.816-.16 2.62-.493a6.282 6.282 0 0 0 2.103-1.388c.599-.594 1.062-1.308 1.404-2.138.337-.83.503-1.74.503-2.741 0-.996-.166-1.912-.503-2.742-.342-.83-.805-1.544-1.404-2.137a6.282 6.282 0 0 0-2.102-1.389 6.904 6.904 0 0 0-2.62-.492zm0-4.34c1.63 0 3.139.281 4.527.85 1.388.563 2.59 1.343 3.602 2.334a10.684 10.684 0 0 1 2.379 3.51c.573 1.354.86 2.822.86 4.407 0 1.584-.287 3.053-.86 4.406a10.706 10.706 0 0 1-2.38 3.516c-1.01.99-2.213 1.766-3.6 2.334-1.39.563-2.898.845-4.528.845-1.63 0-3.139-.282-4.527-.845-1.388-.568-2.58-1.343-3.586-2.334a10.836 10.836 0 0 1-2.37-3.516c-.573-1.353-.86-2.822-.86-4.406 0-1.585.287-3.053.86-4.406a10.814 10.814 0 0 1 2.37-3.511 10.87 10.87 0 0 1 3.586-2.334c1.388-.569 2.897-.85 4.527-.85zM83.95 187.497c0-3.692 2.42-6.725 6.373-6.725 3.778 0 6.328 2.903 6.328 6.725 0 3.823-2.55 6.72-6.328 6.72-3.953 0-6.373-3.028-6.373-6.72zm17.007 0v-10.502h-4.568v2.55c-1.453-1.891-3.646-3.078-6.634-3.078-5.89 0-10.503 4.612-10.503 11.03 0 6.414 4.613 11.031 10.503 11.031 2.988 0 5.18-1.187 6.634-3.078V198h4.568zM75.207 198v-13.184c0-4.964-3.164-8.304-8.259-8.35-2.681-.045-5.453.79-7.384 3.738-1.449-2.329-3.737-3.737-6.946-3.737-2.239 0-4.437.659-6.152 3.118v-2.59h-4.567V198h4.612v-11.644c0-3.647 2.022-5.584 5.14-5.584 3.034 0 4.573 1.977 4.573 5.538V198h4.613v-11.644c0-3.647 2.112-5.584 5.14-5.584 3.124 0 4.618 1.977 4.618 5.538V198z"/>
</svg>
