<svg xmlns="http://www.w3.org/2000/svg" viewBox="0 0 512 156.717">
  <path fill="#262f45" d="M146.191 73.368c-15.876 0-27.783 11.907-27.783 27.783v26.46h7.938v-26.46c0-11.907 7.938-19.845 19.845-19.845s19.845 7.938 19.845 19.845v26.46h7.938v-26.46c0-11.907 7.938-19.845 19.845-19.845s19.845 7.938 19.845 19.845v26.46h7.938v-26.46c0-15.876-11.907-27.783-27.783-27.783-10.362 0-19.04 5.085-23.814 13.023-4.773-7.938-13.451-13.023-23.814-13.023zM261.953 73.368c-15.875 0-27.782 11.907-27.782 27.783 0 15.876 11.907 27.783 27.782 27.783 7.938 0 14.884-2.977 19.845-7.938v6.615h7.938v-26.46c0-15.876-11.907-27.783-27.783-27.783zm0 7.938c11.907 0 19.845 7.938 19.845 19.845s-7.938 19.845-19.845 19.845c-11.906 0-19.844-7.938-19.844-19.845s7.938-19.845 19.844-19.845zM329.426 73.368c-15.876 0-27.783 11.907-27.783 27.783 0 15.876 11.907 27.783 27.783 27.783 7.938 0 14.884-2.977 19.845-7.938v7.938c0 11.907-7.938 19.845-19.845 19.845v7.938c15.876 0 27.783-11.907 27.783-27.783V101.15c0-15.876-11.907-27.783-27.783-27.783zm0 7.938c11.907 0 19.845 7.938 19.845 19.845s-7.938 19.845-19.845 19.845-19.845-7.938-19.845-19.845 7.938-19.845 19.845-19.845zM396.9 73.368c-15.877 0-27.784 11.907-27.784 27.783 0 15.876 11.907 27.783 27.783 27.783v-7.938c-10.523 0-17.93-6.216-19.514-15.876h47.05a30.56 30.56 0 0 0 .247-3.97c0-15.875-11.907-27.782-27.783-27.782zm0 7.938c10.522 0 17.93 6.216 19.513 15.876h-39.028c1.584-9.66 8.991-15.876 19.514-15.876zM436.59 74.69h7.937v52.92h-7.938z"/>
  <path fill="#2397d4" d="M440.558 148.117a5.953 5.953 0 1 1 0-11.907 5.953 5.953 0 0 1 0 11.907z"/>
  <path fill="#262f45" d="M484.217 73.368c-15.876 0-27.783 11.907-27.783 27.783 0 15.876 11.907 27.783 27.783 27.783 7.938 0 14.884-2.977 19.845-7.938v6.615H512v-26.46c0-15.876-11.907-27.783-27.783-27.783zm0 7.938c11.907 0 19.845 7.938 19.845 19.845s-7.938 19.845-19.845 19.845-19.845-7.938-19.845-19.845 7.938-19.845 19.845-19.845zM12.52 61.965C5.605 70.925 0 81.004 0 93.213c0 26.464 20.082 48.29 44.982 48.29 24.899 0 44.982-21.826 44.982-48.29 0-12.212-5.616-21.97-12.92-31.248-2.738-2.874-6.692-2.447-9.57-.608-8.423 4.359-12.97 6.1-22.492 6.057-9.21-.041-14.048-1.545-22.471-6.137-2.879-1.759-7.253-2.186-9.992.688zm6.002 7.434c8.73 4.827 16.517 7.276 26.46 7.276 9.951 0 17.725-2.449 26.46-7.276 4.766 6.72 9.26 15.054 9.26 23.814 0 21.698-15.991 39.028-35.72 39.028-19.73 0-36.383-17.33-36.383-39.028 0-8.748 5.146-17.088 9.923-23.814z"/>
  <g fill="#2397d4">
    <path d="M34.85 54.746h-.007c-4.414 0-8.009-3.59-8.014-8.001-.006-4.426 3.589-8.02 8.007-8.026 4.42 0 8.015 3.59 8.02 8.001 0 4.426-3.588 8.022-8.007 8.026zM56.492 48.87c-4.122 0-7.477-3.351-7.48-7.47-.006-4.129 3.349-7.485 7.473-7.489 4.127 0 7.482 3.35 7.486 7.469 0 4.13-3.348 7.486-7.472 7.49h-.007zM50.336 27.513a6.678 6.678 0 1 1-13.356 0 6.678 6.678 0 0 1 13.356 0zM60.486 16.294a6.144 6.144 0 1 1-12.287 0 6.144 6.144 0 0 1 12.287 0zM46.596 5.342a5.342 5.342 0 1 1-10.685 0 5.342 5.342 0 0 1 10.685 0z"/>
  </g>
</svg>
