<svg xmlns="http://www.w3.org/2000/svg" viewBox="0 0 255.218 369.93">
  <path fill="#cb3366" d="M239.845 136.794c-2.996 0-5.667 1.563-7.23 3.908L127.609 275.737v.066l-.065-.066v-.13l-.065.065v-.065L22.539 140.572c-1.564-2.345-4.235-3.908-7.231-3.908H.065v55.63-65.14C.065 56.931 56.932 0 127.088 0h1.042c70.156 0 127.023 56.932 127.023 127.153v9.576h-15.308z"/>
  <path fill="#b2345b" d="m90.74 175.226 34.394 44.36h.065a2.94 2.94 0 0 0 2.215.978 2.94 2.94 0 0 0 2.214-.977h.066l34.393-44.36v53.219L127.74 275.15l-.195-.26v.065l-.195.26-36.674-47.096.065-52.894zm36.87 100.12-.196-.195h.39z"/>
  <path fill="#bf3c65" d="m127.414 149.17-33.808-43.839 33.808-43.448.195.26v.066l.196-.26 33.612 43.187zm.13-87.482.195.26h-.39z"/>
  <path fill="#cf406e" d="m127.61 62.144-.196-.261.13-.195v-.066l.065.066.065-.066v.066l.13.26zM22.537 140.18c-1.563-2.345-4.234-3.908-7.23-3.908H.065v-9.055c0-46.9 25.34-87.873 63.12-109.89 20.976.52 39.345 11.138 50.614 27.163h.066l13.549 17.457L44.49 168.452zm118.816-95.69h.065c11.269-16.09 29.638-26.708 50.548-27.229 37.782 22.083 63.121 63.056 63.121 109.891v9.185H239.78c-2.996 0-5.667 1.563-7.23 3.908l-21.953 28.206L127.74 61.948l13.615-17.457z"/>
  <path fill="#d8517d" d="M192.423 17.523c.978.586 1.89 1.172 2.867 1.693-.978-.52-1.89-1.107-2.867-1.693zM141.42 44.49h-.065l-13.55 17.457-.13-.26v-.066l-.065.066-.065-.066v.066l-.13.195L113.8 44.491h-.066C102.53 28.466 84.031 17.848 63.121 17.327 81.88 6.384 103.703.065 127.023.065h1.042c23.32 0 45.142 6.254 63.902 17.262-20.91.456-39.279 11.14-50.548 27.164zm-13.745 17.587.13-.13.13.13zm-.39 0 .13-.13.13.13zM62.73 17.523c-.977.586-1.89 1.172-2.866 1.693.977-.52 1.889-1.107 2.866-1.693zm.456-.196c-.13.065-.26.13-.391.26.065-.13.195-.195.39-.26zm128.781 0c.13.065.261.13.391.26-.065-.13-.195-.195-.39-.26z"/>
  <path fill="#4b3785" d="M.065 136.338h15.308c2.996 0 5.667 1.563 7.23 3.908l104.941 134.97v.065l.065-.065v.13l.065.066v-.065l105.006-135.1c1.563-2.346 4.234-3.91 7.23-3.91h15.308v55.891c0 2.996-1.042 5.797-2.736 8.012L130.02 368.953s-.586.977-2.28.977h-.13c-1.628-.065-2.28-.977-2.28-.977L2.866 200.24C1.173 198.025.13 195.29.13 192.228v-55.89z"/>
  <path d="M252.157 200.631h-12.312c-2.996 0-5.667-1.563-7.23-3.908l-21.952-28.206 21.952-28.206c1.563-2.345 4.234-3.908 7.23-3.908h15.308v55.89c0 2.997-1.042 5.798-2.736 8.012zm-229.619-3.908c-1.563 2.345-4.234 3.908-7.23 3.908H2.996l5.081 7.035-5.341-7.296C1.042 198.156 0 195.42 0 192.358v-56.02h15.308c2.996 0 5.667 1.563 7.23 3.908l21.953 28.271z"/>
  <path fill="#664c9e" d="M252.157 200.631h-12.312c-2.996 0-5.667-1.563-7.23-3.908l-21.952-28.206 21.952-28.206c1.563-2.345 4.234-3.908 7.23-3.908h15.308v55.89c0 2.997-1.042 5.798-2.736 8.012zm-229.619-3.908c-1.563 2.345-4.234 3.908-7.23 3.908H2.996l5.081 7.035-5.341-7.296C1.042 198.156 0 195.42 0 192.358v-56.02h15.308c2.996 0 5.667 1.563 7.23 3.908l21.953 28.271z"/>
  <path d="m164.022 321.596-36.478-46.77-36.413 46.77z"/>
  <path fill="#42307c" d="m164.218 321.4-34.329 47.292s-.586.977-2.28.977h-.13c-1.629-.065-2.28-.977-2.28-.977L90.87 321.401h73.348z"/>
  <path fill="#45327e" d="m90.74 227.86 36.87 47.356-36.414 46.77-.39-.585zm73.348 93.606v.39l-.066.066-36.348-46.706 36.414-46.835v93.085z"/>
  <path fill="#584094" d="M210.663 257.694v-89.177l21.952 28.206c1.563 2.345 4.234 3.908 7.23 3.908h12.312zM44.1 257.173 3.062 200.63h12.311c2.996 0 5.667-1.563 7.23-3.908l21.497-27.75z"/>
  <path fill="#fff" d="m226.752 96.603-15.96 23.776h-.13v138.813a2.94 2.94 0 0 1-.976 2.215v.195l-42.146 58.17h-.065c-.717 1.173-1.954 2.02-3.453 2.02V175.225l-34.393 44.36h-.066c-.52.587-1.367.978-2.214.978-.912 0-1.629-.391-2.215-.977h-.065l-34.394-44.36v146.499c-1.433 0-2.736-.781-3.453-2.02h-.065l-42.015-58.17v-.195c-.586-.52-.977-1.367-.977-2.214V120.379h-.13L28.01 96.603h.065c-.52-.717-.781-1.564-.781-2.54 0-2.411 1.889-4.43 4.299-4.43h48.203v.065c1.303.13 2.476.847 3.127 1.889l44.49 57.583 44.426-57.583c.717-1.042 1.824-1.694 3.127-1.89v-.064h48.203c2.41.065 4.3 2.019 4.3 4.43.065.976-.196 1.888-.717 2.54z"/>
</svg>
