<svg xmlns="http://www.w3.org/2000/svg" viewBox="0 0 511.859 125.367">
  <path fill="#0b0b0a" d="m473.727 79.034-.078-.141-.155-.493.071-.147c4.88-10.054 10.47-15.817 15.337-15.817h.05c5.493.041 9.292 4.984 9.24 12.017-.037 4.694-2.107 7.397-3.833 8.838-1.973 1.644-4.599 2.585-7.208 2.585-6.428-.05-10.841-3.746-13.424-6.842zm-1.331 37.955c-.785 1.046-1.878 1.575-3.247 1.575-1.573-.012-2.753-.56-3.557-1.633-2.252-3.01-1.617-10.079 2.056-22.914a110.1 110.1 0 0 1 1.418-4.583l.426-1.282.374 1.297c4.282 14.816 5.131 24.082 2.53 27.54zM315.093 48.743c.144-3.2.412-6.315.795-9.26 2.478-18.983 7.652-32.24 12.585-32.24h.022c2.352.017 3.529 1.796 3.504 5.284-.067 8.571-5.498 20.842-16.14 36.472l-.833 1.223.067-1.479zm172.615 43.3.173.003c10.358 0 17.65-7.177 17.727-17.448.039-5.087-1.43-9.742-4.137-13.105-2.862-3.56-6.869-5.46-11.59-5.496h-.093c-6.37 0-12.285 4.831-18.083 14.776l-.461.793-.298-.866a479.68 479.68 0 0 0-3.548-9.937c-.545-1.482-.787-2.147-.843-2.363-.279-1.076-1.199-1.744-2.404-1.744-.74 0-1.528.252-2.274.726-.738.469-1.15 1.044-1.299 1.812l-.037.115c-5.803 18.097-10.589 26.888-14.642 26.888-.589-.005-1.05-.198-1.394-.58-1.062-1.174-.801-3.965-.44-7.829.265-2.838.568-6.053.441-9.461-.24-6.556-3.826-10.492-9.593-10.536-7.328-.003-12.078 7.8-14.265 12.453l-.654 1.389-.144-1.529c-.546-5.756-2.478-12.633-8.579-12.68-7.116 0-12.536 8.351-15.844 15.36l-.886 1.878.089-2.075c.394-9.346.716-14.865.958-16.395.242-1.535.114-2.566-.388-3.156-.475-.553-1.372-.758-2.689-.675-2.278.144-3.442 1.53-5.196 6.178-2.88 7.633-10.208 25.39-16.059 25.39-1.16-.008-2.08-.404-2.753-1.175-2.453-2.813-1.471-10.417-.114-20.94l.103-.796c.642-4.982-.454-6.045-3.158-6.543a4.691 4.691 0 0 0-.824-.082c-2.16 0-3.171 2.071-5.189 7.822-3.593 10.235-8.21 21-13.613 21-.198 0-.394-.016-.59-.047-2.864-.488-2.801-4.734-2.721-10.114.041-2.908.09-6.207-.359-9.184-.806-5.342-3.955-8.68-8.216-8.712-8.507 0-14.243 10.892-16.91 17.385l-.605 1.47-.201-1.578a146.188 146.188 0 0 1-1.033-12.553l-.006-.157.096-.123c15.918-20.037 23.06-34.497 23.156-46.886C338.38 4.802 334.727.048 328.55 0c-4.515 0-15.256 3.761-18.987 38.608a201.528 201.528 0 0 0-1.13 19.694v.13l-.074.105c-7.281 10.542-22.826 28.673-38.042 28.673-13.75 0-24.72-11.124-24.72-30.758 0-26.322 18.632-42.484 32.654-42.484l.115.002c3.046.022 5.659.874 7.556 2.46 1.97 1.648 2.999 3.957 2.979 6.678-.03 3.634-1.211 5.502-2.356 7.306-.295.465-.587.927-.855 1.416-.27.492-.518 1.21-.158 1.823.369.628 1.31 1.024 2.457 1.031 3.337 0 8.386-4.83 8.441-12.11.058-7.619-6.361-15.468-17.81-15.468-17.328 0-40.663 19.034-40.663 49.885 0 21.823 13.683 36.906 32.217 36.906 13.153 0 26.163-9.417 37.686-25.147l.706-.952.05 1.184c.246 5.757.663 10.294.969 13.608.197 2.13.34 3.668.332 4.517-.014 1.862.29 3.152.932 3.945.639.794 1.66 1.169 3.202 1.18 2.588 0 3.106-1.765 4.13-6.117l.296-1.243c1.273-5.275 5.977-22.488 13.052-22.488 1.156.01 2.046.353 2.68 1.023 1.562 1.658 1.392 5.059 1.194 9-.124 2.458-.252 4.996-.005 7.47.667 6.677 3.55 9.942 8.815 9.98 5.406.003 11.046-5.82 14.022-11.231l.563-1.022.218 1.146c.55 2.895 3.008 12.4 10.702 12.4 6.974 0 12.955-7.343 19.513-22.456l.858-1.973-.053 2.152c-.14 5.727-.45 12.72-.453 18.126-.003 4.182.42 5.78 2.354 5.78.137 0 .285.018.438.018 1.854 0 3.113-1.105 3.741-3.294 4.934-17.197 9.199-25.207 13.423-25.207 4.138.033 4.526 7.596 4.857 20.963l.023.938c.1 4.673.268 6.743 3.173 6.764 2.204 0 2.752-1.73 3.891-5.993.217-.813.455-1.704.734-2.667 3.983-13.822 7.286-19.46 11.397-19.46 3.52.026 3.716 3.655 3.78 4.847.136 2.554-.127 5.228-.38 7.808-.236 2.4-.48 4.88-.388 7.19.216 5.406 3.176 8.406 8.336 8.445 6.697 0 12.742-7.833 18.037-23.276l.367-1.078.42 1.058c.96 2.427 2.21 5.713 3.37 9.633l.044.15-.063.141c-5.126 11.383-8.743 24.064-8.794 30.838-.07 8.922 3.967 14.72 10.285 14.77h.109c3.436 0 11.446-1.38 11.601-14.148.063-5.233-1.173-12.632-3.672-21.996l-.285-1.073.922.615c3.19 2.115 6.786 3.249 10.404 3.279zM150.405 65.837c-2.256 9.071-6.578 20.019-14.372 20.645-.218.015-.43.028-.635.028-3.233 0-5.046-2.119-5.388-6.293-.429-5.226 1.825-11.344 5.738-15.592 2.492-2.706 5.303-4.195 7.913-4.195h.053c3.297.025 5.606 2.671 6.668 5.14l.057.126-.034.14zm71.47-50.729.111-.002c.735 0 1.38.37 1.92 1.098 2.557 3.459 2.595 16.078-1.803 30.44-2.515 8.204-5.895 15.958-9.775 22.417l-.618 1.028-.158-1.19c-.458-3.472-.682-7.088-.842-10.165-1.122-21.705 5.444-43.329 11.164-43.626zM162.52 90.384c7.531-.606 13.507-10.848 15.726-15.224l.572-1.128.217 1.246c1.064 6.156 4.413 16.499 14.887 16.579h.088c4.531 0 9.672-2.77 14.866-8.011l.382-.385.277.463c3.497 5.85 8.189 8.957 13.182 8.703 7.354-.383 11.816-5.593 12.21-9.212.1-.923-.145-1.79-.671-2.377-.662-.737-1.621-.824-2.328-.148l-.335.318c-1.713 1.644-4.902 4.707-8.376 4.888-4.255.208-7.403-2.335-9.436-7.586l-.084-.22.143-.186c11.699-15.304 19.91-38.656 19.1-54.317-.373-7.248-2.482-15.89-10.397-15.89-.195 0-.391.005-.59.016-3.035.157-5.791 1.601-8.199 4.294-7.345 8.218-11.189 28.445-9.793 51.531.29 4.797 1.122 9.28 2.474 13.32l.077.225-.154.182c-4.342 5.073-8.626 7.87-12.063 7.87-8.27 0-7.992-13.867-7.338-25.368.142-2.48.351-4.06-.382-4.957-.526-.642-1.402-.959-2.68-.97l-.15-.002c-2.94 0-3.558.606-5.063 4.974-3.133 9.075-9.316 24.302-15.537 24.302-1.725-.015-3.042-.604-3.942-1.752-3.017-3.853-.726-13.459 1.115-21.179.33-1.387.648-2.72.92-3.954.404-1.83.28-3.165-.367-3.974-.649-.805-1.945-1.132-3.654-.997-2.665.214-4.367 1.33-5.19 6.395l-.165 1.054-.62-.749c-1.163-1.717-3.432-3.765-7.642-3.765-.37 0-.751.015-1.146.047-4.493.368-9.61 3.5-13.355 8.171-4.373 5.456-6.46 12.361-5.88 19.442.031.375.085.735.139 1.092l.03.198-.135.15c-2.617 2.85-5.282 4.294-7.922 4.294-4.075-.03-6.414-3.06-6.414-8.103 0-8.495 5.756-34.097 5.756-43.365 0-9.864-4.396-15.235-12.028-15.292l-.116-.002c-11.144 0-19.83 12.648-28.142 38.665a439.365 439.365 0 0 0-2.3 7.515l-1.165 3.914.346-4.069c.772-9.064 1.302-17.88 1.576-26.21.413-12.575-1.287-20.667-5.197-24.739-2.11-2.196-4.9-3.278-8.536-3.307h-.097c-13.637 0-20.17 23.001-24.927 39.23-1.435 4.9-4.266 15.95-6.155 23.504l1.12-1.82c.838-9.512 3.269-33.34 3.11-46.268-.172-13.866-4.79-20.085-14.975-20.162h-.126c-5.44 0-9.214 2.703-11.423 4.972C2.092 15.89-.118 21.21.005 25.806c.075 2.793 1.79 5.28 3.089 5.28.846 0 1.315-1.13 1.518-1.803 3.15-10.416 7.229-15.481 12.464-15.481 2.17.016 3.785.657 4.996 1.955 4.088 4.387 3.345 16.232 1.996 37.735-.435 6.93-.928 14.783-1.344 23.716-.071 1.533-.167 3.011-.257 4.419-.399 6.203-.713 11.105 1.639 11.47 3.061.478 5.054-.767 6.072-3.796 1.512-4.496 4.904-16.782 11.465-39.235C47.94 28.52 52.696 20.68 58.781 20.68c7.03 0 7.555 12.071 6.266 37.545-.275 5.4-.642 11.516-.924 18.173-.039.937-.084 1.842-.127 2.716-.27 5.512-.484 9.861 1.09 11.528.491.52 1.16.776 2.043.781 3.048 0 3.963-2.671 5.483-7.1.268-.781.552-1.616.87-2.491 10.443-28.809 18.165-53.803 28.53-53.803 3.109 0 5.526 2.525 5.526 7.45 0 11.367-5.556 33.332-5.556 44.467 0 3.99 1.147 7.572 3.317 10.088 2.226 2.584 5.342 3.963 9.009 3.992h.08c3.468 0 7.082-1.685 10.741-5.007l.344-.311.276.372c2.41 3.24 6.3 4.98 10.498 4.656 6.441-.501 11.846-6.235 13.857-11.645l.392-1.057.394 1.057c1.492 4.014 4.724 8.85 11.63 8.292z"/>
  <path fill="#0b0b0a" d="M186.555 32.583c-2.878 0-5.202 2.267-5.222 5.052-.024 2.807 2.286 5.11 5.144 5.132l.041.417v-.417c2.835 0 5.16-2.266 5.18-5.051.023-2.809-2.285-5.11-5.143-5.133M367.452 32.583c-2.878 0-5.2 2.267-5.223 5.052-.023 2.807 2.285 5.11 5.145 5.132l.04.417v-.417c2.837 0 5.161-2.266 5.183-5.051.02-2.809-2.287-5.11-5.145-5.133"/>
  <path fill="#0b0c0a" d="M508.324 92.851a3.013 3.013 0 0 1-3.02-3.019 3.016 3.016 0 0 1 3.02-3.021 3.017 3.017 0 0 1 3.02 3.021 3.015 3.015 0 0 1-3.02 3.02zm0-6.554a3.54 3.54 0 0 0-3.533 3.535 3.537 3.537 0 0 0 3.533 3.532 3.539 3.539 0 0 0 3.535-3.532 3.54 3.54 0 0 0-3.535-3.535z"/>
  <path fill="#0b0c0a" d="M508.21 89.612h-.655v-1.376h.91c.438 0 .913.152.913.674 0 .675-.607.702-1.167.702zm1.68-.702c0-.73-.36-1.129-1.282-1.129h-1.567v4.072h.514V90.07h.73l1.217 1.783h.58l-1.217-1.783c.552-.095 1.024-.408 1.024-1.16z"/>
</svg>
