<svg xmlns="http://www.w3.org/2000/svg" viewBox="0 0 256 256">
  <path fill="#c02428" d="M128.419 80.094c-26.511 0-48.885 21.475-48.885 48.728A48.197 48.197 0 0 0 93.72 163.4a48.532 48.532 0 0 0 34.698 14.139c26.51 0 48.874-21.475 48.874-48.718 0-27.253-22.364-48.728-48.874-48.728zm-76.221 47.895c0-41.285 33.968-75.138 75.395-75.138 41.417 0 75.386 33.853 75.386 75.138 0 2.478 0 5.788-.826 8.265-.835 7.423 4.972 13.2 12.43 13.2 12.43 0 14.081-15.677 14.081-21.465 0-55.328-45.574-100.746-101.07-100.746-55.518 0-101.072 45.418-101.072 100.746 0 55.339 45.554 100.747 101.071 100.747 29.822 0 56.333-12.388 74.56-33.03l20.704 17.342c-22.364 26.43-57.158 42.951-94.449 42.951-34.097.105-66.827-13.35-90.932-37.383C13.37 194.583-.118 161.96 0 127.98 0 57.796 57.16 0 128.419 0 198.832 0 256 57.806 256 128c0 28.075-13.255 51.205-40.591 51.205-11.605 0-19.053-5.787-23.2-11.565-13.255 21.475-37.29 35.508-64.626 35.508-20.017.068-39.234-7.827-53.388-21.933a74.755 74.755 0 0 1-22.007-53.205zm76.21-22.298c12.43 0 22.374 9.91 22.374 22.298 0 12.388-9.944 22.298-22.363 22.298a22.322 22.322 0 0 1-15.848-6.504 22.169 22.169 0 0 1-6.527-15.794c0-12.387 9.944-22.298 22.375-22.298z"/>
</svg>
