<svg xmlns="http://www.w3.org/2000/svg" viewBox="0 0 256 158.118">
  <defs>
    <linearGradient id="a" x1="270.349" x2="216.281" y1="53.139" y2="124.772" gradientTransform="scale(.7891 1.26725)" gradientUnits="userSpaceOnUse">
      <stop offset="0%" stop-color="#60676F"/>
      <stop offset="100%" stop-color="#303439"/>
    </linearGradient>
  </defs>
  <g fill="none" fill-rule="nonzero">
    <path fill="#393e42" d="M149.33 115.953v42.165h-128v-42.165z"/>
    <path fill="#60676f" d="M0 158.118V0h42.67l42.66 42.165L128 0h42.67S256 0 256 79.059s-85.33 79.059-85.33 79.059H128V52.706L85.33 94.87 42.67 52.706v105.412zM170.67 42.165v73.788s41.787 0 42.66-36.894c.882-36.894-42.66-36.894-42.66-36.894z"/>
    <path fill="url(#a)" d="M252.755 54.37c2.07 7.228 3.245 15.413 3.245 24.689 0 79.059-85.33 79.059-85.33 79.059V21.082s51.365 8.787 82.085 33.288zm-82.086-12.205v73.788s41.788 0 42.662-36.894c.88-36.894-42.662-36.894-42.662-36.894z" style="fill:url(#a)"/>
  </g>
</svg>
