<svg xmlns="http://www.w3.org/2000/svg" viewBox="0 0 511.66 142.087">
  <path fill="#c02428" d="M56.116 48.551c-11.585 0-21.362 9.416-21.362 21.366a21.17 21.17 0 0 0 21.362 21.361c11.584 0 21.357-9.416 21.357-21.361 0-11.95-9.773-21.366-21.357-21.366zm-33.307 21c0-18.102 14.844-32.945 32.946-32.945 18.098 0 32.942 14.843 32.942 32.946 0 1.086 0 2.538-.36 3.624-.366 3.254 2.172 5.788 5.43 5.788 5.433 0 6.154-6.874 6.154-9.412 0-24.26-19.915-44.175-44.166-44.175-24.26 0-44.165 19.915-44.165 44.175 0 24.264 19.905 44.174 44.165 44.174 13.032 0 24.616-5.431 32.581-14.483l9.047 7.605c-9.772 11.589-24.977 18.833-41.272 18.833A55.938 55.938 0 0 1 .001 69.547c0-30.773 24.976-56.115 56.115-56.115 30.769 0 55.75 25.346 55.75 56.124 0 12.31-5.792 22.453-17.737 22.453-5.071 0-8.326-2.538-10.138-5.071-5.792 9.416-16.295 15.569-28.24 15.569A32.835 32.835 0 0 1 22.805 69.56zm33.302-9.776a9.736 9.736 0 0 1 9.777 9.777 9.735 9.735 0 0 1-9.772 9.777 9.737 9.737 0 0 1-9.777-9.777 9.736 9.736 0 0 1 9.777-9.777z"/>
  <path d="M359.507 47.482c6.812 0 13.298 2.586 17.947 7.456l.801.883v-6.887h13.7v58.715l-.024 2.853c-.177 9.965-1.388 14.669-5.02 19.987-5.05 7.613-14.065 11.598-24.158 11.598-17.287 0-28.357-10.754-28.83-28.186l-.016-1.172h13.339l.158 2.007c.328 3.697.77 5.604 2.006 7.779 2.524 4.35 7.933 6.887 13.343 6.887 9.777 0 14.821-5.782 15.127-17.68l.015-1.17v-8.335c-5.41 6.162-11.18 8.7-18.748 8.7-15.864 0-27.764-13.054-27.764-31.174 0-18.85 11.9-32.26 28.124-32.26zm54.441 1.452v34.433c0 10.15 3.607 14.861 11.54 14.861 8.004 0 11.642-4.39 11.884-13.83l.013-1.031V48.934h13.703v34.798c0 9.42-1.442 14.496-6.13 19.572-5.045 5.075-11.536 7.613-19.47 7.613-7.573 0-14.42-2.538-19.108-7.613-4.111-4.822-5.944-9.644-6.117-18.19l-.014-1.382V48.934zm-173.781-1.812c7.17 0 12.079 2.277 17.784 7.756l.96.943v-6.887h13.703v59.806H258.91v-6.157c-6.487 5.796-11.175 7.969-18.387 7.969-16.585 0-28.485-13.41-28.485-32.26 0-17.76 11.9-31.17 28.129-31.17zm-53.003 0c12.987 0 19.825 7.901 20.176 23.376l.014 1.271v38.057H193.65V76.48c0-11.597-2.524-15.947-9.015-15.947-7.67 0-10.96 5.09-11.165 16.92l-.01 1.205v30.809h-13.7V76.119c0-10.872-2.885-15.948-9.015-15.948-7.674 0-10.96 5.091-11.165 16.92l-.01 1.205v30.809h-13.704V48.934h13.704v5.436c5.044-5.801 8.29-7.248 14.06-7.248 6.491 0 12.257 2.898 15.863 8.7 4.327-5.441 10.458-8.7 17.67-8.7zm110.329 1.812v60.171h-13.704V48.934zm192.534-1.812c14.412 0 21.286 7.923 21.62 23.773l.013 1.235v36.975h-13.704V75.393c0-11.598-2.52-15.587-11.175-15.587-9.104 0-12.427 5.13-12.609 19.047l-.008 30.252H460.46V48.934h13.343v5.436c5.405-5.436 9.733-7.248 16.224-7.248zM323.81 0v108.74h-13.7V0zm-81.123 59.441c-9.372.004-16.585 8.339-16.585 19.216 0 11.597 6.852 19.571 16.585 19.571 10.097 0 16.945-7.974 16.945-19.571 0-10.897-6.44-18.73-16.036-19.194l-.91-.018zm119.345 0c-10.098.004-16.59 7.978-16.59 19.576s6.492 19.211 16.59 19.211c9.732 0 16.584-7.974 16.584-19.571 0-10.897-6.104-18.73-15.677-19.194zm-71.395-44.219a8.952 8.952 0 0 1 9.02 9.06 8.949 8.949 0 0 1-9.016 9.065c-5.049 0-9.016-3.99-9.016-9.065a8.949 8.949 0 0 1 8.215-9.03l.801-.03z"/>
</svg>
