<svg xmlns="http://www.w3.org/2000/svg" viewBox="0 0 512 199.333">
  <g fill="#fead0d">
    <path d="M263.899 26.94 231.714 44.64 58.863 139.815l-10.62 5.834 31.464-46.015 4.588-30.48zM0 0l98.847 13.7 75.512 10.422 35.593 4.982 8.784 1.18L83.18 61.09l-1.376-.983-45.557-33.495zM403.583 95.111l-14.028 78.986c-1.507 8.784-2.425 10.75-21.04 25.236l-4.458-6.096c14.29-11.667 16.125-12.978 17.436-20.779l13.437-76.167zm39.46-.787c11.799 0 19.271 5.965 19.271 16.846 0 11.668-7.735 17.895-27.661 23.467a5307.989 5307.989 0 0 0-17.751 4.912l-.012.003-1.836 9.899c-.131 1.376-.262 2.687-.262 3.932 0 6.096 2.36 9.243 12.52 9.243 8.39 0 16.715-2.819 25.695-7.014l2.097 6.424c-8.783 4.654-18.943 7.931-28.776 7.931-13.634 0-19.86-5.375-19.86-16.387 0-2.229.327-4.654.786-7.145l4.26-24.515c3.343-18.485 12.848-27.596 31.53-27.596zm-149.189-.065c7.014 0 19.993 2.229 27.465 4.654l-12.257 69.481h-15.077l-.13-8.062c-6.228 5.703-14.028 9.57-23.73 9.57-12.52 0-16.91-6.686-16.91-16.584 0-2.425.327-4.916.786-7.604l3.736-21.172c3.409-19.73 8.063-30.283 36.117-30.283zM493.45 76.823l-3.278 18.943H512l-1.639 7.145h-21.5l-9.373 53.553c-.197 1.05-.328 1.901-.328 2.688 0 2.819 1.442 3.54 4.916 3.54 4.064 0 9.112-1.18 14.487-3.409l2.097 5.637c-5.572 3.147-11.799 4.916-18.091 4.916-7.342.066-11.996-3.08-11.996-9.635 0-.918.131-1.836.328-2.819l9.57-54.47h-13.896l1.18-7.146h14.027l3.146-17.763zm-255.77 17.37c9.963 0 13.306 6.555 13.306 14.487 0 2.556-.263 4.916-.787 7.144l-9.242 52.57h-17.895l9.111-51.783c.131-.787.131-1.639.131-1.967 0-1.9-.917-3.08-3.736-3.08-4.785 0-14.945 4.457-21.631 8.521l-8.521 48.375H180.52l9.111-51.784c.131-.786.131-1.638.131-1.966 0-1.9-.918-3.08-3.736-3.08-4.785 0-14.945 4.457-21.631 8.52l-8.521 48.375H137.98l9.635-54.34 18.157-10.88c9.57-5.244 20.91-9.112 29.366-9.112 7.604 0 11.34 3.868 12.717 9.243 10.29-5.965 21.5-9.243 29.824-9.243zm113.464.394-12.979 73.873H320.27l12.52-71.383zm35.396-31.07-18.485 104.877h-17.894l18.025-102.387zm-95.373 45.752c-11.471 0-13.765 4.786-15.339 14.29l-4.522 25.498c-.131.918-.131 1.377-.131 1.77 0 2.688 1.638 3.868 4.916 3.868 5.637 0 13.896-5.375 19.402-10.881l5.965-33.496c-3.277-.59-6.555-1.049-10.291-1.049zm151.024-7.93c-12.979 0-19.861 6.75-22.418 21.04l-1.639 9.243s2.819-.721 16.846-4.458c13.635-3.54 19.14-8.456 19.14-16.256 0-6.555-4.326-9.57-11.93-9.57zM356.65 63.516l-3.54 20.32-18.353 2.687 3.54-20.517zm52.111 1.31-3.015 16.847-8.522 1.18 2.885-16.847z"/>
  </g>
</svg>
