<svg xmlns="http://www.w3.org/2000/svg" viewBox="0 0 255.9 289.261">
  <path fill="#59473d" d="M243.762 260.636c-.458.304-.933.454-1.427.454-.73 0-1.364-.261-1.897-.783-.535-.524-.803-1.21-.803-2.058 0-.794.231-1.47.692-2.027.46-.558 1.09-.836 1.89-.836.511 0 .953.105 1.327.315.611.341.99.938 1.138 1.79l-1.229-.02c-.074-.396-.23-.66-.47-.796-.201-.128-.422-.191-.66-.191-.362 0-.659.15-.89.446-.23.298-.345.748-.345 1.347 0 .596.126 1.03.382 1.298.255.27.56.405.917.405.327 0 .575-.09.743-.268.167-.178.276-.404.323-.673h1.195c-.13.76-.424 1.293-.886 1.597zm-4.374-5.191c-.768.784-1.151 1.715-1.151 2.79 0 1.117.39 2.064 1.171 2.842.776.782 1.713 1.171 2.81 1.171 1.095 0 2.029-.393 2.803-1.177a3.895 3.895 0 0 0 1.163-2.836c0-1.07-.385-2.001-1.157-2.79-.778-.802-1.714-1.202-2.81-1.202-1.105 0-2.048.4-2.83 1.202zm6.201 6.247c-.936.907-2.06 1.359-3.371 1.359-1.354 0-2.497-.464-3.423-1.392-.93-.927-1.394-2.069-1.394-3.424 0-1.406.502-2.577 1.503-3.508.941-.872 2.047-1.307 3.314-1.307 1.329 0 2.464.469 3.404 1.412.941.94 1.412 2.074 1.412 3.403 0 1.368-.481 2.52-1.445 3.457zM255.883 209.99c-.018-.482-.06-.943-.114-1.376a6.625 6.625 0 0 0-.16-.85c-.12-.643-.268-1.282-.484-1.888l-.005-.011a10.91 10.91 0 0 0-2.013-3.49 10.449 10.449 0 0 0-2.986-2.38l-.034-.019a11.587 11.587 0 0 0-3.229-1.108c-.294-.054-.568-.082-.842-.112 1.28-5.484-.322-9.67-1.358-11.628.08-.078.165-.154.241-.228 1.367-1.32 2.528-2.583 3.505-3.851l.185-.254a12.208 12.208 0 0 0 1.636-3.344c.283-.91.422-1.735.505-2.487h.009l.008-.045.005-.107.032-.232h-.019l.014-.26h.007l.003-.156c.006-.154.009-.313.009-.481.008-.311.007-.633-.01-.987-.074-1.698-.382-3.905-1.497-6.296a14.415 14.415 0 0 0-2.352-3.55 14.737 14.737 0 0 0-3.755-2.982l.008.003c-.106-.059-.19-.116-.287-.173-3.037-4.472-6.507-7.938-9.582-10.568a72.966 72.966 0 0 0-4.355-3.43c-1.257-.924-2.316-1.653-2.906-2.09l.006.003c-1.353-.993-2.359-1.59-2.84-1.861-1.11-.674-1.934-1.212-2.431-1.587a4.954 4.954 0 0 1-.649-.56l-.038-.049c-.007-.01-.049-.093-.107-.392-.063-.3-.129-.81-.159-1.549-.05-1.16-.01-2.86.117-5.105.202-3.609.613-8.59 1.037-15.34.14-2.147.16-4.169.082-6.075-.127-3.057-.522-5.825-1.161-8.335l-.002-.013c-.14-.571-.304-1.132-.475-1.684l-.002-.005-.003-.007c-.13-.412-.242-.723-.312-.922l.005.012c-.129-.368-.263-.73-.41-1.1l-.005-.016c-.073-.179-.165-.41-.287-.698l-.002-.007-.002-.005a22.857 22.857 0 0 0-.828-1.758l-.09-.168-.166-.298-.119-.2a27.489 27.489 0 0 0-1.946-2.796 46.895 46.895 0 0 0-1.93-6.458c-.879-2.297-2.057-4.846-3.732-7.36a27.091 27.091 0 0 0-1.966-2.564l.241-.25c.338-.354 8.385-8.78 14.686-19.715 11.742-20.382 7.832-32.843 2.488-39.707l-.151-.192-.161-.18c-5.155-5.726-12.163-9.177-20.833-10.254-17.955-2.233-38.26 6.578-43.583 9.083l-9.678-10.69-.036-.04a18.44 18.44 0 0 0-2.825-2.519 19.906 19.906 0 0 0-3.275-1.91c-2.313-1.074-4.85-1.745-7.55-2.08-5.417-.667-11.497-.02-18.111 1.675-9.912 2.558-21.044 7.509-32.68 14.489-11.63 6.982-23.75 16.002-35.517 26.734-14.38 13.115-26.257 26.98-34.911 40.14-4.324 6.582-7.845 12.988-10.461 19.064C2.679 108.44.962 114.187.3 119.505c-.48 3.866-.404 7.518.373 10.885a21.258 21.258 0 0 0 1.449 4.227c.8 1.723 1.835 3.32 3.123 4.733l.032.035 11.26 11.793-.065.112c-.122.213-.236.43-.356.645-.173.32-.348.64-.515.962-.112.222-.221.442-.327.665-.161.33-.318.657-.47.992-.104.224-.202.449-.299.676-.148.338-.29.68-.427 1.024l-.268.681c-.131.349-.256.705-.381 1.058-.078.23-.158.459-.232.69-.118.36-.226.723-.335 1.09-.03.101-.064.2-.093.3-.037.13-.071.261-.106.39-.105.375-.197.754-.29 1.133-.054.226-.113.453-.166.684l-.105.499c-.05.234-.091.468-.138.704-.04.212-.087.426-.123.64-.084.475-.153.96-.22 1.44-.018.143-.045.28-.062.425l-.005.04-.011.129c-.038.314-.066.63-.099.95-.046.496-.086.995-.113 1.499-.016.219-.026.444-.036.667-.007.173-.02.343-.026.518-.01.35-.005.704-.007 1.061 0 .212-.003.424 0 .64.002.128-.003.253 0 .381v.072c.007.228.016.458.021.684.012.251.035.496.05.744.01.185.015.37.027.553.016.163.024.286.035.392.02.233.042.47.068.701.024.269.053.554.093.88l.002.028v-.005l.045.313c.035.264.078.53.118.792.032.237.074.501.127.832l.067.34c.03.16.062.32.093.476l.003.012.004.022.042.202c.04.218.096.492.18.867l.06.252c.06.238.104.417.137.543l.058.242.068.265.058.223.05.186.044.169.065.22.061.229c.054.179.113.355.167.534.065.208.147.485.268.856l-.02-.06.023.07c.028.088.051.146.077.22.108.309.194.545.237.667l.006.014v.002c.071.202.176.498.324.883l.002.006.002.009-.002-.01.012.036-.005-.017.065.159a17 17 0 0 0 .23.561l.072.18.012.03a40.861 40.861 0 0 0 .35.826l-.007-.015.08.172c.075.165.143.32.206.446.06.122.11.231.153.32l-.006-.014.008.019.007.015-.007-.015c.095.197.21.45.369.766l.012.03.01.016.067.132c.068.13.133.256.192.365.082.157.157.29.215.403l.012.026c.087.157.208.389.372.686l.012.02.01.022.07.114c.067.12.132.234.194.337.105.178.203.337.28.47l.023.037.005.011c.08.13.202.335.374.611l.016.026.05.08.241.376c.124.182.233.348.327.49l-.016-.025c.103.152.243.368.435.64l.015.023.009.017-.017-.029.02.03.015.022-.005-.003.007.009.003.002c.091.129.182.255.274.383.126.177.247.34.355.484l-.007-.01c.103.14.232.314.387.52l.034.044c.118.153.23.294.34.434.142.178.278.344.404.5l.043.053c.086.105.187.23.323.39l.06.072h-.002l.02.026.036.037c.203.24.386.443.568.648l.195.222.002.003.008.008.015.015-.005-.003c.091.1.202.227.34.374l.044.049v.003l.008.006.027.027-.007-.007c.22.239.436.458.653.678.09.09.178.19.269.278l.01.01c.047.044.152.154.322.324l.033.03.097.101c.261.256.534.503.804.752l.062.061.018.014.006.007.01.009c.07.062.18.164.34.31l.018.018c.346.306.694.604 1.04.891l.02.017.196.163.133.108-.004-.005.2.159c.293.234.58.46.857.672l.078.062.036.026c.106.079.184.136.227.17l.054.042.042.029.243.173c.246.177.49.35.738.521l.208.146.024.017.257.175.011.005.131.084c.25.17.517.335.782.505.14.09.266.174.411.262l.225.137.127.074.083.049c.412.248.8.471 1.155.667l.034.017.22.12.016.01c.49.262.957.502 1.398.721l.076.037.24.115.003-.002c.239.115.47.216.707.322.11.051.223.103.334.152.134.06.274.131.408.188l.114.05.033.013.054.024c.23.097.454.18.68.272l.116.043c.254.103.509.21.762.306l.06.022.188.067c.119.042.24.08.36.124l.113.037c.363.13.727.262 1.097.38l.087.027.032.01.012.007c.569.177 1.137.34 1.703.493l.023.006.096.024-.033-.007c.501.131.994.244 1.483.354h.006l.181.048.19.04c.466.102.94.184 1.419.267l.135.037.336.051c.288.047.576.085.864.123l.124.338.005.016c.786 2.148 1.639 4.284 2.555 6.403 13.505 37.374 50.84 66.348 93.442 71.644 42.605 5.297 88.082-23.02 106.61-61.285a89.733 89.733 0 0 0 2.192-4.291c1.837-1.892 3.264-3.853 4.212-5.933 1.134-2.445 1.516-5.018 1.41-7.123"/>
  <path fill="#59473d" d="m218.418 100.307.005.01.002.003-.007-.014M30.425 204.937l-.003-.002h-.002l.005.002M18.36 193.633l.002.005v-.003l-.003-.001M18.366 193.644l.003.001-.007-.008.004.007M12.716 181.675l-.004-.017-.003-.003.007.02M12.238 179.785l-.001-.007-.003-.002.004.009M19.458 195.133l.013.017-.019-.024-.011-.015.017.022"/>
  <path fill="#141c26" d="M219.444 23.21c-2.063-2.295-4.45-4.023-7.042-5.303a21.1 21.1 0 0 0-1.452-.495c-.241-.16-.486-.31-.735-.458-2.293-.878-4.719-1.451-7.214-1.772-12.378-1.593-26.47 2.914-34.529 6.114-.442.185-.887.368-1.338.56-.677.29-1.36.584-2.051.888a188.653 188.653 0 0 0-3.539 1.607c-.174.08-.348.163-.521.245l-3.175-3.689-.91-1.058-.393-.459-8.307-9.645-.721-.838-.893-1.035-.159.035-2.35.532-2.713.615c-1.5-.697-3.282-1.193-5.345-1.45-4.132-.52-9.378-.043-15.354 1.502-5.977 1.535-12.679 4.115-19.785 7.654-14.215 7.074-30.04 17.975-45.267 31.867a235.388 235.388 0 0 0-14.824 14.76 205.17 205.17 0 0 0-12.101 14.415c-7.373 9.677-13.024 19.089-16.633 27.485-2.41 5.594-3.901 10.734-4.446 15.132-.402 3.198-.297 5.995.239 8.306.173.748.403 1.427.662 2.077.539 1.365 1.247 2.542 2.161 3.55l9.213 9.652.988 1.033.065-.07c.28-.325.569-.65.86-.967l.078-.084c.107-.114.217-.222.324-.331.276-.289.556-.578.84-.86.178-.174.357-.342.538-.512.175-.166.345-.337.524-.5.08-.074.163-.14.245-.214.187-.17.381-.337.575-.505a37.29 37.29 0 0 1 1.309-1.085l.072-.056a48.981 48.981 0 0 1 1.45-1.09c.307-.219.62-.435.936-.648.19-.127.376-.253.568-.378.323-.21.653-.414.983-.615.193-.116.38-.233.571-.344.346-.203.697-.395 1.046-.586.187-.101.37-.206.558-.304l.21-.11.032-.02c.297-.152.6-.294.902-.439.17-.08.331-.165.504-.244.252-.12.51-.23.767-.341.222-.097.443-.197.669-.29l.249-.11a39.567 39.567 0 0 1 1.721-.656c.183-.067.372-.123.557-.187.2-.066.398-.133.6-.197l.235-.08c.12-.036.24-.078.358-.113.248-.073.498-.138.745-.21l.184-.05c.287-.081.573-.161.863-.234.27-.07.54-.128.814-.19.337-.079.673-.155 1.011-.225.142-.027.282-.058.424-.085.141-.027.287-.047.43-.073.332-.06.667-.117 1-.168.296-.045.59-.084.885-.125.239-.03.473-.062.71-.089.097-.01.193-.018.289-.026.11-.013.214-.029.323-.038l.178-.01a34.04 34.04 0 0 1 3.888.067l.215.014c1.427.118 2.971.344 4.592.687.387.084.773.164 1.173.26.082-.151.166-.308.25-.46a183.71 183.71 0 0 1 2.604-4.516c5.13-8.601 10.633-16.12 16.25-22.676a155.722 155.722 0 0 1 5.782-6.39c8.056-8.414 16.16-14.966 23.57-20.024a144.646 144.646 0 0 1 4.827-3.156 137.228 137.228 0 0 1 6.155-3.626 129.078 129.078 0 0 1 4.575-2.417 118.042 118.042 0 0 1 6.56-3.056 104.579 104.579 0 0 1 4.058-1.636c-.61-.064-1.23-.113-1.864-.146-.59-.03-1.19-.042-1.797-.043h-.457a37.85 37.85 0 0 0-5.497.453c-.414.065-.831.138-1.252.221a54.372 54.372 0 0 1 9.061-3.695c1.951-.6 3.858-1.07 5.688-1.427a57.165 57.165 0 0 1 11.264-1.032c1.294.012 2.485.068 3.556.148 3.741.28 5.996.853 5.996.853-.531-.748-1.2-1.4-1.927-1.968-1.325-1.027-2.85-1.762-4.188-2.283a23.882 23.882 0 0 0-2.415-.798c.632-.108 1.254-.2 1.868-.282a50.337 50.337 0 0 1 1.93-.223 49.753 49.753 0 0 1 13.65.617c4.271.79 6.844 1.865 6.844 1.865-.609-1.188-1.512-2.202-2.5-3.057a17.255 17.255 0 0 0-2.207-1.608 61.165 61.165 0 0 1 12.693 4.453 54.609 54.609 0 0 1 2.517 1.295c2.091 1.142 3.248 1.961 3.248 1.961-.35-1.23-1.06-2.392-1.888-3.436a18.35 18.35 0 0 0-.636-.765l.1.046c.077.025.241.076.47.154.166.056.367.125.608.212.91.331 2.302.887 3.938 1.7l.238.119c.222.114.449.23.676.35.562.296 1.142.625 1.734.978a36.183 36.183 0 0 1 2.558 1.671c.624.448 1.244.928 1.86 1.442a29.2 29.2 0 0 1 1.849 1.686c.117.119.238.235.356.359.438.45.86.923 1.268 1.415a22.691 22.691 0 0 1 2.133 3.006 20.592 20.592 0 0 1 1.902 4.206c.026.086.05.175.073.26a83.44 83.44 0 0 0 1.785-1.99c6.725-7.73 26.53-32.837 14.598-48.157"/>
  <path fill="#856249" d="M249.038 210.78h.003s.233-1.739-.686-3.294l-.02-.042a3.424 3.424 0 0 0-.17-.26l-.06-.09a4.25 4.25 0 0 0-.348-.398 4.172 4.172 0 0 0-.8-.655 4.843 4.843 0 0 0-.53-.3c-.521-.248-1.145-.438-1.888-.546a10.718 10.718 0 0 0-1.836-.081c-.273.009-.543.015-.837.042l-.134.008.05.18.13.491.068.27c.096.384.211.873.329 1.426a3.166 3.166 0 0 1-.121.314l-.046.107c-.338.785-1.257 2.6-3.304 4.96-.348.4-.734.82-1.149 1.252-5.71 5.9-18.069 14.301-44.07 19.001-8.823 1.245-16.957 1.313-23.905.45-10.274-1.278-17.972-4.56-21.554-8.974-.31-.38-.594-.77-.865-1.164-.2-.29-.393-.585-.57-.883-.065-.11-.123-.222-.186-.331a16.888 16.888 0 0 1-2.171-8.56c.049-3.487 1.137-6.824 2.978-9.39 1.495-2.08 3.481-3.652 5.805-4.378a9.905 9.905 0 0 1 3.637-.428c.258.018.6.055 1.025.107.854.108 2.047.275 3.51.464l.488.061c4.88.607 12.65 1.34 22.047.766 17.095-1.04 39.596-6.42 60.028-24.844l.056-.072v-.032c.069-1.544-.138-4.33-2.088-6.499a7.8 7.8 0 0 0-1.19-1.07 8.324 8.324 0 0 0-.826-.54 15.83 15.83 0 0 1-.84-.503 15.662 15.662 0 0 1-1.005-.678l-.044-.065c-.138-.216-.286-.426-.426-.642-5.3-8.027-12.602-12.686-15.513-14.82-1.374-1.01-2.248-1.47-2.248-1.47-6.304-3.84-7.229-5.115-6.64-15.545.211-3.756.618-8.693 1.037-15.385.056-.871.082-1.698.097-2.51.003-.195.008-.384.008-.575a45.552 45.552 0 0 0-.032-2.239l-.007-.206-.017-.222a53.745 53.745 0 0 0-.188-2.355 30.596 30.596 0 0 0-.223-1.665c-.045-.274-.099-.537-.149-.804-.056-.3-.116-.594-.18-.882a24.505 24.505 0 0 0-.193-.841l-.002-.001.002-.003v.003c-.085-.337-.183-.655-.275-.974-.035-.116-.062-.237-.1-.35-.035-.108-.073-.206-.107-.313l-.035-.106-.108-.306-.003-.021c-.088-.247-.179-.486-.268-.72l-.028-.078-.092-.222-.11-.272-.024-.053v-.007c-.19-.442-.387-.87-.598-1.273l-.166-.297a20.245 20.245 0 0 0-.734-1.12l-.1-.15-.125-.166c-.18-.245-.36-.486-.54-.711l-.247-.31a21.15 21.15 0 0 0-.726-.823v-.002l-.006-.041-.007-.05-.014-.07-.018-.1-.015-.099-.032-.16-.014-.098-.045-.224-.017-.08a38.68 38.68 0 0 0-.369-1.642l-.009-.048-.129-.498-.018-.065c-.047-.18-.096-.36-.15-.551l-.007-.013a40.349 40.349 0 0 0-.426-1.412c-.049-.16-.108-.328-.166-.493a32.432 32.432 0 0 0-.366-1.053c-.076-.207-.158-.412-.24-.623-.128-.336-.264-.67-.411-1.014-.094-.226-.2-.449-.297-.677a35.592 35.592 0 0 0-.831-1.708 27.632 27.632 0 0 0-.576-1.028c-.129-.218-.257-.438-.388-.657-.23-.367-.477-.726-.727-1.085-.127-.177-.245-.362-.377-.54-.115-.154-.247-.297-.368-.447-.287-.368-.572-.735-.887-1.081l-.037-.04-.18-.17c-.405-.434-.83-.859-1.289-1.25l-.082-.07c-.2-.17-.412-.335-.622-.495l-.022-.018-.076-.055c-.182-.137-.37-.268-.56-.396l-.1-.07.04.034c-.2-.149-.564-.34-1.041-.554a27.87 27.87 0 0 0-.546-.23c-.984-.395-2.314-.842-3.89-1.261-.098-.027-.202-.051-.298-.075a45.876 45.876 0 0 0-5.888-1.125c-.253-.032-.512-.044-.765-.072l-.31-.028a35.15 35.15 0 0 0-3.683-.185l-.073.002c-1.593.015-3.19.147-4.711.449.357-.594 1.324-1.25 2.294-1.797a25.948 25.948 0 0 1 2.42-1.192c-.691.051-1.399.15-2.106.263-.227.038-.456.069-.686.111l-.444.085-.129.026c-.125.025-.245.051-.369.078-3.554.757-6.974 2.036-8.876 2.813-.27.11-.506.209-.714.296l-.12.05c-.189.024-.383.052-.573.075l.005-.006c1.402-2.592 3.472-3.99 5.048-4.727.275-.13.537-.246.776-.336.089-.034.163-.057.243-.087.227-.08.421-.143.59-.192.372-.108.614-.156.614-.156-.17.005-.327.026-.493.035-.14.01-.278.022-.416.033-.206.015-.414.027-.616.045-.12.013-.247.015-.368.027-3.93.426-7.425 1.759-10.42 3.413a35.953 35.953 0 0 0-5.443 3.702c-.412.086-.834.174-1.262.265-4.296.917-9.204 2.098-14.365 3.682a132.64 132.64 0 0 0-5.804 1.926 119.33 119.33 0 0 0-7.901 3.177c-7.923 3.537-15.73 8.233-22.29 14.532-.236.228-.484.441-.716.672a57.9 57.9 0 0 0-1.67 1.756c-.225.242-.461.469-.682.715-.277.306-.533.636-.804.95a54.658 54.658 0 0 0-3.486 4.47 52.202 52.202 0 0 0-2.304 3.625l-.09.147a53.188 53.188 0 0 0-3.901 8.395A56.484 56.484 0 0 0 91 129.79l-.058.224a60.474 60.474 0 0 0-1.015 5.392c-.052.365-.109.726-.158 1.097-.116.926-.208 1.87-.285 2.827a70.808 70.808 0 0 0-.166 2.661l-.009.207c-.017.44-.042.877-.051 1.323-.01.51-.006 1.029-.006 1.547l-.003.363c.003 1.013.02 2.033.065 3.077l.011.167c.045 1.035.118 2.092.208 3.158.038.443.075.888.12 1.336.011.109.018.218.028.329.025.249.056.501.084.749.13 1.18.29 2.38.475 3.596.049.338.094.675.15 1.015.17 1.065.355 2.138.565 3.231 0 0-.19-1.4-.072-3.461.03-.474.075-.981.139-1.521.147-1.17.397-2.46.823-3.792.105-.325.222-.653.35-.983.052-.143.116-.285.174-.429.252-.61.535-1.221.877-1.825.077.43.16.858.246 1.292l.028.14-.003.197c-.002.267-.007.555-.009.86a123.784 123.784 0 0 0 .056 4.816c.118 3.875.452 8.553 1.29 12.539 0 0 .157-7.247 1.384-8.068 0 0 2.145 13.422 4.136 18.49.258.656.515 1.178.763 1.506l-.052-1.331-.283-7.46s.013-.278.04-.767a131.266 131.266 0 0 0 5.108 9.426c.533.892 1.075 1.79 1.64 2.696-3.688 3.244-7.098 7.832-9.546 13.32-.39.877-.758 1.776-1.097 2.697a45.301 45.301 0 0 0-1.504 5.006c-.044.182-.091.364-.129.548a42.61 42.61 0 0 0-.35 1.69l-.008.053c-.103.571-.194 1.148-.275 1.727-.027.188-.05.376-.071.562-.054.415-.1.83-.14 1.247-.023.212-.04.423-.059.637-.035.42-.063.846-.084 1.27a41.416 41.416 0 0 0-.067 2.428l.002.08c0 .478.013.955.032 1.436.019.485.049.97.084 1.459l.013.196.007.122c.046.593.11 1.187.182 1.785.023.19.056.379.081.57.056.408.111.818.182 1.231.036.228.08.46.12.688.072.378.141.753.222 1.132.052.243.108.487.16.73a45.92 45.92 0 0 0 .786 2.97c.073.245.147.491.224.737.125.386.257.774.39 1.16.083.231.16.463.245.695.157.428.324.856.498 1.285.077.192.147.383.228.576a49.578 49.578 0 0 0 1.744 3.74c.098.184.203.37.299.556.234.437.472.876.721 1.313.132.228.269.456.407.687.234.394.47.791.72 1.186.152.245.312.49.47.736a61.627 61.627 0 0 0 1.286 1.892c.266.378.542.756.827 1.132.183.249.367.496.557.744.3.387.606.773.922 1.158.187.236.376.472.57.706.351.42.718.842 1.088 1.26.173.198.338.396.515.593.555.616 1.123 1.231 1.717 1.843l-.002-.003c-.003-.006-.346-.499-.812-1.364l-.017-.029c-.086-.16-.177-.339-.27-.527l-.03-.053a24.104 24.104 0 0 1-.3-.629l-.021-.039a23.933 23.933 0 0 1-.328-.75c-.874-2.101-1.724-5.018-1.614-8.273.338.453.683.89 1.025 1.334a132.632 132.632 0 0 0 2.117 4.115 108.759 108.759 0 0 0 2.972 5.16c1.318 2.135 2.767 4.272 4.264 6.117l-.002-.002c-.007-.012-1.743-3.635-2.324-6.012-.163-.668-.24-1.242-.156-1.603l.42.432c.14.145.28.286.421.431.277.368.626.832 1.018 1.346l.197.26c.194.255.394.52.61.801l.012.016.78 1.01c2.442 3.139 5.691 7.15 8.008 9.354.773.735 1.44 1.27 1.942 1.501l-3.343-5.989c7.566 6.157 38.786 14.062 69.542 5.238a89.247 89.247 0 0 0 11.074-3.965 85.21 85.21 0 0 0 6.557-3.167l.314-.174a85.49 85.49 0 0 0 4.505-2.654l.033-.02a82.842 82.842 0 0 0 8.754-6.346l.005-.003.007-.006c.102-.09.207-.178.314-.268a73.756 73.756 0 0 0 4.93-4.722 74.25 74.25 0 0 0 5.472-6.469l.12-.156c.401-.537.794-1.07 1.175-1.6l.108-.155c.124-.181.234-.354.357-.533a85.652 85.652 0 0 0 1.545-2.284l.356-.55c.254-.401.5-.803.745-1.2.185-.311.375-.622.554-.93.2-.335.4-.672.595-1.006.344-.606.68-1.207 1.001-1.806.127-.237.247-.468.37-.702.245-.466.486-.926.714-1.381.106-.213.213-.425.316-.636l.093-.2c.286-.574.558-1.145.821-1.706l.05-.12c.99-.923 1.759-1.801 2.376-2.641.09-.119.183-.24.265-.359 1.371-1.978 1.82-3.728 1.845-5.3M65.303 188.546c-.027-.14-.05-.279-.075-.417l.024-.009a71.633 71.633 0 0 1-.828-6.09c-.012-.148-.033-.29-.049-.438-.342.107-.728.56-1.116 1.18-.145.231-.288.485-.43.752-1.04 1.952-1.976 4.66-1.976 4.66.073-.904.173-1.843.283-2.786.013-.11.029-.217.043-.327.115-.96.249-1.929.391-2.891a152.754 152.754 0 0 1 .577-3.548c.024-.136.045-.267.07-.401l.014-.068.064-.362a152.043 152.043 0 0 1 .55-2.912c.135-.683.266-1.33.393-1.938l.04-.197c.018-.095.039-.182.058-.274a14.3 14.3 0 0 0 .056-.274l.007-.032c.033-.151.068-.308.098-.452l.01-.04c.028-.142.055-.263.084-.397.047-.209.091-.423.135-.619l.012-.055c.036-.158.069-.32.102-.464.048-.21.092-.4.13-.582l.002-.006.003-.005c.022-.104.044-.195.066-.29l.004-.018c.021-.086.04-.178.059-.254l.116-.499.029-.119.011-.043.033-.14.023-.098.005-.013-.016.012-.21.191c-.185.164-.375.325-.548.508l-.191.21a9.155 9.155 0 0 0-.588.723l-.098.123c-.23.32-.443.655-.646.997l-.027.045v.002l-.083.152c-.047.083-.091.17-.136.254-.117.213-.238.42-.343.637l-.006.008-.004.007-.005.018-.041.081-.038.081c-.164.341-.314.68-.454 1.015a27.438 27.438 0 0 0-1.151 3.327c-.134.483-.227.86-.27 1.046l-.002.016-.03.124v-.002.002l.012-.145c.016-.288.049-.573.072-.858.044-.601.082-1.204.148-1.8.053-.502.13-.993.201-1.492l.07-.466c.03-.23.062-.459.1-.687.033-.213.08-.424.12-.632l.002-.016v-.001l.045-.234.014-.064a91.616 91.616 0 0 1 .2-1.07l.036-.177.007-.033.053-.251c.021-.105.05-.207.071-.306.085-.376.176-.745.264-1.116l.015-.061c.065-.277.125-.554.196-.826l.002-.012.007-.019.022-.08c.145-.559.306-1.106.467-1.657l.084-.304c.031-.101.058-.209.09-.312.266-.893.55-1.776.852-2.639l.04-.108c.258-.733.52-1.455.796-2.166l.03-.081c.125-.313.253-.613.375-.923l.02-.045c.188-.462.373-.925.565-1.372l.001-.005v-.002l.003-.006.022-.056c.051-.111.17-.383.355-.783l.004-.007.025-.053v-.001c.072-.158.14-.31.21-.47.113-.255.227-.507.339-.757l.101-.219.003-.01 1.948-3.502c.082-.148.161-.294.24-.441l.04-.071.1-.18c.212-.389.425-.78.633-1.158l.893-1.609c.572-1.03 1.062-1.903 1.36-2.43.164-.291.273-.484.304-.544l.014-.026h-.002l-.007-.006-.018-.014c-.076-.051-.667-.459-1.64-1.049a49.796 49.796 0 0 0-6.675-3.355 42.46 42.46 0 0 0-2.611-.978c-.234-.077-.48-.14-.716-.214-.76-.24-1.54-.455-2.338-.645l-.046-.01c-.548-.132-1.092-.269-1.654-.373a26.8 26.8 0 0 0-1.331-.227c-.214-.03-.435-.047-.65-.066l-.641-.065a28.31 28.31 0 0 0-1.817-.096c-.294-.007-.589-.016-.883-.01-1.32.03-2.616.147-3.889.329l-.232.035a32.222 32.222 0 0 0-6.616 1.717c-.715.27-1.42.56-2.114.878-.196.091-.391.187-.587.283-.237.115-.478.228-.712.348a32.49 32.49 0 0 0-5.839 3.864l-.063.053a32.389 32.389 0 0 0-5.318 5.604 33.318 33.318 0 0 0-1.172 1.666 32.728 32.728 0 0 0-1.918 3.351c-.202.407-.4.817-.585 1.232-.035.078-.065.16-.099.239a32.422 32.422 0 0 0-2.423 8.635 32.994 32.994 0 0 0-.197 1.797l-.017.226a33.48 33.48 0 0 0-.08 3.227c.001.097.01.188.013.283.015.464.033.926.067 1.386l.026.242.029.318c.03.364.065.725.107 1.08l.015.082v.023l.002.003c.026.18.056.36.081.54.047.323.092.649.145.968.043.233.094.462.139.692.06.298.113.6.182.896.055.245.12.483.18.72l.04.169.066.25.049.19.06.231c.069.248.15.495.223.742.08.26.157.525.243.78.082.254.176.503.267.754l.074.201c.062.18.125.361.197.54.098.254.206.506.311.76.098.231.192.464.293.694.058.131.12.259.18.384.063.127.119.256.178.383a24.391 24.391 0 0 0 .723 1.425c.11.202.215.404.325.604.148.262.306.521.463.783.11.181.218.366.332.551.167.265.34.522.516.781.113.173.226.343.341.51.185.263.377.523.57.785a24.682 24.682 0 0 0 .972 1.247c.11.138.221.277.339.412.222.265.453.524.687.783.108.122.218.243.332.365.242.265.492.524.747.775.11.108.213.217.323.325a42.632 42.632 0 0 0 1.118 1.045c.285.254.576.504.873.75.098.08.192.163.29.241.308.253.622.493.938.734.09.065.184.137.272.205.331.24.663.476 1.001.706l.251.172c.35.234.705.463 1.063.682l.229.139c.37.227.75.438 1.131.65l.196.11c.395.213.795.415 1.196.614l.172.081c.415.201.831.39 1.255.574l.15.066c.433.181.87.353 1.31.521l.123.045c.455.165.908.324 1.371.472l.094.031c.225.07.456.13.683.197.248.072.494.15.744.217l.07.019c.49.128.983.244 1.48.35l.043.013.008.002c.502.106 1.01.202 1.522.282l.024.008a32.77 32.77 0 0 0 4.813.413c.39.007.778.012 1.169.007a32.923 32.923 0 0 0 3.837-.352 39.035 39.035 0 0 0 5.004-1.1c2.935-.852 5.528-1.989 7.078-3.145 0 0-1.02-4.517-1.882-9.105-.094-.505-.186-1.01-.274-1.507M199.007 80.042l.005.002-.013-.009.008.007"/>
  <path fill="#3478ad" d="m138.58 18.9-.373-4.574 2.29-5.07.905-.202c-1.5-.697-3.282-1.193-5.345-1.45-4.132-.52-9.378-.043-15.354 1.502-5.977 1.535-12.679 4.115-19.785 7.654-14.215 7.074-30.04 17.975-45.267 31.867a235.388 235.388 0 0 0-14.824 14.76 205.17 205.17 0 0 0-12.101 14.415c-7.373 9.677-13.024 19.089-16.633 27.485-2.41 5.594-3.901 10.734-4.446 15.132-.402 3.198-.297 5.995.239 8.306.173.748.403 1.427.662 2.077.539 1.365 1.247 2.542 2.161 3.55l9.213 9.652.988 1.033.065-.07c.28-.325.569-.65.86-.967l.078-.084c.107-.114.217-.222.324-.331.276-.289.556-.578.84-.86.178-.174.357-.342.538-.512.175-.166.345-.337.524-.5.08-.074.163-.14.245-.214.187-.17.381-.337.575-.505a37.29 37.29 0 0 1 1.309-1.085l.072-.056a48.981 48.981 0 0 1 1.45-1.09c.307-.219.62-.435.936-.648.19-.127.376-.253.568-.378.323-.21.653-.414.983-.615.193-.116.38-.233.571-.344.346-.203.697-.395 1.046-.586.187-.101.37-.206.558-.304l.21-.11.013-.039c2.205-6.106 5.51-12.736 9.793-19.643 5.262-8.484 11.985-17.382 19.968-26.243a238.751 238.751 0 0 1 16.483-16.565c7.7-7.018 15.548-13.28 23.29-18.705a191.1 191.1 0 0 1 15.412-9.766c.478-.27.957-.551 1.432-.812a149.26 149.26 0 0 1 3.993-2.13 136.159 136.159 0 0 1 8.46-4.029l-1.35-1.622-.224-.267-11.188-13.455.086-8.197-.105-.118 6.724-2.005L138.58 18.9"/>
  <path fill="#fce9c9" d="M249.038 210.78h.003s.233-1.739-.686-3.294l-.02-.042a3.424 3.424 0 0 0-.17-.26l-.06-.09a4.25 4.25 0 0 0-.348-.398 4.172 4.172 0 0 0-.8-.655 4.843 4.843 0 0 0-.53-.3c-.521-.248-1.145-.438-1.888-.546a10.718 10.718 0 0 0-1.836-.081c-.273.009-.543.015-.837.042l-.134.008.05.18.13.491.068.27c.096.384.211.873.329 1.426a3.166 3.166 0 0 1-.121.314l-.046.107c-.338.785-1.257 2.6-3.304 4.96-.348.4-.734.82-1.149 1.252-5.71 5.9-18.069 14.301-44.07 19.001-8.823 1.245-16.957 1.313-23.905.45-10.274-1.278-17.972-4.56-21.554-8.974-.31-.38-.594-.77-.865-1.164-.2-.29-.393-.585-.57-.883-.065-.11-.123-.222-.186-.331a16.888 16.888 0 0 1-2.171-8.56c.049-3.487 1.137-6.824 2.978-9.39 1.495-2.08 3.481-3.652 5.805-4.378a9.905 9.905 0 0 1 3.637-.428c.258.018.6.055 1.025.107.854.108 2.047.275 3.51.464l.488.061c4.88.607 12.65 1.34 22.047.766 17.095-1.04 39.596-6.42 60.028-24.844l.056-.072v-.032c.069-1.544-.138-4.33-2.088-6.499a7.8 7.8 0 0 0-1.19-1.07 8.324 8.324 0 0 0-.826-.54 15.83 15.83 0 0 1-.84-.503 15.662 15.662 0 0 1-1.005-.678l-.044-.065c-.138-.216-.286-.426-.426-.642-5.3-8.027-12.602-12.686-15.513-14.82-1.374-1.01-2.248-1.47-2.248-1.47-6.304-3.84-7.229-5.115-6.64-15.545.211-3.756.618-8.693 1.037-15.385.056-.871.082-1.698.097-2.51.003-.195.008-.384.008-.575a45.552 45.552 0 0 0-.032-2.239l-.007-.206-.017-.222a53.745 53.745 0 0 0-.188-2.355 30.596 30.596 0 0 0-.223-1.665c-.045-.274-.099-.537-.149-.804-.056-.3-.116-.594-.18-.882a24.505 24.505 0 0 0-.193-.841l-.002-.001.002-.003v.003c-.085-.337-.183-.655-.275-.974-.035-.116-.062-.237-.1-.35-.035-.108-.073-.206-.107-.313l-.035-.106-.108-.306-.003-.021c-.088-.247-.179-.486-.268-.72l-.028-.078-.092-.222-.11-.272-.024-.053v-.007c-.19-.442-.387-.87-.598-1.273l-.166-.297a20.245 20.245 0 0 0-.734-1.12l-.1-.15-.125-.166c-.18-.245-.36-.486-.54-.711l-.247-.31a21.15 21.15 0 0 0-.726-.823v-.002c-.299-.314-.597-.61-.9-.885-.348-.216-.689-.41-1.033-.58-.111-.06-.224-.102-.339-.153a9.266 9.266 0 0 0-.681-.292c-.133-.05-.262-.09-.393-.135a12.217 12.217 0 0 0-.615-.185 9.91 9.91 0 0 0-.407-.089 8.04 8.04 0 0 0-1.001-.152c-.196-.019-.394-.028-.59-.036-.134-.003-.266-.007-.395-.003a9.616 9.616 0 0 0-.604.03c-.123.008-.248.019-.37.032l-.27.04c-.123.022-.246.036-.373.06-.107.018-.216.036-.323.058-.25.052-.498.116-.744.187l-.217.056c-.651.194-1.3.443-1.942.735l-.215.102c-.25.115-.501.236-.751.364l-.288.155c-.227.118-.454.244-.679.37l-.308.18c-.223.13-.447.262-.67.4l-.303.187c-.232.145-.466.295-.7.447l-.258.169c-.264.172-.528.348-.792.527l-.158.106-.9.618-.01.01-.046.028h.003c-.562.385-1.123.78-1.69 1.174-.475.331-.96.663-1.445.991l-.234.161c-.49.33-.986.65-1.482.97l-.25.156c-.5.31-1.002.613-1.507.9l-.266.148c-.508.287-1.026.554-1.547.81l-.26.122c-.528.25-1.067.485-1.611.69l-.225.086c-.562.205-1.133.394-1.713.547l-.152.035a16.18 16.18 0 0 1-1.856.37 24.49 24.49 0 0 1-3.178.194 34.358 34.358 0 0 1-5.212-.391 56.748 56.748 0 0 1-1.753-.298c-.207-.04-.414-.071-.62-.111-1.52-.296-3.05-.649-4.59-1.02-.647-.154-1.294-.31-1.943-.468-1.044-.254-2.098-.5-3.152-.74-.21-.049-.411-.101-.623-.147h.01c-.148-.033-.297-.064-.447-.094-.234-.052-.468-.102-.7-.155l-.671-.133-.116-.024-.078-.015-.617-.122c-.478-.09-.96-.176-1.441-.256-.143-.025-.287-.043-.429-.065-.358-.056-.715-.11-1.072-.159-.18-.026-.364-.043-.542-.065l-.04-.005c-.312-.04-.624-.076-.936-.107l-.622-.057-.283-.02c-.213-.017-.428-.034-.643-.046a27.235 27.235 0 0 0-1.596-.062 14.464 14.464 0 0 1-.295-.005c-.089-.001-.182-.005-.274-.005-.404 0-.814.009-1.225.027-.106.003-.218.002-.326.01-.52.022-1.044.063-1.569.118-.136.014-.272.034-.41.048-.339.04-.679.086-1.02.138l-.152.022c-.186.027-.376.063-.56.096-.35.064-.696.131-1.047.206-.202.046-.403.09-.603.14-.345.083-.693.175-1.042.274a21.458 21.458 0 0 0-1.721.547c-.172.059-.342.113-.513.18-.551.202-1.097.423-1.652.67-4.333 2.495-8.054 5.899-11.014 9.87a39.114 39.114 0 0 0-2.697 4.146 39.222 39.222 0 0 0-2.25 4.718 39.234 39.234 0 0 0-1.324 3.87c-.025.087-.044.177-.068.266a36.969 36.969 0 0 0-1.1 5.785c-.06.539-.115 1.076-.15 1.616a34.907 34.907 0 0 0 .005 4.363c.006.13.017.264.026.395.025.372.038.74.078 1.113.107 1.034.254 2.068.462 3.095.073.379.176.736.267 1.101.086.35.163.71.257 1.052v-.002a30.308 30.308 0 0 0 3.007 7.127c4.72 8.156 12.483 13.034 18.107 15.651a68.711 68.711 0 0 0 6.843 2.584s-.112.07-.285.187a58.998 58.998 0 0 0-4.274 1.263 60.924 60.924 0 0 0-3.845 1.44c-3.65 1.512-7.794 3.663-11.465 6.634-.46.37-.912.754-1.355 1.15-.753.679-1.471 1.401-2.162 2.158-.079.086-.163.168-.238.255-.105.116-.208.237-.311.355-.26.305-.518.616-.77.934l-.3.382c-.33.436-.652.878-.956 1.337-.3.45-.587.915-.859 1.386-2.176 3.798-3.41 8.346-3.031 13.769l.011-.056.007-.04.04-.202.012-.045c.016-.082.04-.18.065-.287l.015-.067c.03-.123.065-.265.105-.419l.027-.1.148-.536h.002c.054-.19.122-.395.188-.606l.043-.129c.07-.215.149-.44.234-.671l.045-.11c.078-.22.166-.445.262-.677l.045-.107a27.3 27.3 0 0 1 .334-.77l.077-.164c.126-.268.255-.54.4-.815v-.001l.019-.032c.214-.411.456-.83.714-1.251.097-.16.191-.319.298-.479l.083-.133.002-.003a18.676 18.676 0 0 1 1.343-1.782c.07-.083.145-.165.22-.247.178-.2.363-.4.554-.596.08-.079.157-.16.236-.237.262-.257.532-.509.817-.752l.024-.023v.001s-4.939 11.174-2.791 20.035c0 0-.002-.028-.002-.075v-.054c-.002-.05-.002-.107-.002-.182l-.001-.048c0-.091 0-.196.006-.322 0-.016 0-.03.002-.049 0-.131.009-.277.016-.44l.002-.048a23.946 23.946 0 0 1 .095-1.228l.007-.055c.022-.222.054-.453.087-.696.002-.022.007-.044.009-.065.038-.257.08-.524.131-.8l.012-.065.026-.138v-.006c.06-.31.132-.625.215-.946.006-.02.01-.042.014-.064.085-.313.175-.63.276-.948l.093-.292.069-.203v-.003c.093-.262.196-.523.307-.783l.017-.042v-.002a11.855 11.855 0 0 1 .685-1.343c.204-.346.419-.685.663-1.006l.01-.016v.002-.002h.001s-.283 2.752-.21 6.026c.014.515.038 1.044.071 1.578.02.355.043.712.077 1.068a43.2 43.2 0 0 1 0 .004 44.049 44.049 0 0 0 .122 6.991c.392 4.026 1.35 8.285 3.034 12.768 0 0-1.544-5.155.68-10.312.202.469.416.942.641 1.418.183 1.53.491 3.702.94 6.094.431 3.985 2.338 15.942 10.46 24.352 0 0-3.07-3.984-2.592-9.17.32.681.638 1.296.94 1.825 1.39 2.6 4.154 7.445 7.167 10.803 0 0-2.444-4.735-1.875-5.755 0 0 7.972 9.911 10.507 10.878l-3.334-5.528-.075-.162c11.583 8.4 27.475 11.517 47.131 6.044a96.17 96.17 0 0 0 10.466-3.605 85.21 85.21 0 0 0 6.557-3.167l.314-.175a85.49 85.49 0 0 0 4.505-2.653l.033-.02a82.842 82.842 0 0 0 8.754-6.346l.005-.003.007-.006c.102-.09.207-.178.314-.268a73.756 73.756 0 0 0 4.93-4.722 74.25 74.25 0 0 0 5.472-6.469l.12-.156c.401-.537.794-1.071 1.175-1.6l.108-.155c.124-.181.234-.354.357-.533a85.652 85.652 0 0 0 1.545-2.285l.356-.549c.255-.402.5-.803.745-1.2.185-.311.375-.622.554-.93.2-.336.4-.672.595-1.006.344-.606.68-1.208 1.001-1.806.127-.237.247-.468.37-.702.246-.466.486-.926.714-1.381.106-.213.213-.425.316-.636l.093-.2c.286-.574.558-1.145.821-1.706l.05-.12c.99-.923 1.759-1.801 2.376-2.641.09-.12.183-.24.265-.359 1.371-1.978 1.82-3.729 1.845-5.3M64.375 181.592c-.342.107-.728.56-1.116 1.18-.145.231-.288.484-.43.752-1.04 1.952-1.976 4.66-1.976 4.66.073-.904.173-1.843.283-2.786.013-.11.029-.217.043-.327.115-.96.249-1.929.391-2.891a152.754 152.754 0 0 1 .577-3.548c.024-.136.045-.268.07-.401l.014-.069.064-.362a152.043 152.043 0 0 1 .55-2.912c.135-.683.266-1.329.393-1.937l.04-.197c.018-.096.039-.182.058-.274a14.3 14.3 0 0 0 .056-.274l.007-.032c.033-.152.068-.308.098-.452l.01-.04c.028-.142.055-.263.084-.397.047-.209.091-.424.135-.619l.012-.055c.036-.158.069-.32.102-.464.048-.21.092-.401.13-.583l.002-.006.003-.005c.022-.103.044-.194.066-.29l.004-.017c.021-.086.04-.178.059-.254l.116-.5.029-.118.011-.043.033-.14.023-.098.005-.013-.016.012-.21.19c-.185.165-.375.326-.548.509l-.191.21a9.155 9.155 0 0 0-.588.723l-.098.123c-.23.32-.443.655-.646.997l-.027.045v.002l-.083.152c-.047.083-.091.169-.136.253-.117.214-.238.422-.343.637l-.006.008-.004.007-.005.019-.041.08-.038.082c-.164.341-.314.68-.454 1.015a27.438 27.438 0 0 0-1.151 3.327c-.134.483-.227.86-.27 1.045l-.002.016-.03.125v-.002.002l.012-.145c.016-.288.049-.573.072-.859.044-.6.082-1.203.148-1.799.053-.502.13-.993.201-1.492l.07-.466c.03-.23.062-.459.1-.687.033-.214.08-.424.12-.633l.002-.016.045-.235.014-.064a91.616 91.616 0 0 1 .2-1.07l.036-.176.007-.033.053-.251c.021-.106.05-.207.071-.306.085-.376.176-.745.264-1.116l.015-.061c.065-.277.125-.554.196-.826l.002-.012.007-.019.022-.08c.145-.559.306-1.106.467-1.657l.084-.304c.031-.102.058-.209.09-.312.266-.894.55-1.776.852-2.64l.04-.108c.258-.733.52-1.454.796-2.165l.03-.081c.125-.313.253-.614.375-.923l.02-.046c.188-.46.373-.924.565-1.37l.001-.006v-.002l.003-.006.022-.056c.051-.112.17-.383.355-.783l.004-.007.025-.054c.072-.158.14-.311.21-.47.113-.255.227-.507.339-.757l.101-.219c-.16-.087-.327-.164-.492-.246l-.093-.047-.175-.088a18.479 18.479 0 0 0-3.355-1.223l-.185-.046a18.477 18.477 0 0 0-4.798-.543c-.58.013-1.151.062-1.713.123-.18.023-.353.054-.526.077-.279.042-.554.096-.83.146-.108.023-.22.036-.328.06a17.685 17.685 0 0 0-1.687.443c-.17.054-.34.097-.505.156-.494.173-.98.363-1.456.574-.19.084-.365.181-.55.268-.217.107-.432.222-.645.331l-.22.113a19.646 19.646 0 0 0-1.321.814c-.251.166-.497.334-.736.51-.147.112-.287.228-.435.342a18.886 18.886 0 0 0-1.666 1.507c-.318.315-.628.636-.918.973l-.148.169c-.152.182-.295.375-.438.566l-.023.027-.018.025c-.097.128-.202.252-.297.382l-.038.051-.037.051-.002.005-.003.003c-.585.82-1.1 1.692-1.544 2.6-.066.13-.124.264-.185.396-.206.444-.395.899-.567 1.362-.067.184-.142.362-.205.548l-.002.002v.001l-.003.003c-.156.472-.294.949-.412 1.442l-.044.183-.044.232-.006.02c-.08.356-.158.712-.214 1.074-.029.178-.047.36-.07.54l-.008.052c-.023.192-.042.386-.061.58-.018.145-.04.292-.05.44-.043.571-.061 1.147-.047 1.73.01.451.05.894.093 1.338l.004.025.014.207c.024.245.067.487.103.73a17.91 17.91 0 0 0 2.958 7.603 18.572 18.572 0 0 0 5.321 5.224 18.32 18.32 0 0 0 3.856 1.877c1.31.463 2.678.8 4.104.957.32.033.645.057.97.08.487.032.972.052 1.468.042.456-.01.9-.066 1.349-.11.256-.024.52-.026.773-.062a18.33 18.33 0 0 0 1.9-.376l.14-.031c.26-.068.5-.162.751-.24a17.921 17.921 0 0 0 2.278-.865l.16-.071c.205-.088.418-.172.616-.274l.024-.009a71.633 71.633 0 0 1-.827-6.09c-.013-.148-.034-.29-.05-.438"/>
  <path fill="#4d94c3" d="m141.447 20.367.341.174-.006-.046-.336-.128"/>
  <path fill="#fff" d="M241.98 206.105a19.35 19.35 0 0 1-.067-.27l-.131-.492c-.56-1.816-1.269-3.235-1.9-4.247-.807-1.306-1.476-1.951-1.476-1.951a19.434 19.434 0 0 0 .62-3.045c.486-4.14-.623-7.362-1.51-9.181a14.614 14.614 0 0 0-.397-.76c-.64.455-1.287.904-1.933 1.341-12.275 8.311-26.091 13.644-41.05 15.937-10.31 1.58-21.156 1.727-32.432.355l.197.057s-6.797.93-8.64 7.45l.115.066-.562 4.373c.199 5.922 2.906 9.628 5.987 11.578 3.202 1.221 7.07 2.153 11.364 2.686 7.473.93 16.052.684 24.808-.707l.045-.007.044-.006c11.647-1.562 28.085-7.78 39.837-15.807 2.677-1.83 5.112-3.748 7.19-5.733l.078-.075.142-.137a42.754 42.754 0 0 0-.329-1.426"/>
  <path fill="#efcfa5" d="M219.762 149.67c-6.304-3.84-7.229-5.115-6.64-15.545.212-3.756.618-8.693 1.037-15.385.056-.871.082-1.698.097-2.51.003-.195.008-.384.008-.575a45.552 45.552 0 0 0-.032-2.239l-.007-.206-.017-.222a53.745 53.745 0 0 0-.187-2.355 30.596 30.596 0 0 0-.224-1.665c-.044-.274-.098-.537-.148-.804-.056-.3-.117-.594-.18-.882a24.505 24.505 0 0 0-.194-.841l-.002-.001.002-.003a16.11 16.11 0 0 0-3.217-3.545l-.245-.183-.05-.037-.184-.139-.063-.046a9.76 9.76 0 0 0-.557-.4 16.522 16.522 0 0 0-.609-.388c-1.864-1.134-3.942-1.846-6.166-2.176a20.714 20.714 0 0 0-3.806-.194c-.606.022-1.22.075-1.837.148a28.207 28.207 0 0 0-4.924 1.04c-.562.386-1.122.781-1.69 1.175-.475.331-.959.662-1.445.991l-.234.161c-.49.329-.985.65-1.482.97l-.25.156c-.5.31-1.001.613-1.507.9l-.266.148c-.508.286-1.025.553-1.547.81l-.26.121c-.528.252-1.067.486-1.611.691l-.225.086c-.562.205-1.133.394-1.713.547l-.152.035a16.18 16.18 0 0 1-1.856.37 24.49 24.49 0 0 1-3.178.194 34.358 34.358 0 0 1-5.212-.392 56.748 56.748 0 0 1-1.752-.298c-.208-.038-.415-.07-.62-.11-1.521-.296-3.05-.649-4.59-1.02-.648-.154-1.294-.31-1.944-.468-1.044-.255-2.097-.5-3.152-.74-.21-.049-.411-.101-.622-.147-.885.048-1.773.135-2.665.247l-.194.024c-2.587.339-5.189.955-7.76 1.844-.143.05-.285.092-.426.143-.402.143-.8.3-1.2.457-.535.212-1.07.433-1.6.668-3.724 1.644-7.341 3.88-10.703 6.723a46.737 46.737 0 0 0-3.83 3.638 45.57 45.57 0 0 0-4.866 6.176c-.08.12-.157.24-.232.362a42.588 42.588 0 0 0-2.077 3.583c-.226.434-.454.87-.662 1.307l-.042.086a42.713 42.713 0 0 0-1.766 4.354c-.029.088-.054.176-.08.263-.071.213-.126.428-.193.64a40.76 40.76 0 0 0-1.094 4.191c-.029.153-.063.308-.09.462-.081.436-.16.872-.229 1.308a37.336 37.336 0 0 0-.41 4.795c-.012.4-.027.803-.022 1.199a30.308 30.308 0 0 0 3.007 7.127c4.72 8.156 12.483 13.033 18.107 15.651a68.711 68.711 0 0 0 6.843 2.584l.06.103h.002l.01-.004.154-.118c.302-.23.605-.461.917-.69.11-.085.223-.165.335-.247a52.049 52.049 0 0 1 1.322-.939c.336-.234.68-.471 1.032-.703.117-.079.234-.154.353-.232.355-.235.716-.469 1.086-.702.123-.076.243-.153.365-.228.375-.23.752-.461 1.134-.693l.396-.237c.383-.222.771-.45 1.17-.675.144-.078.286-.16.43-.24.39-.222.79-.439 1.197-.655.16-.086.32-.173.485-.257.4-.213.805-.423 1.216-.63.176-.088.351-.178.53-.267.408-.204.823-.406 1.238-.607.198-.095.399-.187.597-.282a85.35 85.35 0 0 1 1.245-.575c.218-.102.446-.199.671-.3.408-.181.822-.362 1.245-.54.246-.109.5-.214.75-.318.408-.17.822-.339 1.24-.51.28-.11.563-.22.845-.333.406-.157.812-.316 1.227-.472.31-.119.626-.236.938-.35.402-.147.8-.294 1.209-.439.346-.121.698-.242 1.048-.363.393-.136.787-.274 1.186-.403.384-.13.772-.252 1.16-.377a97.97 97.97 0 0 1 1.154-.369c.426-.133.859-.262 1.296-.393.364-.107.73-.22 1.102-.326.47-.138.952-.27 1.43-.404.24-.065.472-.138.713-.2 1.866-4.699 7.407-16.352 16.898-17.627 1.02-.147 1.942-.201 2.814-.21.218-.002.452-.018.66-.014-.11-.676-.197-1.38-.241-2.112-.297-5.02 1.246-9.195 3.446-9.327 1.705-.138 3.06 2.35 3.292 3.221.647 1.527 1.102 3.477 1.233 5.64.116 1.977-.066 3.8-.443 5.322.192.197.35.416.522.626 2.173 2.698 2.54 6.44 2.452 9.091.845-.085 1.712-.16 2.58-.234l.662-.061.137-.013c.126-.012.251-.02.376-.03 1.073-.089 2.159-.172 3.26-.25l.05-.003c2.494-.173 5.056-.32 7.699-.434-1.374-1.009-2.248-1.469-2.248-1.469M243.644 219.96a70.426 70.426 0 0 1-12.813 9.05 76.07 76.07 0 0 1-6.4 3.131 81.154 81.154 0 0 1-13.133 4.423c-8.735 2.128-14.895 2.133-14.895 2.133 4.777 2.642 10.823 2.667 14.97 2.248 2.855-.285 4.817-.775 4.817-.775a31.758 31.758 0 0 1-.62 4.872 25.85 25.85 0 0 1-1.391 4.566l-.045.118-.005.008a22.462 22.462 0 0 1-2.522 4.54c-.104.142-.204.295-.31.433l.315-.174a85.49 85.49 0 0 0 4.505-2.653l.033-.021a82.842 82.842 0 0 0 8.754-6.346l.005-.002.007-.006c.102-.09.207-.179.314-.269a73.756 73.756 0 0 0 4.93-4.722 74.25 74.25 0 0 0 5.472-6.468l.12-.157c.401-.536.794-1.07 1.175-1.6l.108-.154c.124-.182.234-.354.357-.534a85.652 85.652 0 0 0 1.545-2.284l.356-.55c.255-.401.5-.803.746-1.2.184-.31.374-.621.553-.93.2-.335.4-.672.595-1.005.344-.607.68-1.208 1.001-1.807.127-.237.247-.468.37-.702.246-.465.487-.926.714-1.381.106-.212.213-.425.316-.636l.094-.2c.285-.574.557-1.145.82-1.705-.287.261-.573.509-.858.76M139.565 173.978a60.924 60.924 0 0 0-3.844 1.44c-3.65 1.513-7.794 3.663-11.465 6.634-.46.371-.912.755-1.355 1.15-.753.679-1.471 1.402-2.162 2.159-.079.085-.163.167-.238.254-.105.117-.208.238-.311.355-.26.305-.518.617-.77.934l-.3.383c-.33.436-.652.877-.956 1.336-.3.45-.587.915-.859 1.386-2.176 3.799-3.41 8.346-3.031 13.769l.011-.056.007-.04.04-.202.012-.045c.016-.082.04-.179.065-.286l.015-.068c.03-.123.065-.264.105-.419l.027-.1.148-.535.002-.001c.054-.19.122-.394.188-.606l.043-.129c.07-.214.149-.44.234-.67l.045-.112c.078-.219.166-.444.262-.675l.045-.108a27.3 27.3 0 0 1 .334-.77l.077-.164c.126-.268.255-.54.4-.815l.019-.033c.214-.41.456-.83.714-1.251.097-.16.191-.319.298-.478l.083-.134.002-.003a18.676 18.676 0 0 1 1.343-1.782c.07-.082.145-.165.22-.247.178-.2.363-.4.554-.596.08-.078.157-.16.236-.237.262-.257.532-.508.817-.751l.024-.023s-4.939 11.174-2.791 20.035c0 0-.002-.028-.002-.074v-.055c-.002-.05-.002-.106-.002-.182l-.001-.048c0-.09 0-.196.006-.322 0-.016 0-.03.002-.049 0-.131.009-.277.016-.44l.002-.047a23.946 23.946 0 0 1 .095-1.229l.007-.054c.022-.223.054-.454.087-.697.002-.022.007-.043.009-.065.038-.257.08-.524.131-.8l.012-.064.026-.138v-.006c.06-.31.132-.626.215-.947.006-.02.01-.042.014-.064.085-.312.175-.629.276-.947l.093-.293.069-.203v-.003c.093-.261.196-.523.307-.783l.017-.042v-.002a11.855 11.855 0 0 1 .685-1.343c.204-.346.419-.685.663-1.006l.01-.016v.002-.002h.001s-.283 2.752-.21 6.026c.014.515.038 1.045.071 1.578.02.355.043.712.077 1.069a43.2 43.2 0 0 1 1.797-9.907c.261-.849.546-1.677.849-2.493.042-.118.083-.235.128-.353a49.04 49.04 0 0 1 2.138-4.824l.17-.322a52.081 52.081 0 0 1 2.416-4.164l.185-.289c.322-.492.652-.966.982-1.436.085-.125.169-.257.256-.38.08-.11.156-.22.236-.33a61 61 0 0 1 1.267-1.691l.203-.257a58.19 58.19 0 0 1 1.33-1.632l.023-.029a62.287 62.287 0 0 1 1.67-1.894c.407-.44.809-.864 1.207-1.273.15-.153.305-.305.46-.46a61.624 61.624 0 0 1 2.727-2.59c2.568-2.299 4.568-3.719 5.266-4.19a58.998 58.998 0 0 0-4.274 1.263"/>
  <path fill="#efcfa5" d="M205.258 149.234s-.028-.286-.13-.716c-.401-1.634-2.016-5.488-8.373-4.877-6.647.64-8.88 6.004-9.452 7.832-.118.379-.17.617-.17.617l.181.154c.843-.715 2.451-.631 3.91.295a5.128 5.128 0 0 1 1.56 1.52v.003c.562.865.718 1.798.32 2.49-.084.15-.19.275-.312.385 0 0 .256.099.687.224 1.847.545 6.969 1.62 9.74-1.96.134-.172.27-.332.392-.524-.545-.279-.85-1.079-.851-2.028a4.795 4.795 0 0 1 .205-1.432c.455-1.504 1.483-2.392 2.293-1.983M172.306 198.06a257.814 257.814 0 0 1-10.982 2.018l.488.061c4.88.607 12.65 1.34 22.046.766 17.096-1.04 39.597-6.42 60.029-24.844l.056-.072v-.032c.068-1.544-.138-4.33-2.088-6.499a7.8 7.8 0 0 0-1.19-1.07c-.076-.044-.147-.094-.226-.139a17.81 17.81 0 0 1-1.44-.904 15.662 15.662 0 0 1-1.005-.678l-.045-.065a38.346 38.346 0 0 1-4.342 5.16 48.327 48.327 0 0 1-1.808 1.692c-5.638 5.078-12.921 9.307-20.784 12.79-13.066 5.787-27.67 9.542-38.71 11.815M64.094 168.284c-.185.164-.374.325-.548.508l-.19.21a9.155 9.155 0 0 0-.588.722l-.098.124c-.23.32-.443.655-.647.996v.001l-.026.045v.002l-.083.152c-.047.083-.091.169-.136.253-.118.214-.239.421-.344.637l-.005.008-.004.007-.005.018-.041.082-.038.08c-.165.342-.314.681-.455 1.016a27.438 27.438 0 0 0-1.15 3.326c-.134.483-.228.861-.27 1.046l-.002.016-.03.125v-.002.002l.012-.145c.016-.288.049-.573.072-.859.044-.6.082-1.203.148-1.8.053-.501.13-.992.2-1.491.024-.156.048-.312.07-.466.031-.23.063-.46.101-.687.033-.214.08-.424.12-.633l.002-.016.045-.235.013-.064a91.616 91.616 0 0 1 .201-1.07l.036-.177.007-.033.053-.25c.02-.106.05-.207.071-.307.085-.375.176-.744.264-1.115l.015-.062c.065-.276.125-.553.196-.825l.002-.013.007-.018.022-.08c.145-.56.306-1.106.467-1.658l.084-.303c.031-.102.057-.21.09-.312.265-.894.55-1.776.852-2.64l.039-.108c.26-.733.522-1.454.797-2.166l.03-.08c.125-.314.253-.614.375-.923l.02-.046c.188-.461.373-.925.565-1.371v-.007l.004-.006.022-.056c.051-.112.17-.384.355-.783l.003-.007.026-.054c.071-.158.14-.311.21-.471.113-.255.227-.506.339-.756l.101-.22c-.16-.086-.327-.164-.492-.246l-.093-.047-.175-.087a18.479 18.479 0 0 0-3.355-1.223l-.185-.046a18.477 18.477 0 0 0-4.798-.543c-.58.012-1.152.061-1.713.123-.18.022-.353.054-.527.076-.278.043-.553.096-.83.147-.107.022-.22.036-.327.06a17.685 17.685 0 0 0-1.687.443c-.17.054-.34.097-.505.155-.495.174-.98.363-1.456.575-.19.084-.365.181-.55.269-.217.106-.432.22-.645.33l-.22.113a19.646 19.646 0 0 0-1.321.814c-.252.166-.497.333-.736.51-.147.112-.287.227-.435.342a18.886 18.886 0 0 0-1.666 1.507 17.99 17.99 0 0 0-.918.972l-.148.17c-.153.182-.295.375-.438.566l-.023.027-.018.025c-.097.128-.202.251-.297.383l-.038.05-.037.051-.003.005-.002.003c-.586.823-1.1 1.694-1.545 2.604-.065.13-.123.26-.182.392-.208.444-.395.898-.569 1.362-.067.184-.142.362-.205.548l-.003.002c.036.12.076.234.112.351.127.412.256.812.392 1.2l.047.134.051.135a31.929 31.929 0 0 0 1.871 4.223c.073.132.145.271.216.398l.051.095.068.113c.363.645.718 1.215 1.048 1.713a23.99 23.99 0 0 0 1.313 1.802l.19.23c.048.059.093.111.135.157.125.144.202.226.202.227-.048-.203-.072-.403-.114-.608a24.892 24.892 0 0 1-.489-4.308v-.083l-.004-.163a26.768 26.768 0 0 1 .07-2.668 37.294 37.294 0 0 0 .763 2.38l.056.16.023.06a31.005 31.005 0 0 0 2.279 4.842c.906 1.56 1.736 2.666 2.232 3.273.1.122.185.225.257.306.14.163.218.247.218.247-.359-1.55-.54-3.08-.597-4.58a25.672 25.672 0 0 1-.03-1.506c.009-.634.042-1.259.094-1.874v.002-.002c.276 1.053.593 2.027.932 2.944l.024.071c1.218 3.3 2.722 5.728 3.76 7.166l.118.16c.183.243.34.449.483.634.099.123.192.243.271.332.1.122.176.212.237.28l.124.141-.043-.215a36.22 36.22 0 0 1-.133-.647 24.428 24.428 0 0 1-.32-2.303 25.574 25.574 0 0 1-.115-1.517 26.665 26.665 0 0 1-.01-1.416c.003-.085.007-.17.008-.254.008-.243.013-.486.026-.727l.01-.148.008-.108c.038-.617.092-1.23.168-1.829v.002-.002c.118.399.242.787.37 1.16.096.286.196.556.297.829l.021.056.034.095.06.166a31.064 31.064 0 0 0 1.122 2.589c.305.63.616 1.213.916 1.746.175.3.341.584.507.854a26.48 26.48 0 0 0 1.107 1.663l.119.162a21.485 21.485 0 0 0 .671.868c.205.25.35.413.415.483l.037.04.13.09c.013-.11.03-.218.043-.328.115-.96.249-1.929.391-2.891.016-.116.035-.232.052-.346.166-1.084.342-2.162.525-3.202l.07-.401.014-.068.064-.362a152.043 152.043 0 0 1 .55-2.912c.135-.683.267-1.33.393-1.938l.04-.197c.019-.095.04-.182.058-.274a14.3 14.3 0 0 0 .056-.274l.007-.032.099-.452.009-.04c.028-.142.056-.263.084-.397.047-.209.091-.423.135-.619l.012-.054c.036-.16.069-.32.102-.465.048-.21.092-.4.13-.582l.002-.006.003-.005.066-.29.005-.017c.02-.087.038-.179.058-.255l.116-.499.029-.119.011-.043.033-.14.023-.098.005-.013-.016.012-.21.191M202.453 216.044c1.612-.557 3.016-1.008 4.105-1.483 2.183-.93 3.355-1.556 3.282-1.788-.074-.236-1.391-.058-3.71.466-1.161.272-2.568.508-4.185.87-.804.194-1.692.305-2.613.483-.927.16-1.902.364-2.931.475-2.031.287-4.355.55-6.822.836-1.216.1-2.47.204-3.76.308l-4.015.198c-5.488.161-11.545-.088-17.709-1.221-3.25-.572-7.594-2.049-10.72-3.823l-.114-.066c1.843-6.52 8.64-7.45 8.64-7.45l-.197-.057-.342-.04c-.989-.121-1.858-.24-2.603-.34-.532-.071-1-.135-1.393-.184-.379-.047-.65-.076-.807-.086-4.094-.28-6.338 3.186-7.113 4.689-.11.217-.212.44-.315.667a13.521 13.521 0 0 0-1.089 4.542c-.202 3.064.587 6.429 2.935 9.293 1.565 1.932 4.29 3.635 7.824 4.983-3.081-1.95-5.788-5.656-5.987-11.578 3.49 1.5 7.557 2.418 10.612 2.961 6.543 1.206 12.857 1.35 18.533 1.002 1.418-.119 2.798-.223 4.138-.358l3.907-.505c2.456-.415 4.722-.816 6.85-1.285 1.06-.198 2.045-.49 2.976-.743.932-.27 1.815-.474 2.623-.766"/>
  <path fill="#59473d" d="M197.025 139.733c3.418.08 5.74 1.164 7.287 2.743.377-1.522.562-3.346.441-5.322-.131-2.162-.583-4.112-1.23-5.641-.23-.869-1.588-3.359-3.293-3.222-2.201.134-3.74 4.309-3.444 9.329.043.733.127 1.436.24 2.113M202.798 152.678c.003.95.308 1.75.852 2.028.818.408 1.837-.484 2.29-1.989.043-.131.067-.263.097-.392v-.003c.29-1.366-.006-2.688-.742-3.058-.81-.411-1.837.48-2.29 1.98-.147.49-.209.978-.207 1.435M187.278 155.1c.361.591.908 1.16 1.606 1.606 1.476.936 3.115 1.015 3.947.261.123-.11.23-.238.312-.385.399-.693.242-1.626-.317-2.493l-.002-.002a5.151 5.151 0 0 0-1.56-1.52c-1.459-.925-3.067-1.01-3.91-.293a1.573 1.573 0 0 0-.354.412c-.38.672-.24 1.568.278 2.414M243.943 175.994v-.03l-.096.139.042-.036.054-.073"/>
  <path fill="#59473d" d="m242.17 207.674-.078.075c-2.079 1.984-4.516 3.904-7.191 5.733-11.751 8.027-28.19 14.246-39.838 15.806l-.045.007-.044.007c-8.757 1.392-17.335 1.636-24.809.707-4.295-.534-8.16-1.465-11.364-2.687-3.531-1.348-6.256-3.05-7.824-4.982-2.348-2.864-3.137-6.228-2.934-9.293a13.543 13.543 0 0 1 1.09-4.542c.101-.228.205-.451.315-.667.776-1.503 3.017-4.97 7.113-4.69.155.013.428.039.805.087.394.048.862.112 1.395.184.743.1 1.615.218 2.603.34.115.015.227.026.34.039 11.277 1.372 22.122 1.226 32.432-.354 14.959-2.293 28.777-7.627 41.05-15.937a95.712 95.712 0 0 0 1.933-1.341l6.728-10.063c-20.419 18.395-42.901 23.767-59.989 24.808-9.397.575-17.167-.158-22.044-.764a93.148 93.148 0 0 1-.49-.063c-1.463-.186-2.656-.355-3.508-.463-.426-.053-.77-.09-1.028-.107a9.861 9.861 0 0 0-3.635.428c-2.325.727-4.312 2.297-5.804 4.378-1.844 2.566-2.93 5.902-2.98 9.39-.036 2.872.632 5.84 2.173 8.56.06.11.119.221.184.332.178.298.37.591.57.88.27.395.554.786.867 1.166 3.58 4.412 11.279 7.696 21.551 8.973 6.95.864 15.085.795 23.908-.45 26-4.699 38.36-13.1 44.068-19.001.417-.43.8-.85 1.15-1.252 2.046-2.36 2.967-4.175 3.303-4.96l.046-.106c.086-.204.12-.31.121-.315l-.14.138"/>
  <path fill="#e1b27e" d="M159.428 117.508c-.82-.446-1.715-.765-2.618-.989a15.544 15.544 0 0 0-2.457-.392c-3.044-.266-5.675.249-5.675.249-.564.129-1.105.275-1.628.435-4.134 1.253-7.012 3.406-9.024 5.89-1.628 2.01-2.686 4.237-3.362 6.386-.06.19-.114.378-.168.565a27.43 27.43 0 0 0-.412 1.643 27.71 27.71 0 0 0-.57 4.793c-.052 1.803.088 2.966.088 2.966a52.491 52.491 0 0 1 2.248-4.374c1.926-3.354 4.014-6.057 6.124-8.228 4.111-4.229 8.299-6.46 11.545-7.633 3.506-1.267 5.909-1.31 5.909-1.31M208.812 111.62l-.139-.182a7.69 7.69 0 0 0-1.686-1.585c-1.57-1.08-3.736-1.643-6.74-1.027 0 0-3.566.842-5.65 3.175 0 0 6.214-2.655 12.792 2.022.6.425 1.201.919 1.802 1.475a22.262 22.262 0 0 1 1.833 1.913s-.261-2.865-1.894-5.335a6.807 6.807 0 0 0-.318-.455"/>
  <path fill="#59473d" d="M160.18 157.122a103.988 103.988 0 0 1 7.724-2.042c.48-2.15.599-4.814.259-7.658-.787-6.67-3.796-11.779-6.717-11.418-2.923.361-4.649 6.06-3.86 12.726.398 3.358 1.36 6.324 2.593 8.392"/>
  <path fill="#face56" d="m146.624 7.872-6.127 1.385 1.285 11.238-16.333-8.313-6.724 2.005.105.118 19.841 22.614.19-.12.256-.16c.617-.393 1.236-.786 1.86-1.173.217-.136.434-.276.652-.411.9-.551 1.8-1.094 2.705-1.633l-8.428-9.654 13.637 6.668.052-.029c.41-.225.818-.45 1.228-.673l-1.257-9.738 6.188 7.158.075-.037c.524-.264 1.037-.514 1.552-.768l.16-.078.25-.126c.089-.042.179-.086.266-.13.219-.107.444-.221.66-.326.044-.023.086-.041.131-.063.734-.354 1.454-.692 2.175-1.03L146.624 7.872"/>
  <path fill="#4d94c3" d="m140.537 9.613-.04-.356.04.357"/>
  <path fill="#4d94c3" d="m140.497 9.257.905-.203c-1.5-.697-3.282-1.193-5.345-1.45-4.132-.52-9.378-.043-15.354 1.502-5.977 1.535-12.679 4.115-19.785 7.654-14.215 7.074-30.04 17.975-45.267 31.867a235.388 235.388 0 0 0-14.824 14.76l18.496 22.656a243.332 243.332 0 0 1 16.317-16.35c7.852-7.16 15.859-13.547 23.775-19.098 7.671-5.374 15.247-9.936 22.541-13.627l-3.212-14.466.086-8.197-.105-.118 6.724-2.005L138.58 18.9l-.373-4.574 2.29-5.07"/>
  <path fill="#141c26" d="m140.497 9.257-2.29 5.069.373 4.574 3.202 1.595-1.285-11.238M135.906 23.768l13.637 6.668-5.21 2.986-8.427-9.654M149.566 19.996l1.257 9.738 4.931-2.58-6.188-7.158"/>
  <path fill="#fff" d="M201.161 16.397c.84-.033 1.664-.042 2.473-.025 2.295.046 4.45.317 6.493.827.11.029.224.045.332.075l.025.006.08.018.201.058.185.056c-.241-.16-.486-.31-.735-.458-2.293-.878-4.719-1.451-7.214-1.772-12.378-1.593-26.47 2.914-34.529 6.114-.442.185-.887.368-1.338.56-.677.29-1.36.584-2.052.888a188.653 188.653 0 0 0-3.538 1.607c-.174.08-.348.163-.521.245-.72.338-1.441.676-2.175 1.03-.045.022-.087.04-.131.063-.216.105-.441.219-.66.325-.087.045-.177.09-.265.131l-.25.126-.161.078c-.515.254-1.028.504-1.552.768l-.075.037-.047.025c-.13.061-.252.122-.38.186l-.066.032c-.096.049-.19.1-.283.148a214.022 214.022 0 0 0-4.065 2.14l-.09.049c-.41.222-.817.448-1.228.673l-.052.029c-1.333.737-2.657 1.49-3.98 2.263-.138.08-.276.156-.415.238l-.352.207c-.11.064-.217.131-.323.195l-.14.083c-.903.54-1.804 1.082-2.704 1.633-.218.135-.435.275-.653.411-.623.387-1.242.78-1.86 1.174l-.255.16-.19.12a239.409 239.409 0 0 0-13.424 9.295c-.354.263-.706.532-1.061.799-7.16 5.39-14.075 11.173-20.7 17.18-6.995 6.344-13.66 12.937-19.956 19.56a351.674 351.674 0 0 0-8.73 9.054c-4.796 5.165-7.412 8.358-7.305 8.43.044.047.466-.344 1.215-1.093-.62.719-1.24 1.437-1.848 2.153C77.317 91.15 88.913 79.735 101.364 68.98c7.564-6.527 15.434-12.81 23.565-18.64a265.993 265.993 0 0 1 14.355-9.621c.588-.365 1.182-.72 1.772-1.081.332-.205.667-.411 1.004-.613.631-.382 1.265-.756 1.897-1.132.621-.365 1.24-.73 1.862-1.091.327-.186.652-.376.977-.56.79-.453 1.584-.895 2.38-1.335.472-.263.95-.528 1.424-.786l.005-.002c1.5-.817 3.009-1.606 4.52-2.382.125-.065.251-.127.38-.191l.708-.361c.314-.159.625-.322.94-.478.12-.059.235-.122.354-.18l.05-.024c.215-.106.425-.206.636-.31l.134-.063.074-.039c.662-.323 1.32-.641 1.968-.954.119-.055.239-.118.36-.174.21-.103.419-.196.63-.297.759-.357 1.515-.713 2.26-1.057.205-.092.414-.195.617-.286.107-.05.212-.096.32-.144l.635-.286c.876-.396 1.747-.786 2.601-1.157.78-.34 1.539-.652 2.302-.973 4.306-1.81 8.354-3.333 12.116-4.543 7.231-2.318 13.474-3.59 18.952-3.824"/>
</svg>
