<svg xmlns="http://www.w3.org/2000/svg" viewBox="0 0 255.524 342.558">
  <path fill="#151614" d="M125.822 339.914c-34.877-8.796-66.623-31.141-89.39-62.915C14.285 246.093 2.09 208.56 2.09 171.314c0-46.773 12.914-85.741 38.382-115.824C61.411 30.768 90.854 12.54 125.617 2.773l2.144-.602 2.145.602c34.762 9.766 64.203 27.994 85.141 52.717 25.472 30.083 38.387 69.051 38.387 115.824 0 37.249-12.197 74.784-34.344 105.685-22.762 31.774-54.507 54.117-89.388 62.915l-1.941.49-1.939-.49"/>
  <path fill="#8f202f" d="M160.113 260.345a152.695 152.695 0 0 0-5.558-1.754l-.01.013-2.85-.811a87.92 87.92 0 0 0-9.205-1.923l-.194-.028-.653-.096c-3.592-.518-7.62-.897-12.063-1.004l-.098-.002-.096-.003-.427-.027h-2.512l-.427.027-.094.003-.097.002c-4.443.107-8.47.486-12.067 1.004l-.65.096-.197.028a88.092 88.092 0 0 0-9.205 1.923l-2.849.81-.009-.012c-2.064.606-3.93 1.208-5.559 1.754-1.03.347-1.97.673-2.807.963l-.084.032h70.607l-.084-.032c-.838-.29-1.777-.616-2.812-.963M151.153 229.124l-.059.006-.073.01a26.114 26.114 0 0 0-5.048 1.065c-.015.004-.024.01-.038.015a.056.056 0 0 0-.023.009c-.12.037-.239.074-.357.115-.082.032-.17.064-.257.096-.39.14-.778.297-1.17.47 0 0-.002.003-.006.003h-.003a16.366 16.366 0 0 0-1.465.745c-1.146.67-2.179 1.52-2.983 2.572-.022.023-.038.053-.06.078a10.42 10.42 0 0 0-.315.46c-.046.067-.098.13-.14.198-.016.028-.036.05-.055.08l-.102.164-.044.08-.052.124-.01.019c-.02.064-.047.132-.08.2a7.121 7.121 0 0 0-.392.924 8.385 8.385 0 0 0-.36 2.492c-.32-1.17-.555-2.349-.652-3.509-.016-.159-.008-.315-.01-.473l-.006-.084v-.036a16.67 16.67 0 0 1-.034-.639v-.329c0-.137-.001-.27.003-.403.003-.133.009-.27.019-.4.02-.304.069-.6.11-.895.077-.503.176-1 .316-1.484.073-.254.171-.507.26-.756.002-.006.007-.013.007-.017a10.65 10.65 0 0 1 .84-1.77c.163-.275.314-.553.51-.812.107-.148.216-.306.339-.45.23-.28.477-.554.746-.818.014-.019.033-.034.052-.051.253-.252.523-.495.816-.733l.006-.006.007-.008c.003 0 .004-.006.004-.006h.006l.012-.012v-.004l.029-.018c.347-.15.705-.266 1.06-.37a9.841 9.841 0 0 1 1.73-.337 8.064 8.064 0 0 1 2.85.208c.14.035.273.086.408.133a6.106 6.106 0 0 1 1.743.9 4.725 4.725 0 0 1 1.657 2.202c.006.02.016.035.022.052.11.302.2.612.254.925l.006.075h-.02zm-15.208-4.539.004-.006h.002zm-2.204.837h-.01l.086-.027zm-6.036 6.206v-.006c.033-.03.063-.057.093-.088a.974.974 0 0 0-.093.094zm-.004-.004c-.03-.03-.061-.057-.088-.09.028.031.061.057.088.088v.002zm-9.651 2.686c-.01.214-.021.422-.036.639v.018l-.002.018-.004.084c0 .158.004.314-.009.473-.098 1.16-.333 2.34-.647 3.509-.007-.906-.126-1.737-.366-2.492a7.11 7.11 0 0 0-.39-.925 1.749 1.749 0 0 1-.082-.2l-.009-.018-.05-.125-.048-.079-.1-.165c-.02-.03-.04-.051-.053-.08-.042-.067-.096-.13-.137-.198a6.602 6.602 0 0 0-.324-.459l-.051-.078c-.81-1.052-1.842-1.902-2.989-2.573a16.205 16.205 0 0 0-1.446-.735c-.006-.001-.011-.005-.018-.01h-.008a15.97 15.97 0 0 0-1.171-.473l-.257-.096-.354-.115c-.007-.004-.017-.007-.023-.009-.017-.004-.026-.01-.04-.014a26.058 26.058 0 0 0-5.051-1.066l-.071-.01-.056-.005h-.02l.004-.074a5.27 5.27 0 0 1 .255-.926c.003-.017.013-.032.022-.051a4.68 4.68 0 0 1 1.657-2.202 6.086 6.086 0 0 1 1.741-.9c.137-.048.272-.099.408-.133.892-.238 1.864-.304 2.851-.208a9.851 9.851 0 0 1 1.73.336c.356.105.714.22 1.063.37l.023.018.003.004.015.012c.002 0 .002.006.005.006l.009.008a10.547 10.547 0 0 1 .821.738c.019.019.04.033.054.052.269.265.518.538.745.818.125.145.231.302.339.45.197.26.346.538.512.811.34.57.608 1.166.837 1.772.002.004.002.01.007.016.09.249.188.502.262.757.138.484.24.98.315 1.484.047.295.092.59.11.894.013.13.014.267.02.4.003.134 0 .267 0 .404v.047l.003.222v.06zm45.38-13.268c-.764-.973-1.503-1.78-2.214-2.435a12.787 12.787 0 0 0-1.942-1.518 8.586 8.586 0 0 0-2.177-.985 7.41 7.41 0 0 0-2.091-.29c-.818 0-1.668.125-2.575.36-.135.035-.28.087-.415.132-.132.042-.256.075-.385.119-.465.15-.942.338-1.43.54a23.32 23.32 0 0 0-1.55.702l-.036.015a36.63 36.63 0 0 0-1.005.514l-.015.008c-.11.056-.221.112-.334.171-.156.086-.318.178-.475.266a.576.576 0 0 0-.065.036c-.086.045-.169.092-.256.14a.849.849 0 0 1-.077.044c-1.067.6-2.166 1.255-3.294 1.924-.49.288-.988.58-1.49.871-.073.04-.143.082-.22.124a.014.014 0 0 1-.004.004c-.133.079-.27.154-.403.233a.859.859 0 0 1-.073.041 2.16 2.16 0 0 0-.1.056c-.146.083-.293.167-.44.246-.039.025-.078.045-.115.068a.04.04 0 0 1-.016.007c-.003.002-.01.002-.011.006a33.148 33.148 0 0 1-.825.452c-.027.017-.057.03-.086.047a.23.23 0 0 1-.048.024c-.033.016-.057.033-.088.047-.005.004-.011.004-.014.01l-.363.19c-.164.088-.326.176-.494.26-.107.056-.226.109-.334.164-.528.264-1.065.516-1.605.757l-.136.064c-.056.021-.106.049-.162.069-.022.01-.042.023-.065.03-.014.007-.03.014-.05.02-.019.013-.039.017-.054.028l-.448.18c-.238.097-.474.195-.707.28a29.84 29.84 0 0 1-.92.322 5.747 5.747 0 0 1-.223.079c-.038.008-.074.026-.11.037-.084.028-.165.057-.247.083-.093.028-.19.053-.282.077l-.022.004c-.126.037-.254.07-.379.107-.124.035-.246.069-.372.1a.287.287 0 0 1-.053.016c-.01 0-.019.006-.024.006-.301.077-.608.137-.92.202-.156.033-.32.072-.478.098-.082.014-.162.03-.246.043-.213.034-.43.057-.645.085-.203.023-.403.056-.604.078-.29.029-.592.033-.89.045-.188.01-.379.031-.57.031v.004h-.109v-.004c-.192 0-.378-.02-.571-.031-.298-.012-.594-.016-.89-.045-.201-.022-.403-.055-.602-.078-.218-.028-.435-.05-.648-.085-.08-.013-.164-.029-.245-.043-.16-.026-.319-.065-.478-.098-.308-.065-.614-.125-.919-.202-.009 0-.017-.006-.023-.006a.24.24 0 0 1-.054-.017c-.125-.03-.249-.064-.374-.099-.125-.037-.253-.07-.377-.107-.006-.002-.015-.002-.018-.004-.092-.024-.19-.049-.282-.077-.084-.026-.167-.055-.25-.083-.035-.01-.075-.029-.11-.037a5.91 5.91 0 0 1-.228-.08 8.499 8.499 0 0 1-.256-.087c-.219-.074-.44-.152-.657-.233-.235-.086-.474-.184-.711-.281l-.448-.18c-.017-.01-.034-.015-.052-.027a.754.754 0 0 1-.052-.02c-.022-.008-.043-.021-.064-.031-.055-.02-.11-.047-.16-.07l-.139-.063c-.54-.24-1.076-.493-1.603-.757-.11-.055-.228-.108-.338-.165-.163-.083-.325-.171-.492-.259-.118-.064-.24-.126-.358-.19-.007-.006-.015-.006-.02-.01l-.087-.047c-.014-.006-.033-.014-.046-.024-.03-.017-.06-.03-.089-.047-.004-.002-.015-.006-.025-.013a31.112 31.112 0 0 1-.795-.439c-.005-.004-.007-.004-.014-.006-.003-.002-.009-.003-.012-.007-.04-.023-.078-.043-.12-.068-.147-.08-.292-.163-.436-.246a2.26 2.26 0 0 1-.103-.056l-.074-.04c-.135-.08-.268-.155-.4-.234 0 0-.005-.002-.005-.004l-.22-.124a190.66 190.66 0 0 1-1.49-.871c-1.13-.67-2.228-1.324-3.296-1.924-.022-.015-.05-.03-.079-.045l-.251-.139c-.023-.014-.044-.025-.066-.036-.161-.088-.319-.18-.476-.266-.114-.06-.224-.115-.335-.171l-.01-.008a43.958 43.958 0 0 0-1.04-.529 25.48 25.48 0 0 0-2.985-1.242c-.127-.044-.255-.077-.385-.12-.138-.044-.276-.096-.415-.13-.907-.236-1.758-.36-2.575-.36a7.4 7.4 0 0 0-2.09.289c-.695.2-1.413.51-2.176.985a12.8 12.8 0 0 0-1.945 1.518c-.71.656-1.45 1.462-2.212 2.435-.08.1-.153.194-.233.297-4.371 7.193 1.12 18.924 1.12 18.924.115.265.216.542.34.806 2.07 4.513 5.015 7.955 8.1 10.508.257.214.51.413.77.606l.088-.024a93.197 93.197 0 0 1 9.989-2.08l.11-.018c2.257-.343 4.685-.629 7.26-.833a105.02 105.02 0 0 1 6.164-.325c.215-.013.42-.03.638-.036h2.762c.215.006.424.023.634.036 2.147.051 4.197.162 6.166.325 2.574.204 5.002.49 7.26.833l.111.018a92.91 92.91 0 0 1 9.988 2.08l.087.024c.26-.193.514-.392.769-.606 3.088-2.553 6.03-5.995 8.105-10.508.12-.264.22-.54.338-.806 0 0 5.489-11.731 1.119-18.924-.076-.103-.156-.197-.232-.297z"/>
  <path fill="#8f202f" d="M190.517 155.724c-.031-1.17-.068-2.355-.13-3.551v-.016a92.875 92.875 0 0 0-.406-5.083l-.003-.008c-1.363-4.309-3.896-8.203-7.286-11.402a30.654 30.654 0 0 0-6.149-4.488c-4.383-2.452-9.52-3.988-15.082-4.247-.147-.005-.296 0-.445-.005-.644-.018-1.286-.032-1.918-.018-2.21.046-4.363.3-6.445.737a34.59 34.59 0 0 0-2.633.652c-4.764 1.382-9.36 3.756-13.2 6.853l-.06.041a33.843 33.843 0 0 0-2.738 2.478l-.013.015c-.242.24-.476.487-.706.74l-.143.148c-.19.213-.374.426-.56.638l-.01.01-.24.273c-.156.189-.307.378-.453.563-.107.135-.213.26-.308.385-.127.166-.252.335-.376.502-.116.157-.231.317-.345.474-.103.148-.197.291-.298.44-.124.184-.257.37-.38.558-.077.13-.157.26-.231.39-.134.208-.261.421-.387.633-.069.118-.132.24-.2.366-.12.22-.251.447-.368.675-.062.121-.113.242-.174.356-.113.239-.232.473-.342.713-.053.118-.098.241-.154.36-.054.13-.108.27-.168.402-.044.108-.092.214-.135.322-.052.128-.094.254-.14.383-.065.17-.129.343-.185.518l-.001-.002v.001l-.001.001v.001l-.002.003v-.013c-.064-.17-.121-.343-.186-.51-.047-.129-.088-.254-.139-.383a11.822 11.822 0 0 0-.137-.321c-.057-.133-.112-.272-.165-.403-.053-.118-.102-.241-.156-.36-.106-.24-.226-.474-.34-.712-.063-.115-.115-.235-.173-.356-.12-.228-.25-.455-.37-.675-.068-.125-.13-.248-.202-.366-.124-.212-.251-.425-.385-.633-.075-.13-.157-.26-.232-.39-.122-.189-.254-.374-.38-.559-.096-.148-.196-.291-.298-.44-.109-.156-.229-.316-.345-.473a56.698 56.698 0 0 0-.372-.503c-.101-.125-.208-.25-.311-.384-.147-.185-.298-.374-.455-.563l-.241-.274-.008-.01c-.185-.211-.366-.424-.561-.638l-.143-.147c-.228-.253-.46-.5-.705-.74l-.009-.015a34.596 34.596 0 0 0-2.74-2.478l-.06-.042c-3.843-3.097-8.436-5.47-13.202-6.852a34.81 34.81 0 0 0-2.632-.652 34.847 34.847 0 0 0-6.443-.738c-.631-.013-1.277 0-1.92.02-.15.004-.293 0-.448.004-5.56.26-10.691 1.795-15.08 4.247a30.706 30.706 0 0 0-6.148 4.487c-3.39 3.2-5.924 7.094-7.288 11.402l-.002.008a89.012 89.012 0 0 0-.404 5.084v.015c-.064 1.197-.1 2.382-.128 3.552-.027 1.095-.04 2.176-.038 3.24l.002.268v.301c0 .13 0 .261.003.39v.156c.014 1.272.04 2.54.091 3.78l.002.074v.07l.004.003v.114l.012.22v.021l.003-.006.004-.006.022-.051c.026-.046.047-.087.093-.165l.02-.038.001-.007.032-.049.056-.105.002-.004.005-.015a38.182 38.182 0 0 1 2.51-3.835l.006-.01c.28-.383.583-.776.91-1.19.295-.366.6-.741.923-1.129l.2-.225a57.46 57.46 0 0 1 1.038-1.153 37.746 37.746 0 0 1 4.421-4.08c1.978-1.545 4.229-2.98 6.785-4.098a28.365 28.365 0 0 1 4.946-1.656c7.35-1.7 13.965.56 18.765 3.257a38.162 38.162 0 0 1 4.682 3.117 34.65 34.65 0 0 1 2.769 2.392l.066.1a43.97 43.97 0 0 1 3.13 3.129 49.48 49.48 0 0 1 4.731 6.12 20.826 20.826 0 0 1 1.726 3.259c.147.338.289.677.426 1.034 1.433 3.737 2.35 8.478 2.498 13.907.015.512.03 1.018.03 1.538 0 .109-.006.212-.006.317 0 .077 0 .16-.003.24l-.002.045-.003.139.011-.14.003-.044v.045l-.009.139-.005.175a42.166 42.166 0 0 1-.116 2.662l-.003.04-.006.033a23.345 23.345 0 0 1-1.01 4.886 24.267 24.267 0 0 1-1.804 4.205c-.235.43-.478.852-.735 1.268l-.014.019c-1.389 2.244-3.084 4.239-4.936 6.027-1.103 1.062-2.267 2.034-3.459 2.963a62.78 62.78 0 0 1-4.666 3.29l-.084.028c-.155.12-.599.394-1.094.686-.097.059-.2.118-.303.176l.002.003c.104.042.207.096.31.139.424.184.84.376 1.256.575.107.054.218.103.33.155.356.178.707.366 1.058.552a.297.297 0 0 1 .053.028c.008.004.016.01.022.01v.002c.154.08.314.157.465.24l.086.046c.023.01.046.029.068.038.21.111.418.227.625.344.29.161.576.33.86.493.382.223.764.437 1.14.66.682.402 1.35.796 2.021 1.188.104.065.214.124.315.189.089.051.171.096.26.145.549.323 1.093.633 1.634.935.111.06.225.133.337.192.261.143.517.273.775.41.276.144.554.298.826.437.088.045.175.084.263.128.471.232.94.455 1.403.654.04.017.08.038.12.055l.05.022c.12.051.235.094.356.143.185.077.377.15.562.225.19.069.382.134.57.201.075.024.15.051.22.08.03.01.062.014.086.025.283.09.558.173.836.248.074.018.148.041.224.06.252.065.502.122.751.17.102.021.204.044.305.062.198.035.39.06.586.084.15.02.299.045.447.06.086.003.168.003.257.012.214.015.43.032.647.032h.027c.005 0 .015.006.025.006h.004c.009 0 .015-.006.025-.006h.02c.22 0 .437-.017.658-.032.084-.008.17-.008.253-.013.146-.014.3-.038.45-.06.191-.023.385-.048.583-.083.098-.018.2-.04.305-.063.25-.047.5-.104.75-.169.077-.019.152-.042.227-.06.274-.075.55-.157.833-.248.027-.01.054-.015.084-.025.076-.029.15-.056.222-.08.188-.067.38-.132.569-.201.188-.075.38-.148.563-.225.12-.05.236-.092.356-.143l.051-.022c.042-.017.08-.038.119-.055.465-.199.933-.422 1.406-.654.087-.044.171-.083.261-.128.274-.14.55-.293.825-.437.258-.137.515-.267.773-.41.113-.059.228-.131.342-.192a99.21 99.21 0 0 0 1.635-.935c.085-.049.168-.094.255-.145.103-.065.214-.124.318-.19.668-.391 1.34-.785 2.02-1.187.375-.223.756-.437 1.137-.66.285-.163.572-.332.863-.493.208-.117.415-.233.625-.344.026-.009.044-.028.071-.038l.084-.045c.153-.084.31-.161.463-.24l.004-.003c.006 0 .01-.006.017-.01a.311.311 0 0 1 .056-.028c.352-.186.704-.374 1.061-.552.107-.052.216-.101.326-.155.414-.2.834-.391 1.255-.575l.109-.05c.065-.03.133-.062.2-.09l.002-.002-.303-.176c-.492-.292-.936-.565-1.09-.686l-.083-.029a62.398 62.398 0 0 1-4.67-3.289c-1.19-.929-2.358-1.9-3.46-2.963-1.85-1.788-3.548-3.783-4.931-6.027l-.018-.019c-.255-.416-.5-.838-.736-1.269a24.587 24.587 0 0 1-1.802-4.204 23.411 23.411 0 0 1-1.01-4.886l-.005-.033-.002-.04a43.04 43.04 0 0 1-.118-2.662l-.004-.175-.013-.14v-.044l.002.045.015.139v-.14l-.004-.044c-.003-.08-.003-.163-.003-.24-.002-.105-.01-.208-.01-.317 0-.52.017-1.026.032-1.538.146-5.43 1.064-10.17 2.498-13.907.136-.357.282-.696.425-1.034.521-1.21 1.099-2.304 1.725-3.258a49.794 49.794 0 0 1 4.734-6.121 43.515 43.515 0 0 1 3.128-3.13l.07-.099a34.217 34.217 0 0 1 2.77-2.392 37.646 37.646 0 0 1 4.68-3.117c4.795-2.698 11.416-4.957 18.765-3.257 1.752.41 3.404.98 4.945 1.656 2.554 1.118 4.807 2.553 6.783 4.099a38.038 38.038 0 0 1 4.424 4.079c.36.389.708.774 1.036 1.153.063.074.135.152.198.225a45.561 45.561 0 0 1 1.838 2.319l.002.01a38 38 0 0 1 2.51 3.835l.002.015.007.004.055.105.03.05.003.006.018.038c.047.078.068.119.092.165l.029.051.003.006v-.014l.011-.22v-.115l.006-.002v-.145c.05-1.24.076-2.508.089-3.78v-.155c.003-.13.003-.261.003-.39l.002-.25v-.32c.003-1.064-.008-2.145-.033-3.24"/>
  <path fill="#f4be5e" d="M189.972 146.971c-3.804-34.658-26.368-38.135-31.816-38.469-.394-.015-.786-.029-1.177-.029h-.005c-6.723 0-12.989 2.402-18.31 6.045a34.726 34.726 0 0 0-2.208 1.662l-.06.042-.241.21a35.646 35.646 0 0 0-4.048 3.91c-.29.33-.57.676-.85 1.016-.143.171-.285.337-.428.509-.248.318-.486.647-.732.975a42.583 42.583 0 0 0-1.251 1.798c-.178.273-.345.56-.517.84-.187.294-.374.588-.55.888l-.073.125-.079-.125c-.175-.3-.362-.594-.552-.888-.169-.28-.337-.567-.513-.84a41.706 41.706 0 0 0-1.256-1.798c-.24-.328-.48-.657-.729-.975-.138-.172-.287-.338-.428-.51-.28-.339-.563-.685-.848-1.015a36.319 36.319 0 0 0-4.044-3.91l-.247-.21-.053-.042a37.071 37.071 0 0 0-2.215-1.662c-5.32-3.643-11.588-6.045-18.31-6.045h-.006c-.39 0-.783.014-1.176.03-5.444.333-28.01 3.81-31.816 38.468l-.008.094c1.365-4.308 3.899-8.202 7.289-11.402a30.706 30.706 0 0 1 6.148-4.488c4.388-2.45 9.52-3.987 15.08-4.246.154-.005.299 0 .447-.005.644-.019 1.29-.032 1.92-.019 2.21.046 4.364.301 6.443.738a34.81 34.81 0 0 1 2.632.652c4.766 1.381 9.36 3.755 13.203 6.852l.06.042a34.596 34.596 0 0 1 2.74 2.478l.01.014c.244.242.476.488.703.741l.144.147c.195.213.376.427.56.639l.009.009.241.273c.157.19.307.379.455.564.103.134.21.259.31.384.125.166.25.336.373.503.116.157.236.316.345.473.102.149.201.292.299.44.125.185.257.37.379.56.075.129.157.258.232.389.134.208.261.42.384.633.072.118.135.24.203.366.12.22.249.447.37.675.057.121.11.241.173.356.113.238.233.472.34.713.053.118.102.241.156.36.053.13.107.269.165.401.048.11.093.215.137.322.05.129.092.254.139.384.064.166.122.338.186.509v.013s0-.002.002-.003v-.002l.002-.002v-.006c.064-.17.124-.343.186-.509.045-.13.086-.255.139-.383.042-.108.09-.213.134-.322.061-.133.114-.272.169-.402.056-.118.101-.242.153-.36.111-.24.23-.474.343-.712.06-.115.112-.235.173-.357.117-.227.248-.454.368-.675.07-.125.132-.247.2-.365.126-.212.254-.426.387-.634.075-.13.155-.26.232-.39.123-.188.255-.373.38-.558.101-.149.195-.292.297-.44l.345-.474c.125-.167.25-.336.376-.502.096-.126.202-.25.309-.385.146-.185.296-.374.453-.563l.24-.274.01-.009c.185-.212.37-.425.56-.638l.143-.147c.23-.253.464-.5.706-.741l.013-.015a33.843 33.843 0 0 1 2.738-2.477l.059-.042c3.84-3.097 8.436-5.471 13.201-6.853a34.59 34.59 0 0 1 2.633-.652 34.88 34.88 0 0 1 6.445-.737c.631-.014 1.274 0 1.917.019.15.005.298 0 .446.005 5.563.259 10.698 1.795 15.082 4.246a30.654 30.654 0 0 1 6.149 4.488c3.39 3.2 5.922 7.094 7.286 11.402l-.006-.094"/>
  <path fill="#1b82ad" d="M75.067 160.356h-.003l.003-.002zM73.2 162.52v-.003l.009-.007-.009.01zm46.699 20.49c0-5.514-1.495-10.166-3.392-13.851a33.695 33.695 0 0 0-3.892-5.925 36.86 36.86 0 0 0-1.016-1.19c-.125-.138-.25-.277-.37-.407-.004 0-.006-.004-.013-.005l-.097-.058c-2.197-1.407-5.086-2.64-9.019-3.428-1.915-.385-4.075-.667-6.519-.81a61.895 61.895 0 0 0-1.713-.079l-.015-.047c-.128-.003-.253-.003-.385-.003-.432 0-.858-.031-1.292-.031l-.25.007c-.513.004-1.023.024-1.537.045a46.385 46.385 0 0 0-7.387.75c-2.29.417-4.462.97-6.45 1.579a68.33 68.33 0 0 0-2.527.836l-.389.14a56.38 56.38 0 0 0-2.509.967c-.46.189-.9.371-1.32.555l-.024.01c-.096.044-.188.083-.278.126a53.3 53.3 0 0 0-2.816 1.328v.001a6.972 6.972 0 0 0-.333.175h-.007c-.144.072-.27.142-.395.204-.156.085-.293.158-.41.225a3.458 3.458 0 0 0-.224.12l-.003.001c-.077.042-.14.08-.184.104l-.13.07v.004l.009-.003-.004.008h-.011l-.004.004v.008l.004.028.005.074.193 3.395.099 1.094.029.285.351 3.837c.145 1.3.32 2.57.508 3.827l.155 1.049a116.674 116.674 0 0 0 4.372 18.236c3.235 9.85 7.129 17.133 9.872 21.56.113.18.226.363.337.537.4.632.771 1.196 1.107 1.698v.002s.11.16.285.42c.18.259.348.509.506.719.212.308.4.567.56.785l.418.551.093.118.009-.007c.26.337.53.66.79.96.017-.093.03-.182.052-.279.268-1.167.666-2.359 1.22-3.524l-.519-.664.002-.004.517.668c.151-.333.327-.663.513-.99.092-.17.175-.343.278-.508l.164-.27.189-.246c.175-.231.276-.345.28-.354l.033-.044c.255-.32.508-.628.763-.928a24.978 24.978 0 0 1 2.033-2.137v-.004c.912-.841 1.84-1.574 2.84-2.197l-.005.002.005-.004a14.011 14.011 0 0 1 3.647-1.638h.008c.49-.143.985-.245 1.485-.329l.254-.04 7.017-4.149.885-.52a61.56 61.56 0 0 0 2.105-1.445c.55-.392 1.092-.788 1.622-1.203l.011-.007a37.35 37.35 0 0 0 2.983-2.545l.007-.008a28.188 28.188 0 0 0 2.201-2.371 21.99 21.99 0 0 0 1.815-2.52l.083-.131c.171-.286.344-.578.51-.882.018-.034.03-.07.052-.104.52-.98.968-2.005 1.316-3.086.375-1.17.634-2.386.758-3.668.06-.736.089-1.483.1-2.259l.003-.038v-.035l.004-.12h-.004v-.199l.007-.083v-.157l.003-.237c0-.388-.01-.827-.025-1.337v-.004z"/>
  <path fill="#1b82ad" d="m110.096 202.788-.01.006-.003.003.013-.01M162.36 212.13l-.005-.002v.002h.004"/>
  <path fill="#1b82ad" d="m182.204 162.52-.007-.01.007.007v.003zm-1.863-2.164v-.002l.003.002zm10.066 4.072h-.008l-.002-.008.008.003v-.003l-.132-.07-.18-.104-.007-.002c-.064-.036-.138-.078-.226-.12-.117-.066-.25-.14-.406-.224-.125-.063-.255-.133-.397-.205h-.005a6.633 6.633 0 0 0-.336-.174v-.001a53.615 53.615 0 0 0-2.814-1.328c-.092-.043-.184-.083-.28-.126l-.023-.01a50.57 50.57 0 0 0-1.322-.555 55.882 55.882 0 0 0-2.51-.968 66.368 66.368 0 0 0-2.913-.976 57.152 57.152 0 0 0-6.447-1.578 46.4 46.4 0 0 0-7.389-.75c-.51-.022-1.027-.041-1.536-.046l-.25-.007c-.435 0-.865.032-1.293.032-.132 0-.26 0-.389.003l-.008.047a60.19 60.19 0 0 0-1.717.078c-2.444.143-4.603.426-6.515.81-3.937.789-6.827 2.022-9.023 3.428l-.1.059c-.004 0-.006.005-.008.005-.122.13-.244.268-.37.407-.325.364-.668.76-1.017 1.19a33.872 33.872 0 0 0-3.893 5.924c-1.893 3.685-3.391 8.337-3.391 13.851v.004c-.012.51-.027.949-.027 1.337.003.036.003.106.008.237v.157l.007.083v.199h-.007l.007.12v.073c.011.775.04 1.522.099 2.259.124 1.282.387 2.498.759 3.668a18.56 18.56 0 0 0 1.318 3.085l.051.105c.167.304.34.595.511.882l.08.13c.54.874 1.15 1.712 1.815 2.52.675.823 1.416 1.61 2.205 2.371l.007.008c.89.861 1.896 1.702 2.988 2.549l-.017-.01.021.014a60.71 60.71 0 0 0 3.73 2.648l.88.52 7.02 4.149c.083.014.17.027.257.04.495.084.995.187 1.483.33h.006a13.92 13.92 0 0 1 2.027.765c.542.253 1.078.537 1.602.865.005.002.009.006.015.008l.002.002a18.953 18.953 0 0 1 2.84 2.196l.001.004c.692.64 1.364 1.355 2.03 2.137.269.313.532.634.799.973.007.008.103.122.28.353l.19.247.162.27c.102.164.185.337.28.508.184.326.358.656.51.99l.518-.668v.004l-.517.663a17.33 17.33 0 0 1 1.22 3.525c.021.096.033.186.057.278.255-.3.522-.623.787-.96l.008.008.09-.119a33.073 33.073 0 0 0 .984-1.336c.151-.21.32-.46.498-.719.179-.259.288-.42.288-.42v-.002c.338-.501.708-1.066 1.11-1.698.107-.173.22-.357.334-.537 2.746-4.426 6.637-11.71 9.873-21.56a116.57 116.57 0 0 0 4.37-18.236c.053-.347.105-.698.155-1.049.187-1.257.362-2.527.511-3.826l.352-3.837.024-.286.1-1.094.086-1.53.109-1.864.002-.075.004-.028v-.008l-.004-.004z"/>
  <path fill="#3c3c3a" d="M127.76 332.226C58.393 314.731 10.018 243.787 10.018 171.314c0-25.76 4.066-47.976 11.148-67.034 22.453-46.819 76.572-46.968 81.261-43.186 0 0-.83-2.21-2.752-4.708 5.854.305 11.362 2 15.013 6.288 0 0-.89-5.081-4.65-9.296 13.585 2.778 17.255 13.605 17.447 14.202v.03h.197v-.027c.172-.533 3.82-11.419 17.45-14.205-3.762 4.215-4.653 9.296-4.653 9.296 3.653-4.287 9.159-5.983 15.014-6.288-1.923 2.498-2.753 4.708-2.753 4.708 4.816-3.885 61.752-3.617 83 47.073 6.223 18.175 9.765 39.117 9.765 63.147 0 72.473-48.375 143.417-117.743 160.912zM216.643 54.14c-21.208-25.042-51.005-43.5-86.17-53.378L127.76 0l-2.71.762C89.885 10.64 60.087 29.098 38.878 54.14 13.082 84.607 0 124.027 0 171.314c0 37.68 12.337 75.647 34.732 106.904 23.052 32.169 55.218 54.804 90.58 63.723l2.449.617 2.452-.617c35.357-8.92 67.528-31.554 90.575-63.723 22.4-31.257 34.736-69.225 34.736-106.904 0-47.287-13.085-86.707-38.882-117.174z"/>
  <path fill="#3c3c3a" d="M224.057 136.736c-12.92-35.869-46.337-56.751-75.055-47.149-9.66 3.775-18.225 10.294-21.297 12.773-3.069-2.48-11.636-8.998-21.292-12.773-28.723-9.602-62.136 11.28-75.06 47.15-3.56 9.885-5.167 19.886-5.069 29.42-.005.2-.007.398-.007.602 0 .353.012.704.017 1.05a75.508 75.508 0 0 0 .127 3.417c.682 11.82 4.06 22.867 9.495 32.485 1.174 2.387 2.57 4.702 4.027 6.864.224.335.449.657.674.985.17.246.346.484.52.728a85.321 85.321 0 0 0 3.007 3.968c3.527 4.4 6.498 7.307 6.498 7.307s-6.124-21.445-5.945-27.445c4.77 7.545 10.275 13.149 10.275 13.149s-4.806-17.282-5.02-23.394c4.733 7.573 10.268 13.371 10.268 13.371s-4.977-17.791-5.08-23.71l.085-.117c2.59 5.486 5.557 10.085 7.04 12.264a124.985 124.985 0 0 1-1.699-8.744l-.002-.023c-.058-.378-.11-.745-.16-1.099l.004.028c-.196-1.3-.38-2.636-.54-4.027l-.012-.133-.35-3.803-.027-.287-.002-.032-.098-1.092-.017-.204-.085-1.53v.005l-.089-1.567a6.38 6.38 0 0 1-.051-.53h-.002l-.012-.22-.005-.265c0-.007-.004-.017-.004-.029l-.002-.076v.034c-.051-1.309-.077-2.63-.092-3.958l-.002-.05v-.55l-.001-.047V159.182c0-.044-.005-.117-.005-.219v-.277c0-1.023.014-2.055.037-3.096v-.012c.032-1.192.071-2.416.134-3.68v-.045c.097-1.879.246-3.675.435-5.405 0-.026.003-.043.005-.064.004-.015.004-.033.004-.048.625-5.714 1.746-10.732 3.24-15.139l1.298-3.452a47.963 47.963 0 0 1 3.115-6.23c3.715-6.256 8.377-10.565 12.907-13.38a37.05 37.05 0 0 1 8.596-3.933c3.49-1.087 6.375-1.425 8.108-1.532l.153-.009c.37-.009.833-.033 1.382-.033h.005c4.059 0 7.958.73 11.581 1.977 3.628 1.245 6.983 3.006 10.031 5.093l.019.011c.841.581 1.645 1.19 2.413 1.81l.038.027.064.052.058.046.181.147.246.212a41.469 41.469 0 0 1 4.614 4.472l.025.025s0 .002.004.005v-.005l.022-.025a41.962 41.962 0 0 1 4.618-4.472h-.003l.248-.212.18-.147.06-.046.062-.052.039-.027c.77-.62 1.577-1.229 2.415-1.81l.016-.011c3.05-2.087 6.405-3.848 10.031-5.093 3.623-1.248 7.524-1.977 11.58-1.977h.006c.553 0 1.012.024 1.385.033l.153.01c1.947.12 5.36.533 9.443 1.97a37.053 37.053 0 0 1 13.282 8.17c2.96 2.82 5.753 6.404 8.093 10.859a51.008 51.008 0 0 1 1.903 4.07l1.302 3.452c1.493 4.404 2.614 9.427 3.238 15.144.004.015 0 .033.004.048.003.02.005.039.01.064.182 1.73.333 3.526.43 5.405l.004.046c.062 1.263.1 2.487.13 3.679v.012c.022 1.041.036 2.073.036 3.096V159.283c0 .162-.006.246-.003.25 0 .116 0 .255-.003.417v.18a134.725 134.725 0 0 1-.09 3.866v.015c-.002.02 0 .043-.002.069l.002-.028-.002.035v-.007l-.003.049v.03l-.005.264-.012.22h-.005a5.842 5.842 0 0 1-.049.53l-.09 1.567v-.006l-.085 1.531-.017.204-.099 1.092-.002.032-.028.286-.347 3.804-.014.133a108.604 108.604 0 0 1-.539 4.027l.006-.028c-.05.354-.104.721-.163 1.099l-.002.023a125.949 125.949 0 0 1-1.701 8.753c1.483-2.178 4.454-6.78 7.049-12.273l.077.117c-.097 5.919-5.07 23.71-5.07 23.71s5.534-5.798 10.265-13.371c-.215 6.112-5.02 23.394-5.02 23.394s5.506-5.604 10.272-13.15c.182 6-5.94 27.446-5.94 27.446s2.968-2.907 6.496-7.307a87.554 87.554 0 0 0 3.011-3.968c.173-.244.344-.482.517-.728.225-.328.447-.65.674-.985 1.455-2.162 2.852-4.477 4.024-6.864 5.44-9.618 8.813-20.665 9.495-32.485.011-.2.023-.398.038-.606.045-.93.077-1.866.091-2.81.008-.347.019-.699.019-1.05 0-.205-.001-.403-.01-.603.094-9.534-1.506-19.535-5.07-29.42"/>
  <path fill="#b4b5b4" d="m73.201 162.52.009-.01-.009.007v.003M75.067 160.356v-.002l-.003.002h.003M68.722 131.398l-.022.02.003-.001.019-.019"/>
  <path fill="#4cb2d4" d="M119.9 183.01c0-5.514-1.495-10.166-3.392-13.851.01.635.013 1.282 0 1.937a71.712 71.712 0 0 1-.527 7.514 32.57 32.57 0 0 0-.237 3.374c-.081 4.366.726 8.49 1.993 12.248.52-.98.969-2.004 1.317-3.086.375-1.169.633-2.385.757-3.667.06-.737.089-1.484.1-2.26l.003-.038v-.035l.004-.12h-.004v-.198l.007-.084v-.157l.003-.237c0-.387-.01-.826-.025-1.336v-.004M87.758 187.722c.02-1.222.112-2.473.265-3.734a67.11 67.11 0 0 0 .5-7.16 69.75 69.75 0 0 0-1.648-16.388c-3.245.27-6.28.67-8.979 1.121.147.637.298 1.284.438 1.958.136.637.263 1.29.383 1.965a73.396 73.396 0 0 1 1.182 14.425 73.656 73.656 0 0 1-.492 7.156l-.016.126-.012.14v.013l-.002.015-.005.05v.027l-.005.004c-.016.128-.025.257-.038.39-.109 1-.178 1.995-.199 2.98-.08 4.505.772 8.757 2.108 12.616 1.061 3.05 2.423 5.843 3.86 8.312.242.417.483.837.736 1.235a54.058 54.058 0 0 0 2.345 3.492 24.978 24.978 0 0 1 2.033-2.137v-.004c.911-.84 1.84-1.573 2.84-2.196l-.005.002.005-.004a15.35 15.35 0 0 1 1.62-.873c-1.7-2.814-3.347-6.06-4.612-9.704-1.45-4.176-2.391-8.837-2.302-13.826"/>
  <path fill="#4cb2d4" d="M102.261 198.765c-1.444-4.172-2.39-8.84-2.303-13.822.024-1.227.105-2.475.268-3.74.298-2.469.456-4.867.498-7.156a69.713 69.713 0 0 0-.876-12.308 72.183 72.183 0 0 0-.266-1.572 94.565 94.565 0 0 0-9.101.023c.08.371.16.735.233 1.118a71.87 71.87 0 0 1 .564 3.263c.554 3.665.908 7.8.829 12.32a73.048 73.048 0 0 1-.532 7.517 32.212 32.212 0 0 0-.231 3.379c-.08 4.502.768 8.753 2.103 12.609.756 2.189 1.675 4.228 2.662 6.126a52.02 52.02 0 0 0 1.982 3.477l.02.03c.025.042.052.089.081.13l.254-.042 7.017-4.148a52.796 52.796 0 0 1-1.743-3.537 46.051 46.051 0 0 1-1.459-3.667M73.201 162.52v-.003l.009-.007-.009.01zm12.808 56.975-.016.022c-.176-.23-.358-.499-.54-.74a59.521 59.521 0 0 1-2.24-3.257c-.08-.127-.161-.257-.237-.384a49.388 49.388 0 0 1-1.284-2.151c-.241-.422-.472-.877-.708-1.32-1.157-2.17-2.245-4.524-3.13-7.088-1.03-2.984-1.802-6.22-2.125-9.645-.08-.81-.135-1.63-.159-2.46a33.923 33.923 0 0 1-.012-1.728c.017-1.092.096-2.202.22-3.324l.015-.145.002-.037c.01-.075.011-.149.022-.222V187c.018-.132.023-.259.036-.387l.005-.037c.007-.077.013-.153.023-.23.11-.986.21-1.964.283-2.924.085-1.218.136-2.413.156-3.574a70.126 70.126 0 0 0-1.391-15.173 69.866 69.866 0 0 0-.553-2.464c-5.764 1.147-9.373 2.331-9.373 2.331l.193 3.395.099 1.094.029.285.351 3.837c.145 1.3.32 2.57.508 3.827l.154 1.049a116.674 116.674 0 0 0 4.373 18.236c3.235 9.85 7.129 17.134 9.872 21.56.113.18.226.363.337.537.4.632.771 1.196 1.107 1.698v.002s.11.16.285.42c.18.259.348.509.506.719.212.308.4.567.56.785l.418.551.093.118.009-.007c.26.337.53.66.79.96.017-.093.03-.182.052-.279.268-1.167.666-2.359 1.22-3.524l-.519-.663.002-.004.517.667c.151-.333.327-.663.513-.99-.083.104-.167.21-.237.314-.085.124-.149.244-.226.366zM114.463 195.737a60.88 60.88 0 0 1-.5-1.527c-1.157-3.77-1.876-7.907-1.797-12.29a35.77 35.77 0 0 1 .263-3.74 69.66 69.66 0 0 0 .443-11.326 68.124 68.124 0 0 0-.256-3.62 36.86 36.86 0 0 0-1.016-1.19 68.356 68.356 0 0 0-3.128-.722 76.693 76.693 0 0 0-3.725-.687c-.387-.06-.78-.117-1.18-.177-.103-.008-.203-.022-.305-.032.114.64.202 1.317.295 1.986a71.66 71.66 0 0 1 .379 3.165c.265 2.663.423 5.5.364 8.534-.041 2.409-.21 4.92-.52 7.52a31.103 31.103 0 0 0-.24 3.379c-.08 4.502.769 8.749 2.108 12.61.79 2.292 1.764 4.418 2.805 6.384.55-.392 1.092-.788 1.622-1.203l.011-.007a37.35 37.35 0 0 0 2.982-2.545l.007-.008a28.188 28.188 0 0 0 2.202-2.371c-.014-.031-.03-.066-.042-.1a38.346 38.346 0 0 1-.772-2.033"/>
  <path fill="#4cb2d4" d="m110.096 202.788-.01.006-.003.003.013-.01M162.36 212.13l-.005-.002v.002h.004M138.897 171.096a69.497 69.497 0 0 1 0-1.937c-1.892 3.685-3.39 8.337-3.39 13.85v.005c-.012.51-.028.948-.028 1.336.003.037.003.107.008.237v.157l.007.084v.198h-.007l.007.12v.073c.012.776.041 1.523.1 2.26.124 1.282.386 2.498.758 3.667a18.56 18.56 0 0 0 1.319 3.086c1.267-3.759 2.07-7.882 1.991-12.249a32 32 0 0 0-.238-3.374 74.659 74.659 0 0 1-.527-7.513"/>
  <path fill="#4cb2d4" d="M170.313 211.738c1.434-2.469 2.798-5.26 3.854-8.312 1.337-3.859 2.19-8.11 2.107-12.616-.019-.984-.09-1.98-.196-2.98-.012-.133-.021-.261-.037-.39l-.004-.004v-.004l-.006-.022v-.066l-.004-.003.003-.008-.003-.002-.014-.139-.012-.126a74.316 74.316 0 0 1-.492-7.156 73.07 73.07 0 0 1 1.183-14.425c.118-.675.242-1.328.383-1.965.141-.674.288-1.32.436-1.958-2.7-.45-5.734-.85-8.98-1.121-.081.38-.165.766-.246 1.159a69.66 69.66 0 0 0-.903 22.389c.155 1.26.246 2.512.27 3.734.088 4.99-.854 9.65-2.309 13.826-1.259 3.644-2.909 6.89-4.607 9.704.543.253 1.079.537 1.602.865l.016.008.002.002a18.953 18.953 0 0 1 2.839 2.197l.002.004c.691.64 1.363 1.355 2.03 2.137a57.204 57.204 0 0 0 2.351-3.492c.247-.399.49-.819.736-1.235"/>
  <path fill="#4cb2d4" d="M164.063 187.787a32.78 32.78 0 0 0-.232-3.38 71.564 71.564 0 0 1-.527-7.515c-.082-4.521.27-8.656.828-12.32a70.56 70.56 0 0 1 .56-3.264c.076-.383.153-.747.233-1.118a94.502 94.502 0 0 0-9.098-.023 70.016 70.016 0 0 0-1.146 13.88c.041 2.289.2 4.687.503 7.156.161 1.265.242 2.513.264 3.74.088 4.983-.86 9.65-2.304 13.822a46.848 46.848 0 0 1-1.456 3.667 50.871 50.871 0 0 1-1.745 3.537l7.02 4.148c.083.015.169.028.257.041.025-.04.05-.088.076-.128l.02-.03a55.44 55.44 0 0 0 1.985-3.478c.981-1.898 1.904-3.937 2.661-6.126 1.334-3.856 2.179-8.107 2.1-12.609M182.204 162.52l-.007-.01.007.007v.003zm-1.175-.308c-.186.786-.376 1.6-.546 2.464a69.572 69.572 0 0 0-1.398 15.173c.021 1.16.072 2.356.162 3.574.066.96.17 1.938.278 2.923l.025.231.002.037c.018.128.018.255.04.387v.015c.008.073.012.147.022.222v.037l.012.145c.125 1.122.204 2.232.225 3.324.01.582.002 1.154-.013 1.727-.027.831-.082 1.651-.16 2.461-.325 3.424-1.093 6.661-2.125 9.645-.886 2.564-1.975 4.919-3.131 7.088-.237.443-.465.898-.709 1.32-.421.749-.848 1.464-1.282 2.151-.076.127-.159.257-.237.384a57.804 57.804 0 0 1-2.243 3.257c-.18.241-.359.51-.538.74l-.016-.022c-.077-.122-.142-.24-.228-.365a3.545 3.545 0 0 0-.232-.314c.184.326.358.656.51.99l.518-.668v.004l-.517.664a17.33 17.33 0 0 1 1.22 3.524c.021.096.033.186.057.278.255-.299.522-.623.787-.96l.008.008.09-.118c.107-.137.244-.319.416-.551.165-.218.35-.477.568-.786.151-.21.32-.46.498-.719.179-.259.287-.42.287-.42v-.002c.339-.501.709-1.065 1.111-1.698.107-.173.22-.357.334-.537 2.746-4.426 6.637-11.71 9.873-21.56a116.57 116.57 0 0 0 4.37-18.236c.053-.347.105-.698.155-1.049.187-1.257.362-2.526.511-3.826l.352-3.837.024-.285.1-1.094.086-1.53.109-1.865s-3.61-1.184-9.376-2.331zM151.63 181.63a73.49 73.49 0 0 1-.525-7.519 73.212 73.212 0 0 1 .366-8.534c.104-1.088.234-2.143.379-3.165.095-.67.183-1.346.292-1.986-.1.01-.2.023-.302.032-.4.06-.795.117-1.181.177a75.833 75.833 0 0 0-3.722.687c-1.17.242-2.207.487-3.13.723-.325.363-.667.76-1.016 1.189-.018.172-.036.342-.049.513a59.03 59.03 0 0 0-.204 3.106c-.06 1.35-.08 2.74-.059 4.177.044 2.29.196 4.682.502 7.15.153 1.264.238 2.507.259 3.74.08 4.383-.64 8.52-1.798 12.29a53.422 53.422 0 0 1-.497 1.527c-.244.7-.502 1.37-.77 2.032-.017.034-.034.069-.047.1.675.822 1.416 1.61 2.205 2.371l.007.008c.891.861 1.896 1.702 2.988 2.549l-.016-.01.02.014c.528.415 1.074.811 1.62 1.203 1.042-1.966 2.017-4.092 2.806-6.385 1.337-3.86 2.19-8.107 2.107-12.61a31.907 31.907 0 0 0-.235-3.379"/>
  <path fill="#1b82ad" d="M115.98 178.61a71.71 71.71 0 0 0 .528-7.514c.013-.655.01-1.302 0-1.937a33.695 33.695 0 0 0-3.892-5.925 68.038 68.038 0 0 1 .308 7.796 68.09 68.09 0 0 1-.495 7.15 35.765 35.765 0 0 0-.263 3.74c-.079 4.383.64 8.52 1.797 12.29.162.518.33 1.028.5 1.527.24.7.503 1.37.773 2.032.012.034.028.069.041.1a21.99 21.99 0 0 0 1.815-2.52l.083-.13c.171-.287.345-.579.51-.883.019-.034.031-.07.052-.104-1.267-3.759-2.074-7.882-1.993-12.248.02-1.113.099-2.238.237-3.374M75.067 160.356h-.003l.003-.002zm36.15 1.276-.097-.058c-2.197-1.407-5.086-2.64-9.019-3.429-1.915-.384-4.075-.666-6.519-.81a61.895 61.895 0 0 0-1.713-.078l-.015-.047c-.128-.003-.253-.003-.385-.003-.432 0-.858-.031-1.292-.031l-.25.007c-.513.004-1.023.024-1.537.045a46.385 46.385 0 0 0-7.387.75c-2.29.417-4.462.97-6.45 1.579a68.33 68.33 0 0 0-2.527.836l-.389.14a56.38 56.38 0 0 0-2.509.967c-.46.188-.9.371-1.32.555l-.025.01c-.095.043-.187.083-.277.126a53.3 53.3 0 0 0-2.816 1.328 6.972 6.972 0 0 0-.333.175h-.007c-.144.073-.27.143-.395.205-.156.085-.293.158-.41.225a3.458 3.458 0 0 0-.224.119l-.003.002c-.077.042-.14.08-.184.103l-.13.072v.003l.009-.003-.004.008h-.011l-.004.004v.008l.004.028.005.074s3.61-1.184 9.373-2.331c.191.786.375 1.6.553 2.464a70.126 70.126 0 0 1 1.391 15.173 68.604 68.604 0 0 1-.156 3.574c-.073.96-.174 1.937-.283 2.923-.01.078-.016.153-.023.23l-.005.037c-.013.129-.018.255-.036.388v.015c-.01.073-.013.147-.022.222l-.002.037-.015.145a35.467 35.467 0 0 0-.22 3.324 33.9 33.9 0 0 0 .012 1.727c.024.83.079 1.651.159 2.46.323 3.425 1.095 6.662 2.125 9.646.885 2.563 1.973 4.919 3.13 7.088.236.443.467.897.708 1.32.42.749.852 1.463 1.284 2.15.076.127.157.258.237.384a59.521 59.521 0 0 0 2.24 3.257c.182.242.364.511.54.741l.016-.022c.077-.122.14-.241.226-.366.07-.103.154-.21.237-.313.092-.171.175-.344.278-.509l.164-.27.189-.246c.175-.231.276-.345.28-.353l.033-.045c.255-.32.508-.628.763-.928a54.058 54.058 0 0 1-2.345-3.492c-.253-.398-.494-.818-.736-1.235-1.437-2.47-2.799-5.261-3.86-8.312-1.336-3.86-2.188-8.11-2.108-12.616.021-.985.09-1.98.199-2.98.013-.133.022-.262.038-.39l.005-.004v-.026l.005-.051.002-.015v-.014l.012-.139.016-.126c.287-2.47.45-4.863.492-7.156a73.396 73.396 0 0 0-1.182-14.425 58.592 58.592 0 0 0-.383-1.965c-.14-.674-.29-1.32-.438-1.958 2.7-.45 5.735-.85 8.979-1.121.082.38.166.766.249 1.159a69.75 69.75 0 0 1 1.399 15.23 67.11 67.11 0 0 1-.5 7.159 36.065 36.065 0 0 0-.265 3.734c-.089 4.99.852 9.65 2.302 13.826 1.265 3.644 2.913 6.89 4.612 9.704a14.011 14.011 0 0 1 2.027-.765h.008c.49-.143.985-.245 1.485-.329-.029-.04-.056-.088-.081-.128l-.02-.03a52.02 52.02 0 0 1-1.982-3.478c-.987-1.898-1.906-3.937-2.662-6.126-1.335-3.856-2.182-8.107-2.103-12.61.02-1.109.09-2.237.23-3.378.32-2.593.486-5.107.533-7.516a73.69 73.69 0 0 0-.829-12.32 71.87 71.87 0 0 0-.564-3.264c-.073-.383-.153-.747-.233-1.118a94.572 94.572 0 0 1 9.101-.023c.093.512.182 1.039.266 1.572.582 3.629.959 7.768.876 12.308-.042 2.289-.2 4.687-.498 7.156a34.51 34.51 0 0 0-.268 3.74c-.088 4.983.859 9.65 2.303 13.822a46.051 46.051 0 0 0 1.459 3.667 52.796 52.796 0 0 0 1.743 3.537l.885-.52a61.56 61.56 0 0 0 2.105-1.445c-1.04-1.966-2.015-4.092-2.805-6.385-1.339-3.86-2.188-8.107-2.108-12.61.017-1.111.097-2.239.24-3.379.31-2.598.479-5.11.52-7.519a71.429 71.429 0 0 0-.364-8.534 71.66 71.66 0 0 0-.38-3.165c-.092-.67-.18-1.346-.294-1.986.102.01.202.023.305.032.4.06.793.117 1.18.177 1.347.215 2.591.447 3.725.687 1.171.242 2.207.487 3.128.723-.125-.14-.25-.278-.37-.408-.004 0-.006-.004-.013-.005zM142.48 171.03a70.398 70.398 0 0 1 .058-4.177 59.04 59.04 0 0 1 .204-3.106c.013-.171.03-.34.049-.513a33.872 33.872 0 0 0-3.894 5.925 69.497 69.497 0 0 0 0 1.937c.047 2.405.213 4.916.528 7.514.141 1.136.218 2.26.238 3.374.079 4.366-.724 8.49-1.991 12.248.017.034.032.07.05.104.167.304.34.596.512.882l.08.13c.54.874 1.149 1.712 1.814 2.521.013-.031.03-.066.046-.1.269-.662.527-1.332.771-2.032.173-.499.335-1.009.497-1.527 1.157-3.77 1.878-7.907 1.798-12.29a36.034 36.034 0 0 0-.26-3.74 68.705 68.705 0 0 1-.5-7.15M180.341 160.356v-.002l.003.002zm10.066 4.072h-.008l-.002-.008.008.003v-.003l-.132-.07-.18-.104-.007-.002c-.064-.036-.138-.078-.226-.12-.117-.066-.25-.14-.406-.224-.125-.063-.255-.133-.397-.205h-.005a6.633 6.633 0 0 0-.336-.174v-.001a53.615 53.615 0 0 0-2.814-1.328c-.092-.043-.184-.083-.28-.126l-.023-.01a50.57 50.57 0 0 0-1.322-.555 55.882 55.882 0 0 0-2.51-.968 66.368 66.368 0 0 0-2.913-.976 57.152 57.152 0 0 0-6.447-1.578 46.4 46.4 0 0 0-7.389-.75c-.51-.022-1.027-.041-1.536-.046l-.25-.007c-.435 0-.865.032-1.293.032-.132 0-.26 0-.389.003l-.008.047a60.19 60.19 0 0 0-1.717.078c-2.444.143-4.603.426-6.515.81-3.937.789-6.827 2.022-9.023 3.428l-.1.059c-.004 0-.006.005-.008.005-.122.13-.244.268-.37.407.922-.236 1.959-.48 3.129-.723 1.13-.239 2.375-.47 3.722-.686.387-.06.781-.117 1.182-.178.101-.008.201-.022.302-.031-.11.64-.198 1.316-.293 1.985a70.115 70.115 0 0 0-.38 3.165 73.215 73.215 0 0 0-.365 8.535c.044 2.408.21 4.92.526 7.519.138 1.14.22 2.267.235 3.38.083 4.502-.77 8.748-2.108 12.609-.789 2.293-1.764 4.419-2.805 6.384a60.71 60.71 0 0 0 2.11 1.445l.88.52c.61-1.126 1.196-2.3 1.745-3.536a46.848 46.848 0 0 0 1.457-3.668c1.444-4.171 2.391-8.839 2.304-13.822a34.484 34.484 0 0 0-.265-3.74 69.208 69.208 0 0 1-.503-7.156 70.02 70.02 0 0 1 1.146-13.88 94.495 94.495 0 0 1 9.098.024c-.08.37-.157.734-.233 1.118a70.56 70.56 0 0 0-.56 3.263c-.558 3.664-.91 7.8-.828 12.32.041 2.41.208 4.924.527 7.516.14 1.141.21 2.27.232 3.38.078 4.502-.767 8.753-2.1 12.608-.758 2.19-1.68 4.229-2.662 6.127a55.44 55.44 0 0 1-1.984 3.477l-.02.03c-.026.041-.052.088-.077.129.495.083.995.186 1.482.329h.006a13.92 13.92 0 0 1 2.028.765c1.698-2.814 3.347-6.06 4.607-9.704 1.454-4.176 2.397-8.837 2.308-13.826a36.088 36.088 0 0 0-.27-3.735 69.657 69.657 0 0 1 .903-22.389c.081-.393.165-.78.247-1.159 3.245.271 6.28.671 8.98 1.122a88.89 88.89 0 0 0-.436 1.958c-.141.636-.266 1.29-.384 1.964a73.071 73.071 0 0 0-1.183 14.426 74.32 74.32 0 0 0 .493 7.156l.011.126.015.139.003.002-.003.008.003.003v.065l.007.023v.004l.004.004c.015.128.025.257.036.39.106 1 .178 1.995.197 2.98.082 4.505-.77 8.757-2.108 12.616-1.055 3.05-2.42 5.843-3.853 8.312-.246.417-.49.837-.736 1.235a57.204 57.204 0 0 1-2.351 3.492c.268.313.532.634.798.973.007.008.104.122.28.353l.19.246.162.27c.103.165.185.337.28.509.084.103.167.21.232.313.086.125.152.244.228.366l.017.022c.179-.23.358-.5.538-.74a57.804 57.804 0 0 0 2.242-3.258c.079-.126.161-.257.237-.383.434-.688.861-1.403 1.283-2.152.243-.422.472-.876.708-1.32 1.157-2.169 2.246-4.524 3.132-7.087 1.032-2.984 1.8-6.221 2.124-9.645.078-.81.134-1.63.16-2.461a39.53 39.53 0 0 0 .013-1.727c-.02-1.092-.1-2.202-.224-3.324l-.012-.145v-.037c-.01-.075-.014-.15-.023-.223v-.014c-.022-.133-.022-.26-.04-.388l-.001-.036c-.01-.078-.016-.153-.026-.231a71.515 71.515 0 0 1-.278-2.923 64.35 64.35 0 0 1-.161-3.575 69.572 69.572 0 0 1 1.398-15.173c.17-.864.359-1.678.545-2.463 5.766 1.147 9.376 2.33 9.376 2.33l.002-.073.004-.029v-.008l-.004-.004z"/>
  <path fill="#c02439" d="M113.798 214.875c.682.402 1.35.796 2.022 1.188.103.065.213.124.314.19h.004c.509-.57.989-1.164 1.413-1.725l.005-.002c.136-.18.266-.36.39-.529.391-.516.761-1.053 1.116-1.618.124-.194.198-.318.198-.318h-.003c.083-.139.17-.274.249-.413 3.313-5.714 4.898-13.333 5.644-18.72.49-3.52.62-6.083.642-6.55-.007-.354-.01-.713-.016-1.07v-.176l-.008-.139-.009.139-.005.176a42.166 42.166 0 0 1-.116 2.66l-.003.042-.006.032a23.345 23.345 0 0 1-1.01 4.886 24.267 24.267 0 0 1-1.804 4.205c-.235.43-.478.852-.735 1.268l-.014.019c-1.389 2.244-3.083 4.24-4.936 6.027-1.102 1.063-2.266 2.034-3.459 2.963a62.78 62.78 0 0 1-4.666 3.29l-.084.028c-.154.121-.598.394-1.094.686-.097.059-.2.118-.303.176l.002.003c.104.042.207.096.31.139.424.184.84.376 1.257.576.106.053.217.102.329.154.356.178.707.366 1.058.552a.297.297 0 0 1 .053.028c.008.004.016.01.022.01v.003c.154.079.314.156.465.24l.086.045c.023.01.046.03.068.039.21.11.418.226.625.343.29.161.577.33.86.494.382.222.765.436 1.14.659M113.161 155.304l.066.1a43.97 43.97 0 0 1 3.13 3.129 49.48 49.48 0 0 1 4.732 6.121 20.826 20.826 0 0 1 1.725 3.258c.147.339.29.677.426 1.034 0 0-.133-.632-.426-1.7a55.267 55.267 0 0 0-3.222-8.662 47.52 47.52 0 0 0-3.548-6.291c-.43-.639-.88-1.27-1.357-1.892-.22-.293-.458-.577-.687-.867a32.599 32.599 0 0 0-3.608-3.781c-2.057-1.82-4.41-3.39-7.096-4.53a24.397 24.397 0 0 0-5.57-1.611c-4.859-.788-9.228-.033-13.09 1.61a27.942 27.942 0 0 0-4.438 2.422 34.157 34.157 0 0 0-4.983 4.048l-.043.038c-2.087 2.052-3.862 4.273-5.333 6.414a44.878 44.878 0 0 0-2.194 3.52c-.117.208-.23.417-.344.62-.204.379-.393.747-.572 1.1l-.081.164c-.086.18-.176.356-.258.531-.37.782-.67 1.497-.905 2.128l-.03.08c-.17.46-.303.87-.396 1.225-.024.08-.038.158-.061.227l-.045.194v.071l.003.002v.114l.013.22v.021l.003-.006.004-.006.022-.05c.026-.047.047-.088.093-.166l.019-.038.002-.007.031-.049.056-.105.003-.004.005-.015a38.182 38.182 0 0 1 2.51-3.835l.006-.01c.279-.382.583-.776.909-1.189.296-.367.6-.742.924-1.13l.2-.225a57.46 57.46 0 0 1 1.038-1.153 37.746 37.746 0 0 1 4.42-4.08c1.979-1.544 4.23-2.98 6.785-4.098a28.365 28.365 0 0 1 4.947-1.655c7.349-1.7 13.965.559 18.764 3.257a38.162 38.162 0 0 1 4.682 3.117 34.65 34.65 0 0 1 2.77 2.391M139.67 243.72c-.19-.42-.375-.843-.548-1.271a32.05 32.05 0 0 1-.952-2.743c-.04-.135-.092-.274-.126-.407l.016-.248c-.32-1.17-.555-2.35-.652-3.51-.015-.158-.008-.315-.01-.472l-.005-.084v-.037a16.67 16.67 0 0 1-.035-.638v-.329c0-.137 0-.27.003-.404.003-.132.01-.27.019-.4.02-.304.069-.598.11-.894.077-.504.176-1 .316-1.484.073-.255.172-.508.26-.756.003-.006.008-.013.008-.017a10.65 10.65 0 0 1 .839-1.771c.164-.274.314-.552.51-.811.107-.148.217-.306.34-.45.229-.28.477-.554.745-.819.015-.018.034-.033.052-.05.253-.253.523-.495.817-.733l.006-.006c0-.002.003-.004.007-.008.003 0 .004-.006.004-.006h.006l.011-.013h.001v-.004l.028-.018-.028.008-.003.002-.026.007h-.001l-.006.004-.024.008.024-.02h.003v-.001l.004-.004.017-.01.011-.013-.022.002-.006.004h-.004l-.007.002h-.014l-.02.004h-.017c-.166.018-.572.069-1.141.171-.821.15-1.994.398-3.361.829l-.059.012-.162.06c-.89.285-1.84.658-2.823 1.105-.06.024-.118.051-.176.075-.177.075-.356.148-.536.24-.163.075-.315.165-.473.246-.013.01-.033.02-.045.028a20.314 20.314 0 0 0-4.174 2.878l-.02.017c-.164.154-.325.319-.493.48l-.06.062a.974.974 0 0 0-.093.094h-.004v-.004c-.03-.03-.062-.056-.089-.09a.959.959 0 0 1-.065-.062c-.167-.161-.328-.325-.494-.48l-.019-.017c-1.32-1.191-2.746-2.128-4.169-2.877-.02-.01-.031-.018-.051-.029-.155-.081-.31-.171-.471-.246a7.646 7.646 0 0 0-.535-.24c-.06-.024-.12-.05-.178-.075a25.956 25.956 0 0 0-2.822-1.104l-.161-.06-.06-.013a27.732 27.732 0 0 0-3.363-.829 17.889 17.889 0 0 0-1.14-.171h-.017l-.02-.004h-.011l-.007-.002h-.005l-.006-.004h-.003l-.018-.002.012.012.015.01.003.005.002.002.025.02-.025-.008-.005-.004h-.003l-.02-.007-.006-.002-.026-.008.023.017.003.004.015.013c.002 0 .002.006.005.006l.009.008a10.547 10.547 0 0 1 .821.738c.019.018.04.033.054.052.269.264.517.538.745.818.124.144.231.302.339.45.197.26.346.537.512.81.34.57.608 1.166.837 1.772.002.004.002.01.007.017.09.248.188.501.262.756.138.484.24.98.314 1.484.047.296.092.59.111.894.013.131.014.268.02.4.003.134 0 .267 0 .404v.047l.003.222v.06c-.009.214-.02.422-.035.639v.018l-.002.018-.004.084c0 .157.004.314-.01.473-.098 1.16-.333 2.34-.646 3.509l.013.248c-.036.133-.088.272-.128.407-.27.92-.592 1.837-.953 2.743a39.122 39.122 0 0 1-1.02 2.28 51.42 51.42 0 0 1-3.003 5.332c2.258-.343 4.685-.63 7.26-.833a105.02 105.02 0 0 1 6.165-.325c.215-.013.419-.03.637-.036h2.763c.215.006.424.023.634.036 2.146.051 4.197.162 6.166.325 2.574.204 5.002.49 7.26.833a50.661 50.661 0 0 1-3.475-6.34M146.49 210.728l-.084-.028a62.398 62.398 0 0 1-4.67-3.29c-1.191-.929-2.358-1.9-3.46-2.963-1.851-1.788-3.548-3.783-4.931-6.027l-.018-.019a24.587 24.587 0 0 1-2.538-5.473 23.411 23.411 0 0 1-1.01-4.886l-.006-.032-.002-.041a43.04 43.04 0 0 1-.118-2.662l-.004-.175-.012-.14-.006.14v.175c-.01.358-.01.717-.015 1.07.021.467.149 3.03.639 6.55.745 5.388 2.333 13.007 5.645 18.721.082.14.167.274.25.413h-.005s.076.124.2.318c.353.565.725 1.102 1.118 1.618.069.092.142.195.215.293.057.08.115.156.175.236l.004.002c.425.561.902 1.156 1.414 1.724.104-.065.214-.124.319-.19.667-.391 1.34-.785 2.019-1.187.376-.223.756-.437 1.137-.66.286-.163.572-.332.864-.493.207-.117.414-.233.624-.344.026-.009.044-.028.071-.038l.084-.045c.154-.084.31-.161.463-.24l.004-.002c.006 0 .01-.006.018-.01a.311.311 0 0 1 .055-.03c.352-.185.704-.373 1.062-.55.106-.053.215-.102.326-.155.414-.2.834-.392 1.255-.576l.108-.05c.065-.03.133-.062.2-.09l.002-.002-.303-.176c-.491-.292-.935-.565-1.089-.686M190.447 163.892l-.04-.153c-.021-.07-.035-.148-.061-.227-.091-.354-.226-.765-.394-1.226l-.031-.08a27.212 27.212 0 0 0-1.164-2.658l-.081-.163a35.583 35.583 0 0 0-.914-1.721 42.797 42.797 0 0 0-2.195-3.52c-1.47-2.14-3.25-4.362-5.335-6.414l-.042-.038a34.092 34.092 0 0 0-4.982-4.048 28.105 28.105 0 0 0-4.436-2.422c-3.86-1.643-8.232-2.398-13.094-1.61-2 .328-3.85.884-5.567 1.61-2.686 1.141-5.04 2.71-7.093 4.53a31.827 31.827 0 0 0-3.608 3.782c-.235.29-.472.574-.693.867a40.53 40.53 0 0 0-1.355 1.892c-.17.252-.332.503-.498.757a48.427 48.427 0 0 0-3.048 5.534 55.244 55.244 0 0 0-3.226 8.662c-.29 1.068-.424 1.7-.424 1.7.136-.357.281-.695.424-1.034.522-1.21 1.1-2.304 1.725-3.258a49.794 49.794 0 0 1 4.735-6.121 43.515 43.515 0 0 1 3.127-3.13l.07-.099a34.217 34.217 0 0 1 2.771-2.392 37.646 37.646 0 0 1 4.68-3.116c4.794-2.698 11.416-4.957 18.764-3.257 1.753.41 3.405.979 4.945 1.655 2.555 1.118 4.808 2.553 6.783 4.099a38.038 38.038 0 0 1 4.425 4.08c.36.388.707.773 1.035 1.152.064.074.136.152.199.225a45.561 45.561 0 0 1 1.838 2.319l.002.01a38 38 0 0 1 2.51 3.835l.001.015.007.004.056.105.03.05.002.006.019.038c.047.078.068.12.092.165l.028.051.003.006v-.014l.011-.22v-.115l.006-.002v-.07l-.008-.042"/>
  <path fill="#8f202f" d="M160.113 260.345a152.695 152.695 0 0 0-5.558-1.754l-.01.013-2.85-.811a87.92 87.92 0 0 0-9.205-1.923l-.194-.028-.653-.096c-3.592-.518-7.62-.897-12.063-1.004l-.098-.002-.096-.003-.427-.027h-2.512l-.427.027-.094.003-.097.002c-4.443.107-8.47.486-12.067 1.004l-.65.096-.197.028a88.092 88.092 0 0 0-9.205 1.923l-2.849.81-.009-.012c-2.064.606-3.93 1.208-5.559 1.754-1.03.347-1.97.673-2.807.963l-.084.032h70.607l-.084-.032c-.838-.29-1.777-.616-2.812-.963M135.945 224.585l.004-.006h.002zm-2.204.837h-.01l.086-.027zm29.69-4.38c-.765-.973-1.504-1.78-2.215-2.435a12.787 12.787 0 0 0-1.942-1.518 8.586 8.586 0 0 0-2.177-.985 7.41 7.41 0 0 0-2.092-.29c-.817 0-1.667.125-2.574.36-.135.035-.28.086-.415.131-.132.043-.256.076-.386.12-.465.15-.941.338-1.43.54a23.32 23.32 0 0 0-1.55.702c-.013.006-.022.01-.035.014a36.63 36.63 0 0 0-1.005.515l-.015.008c-.11.056-.222.111-.334.17l-.475.266a.576.576 0 0 0-.066.037c-.085.045-.168.092-.256.139a.849.849 0 0 1-.076.045c-1.067.6-2.166 1.255-3.294 1.923-.49.289-.988.58-1.49.872-.074.04-.144.081-.22.124a.014.014 0 0 1-.004.004c-.134.079-.27.154-.403.233a.859.859 0 0 1-.073.041 2.16 2.16 0 0 0-.1.055c-.146.084-.293.168-.44.247-.04.025-.078.045-.115.068a.04.04 0 0 1-.016.007c-.003.002-.01.002-.012.006a33.148 33.148 0 0 1-.824.451c-.027.018-.058.03-.086.047a.23.23 0 0 1-.048.024c-.033.017-.057.034-.088.047-.005.004-.011.004-.014.01-.124.064-.24.127-.363.19-.164.089-.326.176-.494.26-.107.056-.226.11-.334.165-.528.263-1.065.516-1.605.757l-.136.063c-.057.022-.106.05-.162.07-.022.01-.042.022-.065.03-.015.007-.03.014-.05.02-.019.013-.039.017-.055.028l-.447.18c-.238.097-.474.195-.707.28a29.84 29.84 0 0 1-.92.321 5.747 5.747 0 0 1-.223.08c-.038.008-.074.026-.111.036-.084.029-.164.058-.247.084-.093.028-.189.053-.28.077l-.023.004c-.126.037-.255.07-.379.107-.124.034-.247.069-.372.1a.287.287 0 0 1-.053.016c-.01 0-.02.006-.024.006-.301.077-.608.137-.92.201-.157.034-.32.073-.478.099-.082.014-.162.03-.246.042-.213.035-.43.058-.646.086-.202.023-.402.056-.604.077-.29.03-.591.034-.89.045-.187.01-.378.032-.568.032v.004h-.11v-.004c-.192 0-.378-.021-.572-.032-.297-.011-.593-.015-.889-.045-.201-.021-.403-.054-.603-.077-.217-.028-.434-.051-.648-.086-.079-.012-.164-.028-.244-.042-.16-.026-.319-.065-.479-.099-.307-.064-.613-.124-.918-.201-.009 0-.017-.006-.023-.006a.24.24 0 0 1-.054-.017c-.125-.03-.249-.065-.374-.1l-.378-.106c-.006-.002-.014-.002-.017-.004-.092-.024-.19-.049-.283-.077-.083-.026-.166-.055-.25-.084-.034-.01-.074-.028-.109-.036a5.91 5.91 0 0 1-.228-.08 8.499 8.499 0 0 1-.256-.087c-.22-.075-.44-.152-.657-.233-.235-.086-.474-.184-.712-.282-.146-.06-.295-.119-.447-.18-.018-.01-.034-.014-.052-.026a.754.754 0 0 1-.052-.02c-.022-.008-.043-.021-.064-.032-.055-.02-.11-.047-.16-.069-.045-.022-.094-.042-.139-.063-.54-.24-1.076-.494-1.603-.757-.11-.055-.229-.109-.338-.165-.163-.084-.325-.171-.492-.26-.119-.063-.24-.126-.358-.19-.007-.005-.015-.005-.02-.01-.027-.013-.056-.03-.087-.047-.014-.006-.033-.013-.046-.024-.03-.016-.061-.029-.09-.047l-.024-.012a31.112 31.112 0 0 1-.795-.439c-.005-.004-.007-.004-.014-.006-.003-.002-.01-.003-.013-.007-.038-.023-.077-.043-.119-.068-.147-.08-.292-.163-.436-.247a2.26 2.26 0 0 1-.103-.055l-.074-.04c-.135-.08-.269-.155-.4-.234 0 0-.005-.002-.005-.004-.073-.043-.149-.083-.22-.124a190.66 190.66 0 0 1-1.49-.872c-1.13-.668-2.228-1.323-3.296-1.923-.022-.015-.05-.03-.079-.045l-.252-.14c-.023-.014-.043-.024-.065-.036-.161-.087-.32-.18-.476-.265-.114-.06-.224-.115-.335-.171l-.01-.008a43.958 43.958 0 0 0-1.04-.53 25.48 25.48 0 0 0-2.986-1.242c-.126-.043-.254-.076-.384-.119-.138-.045-.276-.096-.415-.13-.907-.236-1.758-.36-2.576-.36a7.4 7.4 0 0 0-2.088.289c-.696.2-1.414.51-2.177.985a12.8 12.8 0 0 0-1.945 1.518c-.71.655-1.45 1.462-2.212 2.435-.08.1-.153.194-.233.297-4.371 7.193 1.12 18.924 1.12 18.924.115.265.216.542.34.805 2.07 4.513 5.015 7.956 8.1 10.509.256.214.51.413.77.606l.088-.024a93.197 93.197 0 0 1 9.988-2.08l.11-.018a51.42 51.42 0 0 0 3.003-5.331 39.122 39.122 0 0 0 1.02-2.281c.361-.906.682-1.823.953-2.743.04-.135.092-.274.128-.407l-.013-.248c-.007-.906-.127-1.737-.367-2.492a7.11 7.11 0 0 0-.389-.925 1.749 1.749 0 0 1-.082-.2l-.01-.018-.05-.125-.047-.08-.1-.164c-.02-.03-.04-.052-.054-.08-.042-.068-.095-.13-.137-.198a6.602 6.602 0 0 0-.324-.459c-.015-.025-.034-.055-.051-.078-.81-1.053-1.841-1.902-2.988-2.573a16.205 16.205 0 0 0-1.446-.735c-.006-.001-.012-.005-.018-.01h-.008a15.97 15.97 0 0 0-1.172-.473l-.257-.096c-.119-.04-.235-.077-.354-.115-.007-.004-.017-.007-.023-.009-.017-.004-.026-.01-.04-.014a26.058 26.058 0 0 0-5.05-1.066l-.072-.01-.055-.005h-.021l.005-.074a5.27 5.27 0 0 1 .255-.926c.003-.017.012-.033.022-.051a4.68 4.68 0 0 1 1.656-2.202 6.086 6.086 0 0 1 1.742-.9c.137-.048.272-.099.407-.133.893-.239 1.864-.305 2.852-.208a9.851 9.851 0 0 1 1.73.336c.356.105.714.22 1.063.37l.026.008.006.002.02.007h.003l.005.004.025.008-.025-.02-.002-.002-.003-.004-.015-.01-.012-.013.017.002h.003l.006.004h.005l.007.002h.011l.02.004h.018c.166.019.572.07 1.14.172.82.149 1.994.398 3.363.828l.06.013.16.06c.889.284 1.842.657 2.823 1.105l.178.075c.178.074.353.147.535.24.16.074.316.164.47.246.02.01.032.019.052.028 1.423.75 2.85 1.686 4.17 2.878l.018.016c.166.155.327.319.494.48.02.022.043.043.065.063.028.031.062.057.089.087v.006h.004v-.006c.032-.03.062-.056.093-.087l.06-.063c.168-.161.328-.325.494-.48l.018-.016a20.314 20.314 0 0 1 4.175-2.878c.012-.009.032-.018.045-.028.157-.082.31-.172.473-.247.18-.092.358-.165.536-.24.058-.023.116-.05.176-.074.983-.448 1.934-.82 2.823-1.105l.162-.06.058-.013c1.368-.43 2.54-.68 3.362-.828.57-.103.975-.153 1.14-.172h.017l.02-.004h.015l.007-.002h.004l.006-.004.022-.002-.012.013-.016.01-.004.004v.002h-.003l-.024.02.024-.008.006-.004.027-.007.003-.002.028-.008c.347-.15.705-.265 1.06-.37a9.841 9.841 0 0 1 1.73-.336 8.064 8.064 0 0 1 2.85.208c.14.034.273.085.408.132a6.106 6.106 0 0 1 1.743.9 4.725 4.725 0 0 1 1.657 2.202c.006.02.017.035.022.052.11.302.2.612.254.926l.006.074h-.019l-.058.006-.074.009a26.114 26.114 0 0 0-5.047 1.066c-.016.004-.024.01-.04.014a.056.056 0 0 0-.022.01c-.12.037-.238.073-.356.114-.083.032-.17.065-.257.096-.391.14-.779.298-1.17.471 0 0-.003.002-.007.002h-.003a16.366 16.366 0 0 0-1.465.745c-1.146.67-2.178 1.52-2.983 2.573-.022.023-.038.053-.06.078a10.42 10.42 0 0 0-.315.459c-.046.068-.097.13-.14.198-.016.028-.036.05-.054.08l-.103.165-.044.08-.052.123-.01.02c-.02.064-.047.132-.08.199a7.121 7.121 0 0 0-.391.925 8.385 8.385 0 0 0-.36 2.492l-.018.248c.035.133.086.272.127.407.274.92.59 1.837.952 2.743a35.065 35.065 0 0 0 1.025 2.28 50.661 50.661 0 0 0 2.999 5.332l.11.018a92.91 92.91 0 0 1 9.989 2.08l.086.024c.26-.193.514-.392.77-.606 3.087-2.553 6.028-5.996 8.105-10.509.119-.263.22-.54.337-.805 0 0 5.489-11.731 1.12-18.924-.077-.103-.157-.197-.233-.297z"/>
  <path fill="#8f202f" d="M190.517 155.724c-.031-1.17-.068-2.355-.13-3.551v-.016a92.875 92.875 0 0 0-.406-5.083l-.003-.008c-1.363-4.309-3.896-8.203-7.286-11.402a30.654 30.654 0 0 0-6.149-4.488c-4.383-2.452-9.52-3.988-15.082-4.247-.147-.005-.296 0-.445-.005-.644-.018-1.286-.032-1.918-.018-2.21.046-4.363.3-6.445.737a34.59 34.59 0 0 0-2.633.652c-4.764 1.382-9.36 3.756-13.2 6.853l-.06.041a33.843 33.843 0 0 0-2.738 2.478l-.013.015c-.242.24-.476.487-.706.74l-.143.148c-.19.213-.374.426-.56.638l-.01.01-.24.273c-.156.189-.307.378-.453.563-.107.135-.213.26-.308.385-.127.166-.252.335-.376.502-.116.157-.231.317-.345.474-.103.148-.197.291-.298.44-.124.184-.257.37-.38.558-.077.13-.157.26-.231.39-.134.208-.261.421-.387.633-.069.118-.132.24-.2.366-.12.22-.251.447-.368.675-.062.121-.113.242-.174.356-.113.239-.232.473-.342.713-.053.118-.098.241-.154.36-.054.13-.108.27-.168.402-.044.108-.092.214-.135.322-.052.128-.094.254-.14.383-.065.17-.129.343-.185.518l-.001-.002v.001l-.001.001v.001l-.002.003v-.013c-.064-.17-.121-.343-.186-.51-.047-.129-.088-.254-.139-.383a11.822 11.822 0 0 0-.137-.321c-.057-.133-.112-.272-.165-.403-.053-.118-.102-.241-.156-.36-.106-.24-.226-.474-.34-.712-.063-.115-.115-.235-.173-.356-.12-.228-.25-.455-.37-.675-.068-.125-.13-.248-.202-.366-.124-.212-.251-.425-.385-.633-.075-.13-.157-.26-.232-.39-.122-.189-.254-.374-.38-.559-.096-.148-.196-.291-.298-.44-.109-.156-.229-.316-.345-.473a56.698 56.698 0 0 0-.372-.503c-.101-.125-.208-.25-.311-.384-.147-.185-.298-.374-.455-.563l-.241-.274-.008-.01c-.185-.211-.366-.424-.561-.638l-.143-.147c-.228-.253-.46-.5-.705-.74l-.009-.015a34.596 34.596 0 0 0-2.74-2.478l-.06-.042c-3.843-3.097-8.436-5.47-13.202-6.852a34.81 34.81 0 0 0-2.632-.652 34.847 34.847 0 0 0-6.443-.738c-.631-.013-1.277 0-1.92.02-.15.004-.293 0-.448.004-5.56.26-10.691 1.795-15.08 4.247a30.706 30.706 0 0 0-6.148 4.487c-3.39 3.2-5.924 7.094-7.288 11.402l-.002.008a89.012 89.012 0 0 0-.404 5.084v.015c-.064 1.197-.1 2.382-.128 3.552-.027 1.095-.04 2.176-.038 3.24l.002.268v.301c0 .13 0 .261.003.39v.156c.014 1.272.04 2.54.091 3.78l.002.074.045-.195c.023-.069.038-.147.062-.226.093-.354.226-.765.396-1.226l.03-.08c.235-.63.534-1.345.904-2.127.083-.175.173-.352.258-.532l.082-.163c.178-.353.368-.722.571-1.1.114-.204.227-.413.344-.62a44.878 44.878 0 0 1 2.194-3.52c1.472-2.14 3.247-4.362 5.334-6.414l.042-.038a34.157 34.157 0 0 1 4.983-4.048 27.942 27.942 0 0 1 4.44-2.422c3.86-1.644 8.23-2.398 13.089-1.61 2 .328 3.851.884 5.57 1.61 2.686 1.141 5.039 2.71 7.096 4.53a32.599 32.599 0 0 1 3.608 3.782c.229.29.467.574.686.866a37.706 37.706 0 0 1 1.854 2.65 47.52 47.52 0 0 1 3.051 5.534 55.267 55.267 0 0 1 3.223 8.662c.292 1.068.426 1.7.426 1.7 1.434 3.737 2.35 8.478 2.498 13.907.015.512.03 1.018.03 1.538 0 .109-.006.212-.006.317 0 .077 0 .16-.003.24l-.002.045-.003.139.011-.14.003-.044v.045l.008.139v.175c.006.358.008.717.016 1.07-.021.467-.152 3.03-.642 6.55-.746 5.388-2.33 13.007-5.644 18.721-.08.139-.166.274-.249.413h.003s-.074.124-.198.317a22.219 22.219 0 0 1-1.115 1.619c-.125.17-.255.349-.391.529l-.005.002a27.226 27.226 0 0 1-1.413 1.724h-.004c.089.051.171.096.26.145.549.323 1.093.633 1.635.935.11.06.224.133.336.191.261.144.517.274.775.411.276.144.554.298.826.437.089.045.175.083.263.128.471.232.94.455 1.403.653.04.018.08.04.12.056l.05.022c.12.05.235.094.356.143.185.077.377.15.562.225.19.069.383.134.57.201.075.024.15.051.22.08.03.01.062.014.086.025.283.09.558.173.836.248.074.018.148.041.224.06.252.065.502.122.752.17.101.021.203.044.304.062.198.034.39.06.586.084.15.02.299.044.447.06.086.003.168.003.257.012.214.015.43.032.647.032h.027c.005 0 .016.006.025.006h.004c.009 0 .016-.006.025-.006h.02c.22 0 .437-.017.658-.032.084-.008.17-.008.253-.013.146-.014.3-.039.45-.06.192-.023.385-.049.583-.083.099-.018.201-.04.306-.063.25-.047.5-.104.75-.169.076-.019.151-.042.227-.06.273-.075.55-.157.832-.248.028-.01.055-.015.084-.025.076-.029.15-.056.222-.08.189-.067.38-.132.569-.201.188-.075.38-.148.563-.225.12-.05.236-.092.356-.143l.052-.022c.041-.017.079-.038.118-.056.465-.198.933-.42 1.406-.653.087-.045.171-.083.261-.128.274-.14.551-.293.825-.437.258-.137.515-.267.773-.41.113-.06.228-.131.342-.192a99.21 99.21 0 0 0 1.635-.935c.086-.05.168-.094.255-.145a26.206 26.206 0 0 1-1.414-1.724l-.004-.002c-.06-.08-.118-.157-.175-.236l-.216-.293a20.995 20.995 0 0 1-1.117-1.619c-.124-.193-.2-.317-.2-.317h.005c-.083-.14-.168-.274-.25-.413-3.312-5.714-4.9-13.333-5.646-18.72-.49-3.52-.617-6.084-.638-6.55.005-.354.005-.713.015-1.07v-.176l.006-.14v-.044l.002.045.014.139v-.14l-.004-.044c-.003-.08-.003-.163-.003-.24-.002-.105-.009-.208-.009-.317 0-.52.017-1.026.032-1.538.146-5.43 1.063-10.17 2.498-13.907 0 0 .134-.632.424-1.7a55.244 55.244 0 0 1 3.226-8.662 48.427 48.427 0 0 1 3.048-5.534c.166-.254.329-.506.498-.757.433-.639.88-1.27 1.355-1.893.22-.292.458-.576.693-.866a31.827 31.827 0 0 1 3.608-3.781c2.052-1.82 4.408-3.39 7.093-4.531a24.355 24.355 0 0 1 5.567-1.61c4.862-.788 9.234-.034 13.094 1.61a28.105 28.105 0 0 1 4.436 2.422 34.092 34.092 0 0 1 4.983 4.048l.041.038c2.086 2.052 3.864 4.273 5.336 6.414a42.797 42.797 0 0 1 2.194 3.52 35.583 35.583 0 0 1 .914 1.72l.08.163a27.212 27.212 0 0 1 1.164 2.66l.032.08c.168.46.303.87.394 1.225.026.08.04.158.06.226l.041.154.008.04v-.073c.05-1.24.077-2.508.09-3.78v-.155c.002-.13.002-.262.002-.391l.002-.25v-.32c.003-1.063-.008-2.144-.032-3.239"/>
  <path fill="#b4b5b4" d="m135.95 224.579-.004.006.006-.006h-.002M133.817 225.395l-.087.027h.01l.077-.027M182.204 162.517l-.007-.007.007.01v-.002M180.341 160.356h.003l-.003-.002v.002M186.703 131.417l-.02-.019.023.02-.002-.001"/>
  <path fill="#ed9d4a" d="M158.156 108.502c-.394-.015-.786-.029-1.177-.029h-.005c-6.723 0-12.989 2.402-18.31 6.045a34.726 34.726 0 0 0-2.208 1.662l-.06.042-.241.21a35.646 35.646 0 0 0-4.048 3.91c-.29.33-.57.676-.85 1.016-.143.171-.285.337-.428.509-.248.318-.486.647-.732.975a42.583 42.583 0 0 0-1.251 1.798c-.178.273-.345.56-.517.84-.187.294-.374.588-.55.888l-.073.125-.079-.125c-.175-.3-.362-.594-.552-.888-.169-.28-.337-.567-.513-.84a41.706 41.706 0 0 0-1.256-1.798c-.24-.328-.48-.657-.729-.975-.138-.172-.287-.338-.428-.51-.28-.339-.563-.685-.848-1.015a36.319 36.319 0 0 0-4.044-3.91l-.247-.21-.053-.042a37.071 37.071 0 0 0-2.215-1.662c-5.32-3.643-11.588-6.045-18.31-6.045h-.006c-.39 0-.783.014-1.176.03-5.444.333-28.01 3.81-31.816 38.468.18-1.121 2.177-12.259 11.085-19.977 3.681-3.192 8.541-5.808 14.957-6.876 7.618-1.278 13.749.106 18.675 2.873.721.402 1.405.845 2.072 1.306 4.66 3.2 8.103 7.638 10.591 12a54.156 54.156 0 0 1 3.49 7.394c.358.93.668 1.809.935 2.617.049.108.093.214.137.321.052.129.092.254.14.384.064.166.122.339.185.509v.013l.002-.003v-.002h.001l.001-.002v-.006c.065-.17.125-.342.186-.508.045-.13.087-.255.14-.384.042-.108.09-.213.134-.322.27-.807.582-1.687.935-2.616a54.784 54.784 0 0 1 3.49-7.394c2.494-4.362 5.932-8.8 10.593-12 .666-.461 1.351-.904 2.072-1.307 4.927-2.767 11.062-4.15 18.675-2.872 6.414 1.068 11.275 3.683 14.959 6.875 8.906 7.719 10.903 18.857 11.083 19.978-3.804-34.658-26.368-38.136-31.816-38.47"/>
  <path fill="#f4be5e" d="M122.814 136.298c-2.488-4.363-5.932-8.8-10.59-12.001a25.678 25.678 0 0 0-2.073-1.306c-4.927-2.767-11.057-4.15-18.675-2.873-6.416 1.068-11.276 3.684-14.957 6.876-8.908 7.718-10.905 18.856-11.085 19.977l-.008.094c1.365-4.308 3.899-8.202 7.288-11.402a30.706 30.706 0 0 1 6.149-4.488c4.388-2.45 9.52-3.987 15.08-4.246.154-.005.298 0 .447-.005.643-.019 1.29-.032 1.92-.019 2.21.046 4.364.301 6.443.738a34.81 34.81 0 0 1 2.632.652c4.766 1.381 9.36 3.755 13.203 6.852l.06.042a34.596 34.596 0 0 1 2.74 2.478l.009.014c.244.242.476.488.704.741l.143.147c.196.213.377.427.561.639l.008.009.242.273c.157.19.307.379.454.564.104.134.21.259.312.384.124.166.25.336.372.503.116.157.236.316.345.473.102.149.201.292.298.44.126.185.257.37.38.56.075.129.156.258.232.389.133.208.26.42.384.633.072.118.135.24.203.366.119.22.249.447.37.675.057.121.11.241.173.356.113.238.233.472.34.713.053.118.102.241.156.36.053.13.107.269.165.401a58.632 58.632 0 0 0-.936-2.616 54.156 54.156 0 0 0-3.49-7.394M189.972 146.971c-.18-1.121-2.177-12.259-11.083-19.977-3.684-3.192-8.545-5.808-14.96-6.876-7.612-1.278-13.747.106-18.674 2.873-.72.402-1.406.845-2.072 1.306-4.66 3.2-8.099 7.638-10.593 12a54.784 54.784 0 0 0-3.49 7.394 67.778 67.778 0 0 0-.935 2.617c.06-.133.114-.272.168-.403.057-.118.102-.241.154-.36.11-.24.23-.473.343-.712.06-.115.111-.235.173-.356.117-.228.248-.455.368-.675.069-.125.132-.248.2-.366.126-.212.253-.425.387-.633.074-.13.155-.26.232-.39.122-.189.255-.374.38-.559.1-.148.195-.291.297-.44.114-.156.229-.316.345-.473l.376-.503c.095-.125.202-.25.308-.384.147-.185.297-.374.454-.563l.24-.274.01-.009c.185-.212.37-.425.56-.638l.142-.148c.23-.253.464-.5.707-.74l.012-.015a33.843 33.843 0 0 1 2.739-2.478l.058-.041c3.842-3.098 8.437-5.472 13.202-6.853a34.59 34.59 0 0 1 2.633-.652 34.88 34.88 0 0 1 6.445-.738c.63-.013 1.274 0 1.917.02.15.004.298 0 .445.004 5.563.26 10.699 1.795 15.082 4.247a30.654 30.654 0 0 1 6.15 4.487c3.39 3.2 5.922 7.094 7.286 11.402l-.006-.094"/>
  <path fill="#cdcdc8" d="M208.188 252.23a74.705 74.705 0 0 1-1.993 2.32 64.517 64.517 0 0 1-3.354 3.472c2.498-6.89 1.654-15.117 1.654-15.117-1.656 4.064-3.537 7.57-5.485 10.576.125-1.973.166-3.87.157-5.624-.02-5.63-1.109-9.558-1.109-9.558a67.626 67.626 0 0 1-1.677 6.205 55.166 55.166 0 0 0-5.875-11.85 58.13 58.13 0 0 0-1.826-2.61 54.158 54.158 0 0 0-8.781-9.32c-.037.059-.074.123-.11.182l-.016.022-.334.535-.013.026c-.427.674-.82 1.278-1.183 1.81-.005.004-.005.008-.005.008-.013.02-.136.205-.332.49l.007-.008c-.185.267-.37.529-.544.777-.245.351-.463.648-.638.888l-.007.006c-.181.247-.333.448-.465.62l-.075.095c-.053.071-.116.134-.173.204 2.369 3.053 4.292 6.338 5.658 9.81a38 38 0 0 1 1.106 3.28 35.038 35.038 0 0 1 1.314 8.2l.006.216c.012.365.022.728.022 1.096 0 5.965-1.546 11.647-4.333 16.837-2.334 4.34-5.528 8.342-9.442 11.86-6.52 5.875-14.99 10.427-24.655 13.06a35.802 35.802 0 0 1-1.796-2.3c-3.348-4.692-4.786-9.914-5.26-14.36v-.417l-.032.03a22.475 22.475 0 0 0-1.589 1.597 20.123 20.123 0 0 0-2.83 4.068s-.205-4.316 1.543-9.365c-3.134 2.092-5.742 4.772-7.492 8.175-.008.1-.01.164-.01.164v-.2a.073.073 0 0 1-.022.036c-.002.074-.006.092-.006.117l-.014-.03-.015.03-.011-.03-.018.03-.001-.117c-.008-.007-.016-.022-.025-.036v.2l-.007-.164c-1.755-3.403-4.36-6.083-7.492-8.175 1.75 5.049 1.544 9.365 1.544 9.365a20.336 20.336 0 0 0-2.83-4.068 22.443 22.443 0 0 0-1.588-1.597l-.032-.03v.418c-.474 4.445-1.913 9.667-5.262 14.359a36.486 36.486 0 0 1-1.793 2.3c-9.665-2.633-18.142-7.185-24.662-13.06-3.909-3.518-7.104-7.52-9.435-11.86-2.787-5.19-4.338-10.872-4.338-16.837 0-.368.01-.731.023-1.096l.01-.216a34.87 34.87 0 0 1 1.31-8.2 38.392 38.392 0 0 1 1.11-3.28c1.278-3.251 3.053-6.335 5.22-9.223-.078-.097-.162-.193-.24-.29a6.461 6.461 0 0 1-.427-.5l-.073-.097a29.617 29.617 0 0 1-.464-.619l-.007-.006c-.175-.24-.389-.537-.635-.888 0 .004.003.01.006.013l-.008-.013h.002c-.179-.248-.36-.51-.545-.777l.008.008c-.198-.285-.322-.47-.334-.49 0 0-.002-.004-.006-.007a88.067 88.067 0 0 1-1.183-1.81l-.014-.027c-.057-.088-.093-.15-.142-.227a54.56 54.56 0 0 0-8.173 8.809 54.879 54.879 0 0 0-7.699 14.46 65.673 65.673 0 0 1-1.678-6.206s-1.086 3.927-1.107 9.558c-.01 1.754.032 3.65.158 5.624-1.948-3.006-3.83-6.512-5.488-10.576 0 0-.84 8.227 1.656 15.117a63.328 63.328 0 0 1-3.354-3.471 64.835 64.835 0 0 1-2.62-3.103s1.623 8.827 8.014 17.699c.487.75.997 1.501 1.523 2.238 1.467 2.05 3.076 4 4.81 5.68a141.623 141.623 0 0 0 50.05 37.283c2.114.937 4.249 1.82 6.412 2.651l.053.02a135.537 135.537 0 0 0 9.727 3.317v.035c.025-.006.038-.008.056-.017.021.008.043.01.056.017v-.035c3.297-.986 6.54-2.09 9.73-3.316l.055-.021c2.161-.83 4.295-1.714 6.409-2.65a141.63 141.63 0 0 0 50.051-37.284c1.732-1.68 3.347-3.63 4.813-5.68a67.472 67.472 0 0 0 1.52-2.238c6.393-8.872 8.014-17.699 8.014-17.699-.208.264-.42.525-.625.782"/>
  <path fill="#cdcdc8" d="M92.28 250.652c.248 1.376.662 2.762 1.317 4.098.033.07.056.141.09.208a61.414 61.414 0 0 1 2.852-1.07 75.53 75.53 0 0 1 5.535-1.705c-.26-.193-.513-.392-.77-.606-3.085-2.553-6.03-5.996-8.1-10.509-.123-.263-.225-.54-.34-.805l-.027.083c-.397 1.482-1.105 4.754-.818 8.383.05.632.144 1.276.26 1.923M161.723 254.958c.036-.067.058-.138.09-.206a15.59 15.59 0 0 0 1.32-4.107 19.74 19.74 0 0 0 .258-1.916c.29-3.63-.423-6.9-.818-8.383l-.021-.083c-.116.265-.22.542-.34.805-2.076 4.513-5.02 7.956-8.107 10.509-.254.214-.51.413-.763.606a75.638 75.638 0 0 1 5.53 1.704c1.1.388 2.066.75 2.851 1.071"/>
  <path fill="#3c3c3a" d="M213.67 312.092c-.529.35-1.075.523-1.64.523-.84 0-1.567-.3-2.179-.9-.613-.6-.92-1.389-.92-2.364 0-.91.264-1.685.793-2.325.527-.641 1.25-.96 2.17-.96.586 0 1.094.12 1.523.36.701.392 1.136 1.078 1.306 2.055l-1.41-.022c-.086-.453-.265-.758-.54-.914a1.383 1.383 0 0 0-.758-.219c-.415 0-.754.172-1.02.512-.265.343-.398.858-.398 1.547 0 .684.146 1.18.439 1.49a1.4 1.4 0 0 0 1.054.464c.375 0 .659-.101.852-.307.192-.205.316-.463.37-.774h1.374c-.15.874-.49 1.485-1.017 1.834zm-5.023-5.959c-.88.9-1.32 1.968-1.32 3.203 0 1.28.447 2.369 1.342 3.263.89.897 1.966 1.344 3.226 1.344 1.255 0 2.329-.45 3.218-1.35.89-.906 1.336-1.992 1.336-3.257 0-1.23-.442-2.298-1.329-3.203-.894-.92-1.97-1.38-3.225-1.38-1.27 0-2.353.46-3.248 1.38zm7.12 7.171c-1.076 1.041-2.367 1.56-3.872 1.56-1.555 0-2.866-.532-3.931-1.597s-1.598-2.375-1.598-3.931c0-1.615.575-2.958 1.725-4.028 1.08-1 2.348-1.5 3.804-1.5 1.525 0 2.828.54 3.908 1.62s1.62 2.382 1.62 3.908c0 1.57-.551 2.893-1.657 3.968z"/>
</svg>
