<svg xmlns="http://www.w3.org/2000/svg" viewBox="0 0 256 422.902">
  <path fill="#f22e2e" d="M256 71.626c0-14.359-7.235-27.381-19.478-34.95L186.435 5.622c-.112-.111-.223-.111-.334-.223-11.353-6.79-25.155-7.234-36.842-1.001L43.41 60.16C16.696 74.297 0 101.79 0 132.064v276.702c0 8.57 9.35 14.136 23.93 14.136 2.783 0 5.566-.223 8.46-.556 15.36-2.115 30.83-9.907 30.83-20.703V150.206l33.17 20.592V380.05c0 8.57 9.46 14.135 23.93 14.135 2.783 0 5.565-.222 8.46-.556 15.36-2.115 30.83-9.906 30.83-20.703V79.64L51.757 136.516v252.66c-3.562-1.112-7.68-1.78-12.467-1.78-2.782 0-5.565.223-8.459.556-6.9 1.002-13.801 3.117-19.367 6.122V131.952c0-25.933 14.247-49.641 37.287-61.773l105.74-55.764c8.125-4.34 17.697-4.007 25.6.78 7.902 4.785 12.577 13.133 12.577 22.371v313.656c0 8.57 9.35 14.136 23.93 14.136 2.783 0 5.565-.223 8.46-.557 15.36-2.115 30.83-9.906 30.83-20.702V71.625zM148.146 149.76V360.35c-3.562-1.113-7.68-1.78-12.466-1.78-2.783 0-5.565.222-8.46.556-6.9 1.001-13.8 3.116-19.366 6.121V171.02zm-20.925 232.404c-2.338.334-4.675.445-6.901.445-7.791 0-11.687-2.004-12.466-2.894.779-2.115 8.236-7.457 20.925-9.238 2.338-.334 4.675-.446 6.901-.446 7.791 0 11.687 2.004 12.466 2.894-.779 2.226-8.236 7.57-20.925 9.239zm20.925-245.315-45.857 24.153L68.897 140.3l79.25-41.739zM32.39 399.306c2.337-.334 4.674-.446 6.9-.446 7.792 0 11.687 2.004 12.467 2.894-.78 2.115-8.237 7.458-20.926 9.238-2.337.334-4.674.446-6.9.446-7.792 0-11.688-2.004-12.467-2.894.78-2.115 8.237-7.458 20.926-9.239zm212.146-327.68v260.006c-3.562-1.113-7.68-1.78-12.466-1.78-2.783 0-5.566.222-8.46.556-6.9 1.002-13.801 3.117-19.367 6.122V37.455c0-2.783-.333-5.343-.89-8.014l27.158 16.807c8.793 5.565 14.025 15.026 14.025 25.377zM223.61 353.447c-2.337.334-4.674.445-6.9.445-7.792 0-11.687-2.003-12.467-2.894.78-2.114 8.237-7.457 20.926-9.238 2.337-.334 4.674-.445 6.9-.445 7.792 0 11.688 2.003 12.467 2.894-.78 2.115-8.237 7.457-20.926 9.238zM53.537 91.994c-12.354 5.12-17.808 20.146-18.03 20.703-.78 2.115.333 4.563 2.56 5.342.444.112.89.223 1.446.223 1.67 0 3.34-1.113 3.896-2.783 0-.11 4.452-12.132 13.468-15.916 4.118-1.67 8.57-1.336 13.69 1.002 2.115 1.001 4.563.11 5.565-2.004 1.002-2.115.111-4.563-2.003-5.565-7.346-3.228-14.247-3.562-20.592-1.002zm113.086-47.527c-7.235-3.45-14.136-3.784-20.48-1.113-12.355 5.12-17.81 20.146-18.032 20.703-.779 2.115.334 4.563 2.56 5.342.446.112.89.223 1.447.223 1.67 0 3.34-1.113 3.896-2.783 0-.11 4.452-12.132 13.468-15.916 4.118-1.67 8.57-1.336 13.69 1.002 2.115 1.001 4.564.11 5.565-2.004.78-2.003-.11-4.452-2.114-5.454z"/>
</svg>
