<svg xmlns="http://www.w3.org/2000/svg" viewBox="0 0 256.002 315.302">
  <defs>
    <linearGradient id="a" x1="0" x2="284.109" y1="131.122" y2="131.122" gradientTransform="scale(.90107 1.1098)" gradientUnits="userSpaceOnUse">
      <stop offset="0%" stop-color="#3933FF"/>
      <stop offset="100%" stop-color="#944DFF"/>
    </linearGradient>
  </defs>
  <path fill="url(#a)" d="M152.026 195.894a5.081 5.081 0 0 1 2.276-.543c2.76 0 5.287 2.27 5.287 5.287l-.009 97.921-28.758 15.877c-1.73 1.155-4.104 1.155-6.027 0l-28.78-15.896-.139-.074v-97.699c0-3.976 4.1-6.474 7.563-4.742l21.666 10.767c1.473.768 3.204.768 4.742 0zM50.1 110.376c0-5.066 4.12-8.647 8.582-8.647 1.438 0 2.91.37 4.292 1.185l60.007 33.735c2.575 1.549 5.914 1.549 8.49 0l60.53-33.212c5.913-3.36 12.874.764 12.874 7.463l.502 163.09-25.727 13.812v-127.74c0-3.646-2.378-6.655-5.455-8.008-.893-.393-1.92-.589-3.011-.589-.306 0-.633 0-.96.066-.633 0-1.332.13-1.988.458-.326.065-.631.262-.958.393l-36.092 17.74a6.572 6.572 0 0 1-3.971.895c-1.222 0-2.357-.24-3.448-.895-.066 0-.197 0-.262-.066l-35.328-17.5c-.567-.24-1.156-.502-1.658-.633-3.47-.763-7.048.699-9.034 3.404-.131.131-.197.24-.262.371-.262.393-.458.718-.633 1.157-.262.524-.393 1.025-.524 1.68a7.766 7.766 0 0 0-.196 1.79V287.76l-25.618-13.836-.152-.088zM247.145 0h.288c4.513.072 8.57 3.627 8.57 8.626v233.81a7.47 7.47 0 0 1-3.907 6.546l-21.602 11.544-.131.065V60.428c0-6.699-6.94-10.823-12.613-7.484l-86.018 48.42c-2.574 1.288-5.913 1.288-8.51 0L37.99 52.944c-5.676-3.339-12.612 1.047-12.612 7.484V260.46L3.906 248.982A7.47 7.47 0 0 1 0 242.436V8.626C0 3.629 4.059.072 8.571 0h.288a8.935 8.935 0 0 1 4.277 1.185l110.5 66.466c2.576 1.55 6.154 1.55 8.73 0l110.5-66.466A8.936 8.936 0 0 1 247.146 0z" style="fill:url(#a)"/>
  <path fill="#fff" d="M174.335 152.336c3.077 1.346 5.449 4.36 5.449 8.013v127.684L159.722 298.8v-97.878c0-3.844-4.103-6.474-7.566-4.743l-22.176 10.897c-1.539.768-3.269.768-4.744 0l-21.666-10.769c-3.46-1.73-7.563.77-7.563 4.744V298.8l-19.999-10.767V160.606c0-.641.066-1.22.192-1.796.129-.641.258-1.154.513-1.667.194-.447.384-.768.641-1.154.064-.127.13-.255.258-.384 1.986-2.69 5.575-4.166 9.036-3.398.513.13 1.091.387 1.667.642l35.32 17.498c.063.066.191.066.255.066 1.09.641 2.243.896 3.46.896 1.347.13 2.756-.192 3.976-.896l36.087-17.756c.321-.129.642-.32.963-.384.64-.32 1.344-.45 1.985-.45.321-.063.642-.063.963-.063 1.089 0 2.114.192 3.011.576zm43.548-99.098c5.665-3.35 12.619.772 12.619 7.467v200.108l-24.983 13.393-.513-163.023c0-6.697-6.954-10.815-12.878-7.467l-60.523 33.222c-2.574 1.545-5.922 1.545-8.497 0l-60.007-33.74c-5.667-3.347-12.876.773-12.876 7.47v163.538l-24.726-13.393V60.705c0-6.437 6.955-10.817 12.62-7.467l85.247 48.416c2.575 1.287 5.922 1.287 8.5 0z"/>
</svg>
