<svg xmlns="http://www.w3.org/2000/svg" viewBox="0 0 256 256">
  <path fill="#54485b" d="m174.575 103.526 80.366 23.718c1.412.42 1.412 1.093 0 1.51l-94.872 28.003c-1.412.416-2.896 1.898-3.313 3.311l-28.002 94.874c-.207.705-.482 1.058-.755 1.058-.272 0-.545-.353-.754-1.058L105.71 181.98l46.537-29.227 2.034-1.276zM38.604 146.16l8.637 2.549-1.785 60.471 11.725-3.99 1.564-53.084 8.632 2.548-1.4 47.544 35.783-12.176 2.465 8.356-38.524 13.108-.229 7.84 41.223-12.588 2.463 8.351-52.745 16.106.492-16.714-20.52 6.982zm178.793 0 2.216 75.303-20.73-7.054.495 16.786-52.554-16.047 2.465-8.347 41.03 12.525-.231-7.913-38.316-13.035 2.468-8.356 35.575 12.102-1.4-47.409 8.635-2.549 1.561 52.954 11.933 4.06-1.781-60.471zm-34.73-81.306-34.472 81.441-74.893 47.031 34.474-81.44zM127.999 0c.273 0 .548.352.755 1.058l22.075 74.789-49.14 30.86-19.472 46.001-39.37-11.62-4.057-1.197-37.733-11.137c-1.41-.417-1.41-1.09 0-1.51l94.876-28.002c1.41-.416 2.894-1.896 3.31-3.31l28.002-94.874C127.454.352 127.727 0 128 0zm10.5 117.115c-5.552-5.552-14.552-5.552-20.104 0-5.553 5.55-5.553 14.551 0 20.104 5.552 5.55 14.552 5.55 20.103 0 5.553-5.553 5.553-14.554 0-20.104zM56.412 23.138 109.61 39.38l-2.465 8.35-41.673-12.724.357 12.18 38.05 11.62-2.467 8.35L66.1 56.37l1.325 44.96-8.632 2.55-1.48-50.194-11.863-3.623 1.687 57.257-8.632 2.549-2.115-71.675L57.043 44.5zm142.965 0-.632 21.428 20.862-6.372-2.113 71.675-8.633-2.549 1.689-57.257-12.075 3.687-1.475 50.07-8.632-2.55 1.32-44.836-35.102 10.722-2.462-8.35L189.96 47.25l.36-12.244-41.482 12.664-2.465-8.347z"/>
</svg>
