<svg xmlns="http://www.w3.org/2000/svg" viewBox="0 0 512 222.504">
  <path fill="#20b6ff" d="M434.831 144.067c-186.244-14.84-339.84 30.423-374.714 47.489-19.293 8.904-20.777 20.034-17.809 25.97 2.226 4.452 11.873 7.42 21.519 2.226 74.2-40.068 223.344-71.975 371.004-63.07a6.65 6.65 0 0 0 6.678-6.678c0-2.969-2.968-5.937-6.678-5.937zm46.005-56.392c-8.162 8.904-19.293 15.582-23.003 12.614-3.71-2.968 0-14.098 0-14.098C476.383 74.319 512 43.896 512 20.152c0-21.518-19.292-28.196-39.326-8.162-16.325 17.808-28.197 40.068-34.875 63.813-10.388 10.388-27.454 23.744-42.294 23.744-8.162 0-9.646-5.936-8.904-13.356 12.614 0 48.23-10.388 48.23-40.069 0-5.194-2.226-9.646-5.936-13.356-3.71-3.71-8.162-5.194-13.356-4.452-16.324 0-36.359 16.324-46.747 40.069-2.226-.742-5.194-1.484-7.42-2.968 2.968-5.937 4.452-11.873 6.678-17.809 2.226-12.614-2.968-20.034-12.614-18.55-6.678 0-14.098 5.936-16.324 18.55-.742 6.678.742 13.356 2.968 18.55-4.452 14.099-22.26 31.165-28.196 30.423-5.936-.742.742-25.228 6.678-43.779 3.71-3.71 5.936-7.42 8.162-12.614 1.484-3.71.742-8.162-2.968-9.646-8.904-3.71-19.292.742-23.002 9.646-2.226 4.452-4.453 8.904-6.679 14.098-5.194 5.936-12.614 14.099-14.84 13.357-2.968-2.226 8.162-17.067 6.678-25.97-.742-6.679-7.42-11.873-14.098-11.13-10.388 1.483-23.002 20.775-23.002 20.775 1.484-3.71 2.226-7.42 2.968-11.13-.742-7.42-14.098-10.388-20.776 2.968-4.452 12.614-8.162 25.97-9.646 39.327-2.968 5.936-14.099 23.744-23.003 24.486-7.42.742 1.484-31.906 2.968-33.39 3.71-5.936 8.904-18.55 8.162-24.487 0-2.968-.742-5.194-2.968-6.678s-5.194-2.226-7.42-1.484c-4.452 1.484-8.162 4.452-10.388 8.162-2.968-3.71-8.162-5.936-13.356-5.194-29.68 2.968-48.23 54.909-46.004 79.395 1.484 13.356 8.162 21.518 19.292 19.292 12.614-1.484 23.002-20.776 23.002-20.776s2.968 15.582 17.066 14.098c10.388-2.968 19.292-9.646 25.97-18.55 0 .742-.741 1.484-.741 2.968-2.227 13.356 19.292 11.872 20.776 1.484 6.678-49.714 23.002-69.749 27.454-69.749 3.71 0-10.388 23.003-2.226 32.649 6.678 7.42 17.808 1.484 27.454-6.678-1.484 5.936-2.226 12.614-2.968 18.55-.742 14.098 4.452 25.228 17.809 24.486 17.808-.742 36.358-23.002 48.972-43.778 2.968 2.226 6.678 3.71 10.388 4.452-1.484 5.194-1.484 10.388-1.484 14.84.742 16.324 11.872 22.26 25.229 21.518 14.84-.742 32.648-11.872 44.52-23.002 0 .742 0 1.484-.742 1.484-.742 8.162.742 22.26 11.872 23.002 12.614.742 34.875-11.872 46.005-25.97 8.162-4.452-1.484-13.356-8.162-5.936zm11.872-66.781c1.484 0 2.226 1.484 2.226 2.968 0 14.098-34.133 43.037-34.133 43.037s22.26-46.005 31.907-46.005zm-83.105 28.938c1.484 0 2.226 0 2.968 1.484s.742 2.226.742 2.968c0 8.162-10.388 14.099-22.26 14.099 6.678-9.647 13.356-18.55 18.55-18.55zM179.58 71.351c-.742 8.162-15.582 46.004-23.002 46.004-9.646.742 5.194-52.683 20.776-52.683 2.968 0 2.968 2.227 2.226 6.679zM54.18 81.739c9.647 0-8.161 49.714-5.935 71.233 2.226 21.518 25.97 15.582 24.486 2.968-2.968-21.519 11.872-89.041 25.97-89.041 10.388 0-11.872 46.004-7.42 74.942 2.968 18.55 28.196 13.357 25.228.742-8.162-37.842 18.55-74.2 14.84-100.913-1.483-11.13-8.162-17.066-14.84-17.066-23.744 0-43.036 48.973-43.036 48.973s2.968-27.455-17.066-28.939C28.21 43.154-.728 114.388.014 178.942c.742 20.776 25.97 17.066 24.486.742-1.484-28.938 14.84-97.945 29.68-97.945z"/>
</svg>
