<svg xmlns="http://www.w3.org/2000/svg" viewBox="0 0 255.904 130.688">
  <g stroke-width=".094">
    <path fill="#eb7077" stroke="#eb7077" d="M63.162 3.953c.926-1.574 2.13-3.088 3.86-3.829.71-.123 1.42-.062 2.13-.062h34.957c-1.019.865-2.007 1.76-2.686 2.934-1.791 2.934-2.996 6.207-4.107 9.48-3.15 9.882-5.343 20.042-7.473 30.202a729.84 729.84 0 0 0-2.749 13.834c-2.656 15.07-5.404 30.109-8.832 45.024-1.636 6.886-3.304 13.773-5.836 20.412-1.174 2.748-2.316 5.682-4.57 7.72-.525.463-1.05 1.05-1.792.958h-30.88c-2.1-.062-4.169.123-6.269-.093 1.39-1.08 2.625-2.378 3.428-3.922 2.316-4.416 3.767-9.202 5.157-13.958 2.162-7.658 3.89-15.41 5.528-23.16 1.019-5.096 2.223-10.16 2.964-15.286.834-5.713 2.1-11.364 3.119-17.046 1.606-8.369 3.304-16.738 5.188-25.044 1.513-6.485 3.057-12.94 5.126-19.27 1.02-3.057 2.13-6.083 3.737-8.894z"/>
    <path fill="#f6a2ad" stroke="#f6a2ad" d="M104.11.062c.895 0 1.79-.03 2.686 0 1.976 1.05 3.644 2.718 4.57 4.787 1.236 2.347 2.255 4.817 3.181 7.35 3.088 9.542 5.188 19.362 7.288 29.15a1244.83 1244.83 0 0 1 5.095 26.404c.124.463-.03 1.111.587 1.235-2.224 11.611-4.416 23.253-7.195 34.771-1.513 6.207-3.12 12.384-5.404 18.374-1.236 2.996-2.502 6.27-5.127 8.4-1.667.37-2.872-.896-3.89-2.038-1.76-2.254-2.842-4.91-3.892-7.566-3.489-9.511-5.62-19.424-7.781-29.306-1.637-7.689-3.088-15.44-4.602-23.16-.679-3.922-1.605-7.782-2.13-11.704-.093-.062-.31-.185-.402-.247a729.84 729.84 0 0 1 2.749-13.834c2.13-10.16 4.323-20.32 7.473-30.202 1.111-3.273 2.316-6.546 4.107-9.48.68-1.173 1.667-2.069 2.686-2.934z"/>
    <path fill="#eb7077" stroke="#eb7077" d="M142.741 5.405c1.112-2.13 2.47-4.509 4.88-5.312 12.259-.061 24.518-.03 36.778-.03-1.143 1.142-2.347 2.285-3.12 3.736-2.377 4.262-3.767 8.986-5.187 13.65-3.644 12.846-6.207 25.97-8.647 39.094-2.254 12.939-4.663 25.878-7.41 38.755-1.421 6.485-2.904 12.94-4.787 19.331-1.205 3.953-2.47 7.937-4.447 11.612-.958 1.667-2.07 3.489-3.891 4.354-11.704.092-23.439 0-35.142.03-.649 0-1.328 0-1.977-.092 2.625-2.13 3.891-5.404 5.127-8.4 2.285-5.99 3.89-12.166 5.404-18.373 2.779-11.519 4.971-23.16 7.195-34.772 2.686-14.977 5.497-29.954 9.079-44.746 1.667-6.392 3.273-12.877 6.145-18.837z"/>
    <path fill="#f6a2ad" stroke="#f6a2ad" d="M184.399.062c.988 0 2.007-.03 2.995 0 1.606.834 2.749 2.255 3.768 3.706 1.667 2.656 2.717 5.651 3.798 8.585 2.563 7.874 4.478 15.965 6.238 24.056 2.347 10.9 4.385 21.863 6.392 32.826.494 2.625.988 5.28 1.297 7.936l.463.463c-1.111 1.545-1.544 3.397-2.161 5.158-1.946 6.268-3.212 12.753-4.293 19.207-.833 5.065-1.976 10.098-3.55 14.977-1.174 3.613-2.595 7.196-4.942 10.222-1.112 1.451-2.625 2.563-4.292 3.304-2.563.278-4.076-2.192-5.312-4.014-2.563-4.478-3.952-9.48-5.435-14.36-4.879-18.065-8.06-36.563-11.487-54.936a.812.812 0 0 0-.433-.649c2.44-13.124 5.003-26.248 8.647-39.095 1.42-4.663 2.81-9.387 5.188-13.649.772-1.451 1.976-2.594 3.119-3.737zM.01 70.316c.804-.062 1.607-.185 2.44-.185h33.66c1.42.185 2.903.061 4.262.679a12.143 12.143 0 0 1 5.033 3.86c.155-.093.433-.34.587-.463-.741 5.126-1.945 10.19-2.964 15.286-1.637 7.75-3.366 15.502-5.528 23.16-1.39 4.756-2.841 9.542-5.157 13.958-.803 1.544-2.038 2.841-3.428 3.922-.525.093-.926-.278-1.359-.556-1.451-.926-2.285-2.532-3.18-3.984-4.23-9.634-4.694-20.288-7.319-30.355-1.328-5.034-2.965-10.036-5.373-14.668-1.482-2.78-3.304-5.435-5.682-7.566-1.76-1.42-3.799-2.563-5.991-3.088z"/>
    <path fill="#eb7077" stroke="#eb7077" d="M212.068 73.527c1.945-2.192 4.848-3.582 7.782-3.458h25.322c3.52.062 7.071-.124 10.592.092-1.05.71-2.316.989-3.428 1.575-3.86 1.76-7.164 4.694-9.264 8.369-3.366 5.867-4.54 12.6-5.528 19.208-.988 6.485-.957 13.186-3.057 19.485-1.42 4.416-3.582 8.863-7.319 11.766-11.61.123-23.222.03-34.802.062-.772 0-1.513.03-2.254-.124 1.667-.741 3.18-1.853 4.292-3.304 2.347-3.026 3.768-6.609 4.941-10.222 1.575-4.879 2.718-9.912 3.551-14.977 1.081-6.454 2.347-12.939 4.293-19.207.617-1.76 1.05-3.613 2.161-5.157.927-1.36 1.544-2.934 2.718-4.108z"/>
  </g>
</svg>
