<svg xmlns="http://www.w3.org/2000/svg" viewBox="0 0 512 116.311">
  <path fill="#f60" d="M490.117 105.048c-1.38 6.206-7.816 11.263-14.022 11.263H9.241c-6.436 0-10.344-5.057-8.965-11.263l21.608-93.785C23.494 5.057 29.7 0 36.135 0H502.76c6.436 0 10.344 5.057 8.965 11.263l-21.607 93.785"/>
  <path fill="#fff" d="m209.912 43.444-10.344 48.961h-48.04c-5.288 0-9.426-2.068-12.414-6.436-2.988-4.367-3.678-9.424-2.528-14.941 1.15-5.747 4.137-10.574 8.734-14.941 4.828-4.368 9.885-6.436 15.172-6.436h31.261l1.15-5.287c.23-1.379 0-2.759-.69-3.678-.69-1.149-1.839-1.609-3.218-1.609H147.62l3.678-17.7h42.295c5.747 0 10.344 2.069 13.562 6.666 2.988 4.138 4.138 9.425 2.758 15.401zm-49.88 20.458c-1.379 0-2.759.46-3.908 1.609-1.149 1.15-2.069 2.299-2.298 3.678-.23.69-.23 1.379 0 2.069.23.689.46 1.149.69 1.609.46.46.92.919 1.378 1.149.46.23 1.15.46 1.84.46h28.732l2.3-10.574zm91.716-7.126 15.4 35.629h-21.607l-7.815-20.687-16.55 20.687h-21.378l30.572-35.629-15.63-35.399h21.607l7.815 20.688 16.55-20.688h21.607z"/>
  <path fill="#fff" d="M329.442 39.077h-31.95c-1.61 0-3.22.69-4.599 1.839s-2.298 2.758-2.758 4.367l-5.057 22.987c-.46 1.839-.23 3.218.69 4.367.92 1.149 2.298 1.839 3.907 1.839h36.32l-3.909 17.7h-37.928c-5.746 0-10.343-2.069-13.562-6.437-3.218-4.367-4.137-9.654-2.988-15.63l5.747-26.665c1.38-5.976 4.367-11.263 9.424-15.631 5.057-4.367 10.574-6.665 16.321-6.665h33.79zm74.476 17.47c1.838-8.965 0-17.93-5.517-24.596-5.287-6.666-13.792-10.574-22.987-10.574h-32.41l-15.172 71.028h38.618c17.01-1.149 32.64-14.481 36.318-31.261zm-17.7-3.908-.92 4.597c-1.838 8.965-11.723 17.01-21.147 17.01H350.36l7.356-34.939h17.7c3.677 0 6.895 1.379 8.964 3.678 2.07 2.528 2.53 5.976 1.84 9.654zm91.026-9.195L466.9 92.405h-16.78l10.114-47.122c.23-.919.23-1.609 0-2.298-.23-.69-.459-1.38-.919-2.069-.46-.46-.92-.92-1.609-1.379-.69-.23-1.379-.46-2.069-.46h-28.043L416.1 92.405h-16.78l15.171-71.028h46.433c5.746 0 10.344 2.069 13.562 6.666 2.988 4.138 3.907 9.425 2.758 15.401zM131.988 29.882c-4.367-5.516-11.263-8.505-18.619-8.505H42.341l8.505 18.16-11.263 52.868h18.62l11.262-52.868h15.861L74.063 92.405h18.62l11.262-52.868h9.424c2.07 0 3.678.689 4.598 1.839.92 1.149 1.38 2.988.92 4.827l-9.885 46.202h18.62l8.964-42.295c1.38-7.355-.23-14.711-4.598-20.228z"/>
</svg>
