<svg xmlns="http://www.w3.org/2000/svg" viewBox="0 0 256 225.8">
  <defs>
    <linearGradient id="a" x1="120.213" x2="120.213" y1="240.472" y2="0" gradientTransform="scale(1.06478 .93917)" gradientUnits="userSpaceOnUse">
      <stop offset="0%" stop-color="#2075BC"/>
      <stop offset="100%" stop-color="#29AAE1"/>
    </linearGradient>
    <linearGradient id="b" x1="60.23" x2="60.23" y1="120.424" y2="0" gradientTransform="scale(.53322 1.8754)" gradientUnits="userSpaceOnUse">
      <stop offset="0%" stop-color="#0A6AA8"/>
      <stop offset="100%" stop-color="#1699C8"/>
    </linearGradient>
    <linearGradient id="c" x1="179.969" x2="179.969" y1="120.518" y2="0" gradientTransform="scale(.53363 1.87394)" gradientUnits="userSpaceOnUse">
      <stop offset="0%" stop-color="#2075BC"/>
      <stop offset="100%" stop-color="#29AAE1"/>
    </linearGradient>
    <linearGradient id="d" x1="299.76" x2="299.76" y1="120.518" y2="0" gradientTransform="scale(.53363 1.87394)" gradientUnits="userSpaceOnUse">
      <stop offset="0%" stop-color="#0A6AA8"/>
      <stop offset="100%" stop-color="#1699C8"/>
    </linearGradient>
    <linearGradient id="e" x1="419.879" x2="419.879" y1="120.424" y2="0" gradientTransform="scale(.53322 1.8754)" gradientUnits="userSpaceOnUse">
      <stop offset="0%" stop-color="#2075BC"/>
      <stop offset="100%" stop-color="#29AAE1"/>
    </linearGradient>
  </defs>
  <path fill="url(#a)" d="M192.1.1V0l-.2.1-.1-.1v.1L128 25.6 64.2.1V0l-.1.1-.2-.1v.1L0 25.7v200.1l64.1-24.5 63.7 24.4v.1h.4v-.1l63.7-24.4 64.1 24.5V25.7z" style="fill:url(#a)"/>
  <path fill="url(#b)" d="M0 25.7v200.1l64.2-24.5V0z" style="fill:url(#b)"/>
  <path fill="url(#c)" d="M128.2 25.7v200.1l-64.3-24.5V0z" style="fill:url(#c)"/>
  <path fill="url(#d)" d="M127.8 25.7v200.1l64.3-24.5V0z" style="fill:url(#d)"/>
  <path fill="url(#e)" d="M256 25.7v200.1l-64.2-24.5V0z" style="fill:url(#e)"/>
  <path fill="#fff" d="M219.8 117c-2.3-6.7-1.6-18.2-2.8-19.9-7.5-10.3-34.8-12.1-47.1-25.6 2.2-6.7-2.2-12.2-6.7-16.4-6.7-4.9-16.1-2.7-23.3-.8-8.2-1.7-15.8-4.7-23.7-7-17.8-1.9-35.4 10.6-35.4 10.6-12.7 8-32.6 24.7-42.1 34.5 2.3.3 4.8-1.4 7.4-1.7L64.4 86c-7.6 6.3-23.6 17.3-28.2 26 5.7-1.9 17.6-8.5 23.6-9-5.2 4.6-16 13.3-19.5 18.8.4.2.1.7.2 1 4.5-2.5 15.3-8.9 20.2-9.3-5.1 5.3-14.4 15.4-16.5 22.2 4.4-2.9 15.5-8.7 20.3-10.5-1.1 2.7-3.6 4.7-5.2 7.4-2.2 3.7-7.4 7.9-7.6 12.4 3.9-3.6 8.7-6.7 13.5-9.3-2.2 4.5-6.1 8.2-7.2 13.5 3.2-3.1 9.1-4.6 13.2-6l-.5.5c-.3.3-4.9 3.5-8 7.1 2.8-.2.7-.5 4.2.3l1.9.1c-.9.5-2 1-3.1 1.6-1.7.9-3.5 1.9-5.4 2.9 7.6 9.7 17 17.4 27.7 22.7 14 6.9 29.4 9.1 44.7 7.3l-.6-2.7c-.3-1.1-.6-2.2-1-3.2 0-.1 0-.1-.1-.2 5.2-9.7 2.5-26.4 15.9-33.1 9-4.6 10.1-7.1 20.4-5.2 5.6 1.1 17.9 5.3 23.7 4 5.3-3 8-4.3 12.6-7.8 5.8 1 7.6.5 9.8-2.6-1.9 2.7 3.7-10.4 6.1-15.4z"/>
  <path fill="#f2f2f2" d="M62.5 150.9c2.2-.1 1.3-.4 2.7 0v-2.7c-.9.7-1.8 1.7-2.7 2.7zM36.2 112c5.7-1.9 17.6-8.5 23.6-9-5.2 4.6-16 13.3-19.5 18.8.4.2.1.7.2 1 4.5-2.5 15.3-8.9 20.2-9.3-5.1 5.3-14.4 15.4-16.5 22.2 4.4-2.9 15.5-8.7 20.3-10.5-1.1 2.7-3.6 4.7-5.2 7.4-2.2 3.7-7.4 7.9-7.6 12.4 3.9-3.6 8.7-6.7 13.5-9.3-2.2 4.5-6.1 8.2-7.2 13.5 1.8-1.8 4.6-3 7.4-4v-76C55.4 77 45 86.1 38.9 92.4c2.3.3 4.8-1.4 7.4-1.7L64.4 86c-7.6 6.2-23.5 17.2-28.2 26zm29.1 41.1c-1.6.9-3.3 1.8-5.1 2.7 1.6 2 3.3 4 5.1 5.9zM191.8 84.3c-8.2-3.1-16.5-6.8-21.8-12.7 2.2-6.7-2.2-12.2-6.7-16.4-6.7-4.9-16.1-2.7-23.3-.8-4-.9-7.9-2-11.7-3.2v135c1.5-.1 2.9-.2 4.4-.4l-.6-2.7c-.3-1.1-.6-2.2-1-3.2 0-.1 0-.1-.1-.2 5.2-9.7 2.5-26.4 15.9-33.1 9-4.6 10.1-7.1 20.4-5.2 5.6 1.1 17.9 5.3 23.7 4 .3-.1.5-.3.8-.4z"/>
</svg>
