<svg xmlns="http://www.w3.org/2000/svg" viewBox="0 0 512 211.478">
  <path fill="#fff" d="M19.478 2.783h473.044c9.22 0 16.695 7.475 16.695 16.695V192c0 9.22-7.475 16.696-16.695 16.696H19.478c-9.22 0-16.695-7.475-16.695-16.696V19.478c0-9.22 7.475-16.695 16.695-16.695z"/>
  <path fill="#eaeaea" d="M19.478 0h473.044C503.279 0 512 8.72 512 19.478V192c0 10.758-8.72 19.478-19.478 19.478H19.478C8.721 211.478 0 202.758 0 192V19.478C0 8.721 8.72 0 19.478 0zm0 5.565c-7.684 0-13.913 6.23-13.913 13.913V192c0 7.684 6.23 13.913 13.913 13.913h473.044c7.684 0 13.913-6.229 13.913-13.913V19.478c0-7.684-6.23-13.913-13.913-13.913z"/>
  <path d="m303.879 93.92 15.74 15.742-57.642 57.638-58.37-58.369 15.742-15.74 31.085 31.084V40.203h22.262l-.002 84.896zM112.417 137.49l40.56-40.558v65.383h22.26V43.192l-62.819 62.816-62.517-62.521v119.492h22.261V97.232z"/>
  <path fill="#f9ac00" d="m416.438 99.54 45.699 45.7-15.74 15.74-45.701-45.698-45.7 45.699-15.741-15.741 45.695-45.7-47.146-47.148 15.74-15.74 47.152 47.145 47.15-47.146 15.741 15.741z"/>
</svg>
