<svg xmlns="http://www.w3.org/2000/svg" viewBox="0 0 256 145.39">
  <path d="M72.2 0c39.876 0 72.2 32.549 72.2 72.696 0 40.148-32.326 72.694-72.2 72.694-39.872 0-72.2-32.546-72.2-72.694C0 32.55 32.325 0 72.2 0zm115.3 4.258c19.938 0 36.101 30.638 36.101 68.438h.002c0 37.791-16.163 68.438-36.1 68.438-19.938 0-36.1-30.647-36.1-68.438 0-37.79 16.16-68.438 36.097-68.438zm55.803 7.129c7.011 0 12.697 27.449 12.697 61.31 0 33.85-5.684 61.31-12.697 61.31-7.013 0-12.694-27.452-12.694-61.31 0-33.859 5.684-61.31 12.694-61.31z"/>
</svg>
