<svg xmlns="http://www.w3.org/2000/svg" viewBox="0 0 256 256">
  <path fill="#12100e" d="M0 0h256v256H0z"/>
  <path fill="#fff" d="M61.09 85.617a6.661 6.661 0 0 0-2.167-5.62L42.865 60.655v-2.89h49.86l38.539 84.52 33.882-84.52h47.53v2.89l-13.729 13.163a4.013 4.013 0 0 0-1.525 3.853v96.721a4.013 4.013 0 0 0 1.525 3.853l13.409 13.164v2.89h-67.443v-2.89l13.89-13.485c1.365-1.364 1.365-1.766 1.365-3.853V95.89l-38.62 98.086h-5.218L71.368 95.891v65.738a9.069 9.069 0 0 0 2.489 7.545l18.065 21.913v2.89H40.697v-2.89l18.066-21.913a8.747 8.747 0 0 0 2.328-7.545z"/>
</svg>
