<svg xmlns="http://www.w3.org/2000/svg" viewBox="0 0 1108.003 361.4">
  <path fill="#d9272e" d="M180.7 0C80.9 0 0 80.9 0 180.7c0 99.8 80.9 180.7 180.7 180.7 99.8 0 180.7-80.9 180.7-180.7C361.4 80.9 280.5 0 180.7 0zm93.8 244.6c0 3.1-2.5 5.6-5.6 5.6h-23.6c-3.1 0-5.6-2.5-5.6-5.6v-72.7c0-.6-.7-.9-1.2-.5l-50 50c-4.3 4.3-11.4 4.3-15.7 0l-50-50c-.4-.4-1.2-.1-1.2.5v72.7c0 3.1-2.5 5.6-5.6 5.6H92.4c-3.1 0-5.6-2.5-5.6-5.6V116.8c0-3.1 2.5-5.6 5.6-5.6h16.2c2.9 0 5.8 1.2 7.9 3.3l62.2 62.2c1.1 1.1 2.8 1.1 3.9 0l62.2-62.2c2.1-2.1 4.9-3.3 7.9-3.3h16.2c3.1 0 5.6 2.5 5.6 5.6z"/>
  <g fill="#2c2b2b">
    <path d="M782 139.7v-19.5c0-3.1-2.5-5.6-5.6-5.6h-107c-3.1 0-5.6 2.5-5.6 5.6v127.9c0 3.1 2.5 5.6 5.6 5.6h107c3.1 0 5.6-2.5 5.6-5.6v-19.4c0-3.1-2.5-5.6-5.6-5.6h-76.5c-.8 0-1.4-.6-1.4-1.4v-22.2c0-.8.6-1.4 1.4-1.4h76.5c3.1 0 5.6-2.5 5.6-5.6v-16.7c0-3.1-2.5-5.6-5.6-5.6h-76.5c-.8 0-1.4-.6-1.4-1.4v-22.2c0-.8.6-1.4 1.4-1.4h76.5c3.2.1 5.6-2.4 5.6-5.5zM1079.5 253.7h24.3c3.1 0 5.1-3.2 3.8-6l-61.5-126.8c-1.9-3.8-5.7-6.3-10-6.3h-13.9c-4.3 0-8.1 2.4-10 6.3l-61.5 126.8c-1.3 2.8.7 6 3.8 6h24.3c3.2 0 6.1-1.8 7.5-4.7l11.8-24.3c.5-1 1.4-1.6 2.5-1.6h57.2c1.1 0 2 .6 2.5 1.6l11.8 24.3c1.3 2.9 4.2 4.7 7.4 4.7zm-67.7-57.6 16-33c.5-1 2-1 2.5 0l16 33c.4.9-.2 2-1.3 2h-32c-.9 0-1.6-1.1-1.2-2zM606.3 117.9l-62.2 62.2c-1.1 1.1-2.8 1.1-3.9 0l-62.3-62.2c-2.1-2.1-4.9-3.3-7.9-3.3h-16.2c-3.1 0-5.6 2.5-5.6 5.6v127.9c0 3.1 2.5 5.6 5.6 5.6h23.6c3.1 0 5.6-2.5 5.6-5.6v-72.7c0-.6.7-.9 1.2-.5l50 50c4.3 4.3 11.4 4.3 15.7 0l50-50c.4-.4 1.2-.1 1.2.5v72.7c0 3.1 2.5 5.6 5.6 5.6h23.6c3.1 0 5.6-2.5 5.6-5.6V120.2c0-3.1-2.5-5.6-5.6-5.6h-16.2c-2.9.1-5.7 1.2-7.8 3.3zM937 171.7h-54.9c-3.1 0-5.6 2.5-5.6 5.6v13.9c0 3.1 2.5 5.6 5.6 5.6h31.5c1 0 1.6 1 1.3 1.9-6 15.9-21.6 27.2-39.8 26.6-21.2-.7-38.6-17.8-39.6-39-1.1-23.5 17.7-42.9 41-42.9 9.5 0 18.3 3.3 25.3 8.7 2.2 1.7 5.4 1.6 7.4-.4l14.8-14.8c2.3-2.3 2.1-6.1-.4-8.2-12.9-10.9-29.6-17.4-47.8-17.3-40.1.3-72.7 33.5-72.3 73.7.4 40 32.9 72.3 73 72.3 40.3 0 73-32.7 73-73v-.1c0-7.1-5.6-12.6-12.5-12.6z"/>
  </g>
</svg>
