<svg xmlns="http://www.w3.org/2000/svg" viewBox="0 0 256 256">
  <path fill="#d9272e" d="M128 0C57.306 0 0 57.306 0 128s57.306 128 128 128 128-57.306 128-128S198.694 0 128 0zm66.444 173.26a3.96 3.96 0 0 1-3.967 3.967H173.76a3.96 3.96 0 0 1-3.967-3.967v-51.498c0-.425-.495-.638-.85-.354l-35.418 35.418c-3.046 3.046-8.075 3.046-11.12 0l-35.419-35.418c-.283-.284-.85-.071-.85.354v51.498a3.96 3.96 0 0 1-3.966 3.967H65.453a3.96 3.96 0 0 1-3.967-3.967V82.732a3.96 3.96 0 0 1 3.967-3.967h11.475c2.054 0 4.108.85 5.596 2.338l44.06 44.06c.779.779 1.983.779 2.762 0l44.06-44.06c1.488-1.488 3.471-2.338 5.596-2.338h11.475a3.96 3.96 0 0 1 3.967 3.967z"/>
</svg>
