<svg xmlns="http://www.w3.org/2000/svg" viewBox="0 0 256 327.863">
  <path fill="#010101" d="M0 284.673c4.33-1.909 8.93-2.862 13.35-2.862 4.239 0 6.945 1.04 8.478 3.21 3.247-2.169 7.666-3.21 11.094-3.21 10.284 0 10.644 4.163 10.644 16.393v27.058c0 1.214.18 1.214-4.96 1.214v-28.794c0-8.846-.181-11.536-6.042-11.536-2.615 0-5.322.606-8.209 2.515v37.207c-.09.347-.27.433-.9.52-.092 0-.18.086-.273.086h-3.789v-28.792c0-8.499 0-11.622-6.131-11.622-2.616 0-5.232.52-8.3 1.995v37.207c0 1.214.181 1.214-4.96 1.214v-41.803m67.81-2.862c-7.666 0-16.144 2.167-16.144 25.325 0 17.867 6.222 20.64 14.792 20.64 6.582 0 12.265-2.167 12.265-3.209 0-1.3-.18-3.296-.63-4.424-2.797 1.91-6.767 2.949-11.185 2.949-6.043 0-10.101-1.734-10.194-15.177 3.97 0 14.074-.086 21.56-1.562.63-2.862.9-7.025.9-10.666 0-8.674-3.519-13.876-11.364-13.876m-.452 4.335c5.412 0 6.855 3.555 6.945 10.494 0 1.82-.09 3.989-.361 6.07-5.051 1.215-13.622 1.215-17.23 1.215.635-15.784 6.045-17.779 10.646-17.779m19.664-.52c4.237-2.776 8.119-3.815 12.087-3.815 4.42 0 6.495 1.214 6.495 2.69 0 .866-.273 2.342-.723 3.209-1.264-.695-2.705-1.3-5.053-1.3-2.885 0-5.591.778-7.755 2.687v36.167c0 1.214.09 1.214-5.05 1.214v-40.852m45.536-.953c0-1.128-3.787-2.862-7.576-2.862-7.31 0-16.237 2.515-16.237 23.936 0 20.293 5.414 22.116 14.882 22.116 4.69 0 8.93-2.515 8.93-3.902 0-.78-.178-1.995-.632-3.037-1.895 1.387-4.78 2.69-7.845 2.69-6.494 0-10.283-1.82-10.283-17.606 0-17.433 6.222-19.862 11.635-19.862 3.065 0 4.779.867 6.493 1.995.454-1.04.633-2.515.633-3.468m34.55 40.33c-3.969 1.995-9.198 2.776-13.709 2.776-11.546 0-13.26-4.856-13.26-16.391V284.24c0-1.126-.088-1.126 5.053-1.126v28.795c0 8.673 1.262 11.622 8.026 11.622 2.616 0 6.224-.52 8.93-2.082v-37.207c0-1.126-.18-1.126 4.96-1.126v41.886m10.287-39.377c4.237-2.776 8.117-3.815 12.084-3.815 4.42 0 6.495 1.214 6.495 2.69 0 .866-.27 2.342-.72 3.209-1.264-.695-2.707-1.3-5.053-1.3-2.885 0-5.592.778-7.757 2.687v36.167c0 1.214.092 1.214-5.049 1.214v-40.852m30.16-2.515c-3.97 0-5.14 0-5.14 2.343v41.022c5.05 0 5.14 0 5.14-1.214v-42.15m-5.322-15.264c0 2.862.902 3.902 2.704 3.988 2.076 0 3.068-1.473 3.068-4.076.09-2.688-.633-3.902-2.706-3.902-1.983 0-2.975 1.475-3.066 3.99m13.878 17.778c0-.953.181-1.475.543-1.734 1.714-.953 8.3-2.081 15.785-2.081 5.683 0 9.29 2.69 9.29 10.493v5.637c0 15.438-.45 26.973-.45 26.973-2.076 1.126-5.953 2.863-12.27 2.863-6.493.086-12.986-.52-12.986-13.356 0-12.229 6.674-14.138 13.348-14.138 2.525 0 5.503.261 7.488 1.042v-8.067c0-5.636-2.885-6.85-6.315-6.85-4.598 0-11.001.866-13.798 2.167-.542-.953-.635-2.429-.635-2.949m20.746 19.256c-1.714-.608-4.15-.867-5.863-.867-5.14 0-9.832 1.04-9.832 10.58 0 8.932 3.88 9.02 8.478 9.02 2.887 0 5.774-.78 6.765-1.82.002-.002.452-10.41.452-16.913m19.14 20.38c0 1.214.09 1.214-4.962 1.214v-61.404c0-2.342.992-2.342 4.962-2.342v62.532"/>
  <path fill="#1b1a1b" d="M239.15 190.792c45.73-76.033-9.658-199.349-110.932-186.82-91.503 11.311-92.977 107.622-12.335 130.501 69.787 19.817 14.418 64.082 16.036 93.559 1.624 29.472 60.668 40.165 107.231-37.24z"/>
  <path fill="#1b1a1b" d="M81.333 238.73c21.074-5.542 33.686-27.198 28.17-48.37-5.518-21.17-27.074-33.84-48.149-28.298-21.074 5.542-33.686 27.198-28.169 48.37 5.517 21.171 27.074 33.84 48.148 28.299zM23.78 90.789C9.593 92.169-.794 104.83.579 119.085c1.377 14.265 13.98 24.708 28.172 23.327 14.187-1.398 24.583-14.057 23.203-28.313-1.378-14.245-13.98-24.69-28.172-23.31z"/>
  <path fill="#bfbfbf" d="M239.344 187.38C284.786 111.478 229.75-11.622 129.117.884 38.194 12.176 36.727 108.322 116.86 131.16c69.344 19.783 14.326 63.97 15.934 93.398 1.616 29.418 60.283 40.09 106.55-37.18z"/>
  <path d="M144.453 236.172c-2.753-4.487 1.458-9.472 5.786-9.092 6.89.606 21.892-.082 33.73-6.822 29.573-16.842 75.083-97.88 52.194-148.992-10.248-22.88-15.237-29.431-25.79-40.623-2.154-2.283-.918-2.158.54-1.386 5.707 3.009 15.735 14.663 26.022 33.632 17.38 32.048 16.478 70.148 10.014 94.048-4.502 16.627-20.01 54.239-42.722 70.502-22.763 16.3-49.398 25.648-59.774 8.733zM123.847 131.006c-15.494-4.62-35.468-11.055-47.02-26.236-8.517-11.193-12.84-23.41-13.945-30.337-.393-2.472-.726-4.534-.018-5.103.328-.264 6.36 13.432 15.377 24.911 9.015 11.483 21.616 18.198 32.113 20.638 9.337 2.168 28.677 6.933 35.22 12.533 6.728 5.757 7.29 18.195 5.025 19.598-2.282 1.41-6.912-10.09-26.752-16.004z"/>
  <path fill="#fff" d="M155.794 238.366c-.3 3.563 3.774 4.261 9.257 3.436 7.027-1.059 12.97-1.854 21.059-5.926 10.962-5.52 22.057-13.415 30.182-24.066 24.243-31.775 32.828-69.371 31.506-74.78-.442 4.467-6.294 27.911-19.679 49.047-17.19 27.149-29.655 41.61-58.405 48.62-8 1.953-13.529-1.02-13.92 3.67zM92.03 114.806c3.275 2.79 9.984 6.507 23.184 10.857 15.944 5.251 23.707 9.805 26.958 11.988 3.445 2.317 5.628 7.488 5.844 2.895.225-4.598-2.596-8.552-8.89-10.648-4.26-1.42-11.423-4.804-18.29-6.165-4.414-.875-11.593-2.612-17.75-4.506-3.374-1.042-6.812-2.867-11.056-4.421z"/>
  <path fill="#bfbfbf" d="M81.323 235.65c20.99-5.542 33.552-27.198 28.057-48.37-5.495-21.17-26.966-33.84-47.957-28.298-20.99 5.542-33.552 27.198-28.057 48.37 5.495 21.171 26.966 33.84 47.957 28.298z"/>
  <path d="M47.984 226.194c30.559 28.561 76.556-10.671 56.302-45.323-2.275-3.89-5.228-6.852-4.256-3.872 6.473 19.925.491 35.687-10.67 43.808-10.943 7.965-25.983 9.298-38.025 3-3.536-1.848-5.003.846-3.351 2.387z"/>
  <path fill="#fff" d="M71.962 232.06c3.89-.825 26.52-6.736 31.836-25.509 1.655-5.853 1.953-4.677 1.485-1.505-2.388 16.187-17.558 28.127-30.467 28.57-2.62.272-6.056-.88-2.854-1.556z"/>
  <path fill="#bfbfbf" d="M23.999 87.709C9.866 89.089-.48 101.75.889 116.005c1.37 14.262 13.924 24.708 28.057 23.328 14.133-1.399 24.487-14.06 23.11-28.316C50.686 96.771 38.134 86.328 24 87.71z"/>
  <path d="M12.335 133.238c.157 1.832 2.645 4.186 6.553 5.266 3.358.929 12.014 3.302 23.134-3.777 11.12-7.08 12.403-26.015 7.348-31.584-1.565-2.82-3.6-4.874-1.98-.372 4.088 11.367-3.857 22-10.71 26.925-6.85 4.923-15.538 2.593-19.086 1.502-3.547-1.09-5.418.147-5.259 2.04z"/>
  <path fill="#fff" d="M26.685 135.781c1.02-.925 6.18-.547 10.838-3.074 4.655-2.526 10.19-8.064 11.177-15.932.582-4.621.757-3.46.988-.944-.722 13.082-12.65 20.308-19.472 21.261-1.84.257-5.08.1-3.53-1.31z"/>
  <path fill="#999" d="M230.729 138.073C249.999 82.05 209.673-2.555 128.093 7.623c-73.713 9.192-74.901 87.445-9.938 106.037 73.584 11.235 29.275 67.223 22.99 95.456-5.636 25.31 59.467 29.475 89.584-71.043z"/>
  <path fill="#f3f3f3" d="M180.307 181.832c-19.934-2.488-48.621 42.907-21.573 37.59 27.045-5.312-27.048 5.317 0 0 13.001-1.944 23.772-6.574 33.414-17.674 12.571-14.47 31.351-45.726 36.783-65.922 4.575-17.027 2.276-43.409-2.441-18.621-4.837 25.438-26.248 67.115-46.183 64.627z"/>
  <path fill="#999" d="M46.4 218.143c4.615.078 7.407.734 12.08 4.041 9.239 3.872 26.22 1.419 34.062-8.994 7.842-10.412 8.1-24.758 5.112-33.427-7.31-21.216-38.36-20.84-52.23-3.227-15.006 19.67-3.64 41.529.976 41.607zM5.183 119.827c.92 2.921 3.27 7.185 8.234 7.895 6.628.95 7.984 3.97 15.81 2.403 7.827-1.567 13.76-8.036 16.134-15.193 2.718-9.901-1.352-15.013-7.477-19.577-6.124-4.564-19.597-4.073-27.638 3.32-5.714 5.25-7.303 14.038-5.063 21.152z"/>
  <path fill="#f3f3f3" d="M31.213 126.375c6.014-1.588 13.967-9.854 10.019-16.164-4.872-7.776-18.444-1.12-18.903 7.537-.46 8.66 2.51 10.31 8.884 8.627zM76.37 219.656c5.131-1.355 20.851-7.807 17.899-30.857-1.495-11.675-7.809 14.49-19.5 18.404-17.713 5.929-15.723 17.027 1.601 12.453z"/>
</svg>
