<svg xmlns="http://www.w3.org/2000/svg" viewBox="0 0 256 256">
  <path fill="#fefefe" d="M254.223 128c0 69.711-56.512 126.223-126.223 126.223C58.288 254.223 1.776 197.711 1.776 128S58.288 1.777 128 1.777c69.711 0 126.223 56.512 126.223 126.223"/>
  <path fill="#474749" d="M128 0C57.308 0 0 57.308 0 128c0 70.692 57.308 128 128 128 70.692 0 128-57.308 128-128C256 57.308 198.692 0 128 0m0 5.126c16.59 0 32.681 3.248 47.827 9.654 14.631 6.188 27.772 15.049 39.058 26.335 11.286 11.286 20.147 24.427 26.335 39.058 6.406 15.146 9.654 31.237 9.654 47.827s-3.248 32.681-9.654 47.826c-6.188 14.632-15.049 27.773-26.335 39.059-11.286 11.286-24.427 20.147-39.058 26.335-15.146 6.406-31.237 9.654-47.827 9.654s-32.681-3.248-47.827-9.654c-14.631-6.188-27.772-15.049-39.058-26.335-11.286-11.286-20.147-24.427-26.335-39.059C8.374 160.681 5.126 144.59 5.126 128s3.248-32.681 9.654-47.827c6.188-14.631 15.049-27.772 26.335-39.058C52.401 29.829 65.542 20.968 80.173 14.78 95.319 8.374 111.41 5.126 128 5.126m-31.247 168.09V73.046h16.873l14.31 46.133 14.657-46.134h16.1v100.171h-11.64V90.132l-12.149 39.513h-13.616l-12.36-39.513v83.084z"/>
</svg>
