<svg xmlns="http://www.w3.org/2000/svg" viewBox="0 0 256 186.803">
  <defs>
    <linearGradient id="a" x1=".052" x2="218.785" y1="109.299" y2="109.299" gradientTransform="scale(1.17065 .85422)" gradientUnits="userSpaceOnUse">
      <stop offset="0%" stop-color="#9351E5"/>
      <stop offset="100%" stop-color="#EF468B"/>
    </linearGradient>
  </defs>
  <path fill="url(#a)" d="M128.091 186.803c-4.023 0-7.803-2.195-10.425-5.975L75.965 119.19l-58.711 36.154c-2.317 1.463-4.695 2.133-7.012 2.133C5.304 157.477 0 153.82 0 145.711V15.973C0 10.121 3.292 4.633 8.474 1.89 10.67.183 13.78 0 16.034 0h224.054c2.987 0 5.304.549 7.01 1.646C252.526 4.33 256 9.938 256 15.973v99.56c0 3.352-.975 6.34-2.865 8.535-2.012 2.377-4.939 3.719-8.17 3.719-2.012 0-4.146-.488-6.219-1.525l-47.615-23.472-52.736 77.977c-2.5 3.84-6.28 6.036-10.304 6.036zM85.11 113.58l41.396 61.211c.61.915 1.22 1.28 1.585 1.28.366 0 .976-.426 1.586-1.28l51.943-76.757-39.567-19.51zM10.303 146.87v5.365-5.365zm.427-124.19v123.093c0 .427.061.731.061.975.244-.06.488-.244.854-.426l58.345-35.97zM197.29 93.89l46.274 22.802c1.28.61 1.646.426 1.646.426 0-.06.244-.548.244-1.585V22.68zM21.095 18.961l58.04 85.78 51.578-31.764zm131.627 52.98 34.873 17.193 44.872-66.332zM28.29 10.608l113.154 55.724 90.536-55.724z" style="fill:url(#a)"/>
</svg>
