<svg xmlns="http://www.w3.org/2000/svg" viewBox="0 0 255.561 250.578">
  <g fill="#df4f4f">
    <path d="m0 0 218.862 231.828s7.456 5.258 13.158-.877c5.702-6.135 1.316-12.27 1.316-12.27zM69.299 21.912l166.668 179.677s7.456 5.26 13.158-.876c5.702-6.136 1.316-12.27 1.316-12.27zM20.614 68.803l166.669 179.678s7.456 5.259 13.158-.877c5.701-6.135 1.315-12.27 1.315-12.27zM127.882 40.756l116.441 125.53s5.21 3.674 9.193-.612c3.984-4.287.92-8.573.92-8.573zM36.653 123.145l116.441 125.53s5.21 3.674 9.193-.613c3.984-4.286.92-8.573.92-8.573zM187.721 67.927l52.775 57.067s2.577 1.722 4.548-.287c1.97-2.008.454-4.017.454-4.017zM65.79 180.992l52.775 57.067s2.577 1.722 4.548-.287c1.97-2.008.454-4.017.454-4.017z"/>
  </g>
</svg>
