<svg xmlns="http://www.w3.org/2000/svg" viewBox="0 0 512 122.834">
  <g fill-rule="evenodd">
    <g fill="#df4f4f">
      <path d="m303.758 0 107.286 113.643s3.656 2.577 6.45-.43c2.796-3.008.646-6.015.646-6.015zM337.728 10.741 419.43 98.82s3.655 2.577 6.45-.43c2.795-3.008.645-6.015.645-6.015zM313.863 33.728l81.701 88.078s3.655 2.578 6.45-.43c2.795-3.007.645-6.015.645-6.015zM366.446 19.979l57.08 61.535s2.553 1.8 4.506-.3c1.953-2.102.45-4.203.45-4.203zM321.725 60.366l57.08 61.535s2.554 1.801 4.506-.3c1.953-2.101.451-4.203.451-4.203zM395.78 33.298l25.87 27.974s1.263.844 2.229-.14c.966-.985.223-1.97.223-1.97zM336.008 88.723l25.87 27.974s1.264.844 2.23-.14c.966-.985.223-1.97.223-1.97z"/>
    </g>
    <g fill="#26262c">
      <path d="M446.171 46.015v75.434h17.067V97.116h12.8l16.457 24.333H512L493.714 95.29s16.238-6.418 16.238-23.826c0-24.576-22.333-25.448-22.333-25.448l-41.448-.002zm17.067 14.602v21.9h21.943s8.387-.002 8.387-10.951c0-11.366-10.216-10.95-10.216-10.95zM257.219 46.017v75.432h57.295v-14.6h-40.228V91.033h34.743v-14.6h-34.743V60.605h40.228V46.017zM174.324 46.017v14.6h22.552v60.832h17.067V60.617h22.552v-14.6zM96.305 46.017v75.432H153.6v-14.6h-40.229V91.033h34.743v-14.6h-34.743V60.605H153.6V46.017zM0 46.015v75.435h17.055V73.997l20.724 30.416 20.735-30.416v47.452h17.067V46.015H58.514L37.78 77.04 17.055 46.015z"/>
    </g>
  </g>
</svg>
