<svg xmlns="http://www.w3.org/2000/svg" viewBox="0 0 256 255.806">
  <path fill="#184ae8" d="M217.767 59.041c-.779.78-.267 3.28-1.056 4.053-20.387 29.006-49.424 61.332-69.812 81.341-19.983 20.388-55.072 51.777-83.69 72.16-.783.784-3.42.413-4.199 1.202-9.407-7.054-17.247-15.678-23.913-25.485-3.92-5.872-7.45-12.144-10.576-18.814-6.276-14.112-9.8-29.39-9.8-45.864 0-62.706 50.561-113.273 113.272-113.273 16.467 0 32.141 3.525 45.868 9.807 6.656 2.741 12.533 6.277 18.415 10.186 9.418 7.44 18.041 15.285 25.491 24.687"/>
  <path fill="#184ae8" d="M241.286 128.034c0 62.715-50.567 113.267-113.283 113.267-18.425 0-36.062-4.32-51.346-12.148-6.277-3.125-12.148-7.056-17.63-11.375.778-.384 1.956-1.173 2.745-1.962 29.006-20.388 62.71-50.947 82.71-71.345 20.382-19.982 50.95-54.097 71.338-82.708.78-.774 1.174-1.963 1.968-2.737 4.31 5.478 8.22 11.37 11.364 17.626 7.43 15.715 12.134 32.952 12.134 51.382"/>
  <path fill="#ff6464" d="M231.49 73.152c-.78 1.173-1.579 2.352-2.742 3.525-21.167 29.001-50.952 61.932-70.56 81.526-19.989 19.977-52.92 49.788-81.53 70.56-1.175.774-2.353 1.578-3.526 2.742-23.129 16.462-39.982 24.301-52.13 24.301-6.277 0-10.98-1.967-14.895-5.877-11.365-11.37-7.056-34.483 14.506-72.112l1.578-1.973 2.331-2.346c3.047 6.538 6.611 12.832 10.575 18.814-16.468 29.795-16.452 41.948-14.884 43.906h1.173c3.131 0 13.327-1.584 38.024-18.82.784-.384 1.957-1.173 2.736-1.968 29.011-20.387 62.716-50.946 82.72-71.339C165.252 124.11 195.816 90 216.198 61.378c.79-.779 1.174-1.968 1.968-2.742 21.555-30.963 18.43-39.192 18.43-39.192-1.962-1.168-14.11-1.168-43.9 15.28-5.873-3.93-11.76-7.45-18.426-10.192l4.315-3.92c37.63-21.56 60.358-25.87 72.123-14.505 10.95 11.774 5.077 32.557-19.22 67.045"/>
</svg>
