<svg xmlns="http://www.w3.org/2000/svg" viewBox="0 0 256 256">
  <defs>
    <linearGradient id="a" x1="228.561" x2="6.955" y1="513.919" y2="297.37" gradientTransform="scale(1.696 .58962)" gradientUnits="userSpaceOnUse">
      <stop offset="0%" stop-color="#FFF"/>
      <stop offset="100%" stop-color="#C2C1C1"/>
    </linearGradient>
    <linearGradient id="b" x1="248.064" x2="13.891" y1="379.785" y2="128.406" gradientTransform="scale(1.92122 .5205)" gradientUnits="userSpaceOnUse">
      <stop offset="0%" stop-color="#FFF"/>
      <stop offset="100%" stop-color="#A2A2A1"/>
    </linearGradient>
    <linearGradient id="c" x1="298.105" x2="15.596" y1="617.224" y2="250.066" gradientTransform="scale(1.95259 .51214)" gradientUnits="userSpaceOnUse">
      <stop offset="0%" stop-color="#FFF"/>
      <stop offset="100%" stop-color="#B3B3B3"/>
    </linearGradient>
  </defs>
  <circle cx="128" cy="128" r="128" fill="#e9e9e9"/>
  <path fill="url(#a)" d="M166.056 207.918c-74.05-6.013-37.626-10.137-144.322-32.129 29.38 22.68 77.144 78.862 144.322 32.129z" style="fill:url(#a)"/>
  <path fill="url(#b)" d="M242.34 118.06c-70.27-13.917-139.167-61.852-211.5-46.389-1.03.344-2.233.515-1.718 1.03 46.218 8.076 143.12 77.316 213.219 45.36z" style="fill:url(#b)"/>
  <path fill="url(#c)" d="M223.098 183.692c-36.94-7.903-117.863-69.583-208.752-44.843 79.55 18.213 151.195 62.54 208.752 44.843z" style="fill:url(#c)"/>
  <path fill="#a4a4a4" d="M235.297 81.808C194.234 51.569 142.69-3.067 95.613 47.274 153 54.318 160.558 63.768 235.297 81.808z"/>
  <path fill="#121212" d="M20.875 175.445c85.047.172 133.67-64.773 221.466-57.385-70.1 35.909-155.834 103.775-221.466 57.385z"/>
  <path fill="#171717" d="M235.125 81.808c-85.734-6.873-130.406 62.368-221.466 57.385C48.193 123.558 150.078 31.64 235.125 81.808z"/>
  <path fill="#212121" d="M172.242 36.621c-49.139-1.718-99.136 41.922-143.463 36.253C60.736 53.459 120.01 4.492 172.242 36.62z"/>
  <path fill="#010101" d="M84.102 219.945c51.028-.172 93.81-45.015 140.027-36.253-37.799 21.649-83.844 66.32-140.027 36.253z"/>
</svg>
