<svg xmlns="http://www.w3.org/2000/svg" viewBox="0 0 255.434 242.139">
  <g fill="#58a958">
    <path d="M213.532 155.408c0 23.865-8.49 44.285-25.469 61.263-16.98 16.98-37.337 25.468-61.065 25.468-23.865 0-44.285-8.487-61.263-25.468-16.98-16.978-25.469-37.398-25.469-61.263 0-23.862 8.488-44.25 25.47-61.164 16.977-16.913 37.332-25.37 61.065-25.37 23.994 0 44.447 8.457 61.361 25.37 16.914 16.913 25.37 37.302 25.37 61.164zm-14.947 0c0-19.796-6.982-36.678-20.945-50.643-13.963-13.962-30.846-20.945-50.642-20.945-19.8 0-36.714 7.05-50.742 21.142-14.03 14.095-21.043 30.912-21.043 50.446 0 19.538 7.012 36.384 21.043 50.545 14.028 14.16 30.943 21.24 50.742 21.24 19.666 0 36.513-7.047 50.544-21.142 14.028-14.093 21.043-30.976 21.043-50.643z"/>
    <path d="M173.265 86.535c0 23.864-8.49 44.284-25.47 61.262-16.98 16.98-37.335 25.47-61.064 25.47-23.865 0-44.285-8.49-61.263-25.47C8.488 130.819 0 110.399 0 86.535 0 62.673 8.487 42.284 25.468 25.37 42.446 8.457 62.802 0 86.533 0c23.995 0 44.447 8.457 61.362 25.37 16.913 16.914 25.37 37.303 25.37 61.165zm-14.947 0c0-19.796-6.982-36.68-20.945-50.643-13.964-13.963-30.846-20.945-50.642-20.945-19.8 0-36.713 7.05-50.74 21.141C21.957 50.185 14.945 67 14.945 86.535c0 19.537 7.012 36.383 21.044 50.544 14.028 14.16 30.941 21.24 50.74 21.24 19.667 0 36.514-7.046 50.545-21.142 14.028-14.092 21.043-30.975 21.043-50.642z"/>
    <path d="M255.434 86.535c0 23.864-8.49 44.284-25.468 61.262-16.982 16.98-37.337 25.47-61.066 25.47-23.865 0-44.285-8.49-61.262-25.47-16.982-16.978-25.47-37.398-25.47-61.262 0-23.862 8.488-44.251 25.47-61.165C124.615 8.457 144.97 0 168.703 0c23.994 0 44.447 8.457 61.361 25.37 16.914 16.914 25.37 37.303 25.37 61.165zm-14.947 0c0-19.796-6.981-36.68-20.946-50.643-13.962-13.963-30.845-20.945-50.64-20.945-19.8 0-36.715 7.05-50.742 21.141C104.128 50.185 97.116 67 97.116 86.535c0 19.537 7.012 36.383 21.043 50.544 14.027 14.16 30.942 21.24 50.741 21.24 19.666 0 36.513-7.046 50.543-21.142 14.028-14.092 21.044-30.975 21.044-50.642z"/>
  </g>
</svg>
