<svg xmlns="http://www.w3.org/2000/svg" viewBox="0 0 256 290.81">
  <path fill="#8d6748" d="m248.195 223.766-112.39 64.937a15.511 15.511 0 0 1-15.61 0L7.805 223.766C2.966 220.956 0 215.805 0 210.342V80.468c0-5.62 2.966-10.614 7.805-13.424l112.39-64.937a15.511 15.511 0 0 1 15.61 0l112.39 64.937c4.839 2.81 7.805 7.96 7.805 13.424v129.874c-.156 5.463-3.122 10.614-7.805 13.424z"/>
  <path fill="#fff" d="M127.844 19.746c-2.341 0-4.683.624-6.712 1.873L24.039 77.66c-4.215 2.341-6.712 6.867-6.712 11.55v112.078c0 4.84 2.497 9.21 6.712 11.552l97.093 56.04c2.029 1.248 4.37 1.872 6.712 1.872 2.34 0 4.683-.624 6.712-1.873l97.093-56.039c4.215-2.342 6.712-6.869 6.712-11.55V89.208c0-4.839-2.497-9.209-6.712-11.55l-97.093-56.04c-2.03-1.249-4.371-1.873-6.712-1.873zm0 4.683c1.56 0 2.966.468 4.37 1.25l97.093 56.038c2.654 1.561 4.37 4.527 4.37 7.65v112.077c0 3.122-1.716 6.087-4.37 7.648l-97.092 56.04c-1.405.78-2.81 1.248-4.371 1.248a8.389 8.389 0 0 1-4.371-1.249L26.38 209.092c-2.654-1.56-4.371-4.526-4.371-7.648V89.366c0-3.122 1.717-6.088 4.37-7.649l97.093-56.039c1.405-.78 2.966-1.249 4.37-1.249zm-8.976 97.718h13.112c.469 0 .78-.157 1.093-.47 7.805-8.74 8.586-27.004 8.586-32.467 0-.78-.625-1.561-1.561-1.561H110.75c-.78 0-1.561.624-1.561 1.56 0 5.308.78 23.572 8.586 32.469.312.312.624.469 1.092.469zm-3.59-29.66h20.605c.78 0 1.56.625 1.56 1.562 0 4.37-.78 16.702-6.087 23.102-.468.313-.78.469-1.25.469h-9.208c-.47 0-.781-.156-1.093-.47-5.308-6.242-5.932-18.73-6.088-23.101 0-.78.624-1.561 1.56-1.561zm13.112-7.96s5.62-3.278 2.185-9.21c-2.029-3.122-2.965-5.775-2.185-6.868-2.029 2.498-5.463 5.15-1.717 10.77 1.25 1.406 1.873 4.37 1.717 5.308zm-6.244.468s3.746-2.185 1.405-6.244c-1.405-2.03-2.029-3.902-1.405-4.527-1.405 1.717-3.59 3.434-1.093 7.337.781.78 1.093 2.81 1.093 3.434zm-.468 30.751h7.805c.312 0 .624-.156.936-.468 2.654-3.122 3.903-7.96 4.527-12.176 0 0-.156 1.405-3.902 2.81-5.151 1.873-14.205.624-14.205.624.78 3.278 2.029 6.4 3.902 8.742.156.312.625.468.937.468zM62.985 159.61v-31.22H57.21l-9.522 14.674-9.522-14.673H32.39v31.375h5.463v-22.322l9.678 14.517h.156l9.835-14.673v22.322zm34.966-30.595c-2.03-.78-4.214-1.249-6.555-1.249-2.343 0-4.528.312-6.558 1.25-2.028.78-3.745 2.028-5.15 3.433a15.688 15.688 0 0 0-3.435 5.151c-.78 2.03-1.248 4.058-1.248 6.244V144c0 2.185.469 4.371 1.249 6.244.78 2.03 1.872 3.746 3.277 5.151 1.406 1.405 3.123 2.654 5.152 3.434 2.03.781 4.214 1.25 6.555 1.25 2.343 0 4.528-.313 6.558-1.25 2.028-.78 3.745-2.029 5.15-3.434a15.688 15.688 0 0 0 3.435-5.15c.78-2.03 1.248-4.06 1.248-6.245v-.156c0-2.186-.469-4.37-1.249-6.244-.78-2.029-1.872-3.746-3.277-5.15-1.406-1.406-3.123-2.655-5.152-3.435zm3.747 15.141c0 1.405-.313 2.81-.782 4.215-.624 1.248-1.248 2.497-2.185 3.434a12.49 12.49 0 0 1-3.278 2.341c-1.249.625-2.654.937-4.215.937-1.404 0-2.965-.312-4.214-.937a12.49 12.49 0 0 1-3.278-2.34c-.937-1.094-1.717-2.187-2.186-3.59-.468-1.406-.78-2.81-.78-4.372v-.156c0-1.405.312-2.81.78-4.215.625-1.249 1.25-2.497 2.186-3.434a12.493 12.493 0 0 1 3.278-2.342c1.25-.624 2.653-.936 4.214-.936 1.561 0 2.966.312 4.215.936a12.493 12.493 0 0 1 3.278 2.342c.937 1.093 1.717 2.185 2.185 3.59.47 1.405.781 2.81.781 4.371zm23.102-4.683c.624-1.249 1.249-2.498 2.185-3.434a12.526 12.526 0 0 1 3.278-2.342c1.249-.624 2.498-.936 4.059-.936 1.873 0 3.434.312 4.839 1.092 1.405.781 2.654 1.718 3.902 2.81l3.59-4.058c-.78-.78-1.56-1.405-2.341-2.03-.78-.624-1.717-1.092-2.653-1.56-1.093-.313-2.03-.625-3.28-.937-1.247-.156-2.496-.312-3.901-.312-2.498 0-4.527.468-6.556 1.248-2.03.781-3.746 2.03-5.151 3.435a18.013 18.013 0 0 0-3.278 5.151 16.489 16.489 0 0 0-1.25 6.244V144c0 2.185.469 4.214 1.25 6.244.78 2.03 1.873 3.746 3.278 5.151 1.405 1.405 3.122 2.654 4.995 3.434a15.897 15.897 0 0 0 6.244 1.25c1.405 0 2.809 0 4.214-.313 1.093-.156 2.342-.625 3.278-1.093.937-.468 1.874-.937 2.81-1.717.937-.78 1.717-1.405 2.498-2.342l-3.59-3.59c-1.405 1.25-2.81 2.186-4.06 2.966-1.248.781-2.965 1.093-4.838 1.093-1.405 0-2.81-.469-4.06-.937-1.247-.468-2.34-1.405-3.277-2.34-.936-1.094-1.717-2.187-2.185-3.592-.468-1.404-.781-2.809-.781-4.37v-.156c0-1.405.313-2.81.78-4.215zm32.936-11.083v31.22h5.463v-13.113h14.986v13.112h5.463V128.39h-5.463v12.956H163.2V128.39zm59.942 23.727 3.122 7.493h5.775l-13.736-31.376h-4.996l-13.736 31.376h5.62l3.277-7.493zm-7.337-17.327 5.307 12.488h-10.614zM28.488 171.16h199.024v-1.716H28.488zm114.42-60.409c0 .624-.157 1.093-.157 1.717h84.761v-1.717zm-34.81 0h-79.61v1.717h79.765c0-.624-.156-1.093-.156-1.717z"/>
</svg>
