<svg xmlns="http://www.w3.org/2000/svg" viewBox="0 0 512 137.307">
  <path fill="#00b5de" d="m56.844 27.622 48.038 29.623 27.621-44.035H66.052z"/>
  <path fill="#00decc" d="m12.41 66.452 15.612 8.807 76.86-18.014-48.038-29.623L12.41 0z"/>
  <path fill="#ff5529" d="m75.259 109.686 44.034 27.621V70.855l-14.411-8.807z"/>
  <path fill="#ff9640" d="m104.882 62.048-77.26 18.415L0 123.697h66.452l8.807-14.011 29.623-47.638z"/>
  <path fill="#102c53" d="M310.242 35.227c22.017 0 38.43 15.212 38.43 36.429 0 21.216-16.413 36.428-38.43 36.428s-38.43-15.612-38.43-36.428c0-20.816 16.413-36.429 38.43-36.429zm-120.094 1.201 26.02 43.635 26.021-43.635h13.21l.4 70.055h-15.612V64.851l-20.816 34.827h-7.205L191.75 66.052v41.232h-15.212V36.428zm270.612.4 16.012 22.819 16.013-22.818h17.613L485.98 70.855 512 107.284h-18.414v-.4l-16.813-24.42-16.813 24.42h-18.815l26.02-35.628-24.819-34.427zm-63.65-.4c22.818 0 38.83 14.011 38.83 35.228 0 21.216-15.612 35.227-38.83 35.227h-32.025V36.428zm-86.868 12.81c-12.41 0-22.017 9.208-22.017 22.418 0 13.21 9.607 22.417 22.017 22.417s22.017-9.207 22.017-22.417-9.607-22.418-22.017-22.418zm86.067.801h-14.811v43.634h14.811v-.4c14.011 0 23.218-8.407 23.218-21.617 0-13.61-9.207-21.617-23.218-21.617z"/>
</svg>
