<svg xmlns="http://www.w3.org/2000/svg" viewBox="0 0 512 161.541">
  <defs>
    <linearGradient id="a" x1="53.181" x2="69.808" y1="58.304" y2="115.583" gradientTransform="scale(1.07256 .93235)" gradientUnits="userSpaceOnUse">
      <stop offset="1.093%" stop-color="#E67417"/>
      <stop offset="99.952%" stop-color="#E62F17"/>
    </linearGradient>
    <linearGradient id="b" x1="61.18" x2="61.18" y1="71.191" y2="169.001" gradientTransform="scale(1.16154 .86092)" gradientUnits="userSpaceOnUse">
      <stop offset="0%" stop-color="#F2BB30"/>
      <stop offset="30.905%" stop-color="#E67417"/>
      <stop offset="100%" stop-color="#E62F17"/>
    </linearGradient>
    <linearGradient id="c" x1="88.903" x2="94.313" y1="103.331" y2="84.816" gradientTransform="scale(1.16465 .85863)" gradientUnits="userSpaceOnUse">
      <stop offset="0%" stop-color="#FFF"/>
      <stop offset="100%" stop-color="#FFF" stop-opacity="0"/>
    </linearGradient>
  </defs>
  <path fill="#3d3d3d" d="M191.39 57.14c6.42-6.419 12.84-10.38 21.035-10.38 9.56 0 16.116 3.551 18.985 12.02 8.468-8.742 15.16-12.02 22.946-12.02 13.658 0 20.487 7.785 20.487 25.268v40.838h-15.57v-36.74c0-10.244-1.776-14.888-9.152-14.888-5.19 0-10.653 3.141-16.936 9.834v41.794h-15.434v-36.74c0-10.244-2.185-14.888-9.424-14.888-5.736 0-11.473 3.688-16.936 9.97v41.658h-15.434V47.99h15.434zm155.748 23.63c0 20.35-12.839 33.325-33.053 33.325s-32.916-12.975-32.916-33.326c0-20.897 12.838-34.145 32.916-34.009 20.214-.136 33.053 13.112 33.053 34.01zm-15.16 0c0-13.66-6.966-21.308-17.893-21.308-10.79 0-17.756 7.649-17.756 21.307 0 13.112 6.83 20.488 17.756 20.488 10.927 0 17.893-7.376 17.893-20.488zm21.263 32.096V24.087h15.434v88.78zm68.645-2.731a45.18 45.18 0 0 1-16.39 3.414c-14.341 0-20.214-6.556-20.214-22.672V60.828h-9.56V47.853h9.56v-15.57h15.57v15.57h18.029v12.975h-18.029v29.366c0 7.785 2.732 9.97 10.107 9.97 3.105.046 6.21-.136 9.288-.546zm15.102-89.462c4.78 0 9.014 2.868 9.014 8.331 0 5.464-4.234 8.195-9.014 8.195-4.78 0-9.014-2.731-9.014-8.195 0-5.463 4.234-8.331 9.014-8.331zm-7.648 92.193V47.99h15.433v64.877zm38.407-55.862c7.102-6.283 13.931-10.244 23.082-10.244C505.171 46.76 512 54.41 512 72.028v40.838h-15.434v-36.74c0-10.517-1.64-14.888-10.244-14.888-6.966 0-13.112 3.824-18.575 10.107v41.521h-15.434V47.99h15.434z"/>
  <path fill="#fff" d="M136.04 40.667 73.308 4.45a4.492 4.492 0 0 0-4.484 0L6.092 40.667a4.488 4.488 0 0 0-2.242 3.886v72.436c0 1.602.854 3.082 2.242 3.883l62.732 36.218c1.388.8 3.096.8 4.484 0l62.732-36.218a4.485 4.485 0 0 0 2.242-3.883V44.553a4.488 4.488 0 0 0-2.242-3.886z"/>
  <path fill="#999" d="M137.968 37.335 75.233 1.115a8.345 8.345 0 0 0-8.333 0L4.167 37.333A8.367 8.367 0 0 0 0 44.553v72.436a8.36 8.36 0 0 0 4.167 7.218L66.9 160.425a8.332 8.332 0 0 0 8.333 0l62.733-36.218a8.36 8.36 0 0 0 4.167-7.218V44.553a8.364 8.364 0 0 0-4.164-7.218zm.314 79.654a4.485 4.485 0 0 1-2.242 3.883L73.308 157.09c-1.388.8-3.096.8-4.484 0L6.092 120.872a4.485 4.485 0 0 1-2.242-3.883V44.553c0-1.603.854-3.084 2.242-3.886L68.824 4.45c1.388-.8 3.096-.8 4.484 0l62.732 36.218a4.488 4.488 0 0 1 2.242 3.886z"/>
  <path fill="url(#a)" d="M14.82 116.186a5.097 5.097 0 0 1-2.548-4.414V74.996a36.396 36.396 0 0 1 1.836-12.447c2.139-5.774 6.37-11.422 14.755-14.753 16.068-6.383 31.95 2.247 40.921 15.04 7.533 10.742 11.93 15.013 21.403 22.265 8.388 6.422 34.695 17.97 38.673-5.033v31.704c0 1.82-.971 3.503-2.548 4.414l-53.698 31.002c-1.576.91-3.52.91-5.096 0z" style="fill:url(#a)"/>
  <path fill="url(#b)" d="m14.82 116.186 53.698 31.002c1.577.91 3.52.91 5.097 0l53.697-31.002a5.097 5.097 0 0 0 2.548-4.414V80.068c0-23.483-26.193-25.422-39.692-6.758-10.7 14.792-15.44 20.089-29.762 25.297-16.763 6.096-31.808 2.79-40.365-5.58a25.488 25.488 0 0 1-7.77-18.03v36.775c0 1.82.972 3.503 2.55 4.414z" style="fill:url(#b)"/>
  <path fill="url(#c)" d="M129.86 80.068c0-23.483-26.193-25.422-39.693-6.758-1.857 2.568-3.533 4.844-5.112 6.889 1.823 1.548 3.826 3.137 6.132 4.902 8.388 6.421 34.695 17.97 38.673-5.033z" opacity=".3" style="fill:url(#c)"/>
</svg>
