<svg xmlns="http://www.w3.org/2000/svg" viewBox="0 0 511.412 145.713">
  <g fill="none" fill-rule="evenodd">
    <path fill="#8e714e" d="M476.713 60.26c-.461.092-.922 1.107-.922 1.66-.092 3.692-.185 13.474-.185 20.118 0 .185.276.554.554.554 1.384.092 4.706.184 7.567.184 3.968 0 6.275-.553 7.567-1.106 3.322-1.662 4.89-5.261 4.89-9.23 0-8.95-6.275-12.365-15.595-12.365-.646-.092-2.491-.092-3.876.185zm23.81 41.25c0-9.136-6.738-14.212-18.919-14.212-.553 0-4.429-.092-5.352.093-.277.092-.646.277-.646.554 0 6.551-.092 16.98.185 21.04.184 1.753 1.476 4.245 3.045 4.983 1.66.923 5.445 1.107 8.028 1.107 7.29 0 13.658-4.06 13.658-13.565zm-42.635-46.325c.922 0 3.691.276 10.797.276 6.736 0 12.089-.184 18.641-.184 8.028 0 19.102 2.86 19.102 14.857 0 5.906-4.153 10.613-9.598 12.92-.276.092-.276.276 0 .368 7.752 1.939 14.582 6.737 14.582 15.78 0 8.86-5.537 14.489-13.566 17.996-4.891 2.122-10.982 2.86-17.165 2.86-4.706 0-17.348-.553-24.362-.368-.738-.277.646-3.6 1.292-4.153 1.661-.093 2.953-.185 4.706-.738 2.492-.646 2.769-1.385 3.138-5.168.185-3.23.185-14.674.185-22.794 0-11.166.092-18.733 0-22.424-.093-2.86-1.108-3.784-3.138-4.338-1.569-.276-4.153-.646-6.275-.922-.462-.462 1.107-3.6 1.661-3.968zm-53.247 57.399c2.216 1.753 6.552 2.49 10.428 2.49 4.984 0 9.967-.921 14.765-5.26 4.892-4.428 8.306-11.257 8.306-22.146 0-10.429-3.969-18.918-12.089-23.901-4.614-2.861-10.52-4.06-17.35-4.06-2.03 0-3.968.092-5.167.645-.277.185-.923 1.015-.923 1.477-.185 1.845-.185 16.056-.185 24.362 0 8.583 0 20.579.185 21.963 0 1.385.646 3.507 2.03 4.43zm-20.948-57.4c1.754 0 8.49.277 11.72.277 5.814 0 9.966-.276 20.948-.276 9.228 0 16.98 2.491 22.517 7.197 6.736 5.814 10.243 13.843 10.243 23.625 0 13.934-6.367 21.963-12.735 26.577-6.367 4.706-14.673 7.474-26.484 7.474-6.275 0-17.072-.184-26.024-.277h-.093c-.46-.83.739-4.06 1.477-4.152 2.4-.277 3.045-.37 4.245-.83 1.938-.739 2.307-1.754 2.584-5.168.277-6.368.184-14.027.184-22.702 0-6.182.093-18.272-.092-22.148-.276-3.229-1.66-4.06-4.43-4.614-1.383-.276-3.23-.645-5.813-.922-.37-.646 1.292-3.507 1.753-4.06z"/>
    <path fill="#442d22" d="M272.033 116.183c-2.307-.278-3.968-.646-5.999-1.57-.276-.184-.738-1.106-.738-1.476-.185-3.23-.185-12.458-.185-18.64 0-4.984-.83-9.321-2.953-12.366-2.491-3.507-6.09-5.537-10.704-5.537-4.06 0-9.505 2.769-14.027 6.644-.093.092-.83.739-.738-.277 0-1.015.184-3.045.277-4.429.092-1.293-.646-1.938-.646-1.938-2.954 1.476-11.259 3.414-14.304 3.69-2.215.463-2.768 2.585-.461 3.323h.092c2.491.738 4.152 1.569 5.444 2.4.923.738.83 1.753.83 2.584.093 6.92.093 17.533-.183 23.347-.093 2.307-.738 3.137-2.4 3.506l.184-.092c-1.291.277-2.307.553-3.876.738-.553.554-.553 3.507 0 4.153 1.016 0 6.368-.277 10.798-.277 6.09 0 9.228.277 10.797.277.646-.738.83-3.507.461-4.153-1.753-.092-3.045-.276-4.244-.646-1.662-.37-2.123-1.199-2.216-3.137-.184-4.891-.184-15.226-.184-22.24 0-1.938.554-2.861 1.107-3.415 2.122-1.845 5.537-3.137 8.582-3.137 2.953 0 4.892.923 6.368 2.123 2.03 1.66 2.676 4.06 2.953 5.813.46 3.968.277 11.812.277 18.641 0 3.691-.277 4.614-1.661 5.075-.646.277-2.307.647-4.246.83-.645.647-.46 3.508 0 4.154 2.677 0 5.815-.277 10.429-.277 5.72 0 9.413.277 10.889.277.461-.554.646-3.23.276-3.968h.001zm25.562-35.252c-4.891 0-7.936 3.784-7.936 9.69 0 5.998 2.675 12.919 10.243 12.919 1.292 0 3.691-.554 4.798-1.845 1.754-1.662 2.954-4.984 2.954-8.49 0-7.66-3.785-12.274-10.059-12.274zm-.647 40.789c-1.845 0-3.137.553-3.967 1.015-3.877 2.49-5.63 4.89-5.63 7.752 0 2.675 1.015 4.798 3.23 6.644 2.676 2.307 6.367 3.414 11.074 3.414 9.413 0 13.566-5.076 13.566-10.058 0-3.508-1.754-5.815-5.353-7.106-2.584-1.108-7.29-1.661-12.92-1.661zm.647 23.993c-5.63 0-9.69-1.2-13.196-3.876-3.415-2.584-4.891-6.46-4.891-9.136 0-.738.184-2.769 1.846-4.614 1.014-1.108 3.229-3.23 8.49-6.828.183-.093.276-.185.276-.37s-.185-.37-.369-.461c-4.338-1.661-5.63-4.338-5.999-5.814v-.185c-.091-.553-.276-1.107.554-1.661.646-.461 1.57-1.015 2.584-1.66 1.569-.924 3.23-1.939 4.245-2.77.185-.184.185-.368.185-.553 0-.185-.185-.37-.37-.461-6.459-2.123-9.689-6.922-9.689-14.12 0-4.706 2.122-8.951 5.906-11.627 2.584-2.03 9.043-4.521 13.289-4.521h.277c4.337.091 6.736 1.014 10.15 2.214 1.846.646 3.6.922 5.999.922 3.599 0 5.167-1.107 6.459-2.398.092.184.277.646.37 1.845.092 1.2-.278 2.953-1.2 4.245-.739 1.015-2.4 1.754-4.06 1.754h-.462c-1.661-.185-2.4-.37-2.4-.37l-.368.185c-.093.185 0 .369.092.646l.092.185c.184.83.554 3.321.554 3.968 0 7.567-3.045 10.888-6.275 13.38-3.138 2.307-6.737 3.784-10.797 4.153-.093 0-.461 0-1.292.092-.462 0-1.108.093-1.2.093h-.092c-.739.184-2.584 1.107-2.584 2.676 0 1.384.83 3.045 4.798 3.322.83.092 1.661.092 2.584.185 5.26.368 11.813.83 14.858 1.845 4.244 1.569 6.92 5.352 6.92 9.875 0 6.828-4.89 13.196-13.01 17.163-3.969 1.754-7.937 2.677-12.274 2.677zm52.6-64.32c-1.938 0-3.691.46-4.983 1.383-3.599 2.215-5.445 6.645-5.445 13.104 0 12.09 6.09 20.58 14.765 20.58 2.585 0 4.614-.739 6.368-2.215 2.676-2.215 4.06-6.645 4.06-12.828 0-11.996-5.998-20.025-14.764-20.025zm1.662 39.496c-15.688 0-21.318-11.535-21.318-22.332 0-7.567 3.045-13.381 9.136-17.534 4.338-2.676 9.505-4.152 14.12-4.152 11.995 0 20.394 8.582 20.394 20.948 0 8.397-3.323 15.041-9.69 19.102-3.046 2.03-8.305 3.968-12.643 3.968zM187.41 81.392c-1.939 0-3.691.462-4.984 1.384-3.599 2.215-5.445 6.645-5.445 13.104 0 12.09 6.09 20.58 14.765 20.58 2.585 0 4.615-.739 6.368-2.215 2.676-2.215 4.06-6.645 4.06-12.828 0-11.996-5.906-20.025-14.764-20.025zm1.66 39.497c-15.687 0-21.317-11.535-21.317-22.332 0-7.567 3.046-13.381 9.136-17.534 4.338-2.676 9.505-4.152 14.12-4.152 11.996 0 20.394 8.582 20.394 20.948 0 8.397-3.323 15.041-9.69 19.102-2.953 2.03-8.213 3.968-12.642 3.968zm-105.477-.923c-.185-.276-.37-1.107-.277-2.122 0-.738.184-1.2.277-1.384 1.937-.277 2.953-.555 4.06-.83 1.845-.463 2.584-1.477 2.676-3.784.277-5.537.277-16.058.185-23.348v-.184c0-.831 0-1.846-1.016-2.585-1.476-.922-3.23-1.752-5.537-2.4-.83-.275-1.384-.737-1.291-1.29 0-.554.553-1.2 1.753-1.385 3.046-.277 10.981-2.214 14.119-3.598.185.183.462.738.462 1.476l-.093 1.014c-.092 1.016-.184 2.216-.184 3.415 0 .369.37.646.738.646.185 0 .37-.092.554-.185 5.906-4.614 11.258-6.275 14.026-6.275 4.523 0 8.029 2.123 10.705 6.552.184.278.37.37.646.37.185 0 .461-.092.554-.277 5.444-4.153 10.889-6.645 14.488-6.645 8.582 0 13.658 6.368 13.658 17.165 0 3.045 0 7.013-.092 10.613 0 3.229-.093 6.182-.093 8.305 0 .46.646 1.937 1.661 2.214 1.292.646 3.046.923 5.353 1.292h.092c.185.646-.185 3.045-.553 3.507-.555 0-1.385 0-2.307-.092a136.19 136.19 0 0 0-7.014-.185c-5.722 0-8.675.092-11.536.277-.184-.738-.276-2.953 0-3.507 1.661-.276 2.492-.553 3.507-.83 1.846-.554 2.307-1.385 2.4-3.784 0-1.753.368-16.703-.185-20.302-.554-3.691-3.323-8.028-9.413-8.028-2.307 0-5.906.923-9.413 3.599-.184.184-.369.645-.369.923v.092c.37 1.937.37 4.153.37 7.567v5.998c0 4.153-.093 8.029 0 10.982 0 2.03 1.2 2.491 2.215 2.86.553.092.922.185 1.384.277.83.185 1.66.37 2.953.646.184.37.184 1.569-.093 2.584-.092.554-.277.83-.369.923-3.137-.092-6.367-.185-11.074-.185-1.384 0-3.783.093-5.814.093-1.66 0-3.23.092-4.152.092-.092-.185-.277-.83-.277-1.846 0-.83.185-1.476.37-1.661.46-.092.83-.184 1.291-.184 1.107-.185 2.03-.37 2.953-.554 1.569-.461 2.122-1.292 2.215-3.322.277-4.614.553-17.81-.093-21.132-1.107-5.353-4.152-8.03-9.043-8.03-2.86 0-6.46 1.385-9.413 3.6-.461.369-.83 1.292-.83 2.123v5.444c0 6.644 0 14.95.092 18.549.092 1.107.46 2.4 2.584 2.86.461.093 1.2.277 2.122.37l1.662.276c.184.554.092 2.769-.278 3.507-.923 0-2.03-.092-3.322-.092-1.938-.093-4.43-.185-7.197-.185-3.23 0-5.537.092-7.383.185-1.292-.185-2.307-.185-3.414-.185z"/>
    <path fill="#fff" d="m35.053 142.114-3.783-1.292s.462-19.287-6.46-20.671c-4.614-5.352.739-227.013 17.349-.738 0 0-5.721 2.86-6.736 7.751-1.108 4.799-.37 14.95-.37 14.95z"/>
    <path fill="#a6a385" d="m35.053 142.114-3.783-1.292s.462-19.287-6.46-20.671c-4.614-5.352.739-227.013 17.349-.738 0 0-5.721 2.86-6.736 7.751-1.108 4.799-.37 14.95-.37 14.95z"/>
    <path fill="#fff" d="M37.084 123.473s33.129-21.778 25.377-67.09c-7.474-32.943-25.1-43.74-27.038-47.893C33.3 5.537 31.27.37 31.27.37l1.385 91.635c0 .092-2.862 28.053 4.429 31.468"/>
    <path fill="#499d4a" d="M37.084 123.473s33.129-21.778 25.377-67.09c-7.474-32.943-25.1-43.74-27.038-47.893C33.3 5.537 31.27.37 31.27.37l1.385 91.635c0 .092-2.862 28.053 4.429 31.468"/>
    <path fill="#fff" d="M29.332 124.672S-1.767 103.447.08 66.074C1.832 28.7 23.795 10.336 28.039 7.014 30.81 4.06 30.902 2.952 31.087 0c1.937 4.153 1.569 62.106 1.845 68.934.83 26.3-1.477 50.756-3.599 55.738z"/>
    <path fill="#58aa50" d="M29.332 124.672S-1.767 103.447.08 66.074C1.832 28.7 23.795 10.336 28.039 7.014 30.81 4.06 30.902 2.952 31.087 0c1.937 4.153 1.569 62.106 1.845 68.934.83 26.3-1.477 50.756-3.599 55.738z"/>
  </g>
</svg>
