<svg xmlns="http://www.w3.org/2000/svg" viewBox="0 0 114.633 256.001">
  <g fill-rule="evenodd">
    <path fill="#fff" d="m63.143 256.001-6.816-2.328s.832-34.743-11.635-37.237c-8.312-9.641 1.33-408.935 31.25-1.33 0 0-10.305 5.154-12.134 13.965-1.996 8.644-.666 26.93-.666 26.93z"/>
    <path fill="#a6a385" d="m63.143 256.001-6.816-2.328s.832-34.743-11.635-37.237c-8.312-9.641 1.33-408.935 31.25-1.33 0 0-10.305 5.154-12.134 13.965-1.996 8.644-.666 26.93-.666 26.93z"/>
    <path fill="#fff" d="M66.801 222.423s59.679-39.232 45.715-120.854C99.05 42.224 67.299 22.774 63.809 15.293 59.986 9.973 56.33.665 56.33.665l2.494 165.071c0 .167-5.155 50.537 7.979 56.689"/>
    <path fill="#499d4a" d="M66.801 222.423s59.679-39.232 45.715-120.854C99.05 42.224 67.299 22.774 63.809 15.293 59.986 9.973 56.33.665 56.33.665l2.494 165.071c0 .167-5.155 50.537 7.979 56.689"/>
    <path fill="#fff" d="M52.839 224.585S-3.183 186.35.142 119.025C3.3 51.699 42.864 18.618 50.512 12.635 55.498 7.314 55.665 5.318 55.998 0c3.49 7.481 2.826 111.878 3.323 124.178 1.497 47.377-2.66 91.43-6.482 100.406z"/>
    <path fill="#58aa50" d="M52.839 224.585S-3.183 186.35.142 119.025C3.3 51.699 42.864 18.618 50.512 12.635 55.498 7.314 55.665 5.318 55.998 0c3.49 7.481 2.826 111.878 3.323 124.178 1.497 47.377-2.66 91.43-6.482 100.406z"/>
  </g>
</svg>
