<svg xmlns="http://www.w3.org/2000/svg" viewBox="0 0 256 328.553">
  <g fill="#1a1918">
    <path d="M239.967 0H16.034C7.179 0 0 7.178 0 16.033v84.57l50.391-14.077 33.542 13.91-27.45-13.91S37.176 75.974 33.778 62.14C30.38 48.306 47.594 32.52 47.594 32.52l62.266 7.966-33.87-6.378s11.88-7.912 38.598-7.052c29.323.942 70.64 8.354 77.457 15.172 6.82 6.82 19.526 52.875 12.222 60.182-3.432 3.43-47.254-7.323-47.254-7.323l36.558 11.59s20.275 46.532 7.449 86.552c0 0-27.91-15.146-50.009-45.054 18.311 38.321 48.294 50.61 48.294 50.61s-11.272 30.34-17.8 36.867L75.16 189.926l-53.99 66.072h218.798c8.856 0 16.033-7.179 16.033-16.033V16.033C256 7.178 248.823 0 239.967 0M44.92 303.075v17.262c0 2.727-.627 4.773-1.88 6.134-1.253 1.362-2.909 2.044-4.963 2.044-1.993 0-3.608-.682-4.845-2.044-1.236-1.36-1.855-3.407-1.855-6.134V299.65c0-3.266-.113-5.8-.337-7.61-.224-1.805-.832-3.287-1.822-4.444-.99-1.158-2.556-1.737-4.697-1.737-4.283 0-7.104 1.46-8.462 4.376-1.36 2.917-2.038 7.102-2.038 12.554v17.548c0 2.694-.618 4.732-1.855 6.11-1.237 1.378-2.868 2.068-4.891 2.068-1.994 0-3.625-.69-4.895-2.068-1.27-1.378-1.901-3.416-1.901-6.112v-37.146c0-2.442.569-4.297 1.709-5.565 1.14-1.268 2.641-1.903 4.507-1.903 1.8 0 3.301.595 4.505 1.785 1.205 1.19 1.809 2.832 1.809 4.926v1.238c2.274-2.697 4.708-4.68 7.303-5.95 2.595-1.27 5.477-1.906 8.65-1.906 3.298 0 6.134.652 8.505 1.953 2.37 1.3 4.324 3.269 5.863 5.903 2.207-2.666 4.571-4.64 7.098-5.928 2.524-1.283 5.323-1.928 8.394-1.928 3.58 0 6.665.699 9.255 2.095 2.589 1.397 4.524 3.396 5.805 5.997 1.115 2.348 1.674 6.041 1.674 11.083v25.348c0 2.727-.623 4.771-1.868 6.134-1.244 1.362-2.886 2.044-4.928 2.044-1.979 0-3.597-.69-4.857-2.068-1.262-1.378-1.89-3.416-1.89-6.11v-21.828c0-2.789-.122-5.025-.362-6.704-.24-1.68-.887-3.092-1.943-4.234-1.057-1.142-2.656-1.712-4.801-1.712-1.73 0-3.37.508-4.923 1.523-1.554 1.014-2.761 2.376-3.624 4.088-.961 2.19-1.44 6.056-1.44 11.605M137.246 302.161c0 3.87-.609 7.434-1.82 10.7-1.214 3.265-2.97 6.071-5.27 8.417-2.299 2.346-5.046 4.146-8.238 5.398-3.195 1.249-6.788 1.877-10.778 1.877-3.96 0-7.52-.637-10.683-1.904-3.162-1.268-5.9-3.084-8.214-5.448-2.315-2.365-4.072-5.158-5.269-8.378-1.198-3.22-1.795-6.784-1.795-10.687 0-3.933.606-7.535 1.82-10.804 1.211-3.267 2.952-6.06 5.22-8.376s5.015-4.1 8.24-5.355c3.225-1.253 6.786-1.88 10.681-1.88 3.96 0 7.552.635 10.778 1.905 3.226 1.273 5.987 3.082 8.285 5.432 2.3 2.35 4.048 5.145 5.246 8.384 1.197 3.241 1.797 6.813 1.797 10.72zm-13.148 0c0-5.296-1.174-9.417-3.515-12.364-2.343-2.947-5.49-4.423-9.443-4.423-2.552 0-4.799.658-6.742 1.973-1.944 1.317-3.441 3.257-4.493 5.825-1.052 2.568-1.578 5.564-1.578 8.99 0 3.391.518 6.356 1.553 8.892 1.036 2.536 2.519 4.478 4.448 5.825 1.927 1.348 4.2 2.02 6.812 2.02 3.953 0 7.1-1.481 9.443-4.445 2.341-2.964 3.515-7.063 3.515-12.293zM159.494 282.91v1.569c2.3-3.014 4.813-5.229 7.544-6.64 2.728-1.412 5.865-2.118 9.41-2.118 3.448 0 6.53.745 9.244 2.237 2.713 1.493 4.741 3.602 6.083 6.332a15 15 0 0 1 1.674 5.14c.255 1.84.384 4.189.384 7.044v24.178c0 2.603-.6 4.57-1.795 5.904-1.195 1.33-2.751 1.997-4.665 1.997-1.949 0-3.526-.684-4.738-2.047-1.212-1.364-1.819-3.314-1.819-5.854v-21.657c0-4.282-.6-7.558-1.797-9.826-1.2-2.268-3.587-3.404-7.164-3.404-2.334 0-4.458.691-6.375 2.071-1.917 1.38-3.322 3.276-4.215 5.687-.642 1.936-.96 5.553-.96 10.852v16.277c0 2.634-.613 4.608-1.837 5.925-1.224 1.317-2.804 1.976-4.743 1.976-1.876 0-3.416-.684-4.625-2.047-1.207-1.364-1.812-3.314-1.812-5.854v-37.555c0-2.474.54-4.322 1.62-5.544 1.082-1.22 2.559-1.832 4.434-1.832 1.145 0 2.179.27 3.101.809.92.54 1.66 1.349 2.217 2.427.554 1.08.834 2.397.834 3.952M255.943 302.161c0 3.87-.608 7.434-1.82 10.7-1.214 3.265-2.97 6.071-5.27 8.417-2.298 2.346-5.045 4.146-8.238 5.398-3.194 1.249-6.787 1.877-10.777 1.877-3.962 0-7.521-.637-10.683-1.904-3.162-1.268-5.901-3.084-8.214-5.448-2.315-2.365-4.072-5.158-5.27-8.378-1.197-3.22-1.796-6.784-1.796-10.687 0-3.933.607-7.535 1.821-10.804 1.212-3.267 2.952-6.06 5.22-8.376s5.015-4.1 8.241-5.355c3.225-1.253 6.786-1.88 10.68-1.88 3.96 0 7.553.635 10.778 1.905 3.225 1.273 5.986 3.082 8.286 5.432 2.298 2.35 4.048 5.145 5.245 8.384 1.198 3.241 1.797 6.813 1.797 10.72zm-13.148 0c0-5.296-1.173-9.417-3.516-12.364-2.341-2.947-5.488-4.423-9.441-4.423-2.552 0-4.8.658-6.743 1.973-1.944 1.317-3.441 3.257-4.493 5.825-1.052 2.568-1.578 5.564-1.578 8.99 0 3.391.518 6.356 1.553 8.892 1.036 2.536 2.519 4.478 4.448 5.825 1.927 1.348 4.2 2.02 6.813 2.02 3.953 0 7.1-1.481 9.441-4.445 2.343-2.964 3.516-7.063 3.516-12.293z"/>
  </g>
</svg>
