<svg xmlns="http://www.w3.org/2000/svg" viewBox="0 0 511.466 108.39">
  <path fill="#414347" d="M153.695 79.639c-1.61 2.165-3.482 4.234-5.618 6.206-8.066 7.143-17.3 10.713-27.702 10.71-10.239-.003-18.884-3.522-25.934-10.558l-.666 10.849h-17.64l2.74-46.438c.314-5.107-4.47-9.248-9.477-9.248-5.007 0-10.11 4.141-10.424 9.248l-2.741 46.438h-18.55l2.741-46.438c.313-5.107-5.014-9.479-10.02-9.479-5.007 0-9.567 4.371-9.88 9.48l-2.742 46.437H0l4.444-70.833h13.598c3.642-1.883 8.31-2.953 12.566-2.953 7.898 0 15.908 3.667 20.23 9.42 5.028-5.753 11.719-9.42 19.617-9.42 10.028 0 19.539 5.908 23.862 14.498a46.798 46.798 0 0 1 3.535-3.628c8.065-7.144 17.257-10.713 27.577-10.71 10.403.003 19.145 3.577 26.225 10.724 1.86 1.968 3.443 4.035 4.751 6.2 1.61-2.17 3.483-4.242 5.619-6.214 8.065-7.144 17.257-10.713 27.578-10.71 10.402.003 19.144 3.577 26.224 10.724 6.904 7.307 10.009 15.978 9.318 26.013-.686 9.955-4.984 18.585-12.895 25.888-8.066 7.143-17.3 10.713-27.701 10.71-10.32-.003-19.021-3.577-26.101-10.725-1.86-1.968-3.443-4.031-4.752-6.191zM138.61 45.628c-3.808-3.935-8.582-5.904-14.326-5.906-5.743-.002-10.831 1.965-15.264 5.898-4.356 4.014-6.724 8.79-7.106 14.33-.382 5.54 1.327 10.318 5.13 14.334 3.891 3.936 8.708 5.903 14.451 5.905 5.743.002 10.789-1.964 15.14-5.897 4.438-4.015 6.849-8.793 7.231-14.332.381-5.538-1.372-10.316-5.256-14.332zm64.173 0c-3.809-3.935-8.583-5.904-14.327-5.906-5.743-.002-10.831 1.965-15.264 5.898-4.356 4.014-6.724 8.79-7.106 14.33-.382 5.54 1.327 10.318 5.13 14.334 3.891 3.936 8.708 5.903 14.451 5.905 5.743.002 10.789-1.964 15.14-5.897 4.438-4.015 6.849-8.793 7.231-14.332.381-5.538-1.372-10.316-5.255-14.332z"/>
  <path fill="#6e788c" d="M345.8 79.594c-1.616 2.182-3.5 4.266-5.65 6.251-8.066 7.143-17.3 10.713-27.702 10.71-10.32-.003-19.02-3.577-26.1-10.725-6.904-7.306-10.013-15.937-9.326-25.893.537-7.796 3.252-14.767 8.146-20.915H256.69l-1.997 29.082c-.596 8.676 1.674 11.536 8.583 11.536 3.381 0 6.441.01 6.441.01l-.942 16.345s-6.733-.035-12.466-.035c-6.617 0-12.058-2.126-15.187-5.802-3.54-4.117-4.86-10.586-4.213-19.996l1.253-31.141h-9.408l1.103-16.055 88.115.002-.018.254c10.204.105 18.795 3.679 25.772 10.722 1.872 1.981 3.465 4.063 4.779 6.246 1.617-2.188 3.5-4.275 5.651-6.26 8.065-7.144 17.258-10.713 27.578-10.71 10.403.003 19.144 3.577 26.225 10.724 6.904 7.307 10.009 15.978 9.317 26.013-.686 9.955-4.983 18.585-12.894 25.888-8.066 7.143-17.3 10.713-27.702 10.71-10.32-.003-19.02-3.578-26.1-10.725-1.872-1.981-3.465-4.06-4.78-6.236zm-15.118-33.966c-3.808-3.935-8.583-5.904-14.326-5.906-5.743-.002-10.832 1.965-15.265 5.898-4.356 4.014-6.723 8.79-7.105 14.33-.382 5.54 1.326 10.318 5.13 14.334 3.89 3.936 8.708 5.903 14.45 5.905 5.744.002 10.79-1.964 15.14-5.897 4.438-4.015 6.85-8.793 7.231-14.332.382-5.538-1.371-10.316-5.255-14.332zm64.232 0c-3.808-3.935-8.582-5.904-14.326-5.906-5.743-.002-10.831 1.965-15.264 5.898-4.356 4.014-6.724 8.79-7.106 14.33-.382 5.54 1.327 10.318 5.13 14.334 3.89 3.936 8.708 5.903 14.451 5.905 5.743.002 10.789-1.964 15.14-5.897 4.438-4.015 6.849-8.793 7.23-14.332.382-5.538-1.37-10.316-5.255-14.332z"/>
  <path fill="#414347" d="M463.194 20.056C462.894 9.972 446.388 0 446.388 0l-2.884.693 5.409 15.91s-.15 4.312-4.448 5.556c-4.297 1.244-7.311-1.975-7.311-1.975l-4.217-15.976-2.988 1.23s-8.208 22.094-7.114 24.85c1.565 7.13 6.154 13.38 6.671 24.147.517 10.766-6.982 35.731-7.71 42.199-.726 6.468 4.965 11.607 10.576 11.753 5.61.145 11.066-4.623 11.23-9.819.166-5.196-.394-30.26.941-41.322 1.337-11.063 18.95-27.108 18.65-37.19zm-30.276 83.13a5.46 5.46 0 0 1-5.755-5.147 5.461 5.461 0 0 1 5.145-5.759 5.46 5.46 0 0 1 5.755 5.148 5.46 5.46 0 0 1-5.145 5.759z"/>
  <path fill="#6e788c" d="M469.827 82.59s-4.411 5.039-10.139 12.003c11.762 8.356 28.045 10.194 38.435-1.226 3.028-3.327 9.13-11.917 2.628-24.298-6.5-12.381-23.782-18.334-18.146-26.228 4.27-5.98 15.057-.584 19.28 3.639 1.702-1.548 7.103-6.77 9.581-9.712-11.458-14.323-36.013-15.78-44.477-.818-13.998 24.742 26.18 35.895 18.497 47.518-5.081 7.686-15.659-.877-15.659-.877z"/>
</svg>
