<svg xmlns="http://www.w3.org/2000/svg" viewBox="0 0 512 164.198">
  <path d="M0 0h512v164.198H0zm144.94 123.834-.008-14.682h-9v-30.92c0-16.054-11.107-23.408-23.258-23.408-10.655 0-18.3 5.558-22.053 14.558-3.301-9.903-12.319-14.558-22.054-14.558-9.442 0-16.495 4.354-20.549 11.549V56.178H18.93v14.7h9.734v38.274h-9v14.7h41.257v-14.7H48.054V85.577c0-9.452 3.752-16.054 13.053-16.054 7.655 0 11.55 4.505 11.55 16.204v38.125h28.318v-14.7H92.02V85.577c0-9.452 3.753-16.054 13.054-16.054 7.646 0 11.548 4.505 11.548 16.204v38.107zm43.054 1.496v.009c21.603 0 37.205-13.655 37.187-35.266 0-18.903-11.876-35.258-36.16-35.258s-36.284 16.355-36.284 36.16c0 21.602 14.407 34.355 35.257 34.355zm.744-55.656c9.16 0 16.504 6.15 16.531 19.805 0 12.903-6.602 21-16.655 21-10.531 0-15.93-9-15.93-20.699 0-12.761 6.151-20.106 16.054-20.106zm106.975 54.16 4.16-23.69-15.302-1.496-3.15 10.504h-21.868l37.523-42.78-1.496-10.203h-59.47l-2.398 23.708 13.956 1.496 3-10.505h21.15L234.65 113.63l1.947 10.204zm36.602-43.364V56.178h-20.257V80.47zm0 43.364V99.533h-20.257v24.301zm10.62 0h19.08l29.257-103.179H372.22zm39.31 0h19.08l29.24-103.179h-19.053zm100.816 1.496.027.009a26.169 26.169 0 0 0 12.186-3.186l-.15-10.204c-.924.285-1.883.437-2.85.451-3.16 0-4.655-1.354-4.655-5.256V77.736c0-15.452-12.301-22.956-26.859-22.956-11.106 0-17.106 1.39-28.956 6.195l-3 17.548 15.452 1.655 2.504-9.602c3.15-1.646 6.301-1.946 10.354-1.946 10.956 0 11.107 8.247 11.107 15.15v2.248a88.7 88.7 0 0 0-11.107-.602c-15.451 0-31.505 3.894-31.505 20.55 0 14.097 11.115 19.354 20.85 19.354 10.947 0 17.85-6.602 21.753-13.505.902 8.248 5.85 13.505 14.85 13.505zm-37.478-21.603c0-7.345 6-9.292 12.93-9.283 3.26.073 6.513.369 9.734.885-.442 11.248-7.797 16.204-14.7 16.204-5.867 0-7.964-3.451-7.964-7.806z"/>
</svg>
