<svg xmlns="http://www.w3.org/2000/svg" viewBox="0 0 512 107.183">
  <path d="M128.65 53.598v26.789l-42.884 26.796V80.387zm-42.884 0v26.789l-42.883 26.796V80.387zm-42.883 0v26.789L0 107.183V80.387zm223.082-4.301a22.158 22.158 0 0 1-3.458 26.402 20.649 20.649 0 0 1-14.171 5.823 15.542 15.542 0 0 1-10.461-3.717v21.683h-11.02V40.105h10.715v3.12a16.658 16.658 0 0 1 10.785-3.882 20.236 20.236 0 0 1 17.61 9.954zm38.836-5.76v-3.458h10.454l-.026 40.51h-10.346v-3.456a15.326 15.326 0 0 1-11.133 4.39 19.97 19.97 0 0 1-17.547-10.15 20.649 20.649 0 0 1-2.867-10.969c0-8.177 4.218-15.009 10.46-18.472a20.059 20.059 0 0 1 10.036-2.614 15.37 15.37 0 0 1 10.968 4.219zm122.546-4.225c8.013 0 14.001 3.038 17.966 9.198l-8.437 5.227c-2.36-3.375-5.481-5.075-9.446-5.075-6.407 0-10.708 4.98-10.708 11.895 0 6.914 4.13 11.469 10.625 11.469a11.97 11.97 0 0 0 9.954-4.973l8.094 5.354c-3.876 5.57-10.454 9.027-17.965 9.027-7.93 0-14.927-3.711-18.809-10.15a21.213 21.213 0 0 1 7.847-29.27 22.615 22.615 0 0 1 10.88-2.702zm63.58-.069.492.005c12.23 0 20.578 8.609 20.578 22.02.01.422-.005.845-.04 1.266l-.042.42h-31.122c.844 5.9 4.916 9.021 10.626 9.021a12.75 12.75 0 0 0 9.92-4.39l.23-.272L509.3 72.4l-.24.335c-4.059 5.524-10.366 8.603-17.642 8.603-6.325 0-11.977-2.347-15.606-6.153a21.137 21.137 0 0 1-5.817-14.762c0-7.847 3.622-14.501 10.207-18.307a21.568 21.568 0 0 1 10.234-2.866zm-314.503.113c5.57 0 9.617 1.859 11.977 5.57 4.47-3.713 9.363-5.57 14.679-5.57 9.534-.013 14.68 5.576 14.68 15.847v25.374h-10.97v-24.53c0-4.974-2.359-7.423-6.914-7.423-3.383 0-6.343 1.434-8.88 4.301V80.59h-10.944V56.046c0-4.973-2.277-7.422-6.832-7.422-3.457 0-6.407 1.516-8.938 4.555v27.41h-11.05V40.106h10.289v3.806a19.767 19.767 0 0 1 12.903-4.555zm171.704-.013v10.461a10.378 10.378 0 0 0-3.039-.336c-3.65.1-7.071 1.795-9.363 4.637V80.59h-11.044V40.105h10.289v3.71c3.286-3.292 6.915-4.472 13.157-4.472zm24.188-12.731v13.493h9.11v9.11h-9.11V80.59h-10.974V49.214h-8.507v-9.11h8.507V26.613zm26.63 13.493V80.59h-11.05V40.105zm64.662-20.16V80.59h-10.962V19.944zm-168.285 28.68c-5.906 0-10.962 4.554-10.962 11.805 0 7.25 4.974 11.73 10.88 11.73a11.685 11.685 0 0 0 9.11-3.883V52.589a11.964 11.964 0 0 0-9.028-3.965zm-48.326 0a12.091 12.091 0 0 0-9.274 4.129v15.44a11.723 11.723 0 0 0 8.88 3.965c6.205 0 11.178-4.472 11.178-11.894 0-7.169-5.075-11.64-10.784-11.64zm244.694-.35c-5.203 0-8.79 2.504-10.355 7.124l-.1.305h20.155c-1.323-4.868-4.42-7.317-9.374-7.419l-.326-.003zM85.766 0v26.796L42.883 53.59V26.796zm42.884 0v26.796L85.766 53.59V26.796zM42.883 0v26.796L0 53.59V26.796zm356.318 23.573v11.133h-11.559V23.573z"/>
</svg>
