<svg xmlns="http://www.w3.org/2000/svg" viewBox="0 0 255.805 251.104">
  <path fill="#00546b" d="M235.624 194.212c-13.919-.347-24.706 1.045-33.753 4.872-2.61 1.043-6.786 1.045-7.134 4.35 1.393 1.392 1.567 3.654 2.785 5.567 2.089 3.479 5.74 8.177 9.047 10.614 3.653 2.783 7.307 5.566 11.134 8.002 6.786 4.176 14.441 6.611 21.052 10.787 3.83 2.434 7.655 5.568 11.482 8.177 1.915 1.39 3.132 3.654 5.568 4.523v-.521c-1.218-1.567-1.566-3.828-2.783-5.568-1.739-1.74-3.48-3.306-5.22-5.046-5.045-6.784-11.308-12.7-18.094-17.571-5.566-3.828-17.746-9.047-20.008-15.485l-.348-.347c3.828-.348 8.35-1.74 12.005-2.784 5.916-1.567 11.309-1.218 17.398-2.784 2.783-.696 5.568-1.566 8.351-2.436v-1.565c-3.13-3.132-5.393-7.307-8.699-10.265-8.873-7.657-18.616-15.137-28.707-21.4-5.394-3.48-12.353-5.742-18.094-8.699-2.087-1.045-5.568-1.566-6.785-3.306-3.132-3.827-4.872-8.872-7.134-13.396-5.043-9.57-9.917-20.182-14.266-30.272-3.13-6.786-5.045-13.572-8.873-19.834-17.92-29.577-37.405-47.497-67.33-65.07-6.438-3.653-14.092-5.219-22.27-7.132-4.348-.175-8.698-.522-13.048-.697-2.783-1.218-5.568-4.523-8.004-6.089C33.981 4.573 8.405-8.996 1.098 8.924-3.6 20.232 8.057 31.366 12.058 37.109c2.96 4.001 6.786 8.524 8.874 13.048 1.218 2.956 1.565 6.09 2.783 9.221 2.784 7.653 5.393 16.18 9.047 23.314 1.915 3.653 4.001 7.48 6.438 10.786 1.391 1.913 3.826 2.784 4.35 5.915-2.436 3.48-2.61 8.7-4.003 13.049-6.263 19.66-3.827 44.017 5.046 58.457 2.783 4.348 9.395 13.92 18.268 10.265 7.829-3.131 6.089-13.048 8.35-21.747.523-2.09.175-3.48 1.218-4.872v.349c2.437 4.87 4.872 9.569 7.133 14.44 5.394 8.524 14.789 17.398 22.618 23.314 4.177 3.13 7.482 8.524 12.701 10.438v-.523h-.348c-1.045-1.566-2.61-2.261-4.001-3.48-3.132-3.13-6.613-6.958-9.048-10.438-7.306-9.744-13.745-20.53-19.486-31.665-2.783-5.392-5.219-11.308-7.48-16.701-1.045-2.09-1.045-5.22-2.785-6.263-2.61 3.827-6.436 7.133-8.35 11.83-3.305 7.481-3.654 16.702-4.872 26.271-.695.175-.348 0-.696.348-5.567-1.393-7.481-7.133-9.57-12.005-5.219-12.352-6.089-32.186-1.564-46.452 1.218-3.654 6.437-15.136 4.35-18.616-1.044-3.306-4.525-5.22-6.438-7.829-2.262-3.306-4.698-7.48-6.263-11.135-4.176-9.743-6.264-20.53-10.787-30.273-2.088-4.524-5.741-9.22-8.7-13.396-3.304-4.697-6.958-8.004-9.568-13.571-.869-1.913-2.088-5.045-.697-7.133.349-1.392 1.044-1.913 2.437-2.261 2.261-1.915 8.699.521 10.96 1.565 6.438 2.608 11.83 5.046 17.225 8.699 2.435 1.74 5.044 5.046 8.176 5.916h3.654c5.568 1.217 11.83.348 17.05 1.913 9.222 2.957 17.571 7.307 25.053 12.005 22.793 14.44 41.581 34.97 54.283 59.501 2.088 4 2.956 7.656 4.87 11.83 3.655 8.526 8.178 17.225 11.831 25.576 3.653 8.176 7.133 16.528 12.352 23.314 2.611 3.652 13.049 5.567 17.747 7.481 3.48 1.565 8.873 2.958 12.005 4.871 5.914 3.652 11.83 7.83 17.398 11.83 2.784 2.088 11.482 6.438 12.005 9.917z"/>
  <path fill="#00546b" d="M58.162 43.022c-2.958 0-5.045.35-7.133.871v.348h.348c1.393 2.784 3.827 4.698 5.567 7.133 1.393 2.783 2.61 5.568 4.002 8.352l.347-.348c2.438-1.74 3.655-4.524 3.655-8.7-1.045-1.217-1.218-2.435-2.088-3.653-1.044-1.741-3.306-2.61-4.698-4.003z"/>
</svg>
