<svg xmlns="http://www.w3.org/2000/svg" viewBox="0 0 256 112.279">
  <path d="M99.586 1.655H81.931L45.793 63.588 31.586 1.655H14.621L0 84.416h14.069l8.965-50.622c.276-1.931 1.242-8.276 1.242-8.276s.827 6.207 1.241 8.276l11.449 50.622h10.62l29.38-50.622c1.103-1.931 3.586-7.173 4-8-.276.965-1.38 6.483-1.656 8l-8.965 50.622h14.62zm57.655 35.725h-15.034l-3.724 20.553c-2.07 11.586-8.276 16-13.104 16-3.862 0-5.517-2.345-5.517-6.07 0-7.724 4.966-15.31 4.966-22.207 0-6.483-4.69-9.517-10.07-9.517-4.137 0-8.689 1.241-11.31 2.896v5.794c.966-.276 2.207-.69 3.586-.69 1.518 0 2.621.966 2.621 2.897 0 5.655-5.241 16.828-5.241 24.69 0 8.138 5.103 14.07 14.069 14.07 6.069 0 12.827-3.863 16.827-9.656l-1.793 10.207c-1.93 11.173-7.31 14.897-14.483 14.897-6.206 0-10.344-1.38-16.275-5.242l-1.104 11.173c4.966 2.897 11.586 5.104 17.793 5.104 13.931 0 25.518-5.793 29.242-26.897zm40.966 0h-10.759l2.759-16-15.31 1.655-2.483 14.345h-6.759L164 46.76h6.759l-3.725 20.966c-2.068 11.724 3.725 17.656 13.38 17.656 5.93 0 10.345-1.794 13.103-3.863l-1.103-7.31c-1.655 1.103-3.448 1.793-5.793 1.793-4.138 0-5.242-3.31-4.276-9.242l3.448-20h10.759zM256 82.623v-6.07c-.828.277-2.069.828-3.448.828-1.518 0-2.759-1.103-2.759-2.896 0-5.656 4.552-16.828 4.552-24.69 0-8.139-5.104-13.932-14.07-13.932-6.068 0-12.827 3.724-16.827 9.655L231.31 0 216 1.655l-14.62 82.761h15.034l3.724-20.69c2.069-11.587 8.414-16 13.103-16 3.862 0 5.656 2.344 5.656 6.068 0 7.725-4.276 15.311-4.276 22.208 0 6.483 4.827 9.38 10.345 9.38 4.827 0 8.551-1.38 11.034-2.76z"/>
</svg>
