<svg xmlns="http://www.w3.org/2000/svg" viewBox="0 0 256 141.9">
  <defs>
    <linearGradient id="a" x1="226.201" x2="302.953" y1="105.159" y2="1.253" gradientTransform="scale(.79453 1.2586)" gradientUnits="userSpaceOnUse">
      <stop offset="0%" stop-color="#D4202C"/>
      <stop offset="4.166%" stop-color="#D82D2B" stop-opacity=".958"/>
      <stop offset="17.6%" stop-color="#E25226" stop-opacity=".824"/>
      <stop offset="31.67%" stop-color="#EB7123" stop-opacity=".683"/>
      <stop offset="46.35%" stop-color="#F28920" stop-opacity=".536"/>
      <stop offset="61.88%" stop-color="#F69A1E" stop-opacity=".381"/>
      <stop offset="78.86%" stop-color="#F9A41D" stop-opacity=".211"/>
      <stop offset="100%" stop-color="#FAA71D" stop-opacity="0"/>
    </linearGradient>
    <linearGradient id="b" x1="95.943" x2="19.19" y1="7.569" y2="111.475" gradientTransform="scale(.79453 1.2586)" gradientUnits="userSpaceOnUse">
      <stop offset="0%" stop-color="#D4202C"/>
      <stop offset="4.166%" stop-color="#D82D2B" stop-opacity=".958"/>
      <stop offset="17.6%" stop-color="#E25226" stop-opacity=".824"/>
      <stop offset="31.67%" stop-color="#EB7123" stop-opacity=".683"/>
      <stop offset="46.35%" stop-color="#F28920" stop-opacity=".536"/>
      <stop offset="61.88%" stop-color="#F69A1E" stop-opacity=".381"/>
      <stop offset="78.86%" stop-color="#F9A41D" stop-opacity=".211"/>
      <stop offset="100%" stop-color="#FAA71D" stop-opacity="0"/>
    </linearGradient>
  </defs>
  <path fill="#ff5000" d="M232 0c-9 0-16.8 5-20.9 12.3l-.5 1-18.8 37L168 97.2l15.6 30.7.9 1.7c2.4 4.2 6 7.7 10.4 9.8 4.4-2.2 8-5.6 10.4-9.8l.9-1.7 46.7-92 1.1-2.2c1.3-3 2-6.2 2-9.7 0-13.3-10.7-24-24-24zM87.9 44.6 72.4 14l-.9-1.7c-2.4-4.2-6-7.7-10.4-9.8-4.4 2.2-8 5.6-10.4 9.8l-.8 1.7-46.7 92-1.1 2.2c-1.3 3-2 6.2-2 9.7 0 13.2 10.7 24 24 24 9 0 16.8-5 20.9-12.3l.5-1 18.8-37L88 44.7z"/>
  <path fill="url(#a)" d="M232 0c-9 0-16.9 5-20.9 12.3l-.5 1-18.8 37L168 97.2l15.6 30.7.9 1.7c2.4 4.2 6 7.7 10.4 9.8 4.4-2.2 8-5.6 10.4-9.8l.9-1.7 46.7-92 1.1-2.2c1.3-3 2-6.2 2-9.7 0-13.3-10.8-24-24-24z" style="fill:url(#a)"/>
  <path fill="url(#b)" d="M24 141.9c9 0 16.9-5 20.9-12.3l.5-1 18.8-37L88 44.7 72.4 14l-.9-1.7c-2.4-4.2-6-7.7-10.4-9.8-4.4 2.2-8 5.6-10.4 9.8l-.8 1.7-46.7 92-1.2 2.3c-1.3 3-2 6.2-2 9.7 0 13.2 10.7 23.9 24 23.9z" style="fill:url(#b)"/>
  <path fill="#ff8c44" d="M87.9 44.6 72.4 14l-.9-1.7c-2.4-4.2-6-7.7-10.4-9.8 1.4-.7 3-1.3 4.5-1.7 1.9-.5 4-.8 6-.8H104.4c9 .1 16.8 5 20.9 12.3l.7 1.7 42.1 83.3 15.5 30.6.9 1.7c2.4 4.2 6 7.7 10.4 9.8-1.4.7-3 1.3-4.5 1.7-1.9.5-4 .8-6.1.8H151.7c-9-.1-16.8-5-20.9-12.3l-.9-1.7z"/>
</svg>
