<svg xmlns="http://www.w3.org/2000/svg" viewBox="0 0 256 205.299">
  <path fill="#546fff" d="M77.126 77.126c14.097 0 25.524 11.427 25.524 25.523a25.446 25.446 0 0 1-7.464 18.036l24.962 34.873a25.456 25.456 0 0 1 8.026-1.306c2.832 0 5.548.48 8.094 1.332l15.03-22.113a6.245 6.245 0 0 1 8.671-1.652 6.24 6.24 0 0 1 1.654 8.671l-14.849 21.846c4.282 4.564 6.924 10.687 6.924 17.44 0 14.096-11.428 25.523-25.524 25.523-14.097 0-25.524-11.427-25.524-25.524 0-6.774 2.658-12.915 6.965-17.485L84.424 127.1a25.449 25.449 0 0 1-7.298 1.073 25.43 25.43 0 0 1-8.49-1.477l-23.447 36.81a25.418 25.418 0 0 1 5.859 16.27c0 14.096-11.428 25.523-25.524 25.523S0 193.872 0 179.775c0-14.096 11.428-25.523 25.524-25.523 3.385 0 6.609.673 9.565 1.87l23.152-36.346c-4.112-4.53-6.638-10.526-6.638-17.127 0-14.096 11.427-25.523 25.523-25.523zM230.476 0C244.574 0 256 11.427 256 25.524c0 14.096-11.427 25.523-25.523 25.523-3.105 0-6.067-.582-8.82-1.597L198.3 86.118c3.796 4.455 6.098 10.221 6.098 16.531 0 14.097-11.427 25.525-25.524 25.525-14.096 0-25.523-11.428-25.523-25.525 0-6.732 2.626-12.838 6.887-17.399l-25.23-35.245a25.485 25.485 0 0 1-7.181 1.042c-2.535 0-4.98-.382-7.29-1.07l-15.833 23.294a6.242 6.242 0 1 1-10.326-7.019l15.41-22.671a25.442 25.442 0 0 1-7.485-18.057C102.303 11.427 113.73 0 127.827 0s25.524 11.427 25.524 25.524c0 7.083-2.89 13.489-7.55 18.114l24.938 34.836a25.409 25.409 0 0 1 8.135-1.348c3.262 0 6.37.635 9.237 1.75l23.243-36.487c-3.972-4.499-6.401-10.392-6.401-16.865C204.953 11.427 216.38 0 230.477 0z"/>
</svg>
