<svg xmlns="http://www.w3.org/2000/svg" viewBox="0 0 255.339 289.255">
  <path fill="#008cc1" d="M243.29 131.278c0 67.187-54.458 121.645-121.645 121.645S0 198.465 0 131.278 54.458 9.634 121.645 9.634c67.187-.059 121.644 54.457 121.644 121.644"/>
  <path fill="#fff" d="M53.927 91.378c0 5.364-4.361 9.725-9.724 9.725-5.364 0-9.725-4.36-9.725-9.725 0-5.363 4.36-9.724 9.725-9.724a9.696 9.696 0 0 1 9.724 9.724M55.577 118.077c0 5.363-4.361 9.725-9.724 9.725s-9.725-4.362-9.725-9.725c0-5.364 4.362-9.725 9.725-9.725a9.696 9.696 0 0 1 9.724 9.725M61.53 146.367c0 5.363-4.362 9.724-9.725 9.724-5.363 0-9.725-4.361-9.725-9.724 0-5.365 4.362-9.726 9.725-9.726 5.363-.058 9.724 4.303 9.724 9.726M74.85 171.709c0 5.363-4.363 9.725-9.726 9.725s-9.724-4.362-9.724-9.725c0-5.364 4.361-9.725 9.724-9.725 5.363-.059 9.725 4.303 9.725 9.725M178.99 207.13c0 5.363-4.361 9.724-9.725 9.724-5.363 0-9.724-4.361-9.724-9.724s4.36-9.725 9.724-9.725 9.725 4.362 9.725 9.725M196.67 186.207c0 5.363-4.36 9.724-9.725 9.724-5.363 0-9.724-4.36-9.724-9.724 0-5.363 4.361-9.725 9.724-9.725 5.365 0 9.726 4.362 9.726 9.725M145.396 38.277c0 5.363-4.362 9.724-9.725 9.724-5.363 0-9.724-4.36-9.724-9.724 0-5.363 4.361-9.724 9.724-9.724s9.725 4.36 9.725 9.724M119.818 29.319c0 5.363-4.362 9.724-9.725 9.724-5.363 0-9.724-4.361-9.724-9.724s4.36-9.725 9.724-9.725c5.363 0 9.725 4.362 9.725 9.725"/>
  <path fill="#66b245" d="M188.773 37.451c35.804 0 64.83 29.027 64.83 64.83 0 35.805-29.026 64.83-64.83 64.83-35.805 0-64.83-29.025-64.83-64.83 0-35.803 29.025-64.83 64.83-64.83"/>
  <path fill="#fff" d="M188.773 168.848c-36.705 0-66.567-29.862-66.567-66.566 0-36.705 29.862-66.566 66.567-66.566 36.704 0 66.566 29.86 66.566 66.566 0 36.704-29.862 66.566-66.566 66.566zm0-129.66c-34.79 0-63.094 28.305-63.094 63.094 0 34.79 28.304 63.093 63.094 63.093 34.79 0 63.093-28.303 63.093-63.093 0-34.79-28.303-63.093-63.093-63.093z"/>
  <path fill="#66b245" d="M99.956 181.434c29.294 0 53.043 23.747 53.043 53.042 0 29.294-23.749 53.043-53.043 53.043-29.295 0-53.043-23.749-53.043-53.043 0-29.295 23.748-53.042 53.043-53.042"/>
  <path fill="#fff" d="M99.956 289.255c-30.206 0-54.779-24.574-54.779-54.779 0-30.206 24.573-54.779 54.78-54.779 30.205 0 54.778 24.573 54.778 54.78 0 30.204-24.573 54.778-54.779 54.778zm0-106.085c-28.29 0-51.306 23.015-51.306 51.306 0 28.29 23.016 51.306 51.306 51.306s51.306-23.016 51.306-51.306-23.016-51.306-51.306-51.306z"/>
  <path fill="#66b245" d="M56.284 1.736c19.53 0 35.362 15.833 35.362 35.362 0 19.53-15.832 35.362-35.362 35.362S20.923 56.628 20.923 37.098 36.755 1.736 56.284 1.736"/>
  <path fill="#fff" d="M56.284 74.196c-20.456 0-37.098-16.642-37.098-37.098S35.828 0 56.284 0s37.098 16.642 37.098 37.098S76.74 74.196 56.284 74.196zm0-70.723c-18.54 0-33.625 15.084-33.625 33.625s15.084 33.625 33.625 33.625S89.91 55.64 89.91 37.098 74.825 3.473 56.284 3.473z"/>
</svg>
