<svg xmlns="http://www.w3.org/2000/svg" viewBox="0 0 256 295.603">
  <path fill="#404040" d="M128 0 0 73.901v50.567h7.576V78.274L128 8.747l120.424 69.527v46.194H256V73.901zm120.424 171.298v46.03L128 286.857 7.575 217.329v-46.031L0 245.198v50.405l128 73.9 128-73.9v-50.404zM15.33 82.75 127.999 17.7l112.673 65.05v130.103L128 277.903l-112.671-65.05z"/>
  <path fill="#fff" d="M98.56 219.333H60.681V87.003c0-6.122 4.963-11.086 11.086-11.086H98.56s84.174 110.632 85.007 110.102c.832-.531-26.127-39.952-26.127-39.952v-57.74c0-6.854 5.556-12.41 12.41-12.41h26.328v143.416h-34.95S77.57 109.627 76.522 110.523c-1.048.896 22.037 33.132 22.037 33.132z"/>
</svg>
