<svg xmlns="http://www.w3.org/2000/svg" viewBox="0 0 511.981 147.037">
  <defs>
    <linearGradient id="a" x1="33.964" x2="33.964" y1=".264" y2="68.11" gradientTransform="scale(.46154 2.16666)" gradientUnits="userSpaceOnUse">
      <stop offset="0%" stop-color="#16B0ED" stop-opacity=".8"/>
      <stop offset="100%" stop-color="#0F59B2" stop-opacity=".837"/>
    </linearGradient>
    <linearGradient id="b" x1="225.716" x2="225.716" y1=".275" y2="68.81" gradientTransform="scale(.46628 2.14461)" gradientUnits="userSpaceOnUse">
      <stop offset="0%" stop-color="#7DB643"/>
      <stop offset="100%" stop-color="#367533"/>
    </linearGradient>
    <linearGradient id="c" x1="71.974" x2="71.974" y1=".504" y2="124.293" gradientTransform="scale(.84204 1.1876)" gradientUnits="userSpaceOnUse">
      <stop offset="0%" stop-color="#88C649" stop-opacity=".8"/>
      <stop offset="100%" stop-color="#439240" stop-opacity=".84"/>
    </linearGradient>
  </defs>
  <path fill="url(#a)" d="M.019 32.188 31.332.573v146.998L.02 116.321z" style="fill:url(#a)" transform="translate(-.019 -.573)"/>
  <path fill="url(#b)" d="M89.484 32.486 121.226.59l-.643 146.981-31.314-31.25z" style="fill:url(#b)" transform="matrix(-1 0 0 1 210.477 -.573)"/>
  <path fill="url(#c)" d="m31.311.598 81.412 124.231-22.781 22.781L8.487 23.654z" style="fill:url(#c)" transform="translate(-.019 -.573)"/>
  <path fill-opacity=".13" d="m31.32 57.647-.043 4.893L6.141 25.43l2.328-2.37z"/>
  <g fill="#444">
    <path d="M156.56 106.123v-62.05h3.225c1.074 0 1.695.52 1.86 1.559l.559 9.354c2.812-3.574 6.088-6.454 9.83-8.637 3.74-2.182 7.907-3.274 12.496-3.274 3.39 0 6.378.541 8.962 1.622 2.584 1.08 4.723 2.64 6.419 4.677 1.695 2.038 2.977 4.49 3.845 7.358.868 2.869 1.302 6.112 1.302 9.729v39.662h-5.891V66.46c0-5.821-1.324-10.383-3.97-13.689-2.646-3.305-6.697-4.957-12.155-4.957-4.054 0-7.814 1.05-11.287 3.149-3.473 2.1-6.574 4.979-9.303 8.637v46.522zM242.21 43.075c3.51 0 6.759.601 9.748 1.805a21.92 21.92 0 0 1 7.773 5.26c2.194 2.303 3.906 5.135 5.14 8.497 1.232 3.361 1.849 7.22 1.849 11.578 0 .912-.135 1.535-.407 1.867-.272.332-.7.498-1.283.498h-45.01v1.183c0 4.647.543 8.735 1.63 12.262 1.086 3.527 2.633 6.484 4.639 8.87a19.115 19.115 0 0 0 7.271 5.385c2.84 1.203 6.018 1.805 9.528 1.805 3.134 0 5.851-.343 8.149-1.027 2.298-.685 4.231-1.453 5.798-2.304 1.567-.85 2.811-1.618 3.73-2.303.919-.684 1.588-1.027 2.006-1.027.543 0 .961.208 1.254.623l1.63 1.992c-1.004 1.245-2.33 2.407-3.981 3.485-1.651 1.08-3.49 2.004-5.516 2.77a40.42 40.42 0 0 1-6.52 1.837c-2.319.455-4.648.684-6.989.684-4.262 0-8.149-.737-11.66-2.21a24.79 24.79 0 0 1-9.036-6.442c-2.515-2.822-4.458-6.277-5.83-10.364-1.372-4.087-2.058-8.767-2.058-14.036 0-4.44.637-8.538 1.912-12.294 1.275-3.756 3.113-6.993 5.516-9.71 2.402-2.718 5.348-4.844 8.839-6.38 3.487-1.536 7.448-2.304 11.878-2.304zm.397 4.157c-3.253 0-6.169.486-8.745 1.459-2.578.972-4.806 2.37-6.686 4.193-1.88 1.823-3.4 4.011-4.563 6.564-1.162 2.552-1.932 5.409-2.312 8.569h41.57c0-3.242-.467-6.148-1.396-8.721-.93-2.572-2.239-4.75-3.928-6.533-1.69-1.782-3.718-3.15-6.084-4.103-2.365-.951-4.983-1.428-7.856-1.428zM301.047 43.075c4.521 0 8.569.757 12.141 2.272 3.57 1.515 6.582 3.663 9.035 6.443 2.45 2.78 4.321 6.13 5.61 10.052 1.29 3.922 1.934 8.31 1.934 13.166 0 4.855-.645 9.233-1.933 13.133-1.29 3.902-3.16 7.242-5.611 10.022-2.453 2.78-5.464 4.918-9.035 6.412-3.572 1.493-7.62 2.24-12.141 2.24-4.523 0-8.57-.747-12.142-2.24-3.572-1.494-6.593-3.632-9.066-6.412-2.473-2.78-4.354-6.121-5.643-10.022-1.29-3.9-1.933-8.278-1.933-13.133 0-4.856.644-9.244 1.933-13.166 1.29-3.921 3.17-7.271 5.643-10.052 2.473-2.78 5.494-4.928 9.066-6.443 3.572-1.514 7.619-2.272 12.142-2.272zm-.347 59.583c3.7 0 6.932-.636 9.697-1.91 2.764-1.273 5.072-3.1 6.923-5.48 1.85-2.379 3.232-5.248 4.147-8.61.913-3.36 1.372-7.128 1.372-11.304 0-4.133-.458-7.89-1.372-11.272-.915-3.382-2.297-6.272-4.147-8.673a18.541 18.541 0 0 0-6.923-5.543c-2.765-1.293-5.998-1.941-9.697-1.941-3.7 0-6.934.648-9.698 1.941a18.541 18.541 0 0 0-6.922 5.543c-1.851 2.4-3.243 5.291-4.179 8.673-.935 3.382-1.403 7.14-1.403 11.272 0 4.175.468 7.944 1.403 11.304.936 3.362 2.328 6.231 4.179 8.61 1.85 2.38 4.157 4.207 6.922 5.48 2.764 1.274 5.997 1.91 9.698 1.91zM366.882 104.737h-13.891l-25.302-63.74h12.713c1.116 0 2.056.27 2.822.807.764.54 1.292 1.222 1.58 2.05l12.28 34.045a64.266 64.266 0 0 1 1.767 5.84c.475 1.906.9 3.81 1.271 5.715.373-1.905.795-3.81 1.272-5.715a53.842 53.842 0 0 1 1.83-5.84l12.588-34.045c.29-.828.806-1.51 1.55-2.05.745-.538 1.633-.807 2.667-.807h12.093zM395.586 41.69h15.935v63.74h-15.935zM421.914 105.43V41.304h9.439c2 0 3.31.937 3.936 2.812l1 4.75a36.511 36.511 0 0 1 3.531-3.437 22.677 22.677 0 0 1 3.938-2.688 21.291 21.291 0 0 1 4.5-1.78c1.604-.438 3.364-.657 5.283-.657 4.04 0 7.364 1.094 9.969 3.281 2.604 2.188 4.552 5.094 5.844 8.719 1-2.125 2.25-3.948 3.75-5.469a20.54 20.54 0 0 1 4.937-3.719 22.758 22.758 0 0 1 5.72-2.125 27.434 27.434 0 0 1 6.093-.687c3.542 0 6.688.542 9.438 1.625 2.75 1.084 5.063 2.666 6.938 4.75s3.302 4.625 4.281 7.625c.979 3 1.47 6.438 1.47 10.313v40.813h-15.439V64.617c0-4.084-.896-7.157-2.686-9.22-1.793-2.062-4.418-3.093-7.877-3.093-1.584 0-3.051.271-4.405.813a10.523 10.523 0 0 0-3.564 2.343c-1.02 1.022-1.822 2.303-2.406 3.844-.584 1.541-.875 3.313-.875 5.313v40.813h-15.5V64.617c0-4.292-.864-7.417-2.593-9.375-1.73-1.958-4.282-2.938-7.657-2.938-2.21 0-4.281.553-6.219 1.656-1.938 1.104-3.74 2.615-5.406 4.532v46.938zM395.586 20.212h15.935v13.164h-15.935z"/>
  </g>
</svg>
