<svg xmlns="http://www.w3.org/2000/svg" viewBox="0 0 254.162 270.022">
  <g fill="#e92200">
    <path d="M22.319 59.842c7.87 2.03 39.193 11.492 58 17.235 18.808 5.736 32.884 9.45 43.821 12.497 11.029 3.159 10.206 11.78 1.58 11.035-8.621-.836-18.814-5.469-29.001-9.462-10.2-3.877-42.26-13.241-58.757-18.8-16.387-5.47-20.38-5.47-22.685-8.62-2.322-3.056-.835-5.933 7.042-3.885"/>
    <path d="M139.892 94.307c7.035-.744 7.779 6.297 6.206 10.193-1.573 3.89-9.352 5.462-10.925 1.579-2.414-5.475-2.414-10.943 4.719-11.772M232.272 37.876c-4.64 3.987-18.808 12.608-28.915 19.65-10.187 7.04-29 19.55-34.56 22.696-5.457 3.146-12.498 7.047-17.23 10.925-4.638 3.993-3.06 11.034 3.988 8.626 7.03-2.316 14.083-6.206 18.801-10.943 4.633-4.719 9.358-7.87 14.083-10.925 4.73-3.146 40.772-29.83 47.814-34.566 7.047-7.78.743-9.358-3.981-5.463M250.346 24.627c3.884 0 5.456 8.62 1.573 10.931-3.89 2.317-9.455 2.317-9.455-5.462 0-7.883 3.987-5.469 7.882-5.469M248.028 41.023c3.06 0 4.627 6.31 3.895 11.029-.835 4.633.732 35.212 1.567 46.143.744 11.028.744 15.76-.835 19.649-1.567 3.89 0 10.187 0 20.38 0 10.2-1.567 23.447-2.31 29.006-.83 5.463-1.573 9.352-4.737 8.615-3.146-.83-3.146-4.731-3.146-11.035 0-6.2 0-39.187.841-46.966.726-7.877.726-11.029.726-17.24V51.222c0-6.304.847-10.2 3.999-10.2M245.608 182.053c4.736-.75 6.315 7.87 3.907 10.187-2.329 2.414-7.803 1.579-9.37-2.317-1.573-3.89.744-7.035 5.463-7.87M5.628 52.796c4.274-.652 5.658 7.047 2.14 9.815C4.25 65.495-.663 63.355.074 59.1c.64-4.176 1.39-5.56 5.554-6.304M15.55 46.494c9.827-4.913 30.207-17.606 35.115-18.99 4.914-1.39 13.991-7.041 17.521-9.821 3.505-2.786 14.717-9.175 16.85-10.565 2.14-1.39 11.95 0 3.524 5.651-8.443 5.658-20.374 12.601-28.811 17.515-8.438 4.999-32.348 17.6-37.255 19.734-4.914 2.128-16.863 1.39-6.944-3.524M99.125.078c1.402-.647 5.645 2.871 3.512 5.651-2.11 2.774-4.908 4.908-7.78 0C92.085.815 97.73.815 99.126.078M113.205.816c9.09 0 31.591 3.518 38.638 5.657 6.956 2.03 21.045 4.165 23.819 4.908 2.865.646 12.687.646 14.814 1.39 2.049.64 8.431 3.518 21.033 4.914 12.698 1.384 20.374 2.78 23.916 4.164 3.523 1.487 1.396 9.912-4.274 8.43-5.554-1.39-28.714-4.17-34.371-4.906-5.658-.653-16.863-4.908-23.16-5.56-6.401-.744-22.52-4.268-35.865-5.658-13.34-1.384-22.508-4.164-26.038-4.908-3.517-.744-7.681-8.431 1.488-8.431M3.598 75.961c0-4.914 7.688-7.047 8.431-.652.647 6.303 1.384 16.862 2.036 25.294.744 8.437 1.482 16.13 2.128 21.776.744 5.56 4.261 19.642 4.926 23.91.725 4.158 1.378 12.595 1.378 17.509 0 4.913 1.481 11.96.744 15.478-.744 3.512-4.262 12.595-6.304 2.122-2.128-10.56-.744-23.898-2.128-27.422-1.396-3.53-4.267-11.217-4.267-16.862 0-5.658-2.774-20.38-3.432-23.904-.732-3.524-3.512-32.341-3.512-37.249M18.98 194.748c.743-2.877 6.394-4.913 8.424-1.396 2.14 3.53 1.482 9.084-3.426 9.828-4.999.652-5.651-5.657-4.999-8.432M30.276 185.574c6.31-6.298 24.556-16.119 35.127-25.3 10.559-9.084 29.452-21.776 32.975-25.288 3.518-3.53 12.7-.658 4.914 5.645-7.681 6.304-25.94 19.643-33.731 25.953-7.682 6.389-28.72 20.38-32.976 24.635-4.17 4.176-12.607.652-6.31-5.645M112.463 123.03c2.786.743 2.786 6.394 0 7.784-2.78 1.384-7.693.64-7.035-3.524.738-4.26 4.255-4.908 7.035-4.26M40.108 201.79c9.815 2.78 31.585 16.863 38.633 19.637 7.041 2.786 20.386 9.821 26.683 13.345 6.298 3.518 21.77 10.565 26.038 12.601 4.158 2.134 7.688 2.872 9.815 5.005 2.134 2.03-.731 9.822-6.303 6.95-5.646-2.78-27.422-13.99-30.94-16.125-3.505-2.133-16.862-9.169-21.13-11.955-4.163-2.78-9.815-3.517-15.375-6.303-5.65-2.768-25.293-13.333-31.688-16.857-6.292-3.517-5.566-9.175 4.267-6.297M137.016 116.082c-.646 6.95.744 20.295 1.487 23.818.647 3.506 3.433 18.24 2.774 28.812-.731 10.565 0 23.904 1.396 30.939 1.378 7.047 2.122 25.294 2.122 30.214 0 4.907 1.39 11.205 2.134 12.6.646 1.482 4.92 7.78 5.56-1.395.755-9.083 0-27.33.755-32.982.653-5.651-.756-18.99-2.14-35.865-1.39-16.868-2.12-30.847-2.12-35.109 0-4.17 1.377-14.735-1.41-18.99-2.127-7.047-9.814-9.083-10.558-2.042M150.36 255.155c2.128-.743 9.188 4.915 6.39 11.212-2.853 6.31-7.03 3.523-9.821-1.384-2.878-4.913 1.39-9.175 3.432-9.828M165.188 248.11c9.077-10.56 11.223-7.688 16.13-11.944 4.908-4.182 24.545-19.648 31.592-25.946 7.03-6.389 12.687-9.912 16.845-13.339 4.273-3.53 10.589 1.67 4.273 5.554-6.304 3.89-20.374 17.692-26.038 25.294-5.553 7.602-10.565 5.645-16.868 11.955-6.28 6.298-9.803 11.211-13.34 12.699-3.517 1.39-6.29 3.426-9.083 5.547-2.871 2.134-12.686.75-3.511-9.82"/>
    <path d="M125.058 127.938c4.268 1.488 21.868 7.785 33.744 13.437 11.955 5.56 40.754 17.508 46.418 21.038 5.639 3.512 28.067 11.943 30.939 14.077 2.792 2.036 3.438 12.607-2.872 9.827-6.303-2.871-23.904-12.699-35.103-17.606-11.217-4.914-28.823-13.351-37.267-15.479-8.425-2.042-24.55-11.857-28.799-14.735-4.17-2.774-9.09-2.774-11.211-6.298-2.146-3.517 0-5.645 4.151-4.26M104.033 18.423c1.396 8.432 2.78 17.51 2.78 24.55 0 7.042 1.39 18.253 2.14 21.777.732 3.517 2.122 15.472 1.378 17.606-.646 2.036 0 18.899 0 23.166 0 4.164 1.39 9.822-2.78 9.822-4.261 0-4.914-3.53-4.914-11.218 0-7.785-2.859-24.641-2.859-31.689 0-6.943-1.396-21.776-1.396-31.597 0-9.815-2.042-20.38-2.774-23.16-.75-2.786 7.03-7.688 8.425.743"/>
  </g>
</svg>
