<svg xmlns="http://www.w3.org/2000/svg" viewBox="0 0 512 137.562">
  <path fill="#db202c" d="M340.657 0v100.203c12.36.575 24.687 1.27 36.98 2.09v21.245a1822.44 1822.44 0 0 0-58.542-2.959V0zM512 .012l-28.077 65.094 28.07 72.438-.031.014a1789.301 1789.301 0 0 0-24.576-3.324l-15.763-40.656-15.913 36.882a1789.08 1789.08 0 0 0-22.662-2.36l27.371-63.43L435.352.013h23.325l14.035 36.184L488.318.012zM245.093 119.526V.011h60.19v21.436h-38.628v27.78h29.227v21.245h-29.227v49.05zM164.58 21.448V.01h66.69v21.437h-22.565v98.66c-7.197.19-14.386.412-21.56.683V21.448zM90.868 126.966V.014h59.89v21.435h-38.331v29.036c8.806-.113 21.327-.24 29.117-.222V71.51c-9.751-.12-20.758.134-29.117.217v32.164a1848.238 1848.238 0 0 1 38.331-2.62v21.247a1815.649 1815.649 0 0 0-59.89 4.45zM48.571 77.854 48.57.01h21.562V128.97c-7.882.81-15.75 1.673-23.603 2.584L21.56 59.824v74.802c-7.201.938-14.388 1.915-21.561 2.936V.012h20.491zm346.854 46.965V.012h21.563V126.6c-7.179-.64-14.364-1.23-21.563-1.78z"/>
</svg>
