<svg xmlns="http://www.w3.org/2000/svg" xmlns:xlink="http://www.w3.org/1999/xlink" viewBox="0 0 255.904 255.904">
  <defs>
    <radialGradient id="a" cx=".483" cy=".494" r=".704" fx=".483" fy=".494" gradientTransform="matrix(1 0 0 .55088 0 .222)">
      <stop offset="0%"/>
      <stop offset="100%" stop-opacity="0"/>
    </radialGradient>
    <radialGradient id="b" cx="170.251" cy="94.218" r="90.749" fx="170.251" fy="94.218" gradientTransform="scale(.7422 1.34733)" gradientUnits="userSpaceOnUse" xlink:href="#a"/>
    <radialGradient id="c" cx="170.251" cy="94.218" r="90.749" fx="170.251" fy="94.218" gradientTransform="scale(.7422 1.34733)" gradientUnits="userSpaceOnUse" xlink:href="#a"/>
  </defs>
  <path d="M255.904 255.904H0V0h255.904z"/>
  <path fill="#b1060f" stroke="#000" stroke-width="2.956" d="m141.676 41.275-.067 38.361-.068 38.361-3.156-8.905-.006-.017-4.078 85.402c4.01 11.324 6.158 17.369 6.182 17.393.032.032 2.317.17 5.078.307 8.366.415 18.734 1.304 26.599 2.282 1.821.226 3.388.342 3.483.257.094-.084.145-39.143.114-86.798l-.058-86.643h-17.011zM80.138 41.16v86.732c0 47.703.047 86.779.104 86.836.057.057 3.011-.222 6.565-.62 3.553-.398 8.465-.893 10.914-1.1 3.756-.317 14.97-1.038 16.268-1.046.378-.002.402-1.95.457-36.735l.058-36.734 2.713 7.677.96 2.713 4.077-85.381-1.401-3.96c-3.332-9.42-6.159-17.408-6.283-17.754l-.225-.628H97.242z"/>
  <path fill="url(#a)" d="M80.138 41.16v48.685l34.296 90.976c.004-2.085.008-3.211.012-5.594l.058-36.734 2.713 7.677c15.104 42.738 23.218 65.652 23.266 65.7.031.032 2.317.17 5.078.307 8.366.415 18.734 1.304 26.599 2.282 1.821.226 3.388.342 3.482.257.065-.058.108-19.21.119-46.227l-34.136-98.14-.016 9.287-.068 38.361-3.156-8.905a81499.4 81499.4 0 0 1-17.532-49.55c-3.332-9.42-6.159-17.408-6.283-17.754l-.225-.628H97.242z" style="fill:url(#b)"/>
  <path fill="#e50914" d="m80.139 41.16 34.365 97.377v-.044l2.713 7.677c15.104 42.738 23.218 65.652 23.266 65.7.031.032 2.317.17 5.078.307 8.366.415 18.734 1.304 26.599 2.282 1.812.225 3.37.34 3.48.258L141.54 117.98v.017l-3.156-8.905c-3.084-8.701-5.143-14.52-17.532-49.55-3.332-9.42-6.159-17.408-6.283-17.754l-.225-.628H97.242z"/>
  <path fill="#b1060f" stroke="#000" stroke-width="2.956" d="m141.676 41.275-.067 38.361-.068 38.361-3.156-8.905-.006-.017-4.078 85.402c4.01 11.324 6.158 17.369 6.182 17.393.032.032 2.317.17 5.078.307 8.366.415 18.734 1.304 26.599 2.282 1.821.226 3.388.342 3.483.257.094-.084.145-39.143.114-86.798l-.058-86.643h-17.011zM80.138 41.16v86.732c0 47.703.047 86.779.104 86.836.057.057 3.011-.222 6.565-.62 3.553-.398 8.465-.893 10.914-1.1 3.756-.317 14.97-1.038 16.268-1.046.378-.002.402-1.95.457-36.735l.058-36.734 2.713 7.677.96 2.713 4.077-85.381-1.401-3.96c-3.332-9.42-6.159-17.408-6.283-17.754l-.225-.628H97.242z"/>
  <path fill="url(#a)" d="M80.138 41.16v48.685l34.296 90.976c.004-2.085.008-3.211.012-5.594l.058-36.734 2.713 7.677c15.104 42.738 23.218 65.652 23.266 65.7.031.032 2.317.17 5.078.307 8.366.415 18.734 1.304 26.599 2.282 1.821.226 3.388.342 3.482.257.065-.058.108-19.21.119-46.227l-34.136-98.14-.016 9.287-.068 38.361-3.156-8.905a81499.4 81499.4 0 0 1-17.532-49.55c-3.332-9.42-6.159-17.408-6.283-17.754l-.225-.628H97.242z" style="fill:url(#c)"/>
  <path fill="#e50914" d="m80.139 41.16 34.365 97.377v-.044l2.713 7.677c15.104 42.738 23.218 65.652 23.266 65.7.031.032 2.317.17 5.078.307 8.366.415 18.734 1.304 26.599 2.282 1.812.225 3.37.34 3.48.258L141.54 117.98v.017l-3.156-8.905c-3.084-8.701-5.143-14.52-17.532-49.55-3.332-9.42-6.159-17.408-6.283-17.754l-.225-.628H97.242z"/>
</svg>
