<svg xmlns="http://www.w3.org/2000/svg" viewBox="0 0 256 256">
  <defs>
    <radialGradient id="a" cx="128" cy="-128" r="256" fx="128" fy="-128" gradientUnits="userSpaceOnUse">
      <stop offset="0%" stop-color="#20C6B7"/>
      <stop offset="100%" stop-color="#4D9ABF"/>
    </radialGradient>
  </defs>
  <path fill="url(#a)" d="m185.532 88.839-.094-.04a.396.396 0 0 1-.154-.087.734.734 0 0 1-.187-.621l5.167-31.553 24.229 24.209-25.198 10.709a.555.555 0 0 1-.22.04h-.101a.695.695 0 0 1-.134-.114 11.468 11.468 0 0 0-3.308-2.543zm35.144-1.923 25.906 25.878c5.38 5.381 8.075 8.065 9.057 11.177.147.46.267.921.361 1.395l-61.913-26.192a4.959 4.959 0 0 0-.1-.04c-.248-.1-.535-.214-.535-.467 0-.254.294-.374.541-.474l.08-.034zm34.268 46.756c-1.337 2.51-3.944 5.114-8.355 9.527l-29.209 29.17-37.777-7.858-.2-.04c-.335-.054-.689-.114-.689-.414a11.387 11.387 0 0 0-4.378-7.965c-.154-.154-.114-.394-.067-.615 0-.033 0-.066.014-.093l7.105-43.571.026-.147c.04-.334.1-.721.401-.721a11.566 11.566 0 0 0 7.754-4.44c.06-.067.1-.14.18-.18.214-.1.468 0 .689.093l64.5 27.254zm-44.28 45.407-48.031 47.978 8.22-50.475.014-.067a.921.921 0 0 1 .04-.193c.067-.16.24-.227.408-.294l.08-.034c1.8-.767 3.392-1.95 4.646-3.451.16-.187.354-.368.601-.401a.6.6 0 0 1 .194 0l33.82 6.944zm-58.198 58.133-5.414 5.408-59.854-86.408a2.83 2.83 0 0 0-.067-.094c-.093-.127-.194-.253-.173-.4.006-.107.073-.2.147-.28l.066-.088c.18-.267.335-.534.502-.82l.133-.234.02-.02c.094-.16.18-.314.341-.401.14-.067.335-.04.488-.007l66.311 13.66c.186.029.36.105.508.22.087.087.107.18.127.288a11.735 11.735 0 0 0 6.871 7.845c.187.093.107.3.02.52a1.595 1.595 0 0 0-.1.3c-.836 5.075-8 48.726-9.926 60.51zm-11.309 11.29c-3.99 3.946-6.343 6.035-9.003 6.877a13.382 13.382 0 0 1-8.06 0c-3.115-.989-5.81-3.672-11.19-9.054l-60.108-60.042 15.7-24.323a1 1 0 0 1 .268-.314c.167-.12.408-.066.608 0a16.285 16.285 0 0 0 10.948-.554c.18-.066.361-.113.502.014.07.064.133.135.187.213l60.148 87.19zm-94.156-68.008-13.789-13.773 27.23-11.604a.562.562 0 0 1 .221-.047c.227 0 .361.227.481.434.274.42.564.83.87 1.229l.086.106c.08.114.027.227-.053.334l-15.04 23.321zM27.11 160.625 9.665 143.199c-2.968-2.964-5.12-5.114-6.617-6.963l53.043 10.99.2.033c.328.053.69.113.69.42 0 .334-.395.488-.73.614l-.153.067zM0 127.275a13.34 13.34 0 0 1 .602-3.304c.989-3.112 3.676-5.796 9.063-11.177l22.324-22.3a14523.026 14523.026 0 0 0 30.92 44.647c.18.24.38.507.174.707-.976 1.075-1.952 2.25-2.64 3.526-.075.163-.19.306-.335.413-.087.054-.18.034-.28.014h-.014L0 127.269zm37.965-42.75 30.017-29.984c2.82 1.235 13.087 5.568 22.27 9.44 6.952 2.939 13.288 5.61 15.28 6.477.2.08.381.16.468.36.053.12.027.274 0 .401a13.363 13.363 0 0 0 3.496 12.205c.2.2 0 .487-.174.734l-.094.14-30.478 47.157c-.08.134-.154.247-.288.334-.16.1-.387.053-.575.007a15.215 15.215 0 0 0-3.629-.494c-1.096 0-2.286.2-3.489.42h-.007c-.133.02-.254.047-.36-.033a1.402 1.402 0 0 1-.301-.34zm36.08-36.04 38.86-38.817c5.38-5.375 8.074-8.065 11.188-9.047a13.382 13.382 0 0 1 8.061 0c3.115.982 5.808 3.672 11.189 9.047l8.422 8.413-27.638 42.756a1.036 1.036 0 0 1-.274.32c-.167.114-.401.067-.602 0a14.028 14.028 0 0 0-12.833 2.471c-.18.187-.448.08-.675-.02-3.61-1.569-31.682-13.42-35.699-15.122zm83.588-24.542 25.52 25.49-6.15 38.044v.1a.883.883 0 0 1-.053.254c-.067.133-.201.16-.335.2a12.237 12.237 0 0 0-3.662 1.823 1.032 1.032 0 0 0-.134.113c-.074.08-.147.154-.268.167a.763.763 0 0 1-.287-.047l-38.887-16.504-.073-.034c-.248-.1-.542-.22-.542-.474a14.664 14.664 0 0 0-2.072-6.109c-.187-.307-.394-.627-.234-.941zM131.352 81.4l36.454 15.423c.2.093.421.18.508.387a.707.707 0 0 1 0 .38c-.107.535-.2 1.142-.2 1.757v1.021c0 .254-.261.36-.502.46l-.073.027c-5.775 2.464-81.076 34.538-81.19 34.538-.113 0-.234 0-.347-.113-.2-.2 0-.48.18-.735a5.03 5.03 0 0 0 .094-.133l29.957-46.335.053-.08c.174-.281.375-.595.696-.595l.3.047c.682.093 1.284.18 1.892.18 4.545 0 8.756-2.21 11.296-5.989.06-.1.137-.19.227-.267.18-.133.448-.066.655.027zm-41.748 61.324 82.079-34.965s.12 0 .234.114c.447.447.828.747 1.196 1.028l.18.113c.168.094.335.2.348.374 0 .067 0 .107-.013.167l-7.032 43.144-.027.173c-.046.334-.093.715-.407.715a11.558 11.558 0 0 0-9.177 5.655l-.034.053c-.093.154-.18.3-.334.38-.14.068-.32.041-.468.008l-65.455-13.487c-.067-.013-1.016-3.465-1.09-3.472z" style="fill:url(#a)"/>
</svg>
