<svg xmlns="http://www.w3.org/2000/svg" viewBox="0 0 256 207.331">
  <path fill="#37808c" d="M123.33 172.572c-38.872 0-70.371-31.509-70.371-70.38 0-38.86 31.5-70.363 70.371-70.363 38.861 0 70.368 31.503 70.368 70.364 0 38.87-31.507 70.379-70.368 70.379zm130.791-96.328c-12.006-55.198-78.2-87.67-147.854-72.524C36.613 18.865-10.124 75.892 1.88 131.088c12.002 55.198 78.198 87.669 147.852 72.523 69.654-15.146 116.389-72.173 104.39-127.367z"/>
  <path fill="#9bd3cd" d="M123.002 171.235c-38.216 0-69.184-30.977-69.184-69.191 0-38.205 30.968-69.177 69.184-69.177 38.205 0 69.18 30.972 69.18 69.177 0 38.214-30.975 69.19-69.18 69.19zM140.53 14.899c-49.7 0-90 40.296-90 89.997 0 49.704 40.3 90 90 90 49.698 0 90-40.296 90-90 0-49.701-40.302-89.997-90-89.997z"/>
  <g fill="#1b1a19">
    <path d="m98.02 94.781-7.548-15.826c-1.801-3.75-3.652-7.986-4.285-9.982l-.146.146c.244 2.824.293 6.379.341 9.35l.195 16.312h-5.502V61.084h6.33l8.18 16.46c1.559 3.116 3.02 7.108 3.458 8.667l.146-.146c-.146-1.705-.487-6.525-.487-9.593l-.098-15.388h5.308v33.697H98.02M118.666 73.599c-3.02 0-4.675 2.386-4.675 6.379h9.106c0-3.993-1.753-6.38-4.431-6.38zm-4.724 10.323v.39c0 3.408 1.267 7.012 6.087 7.012 2.289 0 4.286-.828 6.136-2.435l2.094 3.263c-2.58 2.191-5.552 3.262-8.862 3.262-6.964 0-11.347-5.015-11.347-12.904 0-4.334.926-7.207 3.068-9.642 1.997-2.288 4.431-3.31 7.548-3.31 2.434 0 4.675.632 6.768 2.531 2.143 1.948 3.214 4.967 3.214 10.713v1.12zM157.133 94.878h-5.016L149.1 83.533c-.78-2.922-1.608-6.72-1.608-6.72h-.097s-.39 2.435-1.607 6.963l-2.97 11.102H137.8l-6.72-24.396 5.308-.73 2.678 11.93a157.494 157.494 0 0 1 1.266 6.477h.147s.486-3.214 1.411-6.623l3.166-11.394h5.259l2.775 11.102c1.023 3.993 1.559 7.012 1.559 7.012h.146s.584-3.75 1.217-6.622l2.532-11.492h5.552l-6.964 24.736M85.999 108.986H82.93v10.664h2.873c2.922 0 4.48-.39 5.503-1.412.925-.925 1.51-2.337 1.51-4.09 0-3.41-1.85-5.162-6.818-5.162zm7.791 29.168-2.921-5.21c-2.338-4.14-3.896-6.476-5.746-8.327-.634-.633-1.12-.974-2.192-1.022v14.56h-5.502v-33.697h10.275c7.547 0 10.956 4.382 10.956 9.64 0 4.822-3.117 9.253-8.376 9.253 1.218.633 3.457 3.896 5.21 6.72l4.968 8.083zM112.537 116.972c-3.02 0-4.675 2.386-4.675 6.379h9.106c0-3.993-1.753-6.38-4.431-6.38zm-4.724 10.323v.39c0 3.408 1.266 7.012 6.087 7.012 2.289 0 4.285-.828 6.136-2.435l2.093 3.263c-2.58 2.191-5.55 3.263-8.862 3.263-6.964 0-11.346-5.016-11.346-12.905 0-4.334.925-7.207 3.068-9.641 1.996-2.29 4.431-3.312 7.548-3.312 2.434 0 4.674.634 6.768 2.532 2.143 1.948 3.214 4.967 3.214 10.713v1.12zM132.55 138.69c-5.406 0-5.406-4.87-5.406-6.964V110.74c0-3.36-.146-5.162-.487-7.207l5.502-1.217c.39 1.51.438 3.554.438 6.768v20.89c0 3.312.147 3.847.536 4.432.292.438 1.12.681 1.753.39l.876 3.31c-.973.39-1.996.585-3.213.585M139.17 138.154v-24.25l5.406-.974v25.224zm2.679-28.292c-1.948 0-3.458-1.606-3.458-3.554 0-1.997 1.558-3.604 3.555-3.604 1.899 0 3.506 1.559 3.506 3.604 0 1.948-1.607 3.554-3.603 3.554zM159.914 138.788c-6.72 0-10.47-4.724-10.47-12.661 0-8.96 5.357-13.246 10.86-13.246 2.678 0 4.625.634 6.816 2.679l-2.677 3.554c-1.461-1.314-2.727-1.898-4.14-1.898-1.704 0-3.116.876-3.895 2.483-.73 1.51-1.023 3.798-1.023 6.866 0 3.36.536 5.503 1.656 6.72.779.876 1.947 1.412 3.262 1.412 1.705 0 3.36-.828 4.967-2.435l2.532 3.263c-2.24 2.24-4.577 3.263-7.888 3.263M172.653 133.735a1.627 1.627 0 0 0-.457-.058h-.292v1.099h.273c.35 0 .505-.04.612-.136a.574.574 0 0 0 .156-.409c0-.252-.097-.418-.292-.496zm.428 3.345c-.156-.272-.224-.38-.38-.671-.398-.73-.524-.933-.67-.992a.27.27 0 0 0-.127-.029v1.692h-.797v-4.055h1.507c.72 0 1.196.477 1.196 1.186 0 .613-.408 1.11-.904 1.119a.926.926 0 0 1 .166.175c.232.291.971 1.575.971 1.575h-.962zm-.71-4.9c-1.536 0-2.77 1.283-2.77 2.897 0 1.614 1.234 2.917 2.77 2.917s2.78-1.303 2.78-2.917c0-1.614-1.244-2.897-2.78-2.897zm0 6.513a3.6 3.6 0 0 1-3.597-3.616 3.606 3.606 0 0 1 3.597-3.616 3.606 3.606 0 0 1 3.598 3.616 3.6 3.6 0 0 1-3.598 3.616z"/>
  </g>
</svg>
