<svg xmlns="http://www.w3.org/2000/svg" viewBox="0 0 511.571 107.223">
  <g fill="#090">
    <path d="M95.859 107.01c-2.89 0-5.735-1.126-7.86-3.255L22.228 37.979v57.916c0 6.14-4.975 11.114-11.114 11.114C4.979 107.01 0 102.035 0 95.895v-84.75C0 6.648 2.712 2.598 6.864.878a11.096 11.096 0 0 1 12.11 2.409l65.771 65.776V11.146C84.745 5.006 89.72.032 95.86.032c6.14 0 11.114 4.974 11.114 11.114v84.75a11.12 11.12 0 0 1-11.114 11.113M147.325.139l-3.054 5.699-23.62 42.926-3.053 5.419 3.054 5.415 23.619 41.539 3.192 5.694h61.824l3.054-6.25 17.644-35.564 7.918-16.115h-17.92l-45.15.137c-5.872-.08-11.273 5.242-11.273 11.114 0 5.873 5.401 11.199 11.274 11.114l27.229-.138-6.669 13.475h-35.008L143.017 54.04l17.507-31.675h37.24l8.682 17.818h22.37l-14.101-33.79-3.059-6.255h-64.331M259.917 0c-5.824.072-11.052 5.433-10.976 11.252v28.963h22.227V11.252C271.24 5.34 265.825-.075 259.917.001M295.543 107.223a11.117 11.117 0 0 1-11.11-11.114v-84.75c0-6.14 4.975-11.114 11.115-11.114 6.139 0 11.114 4.975 11.114 11.114v57.916L372.433 3.5a11.102 11.102 0 0 1 12.11-2.41 11.117 11.117 0 0 1 6.86 10.27v84.75c0 6.139-4.975 11.114-11.115 11.114-6.139 0-11.113-4.975-11.113-11.114V38.192l-65.772 65.776a11.1 11.1 0 0 1-7.86 3.255M473.729 53.65 508.302 19.2c4.348-4.33 4.36-11.367.027-15.72-4.33-4.347-11.363-4.356-15.715-.026l-34.627 34.506-34.626-34.506c-4.352-4.334-11.385-4.321-15.715.027-4.334 4.352-4.32 11.39.022 15.719l34.573 34.448L407.771 88c-4.353 4.334-4.361 11.367-.027 15.715a11.059 11.059 0 0 0 7.873 3.272c2.836 0 5.672-1.08 7.842-3.245l34.528-34.404 34.524 34.404a11.075 11.075 0 0 0 7.847 3.245c2.854 0 5.699-1.09 7.873-3.272 4.33-4.348 4.32-11.38-.027-15.715l-34.475-34.35M259.917 106.907c-5.824-.071-11.052-5.433-10.976-11.252V49.133h22.227v46.522c.072 5.908-5.343 11.323-11.251 11.252"/>
  </g>
</svg>
