<svg xmlns="http://www.w3.org/2000/svg" viewBox="0 0 256 327.267">
  <path fill="#794422" d="M179.257 98.215c135.795 67.576 72.605 195.517-45.395 202.093a73.928 73.928 0 0 1-14.954-.692C6.538 282.924-33.745 169.793 72.222 103.22c32.287-20.284 72.898-21.994 107.035-5.006"/>
  <path fill="#502d17" d="M170.746 297.509c59.457-34.314 86.973-131.686 37.182-217.086 2.813-14.938 4.5-28.894 4.737-41.585.468-4.11-3.517-7.298-7.423-5.94-11.644 2.853-22.853 6.69-33.558 11.662-8.105-5.648-16.486-7.553-23.368-7.916-3.745-.198-2.33-5.826-2.027-7.893 1.779-3.895 3.467-7.162 7.654-10.897 2.908-2.66-.739-6.316-4.077-4.22-5.437 2.595-8.833 5.216-12.662 9.036-1.087.808-2.388.733-3.324.558-.669-.125-1.155-.735-1.228-1.412-.821-7.54.031-14.303 6.627-19.39 1.241-.957-.006-2.796-1.431-2.36-11.009 3.36-15.784 10.974-19.601 20.387-3.065-2.155-6.652-4.039-10.733-5.667-.69-.364-1.592-.598-2.214-.128-1.116.842-2.504 1.717-1.86 3.22 4.331 6.274 8.683 12.384 13.305 16.381-10.942 2.322-21.29 6.145-30.903 11.827L49.358 32.054c-4.761-1.83-9.733 2.137-9.003 7.186 2.087 21.673 4.23 42.61 7.335 50.721C5.168 177.506 31.315 265.307 87.915 297.51H0v29.758h256v-29.758z"/>
  <path fill="#fff" d="M128.763 106.94c16.31-40.347 52.284-45.534 77.83-19.745 21.203 21.405 21.747 80.406-29.758 91.28 52.363 43.492 16.596 117.316-43.208 117.316-60.089-.858-98.432-73.25-42.634-117.889-52.078 2.29-60.96-52.16-42.063-83.553 17.28-28.708 67.243-33.192 79.833 12.59"/>
  <path fill="#ff7f2b" d="M152.513 161.592c1.464-2.111 1.387-4.898-.104-6.99-4.995-7-12.148-12.754-22.501-12.754-10.627 0-16.942 5.772-22.748 13.449-1.516 2.003-1.622 4.77-.237 6.866 4.36 6.595 11.866 12.706 20.348 18.975a4.289 4.289 0 0 0 5.215-.085c7.974-6.297 15.42-12.817 20.027-19.461"/>
  <path fill="#b1dfec" d="M189.425 122.581c0 18.727-12.324 33.526-26.468 33.526s-25.61-15.18-25.61-33.908c0-18.726 11.466-33.907 25.61-33.907s26.468 15.562 26.468 34.29zm-69.628 3.339c0 18.727-12.324 33.526-26.468 33.526S67.72 144.265 67.72 125.538c0-18.726 11.465-33.907 25.61-33.907 14.143 0 26.467 15.562 26.467 34.289z"/>
  <path d="M179.6 126.587c0 12.276-7.671 22.136-16.547 22.136-8.876 0-16.453-9.955-16.453-22.23 0-12.277 7.577-22.225 16.453-22.225s16.548 10.043 16.548 22.32zm-69.055-.381c0 12.276-7.672 22.136-16.548 22.136-8.876 0-16.453-9.955-16.453-22.231 0-12.276 7.577-22.224 16.453-22.224s16.548 10.043 16.548 22.319z"/>
  <path fill="#fff" d="M166.82 115.905c0 3.74-2.99 6.772-6.677 6.772-3.687 0-6.676-3.032-6.676-6.772s2.989-6.772 6.676-6.772c3.688 0 6.677 3.032 6.677 6.772zm-64-.382c0 3.74-2.99 6.772-6.677 6.772-3.687 0-6.676-3.032-6.676-6.772s2.989-6.772 6.676-6.772c3.688 0 6.677 3.032 6.677 6.772z"/>
  <path fill="#ff7f2b" d="M72.966 311.72s-.191 8.107 5.246 8.203c1.704 5.121 7.723 5.094 8.68.667h6.867s-.668 3.53 3.434 3.434c4.1-.095 3.719-3.72 3.719-3.72h6.486s-.954 3.72 3.243 3.72 3.995-4.262 3.995-4.262c2.358-1.482 5.114-1.365 5.114-5.944 0-.997-.24-2.085-.698-3.212-2.486-6.1-11.43-13.337-23.958-13.384-8.04.053-15.531 4.957-20.507 9.777-1.526 1.478-1.621 4.721-1.621 4.721zm113.5 0s.002 8.393-5.435 8.49c-.857 4.863-7.855 4.806-8.49.38h-6.868s.477 3.53-3.624 3.434c-4.102-.095-3.529-3.72-3.529-3.72h-6.486s.763 3.72-3.434 3.72-3.804-4.262-3.804-4.262c-2.358-1.482-5.114-1.365-5.114-5.944 0-.997.24-2.085.698-3.212 2.486-6.1 11.43-13.337 23.958-13.384 8.04.053 14.797 4.906 20.031 9.443 2.1 2.194 2.097 5.055 2.097 5.055z"/>
</svg>
