<svg xmlns="http://www.w3.org/2000/svg" viewBox="0 0 255.732 289.069">
  <path fill="#3d3b47" d="M127.866 285.644c-2.74 0-5.251-.685-7.078-1.598L10.503 220.569c-3.881-2.283-7.078-7.991-7.078-12.33V80.83c0-4.338 3.425-10.046 7.078-12.33L120.788 5.024c1.827-1.141 4.338-1.598 7.078-1.598s5.252.685 7.079 1.598L245 68.728c3.881 2.283 7.078 7.992 7.078 12.33v127.181c0 4.339-3.425 10.047-7.078 12.33l-110.056 63.705c-1.827.913-4.339 1.37-7.079 1.37z"/>
  <path fill="#ccc" d="M127.866 6.85c2.055 0 4.11.457 5.48 1.142l110.056 63.476c2.74 1.598 5.48 6.165 5.48 9.362v127.18c0 3.198-2.74 7.764-5.48 9.363l-110.056 63.704c-1.37.685-3.425 1.142-5.48 1.142-2.055 0-4.11-.457-5.48-1.142L12.33 217.601c-2.74-1.598-5.48-6.165-5.48-9.362V80.83c0-3.196 2.74-7.763 5.48-9.36L122.386 7.991c1.37-.685 3.425-1.142 5.48-1.142zm0-6.85c-3.196 0-6.393.685-8.905 2.055L8.905 65.531C4.11 68.5 0 75.35 0 80.83v127.18c0 5.71 3.882 12.56 8.905 15.3l110.056 63.704c2.512 1.37 5.709 2.055 8.905 2.055 3.197 0 6.394-.685 8.905-2.055l110.056-63.705c4.795-2.74 8.905-9.59 8.905-15.298V80.83c0-5.709-3.881-12.559-8.905-15.299L136.771 2.055C134.26.685 131.063 0 127.866 0z"/>
  <path fill="#eff3f3" d="M127.866 134.716h.685c3.197.229 6.165 2.055 7.992 4.795.913 1.598 1.37 3.653 1.37 5.708-.457 5.252-4.567 9.134-9.818 9.134h-.685c-3.197-.229-6.165-2.055-7.992-4.795-.913-1.599-1.37-3.654-1.37-5.709.228-5.023 4.567-9.133 9.818-9.133zm0-.685c-5.48 0-10.046 4.339-10.503 9.818-.228 2.055.228 4.11 1.37 5.937 1.827 2.968 4.795 5.023 8.448 5.252h.685c5.48 0 10.047-4.339 10.504-9.819.228-2.055-.457-4.11-1.37-5.936-1.827-2.968-4.795-5.023-8.449-5.252z"/>
  <path fill="#eff3f3" d="M128.095 141.11c1.826.228 3.425 1.826 3.196 3.653-.228 1.826-1.826 3.425-3.653 3.196-1.827-.228-3.425-1.826-3.197-3.653 0-1.827 1.827-3.425 3.654-3.197zM127.866 158.463h-.913c-4.567-.229-8.905-2.969-11.188-6.85-1.37-2.512-2.055-5.252-1.827-7.992.228-3.197 1.598-6.165 3.653-8.448v-.228L27.4 203.673l103.663-45.667c-1.142.228-2.055.457-3.197.457z"/>
  <path fill="#0977f7" d="M124.441 131.063c1.37-.228 2.74-.457 4.339-.457 4.566.229 8.905 2.969 11.188 6.85 1.37 2.512 2.055 5.252 1.826 7.992-.228 3.425-1.598 6.393-3.881 8.676l91.105-67.13z"/>
</svg>
