<svg xmlns="http://www.w3.org/2000/svg" xmlns:xlink="http://www.w3.org/1999/xlink" viewBox="0 0 511.307 313.094">
  <defs>
    <linearGradient id="b" x1="79.823" x2="32.862" y1="21.346" y2="105.422" gradientTransform="scale(.93681 1.06745)" gradientUnits="userSpaceOnUse">
      <stop offset="0%" stop-color="#41873F"/>
      <stop offset="32.88%" stop-color="#418B3D"/>
      <stop offset="63.52%" stop-color="#419637"/>
      <stop offset="93.19%" stop-color="#3FA92D"/>
      <stop offset="100%" stop-color="#3FAE2A"/>
    </linearGradient>
    <linearGradient id="d" x1="51.369" x2="184.674" y1="64.593" y2="-19.865" gradientTransform="scale(.92602 1.0799)" gradientUnits="userSpaceOnUse">
      <stop offset="13.76%" stop-color="#41873F"/>
      <stop offset="40.32%" stop-color="#54A044"/>
      <stop offset="71.36%" stop-color="#66B848"/>
      <stop offset="90.81%" stop-color="#6CC04A"/>
    </linearGradient>
    <linearGradient id="e" x1="5.443" x2="60.6" y1="1.397" y2="1.397" gradientTransform="scale(1.633 .61237)" gradientUnits="userSpaceOnUse">
      <stop offset="9.192%" stop-color="#6CC04A"/>
      <stop offset="28.64%" stop-color="#66B848"/>
      <stop offset="59.68%" stop-color="#54A044"/>
      <stop offset="86.24%" stop-color="#41873F"/>
    </linearGradient>
    <linearGradient id="f" x1="-1.421" x2="120.279" y1="66.989" y2="66.989" gradientTransform="scale(.92514 1.08092)" gradientUnits="userSpaceOnUse">
      <stop offset="9.192%" stop-color="#6CC04A"/>
      <stop offset="28.64%" stop-color="#66B848"/>
      <stop offset="59.68%" stop-color="#54A044"/>
      <stop offset="86.24%" stop-color="#41873F"/>
    </linearGradient>
    <linearGradient id="g" x1="118.038" x2="169.633" y1="68.363" y2="68.363" gradientTransform="scale(.65465 1.52754)" gradientUnits="userSpaceOnUse">
      <stop offset="9.192%" stop-color="#6CC04A"/>
      <stop offset="28.64%" stop-color="#66B848"/>
      <stop offset="59.68%" stop-color="#54A044"/>
      <stop offset="86.24%" stop-color="#41873F"/>
    </linearGradient>
    <linearGradient id="h" x1="-1.039" x2="87.897" y1="150.752" y2="150.752" gradientTransform="scale(1.26598 .7899)" gradientUnits="userSpaceOnUse">
      <stop offset="9.192%" stop-color="#6CC04A"/>
      <stop offset="28.64%" stop-color="#66B848"/>
      <stop offset="59.68%" stop-color="#54A044"/>
      <stop offset="86.24%" stop-color="#41873F"/>
    </linearGradient>
    <linearGradient id="i" x1="100.854" x2="46.004" y1="37.182" y2="216.514" gradientTransform="scale(1.26598 .7899)" gradientUnits="userSpaceOnUse">
      <stop offset="0%" stop-color="#41873F"/>
      <stop offset="32.88%" stop-color="#418B3D"/>
      <stop offset="63.52%" stop-color="#419637"/>
      <stop offset="93.19%" stop-color="#3FA92D"/>
      <stop offset="100%" stop-color="#3FAE2A"/>
    </linearGradient>
    <path id="a" d="M57.903 1.85a5.957 5.957 0 0 0-5.894 0L3.352 29.933c-1.85 1.04-2.89 3.005-2.89 5.085v56.286c0 2.08 1.156 4.045 2.89 5.085l48.657 28.085a5.957 5.957 0 0 0 5.894 0l48.658-28.085c1.849-1.04 2.89-3.005 2.89-5.085V35.019c0-2.08-1.157-4.045-2.89-5.085L57.903 1.85z"/>
  </defs>
  <g fill="none">
    <path fill="#539e43" d="M252.88 313.094c-1.734 0-3.352-.462-4.855-1.271l-15.371-9.13c-2.312-1.272-1.156-1.734-.463-1.965 3.121-1.04 3.699-1.272 6.935-3.12.347-.232.809-.116 1.156.115l11.788 7.05c.463.231 1.04.231 1.387 0l46.115-26.698c.462-.231.693-.694.693-1.271v-53.28c0-.579-.23-1.04-.693-1.272l-46.115-26.582c-.462-.232-1.04-.232-1.387 0l-46.114 26.582c-.463.231-.694.809-.694 1.271v53.28c0 .463.231 1.04.694 1.272l12.597 7.281c6.82 3.467 11.096-.578 11.096-4.623v-52.587c0-.693.578-1.387 1.387-1.387h5.894c.693 0 1.387.578 1.387 1.387v52.587c0 9.13-4.97 14.447-13.638 14.447-2.658 0-4.739 0-10.633-2.89l-12.135-6.934c-3.005-1.733-4.855-4.97-4.855-8.437v-53.28c0-3.467 1.85-6.704 4.855-8.437l46.114-26.698c2.89-1.618 6.82-1.618 9.709 0l46.114 26.698c3.005 1.733 4.854 4.97 4.854 8.437v53.28c0 3.467-1.849 6.704-4.854 8.437l-46.114 26.698c-1.503.694-3.236 1.04-4.855 1.04zm14.215-36.637c-20.225 0-24.386-9.246-24.386-17.105 0-.694.578-1.387 1.387-1.387h6.01c.693 0 1.271.462 1.271 1.156.925 6.125 3.583 9.13 15.834 9.13 9.708 0 13.869-2.196 13.869-7.397 0-3.005-1.156-5.2-16.296-6.703-12.598-1.272-20.457-4.045-20.457-14.1 0-9.362 7.859-14.91 21.035-14.91 14.793 0 22.075 5.086 23 16.18 0 .348-.116.694-.348 1.041-.23.231-.577.462-.924.462h-6.01c-.578 0-1.156-.462-1.271-1.04-1.387-6.356-4.97-8.437-14.447-8.437-10.633 0-11.905 3.699-11.905 6.472 0 3.352 1.503 4.392 15.834 6.241 14.216 1.85 20.92 4.508 20.92 14.447-.116 10.171-8.438 15.95-23.116 15.95z"/>
    <path fill="#333" d="M109.797 104.712c0-2.08-1.156-4.046-3.005-5.086l-49.004-28.2c-.81-.463-1.734-.694-2.658-.81h-.463c-.924 0-1.849.347-2.658.81l-49.004 28.2C1.155 100.666 0 102.631 0 104.712l.116 75.817c0 1.04.577 2.08 1.502 2.543.925.578 2.08.578 2.89 0l29.125-16.643c1.849-1.04 3.004-3.005 3.004-5.085v-35.482c0-2.08 1.156-4.045 3.005-5.085l12.367-7.166c.925-.578 1.965-.81 3.005-.81 1.04 0 2.08.232 2.89.81l12.366 7.166c1.85 1.04 3.005 3.004 3.005 5.085v35.482c0 2.08 1.156 4.045 3.005 5.085l29.125 16.643c.925.578 2.08.578 3.005 0 .925-.463 1.502-1.503 1.502-2.543zM345.34.347c-.925-.463-2.08-.463-2.89 0-.924.578-1.502 1.502-1.502 2.542v75.125c0 .693-.347 1.386-1.04 1.849-.694.346-1.387.346-2.08 0l-12.251-7.05a5.957 5.957 0 0 0-5.895 0l-49.004 28.316c-1.85 1.04-3.005 3.005-3.005 5.085v56.516c0 2.08 1.156 4.046 3.005 5.086l49.004 28.316a5.957 5.957 0 0 0 5.895 0l49.004-28.316c1.849-1.04 3.005-3.005 3.005-5.086V21.844c0-2.196-1.156-4.16-3.005-5.201zm-4.507 143.776c0 .578-.232 1.04-.694 1.271l-16.758 9.708a1.714 1.714 0 0 1-1.503 0l-16.758-9.708c-.463-.231-.694-.809-.694-1.271v-19.417c0-.578.231-1.04.694-1.271l16.758-9.709a1.714 1.714 0 0 1 1.503 0l16.758 9.709c.462.23.694.809.694 1.271zM508.417 124.244c1.85-1.04 2.89-3.005 2.89-5.086v-13.753c0-2.08-1.156-4.045-2.89-5.085l-48.657-28.2a5.957 5.957 0 0 0-5.895 0l-49.004 28.315c-1.849 1.04-3.005 3.005-3.005 5.086v56.516c0 2.08 1.156 4.045 3.005 5.085l48.658 27.738c1.849 1.04 4.045 1.04 5.779 0l29.471-16.411c.925-.463 1.503-1.503 1.503-2.543 0-1.04-.578-2.08-1.503-2.543l-49.235-28.316c-.925-.577-1.502-1.502-1.502-2.542v-17.683c0-1.04.577-2.08 1.502-2.543l15.372-8.784a2.821 2.821 0 0 1 3.005 0l15.371 8.784c.925.578 1.503 1.502 1.503 2.543v13.869c0 1.04.578 2.08 1.502 2.542.925.578 2.08.578 3.005 0z"/>
    <path fill="#539e43" d="M456.061 121.586a1.05 1.05 0 0 1 1.156 0l9.362 5.432c.347.23.578.577.578 1.04v10.864c0 .462-.231.809-.578 1.04l-9.362 5.432a1.05 1.05 0 0 1-1.156 0l-9.361-5.432c-.347-.231-.578-.578-.578-1.04v-10.864c0-.463.231-.81.578-1.04z"/>
    <g transform="translate(133.837 70.501)">
      <mask id="c" fill="#fff">
        <use width="100%" height="100%" xlink:href="#a"/>
      </mask>
      <use width="100%" height="100%" fill="url(#b)" style="fill:url(#b)" xlink:href="#a"/>
      <g mask="url(#c)">
        <path d="M51.893 1.85 3.121 29.933C1.27 30.974 0 32.94 0 35.02v56.286c0 1.387.578 2.658 1.502 3.698L56.285 1.156c-1.387-.231-3.005-.116-4.392.693zM56.632 125.053c.462-.116.925-.347 1.387-.578l48.773-28.085c1.85-1.04 3.005-3.005 3.005-5.085V35.019c0-1.502-.694-3.005-1.734-4.045z"/>
        <path fill="url(#d)" d="M106.676 29.934 57.788 1.85a8.025 8.025 0 0 0-1.503-.578L1.502 95.12a6.082 6.082 0 0 0 1.619 1.387l48.888 28.085c1.387.809 3.005 1.04 4.507.577l51.432-94.078c-.347-.462-.81-.81-1.272-1.156z" style="fill:url(#d)"/>
      </g>
      <g mask="url(#c)">
        <path d="M109.797 91.305V35.019c0-2.08-1.271-4.045-3.12-5.085L57.786 1.85a5.106 5.106 0 0 0-1.848-.693l53.511 91.42c.231-.347.347-.809.347-1.271zM3.12 29.934C1.272 30.974 0 32.94 0 35.02v56.286c0 2.08 1.387 4.045 3.12 5.085l48.889 28.085c1.156.693 2.427.925 3.814.693L3.467 29.818z"/>
        <path fill="url(#e)" fill-rule="evenodd" d="m50.391.809-.693.347h.924z" style="fill:url(#e)" transform="translate(0 -9.246)"/>
        <path fill="url(#f)" fill-rule="evenodd" d="M106.792 105.636c1.387-.809 2.427-2.196 2.89-3.698L56.053 10.402c-1.387-.231-2.89-.116-4.16.693L3.351 39.065l52.355 95.465a8.056 8.056 0 0 0 2.196-.693z" style="fill:url(#f)" transform="translate(0 -9.246)"/>
        <path fill="url(#g)" fill-rule="evenodd" d="m111.3 104.712-.347-.578v.809z" style="fill:url(#g)" transform="translate(0 -9.246)"/>
        <path fill="url(#h)" fill-rule="evenodd" d="m106.792 105.636-48.773 28.085a6.973 6.973 0 0 1-2.196.693l.925 1.734 54.089-31.32v-.694l-1.387-2.312c-.231 1.618-1.271 3.005-2.658 3.814z" style="fill:url(#h)" transform="translate(0 -9.246)"/>
        <path fill="url(#i)" fill-rule="evenodd" d="m106.792 105.636-48.773 28.085a6.973 6.973 0 0 1-2.196.693l.925 1.734 54.089-31.32v-.694l-1.387-2.312c-.231 1.618-1.271 3.005-2.658 3.814z" style="fill:url(#i)" transform="translate(0 -9.246)"/>
      </g>
    </g>
  </g>
</svg>
