<svg xmlns="http://www.w3.org/2000/svg" viewBox="0 0 255.69 291.036">
  <path fill="#76d04b" d="M120.947 289.19a13.76 13.76 0 0 0 13.77 0l114.08-65.83a13.77 13.77 0 0 0 6.893-11.935V79.664a13.79 13.79 0 0 0-6.886-11.934L134.724 1.846a13.79 13.79 0 0 0-13.785 0L6.889 67.73A13.786 13.786 0 0 0 0 79.664v131.769c0 4.92 2.627 9.466 6.892 11.926l114.054 65.83"/>
  <path fill="#4f4d3f" d="m201.701 114.11-5.087-2.927c7.823-11.54 12.498-28.888 6.636-54.825 0 0-13.202 36.999-39.74 35.773L132.437 74.25a8.1 8.1 0 0 0-3.813-1.108h-.717a8.23 8.23 0 0 0-3.824 1.108L93.006 92.131c-26.535 1.23-39.74-35.773-39.74-35.773-5.866 25.936-1.183 43.285 6.638 54.825l-5.087 2.929a8.385 8.385 0 0 0-4.19 7.27l.153 107.333c0 1.498.775 2.885 2.09 3.613a4 4 0 0 0 4.155 0l41.164-23.57c2.605-1.548 4.189-4.277 4.189-7.26v-50.143c0-2.99 1.584-5.762 4.177-7.243l17.529-10.094a8.268 8.268 0 0 1 4.193-1.13c1.426 0 2.892.37 4.162 1.129l17.523 10.094a8.333 8.333 0 0 1 4.183 7.242v50.143c0 2.983 1.605 5.733 4.194 7.26l41.154 23.57a4.06 4.06 0 0 0 4.184 0 4.17 4.17 0 0 0 2.077-3.614l.134-107.332c-.003-3.018-1.586-5.784-4.186-7.271z"/>
</svg>
