<svg xmlns="http://www.w3.org/2000/svg" viewBox="0 0 255.378 167.467">
  <g fill="#333">
    <path d="M22.322 121.082c-4.094 0-7.64 1.02-9.718 2.706l-.01-.004c-1.138-2.064-3.285-3.101-6.114-3.101-4.461 0-6.48 1.184-6.48 3.462 0 1.368.28 2.103.644 3.011h3.283c1.37 0 2.272.642 2.272 2.555h.005v24.5c0 .669.545 1.212 1.212 1.212h4.605c.669 0 1.213-.543 1.213-1.212v-18.92c0-5.437 2.699-7.97 8.494-7.97 3.259 0 4.598.59 5.144 1.086.524.472 1.148 1.646 1.148 4.548v21.256c0 .669.542 1.212 1.211 1.212h4.61c.668 0 1.21-.543 1.21-1.212v-20.467c0-4.854-.898-8.108-2.743-9.944-1.844-1.829-5.11-2.718-9.986-2.718zM54.59 121.082c-6.22 0-10.214 1.129-12.204 3.45-1.946 2.265-2.893 6.828-2.893 13.951 0 7.122.946 11.685 2.892 13.95 1.991 2.322 5.983 3.451 12.206 3.451 6.244 0 10.246-1.13 12.24-3.449 1.945-2.266 2.892-6.829 2.892-13.952s-.947-11.686-2.893-13.952c-1.993-2.321-5.995-3.45-12.24-3.45zm6.644 27.065c-.413.559-1.822 1.497-6.643 1.497-4.793 0-6.198-.938-6.61-1.497-.458-.625-1.227-2.708-1.227-9.664 0-6.957.77-9.04 1.227-9.665.412-.558 1.817-1.496 6.61-1.496 4.82 0 6.23.938 6.643 1.496.458.625 1.229 2.71 1.229 9.665 0 6.955-.77 9.04-1.229 9.664zM137.997 143.49h-4.706a1.21 1.21 0 0 0-1.21 1.212v.987c0 1.153-.186 2.637-1.063 3.149-.515.301-2.06.806-6.613.806-4.581 0-6.038-.987-6.498-1.576-.464-.594-1.225-2.353-1.326-7.52h21.417c.668 0 1.21-.542 1.21-1.212v-2.467c0-6.372-.991-10.502-3.035-12.622-2.057-2.13-6.068-3.167-12.26-3.167-5.736 0-9.537 1.195-11.619 3.653-2.032 2.4-3.018 6.789-3.018 13.42 0 7.145.984 11.767 3.005 14.13 2.072 2.422 6.103 3.6 12.325 3.6 5.269 0 8.904-.705 11.111-2.156 2.341-1.539 3.526-4.188 3.526-7.91l-.034-1.152a1.212 1.212 0 0 0-1.212-1.174zm-20.023-14.762c.486-.527 1.958-1.406 6.367-1.406 4.428 0 5.924.76 6.423 1.213.478.437 1.282 1.764 1.282 5.763l.006.243h-15.398c.126-3.926.863-5.322 1.32-5.813zM149.457 121.541h-4.61c-.668 0-1.21.544-1.21 1.214v34.353c0 2.66-.356 3.591-.53 3.887l-.592.193h-3.689c-1.936 1.222-3.047 6.126 3.627 6.28l.006-.03c.17.01.355.03.514.03 3.51 0 7.695-1.564 7.695-9.01v-35.703c0-.67-.543-1.214-1.211-1.214zM162.006 121.541H157.4c-.668 0-1.212.544-1.212 1.214v31.456c0 .669.544 1.212 1.212 1.212h4.607c.669 0 1.212-.543 1.212-1.212v-31.456c0-.67-.543-1.214-1.212-1.214zM209.135 135.266l-8.42-.428c-2.446-.121-3.489-1.274-3.489-3.857 0-2.266.558-2.85.798-2.994.33-.2 1.562-.664 5.888-.664 4.82 0 5.996.475 6.242.619.358.214.738 1.124.738 3.04 0 .667.544 1.21 1.212 1.21h4.608c.67 0 1.211-.543 1.211-1.21v-1.152c0-5.803-4.613-8.747-13.716-8.747-5.497 0-9.124.643-11.092 1.967-2.09 1.406-3.15 4.118-3.15 8.063 0 4.194 1.328 7.032 3.944 8.438 2.406 1.294 7.111 1.922 14.38 1.922 1.629 0 3.294.446 3.294 3.757 0 1.84-.406 3.017-1.208 3.504-.562.34-2.201.911-6.86.911-3.722 0-5.078-.526-5.553-.836-.686-.452-1.034-1.502-1.034-3.146l-.034-1.48a1.212 1.212 0 0 0-1.212-1.185h-4.77c-.66 0-1.198.527-1.213 1.187l-.034 1.735c0 3.76 1.169 6.415 3.47 7.896 2.161 1.393 5.857 2.069 11.3 2.069 5.328 0 8.944-.717 11.06-2.192 2.222-1.55 3.347-4.332 3.347-8.267.002-6.329-3.354-9.844-9.707-10.16zM254.736 149.41h-1.908c-1.37 0-2.274-.643-2.274-2.555v-24.1c0-.67-.542-1.213-1.21-1.213h-4.609c-.668 0-1.212.544-1.212 1.214v18.031c0 3.454-.585 5.905-1.694 7.086-1.104 1.177-3.316 1.772-6.572 1.772-3.163 0-4.299-.68-4.695-1.084-.398-.408-1.069-1.584-1.069-4.878v-20.927c0-.67-.543-1.213-1.212-1.213h-4.608c-.667 0-1.21.544-1.21 1.213v20.927c0 7.983 4.23 12.203 12.235 12.203 3.815 0 6.786-.8 8.878-2.387l.415-.499c.708 1.922 2.178 2.886 4.906 2.886 4.464 0 6.48-1.185 6.48-3.463.003-1.367-.277-2.104-.641-3.012zM105.3 149.41c-1.208 0-2.051-.503-2.234-1.933v-31.72c0-.67-.543-1.213-1.21-1.213h-4.609c-.67 0-1.21.544-1.21 1.213v7.566c-1.982-1.488-5.033-2.24-9.121-2.24-4.957 0-8.49 1.314-10.501 3.906-1.966 2.537-2.922 6.799-2.922 13.034 0 6.738.946 11.271 2.894 13.859 2 2.656 5.65 4.003 10.858 4.003 3.84 0 6.793-.784 8.826-2.34l.45-.397c.73 1.824 2.192 2.737 4.85 2.737 4.464 0 6.483-1.185 6.483-3.462 0-1.367-.28-2.104-.645-3.012h-1.91zm-17.202.235c-3.044 0-5.024-.655-5.887-1.95-.664-.99-1.456-3.483-1.456-9.707 0-5.606.788-7.89 1.452-8.822.872-1.224 2.823-1.844 5.792-1.844 3.218 0 5.364.638 6.377 1.9.742.922 1.625 3.117 1.625 8.34 0 6.569-.814 9.13-1.497 10.121-.882 1.284-3.1 1.962-6.406 1.962zM185.742 121.541h-6.769v-6.357c0-.669-.543-1.211-1.21-1.211h-4.608c-.67 0-1.21.542-1.21 1.211v6.357h-3.134c-.67 0-1.212.544-1.212 1.214v3.814c0 .67.542 1.213 1.212 1.213h3.133v19.16c0 4.052 1.775 8.876 10.171 8.937l.001.006c.018 0 .034-.004.052-.004.036 0 .065.004.1.004.03 0 .057-.015.084-.016 6.393-.269 5.301-5.057 3.389-6.262h-4.21c-1.355-.158-2.558-.91-2.558-3.785v-18.04h3.136l.008.04c6.672-.154 5.56-5.06 3.625-6.28z"/>
  </g>
  <path fill="#c5c7c9" d="M198.705 57.224c2.206-11.652-1.398-23.463-9.776-31.847-6.706-6.705-15.65-10.396-25.182-10.396-2.234 0-4.472.21-6.662.616C150.402 5.806 139.548 0 127.69 0c-11.854 0-22.792 5.809-29.474 15.601a36.25 36.25 0 0 0-6.655-.614c-9.524 0-18.468 3.689-25.165 10.393-8.39 8.384-11.989 20.194-9.783 31.844-10.384 5.878 4.493 35.629 35.435 30.443 2.712 1.527 19.1 8.127 35.642 8.16 16.68.034 33.516-6.51 36.448-8.163 29.748 3.535 45.175-25.665 34.567-30.44z"/>
  <path fill="#333" d="M98.064 51.428c-6.757-5.5-16.689-4.484-22.188 2.272-5.499 6.753-4.482 16.688 2.274 22.188 5.254 4.277 12.43 4.608 17.946 1.365.6-.353 2.005-.968 3.478.232l21.367 17.396 4.399-5.404-21.367-17.395c-1.473-1.199-1.157-2.695-.934-3.353 2.059-6.061.28-13.022-4.975-17.301z"/>
  <path fill="#fff" d="M84.36 68.394a6.109 6.109 0 1 1 7.713-9.473 6.111 6.111 0 0 1 .882 8.597 6.11 6.11 0 0 1-8.596.876z"/>
  <path fill="#333" d="M157.248 51.428c6.755-5.5 16.688-4.484 22.187 2.272 5.499 6.753 4.482 16.688-2.275 22.188-5.254 4.277-12.428 4.608-17.946 1.365-.6-.353-2.005-.968-3.478.232L134.37 94.881l-4.4-5.404 21.367-17.395c1.474-1.199 1.158-2.695.934-3.353-2.06-6.061-.28-13.022 4.977-17.301z"/>
  <path fill="#fff" d="M171.171 68.394a6.108 6.108 0 1 0-7.712-9.473 6.11 6.11 0 0 0-.883 8.597 6.11 6.11 0 0 0 8.595.876z"/>
  <path fill="#333" d="M142.07 94.119c0 7.94-6.436 14.376-14.377 14.376-7.94 0-14.378-6.436-14.378-14.376 0-7.942 6.437-14.38 14.378-14.38s14.377 6.438 14.377 14.38z"/>
  <path fill="#fff" d="M127.689 100.229a6.11 6.11 0 0 1-6.107-6.112 6.108 6.108 0 1 1 12.216 0 6.11 6.11 0 0 1-6.11 6.112z"/>
  <path fill="#333" d="M143.464 39.87c0-8.71-7.06-15.771-15.77-15.771s-15.772 7.06-15.772 15.772c0 6.775 4.306 12.548 10.303 14.78.653.242 2.048.943 2.048 2.843v27.402h6.365V57.494c0-1.9 1.628-2.6 2.279-2.842 6.003-2.23 10.547-8.003 10.547-14.781z"/>
  <path fill="#fff" d="M121.582 39.869a6.108 6.108 0 1 1 12.216 0 6.11 6.11 0 0 1-6.11 6.113 6.11 6.11 0 0 1-6.106-6.113z"/>
</svg>
