<svg xmlns="http://www.w3.org/2000/svg" viewBox="0 0 256 256">
  <path fill="#f7df1e" d="M0 0h256v256H0z"/>
  <g fill="#2e2e2c">
    <path d="M220.123 150.248h-85.917c-8.814 0-15.958 7.562-15.958 16.558v45.736h117.259v-45.736c0-8.996-6.569-16.558-15.384-16.558zm-69.368 37.163c-5.8 0-10.502-4.8-10.502-10.718 0-5.92 4.702-10.72 10.502-10.72 5.801 0 10.501 4.8 10.501 10.72 0 5.919-4.7 10.718-10.5 10.718zm53.709 0c-5.8 0-10.502-4.8-10.502-10.718 0-5.92 4.702-10.72 10.502-10.72 5.798 0 10.5 4.8 10.5 10.72 0 5.919-4.702 10.718-10.5 10.718zM140.44 216.748h72.55c2.08 0 3.765 1.72 3.765 3.844 0 2.124-1.684 3.845-3.766 3.845H140.44c-2.08 0-3.767-1.721-3.767-3.845 0-2.122 1.687-3.844 3.767-3.844zM152.708 227.992h48.663c2.081 0 3.767 1.723 3.767 3.847 0 2.124-1.686 3.844-3.767 3.844h-48.663c-2.08 0-3.767-1.72-3.767-3.844 0-2.124 1.687-3.847 3.767-3.847zM185.686 121.434c0-4.324-3.323-7.83-7.56-7.83-4.234 0-7.355 3.506-7.355 7.83 0 2.689 1.22 5.06 3.663 6.469v13.322c0 2.283 1.43 4.132 3.665 4.132 2.236 0 3.664-1.849 3.664-4.132v-13.1c2.443-1.373 3.923-3.851 3.923-6.69z"/>
  </g>
</svg>
