<svg xmlns="http://www.w3.org/2000/svg" viewBox="0 0 256 273.632">
  <path fill="#00a" d="M159.135 57.922v43.942l34.595 19.973V37.949L128 0 62.27 37.95v83.887l34.595-19.973V57.922L128 39.947z"/>
  <path fill="#0aa" d="M69.19 125.831 128 91.877l58.81 33.954L128 159.786z"/>
  <path fill="#00a" d="M62.27 129.826 0 165.778v71.903l62.27 35.95 62.27-35.95v-71.903zm0 31.957 34.595 19.973v39.947L62.27 241.676l-34.594-19.973v-39.947zM159.135 213.713l-27.676-15.978v39.946l62.27 35.951 62.27-35.95v-15.98l-83.026-47.935 20.757-11.984 34.594 19.973v7.99L256 205.723v-39.946l-62.27-35.952-62.27 35.952v15.978l83.026 47.936-20.756 11.984-34.595-19.973z"/>
</svg>
