<svg xmlns="http://www.w3.org/2000/svg" viewBox="0 0 256 292.571">
  <path fill="#8cc84b" d="M78.67 179.029c-4.65 2.908-11.656 7.619-17.076 12.743-8.898 8.403-10.76 20.059-6.066 22.782 4.342 2.517 14.479-.478 21.734-8.391 7.614-8.308 10.754-18.84 7.511-30.796-.381.227-.755.455-1.122.667l.008.016-.492.279c-1.893 1.13-3.44 2.062-4.497 2.7zm130.671-3.772c-2.634 5.724-2.766 7.566-1.966 8.139 3.822-1.373 10.145-4.682 10.195-13.55.008-1.327-.285-2.752-.755-4.241-4.086 3.618-6.441 7.406-7.474 9.652zm41.01-17.307c-10.21-1.19-18.177.242-24.36 2.818 1.145 2.98 2.025 6.084 2.149 9.21.287 6.864-4.437 11.943-9.36 15.569-2.875 2.114-5.934 3.523-8.502 4.374-2.053.866-4.782 1.76-6.719 1.366-4.27-.868-6.543-4.661-3.638-13.028 1.569-4.528 6.095-11.421 13.401-17.358-1.665-3.428-3.521-6.921-4.467-10.13-1.864-6.326-2.427-10.15-2.427-10.15s-6.022 12.485-13.791 23.839c-.448.66-.895 1.307-1.343 1.952 1.526 3.546 2.728 7.296 2.891 11.077.286 6.862-2.685 12.05-7.615 15.669-2.669 1.968-5.516 3.327-7.959 4.192-1.562.682-4.739 1.804-9.257 2.106-2.471.169-4.848.016-6.175-.99-1.827-1.38-2.047-3.083-1.101-5.41.8-1.975 6.785-8.807 11.803-14.79a123.815 123.815 0 0 0 3.887-4.902l-.029-.067s.909-1.173 2.384-3.221c-1.834-3.95-4.159-8.06-5.252-11.788-1.864-6.326-2.428-10.151-2.428-10.151s-6.104 15.649-12.463 28.14c-4.921 9.676-8.208 15.539-9.689 18.108l-.015.103s-.221.375-.602.962l-.285.476-.008-.044c-1.651 2.438-5.355 7.215-9.037 7.215-10.108 0-6.397-20.53-6.397-20.53s-2.955 7.605-6.286 14.13c-2.713 5.32-5.185 9.829-10.591 9.829-1.555 0-4.02-.045-6.067-1.991-4.643-4.411-8.193-15.612-7.497-24.287.594-7.376 1.731-12.485 3.286-16.748a336.981 336.981 0 0 0-9.242 5.219l-5.018 2.957.162.294c4.151 8.03 5.259 25.623-3.793 39.128-9.051 13.512-25.9 21.733-42.316 17.168-5.297-1.476-13.299-12.434-6.397-27.708 6.088-13.47 30.419-26.203 36.831-29.381l1.76-.97c-12.784-11.185-44.708-26.275-49.182-49.454-1.262-6.525 1.797-22.13 20.956-40.067 16.115-15.083 38.532-26.636 59.24-33.998 34.79-12.367 71.548-5.072 77.203 17.109 5.56 21.814-13.364 47.907-37.6 57.287-21.639 8.374-39.53 7.046-46.88 4.632-8.355-2.745-13.255-8.258-14.45-11.37-.47-1.218-1.278-3.265 0-3.97.784-.433 1.099-.33 3.197 1.989 1.996 2.202 10.02 8.11 25.263 6.4 40-4.484 64.095-35.583 56.481-52.318-5.332-11.714-36.162-17-74.68 2.209-47.019 23.443-49.571 42.769-49.974 50.109-1.101 20.19 24.902 30.812 38.972 45.828l.542.595c2.633-1.453 5.414-2.987 8.142-4.484a8176.293 8176.293 0 0 1 16.901-9.257c4.952-7.198 15-15.141 22.255-15.141 11.597 0 7.614 16.669 7.614 16.669s.235-.763.55-.77c.33-.01 1.607-2.196 5.187-.89 3.682 1.35 2.845 3.935 2.868 4.199.044.513-4.35 15.332-6.176 24.837-.874 4.536-.368 7.84-.11 7.84.359 0 1.093-1.153 1.775-2.393l-.015-.037s.513-.94 1.372-2.627l.169-.353.007.016a213.875 213.875 0 0 0 4.078-8.507c3.22-7.097 15.506-34.497 16.548-37.528 1.041-3.031 1.584-6.165 2.098-7.51.506-1.342 4.849-2.355 9.924-2.318 5.076.037 5.591 2.202 5.626 2.65.037.447-2.413 6.459-2.978 10.708-.557 4.25-.021 6.37.441 9.938.301 2.333 1.76 5.292 3.485 8.646 5.252-8.588 14.493-25.014 15.381-29.616.608-3.148 1.584-6.165 2.098-7.51.513-1.342 4.849-2.354 9.924-2.318 5.076.037 5.589 2.202 5.626 2.65.037.448-2.421 6.459-2.978 10.709-.558 4.242-.021 6.37.44 9.938.397 3.053 2.758 7.156 5.099 11.823 6.388-3.15 13.907-5.262 22.71-5.306 3.645-.021 7.878.345 10.064 1.027v-70.22c0-4.953-2.539-9.518-6.829-11.991L134.616 1.856a13.78 13.78 0 0 0-13.812 0L6.573 68.03C2.289 70.504 0 75.076 0 80.022v132.47c0 4.945 2.303 9.518 6.58 11.991l114.415 66.226a13.645 13.645 0 0 0 13.76 0l114.467-66.226c4.283-2.48 6.778-7.047 6.778-11.992v-53.536c-1.453-.428-3.58-.765-5.649-1.006zm-123.232-6.937c-2.457 2.752-6.645 9.849-8.604 15.789-3.895 11.794-2.208 23.78.55 24.5 3.22.843 8.502-14.922 11.031-21.088 1.585-3.861 7.747-20.998 6.397-23.288-1.054-1.791-5.42-.345-9.374 4.087zm44.563 39.752s-.777.735-.441.94c.455.272 1.438-.081 2.509-.64 3.03-1.906 9.829-6.663 9.844-13.702 0-.205-.008-.403-.022-.616a276.359 276.359 0 0 1-4.284 5.474c-2.142 2.664-7.606 8.543-7.606 8.543z"/>
</svg>
