<svg xmlns="http://www.w3.org/2000/svg" viewBox="0 0 256 256">
  <path fill="#17b6a7" d="M256 186.078C256 224.695 224.695 256 186.078 256H69.922C31.305 256 0 224.695 0 186.078V69.922C0 31.305 31.305 0 69.922 0h116.156C224.695 0 256 31.305 256 69.922z"/>
  <path fill="#fff" d="M146.344 56.18c-4.88 0-6.254 3.015-3.057 6.7l51.677 59.559c3.197 3.685 5.813 2.708 5.813-2.171V65.05c0-4.878-3.992-8.87-8.87-8.87zM64.094 56.18c-4.879 0-8.87 3.992-8.87 8.87v32.81c0 4.88 2.596 11.904 5.769 15.61l68.16 79.612c3.173 3.706 9.761 6.738 14.64 6.738h48.113c4.879 0 8.87-3.992 8.87-8.87v-34.906c0-4.88-2.626-11.876-5.837-15.55l-67.842-77.635c-3.211-3.673-9.829-6.68-14.708-6.68zM55.224 190.95c0 4.879 3.992 8.87 8.87 8.87h45.472c4.879 0 6.279-3.036 3.112-6.746l-51.695-60.559c-3.167-3.71-5.76-2.754-5.76 2.125z"/>
</svg>
