<svg xmlns="http://www.w3.org/2000/svg" viewBox="0 0 254.976 286.549">
  <path fill="#c00" d="M7.85 72.164 129.594 1.28l121.742 70.884v141.653L129.593 284.7 7.85 213.817z"/>
  <path fill="#fff" d="m133.006 142.933 113.21-65.194 4.55 131.413-117.76 71.111z"/>
  <path fill="#c00" d="m247.922 73.756-.342 139.264-118.1 68.495-.57-136.875zm-99.328 82.262.341 91.477 39.253-22.87-.113-68.949 19.797-11.719v69.177l19.797-11.605.114-92.615z"/>
  <path fill="#910505" d="M137.33 2.304c-5.462-3.072-14.222-3.072-19.684 0L9.785 64.313C4.324 67.385 0 75.122 0 81.266v124.018c0 6.257 4.437 13.88 9.785 16.952l107.861 62.01c5.462 3.071 14.222 3.071 19.684 0l107.861-62.01c5.461-3.072 9.785-10.808 9.785-16.952V81.266c0-6.258-4.437-13.881-9.785-16.953zm95.687 64.853c5.461 3.072 5.461 8.192 0 11.264l-94.436 54.272c-5.461 3.072-14.222 3.072-19.683 0L23.097 77.625c-5.461-3.072-5.461-8.192 0-11.264l94.435-54.272c5.462-3.072 14.223-3.072 19.684 0zM8.42 90.254c0-6.258 4.437-8.76 9.784-5.689l96.598 55.524c5.461 3.072 9.785 10.809 9.785 16.953v110.137c0 6.257-4.438 8.76-9.785 5.689l-96.598-55.524c-5.46-3.072-9.784-10.809-9.784-16.953V90.254zm134.599 180.907c-5.462 3.072-9.785.569-9.785-5.689v-108.43c0-6.258 4.437-13.881 9.785-16.953l93.753-53.817c5.46-3.072 9.784-.569 9.784 5.689v108.43c0 6.258-4.437 13.881-9.784 16.953z"/>
</svg>
