<svg xmlns="http://www.w3.org/2000/svg" viewBox="-226.035 -226.037 1023.996 1023.999">
  <path fill="#00577b" d="M722.221 715.894V263.378L562.24 423.362l-66.266 66.27z"/>
  <path fill="#01b0f0" d="m495.974 15.5 88.471 88.482 137.776 137.783V-210.75z"/>
  <path fill="#4fc9f5" d="M-210.747-217.074 15.509 9.168l226.245-226.242z"/>
  <path fill="#01b0f0" d="M252.57 246.24 478.837 19.98H26.327z"/>
  <path fill="#27bcf3" d="M252.573-215.22 26.316 11.022h452.525zM26.312 11.024l226.25-226.248z"/>
  <path fill="#0079aa" d="m263.373 257.048 226.272 226.256 66.265-66.273 159.977-159.983zm226.272 226.256 66.268-66.27z"/>
  <path fill="#0096d3" d="M263.377 248.091h452.502L566.323 98.521l-76.674-76.685z"/>
  <path fill="#0096d3" d="M715.887 248.091 566.323 98.521l149.556 149.57z"/>
  <path fill="#79201b" d="M-150.29-143.954v452.521L75.953 82.303z"/>
  <path fill="#f0453f" d="M75.953 556.446 9.685 490.178-150.29 330.184V782.68z"/>
  <path fill="#f47f7d" d="M330.171 789.011H782.68L556.423 562.778z"/>
  <path fill="#f0453f" d="M93.099 551.973h452.516L319.362 325.706z"/>
  <path fill="#f2625d" d="m319.356 787.156 226.253-226.23H93.091z"/>
  <path fill="#a42d26" d="M-143.962 314.902h452.511L82.29 88.636z"/>
  <path fill="#cc382f" d="M-143.962 323.853 82.284 550.117l226.265-226.264zM82.249 550.1l-226.252-226.249z"/>
  <path fill="#fff" d="m796.656 790.321-65.483-65.476V-221.56a4.478 4.478 0 0 0-7.643-3.166L489.645 9.166 255.734-224.723h-.067c-.816-.8-1.904-1.305-3.096-1.305h-473.867a4.42 4.42 0 0 0-3.428 1.305 4.447 4.447 0 0 0-1.311 3.166c0 1.147.436 2.292 1.311 3.166l65.48 65.48v946.395a4.483 4.483 0 0 0 4.477 4.478 4.467 4.467 0 0 0 3.166-1.31L82.284 562.777 316.19 796.651h.067c.819.804 1.912 1.311 3.104 1.311h474.125a4.48 4.48 0 0 0 3.17-7.64zm-466.485-1.31L556.423 562.78l226.259 226.23zM75.953 556.446-150.29 782.68V330.184L9.685 490.178zM495.974 15.5 722.221-210.75v452.515L584.447 103.98zm219.905 232.592H263.373L489.645 21.832l.004.004 76.676 76.686 149.562 149.573h-.008zM252.57 246.24 26.327 19.98h452.51zM82.29 88.636l226.259 226.266h-452.511zm181.083 168.412h452.514L555.91 417.031l-66.268 66.271zm55.989 68.658 226.253 226.267H93.099zm-10.813-1.853L82.284 550.117l-226.247-226.265zm413.672 392.041L495.974 489.631l66.269-66.27L722.22 263.378zM26.316 11.024l226.251-226.25.006.005L478.841 11.023zM-150.29-143.955 75.955 82.303-150.29 308.567zm695.899 704.88-226.253 226.23L93.091 560.927zm-756.356-778h452.501L15.509 9.168z"/>
</svg>
