<svg xmlns="http://www.w3.org/2000/svg" width="1024" height="1024" viewBox="-226.035 -226.037 1024 1024"><path fill="#00577B" d="M722.221 715.895V263.379L562.24 423.363l-66.266 66.269z"/><path fill="#01B0F0" d="M495.974 15.5l88.471 88.483 137.776 137.783v-452.515z"/><path fill="#4FC9F5" d="M-210.747-217.073L15.509 9.169l226.245-226.242z"/><path fill="#01B0F0" d="M252.57 246.24L478.837 19.98H26.327z"/><path fill="#27BCF3" d="M252.573-215.22L26.316 11.024h452.525zM26.312 11.026l226.25-226.248z"/><path fill="#0079AA" d="M263.373 257.049l226.272 226.256 66.265-66.273 159.977-159.983zM489.645 483.305l66.268-66.271-66.268 66.271z"/><path fill="#0096D3" d="M263.377 248.092h452.502L566.323 98.522l-76.674-76.685z"/><path fill="#0096D3" d="M715.887 248.092L566.323 98.522l149.556 149.57z"/><path fill="#79201B" d="M-150.29-143.953v452.521L75.953 82.304z"/><path fill="#F0453F" d="M75.953 556.447L9.685 490.179-150.29 330.185V782.68z"/><path fill="#F47F7D" d="M330.171 789.012H782.68L556.423 562.779z"/><path fill="#F0453F" d="M93.099 551.974h452.516L319.362 325.707z"/><path fill="#F2625D" d="M319.356 787.157l226.253-226.231H93.091z"/><path fill="#A42D26" d="M-143.962 314.903h452.511L82.29 88.637z"/><path fill="#CC382F" d="M-143.962 323.854L82.284 550.118l226.265-226.264zM82.249 550.101l-226.252-226.249z"/><path fill="#FFF" d="M796.656 790.322l-65.483-65.476v-946.405a4.478 4.478 0 0 0-7.643-3.166L489.645 9.167 255.734-224.722h-.067c-.816-.8-1.904-1.305-3.096-1.305h-473.867a4.42 4.42 0 0 0-3.428 1.305 4.447 4.447 0 0 0-1.311 3.166c0 1.147.436 2.292 1.311 3.166l65.48 65.48v946.395a4.483 4.483 0 0 0 4.477 4.478 4.467 4.467 0 0 0 3.166-1.311L82.284 562.779 316.19 796.652h.067c.819.804 1.912 1.311 3.104 1.311h474.125a4.48 4.48 0 0 0 3.17-7.641zm-466.485-1.31L556.423 562.78l226.259 226.23-452.511.002zM75.953 556.447L-150.29 782.68V330.185L9.685 490.179l66.268 66.268zM495.974 15.5l226.247-226.249v452.515L584.447 103.981 495.974 15.5zm219.905 232.592H263.373L489.645 21.833l.004.004 76.676 76.686 149.562 149.573h-.008v-.004zM252.57 246.24L26.327 19.98h452.51L252.57 246.24zM82.29 88.637l226.259 226.266h-452.511L82.29 88.637zm181.083 168.412h452.514L555.91 417.032l-66.268 66.271-226.269-226.254zm55.989 68.658l226.253 226.267H93.099l226.263-226.267zm-10.813-1.853L82.284 550.118l-226.247-226.265 452.512.001zm413.672 392.041L495.974 489.632l66.269-66.271L722.22 263.38l.001 452.515zM26.316 11.024l226.251-226.25.006.006L478.841 11.024H26.316zM-150.29-143.953L75.955 82.304-150.29 308.568v-452.521zm695.899 704.879L319.356 787.157 93.091 560.928l452.518-.002zm-756.356-777.999h452.501L15.509 9.169l-226.256-226.242z"/></svg>