<?xml version="1.0" encoding="UTF-8"?>
<svg width="256" height="256" version="1.1" viewBox="0 0 256 256" xmlns="http://www.w3.org/2000/svg">
 <defs>
  <style>.cls-1{fill:#4d77cf;}.cls-2{fill:#4dabcf;}</style>
 </defs>
 <polygon class="cls-2" transform="matrix(1.1518 0 0 1.1518 -42.45 -59.018)" points="92.63 117.15 132.38 96.4 95.25 77.66 54.49 98"/>
 <polygon class="cls-2" transform="matrix(1.1518 0 0 1.1518 -42.45 -59.018)" points="109.75 125.75 149.41 104.99 188.34 124.65 147.95 144.93"/>
 <polygon class="cls-2" transform="matrix(1.1518 0 0 1.1518 -42.45 -59.018)" points="166.62 96.28 201.41 77.94 241.41 98 205.63 115.96"/>
 <polygon class="cls-2" transform="matrix(1.1518 0 0 1.1518 -42.45 -59.018)" points="149.67 87.73 184.19 69.3 148.18 51.24 112.56 69.02"/>
 <polygon class="cls-2" transform="matrix(1.1518 0 0 1.1518 -42.45 -59.018)" points="199.62 202.57 156.04 224.36 156.04 273.5 199.66 251.73"/>
 <polygon class="cls-2" transform="matrix(1.1518 0 0 1.1518 -42.45 -59.018)" points="156.04 207.06 199.6 185.41 199.55 136.77 156.04 158.4"/>
 <polygon class="cls-2" transform="matrix(1.1518 0 0 1.1518 -42.45 -59.018)" points="214.73 195.09 251.97 176.3 251.97 225.63 214.76 244.19"/>
 <polygon class="cls-2" transform="matrix(1.1518 0 0 1.1518 -42.45 -59.018)" points="214.72 177.98 251.97 159.05 251.97 110.71 214.69 129.24"/>
 <path class="cls-1" d="m119.54 123.43-33.84-17.024v73.531s-41.396-88.067-45.22-95.98c-0.49528-1.0251-2.5225-2.1424-3.0408-2.4188-7.4637-3.8931-29.21-14.904-29.21-14.904v129.96l30.085 16.125v-67.956s40.947 78.691 41.373 79.555c0.42617 0.86385 4.5151 9.1453 8.915 12.059 5.8396 3.8816 30.914 18.959 30.914 18.959z"/>
</svg>
