<svg xmlns="http://www.w3.org/2000/svg" viewBox="0 0 633.83 222.26">
  <defs>
    <style>
      .cls-1{fill:#4d77cf}.cls-2{fill:#4dabcf}
    </style>
  </defs>
  <path d="M255.23 73.76a5.76 5.76 0 0 1 1.62.45 5.58 5.58 0 0 1 1.38.93 17 17 0 0 1 1.49 1.62l41.51 52.47c-.17-1.67-.28-3.31-.36-4.88-.08-1.57-.12-3.07-.12-4.47V73.59h17.87v87.38h-10.56a9.68 9.68 0 0 1-3.95-.72 8.47 8.47 0 0 1-3.12-2.64l-41.21-52c.13 1.51.22 3 .3 4.46.08 1.46.13 2.83.13 4.11v46.84h-17.88V73.59H253a17.21 17.21 0 0 1 2.23.17zM348 98.76v39.46q0 4.62 2.1 7.14a7.62 7.62 0 0 0 6.18 2.52 13.26 13.26 0 0 0 5.73-1.26 21.37 21.37 0 0 0 5.19-3.54V98.76h18.59v62.19h-11.51a4.39 4.39 0 0 1-4.57-3.12l-1.13-3.6a37.32 37.32 0 0 1-3.72 3.16 23.32 23.32 0 0 1-4.11 2.39 24.55 24.55 0 0 1-4.75 1.58 25 25 0 0 1-5.51.57 21.75 21.75 0 0 1-9-1.77 18.67 18.67 0 0 1-6.63-4.94 21.68 21.68 0 0 1-4.08-7.5 31 31 0 0 1-1.38-9.48V98.76zM397.78 160.97V98.76h11.52a5.13 5.13 0 0 1 2.91.78 4.21 4.21 0 0 1 1.65 2.34l1 3.36a33.22 33.22 0 0 1 3.23-3 20.83 20.83 0 0 1 3.63-2.34 19.68 19.68 0 0 1 9.15-2.13 14.6 14.6 0 0 1 9.33 2.91 18.14 18.14 0 0 1 5.6 7.76 18.71 18.71 0 0 1 3.81-4.92 20.42 20.42 0 0 1 4.86-3.29 23.69 23.69 0 0 1 5.51-1.86 28.63 28.63 0 0 1 5.8-.6 26.3 26.3 0 0 1 9.47 1.59 18.05 18.05 0 0 1 6.93 4.62 20.15 20.15 0 0 1 4.23 7.44 32 32 0 0 1 1.44 10v39.52h-18.6v-39.49q0-9.66-8.27-9.65a8.46 8.46 0 0 0-6.27 2.49q-2.49 2.47-2.49 7.16v39.52h-18.57v-39.52q0-5.34-2.1-7.5c-1.4-1.44-3.46-2.15-6.18-2.15a10.53 10.53 0 0 0-4.77 1.13 17.72 17.72 0 0 0-4.23 3.06v45zM518.93 131.76v29.21h-20.27V73.59h30.82a50.86 50.86 0 0 1 15.87 2.17 30.49 30.49 0 0 1 10.91 6 23.36 23.36 0 0 1 6.33 9.06 30.63 30.63 0 0 1 2 11.27 33.11 33.11 0 0 1-2.1 12 24.08 24.08 0 0 1-6.42 9.36 30 30 0 0 1-10.94 6.08 49.9 49.9 0 0 1-15.65 2.23zm0-15.29h10.55c5.28 0 9.08-1.25 11.4-3.78 2.32-2.53 3.48-6 3.48-10.55a15.79 15.79 0 0 0-.9-5.46 11.11 11.11 0 0 0-2.73-4.23 12.41 12.41 0 0 0-4.62-2.73 20.71 20.71 0 0 0-6.63-1h-10.55zM600.61 177.11a6.69 6.69 0 0 1-2 2.72 6.62 6.62 0 0 1-3.84.87h-13.95l12-25.18L568 98.76h16.43a5.25 5.25 0 0 1 3.36 1 5.15 5.15 0 0 1 1.68 2.28l10.19 26.81a59 59 0 0 1 2.34 7.41c.4-1.28.84-2.54 1.32-3.77.48-1.23.94-2.5 1.38-3.78l9.24-26.69a4.5 4.5 0 0 1 1.89-2.31 5.4 5.4 0 0 1 3-.93h15z" class="cls-1"/>
  <path d="m10.49 46.76 38.14 19.15 39.75-20.75-37.13-18.74zM103.95 93.69l-38.2-19.18 39.66-20.76 38.93 19.66zM161.63 64.72l-39.01-19.68 34.79-18.34 40 20.06zM68.56 17.78l37.11 18.71 34.52-18.43L104.18 0zM155.66 200.49l-.04-49.16-43.58 21.79v49.14zM112.04 107.16v48.66l43.56-21.65-.05-48.64zM170.76 192.95l-.03-49.1 37.24-18.79v49.33zM170.69 78l.03 48.74 37.25-18.93V59.47z" class="cls-2"/>
  <path d="M96.64 107.16 67.26 92.38v63.84S31.32 79.76 28 72.89c-.43-.89-2.19-1.86-2.64-2.1C18.88 67.41 0 57.85 0 57.85v112.83l26.12 14v-59S61.67 194 62.04 194.75c.37.75 3.92 7.94 7.74 10.47 5.07 3.37 26.84 16.46 26.84 16.46z" class="cls-1"/>
</svg>
