<svg xmlns="http://www.w3.org/2000/svg" viewBox="0 0 239.54 255.999">
  <defs>
    <style>
      .cls-2{fill:#4dabcf}
    </style>
  </defs>
  <path d="M59.03 30.43 12.082 53.859l43.93 22.057 45.784-23.9zM166.25 84.554l-46.52 23.358-44-22.091 45.681-23.912zM227.377 53.858l-41.212 20.686-44.931-22.667 40.07-21.124zM119.995 0 78.967 20.479l42.744 21.55 39.76-21.227zM129.048 256l50.241-25.076-.046-56.622-50.195 25.098zM179.162 98.513l-50.114 24.914v56.046l50.172-24.936zM239.54 200.862 196.68 222.24l-.034-56.554 42.893-21.642zM239.54 68.498 196.6 89.84l.035 56.14 42.905-21.804z" class="cls-2"/>
  <path d="m111.31 123.43-33.84-17.024v73.53S36.076 91.87 32.25 83.957c-.494-1.024-2.522-2.142-3.04-2.418C21.746 77.645 0 66.634 0 66.634v129.96l30.085 16.125v-67.956s40.947 78.691 41.373 79.555c.426.864 4.515 9.145 8.915 12.059 5.84 3.882 30.914 18.959 30.914 18.959z" style="fill:#4d77cf"/>
</svg>
