<svg xmlns="http://www.w3.org/2000/svg" viewBox="0 0 255.955 190.039">
  <g fill="none" fill-rule="evenodd">
    <path fill="#01c58e" d="M77.891 183.615a9.437 9.437 0 0 1-.506-1.04 13.329 13.329 0 0 1-.907-7.517H15.993l89.888-158.184 29.51 51.875 8.557-15.141L118.224 8.29c-.72-1.306-5.065-8.29-12.556-8.29-3.385 0-8.237 1.466-12.182 8.397L2.425 168.5c-.773 1.386-4.532 8.664-.8 15.115 1.706 2.932 5.331 6.424 13.329 6.424H91.22c-7.944 0-11.623-3.439-13.329-6.424z"/>
    <path fill="#108775" d="M253.242 168.5 178.416 36.68c-.774-1.386-5.092-8.397-12.61-8.397-3.385 0-8.236 1.44-12.182 8.37l-9.676 16.955 8.61 15.14 13.329-23.59 74.027 129.9h-28.15c.36 2.147.158 4.351-.587 6.398a8.157 8.157 0 0 1-.586 1.306l-.24.48c-3.785 6.45-11.97 6.797-13.569 6.797h44.038c1.626 0 9.783-.346 13.569-6.797 1.679-2.933 2.879-7.864-1.147-14.742z"/>
    <path fill="#2f495e" d="m210.35 183.242.24-.48c.234-.418.43-.855.587-1.306.745-2.047.947-4.25.587-6.398a19.487 19.487 0 0 0-2.453-6.558l-56.7-99.751-8.663-15.141-8.61 15.14L78.663 168.5a20.18 20.18 0 0 0-2.186 6.558 13.329 13.329 0 0 0 .827 7.517c.147.357.316.704.506 1.04 1.706 2.932 5.332 6.424 13.329 6.424h105.562c1.68 0 9.864-.346 13.649-6.797zM143.949 83.89l51.821 91.168H92.153z"/>
  </g>
</svg>
