<svg viewBox="0 0 511.75 87.254" xmlns="http://www.w3.org/2000/svg">
  <path d="m203.67 25.825c0.69879 0.7285 1.0739 1.7082 1.0403 2.7171v52.237c0.0291 1.1185-0.38942 2.2023-1.1627 3.0109-0.77314 0.81103-1.8541 1.2559-2.9742 1.2239-0.62775 1e-3 -1.2516-0.09812-1.8481-0.29374-0.54626-0.16837-1.0368-0.48132-1.4198-0.90571l-33.842-44.062v41.479c0.0308 1.0122-0.35768 1.9922-1.0737 2.7082-0.71605 0.71605-1.696 1.1046-2.7082 1.0737-1.0024 0.03842-1.9734-0.35354-2.6682-1.0771-0.69124-0.72748-1.0616-1.7019-1.0281-2.7049v-52.348c-0.0254-1.1152 0.41868-2.1899 1.2239-2.9619 0.75362-0.77324 1.797-1.195 2.8762-1.1627 0.67927-0.0033 1.3527 0.12559 1.9828 0.37942 0.57331 0.22189 1.0764 0.5939 1.4565 1.0771l33.695 44.159v-41.834c-0.0309-1.0122 0.35769-1.9922 1.0737-2.7082 0.71605-0.71605 1.696-1.1046 2.7082-1.0737 0.99971-0.03693 1.9686 0.34973 2.6682 1.0648zm69.519 0c0.73194 0.81371 1.1182 1.8805 1.0771 2.9742v33.046c0.0701 4.2713-0.96721 8.488-3.0109 12.239-1.9355 3.5392-4.8115 6.4745-8.3105 8.4818-3.6256 2.0802-7.7413 3.1535-11.921 3.1088-4.2172 0.06667-8.3768-0.98485-12.056-3.0476-3.5148-1.9989-6.4048-4.9355-8.3472-8.4818-2.0437-3.7513-3.081-7.968-3.0109-12.239v-33.046c-0.0319-1.12 0.41291-2.201 1.2239-2.9742 0.82568-0.80765 1.9418-1.2488 3.0966-1.2239 1.0887 7.29e-4 2.1307 0.44226 2.8885 1.2239 0.8021 0.75893 1.2466 1.8212 1.2239 2.9252v33.046c-0.0443 2.8213 0.6701 5.6027 2.0684 8.0535 2.6371 4.6488 7.5678 7.5231 12.912 7.5272 2.6832 0.01909 5.3247-0.66449 7.6618-1.9828 2.3578-1.303 4.3199-3.2186 5.679-5.5444 1.4208-2.4432 2.1487-5.2275 2.1052-8.0535v-33.046c-0.0398-1.0848 0.32687-2.1455 1.0281-2.9742 0.723-0.80938 1.767-1.2574 2.8518-1.2239 1.077-0.02475 2.1122 0.41699 2.8395 1.2117zm66.251 52.996c0.51632 0.71042 0.78702 1.5698 0.77108 2.4479 0.0453 1.1082-0.40295 2.1795-1.2239 2.9252-0.75748 0.71599-1.7605 1.1146-2.8028 1.1138-1.3398 0.05079-2.6097-0.59808-3.3536-1.7135l-16.731-22.337-16.352 22.3c-0.73665 1.1337-2.0016 1.8124-3.3536 1.7992-0.98864 0.02186-1.9419-0.3683-2.6315-1.0771-0.68414-0.63043-1.0745-1.5175-1.0771-2.4479 0.0189-1.0363 0.38528-2.0363 1.0404-2.8395l17.649-24.026-17.735-23.842c-0.55375-0.69665-0.85953-1.558-0.86899-2.4479-0.0226-1.104 0.42183-2.1663 1.2239-2.9252 0.75778-0.78168 1.7998-1.2232 2.8885-1.2239 0.64167 0.0033 1.274 0.15403 1.8481 0.44062 0.60668 0.28763 1.1262 0.7311 1.5054 1.2851l16.535 22.214 16.376-21.994c0.72285-1.119 1.9377-1.8242 3.2679-1.8971 1.038 0.0056 2.0251 0.45023 2.7171 1.2239 0.75202 0.67186 1.1946 1.6234 1.2239 2.6315-0.029 0.88429-0.32793 1.7385-0.85675 2.4479l-17.967 23.916zm62.114-52.996c0.80962 0.73832 1.2566 1.7933 1.2239 2.8885 0.0299 1.0805-0.41788 2.1193-1.2239 2.8395-0.82869 0.70123-1.8893 1.0679-2.9742 1.0281h-15.324v48.309c0.0211 1.1037-0.42311 2.1654-1.2239 2.9252-1.7921 1.5992-4.4989 1.5992-6.291 0-0.79703-0.76242-1.2405-1.8223-1.2239-2.9252v-48.309h-15.287c-1.0878 0.04132-2.1494-0.34031-2.9619-1.0648-0.78704-0.74938-1.2111-1.8028-1.1627-2.8885-0.0346-1.0582 0.38918-2.0799 1.1627-2.8028 0.81252-0.72451 1.8741-1.1061 2.9619-1.0648h39.349c1.0912-0.03942 2.1559 0.34176 2.9742 1.0648z" fill="#2f495e"/>
  <path d="m420.41 83.472c-2.7869-1.5783-5.1054-3.8673-6.7194-6.6337-0.4785-0.68411-0.75038-1.4913-0.78332-2.3255-6e-4 -1.0796 0.47391-2.1047 1.2974-2.8028 0.70082-0.73323 1.6553-1.1711 2.6682-1.2239 1.5377 0.14366 2.9449 0.92494 3.8799 2.1541 1.913 3.1479 5.3495 5.0477 9.0326 4.9936 2.9895 0.06971 5.8789-1.079 8.0045-3.1822 2.1462-2.0337 3.3368-4.877 3.2801-7.8332v-37.734c-0.0132-1.1147 0.45519-2.1809 1.2851-2.9252 0.8024-0.78991 1.8849-1.23 3.0109-1.2239 1.1374-0.05551 2.2463 0.3659 3.0598 1.1627 0.77778 0.78581 1.1982 1.8568 1.1627 2.9619v37.819c0.0322 3.3899-0.86068 6.7244-2.5825 9.6446-1.7063 2.9102-4.1564 5.3139-7.0988 6.9642-3.0844 1.7466-6.5776 2.6421-10.122 2.5947-3.2828 0.03478-6.5166-0.79691-9.3753-2.4111zm59.189 0.63644c-3.411-1.2949-6.5402-3.2356-9.2162-5.7158-1.1034-0.84661-1.7648-2.1468-1.7992-3.5372 0.0132-1.0576 0.45482-2.0645 1.2239-2.7906 0.73251-0.7888 1.7631-1.233 2.8395-1.2239 0.9068-0.01245 1.7835 0.32509 2.4479 0.94243 2.0674 1.9738 4.4717 3.5614 7.0988 4.6877 2.6425 1.0507 5.4672 1.5666 8.3105 1.5177 3.2383 0.10249 6.4325-0.77176 9.1672-2.5091 2.2755-1.2786 3.7014-3.669 3.7452-6.2788 0.0427-2.8037-1.376-5.4278-3.7452-6.9274-3.4378-2.0188-7.2103-3.4034-11.138-4.0879-5.9238-1.2239-10.465-3.1945-13.659-5.9483s-4.7733-6.5725-4.7733-11.444c-0.0675-3.1991 0.87468-6.3382 2.6926-8.9714 1.8487-2.6139 4.3927-4.6576 7.3436-5.8993 3.3751-1.4238 7.01-2.1283 10.673-2.0684 3.433-0.02182 6.843 0.56239 10.073 1.7257 2.8489 0.96086 5.4607 2.5171 7.6618 4.5653 1.1756 0.86687 1.9027 2.2134 1.9828 3.6718-7e-5 1.0372-0.41941 2.0304-1.1627 2.7538-0.71181 0.79617-1.735 1.243-2.8028 1.2239-0.72185 0.02773-1.4269-0.2219-1.9705-0.69764-1.7856-1.6749-3.8983-2.9625-6.2053-3.7819-2.3896-0.96332-4.9386-1.4698-7.5149-1.4932-3.2268-0.16594-6.4267 0.66289-9.1672 2.3744-2.1281 1.4102-3.4078 3.7931-3.4078 6.3461s1.2796 4.9359 3.4078 6.3461c3.1351 1.8282 6.5576 3.1111 10.122 3.7942 3.7853 0.74496 7.4787 1.8981 11.015 3.4392 2.6691 1.1802 4.9514 3.0892 6.5847 5.5077 1.6548 2.7801 2.459 5.9841 2.3132 9.2162 0.0478 3.1771-0.93085 6.2849-2.7906 8.8613-1.9567 2.6567-4.5897 4.7404-7.6251 6.034-3.3365 1.46-6.9452 2.1943-10.587 2.1541-3.7892 0.07053-7.5608-0.53457-11.138-1.7869z" fill="#01c58e"/>
  <path d="m35.763 84.304c-0.0872-0.15421-0.16486-0.31362-0.23255-0.47733-0.46946-1.0861-0.614-2.285-0.41614-3.4515h-27.771l41.271-72.628 13.549 23.818 3.9288-6.9519-11.811-20.807c-0.33046-0.59973-2.3255-3.8064-5.7647-3.8064-1.5544 0-3.7819 0.67316-5.5934 3.8554l-41.809 73.509c-0.35494 0.63644-2.0807 3.9778-0.36718 6.9397 0.78332 1.3463 2.4479 2.9497 6.1197 2.9497h35.017c-3.6473 0-5.3363-1.5789-6.1197-2.9497z" fill="#01c58e"/>
  <path d="m116.27 77.365-34.356-60.523c-0.35494-0.63644-2.3377-3.8554-5.7892-3.8554-1.5544 0-3.7819 0.66092-5.5934 3.8431l-4.4429 7.7842 3.9533 6.9519 6.1197-10.832 33.989 59.642h-12.925c0.16538 0.98597 0.07262 1.998-0.26926 2.9374-0.072 0.20742-0.1621 0.4081-0.26926 0.59973l-0.11015 0.22031c-1.738 2.9619-5.4954 3.121-6.2298 3.121h20.219c0.7466 0 4.4918-0.15911 6.2298-3.121 0.77108-1.3463 1.3218-3.6106-0.52629-6.7683z" fill="#108775"/>
  <path d="m96.58 84.133 0.11015-0.22031c0.10716-0.19163 0.19726-0.39231 0.26926-0.59973 0.34188-0.93947 0.43465-1.9515 0.26926-2.9374-0.19049-1.0634-0.57198-2.0835-1.126-3.0109l-26.033-45.8-3.9778-6.9519-3.9533 6.9519-26.021 45.8c-0.50522 0.93843-0.84474 1.957-1.0036 3.0109-0.20942 1.163-0.07764 2.3618 0.37942 3.4515 0.06768 0.16372 0.14534 0.32313 0.23255 0.47733 0.78332 1.3463 2.4479 2.9497 6.1197 2.9497h48.468c0.77108 0 4.5285-0.15911 6.2665-3.121zm-30.488-45.616 23.793 41.858h-47.574z" fill="#2f495e"/>
</svg>
