<svg xmlns="http://www.w3.org/2000/svg" viewBox="0 0 255.354 255.932">
  <path fill="#fff" d="M118.496.371c56.561-3.922 94.064 23.757 115.508 57.48 10.752 16.91 21.3 42.59 21.35 68.977.052 28.67-9.236 53.496-21.35 71.713-12.451 18.723-28.555 34.188-48.721 44.342-33.71 16.974-80.82 17.438-111.677 1.095-34.364-18.2-60.786-44.18-70.618-89.231-3.935-18.03-4.387-41.325 1.095-61.312 1.286-4.689 3.624-9.623 5.474-14.234 8.893-22.154 24.029-41.419 42.7-54.743 7.502-5.354 16.604-10.679 24.634-14.233 9.992-4.423 26.815-8.828 41.605-9.854z"/>
  <path d="M225.785 130.016c0 53.456-43.335 96.788-96.79 96.788-53.455 0-96.79-43.332-96.79-96.788 0-53.455 43.335-96.79 96.79-96.79 53.455 0 96.79 43.335 96.79 96.79z"/>
  <path d="M118.496.371c56.561-3.922 94.064 23.757 115.508 57.48 10.752 16.91 21.3 42.59 21.35 68.977.052 28.67-9.236 53.496-21.35 71.713-12.451 18.723-28.555 34.188-48.721 44.342-33.71 16.974-80.82 17.438-111.677 1.095-34.364-18.2-60.786-44.18-70.618-89.231-3.935-18.03-4.387-41.325 1.095-61.312 1.286-4.689 3.624-9.623 5.474-14.234 8.893-22.154 24.029-41.419 42.7-54.743 7.502-5.354 16.604-10.679 24.634-14.233 9.992-4.423 26.815-8.828 41.605-9.854zm-19.16 9.307c-21.009 5.447-36.413 15.205-49.816 25.73C30.192 50.582 17.87 71.76 10.652 97.266c-8.031 28.376-2.872 62.715 8.212 84.304 11.494 22.388 26.927 39.766 48.72 52.006 21.204 11.907 51.026 19.553 82.116 13.686 27.622-5.214 48.601-17.247 65.692-35.036 22.865-23.802 41.243-67.641 29.014-113.866-3.27-12.354-7.543-25.23-14.234-36.13-3.615-5.889-8.919-11.682-14.233-17.518-20.056-22.025-52.471-41.004-94.159-38.32-7.933.51-14.905 1.33-22.444 3.285z"/>
  <g fill="#fff">
    <path d="m135.15 246.399 111.845-111.843-.603-.604-111.846 111.843zM125.372 237.541l112.333-112.33-.603-.604-112.333 112.33zM115.594 228.685l112.822-112.82-.603-.604-112.822 112.82zM105.816 219.827l113.31-113.307-.603-.604-113.31 113.308zM96.039 210.97 209.837 97.174l-.604-.604L95.435 210.367zM86.261 202.115 200.547 87.829l-.604-.604L85.658 201.512zM76.483 193.256 191.257 78.483l-.603-.603L75.88 192.652zM66.705 184.399 181.967 69.138l-.603-.604L66.102 183.795zM56.927 175.541 172.675 59.792l-.603-.603L56.324 174.938zM47.15 166.684 163.388 50.447l-.604-.603L46.546 166.08zM37.372 157.827 154.098 41.102l-.603-.604L36.768 157.224zM27.594 148.97 144.809 31.756l-.604-.603L26.99 148.366zM17.816 140.112 135.519 22.411l-.604-.604L17.213 139.51zM8.038 131.255l118.191-118.19-.603-.603L7.435 130.652z"/>
    <g>
      <path d="m7.397 132.386 114.08 114.085.603-.603L8 131.782zM16.648 123.002 130.95 237.31l.604-.603L17.25 122.399zM25.9 113.618l114.524 114.53.603-.604L26.503 113.015zM35.15 104.235l114.747 114.751.604-.603L35.754 103.63zM44.402 94.851 159.37 209.824l.604-.603L45.005 94.248zM53.653 85.467l115.191 115.195.604-.603L54.257 84.864zM62.905 76.084 178.318 191.5l.603-.603L63.508 75.48zM72.156 66.7 187.79 182.338l.603-.603L72.76 66.097zM81.407 57.316l115.858 115.86.603-.603L82.011 56.713zM90.659 47.933l116.078 116.08.604-.603L91.26 47.33zM99.91 38.549 216.21 154.853l.604-.604L100.513 37.946zM109.16 29.165 225.685 145.69l.604-.603L109.764 28.562zM118.412 19.782l116.746 116.747.603-.603L119.016 19.179zM127.664 10.398l116.967 116.969.604-.604L128.268 9.795z"/>
    </g>
  </g>
  <path d="M209.37 45.26c-10.067-10.066-22.443-19.137-37.226-24.634-15.323-5.698-32.657-10.501-53.1-8.759-32.566 2.776-55.431 17.387-72.81 34.488-12.171 11.978-21.327 26.656-27.37 43.795-8.874 25.165-8.336 54.868 1.642 80.472 8.51 21.84 22.44 39.455 42.152 53.1 18.53 12.83 45.126 22.779 74.997 20.256 36.383-3.073 63.004-21.739 80.473-43.247 4.47-5.502 8.914-11.722 11.495-19.16 2.53-5.36 3.768-9.002 4.928-10.948 4.852-10.873 7.422-22.344 8.21-35.036 2.426-39.036-12.593-69.528-33.391-90.326zm-10.723 118.933-.204.44c-1.805 5.165-4.914 9.483-8.04 13.305-12.216 14.935-30.831 27.896-56.274 30.03-20.89 1.751-39.49-5.157-52.448-14.065-11.26-7.74-19.82-17.323-25.822-28.839-.366-.693-3.852-8.724-3.862-9.077-4.756-14.75-5.168-38.466-.288-52.698 3.258-9.5 8.686-19.777 15.876-27.92 9.927-11.242 19.86-18.447 35.583-23.539 7.179-2.325 13.605-4.692 22.444-4.927 21.556-.574 43.505 9.104 55.29 19.708 10.831 9.743 23.175 28.724 26.278 46.531 3.194 18.328-.215 36.223-8.533 51.051z"/>
  <path fill="#fff" d="M161.181 181.774c-5.308 0-9.966-3.361-11.591-8.364l-5.912-18.013h-29.575l-5.492 17.848c-1.658 5.1-6.352 8.515-11.687 8.515-1.28 0-2.553-.203-3.781-.601-6.377-1.915-9.998-8.778-8.044-15.292l24.963-79.071c1.62-5.03 6.392-8.539 11.605-8.539h13.274c5.242 0 10.013 3.45 11.602 8.387l26.253 79.042c2.099 6.462-1.377 13.4-7.745 15.472-1.259.41-2.56.616-3.87.616z"/>
  <path d="M161.181 180.067c-4.755 0-8.92-3.005-10.374-7.48l-5.913-18.016-.289-.881h-31.447l-.278.904-5.493 17.848a10.977 10.977 0 0 1-13.85 7.073c-5.725-1.72-8.963-7.87-7.212-13.707l24.957-79.053c1.449-4.495 5.73-7.644 10.385-7.644h13.274c4.688 0 8.966 3.092 10.384 7.499l26.256 79.053c1.879 5.784-1.232 11.998-6.926 13.852-1.13.367-2.299.552-3.474.552zm0 2.56c1.444 0 2.88-.228 4.266-.678 7.045-2.293 10.882-9.956 8.566-17.085l-26.255-79.05c-1.756-5.457-7.021-9.263-12.817-9.263h-13.274c-5.772 0-11.033 3.87-12.824 9.426l-24.965 79.078c-2.159 7.199 1.833 14.783 8.897 16.903 1.33.432 2.735.655 4.15.655 5.892 0 11.074-3.774 12.903-9.399l5.499-17.867-1.224.903h29.575l-1.216-.88 5.912 18.012c1.796 5.529 6.946 9.245 12.807 9.245z"/>
  <g fill="#fff">
    <path d="m63.147 53.058-.031-.043c-3.113-4.266-2.2-10.234 2.385-13.58 4.585-3.345 10.474-2.406 13.587 1.86l.03.042c3.114 4.266 2.2 10.235-2.384 13.58-4.585 3.346-10.474 2.407-13.587-1.86zm11.8-8.612-.03-.042c-1.565-2.144-4.477-2.88-6.748-1.224-2.25 1.642-2.425 4.567-.86 6.711l.03.042c1.565 2.144 4.477 2.881 6.727 1.24 2.271-1.658 2.446-4.583.881-6.727zM93.16 25.095l4.679-1.5 13.115 15.246-5.204 1.67-2.28-2.719-6.755 2.168-.247 3.529-5.104 1.637zm7.697 9.369-3.549-4.353-.38 5.613zM119.38 29.682l.04-10.327 5.176.02-.04 10.222c-.01 2.654 1.324 3.92 3.374 3.93 2.05.007 3.395-1.196 3.404-3.77l.042-10.353 5.176.02-.04 10.195c-.024 5.939-3.424 8.527-8.653 8.506-5.229-.022-8.502-2.689-8.48-8.443zM155.247 27.878l-5.277-1.611 1.303-4.272 15.43 4.709-1.304 4.272-5.277-1.61-4.065 13.319-4.875-1.488zM180.485 32.665l4.244 2.824-3.814 5.731 5.447 3.625 3.814-5.731 4.244 2.824-10.19 15.313-4.244-2.825 3.872-5.818-5.447-3.625-3.872 5.818-4.244-2.824z"/>
  </g>
  <g fill="#fff">
    <path d="m195.476 200.057.032.041c3.274 4.144 2.589 10.144-1.864 13.662-4.454 3.519-10.375 2.805-13.65-1.339l-.032-.041c-3.274-4.145-2.589-10.144 1.865-13.663 4.453-3.517 10.374-2.804 13.649 1.34zm-11.464 9.057.032.041c1.645 2.083 4.584 2.708 6.79.965 2.185-1.727 2.249-4.656.603-6.739l-.032-.041c-1.645-2.083-4.584-2.708-6.77-.981-2.206 1.743-2.269 4.672-.623 6.755zM166.702 229.198l-4.608 1.705-13.774-14.654 5.126-1.898 2.397 2.616 6.653-2.463.092-3.536 5.027-1.86-.913 20.09zm-8.102-9.02 3.737 4.191.132-5.624zM140.326 225.7l.455 10.317-5.171.228-.451-10.212c-.117-2.65-1.512-3.851-3.56-3.761-2.047.09-3.332 1.357-3.219 3.93l.457 10.342-5.171.228-.45-10.185c-.262-5.932 3.01-8.68 8.233-8.911 5.224-.23 8.623 2.275 8.877 8.024zM104.393 229.073l5.328 1.439-1.165 4.313-15.578-4.205 1.165-4.313 5.328 1.438 3.63-13.447 4.921 1.329zM79.21 225.326l-4.372-2.62 3.539-5.906-5.612-3.364-3.54 5.906-4.372-2.62 9.457-15.779 4.372 2.621-3.593 5.996 5.612 3.364 3.594-5.996 4.372 2.621z"/>
  </g>
</svg>
