<svg xmlns="http://www.w3.org/2000/svg" viewBox="0 0 50.25 50.25">
  <defs>
    <style>
      .cls-1{fill:#f1592a}
    </style>
  </defs>
    <path d="M25.056 50.25c-13.5 0-24.95-11.404-25.055-24.99A24.766 24.766 0 0 1 7.235 7.59 25.18 25.18 0 0 1 25.122 0a24.826 24.826 0 0 1 17.625 7.32A24.852 24.852 0 0 1 50.25 24.89 25.246 25.246 0 0 1 25.26 50.25zm.08-48.935A23.872 23.872 0 0 0 8.187 8.516a23.458 23.458 0 0 0-6.872 16.73c.099 12.877 10.95 23.675 23.734 23.675h.17a23.931 23.931 0 0 0 23.715-24.023 23.55 23.55 0 0 0-7.116-16.645 23.438 23.438 0 0 0-16.684-6.938z" class="cls-1"/>
    <path d="M5.637 32.474V17.795h3.57v1.316H7.313v12.074h1.894V32.5zM17.757 24.99c0 2.677-1.625 4.202-3.828 4.202s-3.67-1.716-3.67-4.064c0-2.453 1.54-4.182 3.789-4.182s3.709 1.801 3.709 4.044zm-5.958.118c0 1.625.815 2.914 2.216 2.914 1.4 0 2.203-1.316 2.203-2.973 0-1.506-.743-2.926-2.203-2.926s-2.23 1.374-2.23 3.018zM18.993 21.222a12.18 12.18 0 0 1 2.118-.178 3.781 3.781 0 0 1 2.288.507 1.684 1.684 0 0 1 .829 1.492 1.855 1.855 0 0 1-1.316 1.73 2.012 2.012 0 0 1 1.612 1.973 2.072 2.072 0 0 1-.77 1.644c-.565.5-1.506.743-2.96.743a14.08 14.08 0 0 1-1.788-.105zm1.447 3.15h.743c1.006 0 1.572-.474 1.572-1.151s-.566-1.092-1.493-1.092a3.946 3.946 0 0 0-.829.06zm0 3.67a6.412 6.412 0 0 0 .77.032c.933 0 1.762-.355 1.762-1.315s-.803-1.315-1.809-1.315h-.723zM27.398 21.117h1.453v5.188c0 2.203-1.065 2.94-2.63 2.94a3.887 3.887 0 0 1-1.23-.21l.177-1.171a3.19 3.19 0 0 0 .901.144c.829 0 1.315-.381 1.315-1.762zM32.987 25.437v1.006h-3.025v-1.006zM40.05 28.857a5.044 5.044 0 0 1-2.058.355c-2.532 0-4.07-1.585-4.07-4.012a4.012 4.012 0 0 1 4.26-4.215 4.603 4.603 0 0 1 1.974.355l-.323 1.158a3.873 3.873 0 0 0-1.565-.31c-1.624 0-2.795 1.02-2.795 2.94 0 1.75 1.033 2.88 2.782 2.88a4.077 4.077 0 0 0 1.585-.295zM44.614 17.756v14.718h-3.57v-1.315h1.893V19.07h-1.894v-1.315z" class="cls-1"/>
</svg>
