<svg xmlns="http://www.w3.org/2000/svg" viewBox="0 0 256 238.796">
  <path fill="#af81e0" d="M159.413 2.833c-10.037 0-20.342 2.57-30.07 8.205l-99.13 57.428c-40.431 23.422-40.246 81.96.33 104.763l99.616 55.979c9.469 5.32 19.472 7.752 29.222 7.752 31.61 0 60.6-25.534 60.449-60.889l-.484-113.406c-.15-34.957-28.722-59.832-59.933-59.832m0 8.689c13.07 0 26.048 5.247 35.606 14.395 10.024 9.594 15.578 22.657 15.638 36.785l.485 113.406c.059 13.934-5.25 26.971-14.944 36.708-9.78 9.822-23.2 15.454-36.817 15.454-8.728 0-17.127-2.233-24.965-6.637l-99.614-55.98c-16.228-9.118-25.99-25.724-26.111-44.421-.124-18.874 9.55-35.789 25.878-45.248l99.13-57.427c8.058-4.668 16.709-7.035 25.714-7.035"/>
  <path fill="#9069c4" d="M95.072 0C63.17 0 33.835 25.485 33.835 61.223v116.353c0 35.661 29.275 61.22 61.216 61.22 10.083 0 20.43-2.546 30.207-8.125l99.906-57.003c40.7-23.222 41.213-81.718.928-105.649L126.185 8.668C116.162 2.713 105.48 0 95.072 0m0 8.689c9.38 0 18.355 2.506 26.675 7.449l99.907 59.351c16.23 9.642 25.82 26.667 25.655 45.544-.166 18.877-10.054 35.733-26.45 45.088l-99.907 57.003c-8.12 4.633-16.835 6.982-25.9 6.982-13.422 0-26.752-5.401-36.573-14.819-10.288-9.866-15.955-23.259-15.955-37.711V61.223c0-32.449 27.277-52.534 52.548-52.534"/>
  <path fill="#825aba" d="M215.22 129.786c-.303 0-.589-.058-.884-.09l4.726-8.183-4.726-8.184c.294-.032.581-.09.884-.09 4.562 0 8.272 3.712 8.272 8.274 0 4.562-3.71 8.273-8.272 8.273zm-42.722 51.148c-7.675 0-14.152 5.101-16.245 12.095h-58.54c-2.093-6.994-8.57-12.095-16.245-12.095-1.067 0-2.107.111-3.12.3l-27.804-48.159c2.83-3.03 4.576-7.088 4.576-11.562 0-4.474-1.745-8.532-4.576-11.563l27.342-47.357c1.156.248 2.352.386 3.582.386 7.995 0 14.68-5.538 16.474-12.982h58.81c2.497 6.255 8.6 10.68 15.746 10.68.461 0 .914-.033 1.367-.069l28.674 49.666c-2.656 2.994-4.282 6.922-4.282 11.24 0 4.316 1.626 8.244 4.282 11.238l-27.904 48.331a17.129 17.129 0 0 0-2.137-.149zm-6.656 12.095a8.292 8.292 0 0 1 3.497-2.772l-1.6 2.772zm14.93 4.867c0 4.563-3.712 8.274-8.274 8.274-3.176 0-5.908-1.82-7.294-4.452h7.551l5.584-9.673a8.241 8.241 0 0 1 2.432 5.851zm-97.448-8.045a8.262 8.262 0 0 1 4.8 3.178h-2.966zm-1.856 16.32c-4.56 0-8.273-3.712-8.273-8.275 0-1.928.691-3.68 1.801-5.089l5.146 8.911h8.62c-1.386 2.632-4.118 4.452-7.294 4.452zm-43.31-76.385c-4.562 0-8.273-3.71-8.273-8.273 0-4.562 3.711-8.274 8.273-8.274.146 0 .284.036.43.044l-4.753 8.23 4.751 8.23c-.145.007-.282.043-.428.043zm8.272-8.273c0 1.16-.244 2.262-.676 3.264l-1.886-3.264 1.886-3.265a8.227 8.227 0 0 1 .676 3.265zm42.246-71.516a8.245 8.245 0 0 1-5.92 4.163l2.402-4.163zm-15.48-3.98c0-4.562 3.711-8.273 8.272-8.273 2.811 0 5.291 1.415 6.787 3.563h-8.113l-5.447 9.435a8.214 8.214 0 0 1-1.5-4.726zm94.964 4.71a8.23 8.23 0 0 1-.983-.73h.561zm4.338-15.285c4.562 0 8.273 3.711 8.273 8.273 0 2.541-1.176 4.79-2.984 6.308l-5.032-8.716h-8.13c1.037-3.383 4.154-5.865 7.873-5.865zm34.45 86.071c0-.964.196-1.875.501-2.737l1.58 2.737-1.58 2.736c-.305-.86-.502-1.773-.502-2.736zm8.272-16.962a16.91 16.91 0 0 0-5.43.903l-27.61-47.822c4.397-3.065 7.28-8.152 7.28-13.917 0-9.368-7.594-16.963-16.962-16.963-8.549 0-15.6 6.33-16.772 14.555l-57.972 2.448c-2.043-7.074-8.554-12.252-16.286-12.252-9.368 0-16.962 7.594-16.962 16.961 0 5.011 2.185 9.5 5.64 12.605L43.19 107.76a16.938 16.938 0 0 0-5.032-.76c-9.369 0-16.963 7.593-16.963 16.962 0 9.368 7.594 16.962 16.963 16.962a16.97 16.97 0 0 0 5.032-.759l27.292 47.271c-3.653 3.111-5.976 7.736-5.976 12.91 0 9.368 7.594 16.962 16.962 16.962 8.052 0 14.78-5.616 16.514-13.14h58.002c1.735 7.524 8.462 13.14 16.514 13.14 9.368 0 16.962-7.594 16.962-16.963 0-5.509-2.639-10.392-6.71-13.49l27.04-46.835c1.706.577 3.53.904 5.43.904 9.368 0 16.962-7.594 16.962-16.962 0-9.369-7.594-16.962-16.962-16.962z"/>
  <path fill="#fff" d="M182.134 43.715c0 5.32-4.314 9.636-9.636 9.636-5.322 0-9.636-4.315-9.636-9.636a9.636 9.636 0 0 1 9.636-9.636 9.636 9.636 0 0 1 9.636 9.636M91.104 46.017a9.636 9.636 0 0 1-9.636 9.636c-5.322 0-9.635-4.314-9.635-9.636a9.635 9.635 0 0 1 9.635-9.635c5.322 0 9.636 4.314 9.636 9.635M47.794 121.513a9.636 9.636 0 0 1-9.636 9.636c-5.322 0-9.635-4.314-9.635-9.636 0-5.321 4.313-9.636 9.635-9.636s9.636 4.315 9.636 9.636M91.104 197.896a9.636 9.636 0 0 1-9.636 9.636c-5.322 0-9.635-4.314-9.635-9.636 0-5.32 4.313-9.636 9.635-9.636s9.636 4.315 9.636 9.636M182.134 197.896a9.636 9.636 0 0 1-9.636 9.636 9.636 9.636 0 0 1-9.636-9.636c0-5.32 4.314-9.636 9.636-9.636 5.322 0 9.636 4.315 9.636 9.636M224.856 121.513a9.636 9.636 0 0 1-9.636 9.636c-5.322 0-9.635-4.314-9.635-9.636 0-5.321 4.313-9.636 9.635-9.636s9.636 4.315 9.636 9.636"/>
</svg>
