<svg xmlns="http://www.w3.org/2000/svg" viewBox="0 0 256 254.489">
  <g fill="none" fill-rule="evenodd">
    <path fill="#4f4c4d" d="M239.484 107.68h-6.423V94.832c0-1.835-1.835-3.67-3.67-3.67h-21.104c-1.835 0-3.67 1.835-3.67 3.67v12.846h-28.445v-6.423c0-9.175-7.34-16.516-16.516-16.516H98.179a16.447 16.447 0 0 0-16.516 16.516v6.423H55.971v-8.258c0-2.753-1.835-4.588-4.587-4.588h-1.836v-3.67c0-1.835-.917-2.753-2.752-2.753H30.28c-1.836 0-2.753.918-2.753 2.753v3.67h-2.753c-2.752 0-4.588 1.835-4.588 4.588v8.258h-3.67A16.447 16.447 0 0 0 0 124.195v113.778c0 9.176 7.34 16.516 16.516 16.516h222.968c9.175 0 16.516-7.34 16.516-16.516V124.195c0-9.175-7.34-16.516-16.516-16.516zM128.459 232.467c-28.445 0-51.384-22.94-51.384-51.384s22.94-51.383 51.384-51.383 51.383 22.939 51.383 51.383c0 28.445-22.939 51.384-51.383 51.384zm29.362-51.384c0 16.516-13.764 30.28-30.28 30.28-16.516 0-30.28-13.764-30.28-30.28 0-16.516 13.764-30.28 30.28-30.28 17.434 0 30.28 13.764 30.28 30.28z"/>
    <path fill="#e9004c" d="M72.899 0H3.645C1.822 0 0 1.822 0 4.556V58.32c0 2.734 1.822 4.556 4.556 4.556h44.65L65.61 79.277V62.875h8.201c2.734 0 4.556-1.822 4.556-4.556V4.556C77.455 1.822 75.632 0 72.9 0zM24.603 49.207h-6.378V39.183h6.378zm10.935 0h-5.467V31.893h6.378v17.314zm11.846 0h-5.467v-21.87h6.378v21.87zm11.846 0h-6.378v-36.45h6.378z"/>
    <path fill="#00a8e1" d="M251.444 0H182.19c-2.734 0-4.556 1.822-4.556 4.556V58.32c0 2.734 1.822 4.556 4.556 4.556h8.201v16.402l16.402-16.402h44.65c2.735 0 4.557-1.822 4.557-4.556V4.556C256 2.734 254.178 0 251.444 0zM234.13 27.337h-7.29v8.201h7.29v5.468h-7.29v8.2h-5.467v-8.2h-8.201v8.2h-5.467v-8.2h-7.29v-5.468h7.29v-8.201h-7.29V21.87h7.29v-8.201h5.467v8.2h8.201v-8.2h5.467v8.2h7.29zm-21.87 0h8.202v8.201h-8.201z"/>
    <path fill="#6cc04a" d="M162.627 0H93.373c-2.734 0-4.556 1.822-4.556 4.556V58.32c0 2.734 1.822 4.556 4.556 4.556H119.8L128 79.277l7.29-16.402h27.337c2.734 0 4.556-1.822 4.556-4.556V4.556c0-1.822-2.734-4.556-4.556-4.556zm-8.201 26.426C150.78 39.183 128 51.94 128 52.852c-.911 0-23.692-13.669-26.426-26.426C97.93 10.935 116.154 1.822 128 15.49c11.846-12.757 30.07-3.645 26.426 10.935z"/>
  </g>
</svg>
