<svg xmlns="http://www.w3.org/2000/svg" viewBox="0 0 512 322.52">
  <path d="M505.05 209.647c1.702-.244 2.919 4.623 2.919 8.274 0 9.004-5.353 15.088-11.921 15.575l-110.45 7.787-219.681 16.792c-3.65.243-7.055 1.947-9.488 4.624l-54.251 57.676c-4.136 4.137-10.948 1.947-10.948-3.65V267.81c0-2.19-1.703-3.894-4.136-3.894l-73.714 5.597c-8.028.487-8.514 3.164-10.46 3.407-1.704 0-2.92-4.624-2.92-8.518 0-9.004 5.352-15.088 11.92-15.575l51.576-3.407 43.79-3.407c2.19-.243 4.136 1.46 4.136 3.65v36.261l36.492-38.937c2.433-2.434 5.839-4.137 9.245-4.38l319.913-24.337 17.516-1.216c8.028-.487 8.515-3.164 10.461-3.407zM402.601.115c9.294-.98 15.41 4.412 15.41 11.274v89.209c9.294-13.235 20.545-25.489 33.509-26.469 17.61-1.47 25.437 12.744 25.437 28.92 0 22.056-15.898 39.702-27.394 49.015 2.935 12.254 9.05 23.283 20.301 22.302 13.208-.98 22.747-19.851 25.438-32.595 3.424-17.89 19.078-5.637 16.388 3.676-5.137 15.93-19.323 46.075-45.25 48.035-22.503 1.961-37.423-22.792-37.423-41.663 0-2.912 2.903-6.09 6.794-9.993l.718-.718c7.885-7.865 19.149-18.65 19.149-35.854 0-7.107-3.67-11.764-9.05-11.274-6.849.49-19.812 10.784-28.618 41.909v50.803l-.005.45-.007.451-.011.453c-.149 4.69-1.173 9.485-8.048 10.093-5.626.49-13.697-.735-13.697-11.274-6.115 7.843-14.431 13.48-25.438 14.46-13.453.98-29.596-5.147-29.596-30.39 0-18.38 6.36-32.35 15.41-57.838l-25.928-4.902c-.244 11.274-1.956 36.272-7.093 53.427 0 .245-.244.49-.244.735-5.137 19.117-16.633 43.87-40.358 45.83-10.029.735-17.611-3.431-22.014-10.048-5.87 7.107-13.942 12.744-24.704 13.724-12.963.98-22.258-4.656-27.884-14.214-7.582 9.803-17.61 17.89-30.574 18.87-22.013 1.716-33.754-12.743-33.754-35.29V80.01c-5.87 5.147-12.474 9.803-17.366 12.254 1.223 7.842 1.712 15.685 1.712 22.547 0 72.788-31.553 108.08-64.817 110.776C21.769 228.774 0 188.336 0 137.114c0-97.54 57.724-124.5 60.17-125.48.979-.245 1.957-.735 3.18-.735 6.36-.49 10.028 7.842 10.028 14.214 0 3.677-.978 6.618-3.669 6.863-.489 0-.978 0-1.467-.245-10.029 6.372-45.25 27.203-45.25 100.727 0 51.956 21.28 73.278 41.58 71.563 23.726-1.716 41.582-33.576 41.826-87.248 0-5.392-.489-11.519-.978-17.4l-5.381.49c-23.97 1.715-43.049-10.784-43.049-32.841 0-14.95 10.518-28.184 25.927-29.41 20.79-1.715 32.776 13.97 39.135 33.576 7.827-3.676 17.367-12.989 22.014-17.89v-2.451c0-21.567 11.74-37.742 26.171-38.968 25.194-1.96 25.438 27.94 25.438 44.114 0 42.154-26.171 102.198-29.84 105.874v16.666c0 11.518 4.647 19.36 15.165 18.626 9.294-.736 16.877-10.294 21.524-20.342-.245-1.96-.245-3.676-.245-5.637 0-47.79 33.265-79.65 67.997-82.591 7.827-.49 13.208 3.676 13.208 11.028 0 4.902-.733 6.617-3.668 6.863-2.691 0-5.381-.246-8.317 0-21.768 1.715-47.206 22.302-47.206 63.72 0 14.95 6.36 23.037 16.388 22.302 7.827-.49 12.963-7.842 16.143-16.175v-44.114c0-5.392-1.223-7.108-1.223-9.068 0-2.696 3.424-5.147 7.338-5.392 9.294-.98 15.409 4.412 15.409 11.274v47.545c0 6.372 2.935 12.99 9.784 12.499 11.251-.98 16.388-19.851 19.078-32.595.245-.246.245-.49.245-.736v-.735c3.18-11.764 4.402-35.536 4.647-50.241-7.093-3.431-12.23-9.068-12.23-17.4 0-7.843 7.094-13.725 14.431-14.215 6.849-.49 14.92 2.206 18.1 13.724 2.51.373 5.187.807 7.878 1.267l1.275.219.85.148c.706.123 1.411.248 2.112.373l.838.15c9.61 1.73 18.11 3.48 18.11 3.48 7.583 1.47 14.921 8.333 13.698 14.95 0 3.43-13.942 31.615-13.942 60.29 0 7.842 3.67 15.194 11.496 14.459 13.208-.98 17.855-19.852 20.546-32.596.245-1.47.734-2.696 1.223-3.92V14.82c0-8.333-2.935-8.823-2.935-10.783 0-1.96 5.136-3.676 9.05-3.922zM178.064 57.954c0-18.871-3.18-27.204-7.827-26.959-3.18.245-4.402 7.108-4.402 11.764h.244v81.856c5.87-12.499 11.985-50.976 11.985-66.661zm-76.068 21.567c-2.69-12.99-8.561-22.302-17.366-21.567-5.626.49-7.094 4.656-7.094 7.842 0 7.108 6.36 15.44 21.28 14.215z"/>
</svg>
