<svg xmlns="http://www.w3.org/2000/svg" viewBox="0 0 256 240.834">
  <path fill="#3360a3" d="M226.007 71.48c-8.88-11.028-18.78-18.973-28.673-23.022h-15.52l.242-.426c2.013-3.518 5.474-9.62 5.53-9.7 4.886-7.325 6.247-13.395 4.025-18.031-2.39-5.015-9.273-8.758-17.121-9.338L25.614.097A26.698 26.698 0 0 0 23.264 0C13.925 0 10.866 4.685 9.86 7.486c-1.836 5.128.418 10.577 6.56 15.777.08.08 7.084 6.665 13.652 13.523 3.091 3.091 5.554 7.036 7.325 11.72l.242 15.617 151.09-.226s11.63 5.071 23.101 19.319c16.22 20.14 30.95 56.886 24.246 100.112h18.481c6.56-48.136-10.368-89.27-28.543-111.856zM55.3 45.19l-.459-1.167a47.821 47.821 0 0 0-1.891-3.574c-.387-.684-.725-1.224-.942-1.594l-.37-.58c-3.864-6.117-8.992-12.235-13.395-15.97l-8.098-6.882 143.306 10.464c1.079.08 1.811.282 2.23.435l1.167.402-.402 1.184a9.504 9.504 0 0 1-1.063 2.028l-.99 1.481c-2.624 3.928-7.486 13.443-9.313 17.05l-108.524.031a43.24 43.24 0 0 0-1.264-3.324zM182.201 74.7l-2.495-2.295-141.511.081L35.7 74.78C13.008 95.71 0 125.532 0 156.612c0 31.135 13.04 60.99 35.796 81.92l2.496 2.302 141.51-.08 2.496-2.31c22.7-20.93 35.707-50.745 35.707-81.84 0-31.128-13.04-60.984-35.796-81.904zM161.739 201.43h-22.643c-3.526 0-6.416-2.777-6.416-6.174 0-3.38 2.898-6.166 6.408-6.166h22.619c3.542 0 6.415 2.778 6.415 6.166 0 3.397-2.881 6.174-6.407 6.174zm0-25.356h-22.643c-3.526 0-6.416-2.793-6.416-6.182 0-3.397 2.898-6.174 6.408-6.174h22.619c3.542 0 6.415 2.777 6.415 6.174 0 3.381-2.881 6.174-6.407 6.174zm0-25.275h-22.643c-3.526 0-6.416-2.777-6.416-6.174 0-3.397 2.898-6.174 6.408-6.174h22.619c3.542 0 6.415 2.769 6.415 6.166 0 3.397-2.881 6.174-6.407 6.174zm0-37.712h-22.643c-3.526 0-6.416 2.769-6.416 6.166 0 3.397 2.898 6.182 6.408 6.182h22.619c3.542 0 6.415-2.785 6.415-6.182 0-3.397-2.881-6.166-6.407-6.166zm-70.514 12.348c-34.959-12.984-53.11-16.816-59.832-17.91a92.626 92.626 0 0 1 13.684-17.307l127.795-.064a93.195 93.195 0 0 1 18.473 26.04c-12.267 9.579-46.172 29.252-100.12 9.233z"/>
</svg>
