<svg xmlns="http://www.w3.org/2000/svg" viewBox="0 0 254.507 235.75">
  <path fill="#da2430" d="m73.9 105.958-40.867 14.87c.524 6.552 1.652 13.024 3.24 19.365l38.817-14.136c-1.244-6.552-1.688-13.32-1.18-20.1M254.505 60.767c-2.85-5.879-6.147-11.561-9.966-16.916l-40.857 14.87c4.756 4.864 8.743 10.33 12.007 16.176l38.818-14.132-.001.002z"/>
  <path fill="#da2430" d="M182.012 60.526c-5.141-4.46-10.947-8.31-17.41-11.325h-.002C126.66 31.513 81.392 47.97 63.704 85.923a73.976 73.976 0 0 0-2.654 6.488c-2.208 6.423-3.497 12.99-3.99 19.546l-.145.053-.011.144-24.596 8.95-15.826 5.85-.007-.088-.434.158c-1.536-19.436 1.74-39.512 10.553-58.412a117.952 117.952 0 0 1 3.687-7.246C59.335 7.25 125.445-15.369 181.2 11.037a115.314 115.314 0 0 1 30.556 21.073 116.598 116.598 0 0 1 15.781 17.94l-40.859 14.874c-.21-.215-.422-.429-.635-.642l-.113.042a78.608 78.608 0 0 0-3.918-3.798z"/>
  <path fill="#e82429" d="m18.323 192.961-.065.024A118.404 118.404 0 0 1 0 153.412l38.825-14.14.002.003.024.125.252-.093.006.015c1.994 10.561 6.146 20.636 12.198 29.494a75.288 75.288 0 0 0 7.722 9.327l-.154.056.294.308-40.488 14.97c-.12-.171-.24-.343-.358-.515z"/>
  <path fill="#da2430" d="M172.527 182.512c-21.052 13.017-48.053 15.532-72.114 4.312a75.14 75.14 0 0 1-22.118-15.695l-40.771 14.844c.103.146.207.291.312.437l-.02.007c11.21 16.017 26.502 29.404 45.266 38.298 40.47 19.164 86.387 12.502 119.635-13.284 14.888-11.151 27.316-26.015 35.712-44.019 8.819-18.896 12.076-38.964 10.515-58.384l-1.135.413-.048-.624-40.49 14.957.003.004a76.457 76.457 0 0 1-6.807 26.46c-6.314 13.753-16.164 24.708-27.94 32.273z"/>
  <path fill="#e82429" d="m217.614 74.194.607-.221v-.001a117.732 117.732 0 0 1 11.453 42.055l-40.772 14.833.022-.303-.771.285c1.11-15.088-2.275-30.094-9.434-43.123l38.547-14.25.002-.004.346.729z"/>
  <path fill="#c22035" d="M73.952 105.719 33.37 120.715c.52 6.61 1.64 13.136 3.22 19.532l38.545-14.258c-1.246-6.622-1.694-13.438-1.168-20.274M253.288 60.148c-2.83-5.929-6.105-11.658-9.897-17.059l-40.572 14.996c4.721 4.906 8.68 10.417 11.921 16.315l38.542-14.256.006.004z"/>
  <path fill="#ac223b" d="M33.37 120.717 73.85 105.89l-.165 8.133L34.63 128.77l-1.266-8.062.006.01zM202.827 57.962l41.113-14.108 4.273 6.448-39.946 14.122-5.434-6.466-.006.004z"/>
  <path fill="#b92135" d="m37.825 186.266 40.53-14.749 12.258 11.564-42.503 15.957-10.283-12.776-.002.004zM248.442 108.926l-41.165 14.845-3.033 16.478 43.892-15.643.312-15.678-.006-.002z"/>
</svg>
