<svg viewBox="0 0 300 91.868" xmlns="http://www.w3.org/2000/svg">
  <g>
    <path d="m45.081 7.3412v84.527l15.027-7.0726v-84.796z" fill="#f8931e" />
    <path d="m97.123 32.136 2.0742 21.538-29.06-6.3226" fill="#b3b3b3" />
    <path
      d="m15.027 59.697c0-10.648 11.602-19.615 27.416-22.352v-9.5445c-24.189 2.9237-42.443 16.092-42.443 31.896 0 16.374 19.594 29.917 45.081 32.171v-9.4205c-17.148-2.1498-30.054-11.518-30.054-22.75m47.719-31.893v9.5408c6.2921 1.089 11.921 3.159 16.413 5.9357l10.626-6.5668c-7.2412-4.4757-16.587-7.6464-27.038-8.9096"
      fill="#b3b3b3" />
  </g>
  <g>
    <path
      d="m121.18 61.485c0.54239 2.0362 1.3961 3.8685 2.5598 5.4976 1.1632 1.629 2.6556 2.9378 4.479 3.9263 1.8225 0.98897 3.9939 1.4835 6.5152 1.4835 2.5208 0 4.6917-0.49448 6.5156-1.4835 1.8225-0.9885 3.3158-2.2973 4.4785-3.9263 1.1641-1.629 2.0164-3.4614 2.5602-5.4976 0.54286-2.0357 0.81428-4.101 0.81428-6.1949s-0.27142-4.1597-0.81428-6.1958c-0.54379-2.0362-1.3961-3.8685-2.5602-5.4971-1.1627-1.629-2.656-2.9378-4.4785-3.9268-1.8239-0.98897-3.9948-1.4835-6.5156-1.4835-2.5212 0-4.6927 0.49448-6.5152 1.4835-1.8234 0.98897-3.3158 2.2977-4.479 3.9268-1.1637 1.6286-2.0174 3.4609-2.5598 5.4971-0.54379 2.0362-0.81428 4.1019-0.81428 6.1958s0.27049 4.1592 0.81428 6.1949m-5.0899-14.369c0.83353-2.6175 2.0841-4.9345 3.7521-6.9514 1.6671-2.016 3.7422-3.6257 6.2245-4.8284 2.4814-1.2012 5.3708-1.8032 8.6673-1.8032 3.2961 0 6.1855 0.60202 8.6673 1.8032 2.4818 1.2026 4.557 2.8124 6.225 4.8284 1.6671 2.0169 2.9176 4.3339 3.7521 6.9514 0.83353 2.6185 1.2505 5.3431 1.2505 8.1738 0 2.8312-0.417 5.5553-1.2505 8.1728-0.83447 2.618-2.085 4.9359-3.7521 6.9519-1.668 2.0169-3.7432 3.6164-6.225 4.7983-2.4818 1.1834-5.3712 1.7751-8.6673 1.7751-3.2966 0-6.186-0.59169-8.6673-1.7751-2.4823-1.182-4.5574-2.7814-6.2245-4.7983-1.668-2.016-2.9185-4.3339-3.7521-6.9519-0.83447-2.6175-1.251-5.3416-1.251-8.1728 0-2.8307 0.41653-5.5553 1.251-8.1738" />
    <path
      d="m181.71 56.656c-0.3691-1.3379-0.93026-2.5306-1.6873-3.5769-0.75605-1.0477-1.7262-1.8812-2.9082-2.5015-1.1838-0.62034-2.5701-0.93074-4.1597-0.93074-1.6671 0-3.0829 0.32918-4.2465 0.98897-1.1632 0.65931-2.1137 1.5224-2.8504 2.5879-0.7368 1.0679-1.2707 2.2789-1.5994 3.6361-0.33012 1.3581-0.49448 2.734-0.49448 4.1301 0 1.4741 0.17422 2.8993 0.52313 4.2761 0.34938 1.3769 0.90209 2.5884 1.6581 3.6356 0.75652 1.0467 1.7352 1.8906 2.9378 2.5306 1.2012 0.63912 2.656 0.95938 4.363 0.95938 1.7056 0 3.1312-0.32919 4.2757-0.98897 1.1435-0.65931 2.0653-1.5313 2.7631-2.6175 0.69829-1.0857 1.2017-2.3268 1.5126-3.723 0.30993-1.3956 0.46536-2.8302 0.46536-4.3052 0-1.3956-0.18455-2.7626-0.55271-4.101m-17.772-10.674v4.0719h0.11646c0.81475-1.6666 2.0939-2.8791 3.8394-3.6361 1.7455-0.75558 3.6652-1.1336 5.7591-1.1336 2.3268 0 4.3527 0.42686 6.0789 1.2796 1.7253 0.85326 3.1608 2.0066 4.3048 3.4614 1.1435 1.4543 2.007 3.1322 2.5889 5.0317 0.58135 1.9005 0.8725 3.9174 0.8725 6.0503 0 2.1334-0.28176 4.1498-0.84339 6.0493-0.56304 1.9005-1.4163 3.5586-2.5598 4.974-1.1444 1.4163-2.58 2.5306-4.3048 3.3449-1.7262 0.81475-3.7333 1.2219-6.0207 1.2219-0.73727 0-1.5619-0.07795-2.4724-0.23292-0.91196-0.15591-1.8136-0.40761-2.7053-0.75699-0.89224-0.34844-1.7356-0.82273-2.5302-1.4243-0.7955-0.60155-1.4637-1.3473-2.007-2.2395h-0.11646v15.474h-4.9444v-41.535z" />
    <path
      d="m212.25 54.824c-0.44564-1.0467-1.0472-1.9488-1.8042-2.7053-0.75558-0.75605-1.6483-1.3567-2.6753-1.8032-1.0284-0.44565-2.162-0.66823-3.4027-0.66823-1.2796 0-2.4344 0.22259-3.4604 0.66823-1.0289 0.44658-1.9117 1.0575-2.648 1.8328-0.73727 0.77577-1.3191 1.6774-1.7455 2.7049-0.42639 1.0279-0.67857 2.123-0.75558 3.2872h17.277c-0.0779-1.1641-0.33952-2.2696-0.78516-3.3163m1.1923 19.313c-2.2498 1.707-5.081 2.5598-8.4931 2.5598-2.4048 0-4.4884-0.38882-6.2531-1.1637-1.7652-0.7753-3.2487-1.861-4.4504-3.2581-1.2022-1.3961-2.1038-3.0622-2.7049-5.0021-0.60201-1.939-0.94106-4.0521-1.0181-6.3409 0-2.2874 0.34892-4.3818 1.0467-6.2827 0.69828-1.8995 1.6774-3.5487 2.9382-4.9444 1.2594-1.3961 2.7528-2.4813 4.479-3.2581 1.7253-0.7753 3.6154-1.1632 5.6718-1.1632 2.6753 0 4.896 0.55224 6.6607 1.6581 1.7633 1.105 3.1796 2.5109 4.2466 4.2174 1.0655 1.707 1.8028 3.5685 2.2113 5.584 0.4062 2.0174 0.57102 3.9371 0.494 5.7596h-22.513c-0.0395 1.3186 0.11646 2.5696 0.4649 3.7521 0.34938 1.1829 0.91148 2.2306 1.6877 3.1411 0.77483 0.91196 1.7647 1.6389 2.966 2.1813 1.2026 0.54379 2.6185 0.81428 4.2475 0.81428 2.0939 0 3.8089-0.48415 5.1482-1.4539 1.3374-0.96924 2.2188-2.4433 2.6462-4.4217h4.8866c-0.66025 3.3745-2.1151 5.915-4.363 7.6211" />
    <path
      d="m226.3 45.982v4.7706h0.11552c2.0554-3.645 5.3135-5.4684 9.7737-5.4684 1.9775 0 3.6253 0.2719 4.9444 0.81475 1.3182 0.54285 2.3846 1.2994 3.1998 2.2681 0.8138 0.97018 1.3862 2.123 1.7154 3.4614 0.32918 1.3379 0.49402 2.8213 0.49402 4.4499v19.778h-4.9444v-20.36c0-1.8619-0.54286-3.3351-1.6281-4.4212-1.0857-1.0857-2.58-1.6286-4.4804-1.6286-1.5112 0-2.8208 0.23198-3.9263 0.69782-1.1054 0.46537-2.0268 1.1252-2.7626 1.9775-0.73726 0.85372-1.2904 1.853-1.6581 2.996-0.36863 1.1444-0.55224 2.3954-0.55224 3.7521v16.986h-4.9444v-30.075z" />
    <path d="m259.4 76.057h-6.1085v-41.535h6.1085z" />
    <path
      d="m280.51 71.403c0.62081 0 1.397-0.04884 2.3268-0.14604 0.9312-0.09626 1.9206-0.32825 2.9669-0.69782 1.0477-0.36769 2.085-0.90162 3.112-1.5994 1.0275-0.69782 1.9502-1.6483 2.7626-2.8504 0.81569-1.2017 1.4839-2.7049 2.008-4.5081 0.52359-1.8037 0.78469-3.9845 0.78469-6.5447 0-2.4813-0.24279-4.7011-0.726-6.6603-0.48556-1.9582-1.2796-3.6257-2.3855-5.0026-1.1054-1.3764-2.5297-2.4236-4.2752-3.1416-1.7455-0.71707-3.8981-1.0763-6.4579-1.0763h-9.3074v32.227zm-0.46584-36.881c6.3992 0 11.324 1.6286 14.777 4.8866 3.451 3.2576 5.1773 8.2221 5.1773 14.892 0 3.49-0.38882 6.5833-1.1641 9.2778-0.77577 2.6964-1.977 4.9646-3.606 6.8063-1.629 1.8427-3.7037 3.2487-6.225 4.2174-2.5213 0.97018-5.507 1.4543-8.9589 1.4543h-14.252v-41.535z" />
  </g>
</svg>
