<svg xmlns="http://www.w3.org/2000/svg" viewBox="0 0 512 223.676">
  <path fill="#5586a4" d="M83.963 67.071c.204-.1.409-.198.615-.295 5.698-2.686 12.334-4.031 19.905-4.031 7.568 0 14.204 1.346 19.902 4.031 5.698 2.685 10.464 6.285 14.292 10.792 3.828 4.507 6.702 9.688 8.615 15.538 1.915 5.85 2.874 11.938 2.874 18.266 0 6.328-.96 12.42-2.874 18.269-1.913 5.85-4.787 11.03-8.615 15.538-3.828 4.507-8.594 8.085-14.292 10.727-5.698 2.64-12.334 3.965-19.902 3.965-7.57 0-14.207-1.324-19.905-3.965a45.738 45.738 0 0 1-3.459-1.784c29.693 26.92 86.858 45.146 152.504 45.146 53.398 0 101.256-10.809 133.209-29.799-34.969 31.793-97.344 54.219-168.562 54.207C88.758 223.66-.01 173.572 0 111.807.01 50.041 88.794-.017 198.304 0c71.504.01 134.04 22.508 168.92 54.525-31.955-19.11-80.008-30.119-133.601-30.119-63.609 0-119.255 17.112-149.66 42.665zM73.32 125.266c1.249 4.556 3.21 8.655 5.886 12.298 2.674 3.644 6.106 6.573 10.298 8.786 4.189 2.213 9.18 3.317 14.979 3.317 5.796 0 10.787-1.104 14.98-3.317 4.188-2.213 7.62-5.142 10.297-8.786 2.673-3.643 4.634-7.742 5.882-12.298a52.213 52.213 0 0 0 0-27.718c-1.248-4.556-3.21-8.655-5.882-12.3-2.677-3.643-6.11-6.57-10.298-8.784-4.192-2.214-9.184-3.32-14.98-3.32-5.797 0-10.789 1.106-14.978 3.32-4.192 2.214-7.624 5.141-10.298 8.783-2.676 3.646-4.637 7.745-5.886 12.3a52.18 52.18 0 0 0-1.87 13.858c0 4.685.621 9.305 1.87 13.861zm95.665-26.611v8.02h.2c1.64-3.284 4.215-5.672 7.729-7.162 3.514-1.49 7.376-2.235 11.593-2.235 4.682 0 8.761.84 12.237 2.52 3.473 1.68 6.36 3.95 8.663 6.81 2.303 2.863 4.038 6.162 5.212 9.9 1.17 3.739 1.757 7.707 1.757 11.904s-.568 8.164-1.698 11.905c-1.133 3.74-2.849 7.002-5.152 9.786s-5.193 4.979-8.666 6.579c-3.477 1.6-7.515 2.403-12.121 2.403-1.484 0-3.144-.153-4.977-.457a28.346 28.346 0 0 1-5.443-1.489 21.474 21.474 0 0 1-5.096-2.808 15.748 15.748 0 0 1-4.038-4.412h-.2v30.554h-10.041V98.655zm35.637 21.044c-.74-2.63-1.866-4.976-3.385-7.037-1.519-2.06-3.466-3.7-5.842-4.92-2.378-1.22-5.16-1.83-8.352-1.83-3.351 0-6.193.65-8.528 1.947-2.338 1.297-4.245 2.992-5.726 5.09-1.48 2.096-2.551 4.482-3.213 7.152a33.616 33.616 0 0 0-.992 8.121c0 2.9.348 5.704 1.052 8.41.699 2.711 1.81 5.092 3.329 7.153 1.518 2.06 3.482 3.72 5.898 4.977 2.416 1.259 5.338 1.888 8.764 1.888 3.426 0 6.287-.647 8.584-1.944 2.297-1.297 4.149-3.013 5.55-5.15 1.4-2.134 2.414-4.574 3.038-7.322.621-2.747.935-5.568.935-8.467a29.714 29.714 0 0 0-1.112-8.068zm62.964 34.355c-4.537 3.355-10.244 5.031-17.129 5.031-4.85 0-9.058-.762-12.616-2.286-3.562-1.527-6.554-3.664-8.98-6.411-2.425-2.747-4.245-6.027-5.456-9.844-1.211-3.815-1.895-7.975-2.052-12.476 0-4.5.703-8.62 2.114-12.362 1.409-3.74 3.386-6.983 5.93-9.73 2.545-2.748 5.56-4.881 9.043-6.408 3.483-1.526 7.301-2.29 11.453-2.29 5.403 0 9.883 1.091 13.447 3.268 3.565 2.18 6.423 4.951 8.576 8.315a32.47 32.47 0 0 1 4.465 11.009c.822 3.976 1.154 7.76.998 11.353h-45.383c-.079 2.59.232 5.047.935 7.37.703 2.324 1.832 4.381 3.395 6.172 1.562 1.79 3.552 3.216 5.974 4.283 2.419 1.067 5.268 1.6 8.547 1.6 4.213 0 7.668-.953 10.36-2.864 2.692-1.91 4.468-4.813 5.328-8.712h9.852c-1.33 6.634-4.264 11.628-8.8 14.982zm-2.432-37.976c-.897-2.055-2.105-3.827-3.623-5.31-1.522-1.484-3.317-2.665-5.382-3.541-2.068-.877-4.349-1.316-6.843-1.316-2.573 0-4.895.439-6.96 1.316-2.067.876-3.84 2.075-5.32 3.596a17.188 17.188 0 0 0-3.51 5.313c-.859 2.017-1.364 4.17-1.52 6.453h34.74a19.5 19.5 0 0 0-1.582-6.511zm28.317-17.423v9.397h.189c4.16-7.18 10.759-10.774 19.792-10.774 4.003 0 7.34.536 10.014 1.607 2.67 1.07 4.83 2.56 6.48 4.47 1.65 1.91 2.808 4.182 3.476 6.818.665 2.637 1 5.56 1 8.769v38.967h-10.04v-40.087c0-3.663-1.098-6.564-3.291-8.704-2.196-2.137-5.211-3.207-9.05-3.207-3.054 0-5.7.46-7.934 1.377-2.233.917-4.094 2.213-5.582 3.893-1.486 1.68-2.603 3.646-3.347 5.896-.746 2.253-1.117 4.715-1.117 7.389v33.441h-10.04V98.655zm110.36 58.61c-4.534 1.867-9.113 2.802-13.73 2.802-7.293 0-13.847-1.242-19.67-3.72-5.824-2.479-10.734-5.894-14.735-10.248-4-4.35-7.066-9.464-9.2-15.338-2.133-5.874-3.2-12.208-3.2-18.996 0-6.96 1.065-13.423 3.191-19.385 2.128-5.96 5.187-11.16 9.178-15.6 3.992-4.44 8.895-7.919 14.715-10.445 5.82-2.523 12.375-3.786 19.667-3.786 4.888 0 9.62.72 14.197 2.158 4.578 1.44 8.71 3.556 12.4 6.346 3.69 2.79 6.733 6.23 9.133 10.317 2.4 4.09 3.87 8.78 4.402 14.078h-19.998c-1.246-5.209-3.647-9.118-7.202-11.724-3.557-2.606-7.868-3.909-12.933-3.909-4.712 0-8.713.892-12 2.677-3.289 1.784-5.957 4.179-8.002 7.18-2.046 3.004-3.533 6.42-4.464 10.249-.936 3.83-1.4 7.787-1.4 11.877 0 3.918.467 7.726 1.402 11.423.936 3.698 2.426 7.027 4.471 9.986 2.046 2.958 4.717 5.328 8.01 7.112 3.293 1.785 7.298 2.677 12.018 2.677 6.94 0 12.3-1.71 16.083-5.132 3.784-3.422 5.987-8.382 6.611-14.882h-21.066v-15.305h39.942v50.302h-13.29l-2.128-10.552c-3.733 4.69-7.869 7.97-12.403 9.837zm61.767-92.362v75.738H512v17.267h-67.287V64.903z"/>
</svg>
