<svg xmlns="http://www.w3.org/2000/svg" viewBox="0 0 256 258.075">
  <path fill="#015965" d="M94.028 56.565c18.683-15.56 49.26-15.562 67.946 0l80.016 66.632c18.679 15.56 18.682 41.014-.003 56.577l-80.013 66.63c-18.69 15.564-49.266 15.56-67.946 0l-80.015-66.63c-18.683-15.56-18.683-41.016-.004-56.577z"/>
  <path fill="#e5e5e5" d="M94.028 34.913c18.683-15.559 49.26-15.562 67.946 0l80.016 66.632c18.679 15.563 18.682 41.018-.003 56.579l-80.013 66.63c-18.69 15.564-49.266 15.559-67.946 0l-80.015-66.63c-18.683-15.561-18.683-41.016-.004-56.579z"/>
  <path fill="#35bbce" d="m161.974 11.67 80.016 66.633c18.679 15.562 18.682 41.017-.003 56.578l-80.013 66.63c-18.69 15.564-49.266 15.56-67.946 0l-80.015-66.63C-4.67 119.32-4.67 93.865 14.009 78.303L94.03 11.67c18.682-15.56 49.259-15.563 67.945 0z"/>
  <path fill="#fff" d="M244.31 80.451a42.693 42.693 0 0 0-2.3-2.076l-80.021-66.693c-18.688-15.578-49.268-15.574-67.952 0L14.01 78.375c-18.68 15.579-18.68 41.058.004 56.634l8.611 7.176c22.516-27.042 98.449-101.98 221.685-61.734z" opacity=".15"/>
</svg>
