<svg xmlns="http://www.w3.org/2000/svg" viewBox="0 0 255.729 255.027">
  <path fill="#b8d3f4" d="M209.765 127.513c0 16.014-4.9 31.34-13.266 44.576l33.447 33.447a128.918 128.918 0 0 0 25.783-77.351c0-29.264-9.754-55.75-26.47-77.336l-32.776 32.73a79.442 79.442 0 0 1 13.267 43.888z"/>
  <path fill="#7fadf2" d="M127.513 209.718c-45.367-.086-82.125-36.837-82.22-82.205.069-45.385 36.835-82.165 82.22-82.251 16.732 0 32.058 4.9 44.607 13.266l32.744-32.776A128.965 128.965 0 0 0 127.514 0C57.123 0 0 57.124 0 127.513c0 70.36 57.124 127.514 127.513 127.514a125.126 125.126 0 0 0 77.351-26.502l-33.447-33.43c-11.861 9.754-27.157 14.623-43.904 14.623z"/>
</svg>
