<svg xmlns="http://www.w3.org/2000/svg" viewBox="0 0 255.702 316.062">
  <path fill="#ff0101" d="M96.6 111.278C73.227 97.783 61.83 70.27 68.817 44.2 75.802 18.13 99.427 0 126.418 0c26.99 0 50.616 18.129 57.602 44.2 6.985 26.07-4.41 53.583-27.785 67.078L138.28 80.18a23.724 23.724 0 1 0-23.724 0z"/>
  <path fill="#0101ff" d="M224.302 125.715c23.374 13.495 34.77 41.008 27.784 67.079-6.985 26.07-30.61 44.2-57.601 44.2-26.99 0-50.616-18.13-57.602-44.2-6.986-26.071 4.41-53.584 27.785-67.079l17.955 31.099a23.724 23.724 0 1 0 23.724 0z"/>
  <path fill="#01ff01" d="M119.269 177.36c0 26.99-18.129 50.616-44.2 57.601-26.07 6.986-53.583-4.41-67.078-27.785-13.495-23.374-9.609-52.899 9.477-71.984 19.085-19.085 48.61-22.972 71.984-9.477l-17.955 31.099A23.724 23.724 0 1 0 83.36 177.36z"/>
  <path fill="#050505" d="M17.031 251.291c5.048-.453 10.15-.45 15.172.27 3.095.548 6.379 1.348 8.703 3.605 2.436 2.718 3.035 6.494 3.57 9.974.878 7.222.775 14.547 0 21.773-.518 3.527-1.027 7.337-3.339 10.206-2.521 2.56-6.246 3.287-9.662 3.827-5.043.63-10.158.775-15.223.27-3.429-.351-7.008-.955-9.927-2.911-1.888-1.2-2.903-3.314-3.592-5.364-1.383-4.273-1.558-8.81-1.747-13.263-.021-5.882.09-11.824 1.238-17.612.62-2.7 1.374-5.672 3.655-7.474 3.215-2.333 7.304-2.898 11.152-3.3zm.835 8.061c-2.123.321-4.769.497-6.049 2.475-1.117 2.95-1.079 6.169-1.306 9.272-.107 5.535-.385 11.122.471 16.615.317 1.853.968 4.062 3.027 4.606 4.465 1.365 9.242 1.134 13.845.873 2.294-.35 5.338-.548 6.455-2.95 1.28-3.655 1.19-7.602 1.349-11.421-.052-5.368.248-10.84-1.036-16.092-.309-1.867-2.244-2.663-3.883-2.992-4.23-.83-8.596-.728-12.873-.386zm45.095 8.67c3.066-1.949 6.871-2.265 10.407-1.944 3.301.282 6.966 1.404 8.734 4.443 2.11 3.815 2.23 8.322 2.375 12.578-.094 4.375-.175 8.943-1.982 13.01-1.031 2.47-3.403 4.088-5.942 4.726-3.887.954-8.159 1.057-11.905-.493-2.025-.792-3.425-2.513-4.585-4.276v19.996h-8.562c.005-16.55-.008-33.105.005-49.655 2.77-.013 5.54-.013 8.305 0-.094 1.704-.189 3.404-.236 5.112 1.028-1.255 1.982-2.633 3.386-3.498zm2.787 4.468c-2.037.159-4.255 1.17-4.833 3.301-1.091 3.759-.899 7.74-.74 11.61.265 2.521.577 5.77 3.262 6.9 2.885 1.118 6.216 1.058 9.135.104 2.526-.89 2.894-3.862 3.16-6.156.265-3.802.36-7.68-.386-11.435-.252-1.455-1.002-2.958-2.423-3.57-2.243-.989-4.777-.938-7.175-.754zm28.974-4.405c4.208-2.161 9.135-2.239 13.754-2.02 3.845.32 8.51.963 10.63 4.64 2.389 4.44 2 9.662 2.333 14.534H98.02c.273 2.513-.052 5.223 1.215 7.526 1.083 1.82 3.382 2.192 5.325 2.299 2.402.017 4.988.214 7.2-.903 1.268-.994 1.277-2.757 1.44-4.213 2.74-.004 5.479-.004 8.219 0-.103 2.86-.471 6.062-2.766 8.074-3.446 3.09-8.378 3.412-12.787 3.498-3.891-.116-8.001-.313-11.486-2.23-2.82-1.666-3.72-5.087-4.216-8.1-.63-4.478-.788-9.042-.253-13.537.437-3.549 1.391-7.723 4.812-9.568zm5.004 5.45c-1.79 1.631-1.614 4.337-1.69 6.554 5.034.026 10.068.013 15.107.004-.01-1.995.184-4.17-.895-5.946-1.058-1.438-3.04-1.533-4.666-1.708-2.625-.039-5.518-.326-7.856 1.096zm39.946-5.471c2.962-2.055 6.79-2.342 10.274-1.94 2.966.313 6.109 1.443 7.86 4.003 1.554 2.124 1.986 4.83 2.007 7.402-.012 7.851.004 15.698-.004 23.55-2.714.004-5.424.004-8.13 0-.012-7.428.01-14.851-.012-22.274-.081-1.623-.017-3.498-1.237-4.748-1.302-1.408-3.344-1.682-5.163-1.67-2.2-.012-4.58.365-6.276 1.884-1.657 1.413-2.286 3.69-2.294 5.797-.013 7.003.004 14.007-.01 21.006-2.71.01-5.42.01-8.125.004-.004-11.558-.004-23.117 0-34.675 2.663-.01 5.33-.004 7.993 0-.013 2.029-.214 4.045-.274 6.074.873-1.64 1.79-3.369 3.39-4.413zm34.86-15.189c4.486-1.507 9.267-1.72 13.96-1.888 4.546.022 9.298.065 13.544 1.897 2.158.899 3.652 2.868 4.38 5.043 1.185 3.249 1.22 6.768 1.245 10.188-3.129 0-6.258.01-9.383-.004-.052-2.405.132-5.102-1.357-7.149-1.507-1.54-3.862-1.537-5.861-1.772-4.067-.077-8.3-.338-12.196 1.066-1.405.445-2.132 1.85-2.415 3.202-.8 3.63-.805 7.376-.8 11.08.047 4.948-.03 9.97 1.027 14.837.278 1.78 1.918 2.877 3.562 3.27 3.801.947 7.77.81 11.652.578 2.025-.265 4.491-.398 5.763-2.256 1.357-2.217 1.13-4.944 1.057-7.436 3.16-.013 6.314-.009 9.474 0-.039 3.935-.107 7.997-1.537 11.722-.737 1.947-2.256 3.6-4.225 4.345-3.866 1.55-8.104 1.648-12.205 1.896-4.757.081-9.573-.034-14.222-1.143-2.727-.71-5.706-1.96-6.97-4.67-1.613-3.584-1.908-7.57-2.324-11.426-.346-5.095-.569-10.197-.445-15.3.244-4.131.62-8.485 2.851-12.085 1.186-2.004 3.267-3.258 5.424-3.994zm35.193-1.442c3.262.004 6.524-.09 9.782.047 3.172 10.064 6.657 20.026 9.859 30.078 1.245 3.86 2.127 7.834 3.416 11.682 1.443-4.152 2.367-8.467 3.78-12.629 3.13-9.722 6.344-19.414 9.47-29.136 3.219-.137 6.447-.017 9.67-.06v1.066c-5.3 16.152-10.475 32.347-15.668 48.538-4.846.098-9.7.111-14.547-.01-5.163-16.554-10.574-33.031-15.762-49.577z"/>
</svg>
