<svg xmlns="http://www.w3.org/2000/svg" viewBox="0 0 256 208.781">
  <path fill="#b8c6c9" d="M231.941 141.828c-3.532 0-6.955.772-9.98 2.146-1.325-.806-1.998-1.588-3.998-2.35V52.5L127.75 0 51.988 44.721c-1.286-.753-2.58-1.539-3.907-2.343-.109-13.168-10.843-23.847-24.035-23.847C10.785 18.53 0 29.319 0 42.58 0 55.84 10.79 66.63 24.052 66.63c3.532 0 7.03-.772 10.054-2.146 1.253.762 2.86 1.502 3.86 2.224v89.93l90.085 52.143 76.496-44.746c1.124.662 2.23 1.345 3.385 2.046.11 13.167 10.835 23.847 24.027 23.847 13.261 0 24.041-10.79 24.041-24.05 0-13.261-10.798-24.05-24.059-24.05"/>
  <g fill="#759bc5">
    <path d="m127.876 193.854 77.148-45.14v-88.65l-77.152-44.918-77.106 45.548v88.543l77.11 44.617M242.933 166.076c0 6.048-4.898 10.95-10.937 10.95-6.041 0-10.937-4.902-10.937-10.95 0-6.047 4.896-10.95 10.937-10.95 6.04 0 10.937 4.903 10.937 10.95M13.072 42.57c0-6.047 4.896-10.95 10.937-10.95 6.04 0 10.937 4.903 10.937 10.95S30.05 53.52 24.01 53.52c-6.04 0-10.937-4.903-10.937-10.95"/>
  </g>
  <path fill="#343532" d="M232.096 172.535a6.572 6.572 0 0 1-6.565-6.565 6.571 6.571 0 0 1 6.565-6.565 6.571 6.571 0 0 1 6.564 6.565 6.572 6.572 0 0 1-6.564 6.565zm-89.16 7.355c7.145-10.292 15.613-25.042 20.823-42.76 11.066 2.271 21.394 5.951 32.598 11.542zM89.016 77.826c-1.727 7.203-2.91 14.875-3.178 22.945-10.058.003-19.858.003-30.867.003V65.357c11.01 5.935 22.598 9.936 34.044 12.47zM24.033 49.133a6.572 6.572 0 0 1-6.566-6.565 6.572 6.572 0 0 1 6.566-6.564 6.571 6.571 0 0 1 6.564 6.564 6.571 6.571 0 0 1-6.564 6.565zm87.425-19.163c-7.178 10.024-15.394 24.083-20.525 41.135-10.346-2.251-20.104-5.769-30.61-10.965zm19.385 97.08c.006-2.69.014-5.424.022-8.188 5.673-1.137 10.176-5.512 11.524-11.106 6.932.006 13.555.01 20.052.01-.264 7.481-1.347 14.678-2.99 21.498-8.787-1.43-18.115-2.104-28.608-2.213zm-.012 7.002c9.867.1 18.592.7 26.78 1.974-6.926 22.825-19.529 40.672-26.634 49.495-.121-16.325-.17-33.12-.146-51.47zm-39.881 4.053c5.14 17.12 13.366 31.122 20.55 41.066l-52.484-30.332c6.425-3.019 17.44-7.492 31.934-10.734zm22.536-30.346c1.327 5.502 5.709 9.821 11.253 11.041a8156.94 8156.94 0 0 0-.023 8.269 177.22 177.22 0 0 0-29.545 2.97c-1.7-6.985-2.812-14.433-3.061-22.268 6.964-.002 14.016-.006 21.376-.012zm11.225-26.276c.007 2.763.015 5.518.024 8.27-5.53 1.217-9.903 5.519-11.24 11.003-7.36.006-14.41.01-21.374.013.267-7.652 1.35-14.926 2.998-21.758 9.085 1.583 18.711 2.337 29.592 2.472zm-.069-53.737c.01 15.356.02 31.085.052 46.735-10.243-.127-19.26-.795-27.733-2.215 7.121-23.304 20.274-40.677 27.678-49.144l.003 4.624zm38.968 43.15c-5.194-17.348-13.513-31.768-20.568-41.88l53.775 31.27c-6.64 3.016-18.107 7.487-33.207 10.61zm-32.84-43.154-.004-4.699c7.015 8.575 19.693 26.218 26.717 49.006a174.046 174.046 0 0 1-26.662 2.427c-.033-15.65-.043-31.378-.052-46.734zm-2.833 84.41c-4.344 0-7.877-3.533-7.877-7.877 0-4.344 3.533-7.877 7.877-7.877 4.344 0 7.878 3.533 7.878 7.877 0 4.344-3.534 7.878-7.878 7.878zm-3.083 73.846c-7.313-8.344-20.582-25.763-27.801-49.143a168.663 168.663 0 0 1 27.651-2.783c-.024 18.518.025 35.457.15 51.926zm17.524-85.245c-1.361-5.574-5.856-9.932-11.517-11.065l-.023-8.21a182.843 182.843 0 0 0 28.53-2.603c1.694 6.926 2.811 14.254 3.075 21.89-6.5-.002-13.13-.006-20.065-.012zm57.711-.01c-10.008.014-21.207.022-31.838.022-.257-8.066-1.556-15.777-3.291-23.043 16.32-3.386 29.124-8.293 35.13-11.488v34.51zm-145.119 7.033c11.01 0 20.852 0 30.905-.003.244 8.297 1.332 16.153 3.083 23.505-15.62 3.495-26.982 8.378-33.988 11.59zm110.246 22.616c1.678-7.151 2.616-14.722 2.872-22.624 10.629-.001 21.993-.008 32.001-.023v35.327c-11.009-6.128-22.947-10.183-34.873-12.68zm66.879 20.261c-4.114 0-8.043 1.639-10.797 4.287-4.16-2.61-8.198-4.99-12.201-7.172V57.532l-81.376-47.436L51.136 55.34c-4.087-2.288-8.278-4.817-12.746-7.62.58-1.613.936-3.342.936-5.152 0-8.446-6.86-15.316-15.305-15.316-8.446 0-15.311 6.87-15.311 15.316 0 8.446 6.875 15.318 15.32 15.318 4.114 0 7.617-1.638 10.372-4.287 4.082 2.56 8.56 4.9 11.562 7.05v91.022l81.756 47.115 77.605-45.284a303.012 303.012 0 0 1 12.307 7.316 15.183 15.183 0 0 0-.883 5.152c0 8.446 6.886 15.317 15.332 15.317 8.446 0 15.324-6.871 15.324-15.317s-6.863-15.317-15.31-15.317z"/>
</svg>
