<svg xmlns="http://www.w3.org/2000/svg" viewBox="0 0 512 293.463">
  <path fill="#e53a35" d="M101.213 56.804c0-24.76-20.257-45.019-45.018-45.019-24.76 0-45.019 20.259-45.019 45.019v3.216h90.038zm9.429.203v3.247h90.91v-3.247c0-25.001-20.454-45.456-45.454-45.456-25.001 0-45.456 20.455-45.456 45.456zm190.813.001c0-25.975-21.754-46.754-47.728-45.456-24.352 1.299-43.183 22.404-43.183 46.755v1.948h90.911zm52.175-45.456c-24.351 1.3-43.183 22.403-43.183 46.754v1.948h90.91v-3.246c0-25.975-21.753-46.755-47.728-45.456zm99.902 0c-24.351 1.3-43.183 22.403-43.183 46.754v1.948h90.91v-3.246c0-25.975-21.752-46.755-47.727-45.456z"/>
  <path fill="#f05323" d="M11.488 113.64h89.165V59.319H11.488zm99.902 0h89.415V59.319H111.39zM273.25 92h-3.122c-10.302 0-19.378-6.77-19.378-17.073v-15.61h-40v43.707c0 3.435 1.316 7.248 2.252 10.057h86.829c-4.058-10.926-14.405-21.08-26.581-21.08zm-4.762-9.5h26.262c3.434 0 6.244-4.139 6.244-7.573v-15.61H260.75v15.61c0 3.434 4.304 7.573 7.738 7.573zm42.457 31.5h89.415V59.319h-89.415zm99.903-.61h89.415V59.319h-89.415z"/>
  <path fill="#f88c1f" d="M56.195 212.948c24.76 0 45.019-20.258 45.019-45.019H11.176c0 24.761 20.259 45.02 45.019 45.02zm95.604 8.71.2-8.658c2.187.313 2.115.625 4.3.625 24.039 0 45.45-21.586 45.45-45.625H111v53.659zm102.2-8.158c24.977 1.25 47.5-20.774 47.5-45.75h-90.75c.625 23.102 20.149 44.501 43.25 45.75zm57.334-45.625c.624 23.102 19.281 43.793 42.384 45.042 24.975 1.248 46.533-20.066 46.533-45.042zm100.208.125c.624 23.102 17.958 45.125 46.833 45.25 21.625.125 41.5-20.274 41.5-45.25z"/>
  <path fill="#fcb316" d="M151.25 262.244v-40.585l-40-.494v40.585c0 10.303 9.57 20.75 19.872 20.75s20.128-9.954 20.128-20.256"/>
  <path fill="#ed6d23" d="M11.863 168.585h88.79V112.39h-88.79zm99.387 0h89.5V112.39h-89.5zm139.125-18.731c0-3.434-3.43-7.104-6.863-7.104h-24.975c-3.435 0-7.037 3.67-7.037 7.104v18.732h38.875zm50.5 18.731v-46.829c0-3.434-.624-6.556-1.561-9.366L213 74.927c3.746 10.927 14.949 19.61 27.125 19.61h3.122c10.302 0 18.253 7.551 18.253 17.853v18.732zm92.6-21.585H368.5c-3.434 0-7.125 3.518-7.125 6.952v14.673l38.875-.04v-14.673c0-3.434-3.34-6.912-6.774-6.912zm-82.225-34.61.125 56.195H350.5l.125-12.835c0-10.303 7.698-17.375 18-17.375l25.75-.5c3.434 0 6-3.44 6-6.875l.125-18.61zm100 56.195h39.25l-.25-12.71c0-10.303 8.323-17.625 18.625-17.625l25.375-.375c3.434 0 6.125-3.316 6.125-6.75l-.125-18.75-89 .015zm82.88-21.96h-25.837c-3.435 0-7.168 3.853-7.168 7.287v14.673h39.25v-14.673c0-3.434-2.81-7.287-6.244-7.287z"/>
  <path fill="#30302f" d="M455.805 0c-21.854 0-40.586 12.488-49.952 30.595C396.488 12.488 377.756 0 355.902 0c-21.853 0-40.585 12.488-49.951 30.595C296.585 12.488 277.853 0 256 0c-21.854 0-40.586 12.488-49.951 30.595C196.683 12.488 177.951 0 156.097 0c-21.853 0-40.585 12.488-49.951 30.595C96.78 12.488 78.049 0 56.195 0 25.288 0 0 25.288 0 56.195v112.39c0 30.908 25.288 56.196 56.195 56.196 17.795 0 33.405-8.118 43.707-20.918v58.381c0 17.171 14.049 31.219 31.22 31.219 17.17 0 31.219-14.048 31.219-31.219v-37.776c19.044-2.185 35.278-13.736 43.708-30.283 9.365 18.108 28.097 30.596 49.951 30.596 21.853 0 40.585-12.488 49.951-30.596 9.366 18.108 28.098 30.596 49.951 30.596 21.854 0 40.586-12.488 49.951-30.596 9.366 18.108 28.098 30.596 49.952 30.596 30.907 0 56.195-25.288 56.195-56.196V56.195C512 25.288 486.712 0 455.805 0zM56.195 212.293c-24.039 0-43.707-19.669-43.707-43.708V56.195c0-24.039 19.668-43.707 43.707-43.707s43.707 19.668 43.707 43.707v112.39c0 24.039-19.668 43.708-43.707 43.708zm99.902 0c-2.185 0-4.058-.312-6.244-.625v50.576c0 10.302-8.429 18.732-18.731 18.732-10.303 0-18.732-8.43-18.732-18.732V56.195c0-24.039 19.668-43.707 43.707-43.707s43.708 19.668 43.708 43.707v112.39c0 24.039-19.669 43.708-43.708 43.708zm97.717 0c-23.414-1.249-41.522-21.542-41.522-44.956v-17.483c0-3.434 2.81-6.244 6.244-6.244h24.976c3.434 0 6.244 2.81 6.244 6.244v18.419c0 3.122 2.185 5.932 5.307 6.556 4.059.625 7.181-2.497 7.181-6.244v-18.731c0-10.303-8.43-18.732-18.732-18.732h-3.122a27.981 27.981 0 0 1-28.098-28.098v-45.58c0-23.415 18.108-43.707 41.522-44.956 24.976-1.249 45.893 18.732 45.893 43.707v18.732c0 3.434-2.81 6.244-6.244 6.244h-24.975c-3.435 0-6.244-2.81-6.244-6.244v-18.42c0-3.122-2.186-5.931-5.308-6.556-4.058-.624-7.18 2.498-7.18 6.244v18.732c0 10.302 8.429 18.732 18.732 18.732h3.122a27.98 27.98 0 0 1 28.097 28.097v46.829c0 24.976-20.917 44.957-45.893 43.708zm99.903 0c-23.415-1.249-41.522-21.542-41.522-44.956V57.444c0-23.415 18.107-43.707 41.522-44.956 24.975-1.249 45.893 18.732 45.893 43.707v74.927c0 3.434-2.81 6.244-6.244 6.244H368.39c-10.302 0-18.732 8.429-18.732 18.732v12.175c0 3.122 2.186 5.932 5.308 6.556 4.058.625 7.18-2.497 7.18-6.244v-14.673c0-3.434 2.81-6.244 6.244-6.244h24.976c3.434 0 6.244 2.81 6.244 6.244v14.673c0 24.976-20.918 44.957-45.893 43.708zm145.795-81.171c0 3.434-2.81 6.244-6.244 6.244h-24.976c-10.302 0-18.731 8.429-18.731 18.732v12.175c0 3.122 2.185 5.932 5.307 6.556 4.059.625 7.181-2.497 7.181-6.244v-14.673c0-3.434 2.809-6.244 6.243-6.244h24.976c3.434 0 6.244 2.81 6.244 6.244v14.673c0 24.976-20.917 44.957-45.893 43.708-23.414-1.249-41.522-21.542-41.522-44.956V57.444c0-23.415 18.108-43.707 41.522-44.956 24.976-1.249 45.893 18.732 45.893 43.707zm-343.415-81.17c-3.434 0-6.244 2.81-6.244 6.243v112.39c0 3.434 2.81 6.244 6.244 6.244 3.434 0 6.244-2.81 6.244-6.244V56.195c0-3.434-2.81-6.244-6.244-6.244zm299.708 0c-3.434 0-6.244 2.81-6.244 6.243v37.463c0 3.434 2.81 6.244 6.244 6.244 3.434 0 6.244-2.81 6.244-6.244V56.195c0-3.434-2.81-6.244-6.244-6.244m-99.903 49.952c3.434 0 6.244-2.81 6.244-6.245V56.197c0-3.434-2.81-6.244-6.244-6.244-3.434 0-6.244 2.81-6.244 6.244v37.463c0 3.433 2.81 6.243 6.244 6.243zM56.195 49.95c-3.434 0-6.244 2.81-6.244 6.244v112.39c0 3.434 2.81 6.244 6.244 6.244 3.434 0 6.244-2.81 6.244-6.244V56.195c0-3.434-2.81-6.244-6.244-6.244z"/>
</svg>
