<svg xmlns="http://www.w3.org/2000/svg" viewBox="0 0 256.001 304.81">
  <defs>
    <linearGradient id="a" x1="127.996" x2="127.996" y1="25.282" y2="181.448" gradientUnits="userSpaceOnUse">
      <stop offset="0%" stop-color="#2684FF"/>
      <stop offset="82%" stop-color="#0052CC"/>
    </linearGradient>
    <linearGradient id="b" x1="75.098" x2="123.487" y1="203.976" y2="290.632" gradientTransform="scale(1.08105 .92502)" gradientUnits="userSpaceOnUse">
      <stop offset="0%" stop-color="#2684FF"/>
      <stop offset="62%" stop-color="#0052CC"/>
    </linearGradient>
  </defs>
  <circle cx="127.996" cy="76.058" r="76.058" fill="url(#a)" style="fill:url(#a)"/>
  <path fill="url(#b)" d="M121.516 302.953A366.903 366.903 0 0 1 1.076 177.056a8.527 8.527 0 0 1 3.71-11.81l57.597-28.265a8.527 8.527 0 0 1 11.128 3.41 284.748 284.748 0 0 0 123.636 111.913 368.778 368.778 0 0 1-62.67 50.649 12.236 12.236 0 0 1-12.961 0z" style="fill:url(#b)"/>
  <path fill="#2684ff" d="M134.476 302.953a366.647 366.647 0 0 0 120.44-125.897 8.527 8.527 0 0 0-3.667-11.81l-57.64-28.265a8.527 8.527 0 0 0-11.127 3.41A284.62 284.62 0 0 1 58.845 252.305a366.647 366.647 0 0 0 62.67 50.649 12.236 12.236 0 0 0 12.961 0z"/>
</svg>
