<svg xmlns="http://www.w3.org/2000/svg" viewBox="0 0 255.816 255.768">
  <path fill="#080738" d="M120.963 96.662 78.14 139.485c-2.144-3.954-3.954-8.042-5.495-12.197-1.943-5.294-3.418-10.655-4.356-16.15l42.903-42.919a91.499 91.499 0 0 1 16.175 4.317c-4.624 7.238-6.873 15.816-6.404 24.126zm38.132 38.132a40.328 40.328 0 0 0 24.063-6.342c2.046 5.28 3.563 10.577 4.412 16.1l-42.883 42.916a89.851 89.851 0 0 1-16.15-4.356 94.83 94.83 0 0 1-12.201-5.55c27.551-27.985 41.804-42.241 42.76-42.768zm26.673 50.932c-7.718 2.572-15.611 3.683-23.456 3.15 17.704-17.954 26.595-26.844 26.672-26.673.225 7.91 4.501 20.95-3.216 23.523zM70.03 69.99c7.151-2.38 15.588-3.533 23.608-3.247l-26.824 26.77c-.458-7.896.408-15.904 3.216-23.523zm73.856 60.915-39.208 39.273a91.553 91.553 0 0 1-10.254-8.846 105.308 105.308 0 0 1-8.846-10.253l39.204-39.205a40.04 40.04 0 0 0 7.908 11.192c3.35 3.35 7.175 5.895 11.196 7.839z"/>
  <path fill="#0037ff" d="M94.492 27.644c36.859-36.859 96.704-36.859 133.63 0 36.925 36.926 36.925 96.704 0 133.63-12.197 12.196-26.874 20.305-42.354 24.46a93.429 93.429 0 0 0 3.216-23.522l-26.672 26.672c-5.897.067-11.795-.402-17.625-1.475l42.823-42.823a89.85 89.85 0 0 0-4.356-16.15 40.081 40.081 0 0 0 6.769-5.429c15.748-15.815 15.748-41.415 0-57.164-15.816-15.749-41.416-15.749-57.165 0-2.077 2.144-3.887 4.356-5.428 6.769-5.294-1.944-10.656-3.418-16.15-4.357L68.355 111.08c-1.072-5.83-1.541-11.728-1.474-17.626l26.672-26.672a93.429 93.429 0 0 0-23.523 3.217C74.186 54.45 82.295 39.84 94.492 27.644zm30.291 84.239-12.934 12.934-26.27 26.27a90.051 90.051 0 0 1-7.439-11.66l18.497-18.497 24.26-24.26c.334 5.227 1.608 10.388 3.886 15.213zm34.312 22.92-24.26 24.259-18.496 18.496a90.051 90.051 0 0 1-11.66-7.439l26.27-26.27 12.934-12.934c4.825 2.346 9.985 3.619 15.212 3.887z"/>
  <path fill="#0037ff" d="M70.031 70a93.327 93.327 0 0 0-3.216 23.455L0 160.27c.268-23.857 9.45-47.581 27.677-65.81C39.874 82.265 54.551 74.156 70.031 70zm25.4 185.768 66.879-66.884c7.908-.067 15.75-1.07 23.458-3.148-4.155 15.548-12.264 30.157-24.461 42.354-18.228 18.228-42.019 27.41-65.877 27.678zM65.875 132.727c-8.444 8.444-12.33 19.702-11.794 30.76l-42.756 42.756c-4.825-8.913-8.11-18.496-9.852-28.28l66.815-66.815c.938 5.495 2.413 10.856 4.356 16.15a40.081 40.081 0 0 0-6.769 5.429zm62.593 50.396c5.294 1.943 10.723 3.417 16.15 4.356l-66.814 66.814c-9.784-1.742-19.367-5.026-28.28-9.851l42.756-42.756a40.303 40.303 0 0 0 36.188-18.563zm-62.593 6.768c3.351 3.284 7.171 5.964 11.192 7.908l-39.204 39.204a91.554 91.554 0 0 1-10.254-8.846 105.307 105.307 0 0 1-8.846-10.253l39.205-39.205a40.04 40.04 0 0 0 7.907 11.192z"/>
</svg>
