<svg viewBox="0 0 255.77378 256" version="1.1" xmlns="http://www.w3.org/2000/svg" xmlns:xlink="http://www.w3.org/1999/xlink">
 <defs id="defs10">
  <style id="style2">
   .cls-1,
   .cls-2 {
    fill: #2e2e2e;
   }
   .cls-1 {
    fill-rule: evenodd;
   }
   .cls-3 {
    fill: url(#linear-gradient);
   }
   .cls-4 {
    fill: url(#linear-gradient-2);
   }
  </style>
  <linearGradient gradientUnits="userSpaceOnUse" y2="47.009998" y1="4.9499998" x2="8.1300001" x1="47.919998" id="linear-gradient">
   <stop offset="0" stop-color="#ac5ca0"/>
   <stop offset="1" stop-color="#2e2e2e"/>
  </linearGradient>
  <linearGradient gradientTransform="matrix(5.7105999,0,0,5.7105999,0.02301943,0.20779835)" xlink:href="#linear-gradient" y2="35.77" y1="-6.29" x2="-3.75" x1="36.040001" id="linear-gradient-2"/>
  <linearGradient gradientTransform="matrix(5.7105999,0,0,5.7105999,0.02301943,0.20779835)" y2="47.009998" x2="8.1300001" y1="4.9499998" x1="47.919998" gradientUnits="userSpaceOnUse" id="linearGradient865" xlink:href="#linear-gradient"/>
 </defs>
 <path d="M 235.64237,59.198295 A 127.91744,127.91744 0 0 1 100.12983,252.95895 c -17.817066,-5.7106 -26.154542,-26.26876 -25.697694,-43.62898 0.57106,-25.29796 22.385552,-43.57188 44.599784,-51.3954 26.38297,-8.68011 54.70755,-16.161 75.95098,-35.1773 a 473.97979,473.97979 0 0 1 -49.11116,13.64834 c -27.69641,6.62429 -58.93339,5.7106 -81.890002,24.784 -21.700279,17.1318 -21.871597,51.3954 -6.624296,72.63883 -1.770286,1.02791 -12.905955,-8.39458 -16.332315,-13.59123 -16.617846,-19.18761 -21.643174,-49.85353 -5.7106,-71.03986 18.388131,-23.69899 49.967749,-29.5238 77.949683,-33.40701 37.86128,-4.56848 79.20603,-9.5367 108.15877,-36.890475 a 64.758203,64.758203 0 0 0 14.21939,-19.70157 z" class="cls-3" style="fill:url(#linearGradient865)"/>
 <path d="M 0.02301943,128.12524 A 127.91744,127.91744 0 0 1 111.60814,1.2357063 a 107.35928,107.35928 0 0 1 51.3954,4.6826919 c 13.24859,5.7105998 18.44524,24.7268978 6.16745,34.2635988 -23.12793,20.786584 -56.47784,19.13051 -83.37476,32.036466 -9.822232,4.56848 0.399742,2.28424 5.310858,1.541862 28.553002,-4.968222 58.076802,-4.111632 85.944532,-12.677532 13.19148,-4.054526 29.29537,-13.819652 27.18245,-29.752225 -5.7106,-12.84885 3.94031,-2.683982 9.4796,1.770286 12.56332,11.878047 2.05581,30.266179 -11.4212,36.148097 C 159.12033,95.003756 105.84043,84.838889 60.041424,102.9986 32.858969,112.47819 9.8452513,136.12008 6.7615273,165.8152 3.2209554,163.58806 -0.31961656,139.2038 0.02301943,128.06813 Z" class="cls-4" style="fill:url(#linear-gradient-2)"/>
</svg>
