<svg xmlns="http://www.w3.org/2000/svg" viewBox="0 0 512 92.976">
  <path fill="#221f20" d="M271.927 16.318V1.448H209.88v89.255h62.047V75.828h-47.17V53.517h44.898V38.64h-44.898V16.318zm46.038 74.385V1.454h14.882v74.373h42.91v14.876zm69.916 0 57.791-89.249h14.882v74.373h42.922v14.876zM287.54 1.454h14.876v89.25h-14.876zM0 46.485C0 20.806 20.812.006 46.491 0 72.17.006 92.97 20.806 92.976 46.485 92.97 72.157 72.17 92.97 46.491 92.976 20.812 92.97 0 72.157 0 46.486zm24.13-22.36c-5.722 5.76-9.248 13.61-9.26 22.36.012 8.757 3.538 16.601 9.26 22.348 5.748 5.735 13.604 9.267 22.361 9.267 8.757 0 16.601-3.532 22.343-9.267 5.741-5.747 9.266-13.59 9.266-22.348 0-8.75-3.525-16.6-9.266-22.36-5.742-5.717-13.586-9.243-22.343-9.249-8.757.006-16.613 3.532-22.361 9.248zm152.259 28.284c10.734-3.223 18.565-13.144 18.565-24.93 0-14.372-11.653-26.024-26.037-26.024H124.08v89.248h14.87v-37.18h20.724l22.436 37.18h17.357zM138.95 38.64V16.318h29.966c6.163.006 11.155 5.005 11.168 11.16-.013 6.158-5.005 11.15-11.168 11.163zM512 1.454h-18.08l-22.897 33.138-22.895-33.138h-18.081l33.517 48.531v40.718h14.882V50.016z"/>
  <path fill="#d31242" d="M113.53 10.948c0 6.05-4.897 10.954-10.941 10.954-6.056 0-10.953-4.904-10.953-10.954C91.636 4.904 96.533 0 102.589 0c6.044 0 10.942 4.904 10.942 10.948"/>
</svg>
