<svg xmlns="http://www.w3.org/2000/svg" viewBox="0 0 255.872 268.88">
  <g fill="#0099b0">
    <path d="m226.306 85.575-24.421-4.542c-.594-.11-1.245-.67-1.446-1.243l-7.486-17.464c-.279-.54-.225-1.386.12-1.888l14.228-20.74c.34-.498.273-1.257-.156-1.687L189.373 20.24c-.43-.429-1.187-.499-1.686-.156l-21.102 14.482c-.5.343-1.355.404-1.897.136l-16.93-6.93c-.575-.19-1.135-.833-1.248-1.429l-4.702-25.259C141.698.487 141.111 0 140.505 0H115.37c-.605 0-1.192.487-1.302 1.083l-4.7 25.26c-.113.595-.672 1.238-1.248 1.428l-16.931 6.93c-.544.268-1.4.207-1.897-.136L68.19 20.083c-.5-.343-1.26-.273-1.688.156L48.73 38.011c-.428.43-.5 1.189-.156 1.688l14.23 20.739c.342.502.395 1.348.117 1.888L55.434 79.79c-.199.573-.848 1.132-1.445 1.243l-24.42 4.542c-.597.113-1.083.698-1.083 1.304l.001 25.135c0 .606.488 1.195 1.083 1.304l23.821 4.433c.596.108 1.233.674 1.415 1.252l7.437 18.577c.265.545.203 1.398-.142 1.897l-13.53 19.718c-.342.5-.272 1.26.156 1.69l17.775 17.771c.427.427 1.187.497 1.687.156l19.37-13.294c.498-.342 1.335-.368 1.856-.064l8.542 4.56c.54.277 1.172.044 1.404-.516l17.613-42.557c.233-.56 0-1.275-.517-1.591l-2.138-1.31c-.395-.24-.931-.654-1.352-1.035-7.711-4.938-12.828-13.576-12.828-23.414 0-15.352 12.447-27.796 27.797-27.796 15.35 0 27.795 12.444 27.795 27.796 0 9.838-5.115 18.476-12.828 23.414-.417.38-.955.795-1.349 1.036l-2.138 1.309c-.514.316-.748 1.03-.517 1.59l17.612 42.56c.232.56.862.791 1.404.516l8.542-4.56c.523-.305 1.358-.28 1.857.063l19.37 13.295c.5.34 1.26.27 1.686-.156l17.775-17.772c.43-.43.5-1.19.156-1.69L193.77 139.48c-.342-.5-.405-1.352-.14-1.897l7.437-18.577c.183-.578.816-1.144 1.413-1.253l23.821-4.433c.594-.108 1.083-.698 1.083-1.304l.003-25.134c.001-.608-.486-1.193-1.08-1.306M67.738 268.563h5.367V250.36c0-6.575-4.525-8.786-11.102-8.786-3.999 0-6.945 1.05-8.996 3.894l4.208 3.209c.947-1.526 2.263-2.055 5.051-2.055 3.84 0 5.472.898 5.472 3.422v2.788h-7.42c-5.734 0-8.68 3.632-8.68 7.893 0 4.63 3.472 8.156 9.418 8.156 3.63 0 5.472-.841 6.576-2.685h.106zm0-9.366c0 4.158-1.526 4.63-5.998 4.63-3.63 0-5.052-1.579-5.052-3.366 0-1.948 1.474-3.212 4.632-3.212h6.418zM79 268.563h5.366v-16.048c0-3.891 2.579-5.577 5.21-5.577 1.368 0 2.262.368 3.525 1.317l3.892-4.63c-1.631-1.263-3.418-2.052-5.577-2.052-2.84 0-5.262 1.054-6.945 3.157h-.105v-2.84H79zM113.045 268.563h5.365v-37.462h-5.365v13.63c-2-1.895-4.157-3.158-6.893-3.158-3.263 0-5.63 1.471-7.155 3.474-1.474 1.89-1.894 3.626-1.894 10.155 0 6.575.42 8.31 1.894 10.204 1.526 2 3.892 3.474 7.155 3.474 2.736 0 5.21-1.266 6.893-3.105zm-5.262-21.625c4.999 0 5.262 4.422 5.262 8.264 0 3.894-.263 8.31-5.262 8.31-5.051 0-5.314-4.155-5.314-8.31 0-4.106.263-8.264 5.314-8.264zM145.798 268.563h4.738l8.521-26.673h-5.684l-5.1 18.676h-.108l-6.05-18.676h-3.893l-6.05 18.676h-.105l-5.104-18.676h-5.68l8.522 26.673h4.734l5.577-18.678h.106zM175.574 268.563h5.367V250.36c0-6.575-4.526-8.786-11.102-8.786-3.997 0-6.946 1.05-8.998 3.894l4.21 3.209c.947-1.526 2.26-2.055 5.048-2.055 3.842 0 5.473.898 5.473 3.422v2.788h-7.419c-5.732 0-8.681 3.632-8.681 7.893 0 4.63 3.473 8.156 9.418 8.156 3.63 0 5.473-.841 6.578-2.685h.104v2.368h.001zm0-9.366c0 4.158-1.526 4.63-5.997 4.63-3.63 0-5.051-1.579-5.051-3.366 0-1.948 1.473-3.212 4.63-3.212h6.418zM186.837 268.563h5.365v-16.048c0-3.891 2.576-5.577 5.208-5.577 1.37 0 2.263.368 3.525 1.317l3.894-4.63c-1.631-1.263-3.421-2.052-5.577-2.052-2.84 0-5.26 1.054-6.943 3.157h-.107v-2.84h-5.365zM226.918 257.252v-4.423c0-6.891-5.101-11.257-10.993-11.257-5.157 0-10.996 3.366-10.996 13.73 0 10.944 6.365 13.576 11.838 13.576 3.577 0 6.996-1.263 9.627-4.314l-3.894-3.316c-1.58 1.634-3.79 2.58-5.838 2.58-3.684 0-6.366-2.211-6.366-6.576zm-16.622-4.421c.104-4.051 2.472-6.21 5.629-6.21 3.157 0 5.473 2.159 5.629 6.21zM0 213.068c0 5.786.84 7.997 2.892 10.26 1.474 1.63 3.948 3.418 8.104 3.418 4.155 0 6.629-1.787 8.103-3.419 2.051-2.262 2.893-4.474 2.893-10.259 0-5.736-.842-7.945-2.893-10.207-1.474-1.631-3.948-3.421-8.103-3.421-4.156 0-6.63 1.79-8.104 3.42C.841 205.126 0 207.333 0 213.069m16.625.052c0 3.842-.315 4.892-1.315 6.314-.79 1.105-2.473 1.947-4.314 1.947-1.842 0-3.525-.84-4.314-1.947-1-1.422-1.316-2.472-1.316-6.366 0-3.842.316-4.895 1.316-6.314.789-1.105 2.472-1.947 4.314-1.947 1.84 0 3.524.84 4.314 1.947 1 1.42 1.315 2.472 1.315 6.366M73.49 215.12v-4.42c0-6.894-5.103-11.26-10.995-11.26-5.158 0-10.996 3.369-10.996 13.732 0 10.941 6.366 13.574 11.837 13.574 3.579 0 6.997-1.263 9.628-4.314l-3.894-3.313c-1.578 1.631-3.787 2.579-5.838 2.579-3.684 0-6.367-2.21-6.367-6.578zm-16.625-4.418c.105-4.055 2.473-6.21 5.63-6.21s5.471 2.155 5.629 6.21zM78.07 226.43h5.366v-15.886c0-3.632 2.262-5.736 5.314-5.736 2.999 0 5.261 2.104 5.261 5.736v15.885h5.366v-17.728c0-6.053-4.734-9.261-8.89-9.261-2.841 0-5.263 1.053-6.944 3.156h-.107v-2.84H78.07zM113.887 221.96c3.42 3.208 7.419 4.787 11.733 4.787 6.208 0 11.048-2.998 11.048-8.207 0-4.26-2.207-7.629-7.734-7.997l-4.42-.314c-2.682-.212-3.523-1.37-3.523-2.527 0-1.839 1.157-3.209 4.575-3.209 2.896 0 5.054 1.002 7.158 2.472l3.313-3.89c-2.631-2.21-5.787-3.633-10.472-3.633-5.629 0-9.943 2.789-9.943 8.208 0 4.576 3.262 7.208 7.68 7.577l4.736.42c1.844.156 3.263.737 3.263 2.631 0 2.263-2.212 3.418-5.262 3.418-3.577 0-6.103-1.154-8.417-3.418zM139.72 213.068c0 5.786.843 7.997 2.895 10.26 1.474 1.63 3.946 3.418 8.1 3.418 4.159 0 6.63-1.787 8.105-3.419 2.051-2.262 2.892-4.474 2.892-10.259 0-5.736-.84-7.945-2.892-10.207-1.474-1.631-3.946-3.421-8.104-3.421-4.155 0-6.627 1.79-8.101 3.42-2.052 2.265-2.895 4.472-2.895 10.208m16.625.052c0 3.842-.314 4.892-1.315 6.314-.789 1.105-2.472 1.947-4.314 1.947-1.84 0-3.526-.84-4.311-1.947-1.002-1.422-1.318-2.472-1.318-6.366 0-3.842.316-4.895 1.318-6.314.785-1.105 2.472-1.947 4.31-1.947 1.843 0 3.526.84 4.315 1.947 1.001 1.42 1.315 2.472 1.315 6.366M166.293 217.488c0 6.049 4.736 9.258 8.945 9.258 2.785 0 5.208-1.053 6.892-3.157h.104v2.843h5.364v-26.676h-5.364v15.888c0 3.63-2.263 5.736-5.264 5.736-3.05 0-5.312-2.107-5.312-5.736v-15.888h-5.365zM193.484 226.43h5.367v-16.046c0-3.894 2.576-5.577 5.209-5.577 1.37 0 2.262.368 3.525 1.315l3.894-4.63c-1.635-1.264-3.419-2.052-5.577-2.052-2.84 0-5.264 1.053-6.947 3.156h-.104v-2.84h-5.367zM228.569 218.593c-1.315 1.631-3.21 2.788-5.417 2.788-4.366 0-6.946-2.475-6.946-8.264 0-5.838 2.579-8.31 6.946-8.31 2.208 0 4.103 1.157 5.417 2.788l3.945-3.525c-2.313-2.684-5.525-4.63-9.574-4.63-6.155 0-12.1 3.893-12.1 13.677 0 9.738 5.945 13.629 12.1 13.629 4.05 0 7.263-1.948 9.574-4.628zM255.872 215.12v-4.42c0-6.894-5.107-11.26-10.996-11.26-5.16 0-10.996 3.369-10.996 13.732 0 10.941 6.365 13.574 11.838 13.574 3.577 0 6.999-1.263 9.627-4.314l-3.894-3.313c-1.58 1.631-3.787 2.579-5.838 2.579-3.685 0-6.366-2.21-6.366-6.578zm-16.625-4.418c.104-4.055 2.472-6.21 5.629-6.21 3.157 0 5.47 2.155 5.629 6.21zM37.2 221.381c5.051 0 5.314-4.158 5.314-8.26 0-4.159-.263-8.314-5.314-8.314-4.997 0-5.262 4.42-5.262 8.313 0 3.842.263 8.261 5.262 8.261zm-10.648 47.182v-68.806h5.386v2.789c1.685-1.842 4.157-3.105 6.893-3.105 3.261 0 5.63 1.474 7.156 3.473 1.473 1.894 1.893 3.63 1.893 10.208 0 6.523-.42 8.26-1.893 10.152-1.525 2-3.895 3.473-7.156 3.473-2.736 0-4.893-1.262-6.893-3.157l-.019 21.14c1.789-2.103 4.209-3.157 7.049-3.157 4.157 0 8.891 3.21 8.891 9.258v17.732h-5.366v-15.888c0-3.632-2.262-5.736-5.262-5.736-3.051 0-5.312 2.104-5.312 5.736v15.888h-5.367z"/>
  </g>
</svg>
