<svg xmlns="http://www.w3.org/2000/svg" viewBox="0 0 254.674 254.679">
  <path fill="#a596ff" d="M254.543 0v63.736l-63.605 63.605V63.472L254.543 0"/>
  <path d="M127.335 0v63.736l63.605 63.605V63.472L127.335 0"/>
  <path fill="#a596ff" d="M254.674 254.546h-63.736l-63.605-63.605H191.2l63.474 63.605"/>
  <path d="M254.674 127.338h-63.736l-63.605 63.605H191.2l63.474-63.605"/>
  <path fill="#a596ff" d="M.13 254.679V190.94l63.605-63.605v63.87L.13 254.678"/>
  <path d="M127.338 254.679V190.94l-63.605-63.605v63.87l63.605 63.473"/>
  <path fill="#a596ff" d="M0 .128h63.736l63.605 63.605H63.474L0 .128"/>
  <path d="M0 127.336h63.736l63.605-63.605H63.474L0 127.336"/>
</svg>
