<svg xmlns="http://www.w3.org/2000/svg" viewBox="0 0 256 256">
  <path fill="#fff" d="M253.532 128c0 69.329-56.203 125.532-125.532 125.532S2.468 197.329 2.468 128 58.671 2.468 128 2.468 253.532 58.671 253.532 128"/>
  <path fill="#ff6d38" d="M211.963 203.225h-5.093a3.762 3.762 0 0 1-3.763-3.762v-3.11a2.657 2.657 0 0 0-2.649-2.649h-55.167a3.304 3.304 0 0 1-3.304-3.304v-16.521h46.923a3.931 3.931 0 0 0 3.932-3.932v-50.195s10.853.255 10.853-8.913c0-9.168-10.853-8.675-10.853-8.675V79.236a3.932 3.932 0 0 0-3.932-3.933H66.228a3.932 3.932 0 0 0-3.932 3.933v22.287s-9.991 2.382-9.991 9.316c0 6.935 9.991 8.471 9.991 8.471v50.637a3.931 3.931 0 0 0 3.932 3.932h47.667v16.573a2.781 2.781 0 0 1-2.782 2.782H56.707a4.637 4.637 0 0 0-4.637 4.637l-.353 4.884-6.817.588c-1.483 0-2.443 1.843-2.563 3.321l-1.022 12.605s28.738 34.498 82.689 34.498c53.95 0 89.329-32.911 89.329-32.911v-16.261a1.37 1.37 0 0 0-1.37-1.37"/>
  <path fill="#273335" d="M128 0C57.308 0 0 57.308 0 128c0 70.692 57.308 128 128 128 70.693 0 128-57.308 128-128C256 57.308 198.693 0 128 0zM49.836 223.367a124.3 124.3 0 0 1-5.289-4.609v-11.812c0-.755.615-1.37 1.371-1.37h3.918zM128 251.298c-16.647 0-32.794-3.259-47.992-9.687a122.71 122.71 0 0 1-25.47-14.567v-21.468h54.666c3.883 0 7.042-3.16 7.042-7.042v-2.244h2.358c3.7 0 6.711-3.01 6.711-6.711v-12.8h4.566v21.931a6.873 6.873 0 0 0 6.865 6.866h63.893v22.067a122.724 122.724 0 0 1-24.647 13.968c-15.198 6.428-31.345 9.687-47.992 9.687zm-73.462-50.424v-2.165a2.422 2.422 0 0 1 2.419-2.419h54.588v2.244c0 1.29-1.05 2.34-2.341 2.34zm11.361-96.813c-.529-1.394-1.198-2.433-1.958-3.155v-21.5a1.95 1.95 0 0 1 1.948-1.948h123.634a1.95 1.95 0 0 1 1.948 1.948v22.197c-.503.648-.954 1.461-1.332 2.458-.976 2.571-1.264 5.907-.919 8.717.317 2.58.984 4.893 2.251 6.819v50.533a1.95 1.95 0 0 1-1.948 1.947H65.889a1.95 1.95 0 0 1-1.948-1.947v-49.673c1.683-2.08 2.512-4.702 2.877-7.679.345-2.81.057-6.146-.919-8.717zm58.986-31.304v-4.186c0-1.143.93-2.073 2.074-2.073h2.177v6.259zm86.92 145.673a124.764 124.764 0 0 1-6.464 5.6v-18.454h4.409c1.133 0 2.055.922 2.055 2.055zm-11.166-17.556h-63.893a2.166 2.166 0 0 1-2.164-2.164v-21.931h4.232v13.231a6.522 6.522 0 0 0 6.515 6.515h53.769c.85 0 1.541.691 1.541 1.541zm-80.026-24.095v12.8c0 1.108-.901 2.01-2.009 2.01h-2.358v-14.81zm95.894 37.053v-6.201a6.764 6.764 0 0 0-6.757-6.757h-4.409v-2.808a6.25 6.25 0 0 0-6.243-6.242h-53.769c-1 0-1.814-.814-1.814-1.814v-13.231h46.008a6.657 6.657 0 0 0 6.65-6.649v-47.983c.031-.011.063-.02.094-.032 4.999-1.794 7.311-3.988 8.966-7.266a9.857 9.857 0 0 0 .961-2.945l1.419-1.065c1.706-1.279 2.312-3.644 2.312-5.28V91.233a3.8 3.8 0 1 0-6.23-2.922 3.79 3.79 0 0 0 1.528 3.041v14.207c0 .188-.022.375-.057.552-1.886-3.654-5.835-6.424-8.993-6.604V79.406a6.657 6.657 0 0 0-6.65-6.649h-55.686v-6.259h5.888a5.471 5.471 0 0 0 5.465-5.465V58.35a6.346 6.346 0 0 0-6.339-6.339h-5.014V39.606a3.907 3.907 0 0 0 1.568-3.13 3.918 3.918 0 1 0-7.836 0c0 1.281.617 2.414 1.567 3.129v12.406h-5.49a2.113 2.113 0 0 1-2.111-2.111v-1.45a3.907 3.907 0 0 0 1.607-3.158 3.918 3.918 0 1 0-7.836 0c0 1.263.6 2.383 1.528 3.099V49.9c0 3.756 3.056 6.813 6.812 6.813h5.49v5.083h-2.177a6.782 6.782 0 0 0-6.775 6.775v4.186H65.889a6.657 6.657 0 0 0-6.649 6.649v20.168c-3.038.478-6.605 3.121-8.368 6.537a2.943 2.943 0 0 1-.057-.552V91.352a3.79 3.79 0 0 0 1.528-3.041 3.8 3.8 0 1 0-7.601 0c0 1.175.534 2.225 1.372 2.922v14.326c0 1.636.605 4.001 2.311 5.28l1.419 1.065c.155.999.476 1.984.961 2.945 1.595 3.158 3.806 5.308 8.435 7.066v48.215a6.657 6.657 0 0 0 6.649 6.649h45.656v14.81H56.957c-3.926 0-7.121 3.194-7.121 7.12v2.165h-3.918a6.079 6.079 0 0 0-6.072 6.072v7.247c-10.861-11.102-19.427-23.944-25.457-38.201C7.961 160.794 4.702 144.647 4.702 128s3.259-32.794 9.687-47.992c6.21-14.682 15.101-27.868 26.426-39.193C52.14 29.49 65.326 20.599 80.008 14.389 95.206 7.961 111.353 4.702 128 4.702s32.794 3.259 47.992 9.687c14.682 6.21 27.868 15.101 39.193 26.426 11.325 11.325 20.216 24.511 26.426 39.193 6.428 15.198 9.687 31.345 9.687 47.992s-3.259 32.794-9.687 47.992c-5.965 14.103-14.41 26.821-25.104 37.84zm-22.704-103.744c.122-3.053 1.193-5.232 1.717-5.803.129-.027.255-.065.379-.113l.043-.002a.99.99 0 0 1 .231.035c1.349.346 5.246 3.264 5.21 6.36-.039 3.409-1.692 4.377-4.733 6.105-.15.085-.314.124-.477.128a.995.995 0 0 1-.881-.46c-1.387-2.231-1.549-4.746-1.489-6.25zm-59.966-48.292v-5.083h5.014c.903 0 1.637.734 1.637 1.637v2.683a.764.764 0 0 1-.763.763zm-73.091 54.542c-.284.456-.89.597-1.358.332l-.148-.085c-2.944-1.674-4.547-2.669-4.585-6.02-.031-2.703 2.933-5.267 4.585-6.106.364-.185.666-.289.856-.289a.59.59 0 0 1 .043.002c.124.048.251.086.379.113.524.571 1.596 2.75 1.717 5.803.06 1.504-.102 4.019-1.489 6.25z"/>
  <path fill="#273335" d="M172.114 126.825H83.651c-5.822 0-10.542-4.72-10.542-10.542v-11.71c0-5.822 4.72-10.542 10.542-10.542h88.463c5.822 0 10.542 4.72 10.542 10.542v11.71c0 5.822-4.72 10.542-10.542 10.542M148.099 155.504H110.77a5.578 5.578 0 0 1-5.573-5.572v-3.713a2.35 2.35 0 1 1 4.702 0v3.713c0 .48.391.871.871.871h37.329a2.35 2.35 0 1 1 0 4.701"/>
  <path fill="#fff" d="M177.008 104.834a2.897 2.897 0 1 1-5.794 0 2.897 2.897 0 0 1 5.794 0zm-23.178 0a2.897 2.897 0 1 1-5.794 0 2.897 2.897 0 0 1 5.794 0zm-11.59 0a2.897 2.897 0 1 1-5.794 0 2.897 2.897 0 0 1 5.794 0zm-23.002 0a2.897 2.897 0 1 1-5.794 0 2.897 2.897 0 0 1 5.794 0zm-11.589 0a2.897 2.897 0 1 1-5.794 0 2.897 2.897 0 0 1 5.794 0zm-23.178 0a2.897 2.897 0 1 1-5.794 0 2.897 2.897 0 0 1 5.794 0zm23.178 11.589a2.897 2.897 0 1 1-5.794 0 2.897 2.897 0 0 1 5.794 0zm34.679 0a2.897 2.897 0 1 1-5.794 0 2.897 2.897 0 0 1 5.794 0zm34.592 0a2.897 2.897 0 1 1-5.794 0 2.897 2.897 0 0 1 5.794 0zm-80.86 0a2.897 2.897 0 1 1-5.794 0 2.897 2.897 0 0 1 5.794 0z"/>
  <path fill="#273335" d="M178.938 217.068c-3.118 0-5.766 2.023-6.718 4.824h-3.918v-4.911H163.6v4.911h-5.993v-4.911h-4.701v4.911h-3.977c-.951-2.801-3.6-4.824-6.718-4.824-3.914 0-7.098 3.184-7.098 7.099a7.106 7.106 0 0 0 7.098 7.098c3.061 0 5.668-1.951 6.662-4.672h4.033v4.493h4.701v-4.493h5.993v4.493h4.702v-4.493h3.974c.995 2.721 3.601 4.672 6.662 4.672a7.106 7.106 0 0 0 7.098-7.098c0-3.915-3.184-7.099-7.098-7.099zm-36.727 9.495a2.4 2.4 0 0 1-2.397-2.396 2.4 2.4 0 0 1 2.397-2.397 2.4 2.4 0 0 1 2.397 2.397 2.4 2.4 0 0 1-2.397 2.396zm36.727 0a2.4 2.4 0 0 1-2.397-2.396 2.4 2.4 0 0 1 2.397-2.397 2.4 2.4 0 0 1 2.397 2.397 2.4 2.4 0 0 1-2.397 2.396z"/>
</svg>
