<svg xmlns="http://www.w3.org/2000/svg" viewBox="0 0 746.22 220.43">
  <defs>
    <style>
      .cls-1{fill:#130754}
    </style>
  </defs>
  <path d="M254.66 143.82c-10.27 0-20.73-4.25-27.28-12.58v45h-20.57V65.15h18.6l.71 12.22c6.38-9.39 17.71-14.35 28.52-14.35 20.73 0 36 17.37 36 40.4 0 23.03-15.25 40.41-35.98 40.4zm-6.37-65.55c-12.05 0-21.79 9.39-21.79 25.16s9.74 25.18 21.79 25.18c12.05 0 21.79-9.39 21.79-25.16s-9.74-25.18-21.79-25.18zM368.17 141.71l-.71-12.22c-6.38 9.39-17.72 14.35-28.53 14.34-20.73 0-36-17.36-36-40.39s15.24-40.4 36-40.39c10.81 0 22.15 5 28.53 14.35l.71-12.22h18.64v76.53zm-22.85-63.43c-12.05 0-21.79 9.39-21.8 25.16-.01 15.77 9.74 25.17 21.79 25.17 12.05 0 21.8-9.39 21.8-25.16s-9.74-25.17-21.79-25.17zM458.68 141.72V99.38c0-14.88-5.13-19.84-14.52-19.84-9.75 0-20.38 8.85-20.38 19.48v42.7h-20.56V65.18h18.79l.89 14.18c5.14-9.75 16.65-16.3 28.35-16.3 20.37 0 28 14.18 28 33.13v45.54zM554.58 141.74l-.71-12.23c-6.38 9.39-17.72 14.35-28.52 14.35-20.73 0-36-17.37-36-40.4 0-23.03 15.24-40.39 36-40.39 10.27 0 20.72 4.26 27.28 12.58V35.44h20.56v106.3zm-22.85-63.43c-12 0-21.79 9.39-21.79 25.15 0 15.76 9.74 25.15 21.79 25.15 12.05 0 21.79-9.38 21.79-25.15 0-15.77-9.71-25.15-21.79-25.15zM650.41 141.75l-.71-12.22c-6.38 9.39-17.72 14.34-28.53 14.34-20.73 0-36-17.36-36-40.4s15.24-40.39 36-40.39c10.81 0 22.15 5 28.53 14.36l.71-12.23h18.6v76.53zm-22.85-63.43c-12 0-21.79 9.39-21.8 25.16-.01 15.77 9.75 25.13 21.79 25.13s21.8-9.39 21.8-25.16-9.74-25.13-21.79-25.13zM714.54 144.24a60.16 60.16 0 0 1-30.65-8.69l3.37-14.17c6.2 3.72 15.59 8.51 26.93 8.51 8.15 0 13.82-2.48 13.82-8.86 0-5.49-5.85-7.44-16.3-9.92-18.78-4.08-25.51-14-25.51-24.81 0-12.05 9.39-23.38 30.12-23.38 12.58 0 23.57 5.49 26 6.91l-3.37 13.47a44.59 44.59 0 0 0-22.14-6.38c-8.32 0-12.4 2.83-12.4 7.44 0 5.13 5.32 7.44 13.46 9.39 20.2 4.25 28.35 13.64 28.35 23.92.04 16.47-12.01 26.57-31.68 26.57zM38.69 13.03h24.09v50.02H38.69zM38.69 115.78h24.09v50.02H38.69z" class="cls-1"/>
  <path d="M38.69 77.65h24.09v23.6H38.69z" style="fill:#ffca00"/>
  <path d="M0 54.16h24.09v166.27H0zM76.59 157.05h24.09v50.02H76.59zM76.59 54.22h24.09v50.02H76.59z" class="cls-1"/>
  <path d="M76.59 118.84h24.09v23.6H76.59z" style="fill:#e70488"/>
  <path d="M114.48 0h24.09v166.27h-24.09z" class="cls-1"/>
</svg>
