<svg xmlns="http://www.w3.org/2000/svg" viewBox="0 0 256 256">
  <path fill="#169cee" d="M149.333 159.147H86.4c-9.173 0-14.507 5.653-14.507 13.76 0 7.253 4.907 12.373 11.947 12.373 8.213 0 12.907-5.653 13.333-13.76h18.24c-.96 19.84-13.333 30.4-31.786 30.4-17.28 0-30.187-11.733-30.187-29.227 0-18.24 13.547-30.933 33.92-30.933h62.293c21.014 0 37.014-15.467 37.014-36.267 0-21.013-14.294-35.84-34.667-35.84-20.16 0-36.48 14.72-36.48 41.92v17.814H97.067v-17.814c0-36.053 23.146-59.413 55.253-59.413 30.613 0 52.907 21.973 52.907 53.12.213 31.147-23.68 53.867-55.894 53.867zM128 256c71.573 0 128-56.64 128-128S199.573 0 128 0C56.427 0 0 56.853 0 128c0 71.36 56.427 128 128 128z"/>
</svg>
