<svg xmlns="http://www.w3.org/2000/svg" viewBox="0 0 512 89.976">
  <path fill="#d40000" d="m476.27 5.665.118.002.328.015a7.745 7.745 0 0 1 4.478 1.819l.25.221.239.23 28.176 28.305c2.823 2.835 2.848 7.264.113 10.18l-.19.196-.196.188-29.213 27.076c-2.955 2.74-7.508 2.823-10.492.233l-.206-.185-.197-.192-16.323-16.387a.5.5 0 0 1 .075-.767c3.446-2.314 5.953-5.768 7.04-9.733l.103-.398.098-.418a.5.5 0 0 1 .401-.378l.086-.008h12.177a.5.5 0 0 1 .491.41l.008.09v4.728a2.798 2.798 0 0 0 2.462 2.785l.169.014.173.005h5.992a2.798 2.798 0 0 0 2.785-2.462l.014-.168.005-.174v-4.728a.5.5 0 0 1 .41-.492l.09-.008h2.137a2.818 2.818 0 0 0 2.818-2.494l.014-.171.005-.171v-3.11c0-1.468-1.088-2.685-2.496-2.849l-.17-.014-.17-.005H460.31a.5.5 0 0 1-.468-.327c-1.438-3.902-4.288-7.168-7.98-9.186l-.373-.198-.374-.188a.5.5 0 0 1-.177-.744l.062-.068 19.788-18.331a7.937 7.937 0 0 1 4.77-2.107l.334-.024.26-.011zm-33.059 28.29c4.785 0 8.668 3.805 8.668 8.506 0 4.7-3.883 8.506-8.668 8.506-4.785 0-8.668-3.806-8.668-8.506s3.883-8.507 8.668-8.507z"/>
  <path d="M26.543 18.904c7.994 0 14.23 2.353 18.711 7.06 4.48 4.705 6.72 11.264 6.72 19.677 0 3.449-.467 6.624-1.402 9.524a24.947 24.947 0 0 1-4.254 7.881c-2.257 2.869-4.964 4.932-8.123 6.189-3.159 1.225-7.349 1.837-12.57 1.837H13.779v18.904H0V18.904zm299.131-.918c8.38 0 15.069 2.465 20.065 7.397 5.028 4.9 7.542 11.442 7.542 19.63 0 8.186-2.498 14.73-7.494 19.629-4.964 4.867-11.668 7.3-20.113 7.3s-15.181-2.45-20.21-7.349c-5.028-4.899-7.542-11.426-7.542-19.58 0-8.188 2.514-14.73 7.543-19.63 5.028-4.932 11.764-7.397 20.21-7.397zm-235.94.918c7.124 0 12.49 1.644 16.1 4.932 3.61 3.255 5.415 8.106 5.415 14.553v32.683H74.215c-5.19 0-9.187-1.305-11.99-3.916-2.773-2.611-4.159-6.318-4.159-11.12 0-5.931 1.596-10.186 4.787-12.764 3.223-2.579 8.557-3.868 16.003-3.868h18.13v-1.306c0-3.094-.918-5.27-2.755-6.527-1.805-1.257-5.045-1.885-9.718-1.885H61.499V18.904zm79.872 0v10.879h-24.32c-3.964 0-6.542.354-7.735 1.063-1.193.677-1.789 1.902-1.789 3.675 0 1.611.516 2.804 1.547 3.577 1.064.742 2.724 1.113 4.98 1.113h12.474c5.705 0 10.056 1.337 13.054 4.012 2.998 2.643 4.496 6.48 4.496 11.507 0 4.835-1.337 8.767-4.013 11.797-2.643 3.03-6.06 4.545-10.25 4.545h-35.584V60.194h29.058c2.578 0 4.448-.403 5.608-1.209 1.193-.806 1.789-2.095 1.789-3.868 0-1.773-.596-3.062-1.789-3.868-1.193-.838-3.062-1.257-5.608-1.257H139.63c-7.059 0-11.83-1.08-14.311-3.24-2.482-2.159-3.723-5.994-3.723-11.506 0-5.608 1.499-9.734 4.496-12.377 2.998-2.643 7.64-3.965 13.925-3.965zm58.791 0v10.879h-24.319c-3.964 0-6.543.354-7.735 1.063-1.193.677-1.79 1.902-1.79 3.675 0 1.611.516 2.804 1.548 3.577 1.063.742 2.723 1.113 4.98 1.113h12.474c5.705 0 10.056 1.337 13.054 4.012 2.997 2.643 4.496 6.48 4.496 11.507 0 4.835-1.338 8.767-4.013 11.797-2.643 3.03-6.06 4.545-10.25 4.545h-35.584V60.194h29.057c2.579 0 4.448-.403 5.609-1.209 1.192-.806 1.788-2.095 1.788-3.868 0-1.773-.596-3.062-1.788-3.868-1.193-.838-3.063-1.257-5.609-1.257h-11.893c-7.06 0-11.83-1.08-14.312-3.24-2.481-2.159-3.722-5.994-3.722-11.506 0-5.608 1.498-9.734 4.496-12.377 2.998-2.643 7.639-3.965 13.924-3.965zM254.747 0v18.904h11.846c5.221 0 9.411.629 12.57 1.886 3.159 1.225 5.866 3.271 8.123 6.14a24.838 24.838 0 0 1 4.254 7.93c.935 2.868 1.402 6.027 1.402 9.475 0 8.38-2.24 14.94-6.72 19.678-4.48 4.706-10.717 7.06-18.71 7.06h-26.544V0zm121.161 0v71.072h-14.36V0zm30.073 0v18.904h14.553V29.3H405.98v21.08c0 3.868.66 6.56 1.982 8.074 1.322 1.483 3.626 2.224 6.914 2.224h5.657v10.395h-12.57c-5.094 0-8.994-1.402-11.701-4.206-2.708-2.837-4.061-6.882-4.061-12.136V29.3h-9.718V18.903h9.718V0zm-80.403 29.3c-4.126 0-7.365 1.385-9.718 4.157-2.321 2.772-3.481 6.624-3.481 11.555 0 4.964 1.16 8.832 3.48 11.604 2.321 2.772 5.56 4.158 9.719 4.158 4.125 0 7.365-1.386 9.718-4.158 2.353-2.772 3.529-6.64 3.529-11.604 0-4.963-1.176-8.815-3.53-11.555-2.32-2.772-5.56-4.158-9.717-4.158zM97.083 49.798H80.838c-3.223 0-5.447.435-6.672 1.305-1.225.87-1.837 2.385-1.837 4.545 0 1.837.484 3.126 1.45 3.868 1 .709 3.014 1.063 6.044 1.063h17.26zm-73.827-19.63h-9.477v29.735h8.413c5.576 0 9.524-1.177 11.845-3.53 2.32-2.353 3.481-6.269 3.481-11.748 0-5.287-1.063-9.01-3.19-11.169-2.128-2.192-5.819-3.288-11.072-3.288zm239.904 0h-8.413v29.735h9.477c5.253 0 8.944-1.096 11.071-3.288 2.128-2.224 3.191-5.98 3.191-11.265 0-5.447-1.176-9.331-3.53-11.652-2.32-2.353-6.252-3.53-11.796-3.53z"/>
</svg>
