<svg xmlns="http://www.w3.org/2000/svg" viewBox="0 0 255.021 300.93">
  <path fill="#27346a" d="M217.133 22.691C203.2 6.81 178.01 0 145.788 0h-93.52A13.393 13.393 0 0 0 39.04 11.296L.1 258.26c-.774 4.87 2.997 9.281 7.933 9.281h57.735l14.5-91.972-.449 2.88c1.032-6.5 6.593-11.295 13.177-11.295h27.436c53.898 0 96.1-21.893 108.429-85.222.366-1.873.682-3.696.957-5.477-1.557-.824-1.557-.824 0 0 3.67-23.407-.025-39.34-12.686-53.765"/>
  <path fill="#27346a" d="M102.362 68.024a11.737 11.737 0 0 1 5.052-1.14h73.318c8.682 0 16.781.565 24.181 1.756 2.123.341 4.18.732 6.177 1.182a89.928 89.928 0 0 1 8.59 2.347c3.638 1.216 7.026 2.63 10.139 4.287 3.67-23.415-.025-39.34-12.686-53.765C203.19 6.81 178.01 0 145.788 0H52.259c-6.584 0-12.186 4.795-13.218 11.296L.1 258.253c-.774 4.877 2.997 9.28 7.925 9.28h57.743L95.852 76.765a11.717 11.717 0 0 1 6.51-8.74z"/>
  <path fill="#2790c3" d="M228.862 81.933c-12.328 63.321-54.531 85.222-108.429 85.222H92.989c-6.585 0-12.145 4.794-13.169 11.295L61.782 292.806c-.674 4.261 2.622 8.124 6.934 8.124h48.67a11.71 11.71 0 0 0 11.563-9.88l.474-2.481 9.173-58.135.591-3.213a11.71 11.71 0 0 1 11.562-9.881h7.284c47.147 0 84.064-19.154 94.852-74.55 4.503-23.149 2.172-42.477-9.74-56.054-3.612-4.112-8.099-7.508-13.326-10.28-.283 1.79-.591 3.604-.957 5.477z"/>
  <path fill="#1f264f" d="M216.917 71.312a89.927 89.927 0 0 0-5.819-1.49 109.905 109.905 0 0 0-6.176-1.174c-7.409-1.199-15.5-1.765-24.19-1.765h-73.31a11.57 11.57 0 0 0-5.052 1.15 11.683 11.683 0 0 0-6.51 8.74L80.279 175.57l-.45 2.88c1.024-6.5 6.585-11.295 13.17-11.295h27.443c53.898 0 96.101-21.893 108.429-85.222.366-1.873.674-3.687.957-5.477-3.121-1.648-6.5-3.071-10.138-4.278-.908-.3-1.832-.591-2.772-.866"/>
</svg>
