<svg xmlns="http://www.w3.org/2000/svg" viewBox="0 0 256 249.422">
  <defs>
    <linearGradient id="a" x1="126.345" x2="126.345" y1=".586" y2="253.276" gradientTransform="scale(1.0131 .98707)" gradientUnits="userSpaceOnUse">
      <stop offset="0%" stop-color="#FBB32F"/>
      <stop offset="50.474%" stop-color="#C11511"/>
      <stop offset="100%" stop-color="#C11411"/>
    </linearGradient>
  </defs>
  <path fill="url(#a)" d="M128 .578C57.308.578 0 56.413 0 125.29c0 43.086 22.427 81.066 56.526 103.47V125.354c-.001-.158-.023-.31-.023-.467 0-.158.022-.31.023-.468v-.877h.043c.701-40.146 32.335-72.48 71.323-72.48 39.427 0 71.388 33.052 71.388 73.825 0 40.772-31.961 73.825-71.388 73.825-15.356 0-29.543-5.062-41.187-13.592v58.207A130.796 130.796 0 0 0 128 250c70.692 0 128-55.835 128-124.71C256 56.412 198.692.577 128 .577" style="fill:url(#a)" transform="translate(0 -.578)"/>
  <path fill="#fcb42f" d="M171.197 126.893c0 23.59-19.123 42.713-42.713 42.713S85.77 150.483 85.77 126.893s19.124-42.713 42.714-42.713 42.713 19.123 42.713 42.713"/>
</svg>
