<svg xmlns="http://www.w3.org/2000/svg" viewBox="0 0 256 204.8">
  <path fill="#5c007b" d="M141.17 0c21.567 9.6 40.631 24.487 40.631 24.487-2.984-11.802-5.146-18.12-5.146-18.12C194.361 16 221.257 33.018 230.4 41.6c5.305-.248 9.549-1.58 12.27-2.72 4.638-1.942 8.537 2.828 10.013 7.681 1.467 4.827 3.233 12.278 3.314 20.358.091 9.01-1.909 16.793-5.943 23.137-8.064 12.683-24.146 21.045-41.167 29.896-17.762 9.235-32.578 18.607-44.16 35.846-5.98 8.903-10.657 18.83-13.753 29.135-3.303 10.973-5.913 19.867-13.337 19.867-6.718 0-10.725-8.654-13.755-13.542-5.828-9.4-13.075-21.09-24.81-22.078-10.422-1.544-18.976 2.313-25.158 7.41a42.203 42.203 0 0 0-7.526 8.13c-1.738 2.08-3.375 4.211-4.966 6.285-4.862 6.34-9.063 11.815-14.612 13.403-.907.26-1.8.392-2.654.392-.71 0-1.528-.096-2.384-.367l-.015.022c-17.49-5.123-18.392-37.105-18.392-37.105-8.408 2.002-17.09 7.532-17.09 7.532 7.83-26.823 22.837-44.353 22.837-44.353-11.606-.91-28.417 2.235-29.091 2.363l-.021.004c23.365-30.069 39.133-41.089 39.133-41.089-12.127-5.297-27.547-8.058-28.172-8.169l-.02-.003C39.404 67.2 67.648 59.158 67.648 59.158c-2.4-2.265-7.23-4.834-12.232-7.126l-.77-.35c-7.585-3.422-15.293-6.14-15.293-6.14 19.65-5.654 54.43-9.186 54.43-9.186-2.036-1.715-4.782-3.473-7.691-5.119l-.674-.377c-.563-.313-1.131-.621-1.7-.924l-.682-.36C76.33 26.06 69.77 23.4 69.77 23.4c29.304-1 48.925 0 48.925 0-5.173-7.109-18.506-16.412-18.506-16.412 27.763 2.612 47.553 9.502 47.553 9.502-.193-1.543-1.198-4.316-2.367-7.154l-.273-.655c-.091-.219-.184-.437-.276-.655l-.279-.65C142.871 3.49 141.17 0 141.17 0zM96.495 174.849a223.242 223.242 0 0 1-2.738 6.978c-3.798 9.193-8.342 18.696-13.243 19.47-.29.046-.587.07-.88.07-3.607 0-6.841-3.33-9.865-10.166 5.318-7.497 15.87-16.23 26.726-16.352zm84.308-26.79c-2.977 11.158-3.374 22.365-3.69 31.368l-.001.01c-.206 5.82-.383 10.847-1.214 14.505-1.113 4.9-3.551 7.386-7.25 7.386l-.125-.001c-3.568-.058-7.36-3.115-11.515-9.31 2.449-14.026 12.14-31.943 23.795-43.959zM60.167 114.435 38.4 147.2l20.511-18.754zm62.347-25.103L73.206 112.88l41.096-10.054zm-44.107-5.697-39.055 28.01L71.17 97.64zm88.339-8.213-43.802 4.717 32.02 1.875zm-48.052-12.855-43.802 4.716 32.188 3.067zm61.697-5.49L147.741 64l25.405-1.433zm-74.19-11.535 33.956 8.688 14.807-4.916zM141.17 28.8l27.478 12.8 13.152-2.72z"/>
</svg>
