<svg xmlns="http://www.w3.org/2000/svg" viewBox="0 0 255.519 255.519">
  <path fill="#3a3c5b" d="M255.519 127.76c0 70.559-57.2 127.759-127.76 127.759S0 198.319 0 127.759 57.2 0 127.76 0c70.559 0 127.759 57.2 127.759 127.76"/>
  <path fill="#fff" d="M216.76 137.209c-4.305-27.163-32.802-44.758-54.023-58.028-9.27-5.797-24.3-13.348-26.244-25.54-.803-5.038-.774-10.243-.942-15.33-.066-1.998-.097-4.007-.276-6-.23-2.57-2.847.598-4.281-1.645-3.553-5.554-2.185 1.683-1.836 4.603.822 6.87 1.787 13.718 1.732 20.652-.106 13.251-2.241 25.936-5.545 38.704-7.739 29.899-13.843 60.533-6.188 91.129 1.586 6.34 3.651 12.594 6.364 18.544.82 1.8 2.39 6.821 4.646 7.423 8.125 2.168 14.27 2.796 20.76 8.84 4.029 3.753 7.05 1.703 11.816-.204 14.436-5.777 26.947-13.048 37.177-24.945 14.379-16.724 20.311-36.301 16.84-58.203m-15.268 27.35c-1.281 11.172-8.289 21.18-15.445 29.476-5.187 6.015-12.206 13.82-19.897 16.56-2.769.985.507-4.554.913-5.165 2.381-3.58 5.315-6.738 8.04-10.051 4.03-4.898 7.52-10.04 9.88-15.972 7.831-19.688 6.052-43.552-5.54-61.288-6.31-9.657-14.971-17.82-23.702-25.266-4.218-3.598-8.487-7-12.036-11.304-.821-.995-8.071-10.485-5.816-11.889.729-.453 16.574 16.214 18.297 17.515 6.552 4.947 13.29 9.522 19.357 15.093 8.21 7.543 16.643 15.968 21.346 26.226 5.156 11.24 5.994 23.911 4.603 36.064"/>
  <path fill="#fff" d="M123.054 3.443c2.378 1.587 2.906 10.836 2.906 19.293 0 8.458.793 44.93-1.85 54.709-2.642 9.779-8.72 20.615-15.328 30.13-6.607 9.514-14.272 29.6-14.008 42.02.264 12.424 7.4 32.773 12.951 41.23 5.57 8.49 15.028 20.322 12.95 22.995-3.7 4.757-18.764-11.63-26.693-21.143-7.93-9.515-15.858-28.81-16.122-43.873-.265-15.065 8.193-29.073 14.272-37.53 6.079-8.457 17.971-22.993 21.143-29.6 3.17-6.607 6.607-13.743 7.664-22.994 1.058-9.25 0-42.287 0-42.287s-.264-14.536 2.115-12.95"/>
  <path fill="#fff" d="M116.71 19.036c2.379 1.058 2.643 3.965 2.643 6.872s-.793 14.8-1.585 26.43c-.794 11.628-10.043 21.407-16.915 28.278-6.871 6.872-26.693 28.28-34.094 38.852-7.4 10.571-11.088 24.496-10.307 36.207.793 11.893 3.7 23.522 14.8 35.944 11.101 12.422 18.765 18.236 24.58 21.144 5.814 2.905 11.629 5.02 10.307 7.664-1.322 2.642-6.872.792-12.95-1.321-6.08-2.116-26.694-10.571-38.587-24.05-11.893-13.48-17.971-31.452-17.443-48.632.528-17.178 5.286-24.314 13.215-35.414 7.928-11.1 29.864-27.486 36.736-31.714 6.872-4.23 16.121-11.365 20.615-17.18 4.493-5.814 6.871-10.572 6.606-18.5-.264-7.929.53-15.065.265-17.708-.265-2.642-.265-7.928 2.114-6.872M117.373 226.203c1.074-.043.395 4.614-1.503 6.925-1.898 2.31-5.157 3.7-5.553 2.77-.398-.93 2.354-1.465 4.373-3.713 1.855-2.064 1.365-5.929 2.683-5.982M138.762 226.08c-1.074-.044-.395 4.613 1.503 6.923 1.898 2.31 5.157 3.701 5.552 2.772.398-.93-2.353-1.465-4.373-3.713-1.854-2.063-1.363-5.93-2.682-5.981M129.254 231.133c0 4.067.207 7.364-.68 7.364-1.094 0-.681-3.297-.681-7.364s-.371-7.365.68-7.365c.97 0 .681 3.298.681 7.365"/>
</svg>
