<svg xmlns="http://www.w3.org/2000/svg" viewBox="0 0 255.099 291.618">
  <path fill="#73b08f" d="m203.574 139.856-17.749-35.754 5.659 23.922z"/>
  <path fill="#c5e4d3" d="m182.745 91.572 13.7 57.875-44.057-46.557-64.205-59.934L71.796 0z"/>
  <path fill="#76c39b" d="m155.917 104.324-57.694-27.66-31.496-33.836-4.12-22.29z"/>
  <path d="M200.05 151.985 145.588 138.1 40.848 77.85 0 21.79l157.108 83.304z"/>
  <path fill="#73b08f" d="M143.09 136.501v1.609l-7.034 13.138-36.736-12.066-68.263-51.211L4.482 49.897 34.965 68.13l4.69 7.239z"/>
  <path stroke="#000" stroke-width="1.122" d="m44.121 98.01-5.081-.591-17.786-6.496 36.418 33.366 9.599 7.382 38.112 12.697z"/>
  <path fill="#76c39b" d="m193.433 149.497-.772 29.57-2.83-4.833-16.462-1.138-38.069-21.893 8.746-15.354z"/>
  <path fill="#c5e4d3" d="m38.498 116.924 47.387 36.213 49.219 16.383 37.962 3.448-37.7-21.842z"/>
  <path fill="#76c39b" d="M61.477 145.772 94.4 164.035l38.327 3.858-46.3-14.404-7.46-4.63z"/>
  <path fill="#73b08f" d="m134.642 167.152-53.874-4.7 27.753 10.652 18.23 2.506z"/>
  <path fill="#76c39b" d="m122.439 175.457-4.63.683-21.607 3.071 10.546-7.167zM156.946 180.125l-1.055 1.87-78.854 45.691-15.56 20.575 5.538-22.178 17.142-23.513 49.054-33.133z"/>
  <path d="m70.737 202.619-13.89 18.263v-7.974z"/>
  <path fill="#c5e4d3" d="M185.202 183.327 132.47 219.08l-4.373-7.46-18.263 38.584 4.115 5.66 3.087 35.753-22.121-40.898 18.006-44.243 43.985-27.266z"/>
  <path d="m112.922 205.705-35.24 19.035-1.03 26.237 10.804 35.24V268.21z"/>
  <path fill="#73b08f" d="m69.193 256.121.515 1.801 4.63 19.549-6.174-3.858zM133.384 216.57l-4.727-5.833-19.742 37.39 31.42 41.102-7.785-18.297z"/>
  <path fill="#76c39b" d="m137.1 214.338-4.115 2.158-.257 44.787 7.717 16.188 14.404-5.396-.514-10.792-15.691-15.379z"/>
  <path d="m208.13 182.778-23.923 6.688-25.98 22.121-14.147-.514 40.899-27.523z"/>
  <path fill="#73b08f" d="M198.297 185.733 190.8 171.94l-67.469-5.282 30.254 12.618zM158.965 210.73l3.344 7.887 7.202 5.167h1.286l-.514 8.43-22.122 9.246-7.46-17.132-2.057-10.062 6.688-5.439z"/>
  <path d="m170.797 255.093-13.376-5.917-5.144 10.547 1.8 2.572-.257 11.318 9.775 11.06-1.544-20.835 2.315-1.029 7.717 7.46-3.601-8.489-8.231-4.372 1.8-3.087 8.746 3.858zM174.14 211.107l-5.144 12.347 1.03 10.546 10.546 13.119-1.287-21.093 1.544-1.029 8.23 7.203-3.343-7.974-9.26-4.888 1.543-2.572 9.518 4.116-.258-3.601z"/>
  <path fill="#c5e4d3" d="m221.727 156.576-28.551-6.688v26.751l3.343 5.916 25.208.257 23.922 8.232-.771-3.344-14.662-8.489-29.324-11.575 16.72-.257-16.205-7.46z"/>
  <path fill="#73b08f" d="m255.03 181.03-10.803-17.492-24.694-7.46-19.549 3.602 15.434 7.716-14.405.515 27.009 11.575 15.433 7.46z"/>
  <path d="m240.952 201.847 4.116-6.173-3.087-7.974 12.861-7.203.257 14.662-7.716 6.945z"/>
  <path stroke="#000" stroke-width=".3" d="m251.265 178.836-8.828-4.12-4.709 4.12"/>
</svg>
