<?xml version="1.0" encoding="UTF-8"?>
<svg width="256" height="256" version="1.1" viewBox="0 0 256 256" xmlns="http://www.w3.org/2000/svg">
 <circle cx="128" cy="128" r="128" fill="#191916"/>
 <path d="m149.89 207.68s-8.212-4.8833-11.013-5.5411c-2.801-0.6578-3.8224-0.36496-5.1252-0.21095s-4.6248 0.1463-20.815 5.8711c-3.9104 1.3828-7.737 2.3544-10.003 2.5399-3.5002 0.28654-3.7935 0.21652-6.3521-1.5167-1.591-1.0778-4.0772-3.687-6.1106-6.413-5.5942-7.4997-6.8596-8.8586-9.6433-10.357-2.5692-1.3825-2.817-1.4122-8.0577-0.96565-2.9738 0.25337-6.6235 0.61617-8.1104 0.80621l-3.1027 0.34553 3.3482-4.4026c5.3492-7.0337 12.51-11.123 18.963-13.09 3.5684-1.0878 11.803-1.2643 18.782-0.10098 11.554 1.9262 13.783 1.8159 26.764-1.3244 20.351-4.9232 23.195-5.6291 23.988-4.9705 0.39662 0.32917 2.0255 2.4459 3.6198 4.7038 5.2269 7.4028 8.6215 9.959 13.106 9.869 1.2967-0.026 6.3062-1.0601 11.132-2.298 4.8259-1.2378 9.5044-2.4164 10.396-2.619 3.3913-0.77005 9.3836 2.2684 17.31 7.0433l2.9906 1.8015-15.211 6.543-5.5637 0.0893c-11.44 3.202-14.559 11.652-15.86 13.164-3.8218 4.4558-7.4961 6.5653-11.445 6.5706-2.6984 4e-3 -3.994-0.50925-13.987-5.537z" fill="#008d93" stroke-width=".5407"/>
 <path d="m41.79 191.53c0.66222-5.5732 1.4824-8.5682 6.6446-24.264 5.7809-17.577 6.5571-21.834 7.8365-42.985 1.5664-25.895 3.3779-34.867 9.7366-48.221 4.2002-8.8212 8.8874-15.532 15.423-22.082 10.653-10.677 23.518-17.575 37.234-19.967 24.186-4.2178 50.712 8.3493 66.139 31.334 2.7746 4.134 8.2999 15.183 9.8389 19.675 2.6108 7.6201 3.9976 16.02 5.1875 31.421 1.7531 22.691 2.9574 28.777 8.4295 42.603 4.0592 10.256 6.404 17.654 8.0041 25.254 1.2031 5.7143 1.2436 5.6415-4.0504 7.2767-4.7008 1.4519-11.13 2.2807-16.167 2.084l-4.3256-0.16889 19.14-6.3543-4.4336-2.6674c-9.9056-5.9595-11.047-6.124-22.024-3.1737-4.5996 1.2363-10.093 2.517-12.207 2.846-3.5598 0.55396-4.0293 0.50843-6.3521-0.61606-2.6236-1.2701-5.3563-4.2017-9.737-10.446-1.5474-2.2056-2.9456-3.6497-3.5337-3.6497-1.0559 0-15.884 3.3946-26.227 6.0043-7.8181 1.9726-12.531 2.0747-23.194 0.50291-12.708-1.8731-16.409-1.5028-24.594 2.4603-4.4184 2.1395-5.8503 3.2321-11.898 9.079l-6.8746 6.6468-6.1105 0.37113c-3.3608 0.20411-7.5166 0.51808-9.2351 0.69771l-3.1246 0.32659z" fill="#00b6bf" stroke-width=".5407"/>
 <ellipse cx="105.42" cy="94.76" rx="17.778" ry="20.8" fill="#00cdd7" stroke-width=".49252"/>
 <ellipse cx="137.24" cy="94.76" rx="17.778" ry="20.8" fill="#00cdd7" stroke-width=".49252"/>
 <path d="m106.17 38.2c-0.65055-0.0172-1.2478 0.0288-1.7678 0.14266-0.1677 0.0367-0.33897 0.0816-0.50881 0.12371-8.1388 3.5452-15.74 8.7754-22.46 15.51-6.5354 6.5497-11.222 13.261-15.423 22.082-2.1807 4.5799-3.8182 8.6527-5.1029 13.061 0.0414 1.9687 0.45619 3.7545 1.3159 5.2875 0.55069 0.98205 2.3447 0.44724 3.378 0 10.965-4.746 14.971-18.969 24.533-26.133 7.7624-5.8162 19.407-6.0001 25.956-13.156 2.1544-2.3542 4.6691-5.8974 3.5556-8.888-1.7467-4.6914-8.9224-7.9095-13.476-8.03z" fill="#00c2cc"/>
 <path d="m149.89 207.68s-8.212-4.8833-11.013-5.5411c-2.8015-0.65775-3.8224-0.36496-5.1252-0.21095s-4.6248 0.1463-20.815 5.8711c-3.9104 1.3828-7.737 2.3544-10.003 2.5399-3.5003 0.28654-3.7935 0.21652-6.3521-1.5167-1.591-1.0778-4.0772-3.687-6.1106-6.413-5.5942-7.4997-6.8596-8.8586-9.6433-10.357-2.5692-1.3825-2.817-1.4122-8.0577-0.96565-2.9738 0.25337-6.6235 0.61617-8.1104 0.80621l-3.1027 0.34553 3.3482-4.4026c5.3492-7.0337 12.51-11.123 18.963-13.09 3.5684-1.0878 11.803-1.2643 18.782-0.10098 11.554 1.9262 13.783 1.8159 26.764-1.3244 20.351-4.9232 23.195-5.6291 23.988-4.9705 0.39661 0.32917 2.0255 2.4459 3.6198 4.7038 5.2269 7.4028 8.6215 9.959 13.106 9.869 1.2967-0.026 6.3062-1.0601 11.132-2.298 4.8259-1.2378 9.5044-2.4164 10.396-2.619 3.3913-0.77005 9.3836 2.2684 17.31 7.0433l2.9906 1.8015-15.211 6.543-5.5637 0.0893c-11.44 3.202-14.559 11.652-15.86 13.164-3.8218 4.4558-7.4961 6.5653-11.445 6.5706-2.6984 4e-3 -3.994-0.50925-13.987-5.537z" fill="#008d93" stroke-width=".5407"/>
</svg>
