<svg xmlns="http://www.w3.org/2000/svg" viewBox="0 0 256 256">
  <circle cx="128" cy="128" r="128" fill="#191916"/>
  <path fill="#008d93" d="M149.89 207.68s-8.212-4.883-11.013-5.541c-2.801-.658-3.822-.365-5.125-.211s-4.625.146-20.815 5.871c-3.91 1.383-7.737 2.354-10.003 2.54-3.5.286-3.794.216-6.352-1.517-1.591-1.078-4.078-3.687-6.11-6.413-5.595-7.5-6.86-8.858-9.644-10.357-2.57-1.382-2.817-1.412-8.058-.965-2.974.253-6.623.616-8.11.806l-3.103.345 3.348-4.402c5.35-7.034 12.51-11.123 18.963-13.09 3.569-1.088 11.803-1.265 18.782-.101 11.554 1.926 13.783 1.816 26.764-1.325 20.351-4.923 23.195-5.629 23.988-4.97.397.329 2.026 2.446 3.62 4.704 5.227 7.402 8.621 9.959 13.106 9.869 1.297-.026 6.306-1.06 11.132-2.298s9.504-2.417 10.396-2.62c3.391-.77 9.384 2.27 17.31 7.044l2.99 1.801-15.21 6.543-5.564.09c-11.44 3.202-14.56 11.652-15.86 13.164-3.822 4.456-7.496 6.565-11.445 6.57-2.699.004-3.994-.509-13.987-5.537z"/>
  <path fill="#00b6bf" d="M41.79 191.53c.662-5.573 1.482-8.568 6.645-24.264 5.78-17.577 6.557-21.834 7.836-42.985 1.566-25.895 3.378-34.867 9.737-48.221 4.2-8.821 8.887-15.532 15.423-22.082 10.653-10.677 23.518-17.575 37.234-19.967 24.186-4.218 50.712 8.35 66.139 31.334 2.774 4.134 8.3 15.183 9.839 19.675 2.61 7.62 3.997 16.02 5.187 31.421 1.753 22.691 2.957 28.777 8.43 42.603 4.059 10.256 6.404 17.654 8.004 25.254 1.203 5.714 1.243 5.641-4.05 7.277-4.702 1.452-11.13 2.28-16.168 2.084l-4.325-.17 19.14-6.353-4.434-2.668c-9.906-5.96-11.047-6.124-22.024-3.174-4.6 1.237-10.093 2.517-12.207 2.846-3.56.554-4.03.509-6.352-.616-2.624-1.27-5.356-4.201-9.737-10.446-1.547-2.205-2.946-3.65-3.534-3.65-1.056 0-15.884 3.395-26.227 6.005-7.818 1.973-12.53 2.075-23.194.503-12.708-1.873-16.409-1.503-24.594 2.46-4.418 2.14-5.85 3.232-11.898 9.08l-6.874 6.646-6.11.371c-3.362.204-7.517.518-9.236.698l-3.125.326z"/>
  <ellipse cx="105.42" cy="94.76" fill="#00cdd7" rx="17.778" ry="20.8"/>
  <ellipse cx="137.24" cy="94.76" fill="#00cdd7" rx="17.778" ry="20.8"/>
  <path fill="#00c2cc" d="M106.17 38.2a7.437 7.437 0 0 0-1.768.143c-.167.036-.339.081-.509.123-8.138 3.546-15.74 8.776-22.46 15.51-6.535 6.55-11.222 13.261-15.423 22.082-2.18 4.58-3.818 8.653-5.103 13.061.042 1.97.457 3.755 1.316 5.288.551.982 2.345.447 3.378 0 10.965-4.746 14.971-18.97 24.533-26.133 7.763-5.816 19.407-6 25.956-13.156 2.155-2.354 4.67-5.898 3.556-8.888-1.747-4.692-8.922-7.91-13.476-8.03z"/>
  <path fill="#008d93" d="M149.89 207.68s-8.212-4.883-11.013-5.541c-2.802-.658-3.822-.365-5.125-.211s-4.625.146-20.815 5.871c-3.91 1.383-7.737 2.354-10.003 2.54-3.5.286-3.794.216-6.352-1.517-1.591-1.078-4.078-3.687-6.11-6.413-5.595-7.5-6.86-8.858-9.644-10.357-2.57-1.382-2.817-1.412-8.058-.965-2.974.253-6.623.616-8.11.806l-3.103.345 3.348-4.402c5.35-7.034 12.51-11.123 18.963-13.09 3.569-1.088 11.803-1.265 18.782-.101 11.554 1.926 13.783 1.816 26.764-1.325 20.351-4.923 23.195-5.629 23.988-4.97.397.329 2.026 2.446 3.62 4.704 5.227 7.402 8.621 9.959 13.106 9.869 1.297-.026 6.306-1.06 11.132-2.298s9.504-2.417 10.396-2.62c3.391-.77 9.384 2.27 17.31 7.044l2.99 1.801-15.21 6.543-5.564.09c-11.44 3.202-14.56 11.652-15.86 13.164-3.822 4.456-7.496 6.565-11.445 6.57-2.699.004-3.994-.509-13.987-5.537z"/>
</svg>
