<svg xmlns="http://www.w3.org/2000/svg" viewBox="0 0 254.276 277.839">
  <path d="M241.698 39.795c-.824-21.505-19.727-26.016-19.727-26.016S156.453 3.906 127.75.322c-28.711-3.603-26.923 24.22-26.923 24.22s6.52 202.785 7.196 227.903c.769 29.924 28.702 25.108 28.702 25.108l98.711-17.069c17.95-3.594 18.839-26.007 18.839-26.007s-11.66-171.203-12.578-194.682c-.824-21.505.917 23.479 0 0zm-22.08 172.26-73.399 7.603s-21.376 3.26-21.857-22.71c-.352-19.134-4.585-128.738-4.585-128.738s-1.473-20.098 20.524-18.449c22.45 1.667 76.243 5.76 76.243 5.76s14.402 3.428 15.031 19.84c.676 17.838 6.891 116.901 6.891 116.901s1.62 16.282-18.848 19.792zM39.932 182.51l-13.56.963s-13.68 1.852-13.994-13.115c-.222-11.03-1.593-73.64-1.593-73.64S9.84 85.132 23.909 86.076c3.566.232 8.623.556 14.207.89-.194-10.383-.36-19.46-.49-26.369-7.743-.583-14.986-1.213-20.163-1.76C-1.126 56.792.013 72.398.013 72.398s2.242 114.827 2.659 128.905c.51 16.782 18.579 14.059 18.579 14.059l19.292-2.066c-.167-8.326-.39-18.94-.611-30.786zM93.863 78.139a15.823 15.823 0 0 0-.676-3.992c-5.937-.481-20.84-4.362-25.618.686-3.029 3.176-1.779 9.873-1.705 13.68l10.809.61s9.215 1.973 9.614 11.42c.426 10.3.37 67.99.37 67.99s1.037 9.41-12.04 11.402l-6.863.51c.037 2.046.074 3.695.092 4.917.288 16.449 17.783 11.179 28.758 10.114.945-17.45-.732-35.426-1.12-52.885-.473-21.478-.649-42.993-1.621-64.452-.065-1.463.592 13.133 0 0z"/>
  <path d="m99.54 202.218-19.774 1.908s-18.44 2.65-18.838-18.597c-.287-15.68-2.14-104.556-2.14-104.556s-1.278-16.43 17.644-15.115c4.863.333 11.55.88 18.83 1.463-.547-17.05-.983-30.499-1.205-37.426-9.965-.973-19.357-1.955-26.303-2.751-25.007-2.834-23.432 19.274-23.432 19.274s2.973 163.025 3.556 182.947c.676 23.811 25.007 19.986 25.007 19.986l27.998-3.584c-.278-9.27-.75-24.84-1.343-43.549zM139.773 56.689c-3.5-.278-7.752-.046-10.345 2.686-2.742 2.87-2.788 6.946-2.63 10.632 9.919.862 17.115 1.5 17.115 1.5s12.392 2.788 12.957 16.218c.574 14.606 4.122 93.97 4.122 93.97s1.389 13.346-16.227 16.226l-13.337 1.278c1.77 20.848 28.73 12.05 42.52 10.623-1.416-31.35-5.806-128.312-6.797-151.077a4171.013 4171.013 0 0 0-27.378-2.056c-.685-.056 6.937.49 0 0z"/>
</svg>
