<svg xmlns="http://www.w3.org/2000/svg" viewBox="0 0 255.923 255.923">
  <path fill="#e9eaeb" d="M127.961 0C57.291 0 0 57.292 0 127.961c0 70.67 57.292 127.962 127.961 127.962 70.67 0 127.962-57.292 127.962-127.962S198.63 0 127.96 0zm.695 78.151 23.708 17.376 23.708 17.453-9.19 28.032-9.266 27.878-29.423-.077-29.423-.154-9.035-28.033-8.88-28.032 23.862-17.299 23.94-17.144z"/>
  <path fill="#0dab62" d="M113.752 177.694c-6.379 0-9.727 4.42-7.336 11.352l16.449 47.802c1.682.077 3.394.155 5.096.155 42.31 0 78.986-24.095 97.072-59.309z"/>
  <path fill="#ffd34e" d="M170.577 157.345c-2.044 6.042 1.069 10.63 8.402 10.588l50.552-.26c.613-1.57 1.234-3.167 1.78-4.779 13.56-40.077 2.492-82.541-25.067-110.96z"/>
  <path fill="#448afd" d="M76.23 129.55c-1.946-6.075-7.177-7.915-13.05-3.523l-40.503 30.249c.44 1.626.888 3.28 1.408 4.9 12.908 40.293 47.044 67.869 86.097 74.349z"/>
  <path fill="#9b479f" d="M109.522 79.536c5.106-3.824 5.136-9.368-.934-13.484L66.765 37.655c-1.393.947-2.81 1.912-4.172 2.932-33.863 25.366-48.771 66.638-42.135 105.665z"/>
  <path fill="#e04a3f" d="M168.739 95.98c5.162 3.747 10.468 2.137 12.605-4.878l14.768-48.348c-1.317-1.05-2.657-2.119-4.034-3.119-34.241-24.853-78.076-26.897-113.398-9.022z"/>
</svg>
