<svg xmlns="http://www.w3.org/2000/svg" viewBox="0 0 510.817 133.997">
  <g fill="#fff000">
    <path d="M215.529 24.814c-20.206 0-36.512 16.307-36.512 36.512 0 20.206 16.306 36.513 36.512 36.513 6.38 0 12.407-1.773 17.37-4.609v4.254c0 9.571-7.799 17.37-17.37 17.37a9.531 9.531 0 0 0-9.571 9.571 9.531 9.531 0 0 0 9.57 9.572c20.207 0 36.513-16.307 36.513-36.513V61.326c0-20.205-16.306-36.512-36.512-36.512zm0 53.882c-9.571 0-17.37-7.798-17.37-17.37 0-9.57 7.799-17.37 17.37-17.37 9.571 0 17.37 7.8 17.37 17.37 0 9.572-7.799 17.37-17.37 17.37zM36.512 24.814C16.306 24.814 0 41.121 0 61.326v51.756a9.531 9.531 0 0 0 9.571 9.57 9.531 9.531 0 0 0 9.571-9.57V93.23c5.318 2.836 10.99 4.609 17.37 4.609 20.206 0 36.513-16.307 36.513-36.513-.355-20.205-16.661-36.512-36.513-36.512zm0 53.882c-9.57 0-17.37-7.798-17.37-17.37 0-9.57 7.8-17.37 17.37-17.37 9.571 0 17.37 7.8 17.37 17.37 0 9.572-7.799 17.37-17.37 17.37zM138.605 24.814c-20.206 0-36.512 16.307-36.512 36.512v26.942a9.531 9.531 0 0 0 9.57 9.57 9.531 9.531 0 0 0 9.572-9.57V61.326c0-9.57 7.799-17.37 17.37-17.37 9.571 0 17.37 7.8 17.37 17.37v26.942a9.531 9.531 0 0 0 9.571 9.57 9.531 9.531 0 0 0 9.571-9.57V61.326c-.354-20.205-16.66-36.512-36.512-36.512zM370.086 24.46c-20.206 0-36.513 16.306-36.513 36.512s16.307 36.512 36.513 36.512c20.205 0 36.512-16.306 36.512-36.512S390.29 24.46 370.086 24.46zm0 53.882c-9.572 0-17.37-7.799-17.37-17.37 0-9.571 7.798-17.37 17.37-17.37 9.57 0 17.37 7.799 17.37 17.37 0 9.571-7.8 17.37-17.37 17.37zM319.748 0a9.531 9.531 0 0 0-9.57 9.571v19.852a35.231 35.231 0 0 0-17.37-4.609c-20.207 0-36.513 16.307-36.513 36.512 0 20.206 16.306 36.513 36.512 36.513s36.513-16.307 36.513-36.513V9.571A9.531 9.531 0 0 0 319.748 0zm-26.94 78.696c-9.572 0-17.37-7.798-17.37-17.37 0-9.57 7.798-17.37 17.37-17.37 9.57 0 17.37 7.8 17.37 17.37 0 9.572-7.8 17.37-17.37 17.37z"/>
    <g transform="translate(74.088)">
      <path d="M12.762 24.814a9.531 9.531 0 0 0-9.572 9.571v53.883a9.531 9.531 0 0 0 9.572 9.57 9.531 9.531 0 0 0 9.57-9.57V34.385c-.354-5.317-4.608-9.57-9.57-9.57z"/>
      <circle cx="12.762" cy="9.571" r="9.571"/>
    </g>
    <path d="M460.835 97.13a9.531 9.531 0 0 0 9.57-9.571V47.5c0-2.127 1.773-3.899 3.9-3.899 9.571 0 17.37 7.799 17.37 17.37v26.941a9.531 9.531 0 0 0 9.571 9.571 9.531 9.531 0 0 0 9.571-9.57V60.971c0-20.206-16.306-36.512-36.512-36.512-4.608 0-9.217 1.063-13.47 2.481-4.254-1.772-8.508-2.481-13.47-2.481-20.207 0-36.513 16.306-36.513 36.512v26.941a9.531 9.531 0 0 0 9.571 9.571 9.531 9.531 0 0 0 9.571-9.57V60.971c0-9.571 7.799-17.37 17.37-17.37 2.127 0 3.9 1.772 3.9 3.9v40.411c0 4.963 4.253 9.217 9.57 9.217z"/>
  </g>
</svg>
