<svg xmlns="http://www.w3.org/2000/svg" viewBox="0 0 256 382.752">
  <path fill="#fff" d="M256 129.379c0 44.045-20.434 68.692-40.193 92.529-15.366 18.534-29.927 36.101-34.198 62.258a17.476 17.476 0 0 1 10.346 15.964c0 9.654-7.795 17.508-17.376 17.508H81.421c-9.581 0-17.376-7.854-17.376-17.508 0-7.087 4.23-13.241 10.344-15.964-4.27-26.156-18.832-43.724-34.197-62.258C20.432 198.071 0 173.424 0 129.379 0 58.039 57.42 0 127.999 0 198.579 0 256 58.039 256 129.379zm-81.42 194.807c5.484 0 10.71 2.655 13.975 7.104 3.358 4.576 4.281 10.393 2.531 15.96-2.204 7.035-9.196 11.95-17.002 11.95h-.174c-4.572 0-8.689 2.582-10.748 6.739l-.12.245c-5.053 10.219-15.223 16.568-26.54 16.568H119.5c-11.315 0-21.486-6.347-26.546-16.564l-.124-.251c-2.055-4.155-6.172-6.737-10.745-6.737h-.175c-7.806 0-14.798-4.916-17.002-11.954-1.747-5.566-.822-11.383 2.538-15.958 3.265-4.448 8.49-7.102 13.975-7.102z"/>
  <path fill="#333" d="M186.224 300.13c0 6.501-5.217 11.776-11.646 11.776H81.42c-6.427 0-11.644-5.275-11.644-11.776 0-6.271 4.86-11.352 10.974-11.705-7.248-66.264-75.02-81.024-75.02-159.046C5.73 61.091 60.473 5.732 128 5.732c67.527 0 122.269 55.359 122.269 123.647 0 78.021-67.772 92.782-75.021 159.047 6.114.352 10.976 5.433 10.976 11.704m-11.646 29.787H81.42c-7.662 0-13.594 7.484-11.044 15.615 1.536 4.905 6.445 7.937 11.534 7.937h.174c6.726 0 12.874 3.844 15.884 9.927l.122.248c4.059 8.195 12.344 13.377 21.409 13.377h17c9.067 0 17.352-5.182 21.405-13.377l.122-.248c3.01-6.082 9.158-9.927 15.883-9.927h.174c5.089 0 9.997-3.032 11.535-7.937 2.555-8.131-3.378-15.615-11.041-15.615"/>
  <path fill="#fc0" d="M70.01 143.003 122.19 37.659c.754-1.35 1.746-1.968 2.878-1.968a3.094 3.094 0 0 1 3.09 3.105c0 .03-.08.679-.08.679l-8.785 71.224c-.096.857-.115 1.162-.115 1.474 0 5.14 4.16 9.303 9.297 9.303l48.685.048c7.173.563 12.83 6.571 12.83 13.906a13.79 13.79 0 0 1-1.38 6.039l-52.536 106.083-.33.684c-.577.837-1.532 1.381-2.585 1.381a3.106 3.106 0 0 1-3.11-3.104c.068-.624 8.817-71.483 8.817-71.483.104-.482.165-.977.183-1.485.018-5.556-4.143-9.725-9.278-9.725l-48.735-.048c-7.172-.556-12.831-6.565-12.831-13.9 0-1.919.377-3.746 1.083-5.409 0-.006.724-1.46.724-1.46"/>
</svg>
