<svg xmlns="http://www.w3.org/2000/svg" viewBox="0 0 256 87.091">
  <path d="m238.93 54.478-17.988-31.152a.827.827 0 0 0-.718-.417h-11.78c-.116 0-.209.044-.31.088-.035-.006-.068-.028-.103-.028h-6.494c.003-.062.005-1.695.011-1.755.468-8.334 7.757-10.446 10.242-10.89a.82.82 0 0 0 .675-.816L212.45.826a.828.828 0 0 0-.876-.825c-4.72.303-21.06 3.988-21.92 21.213l-.011 1.753h-4.997a.721.721 0 0 0-.719.724v8.415c0 .4.321.727.719.727h4.218c.395 0 .719.323.719.718v36.592c0 .45.362.812.808.812h10.26a.8.8 0 0 0 .6-.28.808.808 0 0 0 .29-.613V33.58c0-.218.09-.416.232-.563a.79.79 0 0 1 .495-.185l9.904-.134c.3-.003.578.156.727.417l12.334 21.364a.836.836 0 0 1 .011.814l-16.357 30.43a.833.833 0 0 0 .73 1.228h11.8a.826.826 0 0 0 .727-.435l16.793-31.223a.836.836 0 0 0-.008-.816m16.967-30.42L243.015 48.03a.83.83 0 0 1-1.442.027l-6.179-10.554a.83.83 0 0 1-.013-.817l7.22-13.368a.816.816 0 0 1 .713-.436c1.903-.022 8.906-.081 11.872-.049a.825.825 0 0 1 .71 1.225m-86.705 17.663h-23.006a.806.806 0 0 1-.727-1.173c1.22-2.403 4.736-7.645 12.242-7.645 7.37 0 10.952 5.234 12.212 7.637a.81.81 0 0 1-.721 1.181m-11.445-20.646c-13.924 0-25.21 11.35-25.21 25.347 0 14 11.286 25.346 25.21 25.346 7.517 0 17.228-3.701 22.598-14.177a.817.817 0 0 0-.73-1.178h-12.342a.787.787 0 0 0-.545.223 12.313 12.313 0 0 1-3.121 2.17c-1.606.778-3.552 1.284-5.909 1.284-7.422 0-11.004-4.872-12.01-7.458a.805.805 0 0 1 .762-1.083l35.25.006a.836.836 0 0 0 .803-.716c.123-.988.289-1.987.343-3.005a25.194 25.194 0 0 0-25.102-26.759m-52.018 39.004A13.861 13.861 0 0 1 92.77 56.36a13.951 13.951 0 0 1-3.71-12.99 13.586 13.586 0 0 1 10.331-10.359c4.671-1.085 9.571.32 12.955 3.718a13.948 13.948 0 0 1 3.71 12.99 13.59 13.59 0 0 1-10.331 10.359m7.737-36.628c-11.303-4.94-20.87-.03-23.912 1.935-1.595 1.034-1.524-2.34-3.048-2.34h-8.954a.808.808 0 0 0-.811.808V86.28a.81.81 0 0 0 .808.811h10.168a.808.808 0 0 0 .808-.811V68.494c0-.626.678-1.02 1.214-.7 2.243 1.362 7.398 3.977 13.733 3.977 14.725 0 26.536-12.759 25.023-27.829-.906-9-6.763-16.874-15.029-20.49M28.985 60.078A13.861 13.861 0 0 1 16.03 56.36a13.951 13.951 0 0 1-3.706-12.99 13.586 13.586 0 0 1 10.33-10.359c4.672-1.085 9.572.32 12.956 3.718a13.948 13.948 0 0 1 3.707 12.99A13.586 13.586 0 0 1 28.985 60.08m7.74-36.628c-11.302-4.94-20.866-.03-23.914 1.935-1.592 1.034-1.524-2.34-3.048-2.34H.808a.808.808 0 0 0-.808.808V86.28a.81.81 0 0 0 .808.811h10.166a.808.808 0 0 0 .808-.811V68.494c0-.626.678-1.02 1.214-.7 2.245 1.362 7.4 3.977 13.733 3.977 14.73 0 26.536-12.759 25.023-27.829-.906-9-6.76-16.874-15.026-20.49m31.884-.404H58.423a.803.803 0 0 0-.809.803v46.543c0 .449.365.81.811.81h10.187a.811.811 0 0 0 .809-.81V23.857a.814.814 0 0 0-.811-.811"/>
</svg>
