<svg xmlns="http://www.w3.org/2000/svg" viewBox="0 0 511.141 115.749">
  <path fill="#525254" d="M79.772 0h16.322v17.193H79.772zM365.554 0h16.322v17.193h-16.322z"/>
  <path fill="#231f1f" d="M43.695 23.363c-10.288 0-16.237 4.617-19.108 7.806-.34-2.748-2.153-6.313-9.226-6.313H0v16.078h6.295c1.066 0 1.409.34 1.409 1.403v73.412h18.31V88.196c0-.744-.015-1.439-.034-2.061 2.86 2.626 8.322 6.243 16.854 6.243 17.896 0 30.408-14.186 30.408-34.504 0-20.64-11.88-34.511-29.547-34.511M39.976 76.43c-9.857 0-14.335-9.438-14.335-18.182 0-13.773 7.532-18.682 14.579-18.682 8.644 0 14.457 7.452 14.457 18.553 0 12.658-7.39 18.311-14.7 18.311"/>
  <path fill="#231f1f" d="M97.346 73.531v-38.9c0-6.576-3.17-9.775-9.661-9.775H71.326v16.078h6.302c1.06 0 1.402.34 1.402 1.402v38.77c0 6.67 3.071 9.774 9.645 9.774h16.38V74.943H98.75c-1.014 0-1.405-.404-1.405-1.412"/>
  <path fill="#231f1f" d="M145.172 23.363c-10.291 0-16.233 4.617-19.116 7.806-.341-2.748-2.144-6.313-9.216-6.313h-15.37v16.078h6.302c1.06 0 1.405.34 1.405 1.403v73.412h18.317V88.196c0-.744-.019-1.439-.042-2.061 2.848 2.626 8.328 6.243 16.857 6.243 17.897 0 30.403-14.186 30.403-34.504 0-20.64-11.872-34.511-29.54-34.511m-3.735 53.067c-9.83 0-14.325-9.438-14.325-18.182 0-13.773 7.531-18.682 14.584-18.682 8.643 0 14.454 7.452 14.454 18.553 0 12.658-7.382 18.311-14.713 18.311M208.462 23.363c-19.724 0-33.515 14.194-33.515 34.51 0 19.989 14.882 34.505 35.388 34.505 16.132 0 25.988-9.549 26.404-9.953l.736-.726-7.973-13.237-1.187 1.122c-.075.057-7.312 6.727-16.87 6.727-9.176 0-15.893-5.6-17.475-14.385h43.414l.103-1.2c.029-.164.392-4.061.392-5.965 0-18.777-11.822-31.398-29.417-31.398m-13.812 24.98c1.987-6.479 6.953-10.15 13.812-10.15 5.511 0 9.759 4.191 10.504 10.15H194.65M304.466 73.531V9.774c0-6.572-3.213-9.774-9.789-9.774h-16.363v16.077h6.3c1.06 0 1.41.343 1.41 1.407V29.01c-2.702-2.44-7.98-5.646-17.064-5.646-17.767 0-30.165 14.194-30.165 34.51 0 20.641 11.88 34.505 29.547 34.505 10.102 0 15.923-4.69 18.767-7.955.37 2.85 2.215 6.457 9.066 6.457h15.862V74.945h-6.168c-1.015 0-1.403-.406-1.403-1.414m-32.65 2.899c-8.707 0-14.34-7.286-14.34-18.556 0-10.955 5.861-18.308 14.59-18.308 9.895 0 14.33 9.125 14.33 18.188 0 13.776-7.538 18.676-14.58 18.676M352.873 23.982c-7.618 0-14.635 4.398-18.793 11.406v-1.51c0-5.982-3.304-9.023-9.785-9.023h-15.74v16.079h6.294c1.061 0 1.412.338 1.412 1.403v48.545h18.306V64.457c0-3.48.444-6.832 1.31-9.927 2.754-9.112 10.079-12.356 16.001-12.356 2.1 0 3.632.223 3.654.23l1.53.23V24.435l-1.114-.189c-.057-.01-1.606-.264-3.075-.264M383.12 73.531v-38.9c0-6.576-3.152-9.775-9.649-9.775h-14.8v16.078h4.731c1.067 0 1.407.34 1.407 1.402v38.77c0 6.67 3.073 9.774 9.658 9.774h16.364V74.943h-6.303c-1.015 0-1.408-.404-1.408-1.412"/>
  <path fill="#231f1f" d="M451.917 40.934V24.856h-9.77c-5.706 0-8.768 1.978-10.575 6.84L419.636 65.03a53.339 53.339 0 0 0-1.128 3.951c-.35-1.336-.76-2.738-1.212-3.977l-11.936-33.32c-1.83-4.913-4.788-6.829-10.574-6.829h-10.384v16.078h2.696c1.427 0 1.886.484 2.228 1.378L407.8 90.88h20.585l18.478-48.568c.338-.894.81-1.378 2.242-1.378h2.812"/>
  <path fill="#231f1f" d="M510.754 60.727c.016-.165.387-4.062.387-5.966 0-18.777-11.827-31.398-29.426-31.398-19.724 0-33.506 14.194-33.506 34.51 0 19.989 14.865 34.505 35.376 34.505 16.134 0 25.996-9.549 26.407-9.953l.745-.726-7.959-13.237-1.21 1.122c-.063.057-7.338 6.727-16.862 6.727-9.181 0-15.9-5.6-17.487-14.385h43.428zm-42.85-12.384c2.003-6.479 6.953-10.15 13.81-10.15 5.526 0 9.758 4.191 10.507 10.15z"/>
  <path fill="#3b3b3c" d="M352.873 23.982c-5.918 0-11.429 2.677-15.566 7.132 3.494-.031 7.012-.06 10.529-.06 3.09 0 6.154.029 9.227.047v-6.666l-1.115-.189c-.057-.01-1.606-.264-3.075-.264M431.572 31.696l-.753 2.118c7.08.488 14.103 1.025 21.098 1.626V24.856h-9.768c-5.706 0-8.77 1.978-10.577 6.84M43.695 23.363c-10.288 0-16.239 4.617-19.108 7.804-.342-2.746-2.153-6.31-9.226-6.31H0v16.077h6.295c1.066 0 1.409.34 1.409 1.402v40.91a771.155 771.155 0 0 1 25.821-8.462c-5.38-3.08-7.884-9.999-7.884-16.538 0-13.771 7.532-18.68 14.579-18.68 8.644 0 14.457 7.452 14.457 18.553 0 4.662-1.013 8.36-2.646 11.186a875.815 875.815 0 0 1 20.814-5.623c.227-1.875.397-3.806.397-5.808 0-20.64-11.88-34.511-29.547-34.511M87.685 24.856H71.326v16.078h6.302c1.06 0 1.4.34 1.4 1.403V62.14a913.207 913.207 0 0 1 18.318-4.367V34.632c0-6.575-3.17-9.776-9.661-9.776M79.772 0h16.322v17.193H79.772zM145.173 23.363c-10.29 0-16.232 4.617-19.115 7.804-.343-2.746-2.144-6.31-9.218-6.31h-15.368v16.077h6.3c1.06 0 1.407.34 1.407 1.402V55.16c6.19-1.313 12.466-2.586 18.78-3.81 2.098-8.498 8.042-11.785 13.737-11.785 5.156 0 9.264 2.688 11.77 7.18 6.318-1.053 12.68-2.068 19.096-3.029-4.17-12.572-14.158-20.354-27.389-20.354M208.462 23.363c-14.41 0-25.621 7.588-30.63 19.594 7.783-1.121 15.646-2.168 23.577-3.14 2.03-1.057 4.392-1.623 7.053-1.623 1.01 0 1.946.188 2.855.448 7.196-.814 14.458-1.564 21.777-2.251-5.032-8.166-13.718-13.028-24.632-13.028M294.677 0h-16.363v16.077h6.3c1.058 0 1.41.343 1.41 1.407V29.01c-2.702-2.44-7.98-5.646-17.064-5.646-9.944 0-18.203 4.447-23.552 11.935a1211.155 1211.155 0 0 1 59.058-3.499V9.774c0-6.572-3.213-9.774-9.789-9.774M324.297 24.856h-15.743v6.829c8.353-.266 16.744-.456 25.207-.552-.928-4.152-4.08-6.277-9.464-6.277M365.554 0h16.322v17.193h-16.322zM373.473 24.856h-14.8v6.256c8.083.073 16.13.22 24.132.439-.91-4.472-3.96-6.695-9.332-6.695M394.786 24.856h-10.384V31.6c7.109.21 14.174.47 21.199.79l-.24-.705c-1.832-4.913-4.789-6.829-10.575-6.829M481.715 23.363c-11.247 0-20.543 4.626-26.48 12.358 8.598.755 17.144 1.602 25.595 2.534 1.301.143 2.58.275 3.86.424 8.155.923 16.222 1.937 24.22 3.028-4.189-11.333-14.09-18.344-27.195-18.344"/>
</svg>
