<svg xmlns="http://www.w3.org/2000/svg" viewBox="0 0 255.76 255.767">
  <path fill="#ed7d1a" d="m94.011 58.614 28.554 49.452a20.474 20.474 0 0 1 13.981 1.246l15.011-25.998-25.09-43.445-32.75 18.913h.002zm-43.044 63.971h57.12a20.415 20.415 0 0 1 2.032-4.965 20.37 20.37 0 0 1 6.022-6.544l-15.008-25.99H50.952v37.822h.015zm94.666 15.541a20.386 20.386 0 0 1-6.01 6.535l15.02 26.01h50.167v-37.494h-57.142a20.844 20.844 0 0 1-2.035 4.95zm-3.279-24.744a20.463 20.463 0 0 1 5.94 12.73h30.011l25.09-43.447-32.47-18.753zM84.832 191.85l28.57-49.49a20.585 20.585 0 0 1-5.934-12.708H77.441l-25.09 43.427 32.742 18.926zm76.921 5.286-28.548-49.455a20.363 20.363 0 0 1-13.99-1.239L104.2 172.448l25.075 43.435 32.752-18.905z"/>
  <path fill="#5282b0" d="M127.889 0C57.372 0 0 57.357 0 127.863c0 70.527 57.372 127.904 127.889 127.904 70.511 0 127.87-57.377 127.87-127.904C255.76 57.357 198.4 0 127.89 0zm0 25.89c56.32 0 101.976 45.65 101.976 101.973 0 56.338-45.656 102.012-101.976 102.012-56.328 0-101.992-45.674-101.992-102.012C25.897 71.54 71.561 25.89 127.89 25.89z"/>
</svg>
