<svg xmlns="http://www.w3.org/2000/svg" viewBox="0 0 254.386 259.377">
  <path fill="#3ec4fc" d="m147.708 66.652-14.174 53.712h14.92c50.728 0 67.14-26.856 85.044-69.378l20.888-49.982c-70.87-5.222-91.758 8.952-106.678 65.648"/>
  <path fill="#ffbd00" d="m0 1.75 20.888 49.982c17.904 42.522 34.316 69.378 85.044 69.378h14.92l-14.174-53.712C91.758 9.956 70.87-4.218 0 1.75"/>
  <path fill="#f18b37" d="m106.678 192.726 14.174-53.712h-14.92c-50.728 0-67.14 26.856-85.044 69.378L0 258.374c70.87 5.221 91.758-8.952 106.678-65.648"/>
  <path fill="#0090db" d="m254.386 257.628-20.888-49.982c-17.904-42.522-34.316-69.378-85.044-69.378h-14.92l14.174 53.712c14.92 57.442 35.808 71.615 106.678 65.648"/>
</svg>
