<svg xmlns="http://www.w3.org/2000/svg" viewBox="0 0 511.997 105.983">
  <path fill="#111" d="M150.186 31.232c2.218 0 4.437.341 6.485 1.024 2.048.682 3.755 1.877 5.29 3.242 1.537 1.536 2.731 3.243 3.755 5.462.854 2.218 1.366 4.778 1.536 7.85v6.144c0 3.072-.512 5.632-1.536 7.85-1.024 2.22-2.218 4.097-3.754 5.462-1.536 1.536-3.243 2.56-5.291 3.243-2.048.683-4.267 1.024-6.485 1.024h-10.41v11.605c0 .512-.342 1.024-.684 1.365-.34.512-.853.683-1.365.683h-11.605V33.962c0-.512.341-1.024.683-1.365.34-.512.853-.683 1.365-.683h9.216c.512 0 1.024.342 1.365.683.512.341.683.853.683 1.365v1.707l1.536-1.536c.682-.683 1.194-1.024 2.048-1.536.853-.341 1.706-.683 2.901-1.024 1.195-.17 2.56-.341 4.267-.341zm225.961 0c2.56 0 5.12.341 7.339 1.024 2.218.682 4.096 1.365 5.802 2.39 1.707 1.023 2.902 2.218 3.926 3.412 1.024 1.366 1.536 2.56 1.536 3.926 0 .512-.171 1.024-.512 1.365-.512.341-.854.683-1.536.683h-9.558c-.512 0-1.024-.17-1.365-.342-.341-.17-.683-.512-1.195-.853-.512-.341-1.024-.512-1.877-.853-.683-.17-1.707-.342-3.072-.342-1.195 0-2.219.171-2.901.512-.854.342-1.195.854-1.195 1.707 0 .512.17 1.024.341 1.365.171.342.683.512 1.536.683.683.17 1.878.341 3.243.512 1.365.17 3.243.512 5.461.853 4.608.683 8.022 2.39 10.07 4.608 2.048 2.39 3.242 5.12 3.242 8.192a9.175 9.175 0 0 1-1.365 4.779c-.853 1.536-2.219 2.901-3.755 3.925-1.706 1.195-3.754 2.048-6.144 2.73-2.389.684-5.12 1.025-8.192 1.025s-5.802-.341-8.02-1.024c-2.39-.683-4.268-1.536-5.804-2.56-1.536-1.024-2.73-2.219-3.584-3.584-.853-1.195-1.365-2.56-1.365-3.755 0-.512.17-1.024.512-1.365.512-.341.853-.683 1.536-.683h9.387c.512 0 1.024.171 1.194.342.171.341.512.512 1.024.853.342.341 1.024.683 1.707.853.683.342 1.877.342 3.413.342 1.536 0 2.902-.171 3.926-.683 1.365-.17 1.877-.683 1.877-1.536 0-.512-.17-1.024-.512-1.365-.341-.342-1.024-.512-1.877-.683-.854-.17-2.048-.341-3.584-.683-1.536-.17-3.414-.512-5.632-.853-3.926-.683-6.827-2.219-8.875-4.267-2.048-2.218-3.072-4.949-3.072-8.362 0-1.707.512-3.414 1.365-4.779.854-1.536 2.048-2.73 3.584-3.925 1.536-1.195 3.414-2.048 5.632-2.56 2.22-.683 4.608-1.024 7.339-1.024zm42.837 0c2.56 0 5.12.341 7.339 1.024 2.218.682 4.096 1.365 5.802 2.39 1.707 1.023 2.902 2.218 3.926 3.412 1.024 1.366 1.536 2.56 1.536 3.926 0 .512-.171 1.024-.512 1.365-.512.341-.854.683-1.536.683h-9.046c-.512 0-1.024-.17-1.365-.342-.341-.17-.683-.512-1.195-.853-.512-.341-1.024-.512-1.877-.853-.683-.17-1.707-.342-3.072-.342-1.195 0-2.219.171-2.901.512-.854.342-1.195.854-1.195 1.707 0 .512.17 1.024.341 1.365.171.342.683.512 1.536.683.854.17 1.878.341 3.243.512 1.365.17 3.243.512 5.461.853 4.608.683 8.022 2.39 10.07 4.608 2.048 2.39 3.242 5.12 3.242 8.192a9.175 9.175 0 0 1-1.365 4.779c-.853 1.536-2.219 2.901-3.755 3.925-1.706 1.195-3.754 2.048-6.144 2.73-2.389.684-5.12 1.025-8.192 1.025s-5.802-.341-8.02-1.024c-2.39-.683-4.267-1.536-5.803-2.56-1.536-1.024-2.731-2.219-3.584-3.584-.854-1.195-1.366-2.56-1.366-3.755 0-.512.17-1.024.512-1.365.512-.341.854-.683 1.536-.683h9.387c.512 0 1.024.171 1.194.342.171.341.512.512 1.024.853.342.341 1.024.683 1.707.853.683.342 1.877.342 3.413.342 1.536 0 2.902-.171 3.926-.683.682-.17 1.365-.683 1.365-1.536 0-.512-.17-1.024-.512-1.365-.341-.342-1.024-.512-1.877-.683-.854-.17-2.048-.341-3.584-.683-1.536-.17-3.414-.512-5.632-.853-3.926-.683-6.827-2.219-8.875-4.267-2.048-2.218-3.072-4.949-3.072-8.362 0-1.707.512-3.414 1.366-4.779.853-1.536 2.048-2.73 3.584-3.925 1.536-1.195 3.413-2.048 5.631-2.56 2.22-.683 4.608-1.024 7.34-1.024zm-86.869.17c3.755 0 6.827.683 9.558 1.878a20.673 20.673 0 0 1 6.485 4.778c1.707 2.048 2.901 4.267 3.584 6.656a27.193 27.193 0 0 1 1.024 7.339v2.219c0 .512-.17 1.024-.683 1.365-.341.341-.853.683-1.365.683H325.12v.102c.026 1.077.208 1.998.68 2.628.512.683 1.024 1.366 1.707 1.878.683.512 1.365.853 2.219 1.024.853.17 1.536.341 2.39.341 1.535 0 2.73-.17 3.583-.512.853-.341 1.707-.683 2.219-1.365.512-.512 1.024-.683 1.194-.854.156-.155.593-.169 1.184-.17h10.08c1.195 0 1.707.512 1.707 1.706 0 .683-.341 1.536-1.195 2.73-.682 1.196-1.877 2.56-3.584 3.756-1.536 1.365-3.754 2.389-6.144 3.413-2.56 1.024-5.632 1.365-9.045 1.365-3.243 0-6.315-.512-8.875-1.365-2.56-1.024-4.778-2.219-6.485-4.096-1.706-1.707-3.072-3.925-3.925-6.485a27.101 27.101 0 0 1-1.365-8.534c0-2.901.512-5.632 1.365-8.192.853-2.56 2.219-4.608 3.925-6.485 1.707-1.877 3.925-3.243 6.485-4.267 2.56-1.024 5.462-1.536 8.875-1.536zm-116.735-.34c3.072 0 5.803.34 8.021 1.194 2.219.682 4.096 1.877 5.632 3.242 1.536 1.366 2.56 2.902 3.243 4.78.683 1.876 1.024 3.924 1.024 6.143v23.04c0 .512-.17 1.024-.683 1.365-.341.342-.853.683-1.365.683h-9.557c-.512 0-1.024-.17-1.366-.683-.341-.341-.682-.853-.682-1.365v-2.219c-1.195 1.536-2.731 2.73-4.608 3.584-1.878.854-4.096 1.366-7.168 1.366-2.219 0-4.096-.342-5.803-.854-1.707-.682-3.072-1.365-4.267-2.56-1.194-1.024-2.048-2.39-2.56-3.754-.682-1.195-1.024-2.902-1.024-4.608 0-3.414 1.366-6.144 3.926-8.363 2.56-2.219 6.826-3.755 12.629-4.779l8.875-1.536c0-1.194-.342-2.218-1.024-3.072-.683-.853-1.878-1.194-3.414-1.194-1.194 0-2.048.17-2.73.512-.683.341-1.024.682-1.366.853-.512.341-.853.683-1.365.683-.299.15-.728.168-1.174.17h-9.92c-.511 0-.853-.17-1.194-.512-.341-.34-.512-.682-.341-1.194.17-1.195.682-2.39 1.536-3.584.853-1.195 2.218-2.39 3.754-3.584 1.536-1.024 3.584-1.878 5.803-2.73 2.219-.684 4.608-1.025 7.168-1.025zm279.721.17c2.73 0 5.12.512 7.168 1.365s3.755 2.048 5.29 3.584c1.366 1.536 2.39 3.413 3.243 5.461.683 2.22 1.195 4.438 1.195 6.827v6.144c-.17 2.39-.512 4.779-1.195 6.827-.682 2.218-1.877 3.925-3.242 5.46-1.366 1.537-3.072 2.732-5.291 3.585-2.048.853-4.437 1.365-7.168 1.365-2.73 0-5.12-.512-7.168-1.365s-3.755-2.048-5.29-3.584c-1.366-1.536-2.56-3.413-3.243-5.461-.683-2.048-1.195-4.438-1.195-6.827v-6.144c0-2.39.512-4.779 1.195-6.827.682-2.048 1.877-3.925 3.242-5.46 1.366-1.537 3.072-2.732 5.291-3.585 2.048-.853 4.437-1.365 7.168-1.365zM186.026 17.579c.512 0 1.024.17 1.365.682.341.342.683.854.683 1.366v50.005c0 .512-.171 1.024-.683 1.365-.341.341-.853.683-1.365.683h-9.558c-.512 0-1.024-.171-1.365-.683-.341-.341-.683-.853-.683-1.365V19.627c0-.512.17-1.024.683-1.366.341-.341.853-.682 1.365-.682zm80.042 13.823c2.389 0 4.608.342 6.656 1.024 2.048.683 3.754 1.707 5.29 3.243 1.366 1.365 2.56 3.243 3.414 5.461.853 2.22 1.194 4.78 1.194 7.851v20.65h-.341c0 .513-.17 1.025-.683 1.366-.341.341-.853.683-1.365.683h-9.557c-.512 0-1.024-.171-1.366-.683-.341-.341-.682-.853-.682-1.365V50.346c0-2.218-.512-3.925-1.536-5.29-1.024-1.366-2.73-2.048-4.95-2.048-2.218 0-3.925.682-4.949 2.048-1.024 1.365-1.536 3.072-1.536 5.29v19.286c0 .512-.17 1.024-.683 1.365-.34.341-.853.683-1.365.683h-9.557c-.512 0-1.024-.171-1.365-.683-.342-.341-.683-.853-.683-1.365V34.133c0-.512.17-1.024.683-1.365.34-.342.853-.683 1.365-.683h9.216c.512 0 1.024.17 1.365.683.341.341.683.853.683 1.365v1.707c.341-.512.853-1.024 1.536-1.536.682-.512 1.365-1.024 2.218-1.536.854-.512 1.878-.854 3.072-1.024 1.195-.342 2.56-.342 3.926-.342zm36.18-13.823c.513 0 1.025.17 1.366.682.341.342.683.854.683 1.366v50.005h.17c0 .512-.17 1.024-.682 1.365-.342.341-.854.683-1.366.683h-9.727c-.512 0-1.024-.171-1.366-.683-.341-.341-.682-.853-.682-1.365V19.627c0-.512.17-1.024.682-1.366.342-.341.854-.682 1.366-.682zm149.163 47.103c.512 0 .853.17 1.194.512.342.342.512.683.512 1.195v3.584c0 .512-.17.853-.512 1.195-.341.34-.682.512-1.194.512h-3.584c-1.195 0-1.707-.512-1.707-1.707v-3.584c0-.512.17-.853.512-1.195.341-.341.683-.512 1.195-.512zm15.53-32.597c1.195 0 1.707.512 1.707 1.707v36.18c0 1.196-.512 1.708-1.707 1.708h-1.365c-1.195 0-1.707-.512-1.707-1.707V33.792c0-1.195.512-1.707 1.707-1.707zm28.16 3.584c-3.584 0-6.485 1.195-8.704 3.413-2.219 2.22-3.413 5.632-3.584 9.899v5.803c.17 4.437 1.365 7.68 3.584 9.898 2.219 2.219 5.12 3.414 8.704 3.414 3.584 0 6.485-1.195 8.704-3.414 2.219-2.218 3.413-5.632 3.584-9.898v-2.902c.17-1.194.17-2.048 0-2.901-.17-4.437-1.365-7.68-3.584-9.899-2.219-2.218-5.12-3.413-8.704-3.413zM219.647 54.784l-6.998 1.024c-1.365.17-2.56.682-3.242 1.365-.854.683-1.195 1.365-1.195 2.39 0 1.023.341 1.706 1.024 2.047.341.342 1.195.512 2.39.512 1.194 0 2.218-.17 3.071-.512.854-.341 1.878-.853 2.56-1.536.683-.682 1.195-1.365 1.707-2.389.341-.853.683-1.877.683-2.901zm-72.875-11.606c-1.194 0-2.048.171-2.9.512a6.137 6.137 0 0 0-2.049 1.366c-.512.512-.853 1.194-1.195 1.877-.34.683-.512 1.536-.682 2.219-.17.853-.17 1.706-.17 2.73v8.704h6.996c2.39 0 4.096-.682 5.12-2.048 1.024-1.194 1.536-2.901 1.707-4.608v-4.096c-.17-1.706-.683-3.242-1.707-4.608-1.024-1.365-2.73-2.048-5.12-2.048zm185.173-1.536c-2.219 0-3.755.683-4.95 1.878-1.194 1.194-1.706 2.73-2.048 4.266h13.654a7.17 7.17 0 0 0-2.048-4.266c-.854-1.366-2.56-1.878-4.608-1.878zM467.624 17.58c.512 0 .853.17 1.194.512.342.34.512.682.512 1.194v2.902c0 .512-.17.853-.512 1.194-.34.342-.682.512-1.194.512h-2.902c-1.194 0-1.706-.512-1.706-1.706v-2.902c0-.512.17-.853.512-1.194.341-.342.682-.512 1.194-.512z"/>
  <path fill="#f7ce12" d="M11.776 0h45.056c7.85 0 14.677 3.243 19.285 8.363 4.608 5.12 6.997 12.458 6.144 20.309H37.205c-7.85 0-14.677-3.243-19.285-8.363A26.914 26.914 0 0 1 11.776 0z"/>
  <path fill="#f0572a" d="M5.12 60.928h45.056c7.85 0 15.36-3.243 21.162-8.363 5.803-5.12 9.728-12.459 10.752-20.31H37.034c-7.85 0-15.36 3.243-21.162 8.363-5.803 5.12-9.899 12.288-10.752 20.31z"/>
  <path fill="#2abde1" d="m37.034 32.256-2.56 22.528-2.56 22.528c-.853 7.85-4.949 15.018-10.751 20.309C15.36 102.74 7.85 105.983 0 105.983l2.56-22.528 2.56-22.527c.853-7.851 4.95-15.019 10.581-20.31 5.803-5.29 13.312-8.362 21.333-8.362z"/>
  <path fill="#1c519f" d="m37.034 32.256-2.56 22.528-.699 6.152-28.655-.008c.853-7.851 4.95-15.019 10.581-20.31 5.803-5.29 13.312-8.362 21.333-8.362z"/>
</svg>
