<svg xmlns="http://www.w3.org/2000/svg" viewBox="0 0 255.994 329.134">
  <path fill="#f7ce12" d="M36.57 0h139.922c24.38 0 45.58 10.07 59.891 25.97 14.31 15.9 21.73 38.69 19.08 63.071H115.542c-24.38 0-45.581-10.07-59.891-25.97C41.87 46.64 33.92 24.38 36.57 0z"/>
  <path fill="#f0572a" d="M15.9 189.212h139.922c24.38 0 47.7-10.07 65.72-25.97 18.021-15.9 30.211-38.69 33.391-63.07H115.012c-24.38 0-47.701 10.07-65.721 25.97-18.02 15.9-30.74 38.16-33.39 63.07z"/>
  <path fill="#2abde1" d="m115.012 100.171-7.95 69.961-7.95 69.961c-2.65 24.38-15.37 46.64-33.391 63.071-18.02 15.9-41.34 25.97-65.721 25.97l7.95-69.96 7.95-69.962c2.65-24.38 15.37-46.64 32.86-63.07 18.02-16.43 41.341-25.97 66.252-25.97z"/>
  <path fill="#1c519f" d="m115.012 100.171-7.95 69.961-2.172 19.108-88.99-.028c2.65-24.38 15.37-46.64 32.86-63.07 18.02-16.43 41.341-25.97 66.252-25.97z"/>
</svg>
