<svg xmlns="http://www.w3.org/2000/svg" viewBox="0 0 256 284.287">
  <path fill="#ff4300" d="m97.325 120.044 26.762-15.323a7.873 7.873 0 0 1 7.825 0l26.763 15.323a7.874 7.874 0 0 1 3.79 5.194l-.855 1.236-33.612 16.849-33.877-18.084-.284-1.052a7.878 7.878 0 0 1 3.488-4.143zM241.36 60.473l-98.9-56.626a29.1 29.1 0 0 0-28.918 0l-98.9 56.626A29.092 29.092 0 0 0 2.35 74.288l-.022.584 21.838 12.132.568-.227A23.88 23.88 0 0 1 34.96 75.112l81.172-46.476a23.888 23.888 0 0 1 23.736 0l81.172 46.476a23.887 23.887 0 0 1 11.137 14.319l1.444.94 20.794-10.592.463-2.023a29.096 29.096 0 0 0-13.52-17.283zM76.328 104.916l45.08-25.812a13.269 13.269 0 0 1 13.183 0l45.08 25.812a13.26 13.26 0 0 1 6.286 8.348l.36.392 22.204-11.254.24-.708a18.488 18.488 0 0 0-8.718-11.454l-62.854-35.987a18.49 18.49 0 0 0-18.378 0L55.958 90.24c-3.65 2.089-6.485 5.51-8.018 9.283l.28.669 21.628 12.203.525-.275a13.264 13.264 0 0 1 5.955-7.204z"/>
  <path fill="#ff5b00" d="M232.176 89.43c.574 2.06.88 4.213.88 6.409v92.609a23.883 23.883 0 0 1-12.017 20.727l-81.172 46.476a24.008 24.008 0 0 1-11.906 3.156l-.516.58-.048 24.046.601.854a29.09 29.09 0 0 0 14.461-3.846l98.9-56.626A29.102 29.102 0 0 0 256 198.56V85.727a29.05 29.05 0 0 0-1.123-7.972zm-23.415 12.264-22.804 11.57c.25 1.023.389 2.083.389 3.163v51.433c0 4.756-2.547 9.148-6.674 11.511l-45.081 25.812a13.255 13.255 0 0 1-6.716 1.75l-.673.995.234 23.538.439 1.01a18.474 18.474 0 0 0 9.314-2.44l62.854-35.988a18.496 18.496 0 0 0 9.304-16.05V106.29c0-1.57-.205-3.112-.586-4.595zm-46.297 23.543c.088.471.172 1.151.172 1.64v30.533a7.874 7.874 0 0 1-3.961 6.833l-26.762 15.323a7.861 7.861 0 0 1-3.916 1.041l-.653-1.053.118-36.803.537-.508z"/>
  <path fill="#dc2f03" d="m127.998 142.243.001 38.364c-1.35 0-2.7-.347-3.912-1.04l-26.762-15.324a7.873 7.873 0 0 1-3.962-6.833v-30.533c0-.93.164-1.837.472-2.686zm-.123 64.693a13.25 13.25 0 0 1-6.466-1.753L93.55 189.232v50.657l-24.063-12.916.167-110.545c0-1.452.272-2.972.719-4.308L47.94 99.523c-.795 2.076-1.288 4.473-1.288 6.766l-.344 108.652-11.501-6.547c-7.431-4.255-11.864-11.382-11.864-19.946v-92.61c0-3.16.629-6.23 1.791-9.061L2.35 74.287A29.055 29.055 0 0 0 0 85.728V198.56a29.1 29.1 0 0 0 14.641 25.254l98.899 56.626a29.079 29.079 0 0 0 14.458 3.846z"/>
</svg>
