<svg xmlns="http://www.w3.org/2000/svg" viewBox="0 0 511.584 265.31">
  <path fill="#92d13d" d="m7.335 14.06 6.769-6.768c10.37-10.262 27.292-9.607 36.79 1.42L144.56 117.88c8.187 9.498 8.078 23.58-.219 32.969L51.002 256.633c-9.606 10.808-26.31 11.354-36.571 1.092l-6.768-6.769c-9.17-9.17-9.826-23.798-1.529-33.842l55.894-67.03c7.642-9.17 7.751-22.379.328-31.767L5.588 47.357c-8.078-9.825-7.314-24.235 1.747-33.296z"/>
  <path fill="#49691f" d="m61.92 150.303-55.895 67.03c-8.297 9.934-7.642 24.671 1.528 33.842l6.769 6.768c10.262 10.262 26.964 9.716 36.571-1.092l20.196-22.925c7.642-15.065 11.9-32.096 11.9-50.108 0-22.27-6.55-42.904-17.685-60.261 4.148 8.515 3.056 19.104-3.385 26.746zM192.594 213.948h-21.725V87.64h21.725v13.21c3.057-8.843 14.083-15.175 29.148-15.175 12.882 0 23.69 4.585 32.423 13.755 8.843 9.061 13.21 20.306 13.21 33.843 0 13.537-4.367 24.78-13.21 34.06-8.734 9.061-19.541 13.537-32.423 13.537-15.065 0-26.091-6.332-29.148-15.174zm6.332-100.544c-5.24 5.24-7.97 12.009-7.97 19.978 0 7.97 2.73 14.628 7.97 19.978 5.458 5.24 12.117 7.969 19.978 7.969 7.86 0 14.082-2.73 19.213-7.97 5.24-5.24 7.751-12.008 7.751-19.977 0-7.97-2.51-14.629-7.75-19.978-5.023-5.24-11.463-7.97-19.214-7.97-7.751 0-14.52 2.73-19.978 7.97zm75.981-60.698h21.724v96.396c0 8.843 2.948 12.664 10.917 12.664 2.511 0 4.695-.219 6.55-.765v19.432c-2.51.765-6.004 1.092-10.37 1.092-19.214 0-28.821-9.825-28.821-29.585zm112.771 48.144V87.64h21.724v63.755c0 7.75 1.856 10.698 6.66 10.698 1.31 0 2.947-.218 4.585-.327v17.576c-2.402.873-6.004 1.419-10.699 1.419-5.24 0-9.388-.873-12.663-2.948-4.04-2.729-6.55-6.331-7.424-11.026-6.331 9.607-16.812 14.301-31.331 14.301-12.882 0-23.69-4.475-32.641-13.755-8.734-9.28-13.1-20.523-13.1-34.06 0-13.537 4.366-24.782 13.1-33.843 8.842-9.279 19.76-13.755 32.641-13.755 14.629 0 25.655 6.55 29.148 15.175zm-6.55 52.4c5.458-5.24 8.187-12.008 8.187-19.977 0-7.97-2.729-14.629-8.187-19.978-5.24-5.24-12.009-7.97-19.76-7.97-7.75 0-14.082 2.73-19.432 7.97-5.021 5.24-7.641 12.008-7.641 19.978 0 7.969 2.51 14.628 7.641 19.977 5.24 5.24 11.572 7.97 19.432 7.97 7.86 0 14.52-2.73 19.76-7.97zm47.051 43.995c2.73.874 6.114 1.42 10.153 1.42 3.494 0 6.004-.765 7.97-1.965 1.964-1.201 3.82-4.04 5.24-7.751l2.401-6.55-38.209-94.759h21.834l26.855 68.886 25.218-68.886h21.943l-40.938 106.221c-2.73 7.096-6.004 12.555-9.825 16.266-5.459 5.022-12.664 7.642-21.943 7.642-4.04 0-7.642-.546-10.699-1.42z"/>
</svg>
