<svg xmlns="http://www.w3.org/2000/svg" viewBox="0 0 511.183 86.862">
  <path fill="#1fd3ef" d="M259.959.264h19.023c16.046 23.128 32.634 47.543 49.373 71.673 16.687-24.07 32.718-48.263 48.953-71.682h19.034v86.138h-12.545v-73.77l-50.71 73.77-9.689-.016-50.675-73.753-.121 73.769h-12.643V.264"/>
  <path fill="#5d5d5d" d="M427.269 31.636s-7.796.087-10.865.087C414.564 9.995 420.68 2.367 438.58.888 458.108.183 472.301.49 489.984.884c13.119 1.021 19.025 6.153 20.724 19.226.537 4.137.591 8.402.3 12.569-.854 12.203-6.437 18.15-18.669 19.329-14.632 1.412-29.316 2.279-43.972 3.467-4.005.325-8.038.695-11.967 1.494-7.31 1.487-10.027 3.184-10.358 10.5-.118 2.607.15 6.247.15 9.464h84.833l.088 9.46h-95.074c.104-7.258-.574-15.375.49-22.636 1.458-9.941 8.075-14.782 17.308-16.421 15.199-2.698 30.667-2.594 45.991-4.031a183.4 183.4 0 0 0 10.932-1.339c2.264-.35 3.676-.06 5.984-2.533 4.293-2.453 3.693-14.28 2.629-21.99-1.328-5.665-6.801-8.043-12.162-8.245-15.752-.593-31.52-.62-47.27.028-7.796.321-11.838 4.87-12.504 13.436-.227 2.916-.168 8.974-.168 8.974"/>
  <path fill="#1fd3ef" d="M150.768 10.302 150.81.008s50.56-.018 73.156 0c15.042.013 21.78 6.647 22.054 21.73.086 4.72-.058 9.42-.66 14.134-1.238 9.695-6.293 14.973-16.072 16.542-6.451 1.033-12.928.596-19.394.626-15.566.072-31.133.023-47.38.023v33.33h-11.678v-43.63s44.333.27 63.598.024c14.728-.187 20.685-1.318 18.483-21.472-.859-7.86-3.749-10.575-12.037-10.75-13.83-.295-70.113-.263-70.113-.263M63.54 86.845c-18.193 0-36.387.045-54.58-.022C2.563 86.8-.816 83.07.168 77.36c.897-5.207 4.493-6.465 9.225-6.457 33.063.06 66.128.03 99.191.03 3.499 0 7-.08 10.496.02 5.346.153 8.427 3.082 8.485 7.897.059 4.8-2.989 7.922-8.394 7.953-18.542.104-37.087.04-55.63.042"/>
  <path fill="#5d5d5d" d="M63.54 52.94c-18.193 0-36.387.044-54.58-.023-6.397-.023-9.776-3.752-8.792-9.463.897-5.206 4.493-6.465 9.225-6.456 33.063.06 66.128.03 99.191.03 3.499 0 7-.08 10.496.02 5.346.153 8.427 3.082 8.485 7.897.059 4.8-2.989 7.922-8.394 7.952-18.542.104-37.087.04-55.63.042"/>
  <path fill="#1fd3ef" d="M63.54 17.194c-18.193 0-36.387.045-54.58-.022C2.563 17.149-.816 13.42.168 7.709c.897-5.207 4.493-6.465 9.225-6.457 33.063.06 66.128.03 99.191.03 3.499 0 7-.078 10.496.02 5.346.153 8.427 3.082 8.485 7.897.059 4.8-2.989 7.922-8.394 7.953-18.542.104-37.087.04-55.63.042"/>
</svg>
