<svg xmlns="http://www.w3.org/2000/svg" viewBox="0 0 255.999 206.978">
  <path fill="#fff" d="M59.915 163.404h112.567V19.972H59.915z"/>
  <path fill="#24c1ce" d="M61.267 103.49H0v26.131c0 43.896 35.55 77.357 79.396 77.357h73.132c11.021 0 19.954-8.95 19.954-19.982v-25.092h-34.006c-35.26 0-70.07-24.95-77.209-58.415"/>
  <path fill="#3dd0ad" d="M59.915 90.938c0-39.598 39.01-70.966 78.56-70.966h34.007C172.477 8.945 163.549 0 152.525 0H79.396C35.55 0 0 33.456 0 77.357v26.132h61.267c-.867-4.07-1.352-8.26-1.352-12.551"/>
  <path fill="#404953" d="M123.46 38.128c-10.027 0-18.155 8.124-18.155 18.156 0 10.022 8.128 18.156 18.156 18.156 10.025 0 18.156-8.134 18.156-18.156 0-10.032-8.13-18.156-18.156-18.156"/>
  <path fill="#fff" d="M116.198 43.574a5.451 5.451 0 0 0-5.446 5.442 5.457 5.457 0 0 0 5.446 5.452 5.457 5.457 0 0 0 5.447-5.452c0-3-2.444-5.442-5.447-5.442"/>
  <path fill="#404953" d="M150.695 87.149h-49.021v14.525h49.02z"/>
  <path fill="#ffda00" d="M32.684 85.333c-10.022 0-18.156 8.138-18.156 18.16-.003 10.022 8.13 18.152 18.153 18.152 10.026 0 18.156-8.134 18.156-18.152 0-10.022-8.129-18.16-18.156-18.16"/>
  <path fill="#404953" d="M230.541 45.348c-16.104-16.104-36.962-24.554-58.06-25.376v90.235l58.06 58.059c33.944-33.943 33.944-88.975 0-122.916zm-58.06 92.637v43.16c11.308-.611 22.478-4.266 32.177-10.983z"/>
  <path fill="#3a4287" d="M61.267 103.49h-1.352v59.14c0 13.516 10.955 24.424 24.47 24.377l88.097-.33v-24.773h-34.006c-35.26 0-70.07-24.95-77.209-58.415"/>
</svg>
