<svg xmlns="http://www.w3.org/2000/svg" viewBox="0 0 256.028 177.375">
  <g fill="none">
    <path fill="#ff4081" d="M153.614 177.375 51.207 0h51.207L204.82 177.375z"/>
    <path fill="#fff" fill-opacity=".2" d="m153.614 177.375 25.6-44.344 25.607 44.344z"/>
    <path fill="#fff" fill-opacity=".1" d="m128.013 133.031 25.6 44.344 25.601-44.344h-51.2z"/>
    <path fill="#000" fill-opacity=".1" d="m102.413 88.687 25.6 44.344 25.6-44.344h-51.2z"/>
    <path fill="#000" fill-opacity=".2" d="m102.413 88.687 25.6-44.343 25.6 44.343h-51.2z"/>
    <path fill="#000" fill-opacity=".3" d="m76.813 44.344 25.6 44.343 25.601-44.343h-51.2z"/>
    <path fill="#000" fill-opacity=".4" d="M76.813 44.344 102.413 0l25.601 44.344h-51.2z"/>
    <path fill="#000" fill-opacity=".5" d="m51.207 0 25.606 44.344L102.413 0z"/>
    <g>
      <path fill="#536dfe" d="M51.207 177.375 0 88.687l25.606-44.343 76.807 133.031H51.206z"/>
      <path fill="#fff" fill-opacity=".2" d="m51.207 177.375 25.606-44.344 25.6 44.344z"/>
      <path fill="#fff" fill-opacity=".1" d="m25.606 133.031 25.601 44.344 25.606-44.344z"/>
      <path d="m25.606 133.031 25.601-44.344 25.606 44.344z"/>
      <path fill="#000" fill-opacity=".1" d="m0 88.687 25.606 44.344 25.601-44.344z"/>
      <path fill="#000" fill-opacity=".2" d="m0 88.687 25.606-44.343 25.601 44.343z"/>
    </g>
    <g>
      <path fill="#303f9f" d="m51.207 88.687-25.6-44.343L51.207 0l25.606 44.344z"/>
      <path fill="#000" fill-opacity=".2" d="M76.813 44.344 51.207 0l-25.6 44.344z"/>
    </g>
    <g>
      <path fill="#3f51b5" d="m204.82 177.375-25.607-44.344 25.607-44.344 25.6 44.344z"/>
      <path fill="#000" fill-opacity=".2" d="m230.42 133.031-25.6 44.344-25.607-44.344z"/>
    </g>
    <g>
      <path fill="#7986cb" d="M230.42 133.031 153.614 0h51.207l51.207 88.687-25.607 44.344z"/>
      <path fill="#fff" fill-opacity=".2" d="m204.82 88.687 25.6 44.344 25.607-44.344z"/>
      <path fill="#fff" fill-opacity=".1" d="m204.82 88.687 25.6-44.343 25.607 44.343z"/>
      <path fill="#000" fill-opacity=".1" d="M179.213 44.344 204.82 0l25.6 44.344z"/>
      <path fill="#000" fill-opacity=".2" d="m153.614 0 25.6 44.344L204.821 0z"/>
    </g>
  </g>
</svg>
