<svg xmlns="http://www.w3.org/2000/svg" viewBox="0 0 256 349.605">
  <path fill="#169751" d="M242.174 148.647 135.403 231.58c-.104.08-.145.2-.249.286L66.33 285.332c-3.724 2.898-4.41 8.28-1.508 12.013a8.544 8.544 0 0 0 6.78 3.314 8.505 8.505 0 0 0 5.246-1.809l69.066-53.649c.112-.079.152-.2.255-.286l106.524-82.744c3.724-2.904 4.41-8.287 1.508-12.018a8.565 8.565 0 0 0-12.027-1.506zm0-48.954-69.065 53.657c-3.732 2.904-4.41 8.286-1.516 12.02a8.586 8.586 0 0 0 6.78 3.317 8.541 8.541 0 0 0 5.246-1.803l69.074-53.657c3.724-2.902 4.41-8.294 1.508-12.027-2.904-3.724-8.262-4.41-12.027-1.507zm0-48.944-69.065 53.65c-3.732 2.903-4.41 8.285-1.516 12.019a8.572 8.572 0 0 0 6.78 3.309 8.48 8.48 0 0 0 5.246-1.803l69.074-53.649c3.724-2.902 4.41-8.285 1.508-12.018a8.576 8.576 0 0 0-12.027-1.508zM135.403 280.627l-69.073 53.66c-3.724 2.885-4.41 8.277-1.508 11.999a8.549 8.549 0 0 0 6.78 3.319 8.465 8.465 0 0 0 5.246-1.81l69.066-53.642c3.73-2.894 4.41-8.287 1.515-12.01a8.577 8.577 0 0 0-12.026-1.516zm12.026-145.341a8.574 8.574 0 0 0-12.026-1.513L66.33 187.428c-3.724 2.904-4.41 8.288-1.508 12.013 1.69 2.185 4.21 3.316 6.78 3.316a8.497 8.497 0 0 0 5.246-1.803l69.066-53.649c3.73-2.902 4.41-8.285 1.515-12.02zm-1.276-37.204 106.54-82.759c3.724-2.902 4.41-8.277 1.508-12.01a8.578 8.578 0 0 0-12.027-1.516L135.403 84.74c-.096.073-.145.191-.24.27L3.304 187.428c-3.726 2.904-4.403 8.288-1.5 12.013a8.517 8.517 0 0 0 6.77 3.316 8.503 8.503 0 0 0 5.255-1.803L145.914 98.361c.104-.079.143-.199.239-.28zM8.573 157.14a8.556 8.556 0 0 0 5.255-1.804L145.914 52.728c3.73-2.904 4.41-8.279 1.515-12.011-2.903-3.74-8.271-4.419-12.026-1.515L3.303 141.81c-3.726 2.904-4.403 8.28-1.5 12.011a8.54 8.54 0 0 0 6.77 3.32zm126.83 25.583L66.33 236.38c-3.724 2.906-4.41 8.281-1.508 12.01a8.539 8.539 0 0 0 6.78 3.319 8.555 8.555 0 0 0 5.246-1.8l69.066-53.658c3.73-2.906 4.41-8.281 1.515-12.02a8.552 8.552 0 0 0-12.026-1.508z"/>
</svg>
