<svg xmlns="http://www.w3.org/2000/svg" viewBox="0 0 255.386 263.298">
  <path d="M254.71 157.721c-1.534-4.648-5.555-7.886-10.756-8.664-2.451-.366-5.26-.21-8.582.476-5.792 1.195-10.089 1.65-13.225 1.738 11.836-19.985 21.462-42.776 27.003-64.229 8.959-34.688 4.171-50.49-1.424-57.64C232.92 10.484 211.317.32 185.254.009c-13.902-.17-26.108 2.575-32.474 4.548-5.928-1.045-12.303-1.629-18.991-1.737-12.536-.2-23.613 2.533-33.078 8.15-5.241-1.772-13.65-4.27-23.362-5.865-22.843-3.75-41.252-.827-54.718 8.686C6.325 25.308-1.234 45.32.164 73.27c.443 8.874 5.408 35.873 13.224 61.48 4.492 14.717 9.282 26.94 14.237 36.33 7.027 13.314 14.545 21.156 22.986 23.971 4.732 1.577 13.328 2.68 22.37-4.849 1.145 1.388 2.673 2.767 4.703 4.047 2.576 1.626 5.728 2.954 8.874 3.74 11.342 2.836 21.965 2.127 31.028-1.847.055 1.612.098 3.152.135 4.481.06 2.158.12 4.273.199 6.25.536 13.375 1.446 23.774 4.142 31.05.148.4.347 1.01.558 1.656 1.344 4.119 3.594 11.012 9.315 16.412 5.926 5.592 13.093 7.308 19.657 7.307 3.292 0 6.433-.431 9.187-1.022 9.821-2.104 20.974-5.31 29.042-16.798 7.627-10.86 11.335-27.217 12.006-52.991.087-.728.168-1.424.245-2.088.052-.447.105-.905.16-1.361l1.796.158.463.03c10.003.457 22.233-1.665 29.744-5.153 5.935-2.755 24.954-12.795 20.476-26.352"/>
  <path fill="#336791" d="M237.608 160.358c-29.74 6.135-31.784-3.934-31.784-3.934 31.4-46.594 44.527-105.737 33.199-120.212-30.903-39.485-84.398-20.81-85.291-20.326l-.287.051c-5.876-1.22-12.452-1.946-19.842-2.066-13.457-.221-23.664 3.527-31.41 9.401 0 0-95.43-39.313-90.992 49.444C12.146 91.6 38.265 215.59 69.42 178.14c11.387-13.695 22.389-25.274 22.389-25.274 5.465 3.63 12.006 5.482 18.865 4.817l.532-.453c-.165 1.7-.09 3.364.214 5.333-8.026 8.967-5.668 10.541-21.712 13.844-16.234 3.345-6.697 9.302-.47 10.859 7.548 1.887 25.013 4.562 36.813-11.957l-.47 1.885c3.144 2.518 5.352 16.383 4.982 28.951-.37 12.57-.617 21.198 1.86 27.938 2.478 6.74 4.948 21.905 26.04 17.385 17.623-3.776 26.756-13.563 28.026-29.889.902-11.606 2.942-9.89 3.071-20.267l1.637-4.912c1.887-15.734.3-20.81 11.157-18.448l2.639.231c7.991.364 18.45-1.285 24.59-4.138 13.218-6.135 21.058-16.377 8.024-13.686h.001"/>
  <path fill="#fff" d="M107.779 81.16c-2.68-.372-5.107-.027-6.335.902-.691.524-.905 1.13-.962 1.547-.154 1.105.62 2.326 1.096 2.957 1.345 1.783 3.312 3.01 5.258 3.28.282.039.562.058.841.058 3.246 0 6.196-2.527 6.456-4.392.326-2.336-3.066-3.894-6.354-4.351M196.563 81.235c-.256-1.831-3.515-2.353-6.607-1.924-3.087.43-6.082 1.824-5.832 3.66.201 1.427 2.777 3.863 5.828 3.862.257 0 .517-.017.78-.053 2.035-.282 3.53-1.575 4.239-2.32 1.081-1.136 1.706-2.402 1.592-3.225"/>
  <path fill="#fff" d="M247.505 159.661c-1.134-3.43-4.784-4.533-10.848-3.28-18.005 3.716-24.453 1.142-26.57-.417 13.995-21.321 25.508-47.092 31.718-71.138 2.943-11.39 4.568-21.967 4.7-30.588.147-9.465-1.464-16.418-4.788-20.666-13.403-17.126-33.072-26.311-56.883-26.564-16.368-.184-30.198 4.006-32.88 5.183-5.646-1.404-11.8-2.266-18.501-2.376-12.289-.198-22.91 2.744-31.704 8.74-3.82-1.422-13.693-4.81-25.765-6.755-20.872-3.361-37.458-.815-49.294 7.57C12.566 29.378 6.046 47.263 7.31 72.53c.425 8.502 5.268 34.653 12.913 59.699 10.062 32.964 20.999 51.625 32.508 55.463 1.347.45 2.9.764 4.612.764 4.199 0 9.345-1.892 14.7-8.33a529.832 529.832 0 0 1 20.262-22.927c4.524 2.429 9.493 3.785 14.577 3.92.01.134.023.267.034.4-1.02 1.209-1.856 2.269-2.57 3.174-3.521 4.47-4.254 5.401-15.591 7.736-3.225.665-11.791 2.43-11.916 8.435-.137 6.56 10.124 9.314 11.294 9.606 4.074 1.02 7.998 1.523 11.741 1.523 9.104 0 17.114-2.992 23.517-8.78-.198 23.385.778 46.43 3.586 53.45 2.299 5.748 7.917 19.796 25.664 19.794 2.603 0 5.47-.302 8.623-.978 18.52-3.971 26.563-12.157 29.675-30.203 1.665-9.645 4.522-32.677 5.865-45.03 2.836.884 6.488 1.29 10.435 1.289 8.232 0 17.73-1.75 23.688-4.514 6.691-3.108 18.768-10.735 16.578-17.36zm-44.106-83.48c-.062 3.646-.564 6.957-1.096 10.414-.572 3.717-1.164 7.56-1.313 12.225-.148 4.54.42 9.26.968 13.825 1.108 9.22 2.245 18.711-2.157 28.077a36.506 36.506 0 0 1-1.95-4.008c-.547-1.326-1.734-3.456-3.378-6.405-6.4-11.476-21.385-38.349-13.714-49.315 2.285-3.265 8.083-6.62 22.64-4.814zm-17.644-61.787c21.334.471 38.209 8.452 50.158 23.72 9.164 11.71-.927 64.998-30.14 110.968-.289-.366-.583-.736-.887-1.116-.12-.152-.244-.306-.37-.462 7.55-12.467 6.073-24.802 4.76-35.739-.54-4.488-1.05-8.727-.92-12.708.134-4.221.692-7.84 1.231-11.34.664-4.314 1.339-8.776 1.152-14.038.14-.551.196-1.203.123-1.977-.475-5.046-6.235-20.144-17.976-33.811-6.421-7.474-15.787-15.84-28.574-21.482 5.5-1.14 13.022-2.203 21.443-2.015zM66.377 175.414c-5.9 7.093-9.975 5.734-11.315 5.288-8.73-2.913-18.86-21.364-27.79-50.625-7.728-25.318-12.245-50.776-12.602-57.915-1.129-22.578 4.344-38.313 16.268-46.77 19.404-13.76 51.306-5.524 64.125-1.346-.185.182-.376.352-.559.536C73.47 45.827 73.968 82.123 74.02 84.342c-.001.856.07 2.068.169 3.735.362 6.104 1.035 17.466-.764 30.334-1.672 11.957 2.013 23.66 10.11 32.109a36.275 36.275 0 0 0 2.618 2.468c-3.605 3.86-11.438 12.396-19.775 22.426zm22.479-29.994c-6.527-6.809-9.49-16.28-8.133-25.989 1.9-13.593 1.198-25.43.822-31.79-.053-.89-.1-1.67-.128-2.286 3.074-2.724 17.314-10.355 27.47-8.028 4.635 1.062 7.458 4.217 8.632 9.646 6.077 28.103.805 39.816-3.431 49.228-.873 1.94-1.698 3.772-2.403 5.669l-.545 1.466c-1.383 3.706-2.669 7.152-3.466 10.424-6.937-.021-13.687-2.984-18.818-8.34zm1.064 37.9c-2.025-.505-3.847-1.385-4.916-2.114.893-.42 2.482-.991 5.238-1.559 13.337-2.746 15.396-4.683 19.894-10.395 1.032-1.308 2.2-2.793 3.82-4.601 0-.001 0-.002.002-.002 2.411-2.7 3.514-2.242 5.514-1.412 1.621.67 3.2 2.702 3.84 4.938.303 1.056.643 3.06-.47 4.62-9.396 13.156-23.088 12.987-32.921 10.526zm69.8 64.953c-16.317 3.496-22.094-4.829-25.9-14.346-2.458-6.145-3.665-33.851-2.808-64.447.01-.408-.047-.801-.16-1.17a15.437 15.437 0 0 0-.455-2.163c-1.275-4.452-4.38-8.176-8.104-9.72-1.48-.612-4.197-1.738-7.46-.903.696-2.868 1.903-6.106 3.211-9.613l.55-1.476c.618-1.663 1.393-3.386 2.214-5.209 4.433-9.849 10.504-23.337 3.915-53.81-2.468-11.414-10.71-16.988-23.204-15.694-7.491.775-14.344 3.798-17.761 5.53-.735.373-1.408.733-2.035 1.083.953-11.5 4.558-32.992 18.04-46.59 8.488-8.56 19.794-12.788 33.568-12.56 27.14.444 44.544 14.372 54.366 25.978 8.463 10.002 13.047 20.077 14.876 25.51-13.755-1.398-23.11 1.317-27.853 8.097-10.317 14.747 5.645 43.372 13.316 57.128 1.406 2.522 2.62 4.7 3.003 5.627 2.498 6.054 5.732 10.095 8.093 13.046.724.904 1.426 1.78 1.96 2.546-4.166 1.202-11.649 3.976-10.967 17.847-.55 6.96-4.462 39.547-6.448 51.06-2.623 15.21-8.22 20.875-23.958 24.25zm68.103-77.937c-4.26 1.978-11.388 3.461-18.16 3.78-7.48.35-11.288-.838-12.184-1.57-.421-8.643 2.797-9.546 6.202-10.502.535-.151 1.057-.297 1.56-.473.314.255.657.508 1.032.755 6.013 3.969 16.736 4.397 31.874 1.272l.167-.034c-2.042 1.91-5.536 4.472-10.49 6.772z"/>
</svg>
