<svg viewBox="0 0 256 254.98" xmlns="http://www.w3.org/2000/svg">
  <path d="m174.01 150.63c1.3226-11.012 0.92707-12.627 9.1284-10.844l2.0822 0.18416c6.3074 0.2867 14.559-1.015 19.404-3.2667 10.434-4.8404 16.62-12.927 6.3325-10.803-23.47 4.8404-25.083-3.1035-25.083-3.1035 24.784-36.771 35.145-83.446 26.203-94.873-24.388-31.164-66.606-16.428-67.314-16.045l-0.22601 0.04395c-4.6374-0.96474-9.8252-1.5381-15.655-1.6323-10.62-0.17369-18.679 2.7854-24.792 7.4207 0 0-75.314-31.028-71.811 39.02 0.745 14.902 21.36 112.76 45.947 83.202 8.9861-10.807 17.671-19.946 17.671-19.946 4.3131 2.8649 9.4757 4.3256 14.892 3.8004l0.41854-0.35576c-0.12975 1.3414-0.0732 2.6535 0.16951 4.2063-6.3346 7.0796-4.4721 8.3227-17.137 10.928-12.812 2.641-5.2841 7.3412-0.3725 8.5696 5.96 1.4921 19.74 3.6036 29.055-9.436l-0.3704 1.4879c2.4861 1.9881 2.3166 14.287 2.6682 23.074 0.35157 8.7872 0.94171 16.986 2.7331 21.825 1.7914 4.8341 3.905 17.288 20.548 13.722 13.908-2.9842 24.541-7.2742 25.51-47.18"/>
  <path d="m143.08 206.5c-7.3621 0-12.154-2.8461-15.067-5.5959-4.3947-4.1456-6.1379-9.4883-7.178-12.68l-0.44993-1.333c-2.0969-5.6608-2.8063-13.81-3.2269-24.303-0.0628-1.5737-0.10882-3.1997-0.15695-4.922-0.0356-1.2577-0.0795-2.8356-0.14231-4.4909-2.6159 1.2535-5.4159 2.1387-8.3645 2.6452-5.1899 0.88731-10.769 0.59851-16.587-0.85591-4.1038-1.0254-8.3687-3.1516-10.798-6.4372-7.0838 6.2049-13.841 5.3615-17.522 4.1352-6.4936-2.166-12.305-8.2494-17.769-18.604-3.8903-7.3726-7.6551-16.982-11.19-28.557-6.1525-20.159-10.062-41.392-10.409-48.36-1.0924-21.821 4.7797-37.424 17.453-46.374 19.996-14.124 50.288-5.8198 61.331-2.0488 7.4186-4.4721 16.147-6.6506 26.012-6.4916 5.2987 0.085801 10.342 0.55247 15.028 1.3854 4.8864-1.536 14.542-3.7417 25.594-3.6057 20.362 0.24275 37.235 8.1783 48.793 22.949 8.2473 10.539 4.1708 32.667 1.0045 44.922-4.4512 17.233-12.255 35.568-21.839 51.526 2.6033 0.0188 6.3723-0.29507 11.734-1.4 10.577-2.1848 13.667 3.4864 14.507 6.0249 3.363 10.185-11.255 17.88-15.815 19.996-5.8428 2.7142-15.367 4.3654-23.168 4.0075l-0.34111-0.023-2.0488-0.17997-0.20299 1.7076-0.19463 1.6721c-0.52317 20.224-3.4132 33.031-9.3586 41.496-6.23 8.871-14.892 11.359-22.52 12.994-2.597 0.55876-4.9618 0.80151-7.1068 0.80151zm-15.49-73.609c4.7525 3.8024 5.169 10.957 5.5394 24.33 0.046 1.6679 0.09 3.2479 0.14859 4.7232 0.17997 4.4658 0.6006 14.925 2.2371 19.345 0.23229 0.62363 0.43947 1.2598 0.65711 1.9295 1.8248 5.5917 2.7414 8.3938 10.633 6.7029 6.6276-1.4188 10.032-2.6933 12.698-6.4895 3.8757-5.5206 6.0437-16.618 6.4413-32.996l8.0611 0.19672-8.0067-0.96055 0.23438-1.9985c0.76802-6.5878 1.3205-11.351 5.7256-14.498 3.5325-2.5259 7.5609-2.281 10.769-1.7035-3.5241-2.6598-4.4993-5.7863-4.7588-7.067l-0.67176-3.3106 1.8876-2.8042c10.882-16.147 19.858-35.992 24.625-54.448 4.8969-18.964 3.4027-29.036 1.9106-30.941-19.768-25.261-54.052-14.833-57.631-13.646l-0.60689 0.32646-3.0344 0.56712-1.5549-0.32228c-4.2838-0.8894-9.0426-1.3812-14.147-1.4649-8.0171-0.13393-14.484 1.76-19.786 5.7842l-3.679 2.7896-4.2712-1.76c-9.12-3.7292-35.915-11.227-50.053-1.2138-7.8476 5.5582-11.422 16.451-10.627 32.374 0.26159 5.2569 3.8359 25.156 9.7248 44.459 8.1427 26.674 15.542 35.532 18.631 36.564 0.53782 0.18207 1.9378-0.90614 3.3295-2.5761 9.053-10.888 17.662-19.964 18.024-20.347l4.6688-4.9116 5.644 3.7501c2.2748 1.513 4.7839 2.3689 7.3621 2.5301l13.462-11.481-1.9504 19.902c-0.0439 0.44784-0.0649 1.0547 0.11091 2.1848l0.58596 3.7731-2.5384 2.8419-0.29298 0.32855 7.3956 3.4153z"/>
  <path d="m210.97 125.9c-23.472 4.8404-25.085-3.1056-25.085-3.1056 24.782-36.771 35.141-83.449 26.201-94.873-24.39-31.164-66.609-16.426-67.314-16.043l-0.22811 0.03976c-4.6374-0.96055-9.8252-1.5339-15.658-1.6281-10.62-0.17369-18.677 2.7833-24.79 7.4186 0 0-75.316-31.026-71.813 39.023 0.745 14.902 21.36 112.76 45.947 83.202 8.9861-10.807 17.669-19.946 17.669-19.946 4.3131 2.8649 9.4758 4.3256 14.89 3.8004l0.42063-0.35576c-0.12974 1.3414-0.0712 2.6535 0.16742 4.2063-6.3325 7.0796-4.4742 8.3227-17.135 10.928-12.814 2.641-5.2862 7.3412-0.37041 8.5696 5.9579 1.4921 19.74 3.6036 29.053-9.436l-0.3725 1.4879c2.4819 1.9881 4.2252 12.931 3.9322 22.85s-0.4876 16.729 1.4691 22.049c1.9567 5.3176 3.905 17.288 20.55 13.722 13.908-2.9821 21.115-10.706 22.12-23.589 0.71152-9.1598 2.3208-7.8058 2.4234-15.997l1.2933-3.8778c1.4879-12.418 0.23647-16.424 8.8061-14.559l2.0822 0.18207c6.3074 0.28879 14.561-1.015 19.406-3.2667 10.434-4.8425 16.622-12.927 6.3367-10.803z" fill="#336791"/>
  <path d="m143.93 201.53c-13.877 2e-3 -18.271-10.987-20.071-15.48-2.6305-6.5836-3.1997-32.14-2.6138-53.098 0.0419-1.4858 1.2703-2.6598 2.7645-2.6138 1.4837 0.0418 2.6535 1.2786 2.6138 2.7645-0.67594 24.173 0.28461 46.077 2.2308 50.949 3.0407 7.6007 7.6509 14.249 20.691 11.458 12.378-2.6556 17.014-7.3496 19.077-19.316 1.5863-9.1849 4.7169-35.312 5.102-40.469 0.11091-1.4816 1.3958-2.595 2.8816-2.4819 1.4816 0.11091 2.5928 1.4021 2.4819 2.8816-0.4018 5.3657-3.5199 31.445-5.1669 40.983-2.438 14.136-8.7391 20.548-23.25 23.66-2.4631 0.52527-4.7044 0.76174-6.7406 0.76174zm-75.235-53.667c-1.3247 2e-3 -2.5259-0.24066-3.566-0.58805-9.0133-3.0072-17.598-17.685-25.516-43.631-6.027-19.751-9.8462-40.364-10.181-47.063-0.99403-19.86 4.1226-33.912 15.203-41.764 21.923-15.534 58.805-0.74082 60.364-0.10464 1.3749 0.56294 2.0341 2.1325 1.4712 3.5074-0.56085 1.3728-2.1325 2.0341-3.5053 1.4712v0.0021c-0.35575-0.1465-35.722-14.314-55.231-0.47924-9.4757 6.7197-13.826 19.201-12.933 37.101 0.28252 5.6419 3.8506 25.763 9.955 45.761 7.0691 23.16 15.116 37.777 22.074 40.096 1.0903 0.36622 4.4135 1.4733 9.1681-4.2398 8.94-10.756 17.154-19.341 17.235-19.427 1.0275-1.0736 2.731-1.107 3.8024-0.0816 1.0715 1.0275 1.1091 2.731 0.08161 3.8024-0.08161 0.0837-8.1699 8.5403-16.984 19.144-4.1749 5.0183-8.1783 6.4916-11.439 6.4916zm117.02-22.662c-0.5169 0-1.0401-0.14858-1.5005-0.46039-1.2326-0.82871-1.5591-2.5008-0.72826-3.7334 25.052-37.175 33.845-82.09 26.314-91.713-9.4799-12.113-22.867-18.441-39.786-18.803-12.529-0.27205-22.488 2.9277-24.114 3.4864l-0.40808 0.16532c-1.6365 0.5148-2.8921-0.38296-3.3651-1.4314-0.56085-1.241-0.10045-2.708 1.0631-3.4132l0.72407-0.29716-0.0356 0.010464 0.0377-0.012556c2.7644-1.0108 12.874-4.0452 25.399-3.9008 18.723 0.19671 34.188 7.4186 44.723 20.879 4.9848 6.3702 4.9953 21.046 0.0314 40.264-5.0602 19.592-14.582 40.651-26.121 57.773-0.51899 0.77221-1.3686 1.1866-2.2329 1.1866zm1.2786 17.208c-4.2775 0-8.1113-0.6006-10.407-1.9776-2.3606-1.4126-2.8105-3.3358-2.8691-4.3549-0.64455-11.309 5.5959-13.278 8.7789-14.176-0.44365-0.66966-1.0756-1.4586-1.7265-2.2727-1.8562-2.3187-4.3968-5.4954-6.3555-10.246-0.30554-0.74082-1.2682-2.4673-2.3815-4.4637-6.0332-10.817-18.585-33.328-10.522-44.857 3.7334-5.3343 11.162-7.4333 22.111-6.2614-3.2207-9.8127-18.56-40.51-54.952-41.107-10.947-0.18416-19.925 3.183-26.669 9.9926-15.103 15.254-14.555 42.852-14.548 43.126 0.03976 1.4858-1.1342 2.7205-2.618 2.7582-1.4858 0.04604-2.7205-1.1322-2.7582-2.618-0.03348-1.2242-0.59851-30.185 16.103-47.052 7.8162-7.8937 18.104-11.79 30.579-11.587 23.288 0.38296 38.273 12.219 46.747 22.084 9.233 10.748 13.762 22.605 14.134 26.561 0.27833 2.9423-1.8332 3.5325-2.2601 3.6183l-0.96892 0.02302c-10.746-1.7202-17.639-0.52736-20.49 3.5471-6.1337 8.7642 5.7403 30.057 10.811 39.152 1.2954 2.3187 2.2287 3.995 2.6556 5.0308 1.6658 4.0389 3.838 6.7531 5.5833 8.9337 1.534 1.919 2.8649 3.5806 3.342 5.5352 0.21973 0.38715 3.3546 5.0204 21.948 1.1824 4.6604-0.96055 7.4542-0.13812 8.308 2.4443 1.6804 5.0832-7.7472 11.01-12.966 13.435-4.6835 2.1743-12.148 3.5492-18.608 3.5492zm-7.9125-6.7762c0.58805 0.59642 3.5388 1.6218 9.6515 1.3603 5.4326-0.23439 11.165-1.4168 14.605-3.0114 4.3988-2.0425 7.3328-4.3256 8.8542-5.8847l-0.84545 0.15486c-11.889 2.4547-20.297 2.1283-24.991-0.97311-0.33692-0.21973-0.63618-0.44993-0.91032-0.67594-0.50853 0.2009-0.97938 0.33274-1.3142 0.42691-2.664 0.74709-5.418 1.5193-5.0497 8.6031zm-76.796 15.023c-2.9528 0-6.0605-0.3997-9.2351-1.197-3.2876-0.82243-8.8333-3.2981-8.7475-7.3642 0.09417-4.5642 6.7301-5.9328 9.2309-6.4476 9.0237-1.8583 9.6118-2.6033 12.433-6.1839 0.82243-1.0443 1.8458-2.3438 3.2395-3.9029 2.0718-2.3166 4.3361-3.4927 6.7301-3.4927 1.6658 0 3.0344 0.56712 3.9364 0.93962 2.8796 1.1928 5.282 4.0766 6.2697 7.5295 0.89149 3.1139 0.46668 6.1107-1.197 8.4378-5.4578 7.6446-13.293 11.681-22.66 11.681zm-12.173-8.3289c0.81197 0.62571 2.4359 1.4628 4.2419 1.9169 2.7498 0.68641 5.4159 1.0359 7.9313 1.0359 7.6635 0 13.814-3.1746 18.284-9.4297 0.93126-1.3058 0.65293-2.9612 0.40389-3.8338-0.52317-1.8248-1.8206-3.4843-3.1579-4.041-0.72617-0.30135-1.3268-0.53155-1.8792-0.53155-0.29717 0-1.1991 0-2.7205 1.7014-1.2849 1.4356-2.2078 2.6075-3.026 3.6434-3.5116 4.4595-5.1208 5.9726-15.572 8.126-2.5489 0.52737-3.8568 1.0589-4.5056 1.4126zm20.68-12.406c-1.3058 0-2.4506-0.95218-2.6556-2.281-0.0691-0.44575-0.113-0.89568-0.13393-1.3477-6.8515-0.12975-13.46-3.0679-18.476-8.3038-6.343-6.6192-9.2309-15.789-7.9209-25.158 1.423-10.175 0.89149-19.157 0.60479-23.982-0.07952-1.3414-0.13603-2.3103-0.13184-2.9821 0.0042-0.84964 0.02093-3.1077 7.5651-6.931 2.6828-1.3603 8.0632-3.7334 13.939-4.3424 9.7394-1.0045 16.158 3.3316 18.079 12.213 5.1857 23.982 0.41017 34.59-3.0763 42.335-0.65083 1.4398-1.264 2.8042-1.7537 4.1226l-0.43319 1.1656c-1.8416 4.9388-3.4341 9.2058-2.9444 12.395 0.22392 1.4691-0.78267 2.8398-2.2496 3.0679zm-23.319-63.313 0.10673 1.9211c0.29716 5.012 0.84964 14.341-0.64874 25.048-1.0798 7.7263 1.2807 15.27 6.4769 20.693 4.1059 4.2858 9.5134 6.6506 15.07 6.6506h0.1151c0.62363-2.6222 1.6553-5.3887 2.7666-8.3708l0.4311-1.1573c0.55456-1.49 1.2033-2.9319 1.8897-4.4574 3.3567-7.4584 7.5337-16.742 2.7226-38.993-0.95427-4.4051-3.2646-6.9561-7.0629-7.7974-7.8016-1.7244-19.427 4.1435-21.867 6.4644zm20.981 3.6246-0.6864-0.04813c-1.5172-0.21136-3.0512-1.1677-4.0996-2.5594-0.36832-0.4876-0.97102-1.4377-0.85173-2.2831 0.1716-1.241 1.6825-1.9818 4.0452-1.9818 0.52945 0 1.0777 0.03976 1.6323 0.1151 1.2891 0.17997 2.4882 0.55247 3.3734 1.0464 1.534 0.85801 1.647 1.8123 1.5779 2.3082-0.19043 1.3665-2.371 3.4027-4.9911 3.4027zm69.639-6.705c0.13184 0.95218-1.7411 3.4906-4.1875 3.8296-2.4443 0.33902-4.5349-1.6428-4.6688-2.5949-0.12975-0.95009 1.7453-1.9985 4.1896-2.3375 2.4443-0.3432 4.5328 0.15486 4.6667 1.1029zm-4.7504 4.3151c-2.3543 0-4.3821-1.8311-4.5495-3.0177-0.19252-1.4251 2.1534-2.5091 4.5726-2.844 0.53155-0.07534 1.0589-0.11301 1.5674-0.11301 2.0864 0 3.4676 0.61316 3.6057 1.5988 0.09 0.64037-0.39971 1.626-1.2452 2.5133-0.55666 0.58596-1.7286 1.6009-3.3232 1.8206zm1.5884-5.079c-0.46667 0-0.95217 0.03558-1.444 0.10254-2.4317 0.33692-3.8778 1.3142-3.8087 1.8374 0.0816 0.5734 1.6323 2.2434 3.6622 2.2434l0.50016-0.03558c1.3268-0.18625 2.3229-1.0505 2.7979-1.5507 0.745-0.78476 1.0422-1.5214 1.0066-1.7746-0.0439-0.32855-0.93963-0.82243-2.7142-0.82243zm6.6841 55.358c-0.51481 0-1.0338-0.14649-1.4942-0.45412-1.2347-0.82871-1.5653-2.4966-0.73872-3.7313 5.7256-8.5529 4.6772-17.277 3.6643-25.711-0.43319-3.5953-0.87894-7.3098-0.76175-10.878 0.11719-3.6685 0.58177-6.6945 1.0338-9.6243 0.53363-3.4676 1.038-6.7469 0.82871-10.635-0.0816-1.4816 1.0568-2.7477 2.5405-2.8314 1.4879-0.07952 2.7498 1.0589 2.8314 2.5426 0.23856 4.4449-0.33274 8.1532-0.88522 11.742-0.42691 2.7686-0.86847 5.6315-0.97519 8.9777-0.10255 3.1579 0.30134 6.5125 0.72826 10.062 1.0798 8.9714 2.2999 19.14-4.5349 29.346-0.51899 0.7743-1.3707 1.1949-2.2371 1.1949z" fill="#fff"/>
 <path d="m23.206 27.45" fill="none" stroke="#fff" stroke-linecap="round" stroke-linejoin="round"/>
 <path d="m0 207.37c2.2873-0.38087 5.2778-0.70734 9.0886-0.70734 4.6772 0 8.1071 1.0882 10.284 3.047 2.0132 1.7411 3.2102 4.4072 3.2102 7.6739 0 3.319-0.98148 5.9307-2.8314 7.8351-2.5029 2.6661-6.5836 4.0264-11.209 4.0264-1.4147 0-2.7205-0.0544-3.8066-0.32647v14.693h-4.7358zm4.7358 17.683c1.0338 0.27205 2.3396 0.38087 3.9175 0.38087 5.711 0 9.1953-2.7749 9.1953-7.8351 0-4.8425-3.4278-7.1822-8.6512-7.1822-2.0676 0-3.6455 0.16323-4.4616 0.38087zm46.521 5.169c0 9.7394-6.749 13.986-13.115 13.986-7.1277 0-12.623-5.2234-12.623-13.55 0-8.8145 5.7675-13.983 13.058-13.983 7.5651-2e-3 12.68 5.4954 12.68 13.548zm-20.894 0.27205c0 5.7675 3.319 10.12 7.9983 10.12 4.5705 0 7.9962-4.2984 7.9962-10.229 0-4.4616-2.2287-10.12-7.8895-10.12s-8.105 5.2234-8.105 10.229zm26.278 8.2159c1.4147 0.92497 3.9175 1.9044 6.3116 1.9044 3.4823 0 5.1146-1.7411 5.1146-3.9175 0-2.2852-1.3582-3.5367-4.8969-4.8425-4.7337-1.6867-6.9645-4.2984-6.9645-7.4542 0-4.244 3.4278-7.7262 9.0865-7.7262 2.6661 0 5.0078 0.76174 6.4769 1.6323l-1.197 3.4822c-1.0338-0.65292-2.9382-1.5235-5.3866-1.5235-2.8293 0-4.4072 1.6323-4.4072 3.5911 0 2.1764 1.58 3.1558 5.0078 4.4616 4.5705 1.7411 6.9101 4.0264 6.9101 7.9439 0 4.6249-3.5911 7.8895-9.8482 7.8895-2.8837 0-5.5498-0.70733-7.3998-1.7955zm27.969-29.003v7.563h6.8536v3.6455h-6.8536v14.201c0 3.2646 0.92288 5.1146 3.5911 5.1146 1.2514 0 2.1764-0.16323 2.7749-0.32646l0.21764 3.5911c-0.92288 0.38087-2.394 0.65293-4.2419 0.65293-2.2308 0-4.0284-0.70734-5.1711-2.0132-1.3582-1.4147-1.8499-3.7543-1.8499-6.8557v-14.364h-4.0808v-3.6455h4.0808v-6.3116zm34.605 7.5651c-0.11092 1.9044-0.21764 4.0264-0.21764 7.2366v15.289c0 6.0395-1.197 9.7394-3.7543 12.027-2.5573 2.394-6.2572 3.1558-9.5762 3.1558-3.1558 0-6.638-0.76174-8.7621-2.1764l1.197-3.6455c1.7411 1.0882 4.4616 2.0676 7.7262 2.0676 4.8969 0 8.488-2.5573 8.488-9.1953v-2.9382h-0.10882c-1.4691 2.4485-4.2984 4.4072-8.3792 4.4072-6.5292 0-11.208-5.5498-11.208-12.843 0-8.9233 5.8219-13.983 11.861-13.983 4.5726 0 7.0754 2.394 8.218 4.5704h0.10882l0.21764-3.9719zm-4.9513 10.392c0-0.81616-0.0544-1.5235-0.27205-2.1764-0.87057-2.7749-3.2102-5.0602-6.6925-5.0602-4.5726 0-7.8351 3.8631-7.8351 9.9571 0 5.169 2.6117 9.4674 7.7807 9.4674 2.9382 0 5.6042-1.85 6.638-4.8969 0.27205-0.81615 0.38296-1.7411 0.38296-2.5573v-4.7337zm12.349-2.1764c0-3.1014-0.0544-5.7675-0.21764-8.2159h4.1917l0.16114 5.169h0.21764c1.197-3.5367 4.0808-5.7675 7.291-5.7675 0.54411 0 0.92289 0.0544 1.3582 0.16323v4.516c-0.4876-0.10882-0.97939-0.16323-1.6302-0.16323-3.3734 0-5.7696 2.5573-6.4204 6.1484-0.10882 0.65292-0.21764 1.4147-0.21764 2.2308v14.038h-4.7337zm19.916 5.8219c0.10882 6.4748 4.2419 9.1409 9.03 9.1409 3.4299 0 5.4954-0.59851 7.291-1.3602l0.81615 3.4278c-1.6867 0.76174-4.5705 1.6323-8.76 1.6323-8.1071 0-12.95-5.3322-12.95-13.276s4.6793-14.203 12.351-14.203c8.5968 0 10.882 7.563 10.882 12.406 0 0.97938-0.10883 1.7411-0.16324 2.2308h-18.497zm14.038-3.4278c0.0523-3.047-1.2535-7.7807-6.638-7.7807-4.8425 0-6.9645 4.4616-7.3475 7.7807z" stroke-width="2.0927"/>
 <path d="m170.63 237.84c2.122 1.3058 5.2234 2.394 8.488 2.394 4.8425 0 7.6718-2.5573 7.6718-6.2572 0-3.4278-1.9588-5.3866-6.9101-7.291-5.9851-2.122-9.685-5.2234-9.685-10.392 0-5.7131 4.7337-9.9571 11.861-9.9571 3.7543 0 6.4748 0.87057 8.1071 1.7955l-1.3058 3.8631c-1.197-0.65292-3.6455-1.7411-6.9645-1.7411-5.0057 0-6.9101 2.9926-6.9101 5.4954 0 3.4278 2.2287 5.1146 7.291 7.0733 6.2028 2.3961 9.3586 5.3866 9.3586 10.773 0 5.6587-4.1896 10.556-12.841 10.556-3.5367 0-7.3998-1.0338-9.3606-2.3396zm57.729 11.154c-4.9513-1.3058-9.7938-2.7749-14.038-4.244-0.76174-0.27205-1.5235-0.5441-2.2308-0.5441-8.7056-0.32646-16.16-6.7469-16.16-18.554 0-11.753 7.1822-19.316 17.085-19.316 9.9571 0 16.434 7.7263 16.434 18.554 0 9.413-4.3528 15.452-10.447 17.574v0.21764c3.6455 0.92498 7.6174 1.7955 10.719 2.3396zm-3.9175-23.886c0-7.3454-3.8066-14.91-11.589-14.91-7.9983 0-11.916 7.3998-11.861 15.346-0.0544 7.7807 4.244 14.8 11.644 14.8 7.5651 0 11.807-6.8557 11.807-15.235zm11.152-18.173h4.7358v32.701h15.67v3.972h-20.406z" fill="#336791"/>
</svg>
