<svg xmlns="http://www.w3.org/2000/svg" viewBox="0 0 256 246.873">
  <path fill="#468bcc" d="M52.313 0 153.6 131.34H16.696L0 74.573z"/>
  <path fill="#4ba8ff" d="m128 23.374 25.6 107.965L0 74.574 52.313 0z"/>
  <path fill="#468bcc" d="M203.687 0 153.6 131.34 52.313 0 128 23.374z"/>
  <path fill="#468bcc" d="m256 74.574-102.4 56.765L128 23.374 203.687 0z"/>
  <path fill="#4ba8ff" d="M239.304 131.34H153.6L203.687 0 256 74.574z"/>
  <path fill="#468bcc" d="m128 229.287 25.6-97.948L256 74.574l-16.696 56.765z"/>
  <path fill="#468bcc" d="M16.696 131.34h222.608L128 229.286z"/>
  <path fill="#468bcc" d="m0 74.574 153.6 56.765-25.6 97.948-111.304-97.948z"/>
  <path fill="#468bcc" d="M153.6 131.34H16.696L0 74.573z"/>
  <path fill="#fff" d="m66.783 194.783 11.13-35.618 18.922 12.244z"/>
  <path fill="#082744" d="m77.063 158.9-11.13 35.617c-.26.833.708 1.504 1.396.968l30.052-23.373a.89.89 0 0 0-.062-1.45l-18.922-12.244a.89.89 0 0 0-1.334.482zm1.35 1.65L95.3 171.474 68.48 192.334z"/>
  <path fill="#fff" d="m189.217 194.783-11.13-35.618-18.922 12.244z"/>
  <path fill="#082744" d="m177.603 158.418-18.922 12.243a.89.89 0 0 0-.063 1.45l30.053 23.374c.688.536 1.656-.135 1.396-.968l-11.13-35.617a.89.89 0 0 0-1.334-.482zm-.016 2.131 9.932 31.785-26.818-20.859z"/>
  <path fill="#4ba8ff" d="M152.487 15.805 128 94.61 66.783 61.217l36.73-45.412z"/>
  <path fill="#468bcc" d="M189.217 61.217 128 94.61l-24.487-78.804h48.974z"/>
  <path fill="#166ebf" d="M189.217 155.826 128 94.61l24.487-78.804 36.73 45.412z"/>
  <path fill="#0b457f" d="M152.487 180.313 128 94.609l61.217-33.392v94.61z"/>
  <path fill="#0c3861" d="M128 245.983V94.609l61.217 61.217-36.73 24.487z"/>
  <path fill="#166ebf" d="m128 245.983-24.487-65.67L128 94.609l24.487 85.704v53.426z"/>
  <path fill="#4ba8ff" d="m103.513 180.313-36.73-24.487L128 94.61v151.374l-24.487-12.244z"/>
  <path fill="#166ebf" d="M66.783 61.217 128 94.61l-24.487 85.704-36.73-24.487z"/>
  <path fill="#468bcc" d="m128 94.609-61.217 61.217V61.217z"/>
  <path fill="#082744" d="M152.487 14.915h-48.974a.89.89 0 0 0-.692.33L66.09 60.657a.89.89 0 0 0-.199.56v94.61l.002.051a.89.89 0 0 0 .395.689l36.334 24.223v52.95c0 .336.19.645.492.796l24.487 12.243a.89.89 0 0 0 .796 0l24.487-12.243.042-.023a.89.89 0 0 0 .45-.774v-52.95l36.334-24.222a.89.89 0 0 0 .397-.74v-94.61a.89.89 0 0 0-.198-.56l-36.73-45.412a.89.89 0 0 0-.693-.33zm-.425 1.78 36.265 44.838v93.816l-36.334 24.223-.043.03a.89.89 0 0 0-.353.711v52.876L128 244.987l-23.597-11.798v-52.876l-.002-.052a.89.89 0 0 0-.394-.689L67.673 155.35V61.532l36.265-44.836z"/>
  <path fill="#fff" d="M80.14 106.852V86.817l28.938 8.905zM175.86 106.852V86.817l-28.938 8.905z"/>
</svg>
