<svg xmlns="http://www.w3.org/2000/svg" viewBox="0 0 255.845 329.677">
  <g fill-opacity=".9">
    <path fill="#6ccb94" d="M18.752 0 0 91.459l53.782 50.743-34.943 62.289L89.94 329.677h77.785l71.406-125.186-35.245-62.29 51.96-50.742L238.738 0 165.6 97.41H92.372z"/>
    <path fill="#5dbd85" d="m18.839 204.49 34.942-62.288 75.044 62.29z"/>
    <path fill="#64c48c" d="m53.782 142.203 75.044 62.29L92.371 97.41z"/>
    <path fill="#6ecc95" d="m239.13 204.49-35.246-62.288-75.056 62.29z"/>
    <path fill="#5ebe86" d="M89.94 329.677h77.784l-38.897-125.186z"/>
    <path fill="#76d29c" d="m203.884 142.203-75.056 62.29L165.599 97.41z"/>
    <path fill="#74d09b" d="m238.74 0 17.102 91.46-51.958 50.743-38.286-44.793z"/>
    <path fill="#64c48c" d="m128.825 204.49 38.9 125.187 71.405-125.186z"/>
    <path fill="#58b880" d="M128.825 204.49 89.928 329.678 18.84 204.491z"/>
    <path fill="#5fbf87" d="M18.752 0 0 91.46l53.782 50.744L92.37 97.41z"/>
    <path fill="#6ecc95" d="m128.825 204.49 36.773-107.079H92.371z"/>
  </g>
</svg>
