<svg xmlns="http://www.w3.org/2000/svg" viewBox="0 0 512 131.638">
  <path fill="#212735" fill-rule="evenodd" d="m120.438 71.34 9.712 9.731a4.134 4.134 0 0 1 1.203 2.91v5.475c0 14.666-1.525 19.987-4.388 25.351a29.871 29.871 0 0 1-12.41 12.44c-5.354 2.863-10.663 4.391-25.3 4.391H63.552a.823.823 0 0 1-.578-1.404v.004l9.709-9.73a4.099 4.099 0 0 1 2.903-1.207h11.88c10.978 0 14.956-1.144 18.971-3.298a22.404 22.404 0 0 0 9.31-9.328c2.11-3.955 3.252-7.879 3.29-18.47V71.922a.823.823 0 0 1 1.401-.58zM1.4 63.11l9.716 9.73a4.134 4.134 0 0 1 1.203 2.91v11.907c0 11.002 1.141 14.992 3.291 19.014a22.404 22.404 0 0 0 9.306 9.328c4.015 2.154 7.997 3.298 18.974 3.298h15.702a.823.823 0 0 1 .585 1.404l-9.716 9.73a4.096 4.096 0 0 1-2.9 1.207H42.1c-14.638 0-19.944-1.528-25.297-4.395a29.87 29.87 0 0 1-12.414-12.44C1.565 109.513.043 104.266 0 90.058L0 63.69a.823.823 0 0 1 1.4-.581zM193.51 36.66c3.828 0 7.273.71 10.333 2.13 3.06 1.415 5.668 3.364 7.825 5.832a25.216 25.216 0 0 1 4.9 8.724c1.115 3.346 1.671 6.948 1.671 10.798a32.16 32.16 0 0 1-1.773 10.798 27.125 27.125 0 0 1-4.955 8.725 22.923 22.923 0 0 1-7.668 5.833 22.605 22.605 0 0 1-9.81 2.128c-2.366 0-4.45-.256-6.26-.765a21.03 21.03 0 0 1-4.798-1.963 19.205 19.205 0 0 1-3.547-2.56 18.327 18.327 0 0 1-2.403-2.673.314.314 0 0 0-.314.311v26.415a4.79 4.79 0 0 1-4.79 4.79h-2.936a4.79 4.79 0 0 1-4.79-4.79V42.761a4.79 4.79 0 0 1 4.79-4.79h3.173a3.926 3.926 0 0 1 3.928 3.927v3.715c0 .117.095.208.208.208 1.81-3.2 4.242-5.521 7.306-6.98a22.813 22.813 0 0 1 9.91-2.18zM99.917 50.77l9.712 9.74a4.124 4.124 0 0 1 1.2 2.911v31.206c0 9.087-7.35 16.455-16.419 16.455H84.015a.823.823 0 0 1-.593-1.39v-.004l12.652-13.27a8.175 8.175 0 0 0 1.913-2.998c.349-.929.527-1.914.526-2.907V51.35a.823.823 0 0 1 1.404-.581zM21.914 83.605h-.004l13.245 12.681a8.178 8.178 0 0 0 2.99 1.913c.9.343 1.88.53 2.904.53h39.075a.823.823 0 0 1 .578 1.404l-9.72 9.734a4.108 4.108 0 0 1-2.9 1.203h-31.14a16.437 16.437 0 0 1-16.417-16.455V84.197a.823.823 0 0 1 1.39-.592zM496 36.661c3.203 0 6.417.637 9.654 1.91 1.232.485 2.687 1.352 4.362 2.599a4.79 4.79 0 0 1 .6 7.156l-1.938 2.022a4.79 4.79 0 0 1-6.414.46 13.033 13.033 0 0 0-1.357-.95A9.533 9.533 0 0 0 496 48.44c-2.293 0-4.348.44-6.154 1.31a14.59 14.59 0 0 0-4.644 3.488 14.912 14.912 0 0 0-2.922 5.017 17.716 17.716 0 0 0-.99 5.887c0 2.04.329 4 .99 5.89a14.79 14.79 0 0 0 2.926 5.018 14.59 14.59 0 0 0 4.64 3.492c1.806.87 3.861 1.309 6.154 1.309 1.949 0 3.759-.42 5.426-1.255.34-.171.706-.402 1.097-.69a4.79 4.79 0 0 1 6.421.676l1.902 2.135a4.563 4.563 0 0 1-1.123 6.984 29.18 29.18 0 0 1-9.756 3.547c-1.532.253-2.852.381-3.967.381-3.639.02-7.25-.645-10.64-1.964a25.37 25.37 0 0 1-8.663-5.562 26.437 26.437 0 0 1-5.789-8.67c-1.426-3.382-2.139-7.145-2.139-11.288 0-4.142.713-7.905 2.14-11.288a26.437 26.437 0 0 1 5.788-8.67 25.37 25.37 0 0 1 8.662-5.561A28.912 28.912 0 0 1 496 36.66zm-176.443 0c3.338 0 6.644.6 9.913 1.8 1.185.435 2.505 1.239 3.964 2.413a4.79 4.79 0 0 1 .274 7.222l-1.558 1.466a4.79 4.79 0 0 1-6.12.37c-2.542-1.866-4.806-2.802-6.784-2.802-1.67 0-3.305.439-4.907 1.31-1.598.873-2.399 2.288-2.399 4.252 0 1.602.658 2.764 1.982 3.492 1.324.724 2.991 1.346 5.01 1.854a397.95 397.95 0 0 0 6.52 1.58 25.089 25.089 0 0 1 6.523 2.508c2.018 1.126 3.686 2.67 5.01 4.637 1.32 1.963 1.981 4.65 1.981 8.07 0 3.126-.643 5.759-1.93 7.905a15.508 15.508 0 0 1-5.01 5.182 21.673 21.673 0 0 1-6.937 2.834c-2.533.577-5.124.87-7.722.874-3.895 0-7.478-.585-10.75-1.745-1.28-.457-2.816-1.37-4.608-2.746a4.79 4.79 0 0 1-.435-7.225l1.298-1.273a4.79 4.79 0 0 1 6.52-.175c.76.669 1.418 1.185 1.974 1.547 1.843 1.203 4.088 1.802 6.728 1.802.907 0 1.847-.11 2.82-.329a8.931 8.931 0 0 0 2.713-1.09 6.621 6.621 0 0 0 2.037-1.908c.519-.764.782-1.653.782-2.67 0-1.82-.662-3.166-1.985-4.036-1.32-.874-2.992-1.584-5.01-2.129a105.114 105.114 0 0 0-6.52-1.524 24.525 24.525 0 0 1-6.52-2.293 13.877 13.877 0 0 1-5.01-4.417c-1.32-1.89-1.981-4.509-1.981-7.851 0-2.907.574-5.434 1.719-7.58a15.595 15.595 0 0 1 4.541-5.288 19.22 19.22 0 0 1 6.472-3.057 28.444 28.444 0 0 1 7.405-.98zm130.958 1.31a4.79 4.79 0 0 1 4.79 4.79v42.767a4.79 4.79 0 0 1-4.79 4.79h-2.936a4.79 4.79 0 0 1-4.79-4.79V42.761a4.79 4.79 0 0 1 4.79-4.79zm-41.22-1.31c3.338 0 6.153.582 8.45 1.745a14.934 14.934 0 0 1 5.583 4.797c1.426 2.037 2.45 4.417 3.076 7.145.628 2.728.94 5.653.94 8.776v26.4a4.79 4.79 0 0 1-4.79 4.79h-2.94a4.79 4.79 0 0 1-4.791-4.79V60.653c0-1.598-.139-3.144-.417-4.633a11.376 11.376 0 0 0-1.463-3.927 7.54 7.54 0 0 0-2.815-2.67c-1.185-.657-2.713-.983-4.593-.983-1.945 0-3.598.38-4.955 1.145a9.822 9.822 0 0 0-3.338 3.053A12.828 12.828 0 0 0 395.36 57a21.72 21.72 0 0 0-.574 4.962v23.567a4.79 4.79 0 0 1-4.79 4.79h-2.94a4.79 4.79 0 0 1-4.79-4.79v-26.4c0-3.273-.658-5.873-1.982-7.8-1.324-1.923-3.51-2.889-6.574-2.889-2.085 0-3.844.366-5.27 1.09a10.273 10.273 0 0 0-3.547 2.947 11.92 11.92 0 0 0-2.036 4.253 19.793 19.793 0 0 0-.622 5.017v23.782a4.79 4.79 0 0 1-4.794 4.79h-2.94a4.79 4.79 0 0 1-4.79-4.79V42.761a4.792 4.792 0 0 1 4.79-4.79h2.315a4.792 4.792 0 0 1 4.79 4.79v3.39a20.484 20.484 0 0 1 5.584-6.601c2.468-1.927 5.788-2.889 9.964-2.889 7.862 0 13.076 3.236 15.65 9.705 1.81-3.342 4.07-5.796 6.783-7.36 2.714-1.562 5.946-2.345 9.705-2.345zm-150.255 0c.764 0 1.514.073 2.241.22a2.786 2.786 0 0 1 2.246 2.731v7.182a2.614 2.614 0 0 1-3.08 2.574c-.98-.18-1.975-.271-2.972-.274-2.925 0-5.27.563-7.043 1.69-1.773 1.13-3.13 2.416-4.07 3.875a13.164 13.164 0 0 0-1.88 4.359c-.314 1.455-.467 2.545-.467 3.273v23.237a4.79 4.79 0 0 1-4.79 4.79h-2.94a4.79 4.79 0 0 1-4.79-4.79V42.761a4.79 4.79 0 0 1 4.79-4.79h3.583a4.145 4.145 0 0 1 4.147 4.142v3.939c0 .113.091.208.208.208 1.39-3.057 3.372-5.42 5.946-7.09 2.574-1.671 5.532-2.509 8.87-2.509zm22.547 1.31a4.792 4.792 0 0 1 4.79 4.79v42.767a4.79 4.79 0 0 1-4.79 4.79h-2.94a4.79 4.79 0 0 1-4.79-4.79V42.761a4.79 4.79 0 0 1 4.79-4.79zM47.339 20.568a.823.823 0 0 1 .592 1.389L35.275 35.232a8.165 8.165 0 0 0-1.908 2.998c-.351.93-.53 1.914-.53 2.907v39.162a.823.823 0 0 1-1.401.578l-9.712-9.741a4.117 4.117 0 0 1-1.2-2.907V37.023c0-9.086 7.35-16.454 16.419-16.454zm143.668 27.87c-2.296 0-4.351.44-6.157 1.31a14.59 14.59 0 0 0-4.644 3.488 14.912 14.912 0 0 0-2.922 5.017 17.719 17.719 0 0 0-.987 5.887c0 2.04.329 4 .987 5.89.662 1.891 1.635 3.566 2.925 5.018a14.59 14.59 0 0 0 4.644 3.492c1.807.87 3.858 1.309 6.154 1.309 2.297 0 4.348-.44 6.154-1.31a14.59 14.59 0 0 0 4.644-3.491c1.288-1.452 2.26-3.127 2.926-5.017.658-1.89.987-3.85.987-5.888 0-2.036-.33-4-.987-5.887a14.912 14.912 0 0 0-2.926-5.02 14.59 14.59 0 0 0-4.644-3.489c-1.806-.874-3.857-1.309-6.154-1.309zM114.555 4.395a29.871 29.871 0 0 1 12.41 12.44c2.824 5.29 4.346 10.537 4.387 24.746l.001 26.366a.822.822 0 0 1-1.404.582v-.004l-9.708-9.727a4.117 4.117 0 0 1-1.203-2.91V43.982c0-11.003-1.145-14.992-3.291-19.015a22.404 22.404 0 0 0-9.31-9.328c-4.011-2.153-7.993-3.298-18.97-3.298H71.76a.823.823 0 0 1-.578-1.404l9.709-9.73A4.099 4.099 0 0 1 83.795 0h5.46c14.637 0 19.946 1.528 25.3 4.395zM67.8 0a.823.823 0 0 1 .578 1.404l-9.708 9.73a4.105 4.105 0 0 1-2.904 1.207h-11.88c-10.977 0-14.96 1.145-18.974 3.298a22.404 22.404 0 0 0-9.31 9.328c-2.147 4.023-3.291 8.012-3.291 19.015V59.72a.823.823 0 0 1-1.4.581l-9.705-9.73A4.116 4.116 0 0 1 0 47.661v-5.475C0 27.52 1.525 22.2 4.388 16.836a29.871 29.871 0 0 1 12.41-12.44C22.079 1.567 27.315.042 41.492 0zm26.61 20.569c9.068 0 16.418 7.368 16.418 16.454v10.418a.823.823 0 0 1-1.39.592l-13.237-12.68a8.192 8.192 0 0 0-2.995-1.913 8.176 8.176 0 0 0-2.903-.53H51.229a.823.823 0 0 1-.581-1.405l9.723-9.733a4.102 4.102 0 0 1 2.9-1.203zM280.01 12.34c2.296 0 4.227.746 5.792 2.234 1.565 1.492 2.347 3.364 2.347 5.617 0 2.256-.782 4.128-2.347 5.616-1.565 1.492-3.496 2.238-5.792 2.238-2.293 0-4.19-.782-5.686-2.344a7.708 7.708 0 0 1-2.242-5.51c0-2.106.746-3.942 2.242-5.507 1.499-1.561 3.393-2.344 5.686-2.344zm168.932 0c2.296 0 4.227.746 5.792 2.234 1.565 1.492 2.348 3.364 2.348 5.617 0 2.256-.783 4.128-2.348 5.616-1.565 1.492-3.496 2.238-5.792 2.238s-4.19-.782-5.686-2.344a7.708 7.708 0 0 1-2.245-5.51c0-2.106.75-3.942 2.245-5.507 1.495-1.561 3.39-2.344 5.686-2.344z"/>
</svg>
