<svg xmlns="http://www.w3.org/2000/svg" viewBox="0 0 255.445 256">
  <g fill="none" fill-rule="evenodd">
    <path fill="#e55638" d="M222.777 8.548a58.09 58.09 0 0 1 24.135 24.192c5.568 10.432 8.533 20.778 8.533 49.3v50.099a1.6 1.6 0 0 1-2.73 1.13v-.007l-18.88-18.915a8.007 8.007 0 0 1-2.34-5.66V85.531c0-21.397-2.226-29.155-6.4-36.977a43.57 43.57 0 0 0-18.105-18.14c-7.719-4.145-15.382-6.368-36.223-6.414L139.556 24a1.6 1.6 0 0 1-1.124-2.73l18.88-18.923A7.97 7.97 0 0 1 162.958 0h10.617c28.466 0 38.791 2.972 49.202 8.548zM183.602 40c17.635 0 31.929 14.329 31.929 32v20.26a1.6 1.6 0 0 1-2.703 1.152L187.086 68.75a15.93 15.93 0 0 0-5.824-3.719A15.9 15.9 0 0 0 175.616 64h-75.99a1.6 1.6 0 0 1-1.13-2.73l18.908-18.93a7.977 7.977 0 0 1 5.64-2.34z"/>
    <path fill="#f4c942" d="m234.219 138.738 18.887 18.922a8.04 8.04 0 0 1 2.34 5.66v10.646c0 28.523-2.966 38.87-8.534 49.302a58.09 58.09 0 0 1-24.135 24.192c-10.41 5.568-20.736 8.54-49.202 8.54h-49.984a1.6 1.6 0 0 1-1.123-2.73v.006l18.88-18.922a7.97 7.97 0 0 1 5.646-2.347h23.104c21.347 0 29.084-2.226 36.892-6.414a43.57 43.57 0 0 0 18.105-18.14c4.174-7.823 6.4-15.581 6.4-36.978v-30.607a1.6 1.6 0 0 1 2.724-1.13zM194.31 98.73l18.887 18.944a8.02 8.02 0 0 1 2.333 5.66v60.686c0 17.671-14.294 32-31.93 32h-20.216a1.6 1.6 0 0 1-1.152-2.702v-.007l24.604-25.806a15.898 15.898 0 0 0 3.72-5.831 16 16 0 0 0 1.023-5.654v-76.16a1.6 1.6 0 0 1 2.731-1.13z"/>
    <path fill="#7b8fea" d="m2.724 122.73 18.894 18.923a8.04 8.04 0 0 1 2.34 5.66v23.155c0 21.397 2.218 29.155 6.4 36.977a43.57 43.57 0 0 0 18.097 18.14c7.808 4.19 15.552 6.415 36.9 6.415h30.535a1.6 1.6 0 0 1 1.138 2.73l-18.895 18.923A7.966 7.966 0 0 1 92.494 256H81.87c-28.466 0-38.784-2.972-49.194-8.548A58.09 58.09 0 0 1 8.533 223.26C3.021 212.933.06 202.69.001 174.81L0 123.86a1.6 1.6 0 0 1 2.724-1.13zm39.893 39.858h-.007l25.756 24.662a15.904 15.904 0 0 0 5.817 3.719A15.792 15.792 0 0 0 79.83 192h75.99a1.6 1.6 0 0 1 1.123 2.73l-18.901 18.93a7.99 7.99 0 0 1-5.64 2.34H71.845a31.963 31.963 0 0 1-31.93-32v-20.26a1.6 1.6 0 0 1 2.703-1.152z"/>
    <path fill="#d97ee8" d="M92.06 40a1.6 1.6 0 0 1 1.152 2.702L68.601 68.516a15.879 15.879 0 0 0-3.712 5.83A16 16 0 0 0 63.858 80v76.16a1.6 1.6 0 0 1-2.724 1.124L42.247 138.34a8.007 8.007 0 0 1-2.332-5.654V72c0-17.671 14.293-32 31.929-32zm39.794-40a1.6 1.6 0 0 1 1.124 2.73l-18.88 18.923A7.983 7.983 0 0 1 108.452 24H85.348c-21.348 0-29.092 2.226-36.9 6.414a43.57 43.57 0 0 0-18.105 18.14c-4.13 7.74-6.353 15.418-6.4 36.307v31.278a1.6 1.6 0 0 1-2.723 1.13L2.347 98.347A8.004 8.004 0 0 1 0 92.687V82.04C0 53.518 2.965 43.17 8.533 32.74A58.09 58.09 0 0 1 32.668 8.548C42.975 3.028 53.198.06 81.015 0z"/>
  </g>
</svg>
