<svg xmlns="http://www.w3.org/2000/svg" viewBox="0 0 256 309.14">
  <path d="M254.314 235.52 148.002 9.753A17.063 17.063 0 0 0 133.473.038 16.87 16.87 0 0 0 117.94 8.09L2.633 194.85a17.465 17.465 0 0 0 .193 18.748l56.375 87.301a18.13 18.13 0 0 0 20.363 7.489l163.598-48.392a17.929 17.929 0 0 0 11.26-9.722 17.542 17.542 0 0 0-.1-14.76zm-23.802 9.684-138.823 41.05c-4.235 1.26-8.3-2.411-7.419-6.685l49.597-237.484c.928-4.443 7.064-5.147 9.003-1.035l91.815 194.973a6.63 6.63 0 0 1-4.18 9.18z"/>
</svg>
