<?xml version="1.0" encoding="UTF-8" standalone="no"?>
<!DOCTYPE svg PUBLIC "-//W3C//DTD SVG 1.1//EN" "http://www.w3.org/Graphics/SVG/1.1/DTD/svg11.dtd">
<svg width="100%" height="100%" viewBox="0 0 550 150" version="1.1" xmlns="http://www.w3.org/2000/svg" xmlns:xlink="http://www.w3.org/1999/xlink" xml:space="preserve" xmlns:serif="http://www.serif.com/" style="fill-rule:evenodd;clip-rule:evenodd;stroke-linejoin:round;stroke-miterlimit:2;">
    <g transform="matrix(4.51901,0,0,4.51901,17.3769,21.4242)">
        <path d="M21.939,5.27C21.211,4.183 20,2.941 18.784,2.137C16.258,0.407 13.332,-0.207 10.744,0.061C8.045,0.352 5.734,1.369 3.834,3.065C2.074,4.637 0.912,6.559 0.4,8.392C-0.118,10.225 -0.049,11.922 0.136,13.2C0.331,14.497 0.977,16.129 0.977,16.129C1.109,16.442 1.292,16.569 1.387,16.622C1.859,16.88 2.634,16.653 3.229,15.985C3.259,15.944 3.275,15.887 3.259,15.839C3.093,15.2 3.033,14.719 2.974,14.347C2.839,13.611 2.779,12.378 2.869,11.238C2.914,10.621 3.034,9.961 3.244,9.269C3.65,7.902 4.506,6.475 5.844,5.289C7.285,4.012 9.133,3.223 10.89,3.019C11.506,2.945 12.678,2.874 14.089,3.222C14.39,3.297 15.682,3.634 17.064,4.57C18.07,5.254 18.88,6.098 19.438,6.933C20.006,7.73 20.623,9.074 20.804,10.058C21.06,11.178 21.06,12.365 20.878,13.521C20.653,14.679 20.247,15.805 19.616,16.796C19.181,17.564 18.279,18.579 17.213,19.341C16.252,20.017 15.155,20.505 14.029,20.775C13.459,20.91 12.887,20.996 12.301,21.015C11.78,21.031 11.089,21.015 10.604,20.933C9.883,20.818 9.733,20.634 9.568,20.384C9.568,20.384 9.453,20.204 9.421,19.722C9.432,15.317 9.43,16.493 9.43,14.206C9.43,13.56 9.409,12.974 9.415,12.442C9.445,11.569 9.519,10.969 10.143,10.319C10.594,9.84 11.225,9.551 11.92,9.551C12.131,9.551 12.858,9.561 13.497,10.092C14.182,10.664 14.297,11.446 14.324,11.655C14.48,12.878 13.672,13.789 13.362,14.02C12.978,14.308 12.633,14.448 12.4,14.53C11.904,14.696 11.359,14.744 10.869,14.712C10.794,14.707 10.726,14.756 10.711,14.831L10.546,15.687C10.385,16.337 10.746,16.575 10.956,16.659C11.627,16.866 12.222,16.952 12.927,16.899C14.008,16.823 15.074,16.397 15.979,15.553C16.749,14.821 17.188,13.918 17.338,12.908C17.488,11.787 17.293,10.58 16.782,9.558C16.22,8.431 15.25,7.49 13.972,6.975C12.681,6.467 11.654,6.449 10.33,6.787L10.315,6.792C9.455,7.088 8.719,7.453 7.953,8.244C7.428,8.79 6.998,9.451 6.736,10.197C6.476,10.949 6.406,11.51 6.394,12.382C6.378,13.028 6.409,13.628 6.409,14.19L6.409,17.891C6.409,19.075 6.369,19.28 6.409,19.889C6.431,20.293 6.487,20.75 6.664,21.241C6.846,21.782 7.228,22.337 7.49,22.593C7.857,22.984 8.324,23.298 8.783,23.493C9.834,23.96 11.261,24.034 12.418,23.989C13.184,23.96 13.954,23.854 14.709,23.675C16.219,23.316 17.669,22.663 18.944,21.757C20.311,20.794 21.499,19.48 22.155,18.364C22.996,17.038 23.54,15.55 23.823,14.021C24.078,12.489 24.066,10.918 23.724,9.409C23.454,8.009 22.733,6.473 21.901,5.233L21.939,5.27Z" style="fill:rgb(31,128,231);fill-rule:nonzero;"/>
    </g>
    <g transform="matrix(0.709153,0,0,0.709153,137.001,12.5654)">
        <path d="M438.215,47.287C435.652,47.314 433.164,48.388 431.012,50.392C428.926,52.333 427.777,54.681 427.762,57.001C427.758,57.931 427.781,58.06 428.102,58.708C428.609,59.744 429.418,60.345 430.684,60.634C431.512,60.822 432.953,60.755 434.051,60.474C437.008,59.712 440.113,57.38 441.523,54.857C442.262,53.544 442.723,51.65 442.578,50.548C442.441,49.47 441.816,48.458 440.949,47.908C440.203,47.431 439.512,47.275 438.215,47.287ZM482.27,66.595C481.836,66.595 481.383,66.619 480.91,66.666C476.949,67.06 473.691,68.416 469.922,71.248C468.738,72.134 466.141,74.447 466.055,74.689C465.922,75.052 465.918,74.623 466.039,73.826C466.41,71.416 466.016,69.642 464.84,68.419C464.254,67.806 462.836,67.091 461.719,66.845C458.953,66.232 455.043,66.822 451.273,68.423C449.52,69.166 443.578,72.279 442.766,72.876C442.559,73.033 442.566,73.056 443.223,74.201L443.891,75.373L444.773,75.017C446.211,74.443 447.18,74.224 448.418,74.205C449.402,74.193 449.578,74.22 450.047,74.455C450.746,74.806 451.047,75.369 451.047,76.341C451.047,77.517 450.715,78.564 449.617,80.876C447.656,85.017 445.613,89.63 444.625,92.154L444.012,93.716L443.141,94.529C439.594,97.841 437.035,99.744 434.07,101.275C431.383,102.662 429.426,103.201 427.07,103.208C425.887,103.212 425.527,103.177 424.914,102.982C423.941,102.673 423.465,102.33 423.176,101.732C422.969,101.306 422.949,101.138 423,100.388C423.074,99.404 423.457,97.994 423.961,96.853C424.152,96.419 426.168,92.017 428.434,87.072C430.699,82.13 432.742,77.541 432.969,76.884C433.477,75.412 433.793,73.896 433.867,72.568C434.043,69.56 432.648,67.689 429.621,66.861C428.547,66.568 425.848,66.544 424.336,66.818C422.859,67.083 421.063,67.576 419.813,68.064C418.113,68.724 411.445,72.166 410.484,72.876C410.273,73.033 410.281,73.056 410.941,74.208L411.613,75.38L412.523,75.013C414.254,74.318 415.992,74.021 417.133,74.232C417.906,74.373 418.219,74.587 418.535,75.193C418.75,75.607 418.773,75.763 418.723,76.505C418.691,76.966 418.551,77.751 418.406,78.244C418.254,78.763 416.27,83.275 413.684,88.97C411.227,94.376 409.07,99.232 408.887,99.767C407.898,102.666 407.785,105.212 408.555,107.447C409.59,110.455 412.078,112.47 415.387,112.99C417.004,113.24 418.895,113.146 421.445,112.677C424.785,112.06 428.254,110.685 431.75,108.58C434.957,106.654 437.098,105.005 440.387,101.931L441.867,100.544L441.668,101.509C441.125,104.162 441.059,106.302 441.477,107.958C442.164,110.689 444.148,112.689 446.543,113.06C447.281,113.173 447.367,113.169 447.813,112.955C448.305,112.716 448.777,112.13 449.441,110.943C449.617,110.626 452.281,104.97 455.355,98.376C458.434,91.783 461.117,86.083 461.324,85.708C463.301,82.115 466.605,78.72 469.5,77.302C472.516,75.822 476.277,75.404 478.309,76.314C480.027,77.083 480.633,78.966 479.766,80.822C479.344,81.724 478.324,82.744 477.094,83.494L476.195,84.044L476.676,85.216C476.941,85.861 477.191,86.431 477.234,86.478C477.355,86.619 480.105,85.642 481.246,85.06C483.266,84.021 484.84,82.837 486.461,81.13C488.418,79.064 489.441,76.927 489.762,74.236C490.012,72.13 489.348,70.255 487.809,68.712C486.375,67.275 484.609,66.591 482.27,66.595ZM390.137,66.599C389.379,66.599 388.773,66.673 388.496,66.822C388.129,67.017 387.836,67.474 387.836,67.861C387.836,67.994 387.926,68.271 388.035,68.47C388.434,69.216 389.328,73.314 389.641,75.833C389.824,77.294 389.82,81.384 389.637,82.615C388.672,89.064 385.992,94.638 381.922,98.666C379.305,101.251 376.602,102.646 373.273,103.123C369.98,103.595 367.871,102.876 366.934,100.962C366.676,100.443 366.648,100.279 366.656,99.283C366.668,97.634 367.074,95.779 367.926,93.509C368.133,92.951 369.371,90.251 370.672,87.505C374.094,80.263 374.254,79.884 374.852,77.564C375.512,74.998 375.555,73.369 375.004,71.767C374.074,69.06 371.32,66.88 368.52,66.63C366.988,66.494 366.684,66.931 363.652,73.583C359.523,82.662 356.539,89.119 355.664,90.869C353.098,95.994 350.574,99.541 348.297,101.22C346.508,102.541 344.211,103.275 341.902,103.275C339,103.271 337.418,102.228 336.879,99.955C336.523,98.447 336.91,95.236 337.734,92.869C338.488,90.701 338.93,89.982 343.621,83.283C346.57,79.072 347.262,77.748 347.859,75.15C348.617,71.833 348.273,69.529 346.816,68.212C346.262,67.712 344.902,67.072 343.934,66.857C341.297,66.271 337.676,66.744 334.051,68.154C332.344,68.818 325.855,72.166 324.875,72.888C324.664,73.044 324.668,73.064 325.277,74.212L325.898,75.376L327.082,74.908C328.023,74.537 328.438,74.427 329.105,74.384C330.711,74.287 331.867,74.751 332.32,75.689C332.516,76.087 332.543,76.279 332.492,76.884C332.414,77.826 332.254,78.123 330.477,80.564C327.172,85.107 326.043,86.849 324.996,89.029C323.512,92.123 322.859,94.884 322.688,98.81C322.539,102.087 323.098,104.865 324.32,106.947C325.184,108.423 326.859,110.041 328.504,110.99C330.238,111.99 332.938,112.787 335.504,113.056C336.711,113.185 339.613,113.099 340.988,112.892C342.488,112.669 344.191,112.232 345.512,111.74C347.469,111.005 351.414,108.923 353.887,107.318C354.469,106.943 354.984,106.626 355.031,106.611C355.078,106.599 355.414,107.041 355.777,107.587C357.004,109.447 358.762,110.955 360.691,111.802C362.813,112.736 364.703,113.091 367.543,113.099C369.781,113.107 371.004,112.982 373.332,112.521C380.664,111.064 389.359,106.4 394.672,101.072C399.891,95.837 403.094,88.978 403.723,81.669C404.051,77.849 403.238,73.935 401.633,71.603C400.246,69.587 397.563,67.919 394.391,67.111C393.086,66.775 391.398,66.591 390.137,66.599ZM522.445,66.658C518.246,66.673 513.934,67.533 509.793,69.173C498.938,73.482 489.949,82.599 487.016,92.283C486.262,94.763 485.816,97.994 485.953,99.951C486.258,104.271 487.887,107.154 491.293,109.427C494.344,111.455 498.102,112.564 503.648,113.064C504.926,113.177 509.832,113.111 511.457,112.958C519.535,112.193 526.957,109.681 533.75,105.416C540.07,101.447 545.652,95.826 550.09,88.958L550.883,87.728L549.844,86.884C549.27,86.419 548.754,86.037 548.703,86.037C548.648,86.037 548.211,86.478 547.727,87.009C541.055,94.376 533.516,99.783 526,102.595C518.781,105.294 510.23,105.607 505.621,103.341C504.141,102.615 503.07,101.623 502.09,100.068L501.887,99.74L503.02,99.623C509.277,98.978 518.906,94.912 524.629,90.49C526.656,88.919 529.133,86.451 530.352,84.775C532.875,81.318 533.992,76.72 533.121,73.388C532.484,70.97 530.914,68.974 528.809,67.904C527.051,67.013 525.184,66.646 522.445,66.658ZM516.977,75.9C518.457,75.892 518.984,76.044 519.582,76.658C520.281,77.376 520.457,78.388 520.121,79.853C519.273,83.583 515.352,87.951 510.453,90.623C508.758,91.544 506.641,92.275 504.715,92.603C504.215,92.689 503.371,92.794 502.84,92.833L501.875,92.908L501.949,92.599C502.82,88.99 505.152,84.232 507.43,81.412C508.398,80.212 510.418,78.318 511.41,77.669C513.273,76.455 514.969,75.916 516.977,75.9Z" style="fill:rgb(55,141,233);fill-rule:nonzero;"/>
    </g>
    <g transform="matrix(0.709153,0,0,0.709153,138.001,25.8478)">
        <path d="M123.676,47.428C116.566,47.51 110.793,49.615 106.375,53.779C101.957,57.939 99.684,63.654 99.551,70.904C99.684,78.15 101.957,83.865 106.375,88.029C110.793,92.189 116.566,94.295 123.676,94.377C130.785,94.295 136.559,92.189 140.977,88.029C145.395,83.865 147.668,78.15 147.801,70.904C147.668,63.654 145.395,57.939 140.977,53.779C136.559,49.615 130.785,47.51 123.676,47.428ZM178.773,47.428C171.664,47.51 165.895,49.615 161.477,53.779C157.059,57.939 154.781,63.654 154.648,70.904C154.781,78.15 157.059,83.865 161.477,88.029C165.895,92.189 171.664,94.295 178.773,94.377C181.895,94.385 184.883,93.771 187.75,92.502C190.617,91.232 193.031,89.271 194.949,86.627L186.727,80.502C185.707,82.029 184.414,83.197 182.852,84.029C181.285,84.857 179.523,85.291 177.523,85.303C173.879,85.225 170.871,83.865 168.523,81.228C166.18,78.592 164.98,75.15 164.898,70.904C164.973,66.658 166.195,63.213 168.574,60.576C170.953,57.943 174.027,56.58 177.824,56.502C179.656,56.51 181.285,56.822 182.699,57.451C184.113,58.084 185.32,59.002 186.301,60.178L193.875,53.978C191.902,51.576 189.531,49.881 186.773,48.877C184.02,47.873 181.348,47.396 178.773,47.428ZM260.477,47.428C255.926,47.436 251.977,48.654 248.648,51.103C245.324,53.549 243.586,57.15 243.426,61.928C243.535,65.568 244.625,68.252 246.699,69.978C248.773,71.705 251.172,72.994 253.898,73.803C256.629,74.611 259.027,75.439 261.102,76.326C263.176,77.217 264.266,78.658 264.375,80.627C264.293,82.205 263.559,83.381 262.176,84.154C260.789,84.924 259.242,85.307 257.551,85.303C255.883,85.291 254.309,84.916 252.801,84.178C251.289,83.439 250.012,82.416 248.977,81.076L241.977,88.779C244.094,90.725 246.387,92.146 248.898,93.053C251.414,93.959 254.125,94.389 257,94.377C261.75,94.389 265.777,93.197 269.074,90.779C272.375,88.357 274.082,84.654 274.227,79.678C274.117,75.853 273.063,73.076 271.023,71.326C268.988,69.58 266.629,68.322 263.949,67.576C261.27,66.834 258.91,66.061 256.875,65.252C254.84,64.443 253.758,63.076 253.648,61.127C253.754,59.471 254.512,58.271 255.926,57.553C257.336,56.834 258.785,56.486 260.273,56.502C261.523,56.502 262.816,56.74 264.148,57.228C265.484,57.713 266.563,58.471 267.398,59.478L274.176,52.076C272.262,50.42 270.137,49.236 267.801,48.502C265.461,47.768 263.02,47.412 260.477,47.428ZM299.301,47.428C294.75,47.436 290.801,48.654 287.477,51.103C284.148,53.549 282.41,57.15 282.25,61.928C282.359,65.568 283.449,68.252 285.523,69.978C287.598,71.705 289.996,72.994 292.727,73.803C295.453,74.611 297.852,75.439 299.926,76.326C302,77.217 303.09,78.658 303.199,80.627C303.117,82.205 302.387,83.381 301,84.154C299.613,84.924 298.066,85.307 296.375,85.303C294.707,85.291 293.137,84.916 291.625,84.178C290.113,83.439 288.836,82.416 287.801,81.076L280.801,88.779C282.918,90.725 285.211,92.146 287.727,93.053C290.238,93.959 292.949,94.389 295.824,94.377C300.574,94.389 304.602,93.197 307.898,90.779C311.199,88.357 312.906,84.654 313.051,79.678C312.941,75.853 311.887,73.076 309.852,71.326C307.813,69.58 305.453,68.322 302.773,67.576C300.094,66.834 297.738,66.061 295.699,65.252C293.664,64.443 292.582,63.076 292.477,61.127C292.578,59.471 293.336,58.271 294.75,57.553C296.164,56.834 297.609,56.486 299.102,56.502C300.348,56.502 301.641,56.74 302.977,57.228C304.309,57.713 305.387,58.471 306.227,59.478L313,52.076C311.086,50.42 308.965,49.236 306.625,48.502C304.285,47.768 301.844,47.412 299.301,47.428ZM16.051,48.553L16.051,93.252L25.898,93.252L25.898,75.826L33.102,75.826C37.906,75.912 41.84,74.936 44.898,72.904C47.961,70.873 49.523,67.283 49.625,62.127C49.496,56.92 47.84,53.322 44.625,51.353C41.41,49.381 37.418,48.455 32.648,48.553L16.051,48.553ZM58.449,48.553L58.449,93.252L68.301,93.252L68.301,75.377L73.148,75.377L82.5,93.252L94.301,93.252L82.949,74.377C86.113,73.76 88.516,72.365 90.148,70.178C91.785,67.99 92.594,65.303 92.602,62.127C92.469,57.006 90.801,53.436 87.602,51.428C84.398,49.424 80.457,48.467 75.75,48.553L58.449,48.553ZM203.301,48.553L203.301,93.252L234.801,93.252L234.801,84.154L213.148,84.154L213.148,75.076L232.523,75.076L232.523,65.978L213.148,65.978L213.148,57.654L233.648,57.654L233.648,48.553L203.301,48.553ZM123.676,56.502C127.926,56.58 131.297,57.943 133.773,60.576C136.25,63.213 137.52,66.658 137.574,70.904C137.52,75.15 136.25,78.592 133.773,81.228C131.297,83.865 127.926,85.225 123.676,85.303C119.422,85.225 116.051,83.865 113.574,81.228C111.098,78.592 109.828,75.15 109.773,70.904C109.828,66.658 111.098,63.213 113.574,60.576C116.051,57.943 119.422,56.58 123.676,56.502ZM25.898,56.877L30.949,56.877C32.961,56.807 34.844,57.115 36.602,57.779C38.355,58.443 39.285,59.893 39.398,62.127C39.328,64.174 38.598,65.596 37.227,66.377C35.852,67.162 34.258,67.541 32.449,67.502L25.898,67.502L25.898,56.877ZM68.301,56.877L74.727,56.877C76.617,56.814 78.348,57.135 79.898,57.803C81.453,58.471 82.281,59.877 82.375,62.053C82.254,64.389 81.336,65.834 79.602,66.377C77.863,66.92 76.02,67.15 74.102,67.053L68.301,67.053L68.301,56.877Z" style="fill:rgb(98,166,238);fill-rule:nonzero;"/>
    </g>
</svg>
