<svg xmlns="http://www.w3.org/2000/svg" style="clip-rule:evenodd;fill-rule:evenodd;stroke-linejoin:round;stroke-miterlimit:2" viewBox="0 0 510.288 108.455">
  <path d="M21.939 5.27C21.211 4.183 20 2.941 18.784 2.137 16.258.407 13.332-.207 10.744.061c-2.699.291-5.01 1.308-6.91 3.004C2.074 4.637.912 6.559.4 8.392c-.518 1.833-.449 3.53-.264 4.808.195 1.297.841 2.929.841 2.929.132.313.315.44.41.493.472.258 1.247.031 1.842-.637.03-.041.046-.098.03-.146-.166-.639-.226-1.12-.285-1.492-.135-.736-.195-1.969-.105-3.109a9.06 9.06 0 0 1 .375-1.969c.406-1.367 1.262-2.794 2.6-3.98 1.441-1.277 3.289-2.066 5.046-2.27a8.971 8.971 0 0 1 3.199.203 9.598 9.598 0 0 1 2.975 1.348 8.9 8.9 0 0 1 2.374 2.363c.568.797 1.185 2.141 1.366 3.125.256 1.12.256 2.307.074 3.463-.225 1.158-.631 2.284-1.262 3.275-.435.768-1.337 1.783-2.403 2.545a9.363 9.363 0 0 1-3.184 1.434 8.686 8.686 0 0 1-1.728.24c-.521.016-1.212 0-1.697-.082-.721-.115-.871-.299-1.036-.549 0 0-.115-.18-.147-.662.011-4.405.009-3.229.009-5.516 0-.646-.021-1.232-.015-1.764.03-.873.104-1.473.728-2.123a2.429 2.429 0 0 1 1.777-.768c.211 0 .938.01 1.577.541.685.572.8 1.354.827 1.563.156 1.223-.652 2.134-.962 2.365a3.484 3.484 0 0 1-.962.51 4.08 4.08 0 0 1-1.531.182.15.15 0 0 0-.158.119l-.165.856c-.161.65.2.888.41.972.671.207 1.266.293 1.971.24a4.934 4.934 0 0 0 3.052-1.346 4.471 4.471 0 0 0 1.359-2.645 5.877 5.877 0 0 0-.556-3.35 5.366 5.366 0 0 0-2.81-2.583c-1.291-.508-2.318-.526-3.642-.188l-.015.005c-.86.296-1.596.661-2.362 1.452a5.426 5.426 0 0 0-1.217 1.953c-.26.752-.33 1.313-.342 2.185-.016.646.015 1.246.015 1.808v3.701c0 1.184-.04 1.389 0 1.998.022.404.078.861.255 1.352.182.541.564 1.096.826 1.352.367.391.834.705 1.293.9 1.051.467 2.478.541 3.635.496a11.903 11.903 0 0 0 2.291-.314 12.216 12.216 0 0 0 4.235-1.918c1.367-.963 2.555-2.277 3.211-3.393.841-1.326 1.385-2.814 1.668-4.343.255-1.532.243-3.103-.099-4.612-.27-1.4-.991-2.936-1.823-4.176z" style="fill:#1f80e7;fill-rule:nonzero" transform="translate(.004 -.003) scale(4.51901)"/>
  <path d="M438.215 47.287c-2.563.027-5.051 1.101-7.203 3.105-2.086 1.941-3.235 4.289-3.25 6.609-.004.93.019 1.059.34 1.707.507 1.036 1.316 1.637 2.582 1.926.828.188 2.269.121 3.367-.16 2.957-.762 6.062-3.094 7.472-5.617.739-1.313 1.2-3.207 1.055-4.309-.137-1.078-.762-2.09-1.629-2.64-.746-.477-1.437-.633-2.734-.621zm44.055 19.308c-.434 0-.887.024-1.36.071-3.961.394-7.219 1.75-10.988 4.582-1.184.886-3.781 3.199-3.867 3.441-.133.363-.137-.066-.016-.863.371-2.41-.023-4.184-1.199-5.407-.586-.613-2.004-1.328-3.121-1.574-2.766-.613-6.676-.023-10.446 1.578-1.753.743-7.695 3.856-8.507 4.453-.207.157-.2.18.457 1.325l.668 1.172.882-.356c1.438-.574 2.407-.793 3.645-.812.984-.012 1.16.015 1.629.25.699.351 1 .914 1 1.886 0 1.176-.332 2.223-1.43 4.535-1.961 4.141-4.004 8.754-4.992 11.278l-.613 1.562-.871.813c-3.547 3.312-6.106 5.215-9.071 6.746-2.687 1.387-4.644 1.926-7 1.933-1.183.004-1.543-.031-2.156-.226-.973-.309-1.449-.652-1.738-1.25-.207-.426-.227-.594-.176-1.344.074-.984.457-2.394.961-3.535.191-.434 2.207-4.836 4.473-9.781 2.265-4.942 4.308-9.531 4.535-10.188.508-1.472.824-2.988.898-4.316.176-3.008-1.219-4.879-4.246-5.707-1.074-.293-3.773-.317-5.285-.043-1.477.265-3.273.758-4.523 1.246-1.7.66-8.368 4.102-9.329 4.812-.211.157-.203.18.457 1.332l.672 1.172.91-.367c1.731-.695 3.469-.992 4.61-.781.773.141 1.086.355 1.402.961.215.414.238.57.188 1.312a9.894 9.894 0 0 1-.317 1.739c-.152.519-2.136 5.031-4.722 10.726-2.457 5.406-4.614 10.262-4.797 10.797-.989 2.899-1.102 5.445-.332 7.68 1.035 3.008 3.523 5.023 6.832 5.543 1.617.25 3.508.156 6.058-.313 3.34-.617 6.809-1.992 10.305-4.097 3.207-1.926 5.348-3.575 8.637-6.649l1.48-1.387-.199.965c-.543 2.653-.609 4.793-.191 6.449.687 2.731 2.671 4.731 5.066 5.102.738.113.824.109 1.27-.105.492-.239.964-.825 1.628-2.012.176-.317 2.84-5.973 5.914-12.567 3.079-6.593 5.762-12.293 5.969-12.668 1.977-3.593 5.281-6.988 8.176-8.406 3.016-1.48 6.777-1.898 8.809-.988 1.718.769 2.324 2.652 1.457 4.508-.422.902-1.442 1.922-2.672 2.672l-.899.55.481 1.172c.265.645.515 1.215.558 1.262.121.141 2.871-.836 4.012-1.418 2.02-1.039 3.594-2.223 5.215-3.93 1.957-2.066 2.98-4.203 3.301-6.894.25-2.106-.414-3.981-1.953-5.524-1.434-1.437-3.2-2.121-5.539-2.117zm-92.133.004c-.758 0-1.364.074-1.641.223-.367.195-.66.652-.66 1.039 0 .133.09.41.199.609.399.746 1.293 4.844 1.606 7.363.183 1.461.179 5.551-.004 6.782-.965 6.449-3.645 12.023-7.715 16.051-2.617 2.585-5.32 3.98-8.649 4.457-3.293.472-5.402-.247-6.339-2.161-.258-.519-.286-.683-.278-1.679.012-1.649.418-3.504 1.27-5.774.207-.558 1.445-3.258 2.746-6.004 3.422-7.242 3.582-7.621 4.18-9.941.66-2.566.703-4.195.152-5.797-.93-2.707-3.684-4.887-6.484-5.137-1.532-.136-1.836.301-4.868 6.953-4.129 9.079-7.113 15.536-7.988 17.286-2.566 5.125-5.09 8.672-7.367 10.351-1.789 1.321-4.086 2.055-6.395 2.055-2.902-.004-4.484-1.047-5.023-3.32-.356-1.508.031-4.719.855-7.086.754-2.168 1.196-2.887 5.887-9.586 2.949-4.211 3.641-5.535 4.238-8.133.758-3.317.414-5.621-1.043-6.938-.554-.5-1.914-1.14-2.882-1.355-2.637-.586-6.258-.113-9.883 1.297-1.707.664-8.196 4.012-9.176 4.734-.211.156-.207.176.402 1.324l.621 1.164 1.184-.468c.941-.371 1.356-.481 2.023-.524 1.606-.097 2.762.367 3.215 1.305.196.398.223.59.172 1.195-.078.942-.238 1.239-2.015 3.68-3.305 4.543-4.434 6.285-5.481 8.465-1.484 3.094-2.137 5.855-2.308 9.781-.149 3.277.41 6.055 1.632 8.137.864 1.476 2.539 3.094 4.184 4.043 1.734 1 4.434 1.797 7 2.066 1.207.129 4.109.043 5.484-.164a23.88 23.88 0 0 0 4.524-1.152c1.957-.735 5.902-2.817 8.375-4.422.582-.375 1.097-.692 1.144-.707.047-.012.383.43.746.976 1.227 1.86 2.985 3.368 4.914 4.215 2.122.934 4.012 1.289 6.852 1.297 2.238.008 3.461-.117 5.789-.578 7.332-1.457 16.027-6.121 21.34-11.449 5.219-5.235 8.422-12.094 9.051-19.403.328-3.82-.485-7.734-2.09-10.066-1.387-2.016-4.07-3.684-7.242-4.492-1.305-.336-2.993-.52-4.254-.512zm132.308.059c-4.199.015-8.511.875-12.652 2.515-10.855 4.309-19.844 13.426-22.777 23.11-.754 2.48-1.2 5.711-1.063 7.668.305 4.32 1.934 7.203 5.34 9.476 3.051 2.028 6.809 3.137 12.355 3.637 1.278.113 6.184.047 7.809-.106 8.078-.765 15.5-3.277 22.293-7.542 6.32-3.969 11.902-9.59 16.34-16.458l.793-1.23-1.039-.844c-.574-.465-1.09-.847-1.141-.847-.055 0-.492.441-.976.972-6.672 7.367-14.211 12.774-21.727 15.586-7.219 2.699-15.77 3.012-20.379.746-1.48-.726-2.551-1.718-3.531-3.273l-.203-.328 1.133-.117c6.257-.645 15.886-4.711 21.609-9.133 2.027-1.571 4.504-4.039 5.723-5.715 2.523-3.457 3.64-8.055 2.769-11.387-.637-2.418-2.207-4.414-4.312-5.484-1.758-.891-3.625-1.258-6.364-1.246zm-5.468 9.242c1.48-.008 2.007.144 2.605.758.699.718.875 1.73.539 3.195-.848 3.73-4.769 8.098-9.668 10.77-1.695.921-3.812 1.652-5.738 1.98-.5.086-1.344.191-1.875.23l-.965.075.074-.309c.871-3.609 3.203-8.367 5.481-11.187.968-1.2 2.988-3.094 3.98-3.743 1.863-1.214 3.559-1.753 5.567-1.769z" style="fill:#378de9;fill-rule:nonzero" transform="matrix(.70915 0 0 .70915 119.628 -8.862)"/>
  <path d="M123.676 47.428c-7.11.082-12.883 2.187-17.301 6.351-4.418 4.16-6.691 9.875-6.824 17.125.133 7.246 2.406 12.961 6.824 17.125 4.418 4.16 10.191 6.266 17.301 6.348 7.109-.082 12.883-2.188 17.301-6.348 4.418-4.164 6.691-9.879 6.824-17.125-.133-7.25-2.406-12.965-6.824-17.125-4.418-4.164-10.192-6.269-17.301-6.351zm55.097 0c-7.109.082-12.878 2.187-17.296 6.351-4.418 4.16-6.696 9.875-6.829 17.125.133 7.246 2.411 12.961 6.829 17.125 4.418 4.16 10.187 6.266 17.296 6.348 3.122.008 6.11-.606 8.977-1.875 2.867-1.27 5.281-3.231 7.199-5.875l-8.222-6.125a10.578 10.578 0 0 1-3.875 3.527c-1.567.828-3.329 1.262-5.329 1.274-3.644-.078-6.652-1.438-9-4.075-2.343-2.636-3.543-6.078-3.625-10.324.075-4.246 1.297-7.691 3.676-10.328 2.379-2.633 5.453-3.996 9.25-4.074 1.832.008 3.461.32 4.875.949a9.93 9.93 0 0 1 3.602 2.727l7.574-6.2c-1.973-2.402-4.344-4.097-7.102-5.101-2.753-1.004-5.425-1.481-8-1.449zm81.704 0c-4.551.008-8.5 1.226-11.829 3.675-3.324 2.446-5.062 6.047-5.222 10.825.109 3.64 1.199 6.324 3.273 8.05 2.074 1.727 4.473 3.016 7.199 3.825 2.731.808 5.129 1.636 7.204 2.523 2.074.891 3.164 2.332 3.273 4.301-.082 1.578-.816 2.754-2.199 3.527-1.387.77-2.934 1.153-4.625 1.149a10.825 10.825 0 0 1-4.75-1.125 10.677 10.677 0 0 1-3.824-3.102l-7 7.703c2.117 1.946 4.41 3.367 6.921 4.274 2.516.906 5.227 1.336 8.102 1.324 4.75.012 8.777-1.18 12.074-3.598 3.301-2.422 5.008-6.125 5.153-11.101-.11-3.825-1.164-6.602-3.204-8.352-2.035-1.746-4.394-3.004-7.074-3.75-2.679-.742-5.039-1.515-7.074-2.324-2.035-.809-3.117-2.176-3.227-4.125.106-1.656.864-2.856 2.278-3.574 1.41-.719 2.859-1.067 4.347-1.051 1.25 0 2.543.238 3.875.726 1.336.485 2.415 1.243 3.25 2.25l6.778-7.402a17.806 17.806 0 0 0-6.375-3.574c-2.34-.734-4.781-1.09-7.324-1.074zm38.824 0c-4.551.008-8.5 1.226-11.824 3.675-3.329 2.446-5.067 6.047-5.227 10.825.109 3.64 1.199 6.324 3.273 8.05 2.075 1.727 4.473 3.016 7.204 3.825 2.726.808 5.125 1.636 7.199 2.523 2.074.891 3.164 2.332 3.273 4.301-.082 1.578-.812 2.754-2.199 3.527-1.387.77-2.934 1.153-4.625 1.149a10.838 10.838 0 0 1-4.75-1.125 10.677 10.677 0 0 1-3.824-3.102l-7 7.703c2.117 1.946 4.41 3.367 6.926 4.274 2.511.906 5.222 1.336 8.097 1.324 4.75.012 8.778-1.18 12.074-3.598 3.301-2.422 5.008-6.125 5.153-11.101-.11-3.825-1.164-6.602-3.199-8.352-2.039-1.746-4.399-3.004-7.079-3.75-2.679-.742-5.035-1.515-7.074-2.324-2.035-.809-3.117-2.176-3.222-4.125.101-1.656.859-2.856 2.273-3.574 1.414-.719 2.859-1.067 4.352-1.051 1.246 0 2.539.238 3.875.726 1.332.485 2.41 1.243 3.25 2.25L313 52.076c-1.914-1.656-4.035-2.84-6.375-3.574s-4.781-1.09-7.324-1.074zm-283.25 1.125v44.699h9.847V75.826h7.204c4.804.086 8.738-.89 11.796-2.922 3.063-2.031 4.625-5.621 4.727-10.777-.129-5.207-1.785-8.805-5-10.774-3.215-1.972-7.207-2.898-11.977-2.8zm42.398 0v44.699h9.852V75.377h4.847L82.5 93.252h11.801L82.949 74.377c3.164-.617 5.567-2.012 7.199-4.199 1.637-2.188 2.446-4.875 2.454-8.051-.133-5.121-1.801-8.691-5-10.699-3.204-2.004-7.145-2.961-11.852-2.875zm144.852 0v44.699h31.5v-9.098h-21.653v-9.078h19.375v-9.098h-19.375v-8.324h20.5v-9.101zm-79.625 7.949c4.25.078 7.621 1.441 10.097 4.074 2.477 2.637 3.747 6.082 3.801 10.328-.054 4.246-1.324 7.688-3.801 10.324-2.476 2.637-5.847 3.997-10.097 4.075-4.254-.078-7.625-1.438-10.102-4.075-2.476-2.636-3.746-6.078-3.801-10.324.055-4.246 1.325-7.691 3.801-10.328 2.477-2.633 5.848-3.996 10.102-4.074zm-97.778.375h5.051c2.012-.07 3.895.238 5.653.902 1.753.664 2.683 2.114 2.796 4.348-.07 2.047-.8 3.469-2.171 4.25-1.375.785-2.969 1.164-4.778 1.125h-6.551zm42.403 0h6.426c1.89-.063 3.621.258 5.171.926 1.555.668 2.383 2.074 2.477 4.25-.121 2.336-1.039 3.781-2.773 4.324a15.698 15.698 0 0 1-5.5.676h-5.801z" style="fill:#62a6ee;fill-rule:nonzero" transform="matrix(.70915 0 0 .70915 120.628 4.42)"/>
</svg>
