<svg xmlns="http://www.w3.org/2000/svg" viewBox="0 0 256 260.995">
  <path fill="#13c779" d="M141.032 0H12.255C6.128 0 0 6.127 0 12.269v162.5c0 7.644 4.603 16.865 10.723 19.928l107.309 62.857c6.135 4.588 15.333 4.588 19.936 0l107.302-62.857c6.127-4.602 10.73-12.269 10.73-19.928v-162.5C256 4.603 249.866.007 243.738.007H141.032z"/>
  <path fill="#fff" d="m200.818 72.055-72.048 42.913-72.047-42.913zm0 72.048-72.048 42.928-72.047-42.928V88.912l72.04 42.929 72.048-42.929v55.191zm6.135-87.374H50.58c-3.064 0-6.128 3.064-6.128 7.659v79.73c0 3.071 0 9.198 6.128 12.247 6.134 4.603 78.182 47.531 78.182 47.531s72.048-42.914 78.19-47.531c6.12-4.588 6.12-9.184 6.12-12.247v-79.73c0-4.595-1.525-7.659-6.12-7.659z"/>
  <path fill="#231f1f" fill-opacity=".1" d="M128.763 0H12.255C6.128 0 0 6.127 0 12.269v162.5c0 7.644 4.603 16.865 10.723 19.928l107.309 62.857c3.063 1.525 6.135 3.064 10.723 3.064z"/>
</svg>
