<svg xmlns="http://www.w3.org/2000/svg" viewBox="0 0 256 256">
  <path fill="#93c" d="M32 0h192c17.673 0 32 14.327 32 32v192c0 17.673-14.327 32-32 32H32c-17.673 0-32-14.327-32-32V32C0 14.327 14.327 0 32 0z"/>
  <path fill="#fff" d="M176.62 109.69c-2.736-5.885-6.936-11.803-12.722-17.588-5.785-5.786-11.703-9.986-17.588-12.723a31.288 31.288 0 0 1-.502-5.564c0-9.387 4.302-17.992 10.56-25.815 5.498 6.872 9.487 14.348 10.375 22.427 1.101-1.45 2.301-2.833 3.61-4.141 8.605-8.605 20.437-12.55 33.345-13.983-1.435 12.907-5.379 24.74-13.984 33.344a40.391 40.391 0 0 1-4.14 3.61c8.079.888 15.554 4.877 22.426 10.374-7.823 6.259-16.428 10.561-25.815 10.561a31.29 31.29 0 0 1-5.564-.502zm-91.122 21.316c10.208-16.902 19.678-31.812 23.543-35.678 9.68-9.68 26.891-16.134 47.328 4.303 20.437 20.437 13.984 37.647 4.303 47.328-.134.135-.282.275-.442.423l-36.13-24.087 22.517 33.775c-25.717 16.661-75.872 45.164-80.602 47.974-5.995 3.562-10.757 4.302-15.06 0-4.302-4.302-3.562-9.063 0-15.06 1.825-3.069 14.473-25.277 27.682-47.518l26.101 17.401z"/>
</svg>
