<svg xmlns="http://www.w3.org/2000/svg" viewBox="0 0 512 135.048">
  <path fill="#3e4245" d="M41.696 25.49c22.958 0 41.696 18.57 41.696 41.527 0 22.959-18.738 41.696-41.696 41.696-7.259 0-14.18-1.856-20.088-5.064v31.399L0 125.932V67.186C0 44.06 18.738 25.49 41.696 25.49zM249.332 0v25.49h20.088v21.608h-20.088v20.426a20.029 20.029 0 0 0 20.088 20.088v21.608c-22.62 0-41.02-18.063-41.696-40.514V9.285zM132.853 25.49v21.608a20.029 20.029 0 0 0-20.088 20.088v42.034H91.157V66.005l.026-.673c1.018-22.139 19.276-39.842 41.67-39.842zm44.904 0c22.958 0 41.527 18.57 41.696 41.696 0 22.958-18.738 41.696-41.696 41.696S136.06 90.144 136.06 67.186s18.738-41.696 41.696-41.696zm138.592 0c22.959 0 41.697 18.57 41.697 41.696 0 22.958-18.738 41.696-41.697 41.696-22.958 0-41.696-18.738-41.696-41.696S293.391 25.49 316.35 25.49zm153.955 0C493.262 25.49 512 44.06 512 67.186c0 22.958-18.738 41.696-41.696 41.696s-41.696-18.738-41.696-41.696 18.738-41.696 41.696-41.696zm-50.137 0v83.392H398.56V25.49zm-44.734 55.37a13.977 13.977 0 0 1 14.011 14.011 13.977 13.977 0 0 1-14.011 14.011 13.977 13.977 0 0 1-14.011-14.01 13.977 13.977 0 0 1 14.01-14.012zM177.757 47.098a20.029 20.029 0 0 0-20.089 20.088 20.029 20.029 0 0 0 20.089 20.089c10.972 0 19.92-9.116 20.088-20.089a20.029 20.029 0 0 0-20.088-20.088zm138.592 0a20.029 20.029 0 0 0-20.088 20.088 20.029 20.029 0 0 0 20.088 20.089c10.973 0 20.089-9.116 20.089-20.089a20.029 20.029 0 0 0-20.089-20.088zm-274.653 0a20.029 20.029 0 0 0-20.088 20.088 20.029 20.029 0 0 0 20.088 20.089c10.973 0 20.088-9.116 20.088-20.089a20.029 20.029 0 0 0-20.088-20.088zm428.608 0a20.029 20.029 0 0 0-20.088 20.088 20.029 20.029 0 0 0 20.088 20.089c10.973 0 20.088-9.116 20.088-20.089a20.029 20.029 0 0 0-20.088-20.088z"/>
</svg>
