<svg xmlns="http://www.w3.org/2000/svg" viewBox="0 0 255.585 255.584">
  <g fill="#35a7c1">
    <path d="M127.792 0C57.212 0 0 57.222 0 127.79c0 70.569 57.212 127.794 127.792 127.794 70.578 0 127.793-57.215 127.793-127.793C255.585 57.212 198.37 0 127.792 0m0 234.288c-58.817 0-106.496-47.679-106.496-106.497 0-58.816 47.679-106.495 106.496-106.495 58.816 0 106.493 47.709 106.493 106.495.001 58.785-47.709 106.494-106.493 106.494"/>
    <path d="M158.848 127.792c0-30.135-11.825-57.487-31.055-77.736-19.232 20.23-31.097 47.634-31.097 77.736 0 13.773 2.556 26.978 7.1 39.215-6.583 9.602-11.444 23.052-13.576 38.52 6.791-8.037 15.137-13.927 24.392-16.832 3.874 5.963 8.236 11.643 13.206 16.833a113.845 113.845 0 0 0 13.2-16.833c9.257 2.84 17.606 8.803 24.422 16.897-2.135-15.469-6.994-28.92-13.576-38.521 4.481-12.3 7.024-25.506 7.024-39.279m-31.095.284c-7.744 0-14.021-6.277-14.021-14.02 0-7.742 6.277-14.018 14.021-14.018 7.743 0 14.058 6.248 14.058 14.058-.039 7.59-6.25 13.98-14.059 13.98"/>
  </g>
</svg>
