<svg xmlns="http://www.w3.org/2000/svg" viewBox="0 0 255.927 324.767">
  <g transform="translate(-.001 -.431)">
    <path fill="#d04b06" d="M235.066 205c5.644-64.504-20.36-119.47-58.08-122.77-37.722-3.3-72.875 46.315-78.518 110.819-5.644 64.503 20.36 119.468 58.081 122.768 37.72 3.3 72.874-46.315 78.517-110.818z"/>
    <path fill="#c65c14" d="M255.159 204.998c5.643-64.503-20.361-119.469-58.082-122.769-37.72-3.3-72.874 46.315-78.517 110.818-5.643 64.503 20.36 119.468 58.081 122.769 37.72 3.3 72.874-46.315 78.518-110.818z"/>
    <path fill="#d04b06" d="M99.558 315.817c37.721-3.3 63.725-58.266 58.082-122.769-5.644-64.503-40.797-114.118-78.518-110.818-37.72 3.3-63.724 58.266-58.081 122.769 5.643 64.503 40.797 114.118 78.517 110.818z"/>
    <path fill="#c65c14" d="M79.472 315.815c37.72-3.3 63.724-58.266 58.081-122.769-5.643-64.503-40.797-114.118-78.517-110.818C21.315 85.528-4.69 140.494.954 204.997 6.598 269.5 41.751 319.115 79.472 315.815z"/>
    <path fill="#f17008" d="M254.979 213.933c5.643-64.503-20.361-119.468-58.082-122.768-37.72-3.3-72.874 46.314-78.517 110.818-5.644 64.503 20.36 119.468 58.081 122.768 37.72 3.3 72.874-46.315 78.518-110.818z"/>
    <path fill="#8f6646" d="m97.957 121.3-2.638-24.076s1.453-12.87 27.96-14.714c26.507-1.844-12.192-59.05-12.192-59.05s8.899-31.951 23.5-20.583c14.6 11.368 15.186 77.785 15.186 77.785s9.416 24.992 10.383 33.822"/>
    <path fill="#f48d39" d="M234.886 213.935c5.644-64.503-20.36-119.468-58.081-122.769-37.72-3.3-72.874 46.315-78.517 110.818-5.644 64.503 20.36 119.469 58.08 122.769 37.722 3.3 72.875-46.315 78.518-110.818z"/>
    <path fill="#f17008" d="M79.288 324.752c37.72-3.3 63.725-58.265 58.081-122.768-5.643-64.504-40.796-114.118-78.517-110.818-37.72 3.3-63.725 58.265-58.081 122.768 5.643 64.503 40.796 114.118 78.517 110.818z"/>
    <path fill="#f48d39" d="M99.38 324.754c37.72-3.3 63.724-58.266 58.08-122.769-5.643-64.503-40.796-114.118-78.517-110.818-37.72 3.3-63.724 58.266-58.081 122.769 5.643 64.503 40.797 114.118 78.517 110.818z"/>
    <ellipse cx="123.236" cy="207.959" fill="#f17008" rx="68.56" ry="117.239"/>
    <circle cx="127.306" cy="159.796" r="23.929" fill="#f7f3f0"/>
    <circle cx="135.532" cy="169.902" r="8.227" fill="#160c06"/>
    <circle cx="137.507" cy="170.236" r="2.547" fill="#f9f6f4"/>
  </g>
</svg>
