<svg xmlns="http://www.w3.org/2000/svg" viewBox="0 0 491.403 367">
  <defs>
    <linearGradient id="b" x1="130.22" x2="136.471" y1="-2.841" y2="60.075" gradientTransform="scale(1.46717 .68158)" gradientUnits="userSpaceOnUse">
      <stop offset="0%" stop-color="#FFFDFF"/>
      <stop offset="100%" stop-color="#FFF" stop-opacity="0"/>
    </linearGradient>
    <linearGradient id="c" x1="101.984" x2="118.85" y1="28.035" y2="89.449" gradientTransform="scale(1.25013 .79992)" gradientUnits="userSpaceOnUse">
      <stop offset="0%" stop-color="#FFF"/>
      <stop offset="100%" stop-color="#FFF" stop-opacity="0"/>
    </linearGradient>
    <linearGradient id="d" x1="37.905" x2="34.426" y1="66.191" y2="39.909" gradientTransform="scale(1.3784 .72548)" gradientUnits="userSpaceOnUse">
      <stop offset="0%" stop-color="#FFF" stop-opacity=".009"/>
      <stop offset="100%" stop-color="#FFF" stop-opacity=".784"/>
    </linearGradient>
    <radialGradient id="a" cx="82.894" cy="96.051" r="312.693" fx="82.894" fy="96.051" gradientTransform="scale(.99925 1.00075)" gradientUnits="userSpaceOnUse">
      <stop offset="0%" stop-opacity=".23"/>
      <stop offset="100%" stop-color="#FFF" stop-opacity="0"/>
    </radialGradient>
    <radialGradient id="e" cx="121.07" cy="133.933" r="370.118" fx="-6.331" fy="108.452" gradientTransform="scale(1.15714 .8642)" gradientUnits="userSpaceOnUse">
      <stop offset="0%" stop-opacity="0"/>
      <stop offset="63.26%" stop-color="#FFF" stop-opacity="0"/>
      <stop offset="69.75%" stop-opacity=".392"/>
      <stop offset="99.699%" stop-opacity=".994"/>
      <stop offset="100%"/>
    </radialGradient>
    <filter id="f" width="2" height="2" x="-.5" y="-.5" filterUnits="objectBoundingBox">
      <feGaussianBlur in="SourceGraphic" result="blur" stdDeviation="8"/>
    </filter>
  </defs>
  <g transform="translate(115.55 24.15)">
    <path fill="url(#a)" d="M205.4 6.6c14.2 1 27.3 3.4 33.1 7.4 3 2.8 5.2 8.3 6.2 14.7 1 5.9.9 12.6-.2 18.7-1.1 6-3.3 11.5-6.6 15.2-2.3 2.6-5.1 4.3-8.6 4.9-7.7 1.2-12.1-6.3-18.3-16.7-5.5-9.3-12.2-20.6-23.5-30.6-4.5-3.3-8.5.1-6.1 2.7 12 10 18.8 21.5 24.4 30.9 7.4 12.5 12.7 21.5 24.4 19.6 2.4-.4 4.6-1.2 6.6-2.3 9 17 14.1 36.4 14.1 57.1 0 33.7-13.6 64.1-35.7 86.2-22 22-52.5 35.7-86.1 35.7-33.6 0-64.1-13.6-86.1-35.7-22-22-35.7-52.5-35.7-86.2 0-8.3.8-16.3 2.4-24.1-.8-4.5-1.2-9.4-1.5-13.1-1-10.8-1.7-25.8-.5-38.6.9-10.5 3-19.3 7-22 .3-.2.5-.4.7-.7 1.3-1.7 8.9-6.7 20.6-10 5.9-1.7 12.7-2.8 20.2-2.8 1.7 0 3.5.1 5.3.2 10.5.8 21.8 9.8 29.6 20.7 3.2 4.5 5.8 9.3 7.5 14 1.7 4.6 2.5 9 2.2 12.9-.3 4.1-1.9 7.6-5.2 9.9-5.7 4.1-13.8 1.6-23-1.3-14.3-4.5-31.1-9.8-49.1 3.8-4.5 3.2-1.368 7.325 1.332 6.325 16.8-14 32.877-8.815 46.177-4.615 10.7 3.4 19.391 6.327 27.591.527 4.8-3.5 7.801-9.392 7.801-14.117 0-4.726-.501-9.915-2.401-15.215-1.9-5.2-4.5-10.605-8-15.505-4.8-6.7-10.9-12.7-17.4-17 15.4-7 32.5-10.9 50.5-10.9 9.1 0 17.9 1 26.4 2.9 3.6-1.5 8.4-2.1 12.6-2.7 4.8-.4 10.5-.7 16.7-.7.9-.2 1.7-.2 2.6-.2 5.9 0 12 .2 18 .7z" style="fill:url(#a)"/>
    <path fill="url(#b)" d="M184.6 7c27.6 0 49.9 8.5 49.9 19 0 8.1-13.2 15-31.9 17.7-2.7-15.1-21.5-27.8-47.1-33.2 8.2-2.2 18.3-3.5 29.1-3.5z" style="fill:url(#b)"/>
    <path fill="url(#c)" d="M127.8 7.7c41.5 0 75.2 17.8 75.2 39.8 0 22-33.7 39.8-75.2 39.8-12.9 0-25-1.7-35.6-4.7.4-.1.7-.2 1.1-.2 2.7-.7 5.4-2.2 8-4.8 2.4-2.8 4.1-5.8 5-9.2.9-3.3.9-7 0-11-.9-3.9-2.2-7.6-3.7-11.1-1.6-3.5-3.4-6.9-5.5-10.2-2.5-3.7-5.2-7.2-8.2-10.3-3-3.1-6.4-5.9-10.3-8.3 13.2-6.1 30.4-9.8 49.2-9.8z" style="fill:url(#c)"/>
    <path d="M186.8 0c-13.6 0-25.8 1.1-31.3 2.7-.3.1-.6.2-.9.4-8.2-1.7-16.8-2.5-25.5-2.5C108.6.6 89.2 5.4 72 14c-3.3-1.4-6.7-2.4-10.1-2.6-10.3-.8-19.7.6-27.6 2.8-12.3 3.5-21 9.2-23.4 11.7C5.4 30 2.7 40.2 1.6 52.1c-1.6 18.1.3 40.6 1.8 49.7 0 .4.2.7.3 1-1.7 8.2-2.6 16.8-2.6 25.5 0 35.3 14.3 67.2 37.5 90.3C61.8 241.7 93.7 256 129 256c35.3 0 67.3-14.3 90.4-37.4 23.1-23.1 37.5-55 37.5-90.3 0-22-5.6-42.7-15.4-60.7l.8-.8c4.1-4.6 6.7-11.1 8-18.1 1.3-6.8 1.3-14.2.2-20.7-1.3-7.8-4.1-14.6-8.2-18.3-.1-.1-.2-.2-.3-.2-6.7-4.8-21-7.5-36.3-8.6C199.5.2 193 0 186.8 0zm.6 6c5.9 0 12 .2 18 .7 14.2 1 27.4 3.4 33.1 7.4 3 2.8 5.2 8.3 6.2 14.7 1 5.9.9 12.6-.2 18.7-1.1 6-3.3 11.5-6.6 15.2-2.3 2.6-5.1 4.3-8.6 4.9-7.7 1.2-12.1-6.3-18.3-16.7-5.5-9.3-12.2-20.5-23.5-30.6-4.5-3.3-8.5.1-6.1 2.7 12 9.9 18.8 21.5 24.4 30.9 7.4 12.5 12.7 21.5 24.4 19.6 2.4-.4 4.6-1.2 6.6-2.3 9 17 14.2 36.4 14.2 57 0 33.6-13.6 64.1-35.7 86.1-22 22-52.5 35.6-86.2 35.6S65 236.3 42.9 214.3c-22.1-22-35.7-52.5-35.7-86.1 0-8.3.8-16.3 2.4-24.1-.8-4.5-1.2-9.4-1.5-13.1v-.1c-1-10.7-1.7-25.7-.6-38.5.9-10.5 3-19.3 7-22 .3-.2.5-.4.7-.7 1.3-1.7 9-6.7 20.7-10 5.9-1.7 12.7-2.8 20.2-2.8 1.7 0 3.5.1 5.3.2 10.6.8 21.8 9.8 29.6 20.6 3.2 4.5 5.8 9.3 7.5 13.9 1.7 4.6 2.5 9 2.2 12.9-.3 4.1-1.9 7.6-5.2 9.9-5.7 4.1-13.8 1.6-23-1.3-14.3-4.5-31.2-9.8-49.1 3.8-4.5 3.2-1.3 7.8 1.4 6.8 16.8-13.9 32.6-9 45.9-4.8 10.7 3.4 20.1 6.3 28.3.5 4.9-3.5 7.2-8.5 7.7-14.3.4-4.8-.6-10-2.5-15.4-1.9-5.2-4.8-10.5-8.3-15.4-4.8-6.7-10.9-12.7-17.4-16.9C93.9 10.4 111 6.5 129 6.5c9.1 0 17.9 1 26.4 2.9 3.6-1.5 8.4-2.1 12.7-2.7 4.8-.4 10.5-.7 16.7-.7h2.6zm13 64.8c-11.8 0-21.3 9.5-21.3 21.3s9.6 21.3 21.3 21.3c11.7 0 21.3-9.5 21.3-21.3s-9.5-21.3-21.3-21.3zm-133 15.6c-23 0-41.7 18.7-41.7 41.6 0 23 18.7 41.6 41.7 41.6 23 0 41.7-18.6 41.7-41.6S90.4 86.4 67.4 86.4zm11.5 21.8c10.6 0 19.1 8.6 19.1 19.1 0 10.5-8.6 19.1-19.1 19.1-10.5 0-19.1-8.6-19.1-19.1 0-10.6 8.5-19.1 19.1-19.1zm106 16.6c-.5 0-1 .1-1.5.3L124 142.3c-.1 0-.2.1-.3.1-1.7.6-2.9 2.2-2.9 4.2 0 1.8 1.1 3.4 2.7 4.1l36.6 20.6v.2c0 6.3-2.8 12.1-7.4 16.3-4.6 4.3-11.1 6.9-18.3 6.9-4.5 0-8.8-1-12.6-3-3.7-1.9-6.9-4.6-9.2-8 0-.1-.1-.1-.1-.1-.7-1.1-1.9-1.8-3.3-1.8-2.2 0-4 1.8-4 4 0 .9.3 1.7.8 2.4 3.1 4.5 7.3 8.1 12.2 10.6 4.9 2.5 10.5 3.9 16.2 3.9 9.2 0 17.6-3.5 23.7-9 4.4-4 7.6-9.2 9.1-15 6 4.9 13.8 7.9 22.4 7.9 9.2 0 17.6-3.4 23.7-9 6.2-5.7 10-13.5 10-22.1V154.1c0-2.2-1.8-4-4-4s-4 1.8-4 4V155.5c0 6.3-2.8 12.1-7.4 16.3-4.6 4.3-11.1 6.9-18.3 6.9-6.9 0-13.1-2.4-17.7-6.4-1-.8-1.8-1.7-2.6-2.7l19.6-38c.4-.7.6-1.4.6-2.2-.2-2.6-2.2-4.6-4.6-4.6z"/>
    <ellipse cx="50" cy="39" fill="url(#d)" rx="36.1" ry="19" style="fill:url(#d)"/>
    <path fill="#141414" fill-opacity=".392" d="M97.4 85.8c10.1 0 13.8-7 13.8-15.5 0-4.8-3.2-14.4-5.5-17.5l-.507.722c1.1 4 1.69 7.94 1.39 11.54-.5 5.9-2.83 10.666-7.73 14.066-4.9 3.6-10.22 4.125-16.02 3.025 4.9 1.8 10.767 3.647 14.567 3.647zM229.9 76c3.8 1.2 6.934 1.164 9.634.464-.8-1.8-1.784-3.69-2.684-5.39-2 1.1-4.106 1.946-6.506 2.346-1.7.2-3.244.38-4.644.28 1.4 1 2.8 1.9 4.2 2.3z"/>
    <path fill="url(#e)" d="M238.8 85.4c0 68.2-55.3 123.5-123.5 123.5-46.4 0-86.9-25.6-108-63.5 8.6 59.7 60.1 105.7 122.2 105.7 68.2 0 123.5-55.3 123.5-123.5.1-21.8-5.6-42.3-15.5-60 .8 5.8 1.3 11.7 1.3 17.8z" filter="url(#f)" style="fill:url(#e)"/>
  </g>
</svg>
