<svg xmlns="http://www.w3.org/2000/svg" viewBox="0 0 511.996 180.984">
  <path fill="#ffae1a" d="M90.492 90.492v-41.64H58.623L41.64 31.778V0H0v41.64h31.868l17.076 17.075V80.72L31.868 97.797H0v41.64h41.64v-31.778l17.075-17.076h31.777v-.091zM13.88 13.88h13.88v13.88H13.88zm13.88 111.585H13.88v-13.88h13.88z"/>
  <path d="M136.605 180.984h-18.354V90.492h18.354v5.479c2.922-3.562 9.497-6.94 16.528-6.94 19.267 0 30.134 15.98 30.134 34.608 0 18.628-10.958 34.425-30.134 34.425-7.122 0-13.606-3.379-16.528-6.94zm0-46.57a13.907 13.907 0 0 0 12.419 7.67c9.953 0 15.797-7.944 15.797-18.445 0-10.684-5.935-18.628-15.797-18.628a14.035 14.035 0 0 0-12.419 7.67zm113.23 22.189H231.48v-6.027a23.96 23.96 0 0 1-17.715 7.58c-14.792 0-23.193-9.771-23.193-24.381V90.583h18.354v39.448c0 6.94 3.378 11.688 10.684 11.688 5.661 0 10.5-3.379 11.87-9.131V90.583h18.446v66.02h-.092zm30.498 24.38H261.98V90.493h18.354v5.479c2.922-3.562 9.497-6.94 16.528-6.94 19.267 0 30.133 15.98 30.133 34.608 0 18.628-10.957 34.425-30.133 34.425-7.123 0-13.606-3.379-16.528-6.94zm0-46.57a13.907 13.907 0 0 0 12.419 7.671c9.953 0 15.797-7.944 15.797-18.445 0-10.684-5.935-18.628-15.797-18.628a14.035 14.035 0 0 0-12.419 7.67zm73.051 46.57H335.03V90.493h18.354v5.479c2.922-3.562 9.497-6.94 16.528-6.94 19.267 0 30.133 15.98 30.133 34.608 0 18.628-10.957 34.425-30.133 34.425-7.123 0-13.606-3.379-16.528-6.94zm0-46.57a13.907 13.907 0 0 0 12.419 7.671c9.953 0 15.797-7.944 15.797-18.445 0-10.684-5.935-18.628-15.797-18.628a14.035 14.035 0 0 0-12.419 7.67zm112.499.549c-2.375 14.062-12.693 23.102-29.312 23.102-19.267 0-32.051-14.062-32.051-34.425 0-19.998 13.332-34.608 31.777-34.608 19.358 0 30.042 13.423 30.042 32.873v5.661h-44.104c.548 9.953 6.209 15.798 14.336 15.798 6.21 0 10.775-2.649 12.236-8.31h17.076v-.091zm-43.192-18.628h25.568c-.183-6.94-4.292-12.419-11.87-12.419-7.032 0-12.054 4.292-13.698 12.419zm55.61-11.05h-10.044V90.493H478.3V72.594h18.172v17.898h14.519v14.793h-14.52v28.946c0 5.205 2.831 7.58 7.58 7.58a15.853 15.853 0 0 0 7.944-2.192v16.254c-2.557 1.37-6.94 2.1-11.87 2.1-13.424 0-21.916-6.666-21.916-21.276v-31.412z"/>
</svg>
