<svg xmlns="http://www.w3.org/2000/svg" viewBox="0 0 256 157.878">
  <path fill="#1d222d" d="M51.676 46.77 64.88 59.98l-42.352 42.346 42.352 42.357-13.205 13.196L2.72 108.924A9.258 9.258 0 0 1 0 102.328a9.245 9.245 0 0 1 2.721-6.6zm110.207 69.604 19.987 18.663H94.102l-19.987-18.663zM204.328 0l48.935 48.96A9.27 9.27 0 0 1 256 55.55a9.311 9.311 0 0 1-2.737 6.615l-48.935 48.945-13.2-13.202 42.33-42.351-42.33-42.355zM181.87 69.612l-19.987 18.663H74.115l19.987-18.663zm-19.987-46.774 19.98 18.67H94.103L74.12 22.837z"/>
</svg>
