<svg xmlns="http://www.w3.org/2000/svg" viewBox="0 0 512 85.537">
  <path fill="#1d222d" d="m27.998 25.34 7.154 7.156L12.206 55.44l22.946 22.95-7.154 7.148L1.474 59.014A5.016 5.016 0 0 1 0 55.441a5.009 5.009 0 0 1 1.29-3.382l.184-.194zm59.71 37.71 10.828 10.112H50.984L40.155 63.051zM110.702 0l26.514 26.526a5.022 5.022 0 0 1 1.482 3.57 5.04 5.04 0 0 1-1.297 3.39l-.185.195-26.514 26.518-7.15-7.153L126.486 30.1 103.552 7.153zm222.602 25.364c2.019 0 4.024.331 6.022.997 1.988.663 3.708 1.598 5.153 2.804l-2.846 4.025c-.94-.843-2.203-1.538-3.804-2.08-1.596-.546-3.17-.817-4.723-.817-1.556 0-2.828.315-3.822.95-.995.633-1.494 1.59-1.494 2.873 0 1.282.5 2.262 1.494 2.941.997.679 3.11 1.41 6.356 2.193 3.243.784 5.685 1.885 7.33 3.304 1.64 1.42 2.465 3.507 2.465 6.265 0 2.76-1.041 4.998-3.122 6.719-2.078 1.717-4.81 2.577-8.188 2.577-4.948 0-9.336-1.706-13.164-5.112l3.347-4.025c3.197 2.775 6.52 4.16 9.951 4.16 1.72 0 3.086-.368 4.097-1.107 1.008-.737 1.514-1.716 1.514-2.94 0-1.222-.477-2.172-1.427-2.85-.95-.678-2.586-1.296-4.91-1.852-2.323-.56-4.088-1.074-5.29-1.538a11.988 11.988 0 0 1-3.214-1.833c-1.87-1.42-2.805-3.59-2.805-6.516 0-2.924 1.064-5.18 3.187-6.762 2.13-1.582 4.758-2.376 7.893-2.376zm39.114-.01c4.903 0 8.996 1.81 12.282 5.428l-3.393 3.71c-1.506-1.448-2.932-2.458-4.274-3.031s-2.919-.861-4.729-.861c-3.196 0-5.88 1.033-8.05 3.1-2.173 2.065-3.26 4.706-3.26 7.918 0 3.212 1.083 5.897 3.24 8.054 2.15 2.163 4.708 3.239 7.662 3.239 1.841 0 3.423-.309 4.751-.927 1.326-.618 2.713-1.607 4.157-2.966l3.442 3.529c-3.348 3.708-7.414 5.56-12.191 5.56-4.777 0-8.746-1.537-11.898-4.613-3.153-3.077-4.726-6.965-4.726-11.672 0-4.705 1.606-8.624 4.817-11.762 3.213-3.136 7.268-4.706 12.17-4.706zm-157.498.777v17.507c.002 2.896.726 5.19 2.173 6.878 1.446 1.69 3.406 2.534 5.881 2.534 2.47 0 4.434-.845 5.881-2.534 1.446-1.69 2.168-3.982 2.168-6.876V26.131h5.342v17.734c0 4.554-1.254 8.06-3.757 10.515-2.503 2.458-5.713 3.688-9.634 3.688-3.92 0-7.134-1.23-9.637-3.688-2.504-2.458-3.755-5.965-3.755-10.515V26.13zm-30.444-.002c4.797 0 8.294.924 10.496 2.76 2.201 1.841 3.304 4.676 3.304 8.506s-1.125 6.635-3.371 8.413c-2.247 1.781-5.694 2.667-10.338 2.667h-5.61v9.278h-5.336V26.129zm126.259.002v5.022h-16.872v8.369h15.155v4.75h-15.155v8.46h17.415v5.02h-22.753V26.132zm129.157 0v31.622h-5.34V26.13zm25.057-.002c4.797 0 8.296.924 10.499 2.76 2.2 1.841 3.302 4.676 3.302 8.506s-1.122 6.635-3.37 8.413c-2.247 1.781-5.69 2.667-10.335 2.667h-5.615v9.278h-5.336V26.129zm47.05.002v4.886h-9.589v26.736h-5.341V31.017h-9.59V26.13zm-250.08 0c4.826 0 8.282.814 10.365 2.443 2.081 1.629 3.118 4.237 3.118 7.826 0 5.218-2.27 8.505-6.83 9.862l8.28 11.489h-6.788l-7.553-10.631h-7.014v10.631h-5.336v-31.62zm146.025 0c4.827 0 8.28.814 10.363 2.443 2.084 1.629 3.125 4.237 3.125 7.826 0 5.218-2.276 8.505-6.83 9.862l8.276 11.489h-6.784l-7.559-10.631h-7.015v10.631h-5.336v-31.62zM98.536 37.715 87.707 47.827H40.155l10.829-10.112zm85.852-6.745h-5.43v12.667h6.2c2.953.003 4.966-.563 6.038-1.696 1.07-1.13 1.605-2.79 1.605-4.976 0-2.188-.677-3.733-2.036-4.638-1.355-.905-3.483-1.357-6.377-1.357zm280.474 0h-5.43v12.667h6.199c2.955.003 4.97-.563 6.04-1.696 1.072-1.13 1.607-2.79 1.607-4.976 0-2.188-.679-3.733-2.04-4.638-1.353-.905-3.481-1.357-6.376-1.357zm-202.575 0H255.5v11.31h6.65c3.014.001 5.065-.466 6.152-1.401 1.083-.937 1.63-2.436 1.63-4.504 0-2.063-.559-3.483-1.675-4.252-1.116-.77-3.106-1.153-5.97-1.153zm146.028 0h-6.787v11.31h6.653c3.013.001 5.065-.466 6.151-1.401 1.082-.937 1.629-2.436 1.629-4.504 0-2.063-.557-3.483-1.673-4.252-1.114-.77-3.11-1.153-5.973-1.153zM87.707 12.374l10.826 10.115h-47.55L40.159 12.374z"/>
</svg>
