<svg xmlns="http://www.w3.org/2000/svg" viewBox="0 0 256 395.106">
  <path fill="#300d4f" d="M127.995 394.55v-99.047c0-.208.114-.416.312-.52l127.391-73.49a.573.573 0 0 0 .302-.52v-28.157a.583.583 0 0 0-.884-.52l-126.227 72.825a.582.582 0 0 1-.884-.52v-28.177c0-.208.104-.406.291-.51l127.402-73.49a.615.615 0 0 0 .302-.52v-28.156a.604.604 0 0 0-.884-.52l-126.227 72.814a.582.582 0 0 1-.894-.51v-28.166c0-.208.114-.406.312-.51l127.391-73.46a.583.583 0 0 0 .302-.519V74.346a1.25 1.25 0 0 0-.583-1.019L128.587.159a1.165 1.165 0 0 0-1.175 0L103.29 14.081a.582.582 0 0 0 0 1.02l126.227 72.814a.603.603 0 0 1 0 1.019l-24.123 13.912c-.37.2-.815.2-1.185 0L77.39 29.699a1.248 1.248 0 0 0-1.247 0L52.092 43.6a.582.582 0 0 0 0 1.02l126.206 72.824a.582.582 0 0 1 0 1.03l-24.122 13.911a1.248 1.248 0 0 1-1.248 0L26.192 59.217a1.248 1.248 0 0 0-1.248 0L0 73.65v247.744c0 .208.104.416.302.51l24.413 14.088a.582.582 0 0 0 .884-.52V89.455a.582.582 0 0 1 .884-.51l24.434 14.089c.166.104.28.302.28.52v247.37c0 .207.105.415.292.52l24.414 14.098a.603.603 0 0 0 .904-.52V118.974a.582.582 0 0 1 .884-.52l24.414 14.078a.603.603 0 0 1 .301.52v247.411a.62.62 0 0 0 .28.52l24.487 14.068a.582.582 0 0 0 .832-.51l-.01.01z"/>
</svg>
