<svg xmlns="http://www.w3.org/2000/svg" viewBox="0 0 256 256">
  <defs>
    <linearGradient id="a" x1="93.694" x2="249.843" y1="96.402" y2="96.402" gradientTransform="scale(.97573 1.02487)" gradientUnits="userSpaceOnUse">
      <stop offset="0%" stop-color="#21D789"/>
      <stop offset="100%" stop-color="#07C3F2"/>
    </linearGradient>
    <linearGradient id="b" x1="-99.363" x2="247.822" y1="195.221" y2="-14.023" gradientTransform="scale(.90355 1.10674)" gradientUnits="userSpaceOnUse">
      <stop offset="1%" stop-color="#FCF84A"/>
      <stop offset="11%" stop-color="#A7EB62"/>
      <stop offset="21%" stop-color="#5FE077"/>
      <stop offset="27%" stop-color="#32DA84"/>
      <stop offset="31%" stop-color="#21D789"/>
      <stop offset="58%" stop-color="#21D789"/>
      <stop offset="60%" stop-color="#21D789"/>
      <stop offset="69%" stop-color="#20D68C"/>
      <stop offset="76%" stop-color="#1ED497"/>
      <stop offset="83%" stop-color="#19D1A9"/>
      <stop offset="90%" stop-color="#13CCC2"/>
      <stop offset="97%" stop-color="#0BC6E1"/>
      <stop offset="100%" stop-color="#07C3F2"/>
    </linearGradient>
    <linearGradient id="c" x1="42.853" x2="108.525" y1="226.226" y2="95.427" gradientTransform="scale(.79668 1.2552)" gradientUnits="userSpaceOnUse">
      <stop offset="0%" stop-color="#21D789"/>
      <stop offset="16%" stop-color="#24D788"/>
      <stop offset="30%" stop-color="#2FD886"/>
      <stop offset="44%" stop-color="#41DA82"/>
      <stop offset="56%" stop-color="#5ADC7D"/>
      <stop offset="69%" stop-color="#7AE077"/>
      <stop offset="81%" stop-color="#A1E36E"/>
      <stop offset="93%" stop-color="#CFE865"/>
      <stop offset="100%" stop-color="#F1EB5E"/>
    </linearGradient>
    <linearGradient id="d" x1="91.822" x2="192.913" y1="159.057" y2="-13.358" gradientTransform="scale(1.1263 .88786)" gradientUnits="userSpaceOnUse">
      <stop offset="0%" stop-color="#21D789"/>
      <stop offset="6%" stop-color="#24D788"/>
      <stop offset="11%" stop-color="#2FD886"/>
      <stop offset="16%" stop-color="#41DA82"/>
      <stop offset="21%" stop-color="#5ADD7D"/>
      <stop offset="25%" stop-color="#79E077"/>
      <stop offset="26%" stop-color="#7CE076"/>
      <stop offset="50%" stop-color="#8CE173"/>
      <stop offset="92%" stop-color="#B2E56B"/>
    </linearGradient>
    <linearGradient id="e" x1="284.766" x2="49.373" y1="156.642" y2="154.556" gradientTransform="scale(.97463 1.02603)" gradientUnits="userSpaceOnUse">
      <stop offset="39%" stop-color="#FCF84A"/>
      <stop offset="54%" stop-color="#ECF451"/>
      <stop offset="83%" stop-color="#C2E964"/>
      <stop offset="92%" stop-color="#B2E56B"/>
    </linearGradient>
  </defs>
  <path fill="url(#a)" d="m227.2 157.2-44.8-12.4h-39.2l36.4-104.4 74.8 62z" style="fill:url(#a)"/>
  <path fill="url(#b)" d="m88.4 183.6-36.8 15.6L0 204.8 15.6 39.2l94-39.2 57.6 38L104 80.8l-14.4 76.4z" style="fill:url(#b)"/>
  <path fill="url(#c)" d="M87.6 256 0 204.8 72 97.2l32-16.4 7.2 147.6z" style="fill:url(#c)"/>
  <path fill="url(#d)" d="m190.4 0 10.4 70H112z" style="fill:url(#d)"/>
  <path fill="url(#e)" d="m74 226.4 30-145.6L116 70l63.6-6-6 63.6L224 108l32 120.8-78 26.8z" style="fill:url(#e)"/>
  <path d="M48 48h160v160H48z"/>
  <path fill="#fff" d="M63.2 178h60v10h-60zm-.4-109.2H90c16 0 25.2 9.2 25.2 22.8 0 15.2-12 23.2-26.8 23.2H77.2v20H62.8zm37.6 23.6c0-6.4-4.4-10-12-10H77.2v20.4h11.6c7.86 0 11.6-4.8 11.6-10.4zm20.4 10A33.66 33.66 0 0 1 155.2 68c12.4 0 20 4 26 10.4L172 89.2c-5.2-4.8-10.4-7.6-16.8-7.6-11.2 0-19.2 9.2-19.2 20.8 0 11.2 8 20.8 19.2 20.8 7.6 0 12.4-3.2 17.6-7.6l9.2 9.2c-6.8 7.2-14.4 12-27.2 12a34 34 0 0 1-34-34.4z"/>
</svg>
