<svg xmlns="http://www.w3.org/2000/svg" viewBox="0 0 511.978 150.708">
  <path fill="#54565b" d="M299.948 79.758c-2.264-3.696.719-6.796.719-6.796L326.892 45.9c2.98-3.1-1.31-3.1-1.31-3.1h-24.44c-4.291 0-7.27 3.1-7.27 3.1l-24.203 25.751c-2.98 3.1-2.98-1.194-2.98-1.194v-56.27c0-4.291-4.29-4.291-4.29-4.291h-18.481c-4.174 0-4.174 4.173-4.174 4.173v117.665c0 4.294 4.294 4.294 4.294 4.294h18.36c4.17 0 4.17-4.173 4.17-4.173V111.23c0-4.29 3.1-7.273 3.1-7.273l8.702-8.107 21.698 36.483c2.147 3.695 6.438 3.695 6.438 3.695h23.25c4.29 0 2.026-3.695 2.026-3.695zm-79.514 51.976v-84.76c0-4.294-4.29-4.294-4.29-4.294h-18.598c-4.29 0-4.29 4.294-4.29 4.294v84.76c0 4.294 4.29 4.294 4.29 4.294h18.598c4.29 0 4.29-4.294 4.29-4.294zM219.72 26.11v-12.16s0-4.174-4.174-4.174h-18.123s-4.17 0-4.17 4.174v12.16s0 4.173 4.17 4.173h18.24s4.057 0 4.057-4.173zM173.34 131.734V14.307c0-4.29-4.29-4.29-4.29-4.29h-18.956c-4.29 0-4.29 4.29-4.29 4.29v117.427c0 4.294 4.29 4.294 4.29 4.294h18.956c4.29 0 4.29-4.294 4.29-4.294zm-42.559-5.003s2.385-2.742-.358-5.127l-15.14-13.233c6.796-10.133 10.85-22.172 10.85-35.289 0-34.81-28.256-63.063-63.067-63.063C28.252 10.016 0 38.27 0 73.08c0 34.814 28.256 63.066 63.066 63.066 12.755 0 24.557-3.812 34.573-10.37l16.688 14.424s2.743 2.384 5.127-.358zM99.429 72.965c0 20.146-16.334 36.48-36.483 36.48-20.146 0-36.48-16.334-36.48-36.48 0-20.149 16.334-36.479 36.48-36.479 20.15.117 36.483 16.33 36.483 36.48z"/>
  <path fill="#009848" d="m510.37 128.039-20.267-17.046c7.033-11.207 11.203-24.44 11.203-38.626C501.306 32.426 468.88 0 428.943 0S356.58 32.426 356.58 72.367c0 39.937 32.426 72.363 72.363 72.363 15.497 0 29.924-4.89 41.726-13.233l21.578 18.122s3.22 2.743 5.962-.478l12.876-15.26c-.12 0 2.501-3.217-.716-5.842zm-36.958-55.672c0 24.557-19.909 44.465-44.47 44.465-24.556 0-44.468-19.908-44.468-44.465 0-24.56 19.912-44.47 44.469-44.47 24.56 0 44.469 19.91 44.469 44.47z"/>
  <path fill="#54565b" d="M400.33 72.367c0-15.737 12.756-28.494 28.492-28.494 15.737 0 28.494 12.757 28.494 28.494 0 15.736-12.757 28.493-28.494 28.493-15.736 0-28.493-12.757-28.493-28.493z"/>
</svg>
