<svg xmlns="http://www.w3.org/2000/svg" viewBox="0 0 256 256">
  <path fill="#5656a9" d="M128 0C57.308 0 0 57.308 0 128c0 70.693 57.308 128 128 128 70.692 0 128-57.307 128-128C256 57.308 198.692 0 128 0zm38.486 199.647c-11.436 6.072-24.475 9.525-38.326 9.525-45.21 0-81.859-36.65-81.859-81.859 0-45.21 36.649-81.859 81.859-81.859 45.21 0 81.859 36.649 81.859 81.859 0 15.6-4.367 30.179-11.94 42.586l19.386 49.643zM127.142 90.419c-19.884 0-36.003 16.119-36.003 36.003 0 19.883 16.119 36.002 36.003 36.002s36.003-16.119 36.003-36.002c0-19.884-16.12-36.003-36.003-36.003z"/>
</svg>
