<svg xmlns="http://www.w3.org/2000/svg" viewBox="0 0 255.996 191.591">
  <path fill="#41cd52" d="M35.511 0 0 36.084v155.507H220.485l35.511-36.083V0h-33.504z"/>
  <path fill="#fff" d="M95.453 33.512c16.665 0 28.357 4.789 34.988 14.453 6.719 9.575 10.034 24.38 10.034 44.418 0 13.209-1.396 23.848-4.1 31.917-2.794 8.157-7.242 14.363-13.525 18.618l13.524 22.253-16.665 7.891-14.396-24.027c-2.094.62-5.323.976-9.86.976-16.84 0-28.618-4.61-35.25-13.832-6.63-9.22-9.946-23.848-9.946-43.709 0-19.948 3.403-34.753 10.121-44.417 6.719-9.665 18.41-14.54 35.075-14.54zm84.984 6.385v23.937h22.336v15.338h-22.336v36.262c0 6.737.523 11.17 1.483 13.299.959 2.216 3.49 3.28 7.416 3.28l13.262-.533.785 14.364c-7.154 1.418-12.652 2.128-16.49 2.128-9.161 0-15.443-2.128-18.847-6.384-3.402-4.255-5.147-12.324-5.147-24.203V79.084h-12.39v-15.25h12.39V39.897zm-84.664 8.426c-10.1 0-17.064 3.427-20.895 10.373-3.743 6.945-5.658 17.95-5.658 33.194 0 15.153 1.828 26.068 5.484 32.562 3.657 6.495 10.709 9.832 21.069 9.832s17.325-3.247 20.981-9.651c3.57-6.405 5.398-17.319 5.398-32.563 0-15.334-1.828-26.429-5.572-33.374-3.743-6.946-10.708-10.373-20.807-10.373z"/>
</svg>
