<svg xmlns="http://www.w3.org/2000/svg" viewBox="0 0 512 76.608">
  <path fill="#091313" d="M136.581 7.612c7.81 0 13.907 2.464 18.293 7.391 4.386 4.928 6.578 11.73 6.578 20.408 0 6.918-1.4 12.67-4.202 17.255a20.957 20.957 0 0 1-11.863 9.31l12.94 13.378h-9.178l-10.597-12.195-2.047.076c-8.012 0-14.191-2.433-18.537-7.3-4.345-4.866-6.52-11.733-6.526-20.6 0-8.795 2.182-15.612 6.546-20.452 4.365-4.84 10.562-7.263 18.593-7.271zM510.626 10.6l-1.967 5.468c-4.493-1.87-8.857-2.804-13.093-2.804-3.346 0-5.961.714-7.844 2.143-1.883 1.429-2.826 3.412-2.828 5.95 0 1.869.347 3.402 1.041 4.599.695 1.196 1.866 2.292 3.514 3.289 1.65.996 4.173 2.099 7.568 3.309 5.705 2.019 9.628 4.186 11.77 6.502 2.142 2.316 3.213 5.336 3.213 9.062 0 4.754-1.736 8.461-5.208 11.122-3.472 2.66-8.184 3.995-14.134 4.006-6.445 0-11.403-.825-14.875-2.476v-6.074a39.19 39.19 0 0 0 7.29 2.216c2.57.534 5.186.802 7.81.801 4.214 0 7.387-.801 9.518-2.404 2.131-1.602 3.2-3.812 3.205-6.63 0-1.87-.378-3.403-1.134-4.6-.756-1.196-2.019-2.299-3.79-3.308-1.776-1.01-4.472-2.156-8.088-3.438-5.059-1.794-8.673-3.931-10.841-6.41-2.169-2.478-3.253-5.693-3.253-9.643 0-4.16 1.574-7.474 4.723-9.94 3.149-2.464 7.313-3.695 12.492-3.693a37.078 37.078 0 0 1 14.91 2.953zm-322.14-2.128v35.255c0 4.509 1.24 7.969 3.718 10.38 2.479 2.412 6.123 3.614 10.933 3.606 4.584 0 8.116-1.212 10.597-3.638 2.481-2.425 3.72-5.894 3.718-10.408V8.473h6.322v34.955c0 6.156-1.87 10.997-5.61 14.523-3.738 3.525-8.888 5.286-15.447 5.284-6.546 0-11.61-1.775-15.192-5.325-3.582-3.55-5.368-8.43-5.36-14.642V8.473zm234.014 0v35.255c0 4.509 1.24 7.969 3.718 10.38 2.479 2.412 6.123 3.614 10.933 3.606 4.586 0 8.12-1.212 10.6-3.638 2.482-2.425 3.721-5.905 3.718-10.44V8.473h6.322v34.955c0 6.156-1.87 10.997-5.608 14.523-3.74 3.525-8.884 5.286-15.433 5.284-6.543 0-11.607-1.775-15.191-5.325-3.585-3.55-5.378-8.43-5.38-14.642V8.473zm-155.86-.22 21.382 54.245h-6.542l-6.77-17.187h-21.79l-6.695 17.187h-6.41l21.51-54.245zm52.911.22c6.677 0 11.604 1.269 14.78 3.806 3.175 2.537 4.768 6.355 4.779 11.454 0 7.142-3.645 11.97-10.933 14.487l14.759 24.278h-7.472L322.3 40.035l-11.338-.004v22.467h-6.326V8.473zm79.757-.008-21.866 23.473 22.683 30.56h-7.44l-19.818-26.201-5.69 5.024v21.177h-6.321V8.473h6.322v26.782l24.654-26.79zM136.58 13.241c-6.025 0-10.605 1.89-13.741 5.673-3.136 3.781-4.703 9.28-4.703 16.497h-.008c0 7.316 1.567 12.864 4.703 16.646s7.69 5.672 13.665 5.67c6.026 0 10.575-1.885 13.65-5.654 3.074-3.768 4.61-9.322 4.61-16.662 0-7.267-1.53-12.778-4.594-16.534-3.064-3.755-7.59-5.634-13.582-5.636zm127.303 1.883a69.129 69.129 0 0 1-2.343 7.796l-6.41 16.738 17.607.004-6.322-16.742c-.82-2.115-1.664-4.714-2.532-7.796zm55.295-1.146h-8.217v20.656h8.661c4.463 0 7.737-.881 9.82-2.644 2.083-1.763 3.123-4.404 3.12-7.924 0-3.571-1.058-6.145-3.176-7.72-2.118-1.576-5.521-2.365-10.208-2.368z"/>
  <path fill="#4695eb" d="M63.9 0c7.007.024 12.68 5.7 12.7 12.708V63.9c-.02 7.01-5.698 12.688-12.708 12.708H56.28l-3.49-8.474H63.9a4.29 4.29 0 0 0 4.234-4.234V12.708A4.29 4.29 0 0 0 63.9 8.473H12.708a4.29 4.29 0 0 0-4.235 4.235V63.9a4.29 4.29 0 0 0 4.235 4.234H31.44l6.863-14.51 9.463 22.984h-35.06C5.698 76.588.02 70.91 0 63.9V12.708C.02 5.698 5.698.02 12.708 0zM50.74 41.81v13.617L38.944 48.62zM25.867 28.191v13.617L14.074 35zm24.23-14.731v13.617l-11.794-6.81z"/>
  <path fill="#ff004a" d="m25.868 41.81 11.795 6.81-11.795 6.807zM50.74 28.191l11.795 6.807-11.795 6.81zM26.51 13.461l11.795 6.807-11.795 6.81z"/>
  <path fill="#091313" d="m25.868 28.192 11.795 6.807V48.62l-11.795-6.81zm24.871 0v13.617L38.945 48.62V34.999zm-12.435-7.924 11.794 6.81-11.794 6.811-11.795-6.81z"/>
</svg>
