<svg xmlns="http://www.w3.org/2000/svg" viewBox="0 0 256 256.038">
  <path fill="#274e85" d="M159.533 163.55a37.651 37.651 0 0 1-13.772 9.645 47.389 47.389 0 0 1-18.284 3.36 47.73 47.73 0 0 1-18.331-3.36 37.985 37.985 0 0 1-13.868-9.645 42.965 42.965 0 0 1-8.784-15.357 63.666 63.666 0 0 1-3.072-20.49 63.677 63.677 0 0 1 3.072-20.492 43.476 43.476 0 0 1 8.784-15.404 37.74 37.74 0 0 1 13.868-9.695 47.762 47.762 0 0 1 18.331-3.359 47.42 47.42 0 0 1 18.284 3.359 37.41 37.41 0 0 1 13.772 9.695 43.357 43.357 0 0 1 8.688 15.404 64.663 64.663 0 0 1 3.023 20.492 64.65 64.65 0 0 1-3.023 20.49 42.848 42.848 0 0 1-8.688 15.357zM127.97 0C79.066.018 34.444 27.897 12.984 71.842c-21.46 43.945-16.008 96.277 14.05 134.855 30.057 38.578 79.467 56.66 127.326 46.597l-18.573-20.573c-2.582.191-5.185.298-7.816.298-51.39.088-95.32-36.97-103.89-87.641C15.51 94.707 44.808 45.262 93.368 28.444c48.56-16.817 102.164 3.918 126.767 49.036 24.603 45.118 13.002 101.409-27.436 133.122l-22.6-25.034a62.453 62.453 0 0 0 11.412-10.597 66.186 66.186 0 0 0 8.783-13.582 72.906 72.906 0 0 0 5.52-15.882 80.662 80.662 0 0 0 1.917-17.804 76.938 76.938 0 0 0-5.086-28.267 66.493 66.493 0 0 0-14.301-22.458 65.709 65.709 0 0 0-22.17-14.829 74.218 74.218 0 0 0-28.698-5.375 75.127 75.127 0 0 0-28.746 5.328A65.126 65.126 0 0 0 76.464 76.93a66.6 66.6 0 0 0-14.349 22.506 76.91 76.91 0 0 0-5.086 28.267 76.9 76.9 0 0 0 5.086 28.265 66.567 66.567 0 0 0 14.349 22.506 65.155 65.155 0 0 0 22.267 14.83 75.158 75.158 0 0 0 28.746 5.326 82.665 82.665 0 0 0 10.701-.672 74.184 74.184 0 0 0 10.03-2.015l.035.038 24.467 27.004 7.43 8.2 8.602 9.53a.086.086 0 0 0 .022-.013c51.594-27.846 77.683-87.178 63.326-144.022C237.733 39.836 186.6.007 127.97 0z"/>
</svg>
