<svg xmlns="http://www.w3.org/2000/svg" viewBox="0 0 182.601 178.423">
  <path fill="#11100e" d="M182.493 176.26v-.073l-.613-4.83a.888.888 0 0 0-.865-.758.457.457 0 0 0-.216.036.513.513 0 0 1-.216.073 11.065 11.065 0 0 1-3.966.72 4.241 4.241 0 0 1-3.496-1.297 7.074 7.074 0 0 1-1.01-4.326v-10.743h8.291a.858.858 0 0 0 .794-.829v-4.866a.87.87 0 0 0-.866-.83h-8.183v-7.101a.892.892 0 0 0-.865-.793h-6.164a.847.847 0 0 0-.866.829v7.03h-4.758a.854.854 0 0 0-.865.864v4.795a.859.859 0 0 0 .685.865h4.938v12.149c0 3.821.866 6.633 2.632 8.471 1.766 1.839 4.434 2.776 8.039 2.776a19.039 19.039 0 0 0 4.362-.469 13.951 13.951 0 0 0 2.776-.9.827.827 0 0 0 .54-.758v-.036c-.108.036-.108.036-.108 0z"/>
  <path fill="#1d1e1c" d="M42.298 169.626a2.39 2.39 0 0 1-.324-.685c-.108-.577.396-1.081.685-1.55a13.523 13.523 0 0 0 .865-1.586 22.08 22.08 0 0 0 2.38-10.815 22.985 22.985 0 0 0-1.551-7.93 22.015 22.015 0 0 0-3.857-6.345 20.308 20.308 0 0 0-5.227-4.362 21.78 21.78 0 0 0-6.742-2.668 25.016 25.016 0 0 0-7.678-.505 22.552 22.552 0 0 0-14.06 6.273 22.16 22.16 0 0 0-6.668 13.915 25.052 25.052 0 0 0 .468 7.859 23.18 23.18 0 0 0 2.956 7.101 21.179 21.179 0 0 0 5.083 5.516 22.252 22.252 0 0 0 6.561 3.388 21.744 21.744 0 0 0 3.966.902 22.87 22.87 0 0 0 3.857.252 31.645 31.645 0 0 0 3.677-.324 19.954 19.954 0 0 0 2.019-.397c.54-.144 1.153-.252 1.37-.829a1.616 1.616 0 0 0-.289-1.334c-.252-.54-.54-1.081-.793-1.622-.505-.973-.973-1.983-1.478-2.956a1.023 1.023 0 0 0-.649-.577 1.62 1.62 0 0 0-.829.036c-.324.072-.649.108-.973.18a15.411 15.411 0 0 1-4.074 0 14.853 14.853 0 0 1-11.716-8.904 15.283 15.283 0 0 1-1.117-7.606 14.886 14.886 0 0 1 2.775-7.066 14.985 14.985 0 0 1 13.375-6.056 14.868 14.868 0 0 1 6.705 2.271 14.86 14.86 0 0 1 6.85 11.716 14.77 14.77 0 0 1-1.19 6.705 14.563 14.563 0 0 1-3.822 5.263 1.733 1.733 0 0 0-.576.685 1.087 1.087 0 0 0 .036.757l4.253 8.436c.217.432.433 1.081.866 1.334a2.112 2.112 0 0 0 1.045.144h6.525a1.047 1.047 0 0 0 .937-1.55c-.396-.793-.829-1.55-1.225-2.343zM80.799 168.328l5.227-19.358a.855.855 0 0 1 .829-.613h6.272a.877.877 0 0 1 .866.865.613.613 0 0 1-.036.253l-9.12 27.433a.887.887 0 0 1-.794.505h-5.948a.887.887 0 0 1-.793-.505l-6.38-18.673-6.13 18.71v.035a.84.84 0 0 1-.756.469h-5.84a.825.825 0 0 1-.793-.541l-9.157-27.686a.877.877 0 0 1 .865-.865h6.49a.89.89 0 0 1 .72.505l5.155 19.43 6.02-19.394a.9.9 0 0 1 .794-.54h5.407a.887.887 0 0 1 .793.504zM116.992 152.106a9.694 9.694 0 0 0-3.857-3.46 11.697 11.697 0 0 0-5.408-1.226 12.824 12.824 0 0 0-7.21 2.127 14.433 14.433 0 0 0-4.938 5.66 17.233 17.233 0 0 0-1.73 7.75v.613a17.278 17.278 0 0 0 1.766 7.498 13.081 13.081 0 0 0 4.83 5.407 12.736 12.736 0 0 0 6.886 1.875 13.38 13.38 0 0 0 4.794-.793 9.969 9.969 0 0 0 4.867-3.857l.072 2.956a.888.888 0 0 0 .865.757h5.876a.877.877 0 0 0 .865-.866v-27.325a.877.877 0 0 0-.865-.865h-5.876a.89.89 0 0 0-.865.721v.036zm-1.73 4.939a9.524 9.524 0 0 1-.18 11.86 7.748 7.748 0 0 1-11.104 0 8.505 8.505 0 0 1-2.163-5.371 8.944 8.944 0 0 1 2.127-6.67 7.264 7.264 0 0 1 5.588-2.342 7.451 7.451 0 0 1 5.732 2.523zM137.432 149.114a.888.888 0 0 0-.865-.757h-5.912a.877.877 0 0 0-.866.865v27.326a.877.877 0 0 0 .866.865h6.236a.855.855 0 0 0 .83-.613v-15.033a8.334 8.334 0 0 1 1.585-5.407 5.448 5.448 0 0 1 4.434-1.91q5.192 0 5.191 6.813v15.573a.888.888 0 0 0 .83.613h6.236a.854.854 0 0 0 .865-.865V159.82c0-4.002-.9-7.066-2.703-9.157-1.803-2.127-4.434-3.172-7.86-3.172a11.71 11.71 0 0 0-5.298 1.154 8.477 8.477 0 0 0-3.497 3.352z"/>
  <path fill="#4ba2ea" d="M123.3 104.63c.505 1.045 1.01 2.595 2.091 3.208a5.005 5.005 0 0 0 2.524.324h15.645a2.566 2.566 0 0 0 2.271-3.749c-.973-1.874-1.982-3.713-2.956-5.587l-6.02-11.356a5.749 5.749 0 0 1-.757-1.658s-.216-.36.072-1.334c.289-.721 3.93-7.895 4.146-8.616 1.478-4.578 19.466-47.945-31.58-52.38a11.56 11.56 0 0 1 1.118.686 36.336 36.336 0 0 1 10.887 10.85 35.713 35.713 0 0 1 2.74 33.238 34.716 34.716 0 0 1-2.704 5.119 35.355 35.355 0 0 1-6.416 7.498 3.75 3.75 0 0 0-1.334 1.658 2.494 2.494 0 0 0 .108 1.839z"/>
  <path fill="#ff3b4a" d="M36.206 47.96c8.22-5.587 16.51-5.948 19.106 1.767a1.617 1.617 0 0 0-.036.396 35.63 35.63 0 0 0 30.678 39.474 35.204 35.204 0 0 0 9.733-.036c.793-.108 1.55-.252 2.343-.397a4.703 4.703 0 0 1 1.73-.144c.902 11.031-33.705 13.915-55.119-12.473-5.299-6.525-7.858-19.683-8.435-28.587"/>
  <path fill="#65cee7" d="M143.092 70.275a52.197 52.197 0 0 1-3.28 8.039c-.29.54-.542 1.045-.83 1.586-.397.72-.83 1.478-1.262 2.199a13.083 13.083 0 0 0-1.55 2.56l.036-.145a22.579 22.579 0 0 0 .757-2.199 47.414 47.414 0 0 0-28.226-58.796c-.18-.108-.325-.18-.505-.288 1.37.72-6.489-19.07 9.841-16.51.685.36 1.37.756 2.055 1.153a51.878 51.878 0 0 1 12.473 10.454 52.4 52.4 0 0 1 9.229 15.177 55.053 55.053 0 0 1 3.677 18.961 55.08 55.08 0 0 1-2.415 17.809z"/>
  <path fill="#87c966" d="M122.435 14.759a9.822 9.822 0 0 1-.685 3.569 9.656 9.656 0 0 1-8.94 6.056 9.797 9.797 0 0 1-4.578-1.153 36.226 36.226 0 0 0-14.42-4.47 35.036 35.036 0 0 0-18.349 3.28 34.677 34.677 0 0 0-7.714 4.939 35.883 35.883 0 0 0-5.876 6.272 36.26 36.26 0 0 0-6.38 15.105C37.935 26.872 73.984-7.736 114.432 5.278c.684.18 1.405.397 2.09.613.505.252 1.046.505 1.55.793h.037a9.682 9.682 0 0 1 4.325 8.075z"/>
  <path fill="url(#D%C3%A9grad%C3%A9_sans_nom_2)" d="M116.307 5.783a11.06 11.06 0 0 0-1.874-.505 47.129 47.129 0 0 0-9.373-1.55c-.938-.072-1.875-.072-2.848-.072a46.99 46.99 0 0 0-46.72 44.7 2.828 2.828 0 0 0-.072.505c-.036.289-.072.577-.108.83a9.64 9.64 0 0 1-9.481 7.858h-.288a9.612 9.612 0 0 1-9.337-9.625c0-.432.036-.829.072-1.225a53.396 53.396 0 0 1 4.83-16.403 51.577 51.577 0 0 1 10.923-15.14 55.415 55.415 0 0 1 15.43-10.419A54.744 54.744 0 0 1 85.664.195a64.16 64.16 0 0 1 10.851.072 53.685 53.685 0 0 1 7.534 1.19 55.088 55.088 0 0 1 12.257 4.326z" style="fill:url(#D%C3%A9grad%C3%A9_sans_nom_2)"/>
  <path fill="#af27cc" d="M107.691 104.557c-.504 1.442-1.982 1.695-3.316 2.02-1.586.396-3.173.684-4.795.936-2.92.433-5.876.613-8.796.757a49.04 49.04 0 0 1-9.192-.576 61.173 61.173 0 0 1-9.481-2.163 52.006 52.006 0 0 1-20.007-11.824 51.122 51.122 0 0 1-7.86-9.517 52.862 52.862 0 0 1-7.065-16.98 61.765 61.765 0 0 1-1.01-19.106v-.144a46.624 46.624 0 0 0 43.152 43.872c1.261.108 2.523.144 3.82.144a46.827 46.827 0 0 0 16.583-2.992.917.917 0 0 1 .253.072 2.494 2.494 0 0 1 1.55 1.406c1.19 2.343 2.38 4.687 3.533 7.066.036.072.072.18.108.252.613 1.19 1.19 2.415 1.802 3.605.541 1.01 1.154 1.983.721 3.172z"/>
</svg>
