<svg xmlns="http://www.w3.org/2000/svg" viewBox="0 0 110.275 108.297">
  <path fill="#4ba2ea" d="M87.456 104.63c.504 1.045 1.01 2.595 2.09 3.208a5.005 5.005 0 0 0 2.524.325h15.645a2.566 2.566 0 0 0 2.271-3.75c-.973-1.874-1.983-3.713-2.956-5.587l-6.02-11.355a5.749 5.749 0 0 1-.757-1.658s-.216-.36.072-1.334c.288-.721 3.93-7.895 4.146-8.616 1.478-4.578 19.467-47.945-31.58-52.379a11.56 11.56 0 0 1 1.118.685A36.336 36.336 0 0 1 84.896 35.02a35.713 35.713 0 0 1 2.74 33.237 34.716 34.716 0 0 1-2.704 5.119 35.355 35.355 0 0 1-6.417 7.498 3.75 3.75 0 0 0-1.333 1.659 2.494 2.494 0 0 0 .108 1.838z"/>
  <path fill="#ff3b4a" d="M.361 47.96c8.22-5.588 16.511-5.948 19.106 1.766a1.617 1.617 0 0 0-.036.397A35.63 35.63 0 0 0 50.11 89.597a35.204 35.204 0 0 0 9.734-.036c.793-.109 1.55-.253 2.343-.397a4.702 4.702 0 0 1 1.73-.144c.901 11.03-33.706 13.915-55.119-12.473C3.498 70.022.94 56.864.362 47.96"/>
  <path fill="#65cee7" d="M107.25 70.275a52.197 52.197 0 0 1-3.28 8.039c-.29.54-.542 1.045-.83 1.586a68.56 68.56 0 0 1-1.262 2.199 13.083 13.083 0 0 0-1.55 2.56l.036-.145a22.579 22.579 0 0 0 .757-2.199A47.414 47.414 0 0 0 72.895 23.52c-.18-.108-.324-.18-.504-.288 1.37.72-6.49-19.07 9.841-16.51.685.36 1.37.757 2.055 1.153A51.878 51.878 0 0 1 96.76 18.328a52.399 52.399 0 0 1 9.228 15.177 55.053 55.053 0 0 1 3.677 18.962 55.08 55.08 0 0 1-2.415 17.808z"/>
  <path fill="#87c966" d="M86.59 14.759a9.822 9.822 0 0 1-.684 3.569 9.656 9.656 0 0 1-8.94 6.056 9.797 9.797 0 0 1-4.579-1.154 36.226 36.226 0 0 0-14.42-4.47 35.036 35.036 0 0 0-18.349 3.28 34.677 34.677 0 0 0-7.714 4.94 35.883 35.883 0 0 0-5.876 6.272 36.26 36.26 0 0 0-6.38 15.105C2.09 26.872 38.14-7.735 78.587 5.278c.684.18 1.405.397 2.09.613.505.252 1.045.505 1.55.793h.036a9.682 9.682 0 0 1 4.326 8.075z"/>
  <path fill="url(#D%C3%A9grad%C3%A9_sans_nom_2)" d="M80.463 5.783a11.06 11.06 0 0 0-1.875-.505 47.129 47.129 0 0 0-9.373-1.55c-.937-.072-1.874-.072-2.848-.072a46.99 46.99 0 0 0-46.72 44.7 2.828 2.828 0 0 0-.072.505c-.036.289-.072.577-.108.83a9.64 9.64 0 0 1-9.48 7.858h-.29a9.612 9.612 0 0 1-9.336-9.625c0-.433.036-.83.072-1.226a53.396 53.396 0 0 1 4.83-16.402 51.577 51.577 0 0 1 10.924-15.14A55.415 55.415 0 0 1 31.616 4.736 54.744 54.744 0 0 1 49.82.195a64.16 64.16 0 0 1 10.85.072 53.685 53.685 0 0 1 7.535 1.19 55.088 55.088 0 0 1 12.257 4.326z"/>
  <path fill="#af27cc" d="M71.847 104.56c-.505 1.442-1.983 1.694-3.317 2.019-1.586.396-3.172.684-4.794.937-2.92.432-5.876.613-8.796.757a49.04 49.04 0 0 1-9.193-.577 61.173 61.173 0 0 1-9.48-2.163 52.006 52.006 0 0 1-20.008-11.824 51.122 51.122 0 0 1-7.858-9.517 52.862 52.862 0 0 1-7.066-16.979 61.765 61.765 0 0 1-1.01-19.106v-.144a46.624 46.624 0 0 0 43.152 43.872c1.261.108 2.523.144 3.82.144a46.827 46.827 0 0 0 16.584-2.992.917.917 0 0 1 .252.072 2.494 2.494 0 0 1 1.55 1.406c1.19 2.343 2.38 4.686 3.533 7.066.036.072.072.18.108.252.613 1.19 1.19 2.415 1.803 3.605.54 1.01 1.153 1.982.72 3.172z"/>
</svg>
