<svg xmlns="http://www.w3.org/2000/svg" viewBox="0 0 256 244.501">
  <defs>
    <style>
      
    </style>
  </defs>
  <g stroke-width="5.21">
    <path d="m128.06 212.61 76.591 31.574a4.168 4.168 0 0 0 5.731-4.429l-11.984-81.853 56.48-61.689a4.168 4.168 0 0 0-2.241-6.93l-79.77-15.63-41.212-71.537a4.116 4.116 0 0 0-7.19 0l-41.213 71.38-79.77 15.63a4.168 4.168 0 0 0-2.24 7.087l56.48 61.689-11.985 81.853a4.168 4.168 0 0 0 5.732 4.428z" style="fill:#ffcf36" transform="translate(.005 -.004)"/>
    <path d="M120.2 131.74c-4.793-12.609-62.523-25.739-62.523-25.739s98.474-12.817 130.78 0c6.252 2.918-56.271 56.062-56.271 56.062h89.147l-19.486 19.486 2.136 14.484s-120.98 9.587-136.61-17.559z" style="fill:#f9a42e" transform="translate(.005 -.004)"/>
    <path d="M57.726 106a1.042 1.042 0 0 1-.677-1.928A161.1 161.1 0 0 1 136.4 87.556c27.458 0 43.245 9.743 47.36 12.713a1.042 1.042 0 0 1 0 1.667l-58.041 45.538a1.042 1.042 0 0 0 0 1.772c6.252 2.97 32.929 13.599 89.043 11.046a1.042 1.042 0 0 1 .469 1.98c-16.83 6.877-67.89 26.885-147.87 16.204a1.042 1.042 0 0 1-.574-1.824c9.848-8.649 58.407-50.904 74.506-60.23a.99.99 0 0 0 0-1.72c-4.428-3.23-27.197-12.764-83.572-8.7z" style="fill:#fff" transform="translate(.005 -.004)"/>
  </g>
</svg>
