<svg xmlns="http://www.w3.org/2000/svg" viewBox="0 0 511.994 86.505">
  <path fill="#a9b5af" d="M477.95 0c18.32 0 28.134 16.653 28.134 42.634 0 17.835-4.137 30.203-11.883 36.83l17.793-1.308v7.029h-34.551c-18.468 0-28.641-13.867-28.641-42.55C448.802 13.95 460.769 0 477.949 0zm-98.27 1.456 23.385 73.26h.253l23.47-73.26h11.735v83.686h-6.627V8.147l-24.779 76.995h-7.64L374.36 8.147v76.995h-6.69V1.456zm98.185 5.762c-14.289 0-21.106 11.588-21.106 35.438s5.403 35.5 20.747 35.5c15.344 0 20.536-13.909 20.536-35.5 0-21.592-5.888-35.438-20.177-35.438z"/>
  <path fill="#f60" d="M338.923 10.025v17.35h15.429v5.783h-15.408v37.147c0 1.667-.4 10.278 8.738 10.278a23.597 23.597 0 0 0 6.67-1.034v6.395c-2.044.283-4.101.46-6.163.528a17.898 17.898 0 0 1-11.503-3.314c-2.533-2.11-3.778-5.825-3.778-10.912V33.18h-9.245v-5.783h9.245v-13.34zm-131.407-8.59V38.33h.211a16.653 16.653 0 0 1 16.125-12.2c4.644 0 20.051 2.934 20.051 30.794s-17.56 29.549-22.372 29.549c-19.609 0-20.102-20.858-20.114-24.752V1.435zm51.858 0V38.33h.253a16.653 16.653 0 0 1 16.125-12.2c4.644 0 20.051 2.934 20.051 30.794s-17.56 29.549-22.372 29.549c-19.609 0-20.102-20.858-20.114-24.752V1.435zm-85.966 24.652c18.223 0 18.06 13.196 18.047 19.266v39.79h-6.016v-8.169h-.253a21.76 21.76 0 0 1-7.725 7.05 21.233 21.233 0 0 1-10.216 2.427c-2.406 0-14.774-.507-14.774-15.429s16.167-17.497 26.066-18.257c2.264-.219 5.727-.248 6.622-.252h.217v-5.62l.001-.148v-.306c-.008-4.857-.486-14.569-12.538-14.569-9.9 0-11.334 5.994-12.01 9.371h-7.43c0-2.743 1.415-15.154 20.01-15.154zM116.211 1.604c21.992 0 26.783 11.545 26.783 21.423 0 10.764-5.107 18.658-16.884 20.958 0 0 7.176 2.11 9.687 6.016 1.9 2.954 2.828 5.867 4.221 12.663l4.75 22.584h-7.303l-4.222-19.798c-1.33-5.487-2.174-14.078-9.582-16.885a22.12 22.12 0 0 0-7.81-1.266h-10.046v37.843h-7.26V1.604zm195.928 25.792v57.746h-6.057V27.396zm-88.962 4.453c-6.29 0-15.429 6.86-15.429 25.855 0 22.442 11.29 22.891 13.65 22.9h.197c2.221-.012 15.005-.719 15.005-23.85l-.002-.528c-.14-18.026-7.194-24.377-13.421-24.377zm51.9 0c-6.29 0-15.429 6.86-15.429 25.855 0 22.442 11.29 22.891 13.65 22.9h.197c2.221-.012 15.005-.719 15.005-23.85l-.02.022c0-18.447-7.113-24.927-13.403-24.927zm-89.722 26.446-.085.001c-.983.012-10.22.13-12.558.57-11.756 2.257-12.938 9.412-12.938 12.473a7.83 7.83 0 0 0 8.569 7.83 16.737 16.737 0 0 0 16.59-14.204c.278-2.213.42-4.44.422-6.67zm-69.967-50.19h-9.583v32.524h6.628c22.52 0 23.216-13.93 23.216-17.75v-.14c-.024-4.664-1.31-14.634-20.261-14.634zm198.144-6.649v9.815h-8.949V1.456zM80.858 34.614H53.905a3.356 3.356 0 0 1-3.377-3.377V4.285A3.356 3.356 0 0 0 47.151.929H37.063a3.356 3.356 0 0 0-3.377 3.356v26.952a3.356 3.356 0 0 1-3.377 3.377h-10.09a3.356 3.356 0 0 1-3.376-3.377V4.285A3.356 3.356 0 0 0 13.466.907H3.356A3.356 3.356 0 0 0 0 4.285v77.501a3.356 3.356 0 0 0 3.377 3.377h77.48a3.356 3.356 0 0 0 3.378-3.377V38.054a3.356 3.356 0 0 0-3.377-3.44zm-13.55 28.62a5.044 5.044 0 0 1-5.045 5.066H55.51a5.044 5.044 0 0 1-5.044-5.066v-6.733a5.044 5.044 0 0 1 5.044-5.065h6.754a5.044 5.044 0 0 1 5.045 5.065z"/>
</svg>
