<svg xmlns="http://www.w3.org/2000/svg" viewBox="0 0 512 102.395">
  <path d="M261.08 61.644c0 5.698-1.899 10.533-5.697 14.332-5.008 5.007-13.124 7.77-22.966 7.597-7.08-.172-14.159-1.899-18.13-4.316l2.59-14.16c4.316 2.418 11.741 4.835 17.267 4.835 4.662 0 7.597-2.072 7.597-5.525 0-3.108-2.244-5.18-7.77-7.943-8.806-4.317-13.123-9.842-13.123-16.404 0-12.778 11.051-21.584 27.455-21.584 8.634 0 14.332 2.072 17.44 4.144l-2.59 13.987c-2.418-1.9-8.806-4.49-15.713-4.49-4.835 0-7.943 2.072-7.943 5.353 0 2.417 2.417 4.49 7.425 7.08 6.734 3.453 14.159 8.46 14.159 17.094zm250.894 13.123c.345-4.317-2.763-7.77-7.08-7.77s-8.115 3.453-8.46 7.77c-.346 3.972 2.417 7.77 7.079 7.77 4.317 0 8.115-3.453 8.46-7.77zm-1.036 0c-.346 3.626-3.626 6.734-7.425 6.734-3.626 0-6.216-2.935-5.871-6.561.345-3.626 3.626-6.734 7.425-6.734 3.453 0 6.043 2.935 5.87 6.561zm-5.353 1.036 1.209 3.626h-1.21l-1.208-3.453h-1.726l-.691 3.453h-1.209l1.727-9.151h2.935c1.382 0 2.418 1.036 2.418 2.244.172 1.21-.691 2.763-2.245 3.281zm0-4.49h-2.072l-.69 3.454h1.899c1.036 0 1.899-.863 2.072-1.9.172-.69-.346-1.553-1.21-1.553zm-33.671-2.071c7.77 0 14.504-1.9 21.757-6.044l-2.936 15.54c-8.806 4.49-19.167 5.008-23.138 5.008-17.267 0-26.937-9.497-26.937-26.246 0-9.67 3.626-19.34 9.67-26.419 6.561-7.77 16.404-12.26 26.591-12.26 12.95 0 21.757 7.598 21.757 18.822 0 5.18-1.727 9.497-5.007 12.777-6.217 6.044-21.585 9.497-35.398 6.735-.864 7.597 5.007 12.087 13.64 12.087zm-11.915-24.347c10.879.173 16.922-1.036 19.685-3.626 2.935-2.936 1.9-8.98-5.18-8.98-7.943 0-13.123 6.562-14.505 12.606zm-72.522 2.59-6.734 34.88H363.13l2.245-12.087c-2.418 7.425-8.461 13.468-18.649 13.468-12.26 0-17.785-10.878-17.785-21.757 0-12.432 4.835-24.692 12.95-32.807 6.907-6.907 15.714-10.533 25.556-10.533 17.44.172 23.138 11.914 20.03 28.836zm-17.095-7.943c-.172-4.317-2.59-6.734-6.561-6.734-8.634 0-16.231 15.022-16.231 25.383 0 6.561 2.417 10.533 6.561 10.533 6.734 0 12.605-7.08 14.505-17.268.863-3.453 1.9-9.151 1.726-11.914zm-266.951 7.943-6.734 34.88H79.084l2.245-12.087c-2.418 7.425-8.461 13.468-18.649 13.468-12.26 0-17.785-10.878-17.785-21.757 0-12.432 4.835-24.692 12.95-32.807 6.907-6.907 15.713-10.533 25.556-10.533 17.44.172 23.31 11.914 20.03 28.836zm-16.922-7.943c-.173-4.317-2.59-6.734-6.562-6.734-8.633 0-16.23 15.022-16.23 25.383 0 6.561 2.417 10.533 6.56 10.533 6.735 0 12.606-7.08 14.505-17.268.69-3.453 1.727-9.151 1.727-11.914zm241.223 2.935c0 15.196-7.252 30.736-20.375 37.643-4.835 2.59-9.497 3.626-13.468 3.626-6.562 0-10.188-2.417-12.26-6.216l-4.662 24.865H258.49l15.713-82.538h16.231l-1.9 10.015c4.663-6.734 11.397-11.223 19.167-11.223 12.087 0 20.03 9.324 20.03 23.828zm-19.166 1.382c0-2.936-.691-10.015-7.425-10.015-6.907 0-12.778 7.77-15.023 19.684-.863 4.145-2.935 16.232 5.526 16.232 9.67 0 16.922-13.814 16.922-25.901zM25.728 33.67l2.59-13.814h-16.23L0 83.573h18.476l5.007-26.246c2.936-15.54 11.742-21.756 24.52-19.684l3.626-18.994c-11.051-1.21-21.411 5.007-25.9 15.022zm148.326 48.694 6.389-33.499 13.123 33.499h19.857l-13.641-33.671 24.692-28.837h-20.202l-23.83 28.491L189.595 0h-18.303l-15.713 82.537h18.476zm257.11-63.544c-23.139 0-40.579 16.922-40.579 39.37 0 15.54 10.36 25.555 26.246 25.555 6.907 0 13.469-1.209 17.786-3.28l2.935-15.541c-5.698 2.763-10.188 3.971-15.54 3.971-5.871 0-12.088-3.28-12.088-12.777 0-11.051 7.77-22.448 21.066-22.448 3.972 0 7.253.863 10.188 2.418l2.936-15.023c-3.454-1.381-8.289-2.245-12.95-2.245zm-284.047 0c-23.138 0-40.578 16.922-40.578 39.37 0 15.54 10.36 25.555 26.246 25.555 6.907 0 13.469-1.209 17.785-3.28l2.936-15.541c-5.698 2.763-10.188 3.971-15.54 3.971-5.872 0-12.088-3.28-12.088-12.777 0-11.051 7.77-22.448 21.066-22.448 3.972 0 7.252.863 10.188 2.418l2.935-15.023c-3.453-1.381-8.288-2.245-12.95-2.245z"/>
</svg>
