<svg xmlns="http://www.w3.org/2000/svg" viewBox="0 0 512 146.183">
  <path fill="#75c9e1" d="M78.22 1.868H0l7.8 12.52h69.979c8.547 0 16.594 3.43 22.66 9.657 6.041 6.202 9.369 14.382 9.369 23.032 0 8.5-3.184 16.154-9.205 22.134-5.735 5.696-13.728 9.441-22.52 10.555H69.52l-23.621-.189 6.818 11.807H63.07l.562.901h.082l30.638 51.728.197.196c1.329 1.328 2.994 1.974 5.09 1.974 3.588 0 6.62-3.133 6.62-6.84 0-1.471-.48-2.137-1.06-2.798-.236-.268-.53-.602-.972-1.357l-25.21-42.91c11.721-.203 22.682-4.874 30.94-13.204 8.44-8.515 13.088-19.879 13.088-31.997 0-24.928-20.109-45.209-44.826-45.209zm105.284 1.273C182.502 1.2 180.33 0 177.814 0c-2.28 0-4.549 1.229-5.645 3.058l-.682 1.184c-.896 1.555-.395 3.813.5 5.36l10.71 18.53 40.998 71.245h-1.785l.055.097h-52.752l7.625 13.319h54.574l16.488 28.535.039.066c1.018 1.627 2.722 4.35 6.285 4.35a6.628 6.628 0 0 0 6.621-6.62c0-1.256-.315-2.327-.99-3.365zm320.848 129.363h-70.386V6.618A6.625 6.625 0 0 0 427.346 0a6.626 6.626 0 0 0-6.618 6.618v132.505c0 3.65 2.97 6.62 6.619 6.62H512zM366.199 6.456A6.624 6.624 0 0 0 359.585 0a6.19 6.19 0 0 0-.491.02 6.523 6.523 0 0 0-.496-.02c-2.518 0-4.693 1.204-5.694 3.147L309.2 79.963 265.494 3.147C264.494 1.204 262.32 0 259.8 0c-2.28 0-4.547 1.229-5.643 3.058l-.682 1.184c-.892 1.55-.403 3.806.48 5.354l48.733 85.502.046.077c1.015 1.627 2.72 4.35 6.283 4.35.062 0 .123-.003.183-.005.06.002.12.005.183.005 3.563 0 5.265-2.723 6.283-4.35l37.3-65.44v109.388c0 3.65 2.97 6.62 6.62 6.62 3.648 0 6.618-2.97 6.618-6.62V6.618l-.002-.105.016-.027z"/>
</svg>
