<svg xmlns="http://www.w3.org/2000/svg" viewBox="0 0 256 120.309">
  <path fill="#0075a8" d="M158.083 0c1.664 0 3.072 4.48 3.072 9.855v2.56c.256-.128.512-.128.896-.128h54.523c5.376 0 9.855 4.48 9.855 9.983v51.195c0 5.376-4.48 9.855-9.855 9.855h-26.493c-5.376 0-9.856-4.48-9.856-9.855V53.371c-2.431 1.792-3.967 4.608-3.967 7.807v16.767c0 5.375 4.48 9.855 9.855 9.855h17.278v26.494a6.008 6.008 0 0 1-6.015 6.015h-32.51a6.008 6.008 0 0 1-6.015-6.015V89.976a6.008 6.008 0 0 0-6.015-6.016H71.819a6.008 6.008 0 0 0-6.015 6.016v24.318a6.008 6.008 0 0 1-6.016 6.015H27.28a6.008 6.008 0 0 1-6.015-6.015V44.156L6.674 55.675c-.64.512-1.537.384-2.049-.256L.402 50.427a1.37 1.37 0 0 1-.128-1.791l21.502-32.893c1.024-2.176 3.071-3.584 5.503-3.584h114.166c3.712 0 6.527 3.328 5.887 7.04l-2.303 13.95c-.64 3.712 2.175 7.04 5.887 7.04h23.038c2.944 0 5.376-2.048 5.887-4.864-1.28.512-2.943.768-4.607.768H158.85c-5.375 0-9.087-4.352-8.19-9.727l2.815-16.639C154.372 4.352 156.42 0 158.083 0zm90.36 0c1.664 0 3.712 4.352 4.608 9.727l2.816 16.639c.896 5.375-2.816 9.727-8.32 9.727H230.27V24.062h5.247c5.376 0 9.856-4.48 9.856-9.855V9.855c0-5.375 1.407-9.855 3.071-9.855z"/>
</svg>
