<svg xmlns="http://www.w3.org/2000/svg" viewBox="0 0 511.995 77.337">
  <path fill="#0075a8" d="M101.618 0c1.07 0 1.975 2.88 1.975 6.335V7.98c.164-.082.329-.082.576-.082h35.048c3.456 0 6.335 2.88 6.335 6.417v32.91c0 3.455-2.88 6.335-6.335 6.335h-17.03c-3.456 0-6.335-2.88-6.335-6.335V34.308c-1.564 1.152-2.55 2.962-2.55 5.018v10.778c0 3.456 2.879 6.335 6.334 6.335h11.107v17.03a3.862 3.862 0 0 1-3.867 3.868H105.98a3.862 3.862 0 0 1-3.867-3.867V57.838a3.862 3.862 0 0 0-3.867-3.867H46.166a3.862 3.862 0 0 0-3.866 3.867V73.47a3.862 3.862 0 0 1-3.867 3.867H17.536a3.862 3.862 0 0 1-3.867-3.867V28.384l-9.38 7.405c-.41.329-.987.247-1.316-.165L.258 32.416a.881.881 0 0 1-.082-1.152L13.998 10.12c.658-1.4 1.974-2.304 3.538-2.304h73.387c2.386 0 4.196 2.139 3.784 4.525l-1.48 8.968c-.412 2.386 1.398 4.525 3.784 4.525h14.81c1.892 0 3.455-1.317 3.784-3.127-.823.33-1.892.494-2.962.494h-10.531c-3.455 0-5.841-2.797-5.265-6.253l1.81-10.695C99.232 2.797 100.549 0 101.618 0zm58.085 0c1.07 0 2.386 2.797 2.962 6.253l1.81 10.695c.576 3.456-1.81 6.253-5.348 6.253H148.02v-7.734h3.373c3.456 0 6.335-2.88 6.335-6.335V6.335c0-3.455.905-6.335 1.975-6.335z"/>
  <path fill="#59595b" d="M348.602 9.132c16.619 0 23.283 9.133 21.473 21.474l-13.164 1.151c1.399-9.05-2.139-12.67-8.556-12.67-6.17 0-11.19 4.525-11.19 19.252 0 15.55 5.43 19.499 11.601 19.499 5.841 0 10.531-3.62 9.544-11.107l12.34 1.234c.906 11.6-7.404 20.075-22.624 20.075-15.468.082-25.423-9.05-25.423-29.783 0-20.65 10.202-29.125 25.999-29.125zm-146.61.905c11.188 0 18.675 5.43 18.675 15.879 0 8.556-5.841 13.657-11.518 15.467 1.728 1.399 2.962 3.373 3.95 5.43.22.45.434.903.644 1.355l.25.541c1.954 4.235 3.705 8.224 8.073 8.224.856 0 1.634-.198 2.03-.32l15.659-46.576h14.315l19.252 57.015h-14.316l-3.537-10.777H236.38l-3.455 10.777h-11.81c-1.052.171-2.357.33-3.575.33-6.747 0-10.613-2.633-14.645-11.683-.448-1.045-.934-2.3-1.464-3.587l-.23-.553c-1.47-3.505-3.263-7.05-5.463-7.05h-3.21v22.543h-14.15V10.037zm287.625 0c11.19 0 18.676 5.43 18.676 15.879 0 8.556-5.841 13.657-11.518 15.467 1.728 1.399 2.962 3.373 3.95 5.43.22.45.434.903.644 1.355l.25.541c1.954 4.235 3.705 8.224 8.073 8.224 1.234 0 2.303-.412 2.303-.412l-1.151 10.12s-3.044.74-5.677.74c-6.747 0-10.613-2.632-14.645-11.682-.448-1.045-.934-2.3-1.464-3.587l-.23-.553c-1.47-3.505-3.263-7.05-5.463-7.05h-3.21v22.543h-14.15V10.037zm-101.936 0v21.556h17.277V10.037h14.151v57.098h-14.15V42.946H387.68v24.189h-14.15V10.037zm74.868 0v10.531h-23.694v12.259h19.828v10.449h-19.828v13.328h24.517v10.53h-38.586V10.038zm-173.595 0 14.973 28.302c1.234 2.468 2.962 6.747 4.279 10.12h.329c-.165-3.209-.576-7.734-.576-11.107V10.037h11.6v57.015H304.75l-15.55-28.22c-1.398-2.55-2.961-6.252-4.113-9.296h-.33c.248 3.209.659 6.993.659 10.12v27.396h-11.6V10.037zm-42.782 13.987h-.33s-.822 5.841-2.138 9.708l-3.95 12.094h12.26l-3.868-12.012c-1.262-3.867-1.92-9.323-1.97-9.762l-.004-.028zM199.44 20.32h-6.829v13.987h5.101c4.031 0 8.803-1.234 8.803-7.322 0-5.02-3.208-6.665-7.075-6.665zm287.544 0h-6.83v13.987h5.102c4.031 0 8.803-1.234 8.803-7.322 0-5.02-3.209-6.665-7.075-6.665z"/>
</svg>
