<svg xmlns="http://www.w3.org/2000/svg" viewBox="0 0 255.54 255.54">
  <defs>
    <radialGradient id="a" cx="114.221" cy="113.185" r="53.249" fx="114.221" fy="113.185" gradientTransform="scale(.99904 1.00096)" gradientUnits="userSpaceOnUse">
      <stop offset="0%" stop-color="#FFF" stop-opacity=".904"/>
      <stop offset="100%" stop-color="#FF6D6D"/>
    </radialGradient>
  </defs>
  <circle cx="127.77" cy="127.77" r="127.77" fill="#fff"/>
  <path fill="#1b1a22" d="M73.848 81.968c-.613.132-1.109.454-1.534 1.033-.44.629-.595 1.664-.37 2.346.191.598 1.23 1.808 2.37 2.632a196.968 196.968 0 0 0-4.367 5.983c-7.657 11.092-12.146 21.24-12.716 28.556-.308 3.955.46 6.72 2.28 8.87 1.347 1.585 2.924 2.485 5.463 3.026 2.083.443 5.272.422 8.49-.07-2.023 2.902-4.912 7.351-6.401 9.884-2.458 4.207-4.976 9.582-5.922 12.658-1.667 5.362-1.88 9.767-.77 13.968.677 2.581 1.77 4.654 3.256 6.245 1.512 1.62 3.435 2.751 5.787 3.389 3.852 1.042 9.507.746 16.648-.936 1.505-.35 3.815-.995 5.537-1.506-1.535 5.373-1.364 10.279.36 13.799.557 1.132 2.115 3.04 3.047 3.743 5.57 4.158 17.28 4.002 32.992-.926 1.259-.392 4.811-1.62 6.58-2.264 1.21 1.616 2.337 2.252 4.95 2.566 1.7.185 3.096-.088 4.418-.849.603-.35.96-.694 1.162-1.015.329-.523.39-1.061.162-1.705-.219-.603-.534-.962-1.1-1.216-.325-.146-.801-.251-1.574-.309-.603-.04-.816-.064-1.137-.292l.1-.084c2.75-1.163 8.69-4.13 12.355-6.173 13.405-7.478 27.728-18.017 37.267-27.427 8.644-8.517 17.02-19.147 18.75-23.7.525-1.365.669-2.784.447-3.888-.187-.863-.29-1.097-1.123-2.09-.88-1.049-1.064-1.147-1.876-1.469-2.702-1.063-6.878.109-15.106 5.134-10.525 6.426-26.145 18.358-37.15 28.395-10.84 9.876-17.962 18.507-20.603 24.84-.318.763-.309 1.12-.474 1.209-.17.094-1.634.665-3.244 1.298-8.873 3.444-16.605 5.42-22.38 5.673-1.593.073-4.136-.1-5.393-.37-1.053-.225-2.348-.736-2.838-1.201-.61-.568-.85-1.521-.891-2.721-.053-1.513.252-3.402.89-5.599.437-1.484 1.972-5.32 2.737-6.81l1.796-.968c9.68-3.661 20.634-8.962 30.893-14.946 13.858-8.086 29.807-19.296 44.089-31.018 8.51-6.985 13.085-11.39 17.422-16.75 3.387-4.184 6.13-8.896 6.755-11.523.452-1.866.392-3.538-.103-4.947-.52-1.485-1.52-2.702-2.986-3.562-3.818-2.237-10.736-1.355-20.086 2.861-8.842 3.987-19.896 10.86-32.383 20.279-7.462 5.614-17.908 14.303-23.428 19.475-14.089 13.214-23.74 24.706-29.092 34.6l-.363.675c-4.735 1.782-12.047 3.848-15.71 4.471-3.052.511-5.999.648-7.73.307-1.071-.209-1.887-.55-2.485-1.165-.622-.639-1-1.544-1.276-2.751-.421-1.89-.296-4.998.268-7.299 1.742-7.093 7.486-17.279 16.254-28.964l1.903-2.528 1.964-.76c12.992-4.988 29.123-13.963 43.428-24.176 7.93-5.665 16.455-12.696 22.248-18.36 4.603-4.499 8.282-8.645 11.125-12.522 2.504-3.43 4.079-6.327 4.788-8.787.79-2.743.543-4.993-.592-6.895-.867-1.454-2.184-2.431-3.854-2.887-1.526-.416-3.37-.387-5.436.166-5.996 1.624-14.933 6.988-27.707 16.725-3.176 2.434-13.652 11.224-16.78 14.08-13.05 11.968-24.612 24.196-34.405 36.372l-1.851 2.305-1.038.309c-3.015.889-6.477 1.545-8.928 1.693-1.434.086-3.332-.114-4.159-.49-.436-.193-.506-.245-.76-.592-.448-.617-.553-1.21-.59-2.391-.184-5.165 3.393-13.9 9.33-23.163a127.192 127.192 0 0 1 7.646-10.612l1.342-1.68c4.256-1.32 8.48-4 14.84-9.337 7.306-6.146 14.448-13.881 16.432-16.545 2.317-3.112 3.204-6.205 2.817-7.424a3.706 3.706 0 0 0-1.406-1.866c-.666-.459-1.46-.682-2.22-.602-1.122.114-3.693 1.487-7.11 3.971-2.417 1.75-9.128 7.288-12.066 9.954-5.358 4.852-8.894 8.406-13.312 13.364l-1.395 1.56a6.705 6.705 0 0 1-3.295-.137c-.779-.225-1.381-.253-1.873-.147zm53.364 6.597c3.717-3.226 5.284-4.526 10.389-8.64 6.165-4.961 12.949-9.668 17.921-12.44 2.437-1.363 4.719-2.44 6.496-2.796-.41.86-1.04 1.94-1.72 2.968-3.312 4.964-8.351 10.61-15.91 17.834-2.28 2.189-13.668 11.727-16.508 13.851-9.576 7.135-18.408 12.821-27.487 17.676-1.157.616-2.54 1.33-3.873 2.003 9.415-10.65 20.051-21.205 30.692-30.456zm47.562 17.953c9.594-5.797 17.786-9.188 21.671-9.372-.089.328-.226.73-.38 1.087-1.515 3.584-5.775 8.804-11.85 14.621-2.502 2.39-12.272 10.539-16.823 14.038-21.8 16.707-39.692 27.961-57.09 35.849 3.049-4.124 7.332-9.197 11.383-13.448 7.611-7.99 16.945-16.448 26.274-23.802 10.375-8.187 18.668-14.047 26.815-18.973zm5.79 41.957c7.123-5.573 13.49-10.037 18.19-12.783a75.109 75.109 0 0 1-1.34 1.754c-7.5 9.507-16.467 18.032-27.661 26.268-6.57 4.83-13.376 9.24-19.992 12.939 3.81-4.383 8.635-9.18 15.204-15.135 1.71-1.557 13.332-11.277 15.599-13.043z"/>
  <ellipse cx="127.877" cy="127.957" fill="url(#a)" rx="41.551" ry="41.631" style="fill:url(#a)"/>
  <path fill="#1b1a22" d="M207.379 124.788c.812.322.996.42 1.877 1.47.832.992.935 1.226 1.122 2.089.222 1.104.078 2.523-.446 3.888-1.73 4.553-10.107 15.183-18.751 23.7-9.539 9.41-23.862 19.949-37.267 27.427-3.665 2.042-9.604 5.01-12.355 6.173l-.1.084-6.88 2.82c-.693.252-1.658.593-2.652.939l-.665.23c-1.326.458-2.607.89-3.264 1.095-15.713 4.928-27.423 5.083-32.992.926l5.185-5.863c.49.465 1.785.976 2.838 1.2 1.257.272 3.8.444 5.393.371 5.775-.253 13.507-2.229 22.38-5.673 1.61-.633 3.074-1.204 3.244-1.298l15.715-7.673c6.616-3.698 13.422-8.108 19.991-12.938 11.195-8.236 20.162-16.761 27.662-26.268a74.56 74.56 0 0 0 1.34-1.754zm-6.586-33.866c1.466.86 2.465 2.077 2.986 3.562.495 1.41.555 3.081.103 4.947-.625 2.627-3.368 7.34-6.755 11.523-4.337 5.36-8.913 9.765-17.422 16.75-14.282 11.722-30.231 22.932-44.089 31.017-10.26 5.985-21.213 11.285-30.893 14.947l-1.796.968-11.327 3.45c-1.723.512-4.033 1.156-5.538 1.507-7.141 1.682-12.796 1.978-16.648.936-2.352-.638-4.275-1.77-5.787-3.39-1.485-1.59-2.579-3.663-3.256-6.244l7.87-1.221c.276 1.207.653 2.112 1.275 2.751.598.615 1.414.956 2.485 1.165 1.731.34 4.677.204 7.73-.307 3.663-.623 10.975-2.69 15.71-4.47l14.86-6.031c17.399-7.888 35.292-19.142 57.09-35.85 4.552-3.498 14.322-11.648 16.823-14.037 6.076-5.817 10.336-11.037 11.85-14.62a8.56 8.56 0 0 0 .381-1.088zm-35.02-34.426a6.246 6.246 0 0 1 3.853 2.887c1.135 1.902 1.383 4.152.592 6.895-.71 2.46-2.284 5.357-4.788 8.787-2.843 3.877-6.523 8.023-11.125 12.522-5.793 5.664-14.318 12.695-22.248 18.36-14.305 10.213-30.436 19.188-43.428 24.177l-1.964.76-6.918 2.089-6.283 1.413c-3.218.49-6.407.511-8.49.069-2.54-.54-4.116-1.441-5.462-3.026-1.821-2.15-2.59-4.915-2.281-8.87l6.888 2.114c.036 1.182.14 1.774.589 2.391.254.347.324.4.76.593.827.375 2.725.575 4.159.489.96-.058 2.535-.33 4.097-.64l.52-.104c2.069-.42 3.991-.874 4.275-.94l.035-.01 17.966-7.39.04-.02c.34-.175 2.76-1.411 3.833-1.983 9.08-4.855 17.91-10.542 27.487-17.676 2.84-2.124 14.227-11.663 16.508-13.852 7.559-7.223 12.598-12.87 15.91-17.833.68-1.028 1.087-2.094 1.72-2.968z"/>
</svg>
