<svg xmlns="http://www.w3.org/2000/svg" viewBox="0 0 255.932 246.291">
  <defs>
    <radialGradient id="a" cx="151.774" cy="81.943" r="163.148" fx="151.774" fy="81.943" gradientTransform="scale(1.18234 .84578)" gradientUnits="userSpaceOnUse">
      <stop offset="0%" stop-color="#F80090"/>
      <stop offset="100%" stop-color="#4D008E"/>
    </radialGradient>
    <radialGradient id="b" cx="157.551" cy="84.43" r="170.054" fx="157.551" fy="84.43" gradientTransform="scale(1.14976 .86975)" gradientUnits="userSpaceOnUse">
      <stop offset="0%" stop-color="#57008E"/>
      <stop offset="29.175%" stop-color="#5C008E"/>
      <stop offset="100%" stop-color="#F80090"/>
    </radialGradient>
    <linearGradient id="c" x1="96.622" x2="138.859" y1="194.164" y2="250.778" gradientTransform="scale(1.12013 .89275)" gradientUnits="userSpaceOnUse">
      <stop offset="0%" stop-color="#F70090"/>
      <stop offset="66.971%" stop-color="#E50090"/>
      <stop offset="82.715%" stop-color="#D6008F" stop-opacity=".2"/>
      <stop offset="100%" stop-color="#C10090" stop-opacity="0"/>
    </linearGradient>
    <linearGradient id="d" x1="77.85" x2="69.586" y1="69.943" y2="61.302" gradientTransform="scale(1.35332 .73892)" gradientUnits="userSpaceOnUse">
      <stop offset="0%" stop-color="#B2008F" stop-opacity=".151"/>
      <stop offset="40.035%" stop-color="#F70090" stop-opacity=".4"/>
      <stop offset="64.9%" stop-color="#F60090" stop-opacity=".892"/>
      <stop offset="100%" stop-color="#FF0090"/>
    </linearGradient>
  </defs>
  <path fill="#ff0090" d="M16.685 156.974C3.567 87.228 38.236 19.963 117.808 11.014 106.835-.71 91.845-.797 84.948.629c-12.178 3.88-11.796 11.761-25.61 21.94-13.732 7.844-20.629 1.837-30.632 9.968-9.983 8.07-3.017 26.598-7.204 30.2-4.156 7.203-17.047 13.62-19.394 22.719-1.94 11.636 5.264 19.947 4.987 29.921.831 8.312-8.274 13.012-6.966 19.748 3.919 11.005 11.472 17.63 15.032 20.683.817.575 1.68 1.992 1.524 1.167z"/>
  <path fill="url(#a)" d="M158.275 60.579a5.264 5.264 0 1 1 .001-10.53 5.264 5.264 0 0 1 0 10.53zM19.757 164.733C7.15 104.117 46.16 53.468 121.704 78.403c44.327 25.932 100.09 24.243 102.603 7.48 6.207-20.095-28.26-61.506-79.792-72.311C42.281-6.377-12.834 104.117 19.757 164.732z" style="fill:url(#a)" transform="translate(0 -.152)"/>
  <path fill="url(#b)" d="M187.459 171.493c15.18 1.645 29.59-1.998 42.943-12.883-20.174 22.503-45.4 33.817-74.343 36.895 13.82 11.749 27.147 17.041 39.896 14.776-35.426 9.776-65.107-.984-101.213-36.94-1.89 9.679 8.333 24.76 18.87 34.386-61.138-26.505-66.498-109.073 8.053-129.383-77.28-37.13-120.979 35.014-99.51 94.142 21.007 45.54 76.985 80.6 138.337 72.89 29.8-3.65 74.302-24.197 92.482-72.89-12.813 11.498-35.716 21.512-45.936 22.28 34.59-17.287 53.264-46.662 48.022-86.81-7.165 17.058-16.619 30.159-28.444 39.156 25.12-39.157 20.81-59.396 2.217-81.639 13.298 36.572-3.905 77.161-41.374 106.02z" style="fill:url(#b)" transform="translate(0 -.152)"/>
  <path fill="url(#c)" d="M169.707 213.626c-2.625-.49 5.95 3.473-10.628-.916-16.577-4.388-33.457-8.617-64.337-39.37-1.89 9.68 8.333 24.76 18.87 34.387 28.444 19.838 9.1 10.56 52.44 25.542 3.478-6.922 3.655-13.074 3.655-19.643z" style="fill:url(#c)" transform="translate(0 -.152)"/>
  <path fill="url(#d)" d="M114.601 57.851s3.768-5.562 5.235-8.07c1.798-3.074 4.558-8.676 4.558-8.676S95.39 31.642 88.272 30.487c-22.127 5.744-22.207 15.014-9.837 29.203 1.376 1.58 36.166-1.839 36.166-1.839z" style="fill:url(#d)" transform="translate(0 -.152)"/>
</svg>
