<svg xmlns="http://www.w3.org/2000/svg" viewBox="0 0 511.874 191.336">
  <path fill="#dd4b39" d="M0 0h191.336v191.336H0z"/>
  <path fill="#333" d="m255.19 174.505-5.017-12.961h-31.671l-5.122 12.961h-19.65l31.461-73.272h19.651l30.73 73.272zm-30.94-27.595h20.279l-10.035-26.131zm111.624-23.1c-7.735-4.39-17.56-7.84-23.623-7.84-4.6 0-7.63 1.673-7.63 5.018 0 12.125 38.57 5.226 38.57 31.567 0 14.947-13.17 22.577-29.477 22.577-12.23 0-24.981-4.494-33.762-11.707l7.422-14.947c7.526 6.48 18.919 11.08 26.55 11.08 5.644 0 9.198-2.09 9.198-5.958 0-12.439-38.57-4.913-38.57-30.835 0-13.693 11.602-22.369 29.267-22.369 10.766 0 21.637 3.345 29.267 8.258zm55.492-23.1c22.683 0 39.616 15.888 39.616 37.107 0 21.427-16.933 37.524-39.616 37.524-22.682 0-39.615-16.097-39.615-37.524 0-21.324 16.933-37.107 39.615-37.107zm.21 16.306c-10.976 0-20.174 8.99-20.174 20.905 0 11.916 9.303 21.114 20.173 21.114 10.976 0 19.756-9.198 19.756-21.114s-8.78-20.905-19.756-20.905zm52.46-15.783h16.83l33.239 44.11v-44.11h17.77v73.272H495.15l-33.24-43.9v43.9h-17.873z"/>
  <path fill="#fff" d="M113.497 174.505H91.861l-10.662-20.278H66.983v20.278H47.855v-73.272h32.926c19.442 0 30.521 9.407 30.521 25.713 0 11.08-4.599 19.233-13.065 23.623zm-46.514-58.012v22.473h13.902c7.735 0 12.23-3.972 12.23-11.393 0-7.212-4.495-11.08-12.23-11.08zm56.549-15.26h57.803v15.26H142.66v13.693h34.912v15.156l-34.912.105v13.797h39.72v15.261h-58.848z"/>
</svg>
