<svg xmlns="http://www.w3.org/2000/svg" viewBox="0 0 510.157 175.71">
  <g transform="translate(210.936 42.355)">
    <circle cx="249.727" cy="18.137" r="11.114" fill="#ff4500"/>
    <path fill="#222" d="M156.209 0c3.341 0 6.095 2.638 6.28 5.935l.01.356v80.83c0 3.46-2.83 6.29-6.29 6.29-3.039 0-5.661-2.2-6.185-5.138-4.297 4.3-9.75 6.502-16.146 6.502-16.564 0-29.983-14.993-29.983-33.444 0-18.452 13.42-33.445 29.983-33.445 6.15 0 11.33 1.94 15.542 5.91l.5.487V6.29C149.92 2.83 152.75 0 156.21 0zm65.63 0c3.341 0 6.094 2.638 6.28 5.935l.01.356v80.83c0 3.46-2.83 6.29-6.29 6.29-3.041 0-5.662-2.2-6.185-5.138-4.3 4.3-9.75 6.502-16.146 6.502-16.564 0-29.983-14.993-29.983-33.444 0-18.452 13.42-33.445 29.983-33.445 6.15 0 11.33 1.94 15.54 5.91l.5.487V6.29c0-3.461 2.832-6.291 6.29-6.291zM69.822 27.78c13.945 0 25.686 10.696 29.04 25.163l.114.605c.17.963.326 2.188.41 3.903.204 3.868-2.753 7.833-7.912 8.063l-.475.01v-.21H52.734c1.573 9.54 8.702 16.774 17.088 16.774 7.13 0 11.533-3.983 13.84-5.976 2.41-1.991 5.66-2.62 8.281-.838 3.146 2.202 3.67 6.71 1.05 9.646-5.347 5.976-12.79 9.75-23.171 9.75-16.564 0-29.984-14.993-29.984-33.445 0-18.452 13.42-33.444 29.984-33.444zm211.83-13.848.364.011c3.236.202 5.69 2.938 5.861 6.142l.01.358v8.807h5.767c3.146 0 5.767 2.725 5.556 5.974-.201 2.924-2.632 5.073-5.428 5.234l-.337.01h-5.558v46.758c0 3.459-2.724 6.185-6.394 6.394-3.34 0-6.095-2.638-6.28-5.933l-.01-.356V40.573h-5.347c-3.145 0-5.767-2.726-5.556-5.976.201-2.924 2.632-5.072 5.428-5.233l.337-.01h5.243v-9.12c0-3.548 2.84-6.31 6.344-6.302zM35.225 28.201c2.936.524 5.242 3.04 5.242 6.185 0 3.134-2.34 5.78-5.327 6.155l-.335.032h-1.258c-11.974-1.343-20.695 7.988-20.96 19.482l-.007.54V87.12c0 3.67-3.04 6.5-6.71 6.29C2.634 93.21.18 90.474.01 87.27L0 86.91V35.539c0-3.459 2.83-6.289 6.29-6.289 3.036 0 6.074 2.247 6.28 5.893l.011.396v.84c4.927-6.187 13.523-9.54 22.645-8.178zm214.501 6.605c3.34 0 6.093 2.638 6.279 5.935l.01.356V87.12c0 3.461-2.83 6.29-6.289 6.29-3.342 0-6.095-2.637-6.28-5.934l-.01-.356V41.097c0-3.461 2.83-6.29 6.29-6.29zm-115.743 5.556c-9.646 0-17.404 9.437-17.404 20.969 0 11.637 7.758 20.966 17.404 20.966 9.54 0 17.404-9.33 17.404-20.966 0-11.638-7.758-20.969-17.404-20.969zm65.524 0c-9.646 0-17.402 9.437-17.402 20.969 0 11.637 7.756 20.966 17.402 20.966s17.404-9.33 17.404-20.966c0-11.638-7.758-20.969-17.404-20.969zm-129.79.106c-7.378 0-13.753 5.507-16.29 13.389l-.17.554h32.92c-2.411-8.073-8.913-13.943-16.46-13.943z"/>
  </g>
  <circle cx="87.855" cy="87.855" r="87.855" fill="#ff4500"/>
  <path fill="#fff" d="M146.46 87.855c0-7.129-5.766-12.79-12.79-12.79a12.875 12.875 0 0 0-8.912 3.564c-8.806-6.29-20.863-10.379-34.283-10.902l5.87-27.469 19.082 4.089c.21 4.823 4.193 8.702 9.122 8.702 5.032 0 9.12-4.089 9.12-9.123 0-5.032-4.088-9.12-9.12-9.12-3.565 0-6.71 2.097-8.178 5.138l-21.282-4.509c-.629-.105-1.258 0-1.678.315-.524.315-.839.838-.942 1.468L85.967 67.83c-13.628.42-25.895 4.509-34.806 10.905a12.875 12.875 0 0 0-8.911-3.565c-7.13 0-12.79 5.765-12.79 12.79 0 5.242 3.144 9.644 7.549 11.638a23.082 23.082 0 0 0-.315 3.879c0 19.708 22.96 35.75 51.266 35.75 28.307 0 51.267-15.937 51.267-35.75 0-1.259-.106-2.623-.315-3.88a12.916 12.916 0 0 0 7.547-11.742zm-87.856 9.12c0-5.032 4.089-9.12 9.123-9.12 5.032 0 9.12 4.088 9.12 9.12 0 5.032-4.088 9.122-9.12 9.122-5.034.104-9.123-4.09-9.123-9.122zm51.058 24.219c-6.29 6.29-18.243 6.71-21.702 6.71-3.564 0-15.516-.525-21.703-6.71a2.345 2.345 0 0 1 0-3.356 2.345 2.345 0 0 1 3.355 0c3.985 3.985 12.372 5.347 18.348 5.347 5.976 0 14.467-1.362 18.346-5.347a2.345 2.345 0 0 1 3.356 0 2.553 2.553 0 0 1 0 3.356zm-1.679-14.993c-5.032 0-9.12-4.088-9.12-9.12 0-5.032 4.088-9.12 9.12-9.12 5.034 0 9.122 4.088 9.122 9.12 0 4.926-4.088 9.12-9.122 9.12z"/>
</svg>
