<svg xmlns="http://www.w3.org/2000/svg" viewBox="0 0 511.996 120.501">
  <path fill="#e00" d="M106.25 69.447c10.469 0 25.615-2.159 25.615-14.61a11.714 11.714 0 0 0-.26-2.863l-6.234-27.079c-1.439-5.958-2.702-8.66-13.163-13.89C104.091 6.853 86.41 0 81.18 0c-4.87 0-6.284 6.276-12.092 6.276-5.59 0-9.74-4.686-14.97-4.686-5.021 0-8.293 3.423-10.82 10.46 0 0-7.038 19.85-7.942 22.728a5.38 5.38 0 0 0-.184 1.623c0 7.716 30.377 33.013 71.08 33.013m27.22-9.523c1.448 6.853 1.448 7.573 1.448 8.477 0 11.715-13.171 18.217-30.485 18.217-39.13.025-73.405-22.903-73.405-38.058a15.439 15.439 0 0 1 1.264-6.134C18.217 43.096 0 45.606 0 61.69 0 88.033 62.418 120.5 111.84 120.5c37.891 0 47.447-17.138 47.447-30.669 0-10.644-9.204-22.728-25.798-29.941"/>
  <path d="M133.472 59.89c1.447 6.854 1.447 7.574 1.447 8.478 0 11.715-13.171 18.217-30.485 18.217-39.13.025-73.405-22.903-73.405-38.058a15.439 15.439 0 0 1 1.264-6.134l3.062-7.582a5.38 5.38 0 0 0-.184 1.59c0 7.716 30.377 33.013 71.08 33.013 10.468 0 25.614-2.16 25.614-14.611a11.714 11.714 0 0 0-.26-2.862zM484.716 77.238c0 9.95 5.983 14.786 16.895 14.786a43.606 43.606 0 0 0 9.95-1.405v-11.54a20.786 20.786 0 0 1-6.427.97c-4.493 0-6.159-1.405-6.159-5.631V56.736h13.021V44.853h-13.02V29.791l-14.227 3.079v11.983h-9.447v11.883h9.414zm-44.351.268c0-3.08 3.088-4.578 7.749-4.578 2.849.017 5.686.37 8.452 1.055v5.983a18 18 0 0 1-8.896 2.2c-4.569 0-7.305-1.757-7.305-4.66m4.351 14.694c5.021 0 9.071-1.054 12.854-3.607v2.82h14.075v-29.84c0-11.347-7.649-17.573-20.41-17.573-7.13 0-14.176 1.673-21.757 5.104l5.104 10.477c5.457-2.293 10.042-3.699 14.084-3.699 5.858 0 8.887 2.285 8.887 6.954v2.285a41.447 41.447 0 0 0-10.56-1.322c-11.975 0-19.189 5.02-19.189 14 0 8.184 6.51 14.426 16.896 14.426m-77.356-.786h15.138V67.297h25.348v24.117h15.18V29.807h-15.122v23.674h-25.347V29.807h-15.138zm-57.623-23.347c0-6.695 5.28-11.8 12.235-11.8a14.41 14.41 0 0 1 9.84 3.615v16.277a13.69 13.69 0 0 1-9.84 3.732c-6.862 0-12.235-5.105-12.235-11.791m22.268 23.322h14.084v-64.72l-14.226 3.08v17.515a23.682 23.682 0 0 0-11.883-3.08c-13.548 0-24.2 10.469-24.2 23.85a23.64 23.64 0 0 0 23.765 23.933 21.023 21.023 0 0 0 12.494-4.042zm-64.627-35.799c4.485 0 8.268 2.904 9.766 7.39h-19.414c1.405-4.628 4.928-7.39 9.648-7.39M243.371 68.2c0 13.557 11.087 24.117 25.338 24.117 7.833 0 13.557-2.117 19.456-7.046l-9.422-8.368c-2.201 2.293-5.456 3.523-9.322 3.523a12.042 12.042 0 0 1-11.448-7.389h33.18v-3.54c0-14.786-9.942-25.43-23.498-25.43a23.908 23.908 0 0 0-24.268 24.108m-24.56-25.43c5.02 0 7.832 3.163 7.832 6.953 0 3.791-2.811 6.954-7.832 6.954h-14.97V42.744zM188.7 91.413h15.138V68.97h11.523l11.624 22.444h16.945l-13.556-24.645a18.636 18.636 0 0 0 11.615-17.338c0-11.088-8.711-19.624-21.757-19.624H188.7z"/>
</svg>
