<svg xmlns="http://www.w3.org/2000/svg" viewBox="0 0 256 343.382">
  <path fill="#ee3a43" d="M0 323.815c0 10.808 8.761 19.567 19.567 19.567 10.806 0 19.567-8.76 19.567-19.567V196.073l-.905-.33L.327 218.127 0 219.183z"/>
  <path fill="#cf3239" d="M0 83.144v136.039l39.134-23.11V94.343l.014-.41-35.98-20.815-.468.133A19.531 19.531 0 0 0 0 83.144"/>
  <path fill="#af272b" d="M117.927 2.678 9.657 66.27A19.549 19.549 0 0 0 2.7 73.25l36.434 21.092 88.815-52.165.749-1.215V.82l-.75-.82a19.468 19.468 0 0 0-10.021 2.678"/>
  <path fill="#7a1313" d="M245.523 64.542 137.578 2.58A19.638 19.638 0 0 0 127.95 0v42.177l88.324 50.698.57.152 36.913-18.357.165-.446a19.546 19.546 0 0 0-8.4-9.683"/>
  <path fill="#af272b" d="m256 204.028-.652-122.62a19.52 19.52 0 0 0-1.427-7.184l-37.647 18.651.009 100.15.144.734 34.267 22.835.843-.079c2.846-3.473 4.487-7.858 4.463-12.487"/>
  <path fill="#cf3239" d="m251.536 216.515-35.254-23.489-97.539 57.159c-.072.043 48.623 17.648 48.623 17.648l78.885-46.811c1.992-1.181 3.862-2.77 5.286-4.507"/>
  <path fill="#ee3a43" d="M228.835 343.255c-3.197 0-6.438-.783-9.434-2.438l-101.44-55.957c-9.462-5.22-12.902-17.12-7.682-26.583 5.217-9.463 17.125-12.91 26.584-7.682l101.44 55.957c9.463 5.22 12.902 17.121 7.682 26.583-3.566 6.466-10.254 10.12-17.15 10.12"/>
  <path fill="#cf3239" d="m127.477 144.015 40.924-24.12.242-.719c-1.992-2.972-4.62-5.532-7.823-7.382l-21.397-12.353a23.79 23.79 0 0 0-23.793 0l-21.398 12.353c-3.165 1.828-5.766 4.348-7.75 7.273l.18.828z"/>
  <path fill="#7a1313" d="M160.82 177.713c4.133-2.386 7.33-5.931 9.379-10.066l-.241-.743-41.643-23.82-.875.107-1.212.069-41.18 24.264.049.617c2.058 3.922 5.167 7.28 9.135 9.572l21.398 12.354a23.794 23.794 0 0 0 23.793 0z"/>
  <path fill="#af272b" d="M86.479 119.071c-2.63 3.877-4.143 8.485-4.143 13.33v24.706c0 3.927 1.005 7.697 2.772 11.056l42.333-24.973z"/>
  <path fill="#ee3a43" d="M170.201 167.643c1.599-3.229 2.515-6.809 2.515-10.536V132.4c0-4.799-1.487-9.365-4.07-13.22l-41.206 24.011z"/>
</svg>
