<svg xmlns="http://www.w3.org/2000/svg" viewBox="0 0 512 186.182">
  <path fill="#ff351a" d="M477.09 0H34.91C15.65 0 0 15.65 0 34.91V128c0 16.29 11.113 29.905 26.182 33.804.523.116 1.687.407 1.803.407C101.527 177.92 177.804 186.18 256 186.18s154.473-8.261 228.015-23.97c.116 0 1.28-.291 1.803-.407C500.888 157.905 512 144.233 512 128V34.91C512 15.65 496.35 0 477.09 0zM93.034 122.007c-.873.524-1.92.757-2.851.757-2.618 0-3.84-1.862-5.237-4.306L70.458 93.033H57.251v22.516c0 2.618-.058 3.433-.756 4.771-.757 1.396-2.386 2.385-4.48 2.385-2.095 0-3.724-.989-4.48-2.385-.757-1.396-.757-2.21-.757-4.77V59.17c0-1.57 0-3.432 1.513-4.945 1.513-1.512 3.374-1.512 4.945-1.512h20.539c13.207 0 21.585 8.494 21.585 20.305 0 9.95-5.993 16.291-13.79 18.502l12.452 21.76c1.222 2.153 1.629 3.025 1.687 4.364-.058 1.745-.873 3.316-2.676 4.363zm-8.32-48.814c0-6.866-4.771-11.055-11.811-11.055H57.25v21.877H72.9c7.04 0 11.812-4.015 11.812-10.822zM141.09 99.2c-1.28 1.28-2.91 1.28-4.422 1.28h-26.356c0 8.436 4.422 13.964 12.683 13.964 3.491 0 6.866-.99 9.542-3.142 1.513-1.222 2.793-1.804 4.073-1.804 1.978 0 4.13 1.978 4.13 4.247 0 2.27-2.56 4.422-5.003 5.993-3.142 2.037-7.622 3.2-12.974 3.2-12.393 0-22.342-6.516-22.342-25.367 0-16.35 8.378-25.367 21.003-25.367 12.975 0 20.655 9.425 20.946 22.516.116 1.455-.058 3.258-1.28 4.48zm-19.607-18.676c-4.771 0-8.204 2.56-9.891 6.283-.99 2.153-1.164 3.724-1.28 6.75h22.283c-.174-3.026-.407-4.597-1.396-6.75-1.63-3.723-5.004-6.283-9.716-6.283zm68.421 35.374c0 2.735-.174 3.607-.872 4.713-.815 1.338-2.444 2.094-4.131 2.094-1.63 0-3.142-.64-4.073-1.978-.524-.756-.756-1.454-.873-3.49-3.665 4.363-7.796 5.643-12.974 5.643-5.004 0-9.367-1.687-12.102-4.422-4.77-4.887-5.47-12.8-5.47-21.003 0-8.088.7-16.059 5.47-20.946 2.735-2.734 7.04-4.422 12.044-4.422 5.294 0 9.367 1.28 12.974 5.586V59.055c0-2.386.175-3.259.757-4.422.698-1.338 2.094-2.328 4.247-2.328s3.549 1.048 4.247 2.328c.582 1.163.756 2.036.756 4.422zm-20.247-34.676c-9.018 0-10.24 7.563-10.24 16.349 0 8.785 1.28 16.349 10.24 16.349 9.018 0 10.298-7.564 10.298-16.35 0-8.785-1.221-16.348-10.298-16.348zm48.233 41.716c-7.738 0-12.8-1.454-17.28-4.48-1.571-1.047-2.735-2.443-2.735-4.13 0-1.28.582-2.619 1.63-3.433.756-.699 1.687-1.048 2.734-1.048s2.21.466 3.724 1.397c3.49 2.269 6.923 3.316 11.985 3.316 6.342 0 10.88-2.27 10.88-6.982 0-3.316-1.92-5.41-6.69-5.876l-7.972-.757c-9.25-.814-14.662-5.003-14.662-13.614 0-9.716 8.379-15.186 18.735-15.186 5.353 0 9.484.931 13.324 2.735 1.687.756 2.618 1.396 3.2 2.095.756.872.93 1.629.93 2.734 0 .99-.523 2.211-1.221 2.91-.815.814-1.746 1.28-2.91 1.28-.93 0-1.92-.408-3.2-1.048-3.141-1.513-6.516-2.618-10.298-2.618-5.934 0-8.901 2.734-8.901 6.516 0 3.666 2.269 5.295 6.865 5.644l7.796.756c9.251.873 14.72 5.12 14.72 13.964 0 10.472-8.785 15.825-20.654 15.825zm64.058-4.422c-2.734 2.735-7.04 4.422-12.044 4.422-5.294 0-9.367-1.338-12.974-5.643v18.618c0 2.385-.175 3.258-.756 4.422-.699 1.338-2.095 2.327-4.248 2.327-2.152 0-3.549-1.047-4.247-2.327-.582-1.164-.756-2.037-.756-4.422V79.185c0-2.734.174-3.607.872-4.712.815-1.338 2.444-2.095 4.131-2.095 1.63 0 3.142.64 4.073 1.978.524.757.756 1.513.873 3.491 3.665-4.363 7.738-5.643 12.974-5.643 5.004 0 9.368 1.687 12.102 4.421 4.771 4.888 5.47 12.8 5.47 21.004 0 8.03-.699 16-5.47 20.887zm-14.778-37.352c-9.018 0-10.298 7.563-10.298 16.349 0 8.785 1.28 16.407 10.298 16.407s10.24-7.622 10.24-16.407c0-8.786-1.28-16.35-10.24-16.35zm59.287 2.792c-1.047 0-2.153-.349-3.84-1.338-1.687-.93-3.433-1.454-5.353-1.454-5.643 0-10.123 4.189-10.123 11.112v23.68c0 2.386-.175 3.259-.757 4.422-.698 1.338-2.094 2.327-4.247 2.327s-3.549-1.047-4.247-2.327c-.582-1.163-.756-2.036-.756-4.422V79.244c0-2.735.174-3.608.872-4.713.815-1.338 2.444-2.095 4.131-2.095 1.63 0 3.142.64 4.073 1.979.524.756.756 1.512.873 3.607 2.792-3.491 7.447-5.76 12.625-5.76 3.666 0 6.284.698 8.727 2.269 1.688 1.105 2.968 2.618 2.968 4.48 0 1.396-.582 2.734-1.455 3.607-.93.815-2.21 1.338-3.49 1.338zM371.84 99.2c-1.28 1.28-2.91 1.28-4.422 1.28h-26.356c0 8.436 4.422 13.964 12.683 13.964 3.491 0 6.866-.99 9.542-3.142 1.513-1.222 2.793-1.804 4.073-1.804 1.978 0 4.13 1.978 4.13 4.247 0 2.27-2.56 4.422-5.003 5.993-3.142 2.037-7.622 3.2-12.974 3.2-12.393 0-22.342-6.516-22.342-25.367 0-16.35 8.378-25.367 21.004-25.367 12.974 0 20.654 9.425 20.945 22.516.175 1.455-.058 3.258-1.28 4.48zm-19.607-18.676c-4.771 0-8.204 2.56-9.891 6.283-.99 2.153-1.164 3.724-1.28 6.75h22.283c-.174-3.026-.407-4.597-1.396-6.75-1.57-3.723-5.004-6.283-9.716-6.283zm66.734 35.432c0 2.444-.116 3.375-.756 4.48-.756 1.397-2.327 2.27-4.247 2.27-1.63 0-2.851-.582-3.608-1.397-.581-.698-1.047-1.454-1.105-3.549-3.898 3.84-7.215 5.12-13.266 5.12-6.225 0-10.356-1.396-13.323-4.48-2.56-2.618-3.957-6.4-3.957-10.59 0-8.32 5.935-14.37 17.164-14.37h13.15v-3.084c0-6.516-3.084-9.658-10.357-9.658-3.957 0-6.575 1.106-9.484 3.317-1.28.989-2.676 1.338-3.607 1.338a3.907 3.907 0 0 1-2.91-1.338c-.814-.931-1.163-1.746-1.163-3.084 0-2.27 2.095-4.247 4.655-5.702 3.49-1.978 7.505-2.967 12.625-2.967 13.266 0 20.306 5.818 20.306 17.047v26.647zm-30.603-8.32c0 4.48 3.025 6.982 9.309 6.982 3.549 0 6.516-.407 9.018-2.85 1.57-1.455 2.21-3.724 2.21-7.39v-3.898H397.15c-5.818 0-8.785 2.56-8.785 7.156zm80.29 8.262c0 2.735-.174 3.607-.872 4.713-.815 1.338-2.444 2.094-4.131 2.094-1.63 0-3.142-.64-4.073-1.978-.523-.756-.756-1.454-.873-3.49-3.665 4.363-7.796 5.643-12.974 5.643-5.004 0-9.367-1.687-12.102-4.422-4.77-4.887-5.469-12.8-5.469-21.003 0-8.088.698-16.059 5.47-20.946 2.734-2.734 7.04-4.422 12.043-4.422 5.294 0 9.367 1.28 12.974 5.586V59.055c0-2.386.175-3.259.757-4.422.698-1.338 2.094-2.328 4.247-2.328s3.549 1.048 4.247 2.328c.582 1.163.757 2.036.757 4.422zm-20.247-34.676c-9.018 0-10.24 7.563-10.24 16.349 0 8.785 1.28 16.349 10.24 16.349 9.018 0 10.298-7.564 10.298-16.35.059-8.785-1.221-16.348-10.298-16.348z"/>
</svg>
