<svg xmlns="http://www.w3.org/2000/svg" viewBox="0 0 255.972 249.89">
  <defs>
    <radialGradient id="c" cx="76.426" cy="120.055" r="190.319" fx="76.426" fy="120.055" gradientTransform="scale(.73306 1.36414)" gradientUnits="userSpaceOnUse">
      <stop offset="0%" stop-color="#EC178D"/>
      <stop offset="24%" stop-color="#CB1C8C"/>
      <stop offset="77%" stop-color="#772888"/>
      <stop offset="100%" stop-color="#512E87"/>
    </radialGradient>
    <radialGradient id="d" cx="95.518" cy="196.912" r="21.818" fx="95.518" fy="196.912" gradientTransform="scale(1.10265 .9069)" gradientUnits="userSpaceOnUse">
      <stop offset="0%" stop-color="#BA258E"/>
      <stop offset="23%" stop-color="#B5258D"/>
      <stop offset="51%" stop-color="#A5278B"/>
      <stop offset="83%" stop-color="#8B2987"/>
      <stop offset="100%" stop-color="#7A2A85"/>
    </radialGradient>
    <radialGradient id="e" cx="3.529" cy="67.821" r="20.631" fx="3.529" fy="67.821" gradientTransform="scale(.80223 1.24653)" gradientUnits="userSpaceOnUse">
      <stop offset="9%" stop-color="#E21A8D"/>
      <stop offset="100%" stop-color="#952584"/>
    </radialGradient>
    <radialGradient id="f" cx="9.682" cy="62.909" r="11.042" fx="9.682" fy="62.909" gradientTransform="scale(.91166 1.0969)" gradientUnits="userSpaceOnUse">
      <stop offset="9%" stop-color="#E21A8D"/>
      <stop offset="100%" stop-color="#952584"/>
    </radialGradient>
    <radialGradient id="g" cx="12.09" cy="86.885" r="12.816" fx="12.09" fy="86.885" gradientTransform="scale(.86433 1.15696)" gradientUnits="userSpaceOnUse">
      <stop offset="9%" stop-color="#E21A8D"/>
      <stop offset="100%" stop-color="#952584"/>
    </radialGradient>
    <radialGradient id="h" cx="31.467" cy="81.483" r="79.812" fx="31.467" fy="81.483" gradientTransform="scale(.77181 1.29565)" gradientUnits="userSpaceOnUse">
      <stop offset="0%" stop-color="#E21A8D"/>
      <stop offset="25%" stop-color="#DF1A8D"/>
      <stop offset="44%" stop-color="#D51C8C"/>
      <stop offset="60%" stop-color="#C51E8A"/>
      <stop offset="76%" stop-color="#AF2187"/>
      <stop offset="89%" stop-color="#952584"/>
    </radialGradient>
    <radialGradient id="k" cx="136.451" cy="57.015" r="155.631" fx="136.451" fy="57.015" gradientTransform="scale(.89645 1.11551)" gradientUnits="userSpaceOnUse">
      <stop offset="0%" stop-color="#EC178D"/>
      <stop offset="24%" stop-color="#CB1C8C"/>
      <stop offset="77%" stop-color="#772888"/>
      <stop offset="100%" stop-color="#512E87"/>
    </radialGradient>
    <radialGradient id="l" cx="142.172" cy="10.514" r="30.938" fx="142.172" fy="10.514" gradientTransform="scale(.77759 1.28603)" gradientUnits="userSpaceOnUse">
      <stop offset="0%" stop-color="#BA258E"/>
      <stop offset="23%" stop-color="#B5258D"/>
      <stop offset="51%" stop-color="#A5278B"/>
      <stop offset="83%" stop-color="#8B2987"/>
      <stop offset="100%" stop-color="#7A2A85"/>
    </radialGradient>
    <radialGradient id="m" cx="92.084" cy="130.29" r="18.963" fx="92.084" fy="130.29" gradientTransform="scale(.87281 1.14572)" gradientUnits="userSpaceOnUse">
      <stop offset="9%" stop-color="#E21A8D"/>
      <stop offset="100%" stop-color="#952584"/>
    </radialGradient>
    <radialGradient id="n" cx="89.272" cy="108.724" r="14.06" fx="89.272" fy="108.724" gradientTransform="scale(.71598 1.39668)" gradientUnits="userSpaceOnUse">
      <stop offset="9%" stop-color="#E21A8D"/>
      <stop offset="100%" stop-color="#952584"/>
    </radialGradient>
    <radialGradient id="o" cx="127.247" cy="95.69" r="15.592" fx="127.247" fy="95.69" gradientTransform="scale(.71045 1.40755)" gradientUnits="userSpaceOnUse">
      <stop offset="9%" stop-color="#E21A8D"/>
      <stop offset="100%" stop-color="#952584"/>
    </radialGradient>
    <radialGradient id="p" cx="107.811" cy="97.915" r="75.591" fx="107.811" fy="97.915" gradientTransform="scale(.81491 1.22712)" gradientUnits="userSpaceOnUse">
      <stop offset="0%" stop-color="#E21A8D"/>
      <stop offset="25%" stop-color="#DF1A8D"/>
      <stop offset="44%" stop-color="#D51C8C"/>
      <stop offset="60%" stop-color="#C51E8A"/>
      <stop offset="76%" stop-color="#AF2187"/>
      <stop offset="89%" stop-color="#952584"/>
    </radialGradient>
    <radialGradient id="s" cx="24.567" cy="21.073" r="77.468" fx="24.567" fy="21.073" gradientTransform="scale(1.80095 .55526)" gradientUnits="userSpaceOnUse">
      <stop offset="0%" stop-color="#EC178D"/>
      <stop offset="24%" stop-color="#CB1C8C"/>
      <stop offset="77%" stop-color="#772888"/>
      <stop offset="100%" stop-color="#512E87"/>
    </radialGradient>
    <radialGradient id="t" cx="5.815" cy="54.164" r="20.869" fx="5.815" fy="54.164" gradientTransform="scale(1.15278 .86747)" gradientUnits="userSpaceOnUse">
      <stop offset="0%" stop-color="#BA258E"/>
      <stop offset="23%" stop-color="#B5258D"/>
      <stop offset="51%" stop-color="#A5278B"/>
      <stop offset="83%" stop-color="#8B2987"/>
      <stop offset="100%" stop-color="#7A2A85"/>
    </radialGradient>
    <radialGradient id="u" cx="95.883" cy="7.661" r="11.385" fx="95.883" fy="7.661" gradientTransform="scale(1.45378 .68786)" gradientUnits="userSpaceOnUse">
      <stop offset="9%" stop-color="#E21A8D"/>
      <stop offset="100%" stop-color="#952584"/>
    </radialGradient>
    <radialGradient id="v" cx="89.543" cy="30.509" r="6.016" fx="89.543" fy="30.509" gradientTransform="scale(1.6735 .59755)" gradientUnits="userSpaceOnUse">
      <stop offset="9%" stop-color="#E21A8D"/>
      <stop offset="100%" stop-color="#952584"/>
    </radialGradient>
    <radialGradient id="w" cx="72.384" cy="6.521" r="6.586" fx="72.384" fy="6.521" gradientTransform="scale(1.68191 .59456)" gradientUnits="userSpaceOnUse">
      <stop offset="9%" stop-color="#E21A8D"/>
      <stop offset="100%" stop-color="#952584"/>
    </radialGradient>
    <radialGradient id="x" cx="63.869" cy="23.105" r="35.624" fx="63.869" fy="23.105" gradientTransform="scale(1.72915 .57832)" gradientUnits="userSpaceOnUse">
      <stop offset="0%" stop-color="#E21A8D"/>
      <stop offset="25%" stop-color="#DF1A8D"/>
      <stop offset="44%" stop-color="#D51C8C"/>
      <stop offset="60%" stop-color="#C51E8A"/>
      <stop offset="76%" stop-color="#AF2187"/>
      <stop offset="89%" stop-color="#952584"/>
    </radialGradient>
    <linearGradient id="a" x1="35.511" x2="28.29" y1="19.138" y2="25.911" gradientTransform="scale(.81507 1.2269)" gradientUnits="userSpaceOnUse">
      <stop offset="0%" stop-color="#B1278F"/>
      <stop offset="48%" stop-color="#AF278E"/>
      <stop offset="65%" stop-color="#A8258A"/>
      <stop offset="76%" stop-color="#9E2383"/>
    </linearGradient>
    <linearGradient id="b" x1="60.967" x2="31.686" y1="12.207" y2="27.889" gradientTransform="scale(.6158 1.62392)" gradientUnits="userSpaceOnUse">
      <stop offset="0%" stop-color="#EC178D"/>
      <stop offset="47%" stop-color="#EA178D"/>
      <stop offset="64%" stop-color="#E3188C"/>
      <stop offset="76%" stop-color="#D81A8A"/>
      <stop offset="86%" stop-color="#C71D88"/>
      <stop offset="95%" stop-color="#B12085"/>
      <stop offset="100%" stop-color="#9E2383"/>
    </linearGradient>
    <linearGradient id="i" x1="19.77" x2="33.675" y1="114.615" y2="115.302" gradientTransform="scale(.72926 1.37126)" gradientUnits="userSpaceOnUse">
      <stop offset="0%" stop-color="#B1278F"/>
      <stop offset="48%" stop-color="#AF278E"/>
      <stop offset="65%" stop-color="#A8258A"/>
      <stop offset="76%" stop-color="#9E2383"/>
    </linearGradient>
    <linearGradient id="j" x1="6.857" x2="37.512" y1="153.606" y2="156.527" gradientTransform="scale(1.01359 .9866)" gradientUnits="userSpaceOnUse">
      <stop offset="0%" stop-color="#EC178D"/>
      <stop offset="47%" stop-color="#EA178D"/>
      <stop offset="64%" stop-color="#E3188C"/>
      <stop offset="76%" stop-color="#D81A8A"/>
      <stop offset="86%" stop-color="#C71D88"/>
      <stop offset="95%" stop-color="#B12085"/>
      <stop offset="100%" stop-color="#9E2383"/>
    </linearGradient>
    <linearGradient id="q" x1="75.494" x2="73.702" y1="138.5" y2="116.54" gradientTransform="scale(2.37333 .42135)" gradientUnits="userSpaceOnUse">
      <stop offset="0%" stop-color="#B1278F"/>
      <stop offset="48%" stop-color="#AF278E"/>
      <stop offset="65%" stop-color="#A8258A"/>
      <stop offset="76%" stop-color="#9E2383"/>
    </linearGradient>
    <linearGradient id="r" x1="114.898" x2="106.482" y1="104.803" y2="60.87" gradientTransform="scale(1.54956 .64535)" gradientUnits="userSpaceOnUse">
      <stop offset="0%" stop-color="#EC178D"/>
      <stop offset="47%" stop-color="#EA178D"/>
      <stop offset="64%" stop-color="#E3188C"/>
      <stop offset="76%" stop-color="#D81A8A"/>
      <stop offset="86%" stop-color="#C71D88"/>
      <stop offset="95%" stop-color="#B12085"/>
      <stop offset="100%" stop-color="#9E2383"/>
    </linearGradient>
  </defs>
  <path fill="url(#a)" d="M24.305 20.221c-1.793-.398-3.885-1.195-5.379-2.191 2.39 2.191 12.053 17.332 13.547 20.42.299-3.088-2.988-12.95-8.168-18.229z" style="fill:url(#a)" transform="translate(0 65.754)"/>
  <path fill="url(#b)" d="M33.967 55.384s3.088-14.245.996-23.509c-2.091-9.263-7.37-19.025-7.37-19.125 0 0 .497 4.881-1.196 5.479-1.693.597-6.873-3.487-6.873-3.487s7.271 7.87 10.26 14.743c2.59 5.877 3.287 9.363 2.191 16.635-1.096 7.271-1.295 7.072-1.295 7.072z" style="fill:url(#b)" transform="translate(0 65.754)"/>
  <path fill="url(#c)" d="M14.664 1.594a29.289 29.289 0 0 0-2.49 4.582c-3.487 6.574-6.475 13.348-8.866 20.42-13.447 42.634 15.739 126.406 57.874 125.211 4.782-.1 9.165 3.785 7.77 10.16-.498 2.391-.797 4.782-.996 7.272-.598 3.287.498 6.574 2.789 8.965 3.188 3.387 7.57 6.375 12.95 5.877 3.386-.299 4.482-1.096 7.37-3.188 2.391-1.693 4.284-3.884 6.675-5.677.199-.2.498-.3.697-.498-6.973-5.28-5.778-11.954-2.59-22.712-1.295-1.095-2.39-2.191-3.486-3.387-1.196-1.294-2.192-2.689-3.288-4.084-.896-1.095-2.091-2.091-2.888-3.187-2.192-3.188-2.092-7.67-2.092-11.555.1-4.084.797-8.268 0-12.252-.697-3.387-1.992-6.674-3.586-9.762a51.086 51.086 0 0 0-12.551-15.838c-5.28-4.483-10.559-8.965-15.739-13.647-4.183-3.785-7.77-7.371-10.06-12.65a72.797 72.797 0 0 1-3.885-11.057c-.797-2.989-1.295-6.076-2.291-8.965a42.08 42.08 0 0 0-2.989-6.475c-1.892-3.486-3.486-7.272-5.578-10.658-2.191-3.785-4.88-7.87-8.666-10.46 1.195-1.394 1.694-3.187 1.494-5.08-.1-1.295-.398-3.785-2.092-3.984.399-1.295.797-2.69.997-3.984.398-1.395 0-2.89-1.196-3.786-.996-.199-1.992-.299-2.988-.199 0 .2-.2.399-.299.598zm74.21 166.948c1.295 1.195 1.395 3.287.299 4.582-.896 1.494-2.79 1.892-4.283.996 0 0-.1 0-.1-.1-1.295-1.195-1.394-3.287-.299-4.582.897-1.494 2.79-1.892 4.284-.996 0 .1 0 .1.1.1z" style="fill:url(#c)" transform="translate(0 65.754)"/>
  <path fill="url(#d)" d="M99.412 174.32c3.984-1.694 8.267-1.196 12.152-.4 3.387.698 6.674 1.694 9.961 2.89 4.98-5.48.598-13.249-3.785-15.54-4.383-2.291-9.563-3.287-14.543-4.682-2.39-.697-4.582-2.49-6.475-3.984-3.088 10.559-4.183 16.735 2.69 21.715z" style="fill:url(#d)" transform="translate(0 65.754)"/>
  <path fill="url(#e)" d="M15.041 90.845c-.199-2.988 2.59-1.494 4.682 0-2.69-2.39-6.873-6.674-5.28-9.264 1.196-1.793 2.989-.996 4.483.2-1.992-2.391-3.984-5.678-2.988-8.069-3.387-2.889-6.873-5.08-8.766-4.283-1.793.797 1.295 5.28 5.28 9.861-2.79-2.29-5.38-3.685-6.675-2.39-1.992 2.091 3.985 9.164 9.264 14.642.1-.199 0-.398 0-.697z" style="fill:url(#e)" transform="translate(0 65.754)"/>
  <path fill="url(#f)" d="M8.567 60.065c-1.793 1.893 2.789 7.97 7.67 13.348.996-1.494 2.789-.299 4.482 1.295-2.59-3.387-5.379-7.77-3.387-9.064.1-.1.2-.1.399-.2-3.686-3.785-7.57-7.072-9.164-5.379z" style="fill:url(#f)" transform="translate(0 65.754)"/>
  <path fill="url(#g)" d="M16.934 99.511c-.299-1.394.1-1.892.797-2.092 1.195 0 2.39.3 3.387.997-1.694-.997-4.881-3.288-5.778-6.176-2.789-2.092-5.379-3.287-5.678-.598-.597 5.777 12.95 15.938 12.95 15.938l.1-.2c-3.288-3.785-5.579-6.773-5.778-7.869z" style="fill:url(#g)" transform="translate(0 65.754)"/>
  <path fill="url(#h)" d="M17.432 59.07c-.399 1.294 1.494 4.482 3.486 7.37-1.195-.996-2.49-1.494-3.685-.697-1.993 1.295.797 5.678 3.386 9.065-1.793-1.694-3.785-2.889-4.681-.897-.996 2.39.996 5.678 2.988 8.069-1.494-1.196-3.287-1.992-4.482-.2-1.594 2.49 2.49 6.874 5.279 9.264-2.092-1.494-4.781-3.088-4.682 0 .2 3.487 4.084 6.375 6.077 7.57-.997-.597-2.192-.995-3.387-.995-.698.1-1.096.697-.797 2.092.996 4.482 34.864 40.143 40.94 36.258 6.275-4.084.2-24.903-13.647-46.618-5.678-8.965-22.512-31.278-26.098-30.68-.398-.2-.597.1-.697.398z" style="fill:url(#h)" transform="translate(0 65.754)"/>
  <g>
    <path fill="url(#i)" d="M13.946 162.864c.498 1.793.896 3.984.796 5.777.698-3.187 8.965-19.125 10.858-21.914-2.79 1.295-9.662 8.965-11.654 16.137z" style="fill:url(#i)" transform="translate(127.502 63.762)"/>
    <path fill="url(#j)" d="M39.546 136.865s-13.846 4.483-20.82 10.858c-6.972 6.375-12.849 15.938-12.849 15.938s3.984-2.889 5.28-1.694c1.294 1.196.398 7.67.398 7.67s3.187-10.16 7.67-16.236c3.785-5.18 6.475-7.57 13.348-10.26 6.873-2.69 6.773-2.49 6.773-2.49z" style="fill:url(#j)" transform="translate(127.502 63.762)"/>
    <path fill="url(#k)" d="M2.59 180.495c1.793.1 3.486.1 5.28-.1 7.47-.199 14.841-1.095 22.113-2.59 43.63-9.761 101.603-76.8 79.49-112.76-2.49-4.083-1.296-9.86 4.88-11.853a79.821 79.821 0 0 0 6.774-2.69c3.088-1.195 5.478-3.685 6.375-6.872 1.295-4.483 1.693-9.762-1.395-14.145-1.992-2.79-3.187-3.387-6.474-4.881-2.69-1.195-5.479-1.793-8.168-2.889-.3-.1-.498-.199-.797-.398-1.096 8.666-7.471 10.957-18.329 13.646a41.926 41.926 0 0 1-1.195 4.782c-.598 1.693-1.195 3.287-1.893 4.88-.498 1.296-.797 2.79-1.394 4.085-1.594 3.486-5.578 5.678-8.965 7.57-3.586 1.992-7.57 3.487-10.659 6.076-2.59 2.291-4.78 4.981-6.673 7.97-3.686 5.677-6.176 12.152-7.471 18.826-1.295 6.873-2.49 13.646-3.985 20.42-1.195 5.479-2.59 10.46-5.877 15.041-2.29 3.188-4.88 6.077-7.57 8.866-2.192 2.191-4.582 4.183-6.674 6.474a46.544 46.544 0 0 0-4.084 5.778c-2.092 3.387-4.483 6.674-6.475 10.16-2.191 3.785-4.383 8.168-4.781 12.75-1.793-.299-3.686.1-5.08 1.295-.996.697-2.989 2.291-2.391 3.785-1.295.399-2.69.698-3.984 1.096-1.395.299-2.49 1.494-2.69 2.889.299.996.697 1.892 1.395 2.69.199.099.498.099.697.099zM110.07 32.772c.398-1.693 2.092-2.889 3.885-2.59 1.693.1 3.088 1.494 2.988 3.188v.1c-.398 1.693-2.092 2.888-3.885 2.59-1.693-.1-3.088-1.495-2.988-3.188v-.1z" style="fill:url(#k)" transform="translate(127.502 63.762)"/>
    <path fill="url(#l)" d="M109.771 20.72c-3.486-2.59-5.08-6.575-6.375-10.26-1.096-3.288-1.892-6.675-2.49-10.062-7.272-1.593-11.754 6.077-11.555 11.057.2 4.98 1.992 9.961 3.188 14.942.597 2.39.1 5.18-.2 7.57 10.659-2.59 16.536-4.781 17.432-13.248z" style="fill:url(#l)" transform="translate(127.502 63.762)"/>
    <path fill="url(#m)" d="M79.689 135.47c-2.59 1.694-2.59-1.493-2.39-4.083-.698 3.586-2.392 9.264-5.38 9.164-2.191-.1-2.39-1.992-2.092-3.984-1.095 2.888-2.888 6.375-5.478 6.574-.797 4.383-.996 8.566.697 9.662s3.984-3.785 5.877-9.563c-.598 3.586-.498 6.475 1.195 6.973 2.79.698 5.977-8.068 8.069-15.34-.1.399-.3.498-.498.598z" style="fill:url(#m)" transform="translate(127.502 63.762)"/>
    <path fill="url(#n)" d="M56.28 156.588c2.49.698 5.479-6.474 7.77-13.248-1.694-.1-1.694-2.291-1.096-4.482-1.594 3.984-3.984 8.566-6.176 7.47-.1-.1-.199-.1-.299-.199-1.593 4.98-2.39 9.862-.199 10.46z" style="fill:url(#n)" transform="translate(127.502 63.762)"/>
    <path fill="url(#o)" d="M86.263 129.594c-.996.996-1.693.896-2.191.398-.598-1.095-.897-2.191-.897-3.486 0 1.992-.398 5.877-2.39 8.068-.399 3.487-.2 6.375 2.29 5.28 5.28-2.391 7.372-19.225 7.372-19.225h-.2c-1.693 4.781-3.187 8.168-3.984 8.965z" style="fill:url(#o)" transform="translate(127.502 63.762)"/>
    <path fill="url(#p)" d="M50.901 149.416c1.295-.298 3.088-3.586 4.582-6.773-.299 1.494 0 2.889 1.196 3.486 2.191 1.096 4.582-3.486 6.175-7.47-.597 2.39-.597 4.78 1.594 4.482 2.59-.299 4.383-3.686 5.479-6.574-.299 1.892-.1 3.884 2.092 3.984 2.988.1 4.681-5.578 5.379-9.164-.3 2.59-.2 5.678 2.39 4.084 2.989-1.893 3.487-6.674 3.487-8.965 0 1.195.299 2.39.896 3.486.498.498 1.096.598 2.192-.398 3.386-3.088 17.332-50.304 10.957-53.59-6.674-3.388-21.616 12.35-33.569 35.162-4.881 9.463-15.838 35.162-13.547 37.952.1.199.398.398.697.298z" style="fill:url(#p)" transform="translate(127.502 63.762)"/>
  </g>
  <g>
    <path fill="url(#q)" d="M184.38 55.981c1.295-1.295 2.988-2.789 4.582-3.586-3.088.996-21.018 1.793-24.405 1.594 2.49 1.793 12.65 3.885 19.823 1.992z" style="fill:url(#q)" transform="translate(21.914 -.985)"/>
    <path fill="url(#r)" d="M149.018 46.817s10.857 9.762 19.822 12.65c9.065 2.89 20.221 3.188 20.221 3.188s-4.482-2.092-4.183-3.785c.299-1.693 6.475-4.184 6.475-4.184s-10.46 2.391-17.83 1.495c-6.376-.698-9.763-1.893-15.54-6.475-5.778-4.582-5.578-4.682-5.578-4.682z" style="fill:url(#r)" transform="translate(21.914 -.985)"/>
    <path fill="url(#s)" d="M205.298 56.977c-.797-1.593-1.693-3.088-2.79-4.482-3.884-6.375-8.366-12.352-13.247-17.83C159.079 1.693 71.919-15.041 51.897 22.114c-2.29 4.283-7.869 6.076-12.65 1.693-1.793-1.594-3.786-3.088-5.778-4.482-2.59-2.092-5.976-2.89-9.164-2.092-4.582 1.095-9.264 3.386-11.555 8.267-1.494 3.088-1.295 4.483-.996 7.97.299 2.888 1.195 5.677 1.594 8.566v.896c8.068-3.386 13.248.996 21.018 9.065 1.494-.598 3.088-.996 4.681-1.295 1.694-.398 3.487-.598 5.18-.897 1.395-.199 2.79-.697 4.184-.896 3.785-.299 7.77 1.992 11.057 3.984 3.486 2.092 6.773 4.782 10.658 6.077a35.797 35.797 0 0 0 10.26 1.793c6.774.298 13.647-.698 20.022-2.989 6.574-2.29 13.049-4.681 19.723-6.773 5.379-1.694 10.26-2.989 15.937-2.39 3.885.398 7.77 1.194 11.555 2.19 2.989.797 5.877 1.893 8.866 2.49 2.29.4 4.681.698 7.072.698 3.985.1 7.969.598 12.053.598 4.383 0 9.264-.3 13.447-2.291a6.287 6.287 0 0 0 3.686 3.785c1.096.498 3.486 1.494 4.483.1.996.996 1.892 1.992 2.888 2.888.996 1.096 2.59 1.395 3.885.897.697-.698 1.295-1.594 1.594-2.49-.1-.1-.2-.3-.299-.499zM23.708 37.753c-1.694.498-3.487-.399-4.184-2.092-.797-1.494-.2-3.387 1.295-4.184 0 0 .1 0 .1-.1 1.693-.498 3.486.399 4.183 2.092.797 1.494.2 3.387-1.295 4.184-.1 0-.1.1-.1.1z" style="fill:url(#s)" transform="translate(21.914 -.985)"/>
    <path fill="url(#t)" d="M13.348 44.028c-.598 4.283-3.088 7.67-5.678 10.658A63.564 63.564 0 0 1 .2 61.858c2.29 7.073 11.156 7.073 15.34 4.483 4.183-2.59 7.67-6.674 11.355-10.16 1.793-1.694 4.482-2.69 6.674-3.686-7.67-7.87-12.451-11.854-20.221-8.467z" style="fill:url(#t)" transform="translate(21.914 -.985)"/>
    <path fill="url(#u)" d="M127.8 12.75c2.69 1.395 0 2.989-2.39 4.084 3.487-1.195 9.264-2.59 10.658.1.997 1.892-.597 3.088-2.39 3.785 2.988-.498 6.973-.598 8.467 1.395 4.183-1.495 7.869-3.387 8.068-5.38.2-1.992-5.18-1.593-11.256-.298 3.387-1.295 5.877-2.889 5.38-4.582-.798-2.79-9.962-1.096-17.333.697.398-.1.598 0 .797.2z" style="fill:url(#u)" transform="translate(21.914 -.985)"/>
    <path fill="url(#v)" d="M157.784 22.412c-.698-2.49-8.368-1.494-15.34-.1.796 1.595-1.096 2.59-3.387 3.288 4.183-.598 9.363-.797 9.463 1.594v.398c5.18-1.195 9.861-2.888 9.264-5.18z" style="fill:url(#v)" transform="translate(21.914 -.985)"/>
    <path fill="url(#w)" d="M119.433 9.961c1.395.399 1.594.996 1.395 1.693a6.92 6.92 0 0 1-2.59 2.49c1.793-.995 5.28-2.59 8.268-1.892 3.187-1.394 5.578-3.088 3.387-4.582-4.782-3.486-20.321 3.188-20.321 3.188l.1.199c4.98-.897 8.666-1.395 9.761-1.096z" style="fill:url(#w)" transform="translate(21.914 -.985)"/>
    <path fill="url(#x)" d="M154.198 30.68c-.897-.996-4.682-.896-8.168-.598 1.394-.498 2.49-1.394 2.49-2.789-.1-2.39-5.28-2.191-9.463-1.593 2.39-.698 4.482-1.893 3.187-3.586-1.494-2.092-5.379-1.893-8.467-1.395 1.793-.697 3.387-1.893 2.391-3.785-1.394-2.69-7.172-1.195-10.658-.1 2.39-.996 5.08-2.69 2.39-4.084-3.187-1.594-7.47.299-9.562 1.494 1.095-.597 1.892-1.394 2.59-2.49.199-.697-.1-1.295-1.395-1.693-4.383-1.395-52.196 10.16-51.798 17.332.399 7.47 21.516 12.551 47.216 11.455 10.658-.498 38.35-3.785 39.645-7.271-.1-.399-.2-.698-.398-.897z" style="fill:url(#x)" transform="translate(21.914 -.985)"/>
  </g>
</svg>
