<svg xmlns="http://www.w3.org/2000/svg" viewBox="0 0 256 265.651">
  <path fill="#62bbe7" d="M229.382 209.176 128 254.109 26.616 209.176C26.544 201.887 20.613 196 13.309 196 5.96 196 0 201.96 0 209.309c0 7.354 5.96 13.311 13.309 13.311 3.392 0 6.49-1.27 8.838-3.359l103.63 45.922c1.474.647 3.078.6 4.444 0l103.63-45.922a13.248 13.248 0 0 0 8.839 3.359c7.349 0 13.309-5.957 13.309-13.311 0-7.349-5.96-13.309-13.309-13.309-7.309 0-13.236 5.887-13.308 13.176z"/>
  <path fill="#62bbe7" d="M114.808 107.166 11.29 153.044a5.509 5.509 0 0 0 0 10.08l114.595 50.787c1.366.6 2.967.653 4.44.002l103.545-45.89a13.245 13.245 0 0 0 8.831 3.362c7.344 0 13.299-5.956 13.299-13.298 0-7.349-5.955-13.3-13.299-13.3-7.302 0-13.224 5.883-13.296 13.165l-101.3 44.895-101-44.76 92.164-40.85a13.233 13.233 0 0 0 8.837 3.362c7.345 0 13.299-5.955 13.299-13.3 0-7.348-5.954-13.299-13.3-13.299-7.303 0-13.224 5.884-13.297 13.166z"/>
  <path fill="#78cbc8" d="M125.777 51.467 22.147 97.393a13.239 13.239 0 0 0-8.838-3.363C5.96 94.03 0 99.991 0 107.339c0 7.355 5.96 13.31 13.309 13.31 7.304 0 13.235-5.887 13.307-13.176L128 62.546l101.082 44.793-92.244 40.882a13.249 13.249 0 0 0-8.838-3.363c-7.355 0-13.31 5.959-13.31 13.31 0 7.354 5.955 13.309 13.31 13.309 7.306 0 13.23-5.887 13.307-13.177l103.604-45.916a5.498 5.498 0 0 0 2.825-2.822 5.52 5.52 0 0 0-2.825-7.267l-114.69-50.824a5.491 5.491 0 0 0-4.444-.004z"/>
  <path fill="#78cbc8" d="M125.778.466 22.148 46.394a13.259 13.259 0 0 0-8.838-3.361C5.961 43.033 0 48.992 0 56.345c0 7.35 5.961 13.305 13.31 13.305 7.304 0 13.235-5.887 13.307-13.173L128 11.543l101.383 44.934c.072 7.286 5.999 13.173 13.307 13.173 7.35 0 13.31-5.955 13.31-13.305 0-7.353-5.96-13.312-13.31-13.312-3.394 0-6.49 1.269-8.838 3.361L130.222.468A5.554 5.554 0 0 0 127.993 0c-.741 0-1.493.149-2.215.466z"/>
</svg>
