<svg xmlns="http://www.w3.org/2000/svg" viewBox="0 0 256 164.789">
  <path fill="#2f569c" d="M254.126 76.962 205.4 21.477H165.72l40.62 46.247h-21.08c-34.143 0-44.262-12.898-55.978-27.984-10.265-13.218-23.046-29.524-50.934-29.524H44.446C39.905 4.28 32.846 0 24.808 0 11.107 0 0 10.884 0 24.586c0 13.701 11.107 24.992 24.808 24.992 8.037 0 15.097-3.66 19.628-9.615h33.901c12.666 0 17.507 5.238 27.24 17.759 6.129 7.882 13.362 16.965 24.343 24.556-10.981 7.592-18.214 16.917-24.344 24.799-9.732 12.52-14.563 18.156-27.239 18.156h-33.9c-4.532-5.945-11.601-9.964-19.629-9.964C11.107 115.269 0 126.289 0 139.99c0 13.702 11.107 24.799 24.808 24.799 8.037 0 15.106-3.864 19.638-9.81h33.9c27.889 0 40.67-16.306 50.935-29.523 11.726-15.087 21.845-27.985 55.978-27.985h20.21l-39.75 45.26H205.4l48.726-55.485c2.499-2.837 2.499-7.437 0-10.284zM24.808 39.198c-8.192 0-14.825-6.643-14.825-14.825 0-8.192 6.643-14.825 14.825-14.825 8.183 0 14.825 6.642 14.825 14.825 0 8.192-6.633 14.825-14.825 14.825zm0 115.53c-8.192 0-14.825-6.643-14.825-14.825 0-8.192 6.643-14.825 14.825-14.825 8.183 0 14.825 6.643 14.825 14.825 0 8.192-6.633 14.825-14.825 14.825z"/>
</svg>
