<svg xmlns="http://www.w3.org/2000/svg" viewBox="0 0 255.198 282.542">
  <g transform="translate(27.081 44.483)">
    <circle cx="100.677" cy="100.327" r="100.132" fill="#43a5eb"/>
    <circle cx="101.029" cy="100.573" r="66.743" fill="#f34b41"/>
    <circle cx="101.029" cy="100.571" r="33.829" fill="#fefb1f"/>
  </g>
  <path d="m0 75.267 3.718-6.019c1.482-2.398 3.084-3.796 4.808-4.194 1.721-.398 3.455-.057 5.2 1.021a6.317 6.317 0 0 1 1.567 1.376 7.268 7.268 0 0 1 1.105 1.834c.28.67.444 1.376.499 2.117a5.673 5.673 0 0 1-.276 2.203l12.003.908-1.577 2.552-11.784-1.044-2.425 3.925 8.995 5.558-1.455 2.355zm3.614-1.022 7.196 4.447 2.435-3.943c.899-1.454 1.23-2.706.988-3.756-.24-1.047-.895-1.903-1.963-2.563a4.546 4.546 0 0 0-1.601-.63 4.126 4.126 0 0 0-1.597.026c-.52.113-1.042.369-1.56.77-.519.4-1.006.97-1.463 1.707zm17.987-28.713 10.61-10.157 1.648 1.721-8.776 8.403 5.45 5.694 7.249-6.94 1.755 1.832-7.248 6.94 6.09 6.36 8.691-8.323 1.65 1.722-10.528 10.08zM69.197 25.22c1.74 3.08 2.598 5.805 2.572 8.175-.028 2.372-.933 4.356-2.71 5.95.461.71.992 1.205 1.59 1.485.6.28 1.368.154 2.306-.376.111-.063.284-.175.516-.336.232-.16.491-.33.774-.505.285-.174.548-.346.792-.513.244-.168.422-.283.533-.346l1.222 2.313-1.306.739c-1.093.618-2.045 1.083-2.856 1.394-.811.31-1.559.395-2.243.252a3.907 3.907 0 0 1-1.83-.93c-.534-.478-1.048-1.152-1.54-2.022a7.106 7.106 0 0 1-2.946.496c-1.053-.038-2.137-.316-3.253-.832-1.118-.517-2.218-1.302-3.298-2.354s-2.101-2.426-3.06-4.122c-1.186-2.097-1.93-3.973-2.234-5.628-.303-1.654-.313-3.092-.03-4.311.281-1.22.756-2.254 1.424-3.104.67-.849 1.393-1.494 2.173-1.937a7.579 7.579 0 0 1 3.103-.959c1.109-.096 2.274.09 3.499.561 1.223.472 2.391 1.261 3.505 2.37 1.113 1.108 2.212 2.62 3.297 4.54zm-14.62-.699c-.416 1.973.21 4.433 1.876 7.377.758 1.338 1.563 2.488 2.416 3.448.852.961 1.729 1.703 2.628 2.225.897.523 1.815.814 2.747.875a4.559 4.559 0 0 0 2.604-.59c.558-.315 1.053-.78 1.488-1.393.434-.613.715-1.376.846-2.29.132-.915.056-1.96-.228-3.14-.285-1.179-.843-2.505-1.676-3.977-1.06-1.876-2.081-3.315-3.063-4.321-.982-1.006-1.934-1.689-2.86-2.048-.925-.36-1.75-.505-2.476-.434-.724.073-1.354.26-1.89.562-.67.38-1.2.9-1.59 1.562a6.964 6.964 0 0 0-.822 2.144zM82.26 7.1l2.932-.793.058.064c.026.1.009.258-.052.473a2.12 2.12 0 0 0-.055.753l3.79 14.018c.349 1.288.744 2.252 1.18 2.892.44.64.944 1.129 1.514 1.467a4.33 4.33 0 0 0 1.853.595c.667.06 1.352.02 2.06-.118a8.375 8.375 0 0 0 1.847-.9 3.925 3.925 0 0 0 1.32-1.453c.326-.607.523-1.305.589-2.094.066-.789-.082-1.853-.444-3.192L94.768 3.717l2.487-.672 4.066 15.031c.408 1.51.586 2.83.533 3.96-.055 1.128-.333 2.134-.838 3.014a6.98 6.98 0 0 1-1.992 2.211c-.82.594-1.802 1.045-2.94 1.352-1.113.302-2.174.403-3.183.305a6.698 6.698 0 0 1-2.769-.884c-.836-.491-1.564-1.17-2.183-2.038-.621-.868-1.152-2.119-1.593-3.752zM120.08.106 132.038 0l.02 2.229-4.728.043.174 19.57 4.961-.044.02 2.191-12.458.112-.02-2.23 4.729-.042-.176-19.531-4.459.039-.02-2.23zm34.417 2.267 6.875 1.67c2.74.665 4.564 1.754 5.477 3.268.911 1.515 1.125 3.267.642 5.26a6.362 6.362 0 0 1-.822 1.917 7.255 7.255 0 0 1-1.402 1.619c-.55.473-1.17.85-1.857 1.13a5.684 5.684 0 0 1-2.18.421l2.859 11.694-2.915-.708-2.66-11.527-4.485-1.089-2.495 10.275-2.69-.654zm2.09 3.119-1.995 8.22 4.502 1.094c1.661.403 2.953.328 3.877-.226.923-.554 1.533-1.44 1.829-2.662.144-.597.178-1.17.101-1.716a4.093 4.093 0 0 0-.52-1.51c-.268-.462-.673-.877-1.214-1.246-.541-.368-1.233-.655-2.076-.86zm33.211 8.324 12.953 6.924-1.124 2.102-10.715-5.728-3.717 6.95 8.852 4.732-1.197 2.238-8.85-4.732-4.152 7.765 10.613 5.674-1.124 2.102-12.85-6.869zm21.61 21.932c.328.252.597.566.81.939.21.373.355.758.43 1.154.076.397.08.787.01 1.174-.07.386-.216.728-.446 1.025-.245.32-.541.568-.89.747-.35.18-.72.283-1.113.31a3.432 3.432 0 0 1-1.2-.137 3.505 3.505 0 0 1-1.153-.594 3.402 3.402 0 0 1-.844-.928 3.217 3.217 0 0 1-.424-1.1 2.815 2.815 0 0 1 .03-1.142c.09-.379.261-.733.514-1.063.245-.318.545-.565.898-.74a2.985 2.985 0 0 1 1.122-.305c.392-.027.786.015 1.183.125.396.111.754.29 1.073.535zm20.876 8.762 7.44 8.048-1.639 1.514-2.505-2.711-10.041 9.28c-1.15 1.064-2.212 1.845-3.185 2.342-.973.499-1.932.747-2.876.747-.945 0-1.777-.173-2.498-.517a6.492 6.492 0 0 1-1.968-1.478c-1.55-1.676-2.18-3.66-1.888-5.952l2.836-.16c-.005.108-.064.223-.177.347a.758.758 0 0 0-.205.373l-.025.65c-.026.163-.011.377.043.642.053.265.136.545.252.84.115.294.244.585.387.872.143.287.32.543.528.77.869.94 1.835 1.323 2.895 1.146 1.06-.178 2.411-1.024 4.052-2.541l10.072-9.31-3.131-3.388 1.633-1.514zm22.431 36.093-2.842-.319c-.02-.136.04-.251.176-.345.138-.095.229-.183.27-.265.38-.781.551-1.64.515-2.58-.039-.94-.362-1.943-.974-3.01-.588-1.023-1.376-1.701-2.365-2.035-.99-.333-1.896-.263-2.718.209-.49.28-.865.607-1.124.977-.26.371-.457.825-.592 1.361-.136.535-.184 1.237-.147 2.102.039.864.153 1.952.344 3.26.164 1.266.232 2.35.204 3.254-.028.902-.161 1.688-.399 2.356a4.925 4.925 0 0 1-.995 1.702c-.426.468-.963.885-1.608 1.256a7.117 7.117 0 0 1-2.38.834 6.127 6.127 0 0 1-2.652-.14c-.892-.24-1.766-.693-2.618-1.355-.854-.663-1.631-1.606-2.334-2.83-1.544-2.688-1.9-5.367-1.065-8.032l3.185-.011c-.003.149-.082.268-.238.358-.155.089-.259.193-.31.31-.35.883-.494 1.88-.43 2.996s.447 2.285 1.15 3.508c.357.621.791 1.134 1.302 1.536a5.127 5.127 0 0 0 1.61.87c.562.181 1.145.246 1.75.193a4.09 4.09 0 0 0 1.71-.538 3.397 3.397 0 0 0 1.025-.877c.26-.342.446-.766.555-1.272.109-.506.137-1.151.088-1.934a42.774 42.774 0 0 0-.338-3.02c-.204-1.333-.296-2.485-.278-3.456.019-.97.123-1.806.313-2.507.19-.7.485-1.29.889-1.773a5.484 5.484 0 0 1 1.504-1.24 5.592 5.592 0 0 1 2.413-.742 6.361 6.361 0 0 1 2.516.328c.825.28 1.6.73 2.325 1.347a8.5 8.5 0 0 1 1.853 2.262 8.814 8.814 0 0 1 1.154 3.594 8.564 8.564 0 0 1-.444 3.668z"/>
  <path stroke="#4c4c4c" stroke-width="2" d="M57.472 273.144h130.743"/>
  <path fill="#4c4c4c" d="M199.215 272.22c.906.435.912 1.159.012 1.609l-12.151 6.096c-.9.45-1.604-.005-1.604-1.01v-11.491c0-1.006.71-1.472 1.616-1.038z"/>
  <path stroke="#4c4c4c" stroke-width="2" d="m68.971 264.458 8.762 8.686M62.571 264.458l8.762 8.686M56.171 264.458l8.762 8.686M64.933 273.146l-8.763 8.685M71.333 273.146l-8.763 8.685M77.733 273.146l-8.763 8.685M75.371 264.458l8.762 8.686M84.133 273.146l-8.763 8.685"/>
</svg>
