<svg xmlns="http://www.w3.org/2000/svg" viewBox="0 0 256.011 253.311">
  <path fill="#3d4c67" d="M137.452 219.595c-.02-3.127-.525-43.3-13.271-77.867-13.273-35.994-35.77-66.14-35.77-66.14s46.568 28.346 67.94 51.967c18.414 20.353 34.493 52.4 38.588 60.876-4.439 3.277-7.318 8.546-7.318 14.487 0 9.94 8.058 17.998 17.997 17.998 9.94 0 17.998-8.058 17.998-17.998 0-9.636-7.575-17.504-17.095-17.975-2.846-7.267-14.883-35.642-39.147-63.012-28.12-31.72-67.265-52.868-67.265-52.868s42.294 13.498 63.665 22.947c18.97 8.387 50.352 25.815 57.162 29.624a17.976 17.976 0 0 0-.92 5.696c0 9.94 8.058 17.998 17.997 17.998 9.94 0 17.998-8.058 17.998-17.998 0-9.939-8.059-17.997-17.998-17.997-3.787 0-7.3 1.17-10.199 3.167-6.92-4.555-35.235-22.39-77.987-38.712C100.334 54.89 63.89 48.367 63.89 48.367l-6.3 14.173s23.932 15.86 47.553 67.152c21.67 47.055 20.265 82.465 19.885 87.995-8.188 1.688-14.345 8.939-14.345 17.626 0 9.94 8.058 17.998 17.997 17.998 9.94 0 17.998-8.058 17.998-17.998 0-6.754-3.722-12.64-9.226-15.718z"/>
  <path fill="#f6861a" d="M63.89 50.842c0 9.443-7.654 17.098-17.098 17.098-9.441 0-17.096-7.655-17.096-17.098 0-9.442 7.655-17.098 17.096-17.098 9.444 0 17.098 7.656 17.098 17.098"/>
  <path fill="#3d4c67" d="M146.678 17.997c0 9.94-8.059 17.996-17.998 17.996-9.94 0-17.997-8.056-17.997-17.996C110.683 8.058 118.74 0 128.68 0s17.998 8.058 17.998 17.997M223.616 51.741c0 9.94-8.059 17.997-17.998 17.997-9.939 0-17.997-8.057-17.997-17.997 0-9.938 8.058-17.996 17.997-17.996 9.94 0 17.998 8.058 17.998 17.996M68.39 204.268c0 9.94-8.058 17.998-17.998 17.998-9.939 0-17.997-8.058-17.997-17.998 0-9.939 8.058-17.997 17.997-17.997 9.94 0 17.998 8.058 17.998 17.997M35.995 127.33c0 9.94-8.058 17.998-17.998 17.998C8.058 145.328 0 137.27 0 127.33c0-9.939 8.058-17.997 17.997-17.997 9.94 0 17.998 8.058 17.998 17.997"/>
</svg>
