<svg xmlns="http://www.w3.org/2000/svg" viewBox="0 0 256 247.57">
  <path fill="#ed1846" d="M0 3.799C0 1.7 1.7 0 3.799 0h169.915C219.16 0 256 36.965 256 82.564v14.549c0 2.098-1.7 3.799-3.798 3.799h-47.26a3.799 3.799 0 0 1-3.8-3.8V82.565c0-15.2-12.28-27.521-27.428-27.521H58.656a3.799 3.799 0 0 0-3.799 3.798v185.053c0 2.097-1.706 3.813-3.8 3.667C22.534 245.603 0 221.767 0 192.65zm104.37 106.286H192c35.346 0 64 28.75 64 64.217v18.347c0 29.118-22.533 52.954-51.058 54.912-2.093.146-3.8-1.57-3.8-3.667v-69.592c0-5.067-4.093-9.174-9.142-9.174h-36.571c-29.024 0-52.784-22.616-54.729-51.244-.142-2.092 1.572-3.799 3.67-3.799z"/>
</svg>
