<svg xmlns="http://www.w3.org/2000/svg" viewBox="0 0 255.192 255.19">
  <path fill="#54a3da" d="M169.14 255.19s6.04-29.175 31.292-64.193c17.55-10.14 35.152-22.566 50.06-37.472 13.785-68.352-7.14-141.688-7.14-141.688S170.017-9.083 101.668 4.7C86.755 19.615 74.337 37.216 64.196 54.761 29.168 80.006 0 86.047 0 86.047s23.33 16.018 34.587 34.194c-4.794 13.828-7.048 22.737-7.048 22.737 1.825 8.533 7.225 18.487 14.676 28.53-5.145 4.08-11.175 8.323-17.728 11.87-.784.432-1.586.845-2.385 1.25 5.624 18.548 30.462 41.91 48.554 48.205.367-.725.75-1.44 1.138-2.152 3.65-6.73 8.03-12.913 12.207-18.15 10.137 7.354 20.045 12.835 28.208 15.11 0 0 8.919-2.25 22.743-7.044 18.17 11.26 34.188 34.593 34.188 34.593zm-51.553-61.78c-10.405-4.508-24.223-15.606-33.642-25.032-12.736-12.736-19.637-23.585-22.285-30.337 4.473-15.247 21.657-67.92 54.662-103.33 39.802-6.758 81.498.506 99.647 4.507 3.997 18.142 11.271 59.847 4.507 99.647-35.193 32.83-87.104 49.903-102.89 54.544z"/>
  <circle cx="152.475" cy="103.051" r="27.26" fill="#f1616e"/>
</svg>
