<svg xmlns="http://www.w3.org/2000/svg" viewBox="0 0 256 229.133">
  <path fill="#f5455c" d="M4.278 5.108C17.561.324 43.861-5.242 73.692 9.68a106.617 106.617 0 0 1 22.126 16.374c10.467-1.891 21.248-2.846 32.192-2.846 32.754 0 63.808 8.584 87.443 24.165 12.233 8.077 21.963 17.653 28.906 28.47 7.725 12.057 11.65 25.013 11.641 38.915 0 13.518-3.916 26.493-11.65 38.542-6.943 10.826-16.674 20.393-28.906 28.47-23.626 15.58-54.68 24.155-87.444 24.155-10.944 0-21.725-.956-32.191-2.846a106.641 106.641 0 0 1-22.126 16.374c-29.842 14.922-56.131 9.356-69.414 4.563-4.364-1.575-5.702-7.113-2.484-10.444 9.368-9.7 24.867-28.88 21.057-46.314C8.032 152.089 0 133.796 0 114.386c0-19.047 8.031-37.34 22.852-52.52 3.81-17.433-11.689-36.604-21.057-46.304-3.228-3.332-1.88-8.879 2.483-10.454zm122.395 43.631c-57.469 0-104.06 30.15-104.06 67.337 0 16.201 8.842 31.076 23.587 42.695 4.154 13.243 1.72 28.174-7.296 44.786-.43.803-.83 1.604-1.27 2.397 7.735-.64 15.556-2.769 23.472-6.654a82.432 82.432 0 0 0 16.597-12.345l8.996-8.679c12.309 3.313 25.812 5.146 39.974 5.146 57.468 0 104.059-30.14 104.068-67.346 0-37.187-46.6-67.337-104.068-67.337zM76.882 100.6c8.47 0 15.336 6.836 15.336 15.266s-6.866 15.267-15.336 15.267-15.336-6.836-15.336-15.267c0-8.43 6.866-15.265 15.336-15.265zm49.37 0c8.47 0 15.337 6.836 15.337 15.266s-6.867 15.267-15.336 15.267c-8.47 0-15.337-6.836-15.337-15.267 0-8.43 6.866-15.265 15.337-15.265zm49.37 0c8.46 0 15.336 6.836 15.336 15.266s-6.866 15.267-15.335 15.267c-8.47 0-15.337-6.836-15.337-15.267 0-8.43 6.866-15.265 15.337-15.265z"/>
</svg>
