<svg xmlns="http://www.w3.org/2000/svg" viewBox="0 0 256 210">
  <path d="M238.895 210H17.105C7.658 210 0 202.342 0 192.894V17.106C0 7.658 7.658 0 17.105 0h221.79C248.342 0 256 7.658 256 17.106v175.788c0 9.448-7.658 17.106-17.105 17.106"/>
  <path fill="#f7be01" d="M73.705 109.046c-5.328 2.681-8.633 4.581-12.118 6.053-10.365 4.377-21.407.516-26.207-8.997-4.748-9.409-2.037-20.293 7.492-25.869 12.836-7.51 26.137-14.225 40.291-21.848-.966 8.557-5.06 13.398-11.153 16.779-6.98 3.873-14.045 7.594-21.095 11.338-6.256 3.321-10.852 7.789-6.904 15.228 3.773 7.11 9.774 6.965 16.368 3.397 26.97-14.595 53.995-29.089 81.042-43.542 3.231-1.727 5.348-4.397 7.617-7.103 7.984-9.522 17.969-16.602 27.947-23.692-.428-.659-.732-2.757-.732-2.757s4.082-.353 6.5-2.167c.877-.658 5.103-3.447 6.142-3.797 8.525-2.87 6.53-.733 12.525.797.887.226 7.787-.532 8.483.018 2.559 2.732 1.43 9.819 1.43 9.819-1.621 2.163-5.251 2.42-5.913 3.163-4.076 4.576-4.553 6.904-12.667 8.667-.922.037-.391 2.457-.34 4.026.186 5.726-.576 11.445.704 17.186 2.378 10.671 8.066 16.348 19.691 15.638 5.656-.345 11.464.678 17.102 1.662 2.865.499 5.563 2.672 4.827 6.072-.247 1.143-.65 1.916-.65 1.916s-4.034.045-5.015-.315c-2.066-.758-3.5-1.174-5.652-1.352-.432-.482-.333-2.5-.333-2.5s-4.039 2.387-5.324 2.438c-9.079.361-18.315 2.861-25.761-1.986-12.049-7.845-17.326-2.385-25.676 5.1-13.548 12.143-30.163 19.249-48.757 19.779-5.22.149-6.233 2.196-6.737 6.657-1.991 17.623-11.481 28.716-29.279 31.763-3.753.643-5.374 2.834-6.957 5.728-4.439 8.119-8.991 16.176-13.517 24.247-1.4 2.496-2.516 5.34-5.4 6.478-1.353.533-3.017.572-4.46.34-.309-.049-.591-1.697-.305-3.378.839-3.499 1.173-6.166 1.673-9.333 2.311-.008 3.326-2.259 4.487-3.308 4.934-4.455 4.856-14.637 6.577-22.404 1.057-4.766 1.566-8.739 7.818-10.263 5.831-1.421 7.067-7.02 5.035-12.538-1.877-5.093-3.93-10.072-2.799-17.14"/>
  <path fill="#f7be01" d="M235.32 104.817c0 24.54.354 48.442-.183 72.325-.201 8.915-6.709 12.228-15.247 12.204-30.661-.089-61.322-.036-91.983-.036H79.533c5.412-5.73 16.887-16.444 16.887-16.444s7.375-2.533 12.383-2.977c6.477-.575 17.284-3.356 17.284-3.356s4.039-10.067 5.281-15.742c.777-3.551 3.469-10.175 3.469-10.175l11.563-.043 28.187-.207s4.988-14.14 6.833-21.167c15-2 40.144-11.028 53.9-14.382M58.958 143.211c-2.328 6.799 1.218 16.093-7.803 19.077-9.309 3.081-17.15 12.126-30.589 7.729 4.641-2.498 6.762-6.768 10.524-8.652 1.108-.554 3.33-1.999 3.33-1.999l2.939 2.094s2.055-.94 3.029-1.553c2.924-1.836 6.358-6.365 9.427-8.962 3.047-2.579 6.095-5.156 9.143-7.734M222.01 70.402c-.314-1.468-.923-2.369-.923-2.369s-8.884 5.521-12.103 6.537c-2.814.887-5.152 4.008-7.275-1.367-1.765-4.472.74-4.668 3.509-5.644 6.257-2.206 12.423-4.674 18.706-6.801 3.821-1.293 8.856-1.409 10.094 2.442.449 1.395-.088 2.958-.088 2.958s-4.097 1.413-6.218 2.208c-1.735.651-4.11 1.413-5.702 2.036M76.127 55.968c-2.733.673-2.681-1.384-2.865-2.756-.545-4.05 3.294-4.088 5.49-5.385 1.848-1.092 3.057.818 3.271 2.268.997 4.216-4.112 4.6-5.896 5.873M71.218 45.283c-2.15.124-3.219-1.043-3.28-2.762-.108-2.999 1.708-4.928 4.539-5.066 2.207-.109 4.889 1.031 4.444 3.707-.456 2.746-3.775 2.902-5.703 4.121"/>
  <path fill="#303144" d="M140.13 90.088c-1.915-.659-2.082-2.216-1.78-3.841.246-1.324 1.036-2.443 2.591-2.046 1.988.507 2.013 2.212 1.835 3.826-.166 1.5-1.16 2.132-2.646 2.061M183.12 58.601c-.081 1.367-.516 2.658-2.008 2.828-2.083.237-2.709-1.29-2.71-2.997-.001-1.299.482-2.704 1.969-2.849 2.014-.194 2.687 1.229 2.749 3.018M168.134 46.956c1.681-.264 2.705.4 3.07 1.758.47 1.747-.109 3.211-1.966 3.688-1.451.372-2.383-.602-2.849-1.865-.693-1.876.272-2.972 1.745-3.581M86.977 119.081c-.348 1.591-1.055 2.966-2.964 2.544-1.688-.374-2.597-1.784-2.028-3.387.332-.935 1.563-2.111 2.454-2.168 1.72-.111 2.57 1.243 2.538 3.011M103.921 109.238c.216 2.048-.875 3.238-2.49 3.247-.852.005-2.15-1.183-2.47-2.102-.556-1.593.314-3.113 1.977-3.531 1.902-.477 2.534 1.077 2.983 2.386M183.632 68.019c2.004-.011 2.984 1.072 2.994 2.766.011 1.667-.991 3.083-2.725 2.859-.881-.113-1.981-1.373-2.303-2.34-.567-1.705.543-2.792 2.034-3.285M134.771 77.632c-.25.969-1.135 2.306-2.924 1.622-.917-.35-1.953-1.65-2.049-2.609-.162-1.635 1.016-2.948 2.756-2.846 1.749.102 2.592 1.356 2.217 3.833M170.674 65.359c-.346 2.211-1.087 3.473-3.064 3.199-1.534-.212-2.007-1.488-1.881-2.756.157-1.585.819-3.291 2.824-2.724.941.265 1.565 1.647 2.121 2.281M157.937 61.318c-.166 1.918-.601 3.121-2.063 3.322-1.949.267-2.986-1.022-2.869-2.708.101-1.465.796-3.311 2.822-2.768.945.253 1.597 1.599 2.11 2.154M100.816 123.722c-.176 1.384-.368 3.071-2.511 2.956-1.5-.081-2.005-1.362-2.02-2.657-.019-1.626.324-3.285 2.444-3.174 1.468.078 1.89 1.372 2.087 2.875M153.784 92.964c-1.775-.431-2.657-1.591-2.487-3.386.136-1.437 1.179-2.403 2.508-2.361 1.945.061 2.578 1.479 2.381 3.294-.156 1.439-.989 2.232-2.402 2.453M181.232 40.791c1.54-.149 2.624.469 2.974 1.806.455 1.744-.25 3.238-1.984 3.761-1.417.427-2.326-.65-2.742-1.912-.586-1.781.027-3.065 1.752-3.655M149.499 71.55c1.544.416 2.855 1.321 2.34 3.127-.286 1.003-1.274 2.323-2.168 2.528-1.788.409-2.7-1.096-2.89-2.677-.219-1.814.95-2.717 2.718-2.978M115.992 99.663a1.574 1.574 0 0 1 1.593.017c1.134.692 1.909 1.71 1.508 3.139-.17.608-.708 1.113-1.285 1.607a1.622 1.622 0 0 1-2.11-.001c-.579-.497-1.118-1.005-1.28-1.613-.379-1.425.388-2.463 1.574-3.149M105.621 94.127c-.474.367-1.474 1.751-2.307 1.657-1.577-.178-2.975-1.477-2.349-3.331.352-1.039 1.637-2.608 2.32-2.52 1.579.203 2.679 1.518 2.336 4.194M164.998 76.721c1.568.791 2.419 2.032 1.874 3.779-.377 1.208-1.324 2.268-2.711 1.853-1.718-.513-2.455-1.907-1.872-3.677.399-1.212 1.218-2.104 2.709-1.955M196.312 29.653c-1.484.111-2.453-.695-2.769-1.989-.474-1.943.863-2.979 2.48-3.125 1.368-.123 2.282 1.079 2.315 2.441.032 1.284-.461 2.468-2.026 2.673M89.521 103.491c-.504 1.206-.661 2.61-2.255 2.591-2.077-.024-2.396-1.612-2.41-3.173-.012-1.336.728-2.315 2.192-2.369 2.153-.08 2.277 1.514 2.473 2.951M130.877 100.37c.179-1.537.278-3.179 2.402-3.194 1.591-.01 1.996 1.315 2.104 2.484.145 1.581-.172 3.155-2.306 3.121-1.499-.023-2.002-1.108-2.2-2.411M88.582 131.932c1.572-.073 2.194.881 2.438 2.174.307 1.625.064 3.122-1.846 3.463-1.4.25-2.294-.582-2.438-2.024-.16-1.595.143-2.988 1.846-3.613M120.329 90.277c-2.175-.796-2.92-2.192-2.379-3.709.3-.844 1.785-1.921 2.568-1.8 1.64.253 2.518 1.816 1.977 3.411-.31.914-1.533 1.518-2.166 2.098"/>
</svg>
