<svg xmlns="http://www.w3.org/2000/svg" viewBox="0 0 256 213.68">
  <path fill="#3c72ff" d="M256 6.354a6.827 6.827 0 0 0-.123-1.226c0-.123-.06-.233-.098-.356-.037-.123-.16-.552-.257-.822l-.184-.392a5.358 5.358 0 0 0-.393-.674 7.7 7.7 0 0 0-.27-.405l-.171-.233c-.098-.11-.209-.196-.307-.295l-.245-.294-.196-.135a6.217 6.217 0 0 0-.564-.429l-.479-.307a6.192 6.192 0 0 0-.65-.294l-.515-.208c-.233-.074-.478-.11-.71-.16l-.528-.11a6.843 6.843 0 0 0-.871 0h-.49c-3.287.294-46.712 4.44-95.52 26.207-29.31 13.036-51.998 33.05-66.272 57.344l-3.68 1.594C31.223 108.484 0 153.822 0 206.445v.883a6.36 6.36 0 0 0 3.679 5.764 6.449 6.449 0 0 0 2.686.588h173.467c.337 0 .673-.026 1.005-.085l.442-.11c.208-.062.417-.099.625-.173.209-.073.307-.147.466-.22.16-.074.368-.147.54-.246.323-.19.631-.408.92-.65l69.901-58.938a6.328 6.328 0 0 0 2.257-4.905V6.354zm-63.206 181.634-6.708 5.654V68.248l57.197-48.208v125.394zM78.597 154.742h94.772v46.221H23.754zM158.59 37.847a327.717 327.717 0 0 1 69.669-21.793l-51.126 43.107a324.332 324.332 0 0 0-69.215 16.298c12.655-15.452 29.726-28.268 50.672-37.612zM95.765 93.744a328.22 328.22 0 0 1 77.604-21.278v69.559H82.766a112.407 112.407 0 0 1 13-48.281zm-17.45 8.118a125.946 125.946 0 0 0-8.413 43.548L13.49 193.016c4.268-38.679 27.237-71.03 64.825-91.154z"/>
</svg>
