<svg xmlns="http://www.w3.org/2000/svg" viewBox="0 0 511.981 111.514">
  <path fill="#3c72ff" d="M133.6 3.316a3.553 3.553 0 0 0-.064-.64c0-.064-.032-.122-.051-.186-.02-.064-.083-.288-.135-.428l-.096-.205a2.794 2.794 0 0 0-.204-.352c-.045-.07-.09-.141-.141-.211l-.09-.122c-.051-.058-.109-.102-.16-.154l-.128-.153-.102-.07a3.246 3.246 0 0 0-.295-.225l-.25-.16a3.232 3.232 0 0 0-.338-.153l-.27-.109c-.12-.038-.249-.058-.37-.083l-.276-.058a3.571 3.571 0 0 0-.454 0h-.256c-1.715.154-24.378 2.317-49.85 13.677-15.296 6.803-27.136 17.248-34.585 29.926l-1.92.832C16.295 56.615 0 80.276 0 107.738v.461a3.32 3.32 0 0 0 3.322 3.315H93.85c.176 0 .351-.014.524-.044l.23-.058c.11-.032.218-.051.327-.09.109-.038.16-.076.243-.115.084-.038.192-.077.282-.128.169-.1.33-.213.48-.339l36.48-30.758a3.302 3.302 0 0 0 1.178-2.56V3.316zm-32.986 94.79-3.5 2.95v-65.44l29.85-25.158v65.44zm-59.596-17.35h49.459v24.122h-78.08zm41.747-61.005a171.027 171.027 0 0 1 36.358-11.373L92.442 30.874A169.26 169.26 0 0 0 56.32 39.38c6.605-8.064 15.514-14.752 26.445-19.629zM49.978 48.922a171.29 171.29 0 0 1 40.499-11.104V74.12H43.194a58.662 58.662 0 0 1 6.784-25.197zM40.87 53.16a65.728 65.728 0 0 0-4.39 22.727L7.04 100.73c2.227-20.185 14.214-37.068 33.83-47.57z"/>
  <path fill="#343f55" d="M159.066 92.436V17.287h31.104c8.038 0 14.5 2.085 19.385 6.253 4.886 4.169 7.326 10.31 7.322 18.426a24.422 24.422 0 0 1-11.943 21.632l16.11 28.85h-21.409l-12.73-25.6h-8.345v25.6zm19.494-41.229h9.69a8.774 8.774 0 0 0 6.4-2.425 8.653 8.653 0 0 0 2.483-6.477c0-2.855-.79-5.11-2.368-6.765-1.579-1.655-3.78-2.485-6.605-2.49h-9.6zm44.966 14.72a29.145 29.145 0 0 1 3.546-14.31 26.547 26.547 0 0 1 9.978-10.195 28.582 28.582 0 0 1 14.758-3.776c5.636 0 10.577 1.258 14.822 3.776a26.65 26.65 0 0 1 9.914 10.22 29.082 29.082 0 0 1 3.552 14.285 29.062 29.062 0 0 1-3.552 14.31 26.669 26.669 0 0 1-9.914 10.202c-4.266 2.518-9.207 3.776-14.822 3.776a28.582 28.582 0 0 1-14.758-3.776 26.56 26.56 0 0 1-9.978-10.176 29.126 29.126 0 0 1-3.546-14.336zm28.282 11.61a9.389 9.389 0 0 0 7.552-3.328 12.371 12.371 0 0 0 2.816-8.282c.1-3.01-.901-5.955-2.816-8.281a10.24 10.24 0 0 0-15.098 0 12.352 12.352 0 0 0-2.822 8.281 12.34 12.34 0 0 0 2.822 8.32 9.37 9.37 0 0 0 7.546 3.315zm37.075 14.873h19.047V17.287h-19.047zm30.08 0h19.047V17.287h-19.04zm30.08-2.483v-72.64h19.047v26.47a13.536 13.536 0 0 1 4.563-3.385 22.515 22.515 0 0 1 4.947-1.574 21.344 21.344 0 0 1 3.84-.448c4.954 0 9.141 1.237 12.563 3.712a23.507 23.507 0 0 1 7.776 9.747 31.84 31.84 0 0 1 2.643 12.909c0 9.314-2.703 16.567-8.108 21.76-5.406 5.192-13.37 7.784-23.892 7.776a58.8 58.8 0 0 1-12.902-1.408 95.526 95.526 0 0 1-10.464-2.893zm19.047-25.126v12.736c.937.331 1.898.594 2.873.787 1.244.24 2.51.353 3.776.34a9.824 9.824 0 0 0 7.559-3.137c1.958-2.107 2.935-5.45 2.93-10.029a15.817 15.817 0 0 0-.844-5.017 10.003 10.003 0 0 0-2.65-4.224 6.624 6.624 0 0 0-4.73-1.69c-3.157 0-5.429.977-6.815 2.931a12.269 12.269 0 0 0-2.087 7.328zm75.724 27.61-.678-4.96c-2 2.289-4.475 4.116-7.251 5.356a24.634 24.634 0 0 1-9.075 1.466 21.958 21.958 0 0 1-7.322-1.357 14.157 14.157 0 0 1-6.54-4.845c-1.806-2.346-2.708-5.623-2.708-9.83 0-4.267 1.165-7.836 3.494-10.707a21.53 21.53 0 0 1 9.306-6.484 35.2 35.2 0 0 1 12.557-2.163c1.728 0 3.119.039 4.173.115 1.05.07 2.176.186 3.379.34v-1.05c0-1.873-.47-3.281-1.408-4.224a7.258 7.258 0 0 0-3.437-1.92c-1.288-.33-2.612-.5-3.942-.506a27.891 27.891 0 0 0-8.845 1.28 23.68 23.68 0 0 0-6.253 2.983l-7.213-10.912c2.253-1.8 5.425-3.452 9.517-4.954 4.092-1.502 9.257-2.259 15.494-2.272 7.365 0 13.319 1.899 17.863 5.696 4.544 3.798 6.816 9.449 6.816 16.954v32zm-.678-19.386v-3.488a23.59 23.59 0 0 0-5.184-.455c-3.157 0-5.485.621-6.982 1.863a5.587 5.587 0 0 0-2.253 4.48c0 3.912 2.103 5.867 6.31 5.862a9.696 9.696 0 0 0 5.517-1.747c1.737-1.169 2.605-3.332 2.605-6.49zm29.44 19.385V39.47h18.368l.64 6.65a21.075 21.075 0 0 1 5.58-5.351 14.278 14.278 0 0 1 8.058-2.195 28.39 28.39 0 0 1 3.885.224c.978.113 1.94.328 2.874.64l-2.458 16.25a22.86 22.86 0 0 0-5.523-.64c-8.265 0-12.397 4.545-12.397 13.638v23.776z"/>
</svg>
