<svg xmlns="http://www.w3.org/2000/svg" viewBox="0 0 254.684 127.777">
  <path fill="#d9222a" d="M0 .008V127.54h179.785l14.843-32.079 15.081 32.315h44.975V0L0 .008"/>
  <path fill="#fff" d="m231.85 95.435-30.896-70.53.012-.005h-.012v-.007l-.005.007H188.54l-30.199 70.562h13.308l22.99-55.334 23.974 55.334 13.235-.027M70.43 65.236c9.698-3.622 14.336-11.63 14.224-19.79-.172-12.387-9.888-21.034-23.63-21.034H31.307v70.935h10.821V34.771h18.278c6.126 0 12.704 3.187 12.812 10.824.092 6.803-4.985 11.052-13.59 11.419l-.167.007-6.556.056 21.83 38.385 12.783-.027S77.017 76.879 70.43 65.236M99.323 42.73c0 14.125 14.018 18.11 24.917 21.182 11.354 3.21 15.309 6.829 15.309 12.314 0 9.15-9.28 10.578-15.02 10.578-7.88 0-14.382-2.201-20.744-6.13l-5.43 9.2c8.027 4.949 16.347 7.256 26.175 7.256 16.417 0 27.323-8.506 27.323-21.67 0-14.703-13.268-18.772-24.423-21.926-11.362-3.211-15.805-5.926-15.805-11.414 0-8.31 10.172-9.117 13.815-9.117 5.73 0 13.015 1.919 17.33 4.146l4.566-8.992c-5.816-3.008-14.74-5.022-22.2-5.022-15.874 0-25.813 7.228-25.813 19.594"/>
</svg>
