<svg xmlns="http://www.w3.org/2000/svg" viewBox="0 0 256 175.807">
  <path fill="#b2271b" d="M31.433 5.591 35.291.872l20.623 16.285 34.804-15.65 21.518 32.871 33.638-2.763 19.25-30.108 34.962 15.95L220.71 1.189l4.136 1.96.707 171.117-5.277.158-19.333-14.488-35.741 14.488-19.071-29.717-35.662.386-19.513 29.128-35.62-15.12-19.648 15.358-4.77-.258.515-168.61"/>
  <path fill="#d82a1f" d="M2.332 0h31.32a2.332 2.332 0 0 1 2.332 2.332v171.143a2.332 2.332 0 0 1-2.332 2.332H2.332A2.332 2.332 0 0 1 0 173.475V2.332A2.332 2.332 0 0 1 2.332 0M57.507 0h31.32a2.332 2.332 0 0 1 2.332 2.332v171.143a2.332 2.332 0 0 1-2.332 2.332h-31.32a2.332 2.332 0 0 1-2.332-2.332V2.332A2.332 2.332 0 0 1 57.507 0M112.34 0h31.32a2.332 2.332 0 0 1 2.332 2.332v171.143a2.332 2.332 0 0 1-2.332 2.332h-31.32a2.332 2.332 0 0 1-2.332-2.332V2.332A2.332 2.332 0 0 1 112.34 0M167.173 0h31.32a2.332 2.332 0 0 1 2.332 2.332v171.143a2.332 2.332 0 0 1-2.332 2.332h-31.32a2.332 2.332 0 0 1-2.332-2.332V2.332A2.332 2.332 0 0 1 167.173 0M222.348 0h31.32A2.332 2.332 0 0 1 256 2.332v171.143a2.332 2.332 0 0 1-2.332 2.332h-31.32a2.332 2.332 0 0 1-2.332-2.332V2.332A2.332 2.332 0 0 1 222.348 0"/>
</svg>
