<svg xmlns="http://www.w3.org/2000/svg" viewBox="0 0 256 256">
  <defs>
    <linearGradient id="a" x1="165.224" x2="101.065" y1="210.93" y2="28.677" gradientTransform="scale(1.0979 .91082)" gradientUnits="userSpaceOnUse">
      <stop offset="17%" stop-color="#FF1F51"/>
      <stop offset="28%" stop-color="#FF3648"/>
      <stop offset="47%" stop-color="#FF593B"/>
      <stop offset="65%" stop-color="#FF7231"/>
      <stop offset="81%" stop-color="#FF812B"/>
      <stop offset="94%" stop-color="#FF8629"/>
    </linearGradient>
    <linearGradient id="b" x1="98.866" x2="74.688" y1="58.254" y2="150.992" gradientTransform="scale(1.2342 .81024)" gradientUnits="userSpaceOnUse">
      <stop offset="2%" stop-color="#9039D0"/>
      <stop offset="63%" stop-color="#FF1F51"/>
    </linearGradient>
    <linearGradient id="c" x1="1.032" x2="177.953" y1="38.168" y2="232.71" gradientTransform="scale(.93002 1.07524)" gradientUnits="userSpaceOnUse">
      <stop offset="11%" stop-color="#9039D0"/>
      <stop offset="39%" stop-color="#FF1F51"/>
      <stop offset="63%" stop-color="#FF1F51"/>
      <stop offset="66%" stop-color="#FF3648"/>
      <stop offset="71%" stop-color="#FF593B"/>
      <stop offset="77%" stop-color="#FF7231"/>
      <stop offset="81%" stop-color="#FF812B"/>
      <stop offset="85%" stop-color="#FF8629"/>
    </linearGradient>
  </defs>
  <path fill="url(#a)" d="M81.92 0 25.6 142.5l64.86-26.44-.86 72.52 139.1 2.56L256 50.34 212.48 0l-72.54 26.46z" style="fill:url(#a)"/>
  <path fill="url(#b)" d="m19.62 68.26 163 63.16 3.4-48.64-92.16-60.6z" style="fill:url(#b)"/>
  <path fill="url(#c)" d="M171.52 177.5 192 153.6l1.7-15.36L93.86 22.18 0 45.22v134.84L53.76 256l52.9-6.82 95.58-12.8z" style="fill:url(#c)"/>
  <path d="M42.66 42.66h170.66v170.66H42.66z"/>
  <path fill="#fff" d="M126.3 59.74h17.06l17.92 32.42 18.78-32.42h16.2v76.8H180.9V86.18l-19.62 33.28-19.62-32.42v49.5H126.3zm-66.56 0H91.3c8.533 0 15.36 2.56 20.48 7.68 4.26 4.26 6 10.24 6 18a29.46 29.46 0 0 1-4.26 15.36 18.86 18.86 0 0 1-11.1 8.54l17.06 27.3h-18l-14.44-23.98h-12.8v23.9H58.88v-76.8zm30.72 37.54A12.74 12.74 0 0 0 99 94.72a10.82 10.82 0 0 0 3.42-7.68A10.96 10.96 0 0 0 99 78.5a12.74 12.74 0 0 0-8.54-2.5H75.1v22.14h15.36zm-30.72 87.9h64v10.24h-64z"/>
</svg>
