<svg xmlns="http://www.w3.org/2000/svg" viewBox="0 0 256 318.14">
  <path d="M128 0C57.307 0 0 57.307 0 128s57.307 128 128 128 128-57.307 128-128S198.693 0 128 0zM61.506 192.935 128 38.649l37.912 84.789H136v30.165h43.4l17.587 39.332z"/>
  <path fill="#fecc18" d="M46.921 226.701h23.204v23.002H46.921z"/>
  <path fill="#fecc18" d="M70.064 249.372h23.454v23.002H70.064z"/>
  <path fill="#fecc18" d="M93.207 272.168h23.787v23.002H93.207z"/>
  <path fill="#ef7b1a" d="M93.207 249.372h23.537v23.002H93.207z"/>
  <path fill="#fecc18" d="M116.4 249.372h23.621v23.002H116.4z"/>
  <path fill="#ef7b1a" d="M139.57 249.372h23.454v22.534l-.253.312-.302.156H139.57v-23.002"/>
  <path fill="#fecc18" d="M116.413 294.985h23.156v23.155h-23.156z"/>
  <path fill="#ef7b1a" d="M116.366 272.182h23.704v23.002l-23.658-.014-.046-22.988M70.064 226.701h23.704v23.002H70.064z"/>
  <path fill="#fecc18" d="M139.57 272.213h23.204v22.971H139.57z"/>
  <path fill="#fecc18" d="M162.771 249.372h23.1v22.846h-23.1zM93.207 226.701h23.704v23.002H93.207z"/>
  <path fill="#e84425" d="M116.4 226.701h23.704v23.002H116.4z"/>
  <path fill="#fecc18" d="M139.57 226.701h23.621v23.002H139.57z"/>
  <path fill="#ef7b1a" d="M162.771 226.701h23.621v23.002h-23.621z"/>
  <path fill="#fecc18" d="M185.875 226.701h23.204v23.002h-23.204z"/>
</svg>
