<svg xmlns="http://www.w3.org/2000/svg" viewBox="0 0 256 216.9">
  <path fill="#ccadd2" d="M233.98 10.411 27.491.026C12.218-.585 0 9.8 0 23.24v9.775l255.973 7.942v-7.942c.61-12.218-9.164-21.993-21.993-22.604zM32.378 20.186c0 1.833-1.832 4.276-4.276 4.276H20.16c-1.833 0-4.276-1.833-4.276-4.276v-7.331c0-1.833 1.832-4.277 4.276-4.277h7.942c1.833 0 4.276 1.833 4.276 4.277zm27.492.61c0 1.833-1.833 4.277-4.277 3.055h-7.33c-1.834 0-4.277-1.832-4.277-4.276v-7.331c0-1.833 1.833-4.276 4.276-3.055h7.942c1.833 0 4.276 1.833 4.276 4.277v7.33zm26.269.612c0 1.832-1.833 4.276-4.277 3.054h-7.941c-1.833 0-4.277-1.833-4.277-4.276v-7.331c0-1.833 1.833-4.277 4.277-3.055h7.941c1.833 0 4.277 1.833 4.277 4.277zM0 193.685c0 13.44 12.83 23.215 27.491 23.215l206.489-10.386c12.218-.61 21.993-10.385 21.993-22.603V50.12L0 42.179zm114.852-96.524c-4.888-4.887-4.888-12.218 0-17.106 4.887-4.887 12.829-4.276 17.716 0l34.822 32.379c4.888 4.276 4.888 12.218 0 15.273l-34.822 32.989c-4.887 4.887-12.829 4.887-17.716 0-4.888-4.276-4.888-12.218 0-17.106l26.27-24.436c0 2.443-26.27-21.993-26.27-21.993z"/>
</svg>
