<svg xmlns="http://www.w3.org/2000/svg" viewBox="0 0 255.079 265.319">
  <path fill="#0a0b09" d="m223.12 124.116.118.636c.327 1.613 1.742 2.842 3.448 2.842l20.622.003c1.917-.038 3.445-1.645 3.445-3.57a123.782 123.782 0 0 0-8-29.764l10.873-8.874c1.504-1.227 1.907-3.588.896-5.244L242.904 61.11c-1.012-1.656-3.294-2.376-5.073-1.6l-15.11 6.595a120.82 120.82 0 0 0-20.013-20.403l6.156-15.098c.733-1.798-.043-4.062-1.724-5.033l-19.311-11.15c-1.681-.97-4.03-.51-5.22 1.024l-9.832 12.666a119.18 119.18 0 0 0-27.687-7.527l-2.34-17.07C142.485 1.594 140.68 0 138.74 0h-22.299c-1.94 0-3.745 1.593-4.009 3.516l-2.333 17.002a119.281 119.281 0 0 0-27.712 7.421L72.513 15.22c-1.19-1.533-3.54-1.993-5.22-1.022l-19.311 11.15c-1.68.97-2.457 3.236-1.724 5.033l6.138 15.054a120.808 120.808 0 0 0-20.081 20.323l-15.237-6.515c-1.784-.764-4.061-.026-5.06 1.638L.542 80c-.999 1.665-.578 4.021.935 5.237l10.699 8.599a123.55 123.55 0 0 0-8.178 30.166c-.003 1.948 1.532 3.557 3.448 3.595h20.16c2.425-.08 3.871-1.538 3.967-3.348 8.124-45.581 48.038-80.126 95.81-80.126 47.842 0 87.664 34.54 95.737 79.993zM31.656 157.438c-.315-1.614-1.723-2.8-3.438-2.8-.156 0-.255.006-.464.008l-.004.003H7.598a3.519 3.519 0 0 0-3.456 3.52l.001.011c8.385 60.532 60.32 107.14 123.158 107.14h-.003c62.839 0 114.773-46.608 123.158-107.14l.003-.02a3.501 3.501 0 0 0-3.445-3.511h-20.168c-.15-.02-.298-.046-.453-.046a3.52 3.52 0 0 0-3.51 3.343c-.012.034-.047.051-.052.082-8.073 45.452-47.762 79.949-95.533 79.949h.003c-47.77 0-87.46-34.497-95.532-79.949l-.113-.59"/>
  <path fill="#3e64a0" d="M171.479 141.217c0-24.15-19.652-43.729-43.891-43.729-24.242 0-43.89 19.58-43.89 43.73 0 24.152 19.648 43.73 43.89 43.73 24.24 0 43.89-19.578 43.89-43.73"/>
</svg>
