<svg xmlns="http://www.w3.org/2000/svg" viewBox="0 0 256 186.242">
  <path fill="#5f2688" d="M49.75 159.453v8.93h8.93v-8.93h8.928v17.859h8.93v-17.859h8.93v17.859h8.928v8.93h8.93v-17.859h8.93v8.929h8.928v-56.127H0v38.268z"/>
  <path fill="#8d1f89" d="M0 112.255h121.184V73.987H0zm144.292-19.643c1.377 0 2.443-.425 3.199-1.273.756-.85 1.134-2.064 1.134-3.643 0-3.356-1.344-5.035-4.031-5.035h-5.29v9.95zm-14.462-18.48h16.88c3.83 0 6.719 1.224 8.667 3.672 1.948 2.449 2.923 5.745 2.923 9.892 0 2.526-.538 4.768-1.613 6.722-1.075 1.955-2.537 3.465-4.383 4.53.369.356.688.77.957 1.245.268.474.571 1.165.907 2.073l3.728 10.01h-9.875l-3.427-9.181c-.269-.711-.596-1.213-.983-1.51-.385-.296-.931-.445-1.637-.445h-2.67v11.136h-9.474zm40.21 23.87L161.172 84.2h10.278l3.729 5.923 3.779-5.923h10.228l-8.817 13.801 9.221 14.274h-10.38l-4.031-6.278-4.031 6.278h-10.33zm36.379 5.744c1.68 0 3.04-.286 4.082-.858 1.04-.574 1.839-1.6 2.393-3.08.554-1.48.832-3.604.832-6.368 0-2.803-.252-4.985-.756-6.545-.504-1.559-1.285-2.656-2.343-3.287-1.06-.632-2.461-.948-4.208-.948h-3.83v21.086zm-13.302-29.615h14.512c5.173 0 9.095 1.53 11.765 4.591 2.67 3.06 4.005 7.965 4.005 14.718 0 6.437-1.334 11.185-4.005 14.244-2.67 3.061-6.592 4.591-11.765 4.591h-14.512zm49.48 30.386c1.277 0 2.218-.316 2.822-.948.605-.632.908-1.678.908-3.14 0-1.263-.311-2.201-.933-2.812-.621-.613-1.62-.918-2.998-.918h-6.35v7.818zm-.402-15.163c2.317 0 3.476-1.225 3.476-3.673 0-1.264-.294-2.201-.882-2.813-.587-.612-1.537-.918-2.846-.918h-5.896v7.404zM226.927 74.13h17.837c3.259 0 5.753.908 7.482 2.725 1.73 1.816 2.596 4.423 2.596 7.818 0 1.896-.303 3.534-.907 4.916-.605 1.383-1.428 2.469-2.47 3.258 1.513.71 2.646 1.679 3.402 2.902.755 1.225 1.133 2.962 1.133 5.213 0 3.593-.94 6.377-2.821 8.35-1.881 1.975-4.552 2.963-8.012 2.963h-18.24z"/>
  <path fill="#e6008d" d="M17.859 17.859H8.93V8.93H0V65.057h121.184V26.788H71.435v-8.929h-8.929v8.929h-8.93V8.93h-8.929v17.858h-8.929V8.93h-8.929V0h-8.93v8.93z"/>
</svg>
