<svg xmlns="http://www.w3.org/2000/svg" viewBox="0 0 492.951 493.197">
  <path fill="#7882ff" d="M488.548 173.048c-6.1-45.8-22.3-87.3-50.8-117.7-30.4-28.5-71.9-44.7-117.7-50.8-43.7-5.8-73.5-4.4-73.5-4.4s-29.8-1.4-73.5 4.4c-45.8 6.1-87.3 22.3-117.6 50.8-28.6 30.4-44.8 71.9-50.9 117.7-5.8 43.7-4.4 73.5-4.4 73.5s-1.4 29.8 4.4 73.5c6.1 45.8 22.3 87.3 50.8 117.7 30.4 28.6 71.9 44.8 117.6 50.9 43.7 5.8 73.5 4.4 73.5 4.4s29.8 1.4 73.5-4.4c45.8-6.1 87.3-22.3 117.6-50.9 28.6-30.4 44.8-71.9 50.8-117.7 5.8-43.7 4.4-73.5 4.4-73.5s1.6-29.8-4.2-73.5"/>
  <path fill="#fff" d="M372.748 210.048c19.5 70-21.5 142.6-91.5 162.1s-142.6-21.5-162.1-91.5 21.5-142.6 91.5-162.1 142.6 21.5 162.1 91.5"/>
  <path fill="#fff" d="M372.748 210.048c7.3 26.3 6.1 52.9-1.9 76.9-.6 1.9-1.3 3.9-2.1 5.8"/>
  <path fill="#fff" d="M370.648 210.048c5.1 18.4 6.1 37 3.4 54.7"/>
  <path fill="#4d5cc1" d="M333.948 337.748c-33.3 0-73.8-8.5-114.2-23.8-40.4-15.3-76.3-35.9-101.2-58-40.4-35.9-37.9-63.7-32.8-77.1 5.1-13.4 21.7-35.9 75.7-35.9 33.3 0 73.8 8.5 114.2 23.8 40.4 15.3 76.3 35.9 101.2 58 40.4 35.9 37.9 63.7 32.8 77.1-5 13.4-21.6 35.9-75.7 35.9m-172.4-153.1c-25 0-35.7 6.2-36.8 9-1.1 2.8 2.9 14.6 21.6 31.2 20.9 18.5 53.1 36.9 88.3 50.2 35.2 13.4 71.5 21.1 99.4 21.1 25 0 35.7-6.2 36.8-9 1.1-2.8-2.9-14.6-21.5-31.2-20.9-18.5-53.1-36.9-88.3-50.2-35.4-13.4-71.6-21.1-99.5-21.1z"/>
  <path fill="#fff" d="m124.748 194.048 245.9 93.4c8.2-24.2 9.5-51 2.1-77.4-19.5-70-92-111-162.1-91.5-40.2 11.2-70.8 39.9-85.9 75.5"/>
</svg>
