<svg xmlns="http://www.w3.org/2000/svg" viewBox="0 0 510.84 102.835">
  <path fill="#f37368" d="M360.286 101.24V26.253l20.886 10.153v64.834z"/>
  <path fill="#f7a199" d="m85.575 89.201 15.665 13.634 65.994-34.375-6.817-16.39zm274.71-41.772 53.086-27.558-8.993-15.52-44.092 21.902z"/>
  <path fill="#f37368" d="M210.892 31.33v69.91h-20.016V1.595zM85.575 89.2l15.665 13.634 30.168-75.422-9.717-25.818z"/>
  <path fill="#f04939" d="M121.69 1.595h20.597l38.146 99.645h-21.176zm92.248 0 43.948 68.025 37.566 31.62L190.876 1.595zm81.659 0h20.74l-23.061 99.645h2.32zm64.689 18.276h-31.91V1.595h74.407l10.588 18.276h-32.2z"/>
  <path fill="#f7a199" d="M474.724 63.384v37.856h-20.596V63.384"/>
  <path fill="#f04939" d="M474.724 63.384 510.84 1.595h-21.902l-34.81 61.789z"/>
  <path fill="#f37368" d="m440.784 1.595 24.222 42.353-10.878 19.436-35.97-61.789z"/>
  <path fill="#f04939" d="M8.267 13.199c0 13.779 8.558 22.046 25.673 26.398l18.13 4.206c16.245 3.77 26.108 13.054 26.108 28.138.145 6.527-2.03 12.909-5.947 18.13 0-15.084-7.832-23.206-26.543-28.138l-17.84-4.061C13.49 54.681 2.466 46.994 2.466 30.604c0-6.237 2.03-12.474 5.801-17.405"/>
  <path fill="#f37368" d="M277.901 1.595v99.645h-20.015V1.595zM61.063 68.17C68.75 73.101 72.23 80.063 72.23 90.071c-6.527 8.268-17.695 12.764-30.894 12.764-22.191 0-38.001-11.023-41.337-30.024h21.321c2.756 8.703 10.008 12.764 19.871 12.764 11.749.145 19.726-6.237 19.87-17.405M8.268 13.054C14.504 4.93 25.237 0 38.291 0c22.772 0 35.826 12.039 39.162 28.863H56.857C54.536 22.192 48.879 16.97 38.58 16.97c-11.168.145-18.71 6.527-19.145 16.68-7.474-4.122-11.459-12.184-11.169-20.596z"/>
</svg>
