<svg xmlns="http://www.w3.org/2000/svg" viewBox="0 0 255.293 191.454">
  <path fill="#cd6799" d="M219.827 110.06c-8.906.046-16.647 2.191-23.128 5.362-2.379-4.71-4.757-8.906-5.176-11.984-.467-3.59-1.026-5.782-.467-10.072.56-4.29 3.078-10.399 3.031-10.865-.046-.466-.56-2.658-5.689-2.704-5.129-.047-9.559.979-10.072 2.331-.513 1.352-1.492 4.43-2.145 7.6-.886 4.664-10.258 21.31-15.62 30.03-1.726-3.403-3.218-6.388-3.545-8.766-.466-3.59-1.026-5.782-.466-10.072.56-4.29 3.078-10.398 3.03-10.865-.046-.466-.559-2.658-5.688-2.704-5.13-.047-9.56.979-10.072 2.331-.513 1.353-1.073 4.523-2.145 7.601-1.073 3.078-13.523 30.87-16.787 38.05a214.734 214.734 0 0 1-4.15 8.627s-.047.14-.187.373c-.886 1.725-1.399 2.658-1.399 2.658v.046c-.699 1.26-1.445 2.425-1.818 2.425-.28 0-.793-3.357.093-7.927 1.865-9.652 6.295-24.667 6.249-25.18 0-.28.839-2.891-2.891-4.244-3.638-1.352-4.943.886-5.27.886-.326 0-.56.793-.56.793s4.058-16.88-7.74-16.88c-7.367 0-17.533 8.067-22.569 15.341-3.17 1.726-9.932 5.41-17.16 9.373-2.751 1.539-5.595 3.078-8.253 4.523-.187-.186-.373-.42-.56-.606-14.269-15.248-40.662-26.02-39.542-46.49.42-7.461 2.984-27.046 50.687-50.827 39.262-19.352 70.505-13.99 75.914-2.099 7.74 16.974-16.74 48.496-57.309 53.065-15.481 1.726-23.595-4.243-25.646-6.481-2.145-2.332-2.472-2.472-3.265-2.005-1.305.7-.466 2.798 0 4.01 1.213 3.17 6.202 8.766 14.642 11.518 7.461 2.424 25.6 3.777 47.563-4.71 24.574-9.513 43.786-35.952 38.144-58.101C154.218.945 116.914-6.47 81.615 6.074 60.632 13.535 37.876 25.286 21.51 40.581 2.064 58.766-1.014 74.574.245 81.196c4.524 23.501 36.932 38.796 49.895 50.127-.653.373-1.26.7-1.772.98-6.482 3.217-31.196 16.133-37.351 29.796-6.995 15.481 1.12 26.58 6.482 28.071 16.647 4.617 33.76-3.683 42.946-17.393 9.186-13.709 8.067-31.522 3.824-39.682a.975.975 0 0 0-.187-.28c1.679-.979 3.404-2.005 5.083-2.984a247.923 247.923 0 0 1 9.373-5.27c-1.586 4.337-2.752 9.513-3.311 16.974-.7 8.767 2.89 20.144 7.6 24.62 2.099 1.96 4.57 2.006 6.156 2.006 5.502 0 7.973-4.57 10.725-9.979 3.357-6.621 6.388-14.315 6.388-14.315s-3.777 20.797 6.482 20.797c3.73 0 7.507-4.85 9.186-7.321v.046s.093-.14.28-.466c.373-.606.606-.98.606-.98v-.093c1.492-2.61 4.85-8.533 9.839-18.372 6.435-12.683 12.637-28.538 12.637-28.538s.56 3.87 2.47 10.306c1.12 3.777 3.452 7.927 5.317 11.937-1.492 2.098-2.425 3.264-2.425 3.264l.047.047c-1.213 1.585-2.518 3.31-3.964 4.99-5.083 6.061-11.145 13.01-11.984 15.014-.98 2.378-.746 4.104 1.12 5.503 1.351 1.025 3.776 1.165 6.248 1.025 4.57-.326 7.787-1.445 9.372-2.145 2.472-.886 5.363-2.238 8.067-4.243 4.99-3.684 8.02-8.953 7.741-15.9-.14-3.825-1.399-7.648-2.938-11.239.467-.653.886-1.305 1.353-1.958 7.88-11.518 13.989-24.155 13.989-24.155s.56 3.87 2.471 10.306c.933 3.264 2.844 6.808 4.523 10.258-7.414 6.016-11.984 13.01-13.616 17.58-2.938 8.487-.653 12.31 3.684 13.196 1.958.42 4.756-.513 6.808-1.399 2.611-.839 5.689-2.285 8.627-4.43 4.989-3.683 9.792-8.813 9.512-15.76-.14-3.171-.98-6.296-2.145-9.327 6.295-2.61 14.409-4.056 24.76-2.844 22.197 2.611 26.58 16.46 25.74 22.29-.839 5.828-5.502 8.999-7.04 9.978-1.54.98-2.052 1.306-1.912 2.005.186 1.026.932.98 2.238.793 1.818-.327 11.657-4.71 12.077-15.435.7-13.709-12.357-28.677-35.439-28.537zM48.601 167.788c-7.368 8.02-17.626 11.051-22.056 8.487-4.756-2.752-2.891-14.596 6.155-23.082 5.502-5.176 12.59-9.98 17.3-12.917 1.072-.653 2.658-1.585 4.57-2.751.326-.187.513-.28.513-.28l1.119-.7c3.31 12.124.14 22.803-7.601 31.243zm53.625-36.465c-2.565 6.248-7.927 22.243-11.192 21.357-2.797-.746-4.523-12.87-.56-24.854 2.006-6.016 6.25-13.197 8.72-15.994 4.01-4.477 8.44-5.97 9.513-4.15 1.353 2.378-4.896 19.724-6.481 23.641zm44.252 21.17c-1.073.56-2.099.933-2.565.653-.326-.187.466-.933.466-.933s5.55-5.968 7.741-8.673c1.26-1.585 2.751-3.45 4.337-5.549v.606c0 7.135-6.902 11.938-9.98 13.896zm34.133-7.787c-.793-.56-.653-2.425 2.005-8.254 1.026-2.285 3.45-6.108 7.601-9.792.466 1.492.793 2.938.746 4.29-.047 9-6.482 12.357-10.352 13.756z"/>
</svg>
