<svg xmlns="http://www.w3.org/2000/svg" viewBox="0 0 254.87 215.044">
  <path fill="#5c4863" d="M50.673 122.79c14.914 0 22.31-7.889 22.31-17.504 0-22.926-37.47-13.805-37.47-28.719 0-6.163 5.546-10.847 14.79-10.847 7.889 0 14.298 3.205 17.75 7.889l3.574-4.56c-4.314-4.808-11.093-8.752-21.324-8.752-13.435 0-21.2 7.395-21.2 16.517 0 21.447 37.594 12.202 37.594 28.472 0 6.903-5.917 12.08-15.9 12.08-8.382 0-15.408-3.944-19.23-8.752l-3.82 4.684c5.916 6.656 13.312 9.491 22.926 9.491zm83.077-1.48V79.402c0-13.312-9.614-19.105-21.694-19.105-9.86 0-16.763 3.328-22.926 9.984l3.574 4.437c5.424-6.163 11.217-8.751 18.736-8.751 8.751 0 15.9 4.807 15.9 13.681v12.08c-5.177-5.793-11.956-8.505-20.214-8.505-10.354 0-20.831 6.78-20.831 19.721 0 12.82 10.6 19.845 20.83 19.845 8.26 0 14.915-2.712 20.215-8.505v7.026zm-24.406-3.574c-9.737 0-16.27-6.287-16.27-14.667 0-8.505 6.533-14.792 16.27-14.792 7.15 0 13.805 2.712 17.996 8.259V109.6c-4.19 5.423-10.847 8.135-17.996 8.135zm62.123 5.053c14.914 0 22.31-7.888 22.31-17.503 0-22.926-37.472-13.805-37.472-28.719 0-6.163 5.547-10.847 14.792-10.847 7.888 0 14.298 3.205 17.749 7.889l3.574-4.56c-4.314-4.808-11.093-8.752-21.323-8.752-13.436 0-21.201 7.395-21.201 16.517 0 21.447 37.594 12.202 37.594 28.472 0 6.903-5.916 12.08-15.9 12.08-8.381 0-15.408-3.944-19.229-8.752l-3.82 4.684c5.916 6.656 13.312 9.491 22.926 9.491zm56.576 0c14.914 0 22.31-7.888 22.31-17.503 0-22.926-37.47-13.805-37.47-28.719 0-6.163 5.546-10.847 14.79-10.847 7.888 0 14.298 3.205 17.75 7.889l3.573-4.56c-4.314-4.808-11.092-8.752-21.323-8.752-13.435 0-21.2 7.395-21.2 16.517 0 21.447 37.594 12.202 37.594 28.472 0 6.903-5.917 12.08-15.9 12.08-8.382 0-15.408-3.944-19.23-8.752l-3.82 4.684c5.916 6.656 13.312 9.491 22.926 9.491zM59.191 213.755c22.35 0 37.932-14.185 37.932-35.891 0-21.491-15.581-35.783-38.04-35.783H30.822v71.674zm-.108-13.433H46.081v-44.809h13.11c14.614 0 22.35 9.779 22.35 22.351 0 12.25-8.274 22.458-22.458 22.458zm82.957 14.722c21.599 0 37.395-15.474 37.395-37.073 0-21.598-15.796-37.072-37.395-37.072-21.707 0-37.503 15.474-37.503 37.072 0 21.6 15.796 37.073 37.503 37.073zm0-13.54c-13.325 0-21.814-10.208-21.814-23.533 0-13.432 8.49-23.533 21.814-23.533 13.217 0 21.706 10.101 21.706 23.533 0 13.325-8.489 23.533-21.706 23.533zm82.957 13.54c15.688 0 24.823-8.704 29.873-17.623l-13.11-6.34c-3.01 5.804-9.457 10.423-16.763 10.423-13.11 0-22.567-9.993-22.567-23.533 0-13.54 9.457-23.533 22.567-23.533 7.306 0 13.754 4.621 16.763 10.424l13.11-6.448c-5.051-9.026-14.184-17.515-29.873-17.515-21.6 0-38.254 14.936-38.254 37.072-.001 22.03 16.655 37.073 38.254 37.073z"/>
  <path fill="#dd5a6f" d="M7.544 60.317c-.306.916-.65 1.833-1.03 2.75a11.934 11.934 0 0 1-1.319 2.405c-.496.687-1.05 1.203-1.66 1.546-.611.345-1.261.402-1.948.173C.67 67.038.155 66.369.04 65.185a8.384 8.384 0 0 1 .401-3.494c.535-1.833 1.317-4.258 2.348-7.275a394.842 394.842 0 0 1 3.552-9.91c1.337-3.59 2.75-7.313 4.239-11.17 1.49-3.856 2.922-7.542 4.297-11.056 1.374-3.514 2.635-6.702 3.78-9.567a461.819 461.819 0 0 0 2.635-6.702c.23-.458.573-.84 1.031-1.145.459-.306.936-.459 1.433-.459.496 0 .992.153 1.49.459.495.305.896.802 1.202 1.49.61 1.603.65 3.169.114 4.696-.534 1.223-1.298 3.113-2.29 5.671-.994 2.56-2.12 5.442-3.38 8.65a1250.282 1250.282 0 0 0-3.953 10.197c-1.375 3.59-2.673 7.008-3.896 10.253-1.222 3.248-2.329 6.168-3.322 8.765-.993 2.597-1.719 4.506-2.177 5.729zM68.61 31.56a355.249 355.249 0 0 0-10.655-7.676 228.645 228.645 0 0 0 4.124 13.29c.23.916.135 1.718-.286 2.406-.42.687-.936 1.03-1.547 1.03-.993-.152-2.004-.61-3.036-1.374-1.031-.764-1.738-1.68-2.12-2.75-.305-.687-.687-1.795-1.145-3.322-.458-1.527-.993-3.323-1.604-5.385a125.036 125.036 0 0 0-3.61 5.614 670.157 670.157 0 0 0-3.15 5.27c-.61.84-1.297 1.317-2.062 1.432-.764.115-1.336-.057-1.718-.515-.535-.84-.859-1.928-.974-3.266-.115-1.335.095-2.463.63-3.38.382-.61 1.07-1.718 2.062-3.322A163.304 163.304 0 0 1 47.185 24c-1.604.381-3.17.782-4.698 1.202-1.527.42-3.055.822-4.582 1.203-.917.153-1.719 0-2.406-.458-.688-.458-.993-.993-.917-1.604.23-.993.744-1.89 1.546-2.692a6.403 6.403 0 0 1 2.808-1.661c.764-.23 2.004-.553 3.723-.974 1.72-.42 3.686-.897 5.9-1.432a182.495 182.495 0 0 1-4.525-2.807 77.553 77.553 0 0 0-4.525-2.693c-.84-.534-1.318-1.222-1.433-2.062-.114-.84.058-1.451.516-1.833.84-.535 1.852-.782 3.036-.744 1.185.038 2.234.363 3.15.973.765.382 1.834 1.031 3.209 1.948a81.05 81.05 0 0 1-.573-3.723 60.36 60.36 0 0 1-.344-3.38c-.077-.84.115-1.566.573-2.177.458-.61.993-.955 1.604-1.031.535-.153 1.183.019 1.948.516.764.496 1.336 1.431 1.718 2.806.306 1.452.65 2.941 1.031 4.468.382 1.528.764 3.17 1.146 4.927a228.372 228.372 0 0 1 4.468-5.843c1.451-1.833 2.826-3.4 4.124-4.697.611-.611 1.299-.955 2.063-1.032.764-.076 1.374.115 1.833.573.381.306.668.917.859 1.833.19.917-.135 1.948-.974 3.094a318.554 318.554 0 0 1-2.864 3.838 204.288 204.288 0 0 0-3.322 4.525 65.283 65.283 0 0 1 5.842-.859c1.91-.19 3.705-.324 5.385-.401.84 0 1.566.152 2.177.458.61.306.954.764 1.031 1.375.077.535-.152 1.184-.687 1.948s-1.49 1.26-2.865 1.49c-1.298.228-2.691.457-4.182.686-1.489.23-2.997.497-4.525.802 1.757 1.299 3.4 2.578 4.927 3.839 1.527 1.26 2.94 2.463 4.239 3.608.61.611 1.011 1.24 1.202 1.891.192.648.095 1.24-.286 1.776-.381.381-1.03.649-1.947.802-.917.152-1.91-.153-2.98-.917zm46.514 0a355.261 355.261 0 0 0-10.654-7.676 228.649 228.649 0 0 0 4.124 13.29c.23.916.134 1.718-.287 2.406-.419.687-.935 1.03-1.546 1.03-.993-.152-2.005-.61-3.036-1.374-1.032-.764-1.739-1.68-2.12-2.75-.305-.687-.687-1.795-1.145-3.322-.459-1.527-.993-3.323-1.604-5.385a125.036 125.036 0 0 0-3.61 5.614 670.157 670.157 0 0 0-3.15 5.27c-.61.84-1.298 1.317-2.062 1.432-.764.115-1.337-.057-1.718-.515-.535-.84-.86-1.928-.975-3.266-.114-1.335.095-2.463.63-3.38.382-.61 1.07-1.718 2.063-3.322A163.304 163.304 0 0 1 93.7 24c-1.604.381-3.17.782-4.697 1.202-1.527.42-3.055.822-4.583 1.203-.916.153-1.718 0-2.406-.458-.687-.458-.993-.993-.916-1.604.229-.993.744-1.89 1.546-2.692a6.403 6.403 0 0 1 2.807-1.661c.764-.23 2.005-.553 3.723-.974 1.72-.42 3.686-.897 5.901-1.432a182.497 182.497 0 0 1-4.526-2.807 77.553 77.553 0 0 0-4.525-2.693c-.84-.534-1.317-1.222-1.432-2.062-.115-.84.057-1.451.516-1.833.84-.535 1.852-.782 3.035-.744 1.185.038 2.235.363 3.151.973.764.382 1.833 1.031 3.208 1.948a81.05 81.05 0 0 1-.573-3.723 60.36 60.36 0 0 1-.343-3.38c-.077-.84.114-1.566.572-2.177.459-.61.994-.955 1.604-1.031.535-.153 1.184.019 1.948.516.764.496 1.337 1.431 1.719 2.806.305 1.452.65 2.941 1.03 4.468.382 1.528.765 3.17 1.146 4.927a228.365 228.365 0 0 1 4.469-5.843c1.451-1.833 2.826-3.4 4.124-4.697.61-.611 1.298-.955 2.062-1.032.764-.076 1.375.115 1.833.573.382.306.669.917.86 1.833.19.917-.135 1.948-.974 3.094a318.514 318.514 0 0 1-2.864 3.838 204.282 204.282 0 0 0-3.323 4.525 65.283 65.283 0 0 1 5.843-.859c1.91-.19 3.704-.324 5.385-.401.84 0 1.566.152 2.177.458.61.306.954.764 1.03 1.375.077.535-.152 1.184-.687 1.948s-1.49 1.26-2.864 1.49c-1.298.228-2.692.457-4.182.686-1.49.23-2.998.497-4.525.802 1.756 1.299 3.399 2.578 4.926 3.839 1.528 1.26 2.941 2.463 4.24 3.608.61.611 1.01 1.24 1.202 1.891.191.648.095 1.24-.286 1.776-.382.381-1.031.649-1.948.802-.916.152-1.91-.153-2.979-.917z"/>
</svg>
