<svg xmlns="http://www.w3.org/2000/svg" viewBox="0 0 256 256.003">
  <path fill="#e12826" d="m31.276 165.044 68.21.032-38.203 72.053C6.17 203.483-15.225 134.044 11.39 75.216c29.127-64.365 104.908-92.931 169.274-63.81L57.898 134.17h109.306l-80.383 81.18 33.193-62.626H40.48a92.387 92.387 0 0 1-3.378-24.73c.063-50.165 40.714-90.822 90.88-90.886 1.07 0 2.122.07 3.186.07l11.702-11.72a100.948 100.948 0 0 0-14.678-1.065c-57.12 0-103.742 46.476-103.742 103.601a102.547 102.547 0 0 0 6.826 37.05zm163.41-146.188c55.15 33.645 76.552 103.123 49.905 161.97-29.146 64.352-104.94 92.9-169.293 63.753l121.83-122.766H87.521l81.62-81.23-33.207 62.69h79.523c3.416 11.497 3.416 24.722 3.416 24.722-.064 50.166-40.72 90.816-90.886 90.88-1.199 0-2.39-.083-3.582-.083l-11.587 11.702a105.08 105.08 0 0 0 15.169 1.102 103.568 103.568 0 0 0 37.26-6.908c53.352-20.536 79.955-80.427 59.42-133.78h-68.19z"/>
</svg>
