<svg xmlns="http://www.w3.org/2000/svg" xmlns:xlink="http://www.w3.org/1999/xlink" viewBox="0 0 256 416">
  <defs>
    <linearGradient id="a" x1="0" x2="1" y1=".5" y2=".5">
      <stop offset="0%" stop-color="#4F4F4F"/>
      <stop offset="100%"/>
    </linearGradient>
    <linearGradient id="b" x1="0" x2="1" y1=".5" y2=".5">
      <stop offset="0%" stop-color="#C40000"/>
      <stop offset="100%" stop-color="red"/>
    </linearGradient>
    <linearGradient id="c" x1="0" x2="156.767" y1="444.174" y2="444.174" gradientTransform="scale(1.633 .61237)" gradientUnits="userSpaceOnUse" xlink:href="#a"/>
    <linearGradient id="d" x1="0" x2="156.767" y1="235.151" y2="235.151" gradientTransform="scale(1.633 .61237)" gradientUnits="userSpaceOnUse" xlink:href="#a"/>
    <linearGradient id="e" x1="0" x2="202.386" y1="263.101" y2="263.101" gradientTransform="scale(1.26491 .79057)" gradientUnits="userSpaceOnUse" xlink:href="#b"/>
    <linearGradient id="f" x1="0" x2="202.386" y1="101.193" y2="101.193" gradientTransform="scale(1.26491 .79057)" gradientUnits="userSpaceOnUse" xlink:href="#b"/>
    <linearGradient id="g" x1="0" x2="202.386" y1="425.01" y2="425.01" gradientTransform="scale(1.26491 .79057)" gradientUnits="userSpaceOnUse" xlink:href="#b"/>
  </defs>
  <path fill="url(#a)" d="M0 288v-32c0-5.394 116.377-14.428 192.2-32 36.628 8.49 63.8 18.969 63.8 32v32c0 13.024-27.172 23.51-63.8 32C116.376 302.425 0 293.39 0 288" style="fill:url(#c)" transform="matrix(1 0 0 -1 0 544)"/>
  <path fill="url(#a)" d="M0 160v-32c0-5.394 116.377-14.428 192.2-32 36.628 8.49 63.8 18.969 63.8 32v32c0 13.024-27.172 23.51-63.8 32C116.376 174.425 0 165.39 0 160" style="fill:url(#d)" transform="matrix(1 0 0 -1 0 288)"/>
  <path fill="url(#b)" d="M0 224v-96c0 8 256 24 256 64v96c0-40-256-56-256-64" style="fill:url(#e)" transform="matrix(1 0 0 -1 0 416)"/>
  <path fill="url(#b)" d="M0 96V0c0 8 256 24 256 64v96c0-40-256-56-256-64" style="fill:url(#f)" transform="matrix(1 0 0 -1 0 160)"/>
  <path fill="url(#b)" d="M0 352v-96c0 8 256 24 256 64v96c0-40-256-56-256-64" style="fill:url(#g)" transform="matrix(1 0 0 -1 0 672)"/>
</svg>
