<svg xmlns="http://www.w3.org/2000/svg" viewBox="0 0 256 315.086">
  <path fill="#1e7b85" d="M163.431 153.483a45.117 45.117 0 0 1 34.39-13.251 52.374 52.374 0 0 1 42.151 19.056C250.657 171.993 256 189.661 256 212.293c0 31.214-9.823 55.676-29.468 73.386a119.892 119.892 0 0 1-73.702 28.711c-4.985.696-10.096.696-15.396.696h-1.406a190.13 190.13 0 0 1-125.743-48.148L0 257.726l40.448-47.894 23.726 18.3-22.464 26.25a160.087 160.087 0 0 0 96.04 31.55c41.267 0 69.852-15.65 80.957-42.909.633-2.774.95-5.61.947-8.455 0-8.077-3.344-12.116-10.033-12.116a47.325 47.325 0 0 0-9.024 1.704 58.18 58.18 0 0 1-11.295 1.451 38.555 38.555 0 0 1-26.25-11.042 37.86 37.86 0 0 1-12.241-29.531 44.17 44.17 0 0 1 12.62-31.55zM123.173.022a173.969 173.969 0 0 1 112.004 38.555l10.853 8.518-33.696 48.083-24.861-16.406 17.92-25.745a145.132 145.132 0 0 0-82.03-23.853 101.466 101.466 0 0 0-41.963 8.33 95.85 95.85 0 0 0-12.178 7.446c-13.546 9.76-20.319 21.433-20.319 35.02 0 8.078 3.344 12.116 10.033 12.116a47.389 47.389 0 0 0 9.024-1.704 58.431 58.431 0 0 1 11.295-1.451 38.555 38.555 0 0 1 25.934 10.79 37.86 37.86 0 0 1 12.179 29.72 44.17 44.17 0 0 1-12.62 31.551 45.117 45.117 0 0 1-34.39 13.251 52.374 52.374 0 0 1-42.152-18.93c-10.727-12.683-16.47-30.604-16.532-53.257v-4.102C11.674 40.28 57.548.022 123.173.022z"/>
</svg>
