<svg xmlns="http://www.w3.org/2000/svg" viewBox="0 0 511.999 113.809">
  <path fill="#00293f" d="M168.843 53.25c-13.105-2.803-16.137-5.949-16.137-11.647s4.9-9.686 12.65-9.686a26.143 26.143 0 0 1 17.162 6.45l3.92-5.174a31.043 31.043 0 0 0-20.9-7.316c-11.396 0-19.555 6.837-19.555 16.319 0 9.481 6.29 14.29 19.966 17.253 12.49 2.644 15.475 5.79 15.475 11.396 0 6.04-5.265 10.211-13.265 10.211a28.33 28.33 0 0 1-20.512-8.41l-4.057 4.855a34.803 34.803 0 0 0 24.319 9.572c11.806 0 20.307-6.632 20.307-16.911 0-9.185-6.13-14.017-19.373-16.912zm67.237 27.783c-13.083 0-23.043-10.803-23.043-24.638 0-13.834 9.869-24.478 23.043-24.478a25.869 25.869 0 0 1 18.689 8.16l4.558-4.924a30.974 30.974 0 0 0-23.202-9.436c-17.504 0-30.085 13.858-30.085 30.86 0 17.003 12.763 30.656 29.88 30.656a30.974 30.974 0 0 0 23.909-10.439l-4.559-4.33c-5.675 5.424-11.03 8.57-19.19 8.57zm69.036-54.29c13.106 0 21.516 7.043 21.516 17.755 0 9.937-6.792 15.726-16.091 17.39l18.234 24.32h-8.251L303.27 63.095h-17.002V86.23h-6.724V26.743zm-.546 30.245h-.069c7.853 0 13.726-3.504 15.055-9.544l.022-.106c.188-.83.285-1.702.285-2.612 0-7.385-5.63-11.806-15.225-11.806h-18.37v24.068h18.302zm49.162-30.268h6.723v59.487h-6.723zm57.025 0c11.716 0 19.374 5.767 19.374 14.883a14.405 14.405 0 0 1-9.436 13.858c7.042 2.12 12.74 6.085 12.74 14.427 0 10.28-8.57 16.32-21.584 16.32h-26.438V26.72zm.092 32.547h-18.827V80.26h19.966c7.796 0 12.942-2.917 14.27-7.966l.017-.061c.228-.84.346-1.738.346-2.686 0-1.03-.135-1.99-.404-2.878-1.394-4.856-6.594-7.4-15.368-7.4zm-.593-26.507h-18.234v20.513h17.596c.986-.003 1.935-.06 2.841-.17 6.59-.746 10.97-4.32 10.97-10.565 0-5.949-4.672-9.778-13.173-9.778zm70.131-6.04c18.758 0 31.612 12.832 31.612 29.653 0 16.82-12.923 29.834-31.612 29.834h-20.65V26.72zm0 6.2h-13.949v47.088h13.949l.45-.003c14.784-.201 24.188-10.318 24.188-23.45 0-13.265-9.595-23.635-24.638-23.635z"/>
  <path fill="#1e7b85" d="M59.031 55.438a16.296 16.296 0 0 1 12.422-4.786 18.917 18.917 0 0 1 15.225 6.883c3.86 4.589 5.79 10.97 5.79 19.145 0 11.275-3.549 20.11-10.645 26.507a43.305 43.305 0 0 1-26.62 10.37c-1.801.252-3.647.252-5.562.252a68.675 68.675 0 0 1-45.926-17.39L0 93.09l14.61-17.299 8.57 6.61-8.114 9.481a57.823 57.823 0 0 0 34.689 11.396c14.906 0 25.23-5.652 29.242-15.498.228-1.002.343-2.027.342-3.054 0-2.918-1.208-4.376-3.624-4.376a17.094 17.094 0 0 0-3.26.615c-1.339.308-2.705.483-4.079.524a13.926 13.926 0 0 1-9.481-3.988 13.675 13.675 0 0 1-4.422-10.667 15.954 15.954 0 0 1 4.558-11.396zM44.49.008a62.838 62.838 0 0 1 40.456 13.926l3.92 3.077-12.17 17.367-8.981-5.926 6.473-9.299a52.422 52.422 0 0 0-29.63-8.615 36.65 36.65 0 0 0-15.156 3.008 34.621 34.621 0 0 0-4.4 2.69c-4.892 3.525-7.338 7.742-7.338 12.65 0 2.917 1.208 4.375 3.624 4.375 1.104-.099 2.195-.305 3.259-.615a21.105 21.105 0 0 1 4.08-.524 13.926 13.926 0 0 1 9.367 3.897 13.675 13.675 0 0 1 4.4 10.735 15.954 15.954 0 0 1-4.56 11.396 16.296 16.296 0 0 1-12.42 4.787 18.917 18.917 0 0 1-15.226-6.838c-3.875-4.581-5.949-11.054-5.971-19.236V35.38C4.217 14.55 20.787.008 44.49.008z"/>
</svg>
