<svg xmlns="http://www.w3.org/2000/svg" viewBox="0 0 256 289.479">
  <path fill="#5fc0c9" d="M245.13 92.885c-6.003 0-10.87 4.867-10.87 10.87v110.78l-78.734 44.509v-44.176l16.568-9.404a21.446 21.446 0 0 0 10.754 2.878c11.898 0 21.544-9.645 21.544-21.544 0-11.898-9.646-21.544-21.544-21.544-11.828 0-21.426 9.533-21.539 21.334l-22.019 12.497a10.868 10.868 0 0 0-5.504 9.453v69.137a10.873 10.873 0 0 0 10.87 10.87c1.844 0 3.69-.468 5.35-1.407l100.473-56.799a10.867 10.867 0 0 0 5.521-9.462V103.755c0-6.003-4.867-10.87-10.87-10.87"/>
  <path fill="#17a8dd" d="M121.447 283.992c2.973-5.215 1.156-11.854-4.059-14.827l-95.625-53.993.334-92.027 40.727 23.465-.037 22.779a21.439 21.439 0 0 0-7.828 7.916c-5.893 10.336-2.292 23.493 8.045 29.387 10.336 5.893 23.493 2.292 29.387-8.045 5.858-10.275 2.331-23.334-7.864-29.278l.05-29.045a10.87 10.87 0 0 0-5.486-9.465L16.681 95.03a10.871 10.871 0 0 0-14.828 4.059C.94 100.691.007 102.526 0 104.433v117a10.87 10.87 0 0 0 5.486 9.483L106.62 288.05c5.215 2.974 11.853 1.157 14.827-4.058"/>
  <path fill="#ec3e53" d="M240.336 62.195 133.937 1.431a10.869 10.869 0 0 0-10.776-.003L16.468 62.291c-5.215 2.974-7.03 9.613-4.056 14.828 2.975 5.214 9.614 7.031 14.828 4.055l101.304-57.788 84.375 48.187-73.997 41.711a21.63 21.63 0 0 0-10.62-2.772c-12.007 0-21.74 9.733-21.74 21.74 0 12.007 9.733 21.74 21.74 21.74 12.006 0 21.74-9.733 21.74-21.74 0-.093-.006-.184-.007-.276l90.248-50.872a10.871 10.871 0 0 0 .053-18.909"/>
</svg>
