<?xml version="1.0" encoding="UTF-8"?>
<svg width="256" height="256" version="1.1" viewBox="0 0 256 256" xmlns="http://www.w3.org/2000/svg">
<rect x="13" width="237.19" height="241.81" fill="#fff"/>
<path d="m7.1512 255.96c-0.4667-0.11714-0.9655-0.55082-1.1578-1.0066-0.1576-0.37349-0.1857-19.603-0.1857-127 0-120.84 0.011-126.58 0.2379-126.99 0.131-0.23946 0.4004-0.54174 0.5988-0.67176 0.3433-0.22504 5.6795-0.23824 111.27-0.27519 61.001-0.02134 111.18-8.07e-4 111.51 0.04564 0.4268 0.06043 0.7229 0.2109 1.0411 0.52918 0.6229 0.62274 0.6238 1.3898 0 2.3055-0.2432 0.35842-8.386 11.473-18.095 24.701-27.838 37.923-38.921 53.025-42.1 57.367-1.6226 2.2167-3.1078 4.1633-3.3 4.3256-0.6486 0.54696-1.8424 0.63472-2.6625 0.19572-0.1602-0.0857-5.5197-5.9785-11.91-13.095-9.1677-10.209-11.733-12.991-12.16-13.183-0.7474-0.337-1.7291-0.23472-2.359 0.24576-0.4357 0.33236-13.65 17.468-14.046 18.213-0.2643 0.49811-0.2209 1.6615 0.08 2.134 0.1398 0.21994 9.4135 9.8364 20.608 21.369 15.35 15.815 20.478 21.019 20.86 21.172 0.7147 0.28594 1.4261 0.25207 2.0905-0.0995 0.4318-0.22858 3.9853-4.1367 14.572-16.026 59.935-67.312 65.52-73.541 66.078-73.691 0.4463-0.12016 0.6182-0.1037 1.0237 0.09799 0.268 0.13332 0.612 0.41311 0.7646 0.62173l0.2773 0.37932v108.44c0 91.981-0.028 108.51-0.1857 108.88-0.1021 0.24208-0.3742 0.5746-0.6045 0.73892l-0.4189 0.29882-120.78 0.0181c-66.43 0.01-120.9-0.0123-121.05-0.0493zm71.475-28.124c19.483-1.0429 32.823-10.135 36.539-24.907 0.7912-3.1451 0.9437-4.5454 0.9444-8.6722 6e-4 -3.9478-0.1277-5.2103-0.8051-7.9267-2.3387-9.3772-9.1289-15.95-21.16-20.485-4.3843-1.6524-8.2836-2.7916-15.383-4.4942-8.8754-2.1284-12.046-2.984-14.713-3.97-4.4728-1.6532-6.8984-3.3925-7.9675-5.7132-0.3459-0.75077-0.4112-1.0763-0.4657-2.3208-0.2352-5.366 3.5477-9.1217 10.45-10.375 2.5839-0.46934 7.713-0.40377 11.554 0.14772 7.0947 1.0186 14.702 4.1891 20.542 8.5607 0.7684 0.57521 1.5665 1.1334 1.7736 1.2405 0.7706 0.39847 2.0436 0.16187 2.6681-0.49583 0.5921-0.62377 10.231-13.437 10.357-13.768 0.2153-0.56627 0.1499-1.5588-0.1332-2.0232-0.3271-0.53642-2.3314-2.099-4.7767-3.7242-7.9142-5.2596-16.222-8.3553-25.863-9.6362-2.6919-0.35769-9.5639-0.49441-13.175-0.26213-17.364 1.1167-30.35 9.6103-34.706 22.7-1.1015 3.3102-1.4799 5.7834-1.462 9.5539 0.055 11.522 5.2878 19.746 16.024 25.185 5.3543 2.7118 9.9289 4.2102 21.356 6.9951 11.634 2.8355 14.14 3.6016 17.606 5.3808 2.5959 1.3326 4.3978 3.0722 5.1673 4.9882 0.1839 0.45796 0.4066 1.3756 0.495 2.0392 0.1385 1.0404 0.1289 1.3696-0.07 2.3918-0.6915 3.5613-3.5384 6.5646-7.7992 8.2275-2.8166 1.0993-5.496 1.5943-9.2804 1.7144-11.471 0.3642-22.844-3.7233-31.613-11.363-0.687-0.59845-1.4373-1.1854-1.6674-1.3044-0.5405-0.27954-1.7752-0.20135-2.3021 0.14581-0.5334 0.35138-10.389 14.183-10.558 14.817-0.1508 0.5657-0.02 1.3354 0.3138 1.8446 0.5084 0.77576 3.8331 3.4097 6.8733 5.4449 9.0377 6.0505 19.362 9.5294 30.247 10.191 2.0948 0.12736 7.3745 0.0662 10.989-0.12729zm93.239 0.0791c9.2639-0.27023 18.873-3.4792 26.646-8.8976 1.6884-1.1772 2.0813-1.9855 1.5311-3.15-0.1274-0.26956-1.7713-2.741-3.6529-5.492-3.8316-5.6016-3.9389-5.7186-5.1419-5.6073-0.5778 0.0535-0.9064 0.20072-1.7986 0.80592-4.3305 2.9374-9.2523 4.8181-14.694 5.6151-1.4713 0.21545-2.688 0.29088-4.971 0.30813-3.4245 0.0259-4.6537-0.15377-7.2769-1.0635-3.1968-1.1086-5.6765-2.6643-8.116-5.0914-1.7751-1.7661-2.8596-3.2627-3.9751-5.4856-1.2052-2.4017-2.1325-5.7135-1.734-6.1935 0.1597-0.1924 2.8168-0.21241 28.211-0.21241h28.035l0.5995-0.30229c0.4382-0.22099 0.6809-0.46379 0.9022-0.90268 0.289-0.57321 0.2993-0.70389 0.2283-2.8886-0.1188-3.6496-0.3187-6.4402-0.6116-8.5355-2.6804-19.176-14.854-32.233-32.5-34.856-3.5598-0.52921-8.4301-0.58687-11.957-0.14155-7.2518 0.9156-14.495 3.9741-20.017 8.4527-8.7406 7.0879-14.016 17.117-14.909 28.345-0.2796 3.5123-0.1402 8.3841 0.3298 11.527 1.0559 7.0615 4.2447 14.203 8.7166 19.521 1.4194 1.6881 4.1882 4.3914 5.8832 5.744 5.2038 4.1528 11.835 7.0678 18.587 8.1708 2.9001 0.47371 4.8588 0.52894 11.688 0.32972zm-23.507-48.835c-0.2257-0.24941-0.2271-0.33316-0.025-1.5318 0.9788-5.7926 4.9134-10.994 10.298-13.613 1.4641-0.7122 2.8014-1.1591 4.568-1.5265 1.9529-0.40622 6.8357-0.45468 8.6487-0.0858 2.5527 0.51939 4.8067 1.4368 6.8498 2.7883 1.3729 0.90815 3.4478 2.9072 4.4225 4.2611 1.8782 2.6084 3.1437 5.8479 3.4031 8.7112 0.08 0.88426 0.064 0.97658-0.1897 1.1126-0.1984 0.10616-5.6015 0.14833-19.007 0.14833-18.444 0-18.734-4e-3 -18.968-0.26383z" fill="#43b02a" stroke-width=".13435"/>
</svg>
