<svg xmlns="http://www.w3.org/2000/svg" viewBox="0 0 255.179 331.653">
  <g fill="#4a4a4a">
    <path d="M9.772 320.224c-2.926 0-7.122-.717-9.772-1.6l1.27-5.908c2.209.662 5.133 1.214 8.114 1.214 2.376 0 2.762-.662 2.762-2.265 0-1.709-.056-1.93-4.362-2.98-6.514-1.6-7.121-3.367-7.121-8.392 0-5.687 2.208-8.06 10.269-8.06 2.041 0 5.796.276 8.17.884l-.718 6.183c-2.373-.442-5.3-.773-7.398-.773-2.319 0-2.872.607-2.872 1.821 0 1.658.223 1.878 3.423 2.596 7.676 1.71 8.228 3.368 8.228 8.721 0 5.522-2.32 8.559-9.993 8.559M38.815 301.894c0-1.876-.551-3.422-3.313-3.422-2.759 0-3.643 1.546-3.643 3.422v1.16h6.956zm-6.956 7.122v.774c0 3.09 1.214 3.92 4.859 3.92 2.483 0 5.796-.443 8.17-1.161l1.16 5.962c-2.429.885-6.35 1.713-10.102 1.713-8.724 0-12.035-4.307-12.035-10.93v-6.295c0-5.799 2.593-10.766 11.536-10.766 8.945 0 10.876 5.3 10.876 11.153v5.63zM67.804 319.672v-17.778c0-1.215-.552-1.93-1.932-1.93-1.435 0-4.086.991-5.797 1.93v17.778h-7.95v-26.885h5.908l.827 2.042c3.313-1.604 7.62-2.595 10.711-2.595 2.375 0 3.976.937 4.913 2.595 3.037-1.493 7.067-2.595 10.766-2.595 4.583 0 6.184 3.423 6.184 8.611v18.827h-7.95v-17.778c0-1.215-.552-1.93-1.933-1.93-1.436 0-4.085.991-5.796 1.93v17.778zM111.316 310.011h-3.808c-1.714 0-2.375.442-2.375 1.931 0 1.491.607 2.1 2.153 2.1 1.656 0 2.815-.388 4.03-.94zm1.434 9.661-.552-1.712c-3.091 1.712-5.852 2.264-7.672 2.264-4.97 0-7.012-3.59-7.012-8.172 0-5.41 2.483-7.563 8.005-7.563h5.797v-2.042c0-2.76-.496-3.7-4.749-3.7-2.372 0-4.747.278-7.287.775l-1.05-5.965c2.54-.771 6.57-1.324 9.664-1.324 9.329 0 11.372 2.815 11.372 10.27v17.17zM133.844 312.66c1.382.331 3.424.663 5.08.663 2.097 0 2.87-1.271 2.87-3.035v-8.117c0-1.878-.773-3.037-2.87-3.037-1.821 0-3.918 1.103-5.08 2.098zm15.9-2.372c0 6.346-2.76 9.936-9.053 9.936-2.21 0-5.026-.332-6.847-.774v11.098l-7.95 1.105v-38.866h6.239l.829 2.15c1.876-1.213 5.354-2.703 8.28-2.703 5.466 0 8.503 3.368 8.503 9.937zM171.225 319.672v-17.778c0-1.215-.552-1.93-1.933-1.93-1.434 0-4.083 1.102-5.796 1.986v17.722h-7.95v-37.873l7.84-1.106v14.023c3.257-1.49 6.514-2.482 9.605-2.482 4.583 0 6.186 3.423 6.186 8.611v18.827zM201.043 309.568v-6.68c0-2.54-1.325-3.975-4.195-3.975s-4.198 1.435-4.198 3.976v6.68c0 2.539 1.327 3.975 4.198 3.975 2.87 0 4.195-1.436 4.195-3.976m-16.34-.22v-6.238c0-5.523 2.593-10.876 12.145-10.876s12.146 5.353 12.146 10.876v6.238c0 5.52-2.594 10.875-12.146 10.875-9.552 0-12.145-5.355-12.145-10.875M222.744 303.275v16.397h-7.95v-26.886h6.625l.552 2.594c1.654-1.104 5.08-2.705 7.232-3.146l.662 7.507c-2.374.938-5.41 2.32-7.12 3.534M247.37 301.894c0-1.876-.552-3.422-3.313-3.422-2.759 0-3.643 1.546-3.643 3.422v1.16h6.956zm-6.956 7.122v.774c0 3.09 1.215 3.92 4.856 3.92 2.484 0 5.8-.443 8.174-1.161l1.157 5.962c-2.426.885-6.347 1.713-10.103 1.713-8.724 0-12.034-4.307-12.034-10.93v-6.295c0-5.799 2.593-10.766 11.537-10.766 8.947 0 10.879 5.3 10.879 11.153v5.63z"/>
  </g>
  <path fill="#8eb43f" d="M163.38 112.418c7.844 19.832-1.874 42.268-21.707 50.11-11.032 4.36-22.858 3.273-32.54-1.943l-44.835 44.833c-.245 1.989-1.017 7.32-1.017 7.32l-4.791 25.43c5.557 4.897 9.828 8.121 16.994 11.225 7.674 3.322 13.472 4.327 21.37 4.908l14.796-21.33-.8-.333a106.717 106.717 0 0 0 32.758.072l-.681.28 14.59 21.372c7.387-.467 12.693-1.21 19.953-4.08 7.775-3.075 12.587-6.47 18.583-11.641l-4.623-25.543-.822.336c9.025-6.55 16.81-14.401 23.246-23.153l-.297.716 25.431 4.793c4.898-5.56 8.12-9.83 11.225-16.99 3.323-7.677 4.326-13.477 4.909-21.375l-21.33-14.8-.326.778a106.911 106.911 0 0 0 .167-32.484l.178.44 21.368-14.598c-.467-7.387-1.21-12.687-4.075-19.948-3.08-7.782-6.47-12.588-11.645-18.586l-25.54 4.621s-6.265 1.006-8.3 1.25l-44.19 44.187a38.507 38.507 0 0 1 1.95 4.133"/>
  <path fill="#bf1919" d="M142.763 91.802c-19.832-7.845-42.268 1.874-50.109 21.708-4.361 11.028-3.278 22.855 1.942 32.536l-44.835 44.835c-1.989.247-7.32 1.019-7.32 1.019l-25.431 4.79c-4.894-5.556-8.122-9.829-11.22-16.991-3.324-7.676-4.326-13.473-4.912-21.376l21.331-14.79.336.8a106.73 106.73 0 0 1-.074-32.76l-.28.683L.817 97.662c.47-7.387 1.211-12.69 4.085-19.95 3.07-7.778 6.465-12.588 11.638-18.585l25.541 4.624-.338.822C48.3 55.55 56.148 47.763 64.9 41.325l-.718.297-4.793-25.43c5.561-4.896 9.834-8.119 16.994-11.22C84.058 1.645 89.857.642 97.755.058l14.802 21.333-.78.326a106.745 106.745 0 0 1 32.487-.167l-.443-.18L158.418 0c7.389.47 12.693 1.211 19.95 4.081 7.78 3.074 12.59 6.469 18.584 11.637l-4.62 25.546s-1.003 6.263-1.253 8.298L146.894 93.75a38.659 38.659 0 0 0-4.13-1.948"/>
</svg>
