<svg xmlns="http://www.w3.org/2000/svg" viewBox="0 0 511.784 157.047">
  <path fill="#015a9c" d="M459.515 21.715c-1.089 1.273-1.632 2.785-1.632 4.54 0 1.186.25 2.268.743 3.243.495.975 1.167 1.745 2.022 2.312a5.022 5.022 0 0 0 2.837.847c1.533 0 2.857-.618 3.97-1.865 1.11-1.245 1.669-2.758 1.669-4.538 0-1.754-.558-3.266-1.67-4.54-1.112-1.271-2.435-1.907-3.969-1.907-1.558 0-2.88.636-3.97 1.908zm-290.812.392c-2.797 1.529-4.877 3.577-6.236 6.142-1.361 2.564-2.042 5.436-2.042 8.61 0 3.288.673 6.135 2.02 8.545 1.347 2.409 3.081 4.415 5.205 6.015 2.124 1.6 4.594 3.082 7.411 4.442 2.572 1.163 4.53 2.288 5.878 3.377 1.346 1.091 2.02 2.43 2.02 4.015 0 .88-.392 1.823-1.173 2.828-.78 1.006-2.497 1.508-5.15 1.508-2.875 0-5.573-.609-8.09-1.83-2.517-1.22-5.076-2.752-7.678-4.596v14.49c2.771 1.395 5.437 2.45 7.999 3.161 2.561.71 4.614 1.143 6.16 1.3 1.547.154 2.853.234 3.917.234 3.812 0 7.19-.719 10.135-2.15 2.943-1.437 5.237-3.504 6.884-6.203 1.646-2.698 2.47-5.895 2.47-9.591 0-3.314-.672-6.08-2.018-8.303-1.346-2.225-3.206-4.186-5.577-5.887-2.373-1.7-5.536-3.61-9.489-5.737-2.245-1.217-3.805-2.251-4.68-3.103-.872-.85-1.31-1.855-1.31-3.017 0-1.246.432-2.295 1.3-3.145.867-.85 2.266-1.275 4.2-1.275 2.95 0 5.72.681 8.31 2.043 2.588 1.36 4.937 2.907 7.043 4.638V24.789c-.593-.456-1.683-1.08-3.267-1.873-1.585-.793-3.595-1.51-6.033-2.149-2.439-.637-5.092-.957-7.962-.957-4.036 0-7.45.768-10.247 2.297zm266.267 1.229-17.93 20.86v2.668h6.059V64.16c0 10.792 4.81 16.188 14.434 16.188 2.228 0 4.562-.356 7.003-1.067 2.441-.71 4.354-1.451 5.743-2.221V65.068c-3.47 2.043-6.268 3.064-8.399 3.064-1.636 0-2.854-.331-3.66-.998s-1.296-1.495-1.469-2.488c-.173-.992-.26-2.296-.26-3.914V46.866h12.785v-10.59H436.49v-12.94zm-136.98 14.35c-2.314 1.421-4.545 3.523-6.698 6.31-.544-1.507-1.277-2.828-2.194-3.965-.92-1.138-1.944-2.033-3.073-2.687-1.128-.652-2.275-1.115-3.442-1.385a16.358 16.358 0 0 0-3.684-.406c-2.73 0-5.137.553-7.222 1.662-2.083 1.11-4.13 2.888-6.14 5.331v-6.27h-13.394v43.35h13.394V54.21c.199-.284.67-.976 1.416-2.083.745-1.104 1.378-1.94 1.9-2.507.52-.566 1.197-1.078 2.029-1.531a5.63 5.63 0 0 1 2.736-.68c2.085 0 3.537.794 4.356 2.382.82 1.587 1.23 3.838 1.23 6.756v23.08h13.393V54.21c1.184-1.954 2.366-3.576 3.551-4.865 1.185-1.29 2.702-1.935 4.551-1.935 1.896 0 3.284.758 4.16 2.274.874 1.515 1.313 3.803 1.313 6.863v23.078h13.394-.003v-26.42c0-3.742-.489-6.924-1.467-9.55-.978-2.621-2.486-4.628-4.525-6.019-2.041-1.388-4.57-2.083-7.587-2.083-3.016 0-5.682.713-7.994 2.133zm190.453.248c-2.851 1.587-5.031 3.556-6.535 5.907-1.506 2.354-2.56 4.79-3.165 7.31-.606 2.523-.907 4.748-.907 6.674 0 1.927.296 4.15.887 6.672.591 2.522 1.66 4.994 3.202 7.415 1.543 2.425 3.738 4.435 6.59 6.035 2.851 1.602 6.346 2.401 10.483 2.401 1.832 0 3.524-.134 5.072-.405 1.55-.27 2.943-.612 4.182-1.025a42.496 42.496 0 0 0 3.53-1.347h.002V65.493c-2.456.85-4.537 1.504-6.246 1.958-1.708.456-3.232.681-4.57.681-1.413 0-2.824-.366-4.236-1.099s-2.578-1.88-3.494-3.443c-.917-1.563-1.374-3.484-1.374-5.765 0-3.435.922-5.97 2.768-7.604 1.845-1.633 3.957-2.45 6.336-2.45 2.453 0 5.86.795 10.22 2.383v-12.08a38.116 38.116 0 0 0-5.35-1.835c-1.76-.457-4.037-.686-6.839-.686-4.188 0-7.705.794-10.556 2.38zm-96.725-.824c-2.12 1.038-4.238 2.852-6.344 5.436v-6.27H371.98v43.348h13.394V54.207c.47-.763.93-1.485 1.377-2.166.448-.68 1-1.389 1.657-2.125a8.672 8.672 0 0 1 2.235-1.807c.83-.466 1.792-.7 2.885-.7 2.308 0 3.803.885 4.488 2.656.68 1.77 1.022 3.845 1.022 6.226v23.333h13.394-.002V54.185c0-12.42-4.541-18.632-13.62-18.632-2.606 0-4.97.52-7.092 1.557zm-176.772 1.312c-3.275 1.912-5.726 4.549-7.35 7.906-1.626 3.357-2.438 7.16-2.438 11.41 0 4.307.812 8.16 2.438 11.56 1.624 3.4 4.075 6.093 7.35 8.075 3.276 1.984 7.243 2.975 11.91 2.975 4.314 0 7.869-.477 10.66-1.43 2.792-.952 5.167-2.01 7.127-3.178v-9.452c-5.46 2.86-10.447 4.287-14.962 4.287-2.582 0-4.89-.826-6.924-2.48-2.034-1.652-3.312-3.783-3.833-6.39h26.687V58.64c0-5.453-.924-9.906-2.773-13.354-1.85-3.448-4.205-5.934-7.07-7.453-2.866-1.518-5.836-2.279-8.912-2.279-4.667 0-8.634.957-11.91 2.869zm5.673 9.071c1.377-1.685 3.18-2.53 5.415-2.53 2.26 0 3.99.83 5.193 2.488 1.203 1.66 1.805 3.877 1.805 6.652h-14.48c0-2.72.69-4.923 2.067-6.61zm118.016-11.295a28.59 28.59 0 0 0-6.052 1.94 23.768 23.768 0 0 0-5.384 3.35v11.757c2.076-2.326 4.362-4.225 6.86-5.703 2.495-1.473 5.2-2.212 8.118-2.212 2.473 0 4.08.595 4.821 1.782.742 1.189 1.113 2.832 1.113 4.925-.52.311-1.012.568-1.483.764-.47.197-1.18.475-2.131.827-.952.354-2.356.87-4.209 1.55-3.264 1.187-5.884 2.334-7.86 3.436-1.979 1.105-3.554 2.526-4.727 4.268-1.175 1.742-1.762 3.941-1.762 6.602 0 1.754.34 3.459 1.02 5.114.679 1.656 1.864 3.029 3.56 4.117 1.693 1.09 3.91 1.635 6.657 1.635 2.841 0 5.139-.434 6.896-1.295a19.864 19.864 0 0 0 4.785-3.29c.37 1.275.99 2.358 1.859 3.249.867.888 2.404 1.336 4.613 1.336 2.33 0 4.326-.272 5.986-.806 1.661-.537 3.471-1.247 5.432-2.123v-8.026c-1.438.824-2.578 1.235-3.42 1.235-.694 0-1.17-.39-1.43-1.17-.26-.779-.392-1.962-.392-3.55V49.206c0-4.25-1.379-7.587-4.14-10.012-2.76-2.423-6.874-3.636-12.344-3.636-2.153 0-4.282.214-6.386.641zm1.434 34.77c-.731-.764-1.097-1.87-1.097-3.315 0-2.011.73-3.603 2.193-4.78 1.462-1.174 3.78-2.497 6.948-3.97V69.14a23.775 23.775 0 0 1-2.768 2.103c-.904.58-1.815.87-2.73.87-.969 0-1.817-.382-2.546-1.146zm116.737 8.656H470.2V36.277h-13.393zM293.843 91.755v59.004h13.393v-3.958a26.003 26.003 0 0 0 2.506 2.193c.805.612 1.932 1.18 3.382 1.703 1.447.524 3.164.788 5.146.788 2.749 0 5.45-.78 8.1-2.338 2.65-1.56 4.828-3.994 6.539-7.296 1.708-3.303 2.564-7.463 2.564-12.482 0-2.944-.36-5.756-1.08-8.432-.72-2.676-1.816-5.089-3.29-7.24-1.471-2.152-3.374-3.858-5.702-5.117-2.327-1.26-5.015-1.892-8.06-1.892-2.28 0-4.285.333-6.018.997-1.734.665-3.096 1.436-4.087 2.313V91.755zm13.395 45.178v-16.531c2.512-1.84 4.776-2.763 6.788-2.763 2.012 0 3.752.973 5.22 2.913 1.466 1.94 2.2 4.766 2.2 8.476 0 4.223-.82 7.103-2.46 8.648-1.642 1.544-3.295 2.316-4.96 2.316-2.637 0-4.898-1.019-6.788-3.059zm-77.26-45.175-11.186 32.671-12.04-32.671h-11.111l-12.264 32.671-10.704-32.671h-16.09l21.851 59.728h9.07l13.711-34.75 13.38 34.75h8.993l22.295-59.728zm25.681 17.8c-3.275 1.912-5.725 4.548-7.35 7.905-1.626 3.357-2.438 7.161-2.438 11.411 0 4.308.812 8.16 2.438 11.56 1.625 3.4 4.075 6.093 7.35 8.074 3.276 1.984 7.245 2.977 11.91 2.977 4.314 0 7.869-.476 10.66-1.43 2.792-.952 5.167-2.01 7.128-3.18v-9.45c-5.46 2.86-10.448 4.288-14.964 4.288-2.58 0-4.887-.826-6.922-2.481-2.035-1.652-3.313-3.783-3.832-6.388h26.686v-3.068c0-5.453-.925-9.905-2.774-13.355-1.849-3.449-4.204-5.933-7.07-7.452-2.866-1.52-5.837-2.28-8.912-2.28-4.665 0-8.634.958-11.91 2.87zm5.673 9.073c1.377-1.685 3.182-2.53 5.415-2.53 2.259 0 3.99.83 5.193 2.488 1.203 1.659 1.805 3.874 1.805 6.652h-14.48c0-2.72.69-4.923 2.067-6.61z"/>
  <path fill="#86ba0c" d="M75.215 17.402c-5.014-2.26-6.215-2.907-6.422-3.078L3.173 41.235l65.713 32.031s5.076-2.128 13.248-6.101C122.25 47.684 130.945 0 130.945 0s-9.976 38.017-55.73 17.402zm-6.422-3.078.093-.038s-.063-.018-.101-.018c-.032 0-.046.012.008.056z"/>
  <path fill="#ef7c00" d="M61.229 86.65 0 55.524v68.371l61.229 33.152z"/>
  <path fill="#bd1789" d="M136.234 123.895v-68.37L75.004 86.65v70.396z"/>
</svg>
