<svg xmlns="http://www.w3.org/2000/svg" viewBox="0 0 255.429 387.284">
  <defs>
    <linearGradient id="a" x1="17.882" x2="2.239" y1="146.673" y2="195.847" gradientTransform="scale(.86285 1.15895)" gradientUnits="userSpaceOnUse">
      <stop offset="0%" stop-color="#AACE36"/>
      <stop offset="100%" stop-color="#2FA042"/>
    </linearGradient>
    <linearGradient id="b" x1="78.897" x2="322.449" y1="137.062" y2="173.875" gradientTransform="scale(.79216 1.26238)" gradientUnits="userSpaceOnUse">
      <stop offset="0%" stop-color="#79A933"/>
      <stop offset="13%" stop-color="#70A333"/>
      <stop offset="34%" stop-color="#559332"/>
      <stop offset="58%" stop-color="#277B2F"/>
      <stop offset="86%" stop-color="#005F27"/>
      <stop offset="100%" stop-color="#005020"/>
    </linearGradient>
    <linearGradient id="c" x1="81.353" x2="170.698" y1="109.528" y2="285.754" gradientTransform="scale(1.08407 .92245)" gradientUnits="userSpaceOnUse">
      <stop offset="0%" stop-color="#79AB35"/>
      <stop offset="53%" stop-color="#7CBA3D"/>
      <stop offset="100%" stop-color="#00AA4B"/>
    </linearGradient>
  </defs>
  <path fill="#7cba3d" d="m252.876 231.535-.001.001c-7.182-35.905-29.094-66.492-59.188-85.166-.002 0-.01-.006-.012-.007l-.033-.02a.293.293 0 0 0-.03-.019l-.019-.012a130.479 130.479 0 0 0-8.557-4.862l-80.63-40.416-.002.002.001-.002h.001l-4.334-2.174a44.717 44.717 0 0 1-.756-.374h-.001a1.056 1.056 0 0 0-.052-.026h-.001c-.017-.01-.034-.017-.05-.026a.01.01 0 0 0-.005-.002l-.047-.024-.007-.004-.044-.022a.048.048 0 0 0-.011-.006l-.04-.02a.19.19 0 0 0-.015-.007c-.01-.006-.02-.012-.032-.017a.375.375 0 0 1-.02-.011l-.023-.011a.772.772 0 0 1-.037-.02 55.659 55.659 0 0 1-20.755-18.462c-5.925-8.82-9.38-19.436-9.38-30.86C68.795 27.74 80.736 9.303 98.267 0L72.243 13.297C29.41 34.673 0 78.919 0 130.037l1.932 22.428h.001l-.001-.005c.033.009.067.022.1.033l-.099-.029c7.018 40.493 32.704 74.583 67.886 93.068l.004.002.045.024.01.005c.014.007.03.018.043.024a.54.54 0 0 0 .064.034l.134.07.017.009.034.018c.008.005.016.008.024.014.01.005.021.01.032.017l.025.013.03.015.033.018.022.012a.778.778 0 0 1 .057.03l8.085 4.053c-.01-.023-.017-.047-.027-.07l.03.07h-.003l.001.002 9.62 4.82 67.257 33.713c18.507 8.973 31.278 27.936 31.278 49.886v.127l-.001.055v.199l-.001.05v.078l-.001.03v.097l-.001.026v.07l-.001.03v.02l-.001.113v.01c-.228 14.296-5.874 27.277-14.973 36.98a55.55 55.55 0 0 1-14.495 11.087l16.713-8.536 9.314-4.754c42.829-21.382 72.243-65.63 72.243-116.751l-2.553-25.708"/>
  <path fill="#c5d83e" d="M0 130.036C0 78.92 29.41 34.673 72.243 13.296L98.268 0c-17.53 9.304-29.473 27.74-29.473 48.967 0 11.425 3.456 22.041 9.381 30.861-8.818 22.07-13.95 44.715-15.678 67.25a81.82 81.82 0 0 1-36.981 8.799c-1.273 0-2.55-.03-3.834-.09a82.52 82.52 0 0 1-19.751-3.322zm186.635 208.332v-.056zm0 .062v-.048zm-.001.064v-.055.055zm0 .058v-.044zm0 .065v-.053zm0 .057v-.04zm-.001.069v-.05.05zm0 .052v-.031zm-.001.058v-.031.03zm0 .067v-.027zm-.001.055v-.026.026zm0 .07v-.026zm-.001.05v-.02zm-.001.122v-.01z"/>
  <path fill="url(#a)" d="m78.48 249.892-8.087-4.055a.865.865 0 0 0-.057-.03l-.023-.011-.033-.018-.03-.016-.024-.013a.407.407 0 0 0-.032-.016l-.024-.014-.034-.018-.017-.008c-.045-.025-.088-.046-.134-.071a.427.427 0 0 1-.051-.027l-.013-.008-.042-.023-.011-.005-.045-.024-.004-.002C34.636 227.046 8.95 192.955 1.932 152.46a82.52 82.52 0 0 0 19.751 3.323c1.285.06 2.561.089 3.834.089a81.817 81.817 0 0 0 36.981-8.799c-2.717 35.448 2.981 70.617 15.983 102.819" style="fill:url(#a)"/>
  <path fill="url(#b)" d="m104.407 101.033-4.335-2.173a44.717 44.717 0 0 1-.756-.373h-.001a1.056 1.056 0 0 0-.052-.027h-.001c-.017-.01-.034-.017-.05-.026a.01.01 0 0 0-.005-.002l-.047-.024-.007-.004-.044-.022a.048.048 0 0 0-.01-.006l-.04-.02a.19.19 0 0 0-.015-.007l-.032-.017a.375.375 0 0 1-.022-.011l-.022-.011a.772.772 0 0 1-.037-.019 55.659 55.659 0 0 1-20.755-18.463c-8.818 22.07-13.95 44.715-15.678 67.25a82.677 82.677 0 0 0 35.337-34.31zm148.469 130.502c-30.683 20.296-67.377 32.06-106.577 32.06-2.985 0-5.985-.068-8.996-.207a194.035 194.035 0 0 1-49.203-8.675l67.256 33.712c18.507 8.974 31.277 27.936 31.277 49.887v.381c-.002.016-.002.033-.002.05V338.948l-.002.026V339.094l-.002.113v.01c-.227 14.296-5.873 27.277-14.972 36.98a55.55 55.55 0 0 1-14.495 11.087l16.713-8.536 9.314-4.754c42.829-21.382 72.243-65.63 72.243-116.751l-2.553-25.708z" style="fill:url(#b)"/>
  <path fill="url(#c)" d="M146.3 263.595c-2.986 0-5.986-.068-8.997-.207a194.035 194.035 0 0 1-49.203-8.675l-9.62-4.82c-13.002-32.202-18.7-67.37-15.983-102.814a82.677 82.677 0 0 0 35.336-34.31l6.572-11.734 80.63 40.416a130.479 130.479 0 0 1 8.558 4.861l.019.012.03.02c.01.005.023.012.033.02l.012.006c30.094 18.674 52.006 49.261 59.188 85.167-30.681 20.294-67.374 32.058-106.576 32.058" style="fill:url(#c)"/>
</svg>
