<svg xmlns="http://www.w3.org/2000/svg" viewBox="0 0 512 114.725">
  <path d="M440.627 25.477c3.587 0 7.112.736 10.607 2.238 3.496 1.503 6.439 3.526 8.892 6.102l-7.297 8.83c-1.564-2.086-3.403-3.65-5.58-4.814-2.146-1.165-4.292-1.748-6.408-1.748-2.422 0-4.66.613-6.653 1.84-1.993 1.226-3.556 2.882-4.721 5.028-1.135 2.146-1.717 4.507-1.717 7.143 0 2.606.582 4.998 1.717 7.144 1.134 2.146 2.728 3.801 4.721 5.028 1.993 1.226 4.2 1.84 6.653 1.84 1.962 0 4.047-.491 6.193-1.503a20.084 20.084 0 0 0 5.795-4.139l7.358 7.91c-2.606 2.76-5.733 4.936-9.32 6.592-3.618 1.625-7.175 2.452-10.7 2.452-4.783 0-9.106-1.103-12.938-3.31-3.863-2.208-6.898-5.213-9.106-9.014-2.207-3.802-3.311-8.094-3.311-12.816 0-4.69 1.134-8.921 3.372-12.662 2.239-3.77 5.335-6.714 9.26-8.89 3.924-2.147 8.308-3.25 13.183-3.25zm-54.266-.092c4.905 0 9.35 1.073 13.336 3.25 3.986 2.146 7.082 5.12 9.382 8.891 2.269 3.771 3.403 8.002 3.403 12.662 0 4.722-1.134 9.014-3.403 12.816-2.269 3.801-5.396 6.806-9.382 9.013-3.985 2.208-8.43 3.311-13.336 3.311-4.906 0-9.351-1.103-13.337-3.28-3.985-2.177-7.082-5.181-9.381-9.014-2.27-3.832-3.403-8.124-3.403-12.846 0-4.69 1.134-8.921 3.403-12.662 2.268-3.77 5.396-6.714 9.381-8.89 3.986-2.147 8.4-3.25 13.337-3.25zm-237.942-.306c3.495 0 6.929.49 10.332 1.471 3.403.981 6.377 2.3 8.952 3.955l-4.752 10.056c-2.637-1.41-5.365-2.636-8.278-3.617-2.913-.95-5.365-1.441-7.327-1.441-1.564 0-2.79.276-3.68.858-.889.583-1.348 1.41-1.348 2.514 0 1.043.398 1.932 1.165 2.668.766.705 1.747 1.287 2.882 1.716 1.134.43 2.85 1.012 5.089 1.687 3.342.95 6.132 1.931 8.308 2.882 2.177.95 4.047 2.452 5.61 4.445 1.565 1.993 2.331 4.599 2.331 7.818 0 3.22-.858 5.948-2.545 8.217-1.686 2.268-4.016 3.985-6.99 5.12-2.974 1.134-6.254 1.716-9.872 1.716-3.986 0-7.971-.705-11.957-2.115-3.985-1.41-7.42-3.311-10.301-5.764l4.905-9.841c2.422 2.146 5.304 3.924 8.646 5.304 3.342 1.38 6.285 2.054 8.86 2.054 1.87 0 3.373-.337 4.446-1.043 1.073-.674 1.625-1.686 1.625-3.035 0-1.104-.399-2.023-1.196-2.76-.797-.735-1.809-1.317-3.035-1.747-1.226-.429-2.913-.95-5.12-1.563-3.311-.92-6.04-1.84-8.186-2.79a14.686 14.686 0 0 1-5.55-4.262c-1.532-1.9-2.299-4.445-2.299-7.603 0-2.974.798-5.61 2.392-7.849 1.594-2.238 3.832-3.985 6.745-5.212 2.912-1.226 6.315-1.84 10.148-1.84zm147.99 1.073c6.376 0 11.343 1.471 14.838 4.445 3.526 2.974 5.273 7.144 5.273 12.51 0 3.617-.736 6.775-2.207 9.411-1.472 2.637-3.618 4.691-6.408 6.163l10.056 15.789h-14.256v-.03l-7.02-13.368h-9.382V74.44h-12.601V26.152zm40.775 0v37.557h20.45v10.76h-33.05V26.153zm-150.442 0v19.713h19.499V26.152h12.6v48.287h-12.6V55.921h-19.499V74.44h-12.6V26.152zm79.56 0v10.056h-25.478v9.014h22.994v9.994l-22.994.062v9.105h26.182V74.44h-38.813V26.152zm211.881 0v20.94l18.12-20.94h14.593l-17.904 19.897L512 74.44h-15.084l-12.662-18.732-6.07 6.745v11.987h-12.601V26.152zm-91.638 9.903c-2.422 0-4.66.613-6.684 1.87-2.054 1.226-3.648 2.943-4.844 5.12-1.196 2.177-1.778 4.568-1.778 7.205 0 2.667.613 5.089 1.84 7.266 1.226 2.176 2.82 3.893 4.843 5.181 2.024 1.257 4.231 1.9 6.623 1.9 2.391 0 4.568-.643 6.591-1.9 1.993-1.257 3.557-2.974 4.722-5.181 1.134-2.177 1.717-4.6 1.717-7.266 0-2.606-.583-5.028-1.717-7.205-1.135-2.177-2.729-3.894-4.722-5.12a12.386 12.386 0 0 0-6.591-1.87zm-90.076.153h-9.166v14.808h9.166c2.576 0 4.569-.644 5.948-1.931 1.41-1.288 2.116-3.158 2.116-5.58 0-2.33-.705-4.14-2.116-5.396-1.41-1.257-3.372-1.901-5.948-1.901z"/>
  <path fill="#ffc700" d="M71.281 94.674c-.49 0-.95-.276-1.165-.736-.306-.644-.06-1.44.583-1.747 7.603-3.802 13.95-9.597 18.364-16.74 4.507-7.297 6.868-15.85 6.868-24.742 0-16.249-8.247-31.087-22.074-39.672-.613-.368-.797-1.196-.43-1.809.368-.613 1.196-.797 1.81-.429a49.847 49.847 0 0 1 16.892 17.567 49.249 49.249 0 0 1 6.408 24.313c0 9.381-2.514 18.395-7.266 26.121a47.614 47.614 0 0 1-19.407 17.69c-.184.153-.368.184-.583.184zM27.654 94.183a1.04 1.04 0 0 1-.582-.153C9.872 85.354 0 69.565 0 50.71 0 30.72 11.926 12.845 30.383 5.18a1.307 1.307 0 0 1 1.717.705 1.307 1.307 0 0 1-.706 1.717C13.92 14.87 2.637 31.793 2.637 50.71c0 17.813 9.35 32.775 25.63 41.022a1.32 1.32 0 0 1 .583 1.747c-.276.46-.736.705-1.196.705z"/>
  <path fill="#150007" d="M49.422 82.135c.857 1.015 1.266 2.477 1.398 3.766 1.878-.295 3.939-.957 5.837-2.295.552-.398 1.319-.245 1.717.307.399.552.245 1.318-.306 1.717-3.404 2.36-7.113 2.943-9.934 2.943-2.453 0-4.17-.43-4.323-.49-.644-.185-1.042-.828-.858-1.503.184-.644.828-1.042 1.502-.858.045.015 1.66.415 3.93.383-.091-.901-.365-1.849-.833-2.407-.644-.766-1.901-1.195-3.158-1.073-.705.061-1.993.368-2.698 1.625-.399.736-.368 2.575-.368 3.464v2.556l-.001 2.131V93.327c-.004 2.15-.011 3.471-.03 4.014-.03.92-.03 1.901 0 2.944.03 4.414.092 9.412-2.79 12.294-1.41 1.41-3.403 2.146-5.917 2.146-3.556 0-6.07-1.135-7.45-3.342-1.073-1.717-1.226-3.618-1.226-5.273v-8.033a1.23 1.23 0 0 1 1.226-1.226h10.026a1.23 1.23 0 0 1 1.226 1.226v6.5a1.23 1.23 0 0 1-1.226 1.226 1.23 1.23 0 0 1-1.227-1.226v-5.274h-7.573v6.807c0 3.219.767 6.193 6.224 6.193 1.87 0 3.22-.46 4.2-1.441 2.147-2.146 2.116-6.622 2.055-10.547 0-1.073-.031-2.085 0-3.066.017-.483.025-1.717.028-3.69v-.583l.001-.307V91.34l.001-3.596c-.03-1.717 0-3.495.675-4.69.92-1.626 2.575-2.668 4.598-2.852 2.085-.184 4.109.552 5.274 1.932zm29.953-21.37c.184.276 4.323 6.93 5.703 16.495a1.194 1.194 0 0 1-.705 1.288c-4.844 2.115-10.424 11.956-12.141 15.543-.184.46-.613.706-1.073.706-.184 0-.368-.031-.521-.123a1.232 1.232 0 0 1-.583-1.625c.245-.552 6.193-12.693 12.509-16.28a44.37 44.37 0 0 0-4.108-12.631L64.506 94a1.25 1.25 0 0 1-1.104.705h-19.13a1.23 1.23 0 0 1-1.227-1.227 1.23 1.23 0 0 1 1.226-1.226h18.334l14.624-31.364a1.235 1.235 0 0 1 1.043-.705c.46-.03.858.184 1.103.583zm-57.546-.183c.399.06.736.337.89.705l14.47 31.67c.276.613 0 1.35-.613 1.625a.97.97 0 0 1-.49.123c-.46 0-.92-.276-1.104-.705L21.308 64.015c-1.84 2.33-5.212 7.297-5.457 12.938 6.315 4.14 12.968 15.422 13.244 15.912a1.246 1.246 0 0 1-.43 1.686 1.246 1.246 0 0 1-1.685-.429l-.007-.011-.063-.108c-.744-1.262-7.302-12.054-12.899-15.302a1.237 1.237 0 0 1-.613-1.073c0-9.106 7.082-16.403 7.358-16.71.276-.275.674-.428 1.073-.336zM54.572 0c.695 0 1.277.43 1.498 1.041 1.675.201 4.579.707 7.042 1.901.407-.79 1.334-1.314 2.375-.857 5.396 2.391 11.252 7.082 15.207 14.072l.024.04.042.07c.679 1.135 6.284 10.852 5.39 20.677-.1 1.221-1.085 1.786-2.012 1.677.384.63.622 1.261.725 1.88.092.428.552 2.758-1.012 4.782-1.324 1.747-3.685 2.692-6.988 2.833 1.47 3.882 1.225 7.693 1.225 7.867-.031.613-.552 1.103-1.196 1.103H76.8c-.674-.06-1.196-.643-1.134-1.318 0-.013.01-.198.013-.515v-.23c-.009-1.289-.178-4.041-1.332-6.644a1.21 1.21 0 0 1-.08-.244h-2.372c-2.085 0-4.6.03-7.297.03-2.52 0-5.206-.01-7.89-.037-.565 1.783-.848 3.964-.848 6.66v14.317c.03 2.33 0 4.905-.674 6.315-.95 1.963-3.005 3.158-5.488 3.189-.03.061-.062.061-.123.061-2.514 0-4.875-1.226-5.856-3.066-.827-1.533-.797-3.28-.766-5.488 0-.674.03-1.349 0-2.115a1.25 1.25 0 0 1 1.196-1.257c.674-.03 1.226.521 1.257 1.196v2.176c-.031 1.87-.062 3.342.46 4.323.582 1.073 2.115 1.81 3.77 1.778.736 0 2.545-.214 3.342-1.839.49-1.012.46-4.047.43-5.212V54.818c0-2.63.26-4.837.766-6.721a438.485 438.485 0 0 1-3.25-.055c-7.235.153-15.513.123-21.001.092h-4.078c-3.219 0-5.672-.858-7.205-2.575-1.808-1.993-1.747-4.446-1.716-4.875 0-.839.238-1.656.709-2.445-1.036.812-2.809.367-2.947-1.295-.95-10.455 5.457-20.787 5.457-20.787 3.955-6.99 9.81-11.68 15.206-14.072.974-.428 1.849.003 2.292.71C40.786 1.35 44.542.992 45.552.909 45.802.374 46.352 0 47 0zm11.835 53.53c1.337 0 2.422 1.07 2.422 2.391s-1.085 2.392-2.422 2.392c-1.338 0-2.422-1.07-2.422-2.392 0-1.32 1.084-2.39 2.422-2.39zm-25.08.797a1.23 1.23 0 0 1 1.227 1.227 1.23 1.23 0 0 1-1.226 1.226H30.046a1.23 1.23 0 0 1-1.227-1.226 1.23 1.23 0 0 1 1.227-1.227zM20.42 38.231c-.89.859-1.319 1.687-1.319 2.484v.092s-.003.038-.004.107v.127c.006.546.134 1.938 1.17 3.046 1.134 1.227 3.004 1.84 5.58 1.84h4.077c2.27.025 5.02.045 7.974.05l2.25-.001c3.295-.005 6.751-.032 10.025-.095l.752-.016c3.992.085 8.301.114 12.28.117h1.474c2.67-.001 5.147-.013 7.217-.025h4.077c3.035 0 5.15-.674 6.163-1.992 1.011-1.319.613-2.944.613-2.944l-.03-.122c-.338-2.054-3.22-4.231-7.727-5.825-5.825-2.024-14.134-3.097-24.098-3.097h-.03c-11.528-.399-25.386 1.38-30.444 6.254zm36.003-32.39.09.08c.857.775 1.84 1.838 2.843 3.277 4.331 6.183 5.829 14.855 6.29 21.512 7.12.993 12.01 2.705 15.084 4.666-1.201-5.718-3.11-12.44-6.872-18.085-4.225-6.336-10.062-10.174-17.435-11.45zm-12.92.126-.255.045c-5.09.954-9.343 2.955-12.68 5.976-2.698 2.452-4.906 5.671-6.53 9.534-1.598 3.84-2.657 8.421-3.179 13.629 3.144-2.027 7.949-3.564 13.769-4.472.48-6.624 1.991-15.18 6.241-21.512.923-1.364 1.829-2.41 2.634-3.2zm7.146-.602c-1.988 0-3.884.124-5.683.37-2.897 2.443-8.405 9.091-9.562 24.826 4.664-.671 9.943-.948 15.521-.76 5.331 0 9.938.29 13.886.797-1.166-16.717-7.218-22.982-9.987-24.99a34.907 34.907 0 0 0-4.175-.243zm5.493-3.497a1.56 1.56 0 0 1-.654 1.008c2.771.355 5.36 1.027 7.758 2.014a1.717 1.717 0 0 1-.354-1.15c-2.293-1.138-5.071-1.652-6.75-1.872zM38.144 3.46l-.217.1c.05.334.012.682-.137 1.004 2.5-.88 5.231-1.468 8.194-1.764a1.546 1.546 0 0 1-.578-1.205l.01.127c-1.182.107-4.482.506-7.272 1.738z"/>
</svg>
