<svg xmlns="http://www.w3.org/2000/svg" viewBox="0 0 256.002 298.058">
  <path fill="#ffc700" d="M185.191 245.966a3.328 3.328 0 0 1-3.026-1.912c-.797-1.672-.16-3.743 1.513-4.54 19.754-9.877 36.242-24.931 47.712-43.49 11.708-18.957 17.842-41.18 17.842-64.28 0-42.215-21.427-80.767-57.35-103.07-1.593-.955-2.07-3.106-1.115-4.699.956-1.593 3.106-2.07 4.7-1.115 18.16 11.31 33.294 27.082 43.888 45.64 10.912 19.197 16.647 41.022 16.647 63.165 0 24.374-6.531 47.791-18.877 67.864-12.108 19.674-29.551 35.604-50.42 45.959-.478.398-.956.478-1.514.478zM71.846 244.691c-.478 0-1.035-.08-1.513-.398C25.648 221.752 0 180.731 0 131.745 0 79.81 30.985 33.375 78.935 13.46c1.753-.717 3.744.08 4.46 1.832.718 1.753-.079 3.744-1.831 4.46C36.162 38.632 6.85 82.6 6.85 131.746c0 46.278 24.294 85.148 66.59 106.574a3.43 3.43 0 0 1 1.513 4.54c-.717 1.195-1.912 1.832-3.107 1.832z"/>
  <path fill="#150007" d="M128.4 213.388c2.226 2.637 3.288 6.437 3.631 9.784 4.88-.766 10.235-2.486 15.166-5.96 1.434-1.036 3.425-.638 4.46.796 1.036 1.434.638 3.425-.796 4.46-8.841 6.134-18.48 7.647-25.807 7.647-6.372 0-10.833-1.115-11.231-1.274-1.673-.478-2.708-2.15-2.23-3.903.478-1.673 2.15-2.708 3.903-2.23.116.038 4.313 1.078 10.207.994-.233-2.339-.945-4.802-2.162-6.252-1.673-1.99-4.939-3.106-8.205-2.787-1.832.159-5.177.955-7.009 4.221-1.036 1.912-.956 6.691-.956 9v10.076l-.001.483-.001 1.403c-.005 7.144-.022 11.43-.077 13.05-.08 2.39-.08 4.938 0 7.646.08 11.47.238 24.453-7.249 31.94-3.664 3.665-8.841 5.576-15.373 5.576-9.24 0-15.77-2.947-19.355-8.682-2.788-4.46-3.186-9.399-3.186-13.7v-20.869a3.195 3.195 0 0 1 3.186-3.186H91.36a3.195 3.195 0 0 1 3.186 3.186v16.887a3.195 3.195 0 0 1-3.186 3.186 3.195 3.195 0 0 1-3.186-3.186v-13.7H68.501v17.682c0 8.364 1.991 16.09 16.17 16.09 4.858 0 8.363-1.195 10.912-3.744 5.575-5.575 5.496-17.205 5.336-27.4 0-2.788-.08-5.416 0-7.965.053-1.434.071-5.417.077-11.9v-.9l.001-.462v-1.431l.001-.492.001-9.507c-.08-4.461 0-9.08 1.752-12.187 2.39-4.222 6.691-6.93 11.948-7.408 5.416-.478 10.674 1.434 13.7 5.018zm77.82-55.517c.477.716 11.23 18.001 14.815 42.852.239 1.434-.558 2.788-1.832 3.346-12.585 5.496-27.082 31.064-31.542 40.384-.478 1.194-1.594 1.832-2.788 1.832-.478 0-.956-.08-1.354-.32-1.593-.796-2.23-2.628-1.514-4.22.637-1.434 16.09-32.977 32.498-42.296-2.39-14.656-7.407-26.365-10.673-32.817l-36.242 77.582c-.557 1.115-1.673 1.832-2.867 1.832h-49.703a3.195 3.195 0 0 1-3.186-3.187 3.195 3.195 0 0 1 3.186-3.186h47.632l37.994-81.484c.478-1.035 1.513-1.752 2.708-1.832 1.195-.08 2.23.478 2.867 1.514zm-149.508-.478c1.036.159 1.912.876 2.31 1.832l37.596 82.28c.717 1.593 0 3.505-1.593 4.222-.398.239-.876.319-1.274.319-1.195 0-2.39-.717-2.868-1.832l-35.525-77.9c-4.779 6.053-13.54 18.957-14.178 33.613 16.409 10.753 33.693 40.065 34.41 41.34.876 1.513.398 3.424-1.115 4.38-1.514.876-3.425.399-4.381-1.115-.16-.318-18.32-31.144-33.693-40.065a3.213 3.213 0 0 1-1.593-2.788c0-23.656 18.4-42.614 19.117-43.41.716-.717 1.752-1.115 2.787-.876zM141.781 0a4.11 4.11 0 0 1 3.892 2.705c4.351.522 11.892 1.835 18.291 4.939 1.064-2.056 3.471-3.415 6.173-2.228 14.019 6.213 29.232 18.4 39.508 36.56l.02.033c.058.095.246.404.536.907l.324.566c3.406 6.017 15.421 29.14 13.298 52.499-.265 3.174-2.823 4.64-5.23 4.358.998 1.638 1.615 3.276 1.884 4.882.24 1.115 1.434 7.168-2.628 12.425-3.442 4.54-9.576 6.993-18.155 7.36 3.82 10.088 3.18 19.988 3.18 20.439-.08 1.593-1.434 2.867-3.106 2.867h-.24c-1.752-.159-3.106-1.672-2.946-3.425 0-.035.03-.544.035-1.414v-.494c-.021-3.333-.453-10.507-3.46-17.288a3.142 3.142 0 0 1-.21-.637h-6.163c-5.416 0-11.947.08-18.957.08-6.55 0-13.526-.027-20.497-.096-1.47 4.634-2.204 10.3-2.204 17.3v37.198c.08 6.054 0 12.744-1.752 16.408-2.47 5.098-7.806 8.205-14.258 8.284-.08.16-.16.16-.318.16-6.532 0-12.665-3.187-15.214-7.966-2.15-3.982-2.07-8.522-1.991-14.257 0-1.753.08-3.505 0-5.496a3.25 3.25 0 0 1 3.106-3.266c1.753-.08 3.186 1.354 3.266 3.106v5.656c-.08 4.858-.16 8.682 1.195 11.23 1.513 2.788 5.496 4.7 9.797 4.62 1.912 0 6.611-.557 8.682-4.779 1.274-2.628 1.195-10.514 1.115-13.54v-37.278c0-6.83.678-12.566 1.991-17.46a1185.32 1185.32 0 0 1-8.443-.143c-5.57.118-11.377.194-17.163.24l-2.169.017c-4.332.03-8.635.043-12.798.046H96.06c-6.764-.005-13.039-.035-18.32-.064H67.148c-8.364 0-14.736-2.23-18.718-6.69-4.7-5.178-4.54-11.55-4.461-12.666 0-2.177.619-4.298 1.84-6.346-2.695 2.103-7.295.945-7.655-3.371-2.123-23.359 9.892-46.482 13.298-52.499l.324-.566c.29-.503.478-.812.537-.907l.02-.032C62.606 23.816 77.82 11.629 91.838 5.417c2.53-1.112 4.802.008 5.954 1.843 8.17-3.749 17.925-4.683 20.551-4.897A4.133 4.133 0 0 1 122.107 0zm30.746 139.073c3.475 0 6.292 2.781 6.292 6.213 0 3.43-2.817 6.212-6.292 6.212-3.476 0-6.293-2.781-6.293-6.212 0-3.432 2.817-6.213 6.293-6.213zm-65.156 2.07a3.195 3.195 0 0 1 3.186 3.187 3.195 3.195 0 0 1-3.186 3.186H78.06a3.195 3.195 0 0 1-3.186-3.186 3.195 3.195 0 0 1 3.186-3.186zM53.048 99.327c-2.31 2.23-3.425 4.381-3.425 6.452v.239s-.011.14-.013.39v.184c.013 1.391.326 5.045 3.04 7.949 2.947 3.186 7.806 4.779 14.497 4.779H77.74c6.336.07 14.105.126 22.431.13h2.093c9.464-.005 19.543-.077 28.99-.268l1.047-.021c10.595.224 22.051.297 32.57.303h3.026c6.991-.004 13.473-.034 18.886-.064h10.594c7.886 0 13.382-1.753 16.01-5.178 2.629-3.425 1.593-7.646 1.593-7.646l-.08-.319c-.876-5.337-8.363-10.992-20.072-15.134-15.134-5.257-36.72-8.045-62.606-8.045h-.08c-29.95-1.035-65.952 3.585-79.095 16.25zm93.537-84.151.206.183c2.232 2.013 4.798 4.783 7.416 8.538 11.251 16.063 15.142 38.593 16.339 55.89 18.5 2.579 31.205 7.027 39.19 12.121-3.121-14.856-8.077-32.318-17.854-46.983-10.975-16.463-26.142-26.434-45.297-29.75zm-33.563.324-.092.016c-13.478 2.433-24.722 7.67-33.517 15.629-7.01 6.372-12.744 14.736-16.966 24.772-4.15 9.974-6.902 21.878-8.257 35.408 8.17-5.267 20.651-9.26 35.772-11.62 1.247-17.212 5.173-39.436 16.214-55.888 2.398-3.545 4.754-6.262 6.846-8.317zm18.563-1.56c-5.165 0-10.089.321-14.762.96-7.524 6.342-21.84 23.615-24.845 64.5 12.117-1.744 25.833-2.463 40.324-1.977 13.85 0 25.819.756 36.077 2.073-3.032-43.44-18.759-59.714-25.951-64.929a91.233 91.233 0 0 0-10.843-.627zm14.273-9.085-.014.079a4.058 4.058 0 0 1-1.684 2.538c7.199.923 13.921 2.67 20.152 5.233a4.46 4.46 0 0 1-.92-2.988c-5.957-2.955-13.173-4.29-17.534-4.862zm-27.88-.382-.14.013c-3.284.307-12.063 1.41-19.304 4.758a4.545 4.545 0 0 1-.354 2.611c6.493-2.284 13.59-3.812 21.286-4.58a4.028 4.028 0 0 1-1.488-2.802z"/>
</svg>
