<svg xmlns="http://www.w3.org/2000/svg" viewBox="0 0 512.005 117.509">
  <path d="M0 69.013h17.906c.187 3.544 1.492 6.156 3.917 7.834 2.611 1.68 6.155 2.612 10.445 2.612 3.171 0 5.783-.56 8.207-1.866 2.052-1.305 3.171-2.797 3.171-5.036 0-3.17-3.73-5.595-11.005-7.088-3.17-.56-5.595-1.119-7.087-1.492C16.227 61.74 10.072 58.941 6.9 55.77 3.357 52.6 1.68 48.496 1.68 43.087c0-6.715 2.611-12.124 7.647-16.6 5.223-4.104 12.124-5.97 20.518-5.97 9.14 0 16.414 2.052 21.823 5.97 5.036 4.29 7.834 10.071 8.207 16.973H48.682c-3.357 0-5.782-1.492-7.647-4.477-.746-.746-1.492-1.305-2.052-2.051-2.051-1.493-5.036-2.425-8.58-2.425-3.544 0-6.155.56-7.834 1.492-1.492 1.119-2.425 2.611-2.425 4.663 0 2.798 4.477 5.223 13.617 7.088 1.119.373 2.051.56 2.797.746.747.186 1.493.186 2.239.186 8.953 2.239 15.108 4.85 18.652 7.834 3.357 3.171 5.036 7.275 5.036 12.684 0 7.647-2.798 13.616-8.393 17.906-5.223 3.917-13.057 5.782-23.689 5.782-9.885 0-17.346-2.051-22.383-5.968C2.984 82.816.373 77.034.373 69.386v-.373zm109.116-27.045c-2.612-3.73-6.155-5.596-10.819-5.596-4.85 0-8.58 1.679-11.19 5.223-2.612 3.544-3.918 8.393-3.918 14.362v36.185H65.283V1.865h8.953c2.425 0 4.477.933 6.342 2.612 1.679 1.678 2.611 3.917 2.611 6.341v20.704c3.171-5.222 7.648-8.58 13.43-9.885 5.782-1.306 11.191-1.12 16.6 1.119 4.85 2.052 8.953 5.409 12.31 9.885 3.358 4.477 5.037 10.819 5.037 18.84v40.661h-17.533V55.957c0-2.611-.187-5.036-.746-7.275-.56-2.051-1.679-4.29-3.171-6.714zm25.18-19.585h9.513c2.425 0 4.477.932 6.342 2.611 1.679 1.679 2.611 3.917 2.611 6.342v60.806h-18.28v-69.76zm40.29 86.173c0 2.425-.933 4.477-2.612 6.342-1.679 1.679-3.917 2.611-6.342 2.611h-8.953V52.226c0-12.31 3.544-20.517 10.818-24.994 7.088-4.476 14.922-6.714 23.316-6.714 4.29 0 8.766.746 13.243 2.424 4.476 1.679 8.02 4.104 10.632 7.275 5.222 6.901 7.834 15.481 7.834 26.3 0 11.004-2.612 19.957-7.834 26.672-5.223 6.715-11.938 9.886-20.145 9.886-4.29 0-8.207-.746-11.564-2.425-3.544-1.679-6.342-4.476-8.394-8.207zm30.03-51.48c0-6.901-1.306-12.124-3.918-15.668-2.61-3.73-6.341-5.596-11.19-5.596-4.664 0-8.394 1.866-11.006 5.596-2.425 3.357-3.73 8.58-3.73 15.668 0 6.715 1.305 11.564 3.917 14.922 2.611 3.73 6.342 5.595 11.191 5.595 4.477 0 8.207-1.865 10.819-5.595 2.61-3.544 3.916-8.58 3.916-14.922zm38.983 51.48c0 2.425-.933 4.477-2.612 6.342-1.678 1.679-3.917 2.611-6.341 2.611h-8.953V52.226c0-12.31 3.543-20.517 10.818-24.994 7.088-4.476 14.922-6.714 23.315-6.714 4.29 0 8.767.746 13.243 2.424 4.477 1.679 8.02 4.104 10.632 7.275 5.223 6.901 7.834 15.481 7.834 26.3 0 11.004-2.611 19.957-7.834 26.672-5.223 6.715-11.937 9.886-20.144 9.886-4.29 0-8.207-.746-11.565-2.425-3.544-1.679-6.342-4.476-8.393-8.207zm29.843-51.48c0-6.901-1.305-12.124-3.917-15.668-2.61-3.73-6.341-5.596-11.191-5.596-4.663 0-8.393 1.866-11.005 5.596-2.425 3.357-3.73 8.58-3.73 15.668 0 6.715 1.305 11.564 3.917 14.922 2.611 3.73 6.341 5.595 11.191 5.595 4.477 0 8.207-1.865 10.818-5.595 2.612-3.544 3.917-8.58 3.917-14.922zm65.656 31.709c-3.73 1.865-7.647 3.17-11.75 3.544-4.104.373-7.648.746-10.819.746-6.342 0-11.75-1.679-16.6-5.036-4.663-3.358-7.088-9.14-7.088-16.974 0-7.274 2.052-12.683 6.342-15.668 4.29-3.17 9.699-5.222 16.414-6.342.932 0 1.865-.186 3.17-.373 1.306-.186 2.612-.56 4.29-.746 7.648-1.119 11.565-3.357 11.565-6.901 0-2.611-1.306-4.29-4.104-5.036-2.797-.746-5.222-1.12-7.46-1.12-2.425 0-4.664.374-6.529 1.12-1.865.746-3.357 2.052-4.29 3.917h-17.533c.746-5.41 3.17-9.886 7.274-13.43 4.663-4.103 11.378-5.968 20.145-5.968 9.699 0 17.16 1.678 22.01 5.036 5.036 3.544 7.647 8.393 7.647 14.735v23.875c0 7.088-1.306 12.497-3.73 16.414-2.425 3.544-5.41 6.342-8.954 8.207zm-4.103-32.269c-2.425 1.306-5.782 2.425-10.259 3.358l-5.969 1.305c-3.17.933-5.409 2.052-6.9 3.358-1.307 1.865-1.866 3.917-1.866 5.782 0 2.611.746 4.663 2.425 6.342 1.492 1.492 3.917 2.052 6.901 2.052 4.85 0 8.767-1.306 11.564-4.29 2.798-2.798 4.29-6.715 4.29-11.565v-6.342zm39.17-47.563V30.03c1.865-3.357 4.663-5.969 8.393-8.207 3.171-1.679 6.902-2.611 11.565-2.611 8.207 0 14.921 3.357 20.144 10.259 5.223 6.9 7.834 15.668 7.834 26.486 0 10.818-2.611 19.585-7.834 26.486-2.611 3.357-6.155 5.782-10.632 7.274-4.476 1.493-8.953 2.239-13.243 2.239-8.393 0-16.227-2.239-23.315-6.529-7.088-4.29-10.819-12.683-10.819-25.18V0h8.954c2.424 0 4.476.933 6.341 2.611 1.68 1.679 2.612 3.917 2.612 6.342zm29.843 46.071c0-6.342-1.305-11.191-3.917-14.735-2.611-3.73-6.155-5.596-10.818-5.596-4.85 0-8.58 1.679-11.191 5.223-2.612 3.73-3.917 8.58-3.917 14.922 0 7.274 1.305 12.683 3.73 16.04 2.611 3.731 6.342 5.596 11.005 5.596 4.85 0 8.58-1.865 11.191-5.595 2.612-3.544 3.917-8.767 3.917-15.855zm21.264-53.159h9.513c2.424 0 4.476.746 6.341 2.425 1.68 1.679 2.612 3.73 2.612 6.155v81.697h-18.28V1.865zm72.557 68.64h13.057c-1.865 7.275-5.596 12.87-11.005 16.788-5.41 4.103-12.31 5.968-20.517 5.968-9.886 0-17.72-3.17-23.316-9.699-5.596-6.342-8.393-15.295-8.393-27.046 0-11.191 2.797-19.958 8.207-26.3 5.595-6.528 13.43-9.698 23.315-9.698 10.445 0 18.652 3.17 24.434 9.512 5.596 6.528 8.394 15.482 8.394 27.046V60.061c0 .932 0 1.492-.187 1.865h-45.325c.187 5.409 1.493 9.512 3.917 12.124 2.239 2.797 5.596 4.29 10.26 4.29 2.984 0 5.595-.56 7.647-1.866.56-.186.932-.56 1.492-.932l1.492-1.492c.186-.56.746-1.306 2.052-2.052.746-1.12 2.425-1.492 4.476-1.492zm-31.522-20.517h26.673c-.373-4.663-1.493-8.207-3.73-10.445-2.24-2.425-5.596-3.73-9.7-3.73-3.917 0-7.088 1.305-9.513 3.73-2.238 2.425-3.544 5.969-3.73 10.445z"/>
  <path fill="#238189" d="M134.296 1.865h9.513c2.425 0 4.477.933 6.342 2.612 1.679 1.678 2.611 3.917 2.611 6.341v5.596h-18.28V1.865z"/>
</svg>
