<svg xmlns="http://www.w3.org/2000/svg" viewBox="0 0 511.485 134.859">
  <g fill-rule="evenodd">
    <path fill="#464462" d="M270.985 133.342h-17.094V60.117h16.948v30.454h29.515V60.154h16.996v73.087h-16.788v-30.676h-29.577l.001 30.777zm91.467-73.28c.58-.034 1.086-.093 1.59-.093 8.697-.006 17.393-.025 26.09.009 4.156.016 8.22.7 12.138 2.107 10.069 3.62 15.606 11.684 15.238 22.373-.085 2.474-.367 5-.995 7.386-2.44 9.258-9.061 14.156-17.97 16.117-3.905.86-8.007.87-12.03 1.132-2.297.148-4.612.027-7.165.027v24.516h-16.895c.002-24.518.002-49.009.002-73.574zm-117.996 7.172c-1.574 2.92-2.927 5.695-4.527 8.32-1.43 2.348-3.32 2.605-6.06 1.377-2.963-1.327-5.903-2.865-9.02-3.638-2.145-.533-4.642-.228-6.862.253-2.805.607-4.58 2.55-5.04 5.546-.466 3.044.69 5.306 3.367 6.604 2.54 1.23 5.226 2.165 7.865 3.188 3.6 1.396 7.334 2.506 10.799 4.178 7.575 3.657 11.072 10.672 10.38 19.079-1.106 13.439-11.192 21.81-24.34 22.283-9.09.33-17.331-2.201-24.7-7.535-.755-.547-1.426-1.207-2.293-1.95 1.805-2.874 3.447-5.685 5.291-8.357 1.322-1.914 3.525-2.322 5.774-1.205 1.612.803 3.112 1.83 4.678 2.729 4.25 2.438 8.729 3.593 13.622 2.405 3.305-.803 5.243-2.79 5.749-5.858.568-3.446-.076-6.48-3.431-8.137-2.524-1.247-5.245-2.101-7.892-3.091-3.696-1.383-7.56-2.417-11.073-4.16-6.127-3.038-9.092-8.346-9.745-15.102-1.368-14.164 8.992-23.44 21.573-24.598 7.903-.726 15.447.68 22.26 5.012 1.215.772 2.33 1.7 3.626 2.658zm267.028-7.124v13.197h-20.226v59.937H474.1V73.5h-20.44V60.11zm-163.246 73.204h-16.97V60.09h16.97zm96.193.002-16.97-73.224v-.002h16.97zm-64.974-60.602c4.328.215 8.486.119 12.545.701 5.116.734 7.958 4.128 8.363 9.328.132 1.698.085 3.47-.248 5.134-1.005 5.036-4.404 7.812-10.166 8.18-3.426.22-6.878.04-10.493.04V72.714z"/>
    <path fill="#464563" d="M.034 82.825c10.838 11.896 24.748 17.604 39.522 21.543 16.362 4.364 33.048 5.577 49.933 4.377 27.874-1.981 53.542-10.404 76.743-26.106.273-.184.569-.334 1.122-.656.067.822.176 1.445.16 2.065-.32 12.363-3.552 23.757-11.236 33.666-4.553 5.87-10.201 10.468-16.59 14.179-.853.495-1.922.794-2.911.856-9.026.571-18.05 1.304-27.087 1.539-14.898.384-29.806.618-44.708.563-13.093-.05-26.173-.775-39.174-2.469-1.11-.144-2.33-.624-3.19-1.326-11.985-9.79-18.948-22.496-21.59-37.65-.428-2.457-.7-4.943-.977-7.423-.104-.931-.017-1.886-.017-3.16z"/>
    <path fill="#e88826" d="M138.398 91.657c-17.655 7.576-45.331 13.321-57.039 11.998.332-4.604.686-9.212.99-13.824.452-6.87 1.14-13.737 1.243-20.614.206-13.77.345-27.55.003-41.314-.22-8.837-1.151-17.682-3.928-26.193-.098-.3-.062-.643-.149-1.71 1.486 1.138 2.695 1.772 3.508 2.738 2.659 3.156 5.348 6.31 7.714 9.683 11.527 16.427 21.61 33.756 31.717 51.068 4.683 8.02 9.22 16.129 13.81 24.202.717 1.259 1.373 2.55 2.131 3.967zm-43.13-61.672-.51.172c0 .542-.114 1.112.02 1.62.59 2.224 1.188 4.452 1.9 6.642 3.04 9.354 6.256 18.654 9.147 28.055 2.03 6.599 3.702 13.312 5.402 20.008.619 2.442.854 4.98 1.3 7.692 5.788-.182 11.237-1.462 16.602-3.208 1.336-.436 1.364-1.403.927-2.48-.548-1.348-1.066-2.72-1.756-3.997-3.835-7.084-7.511-14.265-11.635-21.179-5.96-9.993-12.236-19.798-18.432-29.65-.831-1.325-1.97-2.455-2.965-3.675zM25.163 92.263c7.15-12.011 13.964-23.876 21.195-35.48 6.189-9.93 12.768-19.624 19.368-29.291 1.924-2.82 4.374-5.327 6.832-7.722 2.31-2.25 3.785-1.815 4.48 1.295.71 3.177 1.231 6.434 1.425 9.682.854 14.295.435 28.592-.269 42.882-.367 7.486-.76 14.969-1.18 22.45-.134 2.401-.391 4.795-.633 7.665-2.18.016-4.296.178-6.388.019-11.528-.87-22.885-2.767-33.959-6.129-2.62-.794-5.146-1.94-7.639-3.087-1.122-.516-2.059-1.436-3.232-2.284zm33.211-42.39c-.57.774-.83 1.086-1.044 1.426-4.65 7.392-9.391 14.729-13.9 22.205-2.612 4.329-4.899 8.858-7.23 13.35-1.17 2.251-.637 3.7 1.58 4.766 4.225 2.028 8.73 2.937 13.215 3.98 1.237.29 2.063-.165 2.297-1.682.574-3.699 1.396-7.359 2-11.057.81-4.96 1.633-9.922 2.219-14.91.615-5.25.975-10.534 1.39-15.806.047-.585-.266-1.197-.527-2.272z"/>
    <path fill="#f7a81f" d="M95.268 29.985c.996 1.22 2.134 2.352 2.965 3.674 6.195 9.852 12.471 19.658 18.432 29.651 4.123 6.914 7.8 14.095 11.634 21.178.69 1.276 1.209 2.648 1.756 3.997.437 1.077.409 2.045-.927 2.48-5.365 1.747-10.813 3.028-16.602 3.21-.445-2.712-.68-5.25-1.3-7.693-1.7-6.695-3.372-13.408-5.401-20.008-2.891-9.4-6.106-18.7-9.148-28.055-.712-2.19-1.31-4.417-1.9-6.643-.134-.506-.02-1.076-.02-1.618.171-.057.342-.113.51-.171zM58.374 49.873c.262 1.074.574 1.687.528 2.27-.416 5.273-.776 10.556-1.391 15.807-.585 4.988-1.41 9.95-2.219 14.91-.603 3.696-1.426 7.358-2 11.057-.234 1.517-1.059 1.972-2.296 1.683-4.484-1.045-8.99-1.953-13.215-3.981-2.217-1.066-2.75-2.515-1.58-4.767 2.332-4.491 4.618-9.02 7.23-13.349 4.509-7.476 9.25-14.813 13.899-22.206.214-.34.475-.651 1.044-1.425z"/>
  </g>
</svg>
