<svg xmlns="http://www.w3.org/2000/svg" viewBox="0 0 255.449 290.498">
  <path fill="#95bf46" d="M223.737 56.56c-.201-1.46-1.48-2.268-2.537-2.356-1.055-.089-23.383-1.743-23.383-1.743s-15.507-15.396-17.209-17.1c-1.703-1.703-5.029-1.185-6.32-.804-.19.056-3.388 1.043-8.678 2.679-5.18-14.905-14.322-28.604-30.405-28.604-.443 0-.9.019-1.358.045C129.273 2.627 123.607 0 118.713 0 81.248 0 63.349 46.834 57.737 70.635c-14.557 4.511-24.9 7.717-26.221 8.133-8.126 2.548-8.382 2.805-9.449 10.462C21.262 95.026 0 259.456 0 259.456l165.678 31.042 89.77-19.42S223.936 58.021 223.738 56.56zM156.453 40.07l-14.018 4.338c.005-.987.009-1.96.009-3.022 0-9.265-1.286-16.723-3.35-22.636 8.288 1.04 13.807 10.468 17.358 21.32zm-27.638-19.484c2.304 5.774 3.802 14.058 3.802 25.239 0 .571-.005 1.094-.01 1.624l-28.953 8.966c5.575-21.517 16.025-31.908 25.162-35.829zM117.684 10.05c1.617 0 3.246.548 4.805 1.622-12.007 5.65-24.877 19.88-30.312 48.297-7.944 2.46-15.708 4.863-22.886 7.087C75.657 45.38 90.774 10.05 117.684 10.05z"/>
  <path fill="#5e8e3e" d="M221.2 54.204c-1.055-.089-23.383-1.743-23.383-1.743s-15.507-15.396-17.209-17.1c-.637-.634-1.495-.958-2.394-1.098l-12.527 256.233 89.762-19.419S223.935 58.022 223.737 56.561c-.201-1.461-1.48-2.269-2.537-2.357"/>
  <path fill="#fff" d="m135.205 103.806-11.069 32.925s-9.698-5.176-21.586-5.176c-17.428 0-18.305 10.938-18.305 13.694 0 15.038 39.2 20.8 39.2 56.024 0 27.712-17.576 45.558-41.277 45.558-28.44 0-42.984-17.701-42.984-17.701l7.615-25.16s14.95 12.836 27.565 12.836c8.243 0 11.596-6.49 11.596-11.232 0-19.617-32.16-20.492-32.16-52.724 0-27.13 19.472-53.383 58.778-53.383 15.145 0 22.627 4.339 22.627 4.339"/>
</svg>
