<svg xmlns="http://www.w3.org/2000/svg" viewBox="0 0 255.998 279.08">
  <path fill="#991b21" d="M70.882 129.428s-3.212-.666-4.155-.381c-.943.285-6.33-.66-8.693-2.37-2.364-1.703-4.725-.47-6.897-1.8-2.17-1.328-5.48-1.139-7.933-1.232-2.456-.093-5.575.093-6.71 1.61-1.133 1.516-5.571 6.164-7.177 8.057-1.606 1.896-8.124 8.719-10.675 9.76 0 0 .66 1.046.283 1.802-.379.762-.095 2.937-.095 3.698 0 .762.188 1.989-.469 2.75-.665.76-1.041 1.99-1.041 2.463 0 .474-.758 2.18 0 4.457.755 2.276 1.414 4.832-1.702 3.791-3.118-1.04-2.456-3.884-5.005-3.983-2.548-.093-5.855 0-6.801-3.503-.949-3.51-2.74-9.48-3.119-10.429-.376-.945-1.698-5.306.758-9.097 2.456-3.79 2.928-6.541 3.307-7.396.376-.852 2.173-6.256 3.492-7.018 1.322-.759.848-3.128 1.606-4.169.755-1.043.471-2.75.943-3.698.471-.948.662-3.695 1.322-5.78.662-2.084 2.835-5.311 4.157-7.015 1.322-1.704 2.08-4.262 2.08-5.117 0-.854-.471-2.651 1.698-4.169 2.17-1.517 6.044-6.445 6.423-7.204 0-.189 0-3.695-.19-4.928-.189-1.233-.472-2.37.754-2.843 1.233-.477 2.93-1.52 2.93-1.52s-1.178-1.515-3.73-2.796C23.692 70.09 16.04 61.416 15.333 56.3c-.711-5.12-.995-13.224 5.95-16.067 6.945-2.847 14.594-4.41 15.731-4.55 1.134-.141 5.1-.996 6.661.14 0 0-1.7-.281-2.408 0-.71.286 3.396.145 4.39 1.281 0 0-1.982-.567-3.116-.426-1.131.141 1.985 1.422 2.552 2.418.564.995 2.692 1.706 2.408 3.272-.28 1.563-.424 3.98-.143 4.69.287.712.994 1.992 1.137 3.98.143 1.992.71 4.695 1.274 5.972.568 1.281 1.985 5.261 1.418 8.104 0 0 .567 1.422 3.4-1.847 2.835-3.272 5.67-3.84 7.085-3.84 1.417 0 3.545-1.424 4.96-.854 1.42.57 2.98-.14 4.68.285 1.697.426 8.782 0 10.343-.57 1.555-.57 6.942-1.28 8.073-1.28 1.134 0-1.414-1.848.71-3.27 2.128-1.421-2.268-2.132.994-6.253 3.256-4.124.138-5.261-.426-6.113-.565-.855-.708-3.557-.708-5.12 0-1.565-.424-5.545-.424-5.545l.567-.711s-.457-.756-.906-1.024c-.447-.268-.893-1.881-1.247-2.956-.362-1.075-4.289-6.9-5.448-7.794-1.162-.9-1.34-2.24-1.162-3.495.18-1.258 1.07-2.33.892-3.675-.18-1.343-.09-3.134-.18-3.76-.086-.63.18-4.39.986-4.748 0 0 .623-.27.893.624 0 0-.45-3.134.533-3.134 0 0 1.162-.358 1.608 1.255.444 1.614.893 2.508.983 2.956.09.449.446 1.162.446 1.162s.98-.442 1.786-.087c.802.358 1.341.716 1.341 1.165 0 .448 0-.358.983-.358.98 0 1.875-.271 2.144.716.264.985.447 1.704.534 2.688.092.985.27 1.792.626 2.508.359.717.89 1.969.89 3.673 0 1.703.628 4.837.895 6.273.267 1.433 3.304 6.987 3.304 6.987s4.643.897 6.785.449c2.144-.449 5.892.358 5.448 2.33-.446 1.968-.713 7.793-.892 12.363-.18 4.57-.896 13.438-1.609 16.575-.716 3.134-5.09 11.288-6.874 12.631-1.783 1.346-3.75 2.24-8.66 4.57-4.913 2.33-10.628 4.928-10.628 4.928s3.037 4.298 3.75 4.57c.713.267.626-.627 1.516-.272.444.178 1.985.785 1.005.381-.002.038 5.38 1.42 5.38 1.42.515-.01.834-.104.77-.41-.27-1.251.983-2.863 1.516-3.224.537-.358-.803 1.612 0 2.506.806.899 12.348-2.531 12.132-1.917-.213.615.626.662 1.362.085.73-.575 3.788-2.574 5.968-2.565 2.185.01 7.127.448 8.453-.037 1.325-.482 7.352-4.214 9.365-5.2 2.008-.993 8.948-.897 11.877-2.876 2.929-1.981 9.38-6.618 12.103-8.306 2.722-1.686 22.916-14.077 27.224-14.75 4.308-.674 14.634-4.761 16.403-6.027 1.77-1.263 7.336-4.338 8.45-5.302 1.118-.964 6.701 1.486 9.61 5.638 0 0 5.676-2.788 6.9-2.895 1.222-.107 3.485-1.689 5.221-3.022 1.738-1.336 6.973-4.873 9.262-5.992 0 0 1.157-.51 1.379-1.325.221-.815 1.145-2.37 1.977-2.05 0 0 1.822-2.333 2.56-1.631 0 0 1.602-1.52 2.52-.694 0 0 .907.13 1.213.62 0 0 1.151-.933 1.685-.225 0 0 .831-.942 2.233.163 0 0 .932 1.153-.784 3.273 0 0-1.075.558-1.828 2.114-.747 1.556-2.84 4.513-5.13 5.671-2.298 1.159-4.95 3.194-4.85 7.354.1 4.163-1.666 9.003-6.022 7.915-4.355-1.088-8.175.38-11.988 2.463 0 0-.335 2.2-.702 2.723-.371.522-2.076.353-4.42 1.827-2.343 1.471-3.772 2.024-5.62 3.41-1.85 1.387-2.247 2.323-3.803 3.047-1.555.73-3.302 2.71-4.333 3.806-1.036 1.093-4.847 3.785-9.351 5.984-4.508 2.201-23.034 8.834-27.317 12.32-4.288 3.487-12.17 9.733-24.134 15.607-.497.243-.958.48-1.427.713-.724.663-11.011 10.105-14.533 12.575-3.65 2.559-5.11 2.925-6.206 8.78-.719 3.859-3.654 10.088-5.681 15.049a243.778 243.778 0 0 0-.812 12.377c-.14 3.695-4.855 40.442-5.99 44.416-1.137 3.98-1.418 6.965-.85 10.091.566 3.12-.852 6.816-2.55 9.942-1.705 3.126-4.539 10.514-4.115 14.775.424 4.262.851 5.827-.424 6.393-1.278.567-5.39.429-5.954 1.85-.567 1.42-2.693 1.42-2.693 1.42s-.637 6.34.475 7.455c1.115 1.11 5.046 5.781.264 9.26-4.788 3.484-9.835 6.573-11.011 9.005-1.183 2.427-3.806 3.811-4.789 4.598-.982.786-2.752 1.905-2.884 2.362-.129.462-1.57 1.316-2.948.924 0 0-1.18.522-2.427-.86 0 0-2.027.198-2.423-1.113 0 0-1.705.127-1.902-1.184 0 0-.853-1.905 1.705-2.691 2.553-.793 6.62-6.509 6.751-7.428.13-.919 2.033-6.638 3.474-9 1.44-2.367 3.342-8.543 3.606-14.192 0 0-.587-.392-.587-.98 0-.596.034-3.31.317-4.35.287-1.046.851-4.073.475-8.527-.38-4.447.567-11.742 0-16.762s.511-39.87 2.022-44.417c1.514-4.547 2.078-5.587 1.985-7.388-.095-1.801 0-7.295.568-7.577.564-.284.66-7.198.471-7.96-.19-.755-4.254-3.596-4.819-5.586 0 0 .093 2.083 0 2.841-.095.758-.188-.189-1.701-1.801-1.517-1.612-4.35-5.02-4.539-7.484-.338-.183-4.525-2.656-4.525-2.656-.52.023-.78-.223-.905-.437z"/>
  <path d="M90.196 87.431c-.428 7.693-18.42 42.734-18.42 42.734-.628 3.1-.498 5.995-.18 7.716.762 4.126-3.05 10.316-3.05 10.316l4.151 2.185c5.607-3.25 3.203-12.999 3.203-12.999a12.21 12.21 0 0 1-.27-5l.045.046S96.078 91.987 95.09 88.802c-.002.006-2.434-.345-4.894-1.37z"/>
</svg>
