<svg xmlns="http://www.w3.org/2000/svg" viewBox="0 0 511.997 187.391">
  <path fill="#991b21" d="M47.594 86.905s-2.156-.447-2.79-.255c-.633.19-4.25-.444-5.837-1.591-1.587-1.144-3.172-.317-4.631-1.209-1.457-.892-3.68-.765-5.327-.828-1.649-.062-3.743.063-4.504 1.082-.762 1.017-3.742 4.138-4.82 5.41-1.078 1.272-5.455 5.854-7.168 6.553 0 0 .443.702.19 1.21-.254.511-.064 1.972-.064 2.483 0 .511.127 1.335-.314 1.847-.447.51-.7 1.335-.7 1.653 0 .318-.509 1.464 0 2.993.507 1.528.95 3.244-1.142 2.545-2.094-.699-1.65-2.608-3.36-2.674-1.712-.063-3.932 0-4.568-2.353-.637-2.356-1.84-6.365-2.094-7.002-.252-.634-1.14-3.562.51-6.108 1.649-2.545 1.965-4.392 2.22-4.966.252-.572 1.459-4.201 2.344-4.712.888-.51.57-2.1 1.079-2.8.507-.7.316-1.846.633-2.483.317-.636.445-2.48.888-3.88.444-1.4 1.903-3.567 2.791-4.711.888-1.144 1.397-2.862 1.397-3.436 0-.574-.317-1.78 1.14-2.8 1.457-1.018 4.058-4.327 4.313-4.836 0-.127 0-2.482-.129-3.31-.126-.827-.316-1.59.507-1.909.828-.32 1.968-1.02 1.968-1.02s-.791-1.017-2.505-1.877c-1.713-.858-6.851-6.682-7.326-10.118-.477-3.438-.667-8.88 3.996-10.789 4.663-1.91 9.799-2.96 10.562-3.055.762-.094 3.425-.668 4.473.095 0 0-1.142-.19-1.617 0-.477.191 2.28.097 2.948.86 0 0-1.33-.38-2.092-.286-.76.095 1.332.955 1.713 1.623.379.669 1.808 1.146 1.617 2.197-.188 1.05-.284 2.673-.096 3.15.192.477.667 1.337.763 2.672.096 1.338.477 3.152.856 4.01.38.86 1.333 3.532.952 5.442 0 0 .38.954 2.282-1.241 1.904-2.197 3.808-2.578 4.758-2.578.952 0 2.38-.956 3.33-.574.954.383 2.002-.094 3.142.192 1.14.286 5.898 0 6.946-.383 1.044-.383 4.661-.86 5.42-.86.762 0-.95-1.24.478-2.195 1.428-.955-1.523-1.432.667-4.199 2.186-2.77.092-3.532-.287-4.104-.378-.574-.475-2.389-.475-3.438 0-1.051-.284-3.724-.284-3.724l.38-.477s-.307-.508-.608-.688c-.3-.18-.6-1.263-.837-1.984-.243-.722-2.88-4.633-3.659-5.234-.78-.604-.899-1.503-.78-2.346.12-.845.718-1.565.6-2.468-.121-.902-.06-2.104-.121-2.525-.059-.422.12-2.947.661-3.188 0 0 .419-.181.6.419 0 0-.302-2.104.358-2.104 0 0 .78-.24 1.08.843.298 1.083.6 1.683.66 1.985.06.3.3.78.3.78s.657-.298 1.198-.059c.54.24.901.481.901.782 0 .302 0-.24.66-.24.657 0 1.259-.182 1.44.48.177.662.3 1.145.358 1.806.062.66.18 1.203.42 1.684.241.48.598 1.322.598 2.466 0 1.144.422 3.248.6 4.212.18.962 2.22 4.691 2.22 4.691s3.117.603 4.555.302c1.44-.302 3.956.24 3.658 1.564-.3 1.322-.478 5.233-.599 8.302-.12 3.068-.601 9.023-1.08 11.129-.48 2.104-3.417 7.58-4.616 8.481-1.197.904-2.518 1.504-5.815 3.069-3.298 1.564-7.136 3.308-7.136 3.308s2.04 2.887 2.519 3.069c.478.18.42-.42 1.017-.182.298.12 1.333.526.675.256-.001.025 3.612.953 3.612.953.346-.007.56-.07.517-.275-.18-.84.66-1.923 1.019-2.165.36-.24-.54 1.082 0 1.682.54.604 8.29-1.7 8.146-1.287-.144.413.42.445.914.057.49-.386 2.544-1.728 4.007-1.722 1.467.008 4.786.3 5.676-.025.89-.323 4.937-2.83 6.289-3.492 1.348-.666 6.007-.601 7.974-1.93 1.967-1.33 6.298-4.444 8.127-5.578 1.827-1.131 15.387-9.451 18.28-9.904 2.892-.452 9.826-3.196 11.014-4.046 1.188-.848 4.925-2.913 5.674-3.56.75-.648 4.499.997 6.452 3.785 0 0 3.811-1.872 4.633-1.944.82-.072 2.34-1.133 3.506-2.029 1.167-.897 4.682-3.272 6.219-4.023 0 0 .777-.343.926-.89.149-.547.769-1.592 1.327-1.376 0 0 1.224-1.567 1.72-1.096 0 0 1.075-1.02 1.691-.465 0 0 .61.087.815.416 0 0 .773-.626 1.131-.151 0 0 .558-.632 1.5.11 0 0 .625.774-.527 2.197 0 0-.722.375-1.227 1.42-.502 1.044-1.907 3.03-3.445 3.807-1.543.778-3.323 2.145-3.257 4.938.068 2.796-1.118 6.045-4.043 5.315-2.924-.73-5.489.255-8.05 1.654 0 0-.224 1.476-.471 1.828-.249.35-1.394.237-2.968 1.227-1.573.987-2.533 1.358-3.773 2.29-1.243.93-1.509 1.56-2.553 2.046-1.045.49-2.218 1.818-2.91 2.555-.696.734-3.255 2.541-6.28 4.018-3.026 1.478-15.465 5.931-18.34 8.272-2.88 2.341-8.173 6.536-16.206 10.48-.334.163-.643.322-.958.479-.487.444-7.394 6.785-9.758 8.443-2.452 1.718-3.432 1.964-4.168 5.895-.482 2.591-2.453 6.774-3.814 10.105a163.69 163.69 0 0 0-.545 8.31c-.095 2.482-3.26 27.156-4.022 29.824-.764 2.673-.953 4.677-.572 6.776.381 2.095-.571 4.576-1.712 6.675-1.144 2.1-3.047 7.06-2.762 9.922.284 2.861.571 3.912-.285 4.292-.858.38-3.619.288-3.998 1.242-.38.953-1.808.953-1.808.953s-.428 4.257.319 5.006c.748.746 3.388 3.882.177 6.218-3.215 2.339-6.604 4.413-7.394 6.047-.794 1.63-2.555 2.559-3.215 3.087-.66.528-1.848 1.279-1.936 1.586-.087.31-1.054.883-1.98.62 0 0-.792.35-1.63-.577 0 0-1.36.133-1.627-.747 0 0-1.144.085-1.276-.795 0 0-.574-1.28 1.144-1.808 1.714-.532 4.445-4.37 4.533-4.987.087-.617 1.366-4.457 2.333-6.043.967-1.59 2.244-5.737 2.421-9.53 0 0-.394-.263-.394-.658 0-.4.023-2.222.213-2.92.192-.703.571-2.735.319-5.726-.255-2.986.38-7.884 0-11.255-.381-3.37.343-26.771 1.357-29.824 1.017-3.053 1.396-3.751 1.334-4.96-.065-1.21 0-4.899.38-5.088.38-.191.444-4.834.317-5.345-.128-.507-2.857-2.415-3.236-3.751 0 0 .063 1.399 0 1.908-.064.509-.126-.127-1.142-1.21-1.019-1.082-2.921-3.37-3.047-5.025a461.407 461.407 0 0 1-3.039-1.783c-.35.015-.523-.15-.608-.294z"/>
  <path d="M60.563 58.706C60.275 63.872 48.195 87.4 48.195 87.4c-.422 2.082-.335 4.025-.122 5.181.512 2.77-2.047 6.927-2.047 6.927l2.787 1.467c3.765-2.183 2.15-8.728 2.15-8.728a8.198 8.198 0 0 1-.18-3.357l.03.03s13.7-27.155 13.036-29.293a14.875 14.875 0 0 1-3.286-.92z"/>
  <path fill="#991b21" d="M482.157 99.455c6.69 0 13.802 1.795 21.337 5.387l.845-4.331h7.605l.053 86.88h-8.767v-30.052c-6.725 4.718-13.837 7.077-21.337 7.077-8.767 0-14.612-3.116-17.534-9.348-1.69-3.52-2.676-7.975-2.958-13.362a191.114 191.114 0 0 1-.158-8.133c0-2.993.017-6.003.052-9.031.07-3.029.3-5.828.687-8.398.387-2.57.986-4.876 1.796-6.919.845-2.077 2.042-3.837 3.591-5.281 3.204-2.993 8.134-4.49 14.788-4.49zM141.25 81.498c9.049 0 16.443 1.303 22.182 3.908l-2.746 8.08c-6.937-2.992-13.327-4.489-19.172-4.489h-.475c-6.444 0-10.88 1.215-13.31 3.645-2.042 2.042-3.063 5.58-3.063 10.615v.212c0 5.739 1.585 9.506 4.754 11.302 2.147 1.162 5.985 2.183 11.513 3.063 5.563.88 9.7 1.637 12.412 2.271 2.71.599 5.017 1.602 6.918 3.01 3.944 2.958 5.915 8.574 5.915 16.848v.687c0 12.64-5.087 20.175-15.263 22.604-3.134.775-6.091 1.162-8.873 1.162-2.781 0-5.316-.105-7.605-.317a54.632 54.632 0 0 1-6.919-1.003c-5.528-1.127-10.158-2.817-13.89-5.07l3.486-7.394c7.992 4.225 15.809 6.337 23.45 6.337 8.872 0 14.066-2.834 15.58-8.503.493-1.866.74-4.013.74-6.443v-2.06c0-2.464-.177-4.454-.53-5.968-.351-1.514-1.09-2.746-2.217-3.697-1.831-1.584-6.162-2.905-12.993-3.96-6.09-.951-10.298-1.85-12.622-2.694-2.324-.845-4.243-1.76-5.757-2.747a15.013 15.013 0 0 1-3.803-3.802c-2.183-3.17-3.274-7.553-3.274-13.151v-.528c0-11.62 4.824-18.573 14.471-20.862 3.063-.704 6.531-1.056 10.404-1.056zm127.703-8.873v61.846c0 12.147.335 21.636 1.004 28.467l-7.87.633-1.267-7.235c-7.43 5.387-14.982 8.08-22.657 8.08-8.486 0-14.137-3.116-16.954-9.348a30.345 30.345 0 0 1-2.746-11.144c-.176-3.943-.264-7.394-.264-10.351 0-2.993.017-6.003.053-9.031.07-3.029.299-5.828.686-8.398.387-2.57.986-4.876 1.796-6.919.845-2.077 2.042-3.837 3.591-5.281 3.204-2.993 8.486-4.49 15.845-4.49 7.394 0 14.066 1.286 20.016 3.856V73.47zm49.222 26.83c9.541 0 16.055 2.359 19.54 7.077 1.691 2.288 2.8 5.07 3.328 8.345.564 3.239.845 6.337.845 9.295 0 4.612-.105 8.186-.317 10.721-4.964.211-9.418.317-13.362.317h-8.503c-8.873 0-15.703-.387-20.492-1.162 0 8.098 1.021 13.75 3.064 16.953 2.5 3.909 7.482 5.863 14.946 5.863 7.464 0 14.612-1.461 21.443-4.384l2.587 7.553c-7.288 2.922-15.333 4.383-24.136 4.383-5.105 0-9.436-.528-12.992-1.584-5.669-1.62-9.436-4.965-11.302-10.035-1.726-4.753-2.588-11.795-2.588-21.126v-2.693c0-11.162 2.324-18.996 6.971-23.502 4.19-4.014 11.18-6.021 20.968-6.021zm-123.53 1.056v62.849h-8.556l-.106-62.849zm178.032-27.78v54.504c1.409.282 3.099-.44 5.07-2.165a96.894 96.894 0 0 0 5.335-4.912c1.549-1.585 3.151-3.31 4.806-5.176 5.95-6.866 9.858-11.69 11.725-14.471h10.457c-.775 1.76-2.553 4.26-5.334 7.5l-7.078 7.975c-3.837 4.12-6.918 7.165-9.242 9.136-2.289 1.972-3.803 3.099-4.542 3.38v.529l1.584.792c2.289 1.091 5.282 3.996 8.979 8.714l19.7 24.823h-11.091l-13.415-17.587c-6.197-8.098-10.933-12.288-14.207-12.57l-1.162-.106a4.28 4.28 0 0 0-.95 0h-.635v30.263h-8.767V73.681zm65.011 27.78v62.849h-8.556l-.105-62.849zm-195.881 6.866c-4.296 0-7.13.352-8.503 1.056-1.373.704-2.43 1.62-3.17 2.746-.703 1.127-1.284 2.676-1.742 4.648-.79 3.602-1.194 9.478-1.214 17.626v1.81c0 7.922.862 13.397 2.587 16.425 1.866 3.204 5.334 4.806 10.405 4.806h.792c4.859 0 10.034-1.55 15.527-4.647 1.514-.846 2.817-1.69 3.908-2.536v-.105c-.176-3.275-.264-8.327-.264-15.158l.053-23.502c-6.338-2.113-12.464-3.17-18.38-3.17zm243.044 0c-4.296 0-7.13.352-8.503 1.056-1.374.704-2.43 1.62-3.17 2.746-.703 1.127-1.284 2.676-1.742 4.648-.81 3.697-1.215 9.788-1.215 18.274v1.162c0 7.816.968 13.291 2.905 16.425 1.936 3.204 5.475 4.806 10.616 4.806h.792c4.859 0 9.823-1.338 14.893-4.014 1.444-.74 2.712-1.496 3.803-2.27v-38.08c-6.338-3.169-12.464-4.753-18.38-4.753zm-167.521-.37c-7.042 0-11.848 1.532-14.419 4.595-2.464 2.922-3.697 8.345-3.697 16.267h33.749v-5.07c0-5.528-1.074-9.472-3.222-11.83-2.394-2.641-6.531-3.962-12.411-3.962zM189.363 72.625c1.76 0 3.01.088 3.75.264.774.176 1.408.51 1.901 1.004.845.845 1.268 2.235 1.268 4.172 0 1.901-.106 3.274-.317 4.12-.176.81-.493 1.46-.95 1.954-.881.88-2.465 1.32-4.754 1.32-2.36 0-3.873-.335-4.542-1.004-1.056-1.091-1.585-2.587-1.585-4.489 0-1.936.106-3.31.317-4.12.247-.844.599-1.496 1.057-1.953.845-.845 2.13-1.268 3.855-1.268zm243.044 0c1.76 0 3.01.088 3.75.264.774.176 1.408.51 1.901 1.004.845.845 1.268 2.235 1.268 4.172 0 1.901-.106 3.274-.317 4.12-.176.81-.493 1.46-.951 1.954-.88.88-2.465 1.32-4.753 1.32-2.36 0-3.873-.335-4.542-1.004-1.057-1.091-1.585-2.587-1.585-4.489 0-1.936.106-3.31.317-4.12.247-.844.599-1.496 1.056-1.953.845-.845 2.13-1.268 3.856-1.268z"/>
</svg>
