<svg xmlns="http://www.w3.org/2000/svg" viewBox="0 0 256 255.14">
  <path fill="#e57e41" d="M88.965 86.124a135.034 135.034 0 0 1 6.218-5.365c-9.767-17.655-14.937-36.527-17.14-54.52a192.609 192.609 0 0 0-25.015 19.51 180.606 180.606 0 0 0-10.02 9.99c.76 23.082 7.8 49.837 18.899 67.13 6.1-13.153 15.167-25.789 27.058-36.745zM229.848 29.46C197.342-5.82 143.854-8.524 94.626 16.592c1.443 18.27 6.375 35.883 16.118 53.275 35.293-20.929 75.144-20.572 98.725 5.021 28.615 31.056 22.429 87.48-16.881 123.7-39.31 36.221-94.375 40.407-122.99 9.351-14.889-16.16-19.66-38.677-15.297-61.663-11.883-15.3-22.676-46.785-26.522-71.633-35.052 50.243-37.916 111.936-2.966 149.868 42.045 45.632 122.845 39.581 180.471-13.516 57.627-53.097 66.609-135.903 24.564-181.535z"/>
</svg>
