<svg xmlns="http://www.w3.org/2000/svg" viewBox="0 0 256 256">
  <path fill="#3a76f0" d="m97.28 3.74 2.88 11.639A115.685 115.685 0 0 0 68 28.678l-6.16-10.28A127.526 127.526 0 0 1 97.28 3.74zm61.44 0-2.88 11.639A115.685 115.685 0 0 1 188 28.678l6.2-10.28A127.525 127.525 0 0 0 158.72 3.74zM18.4 61.835A127.505 127.505 0 0 0 3.74 97.272l11.64 2.88a115.666 115.666 0 0 1 13.3-32.157zM12 127.99c-.004-5.817.43-11.627 1.3-17.379l-11.86-1.8a128.44 128.44 0 0 0 0 38.358l11.86-1.8A115.782 115.782 0 0 1 12 127.99zm182.16 109.592-6.16-10.28a115.685 115.685 0 0 1-32.12 13.3l2.88 11.638a127.525 127.525 0 0 0 35.4-14.658zM244 127.99c.004 5.817-.43 11.627-1.3 17.379l11.86 1.8a128.44 128.44 0 0 0 0-38.358l-11.86 1.8a115.78 115.78 0 0 1 1.3 17.379zm8.26 30.718-11.64-2.88a115.666 115.666 0 0 1-13.3 32.157l10.28 6.2a127.505 127.505 0 0 0 14.66-35.477zM145.38 242.7a116.829 116.829 0 0 1-34.76 0l-1.8 11.86a128.47 128.47 0 0 0 38.36 0zm76-45.896a116.416 116.416 0 0 1-24.58 24.558l7.12 9.659a128.195 128.195 0 0 0 27.12-27.038zM196.8 34.617a116.416 116.416 0 0 1 24.58 24.578l9.66-7.2A128.195 128.195 0 0 0 204 24.959zM34.62 59.195A116.416 116.416 0 0 1 59.2 34.617L52 24.958a128.195 128.195 0 0 0-27.04 27.038zm202.98 2.64-10.28 6.16a115.666 115.666 0 0 1 13.3 32.117l11.64-2.88a127.505 127.505 0 0 0-14.66-35.397zM110.62 13.3a116.83 116.83 0 0 1 34.76 0l1.8-11.86a128.47 128.47 0 0 0-38.36 0zM40.78 234.202 16 239.982l5.78-24.779-11.68-2.74-5.78 24.779a11.998 11.998 0 0 0 14.42 14.418l24.76-5.68zM12.6 201.764l11.68 2.72 4-17.179a115.486 115.486 0 0 1-12.9-31.477l-11.64 2.88a127.024 127.024 0 0 0 11.8 30.417zm56 25.998-17.18 4 2.72 11.679 12.64-2.94a127.046 127.046 0 0 0 30.42 11.8l2.88-11.64a115.505 115.505 0 0 1-31.4-12.979zM128 23.998c-37.844.02-72.69 20.593-90.985 53.717C18.72 110.84 19.863 151.287 40 183.325l-10 42.657 42.66-9.999c37.418 23.565 85.647 20.894 120.233-6.66 34.585-27.554 47.963-73.965 33.35-115.698C211.63 51.89 172.22 23.962 128 23.998z"/>
</svg>
