<svg xmlns="http://www.w3.org/2000/svg" viewBox="0 0 511.907 76.107">
  <path fill="#0a0a0a" d="M135.203 23.79c6.645 0 11.489 2.281 14.764 6.038v-4.657h14.873v49.554h-14.873v-4.657c-3.275 3.772-8.12 6.04-14.764 6.04-12.978 0-23.69-11.396-23.69-26.16s10.696-26.159 23.69-26.159zM379.187 5.345V74.71h-14.872v-4.658c-3.276 3.773-8.12 6.04-14.764 6.04-12.979 0-23.69-11.395-23.69-26.16 0-14.763 10.696-26.158 23.69-26.158 6.645 0 11.488 2.282 14.764 6.039V5.346zM273.155 23.62c14.329 0 25.848 11.208 25.848 25.74 0 14.53-11.504 25.739-25.848 25.739-14.33 0-25.833-11.209-25.833-25.74 0-14.53 11.503-25.74 25.833-25.74zM26.159 2.66c11.395 0 20.322 5.45 25.367 15.665l-13.382 7.824c-2.375-4.952-5.651-8.026-11.985-8.026-4.952 0-7.436 2.484-7.436 5.247 0 3.167 1.692 5.356 12.481 8.616l.632.191c.634.191 1.27.385 1.909.584l.638.2.319.102.637.207c9.24 3.022 18.159 7.454 18.159 20.218 0 13.382-10.697 21.3-25.771 21.3C13.18 74.803 3.866 67.864 0 57.664l13.677-7.933c2.484 5.744 6.738 9.61 14.562 9.61 7.53 0 9.408-2.966 9.408-5.651 0-4.254-3.959-5.946-14.376-8.818C12.98 42 2.872 37.047 2.872 23.774c0-13.382 11.302-21.114 23.287-21.114zm385.785 19.81c14.47 0 25.166 11.193 25.166 26.159 0 2.08-.202 4.067-.59 5.946h-35.18c1.895 5.17 6.444 6.955 11.893 6.955 4.067 0 7.53-1.584 9.516-3.773l11.892 6.83c-4.86 6.739-12.187 10.2-21.61 10.2-16.953 0-27.447-11.395-27.447-26.158 0-14.764 10.696-26.16 26.36-26.16zM205.484.083v15.06c-5.854-.529-9.72 1.257-9.72 7.311h9.72v15.059h-9.72v37.212h-15.68V37.513h-7V22.454h7c0-14.64 8.043-23.41 25.4-22.37zm39.494 0v15.06c-5.853-.529-9.719 1.257-9.719 7.311h9.719v15.059h-9.719v37.212h-15.68V37.513h-7.001V22.454h7.001c0-14.64 8.042-23.41 25.399-22.37zm228.878 24.094v16.845c-6.148-.994-14.872 1.49-14.872 11.301v22.402H444.11V25.171h14.873v8.818c1.987-6.645 8.631-9.812 14.872-9.812zM75.511 4.741V74.71H60.515V4.74zm244.295.217.109 69.41-.11-.046h-14.872V4.958zM138.184 37.855c-6.83 0-11.799 4.657-11.799 12.093s4.953 12.094 11.8 12.094c6.845-.016 11.798-4.673 11.798-12.094 0-7.436-4.953-12.093-11.799-12.093zm214.348 0c-6.831 0-11.799 4.657-11.799 12.093s4.952 12.094 11.799 12.094c6.846-.016 11.798-4.673 11.798-12.094 0-7.436-4.952-12.093-11.798-12.093zm-79.377 0c-6.334 0-11.21 4.58-11.21 11.503 0 6.924 4.876 11.504 11.21 11.504 6.334 0 11.208-4.58 11.208-11.504 0-6.924-4.874-11.503-11.208-11.503zm138.696-2.19c-5.65 0-9.408 2.78-10.805 7.825h21.315c-1.583-5.744-6.039-7.824-10.51-7.824z"/>
  <path fill="#ff6b35" d="M112.15 24.736 93.954 49.731l18.691 24.994h-17l-15.99-22.091-2.126-2.903 17.123-24.995zm382.633-.015 17.124 24.994-2.127 2.903-15.99 22.092h-17l18.692-24.995-18.195-24.994z"/>
</svg>
