<svg xmlns="http://www.w3.org/2000/svg" viewBox="0 0 256 288.744">
  <path fill="#bac4c5" d="M239.348 64.287 128 0 16.652 64.287A33.305 33.305 0 0 0 0 93.129v109.345a33.303 33.303 0 0 0 16.652 28.842l89.177 51.487a44.342 44.342 0 0 0 44.342 0l89.177-51.487A33.303 33.303 0 0 0 256 202.474V93.129a33.305 33.305 0 0 0-16.652-28.842zm-17.28 122.846c0 8.805-4.65 16.942-12.198 21.344l-63.805 37.216a35.248 35.248 0 0 1-35.518 0l-63.806-37.216c-7.548-4.402-12.198-12.539-12.198-21.344v-80.919c0-8.806 4.65-16.942 12.198-21.345l81.565-47.574 81.564 47.574c7.548 4.403 12.198 12.539 12.198 21.345z"/>
  <path fill="#ed1a3b" d="m160.404 110.041-.654.459-30.125 31.969-.402.593.152.063 30.984.047.045-.11 29.389-27.966-29.389-5.055"/>
  <path fill="#c2315d" d="m160.404 176.083-.185.042-30.875-32.688-.121-.375h31.181l29.389 27.62-29.389 5.401"/>
  <path fill="#94407e" d="m129.223 143.062 31.181 33.021-1.44 25.677-29.741-29.363-.077-.272-.063-28.667.14-.396"/>
  <path fill="#577f9f" d="m96.206 174.241-.039-.304 32.666-30.645.394-.232-.004 29.337-29.53 29.363-3.487-27.519"/>
  <path fill="#00aec5" d="m129.227 143.06-33.021 31.181-27.511-3.645 31.197-27.536.171-.143 28.791-.021.373.164"/>
  <path fill="#93c483" d="m129.227 143.064-.394-.647-32.125-30.5-.502-.034-27.511 3.907 31.197 27.274h29.335"/>
  <path fill="#fcde11" d="m96.206 111.883 33.021 31.181.148-.772v-28l-.152-.565-29.568-29.346-3.449 27.502"/>
  <path fill="#f78e36" d="m129.223 143.062 31.181-33.021-1.766-25.66-29.415 29.346v29.335"/>
</svg>
