<svg xmlns="http://www.w3.org/2000/svg" viewBox="0 0 255.707 247.312">
  <path fill="#512833" d="m50.018 0 205.69 41.616-41.618 205.696L8.4 205.695z"/>
  <path fill="#934358" d="M23.989 9.08 232.87 29.355l-20.273 208.884L3.715 217.965z"/>
  <path fill="#e5637c" d="M0 18.733h209.869v209.869H0z"/>
  <path fill="#fff" d="M72.387 162.825c0-1.24.775-3.107 2.331-5.595 1.553-2.487 2.953-3.73 4.197-3.73.122 0 1.12.591 2.985 1.772 1.865 1.183 4.537 2.363 8.02 3.544 3.48 1.183 7.677 1.772 12.59 1.772 4.912 0 8.954-1.4 12.125-4.197 3.171-2.798 4.757-6.59 4.757-11.378 0-4.786-1.4-8.516-4.198-11.192-2.798-2.672-8.364-5.19-16.694-7.554-8.332-2.36-14.362-5.376-18.093-9.046-3.73-3.666-5.596-9.234-5.596-16.694 0-7.461 2.86-13.71 8.58-18.746 5.718-5.036 13.18-7.554 22.383-7.554 6.342 0 12 .81 16.975 2.424 4.972 1.619 7.46 3.423 7.46 5.41 0 1.617-.717 3.701-2.144 6.249-1.432 2.55-2.705 3.824-3.824 3.824-.126 0-.933-.374-2.425-1.12-4.23-2.239-8.986-3.358-14.27-3.358-5.286 0-9.39 1.09-12.31 3.265-2.923 2.177-4.383 5.006-4.383 8.487 0 3.482 1.087 6.219 3.264 8.207 2.174 1.99 5.876 3.795 11.098 5.409 11.686 3.608 19.614 7.553 23.782 11.844 4.165 4.29 6.249 10.758 6.249 19.398 0 8.646-3.078 15.762-9.234 21.358-6.155 5.595-13.523 8.393-22.103 8.393-8.58 0-15.98-1.273-22.196-3.824-6.219-2.547-9.326-5.004-9.326-7.368z"/>
</svg>
