<svg xmlns="http://www.w3.org/2000/svg" viewBox="0 0 256 255.74">
  <path fill="#f26c5d" d="M104.898 197.43c-25.612 0-46.456-20.845-46.456-46.457 0-25.612 20.844-46.457 46.456-46.457 25.612 0 46.457 20.845 46.457 46.457 0 25.612-20.845 46.456-46.457 46.456zm0-76.676c-16.665 0-30.23 13.554-30.23 30.23 0 16.675 13.555 30.23 30.23 30.23 16.676 0 30.23-13.555 30.23-30.23 0-16.676-13.565-30.23-30.23-30.23zm8.977 39.4c-4.971 4.972-13.032 4.972-18.004 0-4.972-4.972-4.972-13.033 0-18.005 4.972-4.971 13.033-4.971 18.004 0 4.972 4.972 4.972 13.033 0 18.005zm-8.977 72.166a81.205 81.205 0 0 1-24.275-3.688c-4.319-1.347-6.724-5.944-5.377-10.262 1.347-4.319 5.943-6.734 10.262-5.377 6.242 1.956 12.774 2.94 19.39 2.94 35.81 0 64.95-29.14 64.95-64.95s-29.14-64.949-64.95-64.949-64.949 29.14-64.949 64.95c0 6.627.994 13.169 2.95 19.422a8.209 8.209 0 0 1-5.376 10.273 8.209 8.209 0 0 1-10.273-5.377 81.204 81.204 0 0 1-3.699-24.319c0-44.853 36.494-81.346 81.347-81.346 44.853 0 81.337 36.493 81.337 81.346s-36.494 81.337-81.337 81.337zm49.503 23.42a8.202 8.202 0 0 1-7.3-4.457c-2.064-4.03-.482-8.969 3.548-11.032 33.64-17.285 54.538-51.491 54.538-89.278 0-55.308-44.992-100.3-100.3-100.3-37.904 0-72.153 20.995-89.395 54.784-2.064 4.03-6.991 5.633-11.021 3.57A8.185 8.185 0 0 1 .9 98.007c20.053-39.306 59.903-63.72 103.997-63.72 64.34 0 116.687 52.346 116.687 116.686 0 43.955-24.308 83.752-63.442 103.859a8.114 8.114 0 0 1-3.742.908zm78.568-33.81a8.11 8.11 0 0 1-3.613-.856 8.115 8.115 0 0 1-3.645-10.882c25.708-51.651 15.542-113.778-25.28-154.601C159.456 14.618 97.158 4.538 45.41 30.524A8.112 8.112 0 0 1 34.52 26.91a8.112 8.112 0 0 1 3.613-10.893C96.133-13.1 165.967-1.812 211.9 44.121c45.762 45.761 57.146 115.414 28.327 173.308a8.08 8.08 0 0 1-7.258 4.5z"/>
</svg>
