<svg xmlns="http://www.w3.org/2000/svg" viewBox="0 0 256 296.229">
  <defs>
    <linearGradient id="a" x1="196.923" x2="96.089" y1="12.786" y2="224.993" gradientTransform="scale(.9661 1.0351)" gradientUnits="userSpaceOnUse">
      <stop offset="0%" stop-color="#2B3990"/>
      <stop offset="16%" stop-color="#1E62A7"/>
      <stop offset="32%" stop-color="#1485BC"/>
      <stop offset="49%" stop-color="#0BA1CC"/>
      <stop offset="66%" stop-color="#05B4D7"/>
      <stop offset="83%" stop-color="#01C0DE"/>
      <stop offset="100%" stop-color="#00C4E0"/>
    </linearGradient>
    <linearGradient id="b" x1="-39508.488" x2="-24682.582" y1="98731.546" y2="98731.546" gradientTransform="scale(.93633 1.068)" gradientUnits="userSpaceOnUse">
      <stop offset="0%" stop-color="#2B3990"/>
      <stop offset="16%" stop-color="#1E62A7"/>
      <stop offset="32%" stop-color="#1485BC"/>
      <stop offset="49%" stop-color="#0BA1CC"/>
      <stop offset="66%" stop-color="#05B4D7"/>
      <stop offset="83%" stop-color="#01C0DE"/>
      <stop offset="100%" stop-color="#00C4E0"/>
    </linearGradient>
  </defs>
  <path fill="url(#a)" d="M21.943 218.333c98.86 9.8 178.241-48.676 198.043-73.732C239.788 119.544 209.763 0 209.763 0c-32.546 79.956-91.723 201.14-187.82 218.373z" style="mix-blend-mode:multiply;fill:url(#a)"/>
  <path fill="url(#b)" d="M67.657 186.424c58.315 2.147 102.702-34.523 113.402-49.725 10.7-15.202-5.683-83.67-5.683-83.67-16.206 47.43-61.298 116.543-107.719 133.395z" style="mix-blend-mode:multiply;fill:url(#b)"/>
  <path fill="#149cb5" d="M3.805 269.93a20.952 20.952 0 0 0 6.322 4.488 17.699 17.699 0 0 0 7.554 1.7 12.047 12.047 0 0 0 7.748-2.23 7.131 7.131 0 0 0 2.767-5.848 7.194 7.194 0 0 0-.65-3.209 7.018 7.018 0 0 0-1.757-2.257 12.863 12.863 0 0 0-2.643-1.7l-3.265-1.577-7.208-3.087a34.304 34.304 0 0 1-3.597-1.808 14.74 14.74 0 0 1-3.293-2.557 12.22 12.22 0 0 1-2.38-3.576 12.394 12.394 0 0 1 .263-9.981A12.8 12.8 0 0 1 6.96 234.1a15.365 15.365 0 0 1 4.98-2.72 19.552 19.552 0 0 1 6.324-.979c2.858-.019 5.688.56 8.3 1.7a21.044 21.044 0 0 1 6.517 4.406l-3.445 4.079a18.002 18.002 0 0 0-5.105-3.427 15.449 15.449 0 0 0-6.323-1.237 11.055 11.055 0 0 0-6.793 1.917 6.256 6.256 0 0 0-2.573 5.317 5.94 5.94 0 0 0 .733 3.046 7.585 7.585 0 0 0 2.006 2.135c.836.64 1.735 1.196 2.684 1.659.969.48 1.965.933 2.989 1.36l7.139 3.018a30.817 30.817 0 0 1 4.067 2.067 14.593 14.593 0 0 1 3.293 2.72 11.762 11.762 0 0 1 2.186 3.617c.562 1.534.834 3.156.802 4.786a12.904 12.904 0 0 1-1.19 5.44 13.266 13.266 0 0 1-3.417 4.487 16.274 16.274 0 0 1-5.368 3.019 21.675 21.675 0 0 1-7.125 1.087c-6.655.056-13.037-2.591-17.64-7.315z"/>
  <path fill="#149cb5" d="M40.756 283.86v12.369h-6.013v-52.116h4.982l.515 4.218h.225a27.005 27.005 0 0 1 5.286-3.62 12.909 12.909 0 0 1 6.04-1.51c2.1-.03 4.18.436 6.079 1.361a11.902 11.902 0 0 1 4.4 3.77 17.935 17.935 0 0 1 2.643 5.878c.638 2.522.945 5.122.912 7.728a25.803 25.803 0 0 1-1.242 8.342 19.448 19.448 0 0 1-3.37 6.218 14.304 14.304 0 0 1-4.903 3.878 13.544 13.544 0 0 1-5.854 1.36 11.724 11.724 0 0 1-4.943-1.128 24.878 24.878 0 0 1-4.942-3.09zm0-11.24a15.895 15.895 0 0 0 4.691 2.98c1.263.524 2.604.819 3.965.871a8.353 8.353 0 0 0 4.07-1.02 9.801 9.801 0 0 0 3.225-2.872 14.238 14.238 0 0 0 2.127-4.558 22.38 22.38 0 0 0 .767-6.11 27.35 27.35 0 0 0-.516-5.443 12.458 12.458 0 0 0-1.652-4.259 8.015 8.015 0 0 0-2.933-2.721 8.823 8.823 0 0 0-4.282-.98 9.37 9.37 0 0 0-4.573 1.28 26.847 26.847 0 0 0-4.942 3.7zM72.233 236.412a4.895 4.895 0 0 1-3.256-1.108c-.843-.737-1.32-1.76-1.32-2.83 0-1.071.477-2.095 1.32-2.83 1.888-1.43 4.608-1.43 6.497 0 .846.733 1.326 1.758 1.326 2.83 0 1.071-.48 2.095-1.326 2.83a4.878 4.878 0 0 1-3.241 1.108zm-3.372 7.395h6.584v35.964H68.86zM80.457 244.078H85.6l.526 5.141h.23a29.606 29.606 0 0 1 5.492-4.293 12.8 12.8 0 0 1 6.747-1.722c3.842 0 6.649 1.175 8.421 3.524 1.773 2.35 2.672 5.825 2.7 10.427v22.616h-6.14v-21.808c0-3.374-.55-5.807-1.647-7.3a6.068 6.068 0 0 0-5.236-2.239 9.07 9.07 0 0 0-5.007 1.391 32.326 32.326 0 0 0-4.94 4.108v25.848h-6.14zM113.371 244.079h5.097l.528 5.14h.23a29.653 29.653 0 0 1 5.502-4.292 12.829 12.829 0 0 1 6.76-1.723c3.849 0 6.661 1.175 8.437 3.524 1.775 2.35 2.677 5.826 2.704 10.427v22.616h-6.274v-21.807c0-3.375-.55-5.808-1.65-7.3a6.085 6.085 0 0 0-5.245-2.24 9.1 9.1 0 0 0-5.016 1.391 32.372 32.372 0 0 0-4.948 4.108v25.848h-6.125zM146.3 271.2c-.091-3.858 2.05-7.432 5.524-9.224 3.682-2.137 9.486-3.632 17.413-4.483 0-1.136-.115-2.27-.345-3.383a8.079 8.079 0 0 0-1.23-2.934 6.633 6.633 0 0 0-2.333-2.065 7.826 7.826 0 0 0-3.756-.788 15.21 15.21 0 0 0-6.09 1.21 30.2 30.2 0 0 0-5.013 2.716l-2.527-4.293a40.949 40.949 0 0 1 6.353-3.206 21.531 21.531 0 0 1 8.285-1.548c4.538 0 7.83 1.358 9.873 4.075a17.904 17.904 0 0 1 3.066 10.95v22.456h-5.206l-.539-4.361h-.152a30.985 30.985 0 0 1-5.772 3.722 14.498 14.498 0 0 1-6.545 1.549 11.48 11.48 0 0 1-7.844-2.717 9.66 9.66 0 0 1-3.162-7.676zm6.2-.448a5.19 5.19 0 0 0 1.878 4.524 7.698 7.698 0 0 0 4.626 1.358 10.95 10.95 0 0 0 5.096-1.25c1.85-.999 3.562-2.227 5.095-3.654v-10.162a66.301 66.301 0 0 0-7.885 1.427 20.921 20.921 0 0 0-5.164 1.956 7.337 7.337 0 0 0-2.762 2.595 6.32 6.32 0 0 0-.884 3.206zM183.597 262.65h.236l15.903-19.069h6.933l-12.48 14.527 14.268 21.663h-6.932l-10.912-17.47-6.933 7.902v9.528h-6.225l-.084-52.988h6.226z"/>
  <path fill="#149cb5" d="M202.977 262.556c-.063-2.776.4-5.538 1.363-8.144a18.988 18.988 0 0 1 3.705-6.053 16.034 16.034 0 0 1 5.246-3.8 14.845 14.845 0 0 1 6.118-1.357 15.434 15.434 0 0 1 6.226 1.208 12.149 12.149 0 0 1 4.605 3.46 15.858 15.858 0 0 1 2.834 5.43 23.787 23.787 0 0 1 .981 7.07c.013 1.131-.064 2.261-.231 3.38h-24.689a14.49 14.49 0 0 0 3.666 9.406 11.276 11.276 0 0 0 8.57 3.46c1.659.02 3.309-.247 4.877-.787a21.576 21.576 0 0 0 4.265-2.063l2.193 4.072a31.387 31.387 0 0 1-5.368 2.633 18.718 18.718 0 0 1-6.717 1.126 18.053 18.053 0 0 1-6.908-1.357 16.353 16.353 0 0 1-5.586-3.76 17.39 17.39 0 0 1-3.733-5.985 22.303 22.303 0 0 1-1.417-7.94zm25.683-2.783c0-3.764-.795-6.636-2.385-8.618a8.08 8.08 0 0 0-6.69-2.972 9.084 9.084 0 0 0-3.733.787 10.355 10.355 0 0 0-3.215 2.253 12.034 12.034 0 0 0-2.384 3.61 16.628 16.628 0 0 0-1.24 4.927zM235.9 244.024h5.099l.527 6.475h.23a16.574 16.574 0 0 1 4.532-5.307 9.503 9.503 0 0 1 5.816-1.99 9.863 9.863 0 0 1 3.896.73l-1.204 5.307a14.586 14.586 0 0 0-1.65-.438c-.62-.107-1.25-.156-1.88-.146a8.206 8.206 0 0 0-4.843 1.844 14.585 14.585 0 0 0-4.383 6.396v22.876h-6.154z"/>
</svg>
