<svg xmlns="http://www.w3.org/2000/svg" viewBox="0 0 256.002 202.524">
  <defs>
    <linearGradient id="a" x1="128.12" x2="128.12" y1="33.915" y2="289.86" gradientTransform="translate(26.736 -26.735) scale(.79112)" gradientUnits="userSpaceOnUse" spreadMethod="repeat">
      <stop offset="0" stop-color="#575dff"/>
      <stop offset="1" stop-color="#62cbff"/>
    </linearGradient>
  </defs>
  <path fill="url(#a)" d="M9.69 202.125C3.737 200.684-.545 194.771.058 188.82.27 186.702.87 184.97 2.069 183 4.003 179.822 116.8 6.359 117.82 4.989c4.966-6.652 15.413-6.652 20.38 0 1.025 1.375 113.819 174.84 115.749 178.01.534.878 1.168 2.18 1.41 2.896 2.344 6.953-1.931 14.54-9.155 16.243-1.506.355-15.198.4-118.33.383-99.784-.015-116.85-.073-118.19-.396zm135.57-113.95 17.134-.133-17.035-26.145c-13.443-20.632-17.101-26.07-17.347-25.798-.172.19-9.381 14.28-20.466 31.31L87.392 98.37l15.194 15.141 25.543-25.204z" style="fill:url(#a)"/>
</svg>
