<?xml version="1.0" encoding="UTF-8"?>
<svg width="256" height="256" version="1.1" viewBox="0 0 256 256" xmlns="http://www.w3.org/2000/svg">
 <defs>
  <linearGradient id="linearGradient855" x1="128.12" x2="128.12" y1="33.915" y2="289.86" gradientTransform="matrix(.79112 0 0 .79112 26.736 -2.0002)" gradientUnits="userSpaceOnUse" spreadMethod="repeat">
   <stop stop-color="#575dff" offset="0"/>
   <stop stop-color="#62cbff" offset="1"/>
  </linearGradient>
 </defs>
 <path d="m9.6909 226.86c-5.9553-1.4414-10.237-7.3541-9.6343-13.305 0.21432-2.1179 0.81367-3.8517 2.0125-5.8214 1.9337-3.1773 114.73-176.64 115.75-178.01 4.9659-6.6518 15.413-6.6518 20.379 0 1.0263 1.3748 113.82 174.84 115.75 178.01 0.53413 0.87767 1.1684 2.1808 1.4095 2.8958 2.3448 6.9534-1.931 14.541-9.1541 16.243-1.5068 0.35521-15.198 0.39956-118.33 0.38344-99.784-0.0155-116.85-0.0728-118.19-0.39585zm135.57-113.95 17.133-0.133-17.035-26.145c-13.443-20.632-17.101-26.071-17.347-25.798-0.17171 0.19034-9.3811 14.279-20.466 31.309l-20.154 30.963 15.194 15.141 25.543-25.204z" fill="url(#linearGradient855)"/>
</svg>
