<svg xmlns="http://www.w3.org/2000/svg" viewBox="0 0 256 301.025">
  <path fill="#ff6c0c" d="M256 128c0 37.709-7.799 83.86-15.116 97.93-3.698 7.155-7.96 11.98-14.874 15.035-5.548 2.492-15.196 5.789-22.754 7.316-7.558 1.608-37.708 7.639-37.708 7.639v41.407c-.08 2.01-1.689 3.698-3.78 3.698-.803 0-1.607-.321-2.17-.723L90.211 255.92s-29.91-5.79-37.467-7.558c-7.638-1.85-17.126-4.905-22.593-7.397-6.915-3.055-11.176-7.96-14.875-15.035-4.02-7.639-8.12-24.684-11.095-44.784l150.11 6.995a11.324 11.324 0 0 0 11.337-11.337c0-5.709-4.18-10.452-9.648-11.256L8.925 144.24C3.859 143.116.08 138.613.08 133.226 0 131.457 0 129.77 0 128c0-37.709 7.88-83.86 15.196-97.93 3.698-7.155 8.04-11.819 14.874-15.035C51.538 4.905 95.598 0 128 0c44.221 0 82.332 8.12 97.93 15.035 6.914 3.055 11.176 7.96 14.874 15.035 3.94 7.639 8.04 24.603 11.015 44.623l-150.11-6.995a11.324 11.324 0 0 0-11.337 11.337c0 5.709 4.18 10.452 9.648 11.256 0 0 146.573 21.227 146.895 21.307 4.743.965 8.442 4.985 8.924 9.89.08 0 .161 4.904.161 6.512z"/>
</svg>
