<svg xmlns="http://www.w3.org/2000/svg" viewBox="0 0 256 418.319">
  <path fill="#fff" d="M217.619 99.408c-8.529-26.455-27.921-63.632-30.684-68.864l-2.406-4.574a533.076 533.076 0 0 0-4.806-9.363L170.985 0l-12.517 88.948-.436 3.235a525.09 525.09 0 0 0-29.859-.84c-10.598 0-20.62.31-30.034.85l-.386-3.247-4.393-31.179C93.366 57.715 85.217 0 85.217 0l-8.922 16.607a603.446 603.446 0 0 0-6.412 12.505l-.77 1.432c-2.77 5.237-22.347 42.48-30.93 68.94C13.423 104.265 0 109.382 0 109.382v216.216l127.999 92.72L256 325.6V109.382s-13.465-5.17-38.381-9.975z"/>
  <path fill="#3b3b63" d="m127.9 172.807-55.983 91.708-8.703 94.172 63.825 46.618.861.63 65.273-47.584-10.1-91.074H127.9z"/>
  <path fill="#dbdbdb" d="M126.954 404.967 8.18 318.857V118.062s43.918-16.753 118.936-16.753c75.02 0 118.616 16.753 118.616 16.753v200.797z"/>
  <path fill="#c6c6c6" d="m128.675 101.308-.163.002v303.652h.002l118.777-86.11V118.062s-43.598-16.753-118.616-16.753"/>
  <path fill="#3b3b63" d="M127.591 267.277v138.448l65.256-47.568-10.08-90.88z"/>
  <path fill="#53537a" d="m127.9 172.807-55.983 91.708-8.704 94.172 64.687 47.249z"/>
  <path fill="#bc9375" d="M155.74 331.842c0 15.582-14.315 23.306-27.447 23.306s-27.736-7.724-27.736-23.306"/>
  <path fill="#073251" d="M147.692 323.011c0 18.274-9.677 23.173-19.544 23.173-9.866 0-19.546-4.899-19.546-23.173"/>
  <path fill="#fff" d="M128.147 339.9c-10.543 0-15.669-7.864-15.669-24.03h5.027c0 18.926 7.186 18.926 10.642 18.926 3.455 0 10.642 0 10.642-18.926h5.026c0 16.166-5.127 24.03-15.668 24.03"/>
  <path fill="#c49a7e" d="M211.832 129.623c0-19.714-32.77-81.741-32.77-81.741l-11.085 78.664-9.949 16.607-29.819 1.233-.118.244v-.244l-29.823-1.233-9.946-16.607-11.085-78.664s-32.773 62.027-32.773 81.74l13.845 37.88s-6.987 63.627-3.797 71.957c3.18 8.332 25.27 36.195 25.27 36.195s-.066 23.424 5.982 40.264c4.315 12.026 13.822 16.904 22.925 16.904 13.944 0 19.4-13.006 19.4-13.006s5.585 13.006 19.53 13.006c9.1 0 18.598-4.87 22.923-16.904 6.041-16.833 5.98-40.264 5.98-40.264s22.085-27.863 25.271-36.195c3.188-8.332-3.8-71.957-3.8-71.957z"/>
  <path fill="#d8b7a0" d="m128.147 144.512-.057.118v-.243l-29.824-1.232-9.945-16.608-11.089-78.663s-32.77 62.027-32.77 81.74l13.842 37.88s-6.985 63.626-3.8 71.957c3.187 8.332 25.268 36.195 25.268 36.195s-.057 23.424 5.984 40.264c4.321 12.026 13.83 16.904 22.924 16.904 13.951 0 19.406-13.006 19.406-13.006s.025.046.063.13V144.513z"/>
  <path fill="#3b3b63" d="M198.291 171.23c-2.54-5.404 1.071-18.19 1.071-18.19-20.694-21.566-25.869-66.535-25.869-66.535-3.864 14.17-12.262 55.95-12.262 55.95s-15.445-5.849-33.015-5.877h-.131c-.965.005-1.916.03-2.866.061V312.93l1.312 1.953v-.965h.811v.965l.008-.965h1.602v.965-.965h.82v.965l14.304-21.236 3.11-59.633 17.81 20.654 22.944 6.814s8.584-6.22 8.584-6.198c3.645-5.188 4.854-9.608 5.735-11.9 3.187-8.345-3.968-72.154-3.968-72.154"/>
  <path fill="#53537a" d="m128.308 136.576-.061-.002v.002c-17.577.03-33.024 5.874-33.024 5.874s-8.4-41.777-12.261-55.948c0 0-5.173 44.97-25.87 66.534 0 0 3.612 12.788 1.072 18.191 0 0-7.156 63.812-3.969 72.143.88 2.295 2.098 6.712 5.738 11.901 0-.024 8.59 6.2 8.59 6.2l22.938-6.816 17.808-20.65 3.117 59.632 14.298 21.236v-.965h.818v.965-.965h.804V136.576z"/>
  <path fill="#333152" d="M169.78 211.144h-26.804v.287c0 9.507 8.094 17.208 17.588 17.208 9.497 0 17.59-7.703 17.59-17.208v-.287z"/>
  <path fill="#fff" d="M149.676 211.144v.287c0 5.655 4.482 10.237 10.054 10.237 5.57 0 10.05-4.582 10.05-10.237v-.287z"/>
  <path fill="#333152" d="M162.83 211.144h-4.71c-.046 0-.085.023-.126.032.584.124.908 1.469.782 2.365a2.707 2.707 0 0 1-2.652 2.341c.383 1.789 1.819 3.227 3.727 3.5 2.437.35 4.689-1.347 5.035-3.82.248-1.821-.614-4.418-2.055-4.418M105.076 211.144H78.274v.287c0 9.507 8.095 17.208 17.588 17.208 9.497 0 17.592-7.703 17.592-17.208v-.287z"/>
  <path fill="#fff" d="M84.976 211.144v.287c0 5.655 4.485 10.237 10.049 10.237 5.573 0 10.053-4.582 10.053-10.237v-.287z"/>
  <path fill="#333152" d="M98.13 211.144h-4.715c-.041 0-.085.023-.123.032.583.124.905 1.469.782 2.365-.19 1.368-1.331 2.318-2.655 2.341.388 1.789 1.824 3.227 3.728 3.5 2.436.35 4.693-1.347 5.034-3.82.252-1.821-.61-4.418-2.05-4.418"/>
  <path fill="#c49a7e" d="M167.758 203.03c1.125-1.253 10.68-12.26-2.1-12.26-11.546 0-19.854 9.46-22.056 12.26z"/>
  <path fill="#d8b7a0" d="M112.638 203.03c-2.2-2.8-10.508-12.26-22.059-12.26-12.772 0-3.217 11.007-2.098 12.26z"/>
  <path fill="#53537a" d="M120.991 206.376H72.109v4.667h48.882z"/>
  <path fill="#333152" d="M199.176 144.864c-14.213-20.288-18.672-53.27-19.059-56.284l2.593-18.385C193.264 92 204.337 117.88 205.096 128.68zm-3.63 92.293c-1.94 5.064-15.345 23.157-24.249 34.39l-1.485 1.883.007 2.404c0 .217-.007 22.394-5.577 37.914-4.027 11.217-12.972 12.429-16.626 12.429-9.252 0-13.245-8.611-13.385-8.922l-.529-8.066h-11.247l-.508 8.02c-.16.365-4.055 8.946-13.26 8.946-3.663 0-12.605-1.2-16.635-12.416-5.552-15.465-5.578-37.688-5.578-37.914l.008-2.403-1.485-1.875c-8.899-11.225-22.304-29.318-24.197-34.26-1.513-5.343.985-39.904 4.165-68.865l.175-1.607-2.509-6.858c8.62-9.176 14.67-21.804 18.842-33.825l.406 2.926L95.57 151.9l5.35-2.332c.134-.058 13.851-5.984 27.171-5.984 13.236 0 27.18 5.93 27.31 5.989l5.341 2.312 13.675-22.833.536-3.813c4.13 12.139 10.172 24.993 18.833 34.373l-2.627 7.197.175 1.606c3.178 28.967 5.676 63.528 4.212 68.74zm-75.74 100.245a26.17 26.17 0 0 0 4.831-2.831c1.302.388 2.551.388 3.51.388.954 0 2.19.009 3.483-.38a26.763 26.763 0 0 0 4.837 2.823c-2.245 1.704-5.009 2.662-8.313 2.662-3.323 0-6.1-.951-8.348-2.662zm8.487 14.509c-7.356 0-17.816-3.33-20.418-12.157.266.008.528.03.8.03 1.421 0 2.754-.131 4.042-.317 3.731 5.274 9.543 6.892 15.432 6.892 5.898 0 11.722-1.603 15.46-6.886 1.28.178 2.597.312 4.007.312.277 0 .543-.023.82-.031-2.577 8.827-12.897 12.157-20.143 12.157zM51.206 128.678c.76-10.8 11.825-36.677 22.381-58.485l2.814 19.94c-1.073 7.455-5.977 36.693-19.132 55.123zm167.158 1.108c0-20.822-30.05-78.451-33.483-84.954l-9.607-18.26-13.762 97.795-6.352 10.622c-6.132-2.091-16.568-5.01-27.077-5.01-10.497 0-20.863 2.909-26.969 5.003l-6.355-10.617-4.83-34.28c.006-.057.014-.133.014-.168l-.037-.005-8.93-63.34-9.81 18.26c-3.438 6.503-33.728 64.132-33.728 84.954v1.222l13.87 37.51c-2.218 20.453-6.452 64.879-3.126 73.562 2.072 5.429 10.048 16.639 16.794 25.624L55.89 353.69l12.51 8.962 6.612-62.55c.95 6.083 2.352 12.507 4.433 18.31 2.87 7.997 7.94 14.05 14.431 17.642.386 19.144 17.908 29.468 34.417 29.468 16.372 0 33.75-10.332 34.13-29.483 6.476-3.585 11.541-9.64 14.407-17.627 2.167-6.035 3.588-12.757 4.534-19.051l6.651 62.776 12.511-9.28-9.064-85.413c6.693-8.945 14.52-19.991 16.572-25.36 3.325-8.681-1.08-53.114-3.295-73.563l13.623-37.516v-1.22z"/>
  <path fill="#333152" d="M143.921 285.821h-31.443s-4.229 7.483-4.229 9.912c0 7.211 19.353 18.692 19.353 18.692s20.443-11.823 20.443-18.692c0-3.277-4.124-9.912-4.124-9.912"/>
  <path fill="#c49a7e" d="M137.86 307.803c-1.754-3.157-4.017-3.733-5.056-1.299-1.036 2.437-.444 6.971 1.31 10.121 1.754 3.16 4.02 3.735 5.053 1.3 1.04-2.436.45-6.972-1.307-10.122"/>
  <path fill="#d8b7a0" d="M118.434 307.803c-1.757 3.15-2.341 7.686-1.307 10.121 1.035 2.436 3.296 1.86 5.058-1.299 1.753-3.149 2.34-7.684 1.302-10.12-1.034-2.435-3.296-1.859-5.053 1.298"/>
</svg>
