<svg xmlns="http://www.w3.org/2000/svg" viewBox="0 0 249.389 249.132">
  <path fill="#010101" d="M93.114 3.933c32.268-8.276 67.93-3.453 96.387 14.11 35.84 21.432 59.237 61.975 59.833 103.71 1.31 42.15-20.659 83.943-55.963 106.864-39.293 26.434-93.648 27.446-133.775 2.322-40.9-24.41-64.774-73.644-58.642-120.915 4.942-49.95 43.52-94.006 92.16-106.091z"/>
  <path fill="#fff" d="M88.173 24.353c60.964-24.41 135.74 20.659 142.05 86.028 9.823 58.82-38.995 118.594-98.59 120.32-56.677 5.656-111.449-42.389-113.056-99.304-4.227-46.08 26.135-91.803 69.596-107.044z"/>
  <path fill="#010101" d="M94.305 118.24c27.326-22.326 54.058-45.425 81.98-67.096-14.646 22.504-29.708 44.71-44.354 67.215-12.562.06-25.124.06-37.626-.12zM117.404 130.682c12.622 0 25.184 0 37.746.18-27.506 22.206-54.118 45.484-82.099 67.095 14.646-22.504 29.708-44.77 44.353-67.275z"/>
</svg>
