<svg xmlns="http://www.w3.org/2000/svg" viewBox="0 0 255.956 229.029">
  <path fill="#fff" d="m54.335 215.771-50.808-88.12a26.437 26.437 0 0 1 0-26.383l50.808-88.054A26.411 26.411 0 0 1 77.192 0h101.55c9.427 0 18.178 5.029 22.858 13.214l50.83 88.098a26.437 26.437 0 0 1 0 26.383l-50.808 88.12a26.411 26.411 0 0 1-22.857 13.214H77.257a26.643 26.643 0 0 1-22.922-13.258z"/>
  <path fill="#7c4dff" d="m58.667 209.785-47.783-82.873a24.779 24.779 0 0 1 0-24.817L58.667 19.2A24.882 24.882 0 0 1 80.196 6.77h95.565c8.86 0 17.088 4.724 21.529 12.43l47.826 82.852a24.779 24.779 0 0 1 0 24.816l-47.804 82.939a24.882 24.882 0 0 1-21.53 12.43H80.24a24.92 24.92 0 0 1-21.572-12.452z"/>
  <path fill="#f7f7f7" d="M71.572 95.174a11.707 11.707 0 0 1-3.501-8.426c0-17.175 13.91-31.085 31.085-31.064h59.037c12.256 0 22.204 9.949 22.204 22.204v18.439c0 1.219-.98 2.22-2.22 2.22h-42.742l40.609 40.62c.064.065.128.13.19.196a10.715 10.715 0 0 1 4.163 8.49c0 17.742-14.41 32.152-32.152 32.152H89.49c-11.82 0-21.442-9.6-21.42-21.464v-19.287c0-1.153.914-2.133 2.133-2.133h43.233L72.424 96.11a12.5 12.5 0 0 1-.852-.935z"/>
  <path fill="#444" d="m113.415 137.121 33.546 33.567-43.08-33.567zM146.96 98.547 101.508 64.61l33.938 33.937z" opacity=".3"/>
</svg>
