<svg xmlns="http://www.w3.org/2000/svg" viewBox="0 0 255.506 129.201">
  <path fill="#201f26" d="M51.302 89.224c-2.951-1.571-6.286-2.677-9.911-3.289-3.56-.6-7.183-.902-10.766-.902a52.43 52.43 0 0 1-8.808-.752c-2.84-.483-5.411-1.374-7.648-2.648-2.176-1.238-3.975-2.972-5.351-5.154-1.357-2.147-2.044-4.994-2.044-8.429.065-3.033.77-5.628 2.097-7.714a15.798 15.798 0 0 1 5.22-5.119c2.172-1.31 4.679-2.273 7.451-2.862 4.721-1.002 9.708-1.19 14.788-.48 1.982.279 3.943.773 5.827 1.47 1.85.685 3.59 1.626 5.168 2.79 1.556 1.151 2.93 2.596 4.086 4.293l.647.95 4.767-2.006-1.012-1.429a31.502 31.502 0 0 0-4.273-4.907c-1.57-1.449-3.413-2.68-5.482-3.657-2.043-.963-4.38-1.705-6.95-2.204-2.544-.494-5.51-.743-8.814-.743-3.17 0-6.445.363-9.73 1.08-3.334.73-6.426 1.936-9.189 3.586a20.882 20.882 0 0 0-6.913 6.678c-1.794 2.793-2.705 6.239-2.705 10.244 0 4.204.845 7.782 2.508 10.634 1.654 2.834 3.872 5.131 6.592 6.825 2.663 1.662 5.77 2.856 9.236 3.55a53.827 53.827 0 0 0 10.532 1.02c2.864 0 5.897.217 9.016.649 3.035.419 5.86 1.264 8.394 2.513 2.47 1.22 4.527 2.915 6.113 5.04 1.534 2.059 2.313 4.838 2.313 8.26 0 3.073-.75 5.694-2.226 7.794-1.526 2.17-3.507 3.961-5.89 5.323-2.433 1.39-5.188 2.415-8.193 3.043-3.052.64-6.073.963-8.976.963-4.875 0-9.691-.931-14.316-2.769a34.21 34.21 0 0 1-12.133-8.158l-.925-.963L0 115.04l1.067 1.067c3.402 3.405 7.628 6.369 12.555 8.813 4.988 2.476 10.895 3.73 17.554 3.73 3.167 0 6.527-.362 9.99-1.075 3.512-.727 6.807-1.966 9.793-3.69 3.033-1.749 5.557-4.038 7.504-6.803 2-2.841 3.014-6.395 3.014-10.57 0-4.23-.95-7.812-2.826-10.647-1.851-2.794-4.323-5.03-7.349-6.64M96.146 124.185c-3.439 0-6.583-.71-9.347-2.11a24.1 24.1 0 0 1-7.349-5.733c-2.088-2.4-3.747-5.207-4.93-8.344a31.28 31.28 0 0 1-2.005-9.76c0-3.056.567-6.18 1.682-9.285a27.246 27.246 0 0 1 4.824-8.39c2.082-2.463 4.615-4.503 7.532-6.067 2.867-1.535 6.094-2.314 9.593-2.314 3.29 0 6.397.729 9.235 2.163a25.176 25.176 0 0 1 7.524 5.799c2.121 2.401 3.815 5.21 5.037 8.347a26.827 26.827 0 0 1 1.834 9.748c0 3.053-.566 6.178-1.68 9.285a27.236 27.236 0 0 1-4.826 8.392 24.936 24.936 0 0 1-7.52 6.004c-2.868 1.504-6.099 2.265-9.604 2.265m20.864-47.043c-2.495-2.915-5.527-5.326-9.014-7.166-3.536-1.866-7.523-2.81-11.85-2.81-3.942 0-7.708.845-11.193 2.509a29.202 29.202 0 0 0-9.094 6.776c-2.563 2.83-4.619 6.165-6.109 9.91-1.493 3.749-2.25 7.746-2.25 11.878 0 3.905.698 7.728 2.076 11.361a32.466 32.466 0 0 0 5.821 9.797c2.499 2.884 5.537 5.241 9.031 7.006 3.52 1.78 7.455 2.721 11.693 2.798h.052c4.01-.077 7.808-.98 11.286-2.679a29.908 29.908 0 0 0 9.084-6.826c2.564-2.832 4.601-6.13 6.054-9.801 1.456-3.68 2.195-7.602 2.195-11.656 0-3.671-.679-7.413-2.014-11.12-1.338-3.707-3.279-7.063-5.768-9.977M150.761 122.794c-.843.21-1.586.37-2.205.473a92.12 92.12 0 0 1-2.12.326c-.702.1-1.395.151-2.062.151-1.683 0-2.921-.557-3.789-1.705-.957-1.264-1.423-2.519-1.423-3.838V44.778h-5.016V118.2c0 2.756.87 5.193 2.587 7.242 1.778 2.129 4.312 3.206 7.53 3.206 1.01 0 2.011-.059 2.98-.175a89.601 89.601 0 0 0 2.524-.336c.768-.116 1.656-.29 2.643-.516l1.7-.393-2.232-4.714zM172.403 72.22c-2.61 1.833-4.914 4.162-6.886 6.95V68.048H160.5v60.05h5.016V90.712c.695-2.449 1.651-4.746 2.846-6.829a21.716 21.716 0 0 1 4.453-5.49c1.749-1.543 3.785-2.795 6.055-3.723 2.263-.926 4.816-1.468 7.59-1.607l1.335-.067v-4.948h-1.405c-5.345 0-10.051 1.404-13.988 4.171"/>
  <path fill="#c7402b" d="M244.06 13.357 202.526 58.26l52.198-24.082a42.138 42.138 0 0 0-10.664-20.821zM213.243 0a42.111 42.111 0 0 0-16.236 3.237l-5.573 46.964L219.284.437a42.486 42.486 0 0 0-6.04-.437zm41.895 36.765-49.46 27.68 46.404-5.507a42.109 42.109 0 0 0 3.424-16.675c0-1.866-.134-3.697-.368-5.498zm-18.235 40.521a42.475 42.475 0 0 0 13.356-14.624L206.763 71.3zM221.83.875l-24.212 52.478 44.914-41.542C236.899 6.392 229.776 2.515 221.83.875zm-5.054 83.492a41.999 41.999 0 0 0 13.266-3.32l-24.365-2.891zm-42.057-59.478a41.993 41.993 0 0 0-3.56 13.583l6.564 11.73zm18.626-19.914a42.46 42.46 0 0 0-14.892 13.3l6.126 30.84z"/>
</svg>
