<svg xmlns="http://www.w3.org/2000/svg" viewBox="0 0 255.904 260.743">
  <path fill="#f96316" d="M74.149 33.21 131.1 241.404c3.828 13.992 18.271 22.231 32.254 18.4 13.994-3.832 22.225-18.28 18.395-32.269l-56.962-208.2C120.957 5.348 106.517-2.894 92.533.94 78.553 4.765 70.32 19.217 74.15 33.208z"/>
  <path fill="#b200f8" d="M179.608 32.422 36.992 193.466c-9.621 10.86-8.616 27.465 2.233 37.087 10.85 9.621 27.438 8.618 37.058-2.238L218.9 67.273c9.62-10.86 8.615-27.458-2.234-37.083-10.853-9.629-27.445-8.623-37.058 2.23z"/>
  <path fill="#00b4f2" d="m18.01 121.663 203.388 67.292c13.764 4.553 28.614-2.919 33.167-16.695 4.562-13.775-2.911-28.631-16.682-33.19L34.502 71.785c-13.77-4.557-28.614 2.915-33.169 16.691-4.55 13.775 2.924 28.635 16.682 33.188z"/>
</svg>
