<svg xmlns="http://www.w3.org/2000/svg" viewBox="0 0 255.372 321.627">
  <defs>
    <linearGradient id="a" x1="267.605" x2="267.605" y1="161.727" y2="64.691" gradientTransform="scale(.71636 1.39595)" gradientUnits="userSpaceOnUse">
      <stop offset="18%" stop-color="#0052CC"/>
      <stop offset="100%" stop-color="#2684FF"/>
    </linearGradient>
  </defs>
  <path fill="#2684ff" d="M255.188 127.521c0-70.428-57.093-127.52-127.52-127.52C64.897-.09 11.403 45.53 1.581 107.527c-9.823 61.997 26.949 121.918 86.672 141.236v63.895a8.968 8.968 0 0 0 8.968 8.968h60.532a8.968 8.968 0 0 0 8.968-8.968v-63.85c52.674-16.961 88.406-65.95 88.466-121.288zm-127.52 43.09c-23.811 0-43.113-19.302-43.113-43.112 0-23.81 19.302-43.113 43.112-43.113 23.81 0 43.112 19.302 43.112 43.113 0 23.81-19.302 43.112-43.112 43.112z"/>
  <path fill="url(#a)" d="M127.941 0V84.43c23.81 0 43.112 19.302 43.112 43.112 0 23.81-19.302 43.112-43.112 43.112a39.413 39.413 0 0 1 39.413 39.414v38.785c59.746-19.322 96.533-79.262 86.71-141.281C244.243 45.553 190.735-.085 127.942 0z" style="fill:url(#a)" transform="translate(-.274)"/>
</svg>
