<svg xmlns="http://www.w3.org/2000/svg" viewBox="0 0 510.714 133.146">
  <path fill="#55555a" d="m0 118.609 7.976-9.648c5.532 4.631 11.32 7.461 18.396 7.461 5.532 0 8.876-2.187 8.876-5.789v-.128c0-3.474-2.058-5.146-12.478-7.848-12.221-3.216-20.326-6.69-20.326-18.91v-.129c0-11.192 9.005-18.653 21.612-18.653 9.005 0 16.595 2.83 22.899 7.847l-7.076 10.163c-5.403-3.73-10.806-6.046-16.08-6.046-5.146 0-7.976 2.444-7.976 5.403v.128c0 4.117 2.702 5.403 13.25 8.105 12.479 3.216 19.554 7.718 19.554 18.524v.13c0 12.22-9.39 19.167-22.641 19.167-9.134 0-18.525-3.216-25.986-9.777zm57.118-52.744h25.214c14.665 0 23.67 8.748 23.67 21.355v.129c0 14.28-11.063 21.74-24.957 21.74H70.754v18.525H57.118zM81.43 96.997c6.818 0 10.806-4.117 10.806-9.391v-.129c0-6.046-4.245-9.39-11.063-9.39l-10.549 61.748V96.997zm43.739-31.518h12.478l26.5 62.135h-14.15l-5.66-13.893h-26.115l-5.66 13.893H98.798zm14.28 36.278-8.234-20.069-8.233 20.069zm31.13-35.892h28.174c7.847 0 13.893 2.187 18.01 6.304 3.473 3.473 5.274 8.233 5.274 14.15v.13c0 9.905-5.403 16.208-13.25 19.167l15.051 21.998h-15.823l-13.25-19.682h-10.678v19.682h-13.636V65.865zm27.273 29.974c6.561 0 10.42-3.473 10.42-8.748v-.128c0-5.79-4.116-8.877-10.677-8.877h-13.508V95.84zm96.354-29.974h22.384c13.636 0 22.898 6.947 22.898 18.91v.13c0 12.992-11.192 19.682-24.056 19.682h-16.595v23.027h-4.631zm21.483 34.477c11.45 0 19.168-6.047 19.168-15.18v-.129c0-9.777-7.59-14.922-18.653-14.922H298.71v30.23zm97.255 18.267 2.959-3.473c6.818 6.303 12.992 9.133 22.126 9.133 9.262 0 15.566-5.145 15.566-12.22v-.13c0-6.56-3.473-10.29-17.495-13.121-14.794-2.959-20.84-7.976-20.84-17.367v-.128c0-9.134 8.361-16.21 19.81-16.21 9.005 0 14.923 2.445 21.098 7.462l-2.959 3.602c-5.789-5.017-11.578-6.947-18.396-6.947-9.134 0-15.051 5.146-15.051 11.578v.129c0 6.56 3.345 10.548 18.01 13.507 14.28 2.959 20.325 7.976 20.325 16.981v.129c0 9.905-8.49 16.852-20.454 16.852-9.777 0-17.367-3.216-24.7-9.777zm71.654-48.498h-21.483v-4.246h47.598v4.246l-21.484 61.748v-4.245H484.6zM244.937 91.85l21.354-25.986h16.595l-25.085 29.331 26.886 32.418h-17.495l-22.255-27.658v27.53h-13.508v-61.75h13.508z"/>
  <path fill="#fa6423" d="M398.794 51.843c-6.818 5.146-8.233 14.28-8.362 20.454C379.626 59.69 410.501 22.77 375.381 0c21.74 28.173-31.003 55.96-31.003 97.512 0 16.337 10.163 30.617 32.547 35.634 21.869-4.631 32.804-19.297 32.804-35.634-.129-24.314-15.309-32.419-10.935-45.669zm-21.87 67.924c-11.963 0-21.611-9.648-21.611-21.612 0-11.964 9.648-21.612 21.612-21.612 11.963 0 21.612 9.648 21.612 21.612 0 11.964-9.777 21.612-21.612 21.612z"/>
</svg>
