<svg xmlns="http://www.w3.org/2000/svg" viewBox="0 0 254.796 256.732">
  <g fill="#ffa64d">
    <path d="M12.657 182.124C29.443 165.057 243.714 3.86 247.371 7.519c2.813 2.813-156.507 219.616-173.386 236.589-16.88 16.973-44.26 16.785-61.14-.282-16.973-17.066-16.973-44.73-.188-61.702z" opacity=".5"/>
    <path d="M22.128 174.528c20.63-12.097 230.12-95.18 232.651-90.678 1.97 3.47-168.791 154.537-189.515 166.54-20.63 12.003-46.98 4.783-58.89-16.222-11.909-20.818-4.876-47.543 15.754-59.64z" opacity=".3"/>
    <path d="M81.487 234.355C93.49 213.538 175.822 2.55 171.415.017 167.945-1.953 18.096 170.12 6.093 190.938c-11.909 20.818-4.688 47.356 16.13 59.265 20.723 12.003 47.26 4.876 59.264-15.848z" opacity=".3"/>
    <path d="M32.162 170.12c23.068-6.282 216.522-30.194 217.928-25.224 1.032 3.845-172.73 103.431-195.797 109.714-23.069 6.283-46.7-7.595-52.795-30.945-6.095-23.35 7.69-47.261 30.664-53.544z" opacity=".2"/>
    <path d="M32.162 170.12c23.068-6.282 179.388 29.07 180.7 33.947 1.032 3.844-135.595 44.167-158.663 50.45-23.068 6.282-46.7-7.596-52.794-30.946-6.002-23.255 7.783-47.167 30.757-53.45z" opacity=".1"/>
    <path d="M85.894 224.134c6.283-23.256-28.882-180.7-33.852-182.013C48.197 41.089 8.25 178.654 2.062 201.91c-6.19 23.255 7.595 47.074 30.757 53.075 23.068 6.19 46.886-7.595 53.075-30.851z" opacity=".1"/>
    <path d="M85.894 224.134c6.283-23.256 29.914-218.116 25.037-219.429-3.844-1.031-102.587 173.95-108.87 197.299-6.189 23.255 7.596 47.074 30.758 53.075 23.068 6.19 46.886-7.69 53.075-30.945z" opacity=".2"/>
  </g>
</svg>
