<svg xmlns="http://www.w3.org/2000/svg" viewBox="0 0 255.548 290.651">
  <path fill="#253351" d="M11.194 175.569c1.217-.724 2.352-1.456 3.57-2.18 34.643-21.015 73.802-31.477 113.06-31.477 39.166 0 78.341 10.47 112.96 31.477 1.217.724 2.352 1.456 3.578 2.18 6.728 5.033 11.186 12.979 11.186 22.067 0 15.24-12.33 27.57-27.578 27.57-5.758 0-11.112-1.785-15.562-4.787-17.766-10.791-37.144-17.766-57.023-21.163v63.817c0 15.258-12.403 27.579-27.57 27.579-15.24 0-27.652-12.33-27.652-27.579v-63.817c-19.872 3.397-39.258 10.372-57.023 21.163-4.376 3.002-9.73 4.787-15.562 4.787-15.24 0-27.578-12.33-27.578-27.57 0-9.088 4.466-17.025 11.194-22.067z"/>
  <path fill="#4690dc" d="M11.194 115.075c1.217.723 2.352 1.464 3.57 2.187 12.238 7.427 25.07 13.473 38.254 18.268a218.47 218.47 0 0 1 74.805-13.218c25.316 0 50.624 4.442 74.707 13.218 13.184-4.795 26.007-10.832 38.254-18.268 1.217-.723 2.352-1.464 3.57-2.187 6.728-5.018 11.194-12.98 11.194-22.06 0-15.24-12.33-27.578-27.578-27.578-5.832 0-11.195 1.785-15.562 4.795-17.766 10.791-37.144 17.766-57.023 21.163V27.57c0-15.24-12.412-27.57-27.652-27.57-15.167 0-27.57 12.33-27.57 27.57v63.825C80.29 87.998 60.905 81.023 43.14 70.232a27.647 27.647 0 0 0-15.554-4.786C12.346 65.446.008 77.783.008 93.024c-.008 9.072 4.458 17.025 11.186 22.05z"/>
</svg>
