<svg xmlns="http://www.w3.org/2000/svg" viewBox="0 0 256 255.975">
  <path fill="#4295c2" d="M60.041 162.473c11.41.062 20.895-4.332 29.1-12.125 21.014-19.96 42.109-39.834 63.229-59.683 22.604-21.245 55.503-23.616 80.2-5.868 27.733 19.932 31.658 58.66 7.417 82.641-24.652 24.388-50.28 47.787-75.49 71.61-3.1 2.928-6.107 5.978-9.408 8.664-20.397 16.597-51.905 6.95-57.953-17.868-3.012-12.363.677-23.022 9.88-31.734 17.655-16.71 35.353-33.375 53.033-50.057 8.065-7.61 15.969-15.403 24.306-22.702 2.36-2.066 9.37-7.692 15.752-1.31 6.381 6.382 2.84 11.71-.376 14.742-12.724 11.994-25.425 24.01-38.145 36.006-12.72 11.998-25.467 23.966-38.172 35.979-7.221 6.827-8.133 14.48-2.536 20.557 5.73 6.22 15.277 6.265 22.102-.152 26.718-25.125 53.447-50.238 80.007-75.53 11.382-10.837 15.035-24.1 9.17-38.872-5.913-14.893-17.778-22.433-33.543-23.688-12.332-.98-22.747 3.46-31.68 11.946a13877.596 13877.596 0 0 1-63.556 59.97c-24.209 22.706-60.722 23.382-84.814 1.682-23.43-21.105-25.1-56.538-2.619-78.613C43.223 61.28 71.198 35.193 99.225 9.183c10.185-9.452 22.747-11.392 35.835-6.81 12.339 4.319 20.231 13.048 22.323 26.163 1.822 11.428-2.41 20.862-10.719 28.679-19.567 18.41-39.095 36.864-58.643 55.296-5.48 5.169-10.894 10.415-16.493 15.453-4.421 3.976-10.67 3.969-14.733.294-4.604-4.165-4.326-10.347.847-15.24 16.107-15.243 32.265-30.432 48.4-45.645 8.275-7.801 16.56-15.591 24.81-23.419 6.78-6.434 7.643-13.725 2.362-19.401-5.461-5.87-14.471-5.84-20.953.274-26.065 24.575-52.1 49.179-78.1 73.822-12.462 11.813-16.047 26.256-10.252 40.566 5.677 14.015 20.057 23.275 36.132 23.258"/>
</svg>
