<svg xmlns="http://www.w3.org/2000/svg" viewBox="0 0 512.003 138.07">
  <path fill="#6db33f" d="M271.147 34.618c15.659 0 31.032 12.385 31.032 34.733v.285c0 22.206-15.231 34.732-31.032 34.732-11.103 0-18.078-5.551-22.775-11.814v23.63a7.653 7.653 0 0 1-7.442 7.682l-.245.004c-4.128 0-7.544-3.416-7.544-7.544V42.59c-.143-4.128 3.274-7.545 7.402-7.687h.142a7.653 7.653 0 0 1 7.683 7.441l.004.246v4.555c4.982-6.975 11.957-12.527 22.776-12.527zm202.703-.142c10.646 0 17.57 5.377 22.537 12.196l.238.33v-4.555l.004-.245a7.652 7.652 0 0 1 7.433-7.437l.25-.004h.143c4.188.14 7.555 3.428 7.548 7.583l-.004.246v46.69c0 11.245-2.989 19.644-8.54 25.195-5.98 6.121-15.374 8.968-27.474 8.968-8.967 0-17.793-1.993-25.907-5.979-2.562-.854-4.27-3.416-4.27-6.12.142-3.56 2.99-6.264 6.548-6.264.996 0 1.85.143 2.704.57 6.264 3.558 13.381 5.266 20.498 5.266 12.954 0 20.356-6.263 21.068-18.362-4.698 6.12-11.673 11.672-22.776 11.672-15.642 0-30.727-12.277-31.027-34.07l-.005-.663v-.284c0-22.349 15.374-34.733 31.032-34.733zm-60.783.427c15.09 0 23.772 10.107 23.772 25.623v36.013c.143 4.128-3.131 7.402-7.26 7.545h-.284c-4.128.142-7.544-3.274-7.687-7.402V65.223c0-10.391-5.124-16.37-14.377-16.37-8.825 0-15.089 6.263-15.089 16.655v31.174a7.655 7.655 0 0 1-7.686 7.686 7.655 7.655 0 0 1-7.687-7.686l.142-53.95c-.142-4.128 3.274-7.544 7.402-7.687h.143a7.653 7.653 0 0 1 7.683 7.442l.004.245v3.132c4.555-7.118 12.526-11.246 20.925-10.961zm-211.812-.142c7.402.142 14.52 1.993 21.067 5.409 2.278 1.139 3.701 3.274 3.701 5.836 0 3.416-2.847 6.263-6.263 6.263h-.142c-.997 0-1.993-.284-2.99-.711-4.84-2.705-10.106-4.27-15.658-4.555-5.978 0-9.395 2.846-9.395 6.548v.284c0 4.982 7.26 6.975 15.089 9.537l.642.198.645.202c.753.238 1.51.488 2.264.75l.647.228c8.503 3.047 16.585 7.856 16.585 18.124v.285c0 14.092-10.961 21.067-24.769 21.067-9.11-.142-18.078-2.847-25.622-7.971-1.85-1.14-2.99-3.132-2.847-5.267 0-3.416 2.704-6.263 6.12-6.263h.143c1.139 0 2.278.284 3.274.854 5.694 3.985 12.384 6.12 19.217 6.405 6.548 0 10.391-2.847 10.391-7.26v-.284c0-5.267-7.117-6.975-14.946-9.395-.819-.237-1.646-.482-2.475-.74l-.622-.195c-8.918-2.838-17.828-7.232-17.828-18.709v-.285c0-12.669 10.534-20.355 23.772-20.355zm160.14.284a7.653 7.653 0 0 1 7.683 7.442l.004.245v53.95c0 4.27-3.416 7.544-7.686 7.544s-7.545-3.416-7.545-7.544v-53.95c-.142-4.128 3.274-7.544 7.402-7.687zM347.73 41.31v1.138c0 3.701-2.562 6.833-6.12 7.402-10.962 1.851-18.364 11.388-18.364 24.627v22.063c0 4.27-3.416 7.545-7.686 7.545-4.047 0-7.41-3.147-7.54-7.16l-.005-.243v-.142l.143-53.95c-.143-4.127 3.273-7.544 7.402-7.686h.142a7.653 7.653 0 0 1 7.683 7.441l.004.246v3.7c.712-5.693 10.107-11.387 16.797-11.387 3.843-.285 7.26 2.562 7.544 6.406zm-79.999 6.69c-10.391 0-19.502 8.683-19.502 21.352v.285c0 12.811 9.11 21.352 19.502 21.352 10.391 0 19.074-8.114 19.074-21.352v-.285c0-12.954-8.683-21.352-19.074-21.352zm209.677-.142c-10.284 0-18.895 8.226-19.071 20.953l-.003.399v.284c0 13.239 8.54 21.495 19.074 21.495 10.426 0 19.458-8.507 19.503-21.104v-.675c0-12.67-9.111-21.352-19.502-21.352zM369.225 16.256v.284a7.655 7.655 0 0 1-7.687 7.687 7.655 7.655 0 0 1-7.687-7.687 7.653 7.653 0 0 1 7.441-7.683l.246-.004c4.128-.142 7.544 3.274 7.687 7.403zM21.043 19.387c27.33-26.476 71.032-25.765 97.508 1.708 2.99-3.985 5.552-8.398 7.402-12.953 8.683 26.476 13.95 48.683 11.957 65.907-.996 14.519-6.69 28.469-16.085 39.572-24.484 29.039-68.042 32.74-97.08 8.256l-.559-.496-.097-.067a5.622 5.622 0 0 1-.916-.813l-.077-.089-.914-.812c-.854-.732-1.708-1.465-2.473-2.286l-.374-.419c-26.477-27.33-25.622-71.031 1.708-97.508zm10.25 92.668c-2.563-1.993-6.264-1.708-8.257.854-1.737 2.234-1.744 5.333-.019 7.412l.079.091 1.09.969.107.073c2.466 1.624 5.778 1.307 7.697-.95l.156-.193c1.993-2.562 1.566-6.263-.854-8.256zM125.24 15.26c-7.117 14.947-24.768 26.334-40 29.893-5.867 1.394-11.427 1.745-16.853 2.02l-1.624.082c-7.291.365-14.37.768-21.664 3.592-30.178 11.53-29.608 47.402-13.096 55.515l.996.57s10.927-2.173 22.206-5.105l1.01-.265.506-.134 1.01-.27c4.712-1.27 9.346-2.653 13.133-4.048 19.644-7.26 41.28-25.196 48.398-45.978-3.701 21.636-22.349 42.561-40.996 52.099-9.964 5.124-17.651 6.263-34.021 11.957-1.993.712-3.559 1.423-3.559 1.423l.282-.038.561-.074.558-.07c3.612-.448 6.855-.672 6.855-.672 23.203-1.139 59.644 6.548 76.583-16.085 17.366-23.06 7.687-60.355-.285-84.412z"/>
  <path fill="#fff" d="M31.292 112.055c2.42 1.993 2.847 5.694.854 8.256-1.993 2.563-5.694 2.847-8.256.854-2.562-1.992-2.847-5.693-.854-8.256 1.993-2.562 5.694-2.847 8.256-.854zm93.95-96.796c7.97 24.057 17.65 61.352.284 84.412-16.94 22.633-53.38 14.946-76.583 16.085 0 0-4.128.285-8.256.854 0 0 1.566-.711 3.559-1.423 16.37-5.694 24.057-6.833 34.02-11.957 18.648-9.538 37.296-30.463 40.997-52.1-7.118 20.783-28.754 38.72-48.398 45.979-3.516 1.295-7.764 2.58-12.124 3.774l-1.008.274C45.619 104.422 33 106.931 33 106.931l-.996-.57C15.492 98.248 14.922 62.376 45.1 50.846c13.238-5.125 25.765-2.278 40.142-5.694 15.231-3.559 32.882-14.946 40-29.893z"/>
</svg>
