<svg xmlns="http://www.w3.org/2000/svg" viewBox="0 0 256.003 255.52">
  <path fill="#6db33f" d="M38.944 35.879c50.58-48.999 131.454-47.682 180.453 3.161 5.532-7.376 10.274-15.542 13.699-23.972 16.07 48.999 25.817 90.095 22.128 121.97-1.844 26.87-12.381 52.687-29.768 73.235-45.31 53.741-125.922 60.59-179.663 15.28l-1.028-.915-.055-.036a10.404 10.404 0 0 1-1.834-1.607l-.144-.164-1.68-1.493c-1.64-1.405-3.279-2.81-4.733-4.4l-.536-.606c-49-50.58-47.419-131.454 3.16-180.453zM57.91 207.376c-4.742-3.688-11.591-3.162-15.28 1.58-3.242 4.17-3.226 9.969.049 13.815l.052.06 2.033 1.807.2.136c4.604 3.028 10.8 2.402 14.333-1.878l.194-.241c3.688-4.742 2.898-11.591-1.58-15.28zM231.78 28.239C218.607 55.9 185.94 76.975 157.753 83.561c-26.607 6.322-49.79 1.054-74.289 10.537-55.848 21.339-54.794 87.724-24.236 102.74l1.844 1.054s22.074-4.389 43.902-10.185l1.87-.5c8.718-2.35 17.295-4.91 24.302-7.492 36.354-13.435 76.397-46.628 89.568-85.09-6.849 40.042-41.359 78.767-75.87 96.418-18.44 9.483-32.665 11.59-62.96 22.128a94.751 94.751 0 0 0-6.586 2.635l1.108-.15.736-.095.733-.092c6.69-.83 12.702-1.244 12.702-1.244 42.94-2.108 110.38 12.118 141.729-29.768 32.139-42.677 14.225-111.697-.527-156.218z"/>
  <path fill="#fff" d="M57.911 207.376c4.479 3.688 5.269 10.537 1.58 15.279-3.687 4.742-10.537 5.269-15.279 1.58-4.741-3.688-5.268-10.537-1.58-15.279 3.688-4.742 10.537-5.268 15.28-1.58zM231.78 28.239c14.752 44.521 32.666 113.541.527 156.218-31.35 41.886-98.789 27.66-141.729 29.768 0 0-6.012.415-12.702 1.244l-.733.092c-.612.078-1.228.16-1.844.245 0 0 2.898-1.318 6.586-2.635 30.295-10.537 44.52-12.645 62.96-22.128 34.511-17.65 69.021-56.376 75.87-96.418-13.171 38.462-53.214 71.655-89.568 85.09-25.026 9.22-70.074 18.177-70.074 18.177l-1.844-1.054c-30.558-15.016-31.612-81.401 24.236-102.74 24.5-9.483 47.682-4.215 74.29-10.537 28.187-6.586 60.853-27.66 74.025-55.322z"/>
</svg>
