<svg xmlns="http://www.w3.org/2000/svg" xmlns:xlink="http://www.w3.org/1999/xlink" viewBox="0 0 256 279.834">
  <defs>
    <path id="a" d="m25.484 51.303 77.032-44.475a50.97 50.97 0 0 1 50.968 0l77.032 44.475A50.967 50.967 0 0 1 256 95.442v88.95a50.967 50.967 0 0 1-25.484 44.139l-77.032 44.475a50.97 50.97 0 0 1-50.968 0l-77.032-44.475A50.969 50.969 0 0 1 0 184.392v-88.95a50.969 50.969 0 0 1 25.484-44.139"/>
  </defs>
  <mask id="b" fill="#fff">
    <use width="100%" height="100%" xlink:href="#a"/>
  </mask>
  <use width="100%" height="100%" fill="#fff" xlink:href="#a"/>
  <path fill="#2f4154" d="m25.484 51.303 77.032-44.475a50.97 50.97 0 0 1 50.968 0l77.032 44.475A50.967 50.967 0 0 1 256 95.442v88.95a50.967 50.967 0 0 1-25.484 44.139l-77.032 44.475a50.97 50.97 0 0 1-50.968 0l-77.032-44.475A50.969 50.969 0 0 1 0 184.392v-88.95a50.969 50.969 0 0 1 25.484-44.139" mask="url(#b)"/>
  <path fill="#fff" d="M151.333 31.233 25.83 104.414l44.545 74.241 124.442-72.827zm45.78 66.708-38.676-65.458 18.74 5.251a.362.362 0 0 1 .215.165l23.891 40.053a.364.364 0 0 1 .044.264zM64.188 75.778l44.014-25.101-10.605-7.247-32.879 19.974zM24.014 111.97l37.413 64.413-17.737-4.144a1.317 1.317 0 0 1-.825-.596l-23.642-38.656a1.321 1.321 0 0 1-.155-1.003zm147.34 40.092L129.48 194.91l17.187 29.469 41.715-43.025zm-11.36-19.544-50.2 28.636 17.007 29.162 41.756-43.068zm31.167 53.617-41.834 42.806 14.41 24.706 41.68-42.989zm17.016 29.272-41.798 42.77 5.149 8.727 49.902-28.811z" mask="url(#b)"/>
</svg>
