<svg xmlns="http://www.w3.org/2000/svg" viewBox="0 0 256 208.775">
  <path fill="#3eb0fd" fill-rule="evenodd" d="m227.75 120.204-98.664 54.945-100.633-54.945c-3.742-2.166-8.665-.59-10.634 3.151-2.167 3.742-.591 8.665 3.15 10.634L125.346 191.1a7.649 7.649 0 0 0 7.68 0l102.406-57.11c3.742-2.167 5.12-6.893 2.954-10.635-2.166-3.939-6.893-5.317-10.635-3.151zM40.663 83.771l88.423-50.021 98.467 56.914c3.742 2.166 8.666.788 10.832-2.954 2.166-3.742.788-8.665-2.954-10.831l-102.406-59.08c-2.363-1.38-5.317-1.38-7.877 0L20.773 76.878c-5.318 2.954-5.318 10.634 0 13.785l104.375 59.08c3.741 2.166 8.665.788 10.831-2.954 2.166-3.742.788-8.665-2.954-10.831zM.095 125.127V85.741C-.693 76.68 3.442 67.426 12.5 62.305l104.375-59.08c7.68-4.332 16.937-4.332 24.42.197l102.406 59.08c8.468 4.924 12.998 14.18 12.21 23.239v39.386c.788 9.256-3.939 18.71-12.604 23.436l-102.406 57.11c-7.483 4.136-16.345 4.136-23.829 0l-104.375-57.11C4.033 143.836-.496 134.58.095 125.127z"/>
</svg>
