<svg xmlns="http://www.w3.org/2000/svg" viewBox="0 0 511.888 78.437">
  <g fill="none" fill-rule="evenodd">
    <path fill="#fff" fill-rule="nonzero" d="M138.764 5.577c9.026 0 14.058 3.477 18.57 6.511l1.999 1.406-6.437 11.098-2.22-1.48-.798-.545c-3.554-2.416-6.081-3.894-11.114-3.894-.814 0-3.922.666-5.475 2.442l-.113.132c-.496.603-1.06 1.575-.923 3.567.074 3.33 2.294 5.253 7.99 6.733l.675.203c.41.126.756.24 1.101.389 5.92 2.146 10.507 5.031 13.688 8.657 3.182 3.699 4.883 8.138 4.883 12.8 0 4.587-1.85 9.322-4.957 12.948-3.625 4.29-8.656 6.732-14.206 6.732l-.56-.003c-2.674-.031-6.173-.307-10.316-1.55-5.549-1.85-10.506-5.105-14.798-9.915l9.027-8.952c6.511 7.399 13.91 7.399 16.647 7.399 5.106 0 6.807-4.958 6.807-6.585 0-3.552-3.773-6.807-10.284-9.101l-.296-.074-.444-.37-1.582-.462c-2.111-.634-5.052-1.65-7.814-3.607-4.958-3.478-7.695-8.509-7.991-14.724-.296-5.253 1.332-9.767 4.513-13.318 4.587-5.031 11.246-6.437 14.428-6.437zm171.21-.074c7.398 0 14.353 2.738 19.828 7.177l-8.065 9.618c-11.986-8.212-30.113-.591-30.113 16.944 0 18.349 19.163 25.748 30.853 16.425l7.99 9.619c-5.548 4.883-12.725 7.842-20.494 7.842-17.683 0-32.11-15.167-32.11-33.812 0-18.645 14.427-33.813 32.11-33.813zm-96.038.888v13.022h-17.165v52.384h-12.356v-52.31h-17.24V6.39zm32.555.074 29.3 65.332h-13.688l-5.476-12.134h-25.674l-5.77 12.134h-13.91l31.593-65.332zm265.397-.074v13.022h-17.166v52.384h-12.356v-52.31h-17.24V6.39zm-160.185 0v21.087L369.83 6.39h16.721l-21.678 25.526 22.196 39.732h-14.798l-15.76-29.818-4.808 5.106v24.712h-12.356V6.39zm60.004 0c9.989 0 18.127 8.583 18.127 19.089 0 3.995-1.183 7.62-3.181 10.728 4.513 3.626 7.325 9.323 7.325 15.686 0 11.024-8.435 19.755-18.72 19.755h-4.439V60.55h4.292v.074c4.143 0 7.62-3.477 7.62-7.842 0-4.366-3.477-7.917-7.62-7.917h-20.273V6.39zm45.43 0v65.258H444.78V6.39zM244.344 32.065 237.39 46.64h13.392zM411.19 17.267h-5.4v14.946h5.4c3.478 0 7.177-2.96 7.177-7.547s-3.7-7.399-7.177-7.399z"/>
    <path fill="#3eb2fd" fill-rule="nonzero" d="M394.838 60.624h11.468v11.099h-11.468z"/>
    <path fill="#3eb0fd" d="M85.566 45.16 48.498 65.805 10.69 45.16c-1.406-.814-3.256-.222-3.996 1.184-.813 1.405-.221 3.255 1.184 3.995l39.214 21.457a2.874 2.874 0 0 0 2.886 0L88.452 50.34c1.405-.814 1.923-2.59 1.11-3.995-.814-1.48-2.59-1.998-3.996-1.184zM15.277 31.474l33.22-18.793 36.995 21.383c1.406.813 3.256.296 4.07-1.11.813-1.406.295-3.256-1.11-4.07L49.978 6.687c-.888-.518-1.998-.518-2.96 0L7.804 28.883c-1.997 1.11-1.997 3.996 0 5.18l39.214 22.196c1.406.814 3.256.296 4.07-1.11.813-1.405.295-3.255-1.11-4.07zM.036 47.011V32.213c-.296-3.404 1.257-6.881 4.66-8.805L43.912 1.212c2.885-1.628 6.363-1.628 9.174.074L91.56 23.482c3.182 1.85 4.883 5.327 4.587 8.73v14.799c.296 3.477-1.48 7.028-4.735 8.804L52.937 77.272a9.18 9.18 0 0 1-8.952 0L4.77 55.815C1.515 54.04-.186 50.562.036 47.011z"/>
  </g>
</svg>
