<svg xmlns="http://www.w3.org/2000/svg" viewBox="0 0 511.866 113.428">
  <g fill="#0a0b09">
    <path d="M112.963 105.054c-6.248 0-11.14-1.43-15.204-5.344l3.612-3.613c2.936 3.085 6.925 4.29 11.517 4.29 6.096 0 9.86-2.183 9.86-6.548 0-3.236-1.883-5.042-6.173-5.42l-6.096-.526c-7.226-.602-11.064-3.838-11.064-9.935 0-6.774 5.72-10.837 13.623-10.837 5.268 0 10.01 1.28 13.322 3.988l-3.538 3.537c-2.634-2.031-6.02-2.935-9.86-2.935-5.419 0-8.279 2.334-8.279 6.097 0 3.161 1.806 5.043 6.473 5.419l5.946.526c6.473.603 10.913 3.086 10.913 10.012 0 7.15-6.096 11.289-15.052 11.289M144.495 104.602c-6.323 0-9.484-4.441-9.484-9.935v-22.73h-4.666v-4.14h4.666v-11.59h5.42v11.59h7.902v4.14h-7.903v22.58c0 3.386 1.581 5.419 5.043 5.419h2.86v4.666h-3.838M176.359 87.517h-10.387c-5.57 0-8.28 2.258-8.28 6.547 0 4.29 2.635 6.324 8.506 6.324 3.161 0 5.945-.227 8.279-2.485 1.28-1.204 1.882-3.31 1.882-6.397zm0 17.085v-3.538c-3.011 3.012-5.72 3.99-10.688 3.99-5.118 0-8.129-.978-10.463-3.387-1.805-1.807-2.784-4.591-2.784-7.527 0-6.472 4.516-10.688 12.795-10.688h11.14v-3.537c0-5.418-2.71-8.128-9.484-8.128-4.741 0-7.15 1.13-9.333 4.214l-3.688-3.386c3.312-4.29 7.075-5.494 13.097-5.494 9.934 0 14.826 4.289 14.826 12.342v25.14zM203.002 105.054c-9.333 0-16.408-6.323-16.408-18.967 0-12.644 7.075-18.966 16.408-18.966 5.118 0 8.354 1.354 12.192 5.494l-3.687 3.461c-2.785-3.085-4.968-4.138-8.505-4.138-3.613 0-6.623 1.429-8.58 4.214-1.731 2.409-2.409 5.27-2.409 9.935 0 4.666.678 7.527 2.409 9.935 1.957 2.785 4.967 4.215 8.58 4.215 3.537 0 5.72-1.13 8.505-4.215l3.687 3.538c-3.838 4.138-7.074 5.494-12.192 5.494M244.861 104.602 233.12 85.635l-7.225 8.28v10.687h-5.419v-53.59h5.42V86.84l16.708-19.268h6.774l-12.57 14.15 14.752 22.881h-6.698M273.417 77.02c-1.07-1.07-2.497-1.64-4.351-1.64-1.855 0-3.21.57-4.28 1.64-1.927 1.926-2.14 5.136-2.14 8.989 0 3.851.213 7.133 2.14 9.058 1.07 1.07 2.425 1.641 4.28 1.641 1.854 0 3.281-.571 4.351-1.641 1.925-1.925 2.14-5.207 2.14-9.058 0-3.853-.215-7.063-2.14-8.988zm7.204 23.468c-2.283 2.426-6.063 4.566-11.555 4.566-5.493 0-9.202-2.14-11.485-4.566-3.352-3.495-4.208-7.704-4.208-14.48 0-6.705.856-10.913 4.208-14.41 2.283-2.424 5.992-4.564 11.485-4.564 5.492 0 9.272 2.14 11.555 4.565 3.353 3.496 4.21 7.704 4.21 14.41 0 6.775-.857 10.984-4.21 14.48zM305.67 104.625h-7.275l-13.696-37.163h9.772l7.562 22.969 7.49-22.969h9.771l-13.623 37.163M341.276 78.59c-.998-2.212-3.067-3.852-6.207-3.852-3.137 0-5.207 1.64-6.204 3.852-.572 1.355-.786 2.353-.857 3.994h14.124c-.072-1.641-.285-2.639-.856-3.994zm-13.268 10.342c0 4.78 2.925 8.275 8.132 8.275 4.066 0 6.063-1.14 8.418-3.495l5.635 5.492c-3.781 3.78-7.42 5.85-14.124 5.85-8.774 0-17.191-3.994-17.191-19.045 0-12.127 6.562-18.975 16.191-18.975 10.344 0 16.193 7.561 16.193 17.762v4.136zM376.068 77.59c-1.427-1.426-2.639-2.21-4.921-2.21-2.854 0-5.993 2.14-5.993 6.848v22.397h-9.273V67.462h9.06v3.566c1.782-2.14 5.35-3.994 9.344-3.994 3.638 0 6.205.927 8.774 3.495l-6.99 7.062M420.844 104.625c-7.632 0-10.842-5.35-10.842-10.628V52.256h9.273v41.17c0 2.212.927 3.353 3.28 3.353h3.567v7.846zm-22.1-30.086v30.086h-9.273V74.54h-3.851v-7.061h3.851V62.84c0-5.277 3.281-10.627 10.842-10.627h5.28v7.846h-3.568c-2.21 0-3.28 1.212-3.28 3.353v4.066h6.847v7.061zM447.497 77.02c-1.07-1.07-2.497-1.64-4.352-1.64-1.854 0-3.21.57-4.28 1.64-1.926 1.926-2.14 5.136-2.14 8.989 0 3.851.214 7.133 2.14 9.058 1.07 1.07 2.426 1.641 4.28 1.641 1.855 0 3.282-.571 4.352-1.641 1.925-1.925 2.14-5.207 2.14-9.058 0-3.853-.215-7.063-2.14-8.988zm7.204 23.468c-2.283 2.426-6.064 4.566-11.556 4.566-5.492 0-9.2-2.14-11.484-4.566-3.352-3.495-4.209-7.704-4.209-14.48 0-6.705.857-10.913 4.21-14.41 2.282-2.424 5.99-4.564 11.483-4.564 5.492 0 9.273 2.14 11.556 4.565 3.353 3.496 4.21 7.704 4.21 14.41 0 6.775-.857 10.984-4.21 14.48zM500.524 104.625h-7.632l-7.775-23.324-7.775 23.324h-7.632l-11.413-37.163h9.844l5.99 22.969 7.563-22.969h6.775l7.633 22.969 5.992-22.969h9.772l-11.342 37.163"/>
  </g>
  <path fill="#b58f52" d="M63.277 72.606 19.852 62.073l2.107-8.685L65.384 63.92l-2.107 8.686"/>
  <path fill="#c78431" d="m66.188 62.216-39.79-20.333 4.066-7.958 39.79 20.333-4.066 7.958"/>
  <path fill="#e9812c" d="m72.317 51.452-33.65-29.398 5.879-6.73 33.651 29.398-5.88 6.73"/>
  <path fill="#e5712a" d="M81.575 41.991 56.48 5.02 63.876 0 88.97 36.973l-7.394 5.018"/>
  <path fill="#9d8469" d="m62.582 83.469-44.618-2.437.487-8.924 44.618 2.437-.487 8.924"/>
  <path fill="#797b7b" d="M71.833 104.49V67.466h8.929l.006 45.962H0l.002-46h8.937v37.062h62.894"/>
  <path fill="#797b7b" d="M17.84 86.651h44.988v8.937H17.84z"/>
</svg>
