<svg xmlns="http://www.w3.org/2000/svg" viewBox="0 0 256 270.187">
  <path fill="#36373a" d="M233.255 138.873h-98.27v48.163h97.622c2.159 0 5.831-38.228 5.831-40.388 0 0-1.728-4.103-2.376-5.831-.647-1.728-1.943-1.944-2.807-1.944M135.633 243.838l-32.828-32.829-41.468-41.683-2.159-2.16-32.829-32.613-10.367-9.287-5.399 11.879-3.456 7.343L0 161.767v7.127c0 6.263 2.808 9.935 5.615 12.958l4.968 4.968c3.887 3.887 9.719 9.719 15.982 16.198l5.4 5.399 35.204 35.205h.216l1.943 1.943c9.935 9.935 18.142 18.142 19.222 19.006 2.808 2.808 6.696 5.616 12.959 5.616h6.911l17.494-7.127 19.222-8.856-7.775-8.639-1.728-1.727M255.068 78.399l-53.562-53.562c-.216-.216-.432-.432-.648-.432-8.423-8.423-17.494-17.278-18.79-18.79C179.261 2.808 175.373 0 169.11 0h-6.912l-17.494 7.127-19.222 8.855 8.207 9.287.864 1.08 59.178 59.394v-.216l26.349 26.349c.648.648 5.4-2.592 11.015-6.911 9.071-6.912 20.734-16.415 21.598-17.278 0 0 1.727-4.104 2.375-5.832 1.08-1.728.432-2.808 0-3.456"/>
  <path fill="#bedfeb" d="M231.527 50.539c0-13.823-11.231-24.838-24.837-24.838H38.66c-13.823 0-24.837 11.231-24.837 24.838v167.813c0 13.823 11.23 24.838 24.837 24.838h167.814c13.822 0 24.837-11.231 24.837-24.838V50.539h.216"/>
  <path fill="#8aa3a8" d="m142.329 116.843-35.637-35.852-41.899 99.349-18.358 2.16 60.905 60.906h86.175l3.672-1.728 1.727 1.728h7.776c13.822 0 24.837-11.231 24.837-24.838v-68.896l-83.151-82.935-6.047 50.106"/>
  <path fill="#fff" d="m180.772 140.817-46.866-8.639-.648-.216 19.653-20.518c11.231-11.663 10.799-30.237-.863-41.468l-1.296-.864-1.08-1.079c-11.663-11.231-30.021-10.799-41.036.864l-66.305 69.328c-11.23 11.663-10.798 30.237.864 41.467l2.16 2.16c9.935 9.719 24.837 10.799 35.852 3.456l19.87 3.24 21.598 4.535 46.867 8.639c15.766 3.024 30.884-7.559 33.908-23.541l.432-3.024c3.024-16.198-7.343-31.317-23.11-34.34"/>
  <path fill="#f8632f" d="M133.042 131.962 119.651 146l-33.044 34.556c-1.512 1.728-3.449 3.459-5.393 4.755l41.349 7.755 11.343-61.104h-.864"/>
  <path fill="#d823a5" d="m119.651 146.216 13.391-14.038 19.653-20.518c11.231-11.663 10.799-30.237-.864-41.468l-2.159-2.159c-11.663-11.231-30.021-10.799-41.036.864l-33.044 34.556 44.059 42.763"/>
  <path fill="#e4e4e4" d="m180.772 140.817-46.866-8.639-5.616 30.236 75.592 14.039.216-1.512c2.808-15.982-7.559-31.101-23.326-34.124M86.337 180.907l33.044-34.556-22.03-21.382-53.13 55.722 1.08 1.08c9.481 9.559 24.65 11.058 35.83 3.562 1.944-1.08 3.694-2.698 5.206-4.426"/>
  <path fill="#e2522b" d="m107.772 158.743 20.518 3.671 5.399-30.236-.647-.216-13.391 14.254-11.879 12.527"/>
  <path fill="#b20d7b" d="m119.651 146.216 13.607-14.254 19.653-20.518c11.231-11.663 10.799-30.237-.863-41.468l-1.296-.864-53.131 55.722 22.03 21.382"/>
  <path fill="#00b6ff" d="M134.297 86.258v40.603a3.872 3.872 0 0 0 3.888 3.888h94.813c1.296 0 2.376-.864 2.808-1.728.432-1.296 19.654-47.947 19.654-47.947-.432.864-1.512 1.728-2.808 1.728H138.185c-2.16-.432-3.888 1.296-3.888 3.456M168.894 0h-68.033c-3.24 0-6.047.864-8.423 2.16h-.216c-.216.216-.432.216-.648.432-1.296.648-2.376 1.512-3.672 2.591L50.539 42.547c-.648.432-1.296 1.08-1.728 1.512C45.139 47.731 5.183 87.47 5.183 87.47 2.592 90.278 0 94.814 0 100.213v68.465c0-3.888 1.296-8.855 5.183-12.743l14.471-14.47S152.48 8.855 156.151 4.967C160.039 1.296 165.006 0 168.894 0M255.716 188.764c-.432-1.296-19.654-47.947-19.654-47.947 0 .216.216.432.216.648-.216-.432-.216-.648-.216-.648.432.864.216 2.159-.647 3.023a213802.61 213802.61 0 0 1-45.788 45.572c-29.588 29.372-73.216 73-75.591 75.591-3.888 3.672-8.639 5.184-12.743 5.184h68.249c5.615 0 10.151-2.592 12.742-5.184 0 0 30.237-30.236 42.98-43.195l30.02-30.021c.864-.864.864-2.16.432-3.023"/>
</svg>
