<svg xmlns="http://www.w3.org/2000/svg" viewBox="0 0 256 256">
  <path fill="#4caf50" d="M256 128c0 70.692-57.308 128-128 128C57.308 256 0 198.692 0 128 0 57.308 57.308 0 128 0c70.692 0 128 57.308 128 128"/>
  <path fill="#fff" d="M165.479 135.458c-2.318-7.852-7.065-13.516-12.091-19.513-.495-.591-.994-1.186-1.494-1.788-1.715-2.063-3.435-4.053-5.098-5.978-5.046-5.838-9.812-11.352-11.827-16.057-2.526-5.893-2.969-11.771-1.315-17.469 2.186-7.533 8.043-15.011 17.407-22.228a4.567 4.567 0 0 0-5.575-7.233c-20.102 15.494-23.529 30.573-21.411 42.298-3.817-1.48-8.61-2.429-12.761-2.265-12.417.488-23.49 8.81-29.237 16.084-1.563 1.978-1.331 5.18.647 6.744.839.662 1.941.652 2.932.652a4.56 4.56 0 0 0 3.586-1.735c3.749-4.745 13.021-11.95 23.199-12.351 6.659-.261 12.749 2.522 18.08 8.275.187.202.39.379.603.54 2.526 3.496 5.283 6.494 8.453 10.163 1.635 1.891 3.636 4.401 5.294 6.396.508.612 1.015 1.217 1.519 1.818 4.589 5.475 8.552 10.204 10.332 16.232 3.787 12.83-7.535 26.023-13.63 30.546-4.517-3.896-10.39-6.26-16.809-6.26-14.213 0-25.775 11.563-25.775 25.775 0 14.212 11.562 25.775 25.775 25.775 14.212 0 25.774-11.563 25.774-25.775 0-4.503-1.163-8.738-3.201-12.425 3.697-2.786 8.292-7.334 11.81-12.839 5.944-9.303 7.379-18.691 4.813-27.382zm-39.196 70.268c-9.717 0-17.622-7.905-17.622-17.622 0-9.717 7.905-17.622 17.622-17.622 9.716 0 17.621 7.905 17.621 17.622 0 9.717-7.905 17.622-17.621 17.622z"/>
  <path fill="#fff" d="M135.43 187.928c0-.439-.033-.87-.092-1.293l2.69-1.409-1.423-3.782-3.062.863a9.379 9.379 0 0 0-1.843-1.837l.877-2.944-3.702-1.62-1.514 2.787a9.311 9.311 0 0 0-2.576.009l-1.571-2.677-3.71 1.603.964 2.88a9.381 9.381 0 0 0-1.812 1.82l-2.893-.906-1.671 3.679 2.782 1.562a9.43 9.43 0 0 0-.087 1.265c0 .437.032.866.09 1.287l-2.746 1.671 1.662 3.684 2.884-1.016a9.378 9.378 0 0 0 1.808 1.807l-.846 3.01 3.727 1.561 1.451-2.774c.422.059.853.092 1.291.092a9.3 9.3 0 0 0 1.323-.096l1.433 2.753 3.786-1.414-.882-3.161a9.402 9.402 0 0 0 1.706-1.694l3.131.675 1.329-3.817-2.61-1.166c.069-.457.106-.925.106-1.402zm-9.37 1.622a1.63 1.63 0 1 1 0-3.261 1.63 1.63 0 0 1 0 3.261z"/>
</svg>
