<svg xmlns="http://www.w3.org/2000/svg" viewBox="0 0 255.24 147.874">
  <path fill="#4c2418" d="M11.663 147.874c-4.308 0-8.196-.474-11.663-3.94l4.466-4.465c2.259 2.259 5.201 2.574 7.301 2.574 2.364 0 4.834-.788 4.834-2.836 0-1.366-.736-2.311-2.89-2.523l-4.308-.42c-4.937-.473-7.983-2.626-7.983-7.669 0-5.674 4.99-8.72 10.558-8.72 4.255 0 7.828.735 10.454 3.203l-4.202 4.256c-1.576-1.417-3.993-1.84-6.357-1.84-2.731 0-3.886 1.262-3.886 2.627 0 1 .418 2.155 2.835 2.365l4.308.421c5.41.524 8.144 3.414 8.144 8.036 0 6.042-5.149 8.931-11.61 8.931zm23.531-.315c-5.567 0-7.931-3.94-7.931-7.828v-13.553h-2.89v-5.2h2.89v-8.09h6.828v8.09h4.833v5.2h-4.833v13.134c0 1.575.736 2.469 2.364 2.469h2.47v5.778zm6.87 0h6.83v-27.37h-6.83zm-.105-32.045h6.988v-5.567h-6.988zm22.367 32.36c-5.463 0-12.24-2.942-12.24-14.027 0-11.083 6.777-13.972 12.24-13.972 3.782 0 6.619 1.155 9.035 3.678l-4.622 4.622c-1.418-1.523-2.626-2.154-4.413-2.154-1.63 0-2.889.577-3.888 1.785-1.05 1.314-1.523 3.153-1.523 6.041 0 2.891.473 4.781 1.523 6.095 1 1.209 2.259 1.786 3.888 1.786 1.787 0 2.995-.63 4.413-2.154l4.622 4.57c-2.416 2.522-5.253 3.73-9.035 3.73zm27.876-.315-6.724-11.4-2.888 3.258v8.142h-6.83v-37.402h6.83v21.222l9.088-11.19h8.247l-9.772 11.033 10.508 16.337zm14.16-11.556c0 3.52 2.153 6.092 5.99 6.092 2.993 0 4.464-.84 6.198-2.573l4.15 4.046c-2.784 2.782-5.463 4.306-10.401 4.306-6.463 0-12.66-2.942-12.66-14.027 0-8.93 4.832-13.972 11.924-13.972 7.617 0 11.924 5.568 11.924 13.08v3.048zm9.77-7.618c-.734-1.629-2.256-2.838-4.569-2.838-2.312 0-3.835 1.21-4.57 2.838-.42.998-.578 1.734-.63 2.94h10.401c-.053-1.206-.21-1.942-.631-2.94zm25.466-.736c-1.05-1.051-1.943-1.628-3.624-1.628-2.102 0-4.415 1.577-4.415 5.044v16.494h-6.828v-27.37h6.671v2.628c1.314-1.577 3.942-2.942 6.882-2.942 2.681 0 4.57.682 6.462 2.575z"/>
  <path fill="#e26029" d="M177.438 119.875c-3.415 0-5.883 1.05-8.195 3.467-1.734-2.364-4.203-3.467-7.248-3.467-2.522 0-5.044.997-6.83 2.836v-2.521h-6.671v27.369h6.828v-16.547c0-3.73 2.417-4.991 4.571-4.991s4.518 1.26 4.518 4.991v16.547h6.83v-16.705c0-3.573 2.467-4.833 4.567-4.833 2.156 0 4.52 1.26 4.52 4.991v16.547h6.829v-17.493c0-2.995-.788-5.569-2.995-7.775-1.523-1.523-3.992-2.416-6.724-2.416zm29.681 16.863c0 3.729-2.417 4.99-4.57 4.99-2.154 0-4.518-1.261-4.518-4.99V120.19h-6.829v17.494c0 2.992.579 5.567 2.785 7.774 1.522 1.524 3.73 2.416 6.461 2.416 2.522 0 5.043-.945 6.828-2.836v2.52h6.673V120.19h-6.83zm18.006 2.574v-29.155h-6.83v29.574c0 3.888 2.366 7.828 7.986 7.828h3.888v-5.778h-2.627c-1.733 0-2.417-.84-2.417-2.469zm30.115-6.358c0-7.511-4.307-13.08-11.925-13.08-7.092 0-11.924 5.044-11.924 13.973 0 11.085 6.199 14.027 12.66 14.027 4.938 0 7.617-1.524 10.4-4.306l-4.148-4.046c-1.734 1.733-3.205 2.573-6.199 2.573-3.836 0-5.989-2.573-5.989-6.092h17.125zm-17.125-1.628c.053-1.207.21-1.943.63-2.941.735-1.629 2.259-2.838 4.57-2.838 2.313 0 3.834 1.21 4.571 2.838.42.998.577 1.734.63 2.94z"/>
  <path fill="#4c2418" d="M140.305 102.156c-.962.462-2.276.359-3.635.4-1.17.031-2.807.056-3.488-.546-.369-.326-.476-1.035-.5-1.448-.03-.491.096-1.094.199-1.645.123-.651.253-1.484 0-1.843-.293-.415-1.339-.24-1.894-.549-.589-.327-.754-1.114-.943-1.992-.062-.278-.225-.529-.253-.748-.165-1.346.288-3.152.597-4.535.33-1.462.757-2.831.998-4.188.366-2.047.489-4.36.35-6.477-.072-1.102-.22-1.969-.05-2.89.16-.862.52-1.58.696-2.44.055-.275.014-.6.05-.899.037-.263.188-.48.202-.696.029-.577-.155-1.275-.201-1.994-.122-1.921.026-4.631.152-6.28.041-.571.31-1.226-.101-1.493-1.997-.03-3.82.36-5.682.597-5.01.64-11.314.724-16.147-.249-.457-.092-.915-.102-1.344-.2-3.428-.788-6.58-2.261-9.02-4.186-.376-.296-.822-.619-1.244-.945-.415-.321-.857-.766-1.247-.947-1.953-.906-4.54.138-5.331 1.395-.317.502-.543 1.149-.848 1.743-.29.57-.546 1.173-.796 1.747-1.288 2.946-2.742 5.758-4.037 8.72-.747 1.708-1.583 3.612-2.143 5.53-1.188 4.073-.08 9.526.849 13.356.083.35.27.7.398 1.095.293.927.922 2.157 1.645 2.792.377.33 1.018.528 1.444.898.536.457.932 1.367 1.345 2.141.173.324.414.69.647 1.096.496.86.666 1.631-.298 2.143-.726.384-1.826.483-2.841.546-.464.118-.317.742-.597 1.047-.159.174-.843.448-1.196.55-1.338.387-3.595.362-4.636 0-.521-.184-1.114-.583-1.245-.997-.258-.815.383-1.845-.2-2.493-.254-.278-.808-.23-1.296-.446-.695-.309-1.36-.96-1.694-1.797-.796-2.007-.302-5.16-.398-7.623-.027-.719-.124-1.49-.148-2.293-.049-1.46-.392-2.894-.548-4.336-.08-.702-.31-1.301-.449-1.941-.228-1.032-.401-2.145-.697-3.19-.33-1.149-.339-2.267.049-3.239.107-.272.393-.524.548-.9.23-.563.312-1.223.297-1.742-.168-.294-.867-.063-1.046-.347-.417-3.15-.89-6.322-1.146-9.617-.083-1.102-.087-2.252-.2-3.39-.216-2.253-.036-4.545-.247-6.726-.105-1.064-.365-2.063-.499-3.092-.38-2.89-1.186-6.6-.598-9.616.377-1.936 1.073-3.503 2.194-4.933a27.418 27.418 0 0 1 2.539-2.843 27.557 27.557 0 0 1 2.942-2.44c.673-.486 1.387-1.051 2.143-1.395 1.67-.764 3.844-1.443 6.128-1.546 2.295-.1 4.896-.113 7.177.3 2.176.394 4.339.776 6.477 1.196 2.094.41 4.147.98 6.129 1.495.256.066.476.224.748.298.631.173 1.346.21 2.044.398 1.845.503 4.276.75 6.528.75 2.448 0 4.656-.067 6.678-.55.3-.07.528-.228.845-.348.32-.123.702-.098.997-.2.201-.07.416-.288.648-.398a21.194 21.194 0 0 0 3.189-1.843c.821-.577 1.496-1.07 2.59-1.495.485-.19.974-.45 1.446-.599 1.033-.327 2.152-.636 2.942-1.146 1.24-.796 2.156-1.939 3.188-2.84a93.923 93.923 0 0 1 3.29-2.74c2.288-1.825 4.614-3.493 6.775-5.232a27.303 27.303 0 0 1 3.589-2.443c2.513-1.434 5.058-3.124 8.669-3.388 1.413-.104 2.905-.146 4.338.049.393.055.934.275 1.294.199.397-.083.685-.683.945-1.145.54-.955.921-1.589 1.398-2.742.292-.713.17-1.421.896-1.395.74.028.615 1.923.648 2.642.04.87-.107 2.037.05 2.64.106.418.662 1.035 1.245 1.048.4.006.669-.324 1.046-.55.39-.228.752-.362.997-.547.591-.443 1.298-1.18 1.893-1.795.493-.507 1.265-1.695 2.096-1.593 1.416.17.01 2.257-.303 2.938-.74 1.633-1.453 2.85-2.288 4.386-.348.635-1.146 1.489-1.15 2.145 0 .461.397.768.6 1.245.096.227.152.471.25.696.486 1.128.856 2.713 1.246 4.036.327 1.115.595 2.291.997 3.39.392 1.073.96 2.082 1.395 3.138.114.276.136.615.25.898.912 2.328 1.791 4.982 2.885 7.227.448.909 1.055 2.043 1.051 3.389-.009 1.482-.78 2.19-1.448 3.287-.349.58-.865 1.463-1.393 1.645-.392.134-.847-.007-1.245.048-.56.078-.949.44-1.447.5-1.356.156-2.569-.899-2.942-1.894-.123-.336-.067-.794-.146-1.196-.323-1.617-1.107-2.399-2.24-3.439-.725-.66-1.28-1.168-2.196-1.645-1.27-.66-2.69-1.068-4.036-1.794-.496-.266-1.12-.531-1.546-.447-.721.142-1.44 1.31-1.991 2.044-3.52 4.635-6.627 9.399-10.07 13.954-2.273 3.01-4.703 6.069-6.527 9.516-.458.866-.731 1.878-1.096 2.89-.355.989-.525 2.086-.897 3.14-1.324 3.79-1.736 8.401-2.937 12.358-.128.416-.175.893-.301 1.344-.553 2.02-1.106 4.335-1.743 6.479-.476 1.598-.62 3.755-.7 5.881-.074 1.969-.168 4.775.55 6.027.378.666 1.73.907 2.243 1.597.353.477.591 1.414.946 2.043.245.435.95 1.365.896 2.041-.04.508-.47.865-.848 1.048-.419.206-1.038.08-1.443.3-.45.245-.235.794-.7 1.095"/>
</svg>
