<svg xmlns="http://www.w3.org/2000/svg" viewBox="0 0 256 256">
  <path fill="#ffc600" d="M81.484 119.338v-17.965H256V0H0v137.303h182.216v17.965H0V256h256V118.697H81.484zm48.762-93.032c7.057 0 12.832 5.774 12.832 12.832 0 7.057-5.775 12.832-12.832 12.832-7.058 0-12.832-5.775-12.832-12.832.641-7.058 6.416-12.832 12.832-12.832zM75.709 65.444h113.564l-5.133 17.965H80.842zm54.537 164.25c-7.058 0-12.832-5.774-12.832-12.832 0-7.057 5.774-12.832 12.832-12.832 7.057 0 12.832 5.775 12.832 12.832 0 7.058-5.775 12.832-12.832 12.832zm-54.537-39.138 4.492-17.965h103.94l5.132 17.965z"/>
</svg>
