<svg xmlns="http://www.w3.org/2000/svg" viewBox="0 0 256 256">
  <path fill="#244ec6" d="M127.706 98.743c16.734-.074 29.384 12.246 29.48 28.712.098 16.649-12.812 29.789-29.279 29.802-16.155.013-29.065-13.001-29.094-29.33-.029-16.757 12.2-29.109 28.893-29.184zm-75.971 28.094c.557-29.349 13.739-52.121 39.409-66.97 21.551-12.466 45.349-18.64 69.507-23.355 12.987-2.535 40.148-6.049 48.915-7.159C187.419 11.02 158.997 0 128 0 57.308 0 0 57.308 0 128c0 35.331 14.315 67.319 37.461 90.48 7.248-7.397 26.603-27.132 36.281-36.83-14.391-14.827-22.404-33.869-22.007-54.813zm167.023-89.092c-6.467 6.476-26.215 26.25-36.259 36.305 1.367 1.664 4.144 4.153 5.74 6.157 14.262 17.915 19.625 38.369 16.017 60.802-4.757 29.579-22.639 48.884-49.472 60.763-28.99 12.835-59.741 18.618-90.861 22.978-3.982.558-13.28 1.692-17.167 2.163C68.857 245.087 97.153 256 128 256c70.692 0 128-57.308 128-128 0-35.218-14.226-67.112-37.242-90.255z"/>
</svg>
