<svg xmlns="http://www.w3.org/2000/svg" viewBox="0 0 256 256">
  <path fill="#006eaf" d="m20.64 58.432 101.216 55.232 3.072-58.368L93.632 4.8c-30.395 8.47-56.22 27.797-72.992 53.632zM165.504 5.6l-33.408 49.696 1.024 62.464 103.36-57.472C220.31 34.435 195.26 14.712 165.504 5.6z"/>
  <path fill="#00a7e1" d="m60.032 236.32 62.848-102.176-102.272-75.68C7.615 78.492 0 102.348 0 128c0 45.69 24.012 85.671 60.032 108.32zM236.48 60.288l-103.36 73.856 63.904 101.504C232.454 212.884 256 173.242 256 128c0-24.886-7.2-48.06-19.488-67.712-.003-.005-.03.005-.032 0z"/>
  <path fill="#5bc9ec" d="m129.024 255.936-6.144-100.288-62.816 80.672C79.77 248.705 103.008 256 128 256c.346 0 .679-.061 1.024-.064zm68-20.288L132.096 153.6l-3.072 102.336c25.058-.199 48.34-7.656 68-20.288z"/>
  <path fill="#fff" d="m165.504 5.6-36.48 43.552-35.36-44.384c-.012.003-.02.029-.032.032l31.296 50.496-3.072 58.368L20.64 58.432c-.008.012-.024.02-.032.032l102.272 75.68L60.032 236.32c.008.005.024-.005.032 0l62.816-80.672 6.144 100.288 3.072-102.336 64.928 82.048-63.904-101.504 103.36-73.856-103.36 57.472-1.024-62.464L165.504 5.6z"/>
  <path fill="#013a78" d="M128 0c-11.916 0-23.391 1.722-34.336 4.768l35.36 44.384L165.504 5.6A127.8 127.8 0 0 0 128 0z"/>
</svg>
