<svg xmlns="http://www.w3.org/2000/svg" viewBox="0 0 255.324 331.632">
  <defs>
    <linearGradient id="a" x1="114.869" x2="132.715" y1="320.115" y2="280.346" gradientTransform="scale(1.22494 .81636)" gradientUnits="userSpaceOnUse">
      <stop offset="0%" stop-color="#FF9700"/>
      <stop offset="53%" stop-color="#F48E00"/>
      <stop offset="100%" stop-color="#D06F00"/>
    </linearGradient>
  </defs>
  <path fill="url(#a)" d="M255.288 166.795c0-3.887-2.872-6.128-6.397-5.015L6.397 238.675C2.865 239.796 0 243.86 0 247.74v78.59c0 3.887 2.865 6.135 6.397 5.015l242.494-76.888c3.525-1.12 6.397-5.185 6.397-9.071z" style="fill:url(#a)"/>
  <path fill="#ff9800" d="M0 164.291c0 3.887 2.865 7.95 6.397 9.071l242.53 76.902c3.531 1.12 6.397-1.127 6.397-5.007V166.66c0-3.88-2.866-7.944-6.397-9.064L6.397 80.694C2.865 79.574 0 81.814 0 85.7z"/>
  <path fill="#ff9800" d="M255.288 5.302c0-3.886-2.872-6.135-6.397-5.014L6.397 77.176C2.865 78.296 0 82.36 0 86.247v78.59c0 3.887 2.865 6.128 6.397 5.014l242.494-76.895c3.525-1.12 6.397-5.184 6.397-9.064z"/>
</svg>
