<svg xmlns="http://www.w3.org/2000/svg" viewBox="0 0 48.1 48">
  <path fill="#4d4d4e" d="M46.1 48H1.9c-1 0-1.9-.8-1.9-1.9V1.9C0 .8.8 0 1.9 0h44.3c1 0 1.9.8 1.9 1.9v44.3c-.1 1-.9 1.8-2 1.8z"/>
  <path fill="#f89820" d="m11.1 14.5 25.1-8s1.8-.9 1.4.8l.1 7.7s.3 1.1-1.2 1.4l-10.2 3.2z"/>
  <path fill="#f89820" d="M11.1 14.5s-1 .2-.7 1.9l-.1 7.4s-.1.9 1.7 1.3l24.9 8s.8.3.7-.7v-8.3s.2-.8-1.3-1.4l-10.2-3.2z"/>
  <linearGradient id="a" x1="1758" x2="1994.5" y1="-1941.4" y2="-1859.6" gradientTransform="matrix(.1074 0 0 -.1074 -177.07 -171.74)" gradientUnits="userSpaceOnUse">
    <stop offset=".233" stop-color="#F89822"/>
    <stop offset="1" stop-color="#C27818"/>
  </linearGradient>
  <path fill="url(#a)" d="m22.1 28.3-10.6 3.2s-1.3 0-1.1 2.4c.2 2.4 0 7.2 0 7.2s.1.9 1.3.4l25.1-8s.9-.2.1-.5c-.7-.1-14.8-4.7-14.8-4.7z" style="fill:url(#a)"/>
</svg>
