<svg xmlns="http://www.w3.org/2000/svg" viewBox="0 0 48 48" width="48px" height="48px"><path d="m46.1 48h-44.2c-1 0-1.9-0.8-1.9-1.9v-44.2c0-1.1 0.8-1.9 1.9-1.9h44.3c1 0 1.9 0.8 1.9 1.9v44.3c-0.1 1-0.9 1.8-2 1.8z" fill="#4D4D4E"/><path d="m11.1 14.5 25.1-8s1.8-0.9 1.4 0.8l0.1 7.7s0.3 1.1-1.2 1.4l-10.2 3.2-15.2-5.1z" fill="#F89820"/><path d="m11.1 14.5s-1 0.2-0.7 1.9l-0.1 7.4s-0.1 0.9 1.7 1.3l24.9 8s0.8 0.3 0.7-0.7v-8.3s0.2-0.8-1.3-1.4l-10.2-3.2-15-5z" fill="#F89820"/><linearGradient id="l0" x1="1758" x2="1994.5" y1="-1941.4" y2="-1859.6" gradientTransform="matrix(.1074 0 0 -.1074 -177.07 -171.74)" gradientUnits="userSpaceOnUse"><stop stop-color="#F89822" offset=".233"/><stop stop-color="#C27818" offset="1"/></linearGradient><path d="m22.1 28.3-10.6 3.2s-1.3 0-1.1 2.4 0 7.2 0 7.2 0.1 0.9 1.3 0.4l25.1-8s0.9-0.2 0.1-0.5c-0.7-0.1-14.8-4.7-14.8-4.7z" fill="url(#l0)"/></svg>