<svg xmlns="http://www.w3.org/2000/svg" xmlns:xlink="http://www.w3.org/1999/xlink" viewBox="0 0 255.78 255.78">
  <defs>
    <path id="a" d="M26.04 0v81.535L9.14 117.099.33 39.75l8.368-25.16z"/>
    <path id="c" d="M114.457.495V102.84H.44V.495z"/>
    <path id="e" d="M23.508 1.156.165 15.47v102.4h113.961v-1.211l16.517-35.124V.055l-1.046 1.101z"/>
    <path id="g" d="M8.093.385C3.963.055 1.43 2.863.055 5.285c1.376 3.964 3.634 6.992 7.487 6.772 3.854-.22 6.166-3.248 7.763-7.102-1.376-2.037-3.579-4.24-7.212-4.57z"/>
    <path id="i" d="M8.533.22c9.69.22 6.056 24.61 5.836 32.537-.22 7.928 1.431 15.03 1.597 20.205.165 5.175 2.807 20.755-8.864 20.645-11.671-.11-4.514-30.445-4.404-36.721-.055 0-3.854-36.941 5.835-36.666zm32.812 0c-9.69.22-6.056 24.61-5.835 32.537.22 7.928-1.432 15.03-1.597 20.205-.165 5.175-2.808 20.755 8.864 20.645 11.671-.11 4.514-30.445 4.404-36.721.055 0 3.854-36.941-5.836-36.666z"/>
    <path id="k" d="M129.817 6.937s.66-7.873 6.826-6.166c0 0 10.24 9.744 0 20.425-10.24 10.68-20.535 14.038-33.252 17.066-12.717 3.028-12.222 6.276-24.224 7.653-12.001 1.376-14.479-4.13-14.369-8.974.11-4.845 4.46-10.9 15.305-10.68 10.846.22 9.635 4.294 20.645 2.477 11.011-1.817 22.462-7.487 26.261-10.405 3.799-2.918 7.157-6.882 2.808-11.396zM11.727 8.974S-.607 11.67.494 21.91c1.102 10.24 9.91 12.332 20.15 14.7 10.24 2.367 8.313 7.157 20.59 8.313 12.277 1.156 17.177-4.404 15.966-11.672-1.211-7.267-13.378-6.826-27.417-6.936-14.039-.11-18.058-6.497-18.058-6.497V8.974z"/>
  </defs>
  <circle cx="127.89" cy="127.89" r="127.89" fill="#2dcc9f"/>
  <path fill="#d0f5f5" d="m198.744 77.13-8.974 24.775-79.057 7.267-42.611-17.673L91.83 77.13z"/>
  <path fill="#c8eeee" d="m198.964 158.06-16.901 35.564-8.809-77.35 8.729-24.728 16.775-14.427z"/>
  <g transform="translate(181.127 76.525)">
    <mask id="b" fill="#fff">
      <use width="100%" height="100%" xlink:href="#a"/>
    </mask>
    <path fill="#9deeee" d="M-39.418 101.189s47.07-10.9 53.842-26.591c6.772-15.69-11.892 3.799-11.892 3.799l-43.877 14.148zm-41.126-1.101s-6.386 1.872-15.305-2.147c-8.918-4.02-19.709-5.836-19.709-5.836l-1.596-5.836 5.56-2.752 21.636 8.533z" mask="url(#b)" opacity=".35"/>
  </g>
  <path fill="azure" d="M182.228 193.68H68.212V91.333h114.016z"/>
  <g transform="translate(75.974 90.839)">
    <mask id="d" fill="#fff">
      <use width="100%" height="100%" xlink:href="#c"/>
    </mask>
    <path fill="#9deeee" d="M65.734 86.875s47.071-10.9 53.843-26.591c6.771-15.69-11.892 3.799-11.892 3.799L63.807 78.23zM24.61 85.774s-6.386 1.872-15.305-2.147c-8.919-4.02-19.71-5.836-19.71-5.836l-1.596-5.836 5.56-2.752 21.637 8.533z" mask="url(#d)" opacity=".35"/>
  </g>
  <g transform="translate(76.525 76.525)">
    <mask id="f" fill="#fff">
      <use width="100%" height="100%" xlink:href="#e"/>
    </mask>
    <g fill="#d0f5f5" mask="url(#f)" opacity=".35">
      <g transform="translate(-24.169 -20.74)">
        <ellipse cx="28.628" cy="56.488" rx="1.211" ry="1.201"/>
        <ellipse cx="28.628" cy="56.488" rx="1.101" ry="1.092"/>
        <ellipse cx="28.628" cy="56.488" rx="1.101" ry="1.092"/>
        <ellipse cx="29.894" cy="48.137" rx="1.211" ry="1.201"/>
        <ellipse cx="29.894" cy="48.137" rx="1.101" ry="1.092"/>
        <ellipse cx="29.894" cy="48.137" rx="1.101" ry="1.092"/>
        <ellipse cx="40.96" cy="27.671" rx="1.211" ry="1.201"/>
        <ellipse cx="40.96" cy="27.671" rx="1.101" ry="1.092"/>
        <ellipse cx="40.96" cy="27.671" rx="1.101" ry="1.092"/>
        <ellipse cx="36.225" cy="36.512" rx="1.211" ry="1.201"/>
        <ellipse cx="36.225" cy="36.512" rx="1.101" ry="1.092"/>
        <ellipse cx="36.225" cy="36.512" rx="1.101" ry="1.092"/>
        <ellipse cx="1.266" cy="45.518" rx="1.211" ry="1.201"/>
        <ellipse cx="1.266" cy="45.518" rx="1.101" ry="1.092"/>
        <ellipse cx="1.266" cy="45.518" rx="1.101" ry="1.092"/>
        <ellipse cx="23.728" cy="13.317" rx="1.211" ry="1.201"/>
        <ellipse cx="23.728" cy="13.317" rx="1.101" ry="1.092"/>
        <ellipse cx="23.728" cy="13.317" rx="1.101" ry="1.092"/>
        <ellipse cx="29.399" cy="24.614" rx="1.211" ry="1.201"/>
        <ellipse cx="29.399" cy="24.614" rx="1.101" ry="1.092"/>
        <ellipse cx="29.399" cy="24.614" rx="1.101" ry="1.092"/>
        <ellipse cx="4.735" cy="37.822" rx="1.211" ry="1.201"/>
        <ellipse cx="4.735" cy="37.822" rx="1.101" ry="1.092"/>
        <ellipse cx="4.735" cy="37.822" rx="1.101" ry="1.092"/>
        <ellipse cx="42.171" cy="2.783" rx="1.211" ry="1.201"/>
        <ellipse cx="42.171" cy="2.783" rx="1.101" ry="1.092"/>
        <ellipse cx="42.171" cy="2.783" rx="1.101" ry="1.092"/>
        <ellipse cx="4.68" cy="50.812" rx="1.211" ry="1.201"/>
        <ellipse cx="4.68" cy="50.812" rx="1.101" ry="1.092"/>
        <ellipse cx="4.68" cy="50.812" rx="1.101" ry="1.092"/>
        <ellipse cx="47.126" cy="10.916" rx="1.211" ry="1.201"/>
        <ellipse cx="47.126" cy="10.916" rx="1.101" ry="1.092"/>
        <ellipse cx="47.126" cy="10.916" rx="1.101" ry="1.092"/>
        <ellipse cx="35.62" cy="52.231" rx="1.211" ry="1.201"/>
        <ellipse cx="35.62" cy="52.231" rx="1.101" ry="1.092"/>
        <ellipse cx="35.62" cy="52.231" rx="1.101" ry="1.092"/>
        <ellipse cx="17.782" cy="61.072" rx="1.211" ry="1.201"/>
        <ellipse cx="17.782" cy="61.072" rx="1.101" ry="1.092"/>
        <ellipse cx="17.782" cy="61.072" rx="1.101" ry="1.092"/>
        <ellipse cx="74.268" cy="1.31" rx="1.211" ry="1.201"/>
        <ellipse cx="74.268" cy="1.31" rx="1.101" ry="1.092"/>
        <ellipse cx="74.268" cy="1.31" rx="1.101" ry="1.092"/>
        <ellipse cx="3.523" cy="84.486" rx="1.211" ry="1.201"/>
        <ellipse cx="3.523" cy="84.486" rx="1.101" ry="1.092"/>
        <ellipse cx="3.523" cy="84.486" rx="1.101" ry="1.092"/>
        <ellipse cx="82.085" cy="9.66" rx="1.211" ry="1.201"/>
        <ellipse cx="82.085" cy="9.66" rx="1.101" ry="1.092"/>
        <ellipse cx="82.085" cy="9.66" rx="1.101" ry="1.092"/>
        <ellipse cx="34.629" cy="79.356" rx="1.211" ry="1.201"/>
        <ellipse cx="34.629" cy="79.356" rx="1.101" ry="1.092"/>
        <ellipse cx="34.629" cy="79.356" rx="1.101" ry="1.092"/>
        <ellipse cx="77.956" cy="30.618" rx="1.211" ry="1.201"/>
        <ellipse cx="77.956" cy="30.618" rx="1.101" ry="1.092"/>
        <ellipse cx="77.956" cy="30.618" rx="1.101" ry="1.092"/>
        <ellipse cx="77.571" cy="37.167" rx="1.211" ry="1.201"/>
        <ellipse cx="77.571" cy="37.167" rx="1.101" ry="1.092"/>
        <ellipse cx="77.571" cy="37.167" rx="1.101" ry="1.092"/>
        <ellipse cx="44.759" cy="62.71" rx="1.211" ry="1.201"/>
        <ellipse cx="44.759" cy="62.71" rx="1.101" ry="1.092"/>
        <ellipse cx="44.759" cy="62.71" rx="1.101" ry="1.092"/>
        <ellipse cx="66.45" cy="18.666" rx="1.211" ry="1.201"/>
        <ellipse cx="66.45" cy="18.666" rx="1.101" ry="1.092"/>
        <ellipse cx="66.45" cy="18.666" rx="1.101" ry="1.092"/>
        <ellipse cx="67.276" cy="13.644" rx="1.211" ry="1.201"/>
        <ellipse cx="67.276" cy="13.644" rx="1.101" ry="1.092"/>
        <ellipse cx="67.276" cy="13.644" rx="1.101" ry="1.092"/>
        <ellipse cx="66.945" cy="25.706" rx="1.211" ry="1.201"/>
        <ellipse cx="66.945" cy="25.706" rx="1.101" ry="1.092"/>
        <ellipse cx="66.945" cy="25.706" rx="1.101" ry="1.092"/>
        <ellipse cx="62.211" cy="23.85" rx="1.211" ry="1.201"/>
        <ellipse cx="62.211" cy="23.85" rx="1.101" ry="1.092"/>
        <ellipse cx="62.211" cy="23.85" rx="1.101" ry="1.092"/>
        <ellipse cx="64.138" cy="30.236" rx="1.211" ry="1.201"/>
        <ellipse cx="64.138" cy="30.236" rx="1.101" ry="1.092"/>
        <ellipse cx="64.138" cy="30.236" rx="1.101" ry="1.092"/>
        <ellipse cx="56.155" cy="25.051" rx="1.211" ry="1.201"/>
        <ellipse cx="56.155" cy="25.051" rx="1.101" ry="1.092"/>
        <ellipse cx="56.155" cy="25.051" rx="1.101" ry="1.092"/>
        <ellipse cx="47.511" cy="30.018" rx="1.211" ry="1.201"/>
        <ellipse cx="47.511" cy="30.018" rx="1.101" ry="1.092"/>
        <ellipse cx="47.511" cy="30.018" rx="1.101" ry="1.092"/>
        <ellipse cx="33.252" cy="31.873" rx="1.211" ry="1.201"/>
        <ellipse cx="33.252" cy="31.873" rx="1.101" ry="1.092"/>
        <ellipse cx="33.252" cy="31.873" rx="1.101" ry="1.092"/>
        <ellipse cx="27.747" cy="34.548" rx="1.211" ry="1.201"/>
        <ellipse cx="27.747" cy="34.548" rx="1.101" ry="1.092"/>
        <ellipse cx="27.747" cy="34.548" rx="1.101" ry="1.092"/>
        <ellipse cx="20.205" cy="32.965" rx="1.211" ry="1.201"/>
        <ellipse cx="20.205" cy="32.965" rx="1.101" ry="1.092"/>
        <ellipse cx="20.205" cy="32.965" rx="1.101" ry="1.092"/>
        <ellipse cx="16.626" cy="28.544" rx="1.211" ry="1.201"/>
        <ellipse cx="16.626" cy="28.544" rx="1.101" ry="1.092"/>
        <ellipse cx="16.626" cy="28.544" rx="1.101" ry="1.092"/>
        <ellipse cx="14.975" cy="33.784" rx="1.211" ry="1.201"/>
        <ellipse cx="14.975" cy="33.784" rx="1.101" ry="1.092"/>
        <ellipse cx="14.975" cy="33.784" rx="1.101" ry="1.092"/>
        <ellipse cx="15.195" cy="41.916" rx="1.211" ry="1.201"/>
        <ellipse cx="15.195" cy="41.916" rx="1.101" ry="1.092"/>
        <ellipse cx="15.195" cy="41.916" rx="1.101" ry="1.092"/>
        <ellipse cx="16.516" cy="47.81" rx="1.211" ry="1.201"/>
        <ellipse cx="16.516" cy="47.81" rx="1.101" ry="1.092"/>
        <ellipse cx="16.516" cy="47.81" rx="1.101" ry="1.092"/>
        <ellipse cx="45.915" cy="46.336" rx="1.211" ry="1.201"/>
        <ellipse cx="45.915" cy="46.336" rx="1.101" ry="1.092"/>
        <ellipse cx="45.915" cy="46.336" rx="1.101" ry="1.092"/>
        <ellipse cx="67.331" cy="37.276" rx="1.211" ry="1.201"/>
        <ellipse cx="67.331" cy="37.276" rx="1.101" ry="1.092"/>
        <ellipse cx="67.331" cy="37.276" rx="1.101" ry="1.092"/>
        <ellipse cx="79.938" cy="19.866" rx="1.211" ry="1.201"/>
        <ellipse cx="79.938" cy="19.866" rx="1.101" ry="1.092"/>
        <ellipse cx="79.938" cy="19.866" rx="1.101" ry="1.092"/>
        <ellipse cx="90.839" cy="11.134" rx="1.211" ry="1.201"/>
        <ellipse cx="90.839" cy="11.134" rx="1.101" ry="1.092"/>
        <ellipse cx="90.839" cy="11.134" rx="1.101" ry="1.092"/>
        <ellipse cx="99.702" cy="6.822" rx="1.211" ry="1.201"/>
        <ellipse cx="99.702" cy="6.822" rx="1.101" ry="1.092"/>
        <ellipse cx="99.702" cy="6.822" rx="1.101" ry="1.092"/>
        <ellipse cx="116.989" cy="5.076" rx="1.211" ry="1.201"/>
        <ellipse cx="116.989" cy="5.076" rx="1.101" ry="1.092"/>
        <ellipse cx="116.989" cy="5.076" rx="1.101" ry="1.092"/>
        <ellipse cx="141.984" cy="13.59" rx="1.211" ry="1.201"/>
        <ellipse cx="141.984" cy="13.59" rx="1.101" ry="1.092"/>
        <ellipse cx="141.984" cy="13.59" rx="1.101" ry="1.092"/>
        <ellipse cx="145.342" cy="18.611" rx="1.211" ry="1.201"/>
        <ellipse cx="145.342" cy="18.611" rx="1.101" ry="1.092"/>
        <ellipse cx="145.342" cy="18.611" rx="1.101" ry="1.092"/>
        <ellipse cx="119.962" cy="26.798" rx="1.211" ry="1.201"/>
        <ellipse cx="119.962" cy="26.798" rx="1.101" ry="1.092"/>
        <ellipse cx="119.962" cy="26.798" rx="1.101" ry="1.092"/>
        <ellipse cx="99.262" cy="31.546" rx="1.211" ry="1.201"/>
        <ellipse cx="99.262" cy="31.546" rx="1.101" ry="1.092"/>
        <ellipse cx="99.262" cy="31.546" rx="1.101" ry="1.092"/>
        <ellipse cx="93.096" cy="28.872" rx="1.211" ry="1.201"/>
        <ellipse cx="93.096" cy="28.872" rx="1.101" ry="1.092"/>
        <ellipse cx="93.096" cy="28.872" rx="1.101" ry="1.092"/>
        <ellipse cx="93.702" cy="34.22" rx="1.211" ry="1.201"/>
        <ellipse cx="93.702" cy="34.22" rx="1.101" ry="1.092"/>
        <ellipse cx="93.702" cy="34.22" rx="1.101" ry="1.092"/>
        <ellipse cx="138.35" cy="19.484" rx="1.211" ry="1.201"/>
        <ellipse cx="138.35" cy="19.484" rx="1.101" ry="1.092"/>
        <ellipse cx="138.35" cy="19.484" rx="1.101" ry="1.092"/>
        <ellipse cx="134.551" cy="13.644" rx="1.211" ry="1.201"/>
        <ellipse cx="134.551" cy="13.644" rx="1.101" ry="1.092"/>
        <ellipse cx="134.551" cy="13.644" rx="1.101" ry="1.092"/>
        <ellipse cx="115.228" cy="9.66" rx="1.211" ry="1.201"/>
        <ellipse cx="115.228" cy="9.66" rx="1.101" ry="1.092"/>
        <ellipse cx="115.228" cy="9.66" rx="1.101" ry="1.092"/>
        <ellipse cx="108.511" cy="8.023" rx="1.211" ry="1.201"/>
        <ellipse cx="108.511" cy="8.023" rx="1.101" ry="1.092"/>
        <ellipse cx="108.511" cy="8.023" rx="1.101" ry="1.092"/>
        <ellipse cx="103.831" cy="17.301" rx="1.211" ry="1.201"/>
        <ellipse cx="103.831" cy="17.301" rx="1.101" ry="1.092"/>
        <ellipse cx="103.831" cy="17.301" rx="1.101" ry="1.092"/>
        <ellipse cx="104.822" cy="12.989" rx="1.211" ry="1.201"/>
        <ellipse cx="104.822" cy="12.989" rx="1.101" ry="1.092"/>
        <ellipse cx="104.822" cy="12.989" rx="1.101" ry="1.092"/>
        <ellipse cx="129.486" cy="22.595" rx="1.211" ry="1.201"/>
        <ellipse cx="129.486" cy="22.595" rx="1.101" ry="1.092"/>
        <ellipse cx="129.486" cy="22.595" rx="1.101" ry="1.092"/>
        <ellipse cx="131.689" cy="28.653" rx="1.211" ry="1.201"/>
        <ellipse cx="131.689" cy="28.653" rx="1.101" ry="1.092"/>
        <ellipse cx="131.689" cy="28.653" rx="1.101" ry="1.092"/>
        <ellipse cx="123.596" cy="36.949" rx="1.211" ry="1.201"/>
        <ellipse cx="123.596" cy="36.949" rx="1.101" ry="1.092"/>
        <ellipse cx="123.596" cy="36.949" rx="1.101" ry="1.092"/>
        <ellipse cx="91.885" cy="46.937" rx="1.211" ry="1.201"/>
        <ellipse cx="91.885" cy="46.937" rx="1.101" ry="1.092"/>
        <ellipse cx="91.885" cy="46.937" rx="1.101" ry="1.092"/>
        <ellipse cx="78.837" cy="49.393" rx="1.211" ry="1.201"/>
        <ellipse cx="78.837" cy="49.393" rx="1.101" ry="1.092"/>
        <ellipse cx="78.837" cy="49.393" rx="1.101" ry="1.092"/>
        <ellipse cx="71.019" cy="50.757" rx="1.211" ry="1.201"/>
        <ellipse cx="71.019" cy="50.757" rx="1.101" ry="1.092"/>
        <ellipse cx="71.019" cy="50.757" rx="1.101" ry="1.092"/>
        <ellipse cx="61.715" cy="66.203" rx="1.211" ry="1.201"/>
        <ellipse cx="61.715" cy="66.203" rx="1.101" ry="1.092"/>
        <ellipse cx="61.715" cy="66.203" rx="1.101" ry="1.092"/>
        <ellipse cx="53.788" cy="68.058" rx="1.211" ry="1.201"/>
        <ellipse cx="53.788" cy="68.058" rx="1.101" ry="1.092"/>
        <ellipse cx="53.788" cy="68.058" rx="1.101" ry="1.092"/>
        <ellipse cx="83.572" cy="71.115" rx="1.211" ry="1.201"/>
        <ellipse cx="83.572" cy="71.115" rx="1.101" ry="1.092"/>
        <ellipse cx="83.572" cy="71.115" rx="1.101" ry="1.092"/>
        <ellipse cx="91.609" cy="65.111" rx="1.211" ry="1.201"/>
        <ellipse cx="91.609" cy="65.111" rx="1.101" ry="1.092"/>
        <ellipse cx="91.609" cy="65.111" rx="1.101" ry="1.092"/>
        <ellipse cx="101.905" cy="52.231" rx="1.211" ry="1.201"/>
        <ellipse cx="101.905" cy="52.231" rx="1.101" ry="1.092"/>
        <ellipse cx="101.905" cy="52.231" rx="1.101" ry="1.092"/>
        <ellipse cx="142.534" cy="40.278" rx="1.211" ry="1.201"/>
        <ellipse cx="142.534" cy="40.278" rx="1.101" ry="1.092"/>
        <ellipse cx="142.534" cy="40.278" rx="1.101" ry="1.092"/>
        <ellipse cx="150.407" cy="33.292" rx="1.211" ry="1.201"/>
        <ellipse cx="150.407" cy="33.292" rx="1.101" ry="1.092"/>
        <ellipse cx="150.407" cy="33.292" rx="1.101" ry="1.092"/>
        <ellipse cx="152.224" cy="37.768" rx="1.211" ry="1.201"/>
        <ellipse cx="152.224" cy="37.768" rx="1.101" ry="1.092"/>
        <ellipse cx="152.224" cy="37.768" rx="1.101" ry="1.092"/>
        <ellipse cx="148.205" cy="43.007" rx="1.211" ry="1.201"/>
        <ellipse cx="148.205" cy="43.007" rx="1.101" ry="1.092"/>
        <ellipse cx="148.205" cy="43.007" rx="1.101" ry="1.092"/>
        <ellipse cx="133.726" cy="61.291" rx="1.211" ry="1.201"/>
        <ellipse cx="133.726" cy="61.291" rx="1.101" ry="1.092"/>
        <ellipse cx="133.726" cy="61.291" rx="1.101" ry="1.092"/>
        <ellipse cx="125.578" cy="67.731" rx="1.211" ry="1.201"/>
        <ellipse cx="125.578" cy="67.731" rx="1.101" ry="1.092"/>
        <ellipse cx="125.578" cy="67.731" rx="1.101" ry="1.092"/>
        <ellipse cx="118.421" cy="72.424" rx="1.211" ry="1.201"/>
        <ellipse cx="118.421" cy="72.424" rx="1.101" ry="1.092"/>
        <ellipse cx="118.421" cy="72.424" rx="1.101" ry="1.092"/>
        <ellipse cx="108.015" cy="80.72" rx="1.211" ry="1.201"/>
        <ellipse cx="108.015" cy="80.72" rx="1.101" ry="1.092"/>
        <ellipse cx="108.015" cy="80.72" rx="1.101" ry="1.092"/>
        <ellipse cx="102.951" cy="88.252" rx="1.211" ry="1.201"/>
        <ellipse cx="102.951" cy="88.252" rx="1.101" ry="1.092"/>
        <ellipse cx="102.951" cy="88.252" rx="1.101" ry="1.092"/>
        <ellipse cx="92.821" cy="98.185" rx="1.211" ry="1.201"/>
        <ellipse cx="92.821" cy="98.185" rx="1.101" ry="1.092"/>
        <ellipse cx="92.821" cy="98.185" rx="1.101" ry="1.092"/>
        <ellipse cx="91.004" cy="105.935" rx="1.211" ry="1.201"/>
        <ellipse cx="91.004" cy="105.935" rx="1.101" ry="1.092"/>
        <ellipse cx="91.004" cy="105.935" rx="1.101" ry="1.092"/>
        <ellipse cx="91.279" cy="117.069" rx="1.211" ry="1.201"/>
        <ellipse cx="91.279" cy="117.069" rx="1.101" ry="1.092"/>
        <ellipse cx="91.279" cy="117.069" rx="1.101" ry="1.092"/>
        <ellipse cx="106.749" cy="128.912" rx="1.211" ry="1.201"/>
        <ellipse cx="106.749" cy="128.912" rx="1.101" ry="1.092"/>
        <ellipse cx="106.749" cy="128.912" rx="1.101" ry="1.092"/>
        <ellipse cx="111.924" cy="136.116" rx="1.211" ry="1.201"/>
        <ellipse cx="111.924" cy="136.116" rx="1.101" ry="1.092"/>
        <ellipse cx="111.924" cy="136.116" rx="1.101" ry="1.092"/>
        <ellipse cx="119.412" cy="137.208" rx="1.211" ry="1.201"/>
        <ellipse cx="119.412" cy="137.208" rx="1.101" ry="1.092"/>
        <ellipse cx="119.412" cy="137.208" rx="1.101" ry="1.092"/>
        <ellipse cx="133.505" cy="129.785" rx="1.211" ry="1.201"/>
        <ellipse cx="133.505" cy="129.785" rx="1.101" ry="1.092"/>
        <ellipse cx="133.505" cy="129.785" rx="1.101" ry="1.092"/>
        <ellipse cx="137.965" cy="108.937" rx="1.211" ry="1.201"/>
        <ellipse cx="137.965" cy="108.937" rx="1.101" ry="1.092"/>
        <ellipse cx="137.965" cy="108.937" rx="1.101" ry="1.092"/>
        <ellipse cx="126.018" cy="91.581" rx="1.211" ry="1.201"/>
        <ellipse cx="126.018" cy="91.581" rx="1.101" ry="1.092"/>
        <ellipse cx="126.018" cy="91.581" rx="1.101" ry="1.092"/>
        <ellipse cx="113.246" cy="85.196" rx="1.211" ry="1.201"/>
        <ellipse cx="113.246" cy="85.196" rx="1.101" ry="1.092"/>
        <ellipse cx="113.246" cy="85.196" rx="1.101" ry="1.092"/>
        <ellipse cx="97.831" cy="85.086" rx="1.211" ry="1.201"/>
        <ellipse cx="97.831" cy="85.086" rx="1.101" ry="1.092"/>
        <ellipse cx="97.831" cy="85.086" rx="1.101" ry="1.092"/>
        <ellipse cx="91.94" cy="84.322" rx="1.211" ry="1.201"/>
        <ellipse cx="91.94" cy="84.322" rx="1.101" ry="1.092"/>
        <ellipse cx="91.94" cy="84.322" rx="1.101" ry="1.092"/>
        <ellipse cx="97.005" cy="75.044" rx="1.211" ry="1.201"/>
        <ellipse cx="97.005" cy="75.044" rx="1.101" ry="1.092"/>
        <ellipse cx="97.005" cy="75.044" rx="1.101" ry="1.092"/>
        <ellipse cx="107.52" cy="63.801" rx="1.211" ry="1.201"/>
        <ellipse cx="107.52" cy="63.801" rx="1.101" ry="1.092"/>
        <ellipse cx="107.52" cy="63.801" rx="1.101" ry="1.092"/>
        <ellipse cx="114.622" cy="60.799" rx="1.211" ry="1.201"/>
        <ellipse cx="114.622" cy="60.799" rx="1.101" ry="1.092"/>
        <ellipse cx="114.622" cy="60.799" rx="1.101" ry="1.092"/>
        <ellipse cx="126.624" cy="48.792" rx="1.211" ry="1.201"/>
        <ellipse cx="126.624" cy="48.792" rx="1.101" ry="1.092"/>
        <ellipse cx="126.624" cy="48.792" rx="1.101" ry="1.092"/>
        <ellipse cx="133.836" cy="47.428" rx="1.211" ry="1.201"/>
        <ellipse cx="133.836" cy="47.428" rx="1.101" ry="1.092"/>
        <ellipse cx="133.836" cy="47.428" rx="1.101" ry="1.092"/>
        <ellipse cx="130.973" cy="43.717" rx="1.211" ry="1.201"/>
        <ellipse cx="130.973" cy="43.717" rx="1.101" ry="1.092"/>
        <ellipse cx="130.973" cy="43.717" rx="1.101" ry="1.092"/>
        <ellipse cx="128.11" cy="55.123" rx="1.211" ry="1.201"/>
        <ellipse cx="128.11" cy="55.123" rx="1.101" ry="1.092"/>
        <ellipse cx="128.11" cy="55.123" rx="1.101" ry="1.092"/>
        <ellipse cx="120.292" cy="52.067" rx="1.211" ry="1.201"/>
        <ellipse cx="120.292" cy="52.067" rx="1.101" ry="1.092"/>
        <ellipse cx="120.292" cy="52.067" rx="1.101" ry="1.092"/>
        <ellipse cx="112.2" cy="47.428" rx="1.211" ry="1.201"/>
        <ellipse cx="112.2" cy="47.428" rx="1.101" ry="1.092"/>
        <ellipse cx="112.2" cy="47.428" rx="1.101" ry="1.092"/>
        <ellipse cx="107.3" cy="44.317" rx="1.211" ry="1.201"/>
        <ellipse cx="107.3" cy="44.317" rx="1.101" ry="1.092"/>
        <ellipse cx="107.3" cy="44.317" rx="1.101" ry="1.092"/>
        <ellipse cx="112.365" cy="40.66" rx="1.211" ry="1.201"/>
        <ellipse cx="112.365" cy="40.66" rx="1.101" ry="1.092"/>
        <ellipse cx="112.365" cy="40.66" rx="1.101" ry="1.092"/>
        <ellipse cx="127.394" cy="31.6" rx="1.211" ry="1.201"/>
        <ellipse cx="127.394" cy="31.6" rx="1.101" ry="1.092"/>
        <ellipse cx="127.394" cy="31.6" rx="1.101" ry="1.092"/>
        <ellipse cx="125.468" cy="25.488" rx="1.211" ry="1.201"/>
        <ellipse cx="125.468" cy="25.488" rx="1.101" ry="1.092"/>
        <ellipse cx="125.468" cy="25.488" rx="1.101" ry="1.092"/>
        <ellipse cx="114.732" cy="17.192" rx="1.211" ry="1.201"/>
        <ellipse cx="114.732" cy="17.192" rx="1.101" ry="1.092"/>
        <ellipse cx="114.732" cy="17.192" rx="1.101" ry="1.092"/>
        <ellipse cx="105.593" cy="23.578" rx="1.211" ry="1.201"/>
        <ellipse cx="105.593" cy="23.578" rx="1.101" ry="1.092"/>
        <ellipse cx="105.593" cy="23.578" rx="1.101" ry="1.092"/>
        <ellipse cx="73.607" cy="20.357" rx="1.211" ry="1.201"/>
        <ellipse cx="73.607" cy="20.357" rx="1.101" ry="1.092"/>
        <ellipse cx="73.607" cy="20.357" rx="1.101" ry="1.092"/>
        <ellipse cx="45.585" cy="19.266" rx="1.211" ry="1.201"/>
        <ellipse cx="45.585" cy="19.266" rx="1.101" ry="1.092"/>
        <ellipse cx="45.585" cy="19.266" rx="1.101" ry="1.092"/>
        <ellipse cx="36.446" cy="20.248" rx="1.211" ry="1.201"/>
        <ellipse cx="36.446" cy="20.248" rx="1.101" ry="1.092"/>
        <ellipse cx="36.446" cy="20.248" rx="1.101" ry="1.092"/>
        <ellipse cx="36.666" cy="14.681" rx="1.211" ry="1.201"/>
        <ellipse cx="36.666" cy="14.681" rx="1.101" ry="1.092"/>
        <ellipse cx="36.666" cy="14.681" rx="1.101" ry="1.092"/>
        <ellipse cx="31.821" cy="14.136" rx="1.211" ry="1.201"/>
        <ellipse cx="31.821" cy="14.136" rx="1.101" ry="1.092"/>
        <ellipse cx="31.821" cy="14.136" rx="1.101" ry="1.092"/>
        <ellipse cx="29.729" cy="18.993" rx="1.211" ry="1.201"/>
        <ellipse cx="29.729" cy="18.993" rx="1.101" ry="1.092"/>
        <ellipse cx="29.729" cy="18.993" rx="1.101" ry="1.092"/>
        <ellipse cx="23.288" cy="55.069" rx="1.211" ry="1.201"/>
        <ellipse cx="23.288" cy="55.069" rx="1.101" ry="1.092"/>
        <ellipse cx="23.288" cy="55.069" rx="1.101" ry="1.092"/>
        <ellipse cx="18.994" cy="75.754" rx="1.211" ry="1.201"/>
        <ellipse cx="18.994" cy="75.754" rx="1.101" ry="1.092"/>
        <ellipse cx="18.994" cy="75.754" rx="1.101" ry="1.092"/>
        <ellipse cx="18.498" cy="81.921" rx="1.211" ry="1.201"/>
        <ellipse cx="18.498" cy="81.921" rx="1.101" ry="1.092"/>
        <ellipse cx="18.498" cy="81.921" rx="1.101" ry="1.092"/>
        <ellipse cx="16.571" cy="89.725" rx="1.211" ry="1.201"/>
        <ellipse cx="16.571" cy="89.725" rx="1.101" ry="1.092"/>
        <ellipse cx="16.571" cy="89.725" rx="1.101" ry="1.092"/>
        <ellipse cx="21.416" cy="92.564" rx="1.211" ry="1.201"/>
        <ellipse cx="21.416" cy="92.564" rx="1.101" ry="1.092"/>
        <ellipse cx="21.416" cy="92.564" rx="1.101" ry="1.092"/>
        <ellipse cx="27.637" cy="107.845" rx="1.211" ry="1.201"/>
        <ellipse cx="27.637" cy="107.845" rx="1.101" ry="1.092"/>
        <ellipse cx="27.637" cy="107.845" rx="1.101" ry="1.092"/>
        <ellipse cx="30.059" cy="121.435" rx="1.211" ry="1.201"/>
        <ellipse cx="30.059" cy="121.435" rx="1.101" ry="1.092"/>
        <ellipse cx="30.059" cy="121.435" rx="1.101" ry="1.092"/>
        <ellipse cx="27.747" cy="131.75" rx="1.211" ry="1.201"/>
        <ellipse cx="27.747" cy="131.75" rx="1.101" ry="1.092"/>
        <ellipse cx="27.747" cy="131.75" rx="1.101" ry="1.092"/>
        <ellipse cx="25.545" cy="139.664" rx="1.211" ry="1.201"/>
        <ellipse cx="25.545" cy="139.664" rx="1.101" ry="1.092"/>
        <ellipse cx="25.545" cy="139.664" rx="1.101" ry="1.092"/>
        <ellipse cx="20.535" cy="139.937" rx="1.211" ry="1.201"/>
        <ellipse cx="20.535" cy="139.937" rx="1.101" ry="1.092"/>
        <ellipse cx="20.535" cy="139.937" rx="1.101" ry="1.092"/>
        <ellipse cx="12.938" cy="124.655" rx="1.211" ry="1.201"/>
        <ellipse cx="12.938" cy="124.655" rx="1.101" ry="1.092"/>
        <ellipse cx="12.938" cy="124.655" rx="1.101" ry="1.092"/>
        <ellipse cx="17.067" cy="107.954" rx="1.211" ry="1.201"/>
        <ellipse cx="17.067" cy="107.954" rx="1.101" ry="1.092"/>
        <ellipse cx="17.067" cy="107.954" rx="1.101" ry="1.092"/>
        <ellipse cx="37.106" cy="89.343" rx="1.211" ry="1.201"/>
        <ellipse cx="37.106" cy="89.343" rx="1.101" ry="1.092"/>
        <ellipse cx="37.106" cy="89.343" rx="1.101" ry="1.092"/>
        <ellipse cx="47.456" cy="80.775" rx="1.211" ry="1.201"/>
        <ellipse cx="47.456" cy="80.775" rx="1.101" ry="1.092"/>
        <ellipse cx="47.456" cy="80.775" rx="1.101" ry="1.092"/>
        <ellipse cx="49.934" cy="88.143" rx="1.211" ry="1.201"/>
        <ellipse cx="49.934" cy="88.143" rx="1.101" ry="1.092"/>
        <ellipse cx="49.934" cy="88.143" rx="1.101" ry="1.092"/>
        <ellipse cx="50.209" cy="114.013" rx="1.211" ry="1.201"/>
        <ellipse cx="50.209" cy="114.013" rx="1.101" ry="1.092"/>
        <ellipse cx="50.209" cy="114.013" rx="1.101" ry="1.092"/>
        <ellipse cx="51.475" cy="124.164" rx="1.211" ry="1.201"/>
        <ellipse cx="51.475" cy="124.164" rx="1.101" ry="1.092"/>
        <ellipse cx="51.475" cy="124.164" rx="1.101" ry="1.092"/>
        <ellipse cx="52.466" cy="130.932" rx="1.211" ry="1.201"/>
        <ellipse cx="52.466" cy="130.932" rx="1.101" ry="1.092"/>
        <ellipse cx="52.466" cy="130.932" rx="1.101" ry="1.092"/>
        <ellipse cx="57.696" cy="133.442" rx="1.211" ry="1.201"/>
        <ellipse cx="57.696" cy="133.442" rx="1.101" ry="1.092"/>
        <ellipse cx="57.696" cy="133.442" rx="1.101" ry="1.092"/>
        <ellipse cx="77.571" cy="137.426" rx="1.211" ry="1.201"/>
        <ellipse cx="77.571" cy="137.426" rx="1.101" ry="1.092"/>
        <ellipse cx="77.571" cy="137.426" rx="1.101" ry="1.092"/>
        <ellipse cx="86.214" cy="142.065" rx="1.211" ry="1.201"/>
        <ellipse cx="86.214" cy="142.065" rx="1.101" ry="1.092"/>
        <ellipse cx="86.214" cy="142.065" rx="1.101" ry="1.092"/>
        <ellipse cx="85.058" cy="137.645" rx="1.211" ry="1.201"/>
        <ellipse cx="85.058" cy="137.645" rx="1.101" ry="1.092"/>
        <ellipse cx="85.058" cy="137.645" rx="1.101" ry="1.092"/>
        <ellipse cx="70.634" cy="127.111" rx="1.211" ry="1.201"/>
        <ellipse cx="70.634" cy="127.111" rx="1.101" ry="1.092"/>
        <ellipse cx="70.634" cy="127.111" rx="1.101" ry="1.092"/>
        <ellipse cx="64.578" cy="118.597" rx="1.211" ry="1.201"/>
        <ellipse cx="64.578" cy="118.597" rx="1.101" ry="1.092"/>
        <ellipse cx="64.578" cy="118.597" rx="1.101" ry="1.092"/>
        <ellipse cx="65.569" cy="113.74" rx="1.211" ry="1.201"/>
        <ellipse cx="65.569" cy="113.74" rx="1.101" ry="1.092"/>
        <ellipse cx="65.569" cy="113.74" rx="1.101" ry="1.092"/>
        <ellipse cx="59.238" cy="111.229" rx="1.211" ry="1.201"/>
        <ellipse cx="59.238" cy="111.229" rx="1.101" ry="1.092"/>
        <ellipse cx="59.238" cy="111.229" rx="1.101" ry="1.092"/>
        <ellipse cx="54.613" cy="108.064" rx="1.211" ry="1.201"/>
        <ellipse cx="54.613" cy="108.064" rx="1.101" ry="1.092"/>
        <ellipse cx="54.613" cy="108.064" rx="1.101" ry="1.092"/>
        <ellipse cx="48.612" cy="102.497" rx="1.211" ry="1.201"/>
        <ellipse cx="48.612" cy="102.497" rx="1.101" ry="1.092"/>
        <ellipse cx="48.612" cy="102.497" rx="1.101" ry="1.092"/>
        <ellipse cx="56.1" cy="100.968" rx="1.211" ry="1.201"/>
        <ellipse cx="56.1" cy="100.968" rx="1.101" ry="1.092"/>
        <ellipse cx="56.1" cy="100.968" rx="1.101" ry="1.092"/>
        <ellipse cx="79.277" cy="105.662" rx="1.211" ry="1.201"/>
        <ellipse cx="79.277" cy="105.662" rx="1.101" ry="1.092"/>
        <ellipse cx="79.277" cy="105.662" rx="1.101" ry="1.092"/>
        <ellipse cx="86.049" cy="110.192" rx="1.211" ry="1.201"/>
        <ellipse cx="86.049" cy="110.192" rx="1.101" ry="1.092"/>
        <ellipse cx="86.049" cy="110.192" rx="1.101" ry="1.092"/>
        <ellipse cx="99.427" cy="116.305" rx="1.211" ry="1.201"/>
        <ellipse cx="99.427" cy="116.305" rx="1.101" ry="1.092"/>
        <ellipse cx="99.427" cy="116.305" rx="1.101" ry="1.092"/>
        <ellipse cx="102.07" cy="122.254" rx="1.211" ry="1.201"/>
        <ellipse cx="102.07" cy="122.254" rx="1.101" ry="1.092"/>
        <ellipse cx="102.07" cy="122.254" rx="1.101" ry="1.092"/>
        <ellipse cx="97.996" cy="130.167" rx="1.211" ry="1.201"/>
        <ellipse cx="97.996" cy="130.167" rx="1.101" ry="1.092"/>
        <ellipse cx="97.996" cy="130.167" rx="1.101" ry="1.092"/>
        <ellipse cx="98.051" cy="136.662" rx="1.211" ry="1.201"/>
        <ellipse cx="98.051" cy="136.662" rx="1.101" ry="1.092"/>
        <ellipse cx="98.051" cy="136.662" rx="1.101" ry="1.092"/>
        <ellipse cx="104.767" cy="135.734" rx="1.211" ry="1.201"/>
        <ellipse cx="104.767" cy="135.734" rx="1.101" ry="1.092"/>
        <ellipse cx="104.767" cy="135.734" rx="1.101" ry="1.092"/>
        <ellipse cx="118.476" cy="129.185" rx="1.211" ry="1.201"/>
        <ellipse cx="118.476" cy="129.185" rx="1.101" ry="1.092"/>
        <ellipse cx="118.476" cy="129.185" rx="1.101" ry="1.092"/>
        <ellipse cx="136.148" cy="122.145" rx="1.211" ry="1.201"/>
        <ellipse cx="136.148" cy="122.145" rx="1.101" ry="1.092"/>
        <ellipse cx="136.148" cy="122.145" rx="1.101" ry="1.092"/>
        <ellipse cx="142.479" cy="115.595" rx="1.211" ry="1.201"/>
        <ellipse cx="142.479" cy="115.595" rx="1.101" ry="1.092"/>
        <ellipse cx="142.479" cy="115.595" rx="1.101" ry="1.092"/>
        <ellipse cx="147.324" cy="108.009" rx="1.211" ry="1.201"/>
        <ellipse cx="147.324" cy="108.009" rx="1.101" ry="1.092"/>
        <ellipse cx="147.324" cy="108.009" rx="1.101" ry="1.092"/>
        <ellipse cx="148.59" cy="102.442" rx="1.211" ry="1.201"/>
        <ellipse cx="148.59" cy="102.442" rx="1.101" ry="1.092"/>
        <ellipse cx="148.59" cy="102.442" rx="1.101" ry="1.092"/>
        <ellipse cx="152.774" cy="99.604" rx="1.211" ry="1.201"/>
        <ellipse cx="152.774" cy="99.604" rx="1.101" ry="1.092"/>
        <ellipse cx="152.774" cy="99.604" rx="1.101" ry="1.092"/>
        <ellipse cx="149.691" cy="93.655" rx="1.211" ry="1.201"/>
        <ellipse cx="149.691" cy="93.655" rx="1.101" ry="1.092"/>
        <ellipse cx="149.691" cy="93.655" rx="1.101" ry="1.092"/>
        <ellipse cx="147.929" cy="84.595" rx="1.211" ry="1.201"/>
        <ellipse cx="147.929" cy="84.595" rx="1.101" ry="1.092"/>
        <ellipse cx="147.929" cy="84.595" rx="1.101" ry="1.092"/>
        <ellipse cx="151.398" cy="74.826" rx="1.211" ry="1.201"/>
        <ellipse cx="151.398" cy="74.826" rx="1.101" ry="1.092"/>
        <ellipse cx="151.398" cy="74.826" rx="1.101" ry="1.092"/>
        <ellipse cx="146.718" cy="76.845" rx="1.211" ry="1.201"/>
        <ellipse cx="146.718" cy="76.845" rx="1.101" ry="1.092"/>
        <ellipse cx="146.718" cy="76.845" rx="1.101" ry="1.092"/>
        <ellipse cx="136.148" cy="95.784" rx="1.211" ry="1.201"/>
        <ellipse cx="136.148" cy="95.784" rx="1.101" ry="1.092"/>
        <ellipse cx="136.148" cy="95.784" rx="1.101" ry="1.092"/>
        <ellipse cx="131.358" cy="111.557" rx="1.211" ry="1.201"/>
        <ellipse cx="131.358" cy="111.557" rx="1.101" ry="1.092"/>
        <ellipse cx="131.358" cy="111.557" rx="1.101" ry="1.092"/>
        <ellipse cx="129.707" cy="119.307" rx="1.211" ry="1.201"/>
        <ellipse cx="129.707" cy="119.307" rx="1.101" ry="1.092"/>
        <ellipse cx="129.707" cy="119.307" rx="1.101" ry="1.092"/>
        <ellipse cx="127.78" cy="127.166" rx="1.211" ry="1.201"/>
        <ellipse cx="127.78" cy="127.166" rx="1.101" ry="1.092"/>
        <ellipse cx="127.78" cy="127.166" rx="1.101" ry="1.092"/>
        <ellipse cx="124.422" cy="123.946" rx="1.211" ry="1.201"/>
        <ellipse cx="124.422" cy="123.946" rx="1.101" ry="1.092"/>
        <ellipse cx="124.422" cy="123.946" rx="1.101" ry="1.092"/>
        <ellipse cx="122.55" cy="115.268" rx="1.211" ry="1.201"/>
        <ellipse cx="122.55" cy="115.268" rx="1.101" ry="1.092"/>
        <ellipse cx="122.55" cy="115.268" rx="1.101" ry="1.092"/>
        <ellipse cx="119.632" cy="110.465" rx="1.211" ry="1.201"/>
        <ellipse cx="119.632" cy="110.465" rx="1.101" ry="1.092"/>
        <ellipse cx="119.632" cy="110.465" rx="1.101" ry="1.092"/>
        <ellipse cx="122.77" cy="106.917" rx="1.211" ry="1.201"/>
        <ellipse cx="122.77" cy="106.917" rx="1.101" ry="1.092"/>
        <ellipse cx="122.77" cy="106.917" rx="1.101" ry="1.092"/>
        <ellipse cx="115.172" cy="117.123" rx="1.211" ry="1.201"/>
        <ellipse cx="115.172" cy="117.123" rx="1.101" ry="1.092"/>
        <ellipse cx="115.172" cy="117.123" rx="1.101" ry="1.092"/>
        <ellipse cx="114.016" cy="112.921" rx="1.211" ry="1.201"/>
        <ellipse cx="114.016" cy="112.921" rx="1.101" ry="1.092"/>
        <ellipse cx="114.016" cy="112.921" rx="1.101" ry="1.092"/>
        <ellipse cx="109.006" cy="108.609" rx="1.211" ry="1.201"/>
        <ellipse cx="109.006" cy="108.609" rx="1.101" ry="1.092"/>
        <ellipse cx="109.006" cy="108.609" rx="1.101" ry="1.092"/>
        <ellipse cx="113.301" cy="100.859" rx="1.211" ry="1.201"/>
        <ellipse cx="113.301" cy="100.859" rx="1.101" ry="1.092"/>
        <ellipse cx="113.301" cy="100.859" rx="1.101" ry="1.092"/>
        <ellipse cx="103.226" cy="101.351" rx="1.211" ry="1.201"/>
        <ellipse cx="103.226" cy="101.351" rx="1.101" ry="1.092"/>
        <ellipse cx="103.226" cy="101.351" rx="1.101" ry="1.092"/>
        <ellipse cx="107.85" cy="102.278" rx="1.211" ry="1.201"/>
        <ellipse cx="107.85" cy="102.278" rx="1.101" ry="1.092"/>
        <ellipse cx="107.85" cy="102.278" rx="1.101" ry="1.092"/>
        <ellipse cx="108.456" cy="96.984" rx="1.211" ry="1.201"/>
        <ellipse cx="108.456" cy="96.984" rx="1.101" ry="1.092"/>
        <ellipse cx="108.456" cy="96.984" rx="1.101" ry="1.092"/>
        <ellipse cx="116.219" cy="92.4" rx="1.211" ry="1.201"/>
        <ellipse cx="116.219" cy="92.4" rx="1.101" ry="1.092"/>
        <ellipse cx="116.219" cy="92.4" rx="1.101" ry="1.092"/>
        <ellipse cx="129.266" cy="81.43" rx="1.211" ry="1.201"/>
        <ellipse cx="129.266" cy="81.43" rx="1.101" ry="1.092"/>
        <ellipse cx="129.266" cy="81.43" rx="1.101" ry="1.092"/>
        <ellipse cx="135.047" cy="76.9" rx="1.211" ry="1.201"/>
        <ellipse cx="135.047" cy="76.9" rx="1.101" ry="1.092"/>
        <ellipse cx="135.047" cy="76.9" rx="1.101" ry="1.092"/>
        <ellipse cx="139.011" cy="72.042" rx="1.211" ry="1.201"/>
        <ellipse cx="139.011" cy="72.042" rx="1.101" ry="1.092"/>
        <ellipse cx="139.011" cy="72.042" rx="1.101" ry="1.092"/>
        <ellipse cx="141.929" cy="67.349" rx="1.211" ry="1.201"/>
        <ellipse cx="141.929" cy="67.349" rx="1.101" ry="1.092"/>
        <ellipse cx="141.929" cy="67.349" rx="1.101" ry="1.092"/>
        <ellipse cx="147.434" cy="67.185" rx="1.211" ry="1.201"/>
        <ellipse cx="147.434" cy="67.185" rx="1.101" ry="1.092"/>
        <ellipse cx="147.434" cy="67.185" rx="1.101" ry="1.092"/>
        <ellipse cx="148.92" cy="62.109" rx="1.211" ry="1.201"/>
        <ellipse cx="148.92" cy="62.109" rx="1.101" ry="1.092"/>
        <ellipse cx="148.92" cy="62.109" rx="1.101" ry="1.092"/>
        <ellipse cx="141.598" cy="56.706" rx="1.211" ry="1.201"/>
        <ellipse cx="141.598" cy="56.706" rx="1.101" ry="1.092"/>
        <ellipse cx="141.598" cy="56.706" rx="1.101" ry="1.092"/>
        <ellipse cx="123.871" cy="56.815" rx="1.211" ry="1.201"/>
        <ellipse cx="123.871" cy="56.815" rx="1.101" ry="1.092"/>
        <ellipse cx="123.871" cy="56.815" rx="1.101" ry="1.092"/>
        <ellipse cx="114.567" cy="53.65" rx="1.211" ry="1.201"/>
        <ellipse cx="114.567" cy="53.65" rx="1.101" ry="1.092"/>
        <ellipse cx="114.567" cy="53.65" rx="1.101" ry="1.092"/>
        <ellipse cx="93.922" cy="54.523" rx="1.211" ry="1.201"/>
        <ellipse cx="93.922" cy="54.523" rx="1.101" ry="1.092"/>
        <ellipse cx="93.922" cy="54.523" rx="1.101" ry="1.092"/>
        <ellipse cx="82.801" cy="54.96" rx="1.211" ry="1.201"/>
        <ellipse cx="82.801" cy="54.96" rx="1.101" ry="1.092"/>
        <ellipse cx="82.801" cy="54.96" rx="1.101" ry="1.092"/>
        <ellipse cx="65.404" cy="54.632" rx="1.211" ry="1.201"/>
        <ellipse cx="65.404" cy="54.632" rx="1.101" ry="1.092"/>
        <ellipse cx="65.404" cy="54.632" rx="1.101" ry="1.092"/>
        <ellipse cx="59.293" cy="60.745" rx="1.211" ry="1.201"/>
        <ellipse cx="59.293" cy="60.745" rx="1.101" ry="1.092"/>
        <ellipse cx="59.293" cy="60.745" rx="1.101" ry="1.092"/>
        <ellipse cx="57.476" cy="70.569" rx="1.211" ry="1.201"/>
        <ellipse cx="57.476" cy="70.569" rx="1.101" ry="1.092"/>
        <ellipse cx="57.476" cy="70.569" rx="1.101" ry="1.092"/>
        <ellipse cx="59.954" cy="75.917" rx="1.211" ry="1.201"/>
        <ellipse cx="59.954" cy="75.917" rx="1.101" ry="1.092"/>
        <ellipse cx="59.954" cy="75.917" rx="1.101" ry="1.092"/>
        <ellipse cx="70.138" cy="76.299" rx="1.211" ry="1.201"/>
        <ellipse cx="70.138" cy="76.299" rx="1.101" ry="1.092"/>
        <ellipse cx="70.138" cy="76.299" rx="1.101" ry="1.092"/>
        <ellipse cx="75.754" cy="70.241" rx="1.211" ry="1.201"/>
        <ellipse cx="75.754" cy="70.241" rx="1.101" ry="1.092"/>
        <ellipse cx="75.754" cy="70.241" rx="1.101" ry="1.092"/>
        <ellipse cx="73.552" cy="61.618" rx="1.211" ry="1.201"/>
        <ellipse cx="73.552" cy="61.618" rx="1.101" ry="1.092"/>
        <ellipse cx="73.552" cy="61.618" rx="1.101" ry="1.092"/>
        <ellipse cx="67.661" cy="59.544" rx="1.211" ry="1.201"/>
        <ellipse cx="67.661" cy="59.544" rx="1.101" ry="1.092"/>
        <ellipse cx="67.661" cy="59.544" rx="1.101" ry="1.092"/>
        <ellipse cx="51.475" cy="59.817" rx="1.211" ry="1.201"/>
        <ellipse cx="51.475" cy="59.817" rx="1.101" ry="1.092"/>
        <ellipse cx="51.475" cy="59.817" rx="1.101" ry="1.092"/>
        <ellipse cx="35.785" cy="65.22" rx="1.211" ry="1.201"/>
        <ellipse cx="35.785" cy="65.22" rx="1.101" ry="1.092"/>
        <ellipse cx="35.785" cy="65.22" rx="1.101" ry="1.092"/>
        <ellipse cx="21.911" cy="68.713" rx="1.211" ry="1.201"/>
        <ellipse cx="21.911" cy="68.713" rx="1.101" ry="1.092"/>
        <ellipse cx="21.911" cy="68.713" rx="1.101" ry="1.092"/>
        <ellipse cx="7.983" cy="71.224" rx="1.211" ry="1.201"/>
        <ellipse cx="7.983" cy="71.224" rx="1.101" ry="1.092"/>
        <ellipse cx="7.983" cy="71.224" rx="1.101" ry="1.092"/>
        <ellipse cx="5.285" cy="65.548" rx="1.211" ry="1.201"/>
        <ellipse cx="5.285" cy="65.548" rx="1.101" ry="1.092"/>
        <ellipse cx="5.285" cy="65.548" rx="1.101" ry="1.092"/>
        <ellipse cx="8.313" cy="55.123" rx="1.211" ry="1.201"/>
        <ellipse cx="8.313" cy="55.123" rx="1.101" ry="1.092"/>
        <ellipse cx="8.313" cy="55.123" rx="1.101" ry="1.092"/>
        <ellipse cx="23.453" cy="41.752" rx="1.211" ry="1.201"/>
        <ellipse cx="23.453" cy="41.752" rx="1.101" ry="1.092"/>
        <ellipse cx="23.453" cy="41.752" rx="1.101" ry="1.092"/>
        <ellipse cx="44.098" cy="35.148" rx="1.211" ry="1.201"/>
        <ellipse cx="44.098" cy="35.148" rx="1.101" ry="1.092"/>
        <ellipse cx="44.098" cy="35.148" rx="1.101" ry="1.092"/>
        <ellipse cx="54.118" cy="37.495" rx="1.211" ry="1.201"/>
        <ellipse cx="54.118" cy="37.495" rx="1.101" ry="1.092"/>
        <ellipse cx="54.118" cy="37.495" rx="1.101" ry="1.092"/>
        <ellipse cx="57.311" cy="32.31" rx="1.211" ry="1.201"/>
        <ellipse cx="57.311" cy="32.31" rx="1.101" ry="1.092"/>
        <ellipse cx="57.311" cy="32.31" rx="1.101" ry="1.092"/>
        <ellipse cx="59.128" cy="12.553" rx="1.211" ry="1.201"/>
        <ellipse cx="59.128" cy="12.553" rx="1.101" ry="1.092"/>
        <ellipse cx="59.128" cy="12.553" rx="1.101" ry="1.092"/>
        <ellipse cx="58.852" cy="17.356" rx="1.211" ry="1.201"/>
        <ellipse cx="58.852" cy="17.356" rx="1.101" ry="1.092"/>
        <ellipse cx="58.852" cy="17.356" rx="1.101" ry="1.092"/>
        <ellipse cx="83.241" cy="33.129" rx="1.211" ry="1.201"/>
        <ellipse cx="83.241" cy="33.129" rx="1.101" ry="1.092"/>
        <ellipse cx="83.241" cy="33.129" rx="1.101" ry="1.092"/>
        <ellipse cx="83.076" cy="41.206" rx="1.211" ry="1.201"/>
        <ellipse cx="83.076" cy="41.206" rx="1.101" ry="1.092"/>
        <ellipse cx="83.076" cy="41.206" rx="1.101" ry="1.092"/>
        <ellipse cx="57.036" cy="43.662" rx="1.211" ry="1.201"/>
        <ellipse cx="57.036" cy="43.662" rx="1.101" ry="1.092"/>
        <ellipse cx="57.036" cy="43.662" rx="1.101" ry="1.092"/>
        <ellipse cx="39.859" cy="43.28" rx="1.211" ry="1.201"/>
        <ellipse cx="39.859" cy="43.28" rx="1.101" ry="1.092"/>
        <ellipse cx="39.859" cy="43.28" rx="1.101" ry="1.092"/>
        <ellipse cx="44.318" cy="40.988" rx="1.211" ry="1.201"/>
        <ellipse cx="44.318" cy="40.988" rx="1.101" ry="1.092"/>
        <ellipse cx="44.318" cy="40.988" rx="1.101" ry="1.092"/>
        <ellipse cx="83.406" cy="25.706" rx="1.211" ry="1.201"/>
        <ellipse cx="83.406" cy="25.706" rx="1.101" ry="1.092"/>
        <ellipse cx="83.406" cy="25.706" rx="1.101" ry="1.092"/>
        <ellipse cx="110.273" cy="22.923" rx="1.211" ry="1.201"/>
        <ellipse cx="110.273" cy="22.923" rx="1.101" ry="1.092"/>
        <ellipse cx="110.273" cy="22.923" rx="1.101" ry="1.092"/>
        <ellipse cx="115.833" cy="22.322" rx="1.211" ry="1.201"/>
        <ellipse cx="115.833" cy="22.322" rx="1.101" ry="1.092"/>
        <ellipse cx="115.833" cy="22.322" rx="1.101" ry="1.092"/>
        <ellipse cx="120.953" cy="10.752" rx="1.211" ry="1.201"/>
        <ellipse cx="120.953" cy="10.752" rx="1.101" ry="1.092"/>
        <ellipse cx="120.953" cy="10.752" rx="1.101" ry="1.092"/>
        <ellipse cx="125.578" cy="8.132" rx="1.211" ry="1.201"/>
        <ellipse cx="125.578" cy="8.132" rx="1.101" ry="1.092"/>
        <ellipse cx="125.578" cy="8.132" rx="1.101" ry="1.092"/>
        <ellipse cx="124.091" cy="14.354" rx="1.211" ry="1.201"/>
        <ellipse cx="124.091" cy="14.354" rx="1.101" ry="1.092"/>
        <ellipse cx="124.091" cy="14.354" rx="1.101" ry="1.092"/>
        <ellipse cx="91.94" cy="18.829" rx="1.211" ry="1.201"/>
        <ellipse cx="91.94" cy="18.829" rx="1.101" ry="1.092"/>
        <ellipse cx="91.94" cy="18.829" rx="1.101" ry="1.092"/>
        <ellipse cx="93.481" cy="23.141" rx="1.211" ry="1.201"/>
        <ellipse cx="93.481" cy="23.141" rx="1.101" ry="1.092"/>
        <ellipse cx="93.481" cy="23.141" rx="1.101" ry="1.092"/>
        <ellipse cx="110.493" cy="30.181" rx="1.211" ry="1.201"/>
        <ellipse cx="110.493" cy="30.181" rx="1.101" ry="1.092"/>
        <ellipse cx="110.493" cy="30.181" rx="1.101" ry="1.092"/>
        <ellipse cx="115.723" cy="30.127" rx="1.211" ry="1.201"/>
        <ellipse cx="115.723" cy="30.127" rx="1.101" ry="1.092"/>
        <ellipse cx="115.723" cy="30.127" rx="1.101" ry="1.092"/>
        <ellipse cx="137.689" cy="27.998" rx="1.211" ry="1.201"/>
        <ellipse cx="137.689" cy="27.998" rx="1.101" ry="1.092"/>
        <ellipse cx="137.689" cy="27.998" rx="1.101" ry="1.092"/>
        <ellipse cx="143.911" cy="34.711" rx="1.211" ry="1.201"/>
        <ellipse cx="143.911" cy="34.711" rx="1.101" ry="1.092"/>
        <ellipse cx="143.911" cy="34.711" rx="1.101" ry="1.092"/>
        <ellipse cx="152.059" cy="48.574" rx="1.211" ry="1.201"/>
        <ellipse cx="152.059" cy="48.574" rx="1.101" ry="1.092"/>
        <ellipse cx="152.059" cy="48.574" rx="1.101" ry="1.092"/>
        <ellipse cx="156.243" cy="60.363" rx="1.211" ry="1.201"/>
        <ellipse cx="156.243" cy="60.363" rx="1.101" ry="1.092"/>
        <ellipse cx="156.243" cy="60.363" rx="1.101" ry="1.092"/>
        <ellipse cx="158.225" cy="69.968" rx="1.211" ry="1.201"/>
        <ellipse cx="158.225" cy="69.968" rx="1.101" ry="1.092"/>
        <ellipse cx="158.225" cy="69.968" rx="1.101" ry="1.092"/>
        <ellipse cx="159.271" cy="81.43" rx="1.211" ry="1.201"/>
        <ellipse cx="159.271" cy="81.43" rx="1.101" ry="1.092"/>
        <ellipse cx="159.271" cy="81.43" rx="1.101" ry="1.092"/>
        <ellipse cx="160.151" cy="93.437" rx="1.211" ry="1.201"/>
        <ellipse cx="160.151" cy="93.437" rx="1.101" ry="1.092"/>
        <ellipse cx="160.151" cy="93.437" rx="1.101" ry="1.092"/>
        <ellipse cx="160.647" cy="102.77" rx="1.211" ry="1.201"/>
        <ellipse cx="160.647" cy="102.77" rx="1.101" ry="1.092"/>
        <ellipse cx="160.647" cy="102.77" rx="1.101" ry="1.092"/>
        <ellipse cx="158.39" cy="111.338" rx="1.211" ry="1.201"/>
        <ellipse cx="158.39" cy="111.338" rx="1.101" ry="1.092"/>
        <ellipse cx="158.39" cy="111.338" rx="1.101" ry="1.092"/>
        <ellipse cx="155.142" cy="120.835" rx="1.211" ry="1.201"/>
        <ellipse cx="155.142" cy="120.835" rx="1.101" ry="1.092"/>
        <ellipse cx="155.142" cy="120.835" rx="1.101" ry="1.092"/>
        <ellipse cx="142.149" cy="137.372" rx="1.211" ry="1.201"/>
        <ellipse cx="142.149" cy="137.372" rx="1.101" ry="1.092"/>
        <ellipse cx="142.149" cy="137.372" rx="1.101" ry="1.092"/>
        <ellipse cx="123.596" cy="148.069" rx="1.211" ry="1.201"/>
        <ellipse cx="123.596" cy="148.069" rx="1.101" ry="1.092"/>
        <ellipse cx="123.596" cy="148.069" rx="1.101" ry="1.092"/>
        <ellipse cx="95.683" cy="153.636" rx="1.211" ry="1.201"/>
        <ellipse cx="95.683" cy="153.636" rx="1.101" ry="1.092"/>
        <ellipse cx="95.683" cy="153.636" rx="1.101" ry="1.092"/>
        <ellipse cx="82.085" cy="154.618" rx="1.211" ry="1.201"/>
        <ellipse cx="82.085" cy="154.618" rx="1.101" ry="1.092"/>
        <ellipse cx="82.085" cy="154.618" rx="1.101" ry="1.092"/>
        <ellipse cx="69.863" cy="157.347" rx="1.211" ry="1.201"/>
        <ellipse cx="69.863" cy="157.347" rx="1.101" ry="1.092"/>
        <ellipse cx="69.863" cy="157.347" rx="1.101" ry="1.092"/>
        <ellipse cx="56.045" cy="160.567" rx="1.211" ry="1.201"/>
        <ellipse cx="56.045" cy="160.567" rx="1.101" ry="1.092"/>
        <ellipse cx="56.045" cy="160.567" rx="1.101" ry="1.092"/>
        <ellipse cx="50.319" cy="160.349" rx="1.211" ry="1.201"/>
        <ellipse cx="50.319" cy="160.349" rx="1.101" ry="1.092"/>
        <ellipse cx="50.319" cy="160.349" rx="1.101" ry="1.092"/>
        <ellipse cx="33.638" cy="156.965" rx="1.211" ry="1.201"/>
        <ellipse cx="33.638" cy="156.965" rx="1.101" ry="1.092"/>
        <ellipse cx="33.638" cy="156.965" rx="1.101" ry="1.092"/>
        <ellipse cx="28.518" cy="155.273" rx="1.211" ry="1.201"/>
        <ellipse cx="28.518" cy="155.273" rx="1.101" ry="1.092"/>
        <ellipse cx="28.518" cy="155.273" rx="1.101" ry="1.092"/>
        <ellipse cx="34.023" cy="146.05" rx="1.211" ry="1.201"/>
        <ellipse cx="34.023" cy="146.05" rx="1.101" ry="1.092"/>
        <ellipse cx="34.023" cy="146.05" rx="1.101" ry="1.092"/>
        <ellipse cx="36.446" cy="134.861" rx="1.211" ry="1.201"/>
        <ellipse cx="36.446" cy="134.861" rx="1.101" ry="1.092"/>
        <ellipse cx="36.446" cy="134.861" rx="1.101" ry="1.092"/>
        <ellipse cx="36.335" cy="119.307" rx="1.211" ry="1.201"/>
        <ellipse cx="36.335" cy="119.307" rx="1.101" ry="1.092"/>
        <ellipse cx="36.335" cy="119.307" rx="1.101" ry="1.092"/>
        <ellipse cx="35.069" cy="110.083" rx="1.211" ry="1.201"/>
        <ellipse cx="35.069" cy="110.083" rx="1.101" ry="1.092"/>
        <ellipse cx="35.069" cy="110.083" rx="1.101" ry="1.092"/>
        <ellipse cx="36.611" cy="102.551" rx="1.211" ry="1.201"/>
        <ellipse cx="36.611" cy="102.551" rx="1.101" ry="1.092"/>
        <ellipse cx="36.611" cy="102.551" rx="1.101" ry="1.092"/>
      </g>
    </g>
  </g>
  <path fill="#94b3ca" d="M110.933 125.082a35.09 35.09 0 0 0-.825-9.58c-.33-1.486-.936-2.917-1.872-4.183a4.202 4.202 0 0 0-3.689-1.652 5.066 5.066 0 0 0-3.744 1.872 10.529 10.529 0 0 0-1.926 4.129c-.716 3.138-1.046 6.331-.826 9.524.055.881-.606.991-.716.055-.165-1.651-.275-3.303-.22-4.955 0-1.651.22-3.303.55-4.954a11.26 11.26 0 0 1 2.092-4.68 5.732 5.732 0 0 1 2.092-1.707c.826-.385 1.707-.66 2.643-.66a5.63 5.63 0 0 1 4.845 2.257c.55.716.99 1.486 1.266 2.312.33.77.55 1.597.716 2.423.33 1.651.495 3.303.495 4.954.055 1.652-.055 3.304-.22 4.955-.055 1.101-.66.991-.66-.11zm28.628.11c-.165-1.651-.275-3.303-.22-4.955 0-1.651.165-3.303.496-4.954.165-.826.385-1.652.715-2.423.33-.826.716-1.596 1.266-2.312 1.157-1.487 2.973-2.367 4.845-2.257a7.19 7.19 0 0 1 2.643.66c.826.44 1.541.991 2.092 1.707a11.26 11.26 0 0 1 2.092 4.68c.33 1.651.55 3.303.55 4.954.056 1.652-.055 3.304-.22 4.955-.11.936-.77.826-.715-.055a34.509 34.509 0 0 0-.826-9.524 10.529 10.529 0 0 0-1.927-4.129 4.974 4.974 0 0 0-3.744-1.872 4.202 4.202 0 0 0-3.688 1.652 11.105 11.105 0 0 0-1.872 4.184 39.787 39.787 0 0 0-.826 9.58c.11 1.1-.55 1.21-.66.11z"/>
  <path fill="#ff8aff" d="M126.514 144.076c-4.13-.33-6.662 2.477-8.038 4.9 1.376 3.963 3.633 6.991 7.487 6.771 3.854-.22 6.166-3.248 7.763-7.102-1.377-2.037-3.579-4.239-7.212-4.57z"/>
  <g transform="translate(126.624 143.69)">
    <mask id="h" fill="#fff">
      <use width="100%" height="100%" xlink:href="#g"/>
    </mask>
    <path fill="#ff8aff" d="M-3.358-1.211s-4.46 8.148 5.615 12.442c10.075 4.294-2.312 6.772-3.743 6-1.432-.77-10.185-9.138-10.185-9.138l-1.322-5.395z" mask="url(#h)" opacity=".35"/>
  </g>
  <path fill="#733335" d="M116.494 131.578s-.55 10.24 1.927 17.397c1.376-2.367 3.908-5.23 8.037-4.9 3.634.331 5.836 2.533 7.157 4.57 2.918-7.157 2.863-17.067 2.863-17.067-11.45 7.928-19.984 0-19.984 0z"/>
  <path fill="#cdeeee" d="M103.28 147.764c9.69.22 6.057 24.61 5.837 32.537-.22 7.983 1.431 15.03 1.596 20.205.11 5.175 2.808 20.755-8.864 20.645-11.67-.11-4.514-30.445-4.404-36.72-.055 0-3.854-36.942 5.836-36.667zm32.813 0c-9.69.22-6.056 24.61-5.836 32.537.22 7.983-1.431 15.03-1.596 20.205-.11 5.175-2.808 20.755 8.863 20.645 11.672-.11 4.515-30.445 4.405-36.72.055 0 3.853-36.942-5.836-36.667z"/>
  <g transform="translate(94.748 147.544)">
    <mask id="j" fill="#fff">
      <use width="100%" height="100%" xlink:href="#i"/>
    </mask>
    <path fill="#9deeee" d="m15.03 28.518-9.635 5.395S5.23 48.007 3.91 54.723C2.588 61.44 3.413 70.91 8.148 74.488c4.735 3.578-9.414 1.651-9.414 1.651s-10.13-8.533-9.855-11.065c.275-2.533-1.927-33.253-1.321-37.272.605-4.019 5.12-28.903 5.12-28.903L4.68-3.468l3.633 1.431C6.882 4.129 6.056 10.35 5.891 16.681c-.165 9.304 9.139 7.157 9.139 7.157zm35.234 0L40.08 33.913s-.44 14.094-1.762 20.81c-1.32 6.717-.66 16.186 4.074 19.765 4.735 3.578-9.469 1.651-9.469 1.651s-10.185-8.533-9.854-11.065c.275-2.533-1.927-33.253-1.322-37.272.606-4.019 5.065-28.903 5.065-28.903l12.002-2.367 3.633 1.431c-1.1 6.166-1.706 12.442-1.926 18.718-.166 9.304 9.689 7.157 9.689 7.157l.055 4.68z" mask="url(#j)" opacity=".35"/>
  </g>
  <path fill="#ddf5f5" d="M186.027 138.515s.66-7.872 6.826-6.166c0 0 10.24 9.745 0 20.425-10.24 10.68-20.535 14.039-33.252 17.067-12.718 3.028-12.222 6.276-24.224 7.652-12.002 1.377-14.479-4.129-14.369-8.973.11-4.845 4.46-10.901 15.305-10.68 10.846.22 9.635 4.293 20.645 2.477 11.011-1.817 22.462-7.488 26.26-10.406 3.8-2.917 7.158-6.881 2.809-11.396zm-118.09 2.037s-12.333 2.698-11.232 12.938c1.101 10.24 9.91 12.332 20.15 14.7 10.24 2.367 8.313 7.156 20.59 8.312 12.277 1.156 17.177-4.404 15.966-11.671-1.211-7.267-13.378-6.827-27.417-6.937-14.039-.11-18.058-6.496-18.058-6.496z"/>
  <g transform="translate(56.21 131.578)">
    <mask id="l" fill="#fff">
      <use width="100%" height="100%" xlink:href="#k"/>
    </mask>
    <path fill="#c2f5f5" d="M11.341 19.159s-4.514 6 1.927 9.304c6.441 3.303 14.204 4.79 17.342 7.652 3.138 2.863 18.388 6.111 28.463 0 10.075-6.11 3.138 14.094 3.138 14.094l-37.106-.77S2.367 38.206 2.367 37.491c0-.716-4.68-23.949-4.68-23.949S15.36 4.13 15.8 3.578c.44-.55 10.185-1.156 10.185-1.156zm52.687 14.589s.055 6.772 11.891 6.331c11.837-.44 16.736-3.854 16.736-3.854s8.204 1.212 26.04-6c17.838-7.213 23.784-14.975 23.784-14.975l-3.578 13.378-43.548 19.324H73.332s-4.79-1.597-6.277-1.872c-1.486-.275-4.79-3.744-4.79-3.744z" mask="url(#l)" opacity=".35"/>
  </g>
  <path fill="#249e7c" d="M70.138 40.795h1.652v39.639h-1.652zm13.764 13.763h1.652v13.764h-1.652zm110.107-19.82h1.652V65.57h-1.652zM179.695 56.21h1.652v15.965h-1.652z"/>
</svg>
