<svg xmlns="http://www.w3.org/2000/svg" viewBox="0 0 256 192.009">
  <defs>
    <radialGradient id="a" cx="131.185" cy="34.489" r="105.401" fx="131.185" fy="34.489" gradientTransform="scale(1.15467 .86605)" gradientUnits="userSpaceOnUse">
      <stop offset="0%" stop-color="#EC3F3A"/>
      <stop offset="100%" stop-color="#92268E"/>
    </radialGradient>
  </defs>
  <path fill="url(#a)" d="M154.415 78.287C155.849 31.022 113.966-5.643 67.05.72 35.785 4.96 10.73 26.801 2.637 56.877c-7.98 29.645 2.484 61.376 26.873 80.179 22.582 17.408 45.414 34.49 68.164 51.677 5.211 3.938 9.69 4.317 13.637 1.185 4.471-3.544 4.513-8.007 2.645-12.99-3.426-9.138-6.656-18.35-10.096-27.89 2.1-.93 3.985-1.683 5.799-2.581 28.227-13.982 43.804-36.808 44.756-68.17zm67.98-37.06c-20.073-10.989-40.595-10.941-61.564-1.214 14.392 34.698 8.543 72.787-19.178 101.847l18.495 14.614c-3.84 7.41-7.738 14.846-11.55 22.325-1.874 3.678-2.025 7.384 1.103 10.457 3.257 3.2 7.038 3.16 10.88.955 21.598-12.395 43.49-24.311 64.726-37.299 42.234-25.832 40.522-87.905-2.913-111.684z" style="fill:url(#a)"/>
</svg>
