<svg xmlns="http://www.w3.org/2000/svg" viewBox="0 0 511.14 124.932">
  <path fill="#4a4a55" d="M166.663 96.865a26.86 26.86 0 0 1-15.304-4.324 22.166 22.166 0 0 1-8.936-11.835l9.316-3.422a17.184 17.184 0 0 0 6.084 7.367 16.024 16.024 0 0 0 9.22 2.709c3.15.164 6.26-.777 8.792-2.661a9.23 9.23 0 0 0 3.28-7.605 8.316 8.316 0 0 0-.904-3.85 11.517 11.517 0 0 0-2.044-2.9 13.788 13.788 0 0 0-3.517-2.329c-1.585-.79-2.9-1.393-3.944-1.806-1.046-.41-2.583-.965-4.61-1.663-2.536-.887-4.437-1.584-5.704-2.09a42.901 42.901 0 0 1-4.99-2.52 18.448 18.448 0 0 1-4.658-3.517 17.056 17.056 0 0 1-2.804-4.61 16.475 16.475 0 0 1 4.467-18.726c3.803-3.359 8.968-5.038 15.495-5.038 5.449 0 9.932 1.204 13.45 3.612a17.466 17.466 0 0 1 7.081 9.601l-9.125 3.041a10.623 10.623 0 0 0-4.42-4.895 14.847 14.847 0 0 0-7.747-1.854 11.939 11.939 0 0 0-7.462 2.092 7.015 7.015 0 0 0-2.71 5.893 6.15 6.15 0 0 0 2.091 4.563 14.373 14.373 0 0 0 4.373 2.947c1.522.634 3.835 1.489 6.94 2.566 1.9.698 3.31 1.221 4.229 1.569.919.347 2.266.933 4.04 1.758 1.422.63 2.79 1.377 4.087 2.234a35.845 35.845 0 0 1 3.327 2.71 14.193 14.193 0 0 1 2.9 3.468 19.398 19.398 0 0 1 1.71 4.277 19.63 19.63 0 0 1 .715 5.371c0 6.212-2.124 11.075-6.37 14.59-4.246 3.519-9.695 5.278-16.348 5.277zm60.929-1.14-22.814-66.54h10.647l15.114 46.388a71.91 71.91 0 0 1 2.091 7.604 71.428 71.428 0 0 1 2.092-7.604l14.923-46.388h10.552l-22.72 66.54zm52.755 0v-66.54h41.255v9.316h-31.368v18.251h20.245v9.316h-20.245v20.34h33.458v9.317zm68.534 0v-66.54h9.887V86.22h32.509v9.506zm79.656-57.034v57.034h-9.887V38.69h-18.82v-9.505h47.528v9.505zm39.257 57.034v-66.54h41.255v9.316h-31.368v18.251h20.246v9.316h-20.246v20.34h33.459v9.317z"/>
  <path fill="#ff3e00" d="M97.329 16.53C85.728-.074 62.816-4.995 46.249 5.56L17.156 24.103A33.378 33.378 0 0 0 2.075 46.46a35.153 35.153 0 0 0 3.467 22.568A33.47 33.47 0 0 0 .55 81.502a35.57 35.57 0 0 0 6.076 26.9c11.604 16.606 34.516 21.525 51.08 10.97l29.094-18.542a33.373 33.373 0 0 0 15.08-22.358 35.168 35.168 0 0 0-3.465-22.568 33.465 33.465 0 0 0 4.99-12.474 35.561 35.561 0 0 0-6.075-26.9"/>
  <path fill="#fff" d="M43.407 109.965a23.11 23.11 0 0 1-24.803-9.195 21.387 21.387 0 0 1-3.655-16.177c.168-.92.4-1.828.695-2.717l.548-1.67 1.49 1.094a37.532 37.532 0 0 0 11.381 5.687l1.082.328-.1 1.079a6.522 6.522 0 0 0 1.174 4.326 6.96 6.96 0 0 0 7.468 2.772 6.409 6.409 0 0 0 1.787-.786l29.095-18.54a6.058 6.058 0 0 0 2.733-4.051 6.463 6.463 0 0 0-1.101-4.876 6.964 6.964 0 0 0-7.472-2.773 6.406 6.406 0 0 0-1.784.784l-11.103 7.078a21.231 21.231 0 0 1-5.908 2.594 23.11 23.11 0 0 1-24.804-9.194 21.387 21.387 0 0 1-3.655-16.177 20.066 20.066 0 0 1 9.068-13.443l29.093-18.543a21.197 21.197 0 0 1 5.912-2.597 23.11 23.11 0 0 1 24.804 9.194 21.387 21.387 0 0 1 3.655 16.177c-.17.92-.402 1.829-.695 2.717l-.548 1.671-1.49-1.093a37.5 37.5 0 0 0-11.382-5.689l-1.081-.328.1-1.08a6.534 6.534 0 0 0-1.174-4.325 6.96 6.96 0 0 0-7.468-2.772 6.409 6.409 0 0 0-1.787.785L34.387 48.767a6.048 6.048 0 0 0-2.732 4.05 6.454 6.454 0 0 0 1.099 4.877 6.964 6.964 0 0 0 7.471 2.773 6.43 6.43 0 0 0 1.787-.785l11.101-7.075a21.17 21.17 0 0 1 5.908-2.596 23.11 23.11 0 0 1 24.804 9.194 21.387 21.387 0 0 1 3.655 16.177 20.076 20.076 0 0 1-9.069 13.445l-29.092 18.54a21.197 21.197 0 0 1-5.912 2.598"/>
</svg>
