<?xml version="1.0" encoding="UTF-8"?>
<svg width="100" height="100" version="1.1" viewBox="0 0 100 100" xmlns="http://www.w3.org/2000/svg" xmlns:cc="http://creativecommons.org/ns#" xmlns:dc="http://purl.org/dc/elements/1.1/" xmlns:rdf="http://www.w3.org/1999/02/22-rdf-syntax-ns#" xmlns:xlink="http://www.w3.org/1999/xlink">
 <metadata>
  <rdf:RDF>
   <cc:Work rdf:about="">
    <dc:format>image/svg+xml</dc:format>
    <dc:type rdf:resource="http://purl.org/dc/dcmitype/StillImage"/>
    <dc:title/>
   </cc:Work>
  </rdf:RDF>
 </metadata>
 <defs>
  <linearGradient id="a" x1="263.36" x2="333.47" y1="14.74" y2="84.85" gradientUnits="userSpaceOnUse">
   <stop stop-color="#45afe4" offset="0"/>
   <stop stop-color="#364f9e" offset="1"/>
  </linearGradient>
  <linearGradient id="b" x1="262.64" x2="332.75" y1="15.46" y2="85.57" gradientTransform="matrix(1.0002 0 0 1.0002 -248.65 -.050008)" xlink:href="#a"/>
  <style>.text {
        fill: #1d1d1b;
      }
      .gear {
        fill: url(#a);
      }
      .dots {
        fill: url(#b);
      }
      @media (prefers-color-scheme: dark) {
        .text,.gear,.dots {
          fill: #ffffff;
        }
      }</style>
  <linearGradient id="linearGradient26" x1="263.36" x2="333.47" y1="14.74" y2="84.85" gradientTransform="matrix(1.0002 0 0 1.0002 -248.65 -.050008)" gradientUnits="userSpaceOnUse" xlink:href="#a"/>
 </defs>
 <path class="gear" d="m91.563 39.838a43.429 43.429 0 0 0-5.151-11.882c1.7203-2.4105 3.3607-4.891 4.891-7.4915l-11.812-11.762c-2.6805 1.5803-5.221 3.2807-7.7115 5.051a42.488 42.488 0 0 0-11.522-4.751c-0.5101-3.0006-1.1102-6.0012-1.9004-9.0018h-16.673c-0.78016 3.0006-1.3703 5.9212-1.8704 8.8818a42.909 42.909 0 0 0-11.852 4.7009c-2.3905-1.6903-4.831-3.3307-7.4115-4.831l-11.782 11.732c1.4203 2.4305 2.9406 4.7409 4.5309 7.0014a43.109 43.109 0 0 0-5.5111 12.472c-2.6005 0.46009-5.181 1.0002-7.7816 1.6803v16.653c2.4205 0.64013 4.821 1.1402 7.2414 1.5803a42.949 42.949 0 0 0 5.3411 13.583 82.709 82.709 0 0 0-3.8208 6.0012l11.782 11.792c2.0004-1.1602 3.9008-2.4005 5.7612-3.6807a42.759 42.759 0 0 0 13.923 5.8012c0.40008 2.2204 0.88018 4.4209 1.4503 6.6313h16.723c0.59012-2.2705 1.0702-4.5309 1.4903-6.7914a43.079 43.079 0 0 0 13.513-5.8912c2.0004 1.3603 4.0008 2.6705 6.0712 3.9008l11.782-11.792a96.906 96.906 0 0 0-4.1908-6.4813 43.129 43.129 0 0 0 5.001-13.003c2.6405-0.47009 5.2811-1.0002 7.9216-1.7003v-16.613c-2.7906-0.74015-5.5811-1.3103-8.4317-1.7904zm-29.226 40.058a31.546 31.546 0 0 1-24.775 0.23005 0.13003 0.13003 0 0 0 0-0.06001 31.676 31.676 0 0 1-17.193-17.644l-0.16003-0.42008a31.476 31.476 0 0 1 0.62012-23.515c0.18004-0.42008 0.37007-0.84017 0.58012-1.2603a31.746 31.746 0 0 1 15.893-15.163q1.0002-0.43009 2.1004-0.81016a31.506 31.506 0 0 1 10.282-1.7203 31.126 31.126 0 0 1 10.792 1.9104c0.79016 0.29006 1.5603 0.60012 2.3205 1.0002a31.646 31.646 0 0 1 15.183 14.813q0.45009 0.91018 0.84017 1.8604a31.406 31.406 0 0 1 0.59012 22.344c-0.12002 0.35007-0.24005 0.70014-0.38008 1.0002a31.696 31.696 0 0 1-16.483 17.293z" fill="url(#linearGradient26)" stroke-width="1.0002"/>
 <path class="dots" d="m72.409 60.872a6.3313 6.3313 0 0 0-10.632-3.2607l-5.001-3.7207a8.6317 8.6317 0 0 0-2.2805-11.302l4.0008-6.9314a4.3409 4.3409 0 1 0-2.8006-2.7005 4.2709 4.2709 0 0 0 1.0802 1.6603l-4.0008 6.9314a8.7918 8.7918 0 0 0-3.9408-0.72014 8.6517 8.6517 0 0 0-7.2014 4.6609l-8.5817-3.3707v-0.09002a4.0008 4.0008 0 1 0-0.75015 1.9504l8.5817 3.3707a8.6717 8.6717 0 0 0 2.9206 8.8418l-4.0008 6.2412a5.231 5.231 0 0 0-2.2705-0.38008 5.3311 5.3311 0 1 0 4.0008 1.4503l4.0008-6.2212a8.6717 8.6717 0 0 0 10.072-1.8204l5.001 3.7307a6.3313 6.3313 0 1 0 11.802 1.6803z" fill="url(#b)" stroke-width="1.0002"/>
</svg>
