<svg xmlns="http://www.w3.org/2000/svg" xmlns:xlink="http://www.w3.org/1999/xlink" viewBox="0 0 99.99 99.999">
  <defs>
    <linearGradient id="a" x1="263.36" x2="333.47" y1="14.74" y2="84.85" gradientUnits="userSpaceOnUse">
      <stop offset="0" stop-color="#45afe4"/>
      <stop offset="1" stop-color="#364f9e"/>
    </linearGradient>
    <linearGradient id="d" x1="262.64" x2="332.75" y1="15.46" y2="85.57" gradientTransform="translate(-248.656 -.05) scale(1.0002)" xlink:href="#a"/>
    <linearGradient id="c" x1="263.36" x2="333.47" y1="14.74" y2="84.85" gradientTransform="translate(-248.65 -.05) scale(1.0002)" gradientUnits="userSpaceOnUse" xlink:href="#a"/>
    <linearGradient id="b" x1="263.36" x2="333.47" y1="14.74" y2="84.85" gradientTransform="translate(-.006)" gradientUnits="userSpaceOnUse" xlink:href="#a"/>
    <style>
      
    </style>
  </defs>
  <path fill="url(#c)" d="M91.557 39.837a43.429 43.429 0 0 0-5.151-11.882c1.72-2.41 3.36-4.89 4.89-7.491L79.486 8.702c-2.68 1.58-5.221 3.28-7.712 5.05a42.488 42.488 0 0 0-11.522-4.75c-.51-3-1.11-6.001-1.9-9.002H41.678c-.78 3-1.37 5.921-1.87 8.882a42.909 42.909 0 0 0-11.853 4.7c-2.39-1.69-4.83-3.33-7.411-4.83L8.762 20.484c1.42 2.43 2.94 4.74 4.53 7.001a43.109 43.109 0 0 0-5.51 12.472c-2.6.46-5.181 1-7.782 1.68V58.29c2.42.64 4.821 1.14 7.241 1.58a42.949 42.949 0 0 0 5.341 13.584 82.709 82.709 0 0 0-3.82 6l11.782 11.793c2-1.16 3.9-2.4 5.76-3.68a42.759 42.759 0 0 0 13.924 5.8c.4 2.22.88 4.421 1.45 6.632h16.723c.59-2.27 1.07-4.531 1.49-6.792a43.079 43.079 0 0 0 13.513-5.89c2 1.36 4.001 2.67 6.072 3.9l11.782-11.792a96.906 96.906 0 0 0-4.191-6.481 43.129 43.129 0 0 0 5-13.003c2.641-.47 5.282-1 7.923-1.7V41.626c-2.791-.74-5.582-1.31-8.432-1.79zM62.33 79.895a31.546 31.546 0 0 1-24.775.23.13.13 0 0 0 0-.06 31.676 31.676 0 0 1-17.193-17.644l-.16-.42a31.476 31.476 0 0 1 .62-23.515c.18-.42.37-.84.58-1.26a31.746 31.746 0 0 1 15.893-15.163q1-.43 2.1-.81a31.506 31.506 0 0 1 10.282-1.72 31.126 31.126 0 0 1 10.792 1.91c.79.29 1.56.6 2.32 1a31.646 31.646 0 0 1 15.184 14.813q.45.91.84 1.86a31.406 31.406 0 0 1 .59 22.344c-.12.35-.24.7-.38 1A31.696 31.696 0 0 1 62.54 79.755z" style="fill:url(#b)"/>
  <path fill="url(#d)" d="M72.403 60.871a6.331 6.331 0 0 0-10.632-3.26L56.77 53.89a8.632 8.632 0 0 0-2.28-11.302l4-6.932a4.34 4.34 0 1 0-2.8-2.7 4.27 4.27 0 0 0 1.08 1.66l-4.001 6.932a8.792 8.792 0 0 0-3.941-.72 8.652 8.652 0 0 0-7.202 4.66l-8.581-3.37v-.09a4 4 0 1 0-.75 1.95l8.581 3.37a8.672 8.672 0 0 0 2.921 8.843l-4 6.24a5.231 5.231 0 0 0-2.271-.38 5.331 5.331 0 1 0 4 1.451l4.001-6.221A8.672 8.672 0 0 0 55.6 55.46l5.001 3.73a6.331 6.331 0 1 0 11.802 1.68z" style="fill:url(#d)"/>
</svg>
