<svg xmlns="http://www.w3.org/2000/svg" viewBox="0 0 256 314.667">
  <path fill="#f55341" d="M249.408 62.308c-4.359-14.935-11.258-27.047-20.593-36.309-9.345-9.29-21.224-15.935-35.667-19.955C178.697 2.016 161.415 0 141.295 0c-24.101 0-45.032 3.761-62.729 11.286-17.741 7.532-32.43 19.285-44.067 35.265-11.653 15.991-20.318 36.466-25.982 61.433C2.822 132.951 0 162.942 0 197.933c0 20.306 1.835 37.773 5.504 52.418 3.67 14.64 9.867 26.753 18.584 36.317 8.673 9.564 20.266 16.629 34.713 21.177 14.447 4.548 32.467 6.822 53.995 6.822 14.386 0 27.897-1.274 40.598-3.855 12.69-2.564 24.299-6.871 34.835-12.935 10.523-6.08 20.035-14.032 28.523-23.902 8.443-9.855 15.535-22.092 21.277-36.753 5.754-14.645 10.19-31.813 13.31-51.53 3.113-19.718 4.661-42.418 4.661-68.095 0-21.927-2.21-40.353-6.592-55.289"/>
  <path fill="#fff" d="M192.781 140.689H160.58l-40.994 32.027-40.894 99.217zM63.147 172.678h56.22l.219.038L170.058 49.69z"/>
</svg>
