<svg xmlns="http://www.w3.org/2000/svg" viewBox="0 0 600 203.699">
  <path d="M359.9 223.376c-5.545-19.69-8.72-45.495-27.03-57.702-24.566-16.379-66.289.7-67.06 31.673-.691 27.796 11.025 57.572 18.585 84.094 3.661 12.844 6.372 27.622 15.372 37.953 16.39 18.811 49.329 17.184 65.955-.95 6.838-7.459 8.42-16.46 10.197-25.99 6.366 2.452 13.118 4.704 20.022 4.876 37.13.93 53.063-54.88 65.855-81.963 8.524-18.045 20.318-37.432 13.484-58.065-8.144-24.588-42.868-35.873-64.322-22.558-11.362 7.051-17.477 20.007-23.273 31.568-9.469 18.89-17.851 38.431-27.784 57.064m76.127-63.448c11.918-4.139 3.501 14.787 1.712 18.398-11.024 22.263-21.43 44.85-32.541 67.075-2.897 5.792-6.934 19.389-14.273 20.646-11.976 2.052-.611-18.907 1.258-22.648 9.914-19.84 20.493-39.742 29.362-60.068 2.807-6.434 7.235-20.886 14.482-23.403M305.88 189c7.38-.753 9.581 14.329 10.846 19.36 5.816 23.115 12.583 45.992 18.518 69.077 1.284 4.988 8.663 23.813.523 25.536-8.226 1.74-10.305-14.177-11.754-19.53-6.231-23.005-12.607-45.994-18.542-69.077-1.26-4.895-8.745-24.432.41-25.366z" style="fill:#038edf;stroke:none;stroke-width:1.00112" transform="translate(-16.637 -129.091)"/>
  <path d="M46.903 313.374c-11.028-2.97-20.393-9.934-24.351-18.11-2.825-5.835-4.932-20.197-4.94-33.68l-.008-10.767h34.844l.39 15.275c.418 16.393 1.193 19.334 5.37 20.382 5.904 1.482 10.291-6.953 9.01-17.324-.293-2.37-.789-6.358-1.101-8.86-.76-6.08-3.312-8.814-22.314-23.905-8.633-6.856-16.647-13.752-17.81-15.324-6.615-8.948-9.355-19.45-9.355-35.852 0-19.734 3.758-30.404 13.232-37.565 7.287-5.507 12.8-7.194 25.296-7.74 15.735-.685 26.478 2.348 35.089 9.908 6.997 6.143 9.484 14.819 9.484 33.077v10.834H64.681v-11.018c0-9.793-.229-11.248-2.064-13.083-2.668-2.668-5.712-2.163-8.352 1.387-1.752 2.356-2.093 4.196-2.036 11.018.098 11.981 1.504 14.06 16.936 25.033 18.806 13.375 28.478 24.237 31.468 35.343 3.83 14.225 3.309 42.495-.967 52.435-3.565 8.288-13.22 15.611-24.427 18.53-7.33 1.908-21.26 1.912-28.336.007zm77.525-6.215c-.337-2.617-4.006-38.789-8.153-80.382-4.148-41.593-7.814-77.54-8.146-79.881l-.604-4.257h37.012l.592 7.262c.325 3.994 2.068 29.348 3.874 56.342 3.493 52.218 3.609 52.648 5.793 21.536 1.114-15.856 4.692-53.294 7.157-74.873l1.173-10.267H202.633l.64 7.262c.928 10.552 5.46 76.227 6.273 90.9 1.013 18.305 1.936 19.493 2.744 3.535.734-14.492 2.878-41.703 4.659-59.127 2.031-19.875 4.092-38.108 4.556-40.317.47-2.236.615-2.253 18.484-2.253H258v3.074c0 1.69-3.605 39.07-8.012 83.067-4.408 43.997-8.014 80.701-8.014 81.566 0 1.383-2.87 1.571-24.04 1.571-13.22 0-24.039-.397-24.039-.882s-1.331-9.838-2.959-20.784c-1.627-10.946-4.092-29.767-5.476-41.823-1.385-12.056-2.656-22.058-2.824-22.226-.167-.168-2.474 18.035-5.124 40.451-2.651 22.416-5.056 41.77-5.345 43.01l-.525 2.254h-46.602zm355.402-3.49c-.265-.698-.366-38.68-.224-84.404l.259-83.137 18.78-.273 18.781-.272v135.266h24.088l-.275 16.778-.274 16.778-30.326.265c-23.721.207-30.43-.012-30.809-1.002zm70.65-83.389v-84.653h63.104v34.056h-25.04v32.053h24.09l-.276 15.776-.276 15.776-11.77.282-11.77.282v36.997h28.096l-.275 16.778-.275 16.777-32.804.265-32.804.264z" style="fill:#000;stroke-width:1.00165" transform="translate(-16.637 -129.091)"/>
</svg>
