<?xml version="1.0" encoding="UTF-8" standalone="no"?>
<svg
   xmlns:dc="http://purl.org/dc/elements/1.1/"
   xmlns:cc="http://creativecommons.org/ns#"
   xmlns:rdf="http://www.w3.org/1999/02/22-rdf-syntax-ns#"
   xmlns:svg="http://www.w3.org/2000/svg"
   xmlns="http://www.w3.org/2000/svg"
   xmlns:sodipodi="http://sodipodi.sourceforge.net/DTD/sodipodi-0.dtd"
   xmlns:inkscape="http://www.inkscape.org/namespaces/inkscape"
   sodipodi:docname="swoole.svg"
   inkscape:version="1.0 (4035a4fb49, 2020-05-01)"
   id="svg8"
   version="1.1"
   viewBox="0 0 600 203.69914"
   height="203.69914"
   width="600">
  <defs
     id="defs2" />
  <sodipodi:namedview
     units="px"
     fit-margin-bottom="0"
     fit-margin-right="0"
     fit-margin-left="0"
     fit-margin-top="0"
     inkscape:window-maximized="1"
     inkscape:window-y="-9"
     inkscape:window-x="2391"
     inkscape:window-height="1271"
     inkscape:window-width="2400"
     showgrid="false"
     inkscape:document-rotation="0"
     inkscape:current-layer="layer1"
     inkscape:document-units="mm"
     inkscape:cy="104.54584"
     inkscape:cx="551.17617"
     inkscape:zoom="0.98994949"
     inkscape:pageshadow="2"
     inkscape:pageopacity="0.0"
     borderopacity="1.0"
     bordercolor="#666666"
     pagecolor="#ffffff"
     id="base" />
  <metadata
     id="metadata5">
    <rdf:RDF>
      <cc:Work
         rdf:about="">
        <dc:format>image/svg+xml</dc:format>
        <dc:type
           rdf:resource="http://purl.org/dc/dcmitype/StillImage" />
        <dc:title></dc:title>
      </cc:Work>
    </rdf:RDF>
  </metadata>
  <g
     transform="translate(-16.637505,-129.09105)"
     id="layer1"
     inkscape:groupmode="layer"
     inkscape:label="Layer 1">
    <path
       id="path42"
       d="m 359.90086,223.37611 c -5.5462,-19.69011 -8.72075,-45.49504 -27.03031,-57.70175 -24.56657,-16.37909 -66.28939,0.69878 -67.06026,31.67251 -0.69177,27.79624 11.02438,57.57262 18.58486,84.09439 3.66112,12.84339 6.37215,27.62202 15.37224,37.95258 16.3894,18.81113 49.32836,17.18428 65.95505,-0.95004 6.83763,-7.45838 8.42042,-16.45946 10.19643,-25.99021 6.36612,2.45279 13.1177,4.70433 20.02246,4.87651 37.12964,0.92906 53.06254,-54.88057 65.85486,-81.96301 8.52358,-18.04524 20.31779,-37.432 13.48413,-58.06511 -8.1441,-24.58838 -42.86808,-35.87295 -64.32216,-22.5577 -11.36172,7.05107 -17.47761,20.00682 -23.2731,31.56779 -9.46866,18.89022 -17.85107,38.43114 -27.7842,57.06404 m 76.12742,-63.44822 c 11.91736,-4.13862 3.50095,14.78662 1.71192,18.39766 -11.02438,22.26299 -21.43005,44.85132 -32.54149,67.07527 -2.89626,5.79251 -6.9338,19.38873 -14.27305,20.64613 -11.97539,2.05233 -0.61064,-18.90718 1.25846,-22.64841 9.91409,-19.84022 20.49296,-39.74154 29.36192,-60.06739 2.80713,-6.43419 7.2351,-20.88641 14.48224,-23.40326 m -130.14903,29.07163 c 7.38028,-0.75284 9.58077,14.32911 10.84618,19.35973 5.81551,23.11595 12.58212,45.99261 18.5178,69.07755 1.28345,4.9886 8.66268,23.81367 0.52255,25.53664 -8.22623,1.73993 -10.30454,-14.1779 -11.75419,-19.52994 -6.231,-23.00582 -12.60612,-45.99461 -18.54178,-69.07751 -1.25943,-4.89449 -8.74482,-24.43245 0.40944,-25.36647 z"
       style="fill:#038edf;stroke:none;stroke-width:1.00112" />
    <path
       id="path24"
       d="M 46.903322,313.37434 C 35.874571,310.40453 26.50965,303.43988 22.551919,295.26429 19.727218,289.42927 17.620428,275.06662 17.611562,261.58431 l -0.0072,-10.7677 h 17.421792 17.421792 l 0.389887,15.27513 c 0.418417,16.39291 1.19316,19.33376 5.369435,20.38192 5.904974,1.48204 10.291979,-6.95272 9.010381,-17.32402 -0.292942,-2.37049 -0.788432,-6.35734 -1.101128,-8.85964 -0.75974,-6.07981 -3.311469,-8.8135 -22.313566,-23.90457 -8.63287,-6.85603 -16.647368,-13.75212 -17.809991,-15.32465 -6.615121,-8.94743 -9.355464,-19.44899 -9.355464,-35.85205 0,-19.73399 3.758775,-30.40421 13.23282,-37.56473 7.286743,-5.50732 12.799945,-7.19407 25.2958,-7.73914 15.734827,-0.68635 26.478307,2.34702 35.088803,9.90713 6.996944,6.1434 9.484482,14.81856 9.484482,33.0766 v 10.83414 H 82.210593 64.68177 v -11.01812 c 0,-9.79212 -0.229757,-11.24785 -2.064885,-13.083 -2.667865,-2.66785 -5.711474,-2.1623 -8.351915,1.38729 -1.752333,2.35569 -2.092506,4.19632 -2.036261,11.01809 0.09877,11.98138 1.504681,14.05949 16.935906,25.03348 18.806295,13.37415 28.478149,24.23676 31.468745,35.34302 3.83029,14.22459 3.30867,42.49435 -0.967494,52.43452 -3.565254,8.28766 -13.219471,15.61108 -24.426838,18.52944 -7.329976,1.9087 -21.260476,1.91211 -28.335816,0.008 z m 77.524178,-6.21511 c -0.33621,-2.61678 -4.00505,-38.78877 -8.15299,-80.38215 -4.14794,-41.59337 -7.81341,-77.54 -8.14549,-79.88133 l -0.60378,-4.25701 h 18.50603 18.50605 l 0.59128,7.26195 c 0.32519,3.99408 2.06872,29.34824 3.87449,56.34262 3.49303,52.21741 3.60887,52.648 5.79321,21.53541 1.1132,-15.85572 4.69179,-53.29332 7.15697,-74.87309 l 1.17285,-10.26689 h 19.75336 19.75336 l 0.63925,7.26195 c 0.92888,10.55236 5.46181,76.22702 6.27395,90.89946 1.01324,18.30555 1.93554,19.49416 2.74381,3.53612 0.73401,-14.49243 2.87812,-41.70286 4.65906,-59.12754 2.03134,-19.87437 4.0918,-38.10746 4.55604,-40.31629 0.46995,-2.23606 0.61471,-2.2537 18.48424,-2.2537 h 18.01056 v 3.07381 c 0,1.6906 -3.60593,39.07111 -8.01319,83.06784 -4.40726,43.99668 -8.01319,80.7011 -8.01319,81.56531 0,1.38373 -2.87047,1.57135 -24.03952,1.57135 -13.22174,0 -24.03952,-0.39686 -24.03952,-0.88196 0,-0.48507 -1.33155,-9.83796 -2.959,-20.78416 -1.62745,-10.9462 -4.09201,-29.76646 -5.47682,-41.82272 -1.3848,-12.05629 -2.65519,-22.05791 -2.82309,-22.22581 -0.1679,-0.16808 -2.47411,18.03506 -5.1249,40.45099 -2.6508,22.41597 -5.05587,41.77044 -5.34462,43.00997 l -0.52498,2.25369 h -23.30107 -23.30107 z m 355.40295,-3.49103 c -0.26576,-0.69673 -0.36684,-38.67831 -0.22449,-84.40345 l 0.25857,-83.13671 18.78085,-0.27257 18.78088,-0.27257 v 67.63325 67.63329 h 12.044 12.04399 l -0.27485,16.77759 -0.27447,16.77758 -30.32561,0.265 c -23.72145,0.20746 -30.43086,-0.0114 -30.8089,-1.00163 z m 70.65016,-83.38815 v -84.65282 h 31.5519 31.55186 v 17.02797 17.02801 h -12.52058 -12.52058 v 16.02634 16.02637 h 12.0452 12.0452 l -0.27598,15.77591 -0.27598,15.77595 -11.76937,0.28204 -11.76934,0.28204 v 18.49866 18.4987 h 14.04726 14.0473 l -0.27485,16.77758 -0.27446,16.77758 -32.80392,0.26425 -32.80396,0.26424 z"
       style="fill:#000000;stroke-width:1.00165" />
  </g>
</svg>
