<svg xmlns="http://www.w3.org/2000/svg" viewBox="0 0 511.996 184.002">
  <path fill="#55565b" d="M218.575 146.063a17.99 17.99 0 0 1-6.862 15.235 26.962 26.962 0 0 1-16.98 4.885 42.203 42.203 0 0 1-26.75-9.42l7.56-11.631c6.822 4.963 13.374 7.444 19.655 7.443 4.961 0 7.442-1.55 7.443-4.652v-.233c0-1.704-1.28-3.138-3.838-4.303-.93-.386-3.954-1.355-9.071-2.907-12.406-3.644-18.61-9.885-18.609-18.725v-.232a17.895 17.895 0 0 1 6.746-14.655 24.592 24.592 0 0 1 16.05-5.118 40.798 40.798 0 0 1 23.26 7.212l-6.746 12.211c-6.59-3.875-12.212-5.814-16.864-5.815-4.343 0-6.514 1.435-6.513 4.303v.233c0 1.552 1.28 2.948 3.839 4.188 1.006.464 3.953 1.55 8.839 3.255a45.029 45.029 0 0 1 12.676 6.048 15.21 15.21 0 0 1 6.165 12.445zm42.989 20.469c-2.404 6.435-5.08 10.932-8.025 13.492a18.583 18.583 0 0 1-12.444 3.953 30.496 30.496 0 0 1-15.701-4.303l5.932-12.793a14.883 14.883 0 0 0 7.559 2.442 6.487 6.487 0 0 0 6.164-4.07l-24.424-62.571h18.725l14.189 42.45 13.608-42.45h18.375zm73.76-20.47a17.99 17.99 0 0 1-6.86 15.236 26.962 26.962 0 0 1-16.982 4.885 42.2 42.2 0 0 1-26.749-9.42l7.56-11.631c6.822 4.963 13.374 7.444 19.655 7.443 4.961 0 7.442-1.55 7.443-4.652v-.233c0-1.704-1.28-3.138-3.838-4.303-.93-.386-3.954-1.355-9.071-2.907-12.406-3.644-18.61-9.885-18.609-18.725v-.232a17.895 17.895 0 0 1 6.745-14.655 24.592 24.592 0 0 1 16.05-5.118 40.798 40.798 0 0 1 23.261 7.212l-6.746 12.211c-6.591-3.875-12.212-5.814-16.864-5.815-4.342 0-6.513 1.435-6.513 4.303v.233c0 1.552 1.28 2.948 3.839 4.188 1.006.464 3.953 1.55 8.839 3.255a45.029 45.029 0 0 1 12.677 6.048 15.21 15.21 0 0 1 6.164 12.445zm53.942 18.958v-5.466a28.114 28.114 0 0 1-19.422 6.629 26.345 26.345 0 0 1-19.656-8.258c-5.814-6.047-8.722-14.033-8.722-23.958v-.233c0-9.924 2.869-17.91 8.606-23.958a26.483 26.483 0 0 1 19.772-8.257 31.575 31.575 0 0 1 19.422 5.815V80.119h17.679v84.901zm.233-31.286a17.846 17.846 0 0 0-4.419-12.444 13.83 13.83 0 0 0-10.7-4.769 13.983 13.983 0 0 0-10.7 4.652 17.728 17.728 0 0 0-4.536 12.561v.233a17.567 17.567 0 0 0 4.536 12.445 14.388 14.388 0 0 0 21.4 0 17.845 17.845 0 0 0 4.42-12.445zm28.146-37.914V80.119h18.608v15.7zm.465 69.2v-62.338h17.678v62.338zm93.886-14.072c0 11.554-2.908 19.966-8.723 25.237-5.583 5.117-14.267 7.676-26.052 7.676a58.08 58.08 0 0 1-27.564-6.513l6.048-14.421a42.337 42.337 0 0 0 21.051 5.699c11.863 0 17.794-4.885 17.794-14.655v-.697a31.777 31.777 0 0 1-20.353 6.629 26.636 26.636 0 0 1-19.306-7.56 28.646 28.646 0 0 1-8.374-21.516v-.233a28.437 28.437 0 0 1 8.49-21.516 26.494 26.494 0 0 1 19.19-7.56 34.735 34.735 0 0 1 20.12 5.816v-4.652h17.679zm-17.446-20.354a13.462 13.462 0 0 0-4.419-10.35c-6.19-5.428-15.443-5.428-21.633 0a13.63 13.63 0 0 0-4.303 10.35v.233a13.763 13.763 0 0 0 4.303 10.467 15.364 15.364 0 0 0 10.817 3.955 15.12 15.12 0 0 0 10.816-4.07 13.46 13.46 0 0 0 4.42-10.352z"/>
  <path fill="#00abc7" d="M115.377 57.252a6.006 6.006 0 0 1 5.209 3.043l20.651 35.769c14.721 25.497 6.652 60.816-18.768 82.152a5.996 5.996 0 0 1-1.809 1.044 74.654 74.654 0 0 1-25.51 4.518c-22.897 0-44.267-10.714-55.02-29.34l-24.576-42.566a6.005 6.005 0 0 1 2.198-8.204l16.74-9.665a6.006 6.006 0 1 1 6.005 10.402l-11.539 6.662 21.574 37.366c11.695 20.256 39.5 28.703 65.021 19.895 20.388-17.697 26.977-46.002 15.283-66.258L110.184 66.3a6.006 6.006 0 0 1 5.193-9.049zm-63.105 56.054c.062.11 2.994 5.333 6.156 10.937l.38.674.764 1.351c1.527 2.701 3.033 5.359 4.228 7.45l.292.51c.332.582.637 1.111.905 1.576 8.457 14.65 23.947 20.246 41.436 14.96a6.006 6.006 0 0 1 3.473 11.498 55.554 55.554 0 0 1-16.06 2.465 44.234 44.234 0 0 1-39.252-22.917c-1.26-2.183-3.246-5.68-5.282-9.283l-.395-.698-.197-.35-.591-1.046-.392-.694a4515.791 4515.791 0 0 1-5.958-10.588 6.006 6.006 0 1 1 10.493-5.845zM11.184 2.963 82.138 125.86c1.935 3.35 7.421 9.1 14.324 6.874a6.006 6.006 0 1 1 3.684 11.432 22.1 22.1 0 0 1-6.8 1.088c-9.486 0-17.527-6.316-21.61-13.388L.782 8.969a6.006 6.006 0 0 1 10.402-6.006zm52.088 35.378 16.907 29.285 10.754-6.21a6.006 6.006 0 0 1 6.006 10.402l-15.955 9.213a6.006 6.006 0 0 1-8.204-2.198L52.87 44.347a6.006 6.006 0 0 1 10.402-6.006z"/>
</svg>
