<svg xmlns="http://www.w3.org/2000/svg" viewBox="0 0 511.999 108.557">
  <path fill="#7099a6" d="M44.631 10.057v3.277h9.012V23.37h3.523V13.334h9.238v-3.277h-9.238V0h-3.523V10.057z"/>
  <path fill="#eb912c" d="M10.548 25.111V29.7H24.19v14.85h5.059V29.7h13.846v-4.588H29.249V10.487h-5.06v14.624z"/>
  <path fill="#59879b" d="M67.715 25.111v4.814h13.641v14.624h5.264V29.925h13.641V25.11h-13.64V10.487h-5.265v14.624z"/>
  <path fill="#e8762c" d="M37.155 50.899v6.104h15.178v16.385h6.144V57.003h15.178v-6.104H58.477V34.513h-6.144v16.386z"/>
  <path fill="#5b6591" d="M87.726 51.984v4.158h9.238v10.262h4.608V56.142h9.238v-4.158h-9.238V41.723h-4.608v10.261z"/>
  <path fill="#7099a6" d="M0 52.21v3.482h9.012v9.831h3.523v-9.831l9.238-.328V52.21h-9.238v-9.832H9.012v9.832z"/>
  <path fill="#c72035" d="M10.548 77.751v4.814H24.19v14.624h5.264V82.565h13.641V77.75H29.454V63.127H24.19V77.75z"/>
  <path fill="#1f447e" d="M67.715 77.751v4.588h13.641v14.85h5.264v-14.85h13.641v-4.588h-13.64V63.127h-5.265V77.75z"/>
  <path fill="#5b6591" d="M43.976 94.137v4.158h9.237v10.262h4.609V98.295h9.237v-4.158h-9.237V83.875h-4.609v10.262z"/>
  <path fill="#1f447e" d="M337.263 21.834v62.267h-7.025V21.834zM162.692 30.58v19.868h18.905v6.555h-18.905v21.404h-7.026V57.003h-18.905v-6.555h18.905V30.58zM382.57 44.222c1.27.061 2.888.266 3.626.45.717.184 1.905.615 2.621.963.738.328 1.926 1.044 2.643 1.597.737.553 1.761 1.578 2.294 2.274.532.696 1.29 1.966 1.7 2.806.41.84.942 2.315 1.188 3.277.245.963.532 2.909.758 6.882h-24.293l.144.82c.061.45.327 1.413.532 2.13.226.717.8 1.843 1.25 2.478.45.635 1.126 1.393 1.474 1.66.37.266 1.107.716 1.66 1.003.532.266 1.474.614 2.089.778.614.164 2.253.307 3.728.307 1.454 0 3.543-.143 4.629-.327 1.085-.185 2.621-.553 3.4-.8.778-.245 1.802-.634 2.253-.86.45-.225.921-.43 1.044-.43.138 0 .219 1.146.225 5.9v.655l-1.208.553c-.676.307-2.069.799-3.134 1.106-1.065.287-3.01.655-4.342.799-1.823.184-3.052.184-4.957 0-1.392-.144-3.42-.512-4.506-.82-1.085-.307-2.662-.921-3.482-1.372-.84-.45-2.253-1.495-3.154-2.335-.922-.84-2.069-2.212-2.601-3.052-.533-.84-1.188-2.273-1.496-3.174-.307-.902-.675-2.479-.819-3.482-.164-1.127-.205-2.704-.123-3.933.062-1.147.328-2.868.574-3.83.246-.963.84-2.54 1.31-3.503.472-.962 1.352-2.335 1.926-3.052.594-.717 1.761-1.823 2.601-2.458.84-.635 2.253-1.433 3.134-1.802.86-.369 2.356-.799 3.298-.983 1.126-.205 2.478-.287 4.014-.225zm72.98-.328v10.978c0 6.043-.062 13.273-.329 21.159l-1.761.532c-.963.287-2.909.738-4.342.963-1.823.328-3.564.45-5.92.45-1.864 0-4.014-.102-4.793-.225-.778-.143-2.314-.532-3.4-.88-1.167-.37-2.683-1.086-3.625-1.7-.922-.595-2.192-1.64-2.847-2.356-.635-.696-1.536-1.925-1.967-2.704-.43-.778-1.024-2.212-1.31-3.154-.43-1.372-.553-2.437-.656-4.916-.061-1.987 0-3.748.164-4.71.143-.84.512-2.254.82-3.155.286-.901.962-2.335 1.495-3.175.512-.84 1.618-2.171 2.457-2.95.943-.86 2.172-1.74 3.175-2.232.901-.43 2.212-.963 2.95-1.167.717-.185 2.498-.41 3.953-.471 1.946-.082 3.072 0 4.28.245.922.205 2.295.656 3.093 1.024.779.349 1.455.656 1.475.635.038 0 .058-.413.061-.939v-1.252zm-217.442 0v13.658l-.002 1.426c-.016 6.41-.104 12.702-.326 17.053l-1.761.532c-.963.287-2.99.738-4.506 1.004-2.315.389-3.36.43-6.698.348-3.093-.082-4.342-.205-5.715-.553-.983-.266-2.662-.901-3.748-1.434-1.147-.573-2.52-1.474-3.297-2.15-.717-.656-1.741-1.823-2.233-2.581-.512-.779-1.188-2.007-1.475-2.724-.287-.717-.717-2.151-.921-3.155-.287-1.474-.349-2.56-.267-5.14.103-2.48.246-3.688.594-4.916.267-.902.881-2.376 1.352-3.278.471-.9 1.413-2.273 2.11-3.031.717-.778 1.884-1.803 2.601-2.294.717-.471 1.905-1.106 2.642-1.393a18.695 18.695 0 0 1 2.909-.84c.88-.164 2.52-.307 3.625-.307 1.127 0 2.724.164 3.585.328.84.184 2.17.635 2.97 1.003.778.349 1.454.656 1.474.635.02 0 .062-.491.062-1.085v-1.106zm41.108-15.505v10.408c.008 6.42.068 6.83.39 6.735.225-.082 1.29-.368 2.375-.676 1.29-.348 2.847-.573 4.506-.675 1.885-.082 2.99-.02 4.384.245 1.188.226 2.6.717 3.85 1.332 1.086.532 2.52 1.433 3.196 2.027.655.574 1.7 1.782 2.294 2.684.614.9 1.372 2.335 1.7 3.215.348.86.778 2.479.983 3.605.246 1.475.307 2.745.225 4.752-.061 1.495-.287 3.36-.492 4.138-.184.778-.675 2.11-1.065 2.95-.389.839-1.167 2.13-1.72 2.846-.533.717-1.618 1.782-2.397 2.376-.757.594-2.15 1.413-3.051 1.823-.902.43-2.397.963-3.298 1.209-1.413.389-2.315.45-6.37.47-3.83.021-5.08-.06-6.595-.389a83.562 83.562 0 0 1-3.749-.942c-1.024-.287-1.925-.614-2.007-.696-.082-.082-.184-10.774-.225-23.78l-.082-23.657zm210.866 16.386-.02 10.978v2.825c.007 6.816.05 8.127.318 9.176l.03.111c.025.093.053.185.082.28.266.82.758 1.782 1.168 2.273.389.451 1.208 1.066 1.822 1.352.594.287 1.741.615 2.52.717.84.123 2.028.123 2.867 0 .779-.102 1.926-.43 2.52-.717.614-.286 1.433-.9 1.823-1.352.41-.491.921-1.454 1.167-2.273.033-.107.063-.21.091-.319l.02-.083c.256-1.08.307-3.03.317-15.167v-.979l.001-.506v-2.696l.001-.574v-3.046H512l-.041 11.859c-.019 9.895-.037 11.592-.321 12.711l-.026.1a6.057 6.057 0 0 1-.043.144l-.03.097-.031.098c-.246.716-.758 1.802-1.147 2.396-.39.614-1.065 1.454-1.536 1.905-.45.45-1.434 1.167-2.15 1.597-.718.43-2.11 1.025-3.073 1.332-1.106.348-2.581.614-3.953.717-1.23.061-3.196.061-4.404-.02-1.372-.083-2.868-.349-3.953-.697-.983-.307-2.356-.901-3.093-1.332-.717-.43-1.68-1.147-2.15-1.597-.451-.45-1.148-1.29-1.537-1.905-.369-.594-.88-1.68-1.126-2.396l-.017-.049-.032-.095a5.218 5.218 0 0 1-.088-.291l-.026-.102c-.274-1.13-.297-3.066-.35-12.613l-.081-11.86zm-48.604 5.919c-.779 0-1.967.164-2.622.328-.676.184-1.7.594-2.294.921-.594.328-1.454 1.004-1.925 1.516-.472.512-1.086 1.413-1.393 2.028-.308.594-.697 1.7-.881 2.458-.184.737-.328 2.191-.328 3.215 0 1.025.144 2.479.328 3.216.184.758.533 1.782.799 2.294s.942 1.413 1.495 1.987c.553.594 1.454 1.29 1.987 1.557.553.286 1.536.676 2.212.86.758.225 2.007.348 3.461.348 1.23 0 2.97-.102 3.83-.225.881-.123 1.721-.307 1.844-.39.184-.102.287-2.744.348-9.073l.062-8.95c-2.212-1.127-3.441-1.598-4.179-1.783-.717-.184-1.946-.328-2.744-.307zm-220.084.328c-.655.184-1.68.594-2.273.921-.594.328-1.455 1.004-1.926 1.516-.47.512-1.106 1.413-1.392 2.028-.308.594-.697 1.7-.881 2.458-.185.737-.328 2.089-.328 2.99 0 .901.103 2.233.225 2.95.144.716.512 1.904.86 2.621.41.86 1.066 1.741 1.906 2.52.819.758 1.781 1.392 2.621 1.72 1.024.41 1.844.533 3.953.635 1.496.062 3.38-.02 4.384-.164.962-.143 1.864-.327 2.007-.41.164-.102.287-2.949.39-9.053l.142-8.889c-1.802-.983-2.806-1.434-3.42-1.639-.594-.225-1.987-.43-3.072-.47-1.352-.062-2.356.02-3.196.266zm64.54-.328c-.84.02-1.946.123-2.417.225-.491.103-1.618.45-2.54.779l-1.638.573V70.44c3.441.901 4.178.963 6.472.901 2.253-.061 2.99-.164 4.076-.573.717-.287 1.72-.82 2.192-1.209.492-.368 1.188-1.065 1.557-1.536.368-.471.9-1.454 1.167-2.171.287-.717.615-2.09.738-3.052.184-1.31.184-2.212-.021-3.605a11.191 11.191 0 0 0-1.024-3.44c-.41-.882-1.127-1.967-1.577-2.418-.45-.45-1.27-1.085-1.823-1.393-.533-.327-1.577-.737-2.315-.921-.717-.205-2.007-.349-2.847-.328zm94.199.307c-.656.185-1.72.656-2.376 1.045-.656.389-1.577 1.147-2.069 1.68-.47.552-1.106 1.454-1.393 2.027-.286.574-.532 1.127-.532 1.25 0 .136 2.508.217 7.152.224h8.578c-.225-1.617-.43-2.416-.594-2.846-.184-.41-.717-1.188-1.188-1.7-.573-.635-1.27-1.086-2.068-1.393-.676-.225-1.905-.471-2.745-.533-.983-.04-1.987.041-2.765.246z"/>
</svg>
