<svg xmlns="http://www.w3.org/2000/svg" viewBox="0 0 255.998 250.793">
  <path fill="#7099a6" d="M103.109 23.234v7.57h20.82v23.187h8.14V30.805h21.34v-7.571h-21.34V0h-8.14v23.233z"/>
  <path fill="#eb912c" d="M24.37 58.014v10.6h31.514v34.306h11.688V68.613H99.56v-10.6H67.572V24.229H55.884v33.786z"/>
  <path fill="#59879b" d="M156.438 58.014v11.12h31.515v33.786h12.16V69.134h31.515v-11.12h-31.514V24.228h-12.161v33.786z"/>
  <path fill="#e8762c" d="M85.837 117.589v14.1h35.064v37.856h14.196V131.69h35.063v-14.101h-35.063V79.733H120.9v37.856z"/>
  <path fill="#5b6591" d="M202.669 120.097v9.605h21.34v23.707h10.648v-23.707h21.34v-9.605h-21.34V96.39H224.01v23.707z"/>
  <path fill="#7099a6" d="M0 120.617v8.044h20.82v22.714h8.14V128.66l21.34-.757v-7.287H28.96V97.904h-8.14v22.713z"/>
  <path fill="#c72035" d="M24.37 179.624v11.12h31.514v33.786h12.161v-33.786H99.56v-11.12H68.045v-33.786h-12.16v33.786z"/>
  <path fill="#1f447e" d="M156.438 179.624v10.6h31.515v34.306h12.16v-34.306h31.515v-10.6h-31.514v-33.786h-12.161v33.786z"/>
  <path fill="#5b6591" d="M101.595 217.48v9.606h21.34v23.707h10.648v-23.707h21.34v-9.606h-21.34v-23.707h-10.647v23.707z"/>
</svg>
