<svg xmlns="http://www.w3.org/2000/svg" viewBox="0 0 255 255.041">
  <path fill="#a295ae" d="m223.824 43.362-11.963 84.2-84.2-11.963 11.963-84.2z" opacity=".8"/>
  <path fill="#5d6f6d" d="m31.422 211.737 11.963-84.2 84.2 11.963-11.963 84.2z" opacity=".8"/>
  <path fill="#8cd592" d="m43.385 31.51 84.2 11.964-11.963 84.2-84.2-11.963z" opacity=".8"/>
  <path fill="#665e74" d="m211.763 223.71-84.2-11.963 11.963-84.2 84.2 11.963z" opacity=".8"/>
  <path fill="#3c3647" d="m119.179 255.041-51.08-67.997 67.998-51.08 51.08 67.998z" opacity=".8"/>
  <path fill="#837193" d="m255 135.836-67.997 51.079-51.08-67.997 67.998-51.08z" opacity=".8"/>
  <path fill="#a2f4ac" d="m135.973 0 51.08 67.997-67.998 51.08-51.079-67.998z" opacity=".8"/>
  <path fill="#7ea685" d="m0 119.146 67.997-51.079 51.08 67.997-67.998 51.08z" opacity=".8"/>
  <path fill="#3c3647" d="m127.5 95.188 32.332 32.333-32.332 32.332-32.332-32.332z"/>
</svg>
