<svg xmlns="http://www.w3.org/2000/svg" viewBox="0 0 511.694 63.44">
  <defs>
    <linearGradient id="a" x1="-2.275" x2="81.901" y1="26.208" y2="55.328" gradientTransform="scale(1.291 .7746)" gradientUnits="userSpaceOnUse">
      <stop offset="0%" stop-color="#2298BD"/>
      <stop offset="100%" stop-color="#0ED7B5"/>
    </linearGradient>
  </defs>
  <path fill="url(#a)" d="M52.867 0c-14.098 0-22.91 7.049-26.434 21.147 5.287-7.05 11.455-9.693 18.504-7.93 4.021 1.005 6.896 3.923 10.078 7.153 5.183 5.26 11.182 11.35 24.285 11.35 14.098 0 22.909-7.049 26.433-21.147-5.286 7.05-11.454 9.693-18.503 7.93-4.022-1.005-6.896-3.923-10.078-7.153C71.968 6.09 65.97 0 52.867 0zM26.433 31.72C12.336 31.72 3.524 38.769 0 52.867c5.287-7.05 11.454-9.693 18.503-7.93 4.022 1.005 6.897 3.923 10.078 7.152 5.184 5.262 11.183 11.35 24.286 11.35 14.097 0 22.908-7.048 26.433-21.146-5.287 7.05-11.455 9.693-18.503 7.93-4.022-1.005-6.897-3.923-10.079-7.153-5.183-5.26-11.182-11.35-24.285-11.35z" style="fill:url(#a)"/>
  <path fill="#2d3748" d="M158.592 26.73h-9.226v17.858c0 4.762 3.125 4.688 9.226 4.39v7.217c-12.351 1.488-17.262-1.934-17.262-11.607V26.731h-6.845v-7.738h6.845V8.999l8.036-2.38v12.374h9.226zm35.17-7.737h8.036v37.202h-8.036v-5.357c-2.827 3.944-7.217 6.325-13.02 6.325-10.12 0-18.528-8.557-18.528-19.569 0-11.086 8.408-19.568 18.527-19.568 5.804 0 10.194 2.38 13.021 6.25zm-11.756 30.506c6.696 0 11.756-4.985 11.756-11.905 0-6.92-5.06-11.905-11.756-11.905-6.696 0-11.756 4.985-11.756 11.905 0 6.92 5.06 11.905 11.756 11.905zm33.185-36.087c-2.828 0-5.134-2.38-5.134-5.133a5.144 5.144 0 0 1 5.134-5.134 5.144 5.144 0 0 1 5.134 5.134c0 2.752-2.307 5.133-5.134 5.133zm-4.018 42.783V18.993h8.035v37.202zm17.336 0V1.88h8.036v54.315zm60.194-37.202h8.482l-11.682 37.202h-7.887l-7.738-25.074-7.812 25.074h-7.887l-11.682-37.202h8.482l7.218 25.67 7.812-25.67h7.664l7.738 25.67zm18.452-5.58c-2.827 0-5.134-2.381-5.134-5.134a5.144 5.144 0 0 1 5.134-5.134 5.144 5.144 0 0 1 5.134 5.134c0 2.753-2.307 5.133-5.134 5.133zm-4.018 42.782V18.993h8.036v37.202zm36.905-38.17c8.333 0 14.286 5.655 14.286 15.328v22.842h-8.036V34.171c0-5.654-3.274-8.63-8.333-8.63-5.283 0-9.45 3.124-9.45 10.714v19.94h-8.036V18.993h8.036v4.762c2.456-3.87 6.473-5.73 11.533-5.73zm52.381-13.913h8.036v52.083h-8.036v-5.357c-2.827 3.944-7.217 6.325-13.02 6.325-10.12 0-18.528-8.557-18.528-19.569 0-11.086 8.408-19.568 18.527-19.568 5.804 0 10.194 2.38 13.021 6.25zm-11.756 45.387c6.696 0 11.756-4.985 11.756-11.905 0-6.92-5.06-11.905-11.756-11.905-6.696 0-11.756 4.985-11.756 11.905 0 6.92 5.06 11.905 11.756 11.905zm46.726 7.664c-11.235 0-19.643-8.557-19.643-19.569 0-11.086 8.408-19.568 19.643-19.568 7.292 0 13.616 3.794 16.593 9.598l-6.92 4.018c-1.637-3.497-5.283-5.73-9.747-5.73-6.548 0-11.533 4.986-11.533 11.682 0 6.696 4.985 11.682 11.533 11.682 4.464 0 8.11-2.307 9.896-5.73l6.92 3.944c-3.126 5.878-9.45 9.673-16.742 9.673zm29.985-27.902c0 6.77 20.015 2.678 20.015 16.443 0 7.44-6.473 11.459-14.509 11.459-7.44 0-12.797-3.349-15.178-8.706l6.92-4.018c1.19 3.349 4.166 5.357 8.258 5.357 3.572 0 6.325-1.19 6.325-4.166 0-6.622-20.015-2.902-20.015-16.22 0-6.995 6.027-11.384 13.616-11.384 6.101 0 11.16 2.827 13.765 7.738l-6.77 3.794c-1.34-2.901-3.944-4.24-6.995-4.24-2.902 0-5.432 1.264-5.432 3.943zm34.301 0c0 6.77 20.015 2.678 20.015 16.443 0 7.44-6.473 11.459-14.509 11.459-7.44 0-12.798-3.349-15.179-8.706l6.92-4.018c1.19 3.349 4.167 5.357 8.26 5.357 3.57 0 6.323-1.19 6.323-4.166 0-6.622-20.014-2.902-20.014-16.22 0-6.995 6.026-11.384 13.616-11.384 6.1 0 11.16 2.827 13.765 7.738l-6.771 3.794c-1.34-2.901-3.944-4.24-6.994-4.24-2.902 0-5.432 1.264-5.432 3.943z"/>
</svg>
