<svg xmlns="http://www.w3.org/2000/svg" viewBox="0 0 256 254.232">
  <path fill="#373aaf" d="M219.55 36.199c-48.613-48.28-127.657-48.25-176.243 0L2.743 76.485c-3.657 3.632-3.657 9.585 0 13.22 3.664 3.638 9.66 3.638 13.318.002l40.566-40.284c41.26-40.976 108.374-40.949 149.605 0 41.26 40.974 41.234 107.62 0 148.572l-40.566 40.286c-3.66 3.632-3.66 9.587.009 13.228 3.655 3.63 9.652 3.63 13.31 0l40.565-40.288c48.586-48.246 48.613-126.742 0-175.022M172.32 83.773c-27.31-26.967-71.711-26.944-99.001.011l-54.756 54.07c-3.678 3.639-3.678 9.577-.007 13.2 3.677 3.633 9.694 3.633 13.37 0l54.756-54.07c19.935-19.687 52.342-19.692 72.273-.006 19.935 19.684 19.926 51.684-.007 71.37l-54.756 54.074c-3.676 3.63-3.676 9.57 0 13.203 3.67 3.624 9.685 3.624 13.363-.007l54.756-54.071c27.292-26.956 27.319-70.803.009-97.774m-54.97 55.628c-3.646-3.667-9.612-3.667-13.252-.01l-47.638 47.907c-3.642 3.662-3.642 9.66.007 13.329 3.646 3.675 9.61 3.675 13.253.013l47.642-47.908c3.667-3.692 3.638-9.662-.011-13.331"/>
</svg>
