<svg xmlns="http://www.w3.org/2000/svg" viewBox="0 0 512.001 113.772">
  <path fill="#373aaf" d="M98.252 16.2C76.497-5.406 41.123-5.393 19.38 16.2L1.227 34.228a4.178 4.178 0 0 0 0 5.916c1.64 1.628 4.324 1.628 5.96.001l18.154-18.027c18.465-18.338 48.5-18.326 66.95 0 18.466 18.336 18.453 48.161 0 66.488l-18.153 18.028a4.177 4.177 0 0 0 .004 5.92c1.635 1.624 4.32 1.624 5.956 0l18.154-18.03c21.743-21.59 21.755-56.719 0-78.324M77.115 37.49c-12.222-12.068-32.092-12.058-44.304.005L8.307 61.692a4.153 4.153 0 0 0-.003 5.907c1.645 1.626 4.338 1.626 5.983 0l24.504-24.197c8.921-8.81 23.424-8.813 32.343-.003 8.921 8.809 8.917 23.13-.003 31.94L46.627 99.536a4.154 4.154 0 0 0 0 5.909c1.642 1.621 4.334 1.621 5.98-.003l24.504-24.198c12.214-12.063 12.226-31.685.004-43.755m-24.6 24.894a4.192 4.192 0 0 0-5.93-.004L25.266 83.819c-1.63 1.639-1.63 4.322.003 5.964a4.186 4.186 0 0 0 5.931.006l21.32-21.44a4.238 4.238 0 0 0-.004-5.965"/>
  <path d="M285.601 39.82c14.094 0 25.56 11.578 25.56 25.81 0 14.285-11.466 25.908-25.56 25.908-6.494 0-12.733-2.59-17.358-7.079v23.997c0 2.148-1.817 3.894-4.05 3.894-2.14 0-3.95-1.784-3.95-3.894V43.714c0-2.11 1.81-3.894 3.95-3.894 2.233 0 4.05 1.747 4.05 3.894v3.131c4.644-4.454 10.886-7.025 17.358-7.025zM168.108 19.91c2.165 0 4.137 1.853 4.137 3.889v16.695h4.86c2.06 0 3.934 1.853 3.934 3.889 0 2.036-1.876 3.89-3.935 3.89h-4.86v34.181c0 1.45 1.635 2.106 2.13 2.106 2.037 0 4.036 1.977 4.036 3.991 0 2-1.96 3.889-4.035 3.889-5.815 0-10.202-4.292-10.202-9.985V48.273h-4.658c-3.76 0-3.927-2.58-3.934-3.738v-.304c.007-1.157.174-3.737 3.934-3.737h4.658V23.8c0-2.036 1.876-3.889 3.935-3.889zm69.847 19.91c2.188 0 3.902 1.73 3.902 3.94V88.5c0 2.136-1.787 3.94-3.902 3.94s-3.902-1.804-3.902-3.94v-3.305c-4.575 4.593-10.67 7.245-16.948 7.245-13.648 0-24.751-11.802-24.751-26.31s11.103-26.31 24.75-26.31c6.308 0 12.401 2.618 16.95 7.154V43.76c0-2.209 1.712-3.939 3.9-3.939zm112.987 0a27.154 27.154 0 0 1 15.947 5.185l.8.607c.743.517 1.288 1.419 1.425 2.424.149 1.074-.175 2.189-.888 3.058-1.432 1.61-3.738 1.879-5.404.667-3.431-2.737-7.52-4.163-11.878-4.163-10.566 0-19.163 8.268-19.163 18.43 0 10.39 8.418 18.53 19.163 18.53 4.258 0 8.464-1.433 11.846-4.038 1.699-1.235 4.005-.969 5.397.598.735.895 1.048 1.94.92 2.989-.13 1.083-.716 2.066-1.65 2.765-4.596 3.585-10.469 5.568-16.513 5.568-15.17-.002-27.054-11.604-27.054-26.413 0-14.696 11.882-26.207 27.052-26.207zm73.71 0c2.188 0 3.901 1.73 3.901 3.94V88.5c0 2.136-1.787 3.94-3.901 3.94s-3.901-1.804-3.901-3.94v-3.306c-4.577 4.594-10.672 7.246-16.95 7.246-13.648 0-24.75-11.802-24.75-26.31s11.102-26.31 24.75-26.31c6.307 0 12.4 2.62 16.95 7.155V43.76c0-2.209 1.714-3.939 3.901-3.939zm49.432 0c2.227 0 3.972 1.734 3.972 3.947 0 2.14-1.82 3.948-3.972 3.948-5.073 0-9.296 2.39-13.29 7.526-2.281 3.026-3.915 6.412-4.95 8.94l-.468 1.186-.37 1.01-.125.289.007 21.827c0 2.176-1.737 3.947-3.87 3.947-2.287 0-4.078-1.733-4.078-3.947V43.768c0-2.213 1.79-3.947 4.077-3.947 2.134 0 3.87 1.77 3.87 3.947v6.007c3.673-4.586 9.946-9.955 19.197-9.955zm24.985-19.91c2.164 0 4.135 1.854 4.135 3.889v16.695h4.86c2.06 0 3.937 1.854 3.937 3.889 0 2.035-1.876 3.89-3.935 3.89h-4.86v34.181c0 1.33 1.374 1.992 1.985 2.093l.146.013c2.036 0 4.035 1.977 4.035 3.99 0 2-1.962 3.89-4.035 3.89-5.816 0-10.202-4.293-10.202-9.985V48.272h-4.66c-2.938 0-3.681-1.576-3.87-2.818l-.044-.399-.016-.358v-.629l.016-.357.045-.399c.188-1.24.931-2.818 3.87-2.818h4.659V23.8c0-2.035 1.876-3.889 3.934-3.889zM217.812 46.931c-9.358 0-16.972 8.316-16.972 18.537 0 10.167 7.614 18.439 16.972 18.439 9.359-.002 16.973-8.273 16.973-18.44 0-10.22-7.614-18.536-16.973-18.536zm68.497 1.422c-9.477 0-17.2 7.443-17.58 16.944l.002.734c0 9.762 7.887 17.78 17.584 17.876l.644-.017c9.49-.425 17.13-8.307 17.13-17.86 0-9.747-7.976-17.677-17.78-17.677zm118.2-1.422c-9.359 0-16.973 8.316-16.973 18.537 0 10.167 7.614 18.439 16.973 18.439 9.358-.002 16.972-8.273 16.972-18.44 0-10.22-7.614-18.536-16.972-18.536z"/>
</svg>
