<svg xmlns="http://www.w3.org/2000/svg" viewBox="0 0 254.985 266.211">
  <path fill="#1a1a1a" d="m212.675 63.852-.018-.016-38.93 14.169 7.189-40.777.004-.023-31.791-26.676-.018-.016-39 14.194-.022.008-7.193 40.8-31.72-26.613-.018-.016-39 14.193-.022.009-7.207 40.872-.004.023 31.737 26.632-38.91 14.161-.023.01-7.206 40.87-.006.023 31.793 26.677.018.016 38.93-14.168-7.189 40.775-.003.023 31.793 26.677.017.016 39-14.193.023-.01 7.194-40.798 31.719 26.614.017.016 39-14.193.023-.01 7.207-40.872.004-.022-31.737-26.632 38.91-14.162.023-.009 7.206-40.87.005-.023-31.794-26.68zm-92.301 110.114 38.839-14.137-7.177 40.705zm14.24-81.724-38.839 14.136 7.177-40.704zm-77.789 28.401 38.841-14.137-7.178 40.705zm63.383 53.295-38.84 14.137 7.178-40.705zm-31.645-26.663 7.193-40.8 38.93-14.17 31.737 26.63-7.192 40.8-38.931 14.171zm77.936-28.28 31.662 26.569-38.84 14.137zm-31.72-26.725 38.84-14.137-7.178 40.706zM110.161 24.78l38.931-14.17 31.736 26.63-7.194 40.8-38.93 14.17-31.737-26.63zM25.015 93.952l7.194-40.8 38.93-14.171 31.737 26.63-7.194 40.8-38.93 14.17zm17.332 108.325L10.61 175.645l7.194-40.8 38.931-14.17 31.737 26.63-7.195 40.802zm102.477 39.153-38.93 14.17-31.737-26.63 7.194-40.8L120.282 174l31.737 26.63zm85.148-69.173-7.195 40.8-38.93 14.169-31.737-26.628 7.194-40.8 38.931-14.171zm7.212-40.896-38.931 14.17-31.738-26.63 7.194-40.8 38.93-14.171 31.737 26.63z"/>
  <path fill="#649791" d="m237.634 98.636-95.322-79.983c-4.47-3.75-5.052-10.412-1.302-14.88 3.754-4.47 10.414-5.05 14.88-1.303l95.322 79.985c4.469 3.75 5.052 10.412 1.302 14.88a10.543 10.543 0 0 1-8.095 3.772c-2.396 0-4.804-.81-6.785-2.471z"/>
  <path fill="#efc519" d="M104.404 266.211c-4.33 0-8.391-2.683-9.94-6.994-1.974-5.488.878-11.538 6.367-13.512l118.41-42.558c5.485-1.976 11.539.876 13.512 6.367 1.973 5.488-.878 11.538-6.367 13.512l-118.41 42.558c-1.18.426-2.385.627-3.572.627z"/>
  <path fill="#a21c3d" d="M10.577 187.443c-.604 0-1.213-.051-1.83-.16C3 186.28-.843 180.808.16 175.063l21.608-123.76c1.003-5.746 6.478-9.59 12.22-8.589 5.747 1.004 9.592 6.475 8.588 12.22L20.968 178.696c-.895 5.133-5.355 8.747-10.391 8.747z"/>
  <path fill="#068cba" d="M63.958 90.345c-.61 0-1.225-.053-1.847-.162-5.744-1.012-9.58-6.49-8.567-12.236l7.203-40.848c1.012-5.744 6.485-9.583 12.236-8.567 5.744 1.012 9.58 6.49 8.567 12.236l-7.203 40.847c-.903 5.125-5.36 8.73-10.39 8.73z"/>
  <path fill="#531210" d="M42.35 212.886c-.609 0-1.225-.053-1.846-.162-5.744-1.014-9.58-6.492-8.568-12.236l7.203-40.846c1.012-5.745 6.489-9.572 12.236-8.567 5.744 1.014 9.58 6.492 8.568 12.236l-7.204 40.846c-.903 5.124-5.36 8.73-10.389 8.73z"/>
  <path fill="#509f4e" d="M141.893 61.97c-2.395 0-4.804-.81-6.784-2.471l-31.773-26.66c-4.47-3.75-5.052-10.41-1.303-14.88 3.751-4.469 10.414-5.05 14.88-1.302l31.775 26.661c4.47 3.75 5.052 10.41 1.303 14.88a10.544 10.544 0 0 1-8.098 3.772z"/>
  <path fill="#106e66" d="M237.215 141.955c-2.395 0-4.803-.812-6.784-2.471l-31.775-26.662c-4.47-3.75-5.052-10.412-1.303-14.88 3.755-4.47 10.414-5.05 14.88-1.302l31.775 26.661c4.47 3.75 5.052 10.412 1.303 14.88a10.537 10.537 0 0 1-8.096 3.774z"/>
  <path fill="#068cba" d="M191.04 196.993c-4.312 0-8.362-2.666-9.924-6.952-1.996-5.481.831-11.544 6.311-13.537l38.977-14.188c5.485-1.996 11.544.833 13.536 6.311 1.997 5.482-.83 11.544-6.31 13.537l-38.977 14.188a10.52 10.52 0 0 1-3.612.64z"/>
  <path fill="#92beaf" d="M120.286 184.514c-2.396 0-4.804-.812-6.785-2.47l-31.773-26.661c-4.468-3.752-5.05-10.413-1.3-14.88 3.75-4.47 10.413-5.047 14.879-1.303l31.773 26.662c4.47 3.75 5.052 10.412 1.303 14.88a10.538 10.538 0 0 1-8.097 3.772z"/>
  <path fill="#4b635b" d="M159.278 170.33c-.609 0-1.225-.054-1.846-.163-5.746-1.014-9.58-6.492-8.568-12.236l7.203-40.847c1.014-5.742 6.487-9.583 12.236-8.568 5.746 1.012 9.58 6.492 8.568 12.236l-7.204 40.848c-.903 5.124-5.358 8.73-10.389 8.73z"/>
  <path fill="#b9bc63" d="M95.72 117.008c-4.314 0-8.364-2.663-9.926-6.951-1.994-5.482.831-11.543 6.313-13.537l38.978-14.186c5.476-1.993 11.542.83 13.535 6.312 1.996 5.482-.83 11.542-6.312 13.537L99.33 116.369a10.557 10.557 0 0 1-3.61.639z"/>
  <path fill="#e38b25" d="M74.113 239.551c-4.315 0-8.365-2.665-9.926-6.953-1.995-5.48.83-11.542 6.312-13.535l38.977-14.188c5.481-1.998 11.544.831 13.536 6.313 1.995 5.48-.83 11.542-6.312 13.535L77.723 238.91c-1.191.434-2.411.64-3.61.64z"/>
</svg>
