<svg xmlns="http://www.w3.org/2000/svg" viewBox="0 0 255.995 255.746">
  <path fill="#fff" d="M128.418 12.37c5.811 0 10.795 3.499 12.982 8.499.219.499.705.773 1.192.773.348 0 .697-.142.949-.44a14.206 14.206 0 0 1 10.862-5.084c1.212 0 2.445.158 3.671.485 5.623 1.506 9.535 6.186 10.344 11.594.096.647.673 1.067 1.27 1.067.244 0 .492-.07.712-.224a14.25 14.25 0 0 1 8.163-2.574c2.4 0 4.831.611 7.061 1.897 5.041 2.907 7.607 8.44 6.987 13.872-.088.767.553 1.402 1.273 1.402.14 0 .282-.024.424-.076a14.263 14.263 0 0 1 4.872-.858c3.623 0 7.243 1.378 10.007 4.141 4.116 4.113 5.162 10.12 3.157 15.206-.325.824.319 1.726 1.183 1.726.038 0 .074-.002.11-.005.416-.037.829-.055 1.244-.055 4.896 0 9.656 2.53 12.28 7.073 2.911 5.037 2.364 11.109-.891 15.504-.548.741-.104 1.837.806 1.997 5.26.924 9.77 4.782 11.244 10.276 1.507 5.618-.594 11.343-4.877 14.746-.722.573-.577 1.747.26 2.137 4.84 2.253 8.2 7.146 8.2 12.833 0 5.808-3.5 10.785-8.505 12.97-.858.376-1.05 1.539-.334 2.14 4.097 3.427 6.076 9.024 4.601 14.52-1.506 5.618-6.19 9.526-11.604 10.335-.912.136-1.372 1.225-.844 1.98 3.066 4.369 3.526 10.285.679 15.211-2.625 4.54-7.383 7.072-12.28 7.072-.533 0-1.07-.031-1.604-.091a1.335 1.335 0 0 0-.14-.01c-.849 0-1.488.882-1.188 1.704 1.829 5.013.74 10.846-3.286 14.867a14.103 14.103 0 0 1-10.006 4.142c-1.77 0-3.54-.33-5.213-.988a1.217 1.217 0 0 0-.448-.086c-.706 0-1.341.62-1.274 1.38.468 5.313-2.094 10.666-7.025 13.51a14.09 14.09 0 0 1-7.06 1.897c-3.027 0-6.003-.972-8.457-2.786a1.221 1.221 0 0 0-.73-.24c-.586 0-1.157.409-1.27 1.044-.924 5.255-4.785 9.763-10.284 11.234a14.18 14.18 0 0 1-3.672.485 14.21 14.21 0 0 1-11.087-5.358 1.235 1.235 0 0 0-.977-.463c-.472 0-.942.251-1.16.723-2.257 4.837-7.155 8.192-12.847 8.192-5.812 0-10.794-3.496-12.981-8.497a1.296 1.296 0 0 0-1.192-.772c-.348 0-.698.139-.95.438a14.206 14.206 0 0 1-10.86 5.083 14.17 14.17 0 0 1-3.673-.485c-5.623-1.506-9.534-6.186-10.343-11.592-.097-.649-.674-1.069-1.271-1.069-.243 0-.49.07-.711.226a14.25 14.25 0 0 1-8.164 2.574c-2.399 0-4.83-.611-7.06-1.898-5.041-2.908-7.606-8.44-6.987-13.872.087-.768-.553-1.4-1.273-1.4-.14 0-.283.022-.424.073-1.57.573-3.222.859-4.872.859a14.11 14.11 0 0 1-10.008-4.14c-4.116-4.114-5.16-10.121-3.156-15.207.325-.823-.319-1.726-1.183-1.726a1.32 1.32 0 0 0-.11.005c-.416.036-.829.055-1.244.055-4.896 0-9.656-2.531-12.281-7.074-2.91-5.036-2.363-11.109.892-15.503.548-.742.103-1.838-.806-1.998-5.26-.924-9.77-4.782-11.244-10.276-1.507-5.618.594-11.342 4.877-14.744.722-.575.577-1.748-.26-2.137-4.841-2.253-8.2-7.146-8.2-12.835 0-5.805 3.5-10.785 8.507-12.97.856-.375 1.048-1.539.332-2.137-4.097-3.428-6.076-9.027-4.602-14.523 1.507-5.618 6.192-9.526 11.604-10.334.913-.136 1.373-1.225.844-1.98-3.065-4.37-3.525-10.285-.678-15.21 2.624-4.543 7.383-7.072 12.279-7.072.534 0 1.07.03 1.605.091.047.005.095.007.141.007.848 0 1.487-.88 1.187-1.702-1.83-5.014-.74-10.847 3.284-14.868a14.108 14.108 0 0 1 10.008-4.14c1.77 0 3.54.329 5.213.988.148.058.3.084.448.084.706 0 1.341-.62 1.274-1.378-.468-5.315 2.094-10.668 7.025-13.513a14.09 14.09 0 0 1 7.06-1.896c3.027 0 6.004.972 8.457 2.788.224.163.479.239.73.239.586 0 1.157-.408 1.27-1.045.924-5.255 4.785-9.761 10.284-11.234a14.18 14.18 0 0 1 3.672-.485 14.21 14.21 0 0 1 11.087 5.358c.25.315.613.465.977.465.472 0 .942-.253 1.162-.725 2.255-4.837 7.153-8.192 12.844-8.192"/>
  <path fill="#2f2f2f" d="M181.462 184.2c-12.94 0-11.925-18.252 0-18.252 11.926 0 12.94 18.251 0 18.251m-106.93 0c-12.94 0-11.925-18.251 0-18.251 11.926 0 12.94 18.251 0 18.251m146.026-67.432h-4.384c-7.862 0-14.614-4.695-17.636-11.424-3.022 6.729-9.774 11.424-17.635 11.424-7.862 0-14.612-4.695-17.634-11.424-3.022 6.729-9.775 11.424-17.637 11.424-7.86 0-14.613-4.695-17.635-11.424-3.022 6.729-9.774 11.424-17.634 11.424-7.862 0-14.613-4.695-17.637-11.424-3.022 6.729-9.772 11.424-17.634 11.424s-14.613-4.695-17.635-11.424c-3.022 6.729-9.775 11.424-17.637 11.424h-4.334c-6.575 7.068-2.404 13.04 13.834 13.04v36.295c0 34.11 39.317 51.166 78.635 51.166 39.317 0 78.634-17.055 78.634-51.166v-36.296c16.252 0 20.493-5.971 13.97-13.04"/>
  <path fill="#2f2f2f" d="M129.257 0a27.841 27.841 0 0 0-15.844 4.972 27.856 27.856 0 0 0-10.12-1.891 27.9 27.9 0 0 0-7.208.95 27.836 27.836 0 0 0-14.033 8.92 27.434 27.434 0 0 0-3.071-.174 27.845 27.845 0 0 0-13.891 3.725 27.815 27.815 0 0 0-11.24 12.236c-5.836.877-11.22 3.58-15.47 7.825a27.784 27.784 0 0 0-7.692 14.746c-5.34 2.349-9.911 6.348-12.91 11.538a27.769 27.769 0 0 0-3.61 16.216 27.76 27.76 0 0 0-9.48 14.497 27.783 27.783 0 0 0 .713 16.6A27.751 27.751 0 0 0 0 126.614c0 5.76 1.808 11.271 4.99 15.848a27.742 27.742 0 0 0-.956 17.292 27.813 27.813 0 0 0 8.925 14.016 27.743 27.743 0 0 0 3.56 16.95 27.825 27.825 0 0 0 12.252 11.237 27.768 27.768 0 0 0 7.828 15.447c4.076 4.071 9.194 6.724 14.756 7.709a27.778 27.778 0 0 0 11.552 12.871 27.84 27.84 0 0 0 16.249 3.628 27.785 27.785 0 0 0 14.496 9.45 27.841 27.841 0 0 0 16.643-.692 27.822 27.822 0 0 0 16.443 5.376 27.841 27.841 0 0 0 15.844-4.973 27.826 27.826 0 0 0 10.119 1.892c2.427 0 4.852-.319 7.209-.951a27.824 27.824 0 0 0 14.03-8.918c1.021.114 2.047.173 3.074.173 4.863 0 9.667-1.289 13.89-3.725a27.805 27.805 0 0 0 11.242-12.236c5.836-.877 11.218-3.58 15.468-7.825a27.808 27.808 0 0 0 7.692-14.746c5.341-2.348 9.912-6.347 12.91-11.537a27.769 27.769 0 0 0 3.61-16.216 27.758 27.758 0 0 0 9.481-14.499 27.777 27.777 0 0 0-.713-16.598 27.756 27.756 0 0 0 5.4-16.456c0-5.759-1.809-11.27-4.988-15.846a27.735 27.735 0 0 0 .953-17.293c-1.492-5.564-4.667-10.418-8.924-14.016a27.743 27.743 0 0 0-3.558-16.95 27.844 27.844 0 0 0-12.253-11.238 27.764 27.764 0 0 0-7.828-15.445c-4.077-4.073-9.194-6.725-14.757-7.709a27.763 27.763 0 0 0-11.55-12.873 27.845 27.845 0 0 0-16.25-3.627 27.795 27.795 0 0 0-14.496-9.451 27.897 27.897 0 0 0-7.207-.951c-3.26 0-6.447.567-9.436 1.645A27.812 27.812 0 0 0 129.257 0m0 13.707c5.787 0 10.75 3.484 12.929 8.463.217.497.701.77 1.186.77.347 0 .695-.141.945-.44a14.148 14.148 0 0 1 10.818-5.06c1.207 0 2.435.157 3.656.483 5.6 1.499 9.495 6.16 10.301 11.545.096.644.67 1.062 1.266 1.062.242 0 .489-.07.708-.223a14.192 14.192 0 0 1 8.13-2.563c2.389 0 4.81.608 7.032 1.888 5.02 2.896 7.575 8.405 6.958 13.814-.088.764.55 1.396 1.267 1.396.14 0 .282-.024.422-.075a14.205 14.205 0 0 1 4.852-.855c3.609 0 7.214 1.372 9.967 4.124 4.099 4.095 5.14 10.077 3.144 15.142-.325.82.317 1.718 1.178 1.718.038 0 .074-.001.11-.005.413-.036.825-.055 1.238-.055 4.876 0 9.617 2.52 12.23 7.044 2.899 5.016 2.354 11.062-.888 15.438-.545.739-.103 1.83.803 1.99 5.238.92 9.73 4.761 11.198 10.232 1.5 5.595-.592 11.295-4.858 14.685-.718.57-.574 1.739.26 2.128 4.82 2.242 8.165 7.115 8.165 12.778 0 5.783-3.485 10.74-8.47 12.916-.853.374-1.045 1.532-.332 2.13 4.08 3.413 6.051 8.987 4.583 14.46-1.5 5.594-6.166 9.485-11.557 10.29-.909.136-1.366 1.22-.84 1.973 3.053 4.35 3.51 10.241.676 15.147-2.614 4.521-7.353 7.042-12.229 7.042-.532 0-1.067-.031-1.598-.091a1.324 1.324 0 0 0-.14-.009c-.845 0-1.481.877-1.183 1.696 1.822 4.992.738 10.8-3.272 14.804a14.046 14.046 0 0 1-9.965 4.125c-1.763 0-3.526-.33-5.192-.984a1.21 1.21 0 0 0-.445-.086c-.704 0-1.337.617-1.27 1.375.467 5.29-2.085 10.621-6.996 13.453a14.033 14.033 0 0 1-7.03 1.889c-3.015 0-5.979-.968-8.423-2.774a1.216 1.216 0 0 0-.727-.24c-.583 0-1.152.408-1.264 1.04-.92 5.233-4.766 9.722-10.242 11.187-1.223.327-2.45.483-3.657.483a14.153 14.153 0 0 1-11.042-5.336 1.23 1.23 0 0 0-.972-.46c-.47 0-.939.25-1.156.72-2.247 4.816-7.125 8.157-12.793 8.157-5.789 0-10.75-3.482-12.929-8.461a1.29 1.29 0 0 0-1.187-.77 1.22 1.22 0 0 0-.945.437 14.148 14.148 0 0 1-10.817 5.062c-1.207 0-2.435-.156-3.656-.483-5.6-1.5-9.495-6.16-10.301-11.544-.096-.646-.671-1.064-1.266-1.064-.242 0-.489.07-.708.225a14.192 14.192 0 0 1-8.13 2.563c-2.39 0-4.81-.608-7.032-1.89-5.02-2.896-7.574-8.404-6.958-13.814.087-.764-.55-1.394-1.268-1.394-.139 0-.28.022-.422.073-1.564.57-3.208.855-4.852.855a14.052 14.052 0 0 1-9.966-4.122c-4.1-4.097-5.14-10.079-3.144-15.144.324-.819-.317-1.718-1.178-1.718a1.31 1.31 0 0 0-.11.005c-.413.036-.825.055-1.238.055-4.876 0-9.617-2.52-12.23-7.044-2.9-5.015-2.354-11.062.888-15.438.545-.739.103-1.83-.803-1.99-5.238-.92-9.73-4.761-11.198-10.232-1.5-5.595.592-11.295 4.857-14.683.72-.572.575-1.74-.259-2.128-4.82-2.243-8.165-7.116-8.165-12.78 0-5.781 3.485-10.74 8.47-12.916.853-.374 1.045-1.532.332-2.128-4.08-3.413-6.051-8.989-4.583-14.462 1.5-5.594 6.166-9.485 11.556-10.29.91-.136 1.367-1.22.84-1.973-3.052-4.35-3.51-10.24-.675-15.145 2.614-4.523 7.353-7.042 12.229-7.042.531 0 1.065.03 1.598.09.047.006.095.008.14.008.845 0 1.481-.878 1.183-1.695-1.822-4.993-.738-10.801 3.27-14.806a14.05 14.05 0 0 1 9.967-4.122c1.763 0 3.526.327 5.191.983.148.059.299.084.446.084.703 0 1.336-.617 1.27-1.372-.467-5.293 2.085-10.623 6.995-13.456a14.033 14.033 0 0 1 7.03-1.888c3.016 0 5.981.968 8.423 2.776.223.163.477.238.728.238.583 0 1.152-.406 1.264-1.04.92-5.233 4.766-9.72 10.242-11.187a14.123 14.123 0 0 1 3.657-.483c4.324 0 8.388 2.004 11.042 5.335.248.314.61.463.972.463.47 0 .938-.252 1.158-.721 2.245-4.817 7.123-8.158 12.791-8.158"/>
</svg>
