<svg xmlns="http://www.w3.org/2000/svg" viewBox="0 0 256.202 387.9">
  <g transform="translate(.09)">
    <linearGradient id="a" x1="-385.773" x2="-385.773" y1="802.013" y2="802.832" gradientTransform="matrix(359.4979 0 0 -51.2998 138810.64 41533.422)" gradientUnits="userSpaceOnUse">
      <stop offset="0" style="stop-color:#e6e7e8"/>
      <stop offset="1" style="stop-color:#a7a9ac"/>
    </linearGradient>
    <ellipse cx="126.1" cy="375.1" fill="url(#a)" opacity=".39" rx="90" ry="12.8" style="fill:url(#a)"/>
    <linearGradient id="b" x1="-385.702" x2="-385.702" y1="808.094" y2="808.91" gradientTransform="matrix(327.5602 0 0 -28.3446 126466.72 23288.629)" gradientUnits="userSpaceOnUse">
      <stop offset="0" style="stop-color:#e6e7e8"/>
      <stop offset="1" style="stop-color:#a7a9ac"/>
    </linearGradient>
    <path fill="url(#b)" d="M158.6 368.1c-12.5 0-23.8.7-32.5 1.8-8.7-1.1-20.1-1.8-32.5-1.8-27.4 0-49.6 3.2-49.6 7.1 0 3.9 22.2 7.1 49.6 7.1 12.5 0 23.8-.6 32.5-1.8 8.7 1.1 20.1 1.8 32.5 1.8 27.4 0 49.6-3.2 49.6-7.1-.1-3.9-22.2-7.1-49.6-7.1z" opacity=".46" style="fill:url(#b)"/>
    <radialGradient id="c" cx="-383.193" cy="798.008" r=".219" gradientTransform="matrix(51.699 0 0 -39.7224 20040.693 31807.137)" gradientUnits="userSpaceOnUse">
      <stop offset="0" style="stop-color:#ff8b6c"/>
      <stop offset="1" style="stop-color:#ce4920"/>
    </radialGradient>
    <ellipse cx="223.4" cy="112.5" fill="url(#c)" rx="12.9" ry="10" style="fill:url(#c)"/>
    <linearGradient id="d" x1="225.498" x2="228.282" y1="110.502" y2="102.32" gradientTransform="translate(0 8)" gradientUnits="userSpaceOnUse">
      <stop offset="0" style="stop-color:#b2251a;stop-opacity:6.926769e-02"/>
      <stop offset="0" style="stop-color:#b32000"/>
      <stop offset="1" style="stop-color:#c7392e"/>
    </linearGradient>
    <path fill="url(#d)" d="M234.8 109.9s-7.3-6.5-13.5-.5c0 0 5 1.3 4.5 4.4-.5 3.1-4.7 4.2-4.7 4.2s14.5 4.1 13.7-8.1z" style="fill:url(#d)"/>
    <path fill="#7f1e0b" d="M225.8 113.8c.5-3.1-4.5-4.4-4.5-4.4 6.3-6 13.5.5 13.5.5l.1.6c-2.7-.7-9.5-1.6-8.4 8.1-2.9.1-5.5-.7-5.5-.7s4.3-1.1 4.8-4.1z"/>
    <radialGradient id="e" cx="-379.687" cy="798.002" r=".215" gradientTransform="matrix(51.699 0 0 -39.7224 19651.355 31807.137)" gradientUnits="userSpaceOnUse">
      <stop offset="0" style="stop-color:#ff8b6c"/>
      <stop offset="1" style="stop-color:#ce4920"/>
    </radialGradient>
    <ellipse cx="28.5" cy="112.5" fill="url(#e)" rx="12.9" ry="10" style="fill:url(#e)"/>
    <linearGradient id="f" x1="23.893" x2="23.782" y1="110.787" y2="102.661" gradientTransform="translate(0 8)" gradientUnits="userSpaceOnUse">
      <stop offset="0" style="stop-color:#b2251a;stop-opacity:6.926769e-02"/>
      <stop offset="0" style="stop-color:#b32000"/>
      <stop offset="1" style="stop-color:#c7392e"/>
    </linearGradient>
    <path fill="url(#f)" d="M17 109.9s7.3-6.5 13.5-.5c0 0-5 1.3-4.5 4.4.5 3.1 4.7 4.2 4.7 4.2s-14.5 4.1-13.7-8.1z" style="fill:url(#f)"/>
    <path fill="#7f1e0b" d="M26 113.8c-.5-3.1 4.5-4.4 4.5-4.4-6.3-6-13.5.5-13.5.5l-.1.6c2.7-.7 9.5-1.6 8.4 8.1 2.9.1 5.5-.7 5.5-.7s-4.2-1.1-4.8-4.1z"/>
    <radialGradient id="g" cx="-386.001" cy="795.295" r=".258" gradientTransform="matrix(511.0235 0 0 -725.8977 197379.05 577344)" gradientUnits="userSpaceOnUse">
      <stop offset="0" style="stop-color:#f28567"/>
      <stop offset="1" style="stop-color:#bf441e"/>
    </radialGradient>
    <path fill="url(#g)" d="M124.7 13.2s-69.2-6.6-87.1 89.6c-17.9 96.2-57.2 120.9-25.9 164 0 0 0 56 47.1 103.6 0 0 18.1 14.7 30.8-3.6 12.8-18.4 30.1-28.8 44.8-25 14.7 3.8 28.3 22.4 33.9 28.5 5.6 6.1 29 25.2 58.6-55.3 0 0 55.5-30.6 13.5-117.1 0 0-16.1-36.9-24.5-89.6-8.5-52.5-34.9-94.3-91.2-95.1z" style="fill:url(#g)"/>
    <linearGradient id="h" x1="127.984" x2="127.984" y1="785.133" y2="643.419" gradientTransform="matrix(1 0 0 -1 0 794)" gradientUnits="userSpaceOnUse">
      <stop offset="0" style="stop-color:#b11a0a;stop-opacity:.25"/>
      <stop offset="1" style="stop-color:#b11a0a"/>
    </linearGradient>
    <path fill="url(#h)" d="M240.3 198s-16.1-36.9-24.5-89.6c-6.6-41.2-24.2-75.7-58.5-89.2C170.9 29.5 168.9 44 168.9 44c-31-2.9-39.7 31.3-39.7 31.3s3.5-28.9 2.4-28.6c-1.2.3-4.7 24.3-4.7 24.3l-1.5-11.4-.6 11.4-5.2-22 3.8 27.8c-6.2-39-45.3-32.1-45.3-32.1-1.6-11.5 8.6-20.6 18.2-26.5-21.3 8.1-48.4 29.5-58.7 84.7-17.8 96.2-57.3 120.8-26 163.9 0 0 0 56 47.1 103.6 0 0 18.1 14.7 30.8-3.6 12.8-18.4 30.1-28.8 44.8-25 14.7 3.8 28.3 22.4 33.9 28.5 5.6 6.1 29 25.2 58.6-55.3 0 .1 55.5-30.5 13.5-117z" opacity=".7" style="fill:url(#h)"/>
    <path fill="#ad1813" d="M119.7 71.3S114 46.5 88 46.5 56.3 81.7 56.3 81.7s0 20.3 24.8 25c0 0-12.1-4.4-18.4-13.8 0 0 6 4.8 20.3 5.5 0 0-22.2-4.8-25.3-16.6 0 0 5.8-32.4 30.4-33.3 24.7-1 31.6 22.8 31.6 22.8z"/>
    <path fill="#ad1813" d="m119.8 84.7-.5.7s.5-30.6-27.8-32c-28.3-1.5-32.7 28.3-32.7 28.3s.8 7.7 27.8 9.2c16.9.9 25.4-1.5 29.4-3.4 2.6-.8 2.6 1.1 2.6 1.1-8.4 8.1-27.5 10.6-27.5 10.6 15.8.8 25.1-4.8 25.1-4.8-5.2 9.1-19.7 12.6-19.7 12.6 20.4-.2 25.6-18.2 25.6-18.2z"/>
    <linearGradient id="i" x1="-383.976" x2="-383.976" y1="796.135" y2="795.872" gradientTransform="matrix(118.1692 0 0 -70.0185 45463.254 55805.137)" gradientUnits="userSpaceOnUse">
      <stop offset="0" style="stop-color:#fff"/>
      <stop offset="1" style="stop-color:#ddc48c"/>
    </linearGradient>
    <path fill="url(#i)" d="M59.6 81.8s6-29.3 32.4-27.5c26.4 1.8 26.9 31.1 26.9 31.1s-9.4 5.5-32.8 3.6c-23.6-2.1-26.5-7.2-26.5-7.2z" style="fill:url(#i)"/>
    <radialGradient id="j" cx="-383.418" cy="796.301" r=".239" gradientTransform="matrix(92.1201 0 0 -59.9196 35408.289 47783.66)" gradientUnits="userSpaceOnUse">
      <stop offset="0" style="stop-color:#6caf11"/>
      <stop offset=".33" style="stop-color:#6aac10"/>
      <stop offset=".61" style="stop-color:#64a10f"/>
      <stop offset=".871" style="stop-color:#59900c"/>
      <stop offset="1" style="stop-color:#52840a"/>
    </radialGradient>
    <path fill="url(#j)" d="M109.5 62c-3.5-1.8-7.4-2.7-11.5-2.7-14.1 0-25.5 11.4-25.5 25.5 0 .8.1 1.6.1 2.4 3.5.7 7.8 1.3 13.2 1.8 23.5 2 32.8-3.6 32.8-3.6s-.2-14.3-9.1-23.4z" style="fill:url(#j)"/>
    <path fill="#ad1813" d="M134.2 70.5s5.5-24.1 30.8-24.1 30.8 34.2 30.8 34.2 0 19.7-24.1 24.2c0 0 11.7-4.2 17.8-13.4 0 0-5.8 4.7-19.7 5.3 0 0 21.6-4.7 24.5-16.1 0 0-5.6-31.4-29.5-32.3-23.9-.8-30.6 22.2-30.6 22.2z"/>
    <path fill="#ad1813" d="m134.1 83.5.5.6s-.5-29.7 27-31.1c27.5-1.4 31.7 27.5 31.7 27.5s-.8 7.5-27 8.9c-16.4.9-24.6-1.4-28.6-3.3-2.5-.8-2.6 1.1-2.6 1.1 8.1 7.8 26.7 10.3 26.7 10.3-15.3.8-24.4-4.7-24.4-4.7 5.2 8.9 19.2 12.4 19.2 12.4-19.8-.2-24.8-17.7-24.8-17.7z"/>
    <linearGradient id="k" x1="-384.549" x2="-384.549" y1="796.232" y2="795.951" gradientTransform="matrix(114.676 0 0 -67.9978 44262.391 54197.594)" gradientUnits="userSpaceOnUse">
      <stop offset="0" style="stop-color:#fff"/>
      <stop offset="1" style="stop-color:#ddc48c"/>
    </linearGradient>
    <path fill="url(#k)" d="M192.6 80.7s-5.8-28.4-31.4-26.7c-25.6 1.7-26.1 30.2-26.1 30.2s9.1 5.3 31.9 3.5c22.8-2 25.6-7 25.6-7z" style="fill:url(#k)"/>
    <radialGradient id="l" cx="-383.843" cy="796.327" r=".207" gradientTransform="matrix(89.4254 0 0 -58.0704 34490.395 46312.176)" gradientUnits="userSpaceOnUse">
      <stop offset="0" style="stop-color:#6caf11"/>
      <stop offset=".33" style="stop-color:#6aac10"/>
      <stop offset=".61" style="stop-color:#64a10f"/>
      <stop offset=".871" style="stop-color:#59900c"/>
      <stop offset="1" style="stop-color:#52840a"/>
    </radialGradient>
    <path fill="url(#l)" d="M144.1 61.5c3.4-1.7 7.1-2.7 11.1-2.7 13.6 0 24.8 11.1 24.8 24.8 0 .8-.1 1.5-.1 2.3-3.4.7-7.6 1.3-12.8 1.7-22.8 1.9-31.9-3.5-31.9-3.5s.2-13.7 8.9-22.6z" style="fill:url(#l)"/>
    <linearGradient id="m" x1="-385.657" x2="-385.657" y1="795.828" y2="795.544" gradientTransform="matrix(309.5371 0 0 -204.8136 119501.83 163105.53)" gradientUnits="userSpaceOnUse">
      <stop offset="0" style="stop-color:#ce4920;stop-opacity:0"/>
      <stop offset="1" style="stop-color:#9c1710"/>
    </linearGradient>
    <path fill="url(#m)" d="M66.6 111.5s57.8 9.3 113.6-6.8 3.2 99.6-45 101c-48.3 1.4-73.7-33.6-84.5-72-.1 0-8.9-27.2 15.9-22.2z" style="fill:url(#m)"/>
    <radialGradient id="n" cx="-385.665" cy="795.713" r=".52" gradientTransform="matrix(309.5371 0 0 -193.8552 119501.83 154390.3)" gradientUnits="userSpaceOnUse">
      <stop offset="0" style="stop-color:#e04c89"/>
      <stop offset="1" style="stop-color:#96003a"/>
    </radialGradient>
    <path fill="url(#n)" d="M66.6 111s57.8 8.8 113.6-6.4c55.8-15.1 3.2 94.3-45 95.6-48.3 1.3-73.8-31.8-84.6-68.2 0 0-8.8-25.6 16-21z" style="fill:url(#n)"/>
    <radialGradient id="o" cx="-385.567" cy="795.814" r=".216" gradientTransform="matrix(278.6017 0 0 -157.6357 107547.2 125597.7)" gradientUnits="userSpaceOnUse">
      <stop offset="0" style="stop-color:#e04c89"/>
      <stop offset="1" style="stop-color:#96003a"/>
    </radialGradient>
    <path fill="url(#o)" d="M71.9 119.2s61.6 12.7 107-6.9c0 0 13.7-6.9 18 1.1 4.3 8-19.3 72.5-65.6 75-46.3 2.6-63.7-37.5-72-56.2 0 0-3.6-8.7.7-12.2 3.1-2.6 4.6-2.3 11.9-.8z" style="fill:url(#o)"/>
    <path fill="#590d00" d="M71.9 119.2s61.6 12.7 107-6.9c0 0 13.7-6.9 18 1.1 4.3 8-19.3 72.5-65.6 75-46.3 2.6-63.7-37.5-72-56.2 0 0-3.6-8.7.7-12.2 3.1-2.6 4.6-2.3 11.9-.8z"/>
    <path fill="#250000" d="M110.8 138.9c11.8-3.7 25.7-5.8 41.1-4.3 3.2-7 2.3-12.5 1.7-14.6-6.2 1.2-12.4 2.1-18.6 2.6 1.5 3.7-1.1 7.3-6.7 6.8-5.3-.5-4.9-4.1-4.1-6.2-6.3.2-12.3.2-17.9-.1-3.1 9.9 2.2 14.4 4.5 15.8z" opacity=".7"/>
    <linearGradient id="p" x1="-379.783" x2="-379.433" y1="799.929" y2="799.929" gradientTransform="matrix(43.9187 0 0 -26.7078 16755.051 21490.367)" gradientUnits="userSpaceOnUse">
      <stop offset="0" style="stop-color:#cebc99"/>
      <stop offset=".047" style="stop-color:#d8caaf"/>
      <stop offset=".124" style="stop-color:#e6ddcc"/>
      <stop offset=".205" style="stop-color:#f1ece2"/>
      <stop offset=".294" style="stop-color:#f9f7f3"/>
      <stop offset=".393" style="stop-color:#fefdfc"/>
      <stop offset=".527" style="stop-color:#fff"/>
      <stop offset=".661" style="stop-color:#fefdfc"/>
      <stop offset=".749" style="stop-color:#faf8f4"/>
      <stop offset=".823" style="stop-color:#f2eee5"/>
      <stop offset=".89" style="stop-color:#e8e0d0"/>
      <stop offset=".951" style="stop-color:#dbceb5"/>
      <stop offset="1" style="stop-color:#cebc99"/>
    </linearGradient>
    <path fill="url(#p)" d="M94.9 122.3c-11.2-1-19.3-2.4-22-2.9-.1 2.9.7 12.2 11 13.3 8.4.9 10.5-6 11-10.4z" style="fill:url(#p)"/>
    <linearGradient id="q" x1="-381.898" x2="-381.53" y1="798.58" y2="798.58" gradientTransform="matrix(44.3134 0 0 -34.2383 17088.955 27460.602)" gradientUnits="userSpaceOnUse">
      <stop offset="0" style="stop-color:#cebc99"/>
      <stop offset=".047" style="stop-color:#d8caaf"/>
      <stop offset=".124" style="stop-color:#e6ddcc"/>
      <stop offset=".205" style="stop-color:#f1ece2"/>
      <stop offset=".294" style="stop-color:#f9f7f3"/>
      <stop offset=".393" style="stop-color:#fefdfc"/>
      <stop offset=".527" style="stop-color:#fff"/>
      <stop offset=".661" style="stop-color:#fefdfc"/>
      <stop offset=".749" style="stop-color:#faf8f4"/>
      <stop offset=".823" style="stop-color:#f2eee5"/>
      <stop offset=".89" style="stop-color:#e8e0d0"/>
      <stop offset=".951" style="stop-color:#dbceb5"/>
      <stop offset="1" style="stop-color:#cebc99"/>
    </linearGradient>
    <path fill="url(#q)" d="M178.8 112.4c-4.9 2.1-10 3.9-15.2 5.3.8 3.3 3.8 9.7 9.7 9.6 7.5-.2 12.5-9.2 12.6-17.2-3.8.7-7.1 2.3-7.1 2.3z" style="fill:url(#q)"/>
    <g fill="#e04c89">
      <path d="m173.609 165.495-.5.5c2.2 2.6 4.7 4.8 6.7 6.4.2-.2.3-.4.4-.5-2-1.5-4.5-3.7-6.6-6.4zM194.209 110.695c.2.1.4.3.6.4 1-1.6 2.2-3.7 3-6l-.6-.3c-.8 2.3-1.9 4.4-3 5.9zM181.109 111.395c.2-.1.4-.2.7-.3-.2-2.5-.5-4.9-.7-6.8-.2.1-.4.1-.7.2.2 2 .5 4.5.7 6.9zM188.609 143.195l-.3.6c3.6 2.4 6 3.4 7.8 3.7l.3-.6c-1.7-.3-4.2-1.3-7.8-3.7zM155.109 119.595c.2-.1.4-.1.7-.2l-.8-9.6c-.2.1-.5.1-.7.1zM142.709 121.595c.2-.1.5-.1.7-.1l-.9-10c-.2 0-.5.1-.7.1zM161.509 176.795c-.2.2-.4.3-.6.4 1.1 2.8 2.8 6.1 5.5 8.9.2-.2.4-.3.5-.4-2.7-2.8-4.4-6.2-5.4-8.9zM182.109 154.395c-.2.2-.3.4-.4.6 1.5 1.9 3.7 4.4 6.6 6.2.1-.2.3-.4.4-.6-2.9-1.8-5.2-4.3-6.6-6.2zM168.709 116.095c.2-.1.4-.2.7-.2l-.4-8.6c-.2.1-.5.1-.7.2zM127.309 122.995l-.4-10.1c-.2 0-.5 0-.7.1l.4 10.1c.2-.1.5-.1.7-.1zM196.509 122.195c-.1.2-.1.5-.2.7 3.9-.5 6.3-2 7.8-3.7v-1c-1.3 1.7-3.5 3.4-7.6 4zM193.509 131.995c-.1.2-.1.4-.3.6 1.5.8 4.4 1.8 8.2 1.5.1-.2.1-.5.2-.7-3.8.4-6.6-.7-8.1-1.4zM81.409 120.695c.3.1.5.1.7.1-.8-3-1.1-5.8-1.3-8.3-.2 0-.5-.1-.7-.1.2 2.6.5 5.4 1.3 8.3zM63.609 118.095c.3-.1.5-.1.8-.1-1.2-1.6-2.5-4.1-3-7.7h-.7c.5 3.6 1.7 6.1 2.9 7.8zM78.909 180.395c.2.2.4.3.5.5 1.9-2.5 4.3-5.2 7.1-7.2-.2-.2-.4-.3-.5-.5-2.8 2.1-5.2 4.8-7.1 7.2zM99.309 182.295l-.6-.3c-1.6 2.4-3.4 5.5-5.1 9l.6.3c1.7-3.6 3.5-6.7 5.1-9zM99.109 122.595h.6c-.6-2.6-1.3-5.9-1.7-9.3h-.7c.5 3.4 1.2 6.7 1.8 9.3zM114.209 187.295c-.2-.1-.5-.1-.7-.1-1.3 3.9-2.1 7.6-2.5 10.6.2.1.4.1.7.2.5-3.1 1.2-6.7 2.5-10.7zM144.209 185.995c1.6 4.6 3.8 8.1 5.8 10.7l.6-.3c-2-2.5-4.3-6.1-5.8-10.6-.2 0-.4.1-.6.2zM57.809 125.295c-3.1-.8-6.2-2.3-8.7-3.8 0 .3 0 .5-.1.8 2.5 1.5 5.6 3 8.7 3.7v-.7zM67.009 148.595l-.3-.6c-3.6 1.4-6.1 3.4-7.9 5.3l.3.6c1.8-1.9 4.3-3.9 7.9-5.3zM114.509 123.195h.7l-1-9.8h-.7zM131.409 188.395h-.6c-.4 3.6-.7 7.9-.8 11.8h.7c.1-3.9.4-8.2.7-11.8zM60.409 134.895c-.1-.2-.2-.5-.3-.7-2.1.2-4.8.8-8.2 2 .1.2.2.4.2.6 3.5-1.2 6.2-1.7 8.3-1.9zM75.809 162.195c-.2-.2-.3-.4-.4-.6-2.5 1-5.6 2.7-8.3 5.4.2.2.3.4.4.6 2.8-2.7 5.9-4.4 8.3-5.4z"/>
    </g>
    <path fill="#ce4920" d="M107.3 25.3s1.4 7.4 18.2 7.4 16.2-7.9 16.2-7.9-2.9 6-16 6-18.4-5.5-18.4-5.5z" opacity=".5"/>
    <path fill="#c62619" d="M141 22.9c0 2.9-7.3 5.1-16.2 5.1-8.9 0-16.2-2.3-16.2-5.1 0-2.9 7.3-5.1 16.2-5.1 8.9 0 16.2 2.3 16.2 5.1z"/>
    <linearGradient id="r" x1="-1663.756" x2="-1663.256" y1="795.264" y2="795.264" gradientTransform="matrix(58.4858 0 0 -52.4975 97416.344 41762.539)" gradientUnits="userSpaceOnUse">
      <stop offset="0" style="stop-color:#cebc99"/>
      <stop offset=".527" style="stop-color:#fff"/>
      <stop offset="1" style="stop-color:#cebc99"/>
    </linearGradient>
    <path fill="url(#r)" d="M124.9 0c-7.6 0-13.8 11.6-14.6 22.5 0 0 1.5 3.9 15.1 3.9 12.1 0 14.1-3.9 14.1-3.9-.8-10.9-7.1-22.5-14.6-22.5z" style="fill:url(#r)"/>
    <linearGradient id="s" x1="-1660.348" x2="-1660.348" y1="795.261" y2="795.598" gradientTransform="matrix(34.3329 0 0 -40.3218 57129.406 32083.4)" gradientUnits="userSpaceOnUse">
      <stop offset="0" style="stop-color:#fff;stop-opacity:0"/>
      <stop offset="1" style="stop-color:#fff"/>
    </linearGradient>
    <path fill="url(#s)" d="M133.5 13.8c0 4.7-3.9 8.5-8.6 8.5-4.8 0-8.6-3.8-8.6-8.5s3.9-11.7 8.6-11.7c4.7 0 8.6 7 8.6 11.7z" style="fill:url(#s)"/>
    <linearGradient id="t" x1="192.143" x2="85.006" y1="613.325" y2="492.398" gradientTransform="matrix(1 0 0 -1 0 794)" gradientUnits="userSpaceOnUse">
      <stop offset="0" style="stop-color:#961307;stop-opacity:.2"/>
      <stop offset=".068" style="stop-color:#961307;stop-opacity:.2141"/>
      <stop offset=".478" style="stop-color:#961307;stop-opacity:.3"/>
      <stop offset="1" style="stop-color:#8c1306"/>
    </linearGradient>
    <path fill="url(#t)" d="M240.3 198s-10.4-24-18.9-60.9c-2.6 13.6-8 46.8-5.2 66.8 3.5 25.7 13.4 131-32.4 147.1 0 0-13.8 2.2-31.4-17.7-17.5-19.9-41.3-43.6-41.3-43.6l12-5.3s6.2 8.2 18.7 4.4c0 0-8.2 1.5-14-4.7 0 0 8.5 2.9 14-4.1 0 0 3.8 1.2 2.7 3.8 0 0 4.4-3.5 1.2-7.9 0 0 24.5-21.3 14.6-45.6l-7-9.4s5.9-5 6.2-6.4c.3-1.5-1.8-16.1-1.8-16.1s17.6-17.3 29.9-36.3c-13.4 20-33.2 37.4-52.3 37.9-43.6 1.2-68.7-25.8-81-57.9H54l.3.9c2.1 6 15.4 40.8 47.6 55.8l-18.7 4.1s66.8 19.6 69.7 35.1c2.9 15.5-107.2 40.6-140.7 14.6-10.6-8.2-10.8-23-9.8-35.5-4.5 17.6-3.5 32 9.3 49.6 0 0 0 56 47.1 103.6 0 0 18.1 14.7 30.8-3.6 12.8-18.4 30.1-28.8 44.8-25 14.7 3.8 28.3 22.4 33.9 28.5 5.6 6.1 29 25.2 58.6-55.3-.1.2 55.4-30.4 13.4-116.9z" opacity=".7" style="fill:url(#t)"/>
    <linearGradient id="u" x1="-385.496" x2="-385.496" y1="796.585" y2="796.084" gradientTransform="matrix(299.5021 0 0 -166.3488 115543.68 132713.95)" gradientUnits="userSpaceOnUse">
      <stop offset="0" style="stop-color:#7a0400;stop-opacity:0"/>
      <stop offset=".91" style="stop-color:#710300;stop-opacity:.9101"/>
      <stop offset="1" style="stop-color:#700300"/>
    </linearGradient>
    <path fill="url(#u)" d="M95.4 284.5c58.4-8.8 71.5-38.3 64.8-54-6.7-15.8-77.1-27.5-77.1-27.5s72.6 14.3 74.7 34.2c2.9 27.5-80.9 58.2-146.1 29.6 0 0 0 2.4.4 6.5 12.7 6.5 41.3 17.5 83.3 11.2z" opacity=".6" style="fill:url(#u)"/>
    <path fill="#020202" d="M113.5 87.2c.2-.9.3-1.7.3-2.6 0-8-6.5-14.4-14.4-14.4S85 76.8 85 84.7c0 1.5.2 2.8.6 4.2.2 0 .4.1.5.1 13.5.9 22.4-.4 27.4-1.8z"/>
    <linearGradient id="v" x1="-385.998" x2="-385.956" y1="795.654" y2="795.824" gradientTransform="matrix(473.8713 0 0 -325.8868 183038.31 259615.41)" gradientUnits="userSpaceOnUse">
      <stop offset="0" style="stop-color:#770501"/>
      <stop offset="1" style="stop-color:#991000"/>
    </linearGradient>
    <path fill="url(#v)" d="M250.2 222.7c1.4 19.6.9 53.3-17.1 66.4 0 0 2.4-47.6-12.6-75.6 0 0 26.3 64.2-19 136.9 0 0-12.8 32.1-41.7 2.7-28.9-29.5-67.5-14-67.5-14l14.9 2.1s-14.9 3.8-20.8 16.1c-5.8 12.1-34.4 11.7-68-53.2 6.2 19.4 17.9 43.8 40.2 66.3 0 0 18.1 14.7 30.8-3.6 12.8-18.4 30.1-28.8 44.8-25 14.7 3.8 28.3 22.4 33.9 28.5 5.6 6.1 29 25.2 58.6-55.3.1.1 44.8-24.5 23.5-92.3z" style="fill:url(#v)"/>
    <path fill="#8c0000" d="M125.3 281.5s8.9 5 15.5-2.5c0 0 2.5-1 3.6.2-.2 0-9.8-7.4-19.1 2.3z"/>
    <g fill="#4a0100">
      <path d="M143.513 278.722c.4.2.6.4.6.4-.1-.1-.3-.3-.6-.4zM143.513 278.722c-2.3-1.4-10.4-5.6-18.4 2.7 0 0 9 1.4 13.6-3.1l1.8.7c.1-.1 1.8-.7 3-.3z"/>
    </g>
    <linearGradient id="w" x1="89.102" x2="89.102" y1="46.176" y2="81.271" gradientTransform="translate(0 8)" gradientUnits="userSpaceOnUse">
      <stop offset="0" style="stop-color:#b08bab"/>
      <stop offset=".071" style="stop-color:#a07f9b;stop-opacity:.9929"/>
      <stop offset=".246" style="stop-color:#7e647b;stop-opacity:.9754"/>
      <stop offset=".426" style="stop-color:#644f61;stop-opacity:.9574"/>
      <stop offset=".609" style="stop-color:#51414f;stop-opacity:.9391"/>
      <stop offset=".797" style="stop-color:#463844;stop-opacity:.9203"/>
      <stop offset="1" style="stop-color:#423540;stop-opacity:.9"/>
    </linearGradient>
    <path fill="url(#w)" d="M91.9 54.3c-26.4-1.8-32.4 27.5-32.4 27.5s2.9 5.2 26.4 7.1c23.5 1.9 32.8-3.6 32.8-3.6s-.5-29.3-26.8-31zm-5.8 33.4c-21.9-1.8-24.6-6.6-24.6-6.6s5.6-27.4 30.2-25.7c24.6 1.7 25.1 29 25.1 29s-8.7 5.1-30.7 3.3z" opacity=".6" style="fill:url(#w)"/>
    <path fill="#020202" d="M140.2 86c-.1-.8-.2-1.7-.2-2.5 0-7.8 6.3-14 14-14s14 6.3 14 14c0 1.4-.2 2.8-.6 4-.2 0-.4.1-.5.1-13.2 1.1-21.8-.3-26.7-1.6z"/>
    <linearGradient id="x" x1="163.929" x2="163.929" y1="45.928" y2="79.945" gradientTransform="translate(0 8)" gradientUnits="userSpaceOnUse">
      <stop offset="0" style="stop-color:#b08bab"/>
      <stop offset=".071" style="stop-color:#a07f9b;stop-opacity:.9929"/>
      <stop offset=".246" style="stop-color:#7e647b;stop-opacity:.9754"/>
      <stop offset=".426" style="stop-color:#644f61;stop-opacity:.9574"/>
      <stop offset=".609" style="stop-color:#51414f;stop-opacity:.9391"/>
      <stop offset=".797" style="stop-color:#463844;stop-opacity:.9203"/>
      <stop offset="1" style="stop-color:#423540;stop-opacity:.9"/>
    </linearGradient>
    <path fill="url(#x)" d="M161.3 54c25.6-1.7 31.4 26.7 31.4 26.7s-2.8 5-25.6 6.9c-22.8 1.9-31.9-3.5-31.9-3.5s.5-28.4 26.1-30.1zm5.5 32.5c21.3-1.8 24-6.4 24-6.4s-5.4-26.6-29.4-25c-24 1.6-24.4 28.2-24.4 28.2s8.5 5 29.8 3.2z" opacity=".6" style="fill:url(#x)"/>
    <linearGradient id="y" x1="-375.132" x2="-375.132" y1="796.804" y2="796.269" gradientTransform="matrix(22.9552 0 0 -53.0963 8737.788 42368.332)" gradientUnits="userSpaceOnUse">
      <stop offset="0" style="stop-color:#ce4920;stop-opacity:.3"/>
      <stop offset="1" style="stop-color:#ad1813"/>
    </linearGradient>
    <path fill="url(#y)" d="m120.8 74.6 3.7 6-.6-7.1 2.2 4.7-.2-9.9 1.6 8.3 1.6-11.6.2 14.7 3.2-7.7s-4.4 13.9-4.4 19.5L127 81v9l-1.6-7.3.2 6.5z" style="fill:url(#y)"/>
    <path fill="#fff" d="M60.4 85.6s23 13.7 55.5 2.8c-.1 0-29.1 20.5-55.5-2.8z" opacity=".3"/>
    <path fill="#fff" d="M65.9 95.7s20.8 11.9 46.6 1.1c0-.1-23.2 19.7-46.6-1.1zM137.2 87.1s27.8 11.2 54.3-2.6c0 .1-23.3 22-54.3 2.6z" opacity=".3"/>
    <path fill="#fff" d="M140.5 95.2s21.7 9.9 43.7.3c.1 0-20 17.4-43.7-.3zM66.7 61.7s9.2-12.6 23.6-12.2c14.4.4 21.3 9.3 24.4 14.2-.1.1-20.7-25.6-48-2zM140.8 61s19-24.8 42.8-1.5c0-.1-21.1-17-42.8 1.5z" opacity=".3"/>
    <path fill="#660300" d="M254.5 272.5c-8.4 18.8-19 27.5-19 27.5.4-3.7.7-9.2.9-13.6-1 1-2.1 2-3.3 2.8 0 0 .1-2 .1-5.4-2.5 19-6.5 31.3-6.5 31.3s22-12.1 27.8-42.6z" opacity=".4"/>
    <path fill="#fff" d="M130.9 285.9s7.8.7 11.2-4.3c0 0 2.9 8.9-11.2 4.3z" opacity=".15"/>
    <path fill="#fff" d="M52.8 130.9s-7.5-20.4 9.3-18.7c16.8 1.7 63 5.3 96.9-1.7 34.1-6.9 36.2-7.7 42.3.4 0 0-6.4-7.1-18.1-3.3-11.8 3.9-59.4 16-120.9 6.9 0 .1-12-1.8-9.5 16.4z" opacity=".25"/>
    <radialGradient id="z" cx="-385.603" cy="795.896" r=".214" gradientTransform="matrix(283.646 0 0 -156.7657 109507.64 124930.06)" gradientUnits="userSpaceOnUse">
      <stop offset="0" style="stop-color:#e04c89"/>
      <stop offset="1" style="stop-color:#96003a"/>
    </radialGradient>
    <path fill="url(#z)" d="M129.2 197.1C94 195.8 73.3 175.9 62 158.8c14 24.3 37.3 42.3 73.1 41.3 32.4-.8 66.8-50.5 68.9-78.5-7 26.4-29.7 77.2-74.8 75.5z" style="fill:url(#z)"/>
    <g transform="translate(112.78 217.575)">
      <radialGradient id="A" cx="-1400.601" cy="578.239" r=".218" gradientTransform="matrix(283.3736 0 0 -166.8517 396908.13 96420.961)" gradientUnits="userSpaceOnUse">
        <stop offset="0" style="stop-color:#e04c89"/>
        <stop offset="1" style="stop-color:#96003a"/>
      </radialGradient>
      <path fill="url(#A)" fill-opacity=".5" d="M84.6-100.9c-.5 15.4-23.8 69.4-66.1 71.8-46.4 2.6-63.7-37.6-72.1-56.2 0 0-3.6-8.7.7-12.2 1.4-1.2 2.5-1.8 3.8-2 0 0-8.7-1.9-6.7 16.6.7 6.6 1.7 14.7 4.5 23.4 13.9 24.7 37.4 43.1 73.6 42.1 17-.5 34.4-14.2 47.6-31.3C80-65.6 89.3-86.5 84.6-100.9z" opacity=".7" style="fill:url(#A)"/>
      <radialGradient id="B" cx="-1400.365" cy="581.86" r=".189" gradientTransform="matrix(220.2698 0 0 -27.4445 308479.03 15867.629)" gradientUnits="userSpaceOnUse">
        <stop offset="0" style="stop-color:#e04c89"/>
        <stop offset="1" style="stop-color:#96003a"/>
      </radialGradient>
      <path fill="url(#B)" fill-opacity=".5" d="M66-105.2s5.1-2.6 10-2.8c-3.4-.3-8-.1-12.7 2.2-8.1 3.9-57.8 12.6-97.7 8.6 17.2 2.5 64 7.6 100.4-8z" opacity=".7" style="fill:url(#B)"/>
    </g>
    <radialGradient id="C" cx="-385.378" cy="796.381" r=".208" gradientTransform="matrix(229.0526 0 0 -108.8605 88402.367 86855.695)" gradientUnits="userSpaceOnUse">
      <stop offset="0" style="stop-color:#e04c89"/>
      <stop offset="1" style="stop-color:#96003a"/>
    </radialGradient>
    <path fill="url(#C)" d="M73.2 158.4c11.2 16.3 28.9 31.6 58.1 30 26.9-1.5 46.1-23.9 56.7-43.9-57.3-26.6-103 4.5-114.8 13.9z" style="fill:url(#C)"/>
    <path fill="#fff" d="M65 148.7s18.4 44.5 64.9 41.9c46.6-2.6 66.7-64.3 66.7-64.3s-16.9 67.5-67.5 68.1C78.4 195 65 148.7 65 148.7z" opacity=".3"/>
    <linearGradient id="D" x1="-385.378" x2="-385.378" y1="796.396" y2="797.13" gradientTransform="matrix(229.352 0 0 -99.336 88517.75 79290.18)" gradientUnits="userSpaceOnUse">
      <stop offset="0" style="stop-color:#fff;stop-opacity:.4"/>
      <stop offset="1" style="stop-color:#fff"/>
    </linearGradient>
    <path fill="url(#D)" d="M188 144.6c-5.2-2.4-10.3-4.4-15.2-5.9 0 .7 0 1.4-.1 2-1.5.6-3.3-.1-4.8.8 2.8 4-2.5 3.5-5 3.7-.4 2.5 1.9 3.3 2.3 5.4.5 2.6-1 5.8-3.4 5.2-2-.5-3.5-3.3-5.2-4.4-3.4-2.4-4.3-1.6-4.9 1.5-.5 2.9-.5 4.9-3.9 3.6-2-.8-5.1-5.2-7.6-3.1-2.2 1.8 1.2 8.5-1.6 9.9-2.7 1.3-4-3.6-4.5-5-1.2-3.7-4.5-4-6.9-.6-1.7 2.3-1.1 11.5-6 9.4-2.3-1-2.8-6-6-3.6-2.3 1.7-1.3 8.3-5.4 8.3-2 0-1.7-.9-2.3-2.5-.3-.7-.4-1.7-.9-2.4-.4-.6-1-.3-1.3-.7-1.7-2.4-.4-5.3-1.9-7.5-2.5-3.5-4.4.1-4.7 2.8-.3 2.5-.1 6.9-3.8 5.3-.1-1.7.7-3.5 0-5.1-1-2.7-2.9-2-5.2-2.9-.5-2.7 2.5-4.5 2.3-6.7-.3-2.4-2.7-.4-4.1-1.6-.1-.8 0-1.5.1-2.2-7.1 3.9-12.4 7.8-15.4 10.2 11.2 16.3 28.9 31.6 58.1 30 27.5-1.5 46.7-23.8 57.3-43.9z" opacity=".3" style="fill:url(#D)"/>
    <radialGradient id="E" cx="-386.294" cy="794.814" r=".064" gradientTransform="matrix(0 108.8605 1713.9268 0 -1362122.4 42213.414)" gradientUnits="userSpaceOnUse">
      <stop offset="0" style="stop-color:#a33665"/>
      <stop offset="1" style="stop-color:#7d002f"/>
    </radialGradient>
    <path fill="url(#E)" d="M73.2 158.4c11.2 16.3 28.9 31.6 58.1 30 26.9-1.5 46.1-23.9 56.7-43.9-57.3-26.6-103 4.5-114.8 13.9zm32.9 9.7c-17.8-16.3 13.2-30 18.2-29.2 5 .8 8 27.7 8 27.7l.4-28.5s19.4-1.9 26.9 12.9-35.7 33.4-53.5 17.1z" opacity=".6" style="fill:url(#E)"/>
    <linearGradient id="F" x1="-363.42" x2="-363.42" y1="797.874" y2="797.373" gradientTransform="matrix(11.1957 0 0 -56.6893 4197.847 45366.047)" gradientUnits="userSpaceOnUse">
      <stop offset="0" style="stop-color:#361221"/>
      <stop offset="1" style="stop-color:#96003a"/>
    </linearGradient>
    <path fill="url(#F)" d="M130.4 135.1s2.2 16.1 1.4 28.4c0 0-1-22.3-5.5-27.2z" opacity=".4" style="fill:url(#F)"/>
    <linearGradient id="G" x1="-385.333" x2="-385.333" y1="799.954" y2="798.749" gradientTransform="matrix(227.2561 0 0 -25.7273 87691.656 20687.57)" gradientUnits="userSpaceOnUse">
      <stop offset="0" style="stop-color:#fff;stop-opacity:0"/>
      <stop offset="1" style="stop-color:#fff"/>
    </linearGradient>
    <path fill="url(#G)" d="M65.4 114.4s65.3 8.4 113.9-6.5c-.1 0-52.2 24-113.9 6.5z" style="fill:url(#G)"/>
    <linearGradient id="H" x1="-385.421" x2="-385.421" y1="796.537" y2="796.068" gradientTransform="matrix(239.7318 0 0 -99.4105 92526.523 79368.477)" gradientUnits="userSpaceOnUse">
      <stop offset="0" style="stop-color:#fff;stop-opacity:0"/>
      <stop offset="1" style="stop-color:#fff"/>
    </linearGradient>
    <path fill="url(#H)" d="M68.8 159.2s22.7 34.8 61.6 32.1c38.9-2.7 58.6-43 58.6-43s-15.7 49.5-60.5 49.8c-44.9.3-59.7-38.9-59.7-38.9z" style="fill:url(#H)"/>
    <linearGradient id="I" x1="-385.323" x2="-385.323" y1="797.115" y2="797.947" gradientTransform="matrix(255.5011 0 0 -86.6308 98536.844 69287.328)" gradientUnits="userSpaceOnUse">
      <stop offset="0" style="stop-color:#fff;stop-opacity:0"/>
      <stop offset="1" style="stop-color:#fff;stop-opacity:.3"/>
    </linearGradient>
    <path fill="url(#I)" d="M22.5 189.6s87.8 13.5 128 43.4c.1 0-61.6-24.1-128-43.4z" style="fill:url(#I)"/>
    <linearGradient id="J" x1="-381.002" x2="-381.002" y1="797.406" y2="797.815" gradientTransform="matrix(46.2602 0 0 -84.2048 17758.268 67414.562)" gradientUnits="userSpaceOnUse">
      <stop offset="0" style="stop-color:#ce4920;stop-opacity:0"/>
      <stop offset="1" style="stop-color:#000;stop-opacity:.8"/>
    </linearGradient>
    <path fill="url(#J)" d="M142.5 235.4c-.2-.8.3-2 .4-2.8.4-2.6 2.1-3.2 1.8-6.8-8.1-3-16.1-6-22.1-7.8l.1.1v.7c-4.1 2.4 4.3 3.3 1.7 6.5 3.2-.4 1.6 2.7 1.1 4-.8 2.2-.8 3.6.1 5.6 1 2.2.9 3.1.9 5.5 0 1 .4 1.9.3 2.8-.1.9-.9 1.6-1 2.4-.2 2.4 1.7 2 2.9 3.8 1.3 1.8.1 3.4-.6 5.2-.5 1.2-1.9 4.2-.4 5.4 1.9 1.6 3.1-1 3.3-2.3.2-1.2-.4-2.3-.4-3.3 0-1.5.5-1.8.9-3.1.9-2.9-.6-3.3-1.5-5.8-.9-2.6 1-3.7 1-6.2 0-1.6-2.4-4.9-.3-5.7.1-.5-.4-1.6-.2-1.8.3-.9.3-.6.8-1.4.6-.9 1.7-2.3 2.8-1.5 1.1.8.2 2.6.5 3.8.3 1.2 1.5 2 .9 3.8-.4 1.1-2.1 1.6-2.3 2.8-.2 1.5 1.2 1.8 1.4 3.1.3 1.6-1.1 2.2-1 3.8.1 1.4 1.4 2.2 1.2 3.7 1.6.7 2.6-.1 3.3-1.6 1-2.1-.5-2.3-.8-4.1-.1-1 .5-1.5.6-2.4.1-1.3-.1-1.1-.3-2.1-.4-1.5-.7-2.8-.7-4.5 0-2.7 2.6-7 3.5-2.6.4 1.6.1 2.5.8 4.2.6 1.6.5 2.5.5 4.3 1.9 1.1 2.7-2 2.3-3.5-.5-1-1.3-1.4-1.5-2.2z" opacity=".4" style="fill:url(#J)"/>
    <g transform="translate(357.302 325.365)">
      <path fill="#920b04" fill-opacity=".779" d="M-175.6-142.4c-.7 5.2-1.5 20 9.7 20s9.3-16.1 9.3-16.1-.2-12.6-12.3-23.7c-.2.8-5.7 12.7-6.7 19.8z"/>
      <linearGradient id="K" x1="-3596.948" x2="-3597.298" y1="472.034" y2="472.037" gradientTransform="matrix(39.0922 0 0 -73.9556 140451.27 34765.941)" gradientUnits="userSpaceOnUse">
        <stop offset="0" style="stop-color:#fff;stop-opacity:.7861"/>
        <stop offset="1" style="stop-color:#ffada6;stop-opacity:.69"/>
      </linearGradient>
      <path fill="url(#K)" d="M-168.9-162.1c0 .7-8.1 12.7-9 19.8-.7 5.2-1.3 17.1 9.9 17.1 11.2 0 9.3-16.1 9.3-16.1s-.6-9.1-10.2-20.8v-.2z" style="fill:url(#K)"/>
      <linearGradient id="L" x1="-3595.353" x2="-3595.353" y1="473.48" y2="473.107" gradientTransform="matrix(28.9715 0 0 -47.6624 103994.3 22410.176)" gradientUnits="userSpaceOnUse">
        <stop offset=".126" style="stop-color:#85211b"/>
        <stop offset="1" style="stop-color:#fff"/>
      </linearGradient>
      <path fill="url(#L)" fill-opacity=".7" d="M-168.2-138.2c8.3 0 6.9-9.8 6.9-9.8s-.5-7-7.6-14.1c0 0-5.5 9.5-6.6 13.5-.5 3.1-.9 10.4 7.3 10.4z" style="fill:url(#L)"/>
      <linearGradient id="M" x1="-3596.311" x2="-3596.311" y1="472.965" y2="472.546" gradientTransform="matrix(33.6359 0 0 -54.5934 120796.73 25682.728)" gradientUnits="userSpaceOnUse">
        <stop offset="0" style="stop-color:#fff;stop-opacity:0"/>
        <stop offset="1" style="stop-color:#fff"/>
      </linearGradient>
      <path fill="url(#M)" d="M-160.1-141.6s-.2-5.4-4.8-12.8c3 6 3.2 10 3.2 10s1.7 14.5-8.4 14.5c-3.3 0-5.4-1.1-6.8-2.8 1.1 3.1 3.5 5.6 8.4 5.6 10.1.1 8.4-14.5 8.4-14.5z" style="fill:url(#M)"/>
    </g>
    <path fill="#fff" d="M81.3 38.7s28.1-3.4 37.4 18c0 0-2.8-12.7-.4-13.7 2.3-1.1 5.7 19.4 5.7 19.4s1.3-11.2 2.1-11.4c.9-.2.9 8.3.9 8.3s1.7-19.4 5.3-19.6c3.6-.2.4 20.7.4 20.7s6.4-22 34-21.1c0 0-18.6-4.5-30.8 8 0 0 1.3-12.5-3-12.5s-6.4 12.7-6.4 12.7-.2-3-.9-3-1.5 8.7-1.5 8.7-4.5-16.7-7-16.1c-2.6.7-1.5 9.7-1.5 9.7s-11.3-12.5-34.3-8.1z" opacity=".3"/>
    <path fill="#af2419" d="M126.042 104.904s.4-3.6-3.5-3.4c-3.8.3-10 4.3 3.5 3.4z"/>
    <path fill="#95110a" d="M122.542 101.604c-1.9.1-4.3 1.2-4.7 2.1.8.3 3.6 1.3 7.3.3l1 1.1c-.1-.2.3-3.8-3.6-3.5z"/>
    <path fill="#6e0301" d="M125.742 103.104c-.4-.9-1.3-1.6-3.1-1.5-1.8.1-4.2 1.1-4.7 2 1.5.1 5.6.5 7.8-.5z"/>
    <path fill="#af2419" d="M128.401 104.904s-.4-3.6 3.5-3.4c3.8.3 10 4.3-3.5 3.4z"/>
    <path fill="#95110a" d="M131.901 101.604c1.9.1 4.3 1.2 4.7 2.1-.8.3-3.6 1.3-7.3.3l-1 1.1c.1-.2-.2-3.8 3.6-3.5z"/>
    <path fill="#6e0301" d="M128.801 103.104c.4-.9 1.3-1.6 3.1-1.5 1.8.1 4.2 1.1 4.7 2-1.5.1-5.6.5-7.8-.5z"/>
    <linearGradient id="N" x1="-385.377" x2="-385.377" y1="796.49" y2="796.822" gradientTransform="matrix(228.7532 0 0 -93.9605 88286.82 75020.539)" gradientUnits="userSpaceOnUse">
      <stop offset="0" style="stop-color:#fff;stop-opacity:.7"/>
      <stop offset="1" style="stop-color:#fff"/>
    </linearGradient>
    <path fill="url(#N)" d="M131.2 188.4c26.9-1.5 46.1-23.9 56.7-43.9-2.4-1.2-4.8-2.2-7.2-3.1.1 2-.3 3.9-1.9 4.5-2.4.8-2.8-1.3-3.7 1.8-.8 2.4-1.6 1.1-3.6 1.7-1.9.5-1.3 2.1-1.2 3.6.2 4-.2 8.4-5 8.4-1.9 0-3.7-1.2-5.6-1-.8.1-1 .1-1.6.6-.7.5-1.1 2-1.8 2.1-1.2.1-1.8-2.8-3.4-1.3-1.4 1.3.6 4.2-1.9 4.8-1.8.5-2.9-1.8-4.8-1.3-1.8.5-1.2 2.6-1.3 4.3-.2 2.6-1 2.7-3.4 1.9-1-.4-1.3-.5-2.2-.4-.9.1-1.8.6-2.8 0-1.2-.7-1.1-2.1-2.2-3-.8-.7-3.3-2.3-4.2-1.3-.8.8.4 4 .4 5.2-.1 1.4.8 4.8-.5 5.4-.9.4-3.8-.2-4.5-.8-1.3-1.1-1.6-3.5-2.9-4.8-1.2-1.1-3.4-1.5-4.6-.3-1.2 1.2 0 3.7-.8 5.2-.8 1.7-3 2.1-4.6 1.5-1.8-.7-1.7-2.4-2.8-3.4-1.5-1.4-4.3.1-5.7-1.2-1.4-1.3-.4-3.4-1-5-.2-.4-1-1.8-1.4-1.9-1-.3-1.2.6-1.9.9-.5.3-1.6.2-2.1.7-.8.7-.4 1.4-.6 2.3-.6 2.4-2.7 1.9-4.5 1.1-1.6-.6-1.7-1.4-1.7-3.1 0-1.3-.1-3.5-1-4.5-1-1.2-2.6-.4-4-.9-.3-1.6 1.6-2.9.4-4.1-.7-.7-1.5-.3-1.9-1.2-.4-.7.2-1.9-.1-2.7-.7-2.6-2.4-.4-3.4-1.7-.2-.3-.2-.7-.1-1.2-3.7 2.4-6.5 4.5-8.4 6 11.9 16.4 29.6 31.8 58.8 30.1z" opacity=".2" style="fill:url(#N)"/>
    <linearGradient id="O" x1="127.475" x2="126.678" y1="104.842" y2="89.723" gradientTransform="translate(0 8)" gradientUnits="userSpaceOnUse">
      <stop offset="0" style="stop-color:#a6261a;stop-opacity:.5"/>
      <stop offset=".999" style="stop-color:#ab2015;stop-opacity:.5004"/>
      <stop offset="1" style="stop-color:#ab2015;stop-opacity:.5"/>
    </linearGradient>
    <path fill="url(#O)" d="M120.5 113.3c4.6-.2 9.2-.5 14-.9 2-1 3.8-2.2 4.7-3.6 1.8-2.9-.1-6.2-1.1-7.7.9 1.7.6 4.8-1.4 5.7-2.4 1.1-15.5 1.9-19.1-.3-3.6-2.1-1.2-5.7-1.2-5.7-4.7 6.9-.4 10.6 4.1 12.5z" style="fill:url(#O)"/>
    <linearGradient id="P" x1="-381.293" x2="-381.293" y1="800.235" y2="799.502" gradientTransform="matrix(50.0023 0 0 -24.3524 19192.551 19580.295)" gradientUnits="userSpaceOnUse">
      <stop offset="0" style="stop-color:#000;stop-opacity:.3"/>
      <stop offset="1" style="stop-color:#b82c1e;stop-opacity:.8"/>
    </linearGradient>
    <path fill="url(#P)" d="M116.3 107.3c2.7 2.9 5.2 4.7 6.9 5.9 3.3-.2 6.7-.4 10.2-.7 2.1-1.5 6.2-4.8 6.3-8.4-.4-1.2-1-2.3-1.5-2.9.9 1.7.6 4.8-1.4 5.7-2.4 1.1-15.5 1.9-19.1-.3-3.6-2.1-1.2-5.7-1.2-5.7-1.1 1.5-1.7 2.9-2 4.1.5.7 1 1.5 1.8 2.3z" style="fill:url(#P)"/>
    <radialGradient id="Q" cx="-385.378" cy="796.38" r=".437" gradientTransform="matrix(229.0526 0 0 -108.8325 88402.367 86833.359)" gradientUnits="userSpaceOnUse">
      <stop offset="0" style="stop-color:#b3174b"/>
      <stop offset="1" style="stop-color:#2b0011"/>
    </radialGradient>
    <path fill="url(#Q)" d="M114.3 137.8c-20.5 5.6-35.2 15.9-41.1 20.7 11.2 16.3 28.9 31.6 58.1 30 26.9-1.5 46.1-23.9 56.7-43.9-17.7-8.3-34.3-11-49.1-10.5 7.4 1 28.5 4.8 32.8 15.2 5.3 12.7-24.2 24.6-39.3 26.3-15.2 1.7-40.6-2-39.8-18.4.3-9.4 11.9-15.8 21.7-19.4z" opacity=".5" style="fill:url(#Q)"/>
    <path fill="#fff" d="M117.6 100s8.9-3.6 19.5 0c0 0-9.6-6.7-19.5 0z" opacity=".3"/>
    <radialGradient id="R" cx="-382.486" cy="796.519" r=".449" gradientTransform="matrix(63.1559 0 0 -120.0655 24290.285 95817.07)" gradientUnits="userSpaceOnUse">
      <stop offset="0" style="stop-color:#000;stop-opacity:0"/>
      <stop offset="1" style="stop-color:#000"/>
    </radialGradient>
    <path fill="url(#R)" fill-opacity=".2" d="M141.4 219.2s7.8-.1 8.4-6.5c.6-6.6-3.5-44.4-3.5-44.4s-.3-9.3-12.2-9.3c-11.8 0-12.2 9.3-12.2 9.3s-4 37.8-3.7 44.4c.4 6.5 8.5 6.5 8.5 6.5h7.4z" style="fill:url(#R)"/>
    <g transform="translate(239.532 432.156)">
      <linearGradient id="S" x1="-2537.27" x2="-2536.729" y1="365.595" y2="365.595" gradientTransform="matrix(48.3641 0 0 -84.2048 122593.25 30590.684)" gradientUnits="userSpaceOnUse">
        <stop offset="0" style="stop-color:#3ed8bb"/>
        <stop offset="1" style="stop-color:#3fb5ba"/>
      </linearGradient>
      <path fill="url(#S)" d="M-98.3-197.9c-.2-.8.3-2 .4-2.8.4-2.6 2-4.6 2.9-7.1-8.1-3-17.2-5.8-23.2-7.6l.1.1v.7c-4.1 2.4 4.3 3.3 1.7 6.5 3.2-.4 1.6 2.7 1.1 4-.8 2.2-.8 3.6.1 5.6 1 2.2.9 3.1.9 5.5 0 1 .4 1.9.3 2.8-.1.9-.9 1.6-1 2.4-.2 2.4 1.7 2 2.9 3.8 1.3 1.8.1 3.4-.6 5.2-.5 1.2-1.9 4.2-.4 5.4 1.9 1.6 3.1-1 3.3-2.3.2-1.2-.4-2.3-.4-3.4 0-1.5.5-1.8.9-3.1.9-2.9-.6-3.3-1.5-5.8-.9-2.6 1-3.7 1-6.2 0-1.6-2.4-4.9-.3-5.7.1-.5-.4-1.6-.3-1.8.3-.9.3-.6.8-1.4.6-.9 1.7-2.3 2.8-1.5 1.1.8.2 2.6.5 3.8.3 1.2 1.5 2 .9 3.8-.4 1.1-2.1 1.6-2.3 2.8-.2 1.5 1.2 1.8 1.4 3.1.3 1.6-1.1 2.2-1 3.8.1 1.4 1.4 2.2 1.2 3.7 1.6.7 2.6-.1 3.3-1.6 1-2.1-.5-2.3-.8-4.1-.2-1 .5-1.5.6-2.4.1-1.3-.1-1.1-.3-2.1-.4-1.5-.7-2.8-.7-4.5 0-2.7 2.6-7 3.5-2.6.4 1.6.1 2.5.8 4.2.6 1.6.5 2.5.5 4.3 1.9 1.1 2.7-2 2.3-3.5-.5-.7-1.2-1.1-1.4-2z" style="fill:url(#S)"/>
      <linearGradient id="T" x1="-2537.433" x2="-2536.931" y1="370.173" y2="370.173" gradientTransform="matrix(49.8908 0 0 -31.239 126475.26 11356.35)" gradientUnits="userSpaceOnUse">
        <stop offset="0" style="stop-color:#f6d62c"/>
        <stop offset=".385" style="stop-color:#fbb316"/>
        <stop offset=".651" style="stop-color:#f6d60e"/>
        <stop offset="1" style="stop-color:#fbb316"/>
      </linearGradient>
      <path fill="url(#T)" d="M-118.2-215.2v.7c-4.1 2.4 4.3 3.3 1.7 6.5 2.5-.4 2.1 1.5 1.5 3 .1 0 .2-.1.3-.1 1.2-.1 1.2.5 2.1.8.3.1 1.3.1 1.5.3.5.4.2 1.4.5 1.8.1.1.2.2.4.3.2-.4.3-.4.6-1 .6-.9 1.7-2.3 2.8-1.5.9.7.4 2.1.4 3.3.8-.2 1.4-.5 2.4-.5.3.3.5.6.7.8.9-1.9 2.3-2.9 2.9.1.1.4.2.8.2 1.1.8-.3 1.6-.6 2.5-.5.1-.2.1-.4.1-.6.4-2.6 6.3-5.7 2.2-7.6-8.2-3-16.5-5.3-22.6-7.1-.2.1-.2.2-.2.2z" style="fill:url(#T)"/>
      <g transform="translate(7.984 32.936)">
        <linearGradient id="U" x1="-2590.132" x2="-2589.626" y1="345.213" y2="345.213" gradientTransform="matrix(10.4346 0 0 -16.2682 26911.154 5392.686)" gradientUnits="userSpaceOnUse">
          <stop offset="0" style="stop-color:#6caf11"/>
          <stop offset="1" style="stop-color:#52840a"/>
        </linearGradient>
        <path fill="url(#U)" d="M-111.8-219.5c.4.1.8.2 1.2.2.1-1.1-.9-1.6-1.1-2.9-.2-1 .5-1.5.6-2.4.1-1.3-.1-1.1-.3-2.1-.1-.2-.1-.4-.2-.6-1.4-.2-2.8-.2-4.2-.3-.1.1-.1.2-.1.3-.2 1.5 1.2 1.8 1.4 3.1.2 1.1-.4 1.7-.7 2.5 1.5-.1 3 1 3.4 2.2z" style="fill:url(#U)"/>
        <linearGradient id="V" x1="-2590.652" x2="-2590.152" y1="339.601" y2="339.601" gradientTransform="matrix(10.9786 0 0 -25.2812 28318.268 8360.066)" gradientUnits="userSpaceOnUse">
          <stop offset="0" style="stop-color:#6caf11"/>
          <stop offset="1" style="stop-color:#52840a"/>
        </linearGradient>
        <path fill="url(#V)" d="M-122.4-231.2c-.4-.3-.7-.5-1.1-.6l.2.4c1 2.2.9 3.1.9 5.5 0 1 .4 1.9.3 2.8-.1.9-.9 1.6-1 2.4v.1c.1 0 .1 0 .1-.1 1.7-.5 2.5 2.1 4.4 1.6.2-.1.3-.1.5-.2-.3-.5-.5-1-.8-1.6-.9-2.6 1-3.7 1-6.2 0-.2 0-.3-.1-.5-.6-.1-1.2-.2-1.8-.4-.8-.8-1.6-2.4-2.6-3.2z" style="fill:url(#V)"/>
      </g>
      <g transform="translate(6.986 18.963)">
        <linearGradient id="W" x1="-2571.527" x2="-2571.031" y1="364.297" y2="364.297" gradientTransform="matrix(7.2858 0 0 -11.8768 18627.996 4109.95)" gradientUnits="userSpaceOnUse">
          <stop offset="0" style="stop-color:#fe980e"/>
          <stop offset="1" style="stop-color:#ff5906"/>
        </linearGradient>
        <path fill="url(#W)" d="M-104.1-213.9c0-.3 0-.6-.1-.9-.2-.8-1-1.2-1.2-2.1-.2-.8.3-2 .4-2.8v-.1c-.9 0-1.9.1-2.8 0v.1c.4 1.6.1 2.5.8 4.2.3.7.4 1.2.5 1.8.8-.3 1.7-.3 2.4-.2z" style="fill:url(#W)"/>
        <linearGradient id="X" x1="-2578.687" x2="-2578.185" y1="357.292" y2="357.292" gradientTransform="matrix(9.4815 0 0 -17.9984 24334.986 6214.113)" gradientUnits="userSpaceOnUse">
          <stop offset="0" style="stop-color:#fe980e"/>
          <stop offset="1" style="stop-color:#ff5906"/>
        </linearGradient>
        <path fill="url(#X)" d="M-111.1-217.1c0-1.1.5-2.6 1.1-3.5-.4-.3-.8-.5-1.4-.5-.8-.1-1.4.1-2.1.2-.1.5-.1.9 0 1.3.3 1.2 1.5 2 .9 3.8-.4 1.1-2.1 1.6-2.3 2.8v.2c.8 0 1.1.3 1.8.5.7.3 1.7.3 2.7.2 0-.1 0-.2-.1-.4-.3-1.5-.6-2.9-.6-4.6z" style="fill:url(#X)"/>
        <linearGradient id="Y" x1="-2584.059" x2="-2583.557" y1="354.074" y2="354.074" gradientTransform="matrix(12.2162 0 0 -23.3544 31444.402 8050.336)" gradientUnits="userSpaceOnUse">
          <stop offset="0" style="stop-color:#fe980e"/>
          <stop offset="1" style="stop-color:#ff5906"/>
        </linearGradient>
        <path fill="url(#Y)" d="M-117.3-218.8c.1-.5-.4-1.6-.3-1.8.3-.8.3-.7.7-1.2-.2-.3-.2-.6-.4-1.1-.3-.9-.6-1.1-1.5-1.2-.4 0-.8.2-1.2.1-.4-.1-.8-.5-1.2-.7-.3-.1-.5-.2-.7-.2-.2.7-.5 1.4-.7 1.8-.8 2.2-.8 3.6.1 5.6.2.3.3.6.4.9.6.5 1.2 1 1.6 1.6 1 1.5 1.4 1.8 3.2 1.9h.3v-.1c0-1.4-2.3-4.7-.3-5.6z" style="fill:url(#Y)"/>
      </g>
      <path fill="#fff" d="M-105.7-206.7c.6.2.9.5.9 1.1 0 .4 0 .9.1 1.3 0 .4 0 .4.3.4s1.3-.3 1.3.1c.4.1.8-.8 1.1-1 .4-.2.8.1 1 .4.2.2.1.6.4.7.3.1.4-.1.6-.1.3 0 .2.2.4.3.3.1.3-.3.4-.5.2-.4.5-.7.8-.9.2-.1.5-.2.8-.2.1 0 .3.2.4.1.3-.2.3-1.2.2-1.5-.2-.5-.8-.8-1.3-.7-.2 0-.4.1-.6.3-.1.1-.2.4-.2.5-.4.3-.7-.2-.8-.5-.2-.4-.3-.8-.6-1-.6-.5-1.5-.4-2 .2-.4.3-.4.9-.7 1.2-.3.3-.4-.4-.7-.6-.6-.5-1.4 0-2 .2M-113.6-204.1c-.4.1-.7.8-.7 1.2 0 .6.6.7.7 1.2.2.8-.7 1.3-.9 2-.3 1.2 1.2 1 1.3 2 0 .2-.1.4.1.5.2.2.7.3.9.2.3-.2.5-.8.6-1.1.2-.5.3-1 .4-1.5.2-.6.6-1.2.3-1.9-.3-.6-.8-.8-1.2-1.1-.3-.3-.5-.7-.8-.9-.4-.2-.4-.3-.5-.7M-112.9-193.8c-.1.5.5.8.4 1.3-.1.4-.4.8-.4 1.2 0 .4.4 1 .2 1.4-.1.5-.7.8-1 1.2-.3.5-.5.8-.2 1.3s.8.8 1.4.6c1.2-.4.7-1.9.6-2.7 0-.4 0-.7.1-1.1.2-.5.1-.7-.1-1.2-.2-.6.2-1.8-.7-1.8M-111.8-178.6c-.5.6-1 1.3-1.2 2-.1.3-.2.8-.1 1.1.3.8 1 .8 1.5.3s.8-1.2.9-1.9c.1-.5 0-.7-.3-.9-.2-.2-.3-.5-.5-.7M-105.3-195.7c-.1.3-.5.6-.7.8-.3.3-.7.6-.9.9-.3.4-.6 1.2-.3 1.5.2.2.4.2.6.4.2.2.4.5.5.7.2.3.2 1 .5 1.2.4.2.8-.2.8-.6.1-.5-.1-1 .2-1.5.3-.5.4-1 .3-1.6 0-.2-.2-.4-.3-.6-.1-.2-.3-.3-.5-.5-.1-.1-.1-.2-.1-.3M-106.1-188.8c-.3.3-.5.9-.6 1.3-.1.6.5.7.9 1 .4.4.2.6.4 1s.6.3.8.1c.8-.5 1-2.1.3-2.7-.2-.2-.5-.5-.7-.6-.3-.1-.7-.1-.9-.2M-99.2-196.8c.4.4.5 1.6.4 2.1-.1.4-.2.7-.3 1-.2.8.6 1 1 .3.3-.4.5-1 .5-1.5-.1-.5-.4-.6-.6-.9-.2-.2-.2-.4-.4-.6-.2-.1-.3-.2-.4-.4" opacity=".3"/>
    </g>
    <linearGradient id="Z" x1="-382.194" x2="-381.693" y1="796.548" y2="796.548" gradientTransform="matrix(55.6064 0 0 -113.5782 21372.644 90658.383)" gradientUnits="userSpaceOnUse">
      <stop offset="0" style="stop-color:#3ed8bb"/>
      <stop offset=".385" style="stop-color:#3fb5ba"/>
      <stop offset=".651" style="stop-color:#3ed8bb"/>
      <stop offset="1" style="stop-color:#3fb5ba"/>
    </linearGradient>
    <path fill="url(#Z)" d="M134.2 216.4h7.1s6.3-.1 6.8-6.2c.6-6.2-2.2-42-2.2-42s-.3-8.8-11.8-8.8h.1c-11.4 0-11.8 8.8-11.8 8.8s-2.5 35.8-2.2 42c.4 6.2 6.8 6.2 6.8 6.2z" style="fill:url(#Z)"/>
    <linearGradient id="aa" x1="-381.912" x2="-381.912" y1="810.237" y2="811.139" gradientTransform="matrix(55.1922 0 0 -13.5735 21212.865 11224.676)" gradientUnits="userSpaceOnUse">
      <stop offset="0" style="stop-color:#fff;stop-opacity:.3387"/>
      <stop offset="1" style="stop-color:#2cab98"/>
    </linearGradient>
    <path fill="url(#aa)" fill-opacity=".7" d="M134.1 216.4h6.4c6.4 0 7.7-4.4 7.7-6.8-2.2 2.4-5.9 3.1-8 3.9-2.8 1.2-5.3 1-6.7.7-1.4-.2-1.5-1.1-6.1-.5-2.4.3-5-1-7-2.2.8 2.9 2.6 4.9 7.3 4.9z" style="fill:url(#aa)"/>
    <linearGradient id="ab" x1="-382.199" x2="-381.699" y1="802.634" y2="802.634" gradientTransform="matrix(55.6912 0 0 -27.0886 21405.326 21943.723)" gradientUnits="userSpaceOnUse">
      <stop offset="0" style="stop-color:#6caf11"/>
      <stop offset=".385" style="stop-color:#52840a"/>
      <stop offset=".651" style="stop-color:#6caf11"/>
      <stop offset="1" style="stop-color:#52840a"/>
    </linearGradient>
    <path fill="url(#ab)" d="M147.5 194.7c.1.6.1 1.2.1 1.8-2.4-1.2-4.9-.6-7.9.7-3.9 1.8-8.3.6-12.7-1-2.3-.9-4.8-.3-6.5.4-.2 4-.4 7.5-.5 9.7 1.1.5 2.7.8 4.4.2 0 0 4.2 1.2 6.3.9 0 0 .8-.2 2 .4 1.2.6 2.7.6 3.5.1 0 0 2.5.1 3.4-.5 0 0 1.6-.1 2.2-.5 0 0 2.4-.1 3.7-1.3 0 0 1.3 0 2.6-.1-.2-2.4-.4-6.3-.6-10.8z" style="fill:url(#ab)"/>
    <linearGradient id="ac" x1="-382.162" x2="-381.661" y1="810.753" y2="810.753" gradientTransform="matrix(55.1922 0 0 -13.3022 21212.715 10986.427)" gradientUnits="userSpaceOnUse">
      <stop offset="0" style="stop-color:#81c819"/>
      <stop offset=".385" style="stop-color:#71b612"/>
      <stop offset=".651" style="stop-color:#81c819"/>
      <stop offset="1" style="stop-color:#71b612"/>
    </linearGradient>
    <path fill="url(#ac)" d="M144 204.7c2 .2 3.3.2 4.1.1-.1-1.8-.2-4-.3-6.5-.7 0-1.4 0-1.9-.1-1-.1-2.9.4-3.9.8-1 .5-2 .4-3.2.2-1.2-.2-1.5-.7-3.1-.1-1.7.6-3.3.8-3.3.8s-.4-.2-1.1-.1c-.7.1-2.4-.1-2.4-.1l-2.2.2c-1.8.9-5.1.3-6.3.1-.1 1.1-.1 2.2-.2 3.1 3.4-.5 5.2 1.5 5.2 1.5 3.1-1 4.9.4 4.9.4 4.5-1.3 9.4-.6 13.7-.3z" style="fill:url(#ac)"/>
    <linearGradient id="ad" x1="-381.853" x2="-381.353" y1="797.942" y2="797.942" gradientTransform="matrix(51.699 0 0 -58.7348 19862.742 47040.793)" gradientUnits="userSpaceOnUse">
      <stop offset="0" style="stop-color:#f6d62c"/>
      <stop offset=".385" style="stop-color:#fbb316"/>
      <stop offset=".651" style="stop-color:#f6d60e"/>
      <stop offset="1" style="stop-color:#fbb316"/>
    </linearGradient>
    <path fill="url(#ad)" d="M145.9 167.8c-1-8.8-11.6-8.7-11.6-8.7s-10.9-.2-11.9 8.7c-.4 3.1-.8 9.2-1.1 15.7 1.1 1.8 2.6 3.6 4.1 4.1 3.6 1.2 3.9-1.1 8.9.5 5 1.5 6.8-.5 9.2-1.6 1.1-.5 2.5-.2 3.7.4-.5-7.8-.9-15.5-1.3-19.1z" style="fill:url(#ad)"/>
    <linearGradient id="ae" x1="-382.058" x2="-381.558" y1="801.679" y2="801.679" gradientTransform="matrix(53.9945 0 0 -29.3011 20749.705 23680.887)" gradientUnits="userSpaceOnUse">
      <stop offset="0" style="stop-color:#fe980e"/>
      <stop offset=".385" style="stop-color:#ff5906"/>
      <stop offset=".651" style="stop-color:#fe980e"/>
      <stop offset="1" style="stop-color:#ff5906"/>
    </linearGradient>
    <path fill="url(#ae)" d="M147.1 186.4c0 .2 0 .4.1.6-1.3-.6-2.6-.9-3.7-.4-2.4 1.2-4.2 3.1-9.2 1.6-5-1.5-5.4.8-8.9-.5-1.6-.5-3-2.3-4.1-4.1-.3 4.5-.5 9.2-.7 13.2 1.8-.7 4.2-1.3 6.5-.4 4.4 1.6 8.8 2.7 12.7 1 3-1.4 5.6-1.9 7.9-.7-.2-3.4-.4-6.8-.6-10.3z" style="fill:url(#ae)"/>
    <linearGradient id="af" x1="-382.058" x2="-381.558" y1="801.679" y2="801.679" gradientTransform="matrix(53.9945 0 0 -29.3011 20749.705 23680.887)" gradientUnits="userSpaceOnUse">
      <stop offset="0" style="stop-color:#fe980e"/>
      <stop offset=".385" style="stop-color:#ff5906"/>
      <stop offset=".651" style="stop-color:#fe980e"/>
      <stop offset="1" style="stop-color:#ff5906"/>
    </linearGradient>
    <path fill="url(#af)" d="M147.1 186.4c0 .2 0 .4.1.6-1.3-.6-2.6-.9-3.7-.4-2.4 1.2-4.2 3.1-9.2 1.6-5-1.5-5.4.8-8.9-.5-1.6-.5-3-2.3-4.1-4.1-.3 4.5-.5 9.2-.7 13.2 1.8-.7 4.2-1.3 6.5-.4 4.4 1.6 8.8 2.7 12.7 1 3-1.4 5.6-1.9 7.9-.7-.2-3.4-.4-6.8-.6-10.3z" style="fill:url(#af)"/>
    <path fill="#3fb5ba" d="M127.7 210.2c-.1-.1-.2-.3-.3-.5-.1-.1-.1-.3-.2-.4-.1.3 0 .6.2.8.1.1.3.2.3.5v.1-.5z"/>
    <g transform="translate(242 325)">
      <radialGradient id="ag" cx="-2489.869" cy="504.595" r=".364" gradientTransform="matrix(3.5179 0 0 -5.8555 8642.059 2822.885)" gradientUnits="userSpaceOnUse">
        <stop offset="0" style="stop-color:#fff;stop-opacity:0"/>
        <stop offset=".917" style="stop-color:#fff;stop-opacity:.9171"/>
        <stop offset="1" style="stop-color:#fff"/>
      </radialGradient>
      <path fill="url(#ag)" d="M-116.9-133.2c-1.2-.2-1.4 2.6-.3 2.9 1.1.3 1.3-1.5 1-2.1-.2-.4-.4-.8-.8-.8" opacity=".3" style="fill:url(#ag)"/>
      <path fill="#fff" d="M-116.9-132.9c-.9-.3-.3.9-.2 1.3.4.1.4-.9.3-1.1" opacity=".3"/>
      <path fill="#fe980e" d="M-117.2-130.4c-.5-.1-.7-.7-.7-1.2-.1.7.2 1.4.7 1.6.9.2 1.1-.9 1.1-1.7-.1.7-.4 1.5-1.1 1.3z" opacity=".3"/>
      <radialGradient id="ah" cx="-2522.95" cy="527.563" r=".216" gradientTransform="matrix(6.0182 0 0 -3.4868 15079.142 1705.3)" gradientUnits="userSpaceOnUse">
        <stop offset="0" style="stop-color:#fff;stop-opacity:0"/>
        <stop offset=".917" style="stop-color:#fff;stop-opacity:.9171"/>
        <stop offset="1" style="stop-color:#fff"/>
      </radialGradient>
      <path fill="url(#ah)" d="M-104.2-135.1c-.5 0-1.2.2-1.6.5-.2.1-.3.3-.3.5.1.3.3.4.5.5.5.3.8.4 1.4.2.4-.1 1-.3 1.2-.7.3-.5-.7-1-1.2-1" opacity=".3" style="fill:url(#ah)"/>
      <path fill="#fff" d="M-105.4-134.2c-.2-.1-.1-.3.1-.4.2-.1.5-.1.7-.2.4-.1.9-.2 1.2.1-.4 0-.8 0-1.1.2-.1 0-.8.6-.9.3" opacity=".3"/>
      <path fill="#fe980e" d="M-103-134.1c-.2.4-.8.6-1.2.7-.6.1-.9.1-1.4-.2-.2-.1-.4-.2-.5-.4-.1.1-.1.2-.1.3.1.2.3.4.5.5.5.3.8.4 1.4.2.4-.1 1-.3 1.2-.7.2-.2.1-.3.1-.4z" opacity=".3"/>
      <radialGradient id="ai" cx="-2515.624" cy="487.661" r=".47" gradientTransform="matrix(4.9922 0 0 -11.432 12460.101 5443.598)" gradientUnits="userSpaceOnUse">
        <stop offset="0" style="stop-color:#fff;stop-opacity:0"/>
        <stop offset=".917" style="stop-color:#fff;stop-opacity:.9171"/>
        <stop offset="1" style="stop-color:#fff"/>
      </radialGradient>
      <path fill="url(#ai)" d="M-98-133.6c.1-.5-.5-.7-.9-.7-.6.1-.5.8-.6 1.2-.1.4-.3.9-.1 1.4.1.4.5.8.7 1.2.2.5.1 1 .2 1.5s.6.7 1.1.5c.8-.4.6-2.1.3-2.7-.2-.4-.4-.6-.5-1-.1-.3.1-1.2-.1-1.4" opacity=".3" style="fill:url(#ai)"/>
      <path fill="#fff" d="M-98.9-133.9c0-.1-.1-.1-.2-.1-.1.3-.6 1.9-.1 1.9l.3-.9c.1-.3.3-.4.3-.8-.1-.1-.2-.1-.3-.1" opacity=".3"/>
      <path fill="#fe980e" d="M-97.7-128.6c-.4.2-1-.1-1.1-.5-.1-.5 0-1-.2-1.5-.2-.4-.5-.8-.7-1.2-.2-.5 0-1 .1-1.4 0-.2 0-.5.1-.7-.3.2-.2.7-.3 1-.1.4-.3 1-.1 1.4.1.4.5.8.7 1.2.2.5.1 1 .2 1.5s.6.7 1.1.5c.2-.1.4-.3.5-.6-.1.2-.2.3-.3.3z" opacity=".3"/>
      <radialGradient id="aj" cx="-2516.292" cy="506.205" r=".284" gradientTransform="matrix(5.0729 0 0 -5.7462 12665.905 2782.308)" gradientUnits="userSpaceOnUse">
        <stop offset="0" style="stop-color:#fff;stop-opacity:0"/>
        <stop offset=".917" style="stop-color:#fff;stop-opacity:.9171"/>
        <stop offset="1" style="stop-color:#fff"/>
      </radialGradient>
      <path fill="url(#aj)" d="M-98.6-126.9c-.1-.2-.1-.5-.1-.7-.1-.5-.9-.3-1.1-.1-.3.3-.6.8-.5 1.2.2.8 1.4 1.7 2.2 1.4.5-.2.5-.8.1-1.1-.3-.2-.7-.4-.7-.8" opacity=".3" style="fill:url(#aj)"/>
      <path fill="#fff" d="M-99.5-127.5c-.3.1-.9.7-.2.8.1-.2.3-.3.4-.5.1-.2.1-.4-.2-.3" opacity=".3"/>
      <path fill="#6caf11" d="M-98.1-125.1c-.8.4-2-.6-2.2-1.4v.4c.2.8 1.4 1.7 2.2 1.4.3-.2.4-.5.4-.8-.1.2-.3.3-.4.4z" opacity=".3"/>
      <radialGradient id="ak" cx="-2504.816" cy="489.621" r=".486" gradientTransform="matrix(4.4096 0 0 -10.6382 10927.634 5083.951)" gradientUnits="userSpaceOnUse">
        <stop offset="0" style="stop-color:#fff;stop-opacity:0"/>
        <stop offset=".917" style="stop-color:#fff;stop-opacity:.9171"/>
        <stop offset="1" style="stop-color:#fff"/>
      </radialGradient>
      <path fill="url(#ak)" d="M-116.9-125.5c-.1-.2.1-.5.1-.7 0-.2.1-.6 0-.8-.2-.5-.8-.6-1.2-.4-1.2.7-.8 2.2.3 2.7-.4.4-.8.8-.8 1.4 0 .5.4 1.1 1 1.2.7.1.8-.7.5-1.1-.2-.3-.2-.4.1-.7.2-.2.4-.3.5-.6.1-.3-.1-.4-.3-.5-.2-.1-.2-.2-.2-.5" opacity=".3" style="fill:url(#ak)"/>
      <path fill="#fff" d="M-117.4-127.1c-.3-.4-1.6.8-.9 1.4.5.5.3-.3.4-.6.1-.2.6-.7.5-.8M-117.6-124.7c.1-.2.3-.3.4 0 .1.2-.2.4-.3.5-.1.2-.3.3-.3.5-.1.2.1.5-.1.7-.4.5-.5-.4-.4-.6.2-.5.7-.6.7-1.1" opacity=".3"/>
      <path fill="#6caf11" d="m-118-124.3.3-.3c-.7-.4-1.1-1.2-.9-2-.5.8-.2 1.8.6 2.3zM-117.6-122.1c-.5-.1-1-.7-1-1.2 0-.2.1-.3.1-.5-.2.2-.3.5-.3.8 0 .5.4 1.1.9 1.2.4.1.6-.2.6-.5.1.2-.1.2-.3.2z" opacity=".3"/>
      <radialGradient id="al" cx="-2489.648" cy="507.247" r=".372" gradientTransform="matrix(3.3232 0 0 -5.6997 8170.308 2769.062)" gradientUnits="userSpaceOnUse">
        <stop offset="0" style="stop-color:#fff;stop-opacity:0"/>
        <stop offset=".917" style="stop-color:#fff;stop-opacity:.9171"/>
        <stop offset="1" style="stop-color:#fff"/>
      </radialGradient>
      <path fill="url(#al)" d="M-103.1-123.5c-.8 0-.9 1-.9 1.6-.1.5-.1 1.2.5 1.3.6.1.8-.3.9-.8 0-.4.4-1.1.3-1.5-.1-.2-.4-.5-.6-.6" opacity=".3" style="fill:url(#al)"/>
      <path fill="#fff" d="M-103.3-123.2c-.4-.2-.6 1.5-.5 1.8.2 0 .4-.7.5-.9.1-.2.5-.5.4-.8-.1-.1-.3-.2-.4-.1" opacity=".3"/>
      <path fill="#6caf11" d="M-102.7-121.5c-.1.6-.2.9-.9.8-.4 0-.5-.4-.5-.7-.1.5 0 1 .5 1 .6.1.8-.3.9-.8 0-.4.4-1 .3-1.4-.1.5-.3.9-.3 1.1z" opacity=".3"/>
      <radialGradient id="am" cx="-2516.615" cy="495.509" r=".352" gradientTransform="matrix(5.4095 0 0 -8.5634 13500.17 4127.838)" gradientUnits="userSpaceOnUse">
        <stop offset="0" style="stop-color:#fff;stop-opacity:0"/>
        <stop offset=".917" style="stop-color:#fff;stop-opacity:.9171"/>
        <stop offset="1" style="stop-color:#fff"/>
      </radialGradient>
      <path fill="url(#am)" d="M-113.1-116.1c.2-.5.3-1.1-.2-1.3-.6-.3-1 .1-1.3.6-.2.5-.4 1.2-.1 1.6.1.2.3.3.3.5.1.3 0 .6.1.8.3 1.3 1.8.7 2.2-.2.2-.5 0-.9-.4-1.1-.4-.3-.8-.6-.6-.9" opacity=".3" style="fill:url(#am)"/>
      <path fill="#fff" d="M-113.9-117.3s-.8 1.2-.3 1.1c.3-.1.8-1.1.3-1.1M-114.2-114.3c.3.3.8.4 1.1.2.2-.1.3-.4.5-.4.3-.1.2.2.1.4-.2.4-.5.6-.9.7-.4.1-.9-.1-.8-.6" opacity=".3"/>
      <path fill="#3fb5ba" d="M-112.2-114.2c-.4.9-1.9 1.5-2.2.2v.4c.3 1.3 1.8.7 2.2-.2.1-.2.1-.4.1-.5l-.1.1z" opacity=".3"/>
      <radialGradient id="an" cx="-2462.251" cy="549.19" r=".28" gradientTransform="matrix(2.5115 0 0 -2.7619 6072.725 1400.572)" gradientUnits="userSpaceOnUse">
        <stop offset="0" style="stop-color:#fff;stop-opacity:0"/>
        <stop offset=".917" style="stop-color:#fff;stop-opacity:.9171"/>
        <stop offset="1" style="stop-color:#fff"/>
      </radialGradient>
      <path fill="url(#an)" d="M-111.3-116.9c-.7-.2-.8 1.6.3 1.4.4-.1.6-.5.5-.9-.1-.3-.5-.5-.8-.5" opacity=".3" style="fill:url(#an)"/>
      <path fill="#fff" d="M-111.4-116.6c-.4-.1-.3.4.1.3.4-.1.1-.4-.1-.3" opacity=".3"/>
      <path fill="#3fb5ba" d="M-111.1-115.6c-.5.1-.7-.2-.8-.6-.1.5.2 1 .8.9.4-.1.6-.5.5-.8-.1.3-.2.5-.5.5z" opacity=".3"/>
      <radialGradient id="ao" cx="-2509.154" cy="514.484" r=".28" gradientTransform="matrix(4.4348 0 0 -4.9154 11027.668 2412.976)" gradientUnits="userSpaceOnUse">
        <stop offset="0" style="stop-color:#fff;stop-opacity:0"/>
        <stop offset=".917" style="stop-color:#fff;stop-opacity:.9171"/>
        <stop offset="1" style="stop-color:#fff"/>
      </radialGradient>
      <path fill="url(#ao)" d="M-98.9-116.8c-.2-.5-.9-.4-1.3-.1-.4.3-.8.9-.9 1.4-.1.5.2.9.7.9.5 0 1-.4 1.2-.8.3-.5.4-1 .3-1.4" opacity=".3" style="fill:url(#ao)"/>
      <path fill="#fff" d="M-99.4-116.9c-.5-.3-1.9 1.3-1.3 1.6.3-.2.5-.4.7-.7.1-.2.2-.3.4-.5 0-.1.1-.3.2-.4" opacity=".3"/>
      <path fill="#3fb5ba" d="M-98.9-116.5c0 .4-.2.8-.4 1.1-.2.4-.8.8-1.2.8-.4 0-.6-.3-.7-.5-.1.5.2.9.7.9.5 0 1-.4 1.2-.8.4-.6.5-1 .4-1.5z" opacity=".3"/>
      <radialGradient id="ap" cx="-2492.54" cy="506.647" r=".385" gradientTransform="matrix(3.4038 0 0 -6.0991 8384.792 2979.387)" gradientUnits="userSpaceOnUse">
        <stop offset="0" style="stop-color:#fff;stop-opacity:0"/>
        <stop offset=".917" style="stop-color:#fff;stop-opacity:.9171"/>
        <stop offset="1" style="stop-color:#fff"/>
      </radialGradient>
      <path fill="url(#ap)" d="M-98.6-111.5c.1-.4-.6-.8-.9-.8-.6 0-.7.7-.7 1.2 0 .6.3 2.4 1.3 1.8.3-.2.4-.6.4-.9 0-.2.1-.4.1-.6-.1-.3-.3-.4-.2-.7" opacity=".3" style="fill:url(#ap)"/>
      <path fill="#fff" d="M-99.6-111.9c-.4-.1-.5 1.5-.1 1.7.4.2.4-.7.4-.9 0-.4-.2-.6-.5-.7" opacity=".3"/>
      <path fill="#3fb5ba" d="M-99-109.3c-1 .6-1.3-1.2-1.3-1.8 0-.2.1-.4.1-.6-.2.3-.3.6-.3.9-.1.6.3 2.4 1.3 1.8.2-.1.3-.3.4-.5 0 .1-.1.2-.2.2z" opacity=".3"/>
      <radialGradient id="aq" cx="-2541.496" cy="489.438" r=".238" gradientTransform="matrix(11.2598 0 0 -8.9589 28503.16 4225.142)" gradientUnits="userSpaceOnUse">
        <stop offset="0" style="stop-color:#fff;stop-opacity:0"/>
        <stop offset=".917" style="stop-color:#fff;stop-opacity:.9171"/>
        <stop offset="1" style="stop-color:#fff"/>
      </radialGradient>
      <path fill="url(#aq)" d="M-115.5-159.3c-.5.2-1 .6-.9 1.2.1.6.8.9 1.2.4.3-.3.1-.6.3-.9.1-.1.6-.1.7-.2.4-.4.6-.9.4-1.5.8.1 2.2.8 2.9.1.7-.8-.9-1.2-1.5-1.4-.9-.2-1.9-.8-2.6-.1-.3.3-.5.5-.6.9-.1.4.3 1.1.2 1.3 0 .1-.1.1-.1.1" opacity=".3" style="fill:url(#aq)"/>
      <path fill="#fff" d="M-115.2-159.1c-.2.1-.7.4-.4.6.3 0 .5-.4.4-.6M-115.2-161v.2c.3.2.5-.4.7-.4.3-.1.8 0 1.1.1.4.1.7.2 1 .3.2 0 .4 0 .5.1.2 0 .3.1.5.1v-.1c-.6-.4-1.3-.4-1.9-.6-.5-.2-1.7-.4-1.8.4" opacity=".3"/>
      <g fill="#fbb316">
        <path d="M-110.99-160.241c-.7.8-2.1 0-2.9-.1v.4c.8.1 2.1.8 2.8 0 .2-.2.2-.4.2-.6 0 .2 0 .2-.1.3zM-115.39-159.441c.1-.2-.1-.6-.2-1v.1c0 .2.1.6.2.9zM-114.19-158.841c-.2.1-.6.1-.7.2-.2.3-.1.6-.3.9-.4.5-1.1.2-1.2-.3v.3c.1.6.8.9 1.2.4.3-.3.1-.6.3-.9.1-.1.6-.1.7-.2.4-.3.5-.8.5-1.2-.1.3-.3.6-.5.8z"/>
      </g>
      <radialGradient id="ar" cx="-2496.112" cy="506.818" r=".31" gradientTransform="matrix(3.7686 0 0 -4.9671 9294.663 2365.571)" gradientUnits="userSpaceOnUse">
        <stop offset="0" style="stop-color:#fff;stop-opacity:0"/>
        <stop offset=".917" style="stop-color:#fff;stop-opacity:.9171"/>
        <stop offset="1" style="stop-color:#fff"/>
      </radialGradient>
      <path fill="url(#ar)" d="M-111.9-153.1c-.6.4-1.2 1-1.3 1.8-.1.6.4.9.9.7.5-.2.9-.7 1-1.2.1-.4 0-1.2-.6-1.1" opacity=".3" style="fill:url(#ar)"/>
      <path fill="#fff" d="M-112-152.8c-.3.1-.8.8-.8 1 .3.1.9-.7.8-1" opacity=".3"/>
      <path fill="#fbb316" d="M-112.2-150.7c-.5.2-.9 0-.9-.5h-.1c0 .6.6 1 1.2.8.5-.2.7-.9.7-1.4-.1.5-.5.9-.9 1.1z" opacity=".3"/>
      <radialGradient id="as" cx="-2467.6" cy="505.886" r=".408" gradientTransform="matrix(2.7391 0 0 -5.2897 6639.116 2531.234)" gradientUnits="userSpaceOnUse">
        <stop offset="0" style="stop-color:#fff;stop-opacity:0"/>
        <stop offset=".917" style="stop-color:#fff;stop-opacity:.9171"/>
        <stop offset="1" style="stop-color:#fff"/>
      </radialGradient>
      <path fill="url(#as)" d="M-120.4-146.1c-.1.9-.2 1.8-.2 2.7.2-.1.5-.1.7-.1.2-.1.4-.2.5-.4.2-.4.3-1 .2-1.4-.3-.5-.7-.8-1.2-.8z" opacity=".3" style="fill:url(#as)"/>
      <path fill="#fff" d="M-120.3-145.8s-.1-.1 0 0c.2.3.2.6.7.6.1-.4-.4-.8-.8-.7" opacity=".3"/>
      <path fill="#fbb316" d="M-119.2-144.9c0 .4 0 .8-.2 1-.1.2-.3.4-.5.4-.2.1-.5.1-.7.1 0 .2 0 .4-.1.7.2-.1.4-.1.4-.1.4-.2.7-.5.9-.9.3-.3.4-.9.2-1.2z" opacity=".3"/>
      <radialGradient id="at" cx="-2511.555" cy="507.65" r=".271" gradientTransform="matrix(4.7548 0 0 -4.9511 11835.71 2365.169)" gradientUnits="userSpaceOnUse">
        <stop offset="0" style="stop-color:#fff;stop-opacity:0"/>
        <stop offset=".917" style="stop-color:#fff;stop-opacity:.9171"/>
        <stop offset="1" style="stop-color:#fff"/>
      </radialGradient>
      <path fill="url(#at)" d="M-105.4-149.5c-1.1-.3-3.1 2.3-1.3 2.5.6.1 1-.2 1.4-.7.3-.4.4-1 .3-1.4-.1-.1-.2-.4-.4-.4" opacity=".3" style="fill:url(#at)"/>
      <path fill="#fff" d="M-105.6-149.3c-.4 0-1.4.7-1.3 1.2.4 0 1.3-.9 1.3-1.2" opacity=".3"/>
      <path fill="#fbb316" d="M-105.3-147.7c-.4.5-.8.8-1.4.7-.4-.1-.7-.2-.7-.5-.1.4.1.8.7.8.6.1 1-.2 1.4-.7.2-.3.4-.8.3-1.1-.1.3-.2.6-.3.8z" opacity=".3"/>
      <radialGradient id="au" cx="-2487.713" cy="507.569" r=".343" gradientTransform="matrix(3.2032 0 0 -4.9754 7868.248 2377.624)" gradientUnits="userSpaceOnUse">
        <stop offset="0" style="stop-color:#fff;stop-opacity:0"/>
        <stop offset=".917" style="stop-color:#fff;stop-opacity:.9171"/>
        <stop offset="1" style="stop-color:#fff"/>
      </radialGradient>
      <path fill="url(#au)" d="M-100.2-149c-.6-.1-1 1.2-1 1.6-.1.6.3 1.1.9.8.5-.3.7-.8.7-1.3 0-.3-.2-1.2-.6-1.1 0 0 0 .1 0 0" opacity=".3" style="fill:url(#au)"/>
      <path fill="#fff" d="M-100.4-148.7c-.3.1-.6.8-.5 1.1.3.2.9-1.1.5-1.1" opacity=".3"/>
      <path fill="#fbb316" d="M-100.3-146.6c-.5.3-.8-.1-.9-.5v.1c-.1.6.3 1.1.9.8.5-.2.7-.8.7-1.3v-.2c-.1.4-.3.9-.7 1.1z" opacity=".3"/>
      <radialGradient id="av" cx="-2512.622" cy="512.922" r=".252" gradientTransform="matrix(5.0484 0 0 -4.5061 12568.333 2169.994)" gradientUnits="userSpaceOnUse">
        <stop offset="0" style="stop-color:#fff;stop-opacity:0"/>
        <stop offset=".917" style="stop-color:#fff;stop-opacity:.9171"/>
        <stop offset="1" style="stop-color:#fff"/>
      </radialGradient>
      <path fill="url(#av)" d="M-116.1-142.4c-.9-.1-2.1 1.2-1.3 1.9.6.5 2.1.6 2.3-.4.1-.5-.6-1.5-1-1.5" opacity=".3" style="fill:url(#av)"/>
      <path fill="#fff" d="M-117-141.9c-.2-.1-.4.1-.4.3.3.1.4-.1.6-.2.3-.1.5 0 .8-.1.1-.6-1.1-.3-1.3 0" opacity=".3"/>
      <path fill="#fbb316" d="M-117.4-140.5c-.2-.2-.3-.3-.3-.5-.1.3 0 .6.3.8.6.5 2.1.6 2.3-.4v-.3c-.3.9-1.8.8-2.3.4z" opacity=".3"/>
      <radialGradient id="aw" cx="-2471.009" cy="511.142" r=".377" gradientTransform="matrix(2.7125 0 0 -4.6908 6594.565 2255.991)" gradientUnits="userSpaceOnUse">
        <stop offset="0" style="stop-color:#fff;stop-opacity:0"/>
        <stop offset=".917" style="stop-color:#fff;stop-opacity:.9171"/>
        <stop offset="1" style="stop-color:#fff"/>
      </radialGradient>
      <path fill="url(#aw)" d="M-107.6-142.9c-.7 0-.9.7-1 1.3-.1.4-.3 1.1.4 1.1.6 0 1.2-2 .6-2.4" opacity=".3" style="fill:url(#aw)"/>
      <path fill="#fff" d="M-107.9-142.6c-.4.1-.6 1-.5 1.3.3.1.5-.4.5-.6 0-.2.3-.8 0-.7" opacity=".3"/>
      <path fill="#fbb316" d="M-108.3-140.5c-.3 0-.4-.2-.5-.4-.1.4 0 .7.5.7s1-1.2.9-1.9c0 .7-.4 1.6-.9 1.6z" opacity=".3"/>
      <radialGradient id="ax" cx="-2524.448" cy="506.523" r=".249" gradientTransform="matrix(6.0957 0 0 -5.2211 15289.724 2500.768)" gradientUnits="userSpaceOnUse">
        <stop offset="0" style="stop-color:#fff;stop-opacity:0"/>
        <stop offset=".917" style="stop-color:#fff;stop-opacity:.9171"/>
        <stop offset="1" style="stop-color:#fff"/>
      </radialGradient>
      <path fill="url(#ax)" d="M-97.9-145c-.8-.4-2.2.1-2.2 1.1s1.4 1.7 2.2 1.4c.5-.1.9-.7.9-1.3-.1-.5-.5-1-.9-1.2" opacity=".3" style="fill:url(#ax)"/>
      <path fill="#fff" d="M-97.7-144.5c-.4-.4-1.9-.5-2 .3-.2.6.7.2.9.1.3-.2.8-.1 1.1-.4" opacity=".3"/>
      <path fill="#fbb316" d="M-97.1-143.6c-.1.5-.5.8-.8 1-.8.3-2.1-.4-2.2-1.2v.2c0 1 1.4 1.7 2.2 1.4.5-.2.9-.8.8-1.4 0 .1 0 .1 0 0z" opacity=".3"/>
    </g>
    <g transform="translate(260.491 431.158)">
      <linearGradient id="ay" x1="-2711.975" x2="-2711.975" y1="377.656" y2="377.741" gradientTransform="matrix(13.3739 0 0 -16.6674 36143.344 6081.417)" gradientUnits="userSpaceOnUse">
        <stop offset="0" style="stop-color:#e3c091"/>
        <stop offset="1" style="stop-color:#7f5327"/>
      </linearGradient>
      <path fill="url(#ay)" d="M-126.3-214.8h-3.4v6.7c0 .5 1.5 1.7 3.4 1.7s3.4-.4 3.4-.9v-7.5z" style="fill:url(#ay)"/>
      <path fill="#cb9257" d="M-124-214.8v7.2c0 .5-1.5.9-3.4.9-.7 0-.8-.4-1.3-.5.6.2 1.1.8 2.3.8 1.9 0 3.4-.4 3.4-.9v-7.5z" opacity=".5"/>
      <g fill="#cb9257">
        <path d="M-129.302-208s.1 0 0 0l.1-6.8-.1-1.1zM-124.802-206.6l.1-8.3h-.1zM-126.802-206.5h.6v-8.4h-.6zM-123.902-206.8c.1-.1.2-.1.3-.1v-8h-.3zM-128.802-206.8l.1-8.1h-.1zM-127.902-206.8c.1 0 .2.1.3.1v-8.1h-.3v8.3zM-125.802-206.5l.1-8.4h-.1z"/>
      </g>
    </g>
    <g transform="translate(261.49 437.146)">
      <radialGradient id="az" cx="-2712.29" cy="381.454" r=".276" gradientTransform="matrix(9.1893 0 0 -9.7554 24796.414 3505.687)" gradientUnits="userSpaceOnUse">
        <stop offset="0" style="stop-color:#fff;stop-opacity:0"/>
        <stop offset=".917" style="stop-color:#fff;stop-opacity:.9171"/>
        <stop offset="1" style="stop-color:#fff"/>
      </radialGradient>
      <path fill="url(#az)" d="M-128.6-217.2s-.7-.7-1.2-.1c-.5.5 0 1.8 1.1 1.5 0 0 .3.3.3.7 0 .4-.4 1-.4 1.5s1.4 1.2 1.3-.1c0 0 1.1-1.4.5-2 0 0 .4-.6.8-.6s1.2-.5.8-1c-.4-.5-.8-1.1-1.9-.1-1.2.9-1.3.2-1.3.2z" opacity=".5" style="fill:url(#az)"/>
      <path fill="#fff" d="M-129.1-217.3c-.2 0-.4-.1-.5 0-.1.2.1.3.2.4.1.1.4.2.4 0 .1-.1 0-.3-.1-.4M-128.4-216.7c.3-.1.6-.2 1-.4v-.1c.2-.1.4-.1.5-.2.2-.1.3-.2.4-.3.3-.2.8.2.4.4-.4.1-.7.2-1 .4-.4.1-.8.2-1.1.2M-128-215.1c0 .2-.5.9-.2.9.2 0 .4-.7.2-.9" opacity=".7"/>
      <g fill="#cb9257">
        <path d="M-128.4-215.104v-.2c0-.4-.3-.7-.3-.7-.7.2-1.2-.3-1.3-.8-.1.6.4 1.4 1.3 1.2 0 .1.2.3.3.5zM-126.2-216.504c-.4 0-.8.6-.8.6.1.1.1.1.1.2.2-.1.4-.5.7-.5.3 0 1.1-.5.8-.9-.1.4-.6.6-.8.6zM-126.8-215.304c-.1.7-.7 1.4-.7 1.4.1 1.2-1.1.7-1.3.2v.3c0 .5 1.4 1.2 1.3-.1 0 0 .8-1.1.7-1.8z"/>
      </g>
    </g>
    <path fill="#fbb040" d="M130.8 220.7c.2.1.1.3.1 1.3 1.4 1 3.8 2 6.3 2.5.2.1.3-1 .4-.9 1 .7 2.1 1.5 3.1 2.5 0 0-8.7.8-12.9-5.5 0 0 1.2-.1 3.1.2z"/>
    <path fill="#ea6709" d="M128 220.6c6.8 4.8 6.1 3.8 12.7 5.3-1-1-2.2-1.9-3.2-2.6-.3.3-.1.9-.7.9-1.7-.3-5-1.9-5.9-2.4-.2-.2.1-1.1-.1-1.3-1.8-.3-2.9-.1-2.9-.1 0 .2.1.2.1.2z"/>
    <linearGradient id="aA" x1="-383.333" x2="-383.333" y1="799.201" y2="798.7" gradientTransform="matrix(92.1201 0 0 -23.2912 35408.289 18689.564)" gradientUnits="userSpaceOnUse">
      <stop offset="0" style="stop-color:#000;stop-opacity:3.000000e-02"/>
      <stop offset=".888" style="stop-color:#000;stop-opacity:.4475"/>
      <stop offset="1" style="stop-color:#000;stop-opacity:.5"/>
    </linearGradient>
    <path fill="url(#aA)" d="M117.5 77.6c-16.1 5.3-35.9 2.5-44.2.9-.5 2-.8 4.1-.8 6.3 0 .8.1 1.6.1 2.4 3.5.7 7.8 1.3 13.2 1.8 23.5 2 32.8-3.6 32.8-3.6s0-3.4-1.1-7.8z" style="fill:url(#aA)"/>
    <circle cx="88" cy="69.1" r="7.8" fill="#fff"/>
    <circle cx="95.5" cy="77.3" r="4.3" fill="#fff"/>
    <linearGradient id="aB" x1="-383.931" x2="-383.931" y1="799.33" y2="798.879" gradientTransform="matrix(89.5252 0 0 -22.4786 34528.93 18041.637)" gradientUnits="userSpaceOnUse">
      <stop offset="0" style="stop-color:#000;stop-opacity:0"/>
      <stop offset="1" style="stop-color:#000;stop-opacity:.4"/>
    </linearGradient>
    <path fill="url(#aB)" d="M167 87.6c5.3-.5 9.5-1.1 12.8-1.7.1-.8.1-1.5.1-2.3 0-2.4-.4-4.7-1-6.9-16.4 3.5-35.9 1.4-42.8.4-1 4.1-1 7.1-1 7.1s9.1 5.3 31.9 3.4z" style="fill:url(#aB)"/>
    <circle cx="164.6" cy="69.7" r="7.8" fill="#fff"/>
    <circle cx="157.1" cy="77.9" r="4.3" fill="#fff"/>
  </g>
</svg>
