<svg xmlns="http://www.w3.org/2000/svg" viewBox="0 0 511.987 68.96">
  <path fill="#1d1c39" d="m141.156 12.234.58.02c3.428.238 5.677 2.583 5.916 6.161l.021.644v43.047c0 4.213-2.497 6.829-6.521 6.829-3.077 0-6.357-1.634-6.648-6.16l-.021-.665v-1.038c-3.913 5.087-10.138 7.863-17.77 7.863-15.58 0-26.044-11.394-26.044-28.352 0-16.955 10.649-28.349 26.503-28.349 6.655 0 12.353 2.232 16.352 6.342l.651.702v-.219c0-3.953 2.935-6.825 6.98-6.825zm78.456 0c13.912-.003 21.114 8.333 21.42 24.776l.011 1.109V61.95c0 4.435-2.542 6.98-6.98 6.98-4.193 0-6.59-2.247-6.809-6.35l-.016-.63V38.12c0-9.975-3.06-14.236-10.238-14.236-7.36 0-11.068 4.353-11.307 13.294l-.012.942v23.835c0 4.435-2.542 6.98-6.977 6.98-4.192 0-6.59-2.248-6.808-6.35l-.017-.63V37.819c0-9.893-2.968-13.932-10.24-13.932-7.152 0-10.898 3.983-11.147 11.841l-.014.857v25.52c0 4.277-2.608 6.83-6.98 6.83-4.182 0-6.581-2.187-6.81-6.183l-.019-.646v-42.74c0-4.927 3.509-7.132 6.98-7.132 3.891 0 6.73 2.646 6.826 6.325 3.175-3.946 8.544-6.325 14.546-6.325 8.062 0 14.028 3.38 17.348 9.8 3.023-6.25 9.225-9.8 17.243-9.8zm104.75 0c3.367 0 5.905 2.735 5.905 6.366 0 1.084-.216 2.173-.678 3.38l-.307.74-15.514 40.09c-1.627 4.068-4.268 6.12-7.855 6.12-3.536 0-6.045-1.83-7.461-5.45l-10.535-29.515L277.34 62.8c-1.034 2.856-2.83 6.136-7.555 6.136-4.077 0-5.982-2.182-7.445-5.514l-.254-.6-15.68-39.979c-.679-1.697-.975-2.968-.975-4.242 0-3.983 3.005-6.366 5.906-6.366 2.845 0 5.253 1.922 6.548 5.175l.244.668 11.652 32.925 11.512-32.78c1.29-3.88 2.731-5.988 6.633-5.988 3.438 0 5.038 2.12 6.256 5.366l.224.622 11.512 32.78 11.656-32.936c1.216-3.646 3.754-5.832 6.788-5.832zm35.106.152c21.037 0 28.503 15.192 28.503 28.197 0 13.079-7.466 28.352-28.5 28.352-8.951 0-16.37-2.968-21.453-8.585-4.55-5.02-7.054-12.042-7.054-19.767 0-7.714 2.508-14.706 7.054-19.693 4.85-5.309 11.825-8.23 20.238-8.485l1.212-.019zM441.767 0a6.833 6.833 0 0 1 6.806 6.272l.022.56v28.234L466.64 16.42l.885-.947c1.64-1.717 3.41-3.24 5.759-3.24 3.542 0 6.213 2.672 6.213 6.21 0 2.524-1.67 4.392-3.559 6.296l-.476.477-14.91 15.51 16.281 16.292.89.922c1.302 1.414 2.386 2.987 2.386 4.94 0 3.282-2.776 6.054-6.058 6.054-2.562 0-4.353-1.664-6.039-3.406l-1.36-1.404-18.06-18.781v16.758a6.832 6.832 0 0 1-6.824 6.825 6.833 6.833 0 0 1-6.806-6.262l-.023-.56V6.826A6.836 6.836 0 0 1 441.767 0zM6.825.007c3.232 0 6.502 2.269 6.806 6.617l.023.668v6.632h8.955c3.624 0 6.058 2.371 6.058 5.906 0 3.556-2.032 5.672-5.604 5.885l-.61.017-8.8.004v25.455c0 4.85 2.02 5.472 3.78 5.472 1.276 0 2.207-.343 2.914-.656l.335-.152a3.757 3.757 0 0 1 1.708-.43c2.827 0 4.791 3.28 4.791 6.222 0 1.585-.615 3.623-2.345 4.586l-.95.531c-2.163 1.14-5.066 2.167-9.68 2.167C4.672 68.93.263 64.313.01 53.99L0 53.036V7.292C0 2.508 3.435.004 6.825.007zm414.493 12.227c4.71 0 7.751 2.498 7.751 6.366 0 3.624-2.186 6.058-5.443 6.058a7.302 7.302 0 0 1-1.593-.177l-.467-.105c-.708-.166-1.441-.333-2.705-.333-7.7 0-11.112 4.963-11.306 16.543l-.01 1.071v20.449c0 4.483-3.434 6.829-6.824 6.829-3.225 0-6.486-2.117-6.804-6.173l-.025-.656V19.059c0-3.823 3.001-6.825 6.829-6.825a6.837 6.837 0 0 1 6.802 6.277 18.087 18.087 0 0 1 13.795-6.277zm-360.468-.34c10.7 0 19.726 6.54 23.557 17.062.98 2.695.42 6.146-3.932 8.02l-.647.257L48.44 48.656c2.546 5.32 7.503 8.474 13.402 8.474a20.734 20.734 0 0 0 7.073-1.334 25.347 25.347 0 0 0 7.437-4.129l1.13-.958a6.225 6.225 0 0 1 3.868-1.43c2.582 0 4.916 1.863 5.435 4.338.313 1.476-.048 2.984-1.016 4.302l-.422.519-.037.03c-3.794 3.308-8.577 6.069-13.827 7.977a42.724 42.724 0 0 1-6.017 1.697c-2.246.474-4.534.72-6.83.73-11.593 0-20.696-6.744-24.976-18.504-2.641-7.262-2.704-14.791-.17-21.194 2.801-7.062 8.53-12.345 16.577-15.272 3.664-1.334 7.292-2.008 10.782-2.008zm298.618 11.534c-8.93 0-14.699 6.732-14.699 17.155 0 10.77 5.632 17.462 14.699 17.462 8.929 0 14.698-6.854 14.698-17.462 0-10.423-5.769-17.155-14.698-17.155zm-239.991 1.078c-8.789 0-14.695 6.521-14.695 16.229 0 9.53 5.843 15.928 14.543 15.928 10.152 0 14.698-8.077 14.698-16.08 0-11.108-7.306-16.077-14.546-16.077zm-60.343-1.571c-1.328 0-2.693.204-4.07.608l-1.035.34c-7.992 2.909-9.76 9.651-8.825 15.062l.11.574 25.44-9.259c-1.968-3.657-5.94-7.325-11.62-7.325z"/>
  <path fill="#ff22b1" d="M500.008 45.01c-6.61.009-11.967 5.365-11.975 11.975.008 6.61 5.365 11.967 11.975 11.975 6.612-.006 11.97-5.363 11.979-11.975-.008-6.611-5.367-11.969-11.979-11.975"/>
</svg>
