<svg xmlns="http://www.w3.org/2000/svg" viewBox="0 0 256 256.001">
  <path fill="#fff" d="M128 0c70.776 0 128 57.224 128 128 0 70.776-57.224 128-128 128-70.776.215-128-57.224-128-128C0 57.224 57.224 0 128 0z"/>
  <path fill="#1d1c39" d="M126.279 112.08c7.1 0 11.187-3.872 11.187-10.54.215-5.594-4.088-10.327-9.681-10.542h-17.21V79.166c.43-6.669-4.733-12.692-11.617-12.907-6.669-.43-12.692 4.733-12.908 11.617v83.684c0 19.791 7.96 28.611 25.6 28.611 6.67.216 13.338-1.505 19.147-4.732 2.796-1.721 4.517-4.948 4.302-8.175 0-5.378-3.657-11.187-8.605-11.187-.645 0-1.506.215-2.151.43l-.86.43c-1.722.861-3.873 1.507-5.81 1.507-3.226 0-6.883-1.076-6.883-9.896V112.08z"/>
  <path fill="#ff22b1" d="M178.985 146.716c-11.832 0-21.513 9.68-21.513 21.513 0 11.831 9.68 21.512 21.513 21.512 11.832 0 21.512-9.68 21.512-21.512s-9.68-21.513-21.512-21.513"/>
</svg>
