<svg xmlns="http://www.w3.org/2000/svg" viewBox="0 0 255.022 273.439">
  <path fill="#e55b2d" d="M145.726 42.065v42.07l72.861 42.07v-42.07zM0 84.135v42.07l36.43 21.03V105.17zm109.291 21.035-36.43 21.034v126.2l36.43 21.035v-84.135l36.435 21.035v-42.07l-36.435-21.034z"/>
  <path fill="#ed8e24" d="M145.726 42.065 36.43 105.17v42.065l72.861-42.065v42.065l36.435-21.03zM255.022 63.1l-36.435 21.035v42.07l36.435-21.035zm-72.865 84.135-36.43 21.035v42.07l36.43-21.036zm-36.43 63.104-36.436-21.035v84.135l36.435-21.035z"/>
  <path fill="#f8bf3c" d="M145.726 0 0 84.135l36.43 21.035 109.296-63.105 72.861 42.07L255.022 63.1zm0 126.204-36.435 21.03 36.435 21.036 36.43-21.035z"/>
</svg>
