<svg xmlns="http://www.w3.org/2000/svg" viewBox="0 0 511.998 122.865">
  <path d="M207.785 45.398c15.276 0 18.696 8.908 18.696 19.188v10.239H199.86v2.457c.102 5.693 2.15 7.945 9.399 7.945a49.938 49.938 0 0 0 14.58-2.252l1.863 9.01a51.155 51.155 0 0 1-17.528 3.03c-14.97 0-20.17-6.942-20.17-18.43V63.993c0-10.075 4.504-18.594 19.78-18.594zm100.38-.02c14.97 0 19.392 5.283 19.392 17.222l-.04 31.432h-9.789l-.88-3.235a26.06 26.06 0 0 1-14.191 4.218c-8.703 0-12.43-5.98-12.43-14.19 0-9.686 4.218-13.413 13.904-13.413h11.447v-4.997c0-5.283-1.475-7.146-9.113-7.146-4.443.049-8.866.544-13.208 1.474l-1.474-9.112a62.378 62.378 0 0 1 16.382-2.253zm79.35 0c16.341 0 20.744 9.01 20.744 18.798v12.041c.02 9.788-4.403 18.798-20.744 18.798-16.382 0-20.743-9.01-20.743-18.798v-12.04c0-9.789 4.402-18.799 20.743-18.799zM198.017 28.832v10.874h-18.225v54.326h-12.286l-.041-54.326H149.26V28.832zm157.205-3.911c3.46-.012 6.905.45 10.239 1.372l-1.25 9.194a34.955 34.955 0 0 0-6.86-.778c-4.688 0-5.385 2.048-5.385 5.673v5.979h12.143l-.675 9.501h-11.447v38.17h-11.939v-38.17h-7.638v-9.501h7.638v-6.655c0-9.89 4.608-14.785 15.174-14.785zM482.04 50.477a46.807 46.807 0 0 1 19.187-5.099c7.925 0 10.772 5.57 10.772 14.089v34.565h-11.939V60.757c0-2.54-1.085-3.81-3.809-3.81a31.617 31.617 0 0 0-12.43 4.096v32.99H471.8V60.756c0-2.54-1.085-3.81-3.808-3.81-4.377.52-8.601 1.913-12.43 4.096v32.99h-11.939V46.36h9.113l1.167 4.095a47.733 47.733 0 0 1 19.126-5.078 9.049 9.049 0 0 1 9.01 5.099zm-224.863-5.099 1.229 10.976a93.808 93.808 0 0 0-12.676 6.942v30.716h-11.938V46.361h10.075l.778 5.283a53.479 53.479 0 0 1 12.532-6.266zm29.201 0 1.188 10.976a93.69 93.69 0 0 0-12.635 6.942v30.716h-11.938V46.361h10.075l.778 5.283a53.479 53.479 0 0 1 12.532-6.266zm151.43 0 1.188 10.976a93.69 93.69 0 0 0-12.634 6.942v30.716h-11.938V46.361h10.074l.779 5.283a53.438 53.438 0 0 1 12.532-6.266zm-122.23 30.634h-8.804c-3.912 0-4.997 1.086-4.997 4.69s1.085 4.791 4.792 4.791a18.802 18.802 0 0 0 9.01-2.457zm71.938-20.457c-6.368 0-8.805 2.847-8.805 8.191v12.82c0 5.385 2.457 8.19 8.805 8.19s8.805-2.846 8.805-8.19V63.786c0-5.385-2.436-8.232-8.805-8.232zm-179.628-.389c-5.877 0-7.925 3.133-7.925 7.638v2.417h15.174v-2.417c0-4.505-1.372-7.638-7.249-7.638z"/>
  <path fill="#4040b2" d="M108.12 21.645 74.539 41.057v38.764L108.12 60.45z"/>
  <path fill="#5c4ee5" d="m37.269 21.645 33.583 19.412v38.764L37.269 60.43M0 38.784l33.583 19.392V19.392L0 0m37.269 103.473 33.583 19.392V84.08L37.269 64.688"/>
</svg>
