<svg xmlns="http://www.w3.org/2000/svg" viewBox="0 0 256 257.247">
  <path fill="#ccae8f" d="M237.132 192.477c1.639-67.31-3.433-133.74-3.433-138.719 9.656-9.68 38.756-29.044 9.79-48.41-28.965-19.363-38.891 19.363-38.891 29.045-18.365-7.778-57.666-9.145-76.605-9.145-18.94 0-57.164 1.527-76.771 9.145 0-9.682-9.707-48.41-38.673-29.045-28.966 19.366-.026 38.73 9.629 48.41 0 4.972-5.062 71.162-3.464 138.347 2.01 9.755 1.572 66.814 110.565 65.104 116.592.477 107.818-63.784 107.853-64.732"/>
  <path fill="#af9079" d="M44.784 36.546s-5.287-14.332-15.837-7.884-.09 18.798-.09 18.798c1.632-2.17 12.014-9.3 15.927-10.914M210.91 36.546s5.288-14.332 15.838-7.884c10.55 6.448.09 18.798.09 18.798-1.63-2.17-12.011-9.3-15.927-10.914"/>
  <path fill="#4c5b68" d="M70.865 156.523c7.566-.733 13.113-6.202 12.39-12.215-.723-6.013-7.442-10.294-15.008-9.56-7.566.732-13.114 6.201-12.391 12.214.723 6.013 7.443 10.294 15.009 9.561"/>
  <path fill="#e8e7df" d="M70.388 144.096c1.274.862 2.977.716 3.804-.326.828-1.042.466-2.586-.808-3.448-1.274-.863-2.978-.717-3.805.325-.827 1.043-.465 2.587.809 3.45"/>
  <path fill="#4c5b68" d="M188.897 135.497c-7.566-.715-14.286 3.46-15.01 9.321-.722 5.863 4.825 11.195 12.39 11.91 7.567.715 14.287-3.459 15.01-9.322.723-5.862-4.825-11.194-12.39-11.909"/>
  <path fill="#e8e7df" d="M188.878 144.61c1.303.84 3.046.698 3.893-.318.846-1.017.476-2.522-.828-3.363-1.304-.84-3.046-.698-3.893.318-.847 1.017-.476 2.522.828 3.362"/>
  <path fill="#af9079" d="M184.142 214.263c-25.45 8.874-41.574-6.283-55.777-26.545-14.206 20.262-30.327 35.42-55.777 26.545-3.694-1.288-3.021 1.91 0 3.706 20.004 11.892 37.203 10.908 55.777 7.107 18.576 3.801 35.773 4.783 55.777-7.107 3.02-1.797 3.694-4.994 0-3.706"/>
  <path fill="#e8e7df" d="M109.042 208.44c.022 18.925.633 40.745 19.31 40.745l.01-62.085c-4.88 7.422-11.457 14.458-19.32 21.34"/>
  <path fill="#fff" d="M147.685 208.44c-.022 18.925-.632 40.745-19.311 40.745l-.01-62.085c4.88 7.422 11.458 14.458 19.32 21.34"/>
  <path fill="#af9079" d="M79.234 71.813a271.85 271.85 0 0 0 13.152 34.305c2.806 6.15 6.073 12.397 9.662 18.725 3.609 6.308 7.679 12.65 12.317 18.681 2.33 2.99 4.825 5.914 7.496 8.48 1.338 1.261 2.739 2.431 4.086 3.296 1.12.864 2.544 1.125 2.544 1.125-.017-.005 1.168-.258 1.803-.622.646-.37 1.007-.878 1.703-1.422a41.597 41.597 0 0 0 4.247-3.833c2.725-2.829 5.32-6.059 7.783-9.406 4.94-6.706 9.485-14.022 13.668-21.63a287.668 287.668 0 0 0 11.642-23.653c6.956-16.288 12.733-33.474 15.705-50.86.91-5.358 1.54-10.682 1.79-15.969-19.534-3.687-44.84-3.749-58.841-3.749-13.574 0-37.86.055-57.167 3.416.2 3.903.738 9.283 1.865 15.977 1.236 7.547 3.384 16.722 6.545 27.14"/>
  <path fill="#efd8c2" d="M194.197 30.68a104.436 104.436 0 0 0-7.361-1.65c-.248 5.287-.88 10.61-1.79 15.967-2.971 17.383-8.748 34.567-15.704 50.855a286.572 286.572 0 0 1-11.642 23.645c-4.184 7.61-8.727 14.906-13.668 21.612-2.463 3.35-5.058 6.544-7.783 9.373-1.361 1.407-2.763 2.726-4.162 3.815a17.72 17.72 0 0 1-2.04 1.39c-.633.364-1.246.604-1.538.66a.475.475 0 0 1-.128.02c.064-.009.235 1.11-.023 1.106l.007 1.093h-.01l-.191-1.105c0-.005.03-.557.044-.554.017 0 .034-.27.05-.266l-.045-.148c-.035-.005-.071-.078-.12-.095-.088-.019-.204-.09-.32-.128-.497-.174-1.155-.53-1.821-.953-1.35-.866-2.751-2.045-4.086-3.307-2.671-2.565-5.167-5.49-7.496-8.484-4.64-6.03-8.711-12.372-12.317-18.683-3.59-6.326-6.857-12.575-9.662-18.725a271.866 271.866 0 0 1-13.153-34.305c-3.16-10.419-5.308-19.592-6.541-27.139C71.57 37.98 71.032 32.6 70.83 28.697a112.093 112.093 0 0 0-8.332 1.762c-3.002.763-5.784 1.638-8.27 2.641a142.827 142.827 0 0 0 2.666 14.802c1.94 8.201 4.858 17.916 9.123 28.605 4.233 10.7 9.72 22.392 16.488 34.675 3.42 6.118 7.06 12.446 11.177 18.795 4.115 6.35 8.517 12.827 13.636 19.173 2.564 3.18 5.282 6.331 8.47 9.335 1.602 1.507 3.31 2.983 5.395 4.336 1.06.668 2.209 1.317 3.648 1.835a12.77 12.77 0 0 0 1.786.483l.333.06.434.051.428.036.192.01.384.01.374-.01a9.368 9.368 0 0 0 1.394-.16c1.74-.335 3.042-.95 4.222-1.583a26.74 26.74 0 0 0 3.153-2.07c1.916-1.455 3.59-3.01 5.186-4.612 3.17-3.209 5.99-6.622 8.715-10.12 10.702-14.107 19.867-29.705 27.884-46.273 4.046-8.263 7.763-16.787 11.045-25.568 3.253-8.786 6.177-17.795 8.339-27.118 1.082-4.659 1.986-9.39 2.632-14.207.026-.188.045-.376.069-.564-2.195-.877-4.614-1.652-7.205-2.34"/>
  <path fill="#4c5b68" d="M118.71 161.42c0-10.772 19.31-10.772 19.31 0 0 6.352-3.487 15.271-9.667 24.623-6.156-9.352-9.643-18.28-9.643-24.624"/>
  <path fill="#ededed" d="M128.204 23.962C-4.184 23.962.536 79.143.536 127.105c0 27.88 1.106 43.718 15.563 61.68.767.952 1.939 1.178 4.08 1.08 0 0 6.412-.08 6.108-8.886l2.145-38.948c0-10.005 10.755-25.657 25.775-25.657H202.26c15.02 0 25.72 15.652 25.72 25.657l2.146 38.168c0 13.283 8.007 7.153 8.007 7.153 16.75-19.192 17.744-31.085 17.744-60.442 0-50.607-3.61-102.948-127.674-102.948"/>
  <path fill="#fff" d="M234.51 74.282c1.515-9.275-1.955-24.105-1.955-24.105-17.88-15.898-45.04-26.126-104.351-26.217-27.665-.043-49.567 2.193-67.153 6.876 0 0-7.411 12.625-7.821 24.826 18.085-6.4 42.367-10.159 74.974-10.159 57.295 0 88.889 11.598 106.306 28.78z"/>
  <path fill="#e53838" d="M99.895 116.477h59.19V25.044c-14.205-.707-19.518-1.082-29.595-1.082-10.077 0-20.125.375-29.595 1.082v91.433"/>
  <path fill="#ff4040" d="M122.229 24.01c-1.035.014-2.06.035-3.076.056l-1.57.036a392.73 392.73 0 0 0-3.9.124c-.686.026-1.361.06-2.04.088a283.99 283.99 0 0 0-4.321.214c-.448.026-1.101.054-1.55.08-1.921.12-3.512.248-5.88.397v21.54c9.47-.686 19.524-1.044 29.596-1.044 10.079 0 15.39.366 29.595 1.05V25.008c-4.735-.152-5.317-.285-7.28-.404-.436-.026-1.617-.053-2.058-.079-.797-.045-1.974-.088-2.786-.128-.628-.03-1.452-.06-2.086-.086-.898-.04-1.894-.076-2.808-.109a332.474 332.474 0 0 0-3.258-.102c-.538-.014-1.106-.026-1.65-.038a360.934 360.934 0 0 0-4.456-.074 391.447 391.447 0 0 0-4.5-.028c-1.535 0-3.046.011-4.542.028l-1.43.021"/>
  <path fill="#979797" d="m34.138 168.802.003-.053v-.085l-.003.138M224.088 168.303c0 .037.003.072.003.11v.014l-.003-.124"/>
  <path fill="#4c5a68" d="M22.669 194.987c-1.985 0-4.841-2.265-6.23-5.31 0 0 4.796 1.401 7.427-1.416 1.126-1.206 2.309-3.987 2.404-6.652.036-1 .003-2.063.08-2.965l2.122-38.159c.924-12.73 13.348-24.772 27.61-24.405l143.959-.04h.007c13.87 0 26.733 10.477 27.778 23.896l2.244 36.624c.063.905.053 1.835.08 2.885.068 2.64 0 7.293 2.284 8.595 2.284 1.303 3.687.662 6.29-1.382 0 0 1.364 9.296-9.283 5.711-5.376-3.342-5.132-7.65-5.264-12.795a63.633 63.633 0 0 0-.104-2.693l-2.3-36.49c-.81-10.41-10.85-18.58-21.725-18.58h-.006l-144.032.04-.038-.002A20.824 20.824 0 0 0 34.61 141.25l-3.202 37.76a56.02 56.02 0 0 0-.13 2.566c-.154 4.337-.348 9.735-4.315 12.244-1.23.778-2.654 1.167-4.294 1.167"/>
</svg>
