<svg xmlns="http://www.w3.org/2000/svg" viewBox="0 0 255.595 277.987">
  <path fill="#a3b5be" d="M251.873 222.522c-2.311-2.3-13.762-8.567-13.762-8.567s-18.077-168.2-21.385-173.649C213.412 34.87 177.71 0 125.453 0 82.493-.006 41.338 31.32 38.25 40.306c-3.196 9.334-21.404 173.625-21.404 173.625s-11.468 5.707-13.248 8.59c-1.77 2.884-5 15.437-2.925 23.444 2.076 8.007 66.456 32.022 126.986 32.022 57.346 0 123.36-25.265 127.08-32.022 2.324-4.228-.571-21.126-2.865-23.443"/>
  <path fill="#b5c4cb" d="M166.59 163.584c-3.354 0-6.114-2.748-6.114-6.12 0-3.391 2.76-6.127 6.115-6.127 3.384 0 6.143 2.736 6.143 6.126 0 3.373-2.759 6.12-6.143 6.12m0-29.339c-3.355 0-6.115-2.742-6.115-6.144 0-3.372 2.76-6.12 6.115-6.12 3.384 0 6.143 2.748 6.143 6.12a6.144 6.144 0 0 1-6.143 6.144m3.16-42.352c-5.63 0-10.236-4.581-10.236-10.26 0-5.648 4.605-10.235 10.236-10.235 5.672 0 10.277 4.581 10.277 10.236 0 5.678-4.605 10.259-10.277 10.259M125.447 0l-.607 61.244c5.059.619 8.997 4.94 8.997 10.159 0 5.318-4.038 9.664-9.198 10.194l-.206 20.926c5.265.442 9.404 4.858 9.404 10.218 0 5.436-4.257 9.882-9.604 10.212l-.26 26.073c5.478.206 9.864 4.705 9.864 10.23 0 5.583-4.498 10.135-10.064 10.241l-.183 18.762s-53.366 2.093-106.75 25.672c0 0-11.468 5.707-13.25 8.59-1.768 2.884-4.787 16.056-2.924 23.444.012.041.024.07.036.106 2.447 7.506 67.6 31.916 126.95 31.916 57.347 0 123.36-25.265 127.08-32.022 1.44-4.587.248-15.153-1.45-20.501-.46-1.398-.931-2.435-1.391-2.913v-.006c-.006 0-.006-.012-.006-.012-.006 0-.006-.006-.012-.011-2.311-2.3-13.762-8.568-13.762-8.568s-18.077-168.2-21.385-173.648C213.412 34.87 177.71 0 125.447 0"/>
  <path fill="#fff" d="M160.476 128.103v.003c0 3.402 2.76 6.144 6.115 6.144a6.147 6.147 0 0 0 6.143-6.144v-.006c0-3.366-2.759-6.12-6.143-6.12-3.355 0-6.115 2.748-6.115 6.12v.003zM87.653 81.644c0 5.678-4.611 10.254-10.266 10.254-5.648 0-10.253-4.576-10.253-10.254 0-5.654 4.605-10.235 10.253-10.235 5.655 0 10.266 4.58 10.266 10.235zm46.19-10.241c0 5.678-4.605 10.247-10.265 10.247-5.63 0-10.242-4.57-10.242-10.247 0-5.649 4.611-10.236 10.242-10.236 5.655 0 10.265 4.581 10.265 10.236zm0 41.338c0 5.654-4.605 10.236-10.265 10.236-5.63 0-10.242-4.582-10.242-10.236 0-5.649 4.611-10.254 10.242-10.254 5.655 0 10.265 4.605 10.265 10.254zm0 46.52c0 5.655-4.605 10.242-10.265 10.242-5.63 0-10.242-4.587-10.242-10.241 0-5.667 4.611-10.248 10.242-10.248 5.655-.006 10.265 4.581 10.265 10.248zm46.185-77.623c0 5.673-4.605 10.26-10.277 10.26-5.63 0-10.236-4.582-10.236-10.26 0-5.648 4.605-10.235 10.236-10.235 5.672 0 10.277 4.581 10.277 10.235zm-7.294 75.825c0 3.373-2.759 6.12-6.143 6.12-3.355 0-6.115-2.747-6.115-6.12 0-3.39 2.76-6.126 6.115-6.126 3.384 0 6.143 2.736 6.143 6.126zm-90.246-29.357c0 3.396-2.73 6.144-6.12 6.144a6.14 6.14 0 0 1-6.144-6.144c0-3.372 2.759-6.12 6.143-6.12a6.122 6.122 0 0 1 6.12 6.12zm-6.132 35.49a6.132 6.132 0 1 0 0-12.265 6.132 6.132 0 0 0 0 12.264z"/>
  <path fill="#647882" d="M224.745 238.4s-40.094 21.232-97.093 21.232c-53.625 0-96.974-21.232-96.974-21.232s42.641-24.457 96.974-24.457c56.592-.006 97.093 24.457 97.093 24.457z"/>
</svg>
