<svg xmlns="http://www.w3.org/2000/svg" viewBox="0 0 453.108 512.001">
  <g stroke-width="1.757">
    <path fill="#ff004f" d="M335.808 184.82c33.059 23.62 73.558 37.517 117.3 37.517V138.21a118.78 118.78 0 0 1-24.634-2.576v66.22c-43.737 0-84.231-13.897-117.3-37.515v171.68c0 85.883-69.657 155.5-155.58 155.5-32.059 0-61.857-9.687-86.61-26.3C97.236 494.09 136.634 512 180.224 512c85.927 0 155.59-69.617 155.59-155.5v-171.68zm30.388-84.874c-16.895-18.448-27.988-42.289-30.388-68.647V20.48h-23.344c5.876 33.5 25.918 62.12 53.732 79.466zm-242.87 299.37a70.817 70.817 0 0 1-14.518-43.063c0-39.279 31.861-71.128 71.168-71.128a71.342 71.342 0 0 1 21.588 3.333v-86.007a156.992 156.992 0 0 0-24.623-1.418v66.944a71.275 71.275 0 0 0-21.599-3.331c-39.308 0-71.167 31.845-71.167 71.13 0 27.777 15.925 51.826 39.149 63.54z"/>
    <path d="M311.168 164.34c33.068 23.618 73.562 37.515 117.3 37.515v-66.22c-24.414-5.198-46.027-17.949-62.277-35.686-27.816-17.348-47.856-45.969-53.732-79.467h-61.318v336.01c-.139 39.172-31.945 70.891-71.168 70.891-23.114 0-43.648-11.012-56.652-28.07-23.223-11.716-39.148-35.766-39.148-63.54 0-39.28 31.859-71.13 71.167-71.13 7.531 0 14.79 1.172 21.599 3.332V201.03c-84.412 1.743-152.3 70.68-152.3 155.46 0 42.323 16.906 80.69 44.344 108.72 24.753 16.612 54.551 26.3 86.61 26.3 85.923 0 155.58-69.62 155.58-155.5v-171.68z"/>
    <path fill="#00f2ea" d="M428.468 135.63v-17.905a117.325 117.325 0 0 1-62.277-17.782 117.655 117.655 0 0 0 62.277 35.688zM312.458 20.48c-.56-3.201-.991-6.424-1.29-9.659V0h-84.663v336.02c-.135 39.167-31.94 70.885-71.167 70.885-11.516 0-22.39-2.732-32.019-7.587 13.005 17.057 33.54 28.067 56.652 28.067 39.22 0 71.031-31.715 71.168-70.887V20.478zm-135.52 180.55v-19.062a157.154 157.154 0 0 0-21.348-1.448C69.66 180.518 0 250.138 0 336.01c0 53.84 27.376 101.29 68.977 129.2-27.438-28.032-44.344-66.4-44.344-108.72 0-84.78 67.886-153.72 152.3-155.46z"/>
  </g>
</svg>
