<svg xmlns="http://www.w3.org/2000/svg" viewBox="0 0 1000 291.38">
  <path fill="#ff004f" d="M191.102 105.182c18.814 13.442 41.862 21.351 66.755 21.351V78.656c-4.711.001-9.41-.49-14.019-1.466v37.686c-24.891 0-47.936-7.909-66.755-21.35v97.703c0 48.876-39.642 88.495-88.54 88.495-18.245 0-35.203-5.513-49.29-14.968 16.078 16.431 38.5 26.624 63.306 26.624 48.901 0 88.545-39.619 88.545-88.497v-97.701zm17.294-48.302c-9.615-10.499-15.928-24.067-17.294-39.067v-6.158h-13.285c3.344 19.065 14.75 35.353 30.579 45.225zM70.181 227.25a40.3 40.3 0 0 1-8.262-24.507c0-22.354 18.132-40.479 40.502-40.479a40.607 40.607 0 0 1 12.286 1.897v-48.947a89.349 89.349 0 0 0-14.013-.807v38.098a40.56 40.56 0 0 0-12.292-1.896c-22.37 0-40.501 18.123-40.501 40.48 0 15.808 9.063 29.494 22.28 36.161z"/>
  <path d="M177.083 93.525c18.819 13.441 41.864 21.35 66.755 21.35V77.189c-13.894-2.958-26.194-10.215-35.442-20.309-15.83-9.873-27.235-26.161-30.579-45.225h-34.896v191.226c-.079 22.293-18.18 40.344-40.502 40.344-13.154 0-24.84-6.267-32.241-15.975-13.216-6.667-22.279-20.354-22.279-36.16 0-22.355 18.131-40.48 40.501-40.48 4.286 0 8.417.667 12.292 1.896v-38.098c-48.039.992-86.674 40.224-86.674 88.474 0 24.086 9.621 45.921 25.236 61.875 14.087 9.454 31.045 14.968 49.29 14.968 48.899 0 88.54-39.621 88.54-88.496V93.525z"/>
  <path fill="#00f2ea" d="M243.838 77.189v-10.19a66.768 66.768 0 0 1-35.442-10.12 66.953 66.953 0 0 0 35.442 20.31zm-66.021-65.534a68.282 68.282 0 0 1-.734-5.497V0h-48.182v191.228c-.077 22.29-18.177 40.341-40.501 40.341a40.352 40.352 0 0 1-18.222-4.318c7.401 9.707 19.087 15.973 32.241 15.973 22.32 0 40.424-18.049 40.502-40.342V11.655zm-77.123 102.753V103.56a89.432 89.432 0 0 0-12.149-.824C39.642 102.735 0 142.356 0 191.228c0 30.64 15.58 57.643 39.255 73.527-15.615-15.953-25.236-37.789-25.236-61.874 0-48.249 38.634-87.481 86.675-88.473z"/>
  <path fill="#ff004f" d="M802.126 239.659c34.989 0 63.354-28.136 63.354-62.84 0-34.703-28.365-62.844-63.354-62.844h-9.545c34.99 0 63.355 28.14 63.355 62.844s-28.365 62.84-63.355 62.84z"/>
  <path fill="#00f2ea" d="M791.716 113.975h-9.544c-34.988 0-63.358 28.14-63.358 62.844s28.37 62.84 63.358 62.84h9.544c-34.993 0-63.358-28.136-63.358-62.84-.001-34.703 28.365-62.844 63.358-62.844z"/>
  <path d="M310.062 85.572v31.853h37.311v121.374h37.326V118.285h30.372l10.414-32.712H310.062zm305.482 0v31.853h37.311v121.374h37.326V118.285h30.371l10.413-32.712H615.544zm-183.11 18.076c0-9.981 8.146-18.076 18.21-18.076 10.073 0 18.228 8.095 18.228 18.076 0 9.982-8.15 18.077-18.228 18.077-10.064-.005-18.21-8.095-18.21-18.077zm0 30.993h36.438v104.158h-36.438zm52.062-49.069v153.226h36.452v-39.594l11.283-10.339 35.577 50.793h39.05l-51.207-74.03 45.997-44.768H557.39l-36.442 36.153V85.572zm393.127 0v153.226h36.457v-39.594l11.278-10.339 35.587 50.793H1000l-51.207-74.03 45.995-44.768h-44.256l-36.452 36.153V85.572zM792.578 239.659c34.988 0 63.358-28.136 63.358-62.84 0-34.703-28.37-62.844-63.358-62.844h-.865c-34.99 0-63.355 28.14-63.355 62.844s28.365 62.84 63.355 62.84zm-31.242-62.84c0-16.881 13.8-30.555 30.817-30.555 17.005 0 30.804 13.674 30.804 30.555s-13.799 30.563-30.804 30.563c-17.017-.003-30.817-13.682-30.817-30.563z"/>
</svg>
