<svg xmlns="http://www.w3.org/2000/svg" viewBox="0 0 508 506.961">
  <defs>
    <linearGradient id="b" x1="188.972" x2="45.739" y1="5.433" y2="253.74" gradientTransform="scale(1.00102 .99898)" gradientUnits="userSpaceOnUse">
      <stop offset="0%" stop-color="#F8F8F8"/>
      <stop offset="100%" stop-color="#DDDAD9"/>
    </linearGradient>
    <filter id="a" width="2" height="2" x="-.5" y="-.5" filterUnits="objectBoundingBox">
      <feOffset dx="1" dy="2" in="SourceAlpha" result="shadowOffsetOuter1"/>
      <feGaussianBlur in="shadowOffsetOuter1" result="shadowBlurOuter1" stdDeviation=".5"/>
      <feColorMatrix in="shadowBlurOuter1" result="shadowMatrixOuter1" values="0 0 0 0 0 0 0 0 0 0 0 0 0 0 0 0 0 0 0.35 0"/>
      <feMerge>
        <feMergeNode in="shadowMatrixOuter1"/>
        <feMergeNode in="SourceGraphic"/>
      </feMerge>
    </filter>
  </defs>
  <g filter="url(#a)" transform="translate(127 126.74)">
    <path fill="url(#b)" d="M20.065 154.368 3.209 125.174a23.959 23.959 0 0 1 0-23.958L54.731 11.98A23.956 23.956 0 0 1 75.479 0H178.52c8.56 0 16.469 4.566 20.748 11.979l51.522 89.237a23.959 23.959 0 0 1 0 23.958l-51.522 89.238a23.957 23.957 0 0 1-20.748 11.978h-38.09l-11.355 19.669a14.842 14.842 0 0 1-12.854 7.422H52.385a14.84 14.84 0 0 1-12.852-7.422l-31.92-55.284a14.841 14.841 0 0 1 0-14.841zm142.905 28.39a14.842 14.842 0 0 0 8.802-6.858l31.918-55.284a14.841 14.841 0 0 0 0-14.842l-31.918-55.283a14.84 14.84 0 0 0-12.853-7.422H95.08a14.84 14.84 0 0 0-12.853 7.422L50.31 105.774a14.834 14.834 0 0 0-1.977 8.018 14.83 14.83 0 0 1 4.052-.563h63.837a14.843 14.843 0 0 1 12.854 7.42l31.917 55.285a14.83 14.83 0 0 1 1.977 6.824z" style="fill:url(#b)"/>
  </g>
</svg>
