<svg xmlns="http://www.w3.org/2000/svg" viewBox="0 0 512 124.121">
  <path fill="#f42" d="M124.121 0h67.894a46.546 46.546 0 0 1 32.03 12.773l.883.86 25.176 25.155a46.575 46.575 0 0 1 13.637 31.68l.017 1.232v52.421h-46.546V78.127c0-3.84-1.442-7.535-4-10.376l-.566-.595L196.57 51.09a15.538 15.538 0 0 0-10.161-4.523l-.821-.022h-14.921v77.576H124.12zm201.697 0v77.576h14.921c3.84 0 7.534-1.424 10.375-3.98l.596-.565 16.088-16.066a15.549 15.549 0 0 0 4.544-10.15l.022-.82V0h46.545v52.42c0 8.545-2.384 16.834-6.734 24.029l-.703 1.127h22.358c3.84 0 7.534-1.424 10.375-3.98l.596-.565 16.088-16.066a15.549 15.549 0 0 0 4.544-10.15l.022-.82V0H512v52.42a46.56 46.56 0 0 1-12.794 32.03l-.86.883-25.166 25.155a46.568 46.568 0 0 1-31.69 13.617l-1.233.016h-44.62V94.948l-15.548 15.54a46.568 46.568 0 0 1-31.69 13.617l-1.233.016h-67.893V0zM108.606 0v46.545h-31.03v77.576H31.03V46.545H0V0z"/>
</svg>
