<svg xmlns="http://www.w3.org/2000/svg" viewBox="0 0 512 119.312">
  <path fill="#250e62" d="M387.034 39.282c7.702 0 15.513 2.785 19.792 6.911L396.661 57.54c-2.031-2.476-5.777-4.124-9.305-4.124-7.277 0-12.306 6.187-12.306 13.203 0 7.117 4.816 13.099 12.518 13.099 3.531 0 7.383-1.342 9.523-3.817l9.735 11.45c-4.388 4.127-11.875 6.602-19.686 6.602-16.797 0-29.848-10.313-29.848-27.334 0-16.815 13.051-27.336 29.742-27.336zm-121.355 0c17.867 0 24.499 8.458 24.499 27.129v25.893h-16.047v-5.468h-.32c-2.676 4.228-8.666 6.704-15.085 6.704-8.56 0-19.365-4.024-19.365-16.091 0-14.855 18.722-17.33 34.234-17.33v-.824c0-5.056-4.17-7.429-9.626-7.429-5.029 0-9.845 2.373-13.16 5.26l-8.88-9.179c6.312-5.778 15.084-8.665 23.75-8.665zm59.093 0c17.867 0 24.499 8.458 24.499 27.129v25.893h-16.046v-5.468h-.322c-2.675 4.228-8.665 6.704-15.084 6.704-8.56 0-19.365-4.024-19.365-16.091 0-14.855 18.722-17.33 34.235-17.33v-.824c0-5.056-4.171-7.429-9.627-7.429-5.028 0-9.844 2.373-13.16 5.26l-8.88-9.179c6.313-5.778 15.085-8.665 23.75-8.665zM176.394 27.42v13.513h12.518V53.62h-12.518v19.6c0 4.848 1.606 7.219 6.635 7.219 1.498 0 3.322-.237 4.615-.641l.52-.184.214 12.38c-2.46.823-6.42 1.546-10.165 1.546-13.919 0-18.726-6.91-18.928-17.543l-.007-.714V53.62h-8.56V41.584c3.517-.234 6.78-.963 8.667-2.94 2.272-2.169 2.896-6.156 3.013-10.257l.014-.965zm255.14-8.164v43.699h.319l17.01-22.02h21.292l-20.543 24.39 21.398 26.98h-21.717l-17.44-23.47h-.32v23.47h-17.652v-73.05zM231.879 39.489c1.391 0 2.888.103 3.743.413l-.748 14.852c-1.604-.412-3.101-.515-4.492-.515-9.415 0-12.518 7.426-12.518 11.657v26.407H200.32v-51.37h16.902v7.426h.214c2.674-5.26 7.917-8.87 14.443-8.87zm276.377 0c1.391 0 2.889.103 3.744.413l-.749 14.852c-1.604-.412-3.101-.515-4.492-.515-9.414 0-12.518 7.426-12.518 11.657v26.407h-17.543v-51.37h16.9v7.426h.216c2.673-5.26 7.917-8.87 14.442-8.87zM274.131 71.672v-1.754h-2.246c-7.704 0-16.37.93-16.37 7.014 0 3.921 4.066 5.26 7.597 5.26 7.168 0 11.02-4.022 11.02-10.52zm59.094 0v-1.754h-2.246c-7.704 0-16.37.93-16.37 7.014 0 3.921 4.065 5.26 7.596 5.26 7.168 0 11.02-4.022 11.02-10.52zm-280.072 6.41c4.382.057 8.765.605 11.079 3.03 2.424 2.313 3.03 6.695 3.03 11.078v13.014c-.029 4.383-.607 8.765-3.03 11.079-2.314 2.423-6.697 2.972-11.079 3.029-4.383-.057-8.766-.606-11.078-3.03-2.274-2.169-2.923-6.156-3.019-10.257l-.026-4.918c-.004-2.741-.001-5.852.009-8.04l.005-.877c.029-4.383.606-8.765 3.03-11.078 2.314-2.425 6.696-2.973 11.079-3.03zM92.19 39.587c4.383.058 8.766.606 11.079 3.03 2.424 2.313 3.03 6.696 3.03 11.079V66.71c-.03 4.383-.606 8.766-3.03 11.08-2.313 2.423-6.696 2.971-11.079 3.03-4.382-.059-8.765-.607-11.078-3.03-2.273-2.17-2.922-6.157-3.019-10.258l-.026-4.919c-.004-2.74-.001-5.851.01-8.039l.004-.877c.03-4.383.606-8.766 3.03-11.078 2.314-2.425 6.697-2.973 11.08-3.031zm-39.04-.547c4.382.057 8.765.606 11.078 3.03 2.425 2.313 2.973 6.696 3.03 11.078-.057 4.382-.606 8.765-3.03 11.08-2.314 2.423-6.696 2.972-11.079 3.029-4.382-.057-8.765-.606-11.077-3.03-2.425-2.314-2.974-6.696-3.031-11.079.057-4.382.606-8.765 3.03-11.078 2.313-2.424 6.696-2.973 11.079-3.03zM131.23 0c4.383.057 8.765.606 11.079 3.03 2.424 2.313 2.972 6.696 3.03 11.079-.058 4.382-.606 8.765-3.03 11.078-2.314 2.425-6.696 2.973-11.08 3.03-4.382-.057-8.764-.605-11.077-3.03-2.425-2.313-2.973-6.696-3.03-11.078.057-4.383.605-8.766 3.03-11.078C122.466.606 126.848.057 131.231 0zm-39.04 0c4.382.057 8.764.606 11.078 3.03 2.424 2.313 2.973 6.696 3.03 11.079-.057 4.382-.606 8.765-3.03 11.078-2.314 2.425-6.697 2.973-11.079 3.03-4.383-.057-8.765-.605-11.078-3.03-2.424-2.313-2.973-6.696-3.03-11.078.057-4.383.605-8.766 3.03-11.078C83.425.606 87.808.057 92.19 0zM53.15 0c4.382.057 8.765.606 11.078 3.03 2.425 2.313 2.973 6.696 3.03 11.079-.057 4.382-.606 8.765-3.03 11.078-2.314 2.425-6.696 2.973-11.079 3.03-4.382-.057-8.765-.605-11.077-3.03-2.425-2.313-2.974-6.696-3.031-11.078.057-4.383.606-8.766 3.03-11.078C44.385.606 48.768.057 53.15 0zM14.109 0c4.382.057 8.765.606 11.079 3.03 2.424 2.313 2.972 6.696 3.03 11.079-.058 4.382-.606 8.765-3.03 11.078-2.314 2.425-6.697 2.973-11.08 3.03-4.382-.057-8.765-.605-11.077-3.03C.606 22.874.057 18.491 0 14.11.057 9.726.606 5.343 3.03 3.03 5.344.606 9.727.057 14.11 0z"/>
</svg>
