<svg xmlns="http://www.w3.org/2000/svg" viewBox="0 0 255.347 305.724">
  <g fill="#c00000">
    <path d="M26.283 240.835c11.471 13.6 31.053 26.866 43.411 21.86 12.36-5.002 17.368-41.591 12.939-46.464-4.43-4.873-28.096-44.525-46.501-38.793-18.406 5.731-21.32 49.797-9.85 63.397zM30.787 139.825c11.23 18.672 44.554 42.253 65.971 33.868 21.417-8.385 6.763-37.777-5.104-57.24-1.714-2.812-2.45-14.643-10.062-24.774-7.612-10.132-19.69-16.717-28.83-13.657-25.919 8.678-33.446 48.202-21.975 61.803zM126.994 131.96c11.471 13.6 13.735 27.564 31.48 26.885 17.744-.68 31.355-42.795 30.861-59.846-.494-17.051-16.802-55.557-45.582-47.393-28.781 8.165-29.895 43.034-16.759 80.354zM197.133 185.64c3.186 16.764 16.488 28.458 36.238 23.043 19.75-5.412 24.93-56.23 20.5-61.102-4.429-4.873-13.265-30.345-31.672-24.613-18.406 5.732-32.092 41.15-25.066 62.672zM95.941 303.337c26.81 10.632 36.159-17.22 65.755-25.406 29.597-8.185 54.947 5.179 63.53-21.083 11.002-33.66-15.997-28.61-37.657-43.542-21.66-14.931-16.11-32.03-49.57-23.973-36.075 8.686-17.793 44.788-31.8 57.996-20.337 19.18-26.797 49.447-10.258 56.008zM1.54 166.397c2.315 6.364 13.367 12.543 19.084 10.018 5.716-2.525 5.473-9.075 2.81-17.095-2.664-8.02-15.375-18.13-19.799-16.33-4.424 1.801-4.409 17.043-2.094 23.407zM28.322 62.432c2.314 6.364 5.455 17.693 14.424 14.253 8.968-3.44 11.74-9.667 9.077-17.687-2.663-8.02-13.51-19.824-17.934-18.023-4.424 1.8-7.882 15.094-5.567 21.457zM128.953 27.12c2.314 6.365 14.044 17.033 19.76 14.508 5.716-2.525 8.59-14.63 5.927-22.65-2.664-8.02-14.9-20.605-19.324-18.804-4.423 1.8-8.678 20.583-6.363 26.947zM215.021 106.466c2.315 6.363 6.404 12.745 12.12 10.22 5.716-2.525 12.198-8.04 9.536-16.06-2.664-8.02-8.918-26.381-13.344-24.58-4.424 1.801-10.626 24.056-8.312 30.42z"/>
  </g>
</svg>
