<svg xmlns="http://www.w3.org/2000/svg" viewBox="0 0 254.263 252.185">
  <g fill="#403e42">
    <path d="M167.65 152.076c.308 8.564 4.89 8.5 10.338 8.3 7.338-.134 11.366-2.383 15.048-.61-.058-.205-1.208-3.643-6.29-3.045.59-1.272.841-2.994.661-5.359-.668-8.558-5.647-15.356-11.109-15.163-5.448.187-8.95 7.293-8.648 15.877zm8.134-10.441a2.777 2.777 0 0 1 2.834 2.737 2.79 2.79 0 0 1-2.73 2.84 2.797 2.797 0 0 1-2.84-2.75 2.78 2.78 0 0 1 2.736-2.827zM92.85 161.919c.565.013 1.156 0 1.76-.013.526 0 1.053-.013 1.606-.032 5.468-.052 9.997.462 9.927-8.109-.09-8.57-3.894-15.51-9.362-15.452-5.455.051-10.736 7.08-10.421 15.645.096 2.236.424 3.842.95 5.005-4.754 1.202-6.071 4.138-6.148 4.324 2.994-1.612 6.38-1.381 11.687-1.368zm4.696-18.215c1.542-.052 2.82 1.17 2.872 2.711a2.795 2.795 0 0 1-2.718 2.86 2.783 2.783 0 0 1-2.866-2.712 2.777 2.777 0 0 1 2.712-2.86zM110.377 52.371h15.33v-6.322h3.45v29.208h-5.21v16.34h26.837v-16.34h-5.217V46.05h3.457v6.322h15.343V30.725h-53.99z"/>
    <path d="M254.17 94.108a65.79 65.79 0 0 0-.526-5.532c-.129-.925-.264-1.85-.457-2.756-.18-.938-.36-1.805-.661-2.827l-.193-.72-.508-.404c-2.923-2.288-6.065-4.023-9.258-5.552-2.641-1.246-5.32-2.332-8.025-3.328-7.563-20.971-20.541-39.566-37.626-52.512C179.266 7.087 158.507 0 136.893 0c-21.627 0-42.38 7.087-60.036 20.477-13.448 10.19-24.338 23.888-32.055 39.482h-.038a124.275 124.275 0 0 0-5.57 13.03c-2.712.996-5.392 2.082-8.032 3.328-3.2 1.53-6.335 3.264-9.259 5.552l-.514.404-.193.72a30.131 30.131 0 0 0-.668 2.827c-.18.906-.327 1.831-.45 2.756-.186 1.318-.308 2.654-.417 3.99h.045a40.8 40.8 0 0 0-.11 1.549 69.644 69.644 0 0 0 .322 11.102 69.809 69.809 0 0 0 2.056 10.942 58.401 58.401 0 0 0 1.792 5.333c.341.88.714 1.754 1.131 2.634.206.437.43.868.656 1.311l.366.65c.141.243.238.417.45.732l.366.578.59.302c.624.321 1.145.559 1.71.829l1.645.745c.302.122.597.25.912.38-7.498 6.925-15.645 15.927-22.693 27.055L0 170.734l12.497-10.968c.218-.186 10.691-9.252 28.167-19.538l.245 2.01.636 5.07 3.2 26.003c.07.494.327.938.738 1.22l6.56 4.607c.116.366.225.733.334 1.112.155.52.296 1.034.457 1.555l1.497 4.516c3.283 10.21 7.935 19.417 13.595 27.506-.27.084-.546.16-.816.238-3.412-1.58-15.33-7.106-19.333-8.912l-8.372-3.758 4.954 7.73c.36.558 8.905 13.884 15.876 22.866 6.535 8.385 15.472 16.943 32.331 16.943a60.64 60.64 0 0 0 6.342-.36c5.03-.584 8.809-1.034 11.68-1.407 17.696 6.515 37.215 6.9 55.739-.11a81.02 81.02 0 0 0 13.93-6.88c.09-.013.173-.039.25-.058 6.887-1.658 14.707-3.528 18.568-4.607.617-.167 1.394-.353 2.198-.546 5.377-1.227 14.366-3.322 19.153-12.908 4.825-9.676 12.702-24.493 12.78-24.64l3.687-6.895-7.164 3.117c-.392.167-9.477 4.131-14.2 6.605-.16.096-.365.18-.552.27 3.843-7.833 5.757-14.071 6.445-16.468l2.589-10.685 7.46-16.686s2.094-18.24 2.14-18.228l.732-6.978c.655-.276 4.639-.552 5.416-.86 1.111-.437 2.223-.868 3.335-1.35l1.638-.745c.578-.27 1.092-.508 1.715-.829l.592-.302.372-.578a7.68 7.68 0 0 0 .444-.733l.36-.649c.25-.443.462-.873.661-1.31a47.27 47.27 0 0 0 1.144-2.635 62.505 62.505 0 0 0 1.78-5.332c.976-3.618 1.683-7.26 2.056-10.942.41-3.676.5-7.39.314-11.097zM83.944 139.13c.16-.11 6.862-4.504 17.804-9.856a474.043 474.043 0 0 1 35.839-1.356c3.135 0 6.213.045 9.252.097-2.12 1.709-4.356 3.321-6.682 4.716l-7.73 4.677c-4.876.591-9.104 1.806-9.335 1.87a1.636 1.636 0 0 0-.405.173c-.379.219-.668.579-.796 1.003l-7.903 26.028-42.181 9.374-13.294-9.31-3.868-31.31c7.544-1.394 17.644-2.994 29.762-4.35a64.7 64.7 0 0 0-3.753 4.897l-7.215 10.357 10.505-7.01zM140.87 248.06c-6.958.463-14.026-.353-20.946-2.249.579-.115.996-.18 1.51-.237.566-.077 12.985-1.71 18.569-10.01l.527.012 1.388-.013c.918 0 1.754-.077 2.647-.115 2.12-.174 4.17-.482 6.206-.893.219.212.424.424.65.655 4.195 4.157 9.406 6.54 15.13 6.958-9.63 3.913-18.697 5.43-25.68 5.892zm.63-15.227c1.047-2.333 1.838-4.15 2.435-5.52a186.2 186.2 0 0 0 4.549 4.896c-1.369.206-2.718.38-4.048.489-.874.038-1.786.135-2.621.135zm-20.695-53.727 3.771-.848a1.755 1.755 0 0 0 1.298-1.208l7.877-25.912c1.362-.18 2.557-.277 3.592-.277 1.002 0 2.217.097 3.572.277l8.109 26.683c.205.681.79 1.176 1.484 1.253l3.007.34.77.084 51.8 5.892c.43.051.855-.071 1.208-.315l5.204-3.637 4.813-3.366 1.78-1.253c-.29 1.24-.611 2.473-.945 3.688a158.707 158.707 0 0 1-1.549 4.664c-2.126 6.053-4.51 11.546-7.106 16.506-.706.045-1.471.077-2.274.077-2.519 0-5.076-.205-7.91-.469-4.921-.456-12.715-1.349-15.17-1.625-2.139-1.703-9.405-7.466-15.439-12.227-.23-.18-.437-.373-.649-.54-1.06-.9-2.268-1.914-4.716-1.914-2.236 0-5.487.81-13.345 3.18 4.093-3.058 4.125-6.997 4.125-6.997s-5.82 5.423-15.214 6.618c-9.368 1.208-16.738-4.556-16.738-4.556.309 1.003.746 3.27 2.872 5.192-2.499-.29-5.197-.495-8.031-.495-1.015 0-2.056.026-3.052.077-5.77.309-13.89 9.021-19.59 17.817-2.801.887-11.559 3.669-21.685 6.644-5.981-8.276-10.036-16.673-12.33-22.077-1.336-3.148-2.081-5.288-2.248-5.795v-.013c-.187-.514-.386-1.06-.56-1.606l2.43 1.696v.013l6.007 4.215 2.005 1.394c.302.212.668.321 1.015.321.128 0 .257-.013.392-.038zm31.958-38.653a1.783 1.783 0 0 0-1.208-1.183c-.263-.083-5.474-1.567-11.006-2.036l1.015-.077c.874-.065 15.401-1.838 32.755-7.826 19.218 1.471 34.908 3.83 45.638 5.782l-3.797 26.639-13.403 9.374-42.13-4.787zm92.49-35.885c-.47 3.431-2.024 10.114-2.024 10.114l-1.215.199c-.636-.174-6.56-1.71-16.763-3.598.328-.071.643-.142.951-.212a47.009 47.009 0 0 0 6.22-1.992c1.002-.43 2.004-.887 2.949-1.426.938-.547 1.856-1.15 2.576-1.967-10.216 3.341-31.329 1.825-50.096-.115-17.149-1.774-34.362-2.917-51.658-2.956-17.29.039-34.484 1.189-51.652 2.956-18.767 1.94-39.874 3.456-50.09.115.72.81 1.645 1.42 2.59 1.967.938.54 1.934.989 2.936 1.426a47.75 47.75 0 0 0 6.226 1.992c.745.173 1.503.34 2.262.475-9.31 1.767-14.701 3.168-15.305 3.335 0 0-2.146.347-2.615-1.298-.932-3.29-1.555-5.59-2.024-9.015a75.688 75.688 0 0 1-.642-10.305c.006-.566-.007-1.697-.007-1.697.032-1.156.084-2.313.193-3.47.064-.854 3.206-3.59 5.905-5.146 2.917-1.696 5.981-3.225 9.104-4.645 3.09-1.465 13.107-3.592 19.147-4.684 6.04-1.105 27.64-3.97 29.26-4.575 1.612-.616 10.948-7.813 12.58-8.41-3.431.565-50.835 7.806-52.969 8.481 15.389-40.24 45.593-59.837 85.795-59.837 40.189 0 70.4 18.504 85.8 58.751-20.329-5.403-48.483-7.922-51.914-8.494 1.632.598 10.865 7.094 12.58 7.312 14.058 1.825 36.225 6.74 37.831 7.376 3.187 1.291 6.38 2.621 9.477 4.08 3.13 1.42 6.187 2.95 9.104 4.645 2.699 1.562 5.834 4.292 5.911 5.147.148 1.722.213 3.437.232 5.16.025 3.443-.212 6.9-.656 10.311z"/>
  </g>
</svg>
