<svg xmlns="http://www.w3.org/2000/svg" viewBox="0 0 255.272 253.203">
  <path fill="#0e0f0d" d="M254.646 88.935c-.12-.93-.263-1.86-.455-2.771a29.074 29.074 0 0 0-.66-2.836l-.711-1.128c-2.929-2.3-6.089-4.038-9.297-5.574-2.648-1.25-5.338-2.34-8.06-3.344-7.585-21.051-20.624-39.717-37.768-52.724C179.975 7.116 159.133 0 137.427 0c-21.707 0-42.55 7.116-60.27 20.56-17.144 13.005-30.184 31.672-37.768 52.728-2.715 1-5.41 2.093-8.054 3.338-3.214 1.536-6.372 3.274-9.301 5.574l-.713 1.128a39.566 39.566 0 0 0-.661 2.836c-.184.911-.322 1.84-.454 2.77a62.163 62.163 0 0 0-.534 5.552A69.782 69.782 0 0 0 20 105.634a70.724 70.724 0 0 0 2.064 10.986 59.073 59.073 0 0 0 1.795 5.354c.344.886.72 1.766 1.137 2.645.206.437.43.864.66 1.31.509.893.602 1.067.816 1.384l.962.886c.627.322 1.146.567 1.713.836l1.657.743c.307.125.595.25.908.376-7.525 6.957-15.697 15.994-22.774 27.165L0 171.419l12.547-11.013c.213-.186 10.734-9.294 28.28-19.613l.246 2.017c-1.148.597-6.665 3.493-8.305 4.864-2.718 2.258-2.85 5.76-2.122 12.296.373 3.35 1.629 9.852 3.323 15.814 2.918 10.258 5.057 12.073 6.935 12.497.847.203 1.94.297 3.17.297 3.361 0 7.666-.654 10.475-1.503 3.295 10.247 7.962 19.497 13.652 27.615-.275.074-.546.162-.821.24-3.422-1.586-15.388-7.13-19.41-8.937l-8.405-3.784 4.971 7.762c.362.56 8.943 13.94 15.948 22.958 6.553 8.41 15.525 17.019 32.455 17.019 2.038 0 4.17-.132 6.367-.374a926.9 926.9 0 0 0 11.726-1.405c17.772 6.53 37.369 6.932 55.966-.115a81.884 81.884 0 0 0 13.985-6.908c7.17-1.72 15.013-3.59 18.887-4.678.621-.168 1.399-.353 2.208-.544 5.398-1.242 14.42-3.335 19.23-12.958 4.848-9.71 12.753-24.586 12.836-24.738l3.697-6.94-7.203 3.13c-.385.176-9.511 4.15-14.252 6.635 3.294-7.584 5.235-13.862 5.911-16.273 2.655.639 6.591.557 9.486.557 1.423 0 2.887-.247 3.837-.49 1.882-.477 3.335-1.728 6.067-12.313 1.591-6.153 2.732-12.853 3.045-16.297.605-6.702.409-10.294-2.326-12.561-1.363-1.126-5.363-3.28-7.397-4.34 1.138-.487 1.696-.345 1.74-.332l1.846-7.003a59.6 59.6 0 0 1 2.12-.857c1.115-.444 2.23-.885 3.346-1.366l1.647-.743a49.72 49.72 0 0 0 1.718-.836l.962-.886c.208-.317.32-.491.447-.733.61-1.097.825-1.524 1.028-1.961.417-.88.787-1.76 1.137-2.645a58.718 58.718 0 0 0 1.792-5.354 70.577 70.577 0 0 0 2.067-10.986c.415-3.7.508-7.427.322-11.148a58.701 58.701 0 0 0-.535-5.551z"/>
  <path fill="#e1c5a2" d="M149.066 233.148c-1.36.204-2.72.37-4.064.477-.875.043-1.793.13-2.63.13l-.312.009c1.05-2.34 1.848-4.16 2.449-5.538 1.23 1.378 2.794 3.081 4.557 4.922"/>
  <path fill="#a89983" d="M147.416 128.522c-2.126 1.726-4.366 3.332-6.699 4.743l-7.781 4.694c-4.88.595-9.116 1.802-9.358 1.875-.142.031-.276.098-.402.174a1.803 1.803 0 0 0-.805 1.018l-7.925 26.109-42.357 9.42-13.345-9.344-3.88-31.44c7.579-1.392 17.71-2.999 29.88-4.365a72.313 72.313 0 0 0-3.77 4.918l-7.245 10.4 10.551-7.033c.16-.11 6.874-4.53 17.864-9.908a482.943 482.943 0 0 1 35.979-1.35c3.16 0 6.254.038 9.293.089zm-65.93 35.42c3.01-1.627 6.41-1.389 11.733-1.376.567.01 1.158.004 1.77-.013.525 0 1.05-.009 1.607-.025 5.486-.055 10.043.463 9.96-8.142-.081-8.607-3.907-15.568-9.389-15.514-5.48.049-10.786 7.103-10.458 15.706.087 2.24.42 3.858.946 5.021-4.777 1.202-6.1 4.157-6.17 4.343zM220.83 135.668l-3.814 26.733-13.453 9.421-42.302-4.807-7.893-25.991a1.778 1.778 0 0 0-1.208-1.19c-.26-.079-5.497-1.576-11.049-2.056l1.016-.068c.875-.065 15.463-1.851 32.888-7.855 19.29 1.48 35.048 3.847 45.816 5.813zm-27.027 24.745c-.055-.208-1.216-3.666-6.308-3.06.584-1.28.848-3.006.663-5.376-.672-8.59-5.674-15.418-11.15-15.224-5.482.19-8.988 7.311-8.685 15.929.302 8.6 4.896 8.54 10.378 8.344 7.362-.14 11.404-2.4 15.102-.613z"/>
  <path fill="#fff" d="M179.33 144.948a2.802 2.802 0 0 1-2.748 2.851 2.797 2.797 0 0 1-2.847-2.75 2.795 2.795 0 0 1 2.744-2.85 2.79 2.79 0 0 1 2.851 2.749M100.813 147.008a2.801 2.801 0 0 1-2.722 2.869 2.801 2.801 0 0 1-2.884-2.727 2.798 2.798 0 0 1 2.732-2.87 2.803 2.803 0 0 1 2.874 2.728"/>
  <path fill="#e1c5a2" d="M239.295 147.428c-.661-.546-2.87-1.808-5.023-2.972l-3.545 24.85a1.815 1.815 0 0 1-.744 1.2l-5.073 3.548c-.12.6-.214 1.1-.304 1.57 4.984 1.227 9.825-2.367 12.543-4.96 1.257-4.896 2.352-10.708 2.73-14.868.579-6.449.067-7.832-.584-8.368M160.952 241.835c-3.291-1.17-6.308-3.08-8.934-5.676-.219-.223-.427-.438-.647-.657a53.716 53.716 0 0 1-6.223.895c-.892.04-1.743.116-2.673.116l-1.376.012-.53-.012c-3.146 4.672-8.434 7.24-12.578 8.607 12.31 2.112 25.855-1.12 32.961-3.285M52.585 180.977c-.11-.376-.226-.746-.333-1.123l-6.59-4.612a1.79 1.79 0 0 1-.743-1.24l-3.213-26.094c-2.378 1.27-5.127 2.836-5.858 3.449-.636.525-1.121 1.862-.434 8.08.522 4.674 2.164 11.856 3.841 17.237 3.337 2.552 8.252 5.243 13.33 4.303M151.102 179.786a1.774 1.774 0 0 1-1.498-1.254l-8.132-26.798c-1.364-.179-2.574-.278-3.596-.278-1.026 0-2.23.1-3.592.278l-7.905 26.028a1.778 1.778 0 0 1-1.313 1.212l-3.78.842c-.32 1.335-1.408 3.294-4.913 4.368-5.656 1.725-41.461 12.398-45.544 11.817-2.384-.334-6.92-2.837-10.275-4.86-1.343-3.162-2.086-5.311-2.256-5.821v-.01l-.01.01c.475 1.388 5.147 14.837 14.64 27.992 10.177-3 18.967-5.795 21.778-6.685 5.724-8.827 13.88-17.586 19.672-17.885a62.52 62.52 0 0 1 3.064-.081c2.838 0 5.547.202 8.062.5-2.136-1.939-2.574-4.206-2.884-5.213 0 0 7.397 5.786 16.806 4.568 9.424-1.206 15.27-6.632 15.27-6.632l.185-1.669-3.78-.429"/>
  <path fill="#e1c5a2" d="M158.75 183.178c-1.952-.505-3.181-1.311-3.96-2.15l-.096.856s-.032 3.954-4.13 7.019c7.891-2.39 11.154-3.2 13.389-3.2 2.46 0 3.676 1.027 4.743 1.928.202.17.404.346.646.535a3228.1 3228.1 0 0 1 15.497 12.28c2.47.284 10.311 1.182 15.246 1.632 2.841.265 5.415.479 7.935.479.808 0 1.572-.028 2.295-.078 2.602-4.983 4.998-10.496 7.13-16.573-2.918 2.047-9.567 6.527-12.683 7.104-4.052.759-40.297-8.35-46.012-9.832"/>
  <path fill="#e0d896" d="M249.954 89.459a59.24 59.24 0 0 0-.267-2.564 30.104 30.104 0 0 0-.271-1.818c-2.289-1.926-4.892-3.64-7.6-5.192-2.933-1.722-6.004-3.253-9.14-4.678-3.108-1.47-6.308-2.799-9.519-4.094a155.685 155.685 0 0 0-4.85-1.885c-1.62-.633-3.253-1.224-4.893-1.82 3.437.571 6.846 1.357 10.23 2.226 2.201.562 4.388 1.2 6.56 1.885C214.74 31.112 177.783 4.8 137.427 4.8c-40.361 0-77.316 26.312-92.77 66.718a125.48 125.48 0 0 1 6.553-1.885c3.38-.87 6.792-1.655 10.235-2.225a211.27 211.27 0 0 0-4.908 1.82c-1.617.6-3.235 1.23-4.842 1.884-3.213 1.295-6.406 2.624-9.525 4.094-3.125 1.425-6.195 2.956-9.132 4.678-2.709 1.552-5.306 3.266-7.6 5.192a54.427 54.427 0 0 0-.27 1.818 83.895 83.895 0 0 0-.271 2.564 65.392 65.392 0 0 0-.22 5.182c-.037 3.463.198 6.927.634 10.35.476 3.437 1.105 6.851 2.036 10.154A54.026 54.026 0 0 0 28.93 120c.305.787.634 1.568.978 2.318.169.377.344.749.526 1.104l.222.42c.253.127.52.262.77.383l1.536.733c.858.394 2.046.957 3.027 1.395.055-.05.11-.1.154-.148l-2.852-10.865c.606-.163 6.022-1.563 15.356-3.344a45.416 45.416 0 0 1-2.257-.48c-2.125-.532-4.223-1.177-6.258-1.996-1.006-.427-1.999-.89-2.945-1.426-.945-.546-1.874-1.159-2.597-1.979 10.253 3.35 31.446 1.837 50.286-.113 17.225-1.777 34.502-2.924 51.861-2.963 17.355.039 34.638 1.186 51.854 2.963 18.848 1.95 40.04 3.463 50.292.113-.715.82-1.65 1.433-2.587 1.979-.954.535-1.949 1-2.955 1.426-2.033.82-4.123 1.464-6.251 1.996-.316.075-.635.14-.95.212 10.24 1.897 16.198 3.442 16.83 3.611l-2.726 10.35c.554-.24 1.11-.48 1.644-.732l1.54-.733c.253-.121.516-.256.777-.383l.207-.42c.186-.356.367-.727.534-1.104.345-.75.674-1.531.974-2.318a55.847 55.847 0 0 0 1.586-4.856c.933-3.303 1.562-6.718 2.031-10.154.445-3.423.68-6.887.648-10.35a62.859 62.859 0 0 0-.23-5.181"/>
  <path fill="#d7c184" d="M179.887 69.36c.158 4.622.045 13.01-2.11 20.858-.087.3-.075.612 0 .903-2.741-.29-5.486-.537-8.228-.76 3.076-6.45 3.748-13.318 3.898-15.74 2.364-1.676 4.715-3.694 6.44-5.262M101.414 74.622c.143 2.42.815 9.272 3.89 15.723a306.26 306.26 0 0 0-8.223.76c.074-.278.08-.586 0-.886-2.15-7.837-2.264-16.224-2.116-20.858 1.733 1.566 4.078 3.584 6.449 5.26M213.574 97.524a1.688 1.688 0 0 1-.057.23c.301.087.596.175.897.273 2.536.83 5.075 1.7 7.5 2.82-4.048-2.63-6.615-10.217-8.046-16.017.394 7.592-.257 12.407-.294 12.694M91.59 67.9l-26.184 7.448c-1.568 10.185-1.09 17.963-.838 20.662l.133-.08s.853-11.095 2.592-15.352c.896-2.186 6.377-3.58 10.555-4.58 4.188-.993 10.865-2.987 12.161 2.892.8 3.632 1.902 6.654 2.958 8.882-1.682-8.078-1.575-15.975-1.377-19.871M183.26 67.9c.214 4.05.313 12.416-1.585 20.816 1.19-2.282 2.511-5.648 3.432-9.826 1.294-5.88 7.971-3.885 12.158-2.891 4.187 1 9.661 2.393 10.557 4.58 1.476 3.603 2.31 12.1 2.53 14.627.249-3.249.525-10.552-.902-19.86l-26.19-7.445M101.206 70.168a45.28 45.28 0 0 0 2.85 2.11c.457.318.737.835.747 1.394.006.087.202 8.714 4.016 16.06.055.11.094.23.131.344 9.482-.645 18.992-.906 28.478-.912 9.492.006 18.996.285 28.473.934.038-.125.073-.246.14-.367 3.808-7.345 4.013-15.972 4.013-16.06a1.74 1.74 0 0 1 .753-1.393 44.619 44.619 0 0 0 2.742-2.037l.12-.336c1.982-19.298-1.654-37.08-3.965-45.866-.122 6.008-1.546 57.486-14.32 57.486H120.126c-13.565 0-14.656-58.04-14.656-58.04l-.699 2.06c-2.314 9.256-5.491 26.266-3.566 44.623M61.337 97.749c-.012-.075-.033-.148-.05-.225-.042-.287-.696-5.108-.302-12.707-1.432 5.804-4.006 13.404-8.06 16.033 2.425-1.125 4.975-1.996 7.515-2.828.296-.093.6-.181.897-.273"/>
  <path fill="#9f8f78" d="M224.607 175.624a56.262 56.262 0 0 1-.75 3.406c2.908.678 7.662 1.204 9.935.76.973-1.057 2.23-4.724 3.358-9.127-2.718 2.594-7.56 6.188-12.543 4.96M120.404 246.798c6.945 1.902 14.039 2.727 21.028 2.264 7.012-.477 16.115-1.99 25.778-5.913a23.9 23.9 0 0 1-6.258-1.313c-7.106 2.166-20.65 5.398-32.96 3.286-3.26 1.073-5.814 1.406-6.063 1.437-.514.058-.94.13-1.525.24M53.044 182.534c-.16-.517-.307-1.038-.46-1.557-5.078.94-9.993-1.75-13.327-4.302 1.08 3.455 2.169 6.17 2.984 6.995 2.515.44 8.078-.332 10.803-1.136M60.553 191.14c3.354 2.024 7.89 4.528 10.275 4.861 4.083.58 39.888-10.092 45.544-11.817 3.504-1.074 4.594-3.033 4.914-4.368L69.63 191.319a2.37 2.37 0 0 1-.387.039h-.006c-.356 0-.713-.11-1.017-.321l-2.012-1.404-6.034-4.226v-.01l-2.435-1.7c.042.138.092.275.137.412.138.4.274.807.42 1.2v.01c.17.51.913 2.66 2.256 5.821M219.007 181.217c.33-1.22.654-2.454.949-3.7l-1.793 1.258-4.827 3.38-5.221 3.661c-.268.185-.58.296-.9.32a1.784 1.784 0 0 1-.318-.008l-52.016-5.913-.088.81c.778.842 2.007 1.646 3.958 2.152 5.715 1.481 41.958 10.59 46.011 9.83 3.115-.577 9.767-5.057 12.682-7.104.025-.07.05-.139.073-.21a177.615 177.615 0 0 0 1.49-4.477"/>
  <path fill="#6e6a67" d="M163.97 111.137c-.41.53-.858 1.11-1.34 1.716-2.47 3.122-5.892 7.104-9.945 11.011-4.721-.148-9.569-.23-14.559-.23-8.247 0-16.154.218-23.662.579 10.613-4.398 23.357-8.699 37.16-11.278a142.871 142.871 0 0 1 12.346-1.798M101.884 115.886c-3.793 2.663-8.066 6.055-12.213 10.175a462.453 462.453 0 0 0-27.525 3.584c11.748-5.397 25.158-10.371 39.738-13.759M231.64 137.812l-4.324 30.217-20.694 14.5-53.97-6.137-8.12-26.757a1.778 1.778 0 0 0-1.415-1.239c-1.998-.323-3.765-.481-5.241-.481-1.48 0-3.246.158-5.257.481a1.8 1.8 0 0 0-1.411 1.24l-7.922 26.105-53.665 11.94-21.268-14.898-4.197-33.912c.918-.512 1.848-1.027 2.78-1.541 1.319-.284 2.8-.584 4.438-.895l3.95 32c.055.497.335.94.746 1.227l14.635 10.253c.294.203.655.318 1.008.318.131 0 .257-.018.395-.044l44.122-9.817a2.18 2.18 0 0 0 .44-.16c.406-.22.732-.593.865-1.057l7.951-26.16c2.131-.544 7.592-1.824 12.389-1.824 4.788 0 10.247 1.28 12.384 1.825l7.946 26.16c.203.676.797 1.169 1.496 1.25l44.13 5.014c.423.05.859-.068 1.21-.314l14.64-10.234c.394-.285.665-.727.733-1.209l3.908-27.344c2.934.562 5.387 1.077 7.318 1.493M237.088 118.859l-3.8 14.411c-7.769-1.715-24.83-5.077-48.055-7.34 7.585-3.235 15.312-7.288 22.373-12.366 13.82 1.952 23.967 4.048 29.482 5.295M39.176 118.859l1.056 3.989a133.313 133.313 0 0 1 7.945-5.862c-3.721.714-6.756 1.364-9.001 1.873"/>
  <path fill="#93232c" d="M188.184 110.822a1151.74 1151.74 0 0 0-17.449-.849 91.55 91.55 0 0 1-2.005 2.842c-3.118 4.219-9.264 11.909-17.143 18.506 5.928-1.878 29.444-9.766 41.355-20.206a688.08 688.08 0 0 0-4.758-.293M145.566 109.286c.009-.002.019-.003.024-.006-2.95-.04-5.902-.07-8.847-.082h-.006c-4.34.012-8.668.067-13.007.142l-8 3.793a.476.476 0 0 0-.118.066c-1.204.585-11.705 5.885-21.593 15.339.865-.456 1.782-.928 2.726-1.407 5.408-3.634 19.832-12.238 42.26-17.91 2.186.013 4.374.026 6.56.064M96.405 110.252c-3.704.171-7.41.361-11.11.57-4.292.24-8.57.53-12.845.851a233 233 0 0 0-6.381.569c-.614.06-1.214.125-1.815.203-5.586 3.339-26.964 16.759-41.652 34.324.253-.305.514-.606.773-.907 27.193-23.2 57.006-32.23 73.03-35.61M219.428 205.657l-.49.253c-2.727 1.433-6.3 2.135-10.918 2.135-2.749 0-5.445-.23-8.433-.5-5.966-.546-16.066-1.734-16.169-1.753l-.772-.082-.611-.492c-.093-.062-8.936-7.115-16.086-12.736-.292-.236-.554-.461-.794-.65-.754-.645-.754-.645-1.204-.645-2.295 0-8.962 2.07-23.563 6.593l-.896.287-.887-.337c-.1-.025-9.678-3.577-21.16-3.577-.94 0-1.878.023-2.79.068-1.149.059-7.602 3.125-15.86 16.179l-.529.843-.95.303c-.138.046-14.344 4.63-29.412 8.938l-.972.276-.93-.429c-.097-.033-5.981-2.77-11.589-5.34.413.191.829.38 1.243.572 5.536 4.778 16.137 13.967 17.314 15.24.163.184.39.408.66.662a28.58 28.58 0 0 1-.798-.95c-.003-.001-.007-.006-.01-.01l.001.002v-.001c2.442 2.316 5.168 4.316 8.146 5.724 1.486.699 3.044 1.24 4.628 1.502.799.132 1.574.197 2.383.197.819 0 1.656-.025 2.492-.065 3.312-.17 6.655-.424 9.99-.747 3.33-.3 6.663-.634 9.99-1.038 3.323-.357 6.646-.775 9.94-1.286 1.65-.24 3.29-.513 4.892-.869.787-.185 1.607-.39 2.23-.67.569-.272 1.258-.82 1.864-1.34 1.24-1.067 2.437-2.251 3.622-3.43a151.61 151.61 0 0 0 3.504-3.625c1.951-2.042 3.623-4.213 5.512-6.316.242-.261.489-.54.74-.809 0 .004 0 .004.003.004l.022.025c.394.283.787.57 1.172.873 2.273 1.695 4.622 3.528 6.885 5.113 2.918 2.051 5.873 4.106 8.931 5.816.763.425 1.551.822 2.305 1.072.097.035.179.053.255.064.055.033.257.065.28.065.148.022.348.032.54.045.411.006.837-.013 1.264-.033 1.725-.12 3.474-.37 5.224-.644 3.496-.546 7-1.175 10.485-1.873 3.491-.668 6.98-1.384 10.445-2.155a280.077 280.077 0 0 0 10.393-2.418c1.711-.461 3.424-.886 4.95-1.618 1.56-.727 3.008-1.723 4.34-2.865 2.69-2.29 4.952-5.131 6.83-8.224l-.004.011a37.034 37.034 0 0 0 2.352-5.335M154.242 41.335h6.149v-12.49h-44.96v12.49h6.15v-6.344h12.713v38.576h-5.234v7.16h17.7v-7.16h-5.235V34.99h12.717v6.344"/>
  <path fill="#731b2a" d="M200.762 111.668a.067.067 0 0 0-.036-.011 708.699 708.699 0 0 0-7.64-.533l-.146-.01c-11.912 10.44-35.426 18.33-41.355 20.207-.115.098-.228.197-.343.293 7.632-1.374 19.032-4.099 30.864-9.338 5.819-2.575 11.742-5.756 17.376-9.69.435-.301.857-.617 1.28-.918M139.005 109.22c-22.428 5.671-36.851 14.276-42.26 17.91a226.913 226.913 0 0 1 15.248-7.06c.028-.01.059-.024.088-.036.587-.244 1.185-.49 1.785-.736l.587-.24c.519-.21 1.044-.416 1.571-.627.294-.114.584-.23.88-.344.474-.186.953-.371 1.435-.555.361-.137.722-.275 1.087-.41.442-.17.887-.336 1.336-.5.419-.155.844-.309 1.265-.46.416-.152.829-.301 1.248-.45.477-.168.958-.334 1.442-.503.382-.131.762-.264 1.146-.395.566-.191 1.136-.38 1.709-.568l.943-.312c.896-.29 1.802-.577 2.714-.856 1.99-.611 4.023-1.194 6.09-1.755a176.902 176.902 0 0 1 8.247-2.039c-2.186-.036-4.374-.05-6.561-.064M96.405 110.252c-16.024 3.38-45.837 12.41-73.03 35.61-.259.3-.52.6-.773.907 13.823-9.61 37.583-23.895 66.957-32.584.947-.28 1.903-.553 2.861-.823a189.323 189.323 0 0 1 15.048-3.562c-3.685.131-7.374.283-11.063.452M224.722 203.096l-.278.128-.564.265c-.153.07-.3.14-.454.21l-.364.173-.556.265c-.076.038-.157.075-.236.116-.211.1-.42.197-.623.298l-.137.068c-.223.11-.445.216-.66.323l-.069.033c-.478.237-.93.465-1.353.681a37.025 37.025 0 0 1-2.358 5.34l.009-.013c-.004.007-.01.01-.012.019-1.876 3.08-4.135 5.912-6.819 8.2-1.333 1.143-2.781 2.138-4.338 2.864-1.53.733-3.242 1.157-4.953 1.619-3.44.866-6.907 1.68-10.392 2.417a354.522 354.522 0 0 1-10.444 2.155c-3.486.701-6.99 1.329-10.487 1.873-1.75.274-3.497.525-5.223.644-.428.022-.852.038-1.263.033a6.713 6.713 0 0 1-.542-.045 1.04 1.04 0 0 1-.278-.065 1.055 1.055 0 0 1-.256-.065c-.755-.246-1.542-.647-2.305-1.07-3.057-1.712-6.013-3.765-8.933-5.816-2.26-1.585-4.611-3.42-6.883-5.115l-.199.281.015.015c.14.128.283.246.424.37l-.01-.007-.299-.224 1.905 2.272c.006.008.077.095.217.259.973 1.142 5.04 5.861 9.87 10.652 3.677 3.646 8.113 5.487 13.202 5.487 1.737 0 3.563-.229 5.408-.667 1.706-.42 3.563-.862 5.466-1.322 5.64-1.342 11.89-2.838 16.037-3.915.276-.074.545-.142.804-.212.587-.154 1.118-.297 1.594-.428a45.106 45.106 0 0 1 2.45-.606c5.031-1.166 11.91-2.763 15.554-10.065a735.042 735.042 0 0 1 3.31-6.516 1452.023 1452.023 0 0 1 5.518-10.613c0-.002.002-.002.002-.002.12-.233.244-.468.361-.692l-.858.398M142.343 218.85l-.327-.31c-1.89 2.103-3.563 4.274-5.512 6.317a151.629 151.629 0 0 1-3.504 3.624c-1.185 1.18-2.383 2.367-3.622 3.43-.607.522-1.296 1.069-1.864 1.34-.622.28-1.443.486-2.23.671-1.6.356-3.242.628-4.892.869-3.293.51-6.617.93-9.94 1.286-3.327.404-6.66.737-9.99 1.036-3.334.324-6.678.577-9.99.75-.836.038-1.673.064-2.492.064-.809 0-1.586-.064-2.383-.197-1.585-.262-3.143-.804-4.628-1.502-2.977-1.408-5.703-3.41-8.146-5.723.002 0 .006.006.009.008.33.406.693.787 1.04 1.174-.084-.077-.164-.153-.242-.226-.27-.253-.497-.477-.661-.66-1.178-1.275-11.78-10.463-17.314-15.241-.414-.193-.83-.38-1.243-.573a429.056 429.056 0 0 0 3.17 4.631 286.446 286.446 0 0 0 4.999 6.992c.756 1.02 1.506 2.013 2.232 2.946 6.017 7.743 13.591 14.898 28.126 14.898 1.82 0 3.757-.112 5.745-.337.463-.05.913-.102 1.356-.155.426-.048.845-.095 1.251-.143 12.639-1.453 16.106-2.073 18.03-2.405.498-.086.923-.161 1.383-.229.179-.025.362-.054.556-.079.07-.007 4.344-.556 8.522-2.589 2.88-1.398 5.711-3.5 7.097-6.607 3.498-7.825 4.209-9.695 4.237-9.765l1.227-3.294"/>
  <path fill="#0e0f0d" d="M176.582 147.8a2.805 2.805 0 0 0 2.748-2.851 2.791 2.791 0 0 0-2.853-2.749 2.795 2.795 0 0 0-2.745 2.852 2.8 2.8 0 0 0 2.85 2.748zm17.221 12.613c-3.698-1.787-7.74.475-15.102.613-5.482.196-10.076.255-10.378-8.344-.303-8.618 3.203-15.74 8.684-15.93 5.477-.193 10.478 6.634 11.15 15.225.186 2.37-.076 4.097-.662 5.377 5.092-.608 6.253 2.85 6.308 3.059zM98.092 149.877a2.801 2.801 0 0 0 2.722-2.869 2.803 2.803 0 0 0-2.874-2.728 2.798 2.798 0 1 0 .152 5.597zm8.464 4.508c.081 8.605-4.476 8.088-9.961 8.142a50.07 50.07 0 0 1-1.608.025 38.2 38.2 0 0 1-1.769.012c-5.324-.012-8.723-.25-11.734 1.376.07-.185 1.394-3.14 6.17-4.344-.527-1.163-.858-2.782-.945-5.02-.329-8.602 4.978-15.656 10.458-15.706 5.481-.054 9.307 6.908 9.389 15.515zM210.354 95.206a41.68 41.68 0 0 1-.15 1.586 188.41 188.41 0 0 0-6.545-1.64c-7.24-1.59-14.569-2.77-21.934-3.611-.254-.032-.513-.05-.773-.082.05-.109.095-.218.128-.327.22-.804.412-1.61.595-2.415 1.898-8.4 1.799-16.767 1.585-20.815l26.19 7.447c1.427 9.306 1.15 16.608.904 19.857zm-32.576-4.988c-.088.3-.076.612 0 .903-2.742-.29-5.487-.537-8.229-.76 3.076-6.45 3.748-13.318 3.898-15.74 2.364-1.676 4.714-3.694 6.44-5.262.158 4.623.045 13.011-2.11 20.859zm-80.697.886c.074-.278.08-.586 0-.886-2.15-7.837-2.264-16.224-2.116-20.859 1.732 1.568 4.077 3.586 6.449 5.263.143 2.42.815 9.272 3.89 15.723-2.743.216-5.485.469-8.223.759zm-3.955.431c-3.674.448-7.352.912-11.012 1.519-3.65.624-7.301 1.289-10.92 2.093-2.195.51-4.37 1.05-6.547 1.639-.02-.172-.047-.437-.078-.778-.252-2.7-.73-10.476.838-20.662l26.184-7.448c-.198 3.898-.305 11.795 1.378 19.871.234 1.121.5 2.244.806 3.36.034.11.078.219.126.318-.263.033-.515.055-.775.088zM224.39 102.11c-.223-.107-.443-.216-.654-.32-.324-.156-.683-.335-1.094-.534l-.042-.021a6.786 6.786 0 0 1-.688-.39c-2.423-1.12-4.963-1.987-7.499-2.82-.3-.097-.595-.186-.896-.273.022-.075.044-.153.057-.23.037-.286.688-5.103.295-12.693-.166-3.242-.525-6.99-1.203-11.109a1.724 1.724 0 0 0-1.223-1.372l-3.733-1.056c-.803-28.886-12.696-42.461-13.068-42.882 10.624 17.1 10.531 37.38 10.346 42.106l-23.144-6.579c-.017 0-.032 0-.054-.01a2.187 2.187 0 0 0-.297-.044c-.022 0-.047-.004-.085-.004a1.437 1.437 0 0 0-.378.032c-.018 0-.038.017-.062.017a1.282 1.282 0 0 0-.3.103c-.036.016-.069.04-.102.05-.078.053-.154.097-.23.152-.017.012-.04.022-.056.037-.023.017-.03.033-.044.045-.022.023-.048.038-.066.055-.022.023-.646.633-1.613 1.547.068-2.165.085-5.478-.161-9.523l-.075-1.167c-.728-10.163-3.13-24.439-10.309-36.935.062.18.772 2.253 1.69 5.746 2.31 8.786 5.948 26.568 3.965 45.865-.01.089-.016.176-.025.265-.03.025-.063.048-.094.072a44.978 44.978 0 0 1-2.743 2.037 1.745 1.745 0 0 0-.755 1.394c0 .087-.203 8.714-4.01 16.06-.068.12-.103.24-.142.366-9.476-.65-18.98-.927-28.472-.934-9.487.006-18.996.267-28.478.912-.038-.115-.076-.236-.131-.345-3.814-7.345-4.01-15.972-4.016-16.06a1.734 1.734 0 0 0-.748-1.393 44.85 44.85 0 0 1-2.849-2.11c-1.926-18.357 1.252-35.368 3.565-44.623 1.098-4.394 2.004-7.05 2.076-7.253-10.417 18.126-10.778 39.996-10.547 47.625-.985-.914-1.596-1.523-1.612-1.547-.018-.017-.05-.032-.072-.056-.01-.01-.022-.027-.037-.044-.018-.015-.039-.025-.061-.037a2.16 2.16 0 0 0-.23-.142c-.038-.02-.066-.044-.11-.06a.838.838 0 0 0-.283-.093c-.028-.01-.049-.027-.067-.027a1.544 1.544 0 0 0-.384-.032c-.032 0-.066.004-.098.004a2.21 2.21 0 0 0-.283.044c-.023.01-.034.01-.056.01L69.87 70.515c-.186-4.727-.286-25.007 10.338-42.106-.368.424-12.259 13.999-13.068 42.885l-3.715 1.055a1.708 1.708 0 0 0-1.234 1.373 100.646 100.646 0 0 0-1.205 11.096c-.392 7.6.26 12.42.302 12.707.017.076.038.149.05.225-.296.092-.601.18-.897.273-2.54.832-5.089 1.703-7.514 2.828a6.68 6.68 0 0 1-.684.386l-.038.02c-.413.2-.772.378-1.096.535l-.569.278c-.12.07-.244.13-.362.2 1.717-.673 3.493-1.165 5.267-1.601a97.485 97.485 0 0 1 5.366-1.177A175.24 175.24 0 0 1 71.658 97.8c3.624-.476 7.263-.869 10.908-1.174 3.646-.312 7.286-.618 10.94-.83 14.613-.864 29.264-1.137 43.92-1.142 14.661.01 29.31.24 43.921 1.137 3.656.212 7.295.517 10.947.826 3.65.31 7.277.708 10.9 1.184 3.635.437 7.253 1.016 10.85 1.69 1.796.344 3.586.725 5.359 1.179 1.788.437 3.554.929 5.275 1.603-.096-.058-.194-.108-.287-.162z"/>
  <path fill="#0e0f0d" d="M141.525 34.991v38.576h5.235v7.16h-17.7v-7.16h5.234V34.99H121.58v6.345h-6.147v-12.49h44.958v12.49h-6.148V34.99h-12.718v.001zm23.495 10.963V24.221h-54.205v21.733h15.393V39.61h3.458v29.33h-5.222v16.4h26.94v-16.4h-5.24v-29.33h3.471v6.345z"/>
</svg>
