<svg xmlns="http://www.w3.org/2000/svg" viewBox="0 0 256.002 173.061">
  <defs>
    <linearGradient id="a" x1="58.993" x2="138.78" y1="136.341" y2="42.905" gradientTransform="scale(1.21625 .8222)" gradientUnits="userSpaceOnUse">
      <stop offset="0%" stop-color="#85F"/>
      <stop offset="100%" stop-color="#00B6FF"/>
    </linearGradient>
    <linearGradient id="b" x1="68.429" x2="76.891" y1="54.291" y2="46.267" gradientTransform="scale(2.08707 .47914)" gradientUnits="userSpaceOnUse">
      <stop offset="7%" stop-color="#FFF"/>
      <stop offset="89%" stop-color="#009FFF"/>
    </linearGradient>
    <linearGradient id="c" x1="201.808" x2="260.738" y1="118.972" y2="165.094" gradientTransform="scale(1.04523 .95673)" gradientUnits="userSpaceOnUse">
      <stop offset="7%" stop-color="#FFF"/>
      <stop offset="89%" stop-color="#009FFF"/>
    </linearGradient>
    <linearGradient id="d" x1="142.362" x2="229.873" y1="85.186" y2="117.526" gradientTransform="scale(.96794 1.03312)" gradientUnits="userSpaceOnUse">
      <stop offset="0%" stop-color="#4036C1"/>
      <stop offset="98%" stop-color="#539EFF"/>
    </linearGradient>
  </defs>
  <path fill="url(#a)" d="M136.783 169.368 252.361 53.773a12.382 12.382 0 0 0 0-17.539L222.002 5.858A19.924 19.924 0 0 0 207.884 0h-159.6A19.99 19.99 0 0 0 34.15 5.858L3.685 36.287A12.28 12.28 0 0 0 0 44.932a12.28 12.28 0 0 0 3.51 8.718l.175.175 115.578 115.596a12.382 12.382 0 0 0 17.538 0z" style="fill:url(#a)"/>
  <path fill="url(#b)" d="M33.22 6.787a17.538 17.538 0 0 1 15.977-4.805l200.709 40.706a6.156 6.156 0 0 1 4.788 7.244 5.72 5.72 0 0 1-.386 1.21 12.277 12.277 0 0 0-1.947-14.908L222.002 5.858A19.924 19.924 0 0 0 207.884 0h-159.6A19.994 19.994 0 0 0 34.15 5.858z" opacity=".4" style="fill:url(#b)"/>
  <path fill="url(#c)" d="m211.795 8.892-11.68 23.73 49.79 10.066a6.156 6.156 0 0 1 4.789 7.244 5.72 5.72 0 0 1-.386 1.21 12.277 12.277 0 0 0-1.947-14.908L222.002 5.858A19.924 19.924 0 0 0 207.884 0h-1.543a6.103 6.103 0 0 1 5.454 8.874z" opacity=".4" style="fill:url(#c)"/>
  <path fill="url(#d)" d="M254.308 51.212a6.138 6.138 0 0 0-3.192-8.068 5.718 5.718 0 0 0-1.21-.385L200.114 32.62l-66.996 135.204a8.225 8.225 0 0 1-9.804 4.209 12.382 12.382 0 0 0 13.47-2.666L252.36 53.773a11.102 11.102 0 0 0 1.947-2.561z" style="fill:url(#d)"/>
</svg>
