<svg xmlns="http://www.w3.org/2000/svg" viewBox="0 0 256 273.493">
  <path fill="#5fcf80" d="M242.347 60.373c-3.414-1.706-11.094-5.12-19.627-10.24-9.387-5.12-23.893 3.414-33.28 17.92L173.227 95.36c-5.974 11.947-5.12 24.747 2.56 35.84l.853.853c7.68 11.094 17.92 20.48 20.48 23.894 1.707 1.706 3.413 5.12 4.267 7.68 2.56 10.24-2.56 19.626-12.8 22.186-9.387 2.56-19.627-3.413-23.04-12.8-.854-2.56-.854-5.12-.854-7.68.854-4.266-.853-11.093-6.826-16.213-5.974-6.827-17.92 5.973-21.334 17.92v.853c-3.413 12.8-5.973 23.04-5.12 23.894 0 .853.854 1.706.854 1.706 5.12 10.24 1.706 22.187-8.534 27.307-10.24 5.12-23.04 1.707-28.16-8.533-5.12-10.24-1.706-22.187 8.534-27.307.853 0 .853-.853 1.706-.853.854 0 2.56-5.974 5.12-11.947 1.707-5.973 3.414-11.093 3.414-11.093 0-.854 0-1.707.853-1.707l10.24-35.84-10.24 21.333c-1.707-4.266-3.413-4.266-8.533-.853-2.56 1.707-7.68 5.973-9.387 7.68-4.267 3.413-7.68 9.387-9.387 12.8-.853 2.56-2.56 4.267-4.266 5.973-7.68 6.827-19.627 5.12-25.6-2.56-5.974-7.68-4.267-17.92 3.413-23.893 2.56-1.707 5.12-3.413 7.68-3.413 4.267-.854 20.48-11.094 29.867-17.067 1.706-.853 3.413-2.56 4.266-3.413L128 102.187l-22.187 11.946h-5.12c-6.826.854-15.36 1.707-17.066 4.267-.854.853-1.707 2.56-3.414 3.413-6.826 3.414-17.066 1.707-23.04-5.12-5.12-7.68-3.413-17.066 3.414-22.186 4.266-2.56 7.68-3.414 11.093-3.414 5.973 0 21.333 3.414 34.133.854l3.414-.854c12.8-2.56 28.16-12.8 34.133-24.746 0 0 5.973-11.094 13.653-23.04 7.68-12.8 6.827-26.454-.853-31.574L141.653 3.2c-7.68-4.267-19.626-4.267-27.306 0L13.653 58.667C5.973 62.933 0 74.027 0 82.56v109.227c0 8.533 5.973 17.92 13.653 22.186l101.547 56.32c7.68 4.267 19.627 4.267 27.307 0l99.84-57.173c7.68-4.267 13.653-13.653 13.653-22.187V82.56c0-8.533-5.973-17.92-13.653-22.187z"/>
</svg>
