<svg xmlns="http://www.w3.org/2000/svg" viewBox="0 0 256 170.969">
  <path fill="#5cd39b" fill-rule="evenodd" d="M51.195 55.356c-.006 25.104 0 50.21-.002 75.317.019 2.009.086 4.036.539 6.002.25 1.018.605 2.056 1.305 2.86.668.766 1.637 1.188 2.605 1.43 1.431.356 2.912.417 4.382.434 2.828-.027 5.671-.12 8.464-.61-1.51-7.323-1.21-14.829-1.225-22.258 10.027-.002 20.053-.002 30.079 0 .025 2.782-.01 5.566.017 8.348.084 3.948.413 8.003 1.995 11.67 1.03 2.426 2.856 4.536 5.228 5.727 3.209 1.641 6.897 1.966 10.449 1.96 4.076-.068 8.332-.658 11.84-2.881 2.662-1.642 4.514-4.392 5.315-7.39.883-3.327.96-6.875.25-10.243-.744-3.521-2.858-6.709-5.802-8.776-3.008-2.223-6.682-3.147-10.136-4.422l-12.881-4.534c-4.408-1.58-8.903-2.96-13.121-5.025-5.908-2.819-11.427-6.792-15.175-12.234-4.082-5.805-5.88-12.9-6.392-19.896-.373-5.164-.291-10.403.807-15.48-6.18 0-12.362-.003-18.541.001m52.833-1.227c-2.587 2.336-3.599 5.915-3.704 9.299-.074 2.976.118 6.16 1.77 8.739 1.266 1.955 3.228 3.317 5.227 4.438 2.926 1.603 6.056 2.785 9.19 3.904l12.671 4.394c3.965 1.396 7.988 2.656 11.807 4.429 6.046 2.743 11.744 6.567 15.85 11.855-.004-8.97-.002-17.94 0-26.91-8.96-.028-17.917.048-26.875.014-.065-3.764.192-7.548-.29-11.293-.463-3.475-1.609-7.107-4.298-9.51-2.75-2.43-6.587-3.058-10.14-2.964-3.95.095-8.18.883-11.208 3.605M18.153.005C29.165-.003 40.178 0 51.19.003c.004 9.72 0 19.441.002 29.161 7.2.004 14.401-.002 21.601.002.004 5.81-.004 11.624.004 17.437 2.952-5.839 7.725-10.675 13.399-13.903 7.837-4.509 16.932-6.294 25.875-6.777 8.793-.438 17.808.13 26.143 3.16 6.374 2.3 12.23 6.293 16.23 11.814.884 1.2 1.68 2.463 2.396 3.769-.008-5.166-.002-10.333-.002-15.5 11.008-.004 22.016.002 33.024-.002.032 32.709.002 65.42.015 98.128.057 3.386.345 6.88 1.807 9.984.889 1.929 2.428 3.558 4.352 4.475 2.392 1.159 5.088 1.46 7.714 1.534 4.206.116 8.546-.885 12-3.363 3.474-2.444 5.734-6.368 6.494-10.51.584-2.845.439-5.76.456-8.645.002-30.534-.005-61.067.004-91.6 11.01-.003 22.023-.003 33.033 0 .002 46.138.002 92.277 0 138.415-10.53.009-21.06.003-31.587.003-.007-3.184.008-6.368-.007-9.55-4.594 4.933-10.481 8.622-16.882 10.717-4.786 1.583-9.843 2.295-14.877 2.207-7.384-.028-15.083-1.442-21.183-5.833-5.656-3.991-9.333-10.228-11.34-16.752-2.98 5.871-7.633 10.84-13.187 14.356-6.836 4.374-14.81 6.68-22.817 7.657-5.295.647-10.65.71-15.972.41-6.652-.414-13.348-1.531-19.5-4.18-5.03-2.154-9.615-5.457-12.964-9.811a33.339 33.339 0 0 1-2.628-3.942c.004 4.414 0 8.83.002 13.245-5.936 1.73-12.096 2.544-18.263 2.816-3.85.158-7.712.234-11.56-.025-3.837-.285-7.704-.953-11.224-2.563-3.121-1.43-5.882-3.668-7.855-6.488-2.13-3.001-3.429-6.51-4.255-10.076-1.086-4.737-1.418-9.611-1.486-14.459-.002-26.653.004-53.305-.002-79.958-6.049-.006-12.099 0-18.147-.002-.004-8.73-.006-17.46 0-26.188 6.048-.004 12.098.002 18.147-.002.004-9.72.002-19.441.002-29.16zM156.843 0H256c0 7.194-.002 14.385 0 21.577-33.052.004-66.106.002-99.16.002.004-7.194 0-14.385.002-21.579z"/>
</svg>
