<svg xmlns="http://www.w3.org/2000/svg" viewBox="0 0 256 192.719">
  <path fill="#3d9" d="M225.378 32.255c-.408-.408-.817-.408-1.225 0L118.813 136.37c-.408.408-.408.817 0 1.225l20.415 25.722-3.675 28.58c0 .41 0 .818.409.818h.408c.408 0 .408 0 .817-.409l88.6-159.234c.408 0 0-.817-.409-.817zM256 69.002l-20.823-36.747c0-.408-.408-.408-.817-.408-.408 0-.408 0-.816.408L219.662 57.57v.817c0 .408.408.408.408.408l34.705 11.024h.408c.409 0 .409 0 .817-.408zM131.879 164.95v-.817L1.225 0S0 .408 0 .817l13.474 137.186-9.8 54.712h124.122c.408.408 4.083-27.764 4.083-27.764z"/>
</svg>
