<svg xmlns="http://www.w3.org/2000/svg" viewBox="0 0 512 224.717">
  <path fill="#14d8cc" fill-rule="evenodd" d="M512 7.66v158.324c0 4.231-3.44 7.66-7.68 7.66H327.68v43.412c0 4.231-3.438 7.66-7.68 7.66H7.68c-4.242 0-7.68-3.429-7.68-7.66V58.733c0-4.229 3.438-7.661 7.68-7.661h304.64V7.661C312.32 3.429 315.76 0 320 0h184.32c4.24 0 7.68 3.43 7.68 7.66zm-50.596 45.455a2.05 2.05 0 0 0-2.045-2.043h-10.24a2.05 2.05 0 0 0-2.048 2.043v38.398c0 .613-.717.818-.922.205L432.123 52.91c-.307-.922-1.024-1.839-2.56-1.839H417.38a2.051 2.051 0 0 0-2.048 2.043v67.402c0 1.124.924 2.043 2.048 2.043h10.237a2.05 2.05 0 0 0 2.048-2.043V85.18c0-.612.717-.814.922-.204l13.926 35.848c.305.817 1.022 1.736 2.763 1.736h12.083a2.05 2.05 0 0 0 2.045-2.043zm-57.444 57.698a2.05 2.05 0 0 0-2.048-2.04h-8.701c-.615 0-1.024-.406-1.024-1.021V65.88c0-.613.41-1.024 1.024-1.024h7.68a2.049 2.049 0 0 0 2.045-2.04v-9.701a2.05 2.05 0 0 0-2.045-2.043h-31.739c-1.126 0-2.05.917-2.05 2.043v9.701c0 1.124.924 2.04 2.05 2.04h7.677c.615 0 1.024.411 1.024 1.024v41.872c0 .615-.41 1.021-1.024 1.021h-8.701a2.05 2.05 0 0 0-2.048 2.04v9.704c0 1.124.922 2.043 2.048 2.043h33.784a2.05 2.05 0 0 0 2.048-2.043zm-91.64-44.42H16.64a1.28 1.28 0 0 0-1.28 1.277v140.448c0 .705.573 1.277 1.28 1.277h294.4c.707 0 1.28-.572 1.28-1.277zm-45.376 92.941c1.126 0 2.048.92 2.048 2.043v10.212a2.051 2.051 0 0 1-2.048 2.043h-37.573a2.051 2.051 0 0 1-2.048-2.043v-67.402a2.05 2.05 0 0 1 2.048-2.043h37.163a2.05 2.05 0 0 1 2.048 2.043v10.212a2.051 2.051 0 0 1-2.048 2.043H242.68c-.614 0-1.026.408-1.026 1.021v12.255c0 .613.412 1.021 1.026 1.021h23.035c1.127 0 2.048.92 2.048 2.043v10.212a2.05 2.05 0 0 1-2.048 2.043H242.68c-.614 0-1.026.408-1.026 1.021v12.255c0 .613.412 1.021 1.026 1.021zm-53.04-57.19a2.05 2.05 0 0 1 2.045 2.043v67.402a2.05 2.05 0 0 1-2.046 2.043H201.82c-1.74 0-2.457-.92-2.762-1.736l-13.926-35.848c-.205-.61-.922-.408-.922.204v35.337a2.05 2.05 0 0 1-2.048 2.043h-10.238a2.053 2.053 0 0 1-2.048-2.043v-67.402c0-1.126.925-2.043 2.048-2.043h12.184c1.538 0 2.252.917 2.56 1.839l14.026 38.807c.207.613.921.408.921-.205v-38.398a2.05 2.05 0 0 1 2.048-2.043zm-57.754 0c1.129 0 2.048.917 2.048 2.043v48c0 12.357-10.238 22.569-24.369 22.569-13.921 0-24.161-10.212-24.161-22.57v-48a2.05 2.05 0 0 1 2.05-2.042h10.34c1.124 0 2.048.917 2.048 2.043v48c0 4.492 3.684 8.169 9.723 8.169 6.25 0 9.933-3.677 9.933-8.17v-48a2.05 2.05 0 0 1 2.048-2.042zm-56.318 2.043v10.212a2.051 2.051 0 0 1-2.048 2.043H84.987c-.615 0-1.024.408-1.024 1.021v54.126a2.053 2.053 0 0 1-2.048 2.043H71.677a2.051 2.051 0 0 1-2.048-2.043v-54.126c0-.613-.41-1.021-1.024-1.021H55.808a2.05 2.05 0 0 1-2.048-2.043v-10.212c0-1.126.919-2.043 2.048-2.043h41.976a2.05 2.05 0 0 1 2.048 2.043z"/>
</svg>
