<svg xmlns="http://www.w3.org/2000/svg" viewBox="0 0 511.664 172.505">
  <g fill="#2a3743">
    <path d="M16.387 169.151V72.842H0V38.57h16.387V0H54.02v38.569h16.375v34.273H54.02v61.804h12.544v34.505zM213.833 38.575v96.297h15.922v34.28h-50.874v-17.08c-4.26 6.432-9.515 11.236-15.739 14.405-6.223 3.17-13.615 4.755-22.126 4.755-14.478 0-25.627-4.271-33.46-12.838-7.826-8.555-11.73-20.842-11.73-36.88v-48.44H79.445V38.57h54.246v71.79c0 9.76 1.603 16.693 4.816 20.78 3.212 4.112 8.5 6.168 15.86 6.168 6.885 0 12.38-2.423 16.492-7.27 4.1-4.84 6.156-11.4 6.156-19.69v-37.29h-14.986V38.55h51.81v.024h-.005zM252.151 169.151V72.842h-16.387V38.57h16.387V0h37.633v38.569h16.375v34.273h-16.375v61.804h12.544v34.505zM319.964 128.949h35.197c.233 4.65 1.616 8.187 4.124 10.629 2.515 2.429 6.144 3.659 10.862 3.659 4.48 0 7.912-.985 10.28-2.962 2.368-1.97 3.543-4.816 3.543-8.536 0-5.354-5.85-9.411-17.537-12.202-4.565-1.089-8.176-2.007-10.807-2.784-12.324-3.482-21.374-8.5-27.175-15.04-5.807-6.542-8.72-15.005-8.72-25.383 0-12.318 4.143-22.249 12.428-29.794 8.286-7.551 19.208-11.326 32.762-11.326 5.416 0 10.28.654 14.57 1.97 4.302 1.322 8.39 3.445 12.263 6.388V38.11h27.175v37.058h-34.506c-.692-4.26-1.97-7.3-3.83-9.118-1.861-1.823-4.608-2.73-8.256-2.73-3.708 0-6.724.907-9.007 2.73-2.282 1.817-3.427 4.161-3.427 7.025 0 3.64 1.28 6.468 3.825 8.48 2.564 2.014 8.762 4.26 18.596 6.738 16.252 4.186 27.45 9.332 33.557 15.45 6.12 6.12 9.179 14.742 9.179 25.903 0 12.691-4.436 23.02-13.303 30.957-8.867 7.943-20.34 11.902-34.439 11.902-5.733 0-10.94-.814-15.628-2.43-4.687-1.633-9.08-4.148-13.18-7.545v6.621h-28.577V128.95h.03zM511.664 81.85h-23.73V58.107h-33.172V81.85h-23.736v33.165h23.736v23.73h33.172v-23.73h23.73V81.85z"/>
  </g>
</svg>
