<svg xmlns="http://www.w3.org/2000/svg" viewBox="0 0 256 174.466">
  <path fill="#0096e5" d="M214.05 72.451c.597-3.468.97-7.017.97-10.66C215.02 27.667 187.436 0 153.406 0 129.13 0 108.19 14.128 98.152 34.609c-6.474-2.963-13.644-4.655-21.23-4.655-28.33 0-51.296 23.033-51.296 51.452 0 4.89.725 9.608 1.99 14.092C11.584 100.864 0 116.025 0 133.93a40.32 40.32 0 0 0 3.631 16.722l70.906-71.13-11.917-11.52 44.558-6.857-6.95 43.208-11.325-10.944-72.7 72.913c6.751 5.092 15.12 8.144 24.212 8.144h12.87L163.888 63.52l-11.918-11.52 44.559-6.858-6.95 43.208-11.328-10.944-96.76 97.061h46.498l54.764-54.933-11.918-11.513 44.558-6.858-6.95 43.208-11.324-10.944-40.917 41.04h48.503c28.334 0 51.295-23.036 51.295-51.451 0-25.214-18.097-46.157-41.964-50.564"/>
</svg>
