<svg xmlns="http://www.w3.org/2000/svg" viewBox="0 0 256 256">
  <path fill="#f12e45" d="M128 0c70.656 0 128 57.344 128 128s-57.344 128-128 128S0 198.656 0 128 57.344 0 128 0zm0 33.792c-52.224 0-94.208 41.984-94.208 94.208S75.776 222.208 128 222.208s94.208-41.984 94.208-94.208S180.224 33.792 128 33.792zm31.744 99.328c14.704 0 26.624 11.92 26.624 26.624 0 14.704-11.92 26.624-26.624 26.624-14.704 0-26.624-11.92-26.624-26.624 0-14.704 11.92-26.624 26.624-26.624zm-63.488 0c14.704 0 26.624 11.92 26.624 26.624 0 14.704-11.92 26.624-26.624 26.624-14.704 0-26.624-11.92-26.624-26.624 0-14.704 11.92-26.624 26.624-26.624zm63.488-63.488c14.704 0 26.624 11.92 26.624 26.624 0 14.704-11.92 26.624-26.624 26.624-14.704 0-26.624-11.92-26.624-26.624 0-14.704 11.92-26.624 26.624-26.624zm-63.488 0c14.704 0 26.624 11.92 26.624 26.624 0 14.704-11.92 26.624-26.624 26.624-14.704 0-26.624-11.92-26.624-26.624 0-14.704 11.92-26.624 26.624-26.624z"/>
</svg>
