<svg xmlns="http://www.w3.org/2000/svg" viewBox="0 0 119.84 98.175">
  <path d="M108.059 25.176c.07 1.062.07 2.129.07 3.203 0 32.758-24.73 70.531-69.953 70.531v-.023A69.154 69.154 0 0 1 .488 87.777a49.64 49.64 0 0 0 5.852.36 49.142 49.142 0 0 0 30.535-10.633c-10.52-.203-19.746-7.117-22.969-17.215 3.684.719 7.485.57 11.098-.426C13.535 57.523 5.28 47.367 5.28 35.566v-.316a24.25 24.25 0 0 0 11.16 3.105C5.637 31.075 2.31 16.585 8.832 5.258 21.316 20.742 39.73 30.156 59.504 31.152c-1.98-8.605.723-17.629 7.113-23.683 9.903-9.383 25.477-8.903 34.785 1.078a49.073 49.073 0 0 0 15.614-6.02 24.825 24.825 0 0 1-10.809 13.707 48.578 48.578 0 0 0 14.121-3.898 50.217 50.217 0 0 1-12.27 12.84zm0 0" style="fill:#1c99f0;fill-opacity:1;fill-rule:nonzero;stroke:none" transform="translate(-.488 -.735)"/>
</svg>
