<svg xmlns="http://www.w3.org/2000/svg" viewBox="0 0 512 301.666">
  <path fill="#262627" d="M38.517 39.343C66.673 10.633 102.15-2.487 145.264.388c41.52 2.767 83.828 23.252 114.138 53.438 25.761 25.654 35.502 50.785 35.167 88.342 2.862-6.128 8.456-10.965 17.4-10.965 13.53 0 19.496 11.01 19.496 20.506v3.78h-30.002c0 6.64 3.866 11.682 10.506 11.682 4.705 0 8.993-2.69 11.093-7.143l7.478 2.94c-4.285 8.319-9.243 11.934-18.57 11.934-10.196 0-16.037-6.284-18.444-13.603-3.718 35.318-17.65 66.265-41.925 92.04-29.28 31.087-62.567 47.702-100.914 48.309l-1.254.014c-38.8.275-72.887-15.186-102.42-45.332C17.691 226.4 1.936 190.74.172 148.77c-1.842-44.065 11.03-81.58 38.344-109.427zm106.628-37.17c-42.6-2.84-77.565 10.09-105.35 38.422C12.844 68.072.137 105.103 1.96 148.695c1.745 41.524 17.316 76.765 46.33 106.383 29.521 30.134 63.56 45.393 102.368 44.781l1.219-.025c37.317-.927 69.766-17.298 98.422-47.722 25.401-26.97 39.342-59.65 41.99-97.16a25.97 25.97 0 0 1-.07-1.9c0-1.545.137-3.13.418-4.707 1.475-40.59-7.707-66.572-34.497-93.252-30.015-29.891-71.923-50.183-112.995-52.92zm54.026 129.704 13.604 31.037 14.428-31.037h10.17l-27.657 59.495h-10.171l8.048-17.31-18.492-42.185zm66.538-.673c12.352 0 18.907 8.066 18.907 21.849 0 13.445-6.64 21.85-19.077 21.85-4.959 0-9.243-2.355-11.343-5.378v21.846h-8.74v-59.493h8.74v4.873c1.597-2.775 6.384-5.547 11.513-5.547zm123.034 0c6.304 0 11.345 2.1 15.127 6.304 3.782 4.202 5.714 9.41 5.714 15.545 0 6.134-1.932 11.345-5.714 15.547-3.782 4.2-8.823 6.303-15.127 6.303-6.302 0-11.428-2.102-15.211-6.303-3.782-4.202-5.63-9.413-5.63-15.547s1.848-11.343 5.63-15.545c3.783-4.204 8.909-6.304 15.21-6.304zm-201.035-15.797v8.738h-18.56v50.086h-9.244v-50.086h-18.56v-8.738zm251.44 15.796c1.931 0 3.695.338 5.376 1.01l-1.513 7.983c-1.343-.84-3.023-1.26-4.957-1.26-3.109 0-5.8 1.68-8.066 5.124-2.27 3.361-3.363 8.152-3.363 14.454v15.716h-8.739v-42.352h8.739v7.059c2.774-4.96 7.816-7.734 12.522-7.734zm60.752.001c7.646 0 12.1 5.041 12.1 12.689v30.336h-8.739v-28.402c0-4.455-2.438-6.891-6.22-6.891-5.461 0-9.916 7.141-9.916 18.318v16.975h-8.74v-28.402c0-4.455-2.437-6.891-6.216-6.891-5.632 0-9.918 7.141-9.918 19.243v16.05h-8.739v-42.352h8.739v7.227c3.447-5.295 7.647-7.9 12.773-7.9 5.715 0 10.422 3.446 11.683 8.74 2.939-5.63 7.73-8.74 13.193-8.74zm-141.647-16.47c2.773 0 5.045.503 6.977 1.512l-1.767 7.395a11.027 11.027 0 0 0-4.957-1.177c-3.78 0-5.714 2.186-5.714 6.64v2.773h9.327v7.73h-9.327v34.622h-8.739v-34.622h-5.463v-7.73h5.463v-2.184c0-10.002 5.38-14.96 14.2-14.96zm-93.723 24.201c-3.193 0-5.798 1.261-7.814 3.868-2.018 2.518-3.025 5.964-3.025 10.25s1.007 7.73 3.025 10.336c2.016 2.52 4.621 3.782 7.814 3.782 3.195 0 5.8-1.261 7.818-3.782 2.016-2.606 3.023-6.05 3.023-10.336 0-4.286-1.007-7.732-3.023-10.25-2.018-2.607-4.623-3.868-7.818-3.868zm124.213 0c-3.614 0-6.47 1.428-8.572 4.202-2.017 2.773-3.024 6.05-3.024 9.916 0 3.866 1.007 7.227 3.024 10 2.102 2.775 4.958 4.118 8.572 4.118 3.613 0 6.472-1.343 8.488-4.118 2.1-2.773 3.11-6.134 3.11-10 0-3.866-1.01-7.143-3.11-9.916-2.016-2.774-4.875-4.202-8.488-4.202zm-76.774.002c-5.63 0-9.329 3.78-10.336 9.243h20.588c-.756-5.295-4.286-9.243-10.252-9.243z"/>
</svg>
