<svg xmlns="http://www.w3.org/2000/svg" viewBox="0 0 512 124.558">
  <path fill="#007acc" d="M63.818 11.338H37.254v82.283H26.402V11.338H0V1.62h63.818zm50.05 16.522-30.29 76.29c-5.345 13.605-12.957 20.408-22.676 20.408-2.753 0-5.02-.324-6.803-.81v-9.394c2.268.81 4.374 1.134 6.155 1.134 5.345 0 9.233-3.24 11.986-9.557l5.184-12.472-25.592-65.6h11.662L81.31 78.396c.162.648.648 2.268 1.296 5.022h.324c.162-.972.648-2.592 1.296-4.86l18.627-50.697zm17.169 56.205h-.324v39.683h-10.528V27.86h10.528v11.5h.324c5.183-8.747 12.796-13.12 22.676-13.12 8.423 0 15.064 2.915 19.761 8.746 4.697 5.831 7.127 13.768 7.127 23.649 0 11.014-2.753 19.76-8.099 26.401-5.345 6.641-12.634 9.88-21.866 9.88-8.26.325-14.902-3.4-19.599-10.851zm-.162-26.402v9.232c0 5.507 1.782 10.043 5.345 13.768 3.564 3.725 7.937 5.67 13.444 5.67 6.317 0 11.338-2.43 15.064-7.29 3.563-4.859 5.345-11.662 5.345-20.408 0-7.29-1.62-13.12-5.021-17.17-3.402-4.211-7.937-6.155-13.768-6.155-6.155 0-11.014 2.106-14.74 6.317-3.887 4.212-5.669 9.557-5.669 16.036zm114.192 5.669h-46.325c.162 7.289 2.106 12.958 5.831 17.007 3.726 4.05 8.909 5.993 15.55 5.993 7.45 0 14.253-2.43 20.408-7.289v9.88c-5.83 4.212-13.443 6.318-22.838 6.318-9.232 0-16.521-2.916-21.866-8.909-5.346-5.993-7.937-14.416-7.937-25.106 0-10.204 2.915-18.627 8.747-24.944 5.83-6.479 12.957-9.718 21.542-9.718s15.226 2.753 19.923 8.422c4.697 5.508 7.127 13.282 7.127 23.163zm-10.853-8.909c0-6.155-1.457-10.852-4.373-14.253-2.915-3.402-6.965-5.022-11.986-5.022-5.021 0-9.232 1.782-12.634 5.346-3.401 3.563-5.669 8.26-6.479 13.93zm16.036 35.959v-7.29c6.64 4.212 13.282 6.318 20.085 6.318 7.127 0 12.634-1.458 16.36-4.536 3.724-3.077 5.506-7.126 5.506-12.472 0-4.697-1.296-8.422-3.725-11.338-2.43-2.753-7.937-6.64-16.198-11.5-9.394-5.507-15.225-10.042-17.655-13.606-2.43-3.725-3.725-7.936-3.725-12.634 0-6.479 2.591-11.986 7.613-16.521C263.53 2.268 270.335 0 278.757 0c5.507 0 11.015.972 16.36 2.754v6.64c-5.345-2.43-11.176-3.725-17.331-3.725-6.317 0-11.177 1.62-14.902 4.697-3.726 3.24-5.507 7.127-5.507 11.986 0 4.698 1.296 8.423 3.725 11.177 2.43 2.753 7.937 6.64 16.198 11.338 8.584 4.859 14.253 9.232 17.169 12.958 2.915 3.725 4.211 8.098 4.211 13.12 0 7.126-2.43 12.796-7.289 17.33-4.859 4.536-11.824 6.642-20.732 6.642-3.24 0-6.803-.486-11.015-1.458-4.21-.972-7.288-1.782-9.394-3.077zm103.177.323c-4.859 2.916-10.69 4.536-17.493 4.536-8.908 0-16.197-3.078-21.704-9.233-5.507-6.155-8.261-14.092-8.261-24.134 0-10.366 3.078-18.95 9.233-25.592 6.155-6.64 14.091-10.042 23.81-10.042 5.02 0 9.88.972 14.577 3.077v6.641c-4.697-2.915-9.88-4.373-15.387-4.373-7.775 0-13.93 2.754-18.79 8.26-4.858 5.508-7.126 12.797-7.126 21.543 0 8.585 2.268 15.388 6.64 20.57 4.374 5.184 10.205 7.776 17.332 7.776 6.641 0 12.31-1.782 17.17-5.184zm39.198-56.69c-1.944-1.458-4.211-2.106-6.965-2.106-5.183 0-9.556 2.753-12.958 8.099-3.563 5.345-5.183 12.958-5.183 22.838v30.937h-5.83V27.86h5.83v14.577h.324c1.458-5.021 3.887-8.908 7.127-11.662 3.24-2.753 6.965-4.211 11.338-4.211 2.43 0 4.697.324 6.48 1.134v6.317zm9.395-22.677c-1.296 0-2.43-.486-3.402-1.458-.972-.971-1.458-2.105-1.458-3.563 0-1.458.486-2.592 1.458-3.401.972-.81 2.106-1.296 3.402-1.296 1.295 0 2.43.486 3.563 1.296.972.81 1.458 1.943 1.458 3.401a5.025 5.025 0 0 1-1.458 3.563c-1.134.972-2.268 1.458-3.563 1.458zm-2.916 82.283V27.86h5.831V93.62zm26.078-11.662h-.324v41.951h-5.831V27.86h5.831v13.605h.324c2.43-4.859 5.669-8.584 10.042-11.176 4.374-2.591 9.233-3.887 14.416-3.887 8.423 0 14.902 2.915 19.599 8.584 4.697 5.831 6.965 13.606 6.965 23.487 0 11.014-2.754 19.922-8.099 26.725-5.345 6.803-12.472 10.205-21.219 10.205-9.718-.162-17.007-4.536-21.704-13.444zm-.324-24.458v8.26c0 6.641 2.106 12.31 6.155 17.008 4.211 4.697 9.556 7.127 16.36 7.127 6.64 0 12.147-2.916 16.359-8.585 4.211-5.831 6.317-13.282 6.317-22.676 0-8.261-1.944-14.74-5.831-19.6-3.888-4.858-8.909-7.288-15.388-7.288-7.613 0-13.606 2.592-17.817 7.775s-6.155 11.014-6.155 17.979zM512 92.649c-3.078 1.458-5.993 2.106-8.585 2.106-9.718 0-14.577-5.831-14.577-17.493V33.367h-11.824v-5.345h11.824v-17.17l2.915-.972 2.916-.971v19.113H512v5.345h-17.331v43.409c0 4.535.648 7.774 2.105 9.88 1.458 2.106 3.888 3.078 7.29 3.078 2.429 0 5.02-.81 7.936-2.43z"/>
</svg>
