<svg xmlns="http://www.w3.org/2000/svg" viewBox="0 0 255.367 255.363">
  <path fill="#dd4814" d="M255.367 127.683c0 70.514-57.165 127.68-127.683 127.68C57.164 255.363 0 198.197 0 127.683 0 57.165 57.165 0 127.684 0s127.683 57.165 127.683 127.683z"/>
  <path fill="#fff" d="M40.863 110.633c-9.42 0-17.05 7.631-17.05 17.05 0 9.414 7.63 17.046 17.05 17.046 9.414 0 17.046-7.632 17.046-17.046 0-9.419-7.632-17.05-17.046-17.05zm121.715 77.478c-8.154 4.71-10.95 15.13-6.24 23.279 4.705 8.154 15.125 10.949 23.279 6.24 8.153-4.705 10.948-15.125 6.239-23.28-4.704-8.148-15.13-10.943-23.278-6.239zm-84.686-60.428c0-16.846 8.367-31.73 21.171-40.742L86.6 66.067c-14.915 9.97-26.012 25.204-30.624 43.047 5.381 4.39 8.826 11.075 8.826 18.568 0 7.489-3.445 14.174-8.826 18.565C60.582 164.094 71.68 179.33 86.6 189.3l12.463-20.88c-12.804-9.007-21.171-23.89-21.171-40.737zm49.792-49.797c26.013 0 47.355 19.944 49.595 45.38l24.29-.358c-1.195-18.778-9.398-35.636-22.003-48.032-6.481 2.449-13.969 2.074-20.44-1.656-6.482-3.741-10.547-10.052-11.658-16.902a74.26 74.26 0 0 0-19.786-2.69 73.787 73.787 0 0 0-32.818 7.663l11.845 21.227a49.596 49.596 0 0 1 20.975-4.632zm0 99.59a49.601 49.601 0 0 1-20.974-4.632l-11.845 21.225a73.712 73.712 0 0 0 32.819 7.671 74.04 74.04 0 0 0 19.785-2.697c1.11-6.85 5.177-13.155 11.658-16.902 6.476-3.737 13.958-4.105 20.44-1.656 12.605-12.396 20.808-29.254 22.003-48.032l-24.296-.358c-2.235 25.443-23.576 45.38-49.59 45.38zm34.888-110.231c8.154 4.708 18.575 1.92 23.279-6.234 4.71-8.154 1.92-18.575-6.234-23.285-8.154-4.704-18.574-1.91-23.285 6.244-4.703 8.15-1.908 18.57 6.24 23.275z"/>
</svg>
