<svg xmlns="http://www.w3.org/2000/svg" viewBox="0 0 256 255.993">
  <style>
    .st1{fill:#fff}
  </style>
  <g transform="translate(-47.341 -47.341) scale(.70135)">
    <linearGradient id="a" x1="-.075" x2="1.141" y1="-.109" y2="-.109" gradientTransform="matrix(0 -300 300 0 282.83 409.95)" gradientUnits="userSpaceOnUse">
      <stop offset="0" stop-color="#FF780B"/>
      <stop offset="1" stop-color="#FFA322"/>
    </linearGradient>
    <path fill="url(#a)" d="M352.39 432.5H147.61c-44.24 0-80.11-35.87-80.11-80.11V147.61c0-44.24 35.87-80.11 80.11-80.11H352.4c44.24 0 80.11 35.87 80.11 80.11V352.4c-.01 44.25-35.88 80.1-80.12 80.1z" style="fill:url(#a)"/>
    <path d="M208.77 385.57c-.45-.13-.89-.27-1.34-.4-37.68-10.63-55.41-52.52-45.15-86.5 5.39-17.85 16.98-31.09 32.11-41.4 10.16-6.94 20.71-13.31 30.87-20.23 14.54-9.93 25.54-22.78 31-39.77 6.69-20.78 4.48-40.26-10.38-56.9-15.62-17.5-35.75-24.32-58.86-21.34-29.64 3.82-51.81 19.5-67.89 44.27-.66 1.01-1.14 2.12-1.7 3.19 6.67-4.31 13.58-7.08 21.28-8.01 15.6-1.9 30.6 8.43 33.54 23.41 2.26 11.52-.73 22.06-7.59 31.18-7.32 9.73-15.37 18.94-23.34 28.18-18.37 21.33-27.82 45.53-23.87 73.94 3.32 23.86 15.52 42.51 35.33 55.87 16.79 11.31 36.02 14.6 55.99 14.51M258.89 232.04c10.8-.1 21.35 1.97 31.75 4.96 14.86 4.28 28.77 10.7 41.87 18.83 12.41 7.71 25.73 9.9 39.94 7.53 2.79-.46 5.54-1.37 8.15-2.43.92-.38 1.95-1.78 2.01-2.77.21-3.42.24-6.87-.06-10.28-1.03-11.57-4.71-22.26-11.29-31.88-7.98-11.66-19.16-19.04-32.39-23.47-2.24-.75-3.09-1.89-3.55-4-.64-2.97-1.45-5.94-2.49-8.78-2.01-5.45-4.72-10.5-9.25-14.73-.84 1.03-1.56 1.82-2.17 2.69-6.3 9.04-8.77 19.25-8.78 30.08 0 3.1-.89 5.37-3.38 7.01-6.89 4.53-13.54 9.53-20.8 13.37-9.6 5.1-19.69 9.3-29.56 13.87" class="st1"/>
    <path d="M296.48 363.16c3.32-9.59 4.89-18.8 4.83-28.34-.08-12.53-2.34-24.65-8.64-35.4-14.26-24.35-35.7-37.13-64.18-36.93-14.09.1-26.62 4.92-36.87 14.89-5.04 4.89-8.88 10.61-11.78 17.76 26.79-28.32 70.31-19.81 86.88 5.71 10.06 15.5 12.61 32.08 6.63 49.58-6.02 17.64-19 28.55-36.09 35.21 31.88-.09 63.62-.52 96.1-3.47-7.9-15.63-21.96-17.85-36.88-19.01" class="st1"/>
    <path d="M383.89 296.76c-.32-5.8-3.19-9.68-7.53-12.58-5.33-3.55-11.46-4.45-17.68-5.02-11.29-1.02-22.14-3.69-32.11-9.21-8.52-4.72-16.69-10.12-25.43-14.38-13.75-6.7-28.51-10.03-43.74-11.41-10.44-.96-20.62-.1-30.59 3.14-1.17.38-2.26 1-3.39 1.51 1.31.49 2.4.51 3.47.49 11.74-.27 23.19 1.36 34.18 5.54 22.82 8.66 39.38 24.47 51.15 45.54 1.12 2.01 2.47 3.48 4.59 3.69 5.34.51 10.74 1.23 16.07.92 6.86-.39 13.02-3.53 19.2-6.4 7.26-3.37 14.89-5.07 22.95-3.75 2.78.42 5.53 1.17 8.86 1.92" class="st1"/>
    <path d="M208.77 385.57c-19.98.09-39.21-3.2-56-14.54-19.81-13.36-32.01-32.01-35.33-55.87-3.95-28.41 5.5-52.61 23.87-73.94 7.96-9.23 16.01-18.44 23.34-28.18 6.86-9.11 9.85-19.66 7.59-31.18-2.94-14.98-17.95-25.31-33.54-23.41-7.7.94-14.61 3.71-21.28 8.01.56-1.06 1.06-2.18 1.7-3.19C135.2 138.5 157.36 122.82 187 119c23.12-2.98 43.24 3.84 58.86 21.34 14.86 16.63 17.07 36.12 10.38 56.9-5.46 17-16.46 29.86-31 39.77-10.16 6.94-20.71 13.31-30.87 20.23-15.12 10.32-26.72 23.56-32.11 41.4-10.27 33.98 7.46 75.87 45.15 86.5.47.17.92.3 1.36.43M258.89 232.04c9.85-4.57 19.94-8.76 29.55-13.86 7.26-3.86 13.91-8.85 20.8-13.37 2.49-1.64 3.38-3.91 3.38-7.01.01-10.83 2.47-21.04 8.78-30.08.61-.86 1.33-1.65 2.17-2.69 4.53 4.22 7.24 9.28 9.25 14.73 1.05 2.85 1.85 5.82 2.49 8.78.46 2.12 1.31 3.25 3.55 4 13.23 4.43 24.41 11.81 32.39 23.47 6.58 9.61 10.26 20.31 11.29 31.88.3 3.41.28 6.86.06 10.28-.06 1-1.08 2.4-2.01 2.77-2.62 1.06-5.38 1.97-8.15 2.43-14.21 2.36-27.53.18-39.94-7.53-13.09-8.14-27.01-14.55-41.87-18.83-10.37-3.01-20.93-5.07-31.74-4.97" class="st1"/>
    <path d="M296.48 363.16c14.93 1.14 28.98 3.37 36.91 19.02-32.49 2.94-64.23 3.38-96.1 3.47 17.08-6.66 30.06-17.57 36.09-35.21 5.97-17.5 3.43-34.08-6.63-49.58-16.57-25.5-60.08-34.03-86.88-5.71 2.9-7.16 6.74-12.87 11.78-17.76 10.24-9.96 22.78-14.78 36.86-14.89 28.48-.21 49.92 12.58 64.18 36.93 6.3 10.76 8.55 22.87 8.64 35.4.04 9.55-1.53 18.74-4.85 28.33" class="st1"/>
    <path d="M383.89 296.76c-3.33-.74-6.08-1.51-8.88-1.96-8.05-1.31-15.68.38-22.95 3.75-6.18 2.87-12.34 6.01-19.2 6.4-5.33.29-10.73-.41-16.07-.92-2.12-.21-3.47-1.68-4.59-3.69-11.78-21.06-28.32-36.86-51.15-45.54-10.99-4.17-22.43-5.8-34.18-5.54-1.07.02-2.15 0-3.47-.49 1.13-.51 2.23-1.13 3.39-1.51 9.96-3.24 20.15-4.09 30.59-3.14 15.23 1.4 29.99 4.71 43.74 11.41 8.74 4.26 16.91 9.66 25.43 14.38 9.98 5.54 20.82 8.2 32.11 9.21 6.22.56 12.35 1.47 17.68 5.02 4.37 2.93 7.24 6.81 7.55 12.62M220.35 293.9c-21.51-.01-38.98 17.35-39.03 38.78-.05 21.62 17.37 38.98 39.09 38.93 21.6-.04 38.84-17.29 38.82-38.86-.01-21.53-17.33-38.84-38.88-38.85zm-.26 56.77c-9.81-.04-17.82-8.07-17.85-17.87-.01-9.84 8.19-17.97 18.13-17.97s18.04 8.2 17.9 18.12c-.12 10.08-7.99 17.75-18.18 17.72z" class="st1"/>
  </g>
</svg>
