<svg xmlns="http://www.w3.org/2000/svg" viewBox="0 0 256 256">
  <path fill="#02b3e4" d="M239.484.826 165.16 39.639v123.045c0 4.955 0 10.735-1.651 15.69-.826 4.955-2.478 9.91-4.13 14.039-.825.826-.825 2.477-1.651 3.303-2.477 0-20.645-5.78-28.903-11.561-3.303-2.478-6.607-4.955-9.91-8.258-3.303-3.303-5.78-6.607-8.258-9.91-2.477-3.303-4.955-7.432-6.606-11.561-1.652-4.13-3.304-8.258-4.13-13.213-.825-4.13-.825-9.084-.825-13.213V9.91L82.58 0 0 48.723v113.135C0 213.884 42.116 256 93.316 256c17.342 0 33.032-4.129 47.071-12.387l69.368-39.639C237.006 189.935 256 161.032 256 128.826V10.736zM147.819 216.36c-7.432 7.433-13.213 11.562-21.47 15.69-4.955 1.652-10.736 4.13-15.69 5.781-4.956.826-9.91 1.652-14.865 1.652s-13.213-.826-18.168-1.652-9.91-2.477-14.039-4.129c-4.129-1.651-9.084-4.129-13.213-7.432-10.735-7.432-15.69-14.039-20.645-20.645-2.477-4.13-4.955-8.258-7.432-13.213-1.652-4.955-3.303-9.084-4.13-14.039-1.65-5.78-1.65-11.561-1.65-16.516V58.632L82.58 19.82V128c0 41.29 30.554 75.148 69.367 83.406-1.651 1.652-2.477 3.304-4.129 4.955zm90.84-74.322c-.827 4.129-2.478 8.258-4.13 12.387-1.652 4.129-4.955 9.91-8.258 14.039-4.955 5.78-9.91 9.91-22.297 17.341-10.735 5.781-19.82 7.433-25.6 9.084 4.13-9.91 4.13-20.645 4.13-32.206l-.827-113.136 57.807-30.554v109.832c0 4.129 0 9.084-.826 13.213z"/>
</svg>
