<svg xmlns="http://www.w3.org/2000/svg" viewBox="0 0 256 209.312">
  <path fill="#ea5252" d="M251.7 119.285c-.9-.72-1.91-1.205-3.01-1.414-6.498 6.477-14.426 13.299-21.467 17.883-3.249 2.16-7.334 3.239-10.04 3.239-6.227 0-8.933-5.937-9.746-15.376-1.083-12.677-1.814-27.861-1.814-51.33 0-24.07-5.462-40.432-20.014-41.717a21.123 21.123 0 0 0-1.886-.092c-8.933 0-13.265 4.584-18.949 16.185-4.871 9.979-12.451 24.545-26.526 52.058-12.181 23.738-25.716 44.777-37.358 59.344-3.241 4.037-5.804 6.811-8.212 8.39-1.609 1.058-3.153 1.588-4.779 1.588-4.595 0-7.95-3.877-9.07-12.906-.266-2.145-.406-4.581-.406-7.324 0-18.61 7.04-48.822 19.219-93.33C106.575 22.116 102.786 0 83.294 0h-.218l-.014.003c-4.414.052-8.072 1.65-11.598 4.424C67.994 7.16 64.52 13.063 61.278 21c-3.655 8.94-25.88 53.519-61.254 76.485-.416 8.732 4.527 17.46 14.542 18.406 9.118.864 15.591-2.979 23.927-8.578a2304.314 2304.314 0 0 0-3.304 14.962c-.635 2.914-1.038 4.79-1.158 5.309-1.158 5.312-1.985 10.358-2.52 15.147-4.988 44.583 15.675 66.582 39.875 66.582 4.044 0 8.051-.481 12.031-1.493 26.663-6.76 52.33-37.344 82.713-107.749-.46 7.659-.509 14.812-.177 21.45 2.001 40.35 17.961 52.457 40.51 52.457 17.054 0 33.024-8.9 41.144-19.96 5.957-7.823 8.393-16.456 8.393-23.199 0-5.233-1.66-9.411-4.3-11.533"/>
</svg>
