<svg xmlns="http://www.w3.org/2000/svg" viewBox="0 0 512.003 145.355">
  <path fill="#645a53" d="M471.893 124.869h14.692l25.418-64.416h-14.542l-10.506 32.082-11.07-32.082h-16.23l19.327 46.53zm-72.918-49.125v33.02h-14.822V60.453h10.414l3.096 4.22c4.033-3.376 8.348-5.347 13.32-5.347 6.662 0 11.726 1.971 14.822 6.851 4.503-4.13 9.287-6.851 15.387-6.851 11.443 0 18.105 5.912 18.105 21.953v27.485h-14.822V82.968c0-7.411-3.004-9.57-7.788-9.57-2.814 0-5.158.75-7.786 2.439.19 1.689.282 3.47.282 5.442v27.485h-14.822V82.968c0-7.411-3.003-9.57-7.88-9.57-2.721 0-4.973.657-7.506 2.346zm-51.694 4.128h19.045c-1.032-6.284-4.41-9.287-9.475-9.287-4.318 0-8.443 2.533-9.57 9.287zm10.602 29.831c-14.26 0-25.706-7.036-25.706-25.61 0-17.356 11.071-24.86 23.83-24.86 15.383 0 22.232 10.787 22.232 27.768h-31.053c1.035 8.348 6.194 10.789 13.043 10.789 6.623 0 11.804-1.635 15.813-4.332l-2.011 11.757c-3.827 2.956-8.42 4.488-16.148 4.488zm-55.19-12.475c3.375 0 5.909-.565 8.535-2.534V73.681c-2.344-1.41-4.688-2.064-8.066-2.064-7.224 0-11.351 4.877-11.351 13.038 0 7.975 4.222 12.573 10.881 12.573zm11.443 7.973c-3.845 2.908-8.253 4.69-14.54 4.69-13.227 0-22.795-8.16-22.795-24.954 0-16.698 10.977-25.703 25.047-25.703 3.283 0 6.474.47 9.38 1.594V40.322h14.824v68.442h-9.382zM213.998 80.152V44.348h15.384v35.524c0 12.758 5.722 15.384 13.603 15.384 8.538 0 12.945-3.753 12.945-15.384V44.348h15.48v35.804c0 21.108-9.193 29.926-29.175 29.926-18.574 0-28.237-7.598-28.237-29.926z"/>
  <path fill="#ea5252" d="M174.79 82.837a4.73 4.73 0 0 0-2.09-.982c-4.512 4.497-10.018 9.235-14.907 12.418-2.256 1.5-5.093 2.25-6.972 2.25-4.325 0-6.203-4.124-6.768-10.678-.752-8.804-1.26-19.348-1.26-35.646 0-16.715-3.793-28.078-13.899-28.97a14.669 14.669 0 0 0-1.31-.064c-6.203 0-9.21 3.184-13.158 11.24-3.383 6.93-8.647 17.045-18.42 36.15-8.46 16.486-17.859 31.096-25.944 41.212-2.25 2.804-4.03 4.73-5.702 5.826-1.118.735-2.19 1.103-3.32 1.103-3.19 0-5.52-2.693-6.298-8.962-.185-1.49-.282-3.182-.282-5.087 0-12.924 4.89-33.904 13.346-64.812C74.01 15.358 71.38 0 57.843 0h-.152l-.01.002c-3.064.036-5.605 1.146-8.053 3.072-2.41 1.898-4.823 5.997-7.074 11.508C40.015 20.79 24.582 51.748.017 67.697c-.29 6.063 3.143 12.125 10.099 12.782 6.331.6 10.827-2.069 16.615-5.957a1600.089 1600.089 0 0 0-2.294 10.39c-.441 2.024-.721 3.326-.804 3.687a103.447 103.447 0 0 0-1.751 10.518c-3.464 30.96 10.886 46.238 27.691 46.238a33.77 33.77 0 0 0 8.355-1.037c18.516-4.694 36.34-25.933 57.44-74.825-.32 5.318-.354 10.286-.124 14.895 1.39 28.021 12.474 36.428 28.133 36.428 11.842 0 22.932-6.18 28.571-13.86 4.138-5.433 5.829-11.428 5.829-16.11 0-3.635-1.153-6.536-2.987-8.01"/>
</svg>
