<svg xmlns="http://www.w3.org/2000/svg" viewBox="0 0 256 345.931">
  <path fill="#ffbd2b" d="M119.86 20.537C182.707 9.435 238.215.215 243.108.027c6.962-.188 9.408.565 10.913 3.387 2.07 3.952 2.823 228.807.753 234.264-3.01 7.715-8.656 1.129-45.912-52.874-21.263-30.67-46.665-66.798-56.638-80.534-16.746-22.956-17.875-25.214-17.122-32.176l.94-7.338-4.516 3.763c-2.446 2.07-5.08 4.516-5.644 5.457-.753.94-2.823 1.129-4.516.376-2.823-.94-3.011-2.823-2.258-11.102.564-5.268 1.693-12.23 2.446-15.241.94-4.14.752-5.269-1.317-4.516-1.506.565-3.387 5.833-4.516 12.795-1.13 7.15-3.01 12.23-4.516 12.795-2.635.941-2.635-.564.94-20.133.941-4.892.753-6.21-1.317-5.457-1.505.565-3.198 4.704-3.763 10.16-1.693 14.113-3.01 16.371-11.101 20.134-5.645 2.635-11.102 8.468-22.204 23.52-26.155 35.564-34.622 49.112-33.87 54.38.942 7.339 6.022 9.785 12.231 5.645 12.231-7.715 30.295-15.994 38.198-17.123 4.704-.752 12.983-3.951 18.628-6.962 8.09-4.516 10.537-5.268 11.666-3.199 10.349 15.806 29.165 57.202 44.407 97.47 11.101 29.54 38.761 116.849 37.256 118.166-.376.376-2.822.376-5.269-.376-3.951-.941-6.02-5.08-15.24-30.671-6.022-16.37-12.231-31.235-13.737-33.117-2.822-3.01-9.22-3.199-83.356-3.199-59.836 0-80.723-.564-82.416-2.258C.564 274.37 0 245.957 0 159.59 0 63.438.376 45.186 2.634 43.305 4.14 41.988 56.825 31.827 119.86 20.537z"/>
</svg>
