<svg xmlns="http://www.w3.org/2000/svg" viewBox="0 0 512 101.164">
  <path fill="#303030" d="M50.582 0c27.953 0 50.582 22.629 50.582 50.582s-22.629 50.582-50.582 50.582S0 78.535 0 50.582 22.629 0 50.582 0zm6.275 18.73a32.2 32.2 0 0 0-6.085-.57c-17.97 0-32.422 14.547-32.422 32.422 0 12.55 7.131 23.484 17.59 28.809-.285 2.092 1.046 4.183 3.137 4.944.476.19 1.046.285 1.522.285.76 0 1.521-.19 2.187-.57.76-.38 1.33-.951 1.806-1.712.158-.237.317-.475.42-.768l.055-.182 3.708-10.935 12.931-36.795 3.708-10.934c.095-.285.19-.666.19-1.046.096-1.046-.19-1.997-.665-2.852-.57-.951-1.426-1.712-2.567-2.092-2.092-.666-4.374.19-5.515 1.997zm14.737 7.227-4.468 13.5c2.187 3.138 3.423 7.037 3.423 11.125a19.92 19.92 0 0 1-12.863 18.695l-.353.13-4.47 13.502c16.83-1.236 30.046-15.213 30.14-32.327 0-9.888-4.468-18.73-11.409-24.625zm373.47 1.996c6.941 0 13.311 2.472 17.875 6.846l-6.465 7.226c-2.662-3.233-6.465-5.04-10.554-5.04-2.377 0-4.659.571-6.655 1.712-2.282 1.236-4.184 3.043-5.42 5.515a2.706 2.706 0 0 0-.071.157l-.143.35-.071.158c-.666 1.426-1.046 3.043-1.236 4.564v2.377c0 .19.095.475.095.666l.095.475c0 .285.095.57.19.95.19.761.38 1.427.666 2.092 1.14 2.853 3.328 5.23 5.99 6.56l.19.096.095.095c.095.095.19.19.285.19a13.224 13.224 0 0 0 5.99 1.426c4.089 0 7.987-1.901 10.459-5.039l6.465 7.036v.285c-4.564 4.374-10.839 6.75-17.684 6.75-13.977 0-24.436-9.792-24.436-22.723 0-12.93 10.459-22.724 24.34-22.724zm44.117-.19C501.731 27.858 512 38.317 512 51.057v2.377h-34.704l.095.761c1.141 6.75 5.8 10.364 13.502 10.364 5.134 0 9.983-1.617 14.451-4.754 0-.095.096-.095.19 0l5.325 6.465c.095 0 .095.095 0 .19-5.42 4.279-12.836 6.75-20.157 6.75-15.402 0-25.29-8.937-25.386-22.723 0-6.275 2.282-12.075 6.37-16.164 4.28-4.278 10.364-6.56 17.21-6.56zm-195.482 0c13.976 0 24.53 9.698 24.53 22.724 0 12.93-10.554 22.724-24.53 22.724-13.977 0-24.435-9.793-24.435-22.724 0-12.93 10.553-22.724 24.435-22.724zm-66.84-19.206c.094 0 .19.095.19.19V36.51l1.235-1.33c3.899-4.565 9.413-7.037 15.498-7.037 11.41 0 20.252 9.793 20.252 22.249 0 12.55-8.747 22.058-20.252 22.058-6.56 0-12.265-2.662-16.163-7.511l-1.236-1.426v7.796c0 .095-.095.19-.19.19h-10.174a.204.204 0 0 1-.19-.19V8.747c0-.095.095-.19.19-.19zm109.34 21.203c.095 0 .19.095.19.19v23.39c0 1.33.095 2.566.476 3.707 1.236 3.233 4.658 5.515 8.271 5.515 3.709-.095 7.036-2.377 8.272-5.61.286-1.14.476-2.377.476-3.708V29.95c0-.095.095-.19.19-.19h10.839c.095 0 .19.095.19.19v21.773c-.38 8.462-2.852 19.871-19.967 19.871-16.492 0-19.47-8.948-19.94-18.792l-.026-.604V29.95c0-.095.095-.19.19-.19zm-206.321 0c.095 0 .19.095.19.19v23.39c0 1.33.095 2.566.475 3.707 1.236 3.233 4.66 5.515 8.272 5.515 3.708-.095 7.036-2.377 8.272-5.61.285-1.14.475-2.377.475-3.708V29.95c0-.095.096-.19.19-.19h10.84c.095 0 .19.095.19.19v21.773c-.38 8.462-2.853 19.871-19.967 19.871-16.829 0-19.586-9.317-19.966-19.396V29.95c0-.095 0-.19.19-.19zm264.414 0c16.156 0 19.343 8.587 19.91 18.19l.031.602c.01.201.018.402.026.604v22.153l-10.934.095a.204.204 0 0 1-.19-.19V47.92c0-1.331-.095-2.567-.476-3.708-1.236-3.233-4.659-5.515-8.272-5.515-3.708.095-7.035 2.377-8.271 5.61a15.213 15.213 0 0 0-.476 3.708v23.294c0 .095-.095.19-.19.19h-10.839a.204.204 0 0 1-.19-.19V29.95s0-.094.095-.094h9.413s.095 0 .095.095v1.711l.95-.38c2.663-1.046 5.8-1.521 9.318-1.521zm-206.987 0c16.83 0 19.587 9.317 19.967 19.396v22.153c0 .095-.095.19-.19.19v-.095h-10.84a.204.204 0 0 1-.19-.19V47.92c0-1.331-.094-2.567-.475-3.708-1.236-3.233-4.659-5.515-8.272-5.515-3.708.095-7.035 2.377-8.271 5.61a15.213 15.213 0 0 0-.476 3.708v23.294c0 .095-.095.19-.19.19H167.53a.204.204 0 0 1-.19-.19V29.95s0-.094.095-.094h9.413c.095 0 .19 0 .19.095v1.711l.95-.38c2.663-1.046 5.8-1.521 9.319-1.521zm-136.723.855c.456 0 .974 0 1.454.05l.352.045-12.55 36.701c-5.515-3.613-9.223-9.793-9.223-16.829 0-11.03 8.938-19.967 19.967-19.967zm243.117 6.56c-7.131 0-12.74 5.8-12.74 13.312 0 7.606 5.514 13.311 12.74 13.311 7.13 0 12.835-5.895 12.835-13.311s-5.61-13.311-12.835-13.311zm-52.294.476c-7.226 0-12.74 5.515-12.74 12.74 0 7.037 5.61 12.551 12.74 12.551 7.131 0 12.55-5.42 12.55-12.645 0-7.321-5.324-12.646-12.55-12.646zm247.49-1.046c-5.229 0-9.032 2.758-10.648 7.797-.19.475-.095.95.285 1.331.285.38.76.666 1.236.666h18.35c.476 0 .951-.286 1.237-.666.285-.38.38-.856.19-1.331-1.712-5.04-5.42-7.797-10.65-7.797z"/>
</svg>
