<svg xmlns="http://www.w3.org/2000/svg" viewBox="0 0 256 145.611">
  <path fill="#8f9495" d="M146.883 122.217c-42.006 0-65.441-22.838-65.982-64.309-.111-8.535.867-38.233 2.733-49.954 0 0 18.647-7.954 19.056-7.954.129 0 16.746 11.69 16.746 11.69-.893 10.003-1.32 40.609-1.254 45.73.326 24.898 10.184 37.523 29.292 37.521l.56-.003c24.466-.321 29.333-20.866 29.106-38.047-.043-3.478-1.024-37.417-1.754-44.879L193.636.234l18.656 8.169c.723 7.05 1.822 43.034 1.887 48.002.55 41.871-22.814 65.238-65.785 65.798-.51.012-1.011.014-1.511.014"/>
  <path fill="#496b8c" d="M234.679 72.028s4.493 14.502 11.293-1.281c6.8-15.783 3.355-38.29 3.355-38.29s21.395 45.507-12.431 79.162c0 0-7.505 8.594-23.788 13.445 0 .003 25.506-21.495 21.57-53.036"/>
  <path fill="#4a5d75" d="M50.327 90.25c40.062 15.927 60.312 49.929 120.226 37.146 59.914-12.782 51.127-73.493 51.127-73.493s13.18 30.554-7.191 62.308c-17.862 27.846-72.493 50.329-142.592-2.795 0 0-40.742-34.351-71.897-16.375-.001-.001 17.673-19.773 50.327-6.791"/>
  <path fill="#4b73a2" d="M82.817 97.501c-2.3-3.717-5.5-9.425-6.683-14.153 0 0-14.794-14.002-33.544-8.994-9.538 1.75-15.698 7.965-15.698 7.965 15.87-4.717 21.921-3.515 37.2 5.194 12.757 7.273 28.503 21.39 18.725 9.988"/>
</svg>
