<svg xmlns="http://www.w3.org/2000/svg" viewBox="0 0 255.527 159.839">
  <path fill="#e21836" d="M50.041 0h63.779c8.903 0 14.44 7.257 12.363 16.19L96.49 143.674c-2.096 8.901-11.01 16.164-19.919 16.164H12.8c-8.89 0-14.44-7.263-12.363-16.164L30.142 16.189C32.218 7.257 41.128 0 50.042 0"/>
  <path fill="#00447c" d="M108.513 0h73.344c8.901 0 4.887 7.257 2.793 16.19l-29.689 127.485c-2.083 8.901-1.433 16.164-10.353 16.164H71.264c-8.92 0-14.44-7.263-12.344-16.164L88.607 16.189C90.715 7.257 99.605 0 108.513 0"/>
  <path fill="#007b84" d="M178.948 0h63.778c8.916 0 14.453 7.257 12.359 16.19l-29.689 127.485c-2.095 8.901-11.016 16.164-19.93 16.164h-63.748c-8.92 0-14.453-7.263-12.364-16.164l29.694-127.486C161.125 7.257 170.028 0 178.948 0"/>
  <path fill="#fefefe" d="M66.698 40.855c-6.559.067-8.496 0-9.114-.146-.238 1.13-4.664 21.546-4.676 21.564-.953 4.13-1.647 7.074-4.002 8.976-1.337 1.105-2.897 1.638-4.707 1.638-2.908 0-4.603-1.444-4.887-4.183l-.055-.94s.886-5.533.886-5.565c0 0 4.645-18.604 5.477-21.064.043-.14.056-.213.067-.28-9.041.08-10.644 0-10.755-.146-.06.2-.284 1.354-.284 1.354l-4.743 20.97-.407 1.778-.788 5.817c0 1.726.338 3.134 1.013 4.325 2.16 3.776 8.325 4.342 11.812 4.342 4.492 0 8.707-.955 11.555-2.697 4.943-2.921 6.236-7.487 7.39-11.544l.535-2.082S65.8 43.65 66.613 41.135c.03-.14.043-.213.085-.28zm16.28 15.589c-1.153 0-3.261.28-5.154 1.207-.688.353-1.337.76-2.023 1.166l.619-2.234-.34-.376c-4.014.813-4.913.922-8.622 1.444l-.311.207c-.43 3.571-.813 6.256-2.41 13.275a832.317 832.317 0 0 1-1.871 7.779l.17.328c3.802-.201 4.955-.201 8.258-.147l.268-.29c.42-2.15.474-2.654 1.404-7.008.436-2.065 1.347-6.6 1.797-8.216.825-.382 1.64-.759 2.417-.759 1.851 0 1.626 1.616 1.555 2.26-.08 1.08-.754 4.608-1.446 7.638l-.462 1.956c-.322 1.444-.675 2.848-.996 4.28l.14.286c3.746-.201 4.889-.201 8.088-.147l.376-.29c.578-3.358.748-4.257 1.774-9.146l.516-2.246c1.003-4.396 1.506-6.626.748-8.441-.802-2.035-2.727-2.526-4.495-2.526zm18.187 4.602c-1.99.383-3.261.638-4.523.803-1.252.2-2.472.382-4.397.65l-.152.138-.14.11c-.2 1.433-.34 2.672-.606 4.129-.225 1.506-.572 3.218-1.136 5.677-.437 1.883-.663 2.539-.911 3.201-.243.662-.51 1.306-1.002 3.157l.115.171.097.157c1.798-.085 2.975-.146 4.185-.157 1.208-.043 2.459 0 4.396.011l.17-.138.181-.152c.28-1.67.322-2.12.493-2.934.17-.874.462-2.083 1.178-5.313.34-1.518.717-3.03 1.068-4.579.366-1.542.748-3.06 1.112-4.578l-.054-.183zm.043-6.206c-1.81-1.068-4.986-.729-7.123.747-2.131 1.445-2.374 3.497-.57 4.58 1.778 1.038 4.966.728 7.085-.76 2.127-1.476 2.392-3.51.608-4.567zm10.943 24.734c3.661 0 7.414-1.009 10.238-4.003 2.174-2.428 3.17-6.04 3.515-7.529 1.124-4.93.249-7.233-.85-8.635-1.67-2.138-4.62-2.823-7.681-2.823-1.84 0-6.225.182-9.65 3.339-2.459 2.277-3.595 5.368-4.28 8.33-.692 3.02-1.488 8.454 3.51 10.477 1.542.662 3.765.844 5.198.844zm-.286-11.095c.844-3.734 1.84-6.868 4.384-6.868 1.993 0 2.137 2.332 1.251 6.079-.158.831-.886 3.923-1.87 5.24-.687.972-1.5 1.56-2.398 1.56-.268 0-1.858 0-1.883-2.36-.012-1.167.225-2.357.516-3.65zm23.19 10.615.287-.29c.406-2.15.473-2.656 1.371-7.009.45-2.064 1.379-6.6 1.816-8.216.827-.384 1.627-.76 2.43-.76 1.839 0 1.615 1.615 1.542 2.259-.067 1.082-.742 4.61-1.446 7.64l-.437 1.955c-.334 1.445-.698 2.848-1.02 4.281l.14.286c3.76-.2 4.858-.2 8.076-.146l.389-.29c.564-3.36.716-4.259 1.774-9.146l.503-2.248c1.008-4.396 1.517-6.624.771-8.44-.825-2.035-2.762-2.526-4.505-2.526-1.155 0-3.274.278-5.156 1.208-.673.353-1.348.759-2.01 1.166l.576-2.234-.309-.378c-4.014.815-4.931.924-8.635 1.446l-.285.207c-.45 3.57-.815 6.254-2.411 13.274a884.326 884.326 0 0 1-1.87 7.779l.17.328c3.806-.2 4.943-.2 8.24-.146zm27.618.145c.237-1.153 1.64-7.99 1.653-7.99 0 0 1.195-5.017 1.268-5.199 0 0 .377-.522.753-.729h.553c5.222 0 11.118 0 15.74-3.4 3.145-2.331 5.295-5.775 6.254-9.96.249-1.026.432-2.246.432-3.466 0-1.603-.322-3.189-1.251-4.428-2.357-3.297-7.05-3.357-12.468-3.382l-2.67.025c-6.935.085-9.716.06-10.86-.08-.095.506-.277 1.404-.277 1.404s-2.485 11.513-2.485 11.532l-6.224 25.631c6.055-.073 8.538-.073 9.582.042zm4.603-20.451s2.642-11.49 2.63-11.447l.085-.589.037-.45 1.055.11s5.448.468 5.575.48c2.15.832 3.036 2.976 2.417 5.774-.564 2.557-2.223 4.707-4.354 5.745-1.755.88-3.905.953-6.12.953h-1.433zm16.445 9.904c-.698 2.975-1.5 8.41 3.473 10.347 1.586.675 3.006.875 4.45.802 1.526-.082 2.939-.847 4.248-1.948l-.355 1.36.226.29c3.577-.151 4.687-.151 8.562-.121l.351-.268c.566-3.327 1.1-6.557 2.57-12.921a1387.83 1387.83 0 0 1 2.167-9.104l-.115-.334c-4.001.742-5.07.9-8.92 1.446l-.292.238c-.04.309-.08.606-.117.903-.598-.967-1.466-1.793-2.804-2.307-1.712-.673-5.732.194-9.188 3.34-2.428 2.247-3.594 5.325-4.256 8.277zm8.404.182c.856-3.667 1.84-6.77 4.39-6.77 1.612 0 2.46 1.488 2.288 4.025-.137.632-.284 1.3-.46 2.053-.255 1.09-.532 2.17-.8 3.252-.274.74-.593 1.438-.943 1.903-.656.93-2.216 1.506-3.115 1.506-.255 0-1.828 0-1.882-2.319-.013-1.155.225-2.344.522-3.65zm43.886-12.109-.31-.353c-3.96.803-4.676.93-8.313 1.421l-.268.268c-.012.043-.023.11-.042.17l-.012-.06c-2.708 6.248-2.629 4.9-4.833 9.819-.013-.224-.013-.364-.025-.602l-.552-10.663-.347-.353c-4.147.803-4.245.93-8.076 1.421l-.298.268c-.042.127-.042.267-.067.42l.025.054c.479 2.447.364 1.901.844 5.763.224 1.895.522 3.8.746 5.672.378 3.133.59 4.675 1.051 9.455-2.587 4.269-3.2 5.884-5.69 9.63l.018.038-1.754 2.773c-.2.292-.382.493-.637.578-.28.139-.644.164-1.15.164h-.97l-1.445 4.803 4.954.086c2.91-.013 4.737-1.373 5.721-3.201l3.116-5.339h-.05l.328-.376c2.095-4.511 18.036-31.856 18.036-31.856zm-52.29 63.088h-2.102l7.78-25.73h2.58l.819-2.65.08 2.947c-.097 1.822 1.336 3.438 5.101 3.17h4.355l1.498-4.954h-1.638c-.942 0-1.38-.238-1.325-.748l-.08-2.999h-8.063v.016c-2.607.054-10.392.25-11.968.67-1.908.491-3.918 1.937-3.918 1.937l.79-2.654h-7.543l-1.571 5.266-7.883 26.122h-1.53l-1.5 4.919h15.023l-.504 1.64h7.403l.491-1.64h2.077zm-6.164-20.501c-1.208.334-3.456 1.347-3.456 1.347l2-6.575h5.992l-1.445 4.79s-1.852.11-3.09.438zm.115 9.394s-1.882.236-3.121.516c-1.22.37-3.51 1.536-3.51 1.536l2.065-6.843h6.024zm-3.358 11.168h-6.011l1.742-5.776h5.993zm14.477-15.96h8.665l-1.245 4.033h-8.78l-1.318 4.409h7.682l-5.817 8.19c-.407.602-.772.815-1.178.985-.407.206-.942.449-1.561.449h-2.131l-1.465 4.828h5.575c2.898 0 4.61-1.318 5.873-3.048l3.989-5.46.857 5.544c.181 1.038.928 1.646 1.433 1.882.558.28 1.135.76 1.95.832.873.037 1.504.067 1.924.067h2.739l1.645-5.404h-1.08c-.621 0-1.689-.104-1.87-.298-.183-.236-.183-.6-.28-1.154l-.87-5.555h-3.558l1.56-1.858h8.764l1.348-4.409h-8.114l1.264-4.032h8.089l1.5-4.973h-24.115zm-73.185 17.082 2.022-6.728h8.312l1.52-5.004h-8.32l1.27-4.141h8.13l1.506-4.846h-20.343l-1.475 4.846h4.621l-1.232 4.141h-4.634l-1.536 5.09h4.62l-2.696 8.901c-.364 1.179.171 1.628.51 2.175.347.533.698.886 1.488 1.087.814.182 1.373.29 2.131.29h9.371l1.67-5.543-4.154.57c-.802 0-3.024-.096-2.781-.838zm.953-32.208-2.106 3.807c-.451.832-.857 1.348-1.222 1.586-.322.2-.96.284-1.883.284h-1.099l-1.469 4.87h3.65c1.755 0 3.103-.643 3.747-.965.691-.37.873-.158 1.408-.674l1.233-1.068h11.398l1.512-5.071h-8.343l1.457-2.769zm16.827 32.306c-.194-.28-.054-.772.243-1.798l3.115-10.312h11.082c1.616-.023 2.782-.042 3.54-.096.815-.086 1.7-.376 2.666-.899.997-.547 1.507-1.124 1.937-1.786.48-.66 1.252-2.106 1.914-4.335l3.916-13.05-11.5.067s-3.542.523-5.101 1.1c-1.574.643-3.821 2.44-3.821 2.44l1.038-3.577h-7.104l-9.946 32.986c-.353 1.281-.59 2.21-.644 2.769-.019.601.759 1.197 1.262 1.646.596.45 1.476.376 2.32.45.887.066 2.15.108 3.892.108h5.46l1.676-5.658-4.888.461c-.522 0-.9-.28-1.057-.516zm5.368-19.074h11.64l-.74 2.32c-.104.054-.352-.116-1.537.024h-10.08zm2.332-7.78h11.738l-.844 2.794s-5.532-.054-6.419.11c-3.898.674-6.176 2.757-6.176 2.757zm8.83 17.866c-.097.347-.25.558-.463.717-.236.152-.618.207-1.189.207h-1.659l.098-2.825h-6.899l-.28 13.81c-.01.996.086 1.572.815 2.034.73.577 2.975.65 6 .65h4.322l1.561-5.169-3.764.207-1.251.073c-.171-.073-.334-.14-.516-.322-.159-.157-.426-.06-.382-1.057l.029-3.54 3.947-.163c2.131 0 3.042-.693 3.82-1.354.741-.633.984-1.36 1.263-2.344l.663-3.134h-5.424z"/>
</svg>
