<svg xmlns="http://www.w3.org/2000/svg" viewBox="0 0 512.003 162.223">
  <path fill="#0c0c0c" d="M209.961 92.39c0 4.944 0 11.124 3.554 15.914a16.268 16.268 0 0 0 12.978 5.561 16.485 16.485 0 0 0 12.977-5.561c3.554-4.635 3.554-10.66 3.554-15.914V49.44h12.669v44.495c0 9.116-.927 15.914-6.798 22.093-6.49 7.107-15.296 9.116-22.557 9.116a31.347 31.347 0 0 1-22.556-9.116c-5.871-6.488-6.798-13.286-6.798-22.093V49.44h13.132v42.95m149.862 28.119h11.742V47.432h-11.742zm6.025-109.693a8.93 8.93 0 0 1 8.498 9.115 8.93 8.93 0 0 1-8.498 9.116 8.806 8.806 0 0 1-8.497-9.116 8.806 8.806 0 0 1 8.497-9.115zm47.122 47.74v61.953h-12.36V58.556h-7.725V46.659h7.725V20.086h12.36v26.573h12.36v11.897h-12.36m-137.502 63.498V77.559c0-9.116.927-15.914 6.798-22.093 6.488-7.107 15.295-9.116 22.556-9.116a31.347 31.347 0 0 1 22.557 9.116c5.87 6.488 6.797 13.286 6.797 22.093v44.495h-12.668v-42.95c0-4.944 0-11.124-3.554-15.914a16.269 16.269 0 0 0-12.977-5.561 16.485 16.485 0 0 0-12.978 5.561c-3.554 4.79-3.554 10.66-3.554 15.914v42.95zm172.11-36.925c0 18.23 12.514 27.346 25.491 27.346 12.978 0 25.492-9.424 25.492-27.346 0-18.23-12.205-27.346-25.492-27.346-13.286 0-25.492 9.424-25.492 27.346zm-12.978 0c0-22.248 16.222-38.779 38.624-38.779s38.624 16.377 38.624 38.779c0 22.402-16.531 38.47-38.624 38.47-22.093.309-38.624-16.068-38.624-38.47z"/>
  <path fill="#3aafa9" d="m129.623 78.177-.155 18.54a3.569 3.569 0 0 1-3.398 3.553 3.569 3.569 0 0 1-3.4-3.554l.155-18.54c0-10.58-8.577-19.157-19.158-19.157-9.578 0-18.076 8.343-18.848 18.694v.773l-.31 7.107v.463a25.957 25.957 0 0 1-51.91-.463.14.14 0 0 0 .154-.155H32.6V67.671a3.306 3.306 0 0 1 3.368-3.245 3.306 3.306 0 0 1 3.399 3.214l-.155 17.767c0 10.58 8.578 19.158 19.158 19.158 10.58 0 19.158-8.577 19.158-19.158v-.618l.309-6.489v-.772c.957-14.029 12.236-25.152 25.677-25.152 14.374.05 25.99 11.736 25.955 26.11.155-.464.155-.464.155-.31zM81.42 0C36.624-.17.172 36.007 0 80.803c-.17 44.796 36.006 81.248 80.802 81.42 44.796.17 81.249-36.006 81.42-80.802v-.309C162.307 36.413 126.15.103 81.451.001z"/>
</svg>
