<svg xmlns="http://www.w3.org/2000/svg" viewBox="0 0 256 256.001">
  <path fill="#3aafa9" d="m204.556 123.37-.244 29.256a5.632 5.632 0 0 1-5.364 5.608 5.632 5.632 0 0 1-5.364-5.608l.244-29.257c0-16.697-13.535-30.232-30.232-30.232-15.116 0-28.526 13.166-29.745 29.5v1.22l-.487 11.215v.732a40.962 40.962 0 1 1-81.92-.732.22.22 0 0 0 .244-.244h-.244V106.79a5.218 5.218 0 0 1 5.315-5.12 5.218 5.218 0 0 1 5.364 5.072l-.244 28.038c0 16.696 13.535 30.232 30.232 30.232s30.232-13.536 30.232-30.232v-.976l.488-10.24v-1.219c1.512-22.138 19.31-39.692 40.521-39.692 22.683.08 41.014 18.52 40.96 41.204.244-.732.244-.732.244-.488zM128.487 0C57.796-.266.271 56.823.001 127.514-.267 198.205 56.82 255.73 127.513 256c70.691.269 128.217-56.82 128.487-127.51v-.488C256.134 57.462 199.075.163 128.536 0z"/>
</svg>
