<svg xmlns="http://www.w3.org/2000/svg" viewBox="0 0 512 107.885">
  <defs>
    <linearGradient id="a" x1="282.331" x2="282.331" y1="-.085" y2="76.404" gradientTransform="scale(1.10128 .90803)" gradientUnits="userSpaceOnUse">
      <stop offset="0%" stop-color="#487BF6"/>
      <stop offset="100%" stop-color="#0093CB"/>
    </linearGradient>
  </defs>
  <path fill="#5f5f5f" d="M0 68.719V21.184a2.644 2.644 0 0 1 2.678-2.678h14.06a2.644 2.644 0 0 1 2.677 2.678v47.033c0 14.227 7.198 21.758 18.914 21.758 11.716 0 18.913-7.197 18.913-21.089V21.184a2.644 2.644 0 0 1 2.678-2.678h14.06a2.644 2.644 0 0 1 2.678 2.678V68.05c0 26.613-14.897 39.668-38.497 39.668C14.394 107.717 0 94.495 0 68.72zm98.25-47.535a2.644 2.644 0 0 1 2.677-2.678h33.308c20.922 0 33.642 12.386 33.642 30.295v.335c0 20.252-15.733 30.797-35.483 30.797h-14.73V103.7a2.644 2.644 0 0 1-2.677 2.678h-14.06a2.644 2.644 0 0 1-2.678-2.678zm34.478 41.677c9.708 0 15.231-5.691 15.231-13.223v-.167c0-8.704-6.025-13.223-15.733-13.223H119.84a2.644 2.644 0 0 0-2.678 2.678v21.591a2.644 2.644 0 0 0 2.678 2.678h12.888zm48.037-.168v-.334c0-24.94 18.746-45.359 45.86-45.359 15.4 0 23.6 5.021 31.97 11.214 1.17.837 1.338 2.51.501 3.682L251.23 43.11c-.837 1.172-2.51 1.34-3.682.67-6.695-4.52-13.223-8.87-21.257-8.87-14.729 0-25.441 12.217-25.441 27.281v.67c0 15.063 12.218 27.951 27.282 27.282 8.201-.335 13.557-2.846 19.08-8.202a2.589 2.589 0 0 1 3.516-.167l9.373 8.201c1.004 1.005 1.171 2.678.167 3.683-8.034 9.038-18.746 14.227-34.647 14.227-25.608 0-44.856-20.085-44.856-45.192zm181.602 28.12 9.205-8.704c1.005-1.004 2.678-.837 3.683 0 6.695 6.36 14.394 8.369 23.6 8.369 7.866 0 12.72-3.18 12.72-8.202v-.335c0-4.853-3.013-7.364-17.742-11.214-17.741-4.519-29.123-9.373-29.123-26.78v-.334c0-15.901 12.72-26.446 30.797-26.446 11.884 0 22.094 3.515 30.63 9.54 1.171.838 1.339 2.511.67 3.683l-7.198 10.377c-.837 1.172-2.343 1.34-3.515.67-7.03-4.52-13.892-7.197-20.754-7.197-7.365 0-11.214 3.347-11.214 7.699v.335c0 5.69 3.682 7.699 18.913 11.548C420.78 58.51 430.823 64.87 430.823 80.1v.335c0 17.407-13.222 27.282-32.303 27.282-12.386 0-26.78-3.515-35.986-12.888-1.339-1.339-1.339-3.012-.167-4.017zm82.683-69.629a2.644 2.644 0 0 1 2.678-2.678h60.925a2.644 2.644 0 0 1 2.678 2.678v11.884a2.644 2.644 0 0 1-2.678 2.678h-41.844a2.644 2.644 0 0 0-2.678 2.678v12.553a2.644 2.644 0 0 0 2.678 2.678h36.153a2.644 2.644 0 0 1 2.678 2.678v11.884a2.644 2.644 0 0 1-2.678 2.678h-36.153a2.644 2.644 0 0 0-2.678 2.678v13.222a2.644 2.644 0 0 0 2.678 2.678h42.513A2.644 2.644 0 0 1 512 92.151v11.884a2.644 2.644 0 0 1-2.678 2.678h-61.594a2.644 2.644 0 0 1-2.678-2.678z"/>
  <path fill="url(#a)" d="M307.527 1.734c-9.692 14.037-37.264 54.642-46.12 68.512-1.17 1.67-.669 4.01.835 5.347 2.172 1.671 5.18 4.01 7.353 5.849 1.67 1.17 3.843 1.17 5.514-.167 15.875-13.703 19.05-16.21 28.741-25.066a10.017 10.017 0 0 1 13.536 0c12.7 11.363 18.38 15.708 28.908 25.233 1.504 1.337 3.844 1.504 5.347.167 2.34-1.838 5.515-4.178 7.687-5.849 1.671-1.337 2.005-3.509.836-5.347-9.024-14.037-36.429-54.475-46.12-68.512-1.337-2.506-4.846-2.506-6.517-.167z" style="fill:url(#a)"/>
</svg>
