<svg xmlns="http://www.w3.org/2000/svg" viewBox="0 0 511.738 151.876">
  <path fill="#6fda44" d="M139.92 96.478c-8.322 0-16.118-3.523-23.202-9.258l1.724-8.096.075-.3c1.537-8.62 6.41-23.089 21.402-23.089 11.245 0 20.39 9.146 20.39 20.39-.037 11.207-9.183 20.353-20.39 20.353zm0-61.395c-19.154 0-33.996 12.444-40.031 32.909-9.22-13.83-16.192-30.435-20.278-44.416H58.996v53.636c0 10.57-8.62 19.19-19.19 19.19-10.57 0-19.19-8.62-19.19-19.19V23.576H0v53.636c-.075 21.965 17.804 39.993 39.768 39.993 21.965 0 39.843-18.028 39.843-39.993v-8.995c4.01 8.358 8.921 16.791 14.88 24.288l-12.63 59.37h21.101l9.146-43.066c8.021 5.135 17.242 8.359 27.811 8.359 22.602 0 41.005-18.516 41.005-41.118 0-22.564-18.403-40.967-41.005-40.967z"/>
  <path d="m243.856 37.407 13.306 53.636 14.656-53.636h17.466l-22.527 77.512h-17.466l-13.83-53.974-13.794 53.936h-17.466L181.674 37.37h17.466l14.656 53.637 13.306-53.637h16.754zm87.22-2.324c-22.676 0-41.042 18.403-41.042 41.042 0 22.677 18.403 41.043 41.042 41.043 22.677 0 41.08-18.366 41.08-41.043 0-22.676-18.403-41.042-41.08-41.042zm0 65.218c-13.343 0-24.138-10.795-24.138-24.138 0-13.344 10.832-24.138 24.138-24.138 13.344 0 24.138 10.794 24.138 24.138 0 13.306-10.794 24.138-24.138 24.138zm90.968-45.54c-11.732 0-21.214 9.52-21.214 21.214v38.906h-17.58V37.407h17.58v11.919s7.496-11.957 22.9-11.957h5.398v17.392zm58.996 18.366c12.482-7.047 20.953-20.428 20.953-35.758h-17.58c0 12.931-10.494 23.426-23.425 23.426h-2.362L465.71 0h-24.663v114.881h17.58V78.374h2.098c1.724 0 3.973 1.125 4.985 2.512l24.963 33.995h21.065z"/>
</svg>
