<svg xmlns="http://www.w3.org/2000/svg" viewBox="0 0 512 128">
  <path fill="#ff6720" d="m80.96 0 21.44 14.08v70.4c-.32 24-20.8 42.56-37.44 42.56 16.32-9.92 20.48-24.32 20.48-38.4V22.4l-4.48-2.88-4.16 2.88v67.2l-.005.632C76.454 111.064 59.309 128 38.4 128 17.28 128 0 110.72 0 89.6v-4.16c0-4.16 4.16-8.64 4.16-12.8 0-2.88-1.92-6.08-3.2-8.96-.64-.96-.96-2.56-.96-3.84 0-4.8 3.84-8.64 8.32-8.64 4.8 0 8.64 3.84 8.64 8.64 0 1.28-.32 2.56-.96 3.84-1.28 2.88-3.2 6.08-3.2 8.96 0 4.16 4.16 8.64 4.16 12.8v4.16l.004.4c.174 9.421 6.516 17.24 15.036 20.08-4.16-5.76-6.4-12.8-6.4-20.48v-4.16c0-4.16 4.16-8.64 4.16-12.8 0-2.88-1.92-6.08-3.2-8.96-.64-.96-.96-2.56-.96-3.84 0-4.8 3.52-8.64 8.32-8.64 4.8 0 8.64 3.84 8.64 8.64 0 1.28-.32 2.56-.96 3.84-1.28 2.88-3.2 6.08-3.2 8.96 0 4.16 4.16 8.64 4.16 12.8v4.16c0 6.72 2.88 13.12 8 17.28 5.44-3.84 8.96-10.24 8.96-17.28V14.08zM8.64 28.16a8.64 8.64 0 1 1 0 17.28 8.64 8.64 0 0 1 0-17.28zm25.6-.32a8.64 8.64 0 1 1 0 17.28 8.64 8.64 0 0 1 0-17.28zM8.64 5.12a8.64 8.64 0 1 1 0 17.28 8.64 8.64 0 0 1 0-17.28zm25.6-.32a8.64 8.64 0 1 1 0 17.28 8.64 8.64 0 0 1 0-17.28z"/>
  <path fill="#464653" d="M297.28 48h-9.92v12.48h9.92c4.16 0 6.72-2.56 6.72-6.4 0-3.84-2.88-6.08-6.72-6.08zm86.08-.96c-4.16 0-7.04 1.92-8.32 6.08-.64 1.6-.96 3.84-.96 10.88 0 7.04.32 9.28.96 10.88 1.28 3.84 4.16 6.08 8.32 6.08s7.04-1.92 8.32-6.08c.64-1.6.96-3.84.96-10.88 0-7.04-.32-9.28-.96-10.88-.96-4.16-3.84-6.08-8.32-6.08zm127.36-8c.64 0 1.28.64 1.28 1.28v6.08c0 .64-.64 1.28-1.28 1.28h-21.76V59.2h18.24c.64 0 1.28.64 1.28 1.28v6.08c0 .64-.64 1.28-1.28 1.28h-18.24v11.84h21.76c.64 0 1.28.64 1.28 1.28v6.08c0 .64-.64 1.28-1.28 1.28h-30.08c-.64 0-1.28-.64-1.28-1.28V40.32c0-.64.64-1.28 1.28-1.28h30.08zm-88.96 0c.64 0 1.28.64 1.28 1.28v47.04c0 .64-.64 1.28-1.28 1.28h-7.04c-.64 0-1.28-.64-1.28-1.28V40.32c0-.64.64-1.28 1.28-1.28h7.04zm-94.4 0c.64 0 1.28.32 1.6 1.28l10.24 32.96 9.92-32.96c.32-.64.64-.96 1.6-.96h6.72c.32 0 .64.32.96.32.32.32.32.64 0 .96l-15.36 47.04c-.32.64-.64.96-1.28.96H336c-.64 0-1.28-.32-1.28-.96l-15.04-47.04v-.96c.32-.32.64-.32.96-.32zm-30.08 0c9.28 0 16 6.4 16 15.04 0 6.08-3.2 11.2-8.96 13.76l9.92 19.2c.32.32.32.96 0 1.28-.32.32-.64.64-.96.64h-7.68c-.64 0-1.28-.32-1.6-.96l-8.96-18.56h-7.68v18.24c0 .64-.64 1.28-1.28 1.28h-7.04c-.64 0-1.28-.64-1.28-1.28V40.32c0-.64.64-1.28 1.28-1.28h18.24zm-31.68 0c.64 0 1.28.64 1.28 1.28v6.08c0 .64-.64 1.28-1.28 1.28h-21.76V59.2h18.24c.64 0 1.28.64 1.28 1.28v6.08c0 .64-.64 1.28-1.28 1.28h-18.24v11.84h21.76c.64 0 1.28.64 1.28 1.28v6.08c0 .64-.64 1.28-1.28 1.28h-30.08c-.64 0-1.28-.64-1.28-1.28V40.32c0-.64.64-1.28 1.28-1.28h30.08zm187.2-.64c7.68 0 13.76 3.84 16.64 10.88.32.64 0 1.28-.64 1.6l-6.08 2.88c-.32.32-.64.32-.96 0-.32 0-.64-.32-.64-.64-1.92-3.84-4.48-5.76-8.32-5.76-4.16 0-6.72 1.92-8 6.08-.64 1.92-.96 3.84-.96 10.88v.96c0 6.4.32 8.32.96 9.92 1.28 4.16 4.16 6.08 8 6.08s6.72-1.92 8.32-6.08c0-.32.32-.64.64-.64h.96l6.08 2.88c.64.32.96.96.64 1.6-2.88 6.72-8.96 10.88-16.64 10.88-8.64 0-14.72-4.48-17.28-12.16-.96-3.2-1.28-5.76-1.28-13.44v-.96c0-6.72.32-9.28 1.28-12.48 2.56-8 8.64-12.48 17.28-12.48zm-247.36 0c5.76 0 11.84 1.92 16 5.12.64.64.64.96.32 1.92l-3.52 5.12c-.64.64-1.28.64-1.6.32-3.84-2.56-7.36-3.84-11.2-3.84-4.16 0-7.04 2.24-7.04 5.76 0 2.24.96 4.8 8.32 6.08l2.56.32C219.2 60.48 224 65.6 224 73.92c0 9.6-7.04 15.68-18.56 15.68-6.72 0-13.76-2.56-17.92-6.72-.64-.64-.64-1.28-.32-1.92l4.48-5.12c.32-.32.64-.32.96-.32.32 0 .64 0 .96.32 2.88 2.24 7.36 5.12 12.8 5.12 5.12 0 8.32-2.56 8.32-6.4 0-2.56-.96-5.12-8.32-6.08l-2.56-.32c-9.92-1.28-15.04-6.4-15.04-14.4-.32-9.28 6.72-15.36 16.64-15.36zm-56.32.64c.64 0 1.28.64 1.28 1.28v30.72c0 6.08 3.2 9.92 8.64 9.92s8.96-3.84 8.96-9.92V40.32c0-.64.64-1.28 1.28-1.28H176c.64 0 1.28.64 1.28 1.28v30.72c0 10.88-7.36 18.24-18.24 18.24-10.88 0-18.24-7.36-18.24-18.24V40.32c0-.64.64-1.28 1.28-1.28h7.04zm234.24-.64c8.96 0 15.04 4.16 17.6 12.16.96 3.2 1.28 5.76 1.28 13.44s-.32 10.24-1.28 13.44c-2.56 7.68-8.64 12.16-17.6 12.16-8.64 0-15.04-4.16-17.6-12.16-.96-3.2-1.28-5.76-1.28-13.44v-.96c0-7.04.32-9.6 1.28-12.48 2.88-8 8.96-12.16 17.6-12.16z"/>
</svg>
