<svg xmlns="http://www.w3.org/2000/svg" viewBox="0 0 254.542 302.42">
  <defs>
    <radialGradient id="b" cx="30.023" cy="1.063" r="395.6" fx="30.023" fy="1.063" gradientTransform="scale(.91743 1.09)" gradientUnits="userSpaceOnUse">
      <stop offset="0%" stop-color="#FFF" stop-opacity=".1"/>
      <stop offset="100%" stop-color="#FFF" stop-opacity="0"/>
    </radialGradient>
    <linearGradient id="a" x1="114.626" x2="341.94" y1="81.777" y2="206.365" gradientTransform="scale(.74033 1.35075)" gradientUnits="userSpaceOnUse">
      <stop offset="0%" stop-color="#231F20" stop-opacity=".16"/>
      <stop offset="100%" stop-color="#231F20" stop-opacity="0"/>
    </linearGradient>
  </defs>
  <g transform="translate(-.73 -.648)">
    <ellipse cx="128" cy="156.84" fill="#4285f4" rx="127.271" ry="125.489"/>
    <path fill="#263238" d="M128 280.304c-69.914 0-126.704-55.656-127.27-124.517v.972C.73 226.025 57.68 282.25 128 282.25c70.319 0 127.27-56.224 127.27-125.49v-.972c-.566 68.861-57.356 124.517-127.27 124.517z" opacity=".2"/>
    <path fill="#fff" d="M128 33.377c69.914 0 126.704 55.656 127.27 124.517v-.972c0-69.266-56.951-125.49-127.27-125.49C57.681 31.433.73 87.576.73 156.842v.972C1.295 89.033 58.085 33.377 128 33.377z" opacity=".2"/>
    <path fill="#424242" d="m128 139.18 30.218-41.64V61.083h35.726L228.861.648H27.22l34.835 60.436h35.726v37.508z"/>
    <path fill="#9e9e9e" d="M90.086 61.084h-28.03l9.964 17.255h18.066zm75.828 17.255h18.066l9.964-17.255h-28.03z"/>
    <path fill="#424242" d="m128 176.446-30.218 41.478v24.709H62.137l-34.998 60.435h201.722l-34.836-60.435h-35.807v-24.709z"/>
    <path fill="#263238" d="M97.782 95.433v3.16L128 139.18l30.218-41.64v-3.08L128 136.183z" opacity=".2"/>
    <path fill="#fff" d="M227.565 2.754H28.435L27.22.648h201.56z" opacity=".2"/>
    <path fill="#263238" d="m97.782 221.003 30.299-41.56 30.137 41.56v-3.079l-30.137-41.478-30.299 41.397zm130.998 81.984H27.22l1.215-2.187h199.13z" opacity=".2"/>
    <path fill="url(#a)" d="m228.78 302.987-1.215-2.187-24.547-42.613c26.005-18.714 44.476-46.906 50.309-79.392l-117.63-119.17-15.798 185.924 55.817 57.438 53.145.081z" style="fill:url(#a)"/>
    <path fill="#e8e8e8" d="m120.142 173.124-.243 72.425 57.438-114.146h-41.884l.243-71.778-56.709 113.5z"/>
    <path fill="#fff" d="m120.142 171.099-.243 72.425 56.385-112.121h-40.83l.242-71.778L80.041 171.1z"/>
    <path fill="#9e9e9e" d="M97.782 61.084H62.056l9.964 17.255h25.762zm60.436 17.255h25.762l9.964-17.255h-35.726z"/>
    <path fill="#263238" d="M158.218 76.314v2.025h25.762l1.215-2.106zm-60.436 0-26.977-.081 1.215 2.106h25.762z" opacity=".3"/>
    <path fill="url(#b)" d="M255.27 157.813v-.972c0-43.423-22.44-81.742-56.465-104.264L228.861.648H27.22l29.974 51.93C23.17 75.097.729 113.417.729 156.84v.972c.324 41.235 20.901 77.772 52.334 100.455L28.435 300.8l-1.215 2.187-.08.081h201.64l-.081-.08-1.215-2.188-24.547-42.613c31.514-22.602 52.01-59.058 52.334-100.374z" style="fill:url(#b)"/>
  </g>
</svg>
