<svg xmlns="http://www.w3.org/2000/svg" viewBox="0 0 255.348 212.681">
  <defs>
    <radialGradient id="a" cx="156.727" cy="77.227" r="108.043" fx="156.727" fy="77.227" gradientTransform="scale(.8448 1.18372)" gradientUnits="userSpaceOnUse">
      <stop offset="0%" stop-color="#231F20" stop-opacity=".1"/>
      <stop offset="100%" stop-color="#231F20" stop-opacity="0"/>
    </radialGradient>
    <radialGradient id="b" cx="127.609" cy="93.024" r="20.11" fx="127.609" fy="93.024" gradientUnits="userSpaceOnUse">
      <stop offset="40%" stop-color="#231F20" stop-opacity="0"/>
      <stop offset="100%" stop-color="#231F20" stop-opacity=".04"/>
    </radialGradient>
    <radialGradient id="c" cx="1.895" cy="12.712" r="232.291" fx="1.895" fy="12.712" gradientTransform="scale(1.0955 .91283)" gradientUnits="userSpaceOnUse">
      <stop offset="0%" stop-color="#FFF" stop-opacity=".1"/>
      <stop offset="100%" stop-color="#FFF" stop-opacity="0"/>
    </radialGradient>
  </defs>
  <g transform="translate(-.49 -.38)">
    <path fill="#424242" d="M102.183 50.765v162.297h52.124V50.765zm50.82 160.938h-49.407V52.124h49.406z"/>
    <path fill="#424242" d="M102.183 50.765v162.297h52.178V50.765h78.05l23.426-40.547H.489l23.426 40.547z"/>
    <path fill="#fff" d="m.49 10.218.869 1.413h253.663l.815-1.413z" opacity=".2"/>
    <path fill="#afafaf" d="M45.276 50.765h-21.36L30.6 62.342h9.62c1.468-4.022 3.099-7.88 5.056-11.577zm165.231 0a95.305 95.305 0 0 1 5 11.577h10.219l6.685-11.577z"/>
    <circle cx="127.891" cy="93.323" r="92.943" fill="#4285f4"/>
    <path fill="#263238" d="M40.764 60.93H29.785l.815 1.412h9.62c.218-.489.381-.978.544-1.413zm174.254 0c.163.488.326.923.49 1.412h10.218l.815-1.413zm-87.127 123.977c-51.091 0-92.562-41.253-92.942-92.29v.652c0 51.308 41.634 92.942 92.942 92.942 51.309 0 92.943-41.634 92.943-92.942v-.652c-.38 51.037-41.851 92.29-92.943 92.29z" opacity=".3"/>
    <path fill="#fff" d="M127.891 1.74c51.092 0 92.563 41.253 92.943 92.29v-.653C220.834 42.07 179.2.435 127.891.435 76.583.435 34.95 42.069 34.95 93.377v.653C35.329 42.993 76.8 1.74 127.89 1.74z" opacity=".2"/>
    <circle cx="127.891" cy="94.356" r="60.875" fill="#263238" opacity=".3"/>
    <path fill="url(#a)" d="m220.236 103.922-40.275-40.275-6.685 3.859-26.198-26.198-18.534 48.374-8.969 38.481 8.099 27.068 27.122 27.121c34.948-10.598 61.2-41.144 65.44-78.43z" style="fill:url(#a)"/>
    <path fill="#e8e8e8" d="M127.674 34.514v60.331l26.741-35.71c-1.467-15.273-12.229-24.621-26.741-24.621zM74.898 64.408l52.776 30.437-17.556-40.927c-13.969-6.36-27.937-2.066-35.22 10.49zm.489 60.657 52.287-30.22-44.189-5.218c-12.555 8.914-15.381 22.883-8.098 35.438z"/>
    <path fill="#d6d6d6" d="M127.674 155.23V94.9l-26.633 34.622c1.413 15.273 12.066 25.709 26.633 25.709zm17.556-19.458c13.968 6.414 27.991 1.087 35.22-11.468l-52.722-30.872z"/>
    <path fill="#d6d6d6" d="M179.96 64.68 127.675 94.9l44.188 5.217c12.501-8.968 15.382-22.937 8.099-35.438z"/>
    <path fill="#fff" d="M127.674 93.812v-60.33c14.512 0 25.165 9.402 26.633 24.73zm0 0-52.287-30.22c7.337-12.555 20.817-17.12 34.731-10.707zM127.674 93.812l-52.287 30.22c-7.283-12.555-4.403-26.524 8.098-35.438z"/>
    <path fill="#e8e8e8" d="M127.674 93.812v60.332c-14.512 0-25.165-9.403-26.633-24.73zm0 0 52.287 30.22c-7.283 12.556-20.763 17.121-34.731 10.708zM127.674 93.812l52.287-30.22c7.283 12.556 4.402 26.524-8.099 35.438z"/>
    <circle cx="127.62" cy="93.051" r="20.11" fill="#fff"/>
    <circle cx="127.62" cy="93.051" r="20.11" fill="url(#b)" style="fill:url(#b)"/>
    <path fill="url(#c)" d="M169.47 10.218C156.97 3.968 142.839.38 127.892.38s-29.078 3.533-41.58 9.838H.49l.38.707.435.76L23.915 50.82l5.87 10.163.815 1.414h9.62a92.732 92.732 0 0 0-5.326 30.98c0 42.395 28.427 78.214 67.234 89.356v30.329h52.124v-30.6c38.427-11.415 66.473-46.961 66.473-89.139 0-10.87-1.848-21.306-5.326-30.98h10.218l6.685-11.578 23.426-40.547zM43.918 53.483c-.055.054-.055.109-.109.217 0-.054.054-.108.109-.217zm-1.305 2.88c0 .055-.054.11-.054.164 0-.11 0-.11.054-.164zm169.254-2.88c.054.054.054.109.109.217 0-.054-.055-.108-.11-.217zm1.304 2.88c0 .055.055.11.055.164 0-.11 0-.11-.055-.164z" style="fill:url(#c)"/>
  </g>
</svg>
