<svg xmlns="http://www.w3.org/2000/svg" viewBox="0 0 511.823 123.985">
  <path d="M290.78 25.68c0 5.31-4.145 7.991-7.992 7.991h-.883c-3.848 0-7.993-2.68-7.993-7.991v-1.195c0-5.311 4.146-7.993 7.993-7.993h.883c3.848 0 7.993 2.68 7.993 7.993zM126.657 79.003c4.508.579 6.785 4.376 6.785 7.918 0 3.847-2.68 7.992-7.993 7.992h-6.786c-2.804 0-5.334-1.562-6.764-3.826-4.471 2.653-9.714 4.173-15.371 4.173-15.945 0-29.446-13.313-29.446-29.449 0-16.545 12.895-30.465 29.786-30.465 16.106 0 29.54 12.879 29.787 29.003l.002 14.654zm-16.411-13.995c0-7.258-6.04-13.179-13.376-13.179-7.506 0-13.375 6.187-13.375 13.767 0 7.191 6.068 13.181 13.178 13.181 7.643 0 13.573-6.129 13.573-13.769zM230.11 51.652c-7.257 0-13.179 6.041-13.179 13.377 0 7.507 6.186 13.375 13.767 13.375 7.19 0 13.181-6.069 13.181-13.179.001-7.643-6.129-13.573-13.77-13.573zm30.252 27.219c4.512.578 6.786 4.375 6.786 7.919 0 3.848-2.68 7.993-7.992 7.993h-6.787c-2.85 0-5.422-1.617-6.84-3.949-4.312 2.518-9.31 3.98-14.616 3.98-16.545 0-30.465-12.894-30.465-29.785 0-16.255 13.112-29.79 29.446-29.79 5.229 0 10.166 1.276 14.481 3.554V23.257c0-5.31 4.146-7.2 7.993-7.2 3.847 0 7.993 1.888 7.993 7.2v55.614zM25.382 90.657 9.026 51.78H8.002C2.684 51.78 0 47.63 0 43.778c0-3.851 2.684-8.002 8.002-8.002h6.339c3.391 0 6.281 2.2 7.387 4.928l12.53 32.833L46.811 40.65c1.135-2.541 3.909-4.875 7.364-4.875h6.339c5.318 0 8.002 4.15 8.002 8.002 0 3.853-2.684 8.002-8.002 8.002h-1.024L43.137 90.657c-1.13 2.624-3.155 4.89-8.86 4.89-5.732 0-7.762-2.26-8.895-4.89zm167.405-11.654c4.508.579 6.785 4.376 6.785 7.918 0 3.847-2.68 7.992-7.993 7.992h-6.785c-2.805 0-5.333-1.562-6.764-3.826-4.472 2.653-9.714 4.173-15.37 4.173-15.945 0-29.446-13.313-29.446-29.449 0-16.545 12.895-30.465 29.786-30.465 16.107 0 29.54 12.879 29.786 29.003l.001 14.654zm-16.411-13.995c0-7.258-6.04-13.179-13.377-13.179-7.506 0-13.374 6.187-13.374 13.767 0 7.191 6.067 13.181 13.178 13.181 7.643 0 13.573-6.129 13.573-13.769zm146.648-2.824-.038 26.034c0 5.31-3.866 6.695-8.923 6.695-3.848 0-7.992-1.384-7.992-6.695-.036-.516-.055-35.11-.055-35.11-4.512-.577-6.786-4.375-6.786-7.919 0-3.848 2.68-7.993 7.993-7.993h6.785c2.771 0 5.287 1.53 6.728 3.769 4.62-3.764 11.089-5.758 17.195-5.758 17.07 0 27.568 12.548 27.617 28.13l.012 15.64c4.512.578 6.787 4.375 6.787 7.92 0 3.848-2.68 7.993-7.993 7.993h-7.67c-4.302 0-7.992-3.691-7.992-7.993v-2.144l.008-22.34c0-7.074-4.627-12.52-12.972-12.52-6.667 0-12.704 5.547-12.704 12.291zm-33.832 32.73h-6.785c-4.302 0-7.993-3.692-7.993-7.993V45.107c0-5.312 4.146-7.993 7.993-7.993h.884c3.847 0 7.991 2.68 7.991 7.993V79c4.513.578 6.786 4.376 6.786 7.92 0 3.848-2.68 7.993-7.993 7.993z"/>
  <path fill="#00b4f0" d="m507.458 69.803-43.254 14.602v.915c0 4.748-3.704 7.143-7.143 7.143-3.438 0-7.144-2.395-7.144-7.143v-5.66c0-3.028 1.965-5.609 4.4-6.595l37.857-11.187L454.27 50.67c-2.269-1.015-4.352-3.49-4.352-6.575v-5.659c0-4.748 3.706-7.144 7.144-7.144 3.439 0 7.143 2.395 7.143 7.144v.914l43.254 14.601c2.342 1.01 4.365 2.817 4.365 7.909 0 5.118-2.018 6.931-4.365 7.943zm-97.073 33.607V75.98c0-12.48 9.6-13.44 14.4-13.852-4.802-.687-14.4-1.646-14.4-14.125V20.57c0-5.76-2.605-8.228-6.445-8.228h-3.43c-3.568 0-6.172-1.92-6.172-6.172 0-3.976 2.604-6.171 6.171-6.171h10.15c11.93 0 17.83 5.623 17.83 18.24v27.98c0 8.365 3.564 9.19 6.993 9.19 4.527 0 6.584 3.29 6.584 6.582 0 3.291-2.058 6.584-6.584 6.584-3.43 0-6.993.823-6.993 9.189v27.978c0 12.619-5.9 18.242-17.83 18.242h-10.15c-3.567 0-6.171-2.196-6.171-6.173 0-4.252 2.604-6.173 6.171-6.173h3.43c3.84 0 6.446-2.468 6.446-8.229z"/>
</svg>
