<svg xmlns="http://www.w3.org/2000/svg" viewBox="0 0 256 253.438">
  <defs>
    <linearGradient id="a" x1="127.358" x2="127.358" y1="-2.597" y2="254.716" gradientTransform="scale(1.00504 .99498)" gradientUnits="userSpaceOnUse">
      <stop offset="0%" stop-color="#8FC53B"/>
      <stop offset="100%" stop-color="#48A23C"/>
    </linearGradient>
  </defs>
  <path fill="url(#a)" d="M189.574 13.209c25.131 18.66 41.421 48.556 41.421 82.263 0 56.554-45.846 102.4-102.4 102.4-56.554 0-102.4-45.846-102.4-102.4 0-35.134 17.702-66.125 44.665-84.569C28.858 31.899 0 75.287 0 125.437c0 70.693 57.308 128.001 128 128.001 70.692 0 128-57.308 128-128.001 0-48.369-26.837-90.461-66.426-112.228zM81.75 179.819c-18.812-13.967-31.006-36.346-31.006-61.576 0-42.333 34.318-76.65 76.651-76.65 42.332 0 76.65 34.317 76.65 76.65 0 26.299-13.251 49.497-33.433 63.302 31.439-15.716 53.041-48.193 53.041-85.733C223.653 42.897 180.756 0 127.84 0 74.924 0 32.028 42.897 32.028 95.812c0 36.207 20.088 67.714 49.722 84.007zm78.2-80.775c0 17.645-14.304 31.95-31.95 31.95s-31.95-14.305-31.95-31.95c0-17.646 14.304-31.951 31.95-31.951s31.95 14.305 31.95 31.951z" style="fill:url(#a)"/>
</svg>
