<svg xmlns="http://www.w3.org/2000/svg" viewBox="0 0 255.996 265.064">
  <path fill="#1159cc" d="m221.102 0 34.894 20.41-58.187 33.84v.04l58.187-33.88v24.253L177.863 236.26l-49.887 28.8v.004l-.003-.003-.002.003-.001-.004-49.406-28.579L0 45.414V20.41L34.9 0l58.231 34.149-.199.114.155.063v23.06l34.889 81.596v27.26l.006-.003v-27.257l34.933-81.596V34.105h.044zM71.579 46.548 58.193 54.25l-.001.04z"/>
  <path fill="#127eff" d="M162.915 34.105v23.281l-34.933 81.596v27.257l-23.249 13.518-46.54-104.965V54.25L93.13 34.149 34.9 0 0 20.41v25.004l78.564 191.067 49.412 28.583v-71.788l23.293-13.519-.31-.176 46.85-104.789V54.25l58.187-33.84L221.102 0l-58.143 34.105z"/>
</svg>
