<svg xmlns="http://www.w3.org/2000/svg" viewBox="0 0 256 256">
  <path fill-rule="evenodd" d="M142.843 110.741h14.837V95.9h-14.837zm-.128-22.261h14.837V73.637h-14.837zM120.58 66.219h14.838V51.376h-14.843v14.843zm0 22.261h14.838V73.637h-14.843V88.48zm0 22.261h14.838V95.893h-14.843v14.843l.005.005zm0 22.262h14.838V118.16h-14.843v14.837zM98.32 66.213h14.843V51.376H98.32v14.843zm0 22.262h14.843V73.632H98.32zm0 22.261h14.843V95.893H98.32zm44.395-44.523h14.837V51.376h-14.837v14.843zM0 0l127.536 256L256 0z"/>
</svg>
