<svg xmlns="http://www.w3.org/2000/svg" viewBox="0 0 512 183.283">
  <path fill-rule="evenodd" d="M511.145 137.061c-3.735 1.58-10.91 2.726-15.362 2.726-12.776 0-19.233-6.029-19.233-18.515V82.378h-10.478V68.456h10.478v-17.37l17.511-2.444v19.814H512l-1.146 13.922h-16.793v36.6c0 3.734 1.722 6.173 6.316 6.173 2.585 0 5.739-.572 8.755-1.431l2.013 13.345zm-69.758 1.29V39.888l17.51-2.444v100.909zm-56.41-69.899v48.8c0 3.734 1.581 5.597 5.598 5.597 4.307 0 11.914-2.581 18.23-5.88v-48.52h17.51v69.899h-13.349l-1.722-5.884c-8.755 4.307-19.806 7.32-27.989 7.32-11.623 0-15.789-8.183-15.789-20.67v-50.67h17.512zm-47.94 43.492h-12.913c-5.74 0-7.32 1.58-7.32 6.892 0 4.88 1.58 7.026 7.03 7.026 5.17 0 9.908-1.719 13.211-3.586v-10.332zm17.512 26.408h-14.35l-1.29-4.735c-6.316 4.162-13.78 6.17-20.81 6.17-12.78 0-18.233-8.755-18.233-20.81 0-14.208 6.174-19.665 20.382-19.665h16.793v-7.327c0-7.751-2.153-10.478-13.349-10.478-6.315 0-13.204.863-19.374 2.154l-2.154-13.35c6.598-2.008 16.217-3.302 23.968-3.302 21.964 0 28.42 7.751 28.42 25.266v46.073zM277.76 42.754h18.802L268 138.352H241.3l-28.561-95.598h18.801l23.11 79.667zM102.268 79.285h10.623V68.658h-10.623zm-.092-15.938H112.8V52.72h-10.623zM86.33 47.41h10.623V36.783H86.326v10.626zm0 15.938h10.623V52.72H86.326v10.627zm0 15.938h10.623v-10.63H86.326V79.28l.004.004zm0 15.938h10.623V84.596H86.326V95.22zM70.392 47.405h10.627V36.783H70.392v10.626zm0 15.938h10.627V52.717H70.392zm0 15.938h10.627V68.655H70.392zm31.784-31.876H112.8V36.783h-10.623v10.626zM0 0l91.31 183.283L183.282 0z"/>
</svg>
