<svg xmlns="http://www.w3.org/2000/svg" xmlns:xlink="http://www.w3.org/1999/xlink" viewBox="0 0 255.501 229.503">
  <defs>
    <linearGradient id="a" x1=".5" x2=".517" y1="0" y2=".692">
      <stop offset="0%" stop-color="#54BEAF"/>
      <stop offset="100%" stop-color="#25488D"/>
    </linearGradient>
    <linearGradient id="d" x1="156.919" x2="156.919" y1="106.084" y2="187.581" gradientTransform="scale(.81733 1.22349)" gradientUnits="userSpaceOnUse">
      <stop offset="0%" stop-color="#0E2E62"/>
      <stop offset="100%" stop-color="#08154E"/>
    </linearGradient>
    <linearGradient id="b" x1="209.465" x2="212.669" y1="0" y2="132.939" gradientTransform="scale(.83647 1.1955)" gradientUnits="userSpaceOnUse" xlink:href="#a"/>
    <linearGradient id="c" x1="96.119" x2="99.328" y1="0" y2="133.123" gradientTransform="scale(.83923 1.19157)" gradientUnits="userSpaceOnUse" xlink:href="#a"/>
  </defs>
  <path fill="url(#a)" d="M128.221 229.503a33.165 33.165 0 0 1-16.617-4.462c-15.945-9.197-21.415-29.575-12.22-45.518l93.917-162.84C202.496.737 222.873-4.733 238.82 4.462c15.943 9.196 21.415 29.574 12.219 45.518L157.12 212.82c-6.17 10.699-17.376 16.682-28.899 16.682" style="fill:url(#b)"/>
  <path fill="url(#a)" d="M156.915 212.32a33.175 33.175 0 0 1-12.13 12.205c-15.9 9.27-36.304 3.893-45.573-12.007L4.54 50.115C-4.729 34.213.646 13.812 16.548 4.541c15.9-9.27 36.305-3.894 45.574 12.006l94.67 162.404c6.22 10.669 5.846 23.369.123 33.368" style="fill:url(#c)"/>
  <path fill="url(#d)" d="m157.02 179.402-28.919-49.61-28.689 49.743c-9.194 15.943-3.724 36.322 12.22 45.518a33.452 33.452 0 0 0 3.297 1.65c.363.157.725.32 1.095.463a33.32 33.32 0 0 0 3.286 1.109c.208.058.416.123.625.177a33.368 33.368 0 0 0 3.308.668 33.67 33.67 0 0 0 2.706.31c.042.004.083.01.125.013a33.437 33.437 0 0 0 3.572.027 33.117 33.117 0 0 0 2.704-.213c.056-.008.112-.01.168-.017a33.088 33.088 0 0 0 3.462-.648 33.276 33.276 0 0 0 9.034-3.616 33.175 33.175 0 0 0 12.129-12.206c5.723-10 6.097-22.7-.123-33.368" style="fill:url(#d)"/>
  <path fill="#fff" d="M140.876 197.817c0 6.901-5.596 12.497-12.497 12.497-6.902 0-12.497-5.596-12.497-12.497 0-6.902 5.595-12.497 12.497-12.497 6.901 0 12.497 5.595 12.497 12.497M234.793 31.19c0 6.9-5.596 12.496-12.497 12.496-6.902 0-12.497-5.595-12.497-12.497 0-6.901 5.595-12.497 12.497-12.497 6.901 0 12.497 5.596 12.497 12.497M46.201 31.19c0 6.9-5.595 12.496-12.497 12.496-6.901 0-12.497-5.595-12.497-12.497 0-6.901 5.596-12.497 12.497-12.497 6.902 0 12.497 5.596 12.497 12.497"/>
</svg>
