<svg xmlns="http://www.w3.org/2000/svg" viewBox="0 0 242.6 256.013">
  <path fill="#665ca7" d="M215.48 25.038C209.095 19.327 183.565.515 126.121.178c0 0-67.52-4.03-100.44 26.203C7.206 44.857.823 71.395.152 104.65c-.672 33.258-1.68 95.404 58.451 112.54v25.867s-.336 10.414 6.383 12.429c8.398 2.687 13.1-5.375 21.163-13.773 4.367-4.703 10.414-11.422 14.78-16.796 40.984 3.359 72.56-4.367 76.257-5.711 8.398-2.688 55.092-8.734 62.818-70.881 8.062-64.498-3.36-105.15-24.523-123.29zm7.054 118.25c-6.383 52.069-44.342 55.428-51.397 57.444-3.024 1.007-30.57 7.726-65.506 5.71 0 0-25.866 31.241-34.265 39.64-1.344 1.343-2.688 1.68-3.696 1.68-1.343-.337-1.68-2.017-1.68-4.368 0-3.36.337-42.999.337-42.999-50.725-14.109-47.702-67.186-47.366-95.067.672-27.882 5.71-50.389 21.163-65.842 27.882-25.195 85.326-21.499 85.326-21.499 48.374.336 71.553 14.781 76.927 19.82 17.468 15.453 26.538 52.069 20.156 105.48z"/>
  <g fill="none" stroke="#665ca7" stroke-linecap="round" stroke-linejoin="round" stroke-width="6.473">
    <path d="M149.64 103.31c-.673-12.764-7.055-19.483-19.485-20.155M166.44 108.68c.335-11.756-3.36-21.834-10.415-29.561-7.39-8.063-17.468-12.43-30.233-13.437"/>
    <path d="M183.23 115.4c0-20.491-6.384-36.615-18.477-48.373-12.093-11.757-27.21-17.804-45.35-17.804"/>
  </g>
  <path fill="#665ca7" d="M130.83 146.64s4.702.337 7.054-2.687l4.703-6.046c2.351-3.024 7.726-5.04 13.437-2.016 3.023 1.68 8.398 5.039 11.757 7.726 3.695 2.688 11.086 8.734 11.086 8.734 3.695 3.024 4.367 7.39 2.015 12.093-2.351 4.367-5.71 8.399-10.078 12.093-3.36 3.024-6.718 4.367-10.078 5.04h-1.344c-1.343 0-3.023-.337-4.367-.673-5.039-1.343-13.437-5.038-27.882-12.765a173.2 173.2 0 0 1-23.179-15.453c-3.359-2.687-7.054-5.71-10.414-9.406l-1.343-1.343c-3.696-3.695-6.719-7.055-9.406-10.414a173.193 173.193 0 0 1-15.453-23.18C59.61 94.236 55.916 85.838 54.573 80.463c-.336-1.344-.672-2.688-.672-4.367V74.75c.336-3.36 2.015-6.719 5.039-10.078 3.695-4.031 7.726-7.39 12.093-10.078 4.703-2.352 9.07-1.68 12.093 2.016 0 0 6.046 7.39 8.734 11.086 2.351 3.359 5.71 8.734 7.726 11.757 3.023 5.374 1.008 11.086-1.68 13.437l-6.046 4.703c-3.023 2.351-2.688 7.054-2.688 7.054s8.399 33.257 41.655 41.991z"/>
</svg>
