<svg xmlns="http://www.w3.org/2000/svg" viewBox="0 0 506.721 77.453">
  <g fill="#655cac">
    <path d="m151.933 77.453 136.1-11.7h-147.9zM153.833 18.053v1.8c-2.7-1.8-5.2-2.8-8.6-2.8-10.4 0-18.2 9.5-18.2 21.1 0 11.6 7.9 21.1 18.2 21.1 3.4 0 5.8-1 8.6-2.8v1.8h9.1v-40.1h-9.1zm-8.6 31.5c-5.1 0-8.9-5-8.9-11.4s3.7-11.4 8.9-11.4c5.1 0 8.7 5 8.7 11.4 0 6.3-3.6 11.4-8.7 11.4zM226.833 18.053v23.6c0 4.4-3 8.2-7.5 8.2-4.4 0-7.5-3.7-7.5-8.2v-23.6h-9.1v23.6c0 9.7 6.6 17.5 16.3 17.5 4.5 0 7.7-2.5 7.7-2.5v1.5h9.1v-40.1zM311.733 58.153v-23.6c0-4.4 3-8.2 7.5-8.2 4.4 0 7.5 3.7 7.5 8.2v23.6h9.1v-23.6c0-9.7-6.6-17.5-16.3-17.5-4.5 0-7.7 2.5-7.7 2.5v-1.5h-9.1v40.1z"/>
    <path d="M100.733 58.153v-15.6h6.7l11.7 15.6h11.9l-14.1-18.8c4.4-3.2 7.3-8.3 7.3-14.1 0-9.5-7.8-17.3-17.3-17.3h-15.7v50.1h9.5zm0-40.6h6.2c4.3 0 7.8 3.5 7.8 7.8s-3.5 7.8-7.8 7.8l-6.2-.1zM260.433 48.653c-.8.6-1.9 1-3 1-1.5 0-4.3-1.1-4.3-4.9v-17.2h7.8v-9.5h-7.8v-10h-9.1v10h-4.8v9.5h4.8v17.3c0 9 6.8 14.3 13.5 14.3 2.5 0 6-.8 8.9-2.5zM188.433 18.053l-10.9 14v-27.3h-9.4v53.4h9.4v-16.4l13.4 16.4h12.8l-18.2-21.3 15.7-18.8z"/>
    <path d="M281.533 17.053c-10.5 0-18.1 9.3-18.1 21.1 0 12.4 9.5 21.1 19 21.1 4.8 0 11-1.6 16.1-9l-8-4.6c-6.2 9.2-16.6 4.5-17.8-4.7h26.2c2.3-14.4-7.1-23.9-17.4-23.9zm7.9 15.9h-16.4c1.9-9.4 14.7-10 16.4 0z"/>
  </g>
  <path fill="#655cac" d="m365.033 54.753-14.7-36.6c-.2-.5-.4-1-.5-1.5-.1-.5-.2-1.1-.2-1.6 0-1.6.5-2.8 1.6-3.9 1.1-1 2.4-1.5 4.1-1.5 1.2 0 2.2.4 2.9 1.1.8.7 1.5 1.9 2.1 3.6l10 26.9 9.6-26.5c.6-1.9 1.4-3.2 2.2-4 .8-.7 1.9-1.1 3.2-1.1 1.7 0 3 .4 3.9 1.3.9.9 1.4 2.1 1.4 3.7 0 .6-.1 1.2-.2 1.9-.1.6-.3 1.3-.5 1.9l-14.2 35.9c-.6 1.6-1.4 2.8-2.2 3.5-.9.7-2 1.1-3.3 1.1-1.3 0-2.3-.3-3.1-1-.7-.7-1.4-1.7-2.1-3.2zM403.733 51.553c0 2.5-.4 4.3-1.2 5.5-.8 1.2-2.1 1.8-3.7 1.8-1.7 0-3-.6-3.8-1.8-.8-1.2-1.2-3-1.2-5.5v-20.2c0-2.5.4-4.3 1.2-5.5.8-1.2 2.1-1.8 3.8-1.8 1.7 0 2.9.6 3.7 1.8.8 1.2 1.2 3 1.2 5.5zM418.933 24.353c1.2-1 2.5-1.8 3.9-2.3 1.4-.5 2.9-.8 4.5-.8 4.6 0 8.5 1.8 11.7 5.5 3.2 3.6 4.7 8.2 4.7 13.7 0 5.2-1.6 9.6-4.9 13.2-3.2 3.6-7.1 5.5-11.5 5.5-1.8 0-3.4-.3-4.9-.9-1.5-.6-2.7-1.5-3.8-2.7-.7 1.1-1.4 2-2.3 2.6-.8.6-1.8.9-2.8.9-1.8 0-3.1-.6-4-1.9-.9-1.3-1.3-3.2-1.3-5.9v-33.8c0-2.6.4-4.6 1.3-5.9.9-1.3 2.2-1.9 4-1.9 1.8 0 3.2.6 4 1.9.9 1.3 1.3 3.2 1.3 5.9v6.9zm-.8 15.9c0 2.9.7 5.3 2.1 7 1.4 1.8 3.3 2.7 5.5 2.7s4.1-.9 5.5-2.7c1.4-1.8 2.2-4.1 2.2-7 0-2.9-.7-5.3-2.1-7.1-1.4-1.8-3.3-2.7-5.5-2.7-2.3 0-4.1.9-5.5 2.7-1.5 1.8-2.2 4.2-2.2 7.1zM455.733 43.253c.2 2 1.7 3.6 3.1 4.7 1.4 1.1 3.3 1.7 5.6 1.7 2 0 4.2-.6 6.7-1.7 2.5-1.2 4-1.7 4.5-1.7 1.3 0 2.3.4 3.1 1.2.8.8 1.2 1.8 1.2 3 0 2.3-1.6 4.3-4.8 6.2-3.2 1.8-7 2.8-11.3 2.8-5.3 0-9.7-1.8-13.2-5.4-3.5-3.6-5.3-8.1-5.3-13.5s1.7-10 5.1-13.6c3.4-3.6 7.7-5.4 12.8-5.4 4.9 0 9.1 1.7 12.4 5.1 3.3 3.4 5 7.6 5 12.5 0 1.6-.4 2.7-1.1 3.4-.7.6-2.1 1-4.2 1h-19.6zm-.4-6.3h15.7c-.1-2-.9-4-2.4-5.4-1.5-1.3-3.2-2-5.2-2s-3.9.6-5.3 1.9c-1.5 1.3-2.4 3.4-2.8 5.5zM483.633 51.053v-21.5c0-2.6.4-4.6 1.3-5.8.9-1.3 2.2-1.9 4-1.9 1.1 0 2 .3 2.9.8.8.6 1.6 1.4 2.2 2.6 1.1-1.2 2.3-2.1 3.5-2.7 1.2-.6 2.5-.9 3.7-.9 1.5 0 2.7.5 3.8 1.6 1.1 1 1.6 2.3 1.6 3.7 0 2.1-2 3.9-5.9 5.4-1.4.5-2.5.9-3.2 1.3-1.3.6-2.2 1.3-2.7 2.1-.4.8-.7 2.2-.7 4.2v11.1c0 2.6-.4 4.6-1.3 5.9-.9 1.3-2.2 1.9-4 1.9-1.8 0-3.1-.6-4-1.9-.7-1.3-1.2-3.3-1.2-5.9zM393.433 15.153c0-1.5.6-2.8 1.7-3.9s2.4-1.6 4-1.6c1.5 0 2.8.5 3.9 1.6s1.6 2.4 1.6 3.9-.5 2.9-1.6 3.9c-1.1 1.1-2.4 1.6-3.9 1.6-1.6 0-2.9-.5-4-1.6-1.2-1-1.7-2.3-1.7-3.9z"/>
  <g>
    <path fill="none" d="M91.233 8.053h415.5v57.7h-415.5z"/>
  </g>
  <g>
    <path fill="#665ca7" d="M64.133 7.453c-1.9-1.7-9.5-7.3-26.6-7.4 0 0-20.1-1.2-29.9 7.8-5.5 5.5-7.4 13.4-7.6 23.3-.2 9.9-.5 28.4 17.4 33.5v7.7s-.1 3.1 1.9 3.7c2.5.8 3.9-1.6 6.3-4.1 1.3-1.4 3.1-3.4 4.4-5 12.2 1 21.6-1.3 22.7-1.7 2.5-.8 16.4-2.6 18.7-21.1 2.4-19.2-1-31.3-7.3-36.7zm2.1 35.2c-1.9 15.5-13.2 16.5-15.3 17.1-.9.3-9.1 2.3-19.5 1.7 0 0-7.7 9.3-10.2 11.8-.4.4-.8.5-1.1.5-.4-.1-.5-.6-.5-1.3 0-1 .1-12.8.1-12.8-15.1-4.2-14.2-20-14.1-28.3.2-8.3 1.7-15 6.3-19.6 8.3-7.5 25.4-6.4 25.4-6.4 14.4.1 21.3 4.4 22.9 5.9 5.2 4.6 7.9 15.5 6 31.4z"/>
    <path fill="none" stroke="#665ca7" stroke-linecap="round" stroke-linejoin="round" stroke-width="1.927" d="M44.533 30.753c-.2-3.8-2.1-5.8-5.8-6M49.533 32.353c.1-3.5-1-6.5-3.1-8.8-2.2-2.4-5.2-3.7-9-4"/>
    <path fill="none" stroke="#665ca7" stroke-linecap="round" stroke-linejoin="round" stroke-width="1.927" d="M54.533 34.353c0-6.1-1.9-10.9-5.5-14.4s-8.1-5.3-13.5-5.3"/>
    <path fill="#665ca7" d="M38.933 43.653s1.4.1 2.1-.8l1.4-1.8c.7-.9 2.3-1.5 4-.6.9.5 2.5 1.5 3.5 2.3 1.1.8 3.3 2.6 3.3 2.6 1.1.9 1.3 2.2.6 3.6-.7 1.3-1.7 2.5-3 3.6-1 .9-2 1.3-3 1.5h-.4c-.4 0-.9-.1-1.3-.2-1.5-.4-4-1.5-8.3-3.8-2.7-1.5-5-3.1-6.9-4.6-1-.8-2.1-1.7-3.1-2.8l-.4-.4c-1.1-1.1-2-2.1-2.8-3.1-1.5-1.9-3.1-4.2-4.6-6.9-2.3-4.2-3.4-6.7-3.8-8.3-.1-.4-.2-.8-.2-1.3v-.4c.1-1 .6-2 1.5-3 1.1-1.2 2.3-2.2 3.6-3 1.4-.7 2.7-.5 3.6.6 0 0 1.8 2.2 2.6 3.3.7 1 1.7 2.6 2.3 3.5.9 1.6.3 3.3-.5 4l-1.8 1.4c-.9.7-.8 2.1-.8 2.1s2.5 9.9 12.4 12.5z"/>
  </g>
</svg>
