<svg xmlns="http://www.w3.org/2000/svg" viewBox="0 0 256 221.867">
  <path fill="#32b8e8" d="M255.876 51.329c-1.139 24.967-18.545 59.156-52.209 102.549-34.806 45.327-64.254 67.989-88.343 67.989-14.918 0-27.551-13.799-37.863-41.406-6.892-25.306-13.775-50.609-20.664-75.915C49.134 76.954 40.919 63.14 32.136 63.14c-1.915 0-8.617 4.038-20.091 12.081L0 59.674a3257.321 3257.321 0 0 0 37.36-33.38c16.85-14.59 29.5-22.262 37.93-23.037 19.925-1.918 32.187 11.727 36.79 40.937 4.974 31.514 8.415 51.116 10.35 58.788 5.742 26.145 12.06 39.202 18.965 39.202 5.358 0 13.407-8.48 24.138-25.437 10.722-16.962 16.464-29.867 17.24-38.733 1.525-14.638-4.22-21.975-17.24-21.975-6.128 0-12.447 1.413-18.946 4.206 12.58-41.29 36.618-61.343 72.1-60.199 26.304.773 38.705 17.867 37.19 51.283"/>
</svg>
