<svg xmlns="http://www.w3.org/2000/svg" viewBox="0 0 511.999 144.756">
  <g fill="#1ab7eb">
    <path d="M114.457 68.11c-.51 11.151-8.295 26.42-23.354 45.799-15.57 20.243-28.742 30.366-39.518 30.366-6.672 0-12.324-6.163-16.936-18.494l-9.243-33.903c-3.427-12.324-7.1-18.494-11.032-18.494-.855 0-3.854 1.805-8.986 5.397L0 71.837c5.65-4.967 11.226-9.935 16.713-14.909 7.536-6.515 13.194-9.941 16.966-10.287 8.912-.856 14.398 5.238 16.456 18.282 2.225 14.075 3.764 22.829 4.63 26.255 2.569 11.677 5.394 17.509 8.483 17.509 2.397 0 5.996-3.787 10.798-11.362 4.794-7.574 7.364-13.337 7.71-17.297.683-6.538-1.886-9.814-7.71-9.814-2.743 0-5.57.631-8.476 1.878 5.628-18.44 16.38-27.397 32.251-26.886 11.767.346 17.313 7.98 16.636 22.904"/>
    <path d="M162.766 12.79c-.172 4.267-2.314 8.362-6.432 12.285-4.629 4.433-10.114 6.65-16.456 6.65-9.768 0-14.488-4.26-14.142-12.79.165-4.432 2.78-8.7 7.838-12.796C138.63 2.051 144.244 0 150.42 0c3.6 0 6.597 1.413 9.001 4.224 2.398 2.816 3.51 5.672 3.344 8.566zm22.37 91.44c-4.8 9.078-11.398 17.299-19.8 24.663-11.489 9.933-22.97 14.901-34.452 14.901-5.32 0-9.393-1.713-12.218-5.14-2.826-3.427-4.156-7.875-3.983-13.361.165-5.65 1.924-14.39 5.267-26.21 3.344-11.82 5.02-18.161 5.02-19.018 0-4.45-1.548-6.68-4.63-6.68-1.028 0-3.944 1.804-8.745 5.396l-5.914-6.944c5.486-4.967 10.97-9.935 16.456-14.909 7.371-6.515 12.857-9.941 16.464-10.287 5.65-.511 9.806 1.15 12.466 4.998 2.653 3.846 3.637 8.836 2.96 14.983-2.231 10.422-4.636 23.655-7.206 39.704-.172 7.35 2.488 11.016 7.974 11.016 2.396 0 6.679-2.53 12.855-7.61 5.141-4.224 9.34-8.2 12.602-11.926z"/>
    <path d="M345.713 104.23c-4.801 9.078-11.4 17.299-19.8 24.663-11.49 9.933-22.972 14.901-34.453 14.901-11.151 0-16.546-6.162-16.201-18.501.164-5.486 1.24-12.075 3.209-19.785 1.969-7.71 3.044-13.707 3.216-17.989.173-6.508-1.805-9.768-5.937-9.768-4.47 0-9.798 5.32-15.99 15.944-6.538 11.144-10.07 21.943-10.58 32.394-.345 7.38.376 13.038 2.164 16.976-11.962.345-20.342-1.631-25.12-5.914-4.284-3.772-6.246-10.024-5.9-18.771.165-5.486 1.007-10.97 2.524-16.456 1.512-5.486 2.353-10.37 2.526-14.661.346-6.341-1.976-9.512-6.951-9.512-4.298 0-8.934 4.891-13.91 14.66-4.973 9.768-7.723 19.972-8.234 30.598-.346 9.604.27 16.284 1.841 20.056-11.768.345-20.123-2.135-25.068-7.44-4.103-4.44-5.973-11.188-5.628-20.25.166-4.442.947-10.641 2.359-18.592 1.413-7.95 2.202-14.14 2.367-18.589.338-3.074-.435-4.615-2.314-4.615-1.03 0-3.945 1.736-8.747 5.202l-6.168-6.944c.855-.676 6.25-5.65 16.2-14.909 7.198-6.68 12.083-10.106 14.652-10.28 4.457-.345 8.056 1.496 10.799 5.524 2.742 4.027 4.118 8.701 4.118 14.014 0 1.713-.173 3.344-.511 4.884 2.569-3.938 5.568-7.372 9.001-10.287 7.883-6.852 16.713-10.715 26.481-11.572 8.401-.684 14.398 1.285 18.005 5.914 2.908 3.772 4.276 9.175 4.11 16.2a368.104 368.104 0 0 0 3.862-3.343c3.939-4.629 7.793-8.31 11.565-11.054 6.342-4.629 12.948-7.198 19.8-7.717 8.228-.684 14.142 1.277 17.741 5.891 3.081 3.757 4.456 9.138 4.118 16.133-.173 4.787-1.33 11.746-3.471 20.883-2.15 9.137-3.216 14.381-3.216 15.75-.173 3.591.173 6.064 1.028 7.432.858 1.366 2.909 2.042 6.171 2.042 2.396 0 6.68-2.53 12.856-7.61 5.14-4.224 9.34-8.2 12.601-11.926l4.885 6.424"/>
    <path d="M383.765 77.12c.165-4.6-1.713-6.906-5.65-6.906-5.14 0-10.355 3.538-15.66 10.617-5.305 7.079-8.048 13.856-8.214 20.334-.097 0-.097 1.112 0 3.328 8.386-3.066 15.66-7.754 21.822-14.066 4.96-5.455 7.528-9.897 7.702-13.308zm58.37 26.847c-4.974 8.221-14.742 16.434-29.312 24.647-18.17 10.445-36.602 15.66-55.282 15.66-13.887 0-23.835-4.63-29.832-13.879-4.284-6.341-6.343-13.88-6.17-22.625.167-13.879 6.343-27.074 18.515-39.593 13.369-13.705 29.141-20.567 47.31-20.567 16.803 0 25.714 6.845 26.744 20.522.683 8.716-4.118 17.696-14.397 26.932-10.979 10.091-24.782 16.5-41.404 19.235 3.08 4.276 7.71 6.411 13.886 6.411 12.339 0 25.797-3.135 40.373-9.417 10.453-4.41 18.682-8.994 24.685-13.744z"/>
    <path d="M482.88 85.76c.173-4.635-.473-8.89-1.93-12.752-1.46-3.861-3.562-5.8-6.298-5.8-8.746 0-15.945 4.726-21.596 14.172-4.809 7.732-7.38 15.975-7.717 24.73-.172 4.297.601 8.078 2.314 11.338 1.878 3.78 4.538 5.665 7.972 5.665 7.71 0 14.316-4.545 19.801-13.653 4.628-7.558 7.109-15.456 7.454-23.7zm29.057.97c-.69 15.75-6.514 29.358-17.484 40.824-10.97 11.467-24.603 17.202-40.886 17.202-13.54 0-23.828-4.367-30.854-13.099-5.14-6.5-7.972-14.63-8.483-24.383-.864-14.72 4.448-28.247 15.944-40.57 12.34-13.69 27.849-20.536 46.536-20.536 11.995 0 21.08 4.028 27.255 12.068 5.831 7.364 8.484 16.862 7.972 28.494z"/>
  </g>
</svg>
