<svg xmlns="http://www.w3.org/2000/svg" viewBox="0 0 256 82.668">
  <defs>
    <linearGradient id="a" x1="66.881" x2="79.832" y1="-2.918" y2="145.475" gradientTransform="scale(1.75975 .56826)" gradientUnits="userSpaceOnUse">
      <stop offset="0%" stop-color="#222357"/>
      <stop offset="100%" stop-color="#254AA5"/>
    </linearGradient>
  </defs>
  <path fill="url(#a)" d="M132.397 56.24c-.146-11.516 10.263-17.942 18.104-21.763 8.056-3.92 10.762-6.434 10.73-9.94-.06-5.365-6.426-7.733-12.383-7.825-10.393-.161-16.436 2.806-21.24 5.05l-3.744-17.519c4.82-2.221 13.745-4.158 23-4.243 21.725 0 35.938 10.724 36.015 27.351.085 21.102-29.188 22.27-28.988 31.702.069 2.86 2.798 5.912 8.778 6.688 2.96.392 11.131.692 20.395-3.574l3.636 16.95c-4.982 1.814-11.385 3.551-19.357 3.551-20.448 0-34.83-10.87-34.946-26.428m89.241 24.968c-3.967 0-7.31-2.314-8.802-5.865L181.803 1.245h21.709l4.32 11.939h26.528l2.506-11.939H256l-16.697 79.963h-17.665m3.037-21.601 6.265-30.027h-17.158l10.893 30.027m-118.599 21.6L88.964 1.246h20.687l17.104 79.963h-20.679m-30.603 0L53.941 26.782l-8.71 46.277c-1.022 5.166-5.058 8.149-9.54 8.149H.493L0 78.886c7.226-1.568 15.436-4.097 20.41-6.803 3.044-1.653 3.912-3.098 4.912-7.026L41.819 1.245H63.68l33.516 79.963H75.473" style="fill:url(#a)" transform="matrix(1 0 0 -1 0 82.668)"/>
</svg>
