<svg xmlns="http://www.w3.org/2000/svg" viewBox="0 0 256 88.086">
  <path fill="#bf3078" d="M210.824 0C235.774 0 256 19.719 256 44.043c0 24.324-20.226 44.043-45.176 44.043-21.015 0-38.679-13.989-43.728-32.936l4.005 2.536 2.077-3.118c4.686 15.962 19.766 27.646 37.646 27.646 21.623 0 39.152-17.09 39.152-38.171s-17.529-38.17-39.152-38.17c-1.851 0-3.672.125-5.454.367l3.786-5.684-.777-.493c.81-.042 1.624-.063 2.445-.063z"/>
  <path fill="#802050" d="M165.647 0h45.177l-60.236 88.086L128 55.054l-22.588 33.032-22.843-33.405 3.572-5.362 19.27 28.18 17.577-25.703L128 44.467l5.012 7.33 17.576 25.702 48.98-71.627h-84.486L118.993 0z"/>
  <path fill="#26134d" d="M60.235 88.086 0 0h120.47zm0-10.587 48.98-71.627h-97.96z"/>
</svg>
