<svg xmlns="http://www.w3.org/2000/svg" fill="none" viewBox="0 0 391.693 392.186">
  <path fill="url(#a)" d="M390.397 58.047 206.4 387.067c-3.799 6.793-13.559 6.833-17.415.073L1.338 58.078c-4.2-7.366 2.098-16.29 10.446-14.797L195.98 76.205c1.175.21 2.378.208 3.553-.007l180.343-32.87c8.32-1.516 14.65 7.338 10.522 14.719z" style="fill:url(#a)"/>
  <path fill="url(#b)" d="m283.721.097-136.164 26.68a5 5 0 0 0-4.03 4.612l-8.376 141.463c-.197 3.332 2.863 5.918 6.115 5.168l37.91-8.749c3.547-.818 6.752 2.306 6.023 5.873l-11.263 55.153c-.758 3.712 2.727 6.886 6.352 5.785l23.415-7.114c3.63-1.102 7.118 2.081 6.35 5.796l-17.899 86.633c-1.12 5.42 6.088 8.374 9.094 3.728l2.008-3.103L314.21 100.594c1.858-3.707-1.346-7.935-5.418-7.149l-39.022 7.531c-3.667.707-6.787-2.708-5.752-6.296l25.47-88.291c1.035-3.594-2.096-7.012-5.767-6.292z" style="fill:url(#b)"/>
  <defs>
    <linearGradient id="a" x1="6" x2="235" y1="33" y2="344" gradientTransform="translate(-9.244 -1.478)" gradientUnits="userSpaceOnUse">
      <stop stop-color="#41D1FF"/>
      <stop offset="1" stop-color="#BD34FE"/>
    </linearGradient>
    <linearGradient id="b" x1="194.651" x2="236.076" y1="8.818" y2="292.989" gradientTransform="translate(-9.244 -1.478)" gradientUnits="userSpaceOnUse">
      <stop stop-color="#FFEA83"/>
      <stop offset=".083" stop-color="#FFDD35"/>
      <stop offset="1" stop-color="#FFA800"/>
    </linearGradient>
  </defs>
</svg>
