<svg xmlns="http://www.w3.org/2000/svg" viewBox="0 0 255.999 256">
  <defs>
    <linearGradient id="a" x1="80.126" x2="202.007" y1="44.998" y2="256.571" gradientTransform="scale(.99905 1.00095)" gradientUnits="userSpaceOnUse">
      <stop offset="0%" stop-opacity=".2"/>
      <stop offset="79%" stop-opacity=".05"/>
    </linearGradient>
  </defs>
  <path fill="#ef3939" d="M127.999 255.999c56.092 0 87.262 0 107.63-20.37C256 215.262 256 184.092 256 128c0-56.09 0-87.261-20.37-107.63C215.262 0 184.092 0 128 0c-56.09 0-87.3 0-107.63 20.369S0 71.909 0 127.999c0 56.092 0 87.262 20.369 107.63C40.738 256 71.909 256 127.999 256z"/>
  <path fill="url(#a)" d="M211.221 80.633c-6.179-11.141-16.808-20.264-26.815-28.152-10.007-7.888-19.83-12.64-32.108-16.048-12.279-3.408-24.827-3.345-37.468-1.743-12.642 1.602-23.52 4.488-34.56 10.851-11.039 6.363-19.613 14.154-27.335 24.289-7.72 10.135-12.851 20.199-16.054 32.53-3.202 12.33-4.363 25.992-2.549 38.601 1.814 12.61 4.017 24.61 10.566 35.54l.54.924 45.09 78.166c7.484.206 15.584.296 24.302.27h12.805c20.448.44 40.906-.165 61.292-1.812 20.404-2.237 35.061-7.25 46.286-18.548 16.509-16.506 19.634-40.106 20.212-78.283z" style="fill:url(#a)"/>
  <path fill="#fff" d="M195.808 60.085A95.952 95.952 0 0 0 91.226 39.316a95.98 95.98 0 0 0-43.058 35.358 96.017 96.017 0 0 0 0 106.65 95.98 95.98 0 0 0 43.058 35.359 95.953 95.953 0 0 0 104.582-20.77 95.909 95.909 0 0 0 20.863-104.682 95.882 95.882 0 0 0-20.863-31.146zm-5.755 44.195a290241.321 290241.321 0 0 0-47.466 82.633 15.87 15.87 0 0 1-13.054 8.614 15.064 15.064 0 0 1-15.024-7.996c-10.003-17.23-19.93-34.575-29.855-51.883a6307.129 6307.129 0 0 1-18.152-31.6 15.958 15.958 0 0 1 12.977-24.184 15.445 15.445 0 0 1 14.637 8.268c4.48 7.726 8.883 15.452 13.287 23.179 3.205 5.563 6.294 11.125 9.577 16.611a25.124 25.124 0 0 0 8.8 9.253 25.11 25.11 0 0 0 12.21 3.727 25.604 25.604 0 0 0 27.036-22.754c0-1.043 0-2.086.232-2.627a27.049 27.049 0 0 0-2.703-11.937 15.956 15.956 0 0 1 15.864-23.422 15.947 15.947 0 0 1 11.48 7.05 15.959 15.959 0 0 1 2.471 6.444c.435 3.7-.38 7.44-2.317 10.624z"/>
</svg>
