<svg xmlns="http://www.w3.org/2000/svg" viewBox="0 0 512 87.149">
  <defs>
    <linearGradient id="a" x1="27.277" x2="68.768" y1="15.318" y2="87.343" gradientTransform="scale(.99905 1.00095)" gradientUnits="userSpaceOnUse">
      <stop offset="0%" stop-opacity=".2"/>
      <stop offset="79%" stop-opacity=".05"/>
    </linearGradient>
  </defs>
  <path fill="#333" d="M512 18.156v58.1h-14.525v-58.1zm-63.306 0a28.69 28.69 0 0 1 20.37 8.508 29.172 29.172 0 0 1 8.44 20.542 29.173 29.173 0 0 1-8.44 20.541 28.692 28.692 0 0 1-20.37 8.508h-20.212V18.156zm-63.786 0v45.39h25.418v12.71h-39.943v-58.1zm-61.683 0 29.002 58.1H338.29l-4.241-8.896h-21.743l-4.242 8.895h-13.936zm-72.733 0 12.765 28.72 12.764-28.72h14.475l-27.24 58.1-27.228-58.1zm-32.62 0v58.1h-14.524v-58.1zm-72.674 0 12.765 28.72 12.765-28.72h14.463l-27.228 58.1-27.24-58.1zm303.496 11.948h-7.223v34.204h7.223c9.702 0 16.264-7.766 16.264-17.102s-6.598-17.102-16.264-17.102zm-125.47 14.75-5.56 11.977h11.121z"/>
  <path fill="#ef3939" d="M43.574 87.149c19.095 0 29.706 0 36.64-6.935 6.935-6.934 6.935-17.545 6.935-36.64s0-29.706-6.935-36.64C73.28 0 62.67 0 43.574 0S13.855 0 6.934 6.934C.014 13.868 0 24.479 0 43.574s0 29.706 6.934 36.64c6.934 6.935 17.545 6.935 36.64 6.935z"/>
  <path fill="url(#a)" d="M71.905 27.45c-2.103-3.793-5.722-6.899-9.128-9.584-3.407-2.685-6.751-4.303-10.931-5.463-4.18-1.16-8.452-1.139-12.755-.594-4.304.546-8.007 1.528-11.765 3.694-3.758 2.166-6.677 4.819-9.305 8.269-2.629 3.45-4.375 6.876-5.466 11.074-1.09 4.197-1.485 8.848-.867 13.14.617 4.294 1.367 8.379 3.596 12.1l.184.314 15.35 26.61a273 273 0 0 0 8.273.092h4.36a204.54 204.54 0 0 0 20.865-.617c6.946-.762 11.935-2.468 15.756-6.315 5.62-5.618 6.684-13.652 6.881-26.649z" style="fill:url(#a)"/>
  <path fill="#fff" d="M66.658 20.454a32.671 32.671 0 0 0-35.602-7.07 32.674 32.674 0 0 0-20.162 30.19 32.688 32.688 0 0 0 20.162 30.19 32.665 32.665 0 0 0 35.602-7.07 32.64 32.64 0 0 0 9.597-23.12 32.65 32.65 0 0 0-9.597-23.12zM64.699 35.5c-5.39 9.382-10.777 18.758-16.159 28.131a5.403 5.403 0 0 1-4.444 2.933 5.128 5.128 0 0 1-5.114-2.723c-3.406-5.865-6.785-11.77-10.164-17.662a2147.126 2147.126 0 0 1-6.18-10.757 5.432 5.432 0 0 1 4.419-8.233 5.258 5.258 0 0 1 4.983 2.814c1.525 2.63 3.024 5.26 4.523 7.891 1.09 1.894 2.142 3.787 3.26 5.655a8.553 8.553 0 0 0 7.152 4.419 8.716 8.716 0 0 0 9.204-7.746c0-.355 0-.71.079-.895a9.208 9.208 0 0 0-.92-4.063 5.432 5.432 0 0 1 7.62-7.207 5.427 5.427 0 0 1 2.53 3.827 5.683 5.683 0 0 1-.789 3.616z"/>
</svg>
