<svg xmlns="http://www.w3.org/2000/svg" viewBox="0 0 255.275 210.47">
  <g transform="translate(-.345)">
    <path fill="#abc2ab" d="M128.017 0a105.235 105.235 0 0 0-61.36 19.9L90.56 43.803a72.014 72.014 0 0 1 37.457-10.582c39.772 0 72.014 32.241 72.014 72.014a72.014 72.014 0 0 1-10.601 37.437l23.948 23.948a105.235 105.235 0 0 0 19.874-61.385C233.252 47.115 186.136 0 128.017 0z"/>
    <path fill="#478061" d="m189.376 190.57-23.903-23.903a72.014 72.014 0 0 1-37.456 10.582c-39.773 0-72.015-32.242-72.014-72.014a72.014 72.014 0 0 1 10.601-37.437L42.656 43.85a105.235 105.235 0 0 0-19.874 61.385c0 58.12 47.115 105.235 105.235 105.235a105.235 105.235 0 0 0 61.359-19.9z"/>
    <circle cx="128" cy="105.235" r="33.503" fill="#abc2ab"/>
    <path d="M30.592 124.81c-1.148.82-2.193 1.23-3.135 1.23h-4.058c-.574 0-1.024-.103-1.352-.307-.328-.205-.595-.513-.8-.923L.468 86.203a.417.417 0 0 1-.123-.307v-.37c0-.409.144-.737.43-.983.329-.287.841-.43 1.538-.43H27.58c1.352 0 2.233.41 2.643 1.23l12.787 24.652 35.841-24.653c1.189-.82 2.439-1.23 3.75-1.23h3.996c.533 0 .8.226.8.677 0 .369-.329.82-.984 1.353zM86.353 126.04c-2.131 0-4.016-.328-5.656-.984-1.64-.696-3.012-1.64-4.119-2.828-1.106-1.188-1.946-2.582-2.52-4.18-.574-1.64-.86-3.402-.86-5.287 0-2.418.409-4.795 1.229-7.131a29.405 29.405 0 0 1 3.38-6.701 35.087 35.087 0 0 1 5.165-5.902 36.389 36.389 0 0 1 6.516-4.672 35.204 35.204 0 0 1 7.5-3.074 28.15 28.15 0 0 1 8.054-1.168h30.123c2.173 0 4.078.328 5.718.984 1.68.655 3.074 1.577 4.18 2.766 1.107 1.148 1.947 2.52 2.52 4.119.574 1.598.861 3.34.861 5.225 0 2.419-.43 4.816-1.29 7.193a28.071 28.071 0 0 1-3.443 6.701 35.636 35.636 0 0 1-5.226 5.963 37.765 37.765 0 0 1-6.578 4.734 37.672 37.672 0 0 1-7.5 3.135 29.163 29.163 0 0 1-7.93 1.107zm37.009-25.144c1.352-2.869 2.029-5.02 2.029-6.455 0-1.189-.43-2.008-1.291-2.46-.82-.45-2.05-.675-3.689-.675h-8.36c-1.19 0-2.296.164-3.32.491-.984.287-1.906.8-2.767 1.537-.86.738-1.7 1.722-2.52 2.951-.78 1.23-1.578 2.767-2.398 4.611l-2.951 6.701c-1.557 3.484-2.336 6.107-2.336 7.869 0 1.189.348 2.05 1.045 2.582.697.492 1.7.738 3.012.738h8.423c1.27 0 2.438-.185 3.504-.554 1.065-.41 2.09-1.045 3.074-1.905.983-.861 1.926-2.009 2.828-3.443.901-1.435 1.823-3.197 2.766-5.287zM144.123 126.04c-.738 0-1.107-.246-1.107-.738 0-.246.062-.553.185-.922l17.274-38.669c.492-1.065 1.271-1.598 2.337-1.598h21.147c.78 0 1.169.266 1.169.8 0 .245-.082.511-.246.798l-17.214 38.669c-.492 1.107-1.27 1.66-2.336 1.66zM174.349 126.04c-.738 0-1.107-.246-1.107-.738 0-.246.062-.553.185-.922l17.275-38.669c.492-1.065 1.27-1.598 2.336-1.598h49.427c2.131 0 4.016.328 5.656.984 1.64.655 3.012 1.577 4.119 2.766 1.106 1.148 1.946 2.52 2.52 4.119.574 1.598.86 3.34.86 5.225 0 2.5-.43 4.96-1.29 7.378a28.169 28.169 0 0 1-3.566 6.762c-1.475 2.131-3.237 4.098-5.287 5.902a35.424 35.424 0 0 1-6.578 4.672 36.215 36.215 0 0 1-7.377 3.012 28.08 28.08 0 0 1-7.746 1.107zm53.485-25.144c1.311-2.95 1.967-5.103 1.967-6.455 0-1.189-.41-2.008-1.23-2.46-.82-.45-2.008-.675-3.565-.675h-12.48l-12.172 27.48h12.418c1.23 0 2.377-.185 3.442-.554 1.066-.41 2.07-1.045 3.013-1.905.983-.902 1.926-2.05 2.828-3.443.942-1.435 1.885-3.197 2.828-5.287z"/>
  </g>
</svg>
