<svg viewBox="0 0 41.539 36" xmlns="http://www.w3.org/2000/svg">
  <path class="svg-logo__shape-1" d="M 14.473,0.97 C 14.105,0.387 13.455,0 12.715,0 H 2.077 C 0.929,0 0,0.93 0,2.077 0,2.484 0.117,2.864 0.32,3.185 L 5.557,11.493 19.71,9.278 Z" fill="#c9f4ff" data-logo-dark-blue=""/>
  <path class="svg-logo__shape-2" d="m16.655 4.431c-0.368-0.583-1.019-0.97-1.758-0.97h-10.638c-1.147 0-2.077 0.93-2.077 2.077 0 0.408 0.117 0.787 0.32 1.108l3.055 4.846 14.152-2.215z" fill="#51b9ff" data-logo-light-blue=""/>
  <path class="svg-logo__shape-3" d="m5.557 11.493c-0.203-0.321-0.32-0.7-0.32-1.108 0-1.147 0.93-2.077 2.077-2.077h10.639c0.74 0 1.389 0.387 1.756 0.97l9.521 15.101c0.203 0.32 0.319 0.7 0.319 1.107 0 0.408-0.116 0.787-0.319 1.107l-5.32 8.438c-0.367 0.582-1.017 0.969-1.756 0.969-0.741 0-1.39-0.387-1.758-0.969z" fill="#007bfc"/>
  <path class="svg-logo__shape-3" d="m32.385 16.015c0.367 0.582 1.018 0.969 1.758 0.969s1.39-0.387 1.756-0.969l5.32-8.438c0.203-0.321 0.32-0.701 0.32-1.108s-0.117-0.787-0.32-1.107l-2.77-4.392c-0.367-0.583-1.017-0.97-1.758-0.97h-10.636c-1.147 0-2.078 0.93-2.078 2.077 0 0.407 0.117 0.787 0.32 1.108z" fill="#007bfc"/>
</svg>
