<svg xmlns="http://www.w3.org/2000/svg" viewBox="0 0 255.195 136.057">
  <path fill="#005a9c" d="m67.654.757 24.219 82.354L116.102.757h17.53l-40.093 135.3h-1.668L66.813 52.212l-25.056 83.845h-1.67L0 .757h17.54l24.217 82.354L58.13 27.658 50.112.759h17.542z"/>
  <path fill="#005a9c" d="M183.427 92.626c0 12.256-3.261 22.556-9.763 30.909-6.521 8.348-14.958 12.522-25.312 12.522-7.795 0-14.583-2.485-20.376-7.433-5.793-4.959-10.08-11.67-12.862-20.122l13.693-5.68c2.01 5.124 4.652 9.16 7.937 12.103 3.285 2.95 7.148 4.431 11.607 4.431 4.677 0 8.634-2.622 11.865-7.852 3.23-5.233 4.84-11.521 4.84-18.876 0-8.13-1.728-14.414-5.184-18.872-4.005-5.228-10.298-7.855-18.867-7.855h-6.68v-8.013l23.383-40.424h-28.234l-7.853 13.362h-5.005V.757h65.136v8.182l-24.717 42.6c8.682 2.781 15.252 7.853 19.707 15.202 4.458 7.346 6.685 15.968 6.685 25.885z"/>
  <path fill="#221b0a" d="m251.404 0 2.84 17.267-10.056 19.242s-3.863-8.16-10.274-12.678c-5.407-3.813-8.93-4.636-14.429-3.506-7.081 1.466-15.09 9.915-18.588 20.34-4.185 12.469-4.225 18.508-4.373 24.05-.231 8.89 1.164 14.141 1.164 14.141s-6.104-11.296-6.045-27.84c.036-11.81 1.901-22.525 7.36-33.088 4.811-9.29 11.947-14.866 18.29-15.517 6.553-.688 11.742 2.468 15.743 5.9 4.195 3.59 8.46 11.44 8.46 11.44zM252.633 97.73s-4.433 7.945-7.206 11.003c-2.77 3.06-7.728 8.45-13.846 11.153-6.122 2.697-9.329 3.209-15.382 2.623-6.044-.583-11.66-4.08-13.626-5.55-1.965-1.45-6.999-5.75-9.832-9.746-2.851-4.016-7.297-12.037-7.297-12.037s2.476 8.033 4.03 11.442c.888 1.962 3.634 7.962 7.528 13.196 3.624 4.869 10.671 13.26 21.387 15.15 10.714 1.897 18.075-2.91 19.892-4.079 1.82-1.16 5.66-4.373 8.095-6.977 2.538-2.713 4.938-6.182 6.257-8.248.978-1.522 2.562-4.59 2.562-4.59z"/>
</svg>
