<svg xmlns="http://www.w3.org/2000/svg" viewBox="0 0 255.998 195.635">
  <circle cx="201.603" cy="79.759" r="26.544" fill="#00a94b"/>
  <circle cx="231.199" cy="25.201" r="24.799" fill="#ff4131"/>
  <path fill="#ffbc00" d="M166.502 195.635c-9.483 0-18.586-5.505-22.673-14.716L78.805 34.902c-5.56-12.536.055-27.197 12.59-32.757 12.537-5.56 27.198.055 32.758 12.59l65.023 146.018c5.56 12.536-.054 27.197-12.59 32.757-3.27 1.471-6.704 2.125-10.084 2.125z"/>
  <path fill="#0085f7" d="M89.76 195.254c-10.355 0-20.22-5.996-24.69-16.024L2.336 38.282c-6.05-13.627.054-29.596 13.68-35.646 13.626-6.05 29.596.054 35.646 13.68l62.734 140.948c6.05 13.626-.054 29.596-13.68 35.646a26.963 26.963 0 0 1-10.956 2.344z"/>
</svg>
