<svg xmlns="http://www.w3.org/2000/svg" viewBox="0 0 255.997 208.377">
  <defs>
    <linearGradient id="a" x1="59.929" x2="138.814" y1="39.701" y2="39.701" gradientTransform="scale(1.61854 .61784)" gradientUnits="userSpaceOnUse">
      <stop offset="0%" stop-color="#2A3B8F"/>
      <stop offset="100%" stop-color="#29ABE2"/>
    </linearGradient>
    <linearGradient id="b" x1="104.915" x2="169.1" y1="117.594" y2="117.594" gradientTransform="scale(1.49876 .66722)" gradientUnits="userSpaceOnUse">
      <stop offset="0%" stop-color="#2A3B8F"/>
      <stop offset="100%" stop-color="#29ABE2"/>
    </linearGradient>
    <linearGradient id="c" x1="138.763" x2="59.681" y1="297.531" y2="297.531" gradientTransform="scale(1.62259 .6163)" gradientUnits="userSpaceOnUse">
      <stop offset="0%" stop-color="#B4D44E"/>
      <stop offset="100%" stop-color="#E7F716"/>
    </linearGradient>
    <linearGradient id="d" x1="169.1" x2="104.915" y1="193.994" y2="193.994" gradientTransform="scale(1.49876 .66722)" gradientUnits="userSpaceOnUse">
      <stop offset="0%" stop-color="#B4D44E"/>
      <stop offset="100%" stop-color="#E7F716"/>
    </linearGradient>
  </defs>
  <path fill="#166da5" d="m189.201 103.39 38.99-46.182 27.806 46.82-27.805 46.821z"/>
  <path fill="#8fdb69" d="m157.401 150.69 39.47 57.687 28.285-49.538-42.347-50.656z"/>
  <path fill="#166da5" d="M157.401 57.208 196.871.16l27.805 48.738-41.867 50.816z"/>
  <path fill="url(#a)" d="M196.552.16h-71.43L96.997 48.898h127.68z" opacity=".95" style="fill:url(#a)"/>
  <path fill="url(#b)" d="M182.81 99.874h70.63l-25.408-42.826h-70.79" opacity=".95" style="fill:url(#b)"/>
  <path fill="url(#c)" d="M124.962 207.738h71.91l28.284-48.739H96.838z" opacity=".95" style="fill:url(#c)"/>
  <path fill="#010101" d="M125.761 0H59.924L0 103.869l59.924 103.869h65.038l-60.084-103.87z"/>
  <path fill="url(#d)" d="M182.81 108.024h70.63l-25.408 42.825h-70.79" opacity=".95" style="fill:url(#d)"/>
</svg>
