<svg xmlns="http://www.w3.org/2000/svg" viewBox="0 0 1075.189 452.3">
  <g fill="#900">
    <path d="M1037.189 300.3v19.1h-6v-19.1h-8v-5.5h22v5.5zM1069.189 300.7l-5 18.7h-5l-6-18.7v18.7h-6v-24.6h10l4 16.4 4-16.4h10v24.6h-6v-18.7z"/>
  </g>
  <g fill="#900">
    <path d="M794.45 318c-8.963 3.8-17.925 5.7-26.987 5.7-14.34 0-27.285-2.5-38.737-7.5-11.451-5-21.11-11.9-28.977-20.7-7.867-8.8-13.942-19.1-18.124-31-4.182-11.9-6.273-24.7-6.273-38.4 0-14.1 2.09-27.1 6.273-39.2 4.182-12.1 10.157-22.6 18.024-31.5 7.867-9 17.526-16 28.978-21.1 11.452-5.1 24.297-7.7 38.736-7.7 9.66 0 18.92 1.5 27.883 4.4 8.962 2.9 17.128 7.2 24.397 12.8 7.27 5.6 13.244 12.6 17.924 20.9 4.68 8.3 7.568 17.8 8.664 28.5h-39.235c-2.49-10.5-7.17-18.4-14.14-23.7-6.97-5.3-15.435-7.9-25.493-7.9-9.26 0-17.127 1.8-23.6 5.4-6.473 3.6-11.75 8.4-15.734 14.5-3.983 6.1-6.97 13-8.763 20.7-1.792 7.7-2.788 15.7-2.788 24 0 7.9.896 15.6 2.788 23.1 1.793 7.5 4.78 14.2 8.763 20.2 3.984 6 9.261 10.8 15.734 14.4 6.473 3.6 14.34 5.4 23.6 5.4 13.643 0 24.198-3.5 31.667-10.4 7.468-6.9 11.75-16.9 13.045-30.1H770.65v-31.1h78.568v101.7h-26.19l-4.182-21.3c-7.269 9.5-15.435 16.1-24.397 19.9zM916.036 131.3v153.1h91.315v34.9H874.91v-188z"/>
    <path d="M721.656 342.7c-62.835 38.4-157.037 60.2-262.094 60.2-189.302 0-342.655-79.1-342.655-176.8 0-97.6 153.453-176.8 342.655-176.8 105.455 0 199.956 22.3 262.791 60.9C653.843 45.5 530.761.1 390.154 0 174.664 0 0 101.2 0 226.1 0 351 174.663 452.3 390.055 452.3c140.109 0 262.791-45.3 331.601-109.6z"/>
  </g>
  <g fill="#900">
    <path d="m146.089 116.6 53.8 204.7h32.2l45.3-160.8 44.7 160.8h32.3l55.7-204.7h-36.3l-36.3 157-43.8-157h-33.2l-43.8 157-36.3-157zM500.689 202.8c-5-7.1-11.3-12.5-18.7-16.2-7.6-3.8-16.4-5.7-26.2-5.7-11 0-20.9 2-29.5 5.9-8.1 3.7-15 9.2-20.6 16.3-10.3 13.1-15.7 31.6-15.7 53.5 0 9.7 1.4 18.9 4.1 27.1 2.7 8.3 6.8 15.6 12 21.7 11 12.8 26.7 19.6 45.4 19.6 9.8 0 17.8-1 24.5-3.1 5.8-1.8 9.7-4.2 12.9-6.3 4.1-2.7 7.8-6 11.2-9.8 2.8-3.3 5.3-6.9 7.5-10.8 3.8-7 5.7-13.6 6.1-17l.3-2.3h-26.7l-.1 1.9c-.7 8.7-12.1 24.2-32.4 24.2-29 0-35.9-21-36.4-39.5h97.2v-2.1c0-11.9-1.2-22.8-3.6-32.3-2.7-9.9-6.4-18.3-11.3-25.1zm-48 2.1c21.5 0 33 11.6 35.1 35.4h-69.6c1.1-19.3 16.4-35.4 34.5-35.4zM649.889 222.4c-2.6-8.3-6.4-15.6-11.3-21.7-5.1-6.3-11.3-11.2-18.4-14.6-7.4-3.5-15.7-5.3-24.7-5.3-8.3.1-15.8 1.9-22.4 5.4-5.5 2.8-10.4 6.8-14.6 11.8v-62.8h-26.6v186h25.3v-12.7c2.2 2.9 5.1 6 8.9 8.7 7.2 5.2 16.1 7.8 26.4 7.8 11.1 0 21.1-2.5 29.5-7.4 7.5-4.4 13.9-10.7 18.9-18.7 4.4-7 7.7-15.3 9.9-24.6 1.9-8 2.9-16.8 2.9-25.4.1-9.3-1.2-18.3-3.8-26.5zm-23.9 30.2c0 14.6-2.9 26.8-8.5 35.4-5.9 9.1-14.5 13.7-25.5 13.7-15.9 0-34.5-11.1-34.5-42.5 0-15 1.9-26.6 5.7-35.4 5.5-12.7 14.8-18.8 28.3-18.8 14.4 0 24.1 5.6 29.5 17.3 4.4 9.6 5 21.3 5 30.3z"/>
  </g>
</svg>
