<svg xmlns="http://www.w3.org/2000/svg" viewBox="0 0 255.07 237.461">
  <path fill="#c73a63" d="M119.54 99.53c-10.611 17.837-20.777 35.11-31.154 52.252-2.664 4.4-3.983 7.985-1.854 13.58 5.878 15.453-2.414 30.492-17.998 34.574-14.697 3.852-29.016-5.808-31.932-21.542-2.584-13.928 8.224-27.58 23.58-29.758 1.286-.183 2.599-.205 4.762-.367 7.524-12.617 15.232-25.54 23.357-39.168-14.69-14.607-23.434-31.684-21.499-52.844 1.368-14.957 7.25-27.883 18-38.477 20.59-20.288 52.002-23.573 76.245-8 23.285 14.957 33.949 44.093 24.859 69.03-6.854-1.858-13.756-3.732-21.344-5.79 2.855-13.864.744-26.315-8.607-36.98-6.178-7.043-14.106-10.734-23.12-12.094-18.072-2.73-35.815 8.88-41.08 26.618-5.976 20.131 3.068 36.575 27.784 48.967z"/>
  <path fill="#4b4b4b" d="M149.84 78.439c7.475 13.186 15.064 26.572 22.587 39.835 38.02-11.762 66.686 9.284 76.97 31.818 12.422 27.218 3.93 59.456-20.465 76.249-25.04 17.239-56.707 14.293-78.892-7.85 5.654-4.734 11.336-9.488 17.407-14.567 21.912 14.193 41.077 13.524 55.305-3.282 12.133-14.337 11.87-35.713-.615-49.75-14.408-16.197-33.707-16.691-57.035-1.142-9.677-17.168-19.522-34.2-28.893-51.492-3.16-5.828-6.649-9.209-13.77-10.442-11.893-2.062-19.571-12.275-20.032-23.718-.453-11.316 6.214-21.545 16.634-25.53 10.322-3.948 22.435-.761 29.378 8.014 5.673 7.17 7.476 15.24 4.491 24.083-.83 2.466-1.906 4.852-3.07 7.774z"/>
  <path fill="#4a4a4a" d="M167.706 186.238h-45.77c-4.388 18.044-13.863 32.612-30.19 41.876-12.693 7.2-26.373 9.642-40.934 7.291-26.807-4.324-48.727-28.456-50.657-55.631-2.184-30.784 18.975-58.147 47.178-64.293 1.947 7.072 3.914 14.21 5.862 21.264-25.877 13.202-34.832 29.836-27.59 50.636 6.375 18.304 24.484 28.337 44.147 24.457 20.08-3.962 30.204-20.65 28.968-47.431 19.036 0 38.088-.198 57.126.097 7.433.116 13.172-.655 18.773-7.208 9.22-10.785 26.19-9.812 36.121.373 10.148 10.409 9.661 27.158-1.077 37.127-10.362 9.62-26.73 9.106-36.424-1.259-1.993-2.137-3.562-4.673-5.533-7.299z"/>
</svg>
