<svg xmlns="http://www.w3.org/2000/svg" viewBox="0 0 256 256.002">
  <path fill="#4700a3" d="M127.2.002A128.002 128.002 0 0 1 256 128.004c0 70.588-57.147 127.85-127.734 127.997C57.678 256.147.296 199.121 0 128.534-.29 57.947 56.614.446 127.201.002zm0 14.243c-62.79.087-113.671 50.968-113.76 113.76a112.96 112.96 0 0 0 113.12 113.76c62.792-.089 113.673-50.97 113.76-113.76 0-62.401-50.72-113.12-113.12-113.76zm39.68 77.28a10.88 10.88 0 0 0-.8 4.479 14.4 14.4 0 0 0 14.4 14.4 12.48 12.48 0 0 0 5.28-.64 47.354 47.354 0 0 1 7.04 24.64c0 49.44-39.04 54.08-64.96 54.08-66.369 0-75.971-25.56-76.157-32.282l-.003-.198h-3.2c-10.982-.086-19.885-8.876-20.154-19.814l-.005-.346v-4h9.12a20.96 20.96 0 0 1 16.96 7.84 20.32 20.32 0 0 1 15.75-8.468l.41-.012h9.28v5.28a19.04 19.04 0 0 1-18.444 19.511l-.437.01h-1.28c.64 3.2 10.4 4.48 12.961 4.48a17.28 17.28 0 0 0 16.32-9.12 31.52 31.52 0 0 0 3.2-18.88c0-25.92 7.04-46.72 51.36-46.72a38.08 38.08 0 0 1 23.36 5.76zm39.04-21.44-12.48 20.16-3.84 7.84a9.12 9.12 0 0 1-1.92 2.56 9.44 9.44 0 0 1-8.48 1.92 5.6 5.6 0 0 1-3.84-1.92 9.12 9.12 0 0 1 0-12.321c.57-.569 1.138-.632 1.595-1.089l.166-.19z"/>
</svg>
