<svg viewBox="0 0 256 92.261" xmlns="http://www.w3.org/2000/svg">
 <path d="m46.131 0c-25.631 0-46.13 20.504-46.13 46.13a45.943 45.943 0 0 0 46.13 46.13 45.943 45.943 0 0 0 46.135-46.13c-0.23344-25.631-20.735-46.13-46.13-46.13zm40.54 46.13c0 22.367-18.17 40.768-40.768 40.768-22.598 0-40.54-18.401-40.54-41.002 0-22.367 18.17-40.768 40.768-40.768 22.473 0.23104 40.564 18.526 40.54 41.002zm-18.17-10.717 1.3958-2.7965 4.4282-7.2199-10.252 6.0575c-0.23344 0.23344-0.46689 0.23344-0.72199 0.46689a3.2489 3.2489 0 0 0 0 4.4258c0.46688 0.46688 0.93136 0.72199 1.3958 0.72199 1.1648 0.23344 2.3296 0 3.0324-0.72199a3.6821 3.6821 0 0 0 0.72199-0.93136zm-1.4007 3.9613c-0.72199 0.23344-1.1648 0.23344-1.8627 0.23344a5.1742 5.1742 0 0 1-5.1261-5.1261c0-0.46689 0-1.1648 0.23344-1.6317-2.5631-1.6317-5.5906-2.3296-8.3871-2.0938-15.843 0-18.406 7.4557-18.406 16.774 0.23344 2.3296 0 4.6592-1.1648 6.7554-1.1648 2.0962-3.4944 3.4944-5.824 3.261-0.93136 0-4.4282-0.72199-4.6592-1.6317h0.46689c3.7303 0 6.7554-3.0324 6.7554-6.9888v-1.8627h-3.2586c-2.3296 0-4.4282 1.1648-5.824 3.0324a8.2788 8.2788 0 0 0-6.0575-2.7965h-3.261v1.3958c0 3.9613 3.261 7.2199 7.4557 7.2199h1.1648c0 2.3296 3.261 11.648 27.26 11.648 9.3185 0 23.296-1.6317 23.296-19.337-0.23344-3.0324-1.1648-6.2909-2.7965-8.8564zm41.339 20.083-6.7458-17.9c-0.32008-0.72199 0.1059-1.2851 0.85676-1.2851h0.96265c0.53428-0.10589 1.071 0.32008 1.2851 0.85676l5.5665 15.094 4.8181-14.343c0.10589-0.53427 0.64257-0.85676 1.2033-0.85676h0.85676c0.53427 0 1.071 0.32008 1.2033 0.85676l4.7699 14.343 5.5665-14.986c0.10589-0.53427 0.64257-0.96265 1.2033-0.85676h0.96265c0.85676 0 1.2033 0.53427 0.85676 1.2851l-6.7434 17.876a1.107 1.107 0 0 1-1.2851 0.85676h-1.071c-0.53427 0-1.071-0.32008-1.2033-0.85676l-4.8181-14.127-4.7098 14.127c-0.10589 0.53427-0.64257 0.96265-1.2033 0.85676h-1.071c-0.64257-0.10589-1.2033-0.42838-1.2851-0.96265zm25.905-9.097c0-5.7807 4.6039-10.493 10.385-10.599h0.32008c4.924 0 9.5302 2.888 9.9562 9.4195 0.10589 0.64257-0.32008 1.0709-1.071 1.0709h-16.485c-0.32008 4.4956 3.2104 7.8143 8.1344 7.8143 2.166 0 4.2838-0.64257 6.0166-2.0336a1.1552 1.1552 0 0 1 1.4993 0.10589l0.32009 0.32008a1.0348 1.0348 0 0 1 0 1.4993l-0.24067 0.24066c-2.166 1.7135-4.8181 2.6762-7.6001 2.5703-6.8517 0-11.239-4.7098-11.239-10.385zm17.665-2.462c-0.53427-3.3211-3.5329-5.5665-6.8517-5.3523-3.4294-0.1444-6.5147 2.0625-7.4942 5.3523zm10.811 8.4569v2.888c0 0.53427-0.32008 1.0709-0.96265 1.0709h-1.0974c-0.53427 0-1.071-0.32008-1.071-0.85676v-27.084c0-0.53427 0.32008-1.0709 0.85676-1.0709h1.1768c0.53427 0 1.071 0.32008 1.071 0.85676v11.99c1.6052-2.7821 4.6039-4.4956 7.8143-4.3897 6.1008 0 10.06 4.7098 10.06 10.493s-3.9613 10.493-10.06 10.493c-3.2104 0.10589-6.2091-1.6052-7.8143-4.3897zm14.772-6.0166c0-4.2838-2.6762-7.8143-7.28-7.8143-4.0913-0.10589-7.4942 3.1286-7.6001 7.1717v0.53427c-0.24066 4.0913 2.9962 7.4942 7.0659 7.7084h0.53427c4.6039 0.10589 7.28-3.4246 7.28-7.6001zm8.1344 8.8853v-26.851c0-0.53427 0.32008-1.0709 0.85675-1.0709h1.2033c0.53427 0 1.071 0.32008 1.071 0.96265v12.31a7.3161 7.3161 0 0 1 7.0658-4.7098c4.2838 0 7.9226 2.462 7.9226 9.097v10.276c0 0.53427-0.32008 1.0709-0.96265 1.0709h-1.071c-0.53427 0-1.071-0.32008-1.071-0.96265v-10.377c0-4.8181-2.5703-6.4257-5.0539-6.4257-2.2478 0-6.7434 1.6052-6.7434 8.0285v8.6711c0 0.53427-0.32009 1.0709-0.96266 1.0709h-1.0709c-0.53428 0.10589-1.071-0.32008-1.2033-0.85676zm23.551-25.691a2.0697 2.0697 0 0 1 2.0336-2.2478h0.24066c1.2033 0 2.2478 0.96265 2.2478 2.166v0.10589c0 1.2033-0.96265 2.2478-2.166 2.2478h-0.10589c-1.2033 0-2.166-0.85676-2.2478-2.0336zm0.72198 25.691v-17.881c0-0.53427 0.42838-1.0709 0.96265-1.0709h1.071c0.53427-0.10589 0.96265 0.32008 1.071 0.85676v18.091c0.10589 0.53427-0.32008 0.96265-0.85676 1.0709h-1.2033c-0.53427 0-1.071-0.32008-1.071-0.96265-0.10589 0-0.10589-0.10589 0-0.10589zm9.6337 0v-17.881c0-0.53427 0.32008-1.0709 0.96265-1.0709h1.071c0.53427 0 1.071 0.32008 1.071 0.96265v3.3211c1.071-2.888 3.8506-4.8181 6.9792-4.7098 4.2838 0 7.9226 2.462 7.9226 9.097v10.276c0 0.53427-0.32008 1.0709-0.96265 1.0709h-1.071c-0.53427 0-1.0709-0.32008-1.0709-0.96265v-10.493c0-4.8181-2.5703-6.4257-5.0539-6.4257-2.2478 0-6.7434 1.6052-6.7434 8.0285v8.6711c0 0.53427-0.32008 1.0709-0.96265 1.0709h-1.071c-0.53427 0.10589-1.071-0.32008-1.071-0.85676zm24.836-5.2464v-11.217h-2.7821c-0.42838 0-0.64257-0.24066-0.64257-0.64257v-1.2033c0-0.32008 0.24066-0.64257 0.42838-0.64257h2.9962l0.64257-5.1381c0-0.53427 0.42838-0.96265 0.96265-0.85676h0.53427c0.42838-0.10589 0.85676 0.32008 0.96265 0.72199v5.3547h5.7807c0.32008 0 0.64257 0.24066 0.64257 0.53427v1.2851c0 0.32008-0.24066 0.64257-0.53427 0.64257h-5.8866v11.561c0 2.888 1.391 3.8506 2.888 3.8506 1.4993 0.10589 2.6762-0.96265 2.888-2.3585v-0.24066c0-0.24066 0-0.53427-0.10589-0.72199 0-0.53427 0.10589-0.72199 0.53427-0.72199h1.391c0.32009 0 0.64257 0.24066 0.72199 0.53427a5.2705 5.2705 0 0 1 0.10589 1.2851c0 2.7821-1.9253 4.924-5.6724 4.924-2.9962-0.24066-5.8866-1.6052-5.8866-6.9792z" fill="#4b06a4" stroke-width="2.4066"/>
</svg>
