<svg xmlns="http://www.w3.org/2000/svg" viewBox="0 0 255.41 301.889">
  <path fill="#fff" d="M239.683 239.405h-26.397a7.301 7.301 0 0 1-4.634-13.057 127.493 127.493 0 0 0 46.758-98.289C255.413 57.827 198.847.697 128.618.002 74.577-.291 26.194 33.444 7.786 84.254c-18.407 50.81-2.859 107.707 38.831 142.094a7.301 7.301 0 0 1-4.633 13.057H15.446C6.948 239.482.077 246.353 0 254.851v31.452a15.448 15.448 0 0 0 15.444 15.586h224.519a15.446 15.446 0 0 0 15.446-15.445V254.85c0-8.553-6.893-15.509-15.446-15.586z"/>
  <path fill="#4700a3" d="M127.635 14.745C65.69 15.135 15.75 65.596 16.008 127.542c.259 61.945 50.616 111.99 112.562 111.861 61.945-.128 112.096-50.38 112.096-112.327a112.331 112.331 0 0 0-113.031-112.33zm99.271 112.331c-.077 55.105-44.729 99.756-99.833 99.833a99.131 99.131 0 0 1-99.271-99.833c.077-55.104 44.729-99.755 99.833-99.832 54.76.561 99.271 45.071 99.271 99.832z"/>
  <path fill="#4700a3" d="M141.957 90.008a33.418 33.418 0 0 1 20.5 5.055 9.548 9.548 0 0 0-.702 3.93 12.637 12.637 0 0 0 12.637 12.638 10.952 10.952 0 0 0 4.633-.562 41.557 41.557 0 0 1 6.178 21.624c0 43.387-34.26 47.46-57.007 47.46-58.832 0-66.836-22.888-66.836-28.505h-2.808c-9.739-.076-17.615-7.953-17.692-17.692v-3.51h8.004a18.394 18.394 0 0 1 14.884 6.88 17.832 17.832 0 0 1 14.181-7.441h8.144v4.633a16.709 16.709 0 0 1-16.569 17.13h-1.123c.562 2.809 9.127 3.932 11.374 3.932a15.164 15.164 0 0 0 14.321-8.004 27.661 27.661 0 0 0 2.81-16.568c0-22.747 6.177-41 45.07-41zm54.76-13.76L185.765 93.94l-3.37 6.88a8.004 8.004 0 0 1-1.685 2.246 8.284 8.284 0 0 1-7.441 1.685 4.915 4.915 0 0 1-3.37-1.685 8.004 8.004 0 0 1 0-10.812c.561-.562 1.123-.562 1.544-1.123z"/>
  <path fill="#18186d" d="M50.268 280.406 44.37 264.82h-2.95l-5.896 15.586-5.757-15.586h-3.37l7.302 19.517h3.37l5.756-14.883 5.757 14.883h3.37l7.301-19.517h-3.23zm25.134-14.603a9.829 9.829 0 0 0-5.055-1.264 9.826 9.826 0 0 0-5.055 1.404 9.127 9.127 0 0 0-3.51 3.51 10.952 10.952 0 0 0 0 10.25 9.267 9.267 0 0 0 3.65 3.652 11.654 11.654 0 0 0 5.617 1.263c1.492.007 2.971-.279 4.353-.842a8.424 8.424 0 0 0 3.37-2.387l-1.966-2.247a7.301 7.301 0 0 1-5.617 2.387 7.442 7.442 0 0 1-4.915-1.685 6.038 6.038 0 0 1-2.246-4.212h15.867v-.983a10.953 10.953 0 0 0-1.264-5.336 8.987 8.987 0 0 0-3.23-3.51zm-11.233 7.442a6.319 6.319 0 0 1 1.965-4.212 6.74 6.74 0 0 1 8.425 0 6.318 6.318 0 0 1 2.106 4.212zm36.226-7.442a10.25 10.25 0 0 0-5.055-1.264 9.406 9.406 0 0 0-3.932.843 7.582 7.582 0 0 0-2.807 2.387l18.254-10.812H84.95v27.38h3.37v-3.089a7.722 7.722 0 0 0 2.948 2.388 9.407 9.407 0 0 0 4.072.982 10.25 10.25 0 0 0 5.055-1.404 9.127 9.127 0 0 0 3.51-3.51 10.531 10.531 0 0 0 1.405-5.196 10.53 10.53 0 0 0-1.405-5.195 8.987 8.987 0 0 0-3.51-3.51zm.421 12.356a6.178 6.178 0 0 1-2.387 2.528 7.02 7.02 0 0 1-6.74 0 6.178 6.178 0 0 1-2.387-2.528 8.144 8.144 0 0 1 0-7.16 6.038 6.038 0 0 1 2.388-2.388 7.02 7.02 0 0 1 6.739 0 6.038 6.038 0 0 1 2.387 2.388 7.863 7.863 0 0 1 0 7.16zm19.798-13.48a10.25 10.25 0 0 0-4.072.703 7.442 7.442 0 0 0-2.808 2.106v-10.53h-3.65v27.38h3.65v-10.11a6.6 6.6 0 0 1 1.685-4.775 6.038 6.038 0 0 1 4.493-1.684 5.196 5.196 0 0 1 3.932 1.404 6.038 6.038 0 0 1 1.404 4.212v10.953h3.51v-11.234a8.424 8.424 0 0 0-2.106-6.318 8.144 8.144 0 0 0-6.038-2.247zm14.744.141h3.51v19.658h-3.51zm1.825-8.565a2.386 2.386 0 0 0-1.825.842 2.246 2.246 0 0 0-.562 1.545c-.052.615.151 1.224.562 1.685.48.484 1.144.74 1.825.702a2.388 2.388 0 0 0 1.684-.702 2.246 2.246 0 0 0 .703-1.685 2.106 2.106 0 0 0-.702-1.685 2.387 2.387 0 0 0-1.685-.561zm18.955 8.424a9.969 9.969 0 0 0-4.212.703 7.02 7.02 0 0 0-2.808 2.387v-3.09h-3.51v19.658h3.51v-10.11a6.6 6.6 0 0 1 1.684-4.914 6.038 6.038 0 0 1 4.634-1.685 5.195 5.195 0 0 1 3.932 1.405 6.038 6.038 0 0 1 1.404 4.212v10.952h3.51v-11.233a8.565 8.565 0 0 0-2.246-6.319 8.144 8.144 0 0 0-5.898-2.246zm21.905 16.85a2.949 2.949 0 0 1-2.388-.842 3.37 3.37 0 0 1-.701-2.388v-10.67h5.616v-2.809h-5.616v-4.353h-3.51v4.212h-3.37v2.95h3.37v10.811a6.038 6.038 0 0 0 1.544 4.493 6.318 6.318 0 0 0 4.633 1.685 8.005 8.005 0 0 0 2.388-.421 5.055 5.055 0 0 0 1.825-.983l-.983-2.527a4.213 4.213 0 0 1-2.808.983z"/>
  <path fill="#4046dd" d="M187.45 279.563a2.528 2.528 0 0 0-1.825.702 2.387 2.387 0 0 0-.702 1.826 2.527 2.527 0 0 0 2.527 2.527 2.388 2.388 0 0 0 1.685-.702c.47-.49.723-1.147.702-1.825a2.387 2.387 0 0 0-.702-1.826 2.246 2.246 0 0 0-1.684-.702zm9.267-23.308a2.246 2.246 0 0 0-1.684.842c-.428.404-.68.958-.703 1.545a2.106 2.106 0 0 0 .702 1.685c.447.448 1.053.7 1.685.702a2.388 2.388 0 0 0 1.685-.702c.448-.446.7-1.052.702-1.685a2.106 2.106 0 0 0-.702-1.685 2.527 2.527 0 0 0-1.685-.561zm-1.825 8.565h3.51v19.658h-3.51zm27.66 4.633a9.408 9.408 0 0 0-3.65-3.65 11.373 11.373 0 0 0-10.53 0 9.407 9.407 0 0 0-3.651 3.65 10.812 10.812 0 0 0 0 10.25 9.407 9.407 0 0 0 3.65 3.652 11.233 11.233 0 0 0 10.531 0 9.407 9.407 0 0 0 3.65-3.651 10.812 10.812 0 0 0 0-10.25zm-3.088 8.706a6.038 6.038 0 0 1-2.387 2.528 7.02 7.02 0 0 1-6.74 0 6.319 6.319 0 0 1-2.387-2.528 7.863 7.863 0 0 1 0-7.16 6.178 6.178 0 0 1 2.387-2.388 7.02 7.02 0 0 1 6.74 0 5.897 5.897 0 0 1 2.387 2.388 8.004 8.004 0 0 1 0 7.16z"/>
</svg>
