<svg version="1.1" viewBox="0 0 48.613 53.7" xmlns="http://www.w3.org/2000/svg">
 <defs>
  <linearGradient id="a" x1="220.57" x2="220.57" y1=".826" y2="441.09" gradientTransform="matrix(.11042 0 0 .086644 -.0489 -.0718)" gradientUnits="userSpaceOnUse">
   <stop stop-color="#34AADC" offset="0"/>
   <stop stop-color="#007AFF" offset="1"/>
  </linearGradient>
 </defs>
 <path d="m46.105 29.852c3.344 2.608 3.344 6.898 0 9.526l-15.732 12.366c-3.344 2.608-8.789 2.608-12.133 0l-15.732-12.344c-3.344-2.608-3.344-6.898 0-9.527l15.732-12.365c3.344-2.607 8.789-2.607 12.133 0z" fill="#ff9d00"/>
 <path d="m18.278 44.026-15.802-12.42c-1.593-1.248-2.476-2.92-2.476-4.696 0-1.777 0.883-3.449 2.476-4.697l15.803-12.44c1.593-1.249 3.746-1.947 6.028-1.947s4.413 0.698 6.028 1.946l15.803 12.42c1.593 1.249 2.475 2.92 2.475 4.697s-0.882 3.449-2.475 4.697l-15.803 12.42c-1.615 1.269-3.746 1.967-6.028 1.967s-4.414-0.698-6.028-1.946z" fill="#fc0"/>
 <path d="m18.278 36.199-15.802-12.419c-1.5929-1.2481-2.4756-2.9196-2.4756-4.6968s0.88264-3.4488 2.4758-4.6968l15.802-12.44c1.5933-1.2481 3.7461-1.9462 6.028-1.9462s4.4132 0.69817 6.028 1.9464l15.802 12.419c1.5933 1.249 2.4756 2.9196 2.4756 4.6968s-0.88225 3.4488-2.4756 4.6968l-15.802 12.42c-1.6148 1.2686-3.7461 1.967-6.028 1.967s-4.4132-0.69836-6.028-1.9464z" fill="url(#a)" stroke-width=".09781"/>
 <path d="m24.361 30.986c8.075 0 14.621-5.35 14.621-11.95 0-6.602-6.546-11.953-14.62-11.953-8.076 0-14.622 5.35-14.622 11.952 0 6.6 6.546 11.951 14.621 11.951zm0 1.23c-8.907 0-16.126-5.901-16.126-13.18 0-7.281 7.22-13.183 16.126-13.183s16.127 5.902 16.127 13.182-7.22 13.182-16.127 13.182z" fill="#fff"/>
 <path d="m25.44 24.108a7.717 7.717 0 0 0 2.316-0.676l4.603 1.892-2.412-3.612c1.27-1.634 1.27-3.703 0-5.336l2.412-3.612-4.338 1.783-0.125 1.907c1.774 1.488 1.729 3.836-0.114 5.272-0.47 0.376-1.01 0.64-1.577 0.828zm-2.153-10.132a8.021 8.021 0 0 0-2.335 0.68l-4.599-1.892 2.411 3.612c-1.268 1.633-1.268 3.702 0 5.336l-2.41 3.612 4.456-1.832 0.095-1.786c-1.865-1.483-1.85-3.855 0.03-5.345 0.437-0.391 1.426-0.806 1.574-0.827z" fill="#8cc8f6"/>
 <path d="m22.149 18.64-0.612 10.857 4.96-10.069 0.71-10.836zm-0.064 8.771 3.972-8.06-3.48-0.636z" fill="#fff"/>
</svg>
