<svg viewBox="0 0 226.27 256" xmlns="http://www.w3.org/2000/svg">
  <path d="M113.13 0l113.13 63.992v128.02l-113.13 63.992L0 192.012V63.992z" fill="#fff" />
  <path
    d="M206.07 187.59l-89.192 50.457v-39.291l55.574-30.578zm6.11-5.525V76.555L179.554 95.41v67.822zM19.85 187.59l89.192 50.457v-39.291L53.44 168.178zm-6.11-5.525V76.555L46.366 95.41v67.822zm3.83-112.34l91.473-51.745v37.974L50.429 88.2l-.468.263zm190.78 0L116.877 17.98v37.974L175.49 88.17l.467.263z"
    fill="#8ed6fb" />
  <path
    d="M109.04 189.82l-54.844-30.17V99.925l54.844 31.659zm7.834 0l54.844-30.141V99.924l-54.844 31.659zM57.91 93.026l55.048-30.258 55.048 30.258-55.048 31.776z"
    fill="#1c78c0" />
</svg>
