<svg xmlns="http://www.w3.org/2000/svg" viewBox="0 0 256 289.666">
  <path fill="#fff" d="m256 217.262-128 72.404L0 217.262V72.405L128 0l128 72.405z"/>
  <path fill="#8ed6fb" d="M233.153 212.238 132.251 269.38v-44.438l62.889-34.633zm6.907-6.23L202.047 86.605l-36.903 21.301v76.8zm-217.6 6.23 100.903 57.093v-44.437l-62.889-34.585zm-6.907-6.23L53.567 86.605l36.902 21.301v76.8zm4.3-127.131 103.51-58.542v42.989L57.045 99.792l-.532.29zm215.86 0L132.251 20.335v42.989l66.27 36.516.531.29z"/>
  <path fill="#1c78c0" d="m123.363 214.798-62.02-34.149v-67.574l62.02 35.791zm8.888 0 62.02-34.1v-67.623l-62.02 35.791zM65.497 105.25l62.31-34.246 62.26 34.246-62.26 35.936z"/>
</svg>
