<svg xmlns="http://www.w3.org/2000/svg" viewBox="0 0 255.401 294.073">
  <path fill="#eb324b" d="M124.933 293.128C121.815 291.47 3.457 223.091 2.3 222.278c-2.464-1.728-2.298 3.705-2.298-75.23S-.164 73.547 2.3 71.818c.61-.428 28.669-16.688 62.355-36.134C106.922 11.286 126.352.276 127.353.158c1.811-.214-4.43-3.711 67.33 37.72 42.38 24.468 59.226 34.391 59.85 35.255l.868 1.202v145.427l-.868 1.202c-.624.863-17.465 10.783-59.852 35.255-67.06 38.716-65.52 37.845-66.92 37.853-.573.003-1.845-.422-2.828-.944z"/>
  <path fill="#333943" d="M126 274.856c-.441-.188-24.953-14.3-54.47-31.361-34.353-19.855-53.963-31.413-54.486-32.113-.813-1.09-.816-1.327-.816-64.334 0-63.047.002-63.243.818-64.336.524-.702 20.06-12.216 54.485-32.112 29.517-17.059 54.116-31.194 54.664-31.41.549-.218 1.553-.291 2.233-.164.967.182 104.484 59.605 108.805 62.459.583.385 1.247 1.188 1.474 1.783.276.722.456 22.028.542 64.05l.127 62.968-.838 1.132c-.553.747-12.01 7.574-33.653 20.056-81.042 46.735-75.863 43.807-77.41 43.75-.37-.015-1.035-.18-1.476-.368zm2.768-69.648c1.109-2.144 5.304-7.487 8.676-11.05 1.858-1.962 8.967-8.559 15.798-14.658 15.764-14.076 20.858-19.385 26.14-27.244 6.776-10.079 10.004-22.102 8.498-31.65-1.65-10.457-8.018-19.168-17.411-23.815-4.05-2.004-6.983-2.692-12.42-2.914-3.993-.163-5.418-.051-8.413.66-8.679 2.059-16.207 7.752-20.304 15.353-.682 1.267-1.393 2.304-1.579 2.304-.186 0-.785-.883-1.332-1.962-1.429-2.82-5.447-7.664-7.916-9.544-6.925-5.274-12.884-7.181-21.304-6.817-5.448.235-8.748 1.08-13.114 3.36-7.468 3.9-13.573 11.515-15.848 19.77-.893 3.24-.993 13.34-.169 17.027 1.92 8.59 6.36 17.046 13.25 25.24 3.871 4.6 11.216 11.694 22.244 21.48 13.554 12.029 18.433 17.106 22.404 23.313.802 1.254 1.628 2.28 1.836 2.28.208 0 .642-.51.964-1.133z"/>
  <path fill="#252a32" d="M151.207 228.18c-12.322-11.157-22.463-20.552-22.536-20.877-.146-.653 1.673-3.682 4.067-6.771 3.656-4.717 8.413-9.417 20.1-19.861 19.502-17.427 24.871-23.372 30.363-33.623 3.733-6.968 5.5-13.982 5.49-21.786-.008-5.914-.768-9.263-3.276-14.435-.631-1.303-1.098-2.488-1.036-2.635.112-.268 52.386 48.13 53.695 49.715.652.788.701 2.65.7 26.344-.003 23.55-.056 25.581-.702 26.626-.512.829-9.059 5.96-31.948 19.182-17.186 9.928-31.533 18.13-31.881 18.228-.41.115-8.524-6.968-23.036-20.108z"/>
</svg>
