<svg xmlns="http://www.w3.org/2000/svg" viewBox="0 0 344 277.991">
  <defs>
    <linearGradient id="a" x1="116.89" x2="116.89" y1="219.86" y2="1.019" gradientTransform="matrix(1.0663 0 0 .93783 0 -.004)" gradientUnits="userSpaceOnUse">
      <stop offset="0" stop-color="#78D431"/>
      <stop offset="1" stop-color="#9EEE69"/>
    </linearGradient>
    <linearGradient id="b" x1="226.92" x2="226.92" y1="282.25" y2="99.632" gradientTransform="matrix(1.0607 0 0 .9428 0 -.004)" gradientUnits="userSpaceOnUse">
      <stop offset="0" stop-color="#E4E6E6"/>
      <stop offset="1" stop-color="#F5F5FF"/>
    </linearGradient>
  </defs>
  <g fill-rule="evenodd">
    <path fill="url(#a)" d="M0 103.37c0 31.012 16.907 59.345 43.037 78.105 2.306 1.531 3.458 3.829 3.458 6.892 0 .765-.384 1.914-.384 2.68-1.921 7.657-5.38 20.292-5.764 20.675-.384 1.148-.768 1.914-.768 3.062 0 2.298 1.921 4.212 4.227 4.212.768 0 1.537-.383 2.305-.766l27.283-15.697c1.92-1.149 4.226-1.915 6.532-1.915 1.153 0 2.69 0 3.843.383 12.68 3.829 26.513 5.743 40.731 5.743 68.782 0 124.5-46.327 124.5-103.37C249 46.331 193.282.004 124.5.004S0 46.331 0 103.374" style="fill:url(#a)" transform="translate(0 -.004)"/>
    <path fill="url(#b)" d="M240.5 267.58c11.883 0 23.383-1.543 33.733-4.629.767-.386 1.917-.386 3.067-.386 1.917 0 3.833.772 5.367 1.543l22.616 13.116c.767.385 1.15.771 1.917.771a3.447 3.447 0 0 0 3.45-3.472c0-.771-.383-1.543-.383-2.7 0-.386-3.067-10.8-4.6-17.358-.384-.772-.384-1.543-.384-2.315 0-2.314 1.15-4.243 3.067-5.786C330.2 230.548 344 207.018 344 180.787c0-47.832-46.383-86.792-103.5-86.792S137 132.569 137 180.787c0 47.833 46.383 86.793 103.5 86.793z" style="fill:url(#b)" transform="translate(0 -.004)"/>
    <path fill="#187e28" d="M99 69.992c0 8.93-7.07 16-16 16s-16-7.07-16-16 7.07-16 16-16 16 7.07 16 16m83 0c0 8.93-7.07 16-16 16s-16-7.07-16-16 7.07-16 16-16 16 7.07 16 16"/>
    <path fill="#858c8c" d="M262 153.996c0 7.778 6.222 14 14 14s14-6.222 14-14-6.222-14-14-14-14 6.222-14 14m-69 0c0 7.778 6.222 14 14 14s14-6.222 14-14-6.222-14-14-14-14 6.222-14 14"/>
  </g>
</svg>
