<svg xmlns="http://www.w3.org/2000/svg" viewBox="0 0 256 341.333">
  <path d="M0 74.667V176h23.705V88.533l104.29-61.866L232.3 88.533v110.934c0 17.066-6.167 30.933-16.833 45.866-25.788 35.2-72.534 60.8-87.467 68.267-14.696-7.467-57.6-30.933-85.333-64h137.472c9.96-9.6 12.928-12.8 21.461-24.533H3.295C22.565 293.333 128 341.333 128 341.333c-.027 0 105.6-46.933 124.8-116.266 2.01-7.467 3.2-17.067 3.2-25.6v-124.8L127.994 0z"/>
  <path d="M66.084 108.8H188.03v20.267H66.084zM55.892 145.067H198.16v20.266H55.892zM53.333 180.267h142.268v20.266H53.333zM99.08 73.6h55.893v20.267H99.08z"/>
</svg>
