<svg xmlns="http://www.w3.org/2000/svg" viewBox="0 0 256 251.664">
  <path fill="#03cacf" d="M256 128C256 57.308 198.692 0 128 0 57.308 0 0 57.308 0 128c0 59.228 40.228 109.059 94.851 123.664 9.495-41.063 19.259-83.105 22.795-102.497 1.593-9.335-.962-12.313-7.468-15.815-26.03-10.379-52.005-2.087-71.335-40.307 50.412 7.413 77.155-4.307 89.951 17.133v.002c12.796-21.44 39.539-9.72 89.95-17.133-19.33 38.22-45.304 29.928-71.334 40.307-6.506 3.502-9.061 6.48-7.468 15.816 3.524 19.326 13.235 61.153 22.7 102.085C216.503 236.148 256 186.687 256 128"/>
</svg>
