<svg xmlns="http://www.w3.org/2000/svg" viewBox="0 0 256 256">
  <circle cx="128" cy="128" r="115.2" fill="#fff"/>
  <path fill="#3c790a" d="M128 256c70.692 0 128-57.308 128-128C256 57.308 198.692 0 128 0 57.308 0 0 57.308 0 128c0 70.692 57.308 128 128 128zm0-25.6c-56.554 0-102.4-45.846-102.4-102.4C25.6 71.446 71.446 25.6 128 25.6c56.554 0 102.4 45.846 102.4 102.4 0 56.554-45.846 102.4-102.4 102.4z"/>
  <path fill="#3c790a" d="M97.28 97.28c0-30.72 61.44-38.4 58.88-5.12 0 23.04-40.96 33.28-40.96 58.88v17.92h25.6v-10.24c0-23.04 43.52-30.72 43.52-69.12-5.12-56.32-115.2-56.32-115.2 7.68zm17.92 81.92h25.6v25.6h-25.6z"/>
</svg>
