<svg xmlns="http://www.w3.org/2000/svg" viewBox="0 0 511.999 75.113">
  <path fill="#ff9925" d="M259.716.057c20.555 0 37.217 16.662 37.217 37.215 0 20.556-16.662 37.219-37.217 37.219-20.554 0-37.216-16.663-37.216-37.218 0-20.555 16.662-37.217 37.216-37.217"/>
  <path fill="#fff" d="M255.065 51.23h18.608V23.317l-9.305 18.608-4.652-9.304-4.651 9.304-9.305-18.608V51.23z"/>
  <path fill="#111" d="M126.722 0c3.601 0 6.301 1 8.301 2.5 1.883 1.412 3.234 3.266 4.137 5.149l.164.353c1.1 2.299 1.7 5 1.8 7.901v10.101h-10.1V15.903c0-2.002-.502-3.402-1.602-4.601-.5-.501-1.4-.801-2.5-.801-1.9 0-2.8 1.4-3.3 2.701-.3.8-.4 1.7-.5 2.701v43.308c.1 2.099.7 3.5 1.7 4.599.5.501 1.2.801 2.1.801 2.3 0 3.2-1.2 3.701-2.7.3-.7.4-1.601.4-2.7V49.108h10.101v10.103c-.093 2.813-.627 5.361-1.6 7.565l-.2.436a13.79 13.79 0 0 1-3.954 5.132l-.347.269c-2 1.599-4.7 2.5-8.3 2.5-3.458 0-6.177-.83-8.159-2.311l-.244-.189c-1.882-1.413-3.144-3.179-4.037-5.05l-.164-.351c-1.1-2.301-1.7-5.001-1.8-8.001V15.903c.094-2.72.627-5.264 1.6-7.465l.2-.436C115.02 6 116.32 4 118.32 2.5c2-1.5 4.801-2.5 8.402-2.5zM395.48 0c3.6 0 6.3 1 8.3 2.5 1.882 1.412 3.235 3.266 4.138 5.149l.164.353c1.1 2.299 1.7 5 1.8 7.901v10.101H399.78V15.903c0-2.002-.5-3.402-1.6-4.601-.499-.501-1.4-.801-2.5-.801-1.9 0-2.802 1.4-3.3 2.701-.3.8-.4 1.7-.5 2.701v43.308c.1 2.099.698 3.5 1.7 4.599.5.501 1.2.801 2.1.801 2.301 0 3.2-1.2 3.7-2.7.3-.7.4-1.601.4-2.7V49.108h10.102v10.103c-.094 2.813-.628 5.361-1.6 7.565l-.2.436a13.792 13.792 0 0 1-3.955 5.132l-.347.269c-2 1.599-4.7 2.5-8.3 2.5-3.457 0-6.177-.83-8.158-2.311l-.244-.189c-1.882-1.413-3.145-3.179-4.038-5.05l-.163-.351c-1.099-2.301-1.7-5.001-1.8-8.001V15.903c.094-2.72.628-5.264 1.6-7.465l.2-.436C383.777 6 385.077 4 387.077 2.5c2-1.5 4.801-2.5 8.402-2.5zM158.428.8v30.405h8.402V.8h10.8v73.514h-10.8V42.307h-8.402v32.006h-10.802V.8zm51.91 0V11.9h-13.904v19.304h10.002v11.801h-10.002V63.21h13.903v11.103h-24.705V.8zm109.227 0 4.301 38.206.2 2.401h.8l.3-2.4L329.766.798h7.801l4.601 38.207.301 2.401h.8l.2-2.4 4.3-38.208h10.002l-9.903 73.514h-8.399l-5.002-34.807-.6-4.3h-.4l-.6 4.3-5.002 34.807h-8.4L309.562.8zm54.21 0v73.513h-10.802V.8zm53.41 0v25.704h.399l.5-1.2L437.086.798h10.5l-9.9 24.204 11.203 49.31h-10.503l-7.501-32.006-.3-1.5h-.3l-.6 1.5-2.5 6.001v26.005h-10.803V.8zm51.409 0V11.9h-13.902v19.304h10.002v11.801h-10.002V63.21h13.902v11.103H453.89V.8zm33.405 0V11.9h-10.2v62.412h-10.803V11.901h-10.2V.8zM24.304.8l11.103 73.513H24.904l-2-15.003H12.502l-2 15.003H0L11.102.8zM51.21.8c4.7 0 9.4 1.2 13.002 4.6 3.6 3.4 6 9.003 6 17.404 0 8.4-2.4 13.902-6 17.303-3.601 3.4-8.302 4.8-13.002 4.8v29.406H40.408V.8zm45.707 0 11.103 73.513H97.517l-2-15.003H85.115l-2 15.003H72.613L83.715.8zM18.003 22.804h-.6l-.3 1.9-3.1 23.205h7.401l-3.101-23.205zm72.613 0h-.6l-.3 1.9-3.1 23.205h7.4l-3.1-23.205zM51.21 11.802v22.104c3.3 0 5.4-.601 6.6-2.301 1.2-1.6 1.5-4.3 1.5-8.401l-.004-.86c-.043-3.649-.38-6.27-1.495-7.941-1.201-1.802-3.301-2.601-6.601-2.601z"/>
</svg>
