<svg xmlns="http://www.w3.org/2000/svg" viewBox="0 0 511.356 151.292">
  <path fill="#293644" d="m265.52 56.784 10.03 40.562h2.534l10.03-40.562h14.55l-19.289 78.04h-14.55l5.623-23.038h-9.92l-13.559-55.002zm-96.553-22.156v77.157h-3.856v-4.628l-.02.012c-.47.287-9.291 5.609-19.05 5.609-6.835 0-18.629-.993-18.629-27.777 0-18.96 5.072-29.32 23.148-29.32 5.18 0 11.796.882 14.55 1.323V34.628zm-52.353-3.306v80.464h-3.859V31.322zM3.857 34.628l15.764 73.41h4.187l17.086-72.307h4.408l17.637 72.307h4.188l15.212-73.41h3.859l-15.874 77.157h-10.58L43.098 40.912l-16.094 70.874H16.423L0 34.629zm94.791 22.045v55.112H94.79V56.673zM229.81 35.731V50.28h-33.288v21.935h26.676v14.439h-26.676v25.132h-14.99V35.73zm19.176-1.103v77.157h-14.769V34.629zm-98.424 24.58c-15.652 0-19.29 9.37-19.29 26.123 0 21.936 8.598 23.92 14.77 23.92 9.48 0 19.07-5.732 19.07-5.732V60.531c-2.867-.33-10.252-1.322-14.55-1.322zm-51.914-24.58v6.062H94.79v-6.062z"/>
  <path fill="#fff" d="M358.156 70.548c-1.911-.574-3.872-1.047-5.841-1.488-.983-.222-1.976-.431-2.967-.628-.991-.205-1.986-.402-2.978-.582a57.422 57.422 0 0 0-1.478-.25l-1.5-.199c-1.013-.133-2.035-.288-3.032-.373-1.008-.093-2.004-.215-3.024-.288l-3.048-.222c-2.042-.102-4.087-.21-6.141-.249a109.494 109.494 0 0 0-3.081-.056c-1.03-.01-2.06-.025-3.093-.012-2.054.002-4.16.037-6.184.092l-3.127.135-3.055.237-3.08.326c-1.033.118-2.056.262-3.086.391-2.057.292-4.116.619-6.174.987-2.062.37-4.128.768-6.192 1.188-4.153.833-8.302 1.705-12.423 2.715a140.33 140.33 0 0 0-6.147 1.643c-1.052.313-2.1.64-3.127.994.378.116.768.22 1.164.309 1.438.326 2.964.514 4.53.723.78.108 1.576.218 2.386.357l1.175.219.511.075.536.06c1.452.138 2.97.096 4.496.026 3.053-.161 6.134-.566 9.25-.875 1.556-.152 3.123-.288 4.722-.314.817-.01 1.567.02 2.347.028l2.322.05c1.552.039 3.096.095 4.64.171l.073.005c.123-.034.248-.075.372-.109l.383-.102.419-.102c.283-.074.56-.12.84-.18.553-.101 1.104-.18 1.646-.24a41.446 41.446 0 0 1 3.237-.216c2.126-.066 4.218-.024 6.299.028 2.074.064 4.132.11 6.184.208 2.047.105 4.092.385 6.135.603 2.039.236 4.086.33 6.112.225l2.261-.12-2.14.646c-1.474.445-2.97.614-4.471.77a81.091 81.091 0 0 1-4.515.31c-3.027.128-6.062.16-9.11.119a78.666 78.666 0 0 1-3.642-.153c-.987.015-1.969.04-2.94.09-1.01.055-2.007.131-2.976.261a20.16 20.16 0 0 0-1.425.238c-.228.054-.46.097-.68.16l-.334.09-.363.11c-.952.284-1.891.597-2.715.971-.168.075-.33.156-.48.235.336.141.705.276 1.092.4.915.286 1.894.525 2.878.74.98.212 2.006.408 2.976.567.518.086 1.034.167 1.508.224.476.069.988.114 1.48.167 1.99.194 4 .275 6.016.253a77.628 77.628 0 0 0 6.027-.3c4-.365 7.987-.942 11.907-1.74 1.96-.396 3.903-.83 5.831-1.318l1.443-.37 1.42-.384c.99-.252 1.875-.54 2.809-.803 1.862-.576 3.716-1.214 5.618-1.815 1.886-.607 3.816-1.16 5.79-1.547l.16-.245c.178-.434-.07-.882-.623-1.33a7.329 7.329 0 0 0-1.011-.546c-.891-.395-1.842-.694-2.792-.99zM396.615 84.406c.804.546 1.552 1.097 2.414 1.65l1.224.812 1.253.807a124.955 124.955 0 0 0 5.117 3.09c3.468 1.995 7.068 3.8 10.748 5.409a79.263 79.263 0 0 0 5.625 2.187 55.611 55.611 0 0 0 5.79 1.657c.487.104.984.226 1.457.309.468.097.983.181 1.5.264a63.89 63.89 0 0 0 3.004.401c1.003.108 2.006.19 2.964.205.405.005.797-.005 1.161-.033a7.367 7.367 0 0 0-.38-.375c-.663-.615-1.455-1.21-2.27-1.779l-.312-.218-.287-.19c-.188-.128-.394-.243-.593-.37a23.31 23.31 0 0 0-1.275-.674 39.418 39.418 0 0 0-2.744-1.185 75.533 75.533 0 0 0-2.754-1.01 78.19 78.19 0 0 1-3.511-1.008 165.084 165.084 0 0 1-8.609-2.987 83.39 83.39 0 0 1-4.19-1.717c-1.371-.624-2.737-1.257-3.996-2.144l-1.824-1.29 2.106.828c1.89.74 3.86 1.295 5.871 1.715 2.006.439 4.035.817 6.011 1.364 1.977.558 3.947 1.16 5.935 1.756 1.989.605 3.989 1.228 5.985 1.963 1.002.37 2.005.764 3 1.225.5.23.995.476 1.488.749.248.142.496.273.74.432l.367.23.331.218c.107.07.213.149.319.22l.07.019c1.49.416 2.972.849 4.456 1.302l2.22.685c.743.237 1.464.447 2.235.714 1.51.528 2.954 1.152 4.384 1.788 2.858 1.276 5.654 2.632 8.501 3.75 1.426.546 2.852 1.068 4.276 1.394l.526.112.507.09 1.185.164c.814.122 1.602.27 2.378.414 1.55.296 3.06.6 4.525.742.403.042.804.065 1.198.073-.861-.659-1.75-1.3-2.648-1.927a139.01 139.01 0 0 0-5.316-3.497c-3.59-2.26-7.253-4.397-10.93-6.499a263.55 263.55 0 0 0-5.5-3.082 177.94 177.94 0 0 0-5.548-2.886c-.937-.448-1.865-.908-2.806-1.346l-2.82-1.28-2.823-1.189-2.925-1.114a248.831 248.831 0 0 0-5.84-2.04c-.974-.338-1.96-.65-2.94-.963-.978-.318-1.956-.632-2.94-.922-1.963-.61-3.936-1.152-5.907-1.7l-2.964-.752c-.988-.25-1.971-.45-2.958-.68-.973-.235-1.992-.41-2.995-.603l-1.484-.284c-.483-.084-.987-.155-1.483-.227-.999-.143-2.006-.27-3.01-.39a118.99 118.99 0 0 0-3.012-.341c-2.01-.203-4.017-.37-6.01-.43-.997-.02-1.995-.038-2.961.058a7.38 7.38 0 0 0-1.13.199c-.668.25-1.046.597-1.013 1.066l.074.281c1.75.992 3.41 2.126 5.007 3.297 1.613 1.169 3.173 2.36 4.756 3.493z" opacity=".7"/>
  <path fill="#e1eef4" d="M315.587 65.203c-8.978.138-17.479 1.583-26.352 3.384-6.36 1.293-17.76 3.755-23.67 6.333 2.491 2.277 8.523 2.288 11.99 2.946 5.644 1.068 15.001-1.294 20.891-1.35 4.047-.04 8.011-.038 11.993.184-.749.108-1.451.24-2.076.413-1.366.38-5.566 1.552-5.318 2.89.289 1.532 7.352 2.79 8.732 3.041 10.782 1.94 24.252-.318 35.26-3.373 5.952-1.652 9.568-3.727 15.382-6.01-1.974.388-3.905.94-5.79 1.547-1.902.601-3.756 1.238-5.619 1.815-.934.264-1.819.55-2.808.803l-1.42.384-1.443.37c-1.929.487-3.872.922-5.831 1.318a109.89 109.89 0 0 1-11.908 1.74 78.106 78.106 0 0 1-6.026.3 55.59 55.59 0 0 1-6.017-.253c-.492-.054-1.004-.099-1.48-.167a33.75 33.75 0 0 1-1.507-.224c-.97-.16-1.997-.355-2.977-.568a34.097 34.097 0 0 1-2.878-.74 13.66 13.66 0 0 1-1.092-.399c.151-.08.312-.16.48-.235.824-.375 1.765-.687 2.715-.971l.364-.11.334-.09c.219-.063.452-.106.68-.16.461-.094.937-.175 1.424-.238a37.96 37.96 0 0 1 2.977-.26c.97-.051 1.953-.076 2.94-.091 1.219.082 2.43.127 3.64.153a163.9 163.9 0 0 0 9.111-.12 81.092 81.092 0 0 0 4.515-.309c1.5-.157 2.997-.326 4.472-.77l2.14-.647-2.261.12c-2.026.105-4.074.011-6.112-.225-2.044-.218-4.089-.498-6.135-.602-2.053-.097-4.11-.145-6.184-.208-2.082-.053-4.173-.094-6.3-.028a41.876 41.876 0 0 0-3.236.215c-.543.062-1.093.14-1.647.242-.28.058-.557.104-.84.179l-.418.102-.384.102c-.123.033-.248.074-.371.109l-.073-.005a194.474 194.474 0 0 0-4.64-.172l-2.322-.049c-.78-.008-1.53-.038-2.347-.028-1.6.025-3.167.162-4.722.314-3.115.31-6.197.714-9.25.874-1.525.071-3.044.112-4.497-.026l-.535-.06-.512-.074-1.175-.22c-.81-.14-1.606-.249-2.386-.356-1.566-.209-3.091-.398-4.53-.724a15.238 15.238 0 0 1-1.163-.308 77.507 77.507 0 0 1 3.126-.994 140.329 140.329 0 0 1 6.148-1.643c4.12-1.01 8.27-1.882 12.422-2.715 2.065-.42 4.13-.82 6.192-1.189a175.99 175.99 0 0 1 6.175-.986c1.03-.13 2.053-.274 3.086-.392l3.08-.325 3.054-.237 3.127-.136a241.31 241.31 0 0 1 6.184-.091c1.033-.013 2.064.002 3.093.012 1.03.008 2.057.018 3.081.056 2.055.04 4.1.147 6.141.249l3.049.222c1.02.072 2.016.195 3.024.288.997.085 2.019.239 3.03.373l1.502.2c.48.072.983.161 1.477.25.993.18 1.987.376 2.979.58.99.198 1.984.407 2.966.628 1.97.442 3.93.915 5.842 1.488.95.296 1.9.595 2.788.992.358.16.7.342 1.01.545-3.022-2.44-15.174-4.91-17.348-5.264-9.115-1.488-19.806-1.76-29.016-1.619z" opacity=".5"/>
  <path fill="#293644" d="M391.85 74.732c2.066-.126 4.12-.087 6.174.003 2.052.096 4.104.256 6.154.488.515.058 1.022.116 1.557.191l1.534.259c1.008.173 2.016.328 3.036.553 1.018.212 2.052.404 3.06.638l3.028.708c2.011.514 4.023 1.028 6.022 1.606 1.005.274 2.002.574 3 .875l.998.299c.665.2 1.33.403 1.99.618 2.005.626 3.96 1.268 5.986 1.96l2.95 1.06 2.977 1.185 2.925 1.266c.969.443 1.92.906 2.882 1.358a172.35 172.35 0 0 1 5.673 2.908 248.12 248.12 0 0 1 5.589 3.084c1.859 1.04 3.692 2.13 5.532 3.222 1.84 1.101 3.674 2.222 5.496 3.38a138.695 138.695 0 0 1 5.422 3.6c1.79 1.263 3.553 2.568 5.247 4.074l1.614 1.444-1.937.827c-.952.404-1.916.543-2.82.58-.904.04-1.77-.028-2.605-.125-1.675-.205-3.265-.548-4.804-.89a67.418 67.418 0 0 0-2.261-.487l-1.148-.198c-.197-.036-.435-.089-.652-.133l-.622-.154c-1.63-.435-3.15-1.027-4.619-1.677-2.925-1.3-5.669-2.79-8.43-4.167-1.376-.689-2.75-1.354-4.14-1.91-1.4-.535-2.891-1.074-4.324-1.593-.389-.139-.781-.267-1.17-.404.253.25.505.526.752.867.212.3.443.645.584 1.204.061.291.103.634 0 1.03-.02.098-.052.187-.094.282l-.058.141-.032.067-.063.103-.042.064-.088.124c-.102.125-.165.184-.23.245-.546.473-.97.574-1.339.69-.371.1-.696.15-1.01.19-.624.073-1.202.09-1.77.089a37.044 37.044 0 0 1-3.29-.177 68.18 68.18 0 0 1-3.21-.382 41.59 41.59 0 0 1-1.59-.258c-.551-.09-1.07-.207-1.6-.314-2.114-.463-4.171-1.07-6.19-1.761a71.466 71.466 0 0 1-5.886-2.34 104.31 104.31 0 0 1-2.843-1.327 103.22 103.22 0 0 1-2.77-1.43 116.907 116.907 0 0 1-5.37-3.065 129.268 129.268 0 0 1-5.152-3.294l-1.257-.854-.157-.107-.174-.128-.301-.22-.605-.445c-.802-.57-1.607-1.257-2.394-1.907a52.638 52.638 0 0 1-4.27-4.205c-1.324-1.456-2.62-2.912-3.867-4.447 4.795 4.002 7.573 7.113 12.7 10.56 9.479 6.372 21.552 12.765 32.391 14.326 1.389.2 8.492 1.235 9.248-.129.657-1.19-2.96-3.63-4.133-4.42-.538-.36-1.165-.709-1.842-1.049 3.848 1.048 7.612 2.298 11.44 3.613 5.57 1.914 13.703 7.106 19.397 7.873 3.497.472 9.225 2.365 12.307.99-4.795-4.309-14.834-10.246-20.46-13.478-7.854-4.51-15.464-8.563-23.938-11.528-8.696-3.04-18.926-6.157-28.047-7.624-2.176-.35-14.483-1.844-18.122-.481-.083.022-.173.035-.251.062a2.044 2.044 0 0 0-.544.263.584.584 0 0 0-.161.172c-.02.033-.03.06-.04.08-.018.01-.015.106-.021.156l-.622-.01c-.001-.071-.02-.096-.002-.203.004-.1.028-.19.057-.265.06-.163.16-.303.268-.42a2.38 2.38 0 0 1 .73-.5c.511-.237 1.032-.371 1.547-.483a21.084 21.084 0 0 1 3.1-.388zm-76.216-11.035c2.14-.015 4.2-.01 6.297.03 1.044.006 2.085.04 3.127.072 1.04.03 2.082.061 3.12.119 2.08.08 4.152.229 6.22.375l3.098.285c1.031.094 2.072.239 3.104.359 1.041.109 2.045.28 3.058.432l1.537.24c.53.097 1.031.201 1.538.31a95.06 95.06 0 0 1 5.995 1.477c1.974.563 3.936 1.174 5.86 1.948.957.38 1.902.814 2.816 1.345.456.27.905.562 1.315.946.205.194.4.42.532.706.069.144.12.309.123.48a.9.9 0 0 1-.028.27c-.018.108-.043.128-.065.193l-.593-.186c.007-.05.04-.139.028-.154-.004-.022-.005-.052-.015-.09a.548.548 0 0 0-.1-.214c-.097-.145-.257-.286-.428-.42-.067-.049-.147-.09-.218-.137-3.022-2.442-15.175-4.91-17.349-5.264-9.119-1.487-19.81-1.758-29.02-1.618-8.977.14-17.478 1.584-26.352 3.384-6.36 1.293-17.76 3.756-23.669 6.333 2.491 2.277 8.523 2.288 11.99 2.946 5.644 1.068 15.001-1.294 20.891-1.35 4.047-.04 8.011-.037 11.993.184-.749.108-1.451.24-2.076.413-1.367.38-5.566 1.552-5.318 2.89.289 1.531 7.352 2.791 8.732 3.042 10.781 1.94 24.251-.318 35.26-3.374 5.951-1.652 9.568-3.727 15.382-6.01-1.666 1.063-3.355 2.034-5.072 2.999a52.872 52.872 0 0 1-5.38 2.642c-.95.37-1.932.767-2.87 1.053l-.716.232-.357.114-.203.064-.184.054-1.463.414a129.937 129.937 0 0 1-5.932 1.5c-2 .452-4.016.865-6.059 1.213-1.021.179-2.048.333-3.08.484-1.032.132-2.07.26-3.116.36-2.09.203-4.2.343-6.324.361-2.131.02-4.277-.053-6.428-.281-.541-.066-1.065-.12-1.62-.205-.564-.078-1.075-.168-1.589-.258a66.806 66.806 0 0 1-3.166-.651 37.281 37.281 0 0 1-3.178-.869c-.541-.18-1.08-.378-1.652-.643a7.022 7.022 0 0 1-.9-.5c-.31-.226-.682-.454-1.053-1.078a2.063 2.063 0 0 1-.19-.477l-.014-.045-.025-.119-.011-.074-.014-.151a2.161 2.161 0 0 1 .329-1.276c.31-.486.638-.742.932-.962.34-.243.665-.424.985-.58-.414.006-.822.004-1.234.012-1.526.04-3.109.079-4.604.146-1.495.088-3.011.287-4.535.505-3.052.438-6.126.984-9.314 1.295-1.6.151-3.227.233-4.91.132l-.64-.052c-.218-.025-.46-.049-.662-.08l-1.149-.172c-.742-.1-1.516-.176-2.3-.254-1.568-.161-3.185-.335-4.84-.671a16.162 16.162 0 0 1-2.513-.705c-.844-.321-1.715-.755-2.492-1.44l-1.576-1.397 1.993-.856c2.082-.892 4.169-1.576 6.265-2.208 2.089-.625 4.185-1.183 6.282-1.707 2.09-.522 4.187-1.008 6.28-1.47 2.092-.457 4.172-.91 6.266-1.314 2.088-.41 4.18-.8 6.275-1.16 2.091-.363 4.195-.683 6.302-.97 1.058-.125 2.106-.265 3.163-.379l3.173-.28 3.201-.184z"/>
  <path fill="#e1eef4" d="M431.943 102.501c1.388.2 8.491 1.234 9.247-.129.657-1.19-2.96-3.63-4.132-4.42-.539-.36-1.166-.709-1.842-1.049 3.848 1.048 7.612 2.298 11.438 3.613 5.571 1.913 13.706 7.106 19.399 7.873 3.496.472 9.225 2.365 12.306.99-4.795-4.309-14.834-10.246-20.46-13.478-7.854-4.51-15.464-8.564-23.938-11.528-8.695-3.04-18.925-6.157-28.046-7.624-2.177-.35-14.484-1.844-18.123-.481.358-.094.74-.16 1.13-.2.965-.095 1.964-.077 2.96-.057 1.994.059 4.001.226 6.011.43a115.1 115.1 0 0 1 3.013.34c1.003.12 2.01.248 3.009.391.496.072 1.001.143 1.482.227l1.485.284c1.002.193 2.02.369 2.995.603.986.23 1.97.43 2.958.68l2.964.751c1.971.549 3.944 1.092 5.906 1.701.985.29 1.963.603 2.941.922.98.313 1.966.625 2.94.964 1.948.65 3.937 1.35 5.84 2.04l2.925 1.113 2.823 1.188 2.82 1.281c.941.438 1.869.899 2.806 1.346 1.86.928 3.71 1.887 5.548 2.886a263.584 263.584 0 0 1 5.5 3.082c3.677 2.102 7.34 4.239 10.93 6.499 1.799 1.132 3.58 2.29 5.316 3.497a76.044 76.044 0 0 1 2.648 1.927c-.394-.008-.795-.03-1.198-.072-1.465-.142-2.974-.447-4.525-.743-.776-.143-1.564-.292-2.378-.413l-1.185-.165-.508-.09-.526-.111c-1.423-.327-2.85-.849-4.275-1.396-2.848-1.117-5.643-2.473-8.501-3.749-1.43-.636-2.873-1.26-4.384-1.788-.77-.268-1.493-.477-2.234-.714l-2.221-.685a184.86 184.86 0 0 0-4.456-1.302l-.07-.018c-.106-.072-.212-.15-.32-.22l-.33-.218-.366-.23c-.244-.16-.492-.29-.741-.433-.493-.273-.988-.52-1.487-.75-.996-.46-2-.855-3-1.224-1.996-.735-3.996-1.358-5.986-1.962-1.988-.597-3.958-1.2-5.935-1.757-1.976-.547-4.005-.925-6.011-1.364-2.01-.419-3.982-.975-5.872-1.715l-2.105-.827 1.824 1.289c1.26.888 2.625 1.52 3.997 2.144a83.386 83.386 0 0 0 4.189 1.718 164.52 164.52 0 0 0 8.609 2.986c1.156.359 2.324.7 3.511 1.008.928.323 1.85.656 2.753 1.01.94.37 1.865.76 2.745 1.185.44.217.866.441 1.274.674.2.127.406.242.594.37l.287.19.312.218c.814.569 1.607 1.164 2.27 1.779.136.123.26.25.38.375a13.06 13.06 0 0 1-1.161.033 33.305 33.305 0 0 1-2.965-.204 63.725 63.725 0 0 1-3.003-.401 33.39 33.39 0 0 1-1.5-.265c-.473-.083-.97-.204-1.457-.309a56.04 56.04 0 0 1-5.79-1.657 79.43 79.43 0 0 1-5.625-2.187c-3.68-1.61-7.28-3.414-10.748-5.41a124.962 124.962 0 0 1-5.117-3.089l-1.253-.807-1.224-.813c-.86-.552-1.61-1.103-2.414-1.65-1.584-1.132-3.144-2.323-4.756-3.493-1.596-1.172-3.258-2.306-5.007-3.297 4.795 4.002 7.572 7.113 12.7 10.561 9.477 6.372 21.55 12.765 32.39 14.326z" opacity=".5"/>
  <path fill="#d4dfe5" d="M353.13 82.959c-.146 3.553 1.985 6.897 4.004 9.85 2.988 4.378 1.399 10.067 1.521 14.776.187 7.33-2.507 36.443 3.732 43.343l.025.008c7.934-3.329 14.388-30.956 16.892-37.759 1.612-4.374 1.92-11.763 6.14-14.683 3.13-2.17 7.448-4.463 8.204-8.412l-18.673-19.057c.001.001-21.834 11.701-21.845 11.934z"/>
  <path fill="#dfeef6" d="M390.697 90.117c-.519.224-1.034.458-1.548.696a18.53 18.53 0 0 0 1.917-1.377c.69-.576-.595-1.243-1.1-1.125a53.33 53.33 0 0 0-2.62.683c.41-.538.767-1.12 1.044-1.764.294-.685-.698-1.088-1.218-1.003-5.459.932-9.213 4.648-14.043 7.057-2.368 1.18-4.832 2.219-7.37 3.02-.343.093-.677.192-1.011.293-.65.164-1.304.295-1.973.375-.573.174-1.013-.03-1.32-.613.46-.472 1.87-.71 2.443-.855 2.294-.574 4.45-1.35 6.603-2.313 1.91-.854 3.695-1.9 5.352-3.149 3.519-1.176 6.817-2.923 9.395-5.632.55-.575-.885-1.053-1.22-1.003-2.97.419-5.214 1.94-7.471 3.85a34.57 34.57 0 0 1-2.18 1.705c-1.42.458-2.865.848-4.303 1.186-.961.228-1.978.378-3.015.508 1.408-.759 2.803-1.556 4.23-2.318 3.861-2.056 8.262-3.346 11.432-6.456.743-.727-.77-1.232-1.306-1.08-4.071 1.144-7.83 2.964-11.658 4.76a192.716 192.716 0 0 0 9.981-5.337c.812-.463-.573-1.117-1.179-1.1.305-.152.61-.302.913-.458 1.017-.523-.452-1.442-1.143-1.17a94.476 94.476 0 0 0-10.641 4.905c-2.75 1.476-6.188 4.316-9.52 5.094 1.902-1.82 4.823-2.787 7.024-4.081 3.325-1.957 6.626-3.932 9.865-5.994.59-.373-.052-.863-.664-1.046a257.95 257.95 0 0 0 2.194-1.338c.605-.375-.144-.957-.783-1.102.236-.404.309-.788.09-1.11-.255-.377-.787-.614-1.22-.521-.594.127-1.074.495-1.57.827-2.078 1.383-4.069 2.704-6.33 3.81-2.853 1.398-5.817 2.568-8.704 3.922-.832.243-1.666.49-2.503.758-.431.137-.444.39-.26.631-.194.105-.39.204-.583.31-.208.119-.234.422-.109.621.479.776 1.3 1.016 2.248.963-.809.387-1.62.767-2.44 1.139-.895.404.11 1.239.726 1.242a5.919 5.919 0 0 0 1.764-.275c-.577.496-1.1 1.051-1.521 1.719-.369.583.601.996 1.015 1.023.404.027.796.02 1.182-.013-.238.176-.485.338-.721.518-.775.586.777 1.38 1.332 1.086l.17-.091h.002c.195-.103.387-.212.581-.315-.071.067-.146.125-.217.192-.703.673.61 1.162 1.124 1.136 3.174-.152 5.902-2.043 8.55-3.556a65.688 65.688 0 0 1 8.9-4.22c-2.312 1.28-4.838 2.255-7.173 3.437-2.768 1.404-5.374 3.012-8.195 4.254-1.25.282-2.443.686-3.513 1.322-.89.527.836 1.226 1.332 1.082a27.27 27.27 0 0 0 3.107-1.11c1.587-.307 3.275-.39 4.774-.65.85-.147 1.689-.329 2.527-.513a38.838 38.838 0 0 1-3.805 1.713c-1.922.744-5.138.814-6.651 2.358-.733.748.358 2 1.09 2.29.09.038.185.061.277.092-.273.135-.557.258-.82.408-.5.282.044.91.395 1.03 1.301.44 2.565.476 3.798.277-.959.382-1.912.765-2.873 1.144-.8.314-.146.962.53 1.156-1.737 1.056-2.918 2.17-1.839 2.881 1.047.689 2.538.01 3.52-.354 1.02-.379 2.019-.803 3.018-1.231-.127.085-.256.163-.383.249-.231.154-.27.32-.199.474-.59.333-1.182.666-1.766 1.01-.344.204-.276.454-.04.665-1.773.551-3.5 1.212-4.795 2.533-.583.595.367 1.092.89 1.14 2.245.214 4.498-.173 6.728-.858-.33.5.568.963.999.995 1.16.084 2.285-.052 3.385-.31-.182.09-.368.18-.547.273-.831.436-1.7.796-2.588 1.113-2.643.71-5.28 1.461-7.786 2.57-1.044.462.447 1.476 1.161 1.166 1.94-.85 3.973-1.441 5.986-2.077.212-.06.42-.122.633-.18-2.525 1.324-5.022 2.699-7.336 4.404-.84.622.814 1.243 1.329 1.072.397-.135.786-.285 1.176-.436a13.46 13.46 0 0 0-1.903 2.076c-.457.629.832 1.1 1.244.999 1.805-.446 3.517-1.079 5.19-1.797-1.303 1.122-2.465 2.38-3.337 3.887-.26.45.154.758.599.903-.407.271-.812.55-1.216.831-.829.581.878 1.376 1.493.974a89.19 89.19 0 0 0 2.325-1.564c1.329-.828 2.72-1.5 4.264-1.751-.716 1.117-2.19 1.773-3.301 2.267-1.038.46.442 1.472 1.153 1.156 1.759-.78 4.022-1.846 4.395-3.98.09-.542-.666-.841-1.062-.85a9.837 9.837 0 0 0-1.491.085 31.425 31.425 0 0 0 2.618-2.549c.55-.61-1.014-1.172-1.436-.94-1.802.988-3.284 2.78-5.024 3.975 2.699-3.009 6.63-4.947 9.784-7.265.783-.579-.773-1.328-1.313-1.067-3.781 1.817-7.405 3.997-11.356 5.457 2.964-2.648 6.998-4.11 10.231-6.27.677-.452-.258-.995-.916-1.087.29-.159.582-.318.872-.481h.002v-.002c.055-.03.111-.06.166-.092.467-.264.201-.595-.222-.821 1.97-.927 3.937-2.004 5.333-3.434.726-.745-.762-1.23-1.31-1.07-2.884.852-5.785 2.678-8.829 3.312 3.016-2.104 6.606-3.613 9.902-4.97 1.06-.44-.455-1.389-1.145-1.163-2.934.976-5.762 2.292-8.63 3.477-2.467 1.017-5.232 2.273-8.006 2.648 2.63-1.586 6.28-2.211 8.926-3.345 4.448-1.908 8.867-3.817 13.037-6.229.685-.396-.276-.995-.852-1.107 1.811-.988 3.62-1.979 5.438-2.954 1.04-.562-.475-1.346-1.14-1.161-.309.085-.604.186-.91.273a85.284 85.284 0 0 1 4.605-2.208c1.018-.45-.44-1.462-1.136-1.166zm-22.464-3.805c-1.714.918-3.418 2.059-5.216 2.873 1.654-1.089 3.447-2 5.216-2.873zm-2.663 11.712a9.44 9.44 0 0 1-1.876.502c.32-.116.646-.223.978-.324.3-.047.597-.108.898-.178zm10.84-4.923c3.068-1.91 6.035-4.016 9.413-5.091-.586.82-1.314 1.529-2.133 2.15-2.46.868-4.873 1.866-7.28 2.941zm-12.98 9.953c.725-.422 1.493-.782 2.235-1.144 1.93-.941 3.923-1.741 5.894-2.573 3.647-1.539 7.105-3.452 10.613-5.244.662-.251 1.315-.51 1.967-.775-3.045 1.617-6.063 3.319-9.188 4.805-3.751 1.784-7.636 3.372-11.52 4.931zm15.004-4.594-.82.432a.808.808 0 0 1-.05.017c.08-.046.158-.091.238-.14.21-.102.421-.208.632-.31z"/>
  <path fill="#293644" d="M417.065 112.37c-.5-.497-1.235-1.221-2.186-2.13a634.295 634.295 0 0 1-7.709-7.73c-1.578-1.629-3.312-3.37-5.102-5.266-1.828-1.857-3.716-3.868-5.693-5.928l-6.087-6.414a759.422 759.422 0 0 1-6.292-6.687c-2.336-2.49-4.657-4.992-6.95-7.454l4.603-2.54c1.286-.696 2.548-1.384 3.783-2.058l3.649-1.955c2.378-1.307 4.611-2.6 6.611-3.898 2.01-1.292 3.794-2.579 5.277-3.847 1.492-1.261 2.677-2.515 3.525-3.646.851-1.136 1.352-2.147 1.622-2.866.143-.356.22-.638.269-.831.051-.193.08-.29.08-.29s-.035.096-.098.282c-.065.188-.158.467-.326.805-.31.687-.876 1.645-1.783 2.695-.912 1.046-2.15 2.189-3.696 3.324-1.541 1.14-3.375 2.285-5.441 3.413-2.071 1.12-4.369 2.219-6.83 3.326-1.218.574-2.496 1.125-3.771 1.774l-3.858 1.98a822.735 822.735 0 0 0-5.139 2.698 839.093 839.093 0 0 0-3.994-4.252l-2.996-3.132c-.997-1.032-2.02-1.97-2.982-2.911-1.964-1.852-3.776-3.643-5.365-5.379-1.584-1.741-2.945-3.425-4.025-5.006-1.092-1.579-1.884-3.063-2.403-4.35-.516-1.29-.735-2.38-.808-3.13a6.755 6.755 0 0 1-.04-.868v-.3s-.009.103-.022.3a6.874 6.874 0 0 0-.019.874c.021.766.166 1.886.6 3.24.43 1.346 1.138 2.917 2.134 4.598.988 1.686 2.252 3.485 3.728 5.361 1.467 1.882 3.152 3.835 4.973 5.848l2.806 3.042c.947 1.041 1.917 2.105 2.903 3.184 1.156 1.286 2.341 2.6 3.536 3.926-2.98 1.58-6.002 3.188-9.032 4.78a718.422 718.422 0 0 1-8.134 4.26c-.93.484-6.256 3.242-7.85 4.068-2.542 1.3-4.984 2.581-7.32 3.739-2.31 1.205-4.52 2.28-6.542 3.303a644.863 644.863 0 0 1-9.815 4.783c-1.195.547-2.13.994-2.764 1.299-.634.301-.975.466-.975.466s.362-.118 1.038-.33c.673-.218 1.664-.534 2.919-.955 1.257-.417 2.757-.995 4.49-1.629 1.732-.645 3.655-1.447 5.77-2.295 2.092-.902 4.37-1.863 6.75-2.948a431.83 431.83 0 0 0 7.471-3.505l3.34-1.66c.016.628.091 1.254.233 1.865.337 1.519.987 2.943 1.738 4.28.736 1.34 1.653 2.6 2.435 3.855.736 1.272 1.129 2.73 1.295 4.193.327 2.953-.16 5.911-.215 8.927v.242c-.212.147-.4.296-.55.448-.278.272-.44.547-.49.75-.054.204-.044.314-.044.314s.018-.116.112-.282c.092-.168.287-.379.586-.565.111-.068.249-.131.385-.195a84.972 84.972 0 0 1-.061 3.776l-.158 4.484c-.22 5.98-.387 11.982-.14 17.995.132 3.008.383 6.019.894 9.006.256 1.492.591 2.978 1.07 4.436.488 1.44 1.113 2.887 2.164 4.078l.063.075.097.026.028.006.113.03.096-.043c1.455-.64 2.545-1.783 3.483-2.966.938-1.196 1.726-2.49 2.449-3.814 1.436-2.655 2.605-5.437 3.68-8.247 1.673-4.393 3.086-8.873 4.437-13.363l.077-.024-.024-.15c.36-1.2.717-2.398 1.073-3.597.43-1.434.856-2.868 1.31-4.288.221-.713.476-1.402.72-2.118a33.49 33.49 0 0 0 .613-2.18c.059-.244.115-.49.173-.733.16.119.31.232.445.331.604.443.953.695.953.695l-.887-.78c-.143-.125-.3-.265-.47-.42.275-1.157.54-2.315.847-3.453.387-1.432.843-2.847 1.49-4.148.646-1.293 1.513-2.475 2.666-3.278 1.184-.82 2.415-1.586 3.592-2.445 1.175-.854 2.313-1.797 3.237-2.974a7.869 7.869 0 0 0 1.07-1.82l1.302 1.327a410.834 410.834 0 0 0 5.913 5.755c1.893 1.806 3.732 3.46 5.413 4.997 1.72 1.495 3.275 2.882 4.699 4.057 1.43 1.167 2.657 2.202 3.71 3.009 1.048.808 1.879 1.433 2.45 1.856l.868.651-.77-.76zm-37.2-2.014c-.179.724-.373 1.443-.6 2.142-.236.697-.504 1.404-.727 2.122-.464 1.427-.893 2.861-1.328 4.293-.276.922-.557 1.84-.834 2.76a6.709 6.709 0 0 0-.322-.716 6.863 6.863 0 0 0-.787-1.16c-.314-.414-.719-.797-1.162-1.197-.458-.37-.96-.754-1.51-1.074a10.908 10.908 0 0 0-1.778-.84 11.064 11.064 0 0 0-1.932-.53 13.706 13.706 0 0 0-3.884-.16c-.618.056-1.208.159-1.757.297-.55.142-1.065.284-1.52.486a8.055 8.055 0 0 0-1.21.593c-.344.204-.63.402-.848.593-.227.175-.383.34-.488.452-.103.112-.161.171-.161.171l.037.05.217-.078c.138-.056.342-.13.602-.21.13-.045.273-.087.433-.124.157-.041.321-.096.509-.13.364-.077.77-.162 1.225-.219.447-.06.937-.11 1.455-.139.52-.018 1.063-.034 1.625-.018.56.005 1.145.05 1.73.102.584.062 1.18.136 1.766.24.586.11 1.17.216 1.738.366.568.135 1.123.297 1.65.486 1.057.363 1.992.882 2.683 1.476a6.27 6.27 0 0 1 1.395 1.717c.043.066.071.126.104.191-1.402 4.61-2.861 9.205-4.587 13.69-1.076 2.79-2.256 5.55-3.674 8.158-.715 1.303-1.492 2.57-2.403 3.72-.857 1.077-1.853 2.074-3.04 2.65-.85-1.04-1.42-2.33-1.861-3.645-.455-1.408-.78-2.864-1.027-4.331-.5-2.941-.718-5.929-.866-8.91-.275-5.979-.141-11.963.047-17.942l.135-4.488c.04-1.334.03-2.702.014-4.033a11.433 11.433 0 0 1 1.884-.468 31.521 31.521 0 0 1 4.217-.42c.777-.031 1.578-.049 2.39-.049.8-.01 1.616-.02 2.426-.028.4-.004.8 0 1.17.025.416.032.845.046 1.22.084.768.051 1.557.19 2.306.347.736.198 1.456.426 2.105.726s1.255.617 1.793.955c.633.387 1.175.764 1.646 1.106-.07.301-.14.608-.215.911zm12.153-17.388c-.876 1.12-1.984 2.04-3.143 2.882-1.162.845-2.388 1.606-3.585 2.436-1.24.861-2.158 2.115-2.826 3.458-.672 1.35-1.136 2.791-1.528 4.242-.288 1.068-.541 2.144-.794 3.219-.419-.38-.899-.8-1.461-1.246a18.373 18.373 0 0 0-3.825-2.364c-.763-.342-1.556-.67-2.423-.891-.444-.137-.843-.212-1.26-.294-.458-.09-.906-.127-1.345-.155a16.043 16.043 0 0 0-2.584.066 31.25 31.25 0 0 0-2.447.378c-1.576.313-3.033.684-4.239 1.136-.612.23-1.164.478-1.631.736.054-2.917.522-5.859.184-8.868-.179-1.515-.587-3.047-1.38-4.408-.826-1.315-1.706-2.514-2.439-3.84-.739-1.307-1.367-2.685-1.69-4.131a8.707 8.707 0 0 1-.225-2.015 411.857 411.857 0 0 0 4.1-2.071c2.693-1.39 5.423-2.82 8.146-4.272 2.738-1.443 5.456-2.935 8.142-4.396l1.294-.714.975 1.082c1.08 1.184 2.166 2.378 3.258 3.574l.116.153c.33.429.674.844 1.01 1.266.34.418.669.845 1.018 1.257l1.058 1.217c.348.415.71.81 1.083 1.198l1.106 1.17 1.154 1.127c.376.38.79.722 1.186 1.084.272.252.562.483.848.717.237.251.478.507.715.756a507.13 507.13 0 0 0 4.506 4.63 7.219 7.219 0 0 1-1.074 1.881z"/>
  <path fill="#fff" d="M375.827 122.006c-.127-.43-1.005-.513-1.316-.313-.765.481-1.463 1.03-2.108 1.63a.447.447 0 0 0-.11.024c-3.59 1.647-6.617 4.505-9.842 6.885-.588.433-1.197.811-1.825 1.17 1.763-1.004 3.375-2.689 4.988-3.99 2.33-1.884 4.654-3.76 6.929-5.71.416-.36-1.04-.617-1.288-.507-2.749 1.19-5.407 2.703-8.158 3.937 2.332-2.058 2.601-2.84 3.097-3.927.951-.17 1.83-.377 2.45-.712-.237-.092-1.05-.31-1.807-.52.26-.515-1.041-.62-1.301-.478-1.774.957-3.721 1.3-5.496 2.26-.55.297.813.796 1.205.583.593-.32 1.423-.52 2.322-.686-1.663 1.467-3.603 2.802-4.062 5-.102.493.967.548 1.212.472 2.517-.804 4.904-2.006 7.287-3.21-3.124 2.568-6.058 4.857-9.147 7.508-.146.125 0 .332.077.396 1.352 1.074 2.785.28 4.073-.551 2.32-1.496 4.405-3.374 6.627-4.999-2.602 2.735-5.384 5.266-8.13 7.86-.418.398 1.05.619 1.293.505 1.475-.677 2.86-1.495 4.194-2.405-1.818 2.173-3.746 4.229-5.855 6.126-.412.367.972.615 1.165.552 1.516-.486 2.98-1.091 4.42-1.769-1.977 1.953-3.926 3.94-5.743 6.088-.339.4 1.051.782 1.385.426a220.073 220.073 0 0 1 4.516-4.711c-.856 1.608-1.727 3.216-2.572 4.846-.929.942-1.787 1.944-2.472 3.148-.184.32.222.507.647.552l-.21.447c-.216.477 1.179.567 1.428.33 1.996-1.893 2.586-3.16 3.598-5.647.002-.003 0-.007 0-.01 2.224-3.031 3.852-6.348 5.454-9.882.174-.389-.563-.536-1.02-.426a44.113 44.113 0 0 0 1.731-4.697c.42.23 1.01.192 1.016-.143.03-1.84 1.897-3.6 1.348-5.452zm-1.724 2.295c-.161-.122-.433-.183-.684-.195.32-.315.656-.617 1.007-.904a5.92 5.92 0 0 1-.323 1.099zm-6.198 5.506c-.037.08-.077.153-.115.231a.282.282 0 0 0-.021.175c-.428.329-.86.65-1.297.963.48-.454.959-.909 1.433-1.37zm3.486-.996c.213-.294-.205-.479-.644-.53.471-.613.968-1.203 1.492-1.765-.811 2.899-1.945 5.616-3.229 8.258-1.554.842-3.123 1.637-4.734 2.328 2.594-2.542 4.945-5.308 7.115-8.291z"/>
  <path fill="#e1eef4" d="M394.359 80.368c.35-.142.713-.243 1.074-.321.726-.166 1.455-.243 2.18-.309.727-.06 1.448-.077 2.168-.096l2.147.012c.713.015 1.423.048 2.112.047l2.121-.048c1.446-.027 2.89-.02 4.324-.01 2.88.022 5.741.06 8.584-.088a100.32 100.32 0 0 0 2.129-.15l1.041-.105 1.082-.137 4.322-.617c2.896-.416 5.779-.869 8.656-1.375 2.883-.509 5.746-1.114 8.565-1.876 2.821-.768 5.61-1.668 8.23-2.88 2.07-.957 4.04-2.125 5.695-3.575-.244-.028-.489-.062-.735-.083-.423-.03-.847-.07-1.277-.086a26.414 26.414 0 0 0-1.292-.02c-.432.01-.867.012-1.302.032-.437.018-.872.045-1.31.078-.876.067-1.756.16-2.635.277-.88.119-1.757.256-2.636.413-.872.166-1.749.33-2.616.524-.867.199-1.738.388-2.604.593l-2.592.608c1.512-.41 3.024-.814 4.53-1.26.408-.118.816-.241 1.223-.36l1.95-.6a71.942 71.942 0 0 1 2.586-.762c.328-.09.658-.173.989-.257.78-.223 1.561-.442 2.342-.67a98.185 98.185 0 0 1 4.602-1.206l2.324-.564c.757-.185 1.517-.362 2.265-.579 1.506-.415 2.994-.9 4.465-1.445a74.354 74.354 0 0 0 4.367-1.77 116.074 116.074 0 0 0 4.314-1.968l4.303-2.076c1.443-.699 2.86-1.421 4.35-2.104 2.952-1.371 5.946-2.585 8.858-3.888a66.64 66.64 0 0 0 4.278-2.096c.693-.375 1.38-.774 2.044-1.177.329-.21.658-.402.985-.624l.99-.667c1.342-.934 2.69-1.829 3.976-2.752a28.732 28.732 0 0 0 2.447-1.994 69.133 69.133 0 0 0-6.862-.994c-2.815-.257-5.65-.402-8.486-.424a155.76 155.76 0 0 0-8.482.194c-2.83.148-5.642.346-8.443.604-1.4.112-2.793.289-4.187.43-1.39.155-2.775.353-4.16.526l-4.128.633c-1.365.254-2.744.474-4.094.751l-2.018.417a46.16 46.16 0 0 0-2.03.448l-2.038.482-.992.24-1.009.255a596.335 596.335 0 0 0-8.028 2.095c-5.313 1.435-10.57 2.984-15.729 4.75a249.467 249.467 0 0 0-7.655 2.74c-1.26.482-2.521.968-3.763 1.484-1.258.483-2.488 1.017-3.724 1.536-1.226.545-2.43 1.042-3.666 1.624-1.23.577-2.438 1.152-3.686 1.718l-3.684 1.674a138.944 138.944 0 0 0-3.636 1.685c-2.398 1.15-4.766 2.355-7.007 3.741-1.113.703-2.21 1.43-3.211 2.274-1.005.841-1.927 1.76-2.61 2.904l-.053-.025c-.003.01-.26.807-.234 1.444.027.641 1.278 1.145 2.372 1.763 1.092.617 6.597 4.405 6.597 4.405l-.01-.361h.017a.583.583 0 0 1 .14-.29l-.079-.073c.25-.304.605-.5.959-.639z" opacity=".5"/>
  <path fill="#293644" d="M484.142 39.076a159.78 159.78 0 0 1 8.608.009c2.88.093 5.767.245 8.644.549 2.885.31 5.76.766 8.589 1.443l1.373.333-.963 1.002c-1.148 1.196-2.447 2.253-3.759 3.236-1.304.99-2.633 1.9-3.884 2.87l-.981.728c-.331.24-.69.477-1.03.714-.693.464-1.39.906-2.1 1.33a67.078 67.078 0 0 1-4.336 2.36c-2.918 1.483-5.89 2.77-8.777 4.118l-4.341 2.06c-1.454.683-2.909 1.38-4.392 2.02a113.457 113.457 0 0 1-4.486 1.858 74.322 74.322 0 0 1-4.604 1.588 56.219 56.219 0 0 1-4.7 1.251c-.788.184-1.584.326-2.377.475l-.708.126c.374.046.747.095 1.121.162l1.59.28-1.085 1.224c-2.09 2.36-4.777 4.074-7.54 5.412-2.777 1.327-5.663 2.34-8.58 3.141-2.911.797-5.844 1.429-8.772 1.96-2.928.545-5.854.948-8.765 1.339l-4.363.572-1.09.126-1.131.104c-.74.054-1.479.097-2.215.117-2.948.091-5.849-.018-8.714-.104a156.179 156.179 0 0 0-4.273-.091c-.716-.01-1.394.023-2.17-.01-.738-.036-1.45-.09-2.16-.15l-2.11-.201a69.875 69.875 0 0 0-2.091-.189c-.696-.06-1.39-.091-2.08-.097-.68.028-1.401.01-1.98.366l-.027-.025-.08-.072c.248-.305.604-.501.958-.64a6.52 6.52 0 0 1 1.073-.32c.726-.168 1.456-.244 2.18-.31.728-.058 1.449-.076 2.169-.095l2.147.012c.713.015 1.423.047 2.111.046l2.122-.048c1.446-.028 2.89-.02 4.324-.01 2.88.023 5.741.061 8.584-.088.715-.042 1.419-.093 2.128-.149l1.042-.106 1.082-.137 4.322-.617c2.895-.415 5.779-.868 8.656-1.374 2.882-.51 5.745-1.114 8.565-1.876 2.822-.769 5.61-1.669 8.23-2.88 2.07-.956 4.04-2.125 5.694-3.575-.243-.029-.488-.063-.734-.084-.423-.029-.847-.068-1.278-.085a26.448 26.448 0 0 0-1.291-.02c-.433.01-.868.012-1.302.032a36.86 36.86 0 0 0-1.31.077 47.7 47.7 0 0 0-2.636.277 62.45 62.45 0 0 0-2.635.414c-.872.166-1.749.33-2.617.524-.866.197-1.737.388-2.603.592l-2.593.608 1.177-.287c1.174-.296 2.345-.614 3.517-.928l-.143.035-4.55 1.18 1.512-.41c1.007-.274 2.013-.552 3.018-.85.407-.117.815-.24 1.223-.359l1.95-.6a71.946 71.946 0 0 1 2.585-.763c.329-.089.66-.173.99-.256.78-.223 1.56-.443 2.342-.67a98.18 98.18 0 0 1 4.602-1.206l2.324-.565c.756-.184 1.517-.36 2.264-.578 1.506-.415 2.994-.9 4.466-1.445a73.757 73.757 0 0 0 4.367-1.771 115.429 115.429 0 0 0 4.313-1.968l4.304-2.076c1.444-.699 2.86-1.42 4.35-2.104 2.952-1.37 5.945-2.584 8.858-3.887a66.64 66.64 0 0 0 4.277-2.097 46.61 46.61 0 0 0 2.045-1.177l.657-.41.327-.214.99-.666c1.342-.934 2.69-1.829 3.977-2.753a28.729 28.729 0 0 0 2.447-1.993 68.877 68.877 0 0 0-6.862-.995c-2.815-.257-5.65-.402-8.487-.423a155.76 155.76 0 0 0-8.482.194c-2.829.147-5.641.346-8.442.603-1.401.112-2.793.289-4.187.43-1.39.156-2.775.353-4.16.526l-4.128.634c-1.366.253-2.744.474-4.095.751l-2.017.417a46.44 46.44 0 0 0-2.03.448l-2.038.481-.993.24-1.008.256a599.704 599.704 0 0 0-8.029 2.095c-5.312 1.435-10.57 2.983-15.728 4.749a248.642 248.642 0 0 0-7.655 2.741c-1.26.482-2.522.968-3.763 1.483-1.26.483-2.488 1.017-3.724 1.536-1.227.545-2.43 1.042-3.666 1.624-1.231.578-2.439 1.153-3.686 1.718l-3.685 1.675a138.96 138.96 0 0 0-3.635 1.685c-2.4 1.15-4.767 2.354-7.007 3.74-1.114.703-2.211 1.432-3.211 2.274-1.005.842-1.927 1.76-2.61 2.904l-.054-.024-.055-.024c.214-.612.528-1.23.892-1.8a15.03 15.03 0 0 1 1.249-1.618 24.88 24.88 0 0 1 3-2.795 41.88 41.88 0 0 1 3.314-2.41 66.445 66.445 0 0 1 3.473-2.157 143.912 143.912 0 0 1 3.557-1.994l3.595-1.884c2.37-1.271 4.78-2.512 7.304-3.688 2.5-1.147 5.038-2.22 7.612-3.199 2.572-.985 5.17-1.928 7.794-2.777 2.623-.877 5.269-1.67 7.927-2.467 2.664-.775 5.333-1.53 8.028-2.233a244.253 244.253 0 0 1 8.123-2.002l1.022-.237.533-.118.514-.109 2.047-.428c.68-.146 1.37-.28 2.076-.4l2.1-.378c1.402-.247 2.797-.434 4.198-.655l4.218-.536c1.412-.139 2.82-.301 4.233-.421 1.418-.107 2.834-.247 4.251-.322 2.844-.185 5.69-.308 8.54-.394zM255.67 0l1.401.12c2.9.25 5.773.725 8.607 1.343 2.826.618 5.613 1.386 8.373 2.206a157.23 157.23 0 0 1 8.173 2.71c2.674.978 5.337 1.994 7.978 3.066 1.322.519 2.62 1.1 3.932 1.647 1.305.56 2.59 1.16 3.884 1.737l3.834 1.84c1.26.65 2.525 1.27 3.776 1.946l1.875 1.022c.629.335 1.244.68 1.842 1.034l1.808 1.052.452.264.469.282.894.546a244.938 244.938 0 0 1 7.078 4.464 299.17 299.17 0 0 1 6.912 4.653c2.268 1.594 4.532 3.183 6.744 4.842a156.29 156.29 0 0 1 6.518 5.095 123.189 123.189 0 0 1 6.214 5.437 143.1 143.1 0 0 1 5.767 5.805l2.818 2.922c.928.991 1.847 1.994 2.748 3.015a66.682 66.682 0 0 1 2.612 3.144 41.428 41.428 0 0 1 2.384 3.33 24.63 24.63 0 0 1 1.963 3.6c.27.628.495 1.275.676 1.93.164.655.268 1.34.275 1.988l-.042.004-.078.008c-.286-1.3-.87-2.463-1.557-3.58-.685-1.114-1.497-2.152-2.331-3.17-1.688-2.022-3.555-3.912-5.47-5.76-.953-.928-1.93-1.842-2.917-2.745l-2.967-2.752c-1.007-.933-1.966-1.857-2.954-2.794-.99-.94-1.975-1.794-2.967-2.699l-1.513-1.326a73.165 73.165 0 0 0-1.535-1.306c-1.017-.881-2.06-1.74-3.102-2.594a249.66 249.66 0 0 0-6.4-5.017c-4.337-3.304-8.837-6.433-13.425-9.471a628.955 628.955 0 0 0-6.957-4.522l-.878-.56-.865-.542-1.782-1.1a43.84 43.84 0 0 0-1.784-1.066l-1.784-1.033c-1.194-.69-2.43-1.333-3.647-2.005l-3.716-1.903c-1.26-.603-2.511-1.228-3.782-1.814-1.277-.573-2.544-1.18-3.839-1.73a213.51 213.51 0 0 0-7.815-3.236c-2.631-1.016-5.301-1.985-7.991-2.86a101.877 101.877 0 0 0-8.187-2.278 69.3 69.3 0 0 0-6.848-1.224c.514.909 1.09 1.796 1.718 2.668.929 1.281 1.923 2.556 2.9 3.866l.731.944c.243.315.494.602.739.904.501.593 1.03 1.189 1.568 1.762a67.05 67.05 0 0 0 3.398 3.34c2.353 2.156 4.807 4.25 7.178 6.485 1.198 1.117 2.313 2.249 3.464 3.369l3.428 3.328a112.625 112.625 0 0 0 3.473 3.227 74.478 74.478 0 0 0 3.583 3.06 54.512 54.512 0 0 0 3.781 2.78c.641.443 1.309.85 1.967 1.265l2.026 1.266a101.36 101.36 0 0 1 3.986 2.598c.763.527 1.53 1.047 2.293 1.57.19.123.388.236.575.361a70.047 70.047 0 0 1 2.215 1.538l1.683 1.203c.342.235.681.475 1.025.71 1.289.898 2.594 1.758 3.901 2.625l-2.268-1.396c-.759-.468-1.524-.921-2.283-1.383-.763-.457-1.543-.89-2.32-1.324a61.339 61.339 0 0 0-2.37-1.223 48 48 0 0 0-2.412-1.095c-.403-.171-.81-.332-1.22-.488-.405-.154-.817-.294-1.225-.44-.408-.141-.82-.269-1.231-.389-.412-.12-.829-.216-1.24-.321-.24-.06-.482-.103-.722-.152 1.113 1.897 2.615 3.627 4.274 5.189 2.106 1.975 4.467 3.71 6.9 5.33 2.432 1.611 4.961 3.089 7.536 4.483a284.594 284.594 0 0 0 7.779 4.035l3.909 1.95.98.471.958.43c.653.279 1.31.55 1.97.814 2.652 1.038 5.381 1.906 8.12 2.793 1.366.44 2.737.89 4.1 1.372l1.999.716c.652.218 1.335.41 2.016.622l2.04.667c.678.245 1.357.49 2.03.775.666.289 1.334.596 1.971.98.317.189.631.399.918.646.29.24.568.542.707.907l-.098.044-.035.016c-.437-.52-1.127-.731-1.763-.972a27.154 27.154 0 0 0-2.004-.565 62.67 62.67 0 0 0-2.044-.48l-2.067-.476a55.698 55.698 0 0 1-2.094-.539c-.748-.212-1.38-.458-2.062-.674-1.347-.44-2.713-.854-4.082-1.263-2.75-.822-5.533-1.635-8.301-2.652a47.519 47.519 0 0 1-2.068-.81l-1.04-.455-.994-.464-3.96-1.921c-2.636-1.29-5.289-2.596-7.892-4.036-2.611-1.43-5.196-2.954-7.708-4.628-2.51-1.68-4.932-3.553-7.147-5.69-2.2-2.142-4.212-4.615-5.447-7.514l-.642-1.505 1.594.237c.376.054.746.126 1.116.2l-.633-.343c-.705-.39-1.416-.778-2.104-1.2a56.449 56.449 0 0 1-4.065-2.673 74.254 74.254 0 0 1-3.868-2.956 114.613 114.613 0 0 1-3.668-3.18c-1.207-1.076-2.368-2.196-3.531-3.304l-3.467-3.325c-2.314-2.191-4.73-4.35-7.031-6.677a67.358 67.358 0 0 1-3.368-3.61 47.676 47.676 0 0 1-1.575-1.924l-.506-.668-.244-.333-.704-1c-.88-1.316-1.853-2.6-2.779-3.95-.934-1.347-1.833-2.76-2.545-4.257z"/>
  <path fill="#e1eef4" d="M365.56 71.052c-.286-1.3-.87-2.463-1.558-3.58-.685-1.114-1.496-2.153-2.33-3.17-1.689-2.021-3.555-3.912-5.471-5.76a128.05 128.05 0 0 0-2.917-2.745l-2.967-2.752c-1.005-.933-1.966-1.857-2.954-2.794-.989-.94-1.974-1.794-2.967-2.699-1.01-.881-2.009-1.776-3.048-2.632-1.017-.881-2.059-1.74-3.101-2.594a253.168 253.168 0 0 0-6.401-5.017c-4.336-3.304-8.837-6.433-13.425-9.471a641.847 641.847 0 0 0-6.956-4.522l-.878-.56-.865-.542-1.783-1.1a43.84 43.84 0 0 0-1.784-1.066l-1.783-1.033c-1.195-.69-2.43-1.334-3.648-2.005l-3.716-1.903c-1.26-.602-2.511-1.227-3.781-1.814-1.278-.573-2.544-1.18-3.84-1.73a214.15 214.15 0 0 0-7.815-3.236 157.825 157.825 0 0 0-7.991-2.86 101.88 101.88 0 0 0-8.187-2.278 69.3 69.3 0 0 0-6.848-1.224c.515.909 1.09 1.796 1.719 2.668.928 1.281 1.923 2.556 2.9 3.866l.73.944c.243.315.494.602.74.904a46.17 46.17 0 0 0 1.567 1.762 66.323 66.323 0 0 0 3.398 3.34c2.352 2.156 4.808 4.25 7.178 6.485 1.199 1.117 2.313 2.249 3.464 3.369l3.429 3.328a112.625 112.625 0 0 0 3.473 3.227 73.568 73.568 0 0 0 3.582 3.06 54.51 54.51 0 0 0 3.781 2.78c.642.443 1.31.85 1.967 1.265l2.026 1.266c1.345.838 2.677 1.693 3.986 2.598.763.528 1.53 1.048 2.294 1.57.19.123.388.236.575.361a70.024 70.024 0 0 1 2.215 1.538l1.682 1.203c.342.235.682.475 1.025.71 1.289.898 2.594 1.758 3.901 2.625l-2.268-1.396c-.758-.468-1.524-.921-2.283-1.383-.763-.457-1.544-.89-2.32-1.324a58.977 58.977 0 0 0-2.37-1.223 48.003 48.003 0 0 0-2.411-1.095c-.404-.171-.81-.332-1.22-.488-.406-.154-.819-.294-1.225-.44-.409-.141-.82-.27-1.232-.389-.412-.12-.828-.217-1.239-.321-.24-.059-.482-.103-.723-.152 1.113 1.897 2.615 3.627 4.275 5.189 2.105 1.975 4.466 3.71 6.899 5.33 2.433 1.612 4.961 3.089 7.536 4.483a282.16 282.16 0 0 0 7.78 4.035l3.908 1.95.981.471.957.43c.654.279 1.31.55 1.971.814 2.652 1.038 5.38 1.906 8.119 2.793 1.366.44 2.738.89 4.101 1.372l1.998.716c.651.218 1.334.412 2.017.622l2.04.667c.677.245 1.358.49 2.03.775.665.289 1.333.595 1.97.98.318.189.631.398.918.646.29.24.568.541.708.907l-.098.044a.576.576 0 0 1 .04.32l.016.004-.123.34s6.419-1.857 7.652-2.097c1.232-.24 2.576-.325 2.804-.924.23-.599.237-1.437.237-1.444l.018-.002z" opacity=".5"/>
</svg>
