<svg xmlns="http://www.w3.org/2000/svg" viewBox="0 0 256 293.747">
  <path d="M256 77.125v138.058a4.573 4.573 0 0 1-2.209 3.884l-124.196 74.046a4.568 4.568 0 0 1-2.317.634 4.572 4.572 0 0 1-2.3-.634L2.241 221.467C.858 220.674 0 219.175 0 217.557V74.74a4.49 4.49 0 0 1 2.3-3.934L125.521.585A4.414 4.414 0 0 1 127.754 0a4.49 4.49 0 0 1 2.308.626l123.694 72.595A4.529 4.529 0 0 1 256 77.125"/>
  <path fill="#00aa90" d="m123.949 70.046-22.086 9.317 26.169 11.036 40.289-16.996c3.293-1.392 7.085.158 8.477 3.442.35.844.509 1.71.509 2.559v22.712c.008 2.532-1.475 4.95-3.96 5.993l-42.783 18.053a1.06 1.06 0 0 0-.074.024c-.067.032-.14.056-.208.082-.118.041-.232.091-.359.124-.005 0-.015.008-.023.008-.082.027-.167.045-.258.068-.109.024-.217.056-.326.082-.015 0-.024.009-.033.009a3.707 3.707 0 0 0-.176.024 3.17 3.17 0 0 1-.417.058 4.116 4.116 0 0 1-.426.024c-.074 0-.156.008-.232.008-.083 0-.159-.008-.241-.008-.144 0-.285-.006-.426-.024h-.009c-.132-.008-.273-.035-.409-.058-.058-.006-.109-.015-.167-.024-.017 0-.024-.009-.041-.009-.108-.023-.217-.058-.334-.082-.082-.026-.168-.044-.25-.068-.006 0-.014 0-.023-.008-.127-.032-.241-.082-.367-.124-.068-.026-.132-.052-.2-.076-.027-.014-.053-.023-.076-.032l-33.798-14.261v8.75l36.338 15.328 40.289-16.996a6.467 6.467 0 0 1 8.478 3.442c.35.835.508 1.701.508 2.55v22.729a6.474 6.474 0 0 1-3.96 5.993l-42.783 18.044c-.024.015-.05.024-.074.033-.064.026-.14.05-.199.076-.118.05-.232.091-.367.133-.006 0-.015 0-.024.008-.082.018-.167.036-.25.059-.109.024-.226.065-.335.083-.015 0-.024.008-.032.008a1.998 1.998 0 0 0-.159.024c-.144.026-.285.05-.426.068h-.009c-.144.017-.285.017-.426.017-.073.01-.155.018-.232.018a1.85 1.85 0 0 1-.231-.018c-.153 0-.285 0-.435-.017-.144-.018-.285-.044-.435-.068-.05-.006-.1-.015-.15-.024-.017 0-.023-.008-.041-.008-.109-.015-.217-.059-.326-.083-.083-.026-.168-.041-.259-.059-.006-.008-.014-.008-.023-.008a6.785 6.785 0 0 1-.368-.133c-.067-.026-.131-.053-.199-.076-.026-.009-.053-.015-.077-.033l-33.797-14.252v8.744l36.338 15.336 40.289-17.002a6.48 6.48 0 0 1 8.478 3.452c.35.825.508 1.698.508 2.541v22.729a6.472 6.472 0 0 1-3.96 5.993l-32.382 13.661v16.761c0 3.566-2.899 6.459-6.468 6.459a6.462 6.462 0 0 1-6.468-6.459v-21.047a6.445 6.445 0 0 1 3.416-5.701l-.018-.033 32.94-13.894v-8.751l-33.806 14.262c-.024.009-.05.015-.074.032-.064.027-.14.053-.199.077-.118.043-.232.085-.367.126-.006.009-.015.009-.024.009-.082.026-.167.044-.258.067-.109.024-.217.059-.326.083-.015 0-.024.009-.033.009-.058.009-.108.009-.158.017-.144.027-.294.05-.435.068-.144.006-.285.015-.426.023-.074 0-.156.009-.232.009-.082 0-.158-.009-.232-.009-.152-.005-.285-.014-.435-.023h-.009c-.144-.018-.285-.044-.426-.068-.05-.009-.1-.009-.15-.017-.017 0-.023-.009-.041-.009-.108-.024-.216-.059-.334-.083-.082-.026-.168-.044-.25-.067-.006 0-.014 0-.023-.009-.126-.044-.241-.085-.367-.126-.067-.035-.132-.05-.2-.077-.026-.015-.053-.024-.076-.032l-42.784-18.045a6.48 6.48 0 0 1-3.959-6.001v-22.72c0-.849.159-1.716.508-2.55a6.478 6.478 0 0 1 8.477-3.451l40.299 17.002 36.338-15.328v-8.75l-33.806 14.261a.707.707 0 0 0-.074.024c-.064.023-.132.05-.199.073a3.1 3.1 0 0 1-.368.136c-.005 0-.015 0-.023.008-.082.027-.167.045-.25.068-.109.024-.226.056-.335.073-.015.009-.024.009-.033.009a2.23 2.23 0 0 1-.199.033c-.127.018-.25.041-.377.059h-.017c-.141.015-.282.015-.417.023-.083 0-.165.009-.241.009-.082 0-.167-.009-.25-.009-.135-.005-.276-.005-.417-.023-.126-.018-.259-.041-.385-.059-.067-.009-.132-.015-.2-.033-.017 0-.023 0-.04-.009-.109-.014-.218-.049-.318-.073-.091-.026-.176-.044-.267-.068-.006-.008-.014-.008-.024-.008-.123-.044-.24-.085-.349-.127-.076-.032-.15-.049-.217-.082a.578.578 0 0 1-.077-.024l-42.783-18.053a6.474 6.474 0 0 1-3.96-5.993v-22.712a6.466 6.466 0 0 1 8.986-6l40.298 16.996 36.339-15.327v-8.751l-33.807 14.253c-.023.014-.05.022-.073.032-.064.032-.132.05-.2.073-.117.041-.232.091-.367.133-.006 0-.015 0-.024.008-.082.027-.167.036-.249.059a4.537 4.537 0 0 1-.335.082c-.015 0-.024.01-.033.01-.058.006-.117.015-.176.023-.133.027-.276.05-.409.059l-.008.009c-.145.006-.285.015-.426.023-.074 0-.156.009-.232.009-.083 0-.159-.009-.241-.009-.144-.005-.285-.014-.426-.023-.141-.018-.276-.044-.418-.068-.058-.006-.108-.014-.167-.023-.017 0-.024-.01-.041-.01a4.317 4.317 0 0 1-.326-.082c-.083-.026-.168-.035-.259-.059-.006-.008-.014-.008-.024-.008-.126-.042-.241-.092-.358-.133-.067-.023-.141-.041-.208-.073a.774.774 0 0 1-.077-.024L82.746 85.35a6.678 6.678 0 0 1-1.192-.643c-.067-.041-.126-.091-.184-.133-.109-.073-.209-.159-.309-.241a3.742 3.742 0 0 1-.241-.217 4.715 4.715 0 0 1-.217-.2c-.085-.082-.152-.167-.226-.241-.067-.076-.132-.152-.2-.226-.058-.073-.117-.158-.176-.231-.067-.092-.132-.185-.199-.276a1.607 1.607 0 0 1-.118-.2 4.668 4.668 0 0 1-.208-.359c-.024-.04-.05-.099-.074-.149-.065-.136-.132-.276-.191-.417-.018-.042-.033-.092-.05-.133-.058-.15-.108-.3-.158-.45-.018-.058-.026-.123-.05-.191-.032-.132-.068-.267-.1-.399-.027-.159-.041-.308-.068-.458a2.018 2.018 0 0 0-.023-.159 6.33 6.33 0 0 1 .1-1.942c.023-.117.058-.235.082-.358.023-.082.041-.177.073-.259.124-.417.291-.816.5-1.192.067-.117.14-.232.208-.35.041-.058.077-.125.109-.184a5.72 5.72 0 0 1 .331-.435.247.247 0 0 1 .041-.06c.117-.14.252-.281.376-.417.018-.017.033-.023.05-.04.114-.124.249-.232.382-.35.023-.023.05-.05.082-.073a6.56 6.56 0 0 1 .5-.376c.108-.076.225-.141.334-.209.076-.044.141-.085.217-.117.1-.059.2-.1.3-.15.083-.041.177-.086.259-.118l.023-.017c.017 0 .024-.009.041-.018l36.124-15.236.01.009c.044-.017.076-.032.117-.05 3.293-1.392 7.076.15 8.477 3.443a6.56 6.56 0 0 1 .509 2.509v.017a6.486 6.486 0 0 1-3.96 5.951c-.044.018-.086.023-.126.041h.028"/>
  <path fill="#61c4b6" d="M79.241 99.64a6.584 6.584 0 0 0-.509 2.558v22.712a6.474 6.474 0 0 0 3.96 5.993l42.783 18.053c.024.009.05.018.077.024.067.033.141.05.217.082.109.042.226.083.349.127.01 0 .018 0 .024.008.091.024.176.042.267.068.1.024.209.059.318.073.017.009.023.009.04.009.068.018.133.024.2.033.126.018.259.041.385.059.103.013.204.014.305.017V135.82l-35.966-15.171v-8.75l33.798 14.261c.023.009.049.018.076.032.068.024.132.05.2.076.126.042.24.092.367.124a.03.03 0 0 0 .023.008c.082.024.168.042.25.068.117.024.226.059.334.082.017 0 .024.009.041.009.058.009.109.018.167.024.136.023.277.05.409.058h.009c.097.012.194.013.292.016v-13.615L87.718 96.198a6.466 6.466 0 0 0-8.477 3.442zm-.456-19.454c.027.15.041.299.068.458.032.132.068.267.1.399.024.068.032.133.05.191.05.15.1.3.158.45.017.041.032.091.05.133.059.141.126.281.191.417.024.05.05.109.074.149.067.127.132.241.208.359.032.068.073.132.118.2.067.091.132.184.199.276.059.073.118.158.176.231.068.074.133.15.2.226.074.074.141.159.226.241.068.068.141.133.217.2.077.076.15.141.241.217.1.082.2.168.309.241.058.042.117.092.184.133.367.249.767.467 1.192.643l42.725 18.027c.024.009.05.017.077.024.067.032.141.05.208.073.118.041.232.091.358.133.01 0 .018 0 .024.008.091.024.176.033.259.059.109.032.217.059.326.082.017 0 .024.01.041.01.059.009.109.017.167.023.142.024.277.05.418.068l.308.017V90.241l-25.794-10.878 22.086-9.317h-.028c.04-.018.082-.023.126-.041a6.464 6.464 0 0 0 3.61-3.887V61.97c-.05-.148-.098-.296-.159-.442-1.401-3.293-5.184-4.835-8.477-3.443-.041.018-.073.033-.117.05l-.01-.009L82.77 73.362c-.017.009-.024.018-.041.018l-.023.017a3.474 3.474 0 0 0-.259.118c-.1.05-.2.091-.3.15-.076.032-.141.073-.217.117-.109.068-.226.133-.334.209a6.56 6.56 0 0 0-.5.376c-.032.023-.059.05-.082.073-.133.118-.268.226-.382.35-.017.017-.032.023-.05.04-.124.136-.259.277-.376.417a.247.247 0 0 0-.041.06 5.72 5.72 0 0 0-.331.435c-.032.059-.068.126-.109.184-.068.118-.141.233-.208.35a5.927 5.927 0 0 0-.5 1.192c-.032.082-.05.177-.073.259-.024.123-.059.241-.082.358a6.33 6.33 0 0 0-.1 1.942c.009.05.017.1.023.159zm48.872 101.226-35.97-15.181v-8.744l33.798 14.252c.023.018.05.024.076.033.068.023.132.05.199.076.127.05.241.091.368.133.009 0 .017 0 .023.008.091.018.176.033.259.059.109.024.217.068.326.083.018 0 .024.008.041.008.05.009.1.018.15.024.15.024.291.05.435.068.101.012.197.011.295.012v-13.624l-39.936-16.848a6.478 6.478 0 0 0-8.477 3.451 6.591 6.591 0 0 0-.508 2.55v22.72a6.48 6.48 0 0 0 3.959 6.001l42.784 18.045c.023.008.05.017.076.032.068.027.133.042.2.077.126.041.241.082.367.126a.028.028 0 0 0 .023.009c.082.023.168.041.25.067.118.024.226.059.334.083.018 0 .024.009.041.009.05.008.1.008.15.017.141.024.282.05.426.068h.009l.302.016z"/>
</svg>
