<svg xmlns="http://www.w3.org/2000/svg" viewBox="0 0 512 201.45">
  <path d="M0 .232s20.295-2.56 33.826 9.425c8.351 7.395 10.785 19.18 10.785 19.18l27.631 107.578 22.982-88.047c2.232-9.359 6.27-20.933 12.649-28.756 8.141-9.963 24.668-10.593 26.43-10.593 1.763 0 18.281.63 26.415 10.593 6.379 7.823 10.416 19.389 12.657 28.756l22.981 88.047L223.98 28.836s2.443-11.784 10.794-19.179C248.303-2.328 268.59.232 268.59.232L215.678 201.28s-17.45 1.267-26.188-3.207c-11.473-5.875-16.92-10.407-23.87-37.77a7026.141 7026.141 0 0 1-10.408-42.018l-1.301-5.28a14837.964 14837.964 0 0 0-9.905-40.22l-1.259-5.037c-1.158-4.566-1.955-7.638-2.24-8.56-.781-2.527-1.713-8.545-6.212-8.545-4.398 0-5.414 6.026-6.211 8.544-.294.923-1.091 3.987-2.241 8.561l-1.26 5.036a8145.182 8145.182 0 0 0-7.973 32.332l-1.292 5.254a8880.567 8880.567 0 0 1-12.339 49.941c-6.95 27.355-12.405 31.895-23.88 37.762-8.737 4.474-26.187 3.207-26.187 3.207zm318.934 33.347v7.26h.017v121.36c-.092 24.904-2.501 30.435-12.976 36.168-8.142 4.457-20.598 2.77-20.598 2.77V65.188c0-6.823 2.115-11.297 9.913-15.31 4.658-2.4 8.997-4.238 13.513-6.957 6.17-3.694 9.3-8.083 9.988-9.124zM335.738.903s27.337-4.843 40.876 7.974c7.613 7.21 16.031 19.498 17.937 22.335l.36.537.042.067 23.838 35.723c1.15 1.855 2.66 3.877 5.078 3.877 2.409 0 3.928-2.014 5.086-3.877l23.83-35.723.041-.067.361-.537c1.905-2.837 10.324-15.125 17.945-22.344C484.662-3.94 512 .895 512 .895l-64.772 100.184 64.596 99.857s-27.967 3.743-41.506-9.074c-8.662-8.192-17.534-21.529-17.534-21.529l-23.837-35.714c-1.15-1.863-2.67-3.886-5.078-3.886-2.417 0-3.928 2.014-5.087 3.886l-23.829 35.714s-8.385 13.337-17.038 21.53c-13.539 12.816-42.01 9.073-42.01 9.073l64.597-99.857zM318.867.005h.084c0 13.346-1.26 21.277-9.317 27.438a50.503 50.503 0 0 1-12.254 6.941 37.25 37.25 0 0 0-12.003 7.588c0-24.307 3.55-33.112 13.094-38.324C304.405.408 314.15.038 317.65.005h1.217z"/>
</svg>
