<svg xmlns="http://www.w3.org/2000/svg" viewBox="0 0 256 152.385">
  <path fill="#7f54b3" fill-rule="evenodd" d="M232.138 0H23.759C10.572 0-.103 10.78.001 23.862v79.542c0 13.187 10.676 23.863 23.863 23.863h98.694l45.11 25.118-10.258-25.118h74.728c13.187 0 23.862-10.676 23.862-23.863V23.862C256 10.675 245.325 0 232.138 0zM19.364 18.42c-2.93.21-5.128 1.256-6.594 3.245-1.465 1.883-1.988 4.29-1.674 7.012 6.175 39.248 11.931 65.726 17.269 79.437 2.093 5.023 4.5 7.431 7.326 7.222 4.396-.315 9.629-6.385 15.804-18.211 3.244-6.699 8.268-16.746 15.07-30.143 5.652 19.781 13.397 34.643 23.13 44.586 2.722 2.825 5.548 4.081 8.269 3.872 2.407-.21 4.29-1.465 5.547-3.768 1.046-1.988 1.465-4.291 1.256-6.907-.628-9.524.314-22.816 2.93-39.876 2.721-17.583 6.07-30.247 10.152-37.782.838-1.57 1.151-3.14 1.047-5.024-.21-2.407-1.256-4.395-3.244-5.965-1.989-1.57-4.187-2.303-6.594-2.094-3.035.21-5.338 1.675-6.908 4.605-6.488 11.827-11.094 30.98-13.815 57.563C84.358 66.145 81.01 54.32 78.392 40.4c-1.15-6.175-3.976-9.106-8.582-8.792-3.14.21-5.756 2.303-7.85 6.28L39.04 81.53c-3.768-15.176-7.326-33.7-10.57-55.574-.733-5.443-3.768-7.955-9.106-7.536zm201.68 7.536c7.431 1.57 12.978 5.547 16.746 12.14 3.35 5.652 5.023 12.455 5.023 20.619 0 10.78-2.72 20.618-8.163 29.618-6.28 10.467-14.443 15.7-24.595 15.7-1.78 0-3.663-.21-5.652-.629-7.43-1.57-12.978-5.546-16.746-12.14-3.348-5.756-5.023-12.664-5.023-20.723 0-10.78 2.721-20.618 8.163-29.514 6.385-10.466 14.548-15.699 24.596-15.699 1.779 0 3.663.21 5.651.628zm-4.395 56.62c3.872-3.453 6.489-8.581 7.954-15.489.419-2.407.732-5.023.732-7.744 0-3.036-.628-6.28-1.884-9.525-1.57-4.081-3.663-6.28-6.175-6.802-3.767-.733-7.43 1.36-10.884 6.489-2.826 3.977-4.605 8.163-5.547 12.454-.524 2.407-.733 5.024-.733 7.64 0 3.035.628 6.28 1.884 9.524 1.57 4.082 3.663 6.28 6.175 6.803 2.616.523 5.442-.628 8.478-3.35zm-44.481-44.48c-3.768-6.593-9.42-10.57-16.746-12.14-1.989-.419-3.872-.628-5.652-.628-10.047 0-18.21 5.233-24.595 15.7-5.442 8.895-8.163 18.733-8.163 29.513 0 8.06 1.675 14.967 5.023 20.723 3.768 6.594 9.315 10.57 16.746 12.14 1.988.419 3.872.628 5.652.628 10.152 0 18.315-5.232 24.595-15.699 5.442-9 8.163-18.839 8.163-29.618 0-8.164-1.675-14.967-5.023-20.618zM158.98 67.088c-1.465 6.908-4.082 12.036-7.954 15.49-3.035 2.721-5.86 3.872-8.477 3.35-2.512-.524-4.605-2.722-6.175-6.804-1.256-3.244-1.884-6.489-1.884-9.524 0-2.616.21-5.233.733-7.64.942-4.291 2.72-8.477 5.546-12.454 3.455-5.129 7.118-7.222 10.885-6.49 2.512.524 4.605 2.722 6.175 6.803 1.256 3.245 1.884 6.49 1.884 9.525 0 2.72-.21 5.337-.733 7.744z"/>
</svg>
