<svg xmlns="http://www.w3.org/2000/svg" viewBox="0 0 512 103.236">
  <g fill-rule="evenodd">
    <path fill="#7f54b3" d="M157.267 0H16.097C7.161 0-.07 7.303 0 16.166v53.887C0 78.987 7.233 86.22 16.167 86.22H83.03l30.56 17.017-6.949-17.017h50.626c8.934 0 16.166-7.232 16.166-16.166V16.166C173.433 7.232 166.2 0 157.267 0zM13.119 12.48c-1.986.14-3.475.85-4.467 2.197-.993 1.276-1.348 2.907-1.135 4.75 4.184 26.59 8.083 44.529 11.7 53.817 1.417 3.403 3.048 5.034 4.963 4.893 2.978-.213 6.523-4.326 10.706-12.338 2.198-4.538 5.602-11.344 10.21-20.42 3.83 13.4 9.076 23.47 15.67 30.205 1.844 1.914 3.758 2.765 5.601 2.623 1.632-.141 2.908-.992 3.758-2.552.71-1.347.993-2.908.851-4.68-.425-6.452.213-15.457 1.986-27.014 1.843-11.912 4.112-20.492 6.877-25.597.568-1.063.78-2.127.71-3.403-.142-1.631-.851-2.978-2.198-4.042-1.348-1.063-2.837-1.56-4.468-1.418-2.056.142-3.616 1.135-4.68 3.12-4.395 8.012-7.515 20.988-9.358 38.997C57.15 44.811 54.88 36.8 53.109 27.37c-.78-4.183-2.695-6.169-5.815-5.956-2.127.142-3.9 1.56-5.317 4.254L26.449 55.234c-2.553-10.28-4.964-22.83-7.162-37.65-.496-3.687-2.552-5.389-6.168-5.105zm136.632 5.104c5.034 1.064 8.792 3.758 11.345 8.225 2.269 3.83 3.403 8.438 3.403 13.968 0 7.303-1.843 13.969-5.53 20.066-4.255 7.09-9.785 10.636-16.663 10.636-1.205 0-2.481-.142-3.829-.426-5.034-1.063-8.792-3.757-11.345-8.224-2.268-3.9-3.403-8.58-3.403-14.04 0-7.302 1.844-13.968 5.53-19.994 4.326-7.09 9.856-10.636 16.663-10.636 1.206 0 2.482.142 3.829.425zm-2.978 38.36c2.624-2.34 4.396-5.815 5.389-10.494.284-1.631.496-3.404.496-5.247 0-2.056-.425-4.254-1.276-6.452-1.064-2.766-2.482-4.255-4.184-4.61-2.552-.496-5.034.923-7.373 4.397-1.915 2.694-3.12 5.53-3.758 8.437-.355 1.631-.497 3.404-.497 5.177 0 2.056.425 4.254 1.276 6.452 1.064 2.765 2.482 4.254 4.184 4.609 1.772.354 3.687-.426 5.743-2.27zM116.64 25.808c-2.553-4.467-6.382-7.161-11.345-8.225-1.348-.283-2.623-.425-3.83-.425-6.806 0-12.336 3.545-16.661 10.636-3.688 6.026-5.53 12.692-5.53 19.995 0 5.46 1.134 10.139 3.402 14.039 2.553 4.467 6.311 7.161 11.345 8.224 1.347.284 2.623.426 3.83.426 6.877 0 12.407-3.545 16.661-10.636 3.688-6.097 5.53-12.763 5.53-20.066 0-5.53-1.134-10.139-3.402-13.968zm-8.935 19.64c-.992 4.68-2.765 8.155-5.388 10.494-2.056 1.844-3.97 2.624-5.743 2.27-1.702-.355-3.12-1.844-4.184-4.61-.85-2.197-1.276-4.395-1.276-6.451 0-1.773.142-3.546.497-5.177.638-2.907 1.843-5.743 3.757-8.437 2.34-3.474 4.822-4.893 7.374-4.396 1.702.354 3.12 1.843 4.184 4.609.85 2.198 1.276 4.396 1.276 6.452 0 1.843-.142 3.616-.497 5.247z"/>
    <path d="M191.372 25.17c-4.751 4.68-7.09 10.636-7.09 17.869 0 7.728 2.339 14.039 7.019 18.79 4.68 4.75 10.777 7.16 18.364 7.16 2.198 0 4.68-.354 7.374-1.134V56.368c-2.481.71-4.609 1.064-6.452 1.064-3.758 0-6.736-1.276-9.005-3.758-2.269-2.552-3.404-5.956-3.404-10.28 0-4.042 1.135-7.375 3.333-9.927 2.269-2.624 5.034-3.9 8.438-3.9 2.198 0 4.537.354 7.09 1.063V19.144c-2.34-.638-4.963-.922-7.729-.922-7.232-.07-13.188 2.27-17.938 6.949zm49.207-7.019c-6.523 0-11.628 2.198-15.315 6.523-3.687 4.326-5.46 10.423-5.46 18.223 0 8.438 1.844 14.89 5.46 19.357 3.616 4.467 8.934 6.736 15.883 6.736 6.735 0 11.911-2.27 15.527-6.736 3.616-4.467 5.46-10.778 5.46-18.86 0-8.084-1.844-14.323-5.53-18.72-3.758-4.325-9.076-6.523-16.025-6.523zm5.602 36.87C244.904 57.007 242.99 58 240.579 58c-2.269 0-3.97-.993-5.176-2.979-1.205-1.985-1.772-5.956-1.772-11.982 0-9.289 2.34-13.898 7.09-13.898 4.963 0 7.516 4.68 7.516 14.11-.071 5.814-.78 9.785-2.056 11.77zm50.98-35.523-2.553 10.849c-.638 2.765-1.276 5.601-1.843 8.508l-1.418 7.516c-1.347-7.516-3.191-16.45-5.53-26.873h-16.45l-6.17 48.286h12.338l3.332-33.254 8.438 33.254h8.792l8.083-33.183 3.475 33.183h12.904l-6.523-48.286zm59.063 0-2.552 10.849c-.639 2.765-1.277 5.601-1.844 8.508l-1.418 7.516c-1.347-7.516-3.191-16.45-5.53-26.873h-16.45l-6.169 48.286h12.337l3.332-33.254 8.438 33.254h8.792l8.013-33.183 3.474 33.183h12.905l-6.524-48.286zm40.132 29.213h11.557v-9.998h-11.557V29.85h13.33V19.57H383.31v48.285h26.447v-10.28h-13.401zm50.129-7.658c1.347-2.198 2.056-4.467 2.056-6.806 0-4.538-1.772-8.154-5.318-10.778-3.545-2.623-8.437-3.97-14.535-3.97h-15.174v48.285h13.047v-21.98h.213l10.564 21.98h13.756L440.67 46.017c2.481-1.135 4.467-2.766 5.814-4.964zm-19.995-.78V28.787c3.12.07 5.318.567 6.665 1.56 1.347.992 1.985 2.552 1.985 4.821 0 3.333-2.907 5.035-8.65 5.105zm29.707-15.102c-4.749 4.68-7.089 10.635-7.089 17.868 0 7.728 2.34 14.039 7.021 18.79 4.68 4.75 10.775 7.16 18.364 7.16 2.198 0 4.68-.354 7.372-1.134V56.368c-2.478.71-4.608 1.064-6.452 1.064-3.756 0-6.733-1.276-9.003-3.758-2.27-2.552-3.403-5.956-3.403-10.28 0-4.042 1.133-7.375 3.33-9.927 2.27-2.624 5.034-3.9 8.437-3.9 2.198 0 4.54.354 7.091 1.063V19.144c-2.338-.638-4.961-.922-7.725-.922-7.164-.07-13.19 2.27-17.943 6.949zm42.333 32.261V48.64h11.554v-9.997H498.53V29.78h13.398V19.498h-26.375v48.286h26.448V57.503H498.53z"/>
  </g>
</svg>
