<svg xmlns="http://www.w3.org/2000/svg" viewBox="0 0 512 120.521">
  <path fill="#020202" d="M356.602 21.154c9.58 0 17.717 3.62 24.414 10.86 6.697 7.238 10.046 16.522 10.048 27.851 0 10.926-3.462 20.065-10.385 27.416-6.924 7.352-15.13 11.027-24.616 11.025a30.625 30.625 0 0 1-11.805-2.256c-3.642-1.505-7.261-3.967-10.856-7.386v31.857h-18.278V23.043h18.278v8.09a34.601 34.601 0 0 1 10.791-7.484 31.025 31.025 0 0 1 12.409-2.495zM168.534 0c14.717 0 28.09 5.302 40.884 16.177 10.388 8.831 18.755 19.867 26.847 30.534l.696.917.693.913.347.456.691.908.69.904c10.115 13.219 19.796 24.755 29.848 24.755 9.356-.04 16.914-7.648 16.894-17.005 0-9.138-7.58-16.978-16.894-16.978-6.062 0-11.989 4.203-17.957 10.435-2.79-3.458-5.56-7.126-8.152-10.544-1.636-2.156-3.317-4.373-5.046-6.615 8.857-8.639 18.825-14.752 31.152-14.752 21.157 0 38.37 17.434 38.372 38.45.007 21.213-17.157 38.428-38.37 38.484-20.655 0-34.685-17.134-47.98-34.588l-.838-1.103-.419-.551-.836-1.102c-7.396-9.75-15.044-19.83-23.647-27.143-8.87-7.54-17.44-11.08-26.975-11.08a37.098 37.098 0 1 0 0 74.196c9.535 0 18.106-3.51 26.975-11.05 6.177-5.25 11.86-11.932 17.313-18.886 4.426 5.838 8.939 11.77 13.76 17.185-5.233 6.448-10.822 12.666-17.164 18.058-12.794 10.877-26.17 16.17-40.884 16.17a58.573 58.573 0 1 1 0-117.145zM470.48 21.154c4.26-.03 8.479.819 12.394 2.494a33.825 33.825 0 0 1 10.712 7.484v-8.089H512V96.42h-18.414v-7.756c-3.594 3.419-7.197 5.88-10.81 7.386a30.301 30.301 0 0 1-11.755 2.258c-9.478 0-17.673-3.676-24.587-11.027-6.913-7.35-10.372-16.49-10.377-27.416 0-11.332 3.347-20.616 10.039-27.852 6.692-7.236 14.82-10.855 24.384-10.858zM18.02 23.043l14.755 41.745 15.877-41.745h11.022L75.26 64.317l14.776-41.274h18.141L81.403 96.419h-11.67L54.087 54.604 37.968 96.42h-11.53L0 23.043zm413.105-1.889c2.607.055 5.166.7 7.487 1.889l-5.733 15.847c-2.158-1.08-3.933-1.619-5.327-1.617-2.832 0-5.227 1.753-7.185 5.258-1.958 3.506-2.935 10.386-2.931 20.64l.065 3.574v29.673h-18.277l.003-73.375h15.782v9.238a19.725 19.725 0 0 1 6.81-8.296 16.46 16.46 0 0 1 9.306-2.831zm-78.368 16.994c-5.798 0-10.609 1.979-14.432 5.936-3.823 3.958-5.734 9.129-5.733 15.513 0 6.519 1.911 11.79 5.733 15.816 3.822 4.025 8.633 6.037 14.432 6.035a18.713 18.713 0 0 0 14.197-6.137c3.846-4.091 5.767-9.307 5.766-15.647 0-6.294-1.889-11.453-5.665-15.477-3.777-4.025-8.543-6.038-14.298-6.04zm121.475 0c-5.693 0-10.421 2.013-14.183 6.039-3.762 4.025-5.645 9.185-5.647 15.477 0 6.337 1.916 11.553 5.747 15.647a18.615 18.615 0 0 0 14.148 6.137c5.783 0 10.577-2.012 14.384-6.035 3.806-4.024 5.71-9.295 5.71-15.816 0-6.386-1.903-11.557-5.71-15.513-3.808-3.955-8.624-5.934-14.449-5.936z"/>
</svg>
