<svg xmlns="http://www.w3.org/2000/svg" viewBox="0 0 640 149">
  <style>
    .st0{fill:#616161}.st1{fill:#f57c00}
  </style>
  <path d="m41.8 14.5-18.2 8.7-1 81.3-6.5-2-.5-75.5L0 34.5v80L71.7 149V0L50.9 10l-.8 102.5-7.9-2.4z" class="st0"/>
  <path d="M80.7 2.8v66.8l92.5 1.6V31.3zm20.7 33 56.7 10.9v6.4l-56.7-7zM80.7 79.4v66.9l92.5-28.6V77.8zm20.7 23 56.7-6.6v6.4l-56.7 10.5z" class="st1"/>
  <g>
    <path d="M361.1 58.4c-2.7-2.6-7.1-3.9-13.3-3.9H332c-6.2 0-10.6 1.3-13.2 3.9-2.7 2.6-4 6.3-4 11.2v30.5c0 4.9 1.3 8.6 4 11.2 2.7 2.6 7.1 3.9 13.2 3.9h15.9c6.2 0 10.6-1.3 13.3-3.9 2.7-2.6 4-6.3 4-11.2V69.6c-.1-4.9-1.4-8.6-4.1-11.2zm-16.3 39.7c0 1.8-1 2.7-3 2.7H338c-2 0-3-.9-3-2.7V71.5c0-1.8 1-2.7 3-2.7h3.7c2 0 3 .9 3 2.7v26.6zM407.7 53.9h1.8v18h-6.9c-5.1 0-7.7 2.8-7.7 8.3v35h-20.7V54.5h20.3v9.4c.7-3.1 2.1-5.5 4.4-7.3 2.3-1.8 5.3-2.7 8.8-2.7zM436.4 115.2h-20.7V33.8h20.7v48.3l11.4-27.6h21.4l-13 29.9 13 30.8h-21.5l-11.3-28.3zM505.5 54.5h3.3c10.8 0 16.2 5 16.2 15.1v30.5c0 10-5.4 15.1-16.2 15.1h-3.3c-6.2 0-9.9-2.6-11.1-7.8v7.8h-20.3V33.8h20.7V61c1.6-4.3 5.1-6.5 10.7-6.5zm-1.2 42.8V72.4c0-1.8-1-2.7-3-2.7h-3.1c-2.2 0-3.3 1.2-3.3 3.7v23c0 2.4 1.1 3.7 3.3 3.7h3.1c2-.1 3-1 3-2.8zM550.8 54.5h15.8c6.2 0 10.6 1.3 13.3 3.9 2.7 2.6 4 6.3 4 11.2v30.5c0 4.9-1.3 8.6-4 11.2-2.7 2.6-7.1 3.9-13.3 3.9h-15.8c-6.2 0-10.6-1.3-13.2-3.9-2.7-2.6-4-6.3-4-11.2V69.6c0-4.9 1.3-8.6 4-11.2 2.7-2.6 7.1-3.9 13.2-3.9zm12.8 43.6V71.5c0-1.8-1-2.7-3-2.7H557c-2 0-3 .9-3 2.7v26.6c0 1.8 1 2.7 3 2.7h3.6c2 0 3-.9 3-2.7zM624.9 83.8l15.1 31.4h-20.9l-6.6-18-6 18h-20.2l13.9-31-14.5-29.7h21.6l5.2 16.9 5.2-16.9h20.5zM305 100.1v-63h-20.7v60.2c0 1.8-1 2.7-3 2.7H277c-2 0-3-.9-3-2.7V37.1h-20.1v60.2c0 1.8-1 2.7-3 2.7h-4.3c-2 0-3-.9-3-2.7V37.1h-20.7v63c0 4.9 1.3 8.6 4 11.2 2.7 2.6 7.1 3.9 13.3 3.9h12.6c4.2 0 8.3-1.4 11.2-4.6 2.9 3.2 7 4.6 11.2 4.6h12.6c6.2 0 10.6-1.3 13.3-3.9 2.6-2.6 3.9-6.3 3.9-11.2z" class="st0"/>
  </g>
</svg>
