<svg xmlns="http://www.w3.org/2000/svg" viewBox="0 0 351 74">
  <path
    d="M26.81 72.593L38.3 39.267l11.996 33.326h8.569l17.237-47.02H65.015L54.027 57.29 43.14 25.574h-9.677L22.576 57.289 11.689 25.574H.6l17.742 47.02h8.467zm75.57 1.007c13.407 0 24.697-9.766 24.697-24.668 0-14.9-11.29-24.365-24.697-24.365-13.306 0-24.496 9.464-24.496 24.365 0 14.902 11.19 24.668 24.496 24.668zm0-10.068c-7.762 0-14.214-5.74-14.214-14.6 0-8.658 6.452-14.196 14.214-14.196 7.863 0 14.314 5.538 14.314 14.196 0 8.86-6.451 14.6-14.314 14.6zm43.212 9.061V55.678c0-12.485 3.73-21.345 12.6-21.345 2.017 0 4.335.302 6.956 1.611l1.714-9.565c-1.512-1.007-5.04-1.812-8.367-1.812-5.847 0-10.484 3.423-12.903 11.78V25.574h-10.383v47.02h10.383zm36.76 0V53.948l17.49 18.645h13.609l-22.329-23.377 22.329-23.642h-13.609l-17.49 18.709V0H172.07v72.593h10.282zm55.41 1.007c5.847 0 12.701-2.618 15.826-7.753v6.746h10.282v-47.02h-10.282v6.646c-3.226-5.336-10.181-7.652-15.826-7.652-12.702 0-23.891 9.464-23.891 24.466S225.06 73.6 237.76 73.6zm1.21-10.068c-7.863 0-14.416-5.94-14.416-14.6 0-8.658 6.553-14.297 14.415-14.297 7.057 0 14.516 5.034 14.516 14.297 0 9.263-6.854 14.6-14.516 14.6zm50.167 9.061V34.132h9.98v-8.558h-9.98V7.753h-10.383v17.82h-8.468v8.559h8.468v38.461h10.383zm37.164 1.007C339.71 73.6 351 63.834 351 48.932c0-14.9-11.29-24.365-24.697-24.365-13.307 0-24.496 9.464-24.496 24.365 0 14.902 11.19 24.668 24.496 24.668zm0-10.068c-7.762 0-14.214-5.74-14.214-14.6 0-8.658 6.452-14.196 14.214-14.196 7.862 0 14.314 5.538 14.314 14.196 0 8.86-6.452 14.6-14.314 14.6z">
  </path>
</svg>
