<svg xmlns="http://www.w3.org/2000/svg" viewBox="0 0 256 195.367">
  <path fill="#e79ec0" d="m81.5 55.05 1.38.097 44.856-25.454.307-1.054-47.584-26.75c-11.443-6.332-24.096 6.139-17.93 17.673z"/>
  <path fill="#57b4dd" d="m174.241 55.395-1.576.113-44.502-25.773-.12-1.096L176.03 1.762c11.652-6.526 24.546 6.335 18.05 18.003z"/>
  <path fill="#e79ec0" d="m127.612 136.694-.114-3.642 44.047-76.166 2.697-1.49 47.368 25.882-74.899 86.531z"/>
  <path fill="#57b4dd" d="m127.612 136.694-15.14 26.412L31.658 83.27 81.5 55.05l2.392.212 44.066 78.02z"/>
  <path fill="#f072ab" d="M256 135.16c0 32.872-26.648 59.519-59.52 59.519-32.871 0-59.518-26.647-59.518-59.519s26.647-59.519 59.519-59.519c32.87 0 59.519 26.647 59.519 59.519"/>
  <path fill="#26a9e0" d="M119.038 135.848c0 32.872-26.648 59.52-59.519 59.52C26.647 195.367 0 168.72 0 135.847S26.647 76.33 59.519 76.33c32.871 0 59.519 26.647 59.519 59.52"/>
  <path fill="#507ab4" d="m128.043 28.64 46.199 26.755-46.63 81.3L81.5 55.05z"/>
  <path fill="#fff" d="M227.982 137.985c0 17.548-14.226 31.774-31.774 31.774-17.549 0-31.774-14.226-31.774-31.774 0-17.548 14.225-31.774 31.774-31.774 17.548 0 31.774 14.226 31.774 31.774"/>
  <path fill="#f072ab" d="M200.911 138.329a3.44 3.44 0 1 1 0-6.882 3.44 3.44 0 0 1 0 6.882m-14.607-10a13.95 13.95 0 0 0-3.976 9.77c0 7.729 6.266 13.995 13.995 13.995 7.729 0 13.994-6.266 13.994-13.994 0-4.255-1.898-8.066-4.894-10.633 4.538 2.262 9.107 6.09 13.153 11.32l.573-4.587c-7.964-10.295-15.145-13.638-23.874-13.236-13.846.648-22.915 14.715-23.294 15.314l2.432 4.46c.059-.092 4.85-7.847 11.891-12.41z"/>
  <path fill="#fff" d="M89.644 137.985c0 17.548-14.226 31.774-31.774 31.774-17.549 0-31.774-14.226-31.774-31.774 0-17.548 14.225-31.774 31.774-31.774 17.548 0 31.774 14.226 31.774 31.774"/>
  <path fill="#26a9e0" d="M62.573 138.329a3.44 3.44 0 1 1 0-6.882 3.44 3.44 0 0 1 0 6.882m-14.607-10a13.95 13.95 0 0 0-3.976 9.77c0 7.729 6.266 13.995 13.995 13.995 7.729 0 13.994-6.266 13.994-13.994 0-4.255-1.898-8.066-4.894-10.633 4.538 2.262 9.107 6.09 13.153 11.32l.573-4.587c-7.964-10.295-15.145-13.638-23.874-13.236-13.846.648-22.915 14.715-23.294 15.314l2.432 4.46c.058-.092 4.85-7.847 11.891-12.41z"/>
</svg>
