<svg xmlns="http://www.w3.org/2000/svg" viewBox="0 0 256 258">
  <g fill="none" fill-rule="evenodd">
    <path fill="#fb7a24" d="M127.929.002c33.227 0 66.455 0 99.682-.002 4.17 0 8.3.362 12.301 1.582 8.675 2.644 13.268 8.865 15.068 17.438.715 3.4.918 6.865.925 10.33.053 23.27.092 46.542.094 69.814.002 42.384.007 84.767-.08 127.151-.012 5.933-.328 11.931-3.257 17.336-3.249 5.994-7.697 10.738-14.45 12.824-1.22.377-2.494.806-3.745.806-2.883.002-5.687.716-8.56.716-65.067-.005-130.133.033-195.2-.07-5.292-.01-10.67-.395-15.697-2.548-1-.43-2.01-.79-2.89-1.46-6.4-4.877-10.746-10.96-11.678-19.191-.335-2.968-.442-5.92-.442-8.889.01-65.952.016-131.904.05-197.856.003-3.826.042-7.718 1.219-11.38C4.403 6.846 11.261 1.519 21.427.437 23.79.185 26.173.022 28.547.02 61.672-.007 94.801.002 127.928.002z"/>
    <path fill="#fff" d="M128.775 164.113c-.727 4.454-1.238 8.48-2.838 12.19-7.49 17.384-20.256 27.977-39.394 30.086-22.621 2.492-43.515-11.47-49.797-33.154-2.277-7.858-2.049-15.869-1.223-23.867.881-8.546 3.399-16.65 7.33-24.296.563-1.093.552-1.918-.152-2.977-6.036-9.078-8.378-19.107-7.528-29.932.455-5.786 1.86-11.32 4.483-16.504 7.689-15.185 24.57-28.072 47.179-25.932 19.88 1.88 38.293 19.029 41.167 38.315.145.968.417 1.918.735 3.346.476-2.586.82-4.72 1.265-6.834 3.703-17.521 20.854-35.855 45.164-36.082 24.64-.228 42.887 19.097 46.33 37.045 1.455 7.585 1.202 15.163.002 22.738a81.019 81.019 0 0 1-6.671 21.774c-.717 1.53-.643 2.63.275 4.051 5.306 8.224 7.648 17.252 7.348 27.056-.628 20.457-15.097 38.802-35.002 43.6-27.79 6.697-49.093-9.923-56.262-30.031-1.169-3.273-1.723-6.69-2.41-10.592zm50.489-35.94c.297-1.157 1.193-1.85 1.837-2.706 6.968-9.26 10.633-19.603 9.815-31.25-.596-8.5-7.587-14.488-16.05-14.171-8.469.317-14.85 6.848-14.97 15.322-.009.694.033 1.389-.01 2.078-.583 9.031-5.566 13.978-13.117 14.53-1.379.101-2.762.224-4.143.228-9.8.022-19.599.018-29.4.009-4.28-.004-8.524.461-12.6 1.72-19.027 5.87-30.122 18.882-33.796 38.275-.728 3.837-1.383 7.819-.125 11.76 1.805 5.653 5.17 9.857 11.126 11.263 6.173 1.457 11.55-.155 15.822-5.004 2.761-3.135 3.632-6.86 3.838-10.948.534-10.515 6.26-15.771 15.81-15.692 14.649.122 29.3.026 43.951.037 2.6.002 2.624.036 2.637 2.608.025 4.75-.121 9.507.061 14.252.3 7.747 7.115 14.186 15.017 14.413 8.148.233 15.411-5.794 15.942-13.661.457-6.81.429-13.662-.019-20.476-.345-5.276-3.2-9.035-8.035-11.217-1.16-.522-2.38-.913-3.591-1.37zm-91.832-15.984c3.151 0 5.723-.029 8.293.013 1.274.02 1.746-.528 1.736-1.777-.042-4.943.213-9.902-.102-14.827-.416-6.497-3.871-11.194-9.92-13.563-6.202-2.429-11.878-1.043-16.678 3.538-4.821 4.603-5.464 10.232-3.777 16.392 1.55 5.662 5.21 8.878 10.968 9.85 3.344.563 6.707.293 9.48.374z"/>
  </g>
</svg>
