<svg xmlns="http://www.w3.org/2000/svg" viewBox="0 0 256 256">
  <path fill="#fff" d="M128 249.018C61.09 249.018 6.982 194.91 6.982 128 6.982 61.09 61.09 6.982 128 6.982c66.91 0 121.018 54.109 121.018 121.018 0 66.91-54.109 121.018-121.018 121.018z"/>
  <path fill="#3f3f3f" d="M128 14.545c62.836 0 113.455 51.2 113.455 113.455 0 62.255-50.619 113.455-113.455 113.455S14.545 190.836 14.545 128 65.164 14.545 128 14.545zM128 0C57.018 0 0 57.018 0 128s57.018 128 128 128 128-57.018 128-128S197.818 0 128 0z"/>
  <path fill="#0ab3e5" d="m74.473 119.273 23.272 18.618 32-52.364 40.728 65.164 22.109-17.455 24.436 36.073c5.818-12.8 10.473-27.927 10.473-42.473 0-55.272-43.636-98.909-98.91-98.909-55.272 0-100.654 44.8-100.654 98.91 0 17.454 4.655 32 11.637 46.545z"/>
</svg>
