<svg xmlns="http://www.w3.org/2000/svg" viewBox="0 0 511.178 159.769">
  <path d="m40.096 0 92.325 159.769H92.119L66.21 114.737 40.096 159.77H0l46.06-79.782L0 0zm92.12 0L91.707 70.323C79.494 48.54 79.573 22.125 91.746.649L92.12 0zM183.415 37.012c10.076.206 18.918 3.084 26.526 8.636l-6.992 10.487c-6.168-4.113-12.954-6.374-20.15-6.58-3.907 0-6.992 1.028-9.46 2.879-2.672 2.056-4.112 5.14-4.112 9.047 0 2.468.823 4.73 2.673 6.58 1.851 2.056 4.73 3.496 8.842 4.112 2.262.412 5.346.823 9.253 1.234 7.608 1.028 13.366 3.907 17.067 8.43 3.701 4.524 5.346 9.665 5.346 15.834-.617 16.655-10.075 24.674-28.787 24.88-12.132 0-22.413-3.907-31.255-11.515l8.225-9.458c6.58 5.551 14.188 8.224 23.236 8.43 10.692-.206 16.038-4.112 16.244-11.72 0-6.375-3.496-10.076-10.693-11.31-3.29-.41-6.99-1.028-10.898-1.645-6.99-1.233-12.337-3.906-16.038-8.019-3.701-4.318-5.758-9.459-5.758-15.627 0-7.403 2.468-13.366 7.197-17.89 4.524-4.523 11.104-6.785 19.534-6.785zm107.335.617v11.31h-22.413v72.995H256V48.938h-22.413v-11.31zm47.91 0 29.61 84.305h-12.543l-6.374-18.917h-31.05l-6.374 18.917h-13.16l29.61-84.305zm95.82 0v11.31h-22.413v72.995H399.73V48.938h-22.413v-11.31zm76.698 0v11.926h-39.891v24.058h33.927v11.31h-33.927v24.88h39.89v11.926H458.95v-84.1zM334.137 54.9h-.206l-11.926 36.807h23.852z"/>
</svg>
