<svg xmlns="http://www.w3.org/2000/svg" viewBox="0 0 511.996 171.965">
  <path fill="#70b700" d="M85.983 0a5.963 5.963 0 0 1 5.958 5.734l.005.23V32.69a5.963 5.963 0 0 1-11.922.228l-.005-.228V5.963A5.963 5.963 0 0 1 85.983 0z"/>
  <path fill="#f70" d="M166.52 79.5a5.963 5.963 0 0 1 .266 11.921l-.265.006h-26.728a5.963 5.963 0 0 1-.266-11.92l.266-.006z"/>
  <path fill="red" d="M91.946 166.002a5.963 5.963 0 0 1-11.92.266l-.007-.266v-26.727a5.963 5.963 0 0 1 11.92-.266l.007.266z"/>
  <path fill="#0087cb" d="M5.963 91.427a5.963 5.963 0 0 1-.265-11.92l.265-.006h26.728a5.963 5.963 0 0 1 .265 11.92l-.265.006z"/>
  <path fill="#505052" d="M151.142 11.523c4.231 3.703 4.729 10.086 1.175 14.396l-.201.238-52.359 59.825 52.359 59.826c3.772 4.31 3.336 10.862-.974 14.634-4.232 3.704-10.625 3.35-14.426-.743l-.208-.23-50.532-57.74-50.53 57.74c-3.772 4.31-10.324 4.745-14.634.973-4.232-3.703-4.729-10.086-1.176-14.396l.202-.238 52.357-59.826-52.357-59.825c-3.772-4.31-3.336-10.862.974-14.634 4.232-3.704 10.624-3.35 14.426.743l.208.231 50.53 57.738 50.532-57.738c3.772-4.31 10.324-4.746 14.634-.974z"/>
  <path fill="#f70" d="M333.94 9.987a7.26 7.26 0 0 1 5.8 8.253l-.042.246-26.488 137.735c-1.386 7.209-11.32 8.005-13.9 1.248l-.089-.245-40.818-117.916-40.816 117.916c-2.401 6.938-12.348 6.308-13.936-.749l-.053-.254-26.487-137.735a7.26 7.26 0 0 1 14.206-2.986l.051.244 21.367 111.11 38.81-112.113c2.224-6.426 11.22-6.512 13.626-.257l.093.257 38.809 112.113 21.367-111.11a7.26 7.26 0 0 1 8.5-5.757zm27.765-.341a7.26 7.26 0 0 1 7.255 7.01l.004.25V154.64a7.26 7.26 0 0 1-14.514.25l-.004-.25V16.905a7.26 7.26 0 0 1 7.26-7.26zm34.434 0a7.26 7.26 0 0 1 7.255 7.01l.004.25V78.84l67.07-67.069a7.26 7.26 0 0 1 10.455 10.07l-.19.197L417 85.773l63.735 63.734a7.26 7.26 0 0 1 .189 10.07l-.19.196a7.26 7.26 0 0 1-10.07.189l-.196-.189-67.07-67.07v61.937a7.26 7.26 0 0 1-14.514.25l-.004-.25V16.905a7.26 7.26 0 0 1 7.26-7.26zm108.598 0a7.26 7.26 0 0 1 7.255 7.01l.004.25V154.64a7.26 7.26 0 0 1-14.515.25l-.004-.25V16.905a7.26 7.26 0 0 1 7.26-7.26z"/>
</svg>
