<svg xmlns="http://www.w3.org/2000/svg" viewBox="0 0 256 217.203">
  <path fill="#265495" d="M245.768 97.86c-.537-.026-1.1-.031-1.688-.031-9.842.019-80.614 7.78-77.063 14.993 3.538 7.137 47.118 10.6 78.177 10.614 6.51-1.13 11.225-7.012 10.776-13.738-.419-5.904-4.702-10.622-10.202-11.837m-24 74.85c-27.24-14.924-67.108-32.867-73.645-28.296-6.582 4.606 51.721 45.464 60.346 50.21.526.285 1.017.547 1.49.798 5.42 1.578 11.433-.497 14.645-5.482 3.632-5.674 2.32-13.108-2.835-17.23m0-122.84c5.156-4.123 6.467-11.557 2.835-17.226-3.212-4.988-9.225-7.052-14.645-5.479-.473.243-.964.507-1.49.79-8.625 4.753-66.928 45.604-60.346 50.215 6.537 4.569 46.405-13.372 73.646-28.3zM58.409 159.241c-8.106 22.889-15.61 33.607-32.848 33.607-1.666 0-7.466-.342-7.84-.377-5.561-.286-10.755 3.333-12.253 8.924-1.72 6.352 2.01 12.897 8.328 14.707 4.569.804 9.26 1.1 13.469 1.1 31.774 0 42.279-18.293 52.77-45l61.99-154.641c2.235-7.007-1.658-14.497-8.622-16.726-6.844-2.176-14.09 1.442-16.542 8.09L73.303 124.05h-.683L26.8 8.06C23.7 1.506 16.03-1.693 9.113.9 2.016 3.562-1.63 11.327.702 18.467z"/>
</svg>
