<svg viewBox="0 0 256 100.17" xmlns="http://www.w3.org/2000/svg">
  <path
    d="M41.572 0h-13.46C14.652 0 3.07 10.017 3.07 29.425c0 11.582 5.634 20.347 15.338 24.73L.252 86.71c-.626.94 0 1.878.94 1.878h8.451c.626 0 1.252-.313 1.565-.939l16.591-31.93h5.947v31.93c0 .313.314.94.94.94h7.513c.626 0 .938-.314.938-.94V1.253C42.825.314 42.512.002 41.572.002zm-7.826 48.207h-5.008c-21.599 0-20.034-40.694-.939-40.694h6.26v40.694z"
    fill="red" />
  <path
    d="M86.65 29.425h-7.512c-.626 0-.94.313-.94.94v22.537H64.426V30.364c0-.626-.313-.94-.939-.94h-7.2c-.626 0-.939.314-.939.94v57.284c0 .626.313.939.94.939h7.512c.626 0 .94-.313.94-.94V60.102h13.773v27.547c0 .626.312.939.939.939h7.512c.626 0 .94-.313.94-.94V30.365c-.313-.626-.626-.94-1.252-.94zm169.037 51.34c0-.313-.313-.313-.626-.313-3.13 0-22.225 9.078-22.225-20.973 0-13.147 5.008-31.616 16.903-20.66.313.313.626.313.939.313s.626-.313.94-.94l3.13-5.321c.312-.313.312-.626.312-.939 0-.626-.625-.94-1.251-1.252-20.66-10.33-31.304 8.765-31.304 30.99 0 28.799 20.974 32.868 32.868 24.104.626-.313.626-.94.626-1.252zm-51.335-24.73l14.4-25.981c.312-.314 0-.94-.313-.94h-7.2c-2.192 0-2.818.626-3.444 2.192-.626 1.565-11.269 23.79-12.521 24.73V30.052c0-.313-.313-.94-.626-.94h-7.826c-.313 0-.626.314-.626.94v57.6c0 .312.313.938.626.938h7.826c.626 0 .626-.313.626-.939V57.914c.94.626 14.086 27.86 14.4 28.799.625 1.252 1.877 1.878 3.443 1.878h7.826c.626 0 .626-.313.313-.939zm-68.555 25.043h-1.565c-1.878 0-2.191-.626-2.191-2.191V30.053c0-.626-.313-.94-.626-.94H107.31c-.626 0-.939.314-.939.94 0 13.147.313 35.06-8.452 51.025h-2.504c-.626 0-.94.313-.94.939v17.216c0 .626.627.94.94.94h5.634c1.252 0 1.879-.94 1.879-1.879V88.59h25.356v10.643c0 .314.313.94.938.94h6.261c.626 0 1.565-.626 1.565-1.879V82.017c-.313-.626-.626-.94-1.251-.94zm-13.147 0h-17.53c5.008-8.139 9.703-21.286 9.703-44.45h7.826v44.45zm37.564-53.217c-12.835 0-18.782 15.964-18.782 33.493 0 28.8 20.034 33.182 33.807 24.73.626-.312.626-.625.626-.938l-.939-4.07c0-.313-.313-.626-.939-.626-5.009 0-22.538 8.765-22.538-19.721 6.26.626 6.26.626 25.042.626-.313-14.4-1.877-33.494-16.277-33.494zm-8.452 26.293c0-22.851 15.026-27.234 15.026-.626-6.574 0-9.391 0-15.026.626z" />
</svg>