<svg xmlns="http://www.w3.org/2000/svg" viewBox="0 0 255.514 273.484">
  <defs>
    <linearGradient id="a" x1="291.395" x2="291.395" y1=".003" y2="128.363" gradientTransform="scale(.71893 1.39096)" gradientUnits="userSpaceOnUse">
      <stop offset="0%" stop-color="#73B723"/>
      <stop offset="100%" stop-color="#D8EE61"/>
    </linearGradient>
    <linearGradient id="b" x1="201.659" x2="122.996" y1="151.078" y2="232.473" gradientTransform="scale(.85003 1.17643)" gradientUnits="userSpaceOnUse">
      <stop offset="0%" stop-color="#98C9EA"/>
      <stop offset="68.865%" stop-color="#026FB2"/>
      <stop offset="100%" stop-color="#086EB6"/>
    </linearGradient>
    <linearGradient id="c" x1=".109" x2="121.835" y1="27.763" y2="117.926" gradientTransform="scale(1.10068 .90853)" gradientUnits="userSpaceOnUse">
      <stop offset="0%" stop-color="#D73721"/>
      <stop offset="100%" stop-color="#F7D768"/>
    </linearGradient>
    <linearGradient id="d" x1="235.005" x2="271.065" y1="73.964" y2="106.757" gradientTransform="scale(.66362 1.5069)" gradientUnits="userSpaceOnUse">
      <stop offset="0%" stop-color="#D4C883"/>
      <stop offset="100%" stop-color="#A1D1A7"/>
    </linearGradient>
  </defs>
  <path fill="url(#a)" d="M221.829.004c18.6 9.478 34.576 34.35 33.775 68.1-2.431 41.585-32.582 77.424-65.387 110.444-1.837-40.269-10.593-65.932-24.265-102.02-12.908-36.367 24.83-75.36 55.877-76.524z" style="fill:url(#a)" transform="translate(-.12 -.004)"/>
  <path fill="url(#b)" d="M121.217 177.132c9.988-12.424 17.067-23.488 22.007-33.484 33.84 17.693 25.855 14.389 42.176 33.24.055.587.107 1.172.156 1.755 1.354 26.138-17.713 86.564-92.793 94.845-5.197-40.603 11.699-75.237 28.454-96.356z" style="fill:url(#b)" transform="translate(-.12 -.004)"/>
  <path fill="url(#c)" d="M.391 25.247c53.495-21.169 111.068.516 144.306 45.697 3.216 4.37 6.265 8.91 9.14 13.582 5.195 33.155 1.234 51.568-8.875 61.329-6.647-3.354-13.739-6.328-21.31-9.078-17.6-6.394-33.845-10.626-57.044-17.495C11.52 104.248-2.065 57.012.391 25.247z" style="fill:url(#c)" transform="translate(-.12 -.004)"/>
  <path fill="url(#d)" d="M151.793 81.28c.351.545.698 1.086 1.04 1.635l.422.677c.858 1.379 1.7 2.766 2.53 4.17l.14.234.223.38.203.351.594 1.02.041.074.805 1.412.025.041a204.91 204.91 0 0 1 1.722 3.1l.07.132.627 1.164.017.03.69 1.295.197.38.384.74.47.911.455.884c.462.916.92 1.833 1.37 2.749l.116.227a230.983 230.983 0 0 1 2.373 5.011l.587 1.284.057.128.376.834.438.987.247.57.397.912.284.656.599 1.412.041.099.64 1.535.079.186c.68 1.66 1.341 3.32 1.98 4.991l.063.153.528 1.4.033.077.306.826c.338.916.673 1.833 1.003 2.753l.128.36c.363 1.027.722 2.06 1.069 3.087l.111.326c.326.966.64 1.932.954 2.898l.153.475.037.111.495 1.565.02.07.459 1.494.458 1.54.013.033.38 1.3.119.422.231.805c.26.928.516 1.853.764 2.782l.186.693.359 1.37.016.067c.438 1.684.85 3.368 1.243 5.048l.037.174.041.177c.512 2.217.983 4.426 1.416 6.626l.041.219a194.67 194.67 0 0 1 1.718 10.196l.008.045c.148 1.04.284 2.076.412 3.113l.054.445.174 1.482v.004l.148 1.37.05.455.107 1.086.041.437.017.178.132 1.49c-11.819-15.22-25.936-25.71-42.878-33.916 13.672-27.03 11.753-46.291 9.115-63.447" style="fill:url(#d)" transform="translate(-.12 -.004)"/>
</svg>
