<svg xmlns="http://www.w3.org/2000/svg" viewBox="0 0 256 255.349">
  <path fill="#ff4a00" d="M128.08 0c7.231.013 14.343.624 21.256 1.78V76.3l52.831-52.695a128.425 128.425 0 0 1 16.34 13.788 128.468 128.468 0 0 1 13.84 16.312L179.513 106.4h74.715A127.579 127.579 0 0 1 256 127.587v.173c0 7.226-.613 14.306-1.772 21.2H179.5l52.847 52.683a129.615 129.615 0 0 1-13.824 16.312h-.015a128.255 128.255 0 0 1-16.326 13.788l-52.846-52.696v74.52a130.321 130.321 0 0 1-21.243 1.782h-.186a130.265 130.265 0 0 1-21.23-1.782v-74.52l-52.831 52.696a128.401 128.401 0 0 1-30.18-30.1L76.5 148.96H1.785A126.984 126.984 0 0 1 0 127.72v-.37c.012-1.876.135-4.167.311-6.537l.055-.713c.522-6.671 1.419-13.7 1.419-13.7H76.5L23.666 53.705a126.265 126.265 0 0 1 13.81-16.285l.026-.027a127.746 127.746 0 0 1 16.344-13.788L106.677 76.3V1.78A130.278 130.278 0 0 1 127.933 0zm-.013 95.76h-.122c-9.509 0-18.616 1.74-27.034 4.902a76.662 76.662 0 0 0-4.915 26.952v.12a76.383 76.383 0 0 0 4.927 26.951 76.608 76.608 0 0 0 27.022 4.902h.122c9.51 0 18.617-1.74 27.022-4.902a76.146 76.146 0 0 0 4.915-26.952v-.12c0-9.484-1.747-18.57-4.915-26.951a76.614 76.614 0 0 0-27.022-4.902z"/>
</svg>
