<svg xmlns="http://www.w3.org/2000/svg" viewBox="0 0 512 233.602">
  <path fill="#ff4a00" d="M242.254 83.81c5.887 0 11.352.98 16.395 2.939 5.035 1.958 9.351 4.991 12.952 9.1 3.598 4.116 6.412 9.338 8.443 15.666 2.028 6.337 3.041 13.804 3.041 22.421 0 17.231-4.679 30.712-14.034 40.435-9.361 9.726-22.61 14.59-39.756 14.59-2.879 0-5.822-.196-8.833-.589-3.014-.392-5.628-.916-7.853-1.566v46.015c-1.57.257-3.238.453-5.005.585a67.248 67.248 0 0 1-4.811.196 67.09 67.09 0 0 1-4.808-.196 47.68 47.68 0 0 1-4.808-.585V86.157a41.289 41.289 0 0 1 4.022-.585 45.221 45.221 0 0 1 4.22-.196c1.307 0 2.683.067 4.124.196 1.437.132 2.814.328 4.123.585.129.267.295 1.078.488 2.451.197 1.37.394 2.838.59 4.404.197 1.566.393 3.071.59 4.505.197 1.437.292 2.35.292 2.743 1.31-2.09 2.879-4.113 4.713-6.071 1.83-1.958 4.028-3.723 6.578-5.286 2.55-1.57 5.429-2.807 8.64-3.72 3.2-.914 6.767-1.373 10.697-1.373zm-110.33 0c13.086 0 23.034 2.973 29.839 8.908 6.805 5.942 10.21 15.439 10.21 28.49v62.856c-4.58 1.045-10.142 2.12-16.686 3.23a120.08 120.08 0 0 1-20.026 1.663c-6.415 0-12.203-.585-17.374-1.762-5.17-1.176-9.555-3.063-13.152-5.681-3.601-2.604-6.382-5.939-8.345-9.984-1.963-4.044-2.943-8.938-2.943-14.687 0-5.608 1.142-10.538 3.434-14.783a30.875 30.875 0 0 1 9.325-10.572c3.927-2.803 8.443-4.897 13.546-6.263 5.107-1.373 10.471-2.06 16.1-2.06 4.187 0 7.622.102 10.303.295 2.683.2 4.94.426 6.775.686v-3.72c0-7.704-1.963-13.054-5.889-16.057-3.927-3-9.62-4.502-17.08-4.502-4.584 0-8.866.362-12.857 1.076a98.6 98.6 0 0 0-11.681 2.837c-2.49-4.308-3.73-9.459-3.73-15.469 4.445-1.433 9.352-2.543 14.723-3.328 5.364-.784 10.532-1.173 15.509-1.173zm-50.059 2.346.98 2.55-53.397 82.434H79.51c.39 2.614.59 5.286.59 8.025 0 2.618-.2 5.094-.59 7.447H.983L0 183.87l53.007-82.242H6.283c-.393-2.35-.59-4.958-.59-7.833 0-2.739.197-5.289.59-7.64zm55.95 52.086c-8.118 0-14.303 1.505-18.551 4.505-4.259 3.006-6.381 7.575-6.381 13.707 0 3.916.715 6.987 2.16 9.202 1.437 2.222 3.238 3.916 5.398 5.093 2.16 1.174 4.546 1.89 7.164 2.154a74.43 74.43 0 0 0 7.46.393c3.01 0 6.12-.162 9.324-.494 3.208-.325 6.052-.811 8.541-1.465V139.42c-1.963-.26-4.448-.518-7.46-.781-3.01-.26-5.563-.396-7.655-.396zm100.12-37.593a25.64 25.64 0 0 0-9.423 1.765c-3.014 1.17-5.693 2.932-8.05 5.282-2.356 2.35-4.251 5.324-5.69 8.912-1.444 3.595-2.163 7.863-2.163 12.827v40.726a38.31 38.31 0 0 0 7.656 1.958c2.618.389 6.02.588 10.21.588 4.713 0 9.03-.75 12.956-2.253 3.927-1.494 7.297-3.817 10.108-6.952 2.814-3.132 5.038-7.079 6.676-11.848 1.634-4.761 2.455-10.405 2.455-16.933 0-10.443-1.933-18.732-5.792-24.87-3.861-6.132-10.179-9.202-18.943-9.202zm157.053-16.841c6.934 0 13.02 1.177 18.256 3.527 5.235 2.35 9.62 5.58 13.156 9.692 3.53 4.113 6.212 9.007 8.046 14.685 1.831 5.678 2.75 11.843 2.75 18.502 0 1.83-.068 3.754-.2 5.777a200.97 200.97 0 0 1-.39 5.188H368.09c.264 10.967 3.109 18.996 8.54 24.086 5.433 5.09 13.448 7.64 24.05 7.64 9.295 0 18.125-1.634 26.503-4.897 1.048 1.958 1.896 4.339 2.553 7.145a46.477 46.477 0 0 1 1.177 8.324c-4.32 1.829-9.067 3.195-14.231 4.112-5.174.91-10.898 1.37-17.177 1.37-9.166 0-17.018-1.272-23.559-3.819-6.544-2.546-11.946-6.134-16.198-10.768-4.251-4.633-7.361-10.118-9.325-16.45-1.962-6.33-2.945-13.28-2.945-20.856 0-7.437.948-14.386 2.848-20.853 1.895-6.46 4.81-12.07 8.734-16.838 3.927-4.762 8.867-8.546 14.821-11.357 5.954-2.807 12.99-4.21 21.107-4.21zm-68.708 2.348v100.456c-1.445.257-3.045.45-4.812.582a67.249 67.249 0 0 1-4.811.196c-1.31 0-2.849-.068-4.612-.196a47.687 47.687 0 0 1-4.811-.582v-85.18H294.47c-.26-1.045-.458-2.252-.586-3.622a41.635 41.635 0 0 1-.197-4.015c0-1.301.064-2.644.197-4.014.128-1.37.325-2.577.586-3.625zm91.677 40.538c0-3.656-.492-7.146-1.472-10.48-.983-3.328-2.424-6.23-4.32-8.712-1.902-2.48-4.319-4.471-7.266-5.97-2.943-1.5-6.446-2.255-10.501-2.255-7.985 0-14.102 2.418-18.357 7.247-4.252 4.83-6.836 11.553-7.755 20.17zm48.892-41.318c1.438 0 2.876.068 4.32.196 1.438.132 2.747.328 3.927.585.39 1.958.783 4.542 1.176 7.735.39 3.202.59 5.908.59 8.13 2.747-4.437 6.381-8.293 10.895-11.556 4.516-3.26 10.304-4.894 17.374-4.894 1.044 0 2.125.03 3.238.098 1.108.068 2.064.166 2.848.29.257 1.178.457 2.423.586 3.724.133 1.306.197 2.676.197 4.113 0 1.566-.098 3.2-.291 4.893a98.13 98.13 0 0 1-.689 4.894 13.581 13.581 0 0 0-3.241-.389h-2.648c-3.533 0-6.904.49-10.112 1.468-3.21.981-6.086 2.709-8.64 5.188-2.55 2.482-4.58 5.878-6.082 10.186-1.506 4.306-2.259 9.855-2.259 16.64v49.933c-1.44.257-3.044.453-4.81.585a66.7 66.7 0 0 1-4.806.197c-1.444 0-3.045-.068-4.811-.197a57.506 57.506 0 0 1-5.008-.585V86.157a54.72 54.72 0 0 1 4.123-.585 42.25 42.25 0 0 1 4.123-.196zM312.69 0c1.841.003 3.652.159 5.412.453v18.973l13.45-13.416a32.697 32.697 0 0 1 7.684 7.663l-13.45 13.416h19.021c.295 1.755.451 3.555.451 5.394v.044c0 1.84-.155 3.643-.45 5.398h-19.026l13.454 13.413a33 33 0 0 1-3.519 4.153 32.96 32.96 0 0 1-4.16 3.51l-13.455-13.416v18.972a33.18 33.18 0 0 1-5.408.454h-.048a33.166 33.166 0 0 1-5.405-.454V45.585L293.791 59a32.69 32.69 0 0 1-7.684-7.663l13.451-13.413h-19.022a32.33 32.33 0 0 1-.454-5.408v-.023c0-.519.036-1.173.087-1.846l.037-.45c.134-1.575.33-3.109.33-3.109h19.022l-13.451-13.416a32.146 32.146 0 0 1 3.516-4.146 32.527 32.527 0 0 1 4.168-3.517l13.45 13.416V.453c1.76-.294 3.568-.45 5.412-.453zm-.003 24.38h-.03c-2.422 0-4.74.443-6.884 1.248a19.518 19.518 0 0 0-1.25 6.862v.03a19.441 19.441 0 0 0 1.254 6.862 19.504 19.504 0 0 0 6.88 1.248h.03c2.421 0 4.74-.443 6.88-1.248a19.386 19.386 0 0 0 1.251-6.861v-.03c0-2.416-.444-4.729-1.25-6.863a19.506 19.506 0 0 0-6.88-1.248z"/>
</svg>
