<svg xmlns="http://www.w3.org/2000/svg" viewBox="0 0 512 111.689">
  <path fill="#323f48" d="M117.26 31.03c21.8.004 38.344 16.868 38.346 38.822 0 2.388-.157 5.092-.475 6.363h-56.48c1.91 10.662 10.025 18.297 21.797 18.297 7.638 0 14.15-3.344 18.614-7.957l10.023 13.205c-5.727 6.678-16.548 11.93-29.43 11.93-23.705 0-40.889-18.13-40.892-40.252 0-22.275 16.546-40.409 38.498-40.409zM452.184 0v41.522c5.564-6.524 13.362-10.503 23.223-10.503 20.208.007 36.596 16.553 36.594 40.258 0 23.07-15.43 40.409-36.594 40.409-10.018 0-17.812-3.66-23.223-9.865v7.634h-19.41V0zm-84.006 33.259v41.198c0 11.133 6.52 18.614 16.228 18.614 9.706 0 16.227-7.48 16.227-18.614V33.26h19.407v42.645c0 21.326-14.162 35.488-35.64 35.488-21.48 0-35.642-14.17-35.642-35.488V33.259zM77.645 7.49v18.612L25.618 90.688h53.128v18.77H.006v-18.77H0l51.864-64.585H1.114V7.49zm189.18-.007v40.56h48.517V7.483h20.046v101.974h-20.046V66.66h-48.516v42.798h-19.894V7.484zm-66.441 23.439.619.005c20.535.28 34.03 14.367 34.03 35.478v42.646h-18.871V67.836c0-11.138-6.343-18.614-15.777-18.614-9.436 0-15.782 7.48-15.782 18.614v41.216h-18.872V66.406c0-21.312 13.77-35.482 34.66-35.482zm272.003 18.396c-11.61 0-20.204 9.869-20.204 22.116 0 12.25 8.592 21.956 20.204 21.956 11.773 0 20.205-9.704 20.205-21.956 0-12.25-8.432-22.116-20.205-22.116zm-354.8-1.746c-9.708 0-16.382 6.683-18.613 16.386h36.75c-2.225-10.82-9.066-16.386-18.136-16.386z"/>
</svg>
