<svg xmlns="http://www.w3.org/2000/svg" viewBox="0 0 256.001 160.025">
  <path fill="#26cdaf" d="m82.425 0-46.13 79.9L59.1 119.287 127.937.056zm92.456.113L150.873.084 70.591 139.135l12.03 20.777 92.456.113 46.13-79.899zM11.957 91.29C5.354 91.29 0 85.978 0 79.425c0-6.55 5.354-11.861 11.957-11.861 6.603 0 11.957 5.31 11.957 11.862 0 6.551-5.354 11.862-11.957 11.862zm232.087 0c-6.603 0-11.957-5.312-11.957-11.864 0-6.55 5.354-11.861 11.957-11.861 6.603 0 11.957 5.31 11.957 11.862 0 6.551-5.354 11.862-11.957 11.862z"/>
</svg>
