<svg xmlns="http://www.w3.org/2000/svg" viewBox="0 0 256 256">
  <defs>
    <radialGradient id="a" cx="128" cy="128" r="128" fx="128" fy="128" gradientUnits="userSpaceOnUse">
      <stop offset="0%" stop-color="#DC001F"/>
      <stop offset="64.215%" stop-color="#D5001D"/>
      <stop offset="82.382%" stop-color="#AE0017"/>
      <stop offset="100%" stop-color="#590E0A"/>
    </radialGradient>
    <linearGradient id="b" x1="83.385" x2="83.496" y1="125.352" y2="11.024" gradientTransform="scale(1.52688 .65493)" gradientUnits="userSpaceOnUse">
      <stop offset="0%" stop-color="#D4001C"/>
      <stop offset="53.134%" stop-color="#EC8A6C"/>
      <stop offset="88.757%" stop-color="#FCEFE7"/>
      <stop offset="100%" stop-color="#FDF7F1"/>
    </linearGradient>
  </defs>
  <path fill="url(#a)" d="M0 128c0 70.7 57.3 128 128 128s128-57.3 128-128S198.7 0 128 0 0 57.3 0 128z" style="fill:url(#a)"/>
  <path fill="url(#b)" d="M41.864 60.336c0 28.611 38.35 20.78 85.634 20.78 47.285 0 85.635 7.831 85.635-20.78 0-28.512-38.35-51.702-85.635-51.702-47.285-.1-85.634 23.09-85.634 51.702z" style="fill:url(#b)"/>
  <path fill="#fff" d="M89.55 201.688c-.201-.301 29.214-32.728 63.648-66.56 34.134-33.832 63.147-63.75 63.247-63.75-1.104-23.49-18.371-34.835-33.932-36.743-9.838-2.008-82.623-4.618-123.984 1.807-7.724.93-15.447 1.948-23.25 3.21-.304.05-3.365 3.234-6.09 6.524-2.795 3.374-5.25 6.854-4.996 6.818a753.552 753.552 0 0 1 71.021-6.616 736.201 736.201 0 0 1 72.943.304c.502.402-27.206 31.122-61.34 64.553-33.932 33.33-64.652 64.15-67.664 67.764-.2 24.496 20.58 33.933 31.724 36.141 51.702 5.02 103.9 3.224 155.603-5.109 0 0 4.59-5.17 5.144-6.118.555-.948 4.53-6.898 4.403-6.88-49.594 7.07-99.158 9.264-148.184 6.562 1.074-.9 1.104-1.204 1.707-1.907z"/>
</svg>
