<svg xmlns="http://www.w3.org/2000/svg" viewBox="0 0 48 48" width="48px" height="48px"><path fill="#FF5722" d="M6,10c0-2.209,1.791-4,4-4h28c2.209,0,4,1.791,4,4v28c0,2.209-1.791,4-4,4H10c-2.209,0-4-1.791-4-4V10z"/><path fill="#1C0802" d="M9,9v30h30V9H9z M23.691,31l-0.762-2.91h-3.916L18.252,31h-3.037l4.443-14.219h2.627L26.758,31H23.691z M30.85,31h-2.773V20.434h2.773V31z M30.552,18.754c-0.271,0.28-0.636,0.42-1.099,0.42s-0.828-0.14-1.099-0.42s-0.405-0.632-0.405-1.055c0-0.43,0.137-0.781,0.41-1.055s0.639-0.41,1.094-0.41s0.82,0.137,1.094,0.41s0.41,0.625,0.41,1.055C30.957,18.122,30.822,18.474,30.552,18.754z"/><path fill="#1C0802" d="M19.639 25.697L22.295 25.697 20.967 20.629z"/></svg>