<svg xmlns="http://www.w3.org/2000/svg" viewBox="0 0 299.81 249.75"><defs><style>.cls-1{fill:#373c41;}</style></defs><title>alibaba-cloud</title><path class="cls-1" d="M123,177.91l-65.6-14.26a13.89,13.89,0,0,1-10.74-12.94c0-.19,0-70.48,0-70.66A13.87,13.87,0,0,1,57.41,67.11L123,52.84,130,25H53.6A48.67,48.67,0,0,0,4.93,73.49v83.77A48.67,48.67,0,0,0,53.6,205.72H130Z" transform="translate(0 -25.03)"/><path class="cls-1" d="M178.83,177.91l65.59-14.26a13.9,13.9,0,0,0,10.74-12.94c0-.19,0-70.48,0-70.66a13.88,13.88,0,0,0-10.74-12.94L178.83,52.84l-7-27.81h76.44a48.66,48.66,0,0,1,48.66,48.46v83.77a48.66,48.66,0,0,1-48.66,48.46H171.79Z" transform="translate(0 -25.03)"/><rect class="cls-1" x="123" y="86.86" width="55.83" height="6.96"/><path class="cls-1" d="M238.75,274.79h-4a9.09,9.09,0,0,1-9.08-9.08V254a9.09,9.09,0,0,1,9.08-9.08h4a9.09,9.09,0,0,1,9.08,9.08v11.73a9.09,9.09,0,0,1-9.08,9.08m-4-24.69a3.88,3.88,0,0,0-3.87,3.88v11.73a3.87,3.87,0,0,0,3.87,3.87h4a3.87,3.87,0,0,0,3.87-3.87V254a3.88,3.88,0,0,0-3.87-3.88Z" transform="translate(0 -25.03)"/><rect class="cls-1" x="39" y="209.98" width="5.2" height="39.09"/><rect class="cls-1" x="50.3" y="220.54" width="5.21" height="28.53"/><path class="cls-1" d="M52.9,235a3.49,3.49,0,1,0,3.5,3.49A3.49,3.49,0,0,0,52.9,235" transform="translate(0 -25.03)"/><path class="cls-1" d="M20.34,235H14c-2.4,4.24-8.12,15.88-14,39.09H5.42q1.38-5.31,2.71-9.78h19c.88,3,1.79,6.24,2.7,9.78h5.42c-5.88-23.21-11.6-34.85-14-39.09ZM9.77,259.08a141.09,141.09,0,0,1,7.36-18.73h1a137.44,137.44,0,0,1,7.36,18.73Z" transform="translate(0 -25.03)"/><rect class="cls-1" x="215.66" y="209.94" width="5.2" height="39.13"/><rect class="cls-1" x="61.6" y="209.98" width="5.2" height="39.09"/><path class="cls-1" d="M73.52,274.79a44.8,44.8,0,0,1-9.68-1.25l1.22-5.05c8.1,1.95,11.85.88,12.88.07s1.12-2.2,1.12-3.79v-8.85h5.21v8.84c0,1.76,0,5.43-3.1,7.87-1.82,1.44-4.35,2.16-7.65,2.16" transform="translate(0 -25.03)"/><path class="cls-1" d="M84.27,263.31H79.06v-8.84c0-1.5-.06-2.71-1-3.42s-3.62-1.89-12.23.19l-1.23-5.06c8.08-2,13.54-1.69,16.68.79,3,2.33,3,5.83,3,7.51Z" transform="translate(0 -25.03)"/><path class="cls-1" d="M209.43,267.85a30.93,30.93,0,0,1-16.74,1c-3.32-.83-3.56-3.4-3.57-3.88V244.75c0-.47.25-3.05,3.57-3.87A30.82,30.82,0,0,1,209.57,242l1.28-5.07A35.15,35.15,0,0,0,199.06,235a32.18,32.18,0,0,0-7.62.85,9.46,9.46,0,0,0-7.53,8.94V265a9.47,9.47,0,0,0,7.53,8.94,32.71,32.71,0,0,0,7.62.85,35.69,35.69,0,0,0,11.66-1.86Z" transform="translate(0 -25.03)"/><rect class="cls-1" x="268.67" y="220.54" width="5.21" height="28.53"/><path class="cls-1" d="M262.89,274.79c-3.3,0-5.82-.72-7.64-2.16-3.12-2.44-3.1-6.11-3.1-7.87V245.54h5.2v19.23c0,1.58.08,3,1.12,3.79s4,1.88,12.08-.07l1.23,5.05a38.5,38.5,0,0,1-8.89,1.25" transform="translate(0 -25.03)"/><rect class="cls-1" x="294.61" y="209.98" width="5.2" height="39.09"/><path class="cls-1" d="M288.94,274.79c-3.3,0-5.83-.72-7.64-2.15-3.12-2.45-3.11-6.12-3.1-7.88v-8.84h5.2v8.85c0,1.58.08,3,1.12,3.79s4,1.88,12.09-.07l1.22,5.05a38.5,38.5,0,0,1-8.89,1.25" transform="translate(0 -25.03)"/><path class="cls-1" d="M283.4,263.32h-5.2v-8.84c0-1.68,0-5.17,2.95-7.51,3.14-2.48,8.6-2.74,16.68-.79l-1.22,5.06c-8.62-2.08-11.43-.82-12.24-.19s-1,1.92-1,3.42Z" transform="translate(0 -25.03)"/><path class="cls-1" d="M107.35,246.76c-5.14-3.67-14.76-.94-17.09-.19l1.28,5.06c3-1,10.11-2.54,12.78-.63a2.72,2.72,0,0,1,1,2.53v20.58h5.2V253.53a7.9,7.9,0,0,0-3.21-6.77" transform="translate(0 -25.03)"/><path class="cls-1" d="M97.9,274.79c-5.29,0-8.84-2.48-9.76-6.8a8.62,8.62,0,0,1,1.13-6.79c1.43-2.1,3.85-3.45,7.2-4a26,26,0,0,1,12,.75l-1.73,4.91a21,21,0,0,0-9.39-.53c-1.3.21-3,.7-3.75,1.81a3.64,3.64,0,0,0-.33,2.77c.15.74.56,2.67,4.66,2.67a39.46,39.46,0,0,0,8.68-1l1.68,4.92a42.69,42.69,0,0,1-10.36,1.31" transform="translate(0 -25.03)"/><path class="cls-1" d="M162.4,246.76c-5.14-3.67-14.76-.94-17.08-.19l1.27,5.06c3-1,10.12-2.54,12.78-.63a2.7,2.7,0,0,1,1,2.53v20.58h5.21V253.53a7.9,7.9,0,0,0-3.22-6.77" transform="translate(0 -25.03)"/><path class="cls-1" d="M153,274.79c-5.29,0-8.84-2.48-9.75-6.8a8.58,8.58,0,0,1,1.12-6.79c1.44-2.1,3.86-3.45,7.2-4a26,26,0,0,1,12,.75l-1.73,4.91a21,21,0,0,0-9.39-.53c-1.3.21-3,.7-3.75,1.81a3.64,3.64,0,0,0-.33,2.77c.15.74.56,2.67,4.66,2.67a39.46,39.46,0,0,0,8.68-1l1.68,4.92A42.63,42.63,0,0,1,153,274.79" transform="translate(0 -25.03)"/><rect class="cls-1" x="116.66" y="209.98" width="5.2" height="39.09"/><path class="cls-1" d="M128.58,274.79a45,45,0,0,1-9.69-1.25l1.23-5.05c8.1,1.95,11.85.88,12.88.07s1.12-2.2,1.12-3.79v-8.85h5.2v8.84c0,1.76,0,5.43-3.1,7.87-1.81,1.44-4.34,2.16-7.64,2.16" transform="translate(0 -25.03)"/><path class="cls-1" d="M139.32,263.31h-5.2v-8.84c0-1.5-.07-2.71-1-3.42s-3.62-1.89-12.24.19l-1.22-5.06c8.08-2,13.54-1.69,16.68.79,3,2.33,2.95,5.83,2.95,7.51Z" transform="translate(0 -25.03)"/></svg>