<?xml version="1.0" encoding="UTF-8" standalone="no"?>
<svg
   xmlns="http://www.w3.org/2000/svg"
   xmlns:xlink="http://www.w3.org/1999/xlink"
   preserveAspectRatio="xMidYMid"
   viewBox="0 0 26.458 26.458"
   version="1.1"
   height="100px"
   width="100px">
  <path
     d="M 2.6457804,2.7189e-4 H 23.812569 c 1.481685,0 2.645773,1.16418831 2.645773,2.64577351 V 23.812834 c 0,1.481685 -1.164188,2.645773 -2.645773,2.645773 H 2.6457804 C 1.1640952,26.458607 6.888e-6,25.294419 6.888e-6,23.812834 V 2.6460454 C 6.888e-6,1.1643602 1.1641952,2.7189e-4 2.6457804,2.7189e-4 Z" fill="#25344c" />
  <path
     d="m 4.7627593,9.1541804 h 1.693283 L 8.9960169,16.350808 H 7.3556333 L 6.8793881,14.869123 H 4.2336146 L 3.7573693,16.350808 H 2.1698852 Z m -0.105839,4.4978546 h 1.8520815 l -0.899571,-2.857471 z" fill="#ffffff" />
  <path
     d="m 11.006697,14.128131 c 0.05292,0.317496 0.158738,0.582074 0.264577,0.740822 0.264578,0.317497 0.687913,0.423326 1.269987,0.423326 0.370417,0 0.634994,-0.053 0.899571,-0.105799 0.423326,-0.158798 0.634994,-0.423326 0.634994,-0.846662 0,-0.211657 -0.105839,-0.423325 -0.317497,-0.529164 -0.211668,-0.105799 -0.529164,-0.264608 -1.00539,-0.317527 L 11.959197,13.334389 C 11.218375,13.17559 10.68921,12.963972 10.371713,12.805224 9.8954679,12.487727 9.6308906,11.958562 9.6308906,11.270639 c 0,-0.634993 0.2116679,-1.164188 0.6879134,-1.5874839 0.476245,-0.4233258 1.164188,-0.6349937 2.116679,-0.6349937 0.793742,0 1.428785,0.2116579 1.95788,0.5820742 0.529165,0.3704164 0.846661,1.0053904 0.846661,1.7461824 H 13.811239 C 13.758319,10.953092 13.599571,10.635596 13.229165,10.476847 12.964587,10.371048 12.7,10.318049 12.329594,10.318049 c -0.423326,0 -0.740823,0.053 -0.952491,0.211658 -0.211668,0.158798 -0.370416,0.370416 -0.370416,0.634993 0,0.264608 0.105839,0.423326 0.370416,0.582104 0.158759,0.105799 0.476245,0.158799 0.952491,0.317497 l 1.269987,0.317497 c 0.529165,0.105799 0.95249,0.317497 1.269987,0.529165 0.423326,0.317497 0.634994,0.846661 0.634994,1.481685 0,0.635024 -0.264578,1.217088 -0.740823,1.640384 -0.529164,0.423325 -1.217088,0.634993 -2.169578,0.634993 -0.952491,0 -1.693283,-0.211658 -2.222478,-0.634993 -0.5291645,-0.423326 -0.7937419,-1.00539 -0.7937419,-1.746183 h 1.4287859 z" fill="#ffffff" />
  <path
     d="m 21.377593,9.1541804 h 2.169578 v 7.1966276 h -1.428785 v -6.032439 l -1.375787,6.032439 h -1.481685 l -1.375786,-6.032439 v 6.032439 H 16.456342 V 9.1541804 h 2.169579 l 1.481685,5.6620436 z" fill="#ffffff" />
</svg>
