<?xml version="1.0" encoding="UTF-8"?>
<svg width="205.18mm" height="205.18mm" version="1.1" viewBox="0 0 205.18 205.18" xmlns="http://www.w3.org/2000/svg" xmlns:cc="http://creativecommons.org/ns#" xmlns:dc="http://purl.org/dc/elements/1.1/" xmlns:rdf="http://www.w3.org/1999/02/22-rdf-syntax-ns#">
 <metadata>
  <rdf:RDF>
   <cc:Work rdf:about="">
    <dc:format>image/svg+xml</dc:format>
    <dc:type rdf:resource="http://purl.org/dc/dcmitype/StillImage"/>
    <dc:title/>
   </cc:Work>
  </rdf:RDF>
 </metadata>
 <g transform="translate(-8.3079 -102.76)">
  <g transform="matrix(.26458 0 0 .26458 12.832 52.754)">
   <g fill="#ff5f4c">
    <path d="m-17 512.44v-17.3h5.7c17.3 0 34.7-0.3 52 0.1 20.9 0.4 39.6 7 54.5 22.1 11.1 11.1 16.8 25 19.4 40.3 3.4 19.6 2.5 38.9-5.9 57.2-11.5 25.2-32.1 39.1-59.3 41.3-21.5 1.7-43.3 0.8-64.9 1-0.5 0-0.9-0.3-1.6-0.5v-121.2c5.6 0 11.2-0.2 16.7 0.2 0.8 0.1 2.1 2.6 2.2 4 0.3 6.6 0.2 13.5 0.2 20.3 0 24.7 0.1 49.3-0.1 74 0 4.9 1.6 6.3 6.3 6.2 12.8-0.5 25.7 0.1 38.4-1.1 25.5-2.3 40.5-17.6 47.3-41.5 5-17.7 4.2-35.4-3.1-52.4-9.1-21.4-26.6-31.5-49.1-32.6-17.6-0.9-35.3-0.2-53-0.2-1.7 0.1-3.5 0.1-5.7 0.1z"/>
    <path d="m741.8 527.34c-17.7-14.3-37.5-18.7-59-14.7-16.8 3.1-25.1 15.9-21.6 32.2 1.4 6.4 5.3 11.1 11.2 13.1 10.8 3.8 21.9 6.6 32.8 10.1 10.7 3.4 21.7 6.3 32 10.9 13.2 5.8 20.3 16.8 21.1 31.4 0.9 16.8-4.8 30.3-19.5 39.4-8.3 5.1-17.4 7.6-26.9 8.4-26.9 2.2-52-2.7-74.1-19.4-1-0.8-2-1.7-3.3-2.9 2.9-5.2 5.7-10.2 8.3-14.9 7.5 4.4 14.5 9.3 22.1 12.7 17.2 7.8 35.2 10.1 53.6 5.2 14.6-3.9 21.3-14.5 18.3-28.4-1.6-7.8-6.9-13.3-14-15.8-12.8-4.6-26-8-38.9-12.2-8.5-2.8-17.2-5.3-25.2-9.2-14.3-7.1-19.9-19.2-18.1-34.1 3.1-26.1 16-39.4 42-43.8 22.1-3.7 43.1-0.3 62.1 12.3 6.3 4.2 6.4 4.2 2.8 10.6-1.5 2.6-3 5.2-4.5 7.8-0.4 0.5-0.8 0.8-1.2 1.3z"/>
    <path d="m592.1 495.04c0.1 2.3 0.3 3.9 0.3 5.5 0 31 0.2 62-0.3 92.9-0.2 13.6-1.4 27.3-7.1 40-7.2 16.2-20.4 24.2-37.5 25.7-12 1-23.9 0.3-35.3-4.5-9.1-3.8-9.4-4-6.5-13.4 0.7-2.2 1.5-4.2 2.5-6.8 10.1 5.7 20.5 7.8 31.6 7.5 15.4-0.5 25.1-7 28.8-21.8 2.4-9.6 3.9-19.6 4-29.5 0.5-29.8 0.3-59.6 0.2-89.5 0-4.6 1.1-6.8 6.1-6.3 4.2 0.6 8.3 0.2 13.2 0.2z"/>
    <path d="m437.1 495.14c-10.4 17.4-20.2 33.8-30 50.2-9.7 16.3-19.6 32.5-29.1 48.9-1.5 2.6-2.4 5.9-2.4 8.9-0.2 16.2-0.2 32.3 0 48.5 0 4.1-1.2 5.7-5.4 5.5-4.6-0.3-9.2-0.1-14.3-0.1v-11.6c0-8.7 0.6-17.4-0.1-26-1.3-14.4 2.6-26.8 10.1-39.1 16.6-27.1 32.3-54.8 48.4-82.2 0.8-1.3 2.6-2.9 4-2.9 5.8-0.3 11.8-0.1 18.8-0.1z"/>
    <path d="m198.9 609.44c0-1.5-0.1-1.9 0-2.2 4-13.2 4-13.2 18-13.2 8.7 0 17.3-0.1 26-0.1 0.3 0 0.6-0.3 1.5-0.7-0.6-1.9-1.2-3.9-1.9-5.9-5.5-13.9-11.1-27.8-16.3-41.8-1-2.7-0.9-6.2-0.1-9 1.6-5.7 4-11.2 6.6-18 19.1 46.7 37.7 92.2 56.6 138.4-6.6 0-12.6 0.3-18.5-0.2-1.5-0.1-3.3-2.5-4-4.2-5-11.8-10-23.6-14.3-35.6-2.1-5.7-4.8-7.9-11.1-7.6-12.3 0.6-24.7 0.2-37 0.2-1.7-0.1-3.5-0.1-5.5-0.1z"/>
    <path d="m223.1 495.14c-5.4 14.3-10.4 27.6-15.6 40.9-15.1 38.6-30.3 77.1-45.2 115.8-1.6 4.2-3.8 5.7-8.1 5.4s-8.6-0.1-13.8-0.1c2.7-6.9 5.2-13.1 7.7-19.3 18.8-45.8 37.7-91.7 56.3-137.6 1.6-3.8 3.3-5.6 7.5-5.2 3.4 0.4 6.7 0.1 11.2 0.1z"/>
    <path d="m344.3 578.44c-16.8-28.1-33-55.2-49.7-83.3 7.1 0 13.2-0.2 19.3 0.1 1.3 0.1 2.9 1.5 3.6 2.7 11.7 20.1 23.4 40.3 34.8 60.6 0.9 1.5 0.9 4.2 0.1 5.8-2.1 4.5-4.9 8.7-8.1 14.1z"/>
    <path d="m452.8 644.54v-1.5c0-11.5 1.2-12.6 12.7-10.6 1.1 0.2 2.8 2 2.8 3 0.3 6.1 0.2 12.3 0 18.5 0 1-1.5 2.8-2.5 2.9-3.5 0.4-7 0.4-10.4 0-1-0.1-2.3-2.1-2.5-3.3-0.4-3-0.1-6.1-0.1-9z"/>
   </g>
  </g>
 </g>
 <style type="text/css">.st0{fill:#FFFFFF;}</style>
</svg>
