<svg xmlns="http://www.w3.org/2000/svg" viewBox="0 0 48 48" width="48px" height="48px"><path fill="#d32f2f" d="M24 4A20 20 0 1 0 24 44A20 20 0 1 0 24 4Z"/><path fill="#fefdfd" d="M15.775 19.127l-1.39-5.861-3.231 3.2L13.84 21.5C14.357 20.611 15.011 19.813 15.775 19.127zM19.65 16.949l1.325-7.288c-.172.064-5.105 2.005-5.105 2.005l.683 6.829C17.475 17.822 18.514 17.289 19.65 16.949zM22.75 16.5c.447 0 .898.042 1.349.103l4.771-7.592L23 9l-2.444 7.725C21.262 16.58 21.994 16.5 22.75 16.5zM28.307 18.073L37 11.133 30.808 9l-5.887 7.741C26.126 16.998 27.289 17.459 28.307 18.073zM13.427 22.298l-2.822-3.911L9 21.949l3.647 2.888C12.795 23.942 13.059 23.091 13.427 22.298zM13.86 31.404L11 31.805l1.489 1.845 2.301-.947C14.446 32.29 14.13 31.86 13.86 31.404zM12.876 29.092L9.409 28.2l.872 2.624 3.228-.076C13.246 30.215 13.037 29.661 12.876 29.092zM12.5 26.5c0-.176.017-.347.026-.52l-3.257-2.324L9 26.824l3.685 1.483C12.57 27.714 12.5 27.111 12.5 26.5z"/><path fill="#fefdfd" d="M15.97,33.923l0.311,0.24l0.052,0.038c0.003-0.005,0.006-0.013,0.009-0.018 c0.199-0.416,0.807-1.682,4.033-1.682c0.803,0,1.429,0.102,1.923,0.226l1.127-0.269l-2.031-4.266l-1.103,0.236l-0.665-1.496 l10.692-7.196l-0.035-0.047l-0.219-0.253c-1.739-1.783-4.611-2.935-7.315-2.935c-5.748,0-10.25,4.393-10.25,10 C12.5,29.315,13.757,32.014,15.97,33.923z"/><path fill="#ff8d69" d="M13,26.5c0-5.327,4.283-9.5,9.75-9.5c2.591,0,5.333,1.118,6.958,2.784l0.197,0.23l0.832-0.56 C29.039,17.479,25.901,16,22.75,16C16.675,16,12,20.701,12,26.5c0,3.288,1.585,6.221,4.064,8.146l0.04,0.034 c0.092-0.195,0.175-0.369,0.238-0.498c0.048-0.099,0.12-0.248,0.244-0.415l-0.311-0.24C14.187,31.725,13,29.191,13,26.5z"/><path fill="#ff8d69" d="M17.25,31.375C15.875,30.25,15,28.5,15,26.5c0-4.206,3.404-8,7.75-8c0.082,0,0.167-0.003,0.25,0 L22,18c-4.542,0.358-8,3.98-8,8.5c0,2.018,0.773,3.973,2.146,5.5L17.25,31.375z"/><path fill="#e74743" d="M23.501,32.615C23.059,32.4,22.022,32,20.375,32c-2.444,0-3.693,0.919-4.092,1.283 c-0.094,0.086-0.165,0.189-0.219,0.304L14,38c0,0,2.469-1,4.625-1c3.333,0,4.875,1,4.875,1l1.462-2.315L23.501,32.615z"/><path fill="#ff8d69" d="M22,33.375C21.625,33.125,20.974,33,20.14,33c-2.094,0-3.115,0.936-3.281,1.282 c-0.073,0.152-0.242,0.479-0.355,0.718c0,0,1.497-1,2.997-1.375C20.347,33.413,21.125,33.375,22,33.375z"/><path fill="#fefdfd" d="M19.627,26.931l0.665,1.496L33.39,25.62l-1.702-6.807L19.627,26.931z"/><path fill="#ff8d69" d="M31.376,19.626l1.403,5.613l-12.195,2.613l-0.329-0.741L31.376,19.626 M32,18l-13,8.75L20,29l14-3 L32,18L32,18z"/><path fill="#fefdfd" d="M21.543,28.503l5.647,11.865c0.85-0.354,2.772-1.307,3.281-2.843 c-0.292-0.718-1.596-3.758-3.304-5.276c-0.443-0.393-0.75-0.619-1.031-0.825c-0.423-0.311-0.823-0.605-1.503-1.333 C23.384,28.751,22.481,28.534,21.543,28.503z"/><path fill="#ff8d69" d="M22.39,29.119c0.533,0.155,1.127,0.508,1.879,1.313c0.711,0.762,1.129,1.069,1.572,1.394 c0.281,0.206,0.571,0.42,0.995,0.796c1.513,1.345,2.712,3.991,3.098,4.91c-0.424,0.992-1.604,1.751-2.5,2.183L22.39,29.119 M21.205,27.998c-0.151,0-0.302,0.002-0.455,0.002l6.188,13c0,0,3.438-1.125,4.063-3.5c0,0-1.449-3.802-3.5-5.625 c-1.125-1-1.408-0.955-2.5-2.125C23.456,28.096,22.337,27.998,21.205,27.998L21.205,27.998z"/></svg>