<?xml version="1.0"?>
<svg width="132.69" height="132.69" viewBox="0 0 132.69 132.69" xmlns="http://www.w3.org/2000/svg">
 <g transform="translate(-.27435 -.26062)" fill-rule="evenodd">
  <path d="m121.13 85.381v-41.925c0-5.452-2.8875-10.496-7.5878-13.258-10.088-5.9269-27.91-16.398-38.825-22.812-5.7647-3.3854-12.925-3.3093-18.614 0.1989-9.6604 5.9568-24.732 15.25-34.461 21.251-5.8676 3.618-9.441 10.017-9.441 16.91v42.926c0 6.8374 3.6282 13.16 9.5301 16.611l35.912 20.992c4.7736 2.7915 10.669 2.8522 15.501 0.16118 10.487-5.8422 29.06-16.185 39.76-22.145 5.0754-2.8292 8.2201-8.1824 8.2201-13.992v-4.9177z" fill="#ff4088"/>
  <path d="m65.626 0.27079h0.09499l0.0847 0.001029h0.48491l0.0847 0.003429h0.01029l0.0847 0.003429h0.0093l0.08573 0.003429h0.0069l0.08573 0.003429h0.01029l0.0823 0.003429h0.01029l0.0823 0.003429h0.0069l0.08573 0.003429h0.01029l0.08573 0.006859h0.01029l0.0823 0.006859h0.0069l0.0823 0.006859h0.01029l0.08573 0.006859h0.0069l0.0823 0.006859h0.01029l0.08573 0.006859h0.01029l0.08573 0.006859h0.01029l0.08573 0.006859h0.01029l0.0823 0.006859h0.01029l0.0823 0.006859h0.01029l0.08573 0.006859h0.01029l0.08573 0.010288h0.01029l0.08573 0.010288h0.0069l0.0823 0.010288h0.01029l0.0823 0.010288h0.01029l0.08573 0.010288h0.01029l0.08573 0.010288h0.0069l0.0823 0.010288h0.01029l0.08573 0.010288h0.01029l0.0823 0.013717 0.01029 0.003429 0.08573 0.013717h0.01029l0.0823 0.013717h0.0069l0.08573 0.013717h0.01029l0.0823 0.013717h0.01029l0.0823 0.013717h0.0069l0.08573 0.013717h0.01029l0.0823 0.013717 0.01029 0.003429 0.0823 0.013717 0.01029 0.003429 0.0823 0.017147h0.01029l0.0823 0.013717h0.01029l0.0823 0.017147h0.01029l0.08573 0.017147h0.0069l0.0823 0.017147h0.01029l0.0823 0.017147h0.0069l0.08573 0.017147 0.01029 0.003429 0.08573 0.017147h0.0069l0.08231 0.020576 0.01029 0.003429 0.0823 0.020576h0.01029l0.08573 0.020576 0.0069 0.003429 0.0823 0.017147 0.01029 0.003429 0.0823 0.017147 0.0069 0.003429 0.0823 0.020576h0.01029l0.0823 0.020576 0.01029 0.003429 0.0823 0.020576 0.0069 0.003429 0.08573 0.020576 0.0069 0.003429 0.0823 0.020576 0.01029 0.003429 0.0823 0.020576h0.0069l0.08231 0.024005h0.01029l0.08573 0.020576 0.01029 0.00343 0.0823 0.020576h0.01029l0.0823 0.024005 0.01029 0.00343 0.0823 0.024005 0.01029 0.00343 0.0823 0.024005 0.01029 0.00343 0.08231 0.024005 0.0069 0.00343 0.0823 0.024005 0.01029 0.00343 0.0823 0.024005 0.01029 0.00343 0.0823 0.024005 0.01029 0.00343 0.0823 0.027435 0.0069 0.00343 0.0823 0.027435h0.01029l0.0823 0.027435h0.01029l0.26748 0.089165 0.0069 0.00343 0.1749 0.0583 0.0069 0.00343 0.0823 0.027435 0.0069 0.00343 0.07888 0.027435 0.01029 0.00343 0.07888 0.027435 0.01029 0.00343 0.07888 0.030864 0.01029 0.00343 0.0823 0.030864 0.01029 0.00343 0.07887 0.030864 0.0069 0.00343 0.0823 0.027435 0.0069 0.00343 0.08231 0.030864 0.01029 0.00343 0.0823 0.030864 0.01029 0.00343 0.07887 0.030864 0.01029 0.00343 0.07887 0.034293 0.0069 0.00343 0.0823 0.030864 0.01029 0.00343 0.07887 0.034293 0.01029 0.00343 0.0823 0.034293 0.01029 0.00343 0.0823 0.034293 0.0069 0.00343 0.0823 0.034293 0.0069 0.00343 0.07888 0.034293 0.0069 0.00343 0.07887 0.034293 0.0069 0.00343 0.0823 0.034293 0.0069 0.00343 0.07887 0.034293 0.01029 0.00343 0.07887 0.034293 0.01029 0.00343 0.07887 0.034293 0.0069 0.00343 0.07887 0.037723 0.01029 0.00343 0.07887 0.037723 0.01029 0.00343 0.07887 0.037723 0.0069 0.00343 0.07888 0.037723 0.0069 0.00343 0.07887 0.037723 0.01029 0.00343 0.07887 0.037723 0.01029 0.00343 0.07887 0.037723 0.01029 0.00343 0.07887 0.037723 0.0069 0.00343 0.07887 0.041152 0.0069 0.00686 0.07887 0.037723 0.0069 0.00343 0.07545 0.041152 0.01029 0.00343 0.07887 0.037723 0.0069 0.00343 0.07887 0.041152 0.01029 0.00343 0.07545 0.041152 0.01029 0.00686 0.07887 0.041152 0.01029 0.00343 0.07887 0.041152 0.0069 0.00343 0.07545 0.041152 0.01029 0.00686 0.07887 0.041152 0.0069 0.00686 0.07545 0.044581 0.0069 0.00686 0.07545 0.044581 0.01029 0.00343 0.07545 0.044581 0.0069 0.00343 0.07545 0.044581 0.0069 0.00686 0.07545 0.044581 0.01029 0.00686 0.07202 0.044581h0.0069l38.854 22.829 0.0652 0.03772 7e-3 0.0069 0.0652 0.03772 0.0103 0.0034 0.0617 0.04115 7e-3 0.0069 0.0617 0.03772 7e-3 0.0069 0.0617 0.03772 7e-3 0.0034 0.0617 0.03772 7e-3 0.0034 0.0617 0.03772 7e-3 0.0034 0.0617 0.03772 0.0103 0.0034 0.0617 0.04115 7e-3 0.0034 0.0617 0.04115 0.0103 0.0034 0.0617 0.03772 7e-3 0.0034 0.0617 0.04115 7e-3 0.0069 0.0617 0.04115 7e-3 0.0069 0.0583 0.03772 0.0103 0.0034 0.0617 0.04115 7e-3 0.0034 0.0617 0.04115 7e-3 0.0034 0.0583 0.04115 7e-3 0.0034 0.0583 0.04115 7e-3 0.0034 0.0583 0.04115 7e-3 0.0069 0.0583 0.04115 7e-3 0.0034 0.0583 0.04458 0.0103 0.0069 0.0583 0.04115 7e-3 0.0034 0.0583 0.04115 7e-3 0.0034 0.0583 0.04115 7e-3 0.0069 0.0583 0.04115 7e-3 0.0034 0.0583 0.04115 7e-3 0.0069 0.0583 0.04115 7e-3 0.0069 0.0583 0.04458 0.0103 0.0069 0.0549 0.04458 0.0103 0.0069 0.0583 0.04458 0.0103 0.0034 0.0583 0.04458 7e-3 0.0069 0.0583 0.04458 7e-3 0.0069 0.0549 0.04458 0.0103 0.0069 0.0583 0.04801 0.0103 0.01029 0.10974 0.08916 0.0137 0.01029 0.10974 0.09259 0.0137 0.01029 0.11317 0.09259 0.0137 0.01029 0.11317 0.09259 0.0137 0.01029 0.10974 0.09259 0.0137 0.01372 0.10974 0.09259 0.0137 0.01029 0.10631 0.09602 0.0137 0.01029 0.10631 0.09602 0.0137 0.01029 0.10631 0.09945 0.0137 0.01029 0.10288 0.09602 0.0137 0.01029 0.10631 0.09945 0.0137 0.01372 0.10288 0.09945 0.0137 0.01372 0.10288 0.09945 0.0137 0.01372 0.0995 0.09945 0.0137 0.01372 0.0994 0.10288 0.0137 0.01372 0.0995 0.10288 0.0103 0.01372 0.0995 0.10288 0.0137 0.01372 0.096 0.10288 0.0137 0.01372 0.096 0.10288 0.0137 0.01372 0.096 0.10288 0.0137 0.01372 0.096 0.10631 0.0137 0.01372 0.0926 0.10974 0.0103 0.01372 0.096 0.10631 0.0137 0.01372 0.0926 0.10974 0.0137 0.01372 0.0926 0.10974 0.0103 0.01372 0.0926 0.10974 0.0137 0.01372 0.0892 0.10974 0.0103 0.01372 0.0892 0.10974 0.0137 0.01372 0.0892 0.11317 0.0103 0.01372 0.0857 0.11317 0.0103 0.01372 0.0857 0.11317 0.0103 0.01372 0.0857 0.11317 0.0103 0.01715 0.0857 0.1166 0.0103 0.01372 0.0857 0.11317 0.0103 0.01715 0.0823 0.1166 0.0103 0.01372 0.0823 0.1166 0.0103 0.01372 0.0823 0.1166 0.0103 0.01715 0.0789 0.1166 0.0103 0.01715 0.0789 0.12003 0.0103 0.01715 0.0755 0.1166 0.0103 0.01372 0.0754 0.1166 0.0103 0.01372 0.0789 0.12003 0.0103 0.01372 0.0754 0.12003 0.0103 0.01715 0.072 0.12003 0.0103 0.01715 0.0755 0.12003 0.0103 0.01715 0.072 0.12003 0.0103 0.01715 0.072 0.12346 0.0103 0.01372 0.0686 0.12346 0.0103 0.01715 0.0686 0.12346 0.0103 0.01715 0.0686 0.12346 0.0103 0.01715 0.0686 0.12346 7e-3 0.01715 0.0686 0.12689 7e-3 0.01715 0.0652 0.12688 7e-3 0.01715 0.0652 0.12688 0.0103 0.01372 0.0617 0.13031 7e-3 0.01715 0.0652 0.12689 7e-3 0.01715 0.0617 0.12689 0.0103 0.01715 0.0583 0.13032 7e-3 0.01715 0.0583 0.13032 7e-3 0.01715 0.0583 0.13032 7e-3 0.01715 0.0583 0.13032 7e-3 0.01715 0.0549 0.13032 7e-3 0.01715 0.0549 0.13032 7e-3 0.01715 0.0514 0.13374 7e-3 0.01715 0.0514 0.13032 7e-3 0.01715 0.0514 0.13374 7e-3 0.01715 0.0514 0.13374 7e-3 0.01715 0.0514 0.13374 7e-3 0.01715 0.048 0.13374 7e-3 0.01715 0.0446 0.13374 7e-3 0.01715 0.0446 0.13374 7e-3 0.01715 0.0446 0.13374 7e-3 0.01715 0.0446 0.13717 3e-3 0.01715 0.0412 0.13374 7e-3 0.01715 0.0412 0.13717 3e-3 0.01715 0.0411 0.13717 7e-3 0.01715 0.0412 0.13717 7e-3 0.01715 0.0377 0.13717 7e-3 0.01715 0.0377 0.13717 3e-3 0.01715 0.0343 0.13717 7e-3 0.02058 0.0377 0.1406 3e-3 0.01715 0.0343 0.1406 7e-3 0.01715 0.0309 0.1406 7e-3 0.01715 0.0343 0.1406 3e-3 0.02058 0.0309 0.1406 3e-3 0.01715 0.0309 0.1406 3e-3 0.01715 0.0274 0.1406 3e-3 0.01715 0.0274 0.1406 3e-3 0.01715 0.0274 0.1406 3e-3 0.01715 0.024 0.14403 3e-3 0.01715 0.024 0.1406 3e-3 0.02058 0.024 0.14403 3e-3 0.02058 0.0206 0.14403 3e-3 0.02058 0.0206 0.1406v0.01372l0.0103 0.07545v0.0069l7e-3 0.07202v0.01029l0.0103 0.07202v0.0069l0.0103 0.07202v0.01029l0.0103 0.07202 3e-3 0.01029 0.0103 0.07202v0.01029l7e-3 0.07202 3e-3 0.0069 7e-3 0.07202 3e-3 0.01029 7e-3 0.07202v0.01029l7e-3 0.07202 3e-3 0.01029 7e-3 0.07202 3e-3 0.01029 7e-3 0.07202v0.01029l7e-3 0.07202v0.01029l7e-3 0.07202v0.01029l7e-3 0.07202v0.01029l7e-3 0.07202v0.01029l3e-3 0.07202v0.01029l3e-3 0.07545v0.01029l7e-3 0.07545v0.0069l3e-3 0.07202v0.01029l3e-3 0.07202v0.01029l3e-3 0.07202v0.01029l3e-3 0.07202v0.01029l3e-3 0.07545v0.01029l3e-3 0.07202v0.01029l3e-3 0.07202v0.0069l3e-3 0.07202v47.873l-3e-3 0.07887v0.09945l-3e-3 0.07888v0.01029l-3e-3 0.07544v0.0069l-3e-3 0.07887v0.01029l-3e-3 0.07545v0.0069l-3e-3 0.07545v0.01029l-3e-3 0.07545-3e-3 0.01029-3e-3 0.07545v0.01029l-3e-3 0.07545v0.0069l-3e-3 0.07887v0.01029l-7e-3 0.07887v0.0069l-7e-3 0.07887v0.01029l-7e-3 0.07545v0.01029l-3e-3 0.07545v0.01029l-7e-3 0.07545v0.01029l-7e-3 0.07545v0.01029l-7e-3 0.07545v0.01029l-7e-3 0.07545-3e-3 0.0069-7e-3 0.07887-3e-3 0.01029-7e-3 0.07545v0.01029l-7e-3 0.07545-3e-3 0.01029-0.0103 0.07545v0.01029l-0.0103 0.07545v0.0069l-0.0103 0.07545v0.01029l-0.0103 0.07545-3e-3 0.01029-0.0103 0.07888-3e-3 0.01029-0.0103 0.07545-3e-3 0.01029-0.0103 0.07545v0.01029l-0.0103 0.07545v0.01029l-0.0103 0.07545-3e-3 0.01029-0.0103 0.07545-3e-3 0.01029-0.0137 0.07545v0.0069l-0.0103 0.07545v0.0069l-0.0137 0.07545-3e-3 0.01029-0.0103 0.07545-3e-3 0.01029-0.0103 0.07545v0.0069l-0.0137 0.07545v0.0069l-0.0137 0.07544v0.0069l-0.0137 0.07545v0.01029l-0.0137 0.07202-3e-3 0.01029-0.0137 0.07202-3e-3 0.01029-0.0137 0.07545-3e-3 0.01029-0.0171 0.07545v0.0069l-0.0172 0.07545v0.0069l-0.0137 0.07202v0.01029l-0.0171 0.07545v0.0069l-0.0137 0.07545-3e-3 0.0069-0.0172 0.07202v0.0069l-0.0171 0.07202v0.01029l-0.0171 0.07202-3e-3 0.01029-0.0172 0.07202-3e-3 0.01029-0.0171 0.07202-3e-3 0.0069-0.0172 0.07202-3e-3 0.0069-0.0172 0.07202-3e-3 0.01029-0.0206 0.07202-3e-3 0.01029-0.0171 0.07202-3e-3 0.01029-0.0206 0.07202v0.01029l-0.0206 0.07545-3e-3 0.01029-0.0206 0.07202v0.01029l-0.0206 0.07202-3e-3 0.01029-0.0206 0.07202-3e-3 0.01029-0.0206 0.07545-3e-3 0.0069-0.0206 0.07202-3e-3 0.0069-0.0206 0.07201-3e-3 0.01029-0.024 0.07202-3e-3 0.01029-0.0206 0.07202-3e-3 0.0069-0.0206 0.07202-3e-3 0.01029-0.0206 0.07202-3e-3 0.0069-0.024 0.07202-3e-3 0.01029-0.024 0.07202-3e-3 0.01029-0.024 0.07202-3e-3 0.01029-0.024 0.07201-3e-3 0.01029-0.024 0.07202-3e-3 0.0069-0.024 0.07202-3e-3 0.01029-0.024 0.07202-3e-3 0.01029-0.024 0.07202-3e-3 0.0069-0.024 0.07202-3e-3 0.01029-0.024 0.07202-3e-3 0.01029-0.0274 0.06859-3e-3 0.01029-0.024 0.06859-3e-3 0.01029-0.024 0.06859-3e-3 0.01029-0.024 0.07202-3e-3 0.01029-0.0274 0.07202-3e-3 0.01029-0.0274 0.06859-3e-3 0.01029-0.0274 0.06859-3e-3 0.01029-0.0274 0.06859-3e-3 0.01029-0.0274 0.06859-3e-3 0.01029-0.0274 0.06859-3e-3 0.01029-0.0274 0.06859-3e-3 0.0069-0.0309 0.06859-3e-3 0.01029-0.0309 0.07202-3e-3 0.01029-0.0274 0.06859-3e-3 0.01029-0.0309 0.06859-3e-3 0.01029-0.0309 0.06859-3e-3 0.01029-0.0309 0.06859-3e-3 0.0069-0.0309 0.06859-3e-3 0.01029-0.0309 0.06859-3e-3 0.0069-0.0309 0.06859-3e-3 0.0069-0.0309 0.06859-3e-3 0.0069-0.0309 0.06859-3e-3 0.0069-0.0343 0.06859-3e-3 0.0069-0.0343 0.06516-3e-3 0.01029-0.0309 0.06859-3e-3 0.0069-0.0343 0.06516-3e-3 0.01029-0.0309 0.06859-3e-3 0.0069-0.0343 0.06859-3e-3 0.01029-0.0343 0.06859-3e-3 0.0069-0.0343 0.06516-3e-3 0.0069-0.0343 0.06859-3e-3 0.01029-0.0343 0.06859-3e-3 0.01029-0.0343 0.06859-7e-3 0.01029-0.0343 0.06516-3e-3 0.0069-0.0343 0.06859-3e-3 0.01029-0.0343 0.06858-3e-3 0.0103-0.0377 0.0652-7e-3 7e-3 -0.0377 0.0651-3e-3 7e-3 -0.0377 0.0652-3e-3 7e-3 -0.0377 0.0652-3e-3 7e-3 -0.0377 0.0652-3e-3 7e-3 -0.0377 0.0652-3e-3 0.0103-0.0377 0.0652-3e-3 7e-3 -0.0377 0.0652-3e-3 0.0103-0.0377 0.0652-7e-3 7e-3 -0.0377 0.0652-7e-3 7e-3 -0.0377 0.0652-3e-3 7e-3 -0.0377 0.0652-3e-3 0.0103-0.0411 0.0652-3e-3 7e-3 -0.0377 0.0617-3e-3 0.0103-0.0377 0.0617-7e-3 7e-3 -0.0412 0.0652-3e-3 0.0103-0.0412 0.0617-7e-3 7e-3 -0.0412 0.0617-3e-3 7e-3 -0.0412 0.0652-7e-3 0.0103-0.0412 0.0617-7e-3 7e-3 -0.0412 0.0617-3e-3 7e-3 -0.0412 0.0652-3e-3 7e-3 -0.0412 0.0617-7e-3 7e-3 -0.0446 0.0617-3e-3 7e-3 -0.0412 0.0617-3e-3 7e-3 -0.0446 0.0617-3e-3 7e-3 -0.0412 0.0617-7e-3 7e-3 -0.0411 0.0617-7e-3 7e-3 -0.0446 0.0617-7e-3 7e-3 -0.0412 0.0617-3e-3 7e-3 -0.0446 0.0617-7e-3 0.0103-0.0412 0.0617-7e-3 7e-3 -0.0446 0.0617-7e-3 7e-3 -0.0446 0.0617-7e-3 7e-3 -0.0446 0.0617-7e-3 7e-3 -0.0446 0.0617-3e-3 7e-3 -0.0446 0.0583-7e-3 7e-3 -0.0446 0.0583-3e-3 7e-3 -0.048 0.0583-7e-3 7e-3 -0.0446 0.0583-3e-3 7e-3 -0.0446 0.0617-7e-3 7e-3 -0.048 0.0617-7e-3 7e-3 -0.048 0.0583-7e-3 7e-3 -0.048 0.0583-3e-3 7e-3 -0.048 0.0583-7e-3 7e-3 -0.048 0.0583-7e-3 7e-3 -0.048 0.0583-7e-3 7e-3 -0.048 0.0583-7e-3 7e-3 -0.048 0.0583-3e-3 7e-3 -0.048 0.0583-7e-3 7e-3 -0.0514 0.0583-7e-3 7e-3 -0.048 0.0583-7e-3 7e-3 -0.048 0.0583-7e-3 7e-3 -0.048 0.0583-7e-3 7e-3 -0.048 0.0583-7e-3 7e-3 -0.048 0.0549-7e-3 7e-3 -0.0514 0.0583-7e-3 7e-3 -0.048 0.0583-7e-3 7e-3 -0.0514 0.0583-7e-3 7e-3 -0.048 0.0583-7e-3 7e-3 -0.0514 0.0549-7e-3 7e-3 -0.0514 0.0549-7e-3 7e-3 -0.0514 0.0549-7e-3 7e-3 -0.0514 0.0549-7e-3 7e-3 -0.0514 0.0549-7e-3 7e-3 -0.0514 0.0549-7e-3 7e-3 -0.0514 0.0549-7e-3 7e-3 -0.0514 0.0549-0.0689 0.0689-0.0514 0.0549-0.1203 0.1203-0.0103 7e-3 -0.0619 0.0619-0.0549 0.0514-0.0689 0.0689-0.0549 0.0514-7e-3 7e-3 -0.0549 0.0514-7e-3 7e-3 -0.0549 0.0514-7e-3 7e-3 -0.0549 0.0514-7e-3 7e-3 -0.0549 0.0514-7e-3 7e-3 -0.0549 0.0514-7e-3 7e-3 -0.0583 0.0514-7e-3 3e-3 -0.0549 0.0514-7e-3 7e-3 -0.0583 0.0514-7e-3 7e-3 -0.0583 0.0514-7e-3 3e-3 -0.0583 0.0514-7e-3 7e-3 -0.0583 0.048-0.0103 7e-3 -0.0583 0.048-7e-3 7e-3 -0.0583 0.0514-7e-3 7e-3 -0.0583 0.0514-7e-3 7e-3 -0.0583 0.0514-7e-3 7e-3 -0.0583 0.048-7e-3 7e-3 -0.0617 0.048-7e-3 3e-3 -0.0583 0.048-7e-3 7e-3 -0.0583 0.048-0.0103 7e-3 -0.0583 0.048-7e-3 7e-3 -0.0583 0.048-7e-3 7e-3 -0.0583 0.048-7e-3 7e-3 -0.0617 0.048-7e-3 7e-3 -0.0583 0.0446-7e-3 7e-3 -0.0617 0.048-7e-3 7e-3 -0.0617 0.048-7e-3 7e-3 -0.0617 0.048-7e-3 7e-3 -0.0617 0.048-7e-3 3e-3 -0.0617 0.0446-7e-3 3e-3 -0.0617 0.0446-7e-3 3e-3 -0.0617 0.0446-0.0103 3e-3 -0.0617 0.0446-7e-3 7e-3 -0.0617 0.0446-7e-3 7e-3 -0.0617 0.0446-7e-3 7e-3 -0.0617 0.0446-0.0103 7e-3 -0.0617 0.0446-7e-3 3e-3 -0.0651 0.0446-0.0103 3e-3 -0.0652 0.0446-7e-3 7e-3 -0.0652 0.0446-7e-3 7e-3 -0.0652 0.0412-7e-3 7e-3 -0.0652 0.0446-7e-3 7e-3 -0.0617 0.0446-0.0103 7e-3 -0.0652 0.0412-7e-3 3e-3 -0.0652 0.0412-0.0103 3e-3 -0.0652 0.0411-7e-3 7e-3 -0.0652 0.0412-7e-3 7e-3 -0.0652 0.0412-7e-3 3e-3 -0.0652 0.0412-0.0103 3e-3 -0.0652 0.0412-7e-3 7e-3 -0.0652 0.0412-0.0103 3e-3 -0.0652 0.0412-0.0103 7e-3 -0.0652 0.0412-0.0103 7e-3 -0.0686 0.0412-7e-3 7e-3 -0.0652 0.0377-0.0103 3e-3 -0.0652 0.0377-7e-3 7e-3 -0.0686 0.0412-0.0103 7e-3 -0.0686 0.0377-7e-3 7e-3 -0.0652 0.0377-0.0103 3e-3 -0.0686 0.0377-0.0103 3e-3 -0.0686 0.0377-7e-3 3e-3 -0.0652 0.0377-3e-3 3e-3 -39.756 22.154h-0.0034l-0.06173 0.0377-0.01029 3e-3 -0.06516 0.0377-0.01029 7e-3 -0.06516 0.0343-0.01029 3e-3 -0.06516 0.0343-0.0069 3e-3 -0.06516 0.0343-0.01029 3e-3 -0.06516 0.0343-0.01029 3e-3 -0.06516 0.0343-0.01029 3e-3 -0.06516 0.0343-0.0069 3e-3 -0.06516 0.0343-0.0069 3e-3 -0.06516 0.0309-0.0069 3e-3 -0.06859 0.0343-0.0069 7e-3 -0.06516 0.0343-0.0069 3e-3 -0.06516 0.0309-0.0069 3e-3 -0.06516 0.0309-0.0069 3e-3 -0.06516 0.0343-0.0069 3e-3 -0.06859 0.0309-0.0069 3e-3 -0.06516 0.0309-0.0069 3e-3 -0.06859 0.0309-0.0069 3e-3 -0.06516 0.0309-0.0069 3e-3 -0.06516 0.0309-0.01029 7e-3 -0.06859 0.0309-0.0069 3e-3 -0.06859 0.0274-0.0069 3e-3 -0.06859 0.0309-0.0069 7e-3 -0.06859 0.0309-0.01029 3e-3 -0.06516 0.0274-0.0069 3e-3 -0.06859 0.0309-0.0069 3e-3 -0.06859 0.0274-0.0069 3e-3 -0.06859 0.0274-0.0069 3e-3 -0.06859 0.0274-0.01029 3e-3 -0.06859 0.0274-0.01029 3e-3 -0.06859 0.0274-0.01029 3e-3 -0.06516 0.0274-0.0069 3e-3 -0.06859 0.024-0.0069 3e-3 -0.06859 0.0274-0.01029 3e-3 -0.06859 0.0274-0.01029 3e-3 -0.06859 0.0274-0.01029 3e-3 -0.06859 0.024-0.01029 3e-3 -0.06859 0.0274-0.01029 3e-3 -0.06859 0.024-0.0069 3e-3 -0.06859 0.024-0.01029 3e-3 -0.06859 0.024-0.01029 3e-3 -0.06859 0.024-0.01029 3e-3 -0.06859 0.024-0.0069 3e-3 -0.13718 0.048-0.01029 3e-3 -0.07202 0.0206-0.01029 3e-3 -0.06859 0.0206-0.0069 3e-3 -0.06859 0.024-0.0069 3e-3 -0.07202 0.0206-0.01029 3e-3 -0.06859 0.0206-0.01029 3e-3 -0.06859 0.0206-0.01029 3e-3 -0.07202 0.024-0.01372 3e-3 -0.13717 0.0411-0.01715 7e-3 -0.1406 0.0411-0.01715 3e-3 -0.1406 0.0411-0.01715 3e-3 -0.1406 0.0377-0.01715 7e-3 -0.1406 0.0377-0.01715 3e-3 -0.1406 0.0377-0.02058 3e-3 -0.1406 0.0343-0.01715 3e-3 -0.1406 0.0343-0.02058 3e-3 -0.1406 0.0343-0.01715 3e-3 -0.1406 0.0309-0.01715 3e-3 -0.14403 0.0309-0.02058 3e-3 -0.14403 0.0309-0.01715 3e-3 -0.14403 0.0274-0.01715 3e-3 -0.1406 0.024-0.01715 3e-3 -0.1406 0.0274-0.01715 3e-3 -0.14403 0.024-0.01715 3e-3 -0.14403 0.024-0.01715 3e-3 -0.14403 0.0206-0.01715 3e-3 -0.14403 0.0206-0.01715 3e-3 -0.14403 0.0206-0.01715 3e-3 -0.14403 0.0206-0.02058 3e-3 -0.14403 0.0171-0.01715 3e-3 -0.14403 0.0172-0.01715 3e-3 -0.14403 0.0171-0.14403 0.0137h-0.01715l-0.14403 0.0103-0.01715 3e-3 -0.14403 0.0103h-0.01715l-0.14403 0.0103h-0.01715l-0.14403 0.0103-0.02058 3e-3 -0.14403 0.0103h-0.01715l-0.14403 7e-3h-0.01715l-0.14403 7e-3h-0.02058l-0.14403 3e-3h-0.01715l-0.14403 3e-3h-0.01715l-0.14403 3e-3h-0.50754l-0.28806-6e-3h-0.02058l-0.14403-3e-3h-0.0031l-0.14403-7e-3 -0.01715-3e-3 -0.14403-7e-3h-0.01715l-0.14403-7e-3 -0.01715-3e-3 -0.14403-7e-3h-0.01715l-0.14403-0.0103-0.01715-3e-3 -0.14403-0.0137-0.02058-3e-3 -0.14403-0.0137-0.02058-3e-3 -0.14403-0.0137-0.01715-3e-3 -0.14403-0.0137h-0.01715l-0.14403-0.0137-0.01715-3e-3 -0.14403-0.0171h-0.02058l-0.14403-0.0171-0.02058-3e-3 -0.14403-0.0206-0.01715-3e-3 -0.14403-0.0206-0.01715-3e-3 -0.14403-0.0206-0.01715-3e-3 -0.14403-0.0206-0.01715-3e-3 -0.1406-0.024h-0.01029l-0.14403-0.0274-0.01852-3e-3 -0.1406-0.0274-0.01715-3e-3 -0.1406-0.0274-0.01715-3e-3 -0.1406-0.0274-0.02058-3e-3 -0.14266-0.0274-0.01715-3e-3 -0.1406-0.0309-0.02058-7e-3 -0.1406-0.0309-0.01715-3e-3 -0.1406-0.0343-0.0192-7e-3 -0.1406-0.0343-0.01715-7e-3 -0.1406-0.0377-0.01715-3e-3 -0.1406-0.0377-0.01715-7e-3 -0.1406-0.0377-0.01715-7e-3 -0.1406-0.0377-0.01715-7e-3 -0.1406-0.0412-0.02058-7e-3 -0.1406-0.0411-0.01715-7e-3 -0.1406-0.0412-0.01715-7e-3 -0.1406-0.0412-0.01715-3e-3 -0.13649-0.0446-0.01372-3e-3 -0.07202-0.024h-0.0093l-0.06859-0.0206-0.01029-3e-3 -0.06859-0.024-0.01029-3e-3 -0.06859-0.024-0.01029-3e-3 -0.06859-0.024-0.01029-3e-3 -0.06859-0.024-0.01029-3e-3 -0.06859-0.024-0.0069-3e-3 -0.06859-0.024-0.0069-3e-3 -0.06859-0.024-0.0069-3e-3 -0.06859-0.0274-0.01029-3e-3 -0.06859-0.0274-0.01029-3e-3 -0.06859-0.0274-0.0069-3e-3 -0.06859-0.0274-0.01029-3e-3 -0.06859-0.0274-0.0069-3e-3 -0.06859-0.0274-0.01029-3e-3 -0.06859-0.0274-0.0069-3e-3 -0.06859-0.0274-0.0069-3e-3 -0.06859-0.0274-0.01029-3e-3 -0.06859-0.0274-0.01029-3e-3 -0.06859-0.0274-0.01029-3e-3 -0.06859-0.0274-0.01029-3e-3 -0.06859-0.0274-0.0069-3e-3 -0.06859-0.0309-0.01029-3e-3 -0.06516-0.0309-0.0069-3e-3 -0.06859-0.0309-0.0069-3e-3 -0.06859-0.0309-0.0069-3e-3 -0.06859-0.0274-0.01029-3e-3 -0.06516-0.0309-0.01029-3e-3 -0.06859-0.0309-0.01029-3e-3 -0.06516-0.0309-0.0069-7e-3 -0.06516-0.0309-0.0069-3e-3 -0.06516-0.0309-0.0069-3e-3 -0.06859-0.0309-0.0069-7e-3 -0.06859-0.0343-0.0069-7e-3 -0.06516-0.0309-0.01029-3e-3 -0.06859-0.0309-0.0069-7e-3 -0.06516-0.0343-0.01029-3e-3 -0.06859-0.0343-0.0069-3e-3 -0.06516-0.0343-0.01029-3e-3 -0.06516-0.0343-0.0069-3e-3 -0.06516-0.0343-0.01029-7e-3 -0.06516-0.0343-0.0069-3e-3 -0.06516-0.0343-0.0069-3e-3 -0.06516-0.0343-0.01029-7e-3 -0.06516-0.0343-0.0069-3e-3 -0.06516-0.0377-0.01029-7e-3 -0.06516-0.0343-0.01029-3e-3 -0.06516-0.0343-0.01029-3e-3 -0.06516-0.0343-0.01029-3e-3 -0.06516-0.0377-0.01029-3e-3 -0.06173-0.0377-0.01029-3e-3 -0.06173-0.0377-0.0034-3e-3 -35.939-20.977-0.0034-3e-3 -0.07544-0.0446-0.0069-3e-3 -0.07545-0.0446-0.01029-3e-3 -0.07888-0.0446-0.01029-3e-3 -0.07545-0.048-0.0069-3e-3 -0.07545-0.048-0.0069-7e-3 -0.07545-0.048-0.0069-7e-3 -0.07545-0.048-0.01029-3e-3 -0.07545-0.0446-0.01029-7e-3 -0.07545-0.048-0.0069-7e-3 -0.07545-0.048h0.01749l-0.07545-0.048-0.01029-7e-3 -0.07545-0.048-0.0069-7e-3 -0.07545-0.048-0.0096-7e-3 -0.07545-0.0514-0.01029-7e-3 -0.07545-0.0514-0.0069-7e-3 -0.07545-0.048-0.0069-7e-3 -0.07545-0.0514-0.0069-7e-3 -0.07545-0.0514-0.0069-7e-3 -0.07202-0.0514-0.01029-7e-3 -0.07373-0.0514-0.0069-7e-3 -0.07202-0.0514-0.0086-7e-3 -0.07202-0.0514-0.0093-7e-3 -0.07202-0.0514-0.0069-3e-3 -0.07202-0.0514-0.0069-7e-3 -0.07099-0.0514-0.0069-7e-3 -0.07064-0.0514-0.01029-3e-3 -0.07202-0.0514-0.0069-7e-3 -0.07202-0.0549-0.0069-7e-3 -0.07202-0.0514-0.0089-7e-3 -0.07202-0.0549-0.0089-7e-3 -0.06859-0.0549-0.0069-7e-3 -0.06859-0.0549-0.0069-3e-3 -0.06859-0.0549-0.0069-7e-3 -0.06859-0.0549-0.0069-7e-3 -0.06859-0.0549-0.0069-7e-3 -0.06859-0.0549-0.0069-7e-3 -0.06859-0.0549-0.0069-7e-3 -0.06859-0.0549-0.0069-7e-3 -0.06859-0.0583-0.0069-3e-3 -0.06859-0.0549-0.0069-7e-3 -0.06653-0.0549-0.0069-7e-3 -0.06859-0.0583-0.0069-7e-3 -0.06859-0.0549-0.0069-7e-3 -0.06859-0.0583-0.0069-3e-3 -0.06722-0.0549-0.0069-7e-3 -0.06516-0.0549-0.0069-7e-3 -0.06516-0.0583-0.0069-7e-3 -0.06516-0.0583-0.0069-7e-3 -0.06516-0.0583-0.0069-7e-3 -0.06516-0.0583-0.0069-7e-3 -0.06516-0.0583-0.0069-7e-3 -0.06516-0.0617-0.0069-3e-3 -0.06516-0.0583-0.01029-7e-3 -0.06344-0.0617-0.0069-7e-3 -0.06516-0.0583-0.0069-7e-3 -0.06379-0.0617-0.0069-7e-3 -0.06173-0.0617-0.0069-7e-3 -0.06173-0.0617-0.0069-7e-3 -0.06516-0.0617-0.0069-7e-3 -0.06516-0.0617-0.0069-3e-3 -0.06173-0.0617-0.0069-7e-3 -0.06173-0.0617-0.0069-7e-3 -0.06173-0.0617-0.0069-7e-3 -0.06173-0.0617-0.0069-7e-3 -0.06173-0.0617-0.0069-7e-3 -0.06173-0.0617-0.0069-7e-3 -0.0583-0.0617-0.0069-7e-3 -0.06173-0.0617-0.0069-7e-3 -0.06173-0.0652-0.0069-7e-3 -0.0583-0.0652-0.0069-7e-3 -0.0583-0.0652-0.0069-7e-3 -0.06173-0.0652-0.0069-7e-3 -0.0583-0.0652-0.0069-7e-3 -0.0583-0.0652-0.0069-7e-3 -0.0583-0.0652-0.0069-7e-3 -0.0583-0.0652-0.0069-7e-3 -0.0583-0.0652-0.0034-7e-3 -0.05487-0.0652-0.0069-7e-3 -0.0583-0.0652-0.0069-7e-3 -0.06173-0.0686-0.0069-7e-3 -0.0583-0.0652-0.0069-7e-3 -0.0583-0.0686-0.0069-7e-3 -0.05487-0.0652-0.0034-7e-3 -0.05487-0.0652-0.0069-7e-3 -0.05487-0.0686-0.0069-7e-3 -0.0583-0.0686-0.0069-7e-3 -0.05487-0.0652-0.0069-7e-3 -0.0583-0.0652-0.0069-7e-3 -0.05487-0.0652-0.0069-7e-3 -0.05487-0.0686-0.0069-7e-3 -0.05487-0.0686-0.0069-7e-3 -0.05487-0.0686-0.0069-7e-3 -0.05487-0.0686-0.0069-7e-3 -0.05487-0.0686-0.0034-7e-3 -0.05144-0.0686-0.0069-7e-3 -0.05144-0.0686-0.0034-7e-3 -0.05144-0.0686-0.0069-7e-3 -0.05144-0.072-0.0069-7e-3 -0.05144-0.0686-0.0069-7e-3 -0.05144-0.0686-0.0034-7e-3 -0.05144-0.072-0.0034-7e-3 -0.05144-0.072-0.0034-7e-3 -0.05144-0.0686-0.0034-7e-3 -0.05144-0.0686-0.0069-7e-3 -0.05144-0.072-0.0069-7e-3 -0.05144-0.072-0.0069-0.0103-0.04801-0.072-0.0069-7e-3 -0.04801-0.072-0.0069-7e-3 -0.04801-0.072-0.0069-7e-3 -0.04801-0.072-0.0034-7e-3 -0.04801-0.072-0.0069-0.0103-0.04801-0.072-0.0069-7e-3 -0.04801-0.072-0.0069-7e-3 -0.04801-0.072-0.0069-7e-3 -0.04801-0.072-0.0069-7e-3 -0.04458-0.072-0.0034-7e-3 -0.04458-0.072-0.0069-0.0103-0.04801-0.072-0.0069-0.0103-0.04801-0.072-0.0034-7e-3 -0.04801-0.0755-0.0034-0.0103-0.04458-0.072-0.0069-7e-3 -0.04458-0.072-0.0069-7e-3 -0.04458-0.0754-0.0069-0.0103-0.04458-0.072-0.0034-7e-3 -0.04458-0.0755-0.0034-7e-3 -0.04458-0.072-0.0069-0.0103-0.04458-0.0754-0.0069-0.0103-0.04458-0.0754-0.0069-0.0103-0.04115-0.0754-0.0069-7e-3 -0.04458-0.0755-0.0034-7e-3 -0.04115-0.0754-0.0034-7e-3 -0.04115-0.0754-0.0034-0.0103-0.04115-0.0754-0.0069-0.0103-0.04115-0.07544-0.0034-0.01029-0.04115-0.07887-0.0034-0.0069-0.04115-0.07545-0.0034-0.01029-0.04115-0.07545-0.0034-0.01029-0.04115-0.07545-0.0034-0.01029-0.03772-0.07887-0.0034-0.0069-0.04115-0.07887-0.0034-0.01029-0.04115-0.07887-0.0069-0.0069-0.03772-0.07888-0.0034-0.0069-0.03772-0.07545-0.0034-0.01029-0.03772-0.07887v0.0034l-0.037723-0.07887-0.00686-0.01029-0.037723-0.07887-0.00343-0.01029-0.037723-0.07545-0.00343-0.01029-0.037723-0.07887-0.00343-0.0069-0.037723-0.07888-0.00343-0.0069-0.034293-0.07887-0.00343-0.0069-0.037723-0.07887-0.00343-0.0069-0.037723-0.07887-0.00343-0.0069-0.037723-0.07888-0.00343-0.01029-0.034293-0.07887-0.00343-0.0069-0.037723-0.07887-0.00343-0.01029-0.037723-0.07887-0.00343-0.0069-0.034293-0.07887-0.00343-0.0069-0.034293-0.07887-0.00343-0.01029-0.034293-0.07887-0.00343-0.0069-0.030864-0.07887-0.00343-0.0069-0.034293-0.07887-0.00343-0.01029-0.030864-0.0823-0.00343-0.0069-0.034293-0.07887-0.00343-0.01029-0.030864-0.07545-0.00343-0.01029-0.034293-0.0823-0.00343-0.0069-0.030864-0.0823-0.00343-0.01029-0.030864-0.0823-0.00343-0.0069-0.030864-0.08231-0.00343-0.01029-0.030864-0.08231-0.00343-0.0069-0.030864-0.0823-0.00343-0.0069-0.027435-0.0823-0.00343-0.01029-0.030864-0.0823-0.00343-0.0069-0.027435-0.0823-0.00343-0.01029-0.027435-0.0823-0.00343-0.01029-0.030864-0.0823-0.00343-0.01029-0.027435-0.0823-0.00343-0.0069-0.027435-0.0823-0.00343-0.0069-0.027435-0.0823-0.00343-0.01029-0.027435-0.0823-0.00343-0.01029-0.027435-0.0823-0.00343-0.01029-0.027435-0.0823-0.00343-0.01029-0.027435-0.0823-0.00309-0.0099-0.024005-0.0823-0.00343-0.0069-0.027435-0.08573-0.00343-0.01029-0.024005-0.08573-0.00343-0.01029-0.024005-0.0823-0.00343-0.01029-0.024005-0.0823-0.00343-0.01029-0.024005-0.08573-0.00343-0.01029-0.024005-0.08573-0.00343-0.0069-0.024005-0.08573-0.00343-0.0034-0.024005-0.08573-0.00343-0.0069-0.020576-0.0823-0.00343-0.0069-0.020576-0.0823v-0.0069l-0.024005-0.08573v-0.01029l-0.020576-0.08231-0.00343-0.01029-0.020576-0.0823-0.00343-0.01029-0.020576-0.08573h0.00343l-0.020576-0.08573-0.00343-0.0069-0.020576-0.08573-0.00343-0.0069-0.020576-0.08573-0.00343-0.0069-0.020576-0.08573 0.00343-0.0034-0.020576-0.08573-0.00343-0.01029-0.020576-0.08573-0.00343-0.01029-0.017147-0.08573-0.00343-0.01029-0.020576-0.08573-0.00343-0.0069-0.017147-0.08573-0.00343-0.01029-0.017147-0.08573-0.00343-0.01029-0.034294-0.17146v-0.01029l-0.017147-0.08916v-0.01029l-0.017147-0.08573-0.00343-0.01029-0.020576-0.08231v-0.01029l-0.017147-0.09259-0.00343-0.01029-0.017147-0.08916-0.00343-0.01029-0.013717-0.08573-0.00343-0.01029-0.013717-0.08573v-0.01029l-0.013717-0.08573v-0.01029l-0.013717-0.08573-0.00343-0.01029-0.013717-0.08573v0.0034l-0.013717-0.08573v-0.0069l-0.013717-0.08573v-0.01029l-0.013717-0.08573v-0.01029l-0.013717-0.08573v-0.0069l-0.010288-0.08916v-0.01029l-0.010288-0.08573v-0.0069l-0.013717-0.08916-0.00343-0.01029-0.010288-0.08573v-0.01029l-0.010288-0.08916-0.00343-0.01029-0.010288-0.08916v-0.01029l-0.010288-0.08916-0.00343-0.01029-0.010288-0.08916v-0.01029l-0.010288-0.08916-0.00343-0.0069-0.010288-0.08916-0.00686-0.08916v-0.01029l-0.010288-0.08916-0.00343-0.01029-0.010288-0.08916v-0.01029l-0.00686-0.08916-0.00343-0.01029-0.00686-0.08916v-0.01029l-0.00686-0.08916v-0.01029l-0.01372-0.17832v-0.01029l-0.00686-0.08916v-0.01029l-0.00686-0.08916v-0.11077l-0.00343-0.08916v-0.01029l-0.00343-0.08916v-0.01029l-0.00343-0.08916-0.00343-0.01029-0.00343-0.08916v-0.09602l-0.00343-0.08916v-0.01029l-0.00343-0.08916v-43.411l0.00343-0.08573v-0.10974l0.00343-0.08916v-0.3155l0.00343-0.08916v-0.0069l0.00343-0.08916v-0.01029l0.00343-0.08916v-0.01029l0.00343-0.08916v-0.0069l0.00343-0.08916v-0.01029l0.00343-0.08916v-0.01029l0.00686-0.09259v-0.01029l0.00686-0.08916v-0.0069l0.00343-0.08916v-0.01029l0.00686-0.08916v-0.01029l0.00343-0.08916v-0.01029l0.00343-0.08916v-0.01029l0.00686-0.08916v-0.01029l0.00686-0.08916v-0.01029l0.010288-0.08916v-0.01029l0.00686-0.08916 0.00343-0.0069 0.00686-0.08916v-0.0069l0.010288-0.08916v-0.0069l0.010288-0.08916 0.00343-0.01029 0.010288-0.08916v-0.01029l0.010288-0.08916v-0.0069l0.010288-0.08916v-0.0069l0.010288-0.08916 0.00343-0.01029 0.010288-0.08916v-0.01029l0.010288-0.08573v-0.01029l0.010288-0.08916v-0.01029l0.010288-0.08916 0.00343-0.01029 0.010288-0.08573v-0.01029l0.013717-0.08916v-0.01029l0.010288-0.08916 0.00343-0.01029 0.010288-0.08573 0.00343-0.01029 0.013717-0.08916 0.00343-0.0069 0.013717-0.08916v-0.0069l0.013717-0.08916v-0.0069l0.013717-0.08573 0.00343-0.01029 0.013717-0.08573v-0.01029l0.024005-0.08916 0.00343-0.01029 0.013717-0.08573v-0.01029l0.017147-0.08573v-0.0069l0.017147-0.08573v-0.0069l0.017147-0.08916 0.00343-0.0069 0.017147-0.08573 0.00343-0.0069 0.017147-0.08573 0.00343-0.01029 0.017147-0.08573 0.00343-0.01029 0.017147-0.08573v-0.01029l0.017147-0.08573v-0.0069l0.017147-0.08573 0.00343-0.0069 0.017147-0.08573 0.00343-0.0069 0.020576-0.08573v-0.01029l0.020576-0.08573 0.00343-0.01029 0.017147-0.08573 0.00343-0.01029 0.020576-0.08573v-0.01029l0.020576-0.08573 0.00343-0.01029 0.020576-0.08573v-0.01029l0.020576-0.08573 0.00343-0.0069 0.020576-0.08573v-0.0069l0.020576-0.08573 0.00343-0.01029 0.024005-0.08573v-0.0069l0.024005-0.08573v-0.0069l0.024005-0.08573 0.00343-0.01029 0.024005-0.08573v-0.01029l0.024005-0.08573 0.00343-0.01029 0.024005-0.0823 0.00343-0.0069 0.024005-0.08573 0.00343-0.0086 0.024005-0.08573 0.00343-0.01029 0.024005-0.08368 0.00343-0.0069 0.027435-0.08573 0.00343-0.0069 0.024005-0.0823 0.00343-0.0069 0.024005-0.08333 0.00343-0.0069 0.024005-0.08505 0.00343-0.01029 0.027435-0.08368 0.00343-0.01029 0.027435-0.0823v-0.0069l0.027435-0.0823v-0.01029l0.027435-0.0823 0.00343-0.0069 0.027435-0.0823 0.00343-0.01029 0.027435-0.0823 0.00343-0.01029 0.027435-0.0823 0.00343-0.01029 0.027435-0.0823 0.00343-0.0069 0.030864-0.0823 0.00343-0.0069 0.027435-0.0823 0.00343-0.0086 0.027435-0.0823 0.00343-0.0069 0.030864-0.0823 0.00343-0.0069 0.030864-0.0823v-0.0069l0.030864-0.0823 0.00343-0.0069 0.030864-0.0823 0.00343-0.01029 0.030864-0.0823 0.00343-0.0069 0.030864-0.0823 0.00343-0.01029 0.034293-0.07887 0.00343-0.0069 0.034293-0.0823 0.00343-0.0069 0.034293-0.0823 0.00343-0.01029 0.034293-0.08231 0.00343-0.01029 0.034293-0.0823 0.00343-0.01029 0.034293-0.0823 0.00343-0.01029 0.034293-0.0823 0.00343-0.01029 0.034293-0.0823 0.00343-0.0086 0.034293-0.07888 0.00343-0.01029 0.034293-0.07888 0.00343-0.01029 0.034293-0.0823 0.00343-0.0069 0.037723-0.0823 0.00343-0.0069 0.037723-0.07888 0.00343-0.0069 0.034293-0.07887 0.00343-0.01029 0.037723-0.07887 0.00343-0.0069 0.037723-0.07888 0.00343-0.0069 0.037723-0.07887 0.00343-0.0069 0.037723-0.07887 0.00343-0.01029 0.037723-0.07888 0.00343-0.0069 0.037723-0.07887 0.00343-0.01029 0.037723-0.07887 0.0034-0.0069 0.03772-0.07888 0.0034-0.0069 0.03772-0.07887 0.0034-0.0069 0.03772-0.07888 0.0034-0.0069 0.04115-0.07545 0.0034-0.0069 0.04115-0.07887 0.0069-0.01029 0.04115-0.07887 0.0034-0.0069 0.04115-0.07887 0.0034-0.01029 0.04115-0.07545 0.0034-0.0069 0.04115-0.07545 0.0034-0.0069 0.04115-0.07545 0.0034-0.01029 0.04115-0.07544 0.0069-0.0069 0.04115-0.07544 0.0034-0.01029 0.04115-0.07545 0.0069-0.0069 0.04115-0.07545 0.0034-0.0069 0.04115-0.07545 0.0069-0.01029 0.04458-0.07545 0.0034-0.0069 0.04115-0.07545 0.0034-0.0069 0.04458-0.07545 0.0034-0.0069 0.04458-0.07545 0.0034-0.0069 0.04458-0.07545 0.0069-0.0069 0.04458-0.07545 0.0034-0.0069 0.04458-0.07545 0.0069-0.0069 0.04458-0.07545 0.0034-0.0069 0.04458-0.07545 0.0069-0.0069 0.04458-0.07545 0.0034-0.0069 0.04801-0.07545 0.0069-0.01029 0.04801-0.07545 0.0034-0.0069 0.04458-0.07202 0.0069-0.0069 0.04801-0.07202 0.0069-0.0069 0.04458-0.07545 0.0034-0.0069 0.04801-0.07202 0.0034-0.0069 0.04801-0.07202 0.0069-0.0069 0.04801-0.07545 0.0069-0.0069 0.04801-0.07202 0.0034-0.01029 0.04801-0.07202 0.0034-0.0069 0.04801-0.07202 0.0034-0.0069 0.05144-0.07202 0.0069-0.0069 0.04801-0.07202 0.0069-0.0069 0.05144-0.07202 0.0034-0.0069 0.05144-0.07202 0.0034-0.0069 0.05144-0.07202 0.0034-0.0069 0.05144-0.07202 0.0069-0.0069 0.05144-0.07202 0.0034-0.0069 0.05144-0.07202 0.0069-0.0069 0.05144-0.06859 0.0034-0.0069 0.05144-0.07202 0.0069-0.0069 0.05144-0.06859 0.0069-0.0069 0.05144-0.06859 0.0069-0.0069 0.05144-0.06859 0.0069-0.0069 0.05144-0.06859 0.0034-0.0069 0.05144-0.06859 0.0069-0.0069 0.05487-0.06859 0.0069-0.0069 0.05487-0.06859 0.0069-0.0069 0.05487-0.06859 0.0069-0.0069 0.05487-0.06859 0.0069-0.0069 0.05487-0.06859 0.0069-0.01029 0.05487-0.06859 0.0034-0.0069 0.05487-0.06859 0.0069-0.0069 0.05487-0.06859 0.0069-0.0069 0.05487-0.06516 0.0069-0.0069 0.05487-0.06859 0.0069-0.0069 0.05487-0.06859 0.0069-0.0069 0.0583-0.06516 0.0069-0.0069 0.05487-0.06859 0.0069-0.0069 0.05487-0.06516 0.0069-0.0069 0.05487-0.06859 0.0069-0.0069 0.0583-0.06859 0.0034-0.0069 0.0583-0.06516 0.0069-0.0069 0.0583-0.06516 0.0069-0.0069 0.0583-0.06516 0.0069-0.0069 0.0583-0.06516 0.0034-0.0069 0.0583-0.06516 0.0069-0.0069 0.0583-0.06516 0.0069-0.0069 0.0583-0.06516 0.0034-0.0069 0.0583-0.06516 0.0069-0.0069 0.06173-0.06516 0.0034-0.0069 0.06173-0.06516 0.0069-0.0069 0.06516-0.06173 0.0069-0.0069 0.06173-0.06516 0.0069-0.0069 0.06173-0.06516 0.21279-0.21279 0.06516-0.06173 0.48731-0.48731 0.06516-0.0583 0.0069-0.0069 0.06516-0.0583 0.0069-0.0069 0.06516-0.06173 0.0069-0.0069 0.06516-0.06173 0.0069-0.0034 0.06516-0.0583 0.0069-0.0034 0.06516-0.0583 0.0069-0.0069 0.06516-0.0583 0.0069-0.0069 0.06516-0.0583 0.0069-0.0069 0.06516-0.0583 0.0069-0.0034 0.06859-0.0583 0.0069-0.0069 0.06859-0.0583 0.0069-0.0069 0.06859-0.0583 0.0069-0.0069 0.06859-0.05487 0.0069-0.0069 0.06859-0.05487 0.0069-0.0069 0.06516-0.05487 0.0069-0.0069 0.06859-0.05487 0.0069-0.0069 0.06859-0.05487 0.0069-0.0034 0.06859-0.05487 0.0069-0.0069 0.06859-0.05487 0.0069-0.0069 0.06859-0.05487 0.0069-0.0069 0.07202-0.05487 0.0069-0.0069 0.06859-0.05487 0.0069-0.0069 0.07202-0.05487 0.0069-0.0069 0.07202-0.05487 0.0069-0.0069 0.06859-0.05487 0.0069-0.0034 0.07202-0.05487 0.0069-0.0069 0.06859-0.05487 0.0069-0.0069 0.07202-0.05144 0.0069-0.0069 0.07202-0.05487 0.0069-0.0069 0.07202-0.05144 0.0069-0.0034 0.07202-0.05144 0.01029-0.0069 0.07202-0.05144 0.0069-0.0034 0.07202-0.05144 0.0069-0.0069 0.07202-0.05487 0.0069-0.0034 0.07545-0.05144 0.0069-0.0069 0.07202-0.05144 0.01029-0.0034 0.07202-0.05144 0.0069-0.0034 0.07202-0.05144 0.0069-0.0034 0.07544-0.05144 0.0069-0.0069 0.07202-0.05144 0.0069-0.0034 0.07545-0.04801 0.0069-0.0034 0.07202-0.05144 0.01029-0.0069 0.07544-0.04801 0.0069-0.0069 0.07545-0.05144 0.0069-0.0069 0.07545-0.04801 0.01029-0.0034 0.07544-0.04801 0.0069-0.0069 0.07545-0.04801 0.0069-0.0034 0.07545-0.04801 0.0069-0.0034 0.07544-0.04801 0.0069-0.0034 0.07545-0.04801 0.01029-0.0034 0.07545-0.04458h0.0034l34.468-21.262 0.0034-0.00343 0.07202-0.044581 0.0069-0.00343 0.07545-0.048011 0.01029-0.00686 0.07544-0.044581 0.01029-0.00686 0.07545-0.044581 0.01029-0.00686 0.07544-0.044581 0.01029-0.00343 0.07888-0.044581 0.0069-0.00686 0.07544-0.044581 0.01029-0.00343 0.07545-0.044581 0.0069-0.00343 0.07887-0.041152 0.0069-0.00686 0.07888-0.041152 0.0069-0.00686 0.07545-0.041152 0.01029-0.00343 0.07888-0.041152 0.0069-0.00686 0.07545-0.041152 0.01029-0.00686 0.07545-0.041152 0.01029-0.00686 0.07545-0.041152 0.0069-0.00686 0.07887-0.041152 0.0069-0.00343 0.07545-0.041152 0.01029-0.00343 0.07545-0.041152 0.01029-0.00343 0.07888-0.041152 0.01029-0.00343 0.07887-0.041152 0.0069-0.00343 0.07887-0.037723 0.01029-0.00343 0.07887-0.037723 0.01029-0.00343 0.07545-0.037723 0.01029-0.00343 0.07888-0.037723 0.0069-0.00343 0.07887-0.037723 0.01029-0.00343 0.07887-0.037723 0.01029-0.00686 0.07887-0.037723 0.01029-0.00343 0.07887-0.037723 0.01029-0.00343 0.07887-0.034293 0.01029-0.00343 0.07887-0.034293 0.0069-0.00686 0.07887-0.034293 0.0069-0.00343 0.07887-0.034293 0.01029-0.00686 0.07887-0.034293 0.01029-0.00343 0.07887-0.034293 0.01029-0.00343 0.07887-0.034293 0.01029-0.00343 0.07887-0.034293 0.01029-0.00343 0.07888-0.034293 0.01029-0.00343 0.07887-0.030864 0.01029-0.00343 0.07887-0.034293 0.01029-0.00343 0.0823-0.034293 0.01029-0.00343 0.0823-0.034293 0.01029-0.00686 0.07888-0.030864 0.0069-0.00343 0.0823-0.030864 0.01029-0.00343 0.07888-0.030864 0.0069-0.00343 0.0823-0.030864 0.09259-0.030865 0.01029-0.00343 0.0823-0.030864 0.01029-0.00343 0.0823-0.030864 0.09259-0.030865 0.09259-0.030865 0.01029-0.00343 0.07888-0.027435 0.09259-0.030865 0.01029-0.00343 0.07887-0.027435 0.09259-0.030865 0.0069-0.00343 0.0823-0.027435 0.09259-0.030865 0.09259-0.030865 0.01029-0.00343 0.0823-0.024005 0.0069-0.00343 0.0823-0.024005 0.01029-0.00343 0.0823-0.024005h0.01029l0.0823-0.024005 0.01029-0.00343 0.0823-0.024005 0.0069-0.00343 0.0823-0.024005 0.0069-0.00343 0.0823-0.024005 0.01029-0.00343 0.0823-0.024005 0.01029-0.00343 0.0823-0.024005 0.01029-0.00343 0.0823-0.020576 0.01029-0.00343 0.0823-0.020576 0.0069-0.00343 0.0823-0.024005 0.0082-0.00343 0.08573-0.020576h0.0069l0.0823-0.024005h0.01029l0.0847-0.020576 0.01029-0.003429 0.08573-0.020576 0.01029-0.003429 0.0823-0.020576h0.01029l0.08573-0.020576h0.01029l0.08231-0.020576 0.01029-0.003429 0.0823-0.017147 0.01029-0.003429 0.0823-0.020576 0.01029-0.003429 0.0823-0.017147h0.01029l0.0823-0.017147 0.01029-0.003429 0.0823-0.017147h0.0069l0.0823-0.017147 0.01029-0.003429 0.08573-0.017147h0.0069l0.08573-0.017147 0.0069-0.003429 0.08573-0.017147 0.01029-0.003429 0.08573-0.017147 0.01029-0.003429 0.08573-0.013717h0.01029l0.0823-0.013717 0.01029-0.003429 0.08573-0.017147 0.01029-0.003429 0.08573-0.013717h0.01029l0.0823-0.013717 0.01029-0.003429 0.08573-0.013717 0.01029-0.003429 0.0823-0.013717h0.0069l0.0823-0.013717h0.01029l0.08573-0.013717 0.01029-0.003429 0.08573-0.013717h0.01029l0.08573-0.013717h0.01029l0.08573-0.013717h0.01029l0.08573-0.010288h0.01029l0.0823-0.010288h0.01029l0.08573-0.010288 0.01029-0.003429 0.08573-0.010288 0.0069-0.003429 0.08573-0.006859h0.01029l0.0823-0.010288h0.01029l0.0823-0.010288h0.01029l0.08573-0.010288h0.01029l0.08573-0.010288h0.01029l0.0823-0.006859h0.01029l0.08573-0.010288 0.01029-0.003429 0.08573-0.006859 0.01029-0.003429 0.08573-0.006859h0.01029l0.08436-0.006859h0.01029l0.08573-0.006859h0.01029l0.08573-0.003429 0.01029-0.003429 0.08573-0.006859 0.0069-0.003429 0.08573-0.003429h0.01029l0.08573-0.006859h0.0069l0.08573-0.003429h0.01029l0.08573-0.003429h0.01029l0.08573-0.003429h0.01029l0.08573-0.003429 0.01029-0.003429 0.08573-0.003429h0.01029l0.08573-0.003429h0.01029l0.08573-0.003429h0.01029l0.08573-0.003429h0.01029l0.08573-0.003429h0.0069l0.08573-0.003429h0.10631l0.08573-0.003429h0.1989zm-0.07887 9.2592h-0.05624l-0.05624 6.859e-4h-0.0559l-0.1166 0.00274-0.0583 0.00171-0.1749 0.01029-0.05487 0.00343-0.0583 0.00343-0.16461 0.01029-0.0583 0.00343-0.05487 0.00343-0.1166 0.01372-0.05487 0.00686-0.1749 0.02058-0.05487 0.00686-0.0583 0.00686-0.10974 0.01372-0.0583 0.00686-0.21948 0.02744-0.0583 0.00686-0.05487 0.010288-0.05487 0.00686-0.0583 0.010288-0.32922 0.061728-0.05487 0.00686-0.0583 0.010288-0.05487 0.010288-0.0583 0.010288-0.16461 0.030864-0.16461 0.041151-0.10974 0.020576-0.38409 0.096019-0.05487 0.013716-0.10974 0.02744-0.05487 0.01715-0.05487 0.01372-0.05487 0.01715-0.05144 0.01715-0.27435 0.08575-0.05144 0.01715-0.05487 0.01715-0.05487 0.02058-0.10974 0.0343-0.05487 0.02058-0.10974 0.0343-0.05144 0.01715-0.16461 0.06174-0.05144 0.02058-0.05487 0.02058-0.10288 0.04116-0.05487 0.024-0.16461 0.06174-0.05144 0.02401-0.05144 0.02058-0.05487 0.024-0.15432 0.07203-0.05487 0.02401-0.05144 0.024-0.05487 0.02401-0.05144 0.02401-0.05144 0.024-0.05144 0.02401-0.05487 0.02401-0.05144 0.02401-0.05144 0.024-0.10288 0.05488-0.05144 0.024-0.05144 0.02744-0.05144 0.024-0.10288 0.05488-0.05144 0.02743-0.10288 0.05488-0.05144 0.03086-0.04801 0.02743-0.05144 0.02744-0.04801 0.02744-0.15432 0.09258-0.04801 0.02743-0.05144 0.03086-0.04801 0.03086-0.10288 0.06172-0.05487 0.03429-34.431 21.221-0.0583 0.03772-0.05487 0.03429-0.5144 0.3429-0.05144 0.03772-0.09602 0.06858-0.05144 0.03429-0.28806 0.20574-0.04801 0.03772-0.04801 0.03429-0.28806 0.22632-0.04458 0.03772-0.09602 0.07544-0.04458 0.03772-0.09602 0.07544-0.04458 0.03772-0.04801 0.03772-0.08916 0.07544-0.08916 0.0823-0.08916 0.07544-0.49038 0.45265-0.04115 0.04115-0.04458 0.04115-0.04115 0.04458-0.04458 0.04115-0.04115 0.04458-0.04115 0.04115-0.04115 0.04458-0.04115 0.04115-0.0823 0.08916-0.08573 0.08573-0.12345 0.13374-0.03772 0.04458-0.12345 0.13374-0.04115 0.04801-0.04115 0.04458-0.07544 0.08916-0.04115 0.04801-0.03772 0.04458-0.04115 0.04458-0.03772 0.04801-0.03772 0.04458-0.22632 0.28806-0.03429 0.04801-0.15088 0.19204-0.10287 0.14403-0.03429 0.05144-0.06858 0.09602-0.03429 0.05144-0.13716 0.19204-0.03086 0.05144-0.03429 0.05144-0.03429 0.04801-0.03429 0.05144-0.03086 0.05144-0.03086 0.04801-0.12344 0.20576-0.06858 0.10288-0.3086 0.5144-0.03086 0.05487-0.06172 0.10288-0.03086 0.05487-0.02744 0.05144-0.08229 0.16461-0.02744 0.05144-0.02743 0.05144-0.02744 0.05487-0.02744 0.05144-0.02743 0.05487-0.02401 0.05144-0.02744 0.05487-0.02743 0.05487-0.02744 0.05487-0.05486 0.10974-0.02401 0.05487-0.024 0.05487-0.04802 0.10974-0.024 0.05487-0.09604 0.21948-0.02058 0.05487-0.024 0.05487-0.02401 0.0583-0.02401 0.05487-0.024 0.05487-0.02401 0.05487-0.02058 0.05487-0.02401 0.0583-0.02401 0.05487-0.02058 0.05487-0.02058 0.0583-0.02058 0.05487-0.02058 0.0583-0.02058 0.05487-0.06174 0.1749-0.01715 0.0583-0.02058 0.05487-0.02058 0.0583-0.01715 0.0583-0.01715 0.05487-0.01715 0.0583-0.02058 0.0583-0.0343 0.10974-0.01715 0.0583-0.02058 0.0583-0.01715 0.0583-0.01715 0.05487-0.08575 0.2915-0.02744 0.1166-0.01715 0.0583-0.01372 0.0583-0.01715 0.0583-0.02744 0.1166-0.01372 0.06173-0.08232 0.3498-0.01029 0.0583-0.01372 0.0583-0.01029 0.0583-0.04116 0.24692-0.02058 0.1166-0.02058 0.12346-0.03087 0.1749-0.01029 0.06173-0.0138 0.12346-0.0069 0.0583-0.01029 0.06173-0.01029 0.0583-0.0414 0.37038-0.0069 0.0583-0.0138 0.12346-0.0034 0.06173-0.0138 0.12346-0.034 0.6173v0.06173l-0.0068 0.12346v0.06173l-0.0034 0.06173v43.484l0.0034 0.06173v0.18518l0.0034 0.0583 0.0272 0.49384 0.0069 0.06173 0.0102 0.18519 0.0069 0.0583 0.0069 0.06173 0.0069 0.0583 0.0034 0.06173 0.0276 0.2332 0.0069 0.06173 0.0138 0.1166 0.0138 0.12346 0.0069 0.0583 0.0069 0.06173 0.04116 0.2332 0.01029 0.06173 0.04116 0.2332 0.01372 0.0583 0.03087 0.1749 0.02744 0.1166 0.01029 0.0583 0.09604 0.4081 0.01372 0.05487 0.01715 0.05487 0.04116 0.1749 0.01715 0.0583 0.01372 0.05487 0.01372 0.0583 0.01372 0.05487 0.01715 0.0583 0.01372 0.05487 0.0343 0.1166 0.01715 0.05487 0.0343 0.1166 0.01715 0.05487 0.01715 0.0583 0.08232 0.21948 0.01715 0.05487 0.02058 0.0583 0.18522 0.49383 0.04802 0.10974 0.1029 0.27435 0.024 0.05487 0.04802 0.10974 0.024 0.05487 0.09604 0.21948 0.024 0.05487 0.04802 0.10974 0.02401 0.05144 0.02743 0.05487 0.02743 0.05144 0.02744 0.05487 0.02744 0.05144 0.02743 0.05144 0.05488 0.10288 0.05486 0.10288 0.03086 0.05144 0.02744 0.05144 0.05486 0.10288 0.06172 0.10288 0.05488 0.10288 0.02743 0.05144 0.03087 0.05144 0.02743 0.05144 0.03086 0.04801 0.03086 0.05144 0.03086 0.04801 0.06172 0.10288 0.12344 0.19204 0.03086 0.05144 0.03087 0.05144 0.03429 0.04801 0.03086 0.04801 0.03086 0.05144 0.06172 0.09602 0.06858 0.09602 0.03429 0.05144 0.24003 0.33607 0.07544 0.09602 0.13716 0.19204 0.07544 0.08916 0.03772 0.04801 0.03772 0.04458 0.03772 0.04801 0.41492 0.49038 0.0823 0.08916 0.03772 0.04458 0.04115 0.04115 0.04115 0.04458 0.04115 0.04115 0.04115 0.04458 0.03772 0.04458 0.04115 0.04458 0.1646 0.1646 0.04115 0.04458 0.20575 0.20575 0.04458 0.04115 0.0823 0.0823 0.04458 0.04115 0.0823 0.0823 0.04458 0.04115 0.08916 0.07544 0.08916 0.0823 0.08916 0.07544 0.08916 0.0823 0.04458 0.03772 0.14403 0.11316 0.08916 0.0754 0.04801 0.0377 0.04458 0.0377 0.04801 0.0343 0.04458 0.0377 0.14403 0.1131 0.04458 0.0343 0.04801 0.0377 0.04801 0.0343 0.09602 0.0754 0.09602 0.0686 0.05144 0.0343 0.28806 0.2058 0.05144 0.0343 0.05144 0.0309 0.05144 0.0343 0.04801 0.0343 0.10288 0.0686 0.04801 0.0309 0.2572 0.1545 0.05487 0.0309 0.10288 0.0618 0.0583 0.0343 35.898 20.988 0.04458 0.0274 0.03772 0.0206 0.12345 0.0618 0.03772 0.024 0.12345 0.0618 0.04115 0.024 0.3292 0.1648 0.03772 0.0206 0.0823 0.0412 0.04115 0.0172 0.04115 0.0206 0.0823 0.0344 0.04115 0.0171 0.0823 0.0412 0.04115 0.0171 0.04115 0.0206 0.04115 0.0171 0.0823 0.0344 0.0823 0.0342 0.04115 0.0172 0.0823 0.0342 0.04115 0.0172 0.04115 0.0137 0.04458 0.0171 0.04115 0.0172 0.04115 0.0171 0.0823 0.0344 0.04115 0.0137 0.04115 0.0171 0.0823 0.0274 0.04458 0.0137 0.04115 0.0137 0.03772 0.0137 0.08916 0.0274 0.08573 0.0274 0.60011 0.168 0.25719 0.0618 0.08573 0.0172 0.08573 0.0206 0.08573 0.0171 0.17146 0.0344 0.08573 0.0137 0.08573 0.0172 0.17146 0.0274 0.08916 0.0137 0.08573 0.0137 0.26748 0.0309 0.08916 7e-3 0.08573 7e-3 0.08916 7e-3 0.08573 7e-3 0.17832 0.014 0.08573 7e-3 0.17146 6e-3 0.08916 3e-3h0.43896l0.08916-3e-3h0.08916l0.17832-6e-3 0.17832-0.014 0.08916-3e-3 0.26748-0.021 0.08573-7e-3 0.17832-0.0206 0.08573-0.0103 0.08916-0.0103 0.08573-0.0137 0.08916-0.0137 0.08573-0.0137 0.08916-0.0137 0.08573-0.0137 0.08573-0.0172 0.08573-0.0137 0.08916-0.0172 0.08573-0.0171 0.08573-0.0206 0.08573-0.0171 0.34292-0.0824 0.34292-0.096 0.08916-0.0274 0.12345-0.0411 0.04458-0.0137 0.04115-0.0137 0.04458-0.0137 0.0823-0.0274 0.04458-0.0137 0.0823-0.0274 0.04458-0.0171 0.04115-0.0137 0.04458-0.0137 0.04115-0.0171 0.12345-0.0411 0.04458-0.0171 0.04115-0.0137 0.04115-0.0172 0.04115-0.0171 0.0823-0.0344 0.04115-0.0171 0.0823-0.0344 0.04115-0.0171 0.0823-0.0344 0.0823-0.0412 0.04115-0.0172 0.0823-0.0412 0.04115-0.0172 0.12345-0.0618 0.03772-0.0206 0.3292-0.1648 0.03772-0.0206 0.0823-0.0412 0.04458-0.024 39.77-22.164 0.048-0.024 0.0446-0.024 0.1236-0.072 0.0412-0.0274 0.0446-0.024 0.1236-0.072 0.0412-0.0274 0.0411-0.0274 0.0412-0.024 0.0824-0.04802 0.0824-0.05486 0.0411-0.02401 0.0412-0.02743 0.0412-0.02401 0.0754-0.05486 0.0377-0.02744 0.0754-0.05486 0.0412-0.02743 0.0377-0.02743 0.0412-0.02743 0.1885-0.13715 0.0412-0.02743 0.0377-0.03086 0.0377-0.02743 0.0377-0.03086 0.0377-0.02743 0.1131-0.09258 0.0754-0.05486 0.0377-0.03086 0.0343-0.03086 0.0754-0.06172 0.0343-0.02743 0.0377-0.03086 0.0377-0.03429 0.0343-0.03086 0.0377-0.03086 0.0686-0.06172 0.0343-0.03429 0.0377-0.03086 0.0343-0.03429 0.0343-0.03086 0.0686-0.06858 0.0343-0.03086 0.0343-0.03429 0.0343-0.03086 0.1372-0.13716 0.0309-0.03429 0.0343-0.03429 0.0309-0.03429 0.1029-0.10287 0.1236-0.13716 0.0343-0.03429 0.2163-0.24003 0.0927-0.11316 0.0927-0.10287 0.0309-0.03772 0.0309-0.03429 0.0309-0.03772 0.0274-0.03429 0.0548-0.07544 0.0274-0.03429 0.0309-0.03772 0.3288-0.45264 0.024-0.03772 0.024-0.04115 0.0274-0.04115 0.0274-0.03772 0.048-0.07544 0.0274-0.04115 0.0274-0.03772 0.024-0.03772 0.096-0.1646 0.024-0.03772 0.048-0.0823 0.024-0.03772 0.072-0.12345 0.0412-0.0823 0.048-0.0823 0.0206-0.04115 0.048-0.0823 0.0412-0.0823 0.0206-0.04458 0.0206-0.04115 0.048-0.0823 0.0618-0.12345 0.0206-0.04458 0.0412-0.0823 0.0206-0.04458 0.0412-0.0823 0.0618-0.13374 0.0206-0.04115 0.0172-0.04115 0.0171-0.04458 0.0172-0.04458 0.0171-0.04458 0.0171-0.04115 0.0172-0.04458 0.0171-0.04458 0.0172-0.04458 0.0171-0.04115 0.0171-0.04458 0.0172-0.04458 0.0342-0.08916 0.0172-0.04458 0.0548-0.17832 0.0171-0.04458 0.0344-0.08916 0.0171-0.04458 0.0137-0.04458 0.0172-0.04458 0.0274-0.08916 0.0172-0.04458 0.0548-0.17832 0.0103-0.04458 0.0548-0.17832 0.0103-0.04458 0.0103-0.04801 0.0137-0.04458 0.0103-0.04458 0.0103-0.04801 0.0137-0.04458 0.0309-0.13374 0.0103-0.04801 0.0206-0.08916 7e-3 -0.04801 0.0103-0.04801 0.0103-0.04458 7e-3 -0.04801 0.0103-0.04458 0.0206-0.09602 0.0103-0.04458 0.0103-0.04801 7e-3 -0.04801 0.0103-0.04801 7e-3 -0.04458 0.0103-0.04458 0.049-0.33607 3e-3 -0.04801 7e-3 -0.04458 3e-3 -0.04801 7e-3 -0.04801 7e-3 -0.04458 7e-3 -0.04801 0.012-0.19204 7e-3 -0.04801 0.033-0.52811v-0.09602l3e-3 -0.04801v-47.474l-3e-3 -0.04218-3e-3 -0.04458v-0.04458l-3e-3 -0.04458v-0.04458l-3e-3 -0.04458v-0.04458l-3e-3 -0.04458-3e-3 -0.04115-9e-3 -0.13374-3e-3 -0.04115-3e-3 -0.04458-3e-3 -0.04115-3e-3 -0.04458-7e-3 -0.04458-6e-3 -0.0823-7e-3 -0.04115-3e-3 -0.04115-7e-3 -0.04458-3e-3 -0.04115-7e-3 -0.04115-7e-3 -0.04458-3e-3 -0.04458-3e-3 -0.04115-7e-3 -0.03772-0.0137-0.09019-0.0103-0.08745-0.0137-0.08916-0.0137-0.08573-0.0172-0.08573-0.0171-0.08573-0.0137-0.08573-0.0172-0.08573-0.1442-0.60011-0.072-0.25719-0.0274-0.08573-0.024-0.0823-0.1096-0.3292-0.0618-0.1646-0.0309-0.07887-0.0927-0.2469-0.0343-0.07887-0.0309-0.0823-0.0343-0.07888-0.0343-0.07887-0.0343-0.07888-0.0377-0.07887-0.0343-0.07887-0.0377-0.07888-0.0377-0.07887-0.0377-0.07545-0.0412-0.07888-0.0377-0.07887-0.0412-0.07887-0.1648-0.3018-0.0411-0.07545-0.0446-0.07545-0.0446-0.07544-0.0446-0.07545-0.048-0.07545-0.0892-0.14404-0.288-0.43212-0.257-0.34295-0.2196-0.27436-0.0549-0.06516-0.0583-0.06516-0.0549-0.06516-0.2915-0.3258-0.3085-0.30865-0.0652-0.06173-0.0651-0.06173-0.1304-0.1166-0.0651-0.0583-0.1304-0.1166-0.0686-0.0583-0.1372-0.10974-0.0652-0.05487-0.072-0.0583-0.0309-0.02401-0.0686-0.05486-0.0343-0.02744-0.0343-0.02743-0.0343-0.02401-0.0686-0.05486-0.0377-0.02744-0.0377-0.02743-0.0343-0.02743-0.0343-0.02744-0.0343-0.02743-0.0343-0.02401-0.0343-0.02743-0.0377-0.02743-0.0686-0.04802-0.0377-0.02743-0.0754-0.04802-0.0343-0.02401-0.0377-0.024-0.1131-0.07203-0.0377-0.024-0.1508-0.09604-0.0754-0.04116-0.0446-0.02401-38.806-22.767-0.05487-0.03361-0.04973-0.02743-0.10288-0.06172-0.05041-0.02846-0.05144-0.02744-0.04972-0.02743-0.10288-0.05488-0.05144-0.02743-0.05041-0.02744-0.15432-0.08229-0.05144-0.02744-0.05144-0.02743-0.05144-0.02744-0.05247-0.02401-0.05144-0.02743-0.10288-0.04802-0.05144-0.02744-0.05315-0.024-0.10288-0.04802-0.0535-0.024-0.05144-0.02401-0.05144-0.02058-0.05316-0.02401-0.05212-0.02401-0.05144-0.02401-0.05315-0.02058-0.05144-0.02058-0.05487-0.02058-0.05281-0.02401-0.05418-0.02058-0.05487-0.024-0.05487-0.02058-0.1063-0.04116-0.05384-0.02058-0.10974-0.04116-0.05144-0.02058-0.10288-0.0343-0.05487-0.02058-0.05487-0.01715-0.05144-0.01715-0.10974-0.0343-0.05144-0.01715-0.16461-0.05145-0.05144-0.01715-0.16461-0.05145-0.05487-0.01372-0.05487-0.01715-0.05487-0.013717-0.05487-0.017147-0.16461-0.041151-0.05487-0.017147-0.10974-0.027434-0.05487-0.010288-0.16461-0.041151-0.05487-0.010288-0.05487-0.013717-0.10974-0.020576-0.05487-0.013717-0.32922-0.061728-0.0583-0.010288-0.21948-0.02744-0.10974-0.020576-0.05487-0.00686-0.0583-0.010288-0.05487-0.00686-0.05487-0.010288-0.27435-0.0343-0.0583-0.00686-0.05487-0.00343-0.10974-0.01372-0.27435-0.01715-0.1166-0.00686-0.10974-0.00686h-0.05487l-0.10974-0.00686h-0.0583l-0.10974-0.00686-0.05144-0.00343-0.05487-0.00343h-0.11317l-0.05487-0.00343h-0.10974z" fill="#c9177e"/>
  <polygon transform="translate(7.2446 .010163)" points="71.735 101.85 71.735 70.779 47.072 70.779 47.072 101.85 32.205 101.85 32.205 30.789 47.072 30.789 47.072 56.673 71.735 56.673 71.735 30.789 86.646 30.789 86.646 101.85" fill="#fff" fill-rule="nonzero"/>
 </g>
</svg>
