<?xml version="1.0" encoding="UTF-8"?>
<svg width="291" height="291" version="1.1" viewBox="0 0 291 291" xmlns="http://www.w3.org/2000/svg" xmlns:cc="http://creativecommons.org/ns#" xmlns:dc="http://purl.org/dc/elements/1.1/" xmlns:rdf="http://www.w3.org/1999/02/22-rdf-syntax-ns#">
 <metadata>
  <rdf:RDF>
   <cc:Work rdf:about="">
    <dc:format>image/svg+xml</dc:format>
    <dc:type rdf:resource="http://purl.org/dc/dcmitype/StillImage"/>
    <dc:title/>
   </cc:Work>
  </rdf:RDF>
 </metadata>
 <g fill-rule="evenodd">
  <path d="m228.03 133.47c-0.74039 0.14836-1.4808 1.7788-1.4808 2.6676-0.14821 5.9271-0.2967 21.636-0.2967 32.305 0 0.29669 0.44368 0.88871 0.88871 0.88871 2.2225 0.1482 7.5576 0.2967 12.151 0.2967 6.3722 0 10.077-0.88872 12.152-1.7774 5.3337-2.6675 7.8529-8.4477 7.8529-14.82 0-14.373-10.077-19.857-25.044-19.857-1.0371-0.14695-3.9999-0.14695-6.2238 0.2967zm38.233 66.24c0-14.67-10.819-22.821-30.379-22.821-0.88871 0-7.1125-0.1482-8.5947 0.14821-0.44505 0.14839-1.0371 0.44507-1.0371 0.89014 0 10.52-0.14839 27.266 0.2967 33.785 0.29532 2.8159 2.3709 6.8172 4.8901 8.0027 2.6662 1.4821 8.743 1.7775 12.891 1.7775 11.707 0 21.932-6.5191 21.932-21.783zm-68.462-74.389c1.4807 0 5.9271 0.44367 17.338 0.44367 10.817 0 19.412-0.29532 29.934-0.29532 12.891 0 30.674 4.5934 30.674 23.857 0 9.4848-6.6689 17.042-15.412 20.747-0.44368 0.14839-0.44368 0.44368 0 0.59201 12.448 3.1126 23.415 10.819 23.415 25.34 0 14.226-8.8914 23.265-21.784 28.897-7.8543 3.4079-17.634 4.5933-27.563 4.5933-7.5576 0-27.858-0.88871-39.12-0.59202-1.1854-0.44507 1.0371-5.7802 2.0741-6.6689 2.6676-0.1482 4.7417-0.29669 7.5576-1.1854 4.0013-1.0371 4.445-2.2225 5.0384-8.298 0.29672-5.1867 0.29672-23.563 0.29672-36.603 0-17.931 0.14839-30.082 0-36.009-0.14821-4.5934-1.7788-6.0755-5.0384-6.9656-2.5192-0.44367-6.6689-1.0371-10.077-1.4807-0.74177-0.74176 1.7774-5.7802 2.6675-6.3722zm-85.504 92.172c3.5577 2.8145 10.522 3.9999 16.746 3.9999 8.0026 0 16.004-1.4807 23.71-8.4463 7.8543-7.1126 13.336-18.078 13.336-35.564 0-16.746-6.3722-30.379-19.412-38.38-7.4092-4.5947-16.894-6.5205-27.86-6.5205-3.2596 0-6.3722 0.14837-8.298 1.0371-0.44505 0.2967-1.4821 1.6305-1.4821 2.3708-0.29671 2.9642-0.29671 25.784-0.29671 39.122 0 13.781 0 33.045 0.29671 35.267 0 2.2239 1.0371 5.6318 3.2596 7.1139zm-33.638-92.172c2.8159 0 13.633 0.44367 18.82 0.44367 9.3364 0 16.004-0.44367 33.638-0.44367 14.818 0 27.266 4.0013 36.158 11.558 10.817 9.3364 16.449 22.229 16.449 37.936 0 22.376-10.225 35.269-20.45 42.678-10.224 7.5576-23.562 12.003-42.528 12.003-10.077 0-27.414-0.2967-41.789-0.44507h-0.14838c-0.74036-1.3324 1.1854-6.5191 2.3709-6.6675 3.853-0.44505 4.89-0.59341 6.8172-1.3338 3.1112-1.1854 3.7046-2.8159 4.1497-8.298 0.44367-10.225 0.29532-22.524 0.29532-36.454 0-9.9285 0.14838-29.342-0.14838-35.565-0.44367-5.1854-2.6662-6.5191-7.1126-7.4092-2.2225-0.44367-5.1867-1.0371-9.335-1.4807-0.59341-1.0385 2.0741-5.6318 2.8145-6.5205z" fill="#8e714e"/>
  <path d="m189.01 89.209c-2.3019-0.27655-3.9595-0.6444-5.9857-1.5653-0.27569-0.18437-0.73659-1.1044-0.73659-1.4732-0.18437-3.2229-0.18437-12.431-0.18437-18.6 0-4.9726-0.82788-9.2999-2.9463-12.338-2.4863-3.4994-6.077-5.5248-10.681-5.5248-4.0516 0-9.4843 2.7628-13.996 6.6301-0.0922 0.09131-0.82876 0.73658-0.73658-0.27654 0-1.0131 0.18438-3.0385 0.27655-4.4195 0.0922-1.2897-0.64439-1.9341-0.64439-1.9341-2.9472 1.4732-11.234 3.4072-14.272 3.6829-2.2097 0.4609-2.7619 2.5785-0.46003 3.315h0.0922c2.4854 0.73658 4.1429 1.5653 5.4317 2.3941 0.92097 0.73658 0.82876 1.7497 0.82876 2.5785 0.0922 6.9058 0.0922 17.494-0.1835 23.296-0.0922 2.3019-0.73656 3.1298-2.3941 3.4985l0.1835-0.09218c-1.2888 0.27654-2.3019 0.55222-3.8673 0.73658-0.55222 0.55223-0.55222 3.4994 0 4.1438 1.0131 0 6.3536-0.27655 10.774-0.27655 6.077 0 9.2077 0.27655 10.773 0.27655 0.64442-0.73658 0.82879-3.4994 0.46004-4.1438-1.7497-0.09218-3.0385-0.27568-4.2351-0.6444-1.6575-0.36871-2.1184-1.1966-2.2106-3.1307-0.18349-4.8804-0.18349-15.193-0.18349-22.19 0-1.9341 0.55222-2.855 1.1045-3.4072 2.1176-1.841 5.5248-3.1307 8.5633-3.1307 2.9463 0 4.8804 0.92094 6.3535 2.1184 2.0254 1.6567 2.6698 4.0508 2.9463 5.8005 0.46003 3.9594 0.27653 11.786 0.27653 18.6 0 3.6829-0.27653 4.6038-1.6575 5.0639-0.64442 0.27654-2.3019 0.64526-4.236 0.82876-0.64441 0.6444-0.46004 3.4994 0 4.1438 2.6706 0 5.8013-0.27654 10.405-0.27654 5.7083 0 9.392 0.27654 10.865 0.27654 0.46006-0.55222 0.6444-3.2229 0.27569-3.9594zm25.506-35.173c-4.8804 0-7.9189 3.7751-7.9189 9.6677 0 5.9848 2.6698 12.891 10.221 12.891 1.2888 0 3.6829-0.55223 4.7873-1.841 1.7497-1.6575 2.9472-4.9726 2.9472-8.4711 0-7.6423-3.7759-12.246-10.036-12.246zm-0.64527 40.698c-1.841 0-3.1307 0.55223-3.9586 1.0131-3.8681 2.4854-5.617 4.8795-5.617 7.7345 0 2.6698 1.0122 4.7874 3.2228 6.6292 2.6698 2.3019 6.3527 3.4072 11.049 3.4072 9.392 0 13.536-5.0647 13.536-10.036 0-3.4994-1.7497-5.8013-5.3404-7.0901-2.5785-1.1053-7.2745-1.6575-12.891-1.6575zm0.64527 23.94c-5.617 0-9.6686-1.1975-13.167-3.8673-3.4072-2.5785-4.8804-6.4457-4.8804-9.1155 0-0.73658 0.18437-2.7628 1.8419-4.6038 1.0122-1.1053 3.222-3.2229 8.4711-6.8136 0.18348-0.09218 0.27568-0.18437 0.27568-0.36871 0-0.18437-0.18437-0.36872-0.36785-0.46004-4.3282-1.6575-5.617-4.3282-5.9857-5.8013v-0.18437c-0.0913-0.55222-0.27569-1.1044 0.55307-1.6575 0.6444-0.46003 1.5654-1.0123 2.5776-1.6567 1.5653-0.92094 3.2229-1.9341 4.236-2.7628 0.18458-0.18438 0.18458-0.36786 0.18458-0.55222 0-0.18438-0.18458-0.36872-0.36872-0.46004-6.4449-2.1184-9.6677-6.9066-9.6677-14.088 0-4.696 2.1176-8.932 5.8927-11.602 2.5784-2.0262 9.0233-4.5117 13.259-4.5117h0.27655c4.3273 0.09131 6.7214 1.0123 10.128 2.2097 1.8419 0.6444 3.5916 0.92008 5.9857 0.92008 3.5907 0 5.1561-1.1044 6.4449-2.3932 0.0922 0.18349 0.27652 0.6444 0.3687 1.841 0.0922 1.1975-0.27654 2.9463-1.1975 4.236-0.73659 1.0123-2.3933 1.7497-4.0507 1.7497h-0.4609c-1.6576-0.18437-2.3941-0.36872-2.3941-0.36872l-0.36789 0.18438c-0.0922 0.18438 0 0.36786 0.0922 0.6444l0.0922 0.18438c0.18349 0.82876 0.55219 3.3142 0.55219 3.9594 0 7.5502-3.0385 10.864-6.2614 13.351-3.1307 2.3019-6.7214 3.7751-10.773 4.1438-0.0922 0-0.46005 0-1.2888 0.09218-0.46088 0-1.1053 0.09218-1.1975 0.09218h-0.0919c-0.7366 0.18349-2.5776 1.1044-2.5776 2.6698 0 1.381 0.82873 3.0385 4.7873 3.315 0.82879 0.09218 1.6576 0.09218 2.5785 0.18437 5.2482 0.36786 11.786 0.82875 14.825 1.841 4.2351 1.5653 6.9058 5.3404 6.9058 9.853 0 6.8136-4.8804 13.167-12.983 17.126-3.9594 1.7497-7.9189 2.6706-12.246 2.6706zm52.484-64.178c-1.9341 0-3.6838 0.46004-4.9726 1.381-3.5908 2.2097-5.4326 6.6301-5.4326 13.075 0 12.063 6.077 20.534 14.732 20.534 2.5784 0 4.6038-0.73658 6.3535-2.2097 2.6698-2.2106 4.0516-6.6301 4.0516-12.799 0-11.97-5.9857-19.981-14.732-19.981zm1.6575 39.409c-15.653 0-21.27-11.51-21.27-22.283 0-7.5502 3.0385-13.351 9.1155-17.495 4.3282-2.6698 9.4842-4.1429 14.088-4.1429 11.97 0 20.349 8.5633 20.349 20.902 0 8.3789-3.315 15.008-9.6686 19.06-3.0385 2.0254-8.2867 3.9594-12.615 3.9594zm-164.08-39.409c-1.9341 0-3.6829 0.46004-4.9726 1.381-3.5907 2.2097-5.4326 6.6301-5.4326 13.075 0 12.063 6.077 20.534 14.733 20.534 2.5785 0 4.6039-0.73658 6.3536-2.2097 2.6698-2.2106 4.0516-6.6301 4.0516-12.799 0-11.97-5.8935-19.981-14.732-19.981zm1.6575 39.409c-15.653 0-21.27-11.51-21.27-22.283 0-7.5502 3.0385-13.351 9.1155-17.495 4.3282-2.6698 9.4843-4.1429 14.088-4.1429 11.971 0 20.349 8.5633 20.349 20.902 0 8.3789-3.315 15.008-9.6686 19.06-2.9463 2.0254-8.1946 3.9594-12.614 3.9594zm-105.24-0.92095c-0.18437-0.27568-0.36872-1.1044-0.27654-2.1176 0-0.73658 0.18437-1.1975 0.27654-1.381 1.9332-0.27654 2.9463-0.55309 4.0508-0.82877 1.8419-0.4609 2.5785-1.4732 2.6706-3.7751 0.27654-5.5248 0.27654-16.022 0.18438-23.296v-0.18438c0-0.82876 0-1.8419-1.0131-2.5785-1.4732-0.92008-3.2229-1.7488-5.5248-2.3941-0.82876-0.27568-1.381-0.73658-1.2888-1.2888 0-0.55222 0.55222-1.1966 1.7497-1.381 3.0385-0.27654 10.957-2.2097 14.087-3.5907 0.18437 0.18349 0.4609 0.73658 0.4609 1.4732l-0.09217 1.0123c-0.09217 1.0131-0.18438 2.2106-0.18438 3.4072 0 0.36786 0.36872 0.6444 0.73658 0.6444 0.18437 0 0.36872-0.09217 0.55308-0.18438 5.8926-4.6038 11.233-6.2614 13.995-6.2614 4.5125 0 8.0111 2.1184 10.682 6.5379 0.18349 0.27654 0.36786 0.36786 0.6444 0.36786 0.18438 0 0.46004-0.09132 0.55223-0.27568 5.4326-4.1438 10.865-6.6301 14.456-6.6301 8.5633 0 13.628 6.3535 13.628 17.127 0 3.0385 0 6.998-0.0921 10.59 0 3.222-0.0921 6.1692-0.0921 8.2868 0 0.46004 0.6444 1.9332 1.6575 2.2097 1.2888 0.6444 3.0385 0.92095 5.3404 1.2888h0.09229c0.1844 0.6444-0.1844 3.0385-0.55224 3.4994-0.55306 0-1.3818 0-2.3019-0.09218-1.7497-0.09218-4.236-0.18437-6.998-0.18437-5.7091 0-8.6555 0.09218-11.51 0.27655-0.18349-0.73658-0.27567-2.9463 0-3.4994 1.6575-0.27568 2.4863-0.55221 3.4994-0.82876 1.8419-0.55222 2.3019-1.381 2.3941-3.7751 0-1.7488 0.36788-16.666-0.1844-20.257-0.55222-3.6829-3.315-8.0102-9.392-8.0102-2.3019 0-5.8926 0.92094-9.3921 3.5907-0.18349 0.18437-0.36787 0.6444-0.36787 0.92094v0.09217c0.36787 1.9332 0.36787 4.1438 0.36787 7.5502v5.9848c0 4.1438-0.09218 8.0111 0 10.957 0 2.0262 1.1975 2.4863 2.2106 2.855 0.55222 0.0913 0.92008 0.18349 1.381 0.27568 0.82876 0.18437 1.6575 0.36872 2.9463 0.6444 0.18438 0.36872 0.18438 1.5653-0.09218 2.5785-0.09218 0.55222-0.27655 0.82875-0.36786 0.92094-3.1307-0.09218-6.3535-0.18438-11.05-0.18438-1.381 0-3.7751 0.09218-5.8013 0.09218-1.6575 0-3.2229 0.09218-4.1429 0.09218-0.09218-0.18437-0.27653-0.82877-0.27653-1.8419 0-0.82875 0.18437-1.4732 0.36872-1.6575 0.46003-0.09218 0.8279-0.18349 1.2888-0.18349 1.1044-0.18438 2.0254-0.36871 2.9463-0.55307 1.5653-0.46004 2.1176-1.2888 2.2097-3.3142 0.27654-4.6038 0.55222-17.771-0.09218-21.086-1.1044-5.3404-4.1429-8.0111-9.0233-8.0111-2.8541 0-6.4457 1.381-9.3921 3.5916-0.46004 0.36786-0.82876 1.2888-0.82876 2.1176v5.4326c0 6.6292 0 14.917 0.09217 18.508 0.09217 1.1044 0.46004 2.3941 2.5785 2.8541 0.46004 0.09218 1.1966 0.27654 2.1176 0.36872l1.6575 0.27568c0.18438 0.55308 0.09218 2.7628-0.27654 3.4994-0.92095 0-2.0254-0.09218-3.315-0.09218-1.9332-0.09218-4.4195-0.18438-7.1814-0.18438-3.2229 0-5.5248 0.09218-7.3667 0.18438-1.2888-0.18438-2.3019-0.18438-3.4064-0.18438z" fill="#442d22"/>
  <g transform="translate(1.0744 98.975)">
   <path d="m35.053 142.32-3.7834-1.2925s0.46192-19.287-6.4591-20.671c-4.614-5.3522 0.73821-227.01 17.348-0.73821 0 0-5.7209 2.8605-6.7363 7.7517-1.1078 4.7988-0.36954 14.95-0.36954 14.95z" fill="#fff"/>
   <path d="m35.053 142.32-3.7834-1.2925s0.46192-19.287-6.4591-20.671c-4.614-5.3522 0.73821-227.01 17.348-0.73821 0 0-5.7209 2.8605-6.7363 7.7517-1.1078 4.7988-0.36954 14.95-0.36954 14.95z" fill="#a6a385"/>
   <path d="m37.084 123.68s33.129-21.779 25.377-67.089c-7.4745-32.944-25.101-43.741-27.038-47.894-2.1223-2.9528-4.153-8.1203-4.153-8.1203l1.3849 91.635c0 0.09238-2.8613 28.054 4.4293 31.469" fill="#fff"/>
   <path d="m37.084 123.68s33.129-21.779 25.377-67.089c-7.4745-32.944-25.101-43.741-27.038-47.894-2.1223-2.9528-4.153-8.1203-4.153-8.1203l1.3849 91.635c0 0.09238-2.8613 28.054 4.4293 31.469" fill="#499d4a"/>
   <path d="m29.333 124.88s-31.099-21.225-29.253-58.599c1.7527-37.374 23.716-55.738 27.961-59.06 2.7689-2.9528 2.8613-4.0606 3.0461-7.0135 1.9375 4.153 1.5688 62.106 1.8451 68.934 0.8306 26.3-1.4764 50.755-3.5987 55.738z" fill="#fff"/>
   <path d="m29.333 124.88s-31.099-21.225-29.253-58.599c1.7527-37.374 23.716-55.738 27.961-59.06 2.7689-2.9528 2.8613-4.0606 3.0461-7.0135 1.9375 4.153 1.5688 62.106 1.8451 68.934 0.8306 26.3-1.4764 50.755-3.5987 55.738z" fill="#58aa50"/>
  </g>
 </g>
</svg>
